{
  "header": {
    "PPQ": 480,
    "timeSignature": [
      4,
      4
    ],
    "bpm": 114.0001710002565,
    "name": "EVENTS"
  },
  "startTime": 0,
  "duration": 343.484133895837,
  "tracks": [
    {
      "startTime": 0,
      "duration": 0,
      "length": 0,
      "notes": [],
      "controlChanges": {},
      "id": 0
    },
    {
      "startTime": 0,
      "duration": 0,
      "length": 0,
      "notes": [],
      "controlChanges": {},
      "id": 1,
      "name": "EVENTS"
    },
    {
      "startTime": 9.47367,
      "duration": 343.48413389583567,
      "length": 6539,
      "notes": [
        {
          "name": "C#4",
          "midi": 61,
          "time": 9.47367,
          "velocity": 0.7874015748031497,
          "duration": 0.0657893749999996
        },
        {
          "name": "F#4",
          "midi": 66,
          "time": 9.47367,
          "velocity": 0.7874015748031497,
          "duration": 0.0657893749999996
        },
        {
          "name": "D5",
          "midi": 74,
          "time": 9.47367,
          "velocity": 0.7874015748031497,
          "duration": 0.0657893749999996
        },
        {
          "name": "F#5",
          "midi": 78,
          "time": 9.47367,
          "velocity": 0.7874015748031497,
          "duration": 0.0657893749999996
        },
        {
          "name": "D#6",
          "midi": 87,
          "time": 9.47367,
          "velocity": 0.7874015748031497,
          "duration": 0.0657893749999996
        },
        {
          "name": "F#6",
          "midi": 90,
          "time": 9.47367,
          "velocity": 0.7874015748031497,
          "duration": 0.0657893749999996
        },
        {
          "name": "E7",
          "midi": 100,
          "time": 9.47367,
          "velocity": 0.7874015748031497,
          "duration": 0.0657893749999996
        },
        {
          "name": "F#7",
          "midi": 102,
          "time": 9.47367,
          "velocity": 0.7874015748031497,
          "duration": 0.0657893749999996
        },
        {
          "name": "C4",
          "midi": 60,
          "time": 9.999985,
          "velocity": 0.7874015748031497,
          "duration": 0.0668858645833339
        },
        {
          "name": "F#4",
          "midi": 66,
          "time": 9.999985,
          "velocity": 0.7874015748031497,
          "duration": 0.0668858645833339
        },
        {
          "name": "C5",
          "midi": 72,
          "time": 9.999985,
          "velocity": 0.7874015748031497,
          "duration": 0.0668858645833339
        },
        {
          "name": "F#5",
          "midi": 78,
          "time": 9.999985,
          "velocity": 0.7874015748031497,
          "duration": 0.0668858645833339
        },
        {
          "name": "C6",
          "midi": 84,
          "time": 9.999985,
          "velocity": 0.7874015748031497,
          "duration": 0.0668858645833339
        },
        {
          "name": "F#6",
          "midi": 90,
          "time": 9.999985,
          "velocity": 0.7874015748031497,
          "duration": 0.0668858645833339
        },
        {
          "name": "C7",
          "midi": 96,
          "time": 9.999985,
          "velocity": 0.7874015748031497,
          "duration": 0.0668858645833339
        },
        {
          "name": "F#7",
          "midi": 102,
          "time": 9.999985,
          "velocity": 0.7874015748031497,
          "duration": 0.0668858645833339
        },
        {
          "name": "C#4",
          "midi": 61,
          "time": 10.266431968750002,
          "velocity": 0.7874015748031497,
          "duration": 0.06359639583333276
        },
        {
          "name": "F#4",
          "midi": 66,
          "time": 10.266431968750002,
          "velocity": 0.7874015748031497,
          "duration": 0.06359639583333276
        },
        {
          "name": "D5",
          "midi": 74,
          "time": 10.266431968750002,
          "velocity": 0.7874015748031497,
          "duration": 0.06359639583333276
        },
        {
          "name": "F#5",
          "midi": 78,
          "time": 10.266431968750002,
          "velocity": 0.7874015748031497,
          "duration": 0.06359639583333276
        },
        {
          "name": "D#6",
          "midi": 87,
          "time": 10.266431968750002,
          "velocity": 0.7874015748031497,
          "duration": 0.06359639583333276
        },
        {
          "name": "F#6",
          "midi": 90,
          "time": 10.266431968750002,
          "velocity": 0.7874015748031497,
          "duration": 0.06359639583333276
        },
        {
          "name": "E7",
          "midi": 100,
          "time": 10.266431968750002,
          "velocity": 0.7874015748031497,
          "duration": 0.06359639583333276
        },
        {
          "name": "F#7",
          "midi": 102,
          "time": 10.266431968750002,
          "velocity": 0.7874015748031497,
          "duration": 0.06359639583333276
        },
        {
          "name": "C#4",
          "midi": 61,
          "time": 10.792746968750002,
          "velocity": 0.7874015748031497,
          "duration": 0.06469288541666707
        },
        {
          "name": "F#4",
          "midi": 66,
          "time": 10.792746968750002,
          "velocity": 0.7874015748031497,
          "duration": 0.06469288541666707
        },
        {
          "name": "D5",
          "midi": 74,
          "time": 10.792746968750002,
          "velocity": 0.7874015748031497,
          "duration": 0.06469288541666707
        },
        {
          "name": "F#5",
          "midi": 78,
          "time": 10.792746968750002,
          "velocity": 0.7874015748031497,
          "duration": 0.06469288541666707
        },
        {
          "name": "D#6",
          "midi": 87,
          "time": 10.792746968750002,
          "velocity": 0.7874015748031497,
          "duration": 0.06469288541666707
        },
        {
          "name": "F#6",
          "midi": 90,
          "time": 10.792746968750002,
          "velocity": 0.7874015748031497,
          "duration": 0.06469288541666707
        },
        {
          "name": "E7",
          "midi": 100,
          "time": 10.792746968750002,
          "velocity": 0.7874015748031497,
          "duration": 0.06469288541666707
        },
        {
          "name": "F#7",
          "midi": 102,
          "time": 10.792746968750002,
          "velocity": 0.7874015748031497,
          "duration": 0.06469288541666707
        },
        {
          "name": "C#4",
          "midi": 61,
          "time": 11.315772500000003,
          "velocity": 0.7874015748031497,
          "duration": 0.06469288541666707
        },
        {
          "name": "F#4",
          "midi": 66,
          "time": 11.315772500000003,
          "velocity": 0.7874015748031497,
          "duration": 0.06469288541666707
        },
        {
          "name": "D5",
          "midi": 74,
          "time": 11.315772500000003,
          "velocity": 0.7874015748031497,
          "duration": 0.06469288541666707
        },
        {
          "name": "F#5",
          "midi": 78,
          "time": 11.315772500000003,
          "velocity": 0.7874015748031497,
          "duration": 0.06469288541666707
        },
        {
          "name": "D#6",
          "midi": 87,
          "time": 11.315772500000003,
          "velocity": 0.7874015748031497,
          "duration": 0.06469288541666707
        },
        {
          "name": "F#6",
          "midi": 90,
          "time": 11.315772500000003,
          "velocity": 0.7874015748031497,
          "duration": 0.06469288541666707
        },
        {
          "name": "E7",
          "midi": 100,
          "time": 11.315772500000003,
          "velocity": 0.7874015748031497,
          "duration": 0.06469288541666707
        },
        {
          "name": "F#7",
          "midi": 102,
          "time": 11.315772500000003,
          "velocity": 0.7874015748031497,
          "duration": 0.06469288541666707
        },
        {
          "name": "C4",
          "midi": 60,
          "time": 11.832219093750004,
          "velocity": 0.7874015748031497,
          "duration": 0.06798235416666643
        },
        {
          "name": "F#4",
          "midi": 66,
          "time": 11.832219093750004,
          "velocity": 0.7874015748031497,
          "duration": 0.06798235416666643
        },
        {
          "name": "C5",
          "midi": 72,
          "time": 11.832219093750004,
          "velocity": 0.7874015748031497,
          "duration": 0.06798235416666643
        },
        {
          "name": "F#5",
          "midi": 78,
          "time": 11.832219093750004,
          "velocity": 0.7874015748031497,
          "duration": 0.06798235416666643
        },
        {
          "name": "C6",
          "midi": 84,
          "time": 11.832219093750004,
          "velocity": 0.7874015748031497,
          "duration": 0.06798235416666643
        },
        {
          "name": "F#6",
          "midi": 90,
          "time": 11.832219093750004,
          "velocity": 0.7874015748031497,
          "duration": 0.06798235416666643
        },
        {
          "name": "C7",
          "midi": 96,
          "time": 11.832219093750004,
          "velocity": 0.7874015748031497,
          "duration": 0.06798235416666643
        },
        {
          "name": "F#7",
          "midi": 102,
          "time": 11.832219093750004,
          "velocity": 0.7874015748031497,
          "duration": 0.06798235416666643
        },
        {
          "name": "C#4",
          "midi": 61,
          "time": 12.105245000000004,
          "velocity": 0.7874015748031497,
          "duration": 0.0657893749999996
        },
        {
          "name": "F#4",
          "midi": 66,
          "time": 12.105245000000004,
          "velocity": 0.7874015748031497,
          "duration": 0.0657893749999996
        },
        {
          "name": "D5",
          "midi": 74,
          "time": 12.105245000000004,
          "velocity": 0.7874015748031497,
          "duration": 0.0657893749999996
        },
        {
          "name": "F#5",
          "midi": 78,
          "time": 12.105245000000004,
          "velocity": 0.7874015748031497,
          "duration": 0.0657893749999996
        },
        {
          "name": "D#6",
          "midi": 87,
          "time": 12.105245000000004,
          "velocity": 0.7874015748031497,
          "duration": 0.0657893749999996
        },
        {
          "name": "F#6",
          "midi": 90,
          "time": 12.105245000000004,
          "velocity": 0.7874015748031497,
          "duration": 0.0657893749999996
        },
        {
          "name": "E7",
          "midi": 100,
          "time": 12.105245000000004,
          "velocity": 0.7874015748031497,
          "duration": 0.0657893749999996
        },
        {
          "name": "F#7",
          "midi": 102,
          "time": 12.105245000000004,
          "velocity": 0.7874015748031497,
          "duration": 0.0657893749999996
        },
        {
          "name": "C#4",
          "midi": 61,
          "time": 12.631560000000004,
          "velocity": 0.7874015748031497,
          "duration": 0.06469288541666707
        },
        {
          "name": "F#4",
          "midi": 66,
          "time": 12.631560000000004,
          "velocity": 0.7874015748031497,
          "duration": 0.06469288541666707
        },
        {
          "name": "D5",
          "midi": 74,
          "time": 12.631560000000004,
          "velocity": 0.7874015748031497,
          "duration": 0.06469288541666707
        },
        {
          "name": "F#5",
          "midi": 78,
          "time": 12.631560000000004,
          "velocity": 0.7874015748031497,
          "duration": 0.06469288541666707
        },
        {
          "name": "D#6",
          "midi": 87,
          "time": 12.631560000000004,
          "velocity": 0.7874015748031497,
          "duration": 0.06469288541666707
        },
        {
          "name": "F#6",
          "midi": 90,
          "time": 12.631560000000004,
          "velocity": 0.7874015748031497,
          "duration": 0.06469288541666707
        },
        {
          "name": "E7",
          "midi": 100,
          "time": 12.631560000000004,
          "velocity": 0.7874015748031497,
          "duration": 0.06469288541666707
        },
        {
          "name": "F#7",
          "midi": 102,
          "time": 12.631560000000004,
          "velocity": 0.7874015748031497,
          "duration": 0.06469288541666707
        },
        {
          "name": "C#4",
          "midi": 61,
          "time": 13.157875000000004,
          "velocity": 0.7874015748031497,
          "duration": 0.0657893749999996
        },
        {
          "name": "F#4",
          "midi": 66,
          "time": 13.157875000000004,
          "velocity": 0.7874015748031497,
          "duration": 0.0657893749999996
        },
        {
          "name": "D5",
          "midi": 74,
          "time": 13.157875000000004,
          "velocity": 0.7874015748031497,
          "duration": 0.0657893749999996
        },
        {
          "name": "F#5",
          "midi": 78,
          "time": 13.157875000000004,
          "velocity": 0.7874015748031497,
          "duration": 0.0657893749999996
        },
        {
          "name": "D#6",
          "midi": 87,
          "time": 13.157875000000004,
          "velocity": 0.7874015748031497,
          "duration": 0.0657893749999996
        },
        {
          "name": "F#6",
          "midi": 90,
          "time": 13.157875000000004,
          "velocity": 0.7874015748031497,
          "duration": 0.0657893749999996
        },
        {
          "name": "E7",
          "midi": 100,
          "time": 13.157875000000004,
          "velocity": 0.7874015748031497,
          "duration": 0.0657893749999996
        },
        {
          "name": "F#7",
          "midi": 102,
          "time": 13.157875000000004,
          "velocity": 0.7874015748031497,
          "duration": 0.0657893749999996
        },
        {
          "name": "C#4",
          "midi": 61,
          "time": 13.684190000000005,
          "velocity": 0.7874015748031497,
          "duration": 0.0657893749999996
        },
        {
          "name": "F#4",
          "midi": 66,
          "time": 13.684190000000005,
          "velocity": 0.7874015748031497,
          "duration": 0.0657893749999996
        },
        {
          "name": "D5",
          "midi": 74,
          "time": 13.684190000000005,
          "velocity": 0.7874015748031497,
          "duration": 0.0657893749999996
        },
        {
          "name": "F#5",
          "midi": 78,
          "time": 13.684190000000005,
          "velocity": 0.7874015748031497,
          "duration": 0.0657893749999996
        },
        {
          "name": "D#6",
          "midi": 87,
          "time": 13.684190000000005,
          "velocity": 0.7874015748031497,
          "duration": 0.0657893749999996
        },
        {
          "name": "F#6",
          "midi": 90,
          "time": 13.684190000000005,
          "velocity": 0.7874015748031497,
          "duration": 0.0657893749999996
        },
        {
          "name": "E7",
          "midi": 100,
          "time": 13.684190000000005,
          "velocity": 0.7874015748031497,
          "duration": 0.0657893749999996
        },
        {
          "name": "F#7",
          "midi": 102,
          "time": 13.684190000000005,
          "velocity": 0.7874015748031497,
          "duration": 0.0657893749999996
        },
        {
          "name": "C4",
          "midi": 60,
          "time": 14.210505000000005,
          "velocity": 0.7874015748031497,
          "duration": 0.06469288541666707
        },
        {
          "name": "F#4",
          "midi": 66,
          "time": 14.210505000000005,
          "velocity": 0.7874015748031497,
          "duration": 0.06469288541666707
        },
        {
          "name": "C5",
          "midi": 72,
          "time": 14.210505000000005,
          "velocity": 0.7874015748031497,
          "duration": 0.06469288541666707
        },
        {
          "name": "F#5",
          "midi": 78,
          "time": 14.210505000000005,
          "velocity": 0.7874015748031497,
          "duration": 0.06469288541666707
        },
        {
          "name": "C6",
          "midi": 84,
          "time": 14.210505000000005,
          "velocity": 0.7874015748031497,
          "duration": 0.06469288541666707
        },
        {
          "name": "F#6",
          "midi": 90,
          "time": 14.210505000000005,
          "velocity": 0.7874015748031497,
          "duration": 0.06469288541666707
        },
        {
          "name": "C7",
          "midi": 96,
          "time": 14.210505000000005,
          "velocity": 0.7874015748031497,
          "duration": 0.06469288541666707
        },
        {
          "name": "F#7",
          "midi": 102,
          "time": 14.210505000000005,
          "velocity": 0.7874015748031497,
          "duration": 0.06469288541666707
        },
        {
          "name": "C6",
          "midi": 84,
          "time": 14.47475898958334,
          "velocity": 0.7874015748031497,
          "duration": 0.06469288541666707
        },
        {
          "name": "F#6",
          "midi": 90,
          "time": 14.47475898958334,
          "velocity": 0.7874015748031497,
          "duration": 0.06469288541666707
        },
        {
          "name": "C7",
          "midi": 96,
          "time": 14.47475898958334,
          "velocity": 0.7874015748031497,
          "duration": 0.06469288541666707
        },
        {
          "name": "F#7",
          "midi": 102,
          "time": 14.47475898958334,
          "velocity": 0.7874015748031497,
          "duration": 0.06469288541666707
        },
        {
          "name": "C#4",
          "midi": 61,
          "time": 14.736820000000007,
          "velocity": 0.7874015748031497,
          "duration": 0.06469288541666707
        },
        {
          "name": "F#4",
          "midi": 66,
          "time": 14.736820000000007,
          "velocity": 0.7874015748031497,
          "duration": 0.06469288541666707
        },
        {
          "name": "D5",
          "midi": 74,
          "time": 14.736820000000007,
          "velocity": 0.7874015748031497,
          "duration": 0.06469288541666707
        },
        {
          "name": "F#5",
          "midi": 78,
          "time": 14.736820000000007,
          "velocity": 0.7874015748031497,
          "duration": 0.06469288541666707
        },
        {
          "name": "D#6",
          "midi": 87,
          "time": 14.736820000000007,
          "velocity": 0.7874015748031497,
          "duration": 0.06469288541666707
        },
        {
          "name": "F#6",
          "midi": 90,
          "time": 14.736820000000007,
          "velocity": 0.7874015748031497,
          "duration": 0.06469288541666707
        },
        {
          "name": "E7",
          "midi": 100,
          "time": 14.736820000000007,
          "velocity": 0.7874015748031497,
          "duration": 0.06469288541666707
        },
        {
          "name": "F#7",
          "midi": 102,
          "time": 14.736820000000007,
          "velocity": 0.7874015748031497,
          "duration": 0.06469288541666707
        },
        {
          "name": "C4",
          "midi": 60,
          "time": 15.263135000000007,
          "velocity": 0.7874015748031497,
          "duration": 0.06469288541666707
        },
        {
          "name": "F#4",
          "midi": 66,
          "time": 15.263135000000007,
          "velocity": 0.7874015748031497,
          "duration": 0.06469288541666707
        },
        {
          "name": "C5",
          "midi": 72,
          "time": 15.263135000000007,
          "velocity": 0.7874015748031497,
          "duration": 0.06469288541666707
        },
        {
          "name": "F#5",
          "midi": 78,
          "time": 15.263135000000007,
          "velocity": 0.7874015748031497,
          "duration": 0.06469288541666707
        },
        {
          "name": "C6",
          "midi": 84,
          "time": 15.263135000000007,
          "velocity": 0.7874015748031497,
          "duration": 0.06469288541666707
        },
        {
          "name": "F#6",
          "midi": 90,
          "time": 15.263135000000007,
          "velocity": 0.7874015748031497,
          "duration": 0.06469288541666707
        },
        {
          "name": "C7",
          "midi": 96,
          "time": 15.263135000000007,
          "velocity": 0.7874015748031497,
          "duration": 0.06469288541666707
        },
        {
          "name": "F#7",
          "midi": 102,
          "time": 15.263135000000007,
          "velocity": 0.7874015748031497,
          "duration": 0.06469288541666707
        },
        {
          "name": "C#4",
          "midi": 61,
          "time": 15.527388989583342,
          "velocity": 0.7874015748031497,
          "duration": 0.06469288541666707
        },
        {
          "name": "F#4",
          "midi": 66,
          "time": 15.527388989583342,
          "velocity": 0.7874015748031497,
          "duration": 0.06469288541666707
        },
        {
          "name": "D5",
          "midi": 74,
          "time": 15.527388989583342,
          "velocity": 0.7874015748031497,
          "duration": 0.06469288541666707
        },
        {
          "name": "F#5",
          "midi": 78,
          "time": 15.527388989583342,
          "velocity": 0.7874015748031497,
          "duration": 0.06469288541666707
        },
        {
          "name": "D#6",
          "midi": 87,
          "time": 15.527388989583342,
          "velocity": 0.7874015748031497,
          "duration": 0.06469288541666707
        },
        {
          "name": "F#6",
          "midi": 90,
          "time": 15.527388989583342,
          "velocity": 0.7874015748031497,
          "duration": 0.06469288541666707
        },
        {
          "name": "E7",
          "midi": 100,
          "time": 15.527388989583342,
          "velocity": 0.7874015748031497,
          "duration": 0.06469288541666707
        },
        {
          "name": "F#7",
          "midi": 102,
          "time": 15.527388989583342,
          "velocity": 0.7874015748031497,
          "duration": 0.06469288541666707
        },
        {
          "name": "C#4",
          "midi": 61,
          "time": 16.054800479166676,
          "velocity": 0.7874015748031497,
          "duration": 0.06578937500000137
        },
        {
          "name": "F#4",
          "midi": 66,
          "time": 16.054800479166676,
          "velocity": 0.7874015748031497,
          "duration": 0.06578937500000137
        },
        {
          "name": "D5",
          "midi": 74,
          "time": 16.054800479166676,
          "velocity": 0.7874015748031497,
          "duration": 0.06578937500000137
        },
        {
          "name": "F#5",
          "midi": 78,
          "time": 16.054800479166676,
          "velocity": 0.7874015748031497,
          "duration": 0.06578937500000137
        },
        {
          "name": "D#6",
          "midi": 87,
          "time": 16.054800479166676,
          "velocity": 0.7874015748031497,
          "duration": 0.06578937500000137
        },
        {
          "name": "F#6",
          "midi": 90,
          "time": 16.054800479166676,
          "velocity": 0.7874015748031497,
          "duration": 0.06578937500000137
        },
        {
          "name": "E7",
          "midi": 100,
          "time": 16.054800479166676,
          "velocity": 0.7874015748031497,
          "duration": 0.06578937500000137
        },
        {
          "name": "F#7",
          "midi": 102,
          "time": 16.054800479166676,
          "velocity": 0.7874015748031497,
          "duration": 0.06578937500000137
        },
        {
          "name": "C#4",
          "midi": 61,
          "time": 16.57892250000001,
          "velocity": 0.7874015748031497,
          "duration": 0.06578937500000137
        },
        {
          "name": "F#4",
          "midi": 66,
          "time": 16.57892250000001,
          "velocity": 0.7874015748031497,
          "duration": 0.06578937500000137
        },
        {
          "name": "D5",
          "midi": 74,
          "time": 16.57892250000001,
          "velocity": 0.7874015748031497,
          "duration": 0.06578937500000137
        },
        {
          "name": "F#5",
          "midi": 78,
          "time": 16.57892250000001,
          "velocity": 0.7874015748031497,
          "duration": 0.06578937500000137
        },
        {
          "name": "D#6",
          "midi": 87,
          "time": 16.57892250000001,
          "velocity": 0.7874015748031497,
          "duration": 0.06578937500000137
        },
        {
          "name": "F#6",
          "midi": 90,
          "time": 16.57892250000001,
          "velocity": 0.7874015748031497,
          "duration": 0.06578937500000137
        },
        {
          "name": "E7",
          "midi": 100,
          "time": 16.57892250000001,
          "velocity": 0.7874015748031497,
          "duration": 0.06578937500000137
        },
        {
          "name": "F#7",
          "midi": 102,
          "time": 16.57892250000001,
          "velocity": 0.7874015748031497,
          "duration": 0.06578937500000137
        },
        {
          "name": "C4",
          "midi": 60,
          "time": 17.105237500000012,
          "velocity": 0.7874015748031497,
          "duration": 0.06578937500000137
        },
        {
          "name": "F#4",
          "midi": 66,
          "time": 17.105237500000012,
          "velocity": 0.7874015748031497,
          "duration": 0.06578937500000137
        },
        {
          "name": "C5",
          "midi": 72,
          "time": 17.105237500000012,
          "velocity": 0.7874015748031497,
          "duration": 0.06578937500000137
        },
        {
          "name": "F#5",
          "midi": 78,
          "time": 17.105237500000012,
          "velocity": 0.7874015748031497,
          "duration": 0.06578937500000137
        },
        {
          "name": "C6",
          "midi": 84,
          "time": 17.105237500000012,
          "velocity": 0.7874015748031497,
          "duration": 0.06578937500000137
        },
        {
          "name": "F#6",
          "midi": 90,
          "time": 17.105237500000012,
          "velocity": 0.7874015748031497,
          "duration": 0.06578937500000137
        },
        {
          "name": "C7",
          "midi": 96,
          "time": 17.105237500000012,
          "velocity": 0.7874015748031497,
          "duration": 0.06578937500000137
        },
        {
          "name": "F#7",
          "midi": 102,
          "time": 17.105237500000012,
          "velocity": 0.7874015748031497,
          "duration": 0.06578937500000137
        },
        {
          "name": "C#4",
          "midi": 61,
          "time": 17.368395000000014,
          "velocity": 0.7874015748031497,
          "duration": 0.06469288541666529
        },
        {
          "name": "F#4",
          "midi": 66,
          "time": 17.368395000000014,
          "velocity": 0.7874015748031497,
          "duration": 0.06469288541666529
        },
        {
          "name": "D5",
          "midi": 74,
          "time": 17.368395000000014,
          "velocity": 0.7874015748031497,
          "duration": 0.06469288541666529
        },
        {
          "name": "F#5",
          "midi": 78,
          "time": 17.368395000000014,
          "velocity": 0.7874015748031497,
          "duration": 0.06469288541666529
        },
        {
          "name": "D#6",
          "midi": 87,
          "time": 17.368395000000014,
          "velocity": 0.7874015748031497,
          "duration": 0.06469288541666529
        },
        {
          "name": "F#6",
          "midi": 90,
          "time": 17.368395000000014,
          "velocity": 0.7874015748031497,
          "duration": 0.06469288541666529
        },
        {
          "name": "E7",
          "midi": 100,
          "time": 17.368395000000014,
          "velocity": 0.7874015748031497,
          "duration": 0.06469288541666529
        },
        {
          "name": "F#7",
          "midi": 102,
          "time": 17.368395000000014,
          "velocity": 0.7874015748031497,
          "duration": 0.06469288541666529
        },
        {
          "name": "C#4",
          "midi": 61,
          "time": 17.894710000000014,
          "velocity": 0.7874015748031497,
          "duration": 0.06359639583333276
        },
        {
          "name": "F#4",
          "midi": 66,
          "time": 17.894710000000014,
          "velocity": 0.7874015748031497,
          "duration": 0.06359639583333276
        },
        {
          "name": "D5",
          "midi": 74,
          "time": 17.894710000000014,
          "velocity": 0.7874015748031497,
          "duration": 0.06359639583333276
        },
        {
          "name": "F#5",
          "midi": 78,
          "time": 17.894710000000014,
          "velocity": 0.7874015748031497,
          "duration": 0.06359639583333276
        },
        {
          "name": "D#6",
          "midi": 87,
          "time": 17.894710000000014,
          "velocity": 0.7874015748031497,
          "duration": 0.06359639583333276
        },
        {
          "name": "F#6",
          "midi": 90,
          "time": 17.894710000000014,
          "velocity": 0.7874015748031497,
          "duration": 0.06359639583333276
        },
        {
          "name": "E7",
          "midi": 100,
          "time": 17.894710000000014,
          "velocity": 0.7874015748031497,
          "duration": 0.06359639583333276
        },
        {
          "name": "F#7",
          "midi": 102,
          "time": 17.894710000000014,
          "velocity": 0.7874015748031497,
          "duration": 0.06359639583333276
        },
        {
          "name": "C#4",
          "midi": 61,
          "time": 18.421025000000014,
          "velocity": 0.7874015748031497,
          "duration": 0.06469288541666529
        },
        {
          "name": "F#4",
          "midi": 66,
          "time": 18.421025000000014,
          "velocity": 0.7874015748031497,
          "duration": 0.06469288541666529
        },
        {
          "name": "D5",
          "midi": 74,
          "time": 18.421025000000014,
          "velocity": 0.7874015748031497,
          "duration": 0.06469288541666529
        },
        {
          "name": "F#5",
          "midi": 78,
          "time": 18.421025000000014,
          "velocity": 0.7874015748031497,
          "duration": 0.06469288541666529
        },
        {
          "name": "D#6",
          "midi": 87,
          "time": 18.421025000000014,
          "velocity": 0.7874015748031497,
          "duration": 0.06469288541666529
        },
        {
          "name": "F#6",
          "midi": 90,
          "time": 18.421025000000014,
          "velocity": 0.7874015748031497,
          "duration": 0.06469288541666529
        },
        {
          "name": "E7",
          "midi": 100,
          "time": 18.421025000000014,
          "velocity": 0.7874015748031497,
          "duration": 0.06469288541666529
        },
        {
          "name": "F#7",
          "midi": 102,
          "time": 18.421025000000014,
          "velocity": 0.7874015748031497,
          "duration": 0.06469288541666529
        },
        {
          "name": "C#4",
          "midi": 61,
          "time": 18.947340000000015,
          "velocity": 0.7874015748031497,
          "duration": 0.06469288541666529
        },
        {
          "name": "F#4",
          "midi": 66,
          "time": 18.947340000000015,
          "velocity": 0.7874015748031497,
          "duration": 0.06469288541666529
        },
        {
          "name": "D5",
          "midi": 74,
          "time": 18.947340000000015,
          "velocity": 0.7874015748031497,
          "duration": 0.06469288541666529
        },
        {
          "name": "F#5",
          "midi": 78,
          "time": 18.947340000000015,
          "velocity": 0.7874015748031497,
          "duration": 0.06469288541666529
        },
        {
          "name": "D#6",
          "midi": 87,
          "time": 18.947340000000015,
          "velocity": 0.7874015748031497,
          "duration": 0.06469288541666529
        },
        {
          "name": "F#6",
          "midi": 90,
          "time": 18.947340000000015,
          "velocity": 0.7874015748031497,
          "duration": 0.06469288541666529
        },
        {
          "name": "E7",
          "midi": 100,
          "time": 18.947340000000015,
          "velocity": 0.7874015748031497,
          "duration": 0.06469288541666529
        },
        {
          "name": "F#7",
          "midi": 102,
          "time": 18.947340000000015,
          "velocity": 0.7874015748031497,
          "duration": 0.06469288541666529
        },
        {
          "name": "C4",
          "midi": 60,
          "time": 19.473655000000015,
          "velocity": 0.7874015748031497,
          "duration": 0.06578937500000137
        },
        {
          "name": "F#4",
          "midi": 66,
          "time": 19.473655000000015,
          "velocity": 0.7874015748031497,
          "duration": 0.06578937500000137
        },
        {
          "name": "C5",
          "midi": 72,
          "time": 19.473655000000015,
          "velocity": 0.7874015748031497,
          "duration": 0.06578937500000137
        },
        {
          "name": "F#5",
          "midi": 78,
          "time": 19.473655000000015,
          "velocity": 0.7874015748031497,
          "duration": 0.06578937500000137
        },
        {
          "name": "C6",
          "midi": 84,
          "time": 19.473655000000015,
          "velocity": 0.7874015748031497,
          "duration": 0.06578937500000137
        },
        {
          "name": "F#6",
          "midi": 90,
          "time": 19.473655000000015,
          "velocity": 0.7874015748031497,
          "duration": 0.06578937500000137
        },
        {
          "name": "C7",
          "midi": 96,
          "time": 19.473655000000015,
          "velocity": 0.7874015748031497,
          "duration": 0.06578937500000137
        },
        {
          "name": "F#7",
          "midi": 102,
          "time": 19.473655000000015,
          "velocity": 0.7874015748031497,
          "duration": 0.06578937500000137
        },
        {
          "name": "C6",
          "midi": 84,
          "time": 19.735716010416684,
          "velocity": 0.7874015748031497,
          "duration": 0.06578937500000137
        },
        {
          "name": "F#6",
          "midi": 90,
          "time": 19.735716010416684,
          "velocity": 0.7874015748031497,
          "duration": 0.06578937500000137
        },
        {
          "name": "C7",
          "midi": 96,
          "time": 19.735716010416684,
          "velocity": 0.7874015748031497,
          "duration": 0.06578937500000137
        },
        {
          "name": "F#7",
          "midi": 102,
          "time": 19.735716010416684,
          "velocity": 0.7874015748031497,
          "duration": 0.06578937500000137
        },
        {
          "name": "C#4",
          "midi": 61,
          "time": 19.99997000000002,
          "velocity": 0.7874015748031497,
          "duration": 0.06359639583333276
        },
        {
          "name": "F#4",
          "midi": 66,
          "time": 19.99997000000002,
          "velocity": 0.7874015748031497,
          "duration": 0.06359639583333276
        },
        {
          "name": "D5",
          "midi": 74,
          "time": 19.99997000000002,
          "velocity": 0.7874015748031497,
          "duration": 0.06359639583333276
        },
        {
          "name": "F#5",
          "midi": 78,
          "time": 19.99997000000002,
          "velocity": 0.7874015748031497,
          "duration": 0.06359639583333276
        },
        {
          "name": "D#6",
          "midi": 87,
          "time": 19.99997000000002,
          "velocity": 0.7874015748031497,
          "duration": 0.06359639583333276
        },
        {
          "name": "F#6",
          "midi": 90,
          "time": 19.99997000000002,
          "velocity": 0.7874015748031497,
          "duration": 0.06359639583333276
        },
        {
          "name": "E7",
          "midi": 100,
          "time": 19.99997000000002,
          "velocity": 0.7874015748031497,
          "duration": 0.06359639583333276
        },
        {
          "name": "F#7",
          "midi": 102,
          "time": 19.99997000000002,
          "velocity": 0.7874015748031497,
          "duration": 0.06359639583333276
        },
        {
          "name": "C4",
          "midi": 60,
          "time": 20.52628500000002,
          "velocity": 0.7874015748031497,
          "duration": 0.06578937500000137
        },
        {
          "name": "F#4",
          "midi": 66,
          "time": 20.52628500000002,
          "velocity": 0.7874015748031497,
          "duration": 0.06578937500000137
        },
        {
          "name": "C5",
          "midi": 72,
          "time": 20.52628500000002,
          "velocity": 0.7874015748031497,
          "duration": 0.06578937500000137
        },
        {
          "name": "F#5",
          "midi": 78,
          "time": 20.52628500000002,
          "velocity": 0.7874015748031497,
          "duration": 0.06578937500000137
        },
        {
          "name": "C6",
          "midi": 84,
          "time": 20.52628500000002,
          "velocity": 0.7874015748031497,
          "duration": 0.06578937500000137
        },
        {
          "name": "F#6",
          "midi": 90,
          "time": 20.52628500000002,
          "velocity": 0.7874015748031497,
          "duration": 0.06578937500000137
        },
        {
          "name": "C7",
          "midi": 96,
          "time": 20.52628500000002,
          "velocity": 0.7874015748031497,
          "duration": 0.06578937500000137
        },
        {
          "name": "F#7",
          "midi": 102,
          "time": 20.52628500000002,
          "velocity": 0.7874015748031497,
          "duration": 0.06578937500000137
        },
        {
          "name": "C#4",
          "midi": 61,
          "time": 20.78834601041669,
          "velocity": 0.7874015748031497,
          "duration": 0.06578937500000137
        },
        {
          "name": "F#4",
          "midi": 66,
          "time": 20.78834601041669,
          "velocity": 0.7874015748031497,
          "duration": 0.06578937500000137
        },
        {
          "name": "D5",
          "midi": 74,
          "time": 20.78834601041669,
          "velocity": 0.7874015748031497,
          "duration": 0.06578937500000137
        },
        {
          "name": "F#5",
          "midi": 78,
          "time": 20.78834601041669,
          "velocity": 0.7874015748031497,
          "duration": 0.06578937500000137
        },
        {
          "name": "D#6",
          "midi": 87,
          "time": 20.78834601041669,
          "velocity": 0.7874015748031497,
          "duration": 0.06578937500000137
        },
        {
          "name": "F#6",
          "midi": 90,
          "time": 20.78834601041669,
          "velocity": 0.7874015748031497,
          "duration": 0.06578937500000137
        },
        {
          "name": "E7",
          "midi": 100,
          "time": 20.78834601041669,
          "velocity": 0.7874015748031497,
          "duration": 0.06578937500000137
        },
        {
          "name": "F#7",
          "midi": 102,
          "time": 20.78834601041669,
          "velocity": 0.7874015748031497,
          "duration": 0.06578937500000137
        },
        {
          "name": "C#4",
          "midi": 61,
          "time": 21.31466101041669,
          "velocity": 0.7874015748031497,
          "duration": 0.06578937500000137
        },
        {
          "name": "F#4",
          "midi": 66,
          "time": 21.31466101041669,
          "velocity": 0.7874015748031497,
          "duration": 0.06578937500000137
        },
        {
          "name": "D5",
          "midi": 74,
          "time": 21.31466101041669,
          "velocity": 0.7874015748031497,
          "duration": 0.06578937500000137
        },
        {
          "name": "F#5",
          "midi": 78,
          "time": 21.31466101041669,
          "velocity": 0.7874015748031497,
          "duration": 0.06578937500000137
        },
        {
          "name": "D#6",
          "midi": 87,
          "time": 21.31466101041669,
          "velocity": 0.7874015748031497,
          "duration": 0.06578937500000137
        },
        {
          "name": "F#6",
          "midi": 90,
          "time": 21.31466101041669,
          "velocity": 0.7874015748031497,
          "duration": 0.06578937500000137
        },
        {
          "name": "E7",
          "midi": 100,
          "time": 21.31466101041669,
          "velocity": 0.7874015748031497,
          "duration": 0.06578937500000137
        },
        {
          "name": "F#7",
          "midi": 102,
          "time": 21.31466101041669,
          "velocity": 0.7874015748031497,
          "duration": 0.06578937500000137
        },
        {
          "name": "C#4",
          "midi": 61,
          "time": 21.84097601041669,
          "velocity": 0.7874015748031497,
          "duration": 0.06578937500000137
        },
        {
          "name": "F#4",
          "midi": 66,
          "time": 21.84097601041669,
          "velocity": 0.7874015748031497,
          "duration": 0.06578937500000137
        },
        {
          "name": "D5",
          "midi": 74,
          "time": 21.84097601041669,
          "velocity": 0.7874015748031497,
          "duration": 0.06578937500000137
        },
        {
          "name": "F#5",
          "midi": 78,
          "time": 21.84097601041669,
          "velocity": 0.7874015748031497,
          "duration": 0.06578937500000137
        },
        {
          "name": "D#6",
          "midi": 87,
          "time": 21.84097601041669,
          "velocity": 0.7874015748031497,
          "duration": 0.06578937500000137
        },
        {
          "name": "F#6",
          "midi": 90,
          "time": 21.84097601041669,
          "velocity": 0.7874015748031497,
          "duration": 0.06578937500000137
        },
        {
          "name": "E7",
          "midi": 100,
          "time": 21.84097601041669,
          "velocity": 0.7874015748031497,
          "duration": 0.06578937500000137
        },
        {
          "name": "F#7",
          "midi": 102,
          "time": 21.84097601041669,
          "velocity": 0.7874015748031497,
          "duration": 0.06578937500000137
        },
        {
          "name": "C4",
          "midi": 60,
          "time": 22.36729101041669,
          "velocity": 0.7874015748031497,
          "duration": 0.06578937500000137
        },
        {
          "name": "F#4",
          "midi": 66,
          "time": 22.36729101041669,
          "velocity": 0.7874015748031497,
          "duration": 0.06578937500000137
        },
        {
          "name": "C5",
          "midi": 72,
          "time": 22.36729101041669,
          "velocity": 0.7874015748031497,
          "duration": 0.06578937500000137
        },
        {
          "name": "F#5",
          "midi": 78,
          "time": 22.36729101041669,
          "velocity": 0.7874015748031497,
          "duration": 0.06578937500000137
        },
        {
          "name": "C6",
          "midi": 84,
          "time": 22.36729101041669,
          "velocity": 0.7874015748031497,
          "duration": 0.06578937500000137
        },
        {
          "name": "F#6",
          "midi": 90,
          "time": 22.36729101041669,
          "velocity": 0.7874015748031497,
          "duration": 0.06578937500000137
        },
        {
          "name": "C7",
          "midi": 96,
          "time": 22.36729101041669,
          "velocity": 0.7874015748031497,
          "duration": 0.06578937500000137
        },
        {
          "name": "F#7",
          "midi": 102,
          "time": 22.36729101041669,
          "velocity": 0.7874015748031497,
          "duration": 0.06578937500000137
        },
        {
          "name": "C#4",
          "midi": 61,
          "time": 22.631545000000024,
          "velocity": 0.7874015748031497,
          "duration": 0.06578937500000137
        },
        {
          "name": "F#4",
          "midi": 66,
          "time": 22.631545000000024,
          "velocity": 0.7874015748031497,
          "duration": 0.06578937500000137
        },
        {
          "name": "D5",
          "midi": 74,
          "time": 22.631545000000024,
          "velocity": 0.7874015748031497,
          "duration": 0.06578937500000137
        },
        {
          "name": "F#5",
          "midi": 78,
          "time": 22.631545000000024,
          "velocity": 0.7874015748031497,
          "duration": 0.06578937500000137
        },
        {
          "name": "D#6",
          "midi": 87,
          "time": 22.631545000000024,
          "velocity": 0.7874015748031497,
          "duration": 0.06578937500000137
        },
        {
          "name": "F#6",
          "midi": 90,
          "time": 22.631545000000024,
          "velocity": 0.7874015748031497,
          "duration": 0.06578937500000137
        },
        {
          "name": "E7",
          "midi": 100,
          "time": 22.631545000000024,
          "velocity": 0.7874015748031497,
          "duration": 0.06578937500000137
        },
        {
          "name": "F#7",
          "midi": 102,
          "time": 22.631545000000024,
          "velocity": 0.7874015748031497,
          "duration": 0.06578937500000137
        },
        {
          "name": "C#4",
          "midi": 61,
          "time": 23.157860000000024,
          "velocity": 0.7874015748031497,
          "duration": 0.06469288541666529
        },
        {
          "name": "F#4",
          "midi": 66,
          "time": 23.157860000000024,
          "velocity": 0.7874015748031497,
          "duration": 0.06469288541666529
        },
        {
          "name": "D5",
          "midi": 74,
          "time": 23.157860000000024,
          "velocity": 0.7874015748031497,
          "duration": 0.06469288541666529
        },
        {
          "name": "F#5",
          "midi": 78,
          "time": 23.157860000000024,
          "velocity": 0.7874015748031497,
          "duration": 0.06469288541666529
        },
        {
          "name": "D#6",
          "midi": 87,
          "time": 23.157860000000024,
          "velocity": 0.7874015748031497,
          "duration": 0.06469288541666529
        },
        {
          "name": "F#6",
          "midi": 90,
          "time": 23.157860000000024,
          "velocity": 0.7874015748031497,
          "duration": 0.06469288541666529
        },
        {
          "name": "E7",
          "midi": 100,
          "time": 23.157860000000024,
          "velocity": 0.7874015748031497,
          "duration": 0.06469288541666529
        },
        {
          "name": "F#7",
          "midi": 102,
          "time": 23.157860000000024,
          "velocity": 0.7874015748031497,
          "duration": 0.06469288541666529
        },
        {
          "name": "C#4",
          "midi": 61,
          "time": 23.684175000000025,
          "velocity": 0.7874015748031497,
          "duration": 0.06469288541666529
        },
        {
          "name": "F#4",
          "midi": 66,
          "time": 23.684175000000025,
          "velocity": 0.7874015748031497,
          "duration": 0.06469288541666529
        },
        {
          "name": "D5",
          "midi": 74,
          "time": 23.684175000000025,
          "velocity": 0.7874015748031497,
          "duration": 0.06469288541666529
        },
        {
          "name": "F#5",
          "midi": 78,
          "time": 23.684175000000025,
          "velocity": 0.7874015748031497,
          "duration": 0.06469288541666529
        },
        {
          "name": "D#6",
          "midi": 87,
          "time": 23.684175000000025,
          "velocity": 0.7874015748031497,
          "duration": 0.06469288541666529
        },
        {
          "name": "F#6",
          "midi": 90,
          "time": 23.684175000000025,
          "velocity": 0.7874015748031497,
          "duration": 0.06469288541666529
        },
        {
          "name": "E7",
          "midi": 100,
          "time": 23.684175000000025,
          "velocity": 0.7874015748031497,
          "duration": 0.06469288541666529
        },
        {
          "name": "F#7",
          "midi": 102,
          "time": 23.684175000000025,
          "velocity": 0.7874015748031497,
          "duration": 0.06469288541666529
        },
        {
          "name": "C#4",
          "midi": 61,
          "time": 24.210490000000025,
          "velocity": 0.7874015748031497,
          "duration": 0.06578937500000137
        },
        {
          "name": "F#4",
          "midi": 66,
          "time": 24.210490000000025,
          "velocity": 0.7874015748031497,
          "duration": 0.06578937500000137
        },
        {
          "name": "D5",
          "midi": 74,
          "time": 24.210490000000025,
          "velocity": 0.7874015748031497,
          "duration": 0.06578937500000137
        },
        {
          "name": "F#5",
          "midi": 78,
          "time": 24.210490000000025,
          "velocity": 0.7874015748031497,
          "duration": 0.06578937500000137
        },
        {
          "name": "D#6",
          "midi": 87,
          "time": 24.210490000000025,
          "velocity": 0.7874015748031497,
          "duration": 0.06578937500000137
        },
        {
          "name": "F#6",
          "midi": 90,
          "time": 24.210490000000025,
          "velocity": 0.7874015748031497,
          "duration": 0.06578937500000137
        },
        {
          "name": "E7",
          "midi": 100,
          "time": 24.210490000000025,
          "velocity": 0.7874015748031497,
          "duration": 0.06578937500000137
        },
        {
          "name": "F#7",
          "midi": 102,
          "time": 24.210490000000025,
          "velocity": 0.7874015748031497,
          "duration": 0.06578937500000137
        },
        {
          "name": "C4",
          "midi": 60,
          "time": 24.736805000000025,
          "velocity": 0.7874015748031497,
          "duration": 0.06469288541666529
        },
        {
          "name": "F#4",
          "midi": 66,
          "time": 24.736805000000025,
          "velocity": 0.7874015748031497,
          "duration": 0.06469288541666529
        },
        {
          "name": "C5",
          "midi": 72,
          "time": 24.736805000000025,
          "velocity": 0.7874015748031497,
          "duration": 0.06469288541666529
        },
        {
          "name": "F#5",
          "midi": 78,
          "time": 24.736805000000025,
          "velocity": 0.7874015748031497,
          "duration": 0.06469288541666529
        },
        {
          "name": "C6",
          "midi": 84,
          "time": 24.736805000000025,
          "velocity": 0.7874015748031497,
          "duration": 0.06469288541666529
        },
        {
          "name": "F#6",
          "midi": 90,
          "time": 24.736805000000025,
          "velocity": 0.7874015748031497,
          "duration": 0.06469288541666529
        },
        {
          "name": "C7",
          "midi": 96,
          "time": 24.736805000000025,
          "velocity": 0.7874015748031497,
          "duration": 0.06469288541666529
        },
        {
          "name": "F#7",
          "midi": 102,
          "time": 24.736805000000025,
          "velocity": 0.7874015748031497,
          "duration": 0.06469288541666529
        },
        {
          "name": "C6",
          "midi": 84,
          "time": 25.001058989583356,
          "velocity": 0.7874015748031497,
          "duration": 0.06469288541666529
        },
        {
          "name": "F#6",
          "midi": 90,
          "time": 25.001058989583356,
          "velocity": 0.7874015748031497,
          "duration": 0.06469288541666529
        },
        {
          "name": "C7",
          "midi": 96,
          "time": 25.001058989583356,
          "velocity": 0.7874015748031497,
          "duration": 0.06469288541666529
        },
        {
          "name": "F#7",
          "midi": 102,
          "time": 25.001058989583356,
          "velocity": 0.7874015748031497,
          "duration": 0.06469288541666529
        },
        {
          "name": "C#4",
          "midi": 61,
          "time": 25.263120000000022,
          "velocity": 0.7874015748031497,
          "duration": 0.06469288541666529
        },
        {
          "name": "F#4",
          "midi": 66,
          "time": 25.263120000000022,
          "velocity": 0.7874015748031497,
          "duration": 0.06469288541666529
        },
        {
          "name": "D5",
          "midi": 74,
          "time": 25.263120000000022,
          "velocity": 0.7874015748031497,
          "duration": 0.06469288541666529
        },
        {
          "name": "F#5",
          "midi": 78,
          "time": 25.263120000000022,
          "velocity": 0.7874015748031497,
          "duration": 0.06469288541666529
        },
        {
          "name": "D#6",
          "midi": 87,
          "time": 25.263120000000022,
          "velocity": 0.7874015748031497,
          "duration": 0.06469288541666529
        },
        {
          "name": "F#6",
          "midi": 90,
          "time": 25.263120000000022,
          "velocity": 0.7874015748031497,
          "duration": 0.06469288541666529
        },
        {
          "name": "E7",
          "midi": 100,
          "time": 25.263120000000022,
          "velocity": 0.7874015748031497,
          "duration": 0.06469288541666529
        },
        {
          "name": "F#7",
          "midi": 102,
          "time": 25.263120000000022,
          "velocity": 0.7874015748031497,
          "duration": 0.06469288541666529
        },
        {
          "name": "C4",
          "midi": 60,
          "time": 25.789435000000022,
          "velocity": 0.7874015748031497,
          "duration": 0.06578937500000137
        },
        {
          "name": "F#4",
          "midi": 66,
          "time": 25.789435000000022,
          "velocity": 0.7874015748031497,
          "duration": 0.06578937500000137
        },
        {
          "name": "C5",
          "midi": 72,
          "time": 25.789435000000022,
          "velocity": 0.7874015748031497,
          "duration": 0.06578937500000137
        },
        {
          "name": "F#5",
          "midi": 78,
          "time": 25.789435000000022,
          "velocity": 0.7874015748031497,
          "duration": 0.06578937500000137
        },
        {
          "name": "C6",
          "midi": 84,
          "time": 25.789435000000022,
          "velocity": 0.7874015748031497,
          "duration": 0.06578937500000137
        },
        {
          "name": "F#6",
          "midi": 90,
          "time": 25.789435000000022,
          "velocity": 0.7874015748031497,
          "duration": 0.06578937500000137
        },
        {
          "name": "C7",
          "midi": 96,
          "time": 25.789435000000022,
          "velocity": 0.7874015748031497,
          "duration": 0.06578937500000137
        },
        {
          "name": "F#7",
          "midi": 102,
          "time": 25.789435000000022,
          "velocity": 0.7874015748031497,
          "duration": 0.06578937500000137
        },
        {
          "name": "C#4",
          "midi": 61,
          "time": 26.052592500000024,
          "velocity": 0.7874015748031497,
          "duration": 0.06578937500000137
        },
        {
          "name": "F#4",
          "midi": 66,
          "time": 26.052592500000024,
          "velocity": 0.7874015748031497,
          "duration": 0.06578937500000137
        },
        {
          "name": "D5",
          "midi": 74,
          "time": 26.052592500000024,
          "velocity": 0.7874015748031497,
          "duration": 0.06578937500000137
        },
        {
          "name": "F#5",
          "midi": 78,
          "time": 26.052592500000024,
          "velocity": 0.7874015748031497,
          "duration": 0.06578937500000137
        },
        {
          "name": "D#6",
          "midi": 87,
          "time": 26.052592500000024,
          "velocity": 0.7874015748031497,
          "duration": 0.06578937500000137
        },
        {
          "name": "F#6",
          "midi": 90,
          "time": 26.052592500000024,
          "velocity": 0.7874015748031497,
          "duration": 0.06578937500000137
        },
        {
          "name": "E7",
          "midi": 100,
          "time": 26.052592500000024,
          "velocity": 0.7874015748031497,
          "duration": 0.06578937500000137
        },
        {
          "name": "F#7",
          "midi": 102,
          "time": 26.052592500000024,
          "velocity": 0.7874015748031497,
          "duration": 0.06578937500000137
        },
        {
          "name": "C#4",
          "midi": 61,
          "time": 26.578907500000025,
          "velocity": 0.7874015748031497,
          "duration": 0.06578937500000137
        },
        {
          "name": "F#4",
          "midi": 66,
          "time": 26.578907500000025,
          "velocity": 0.7874015748031497,
          "duration": 0.06578937500000137
        },
        {
          "name": "D5",
          "midi": 74,
          "time": 26.578907500000025,
          "velocity": 0.7874015748031497,
          "duration": 0.06578937500000137
        },
        {
          "name": "F#5",
          "midi": 78,
          "time": 26.578907500000025,
          "velocity": 0.7874015748031497,
          "duration": 0.06578937500000137
        },
        {
          "name": "D#6",
          "midi": 87,
          "time": 26.578907500000025,
          "velocity": 0.7874015748031497,
          "duration": 0.06578937500000137
        },
        {
          "name": "F#6",
          "midi": 90,
          "time": 26.578907500000025,
          "velocity": 0.7874015748031497,
          "duration": 0.06578937500000137
        },
        {
          "name": "E7",
          "midi": 100,
          "time": 26.578907500000025,
          "velocity": 0.7874015748031497,
          "duration": 0.06578937500000137
        },
        {
          "name": "F#7",
          "midi": 102,
          "time": 26.578907500000025,
          "velocity": 0.7874015748031497,
          "duration": 0.06578937500000137
        },
        {
          "name": "C#4",
          "midi": 61,
          "time": 27.105222500000025,
          "velocity": 0.7874015748031497,
          "duration": 0.06578937500000137
        },
        {
          "name": "F#4",
          "midi": 66,
          "time": 27.105222500000025,
          "velocity": 0.7874015748031497,
          "duration": 0.06578937500000137
        },
        {
          "name": "D5",
          "midi": 74,
          "time": 27.105222500000025,
          "velocity": 0.7874015748031497,
          "duration": 0.06578937500000137
        },
        {
          "name": "F#5",
          "midi": 78,
          "time": 27.105222500000025,
          "velocity": 0.7874015748031497,
          "duration": 0.06578937500000137
        },
        {
          "name": "D#6",
          "midi": 87,
          "time": 27.105222500000025,
          "velocity": 0.7874015748031497,
          "duration": 0.06578937500000137
        },
        {
          "name": "F#6",
          "midi": 90,
          "time": 27.105222500000025,
          "velocity": 0.7874015748031497,
          "duration": 0.06578937500000137
        },
        {
          "name": "E7",
          "midi": 100,
          "time": 27.105222500000025,
          "velocity": 0.7874015748031497,
          "duration": 0.06578937500000137
        },
        {
          "name": "F#7",
          "midi": 102,
          "time": 27.105222500000025,
          "velocity": 0.7874015748031497,
          "duration": 0.06578937500000137
        },
        {
          "name": "C4",
          "midi": 60,
          "time": 27.631537500000025,
          "velocity": 0.7874015748031497,
          "duration": 0.06578937500000137
        },
        {
          "name": "F#4",
          "midi": 66,
          "time": 27.631537500000025,
          "velocity": 0.7874015748031497,
          "duration": 0.06578937500000137
        },
        {
          "name": "C5",
          "midi": 72,
          "time": 27.631537500000025,
          "velocity": 0.7874015748031497,
          "duration": 0.06578937500000137
        },
        {
          "name": "F#5",
          "midi": 78,
          "time": 27.631537500000025,
          "velocity": 0.7874015748031497,
          "duration": 0.06578937500000137
        },
        {
          "name": "C6",
          "midi": 84,
          "time": 27.631537500000025,
          "velocity": 0.7874015748031497,
          "duration": 0.06578937500000137
        },
        {
          "name": "F#6",
          "midi": 90,
          "time": 27.631537500000025,
          "velocity": 0.7874015748031497,
          "duration": 0.06578937500000137
        },
        {
          "name": "C7",
          "midi": 96,
          "time": 27.631537500000025,
          "velocity": 0.7874015748031497,
          "duration": 0.06578937500000137
        },
        {
          "name": "F#7",
          "midi": 102,
          "time": 27.631537500000025,
          "velocity": 0.7874015748031497,
          "duration": 0.06578937500000137
        },
        {
          "name": "C#4",
          "midi": 61,
          "time": 27.894695000000027,
          "velocity": 0.7874015748031497,
          "duration": 0.06469288541666529
        },
        {
          "name": "F#4",
          "midi": 66,
          "time": 27.894695000000027,
          "velocity": 0.7874015748031497,
          "duration": 0.06469288541666529
        },
        {
          "name": "D5",
          "midi": 74,
          "time": 27.894695000000027,
          "velocity": 0.7874015748031497,
          "duration": 0.06469288541666529
        },
        {
          "name": "F#5",
          "midi": 78,
          "time": 27.894695000000027,
          "velocity": 0.7874015748031497,
          "duration": 0.06469288541666529
        },
        {
          "name": "D#6",
          "midi": 87,
          "time": 27.894695000000027,
          "velocity": 0.7874015748031497,
          "duration": 0.06469288541666529
        },
        {
          "name": "F#6",
          "midi": 90,
          "time": 27.894695000000027,
          "velocity": 0.7874015748031497,
          "duration": 0.06469288541666529
        },
        {
          "name": "E7",
          "midi": 100,
          "time": 27.894695000000027,
          "velocity": 0.7874015748031497,
          "duration": 0.06469288541666529
        },
        {
          "name": "F#7",
          "midi": 102,
          "time": 27.894695000000027,
          "velocity": 0.7874015748031497,
          "duration": 0.06469288541666529
        },
        {
          "name": "C#4",
          "midi": 61,
          "time": 28.421010000000027,
          "velocity": 0.7874015748031497,
          "duration": 0.06578937500000137
        },
        {
          "name": "F#4",
          "midi": 66,
          "time": 28.421010000000027,
          "velocity": 0.7874015748031497,
          "duration": 0.06578937500000137
        },
        {
          "name": "D5",
          "midi": 74,
          "time": 28.421010000000027,
          "velocity": 0.7874015748031497,
          "duration": 0.06578937500000137
        },
        {
          "name": "F#5",
          "midi": 78,
          "time": 28.421010000000027,
          "velocity": 0.7874015748031497,
          "duration": 0.06578937500000137
        },
        {
          "name": "D#6",
          "midi": 87,
          "time": 28.421010000000027,
          "velocity": 0.7874015748031497,
          "duration": 0.06578937500000137
        },
        {
          "name": "F#6",
          "midi": 90,
          "time": 28.421010000000027,
          "velocity": 0.7874015748031497,
          "duration": 0.06578937500000137
        },
        {
          "name": "E7",
          "midi": 100,
          "time": 28.421010000000027,
          "velocity": 0.7874015748031497,
          "duration": 0.06578937500000137
        },
        {
          "name": "F#7",
          "midi": 102,
          "time": 28.421010000000027,
          "velocity": 0.7874015748031497,
          "duration": 0.06578937500000137
        },
        {
          "name": "C#4",
          "midi": 61,
          "time": 28.947325000000028,
          "velocity": 0.7874015748031497,
          "duration": 0.06578937500000137
        },
        {
          "name": "F#4",
          "midi": 66,
          "time": 28.947325000000028,
          "velocity": 0.7874015748031497,
          "duration": 0.06578937500000137
        },
        {
          "name": "D5",
          "midi": 74,
          "time": 28.947325000000028,
          "velocity": 0.7874015748031497,
          "duration": 0.06578937500000137
        },
        {
          "name": "F#5",
          "midi": 78,
          "time": 28.947325000000028,
          "velocity": 0.7874015748031497,
          "duration": 0.06578937500000137
        },
        {
          "name": "D#6",
          "midi": 87,
          "time": 28.947325000000028,
          "velocity": 0.7874015748031497,
          "duration": 0.06578937500000137
        },
        {
          "name": "F#6",
          "midi": 90,
          "time": 28.947325000000028,
          "velocity": 0.7874015748031497,
          "duration": 0.06578937500000137
        },
        {
          "name": "E7",
          "midi": 100,
          "time": 28.947325000000028,
          "velocity": 0.7874015748031497,
          "duration": 0.06578937500000137
        },
        {
          "name": "F#7",
          "midi": 102,
          "time": 28.947325000000028,
          "velocity": 0.7874015748031497,
          "duration": 0.06578937500000137
        },
        {
          "name": "C#4",
          "midi": 61,
          "time": 29.473640000000028,
          "velocity": 0.7874015748031497,
          "duration": 0.06578937500000137
        },
        {
          "name": "F#4",
          "midi": 66,
          "time": 29.473640000000028,
          "velocity": 0.7874015748031497,
          "duration": 0.06578937500000137
        },
        {
          "name": "D5",
          "midi": 74,
          "time": 29.473640000000028,
          "velocity": 0.7874015748031497,
          "duration": 0.06578937500000137
        },
        {
          "name": "F#5",
          "midi": 78,
          "time": 29.473640000000028,
          "velocity": 0.7874015748031497,
          "duration": 0.06578937500000137
        },
        {
          "name": "D#6",
          "midi": 87,
          "time": 29.473640000000028,
          "velocity": 0.7874015748031497,
          "duration": 0.06578937500000137
        },
        {
          "name": "F#6",
          "midi": 90,
          "time": 29.473640000000028,
          "velocity": 0.7874015748031497,
          "duration": 0.06578937500000137
        },
        {
          "name": "E7",
          "midi": 100,
          "time": 29.473640000000028,
          "velocity": 0.7874015748031497,
          "duration": 0.06578937500000137
        },
        {
          "name": "F#7",
          "midi": 102,
          "time": 29.473640000000028,
          "velocity": 0.7874015748031497,
          "duration": 0.06578937500000137
        },
        {
          "name": "C4",
          "midi": 60,
          "time": 29.99995500000003,
          "velocity": 0.7874015748031497,
          "duration": 0.06469288541666529
        },
        {
          "name": "F#4",
          "midi": 66,
          "time": 29.99995500000003,
          "velocity": 0.7874015748031497,
          "duration": 0.06469288541666529
        },
        {
          "name": "C5",
          "midi": 72,
          "time": 29.99995500000003,
          "velocity": 0.7874015748031497,
          "duration": 0.06469288541666529
        },
        {
          "name": "F#5",
          "midi": 78,
          "time": 29.99995500000003,
          "velocity": 0.7874015748031497,
          "duration": 0.06469288541666529
        },
        {
          "name": "C6",
          "midi": 84,
          "time": 29.99995500000003,
          "velocity": 0.7874015748031497,
          "duration": 0.06469288541666529
        },
        {
          "name": "F#6",
          "midi": 90,
          "time": 29.99995500000003,
          "velocity": 0.7874015748031497,
          "duration": 0.06469288541666529
        },
        {
          "name": "C7",
          "midi": 96,
          "time": 29.99995500000003,
          "velocity": 0.7874015748031497,
          "duration": 0.06469288541666529
        },
        {
          "name": "F#7",
          "midi": 102,
          "time": 29.99995500000003,
          "velocity": 0.7874015748031497,
          "duration": 0.06469288541666529
        },
        {
          "name": "C6",
          "midi": 84,
          "time": 30.26420898958336,
          "velocity": 0.7874015748031497,
          "duration": 0.06469288541666529
        },
        {
          "name": "F#6",
          "midi": 90,
          "time": 30.26420898958336,
          "velocity": 0.7874015748031497,
          "duration": 0.06469288541666529
        },
        {
          "name": "C7",
          "midi": 96,
          "time": 30.26420898958336,
          "velocity": 0.7874015748031497,
          "duration": 0.06469288541666529
        },
        {
          "name": "F#7",
          "midi": 102,
          "time": 30.26420898958336,
          "velocity": 0.7874015748031497,
          "duration": 0.06469288541666529
        },
        {
          "name": "C#4",
          "midi": 61,
          "time": 30.526270000000025,
          "velocity": 0.7874015748031497,
          "duration": 0.06359639583333276
        },
        {
          "name": "F#4",
          "midi": 66,
          "time": 30.526270000000025,
          "velocity": 0.7874015748031497,
          "duration": 0.06359639583333276
        },
        {
          "name": "D5",
          "midi": 74,
          "time": 30.526270000000025,
          "velocity": 0.7874015748031497,
          "duration": 0.06359639583333276
        },
        {
          "name": "F#5",
          "midi": 78,
          "time": 30.526270000000025,
          "velocity": 0.7874015748031497,
          "duration": 0.06359639583333276
        },
        {
          "name": "D#6",
          "midi": 87,
          "time": 30.526270000000025,
          "velocity": 0.7874015748031497,
          "duration": 0.06359639583333276
        },
        {
          "name": "F#6",
          "midi": 90,
          "time": 30.526270000000025,
          "velocity": 0.7874015748031497,
          "duration": 0.06359639583333276
        },
        {
          "name": "E7",
          "midi": 100,
          "time": 30.526270000000025,
          "velocity": 0.7874015748031497,
          "duration": 0.06359639583333276
        },
        {
          "name": "F#7",
          "midi": 102,
          "time": 30.526270000000025,
          "velocity": 0.7874015748031497,
          "duration": 0.06359639583333276
        },
        {
          "name": "C4",
          "midi": 60,
          "time": 31.052585000000025,
          "velocity": 0.7874015748031497,
          "duration": 0.06469288541666529
        },
        {
          "name": "F#4",
          "midi": 66,
          "time": 31.052585000000025,
          "velocity": 0.7874015748031497,
          "duration": 0.06469288541666529
        },
        {
          "name": "C5",
          "midi": 72,
          "time": 31.052585000000025,
          "velocity": 0.7874015748031497,
          "duration": 0.06469288541666529
        },
        {
          "name": "F#5",
          "midi": 78,
          "time": 31.052585000000025,
          "velocity": 0.7874015748031497,
          "duration": 0.06469288541666529
        },
        {
          "name": "C6",
          "midi": 84,
          "time": 31.052585000000025,
          "velocity": 0.7874015748031497,
          "duration": 0.06469288541666529
        },
        {
          "name": "F#6",
          "midi": 90,
          "time": 31.052585000000025,
          "velocity": 0.7874015748031497,
          "duration": 0.06469288541666529
        },
        {
          "name": "C7",
          "midi": 96,
          "time": 31.052585000000025,
          "velocity": 0.7874015748031497,
          "duration": 0.06469288541666529
        },
        {
          "name": "F#7",
          "midi": 102,
          "time": 31.052585000000025,
          "velocity": 0.7874015748031497,
          "duration": 0.06469288541666529
        },
        {
          "name": "C#4",
          "midi": 61,
          "time": 31.31464601041669,
          "velocity": 0.7874015748031497,
          "duration": 0.06469288541666529
        },
        {
          "name": "F#4",
          "midi": 66,
          "time": 31.31464601041669,
          "velocity": 0.7874015748031497,
          "duration": 0.06469288541666529
        },
        {
          "name": "D5",
          "midi": 74,
          "time": 31.31464601041669,
          "velocity": 0.7874015748031497,
          "duration": 0.06469288541666529
        },
        {
          "name": "F#5",
          "midi": 78,
          "time": 31.31464601041669,
          "velocity": 0.7874015748031497,
          "duration": 0.06469288541666529
        },
        {
          "name": "D#6",
          "midi": 87,
          "time": 31.31464601041669,
          "velocity": 0.7874015748031497,
          "duration": 0.06469288541666529
        },
        {
          "name": "F#6",
          "midi": 90,
          "time": 31.31464601041669,
          "velocity": 0.7874015748031497,
          "duration": 0.06469288541666529
        },
        {
          "name": "E7",
          "midi": 100,
          "time": 31.31464601041669,
          "velocity": 0.7874015748031497,
          "duration": 0.06469288541666529
        },
        {
          "name": "F#7",
          "midi": 102,
          "time": 31.31464601041669,
          "velocity": 0.7874015748031497,
          "duration": 0.06469288541666529
        },
        {
          "name": "C#4",
          "midi": 61,
          "time": 31.843153989583357,
          "velocity": 0.7874015748031497,
          "duration": 0.06359639583333276
        },
        {
          "name": "F#4",
          "midi": 66,
          "time": 31.843153989583357,
          "velocity": 0.7874015748031497,
          "duration": 0.06359639583333276
        },
        {
          "name": "D5",
          "midi": 74,
          "time": 31.843153989583357,
          "velocity": 0.7874015748031497,
          "duration": 0.06359639583333276
        },
        {
          "name": "F#5",
          "midi": 78,
          "time": 31.843153989583357,
          "velocity": 0.7874015748031497,
          "duration": 0.06359639583333276
        },
        {
          "name": "D#6",
          "midi": 87,
          "time": 31.843153989583357,
          "velocity": 0.7874015748031497,
          "duration": 0.06359639583333276
        },
        {
          "name": "F#6",
          "midi": 90,
          "time": 31.843153989583357,
          "velocity": 0.7874015748031497,
          "duration": 0.06359639583333276
        },
        {
          "name": "E7",
          "midi": 100,
          "time": 31.843153989583357,
          "velocity": 0.7874015748031497,
          "duration": 0.06359639583333276
        },
        {
          "name": "F#7",
          "midi": 102,
          "time": 31.843153989583357,
          "velocity": 0.7874015748031497,
          "duration": 0.06359639583333276
        },
        {
          "name": "C#4",
          "midi": 61,
          "time": 32.36837250000002,
          "velocity": 0.7874015748031497,
          "duration": 0.06359639583333632
        },
        {
          "name": "F#4",
          "midi": 66,
          "time": 32.36837250000002,
          "velocity": 0.7874015748031497,
          "duration": 0.06359639583333632
        },
        {
          "name": "D5",
          "midi": 74,
          "time": 32.36837250000002,
          "velocity": 0.7874015748031497,
          "duration": 0.06359639583333632
        },
        {
          "name": "F#5",
          "midi": 78,
          "time": 32.36837250000002,
          "velocity": 0.7874015748031497,
          "duration": 0.06359639583333632
        },
        {
          "name": "D#6",
          "midi": 87,
          "time": 32.36837250000002,
          "velocity": 0.7874015748031497,
          "duration": 0.06359639583333632
        },
        {
          "name": "F#6",
          "midi": 90,
          "time": 32.36837250000002,
          "velocity": 0.7874015748031497,
          "duration": 0.06359639583333632
        },
        {
          "name": "E7",
          "midi": 100,
          "time": 32.36837250000002,
          "velocity": 0.7874015748031497,
          "duration": 0.06359639583333632
        },
        {
          "name": "F#7",
          "midi": 102,
          "time": 32.36837250000002,
          "velocity": 0.7874015748031497,
          "duration": 0.06359639583333632
        },
        {
          "name": "C4",
          "midi": 60,
          "time": 32.89359101041669,
          "velocity": 0.7874015748031497,
          "duration": 0.06469288541666884
        },
        {
          "name": "F#4",
          "midi": 66,
          "time": 32.89359101041669,
          "velocity": 0.7874015748031497,
          "duration": 0.06469288541666884
        },
        {
          "name": "C5",
          "midi": 72,
          "time": 32.89359101041669,
          "velocity": 0.7874015748031497,
          "duration": 0.06469288541666884
        },
        {
          "name": "F#5",
          "midi": 78,
          "time": 32.89359101041669,
          "velocity": 0.7874015748031497,
          "duration": 0.06469288541666884
        },
        {
          "name": "C6",
          "midi": 84,
          "time": 32.89359101041669,
          "velocity": 0.7874015748031497,
          "duration": 0.06469288541666884
        },
        {
          "name": "F#6",
          "midi": 90,
          "time": 32.89359101041669,
          "velocity": 0.7874015748031497,
          "duration": 0.06469288541666884
        },
        {
          "name": "C7",
          "midi": 96,
          "time": 32.89359101041669,
          "velocity": 0.7874015748031497,
          "duration": 0.06469288541666884
        },
        {
          "name": "F#7",
          "midi": 102,
          "time": 32.89359101041669,
          "velocity": 0.7874015748031497,
          "duration": 0.06469288541666884
        },
        {
          "name": "C#4",
          "midi": 61,
          "time": 33.15784500000003,
          "velocity": 0.7874015748031497,
          "duration": 0.06469288541666884
        },
        {
          "name": "F#4",
          "midi": 66,
          "time": 33.15784500000003,
          "velocity": 0.7874015748031497,
          "duration": 0.06469288541666884
        },
        {
          "name": "D5",
          "midi": 74,
          "time": 33.15784500000003,
          "velocity": 0.7874015748031497,
          "duration": 0.06469288541666884
        },
        {
          "name": "F#5",
          "midi": 78,
          "time": 33.15784500000003,
          "velocity": 0.7874015748031497,
          "duration": 0.06469288541666884
        },
        {
          "name": "D#6",
          "midi": 87,
          "time": 33.15784500000003,
          "velocity": 0.7874015748031497,
          "duration": 0.06469288541666884
        },
        {
          "name": "F#6",
          "midi": 90,
          "time": 33.15784500000003,
          "velocity": 0.7874015748031497,
          "duration": 0.06469288541666884
        },
        {
          "name": "E7",
          "midi": 100,
          "time": 33.15784500000003,
          "velocity": 0.7874015748031497,
          "duration": 0.06469288541666884
        },
        {
          "name": "F#7",
          "midi": 102,
          "time": 33.15784500000003,
          "velocity": 0.7874015748031497,
          "duration": 0.06469288541666884
        },
        {
          "name": "C#4",
          "midi": 61,
          "time": 33.684160000000034,
          "velocity": 0.7874015748031497,
          "duration": 0.06469288541666884
        },
        {
          "name": "F#4",
          "midi": 66,
          "time": 33.684160000000034,
          "velocity": 0.7874015748031497,
          "duration": 0.06469288541666884
        },
        {
          "name": "D5",
          "midi": 74,
          "time": 33.684160000000034,
          "velocity": 0.7874015748031497,
          "duration": 0.06469288541666884
        },
        {
          "name": "F#5",
          "midi": 78,
          "time": 33.684160000000034,
          "velocity": 0.7874015748031497,
          "duration": 0.06469288541666884
        },
        {
          "name": "D#6",
          "midi": 87,
          "time": 33.684160000000034,
          "velocity": 0.7874015748031497,
          "duration": 0.06469288541666884
        },
        {
          "name": "F#6",
          "midi": 90,
          "time": 33.684160000000034,
          "velocity": 0.7874015748031497,
          "duration": 0.06469288541666884
        },
        {
          "name": "E7",
          "midi": 100,
          "time": 33.684160000000034,
          "velocity": 0.7874015748031497,
          "duration": 0.06469288541666884
        },
        {
          "name": "F#7",
          "midi": 102,
          "time": 33.684160000000034,
          "velocity": 0.7874015748031497,
          "duration": 0.06469288541666884
        },
        {
          "name": "C#4",
          "midi": 61,
          "time": 34.21047500000004,
          "velocity": 0.7874015748031497,
          "duration": 0.06578937500000137
        },
        {
          "name": "F#4",
          "midi": 66,
          "time": 34.21047500000004,
          "velocity": 0.7874015748031497,
          "duration": 0.06578937500000137
        },
        {
          "name": "D5",
          "midi": 74,
          "time": 34.21047500000004,
          "velocity": 0.7874015748031497,
          "duration": 0.06578937500000137
        },
        {
          "name": "F#5",
          "midi": 78,
          "time": 34.21047500000004,
          "velocity": 0.7874015748031497,
          "duration": 0.06578937500000137
        },
        {
          "name": "D#6",
          "midi": 87,
          "time": 34.21047500000004,
          "velocity": 0.7874015748031497,
          "duration": 0.06578937500000137
        },
        {
          "name": "F#6",
          "midi": 90,
          "time": 34.21047500000004,
          "velocity": 0.7874015748031497,
          "duration": 0.06578937500000137
        },
        {
          "name": "E7",
          "midi": 100,
          "time": 34.21047500000004,
          "velocity": 0.7874015748031497,
          "duration": 0.06578937500000137
        },
        {
          "name": "F#7",
          "midi": 102,
          "time": 34.21047500000004,
          "velocity": 0.7874015748031497,
          "duration": 0.06578937500000137
        },
        {
          "name": "C#4",
          "midi": 61,
          "time": 34.73679000000004,
          "velocity": 0.7874015748031497,
          "duration": 0.06359639583333632
        },
        {
          "name": "F#4",
          "midi": 66,
          "time": 34.73679000000004,
          "velocity": 0.7874015748031497,
          "duration": 0.06359639583333632
        },
        {
          "name": "D5",
          "midi": 74,
          "time": 34.73679000000004,
          "velocity": 0.7874015748031497,
          "duration": 0.06359639583333632
        },
        {
          "name": "F#5",
          "midi": 78,
          "time": 34.73679000000004,
          "velocity": 0.7874015748031497,
          "duration": 0.06359639583333632
        },
        {
          "name": "D#6",
          "midi": 87,
          "time": 34.73679000000004,
          "velocity": 0.7874015748031497,
          "duration": 0.06359639583333632
        },
        {
          "name": "F#6",
          "midi": 90,
          "time": 34.73679000000004,
          "velocity": 0.7874015748031497,
          "duration": 0.06359639583333632
        },
        {
          "name": "E7",
          "midi": 100,
          "time": 34.73679000000004,
          "velocity": 0.7874015748031497,
          "duration": 0.06359639583333632
        },
        {
          "name": "F#7",
          "midi": 102,
          "time": 34.73679000000004,
          "velocity": 0.7874015748031497,
          "duration": 0.06359639583333632
        },
        {
          "name": "C4",
          "midi": 60,
          "time": 35.263105000000046,
          "velocity": 0.7874015748031497,
          "duration": 0.06359639583333632
        },
        {
          "name": "F#4",
          "midi": 66,
          "time": 35.263105000000046,
          "velocity": 0.7874015748031497,
          "duration": 0.06359639583333632
        },
        {
          "name": "C5",
          "midi": 72,
          "time": 35.263105000000046,
          "velocity": 0.7874015748031497,
          "duration": 0.06359639583333632
        },
        {
          "name": "F#5",
          "midi": 78,
          "time": 35.263105000000046,
          "velocity": 0.7874015748031497,
          "duration": 0.06359639583333632
        },
        {
          "name": "C6",
          "midi": 84,
          "time": 35.263105000000046,
          "velocity": 0.7874015748031497,
          "duration": 0.06359639583333632
        },
        {
          "name": "F#6",
          "midi": 90,
          "time": 35.263105000000046,
          "velocity": 0.7874015748031497,
          "duration": 0.06359639583333632
        },
        {
          "name": "C7",
          "midi": 96,
          "time": 35.263105000000046,
          "velocity": 0.7874015748031497,
          "duration": 0.06359639583333632
        },
        {
          "name": "F#7",
          "midi": 102,
          "time": 35.263105000000046,
          "velocity": 0.7874015748031497,
          "duration": 0.06359639583333632
        },
        {
          "name": "C6",
          "midi": 84,
          "time": 35.52626250000005,
          "velocity": 0.7874015748031497,
          "duration": 0.06359639583333632
        },
        {
          "name": "F#6",
          "midi": 90,
          "time": 35.52626250000005,
          "velocity": 0.7874015748031497,
          "duration": 0.06359639583333632
        },
        {
          "name": "C7",
          "midi": 96,
          "time": 35.52626250000005,
          "velocity": 0.7874015748031497,
          "duration": 0.06359639583333632
        },
        {
          "name": "F#7",
          "midi": 102,
          "time": 35.52626250000005,
          "velocity": 0.7874015748031497,
          "duration": 0.06359639583333632
        },
        {
          "name": "C#4",
          "midi": 61,
          "time": 35.78942000000006,
          "velocity": 0.7874015748031497,
          "duration": 0.06578937500000137
        },
        {
          "name": "F#4",
          "midi": 66,
          "time": 35.78942000000006,
          "velocity": 0.7874015748031497,
          "duration": 0.06578937500000137
        },
        {
          "name": "D5",
          "midi": 74,
          "time": 35.78942000000006,
          "velocity": 0.7874015748031497,
          "duration": 0.06578937500000137
        },
        {
          "name": "F#5",
          "midi": 78,
          "time": 35.78942000000006,
          "velocity": 0.7874015748031497,
          "duration": 0.06578937500000137
        },
        {
          "name": "D#6",
          "midi": 87,
          "time": 35.78942000000006,
          "velocity": 0.7874015748031497,
          "duration": 0.06578937500000137
        },
        {
          "name": "F#6",
          "midi": 90,
          "time": 35.78942000000006,
          "velocity": 0.7874015748031497,
          "duration": 0.06578937500000137
        },
        {
          "name": "E7",
          "midi": 100,
          "time": 35.78942000000006,
          "velocity": 0.7874015748031497,
          "duration": 0.06578937500000137
        },
        {
          "name": "F#7",
          "midi": 102,
          "time": 35.78942000000006,
          "velocity": 0.7874015748031497,
          "duration": 0.06578937500000137
        },
        {
          "name": "C4",
          "midi": 60,
          "time": 36.31573500000006,
          "velocity": 0.7874015748031497,
          "duration": 0.06469288541666884
        },
        {
          "name": "F#4",
          "midi": 66,
          "time": 36.31573500000006,
          "velocity": 0.7874015748031497,
          "duration": 0.06469288541666884
        },
        {
          "name": "C5",
          "midi": 72,
          "time": 36.31573500000006,
          "velocity": 0.7874015748031497,
          "duration": 0.06469288541666884
        },
        {
          "name": "F#5",
          "midi": 78,
          "time": 36.31573500000006,
          "velocity": 0.7874015748031497,
          "duration": 0.06469288541666884
        },
        {
          "name": "C6",
          "midi": 84,
          "time": 36.31573500000006,
          "velocity": 0.7874015748031497,
          "duration": 0.06469288541666884
        },
        {
          "name": "F#6",
          "midi": 90,
          "time": 36.31573500000006,
          "velocity": 0.7874015748031497,
          "duration": 0.06469288541666884
        },
        {
          "name": "C7",
          "midi": 96,
          "time": 36.31573500000006,
          "velocity": 0.7874015748031497,
          "duration": 0.06469288541666884
        },
        {
          "name": "F#7",
          "midi": 102,
          "time": 36.31573500000006,
          "velocity": 0.7874015748031497,
          "duration": 0.06469288541666884
        },
        {
          "name": "C#4",
          "midi": 61,
          "time": 36.5799889895834,
          "velocity": 0.7874015748031497,
          "duration": 0.06469288541666884
        },
        {
          "name": "F#4",
          "midi": 66,
          "time": 36.5799889895834,
          "velocity": 0.7874015748031497,
          "duration": 0.06469288541666884
        },
        {
          "name": "D5",
          "midi": 74,
          "time": 36.5799889895834,
          "velocity": 0.7874015748031497,
          "duration": 0.06469288541666884
        },
        {
          "name": "F#5",
          "midi": 78,
          "time": 36.5799889895834,
          "velocity": 0.7874015748031497,
          "duration": 0.06469288541666884
        },
        {
          "name": "D#6",
          "midi": 87,
          "time": 36.5799889895834,
          "velocity": 0.7874015748031497,
          "duration": 0.06469288541666884
        },
        {
          "name": "F#6",
          "midi": 90,
          "time": 36.5799889895834,
          "velocity": 0.7874015748031497,
          "duration": 0.06469288541666884
        },
        {
          "name": "E7",
          "midi": 100,
          "time": 36.5799889895834,
          "velocity": 0.7874015748031497,
          "duration": 0.06469288541666884
        },
        {
          "name": "F#7",
          "midi": 102,
          "time": 36.5799889895834,
          "velocity": 0.7874015748031497,
          "duration": 0.06469288541666884
        },
        {
          "name": "C#4",
          "midi": 61,
          "time": 37.10520750000007,
          "velocity": 0.7874015748031497,
          "duration": 0.06578937500000137
        },
        {
          "name": "F#4",
          "midi": 66,
          "time": 37.10520750000007,
          "velocity": 0.7874015748031497,
          "duration": 0.06578937500000137
        },
        {
          "name": "D5",
          "midi": 74,
          "time": 37.10520750000007,
          "velocity": 0.7874015748031497,
          "duration": 0.06578937500000137
        },
        {
          "name": "F#5",
          "midi": 78,
          "time": 37.10520750000007,
          "velocity": 0.7874015748031497,
          "duration": 0.06578937500000137
        },
        {
          "name": "D#6",
          "midi": 87,
          "time": 37.10520750000007,
          "velocity": 0.7874015748031497,
          "duration": 0.06578937500000137
        },
        {
          "name": "F#6",
          "midi": 90,
          "time": 37.10520750000007,
          "velocity": 0.7874015748031497,
          "duration": 0.06578937500000137
        },
        {
          "name": "E7",
          "midi": 100,
          "time": 37.10520750000007,
          "velocity": 0.7874015748031497,
          "duration": 0.06578937500000137
        },
        {
          "name": "F#7",
          "midi": 102,
          "time": 37.10520750000007,
          "velocity": 0.7874015748031497,
          "duration": 0.06578937500000137
        },
        {
          "name": "C#4",
          "midi": 61,
          "time": 37.632618989583406,
          "velocity": 0.7874015748031497,
          "duration": 0.06469288541666884
        },
        {
          "name": "F#4",
          "midi": 66,
          "time": 37.632618989583406,
          "velocity": 0.7874015748031497,
          "duration": 0.06469288541666884
        },
        {
          "name": "D5",
          "midi": 74,
          "time": 37.632618989583406,
          "velocity": 0.7874015748031497,
          "duration": 0.06469288541666884
        },
        {
          "name": "F#5",
          "midi": 78,
          "time": 37.632618989583406,
          "velocity": 0.7874015748031497,
          "duration": 0.06469288541666884
        },
        {
          "name": "D#6",
          "midi": 87,
          "time": 37.632618989583406,
          "velocity": 0.7874015748031497,
          "duration": 0.06469288541666884
        },
        {
          "name": "F#6",
          "midi": 90,
          "time": 37.632618989583406,
          "velocity": 0.7874015748031497,
          "duration": 0.06469288541666884
        },
        {
          "name": "E7",
          "midi": 100,
          "time": 37.632618989583406,
          "velocity": 0.7874015748031497,
          "duration": 0.06469288541666884
        },
        {
          "name": "F#7",
          "midi": 102,
          "time": 37.632618989583406,
          "velocity": 0.7874015748031497,
          "duration": 0.06469288541666884
        },
        {
          "name": "C4",
          "midi": 60,
          "time": 38.15783750000008,
          "velocity": 0.7874015748031497,
          "duration": 0.06578937500000137
        },
        {
          "name": "F#4",
          "midi": 66,
          "time": 38.15783750000008,
          "velocity": 0.7874015748031497,
          "duration": 0.06578937500000137
        },
        {
          "name": "C5",
          "midi": 72,
          "time": 38.15783750000008,
          "velocity": 0.7874015748031497,
          "duration": 0.06578937500000137
        },
        {
          "name": "F#5",
          "midi": 78,
          "time": 38.15783750000008,
          "velocity": 0.7874015748031497,
          "duration": 0.06578937500000137
        },
        {
          "name": "C6",
          "midi": 84,
          "time": 38.15783750000008,
          "velocity": 0.7874015748031497,
          "duration": 0.06578937500000137
        },
        {
          "name": "F#6",
          "midi": 90,
          "time": 38.15783750000008,
          "velocity": 0.7874015748031497,
          "duration": 0.06578937500000137
        },
        {
          "name": "C7",
          "midi": 96,
          "time": 38.15783750000008,
          "velocity": 0.7874015748031497,
          "duration": 0.06578937500000137
        },
        {
          "name": "F#7",
          "midi": 102,
          "time": 38.15783750000008,
          "velocity": 0.7874015748031497,
          "duration": 0.06578937500000137
        },
        {
          "name": "C#4",
          "midi": 61,
          "time": 38.420995000000076,
          "velocity": 0.7874015748031497,
          "duration": 0.06469288541666884
        },
        {
          "name": "F#4",
          "midi": 66,
          "time": 38.420995000000076,
          "velocity": 0.7874015748031497,
          "duration": 0.06469288541666884
        },
        {
          "name": "D5",
          "midi": 74,
          "time": 38.420995000000076,
          "velocity": 0.7874015748031497,
          "duration": 0.06469288541666884
        },
        {
          "name": "F#5",
          "midi": 78,
          "time": 38.420995000000076,
          "velocity": 0.7874015748031497,
          "duration": 0.06469288541666884
        },
        {
          "name": "D#6",
          "midi": 87,
          "time": 38.420995000000076,
          "velocity": 0.7874015748031497,
          "duration": 0.06469288541666884
        },
        {
          "name": "F#6",
          "midi": 90,
          "time": 38.420995000000076,
          "velocity": 0.7874015748031497,
          "duration": 0.06469288541666884
        },
        {
          "name": "E7",
          "midi": 100,
          "time": 38.420995000000076,
          "velocity": 0.7874015748031497,
          "duration": 0.06469288541666884
        },
        {
          "name": "F#7",
          "midi": 102,
          "time": 38.420995000000076,
          "velocity": 0.7874015748031497,
          "duration": 0.06469288541666884
        },
        {
          "name": "C#4",
          "midi": 61,
          "time": 38.94731000000008,
          "velocity": 0.7874015748031497,
          "duration": 0.06578937500000137
        },
        {
          "name": "F#4",
          "midi": 66,
          "time": 38.94731000000008,
          "velocity": 0.7874015748031497,
          "duration": 0.06578937500000137
        },
        {
          "name": "D5",
          "midi": 74,
          "time": 38.94731000000008,
          "velocity": 0.7874015748031497,
          "duration": 0.06578937500000137
        },
        {
          "name": "F#5",
          "midi": 78,
          "time": 38.94731000000008,
          "velocity": 0.7874015748031497,
          "duration": 0.06578937500000137
        },
        {
          "name": "D#6",
          "midi": 87,
          "time": 38.94731000000008,
          "velocity": 0.7874015748031497,
          "duration": 0.06578937500000137
        },
        {
          "name": "F#6",
          "midi": 90,
          "time": 38.94731000000008,
          "velocity": 0.7874015748031497,
          "duration": 0.06578937500000137
        },
        {
          "name": "E7",
          "midi": 100,
          "time": 38.94731000000008,
          "velocity": 0.7874015748031497,
          "duration": 0.06578937500000137
        },
        {
          "name": "F#7",
          "midi": 102,
          "time": 38.94731000000008,
          "velocity": 0.7874015748031497,
          "duration": 0.06578937500000137
        },
        {
          "name": "C#4",
          "midi": 61,
          "time": 39.473625000000084,
          "velocity": 0.7874015748031497,
          "duration": 0.06469288541666884
        },
        {
          "name": "F#4",
          "midi": 66,
          "time": 39.473625000000084,
          "velocity": 0.7874015748031497,
          "duration": 0.06469288541666884
        },
        {
          "name": "D5",
          "midi": 74,
          "time": 39.473625000000084,
          "velocity": 0.7874015748031497,
          "duration": 0.06469288541666884
        },
        {
          "name": "F#5",
          "midi": 78,
          "time": 39.473625000000084,
          "velocity": 0.7874015748031497,
          "duration": 0.06469288541666884
        },
        {
          "name": "D#6",
          "midi": 87,
          "time": 39.473625000000084,
          "velocity": 0.7874015748031497,
          "duration": 0.06469288541666884
        },
        {
          "name": "F#6",
          "midi": 90,
          "time": 39.473625000000084,
          "velocity": 0.7874015748031497,
          "duration": 0.06469288541666884
        },
        {
          "name": "E7",
          "midi": 100,
          "time": 39.473625000000084,
          "velocity": 0.7874015748031497,
          "duration": 0.06469288541666884
        },
        {
          "name": "F#7",
          "midi": 102,
          "time": 39.473625000000084,
          "velocity": 0.7874015748031497,
          "duration": 0.06469288541666884
        },
        {
          "name": "C#4",
          "midi": 61,
          "time": 39.99994000000009,
          "velocity": 0.7874015748031497,
          "duration": 0.06359639583333632
        },
        {
          "name": "F#4",
          "midi": 66,
          "time": 39.99994000000009,
          "velocity": 0.7874015748031497,
          "duration": 0.06359639583333632
        },
        {
          "name": "D5",
          "midi": 74,
          "time": 39.99994000000009,
          "velocity": 0.7874015748031497,
          "duration": 0.06359639583333632
        },
        {
          "name": "F#5",
          "midi": 78,
          "time": 39.99994000000009,
          "velocity": 0.7874015748031497,
          "duration": 0.06359639583333632
        },
        {
          "name": "D#6",
          "midi": 87,
          "time": 39.99994000000009,
          "velocity": 0.7874015748031497,
          "duration": 0.06359639583333632
        },
        {
          "name": "F#6",
          "midi": 90,
          "time": 39.99994000000009,
          "velocity": 0.7874015748031497,
          "duration": 0.06359639583333632
        },
        {
          "name": "E7",
          "midi": 100,
          "time": 39.99994000000009,
          "velocity": 0.7874015748031497,
          "duration": 0.06359639583333632
        },
        {
          "name": "F#7",
          "midi": 102,
          "time": 39.99994000000009,
          "velocity": 0.7874015748031497,
          "duration": 0.06359639583333632
        },
        {
          "name": "C4",
          "midi": 60,
          "time": 40.52625500000009,
          "velocity": 0.7874015748031497,
          "duration": 0.06578937500000137
        },
        {
          "name": "F#4",
          "midi": 66,
          "time": 40.52625500000009,
          "velocity": 0.7874015748031497,
          "duration": 0.06578937500000137
        },
        {
          "name": "C5",
          "midi": 72,
          "time": 40.52625500000009,
          "velocity": 0.7874015748031497,
          "duration": 0.06578937500000137
        },
        {
          "name": "F#5",
          "midi": 78,
          "time": 40.52625500000009,
          "velocity": 0.7874015748031497,
          "duration": 0.06578937500000137
        },
        {
          "name": "C6",
          "midi": 84,
          "time": 40.52625500000009,
          "velocity": 0.7874015748031497,
          "duration": 0.06578937500000137
        },
        {
          "name": "F#6",
          "midi": 90,
          "time": 40.52625500000009,
          "velocity": 0.7874015748031497,
          "duration": 0.06578937500000137
        },
        {
          "name": "C7",
          "midi": 96,
          "time": 40.52625500000009,
          "velocity": 0.7874015748031497,
          "duration": 0.06578937500000137
        },
        {
          "name": "F#7",
          "midi": 102,
          "time": 40.52625500000009,
          "velocity": 0.7874015748031497,
          "duration": 0.06578937500000137
        },
        {
          "name": "C6",
          "midi": 84,
          "time": 40.79050898958343,
          "velocity": 0.7874015748031497,
          "duration": 0.06578937500000137
        },
        {
          "name": "F#6",
          "midi": 90,
          "time": 40.79050898958343,
          "velocity": 0.7874015748031497,
          "duration": 0.06578937500000137
        },
        {
          "name": "C7",
          "midi": 96,
          "time": 40.79050898958343,
          "velocity": 0.7874015748031497,
          "duration": 0.06578937500000137
        },
        {
          "name": "F#7",
          "midi": 102,
          "time": 40.79050898958343,
          "velocity": 0.7874015748031497,
          "duration": 0.06578937500000137
        },
        {
          "name": "C#4",
          "midi": 61,
          "time": 41.052570000000095,
          "velocity": 0.7874015748031497,
          "duration": 0.06578937500000137
        },
        {
          "name": "F#4",
          "midi": 66,
          "time": 41.052570000000095,
          "velocity": 0.7874015748031497,
          "duration": 0.06578937500000137
        },
        {
          "name": "D5",
          "midi": 74,
          "time": 41.052570000000095,
          "velocity": 0.7874015748031497,
          "duration": 0.06578937500000137
        },
        {
          "name": "F#5",
          "midi": 78,
          "time": 41.052570000000095,
          "velocity": 0.7874015748031497,
          "duration": 0.06578937500000137
        },
        {
          "name": "D#6",
          "midi": 87,
          "time": 41.052570000000095,
          "velocity": 0.7874015748031497,
          "duration": 0.06578937500000137
        },
        {
          "name": "F#6",
          "midi": 90,
          "time": 41.052570000000095,
          "velocity": 0.7874015748031497,
          "duration": 0.06578937500000137
        },
        {
          "name": "E7",
          "midi": 100,
          "time": 41.052570000000095,
          "velocity": 0.7874015748031497,
          "duration": 0.06578937500000137
        },
        {
          "name": "F#7",
          "midi": 102,
          "time": 41.052570000000095,
          "velocity": 0.7874015748031497,
          "duration": 0.06578937500000137
        },
        {
          "name": "C4",
          "midi": 60,
          "time": 41.5788850000001,
          "velocity": 0.7874015748031497,
          "duration": 0.06578937500000137
        },
        {
          "name": "F#4",
          "midi": 66,
          "time": 41.5788850000001,
          "velocity": 0.7874015748031497,
          "duration": 0.06578937500000137
        },
        {
          "name": "C5",
          "midi": 72,
          "time": 41.5788850000001,
          "velocity": 0.7874015748031497,
          "duration": 0.06578937500000137
        },
        {
          "name": "F#5",
          "midi": 78,
          "time": 41.5788850000001,
          "velocity": 0.7874015748031497,
          "duration": 0.06578937500000137
        },
        {
          "name": "C6",
          "midi": 84,
          "time": 41.5788850000001,
          "velocity": 0.7874015748031497,
          "duration": 0.06578937500000137
        },
        {
          "name": "F#6",
          "midi": 90,
          "time": 41.5788850000001,
          "velocity": 0.7874015748031497,
          "duration": 0.06578937500000137
        },
        {
          "name": "C7",
          "midi": 96,
          "time": 41.5788850000001,
          "velocity": 0.7874015748031497,
          "duration": 0.06578937500000137
        },
        {
          "name": "F#7",
          "midi": 102,
          "time": 41.5788850000001,
          "velocity": 0.7874015748031497,
          "duration": 0.06578937500000137
        },
        {
          "name": "C#4",
          "midi": 61,
          "time": 41.840946010416765,
          "velocity": 0.7874015748031497,
          "duration": 0.06578937500000137
        },
        {
          "name": "F#4",
          "midi": 66,
          "time": 41.840946010416765,
          "velocity": 0.7874015748031497,
          "duration": 0.06578937500000137
        },
        {
          "name": "D5",
          "midi": 74,
          "time": 41.840946010416765,
          "velocity": 0.7874015748031497,
          "duration": 0.06578937500000137
        },
        {
          "name": "F#5",
          "midi": 78,
          "time": 41.840946010416765,
          "velocity": 0.7874015748031497,
          "duration": 0.06578937500000137
        },
        {
          "name": "D#6",
          "midi": 87,
          "time": 41.840946010416765,
          "velocity": 0.7874015748031497,
          "duration": 0.06578937500000137
        },
        {
          "name": "F#6",
          "midi": 90,
          "time": 41.840946010416765,
          "velocity": 0.7874015748031497,
          "duration": 0.06578937500000137
        },
        {
          "name": "E7",
          "midi": 100,
          "time": 41.840946010416765,
          "velocity": 0.7874015748031497,
          "duration": 0.06578937500000137
        },
        {
          "name": "F#7",
          "midi": 102,
          "time": 41.840946010416765,
          "velocity": 0.7874015748031497,
          "duration": 0.06578937500000137
        },
        {
          "name": "C#4",
          "midi": 61,
          "time": 42.3683575000001,
          "velocity": 0.7874015748031497,
          "duration": 0.06578937500000137
        },
        {
          "name": "F#4",
          "midi": 66,
          "time": 42.3683575000001,
          "velocity": 0.7874015748031497,
          "duration": 0.06578937500000137
        },
        {
          "name": "D5",
          "midi": 74,
          "time": 42.3683575000001,
          "velocity": 0.7874015748031497,
          "duration": 0.06578937500000137
        },
        {
          "name": "F#5",
          "midi": 78,
          "time": 42.3683575000001,
          "velocity": 0.7874015748031497,
          "duration": 0.06578937500000137
        },
        {
          "name": "D#6",
          "midi": 87,
          "time": 42.3683575000001,
          "velocity": 0.7874015748031497,
          "duration": 0.06578937500000137
        },
        {
          "name": "F#6",
          "midi": 90,
          "time": 42.3683575000001,
          "velocity": 0.7874015748031497,
          "duration": 0.06578937500000137
        },
        {
          "name": "E7",
          "midi": 100,
          "time": 42.3683575000001,
          "velocity": 0.7874015748031497,
          "duration": 0.06578937500000137
        },
        {
          "name": "F#7",
          "midi": 102,
          "time": 42.3683575000001,
          "velocity": 0.7874015748031497,
          "duration": 0.06578937500000137
        },
        {
          "name": "C#4",
          "midi": 61,
          "time": 42.89576898958344,
          "velocity": 0.7874015748031497,
          "duration": 0.06578937500000137
        },
        {
          "name": "F#4",
          "midi": 66,
          "time": 42.89576898958344,
          "velocity": 0.7874015748031497,
          "duration": 0.06578937500000137
        },
        {
          "name": "D5",
          "midi": 74,
          "time": 42.89576898958344,
          "velocity": 0.7874015748031497,
          "duration": 0.06578937500000137
        },
        {
          "name": "F#5",
          "midi": 78,
          "time": 42.89576898958344,
          "velocity": 0.7874015748031497,
          "duration": 0.06578937500000137
        },
        {
          "name": "D#6",
          "midi": 87,
          "time": 42.89576898958344,
          "velocity": 0.7874015748031497,
          "duration": 0.06578937500000137
        },
        {
          "name": "F#6",
          "midi": 90,
          "time": 42.89576898958344,
          "velocity": 0.7874015748031497,
          "duration": 0.06578937500000137
        },
        {
          "name": "E7",
          "midi": 100,
          "time": 42.89576898958344,
          "velocity": 0.7874015748031497,
          "duration": 0.06578937500000137
        },
        {
          "name": "F#7",
          "midi": 102,
          "time": 42.89576898958344,
          "velocity": 0.7874015748031497,
          "duration": 0.06578937500000137
        },
        {
          "name": "C4",
          "midi": 60,
          "time": 43.41989101041677,
          "velocity": 0.7874015748031497,
          "duration": 0.06578937500000137
        },
        {
          "name": "F#4",
          "midi": 66,
          "time": 43.41989101041677,
          "velocity": 0.7874015748031497,
          "duration": 0.06578937500000137
        },
        {
          "name": "C5",
          "midi": 72,
          "time": 43.41989101041677,
          "velocity": 0.7874015748031497,
          "duration": 0.06578937500000137
        },
        {
          "name": "F#5",
          "midi": 78,
          "time": 43.41989101041677,
          "velocity": 0.7874015748031497,
          "duration": 0.06578937500000137
        },
        {
          "name": "C6",
          "midi": 84,
          "time": 43.41989101041677,
          "velocity": 0.7874015748031497,
          "duration": 0.06578937500000137
        },
        {
          "name": "F#6",
          "midi": 90,
          "time": 43.41989101041677,
          "velocity": 0.7874015748031497,
          "duration": 0.06578937500000137
        },
        {
          "name": "C7",
          "midi": 96,
          "time": 43.41989101041677,
          "velocity": 0.7874015748031497,
          "duration": 0.06578937500000137
        },
        {
          "name": "F#7",
          "midi": 102,
          "time": 43.41989101041677,
          "velocity": 0.7874015748031497,
          "duration": 0.06578937500000137
        },
        {
          "name": "C#4",
          "midi": 61,
          "time": 43.68414500000011,
          "velocity": 0.7874015748031497,
          "duration": 0.06469288541666884
        },
        {
          "name": "F#4",
          "midi": 66,
          "time": 43.68414500000011,
          "velocity": 0.7874015748031497,
          "duration": 0.06469288541666884
        },
        {
          "name": "D5",
          "midi": 74,
          "time": 43.68414500000011,
          "velocity": 0.7874015748031497,
          "duration": 0.06469288541666884
        },
        {
          "name": "F#5",
          "midi": 78,
          "time": 43.68414500000011,
          "velocity": 0.7874015748031497,
          "duration": 0.06469288541666884
        },
        {
          "name": "D#6",
          "midi": 87,
          "time": 43.68414500000011,
          "velocity": 0.7874015748031497,
          "duration": 0.06469288541666884
        },
        {
          "name": "F#6",
          "midi": 90,
          "time": 43.68414500000011,
          "velocity": 0.7874015748031497,
          "duration": 0.06469288541666884
        },
        {
          "name": "E7",
          "midi": 100,
          "time": 43.68414500000011,
          "velocity": 0.7874015748031497,
          "duration": 0.06469288541666884
        },
        {
          "name": "F#7",
          "midi": 102,
          "time": 43.68414500000011,
          "velocity": 0.7874015748031497,
          "duration": 0.06469288541666884
        },
        {
          "name": "C#4",
          "midi": 61,
          "time": 44.21046000000011,
          "velocity": 0.7874015748031497,
          "duration": 0.06469288541666884
        },
        {
          "name": "F#4",
          "midi": 66,
          "time": 44.21046000000011,
          "velocity": 0.7874015748031497,
          "duration": 0.06469288541666884
        },
        {
          "name": "D5",
          "midi": 74,
          "time": 44.21046000000011,
          "velocity": 0.7874015748031497,
          "duration": 0.06469288541666884
        },
        {
          "name": "F#5",
          "midi": 78,
          "time": 44.21046000000011,
          "velocity": 0.7874015748031497,
          "duration": 0.06469288541666884
        },
        {
          "name": "D#6",
          "midi": 87,
          "time": 44.21046000000011,
          "velocity": 0.7874015748031497,
          "duration": 0.06469288541666884
        },
        {
          "name": "F#6",
          "midi": 90,
          "time": 44.21046000000011,
          "velocity": 0.7874015748031497,
          "duration": 0.06469288541666884
        },
        {
          "name": "E7",
          "midi": 100,
          "time": 44.21046000000011,
          "velocity": 0.7874015748031497,
          "duration": 0.06469288541666884
        },
        {
          "name": "F#7",
          "midi": 102,
          "time": 44.21046000000011,
          "velocity": 0.7874015748031497,
          "duration": 0.06469288541666884
        },
        {
          "name": "C#4",
          "midi": 61,
          "time": 44.736775000000115,
          "velocity": 0.7874015748031497,
          "duration": 0.06578937500000137
        },
        {
          "name": "F#4",
          "midi": 66,
          "time": 44.736775000000115,
          "velocity": 0.7874015748031497,
          "duration": 0.06578937500000137
        },
        {
          "name": "D5",
          "midi": 74,
          "time": 44.736775000000115,
          "velocity": 0.7874015748031497,
          "duration": 0.06578937500000137
        },
        {
          "name": "F#5",
          "midi": 78,
          "time": 44.736775000000115,
          "velocity": 0.7874015748031497,
          "duration": 0.06578937500000137
        },
        {
          "name": "D#6",
          "midi": 87,
          "time": 44.736775000000115,
          "velocity": 0.7874015748031497,
          "duration": 0.06578937500000137
        },
        {
          "name": "F#6",
          "midi": 90,
          "time": 44.736775000000115,
          "velocity": 0.7874015748031497,
          "duration": 0.06578937500000137
        },
        {
          "name": "E7",
          "midi": 100,
          "time": 44.736775000000115,
          "velocity": 0.7874015748031497,
          "duration": 0.06578937500000137
        },
        {
          "name": "F#7",
          "midi": 102,
          "time": 44.736775000000115,
          "velocity": 0.7874015748031497,
          "duration": 0.06578937500000137
        },
        {
          "name": "C#4",
          "midi": 61,
          "time": 45.26309000000012,
          "velocity": 0.7874015748031497,
          "duration": 0.06469288541666884
        },
        {
          "name": "F#4",
          "midi": 66,
          "time": 45.26309000000012,
          "velocity": 0.7874015748031497,
          "duration": 0.06469288541666884
        },
        {
          "name": "D5",
          "midi": 74,
          "time": 45.26309000000012,
          "velocity": 0.7874015748031497,
          "duration": 0.06469288541666884
        },
        {
          "name": "F#5",
          "midi": 78,
          "time": 45.26309000000012,
          "velocity": 0.7874015748031497,
          "duration": 0.06469288541666884
        },
        {
          "name": "D#6",
          "midi": 87,
          "time": 45.26309000000012,
          "velocity": 0.7874015748031497,
          "duration": 0.06469288541666884
        },
        {
          "name": "F#6",
          "midi": 90,
          "time": 45.26309000000012,
          "velocity": 0.7874015748031497,
          "duration": 0.06469288541666884
        },
        {
          "name": "E7",
          "midi": 100,
          "time": 45.26309000000012,
          "velocity": 0.7874015748031497,
          "duration": 0.06469288541666884
        },
        {
          "name": "F#7",
          "midi": 102,
          "time": 45.26309000000012,
          "velocity": 0.7874015748031497,
          "duration": 0.06469288541666884
        },
        {
          "name": "C4",
          "midi": 60,
          "time": 45.78940500000012,
          "velocity": 0.7874015748031497,
          "duration": 0.06578937500000137
        },
        {
          "name": "F#4",
          "midi": 66,
          "time": 45.78940500000012,
          "velocity": 0.7874015748031497,
          "duration": 0.06578937500000137
        },
        {
          "name": "C5",
          "midi": 72,
          "time": 45.78940500000012,
          "velocity": 0.7874015748031497,
          "duration": 0.06578937500000137
        },
        {
          "name": "F#5",
          "midi": 78,
          "time": 45.78940500000012,
          "velocity": 0.7874015748031497,
          "duration": 0.06578937500000137
        },
        {
          "name": "C6",
          "midi": 84,
          "time": 45.78940500000012,
          "velocity": 0.7874015748031497,
          "duration": 0.06578937500000137
        },
        {
          "name": "F#6",
          "midi": 90,
          "time": 45.78940500000012,
          "velocity": 0.7874015748031497,
          "duration": 0.06578937500000137
        },
        {
          "name": "C7",
          "midi": 96,
          "time": 45.78940500000012,
          "velocity": 0.7874015748031497,
          "duration": 0.06578937500000137
        },
        {
          "name": "F#7",
          "midi": 102,
          "time": 45.78940500000012,
          "velocity": 0.7874015748031497,
          "duration": 0.06578937500000137
        },
        {
          "name": "C6",
          "midi": 84,
          "time": 46.05256250000012,
          "velocity": 0.7874015748031497,
          "duration": 0.06578937500000137
        },
        {
          "name": "F#6",
          "midi": 90,
          "time": 46.05256250000012,
          "velocity": 0.7874015748031497,
          "duration": 0.06578937500000137
        },
        {
          "name": "C7",
          "midi": 96,
          "time": 46.05256250000012,
          "velocity": 0.7874015748031497,
          "duration": 0.06578937500000137
        },
        {
          "name": "F#7",
          "midi": 102,
          "time": 46.05256250000012,
          "velocity": 0.7874015748031497,
          "duration": 0.06578937500000137
        },
        {
          "name": "G#8",
          "midi": 116,
          "time": 46.31572000000012,
          "velocity": 0.7874015748031497,
          "duration": 5.327842885416715
        },
        {
          "name": "C#4",
          "midi": 61,
          "time": 46.31572000000012,
          "velocity": 0.7874015748031497,
          "duration": 0.06469288541666884
        },
        {
          "name": "F#4",
          "midi": 66,
          "time": 46.31572000000012,
          "velocity": 0.7874015748031497,
          "duration": 0.06469288541666884
        },
        {
          "name": "D5",
          "midi": 74,
          "time": 46.31572000000012,
          "velocity": 0.7874015748031497,
          "duration": 0.06469288541666884
        },
        {
          "name": "F#5",
          "midi": 78,
          "time": 46.31572000000012,
          "velocity": 0.7874015748031497,
          "duration": 0.06469288541666884
        },
        {
          "name": "D#6",
          "midi": 87,
          "time": 46.31572000000012,
          "velocity": 0.7874015748031497,
          "duration": 0.06469288541666884
        },
        {
          "name": "F#6",
          "midi": 90,
          "time": 46.31572000000012,
          "velocity": 0.7874015748031497,
          "duration": 0.06469288541666884
        },
        {
          "name": "E7",
          "midi": 100,
          "time": 46.31572000000012,
          "velocity": 0.7874015748031497,
          "duration": 0.06469288541666884
        },
        {
          "name": "F#7",
          "midi": 102,
          "time": 46.31572000000012,
          "velocity": 0.7874015748031497,
          "duration": 0.06469288541666884
        },
        {
          "name": "C4",
          "midi": 60,
          "time": 46.84203500000012,
          "velocity": 0.7874015748031497,
          "duration": 0.06469288541666884
        },
        {
          "name": "F#4",
          "midi": 66,
          "time": 46.84203500000012,
          "velocity": 0.7874015748031497,
          "duration": 0.06469288541666884
        },
        {
          "name": "C5",
          "midi": 72,
          "time": 46.84203500000012,
          "velocity": 0.7874015748031497,
          "duration": 0.06469288541666884
        },
        {
          "name": "F#5",
          "midi": 78,
          "time": 46.84203500000012,
          "velocity": 0.7874015748031497,
          "duration": 0.06469288541666884
        },
        {
          "name": "C6",
          "midi": 84,
          "time": 46.84203500000012,
          "velocity": 0.7874015748031497,
          "duration": 0.06469288541666884
        },
        {
          "name": "F#6",
          "midi": 90,
          "time": 46.84203500000012,
          "velocity": 0.7874015748031497,
          "duration": 0.06469288541666884
        },
        {
          "name": "C7",
          "midi": 96,
          "time": 46.84203500000012,
          "velocity": 0.7874015748031497,
          "duration": 0.06469288541666884
        },
        {
          "name": "F#7",
          "midi": 102,
          "time": 46.84203500000012,
          "velocity": 0.7874015748031497,
          "duration": 0.06469288541666884
        },
        {
          "name": "C#4",
          "midi": 61,
          "time": 47.10628898958346,
          "velocity": 0.7874015748031497,
          "duration": 0.06469288541666884
        },
        {
          "name": "F#4",
          "midi": 66,
          "time": 47.10628898958346,
          "velocity": 0.7874015748031497,
          "duration": 0.06469288541666884
        },
        {
          "name": "D5",
          "midi": 74,
          "time": 47.10628898958346,
          "velocity": 0.7874015748031497,
          "duration": 0.06469288541666884
        },
        {
          "name": "F#5",
          "midi": 78,
          "time": 47.10628898958346,
          "velocity": 0.7874015748031497,
          "duration": 0.06469288541666884
        },
        {
          "name": "D#6",
          "midi": 87,
          "time": 47.10628898958346,
          "velocity": 0.7874015748031497,
          "duration": 0.06469288541666884
        },
        {
          "name": "F#6",
          "midi": 90,
          "time": 47.10628898958346,
          "velocity": 0.7874015748031497,
          "duration": 0.06469288541666884
        },
        {
          "name": "E7",
          "midi": 100,
          "time": 47.10628898958346,
          "velocity": 0.7874015748031497,
          "duration": 0.06469288541666884
        },
        {
          "name": "F#7",
          "midi": 102,
          "time": 47.10628898958346,
          "velocity": 0.7874015748031497,
          "duration": 0.06469288541666884
        },
        {
          "name": "C#4",
          "midi": 61,
          "time": 47.63150750000013,
          "velocity": 0.7874015748031497,
          "duration": 0.06469288541666884
        },
        {
          "name": "F#4",
          "midi": 66,
          "time": 47.63150750000013,
          "velocity": 0.7874015748031497,
          "duration": 0.06469288541666884
        },
        {
          "name": "D5",
          "midi": 74,
          "time": 47.63150750000013,
          "velocity": 0.7874015748031497,
          "duration": 0.06469288541666884
        },
        {
          "name": "F#5",
          "midi": 78,
          "time": 47.63150750000013,
          "velocity": 0.7874015748031497,
          "duration": 0.06469288541666884
        },
        {
          "name": "D#6",
          "midi": 87,
          "time": 47.63150750000013,
          "velocity": 0.7874015748031497,
          "duration": 0.06469288541666884
        },
        {
          "name": "F#6",
          "midi": 90,
          "time": 47.63150750000013,
          "velocity": 0.7874015748031497,
          "duration": 0.06469288541666884
        },
        {
          "name": "E7",
          "midi": 100,
          "time": 47.63150750000013,
          "velocity": 0.7874015748031497,
          "duration": 0.06469288541666884
        },
        {
          "name": "F#7",
          "midi": 102,
          "time": 47.63150750000013,
          "velocity": 0.7874015748031497,
          "duration": 0.06469288541666884
        },
        {
          "name": "C#4",
          "midi": 61,
          "time": 48.15782250000014,
          "velocity": 0.7874015748031497,
          "duration": 0.06469288541666884
        },
        {
          "name": "F#4",
          "midi": 66,
          "time": 48.15782250000014,
          "velocity": 0.7874015748031497,
          "duration": 0.06469288541666884
        },
        {
          "name": "D5",
          "midi": 74,
          "time": 48.15782250000014,
          "velocity": 0.7874015748031497,
          "duration": 0.06469288541666884
        },
        {
          "name": "F#5",
          "midi": 78,
          "time": 48.15782250000014,
          "velocity": 0.7874015748031497,
          "duration": 0.06469288541666884
        },
        {
          "name": "D#6",
          "midi": 87,
          "time": 48.15782250000014,
          "velocity": 0.7874015748031497,
          "duration": 0.06469288541666884
        },
        {
          "name": "F#6",
          "midi": 90,
          "time": 48.15782250000014,
          "velocity": 0.7874015748031497,
          "duration": 0.06469288541666884
        },
        {
          "name": "E7",
          "midi": 100,
          "time": 48.15782250000014,
          "velocity": 0.7874015748031497,
          "duration": 0.06469288541666884
        },
        {
          "name": "F#7",
          "midi": 102,
          "time": 48.15782250000014,
          "velocity": 0.7874015748031497,
          "duration": 0.06469288541666884
        },
        {
          "name": "C4",
          "midi": 60,
          "time": 48.68413750000014,
          "velocity": 0.7874015748031497,
          "duration": 0.06469288541666884
        },
        {
          "name": "F#4",
          "midi": 66,
          "time": 48.68413750000014,
          "velocity": 0.7874015748031497,
          "duration": 0.06469288541666884
        },
        {
          "name": "C5",
          "midi": 72,
          "time": 48.68413750000014,
          "velocity": 0.7874015748031497,
          "duration": 0.06469288541666884
        },
        {
          "name": "F#5",
          "midi": 78,
          "time": 48.68413750000014,
          "velocity": 0.7874015748031497,
          "duration": 0.06469288541666884
        },
        {
          "name": "C6",
          "midi": 84,
          "time": 48.68413750000014,
          "velocity": 0.7874015748031497,
          "duration": 0.06469288541666884
        },
        {
          "name": "F#6",
          "midi": 90,
          "time": 48.68413750000014,
          "velocity": 0.7874015748031497,
          "duration": 0.06469288541666884
        },
        {
          "name": "C7",
          "midi": 96,
          "time": 48.68413750000014,
          "velocity": 0.7874015748031497,
          "duration": 0.06469288541666884
        },
        {
          "name": "F#7",
          "midi": 102,
          "time": 48.68413750000014,
          "velocity": 0.7874015748031497,
          "duration": 0.06469288541666884
        },
        {
          "name": "C#4",
          "midi": 61,
          "time": 48.947295000000146,
          "velocity": 0.7874015748031497,
          "duration": 0.06469288541666884
        },
        {
          "name": "F#4",
          "midi": 66,
          "time": 48.947295000000146,
          "velocity": 0.7874015748031497,
          "duration": 0.06469288541666884
        },
        {
          "name": "D5",
          "midi": 74,
          "time": 48.947295000000146,
          "velocity": 0.7874015748031497,
          "duration": 0.06469288541666884
        },
        {
          "name": "F#5",
          "midi": 78,
          "time": 48.947295000000146,
          "velocity": 0.7874015748031497,
          "duration": 0.06469288541666884
        },
        {
          "name": "D#6",
          "midi": 87,
          "time": 48.947295000000146,
          "velocity": 0.7874015748031497,
          "duration": 0.06469288541666884
        },
        {
          "name": "F#6",
          "midi": 90,
          "time": 48.947295000000146,
          "velocity": 0.7874015748031497,
          "duration": 0.06469288541666884
        },
        {
          "name": "E7",
          "midi": 100,
          "time": 48.947295000000146,
          "velocity": 0.7874015748031497,
          "duration": 0.06469288541666884
        },
        {
          "name": "F#7",
          "midi": 102,
          "time": 48.947295000000146,
          "velocity": 0.7874015748031497,
          "duration": 0.06469288541666884
        },
        {
          "name": "C#4",
          "midi": 61,
          "time": 49.47361000000015,
          "velocity": 0.7874015748031497,
          "duration": 0.06578937500000137
        },
        {
          "name": "F#4",
          "midi": 66,
          "time": 49.47361000000015,
          "velocity": 0.7874015748031497,
          "duration": 0.06578937500000137
        },
        {
          "name": "D5",
          "midi": 74,
          "time": 49.47361000000015,
          "velocity": 0.7874015748031497,
          "duration": 0.06578937500000137
        },
        {
          "name": "F#5",
          "midi": 78,
          "time": 49.47361000000015,
          "velocity": 0.7874015748031497,
          "duration": 0.06578937500000137
        },
        {
          "name": "D#6",
          "midi": 87,
          "time": 49.47361000000015,
          "velocity": 0.7874015748031497,
          "duration": 0.06578937500000137
        },
        {
          "name": "F#6",
          "midi": 90,
          "time": 49.47361000000015,
          "velocity": 0.7874015748031497,
          "duration": 0.06578937500000137
        },
        {
          "name": "E7",
          "midi": 100,
          "time": 49.47361000000015,
          "velocity": 0.7874015748031497,
          "duration": 0.06578937500000137
        },
        {
          "name": "F#7",
          "midi": 102,
          "time": 49.47361000000015,
          "velocity": 0.7874015748031497,
          "duration": 0.06578937500000137
        },
        {
          "name": "C#4",
          "midi": 61,
          "time": 49.999925000000154,
          "velocity": 0.7874015748031497,
          "duration": 0.06469288541666884
        },
        {
          "name": "F#4",
          "midi": 66,
          "time": 49.999925000000154,
          "velocity": 0.7874015748031497,
          "duration": 0.06469288541666884
        },
        {
          "name": "D5",
          "midi": 74,
          "time": 49.999925000000154,
          "velocity": 0.7874015748031497,
          "duration": 0.06469288541666884
        },
        {
          "name": "F#5",
          "midi": 78,
          "time": 49.999925000000154,
          "velocity": 0.7874015748031497,
          "duration": 0.06469288541666884
        },
        {
          "name": "D#6",
          "midi": 87,
          "time": 49.999925000000154,
          "velocity": 0.7874015748031497,
          "duration": 0.06469288541666884
        },
        {
          "name": "F#6",
          "midi": 90,
          "time": 49.999925000000154,
          "velocity": 0.7874015748031497,
          "duration": 0.06469288541666884
        },
        {
          "name": "E7",
          "midi": 100,
          "time": 49.999925000000154,
          "velocity": 0.7874015748031497,
          "duration": 0.06469288541666884
        },
        {
          "name": "F#7",
          "midi": 102,
          "time": 49.999925000000154,
          "velocity": 0.7874015748031497,
          "duration": 0.06469288541666884
        },
        {
          "name": "C#4",
          "midi": 61,
          "time": 50.52624000000016,
          "velocity": 0.7874015748031497,
          "duration": 0.06469288541666884
        },
        {
          "name": "F#4",
          "midi": 66,
          "time": 50.52624000000016,
          "velocity": 0.7874015748031497,
          "duration": 0.06469288541666884
        },
        {
          "name": "D5",
          "midi": 74,
          "time": 50.52624000000016,
          "velocity": 0.7874015748031497,
          "duration": 0.06469288541666884
        },
        {
          "name": "F#5",
          "midi": 78,
          "time": 50.52624000000016,
          "velocity": 0.7874015748031497,
          "duration": 0.06469288541666884
        },
        {
          "name": "D#6",
          "midi": 87,
          "time": 50.52624000000016,
          "velocity": 0.7874015748031497,
          "duration": 0.06469288541666884
        },
        {
          "name": "F#6",
          "midi": 90,
          "time": 50.52624000000016,
          "velocity": 0.7874015748031497,
          "duration": 0.06469288541666884
        },
        {
          "name": "E7",
          "midi": 100,
          "time": 50.52624000000016,
          "velocity": 0.7874015748031497,
          "duration": 0.06469288541666884
        },
        {
          "name": "F#7",
          "midi": 102,
          "time": 50.52624000000016,
          "velocity": 0.7874015748031497,
          "duration": 0.06469288541666884
        },
        {
          "name": "C4",
          "midi": 60,
          "time": 51.05255500000016,
          "velocity": 0.7874015748031497,
          "duration": 0.06469288541666884
        },
        {
          "name": "F#4",
          "midi": 66,
          "time": 51.05255500000016,
          "velocity": 0.7874015748031497,
          "duration": 0.06469288541666884
        },
        {
          "name": "C5",
          "midi": 72,
          "time": 51.05255500000016,
          "velocity": 0.7874015748031497,
          "duration": 0.06469288541666884
        },
        {
          "name": "F#5",
          "midi": 78,
          "time": 51.05255500000016,
          "velocity": 0.7874015748031497,
          "duration": 0.06469288541666884
        },
        {
          "name": "C6",
          "midi": 84,
          "time": 51.05255500000016,
          "velocity": 0.7874015748031497,
          "duration": 0.06469288541666884
        },
        {
          "name": "F#6",
          "midi": 90,
          "time": 51.05255500000016,
          "velocity": 0.7874015748031497,
          "duration": 0.06469288541666884
        },
        {
          "name": "C7",
          "midi": 96,
          "time": 51.05255500000016,
          "velocity": 0.7874015748031497,
          "duration": 0.06469288541666884
        },
        {
          "name": "F#7",
          "midi": 102,
          "time": 51.05255500000016,
          "velocity": 0.7874015748031497,
          "duration": 0.06469288541666884
        },
        {
          "name": "C6",
          "midi": 84,
          "time": 51.3168089895835,
          "velocity": 0.7874015748031497,
          "duration": 0.06469288541666884
        },
        {
          "name": "F#6",
          "midi": 90,
          "time": 51.3168089895835,
          "velocity": 0.7874015748031497,
          "duration": 0.06469288541666884
        },
        {
          "name": "C7",
          "midi": 96,
          "time": 51.3168089895835,
          "velocity": 0.7874015748031497,
          "duration": 0.06469288541666884
        },
        {
          "name": "F#7",
          "midi": 102,
          "time": 51.3168089895835,
          "velocity": 0.7874015748031497,
          "duration": 0.06469288541666884
        },
        {
          "name": "C#4",
          "midi": 61,
          "time": 51.578870000000165,
          "velocity": 0.7874015748031497,
          "duration": 0.06469288541666884
        },
        {
          "name": "F#4",
          "midi": 66,
          "time": 51.578870000000165,
          "velocity": 0.7874015748031497,
          "duration": 0.06469288541666884
        },
        {
          "name": "D5",
          "midi": 74,
          "time": 51.578870000000165,
          "velocity": 0.7874015748031497,
          "duration": 0.06469288541666884
        },
        {
          "name": "F#5",
          "midi": 78,
          "time": 51.578870000000165,
          "velocity": 0.7874015748031497,
          "duration": 0.06469288541666884
        },
        {
          "name": "D#6",
          "midi": 87,
          "time": 51.578870000000165,
          "velocity": 0.7874015748031497,
          "duration": 0.06469288541666884
        },
        {
          "name": "F#6",
          "midi": 90,
          "time": 51.578870000000165,
          "velocity": 0.7874015748031497,
          "duration": 0.06469288541666884
        },
        {
          "name": "E7",
          "midi": 100,
          "time": 51.578870000000165,
          "velocity": 0.7874015748031497,
          "duration": 0.06469288541666884
        },
        {
          "name": "F#7",
          "midi": 102,
          "time": 51.578870000000165,
          "velocity": 0.7874015748031497,
          "duration": 0.06469288541666884
        },
        {
          "name": "C4",
          "midi": 60,
          "time": 52.10518500000017,
          "velocity": 0.7874015748031497,
          "duration": 0.06469288541666884
        },
        {
          "name": "F#4",
          "midi": 66,
          "time": 52.10518500000017,
          "velocity": 0.7874015748031497,
          "duration": 0.06469288541666884
        },
        {
          "name": "C5",
          "midi": 72,
          "time": 52.10518500000017,
          "velocity": 0.7874015748031497,
          "duration": 0.06469288541666884
        },
        {
          "name": "F#5",
          "midi": 78,
          "time": 52.10518500000017,
          "velocity": 0.7874015748031497,
          "duration": 0.06469288541666884
        },
        {
          "name": "C6",
          "midi": 84,
          "time": 52.10518500000017,
          "velocity": 0.7874015748031497,
          "duration": 0.06469288541666884
        },
        {
          "name": "F#6",
          "midi": 90,
          "time": 52.10518500000017,
          "velocity": 0.7874015748031497,
          "duration": 0.06469288541666884
        },
        {
          "name": "C7",
          "midi": 96,
          "time": 52.10518500000017,
          "velocity": 0.7874015748031497,
          "duration": 0.06469288541666884
        },
        {
          "name": "F#7",
          "midi": 102,
          "time": 52.10518500000017,
          "velocity": 0.7874015748031497,
          "duration": 0.06469288541666884
        },
        {
          "name": "C#4",
          "midi": 61,
          "time": 52.367246010416835,
          "velocity": 0.7874015748031497,
          "duration": 0.06578937500000137
        },
        {
          "name": "F#4",
          "midi": 66,
          "time": 52.367246010416835,
          "velocity": 0.7874015748031497,
          "duration": 0.06578937500000137
        },
        {
          "name": "D5",
          "midi": 74,
          "time": 52.367246010416835,
          "velocity": 0.7874015748031497,
          "duration": 0.06578937500000137
        },
        {
          "name": "F#5",
          "midi": 78,
          "time": 52.367246010416835,
          "velocity": 0.7874015748031497,
          "duration": 0.06578937500000137
        },
        {
          "name": "D#6",
          "midi": 87,
          "time": 52.367246010416835,
          "velocity": 0.7874015748031497,
          "duration": 0.06578937500000137
        },
        {
          "name": "F#6",
          "midi": 90,
          "time": 52.367246010416835,
          "velocity": 0.7874015748031497,
          "duration": 0.06578937500000137
        },
        {
          "name": "E7",
          "midi": 100,
          "time": 52.367246010416835,
          "velocity": 0.7874015748031497,
          "duration": 0.06578937500000137
        },
        {
          "name": "F#7",
          "midi": 102,
          "time": 52.367246010416835,
          "velocity": 0.7874015748031497,
          "duration": 0.06578937500000137
        },
        {
          "name": "C#4",
          "midi": 61,
          "time": 52.89465750000017,
          "velocity": 0.7874015748031497,
          "duration": 0.06469288541666884
        },
        {
          "name": "F#4",
          "midi": 66,
          "time": 52.89465750000017,
          "velocity": 0.7874015748031497,
          "duration": 0.06469288541666884
        },
        {
          "name": "D5",
          "midi": 74,
          "time": 52.89465750000017,
          "velocity": 0.7874015748031497,
          "duration": 0.06469288541666884
        },
        {
          "name": "F#5",
          "midi": 78,
          "time": 52.89465750000017,
          "velocity": 0.7874015748031497,
          "duration": 0.06469288541666884
        },
        {
          "name": "D#6",
          "midi": 87,
          "time": 52.89465750000017,
          "velocity": 0.7874015748031497,
          "duration": 0.06469288541666884
        },
        {
          "name": "F#6",
          "midi": 90,
          "time": 52.89465750000017,
          "velocity": 0.7874015748031497,
          "duration": 0.06469288541666884
        },
        {
          "name": "E7",
          "midi": 100,
          "time": 52.89465750000017,
          "velocity": 0.7874015748031497,
          "duration": 0.06469288541666884
        },
        {
          "name": "F#7",
          "midi": 102,
          "time": 52.89465750000017,
          "velocity": 0.7874015748031497,
          "duration": 0.06469288541666884
        },
        {
          "name": "C#4",
          "midi": 61,
          "time": 53.42206898958351,
          "velocity": 0.7874015748031497,
          "duration": 0.06469288541666884
        },
        {
          "name": "F#4",
          "midi": 66,
          "time": 53.42206898958351,
          "velocity": 0.7874015748031497,
          "duration": 0.06469288541666884
        },
        {
          "name": "D5",
          "midi": 74,
          "time": 53.42206898958351,
          "velocity": 0.7874015748031497,
          "duration": 0.06469288541666884
        },
        {
          "name": "F#5",
          "midi": 78,
          "time": 53.42206898958351,
          "velocity": 0.7874015748031497,
          "duration": 0.06469288541666884
        },
        {
          "name": "D#6",
          "midi": 87,
          "time": 53.42206898958351,
          "velocity": 0.7874015748031497,
          "duration": 0.06469288541666884
        },
        {
          "name": "F#6",
          "midi": 90,
          "time": 53.42206898958351,
          "velocity": 0.7874015748031497,
          "duration": 0.06469288541666884
        },
        {
          "name": "E7",
          "midi": 100,
          "time": 53.42206898958351,
          "velocity": 0.7874015748031497,
          "duration": 0.06469288541666884
        },
        {
          "name": "F#7",
          "midi": 102,
          "time": 53.42206898958351,
          "velocity": 0.7874015748031497,
          "duration": 0.06469288541666884
        },
        {
          "name": "C4",
          "midi": 60,
          "time": 53.94728750000018,
          "velocity": 0.7874015748031497,
          "duration": 0.06469288541666884
        },
        {
          "name": "F#4",
          "midi": 66,
          "time": 53.94728750000018,
          "velocity": 0.7874015748031497,
          "duration": 0.06469288541666884
        },
        {
          "name": "C5",
          "midi": 72,
          "time": 53.94728750000018,
          "velocity": 0.7874015748031497,
          "duration": 0.06469288541666884
        },
        {
          "name": "F#5",
          "midi": 78,
          "time": 53.94728750000018,
          "velocity": 0.7874015748031497,
          "duration": 0.06469288541666884
        },
        {
          "name": "C6",
          "midi": 84,
          "time": 53.94728750000018,
          "velocity": 0.7874015748031497,
          "duration": 0.06469288541666884
        },
        {
          "name": "F#6",
          "midi": 90,
          "time": 53.94728750000018,
          "velocity": 0.7874015748031497,
          "duration": 0.06469288541666884
        },
        {
          "name": "C7",
          "midi": 96,
          "time": 53.94728750000018,
          "velocity": 0.7874015748031497,
          "duration": 0.06469288541666884
        },
        {
          "name": "F#7",
          "midi": 102,
          "time": 53.94728750000018,
          "velocity": 0.7874015748031497,
          "duration": 0.06469288541666884
        },
        {
          "name": "C#4",
          "midi": 61,
          "time": 54.210445000000185,
          "velocity": 0.7874015748031497,
          "duration": 0.06469288541666884
        },
        {
          "name": "F#4",
          "midi": 66,
          "time": 54.210445000000185,
          "velocity": 0.7874015748031497,
          "duration": 0.06469288541666884
        },
        {
          "name": "D5",
          "midi": 74,
          "time": 54.210445000000185,
          "velocity": 0.7874015748031497,
          "duration": 0.06469288541666884
        },
        {
          "name": "F#5",
          "midi": 78,
          "time": 54.210445000000185,
          "velocity": 0.7874015748031497,
          "duration": 0.06469288541666884
        },
        {
          "name": "D#6",
          "midi": 87,
          "time": 54.210445000000185,
          "velocity": 0.7874015748031497,
          "duration": 0.06469288541666884
        },
        {
          "name": "F#6",
          "midi": 90,
          "time": 54.210445000000185,
          "velocity": 0.7874015748031497,
          "duration": 0.06469288541666884
        },
        {
          "name": "E7",
          "midi": 100,
          "time": 54.210445000000185,
          "velocity": 0.7874015748031497,
          "duration": 0.06469288541666884
        },
        {
          "name": "F#7",
          "midi": 102,
          "time": 54.210445000000185,
          "velocity": 0.7874015748031497,
          "duration": 0.06469288541666884
        },
        {
          "name": "C#4",
          "midi": 61,
          "time": 54.73676000000019,
          "velocity": 0.7874015748031497,
          "duration": 0.06469288541666884
        },
        {
          "name": "F#4",
          "midi": 66,
          "time": 54.73676000000019,
          "velocity": 0.7874015748031497,
          "duration": 0.06469288541666884
        },
        {
          "name": "D5",
          "midi": 74,
          "time": 54.73676000000019,
          "velocity": 0.7874015748031497,
          "duration": 0.06469288541666884
        },
        {
          "name": "F#5",
          "midi": 78,
          "time": 54.73676000000019,
          "velocity": 0.7874015748031497,
          "duration": 0.06469288541666884
        },
        {
          "name": "D#6",
          "midi": 87,
          "time": 54.73676000000019,
          "velocity": 0.7874015748031497,
          "duration": 0.06469288541666884
        },
        {
          "name": "F#6",
          "midi": 90,
          "time": 54.73676000000019,
          "velocity": 0.7874015748031497,
          "duration": 0.06469288541666884
        },
        {
          "name": "E7",
          "midi": 100,
          "time": 54.73676000000019,
          "velocity": 0.7874015748031497,
          "duration": 0.06469288541666884
        },
        {
          "name": "F#7",
          "midi": 102,
          "time": 54.73676000000019,
          "velocity": 0.7874015748031497,
          "duration": 0.06469288541666884
        },
        {
          "name": "C#4",
          "midi": 61,
          "time": 55.26307500000019,
          "velocity": 0.7874015748031497,
          "duration": 0.06578937500000137
        },
        {
          "name": "F#4",
          "midi": 66,
          "time": 55.26307500000019,
          "velocity": 0.7874015748031497,
          "duration": 0.06578937500000137
        },
        {
          "name": "D5",
          "midi": 74,
          "time": 55.26307500000019,
          "velocity": 0.7874015748031497,
          "duration": 0.06578937500000137
        },
        {
          "name": "F#5",
          "midi": 78,
          "time": 55.26307500000019,
          "velocity": 0.7874015748031497,
          "duration": 0.06578937500000137
        },
        {
          "name": "D#6",
          "midi": 87,
          "time": 55.26307500000019,
          "velocity": 0.7874015748031497,
          "duration": 0.06578937500000137
        },
        {
          "name": "F#6",
          "midi": 90,
          "time": 55.26307500000019,
          "velocity": 0.7874015748031497,
          "duration": 0.06578937500000137
        },
        {
          "name": "E7",
          "midi": 100,
          "time": 55.26307500000019,
          "velocity": 0.7874015748031497,
          "duration": 0.06578937500000137
        },
        {
          "name": "F#7",
          "midi": 102,
          "time": 55.26307500000019,
          "velocity": 0.7874015748031497,
          "duration": 0.06578937500000137
        },
        {
          "name": "C#4",
          "midi": 61,
          "time": 55.789390000000196,
          "velocity": 0.7874015748031497,
          "duration": 0.06359639583333632
        },
        {
          "name": "F#4",
          "midi": 66,
          "time": 55.789390000000196,
          "velocity": 0.7874015748031497,
          "duration": 0.06359639583333632
        },
        {
          "name": "D5",
          "midi": 74,
          "time": 55.789390000000196,
          "velocity": 0.7874015748031497,
          "duration": 0.06359639583333632
        },
        {
          "name": "F#5",
          "midi": 78,
          "time": 55.789390000000196,
          "velocity": 0.7874015748031497,
          "duration": 0.06359639583333632
        },
        {
          "name": "D#6",
          "midi": 87,
          "time": 55.789390000000196,
          "velocity": 0.7874015748031497,
          "duration": 0.06359639583333632
        },
        {
          "name": "F#6",
          "midi": 90,
          "time": 55.789390000000196,
          "velocity": 0.7874015748031497,
          "duration": 0.06359639583333632
        },
        {
          "name": "E7",
          "midi": 100,
          "time": 55.789390000000196,
          "velocity": 0.7874015748031497,
          "duration": 0.06359639583333632
        },
        {
          "name": "F#7",
          "midi": 102,
          "time": 55.789390000000196,
          "velocity": 0.7874015748031497,
          "duration": 0.06359639583333632
        },
        {
          "name": "C4",
          "midi": 60,
          "time": 56.3157050000002,
          "velocity": 0.7874015748031497,
          "duration": 0.06469288541666884
        },
        {
          "name": "F#4",
          "midi": 66,
          "time": 56.3157050000002,
          "velocity": 0.7874015748031497,
          "duration": 0.06469288541666884
        },
        {
          "name": "C5",
          "midi": 72,
          "time": 56.3157050000002,
          "velocity": 0.7874015748031497,
          "duration": 0.06469288541666884
        },
        {
          "name": "F#5",
          "midi": 78,
          "time": 56.3157050000002,
          "velocity": 0.7874015748031497,
          "duration": 0.06469288541666884
        },
        {
          "name": "C6",
          "midi": 84,
          "time": 56.3157050000002,
          "velocity": 0.7874015748031497,
          "duration": 0.06469288541666884
        },
        {
          "name": "F#6",
          "midi": 90,
          "time": 56.3157050000002,
          "velocity": 0.7874015748031497,
          "duration": 0.06469288541666884
        },
        {
          "name": "C7",
          "midi": 96,
          "time": 56.3157050000002,
          "velocity": 0.7874015748031497,
          "duration": 0.06469288541666884
        },
        {
          "name": "F#7",
          "midi": 102,
          "time": 56.3157050000002,
          "velocity": 0.7874015748031497,
          "duration": 0.06469288541666884
        },
        {
          "name": "C6",
          "midi": 84,
          "time": 56.57995898958354,
          "velocity": 0.7874015748031497,
          "duration": 0.06469288541666884
        },
        {
          "name": "F#6",
          "midi": 90,
          "time": 56.57995898958354,
          "velocity": 0.7874015748031497,
          "duration": 0.06469288541666884
        },
        {
          "name": "C7",
          "midi": 96,
          "time": 56.57995898958354,
          "velocity": 0.7874015748031497,
          "duration": 0.06469288541666884
        },
        {
          "name": "F#7",
          "midi": 102,
          "time": 56.57995898958354,
          "velocity": 0.7874015748031497,
          "duration": 0.06469288541666884
        },
        {
          "name": "C#4",
          "midi": 61,
          "time": 56.842020000000204,
          "velocity": 0.7874015748031497,
          "duration": 0.06469288541666884
        },
        {
          "name": "F#4",
          "midi": 66,
          "time": 56.842020000000204,
          "velocity": 0.7874015748031497,
          "duration": 0.06469288541666884
        },
        {
          "name": "D5",
          "midi": 74,
          "time": 56.842020000000204,
          "velocity": 0.7874015748031497,
          "duration": 0.06469288541666884
        },
        {
          "name": "F#5",
          "midi": 78,
          "time": 56.842020000000204,
          "velocity": 0.7874015748031497,
          "duration": 0.06469288541666884
        },
        {
          "name": "D#6",
          "midi": 87,
          "time": 56.842020000000204,
          "velocity": 0.7874015748031497,
          "duration": 0.06469288541666884
        },
        {
          "name": "F#6",
          "midi": 90,
          "time": 56.842020000000204,
          "velocity": 0.7874015748031497,
          "duration": 0.06469288541666884
        },
        {
          "name": "E7",
          "midi": 100,
          "time": 56.842020000000204,
          "velocity": 0.7874015748031497,
          "duration": 0.06469288541666884
        },
        {
          "name": "F#7",
          "midi": 102,
          "time": 56.842020000000204,
          "velocity": 0.7874015748031497,
          "duration": 0.06469288541666884
        },
        {
          "name": "C#4",
          "midi": 61,
          "time": 57.621624093750206,
          "velocity": 0.7874015748031497,
          "duration": 0.06798235416666643
        },
        {
          "name": "F#4",
          "midi": 66,
          "time": 57.621624093750206,
          "velocity": 0.7874015748031497,
          "duration": 0.06798235416666643
        },
        {
          "name": "D5",
          "midi": 74,
          "time": 57.621624093750206,
          "velocity": 0.7874015748031497,
          "duration": 0.06798235416666643
        },
        {
          "name": "F#5",
          "midi": 78,
          "time": 57.621624093750206,
          "velocity": 0.7874015748031497,
          "duration": 0.06798235416666643
        },
        {
          "name": "D#6",
          "midi": 87,
          "time": 57.621624093750206,
          "velocity": 0.7874015748031497,
          "duration": 0.06798235416666643
        },
        {
          "name": "F#6",
          "midi": 90,
          "time": 57.621624093750206,
          "velocity": 0.7874015748031497,
          "duration": 0.06798235416666643
        },
        {
          "name": "E7",
          "midi": 100,
          "time": 57.621624093750206,
          "velocity": 0.7874015748031497,
          "duration": 0.06798235416666643
        },
        {
          "name": "F#7",
          "midi": 102,
          "time": 57.621624093750206,
          "velocity": 0.7874015748031497,
          "duration": 0.06798235416666643
        },
        {
          "name": "C#4",
          "midi": 61,
          "time": 58.1578075000002,
          "velocity": 0.7874015748031497,
          "duration": 0.06469288541666884
        },
        {
          "name": "F#4",
          "midi": 66,
          "time": 58.1578075000002,
          "velocity": 0.7874015748031497,
          "duration": 0.06469288541666884
        },
        {
          "name": "D5",
          "midi": 74,
          "time": 58.1578075000002,
          "velocity": 0.7874015748031497,
          "duration": 0.06469288541666884
        },
        {
          "name": "F#5",
          "midi": 78,
          "time": 58.1578075000002,
          "velocity": 0.7874015748031497,
          "duration": 0.06469288541666884
        },
        {
          "name": "D#6",
          "midi": 87,
          "time": 58.1578075000002,
          "velocity": 0.7874015748031497,
          "duration": 0.06469288541666884
        },
        {
          "name": "F#6",
          "midi": 90,
          "time": 58.1578075000002,
          "velocity": 0.7874015748031497,
          "duration": 0.06469288541666884
        },
        {
          "name": "E7",
          "midi": 100,
          "time": 58.1578075000002,
          "velocity": 0.7874015748031497,
          "duration": 0.06469288541666884
        },
        {
          "name": "F#7",
          "midi": 102,
          "time": 58.1578075000002,
          "velocity": 0.7874015748031497,
          "duration": 0.06469288541666884
        },
        {
          "name": "C#4",
          "midi": 61,
          "time": 58.683026010416874,
          "velocity": 0.7874015748031497,
          "duration": 0.06469288541666884
        },
        {
          "name": "F#4",
          "midi": 66,
          "time": 58.683026010416874,
          "velocity": 0.7874015748031497,
          "duration": 0.06469288541666884
        },
        {
          "name": "D5",
          "midi": 74,
          "time": 58.683026010416874,
          "velocity": 0.7874015748031497,
          "duration": 0.06469288541666884
        },
        {
          "name": "F#5",
          "midi": 78,
          "time": 58.683026010416874,
          "velocity": 0.7874015748031497,
          "duration": 0.06469288541666884
        },
        {
          "name": "D#6",
          "midi": 87,
          "time": 58.683026010416874,
          "velocity": 0.7874015748031497,
          "duration": 0.06469288541666884
        },
        {
          "name": "F#6",
          "midi": 90,
          "time": 58.683026010416874,
          "velocity": 0.7874015748031497,
          "duration": 0.06469288541666884
        },
        {
          "name": "E7",
          "midi": 100,
          "time": 58.683026010416874,
          "velocity": 0.7874015748031497,
          "duration": 0.06469288541666884
        },
        {
          "name": "F#7",
          "midi": 102,
          "time": 58.683026010416874,
          "velocity": 0.7874015748031497,
          "duration": 0.06469288541666884
        },
        {
          "name": "C#4",
          "midi": 61,
          "time": 59.47359500000021,
          "velocity": 0.7874015748031497,
          "duration": 0.06469288541666884
        },
        {
          "name": "F#4",
          "midi": 66,
          "time": 59.47359500000021,
          "velocity": 0.7874015748031497,
          "duration": 0.06469288541666884
        },
        {
          "name": "D5",
          "midi": 74,
          "time": 59.47359500000021,
          "velocity": 0.7874015748031497,
          "duration": 0.06469288541666884
        },
        {
          "name": "F#5",
          "midi": 78,
          "time": 59.47359500000021,
          "velocity": 0.7874015748031497,
          "duration": 0.06469288541666884
        },
        {
          "name": "D#6",
          "midi": 87,
          "time": 59.47359500000021,
          "velocity": 0.7874015748031497,
          "duration": 0.06469288541666884
        },
        {
          "name": "F#6",
          "midi": 90,
          "time": 59.47359500000021,
          "velocity": 0.7874015748031497,
          "duration": 0.06469288541666884
        },
        {
          "name": "E7",
          "midi": 100,
          "time": 59.47359500000021,
          "velocity": 0.7874015748031497,
          "duration": 0.06469288541666884
        },
        {
          "name": "F#7",
          "midi": 102,
          "time": 59.47359500000021,
          "velocity": 0.7874015748031497,
          "duration": 0.06469288541666884
        },
        {
          "name": "C#4",
          "midi": 61,
          "time": 59.99991000000021,
          "velocity": 0.7874015748031497,
          "duration": 0.06469288541666884
        },
        {
          "name": "F#4",
          "midi": 66,
          "time": 59.99991000000021,
          "velocity": 0.7874015748031497,
          "duration": 0.06469288541666884
        },
        {
          "name": "D5",
          "midi": 74,
          "time": 59.99991000000021,
          "velocity": 0.7874015748031497,
          "duration": 0.06469288541666884
        },
        {
          "name": "F#5",
          "midi": 78,
          "time": 59.99991000000021,
          "velocity": 0.7874015748031497,
          "duration": 0.06469288541666884
        },
        {
          "name": "D#6",
          "midi": 87,
          "time": 59.99991000000021,
          "velocity": 0.7874015748031497,
          "duration": 0.06469288541666884
        },
        {
          "name": "F#6",
          "midi": 90,
          "time": 59.99991000000021,
          "velocity": 0.7874015748031497,
          "duration": 0.06469288541666884
        },
        {
          "name": "E7",
          "midi": 100,
          "time": 59.99991000000021,
          "velocity": 0.7874015748031497,
          "duration": 0.06469288541666884
        },
        {
          "name": "F#7",
          "midi": 102,
          "time": 59.99991000000021,
          "velocity": 0.7874015748031497,
          "duration": 0.06469288541666884
        },
        {
          "name": "C#4",
          "midi": 61,
          "time": 60.52622500000022,
          "velocity": 0.7874015748031497,
          "duration": 0.06469288541666884
        },
        {
          "name": "F#4",
          "midi": 66,
          "time": 60.52622500000022,
          "velocity": 0.7874015748031497,
          "duration": 0.06469288541666884
        },
        {
          "name": "D5",
          "midi": 74,
          "time": 60.52622500000022,
          "velocity": 0.7874015748031497,
          "duration": 0.06469288541666884
        },
        {
          "name": "F#5",
          "midi": 78,
          "time": 60.52622500000022,
          "velocity": 0.7874015748031497,
          "duration": 0.06469288541666884
        },
        {
          "name": "D#6",
          "midi": 87,
          "time": 60.52622500000022,
          "velocity": 0.7874015748031497,
          "duration": 0.06469288541666884
        },
        {
          "name": "F#6",
          "midi": 90,
          "time": 60.52622500000022,
          "velocity": 0.7874015748031497,
          "duration": 0.06469288541666884
        },
        {
          "name": "E7",
          "midi": 100,
          "time": 60.52622500000022,
          "velocity": 0.7874015748031497,
          "duration": 0.06469288541666884
        },
        {
          "name": "F#7",
          "midi": 102,
          "time": 60.52622500000022,
          "velocity": 0.7874015748031497,
          "duration": 0.06469288541666884
        },
        {
          "name": "C#4",
          "midi": 61,
          "time": 61.05254000000022,
          "velocity": 0.7874015748031497,
          "duration": 0.06469288541666884
        },
        {
          "name": "F#4",
          "midi": 66,
          "time": 61.05254000000022,
          "velocity": 0.7874015748031497,
          "duration": 0.06469288541666884
        },
        {
          "name": "D5",
          "midi": 74,
          "time": 61.05254000000022,
          "velocity": 0.7874015748031497,
          "duration": 0.06469288541666884
        },
        {
          "name": "F#5",
          "midi": 78,
          "time": 61.05254000000022,
          "velocity": 0.7874015748031497,
          "duration": 0.06469288541666884
        },
        {
          "name": "D#6",
          "midi": 87,
          "time": 61.05254000000022,
          "velocity": 0.7874015748031497,
          "duration": 0.06469288541666884
        },
        {
          "name": "F#6",
          "midi": 90,
          "time": 61.05254000000022,
          "velocity": 0.7874015748031497,
          "duration": 0.06469288541666884
        },
        {
          "name": "E7",
          "midi": 100,
          "time": 61.05254000000022,
          "velocity": 0.7874015748031497,
          "duration": 0.06469288541666884
        },
        {
          "name": "F#7",
          "midi": 102,
          "time": 61.05254000000022,
          "velocity": 0.7874015748031497,
          "duration": 0.06469288541666884
        },
        {
          "name": "C4",
          "midi": 60,
          "time": 63.15780000000022,
          "velocity": 0.7874015748031497,
          "duration": 0.06578937500000137
        },
        {
          "name": "F#4",
          "midi": 66,
          "time": 63.15780000000022,
          "velocity": 0.7874015748031497,
          "duration": 0.06578937500000137
        },
        {
          "name": "C5",
          "midi": 72,
          "time": 63.15780000000022,
          "velocity": 0.7874015748031497,
          "duration": 0.06578937500000137
        },
        {
          "name": "F#5",
          "midi": 78,
          "time": 63.15780000000022,
          "velocity": 0.7874015748031497,
          "duration": 0.06578937500000137
        },
        {
          "name": "C6",
          "midi": 84,
          "time": 63.15780000000022,
          "velocity": 0.7874015748031497,
          "duration": 0.06578937500000137
        },
        {
          "name": "F#6",
          "midi": 90,
          "time": 63.15780000000022,
          "velocity": 0.7874015748031497,
          "duration": 0.06578937500000137
        },
        {
          "name": "D7",
          "midi": 98,
          "time": 63.15780000000022,
          "velocity": 0.7874015748031497,
          "duration": 0.06578937500000137
        },
        {
          "name": "F#7",
          "midi": 102,
          "time": 63.15780000000022,
          "velocity": 0.7874015748031497,
          "duration": 0.06578937500000137
        },
        {
          "name": "C#6",
          "midi": 85,
          "time": 63.333238333333554,
          "velocity": 0.7874015748031497,
          "duration": 0.06578937500000137
        },
        {
          "name": "F6",
          "midi": 89,
          "time": 63.333238333333554,
          "velocity": 0.7874015748031497,
          "duration": 0.06578937500000137
        },
        {
          "name": "D#7",
          "midi": 99,
          "time": 63.333238333333554,
          "velocity": 0.7874015748031497,
          "duration": 0.06578937500000137
        },
        {
          "name": "F7",
          "midi": 101,
          "time": 63.333238333333554,
          "velocity": 0.7874015748031497,
          "duration": 0.06578937500000137
        },
        {
          "name": "E7",
          "midi": 100,
          "time": 63.50867666666689,
          "velocity": 0.7874015748031497,
          "duration": 0.06578937500000137
        },
        {
          "name": "F7",
          "midi": 101,
          "time": 63.50867666666689,
          "velocity": 0.7874015748031497,
          "duration": 0.06578937500000137
        },
        {
          "name": "C#4",
          "midi": 61,
          "time": 63.68411500000022,
          "velocity": 0.7874015748031497,
          "duration": 0.06578937500000137
        },
        {
          "name": "F4",
          "midi": 65,
          "time": 63.68411500000022,
          "velocity": 0.7874015748031497,
          "duration": 0.06578937500000137
        },
        {
          "name": "C#5",
          "midi": 73,
          "time": 63.68411500000022,
          "velocity": 0.7874015748031497,
          "duration": 0.06578937500000137
        },
        {
          "name": "F5",
          "midi": 77,
          "time": 63.68411500000022,
          "velocity": 0.7874015748031497,
          "duration": 0.06578937500000137
        },
        {
          "name": "D6",
          "midi": 86,
          "time": 63.68411500000022,
          "velocity": 0.7874015748031497,
          "duration": 0.06578937500000137
        },
        {
          "name": "F6",
          "midi": 89,
          "time": 63.68411500000022,
          "velocity": 0.7874015748031497,
          "duration": 0.06578937500000137
        },
        {
          "name": "C#7",
          "midi": 97,
          "time": 63.68411500000022,
          "velocity": 0.7874015748031497,
          "duration": 0.06578937500000137
        },
        {
          "name": "F7",
          "midi": 101,
          "time": 63.68411500000022,
          "velocity": 0.7874015748031497,
          "duration": 0.06578937500000137
        },
        {
          "name": "D#6",
          "midi": 87,
          "time": 63.86064982291688,
          "velocity": 0.7874015748031497,
          "duration": 0.06578937500000137
        },
        {
          "name": "F6",
          "midi": 89,
          "time": 63.86064982291688,
          "velocity": 0.7874015748031497,
          "duration": 0.06578937500000137
        },
        {
          "name": "D7",
          "midi": 98,
          "time": 63.86064982291688,
          "velocity": 0.7874015748031497,
          "duration": 0.06578937500000137
        },
        {
          "name": "F7",
          "midi": 101,
          "time": 63.86064982291688,
          "velocity": 0.7874015748031497,
          "duration": 0.06578937500000137
        },
        {
          "name": "D#7",
          "midi": 99,
          "time": 64.03499166666688,
          "velocity": 0.7874015748031497,
          "duration": 0.06578937499999427
        },
        {
          "name": "F7",
          "midi": 101,
          "time": 64.03499166666688,
          "velocity": 0.7874015748031497,
          "duration": 0.06578937499999427
        },
        {
          "name": "D4",
          "midi": 62,
          "time": 64.21043000000022,
          "velocity": 0.7874015748031497,
          "duration": 0.06469288541666174
        },
        {
          "name": "F4",
          "midi": 65,
          "time": 64.21043000000022,
          "velocity": 0.7874015748031497,
          "duration": 0.06469288541666174
        },
        {
          "name": "D5",
          "midi": 74,
          "time": 64.21043000000022,
          "velocity": 0.7874015748031497,
          "duration": 0.06469288541666174
        },
        {
          "name": "F5",
          "midi": 77,
          "time": 64.21043000000022,
          "velocity": 0.7874015748031497,
          "duration": 0.06469288541666174
        },
        {
          "name": "C#6",
          "midi": 85,
          "time": 64.21043000000022,
          "velocity": 0.7874015748031497,
          "duration": 0.06469288541666174
        },
        {
          "name": "F6",
          "midi": 89,
          "time": 64.21043000000022,
          "velocity": 0.7874015748031497,
          "duration": 0.06469288541666174
        },
        {
          "name": "C7",
          "midi": 96,
          "time": 64.21043000000022,
          "velocity": 0.7874015748031497,
          "duration": 0.06469288541666174
        },
        {
          "name": "F7",
          "midi": 101,
          "time": 64.21043000000022,
          "velocity": 0.7874015748031497,
          "duration": 0.06469288541666174
        },
        {
          "name": "D6",
          "midi": 86,
          "time": 64.38696482291688,
          "velocity": 0.7874015748031497,
          "duration": 0.06469288541666174
        },
        {
          "name": "F6",
          "midi": 89,
          "time": 64.38696482291688,
          "velocity": 0.7874015748031497,
          "duration": 0.06469288541666174
        },
        {
          "name": "C#7",
          "midi": 97,
          "time": 64.38696482291688,
          "velocity": 0.7874015748031497,
          "duration": 0.06469288541666174
        },
        {
          "name": "F7",
          "midi": 101,
          "time": 64.38696482291688,
          "velocity": 0.7874015748031497,
          "duration": 0.06469288541666174
        },
        {
          "name": "D7",
          "midi": 98,
          "time": 64.56130666666688,
          "velocity": 0.7874015748031497,
          "duration": 0.06469288541666174
        },
        {
          "name": "F7",
          "midi": 101,
          "time": 64.56130666666688,
          "velocity": 0.7874015748031497,
          "duration": 0.06469288541666174
        },
        {
          "name": "D4",
          "midi": 62,
          "time": 64.73674500000021,
          "velocity": 0.7874015748031497,
          "duration": 0.06469288541666174
        },
        {
          "name": "F#4",
          "midi": 66,
          "time": 64.73674500000021,
          "velocity": 0.7874015748031497,
          "duration": 0.06469288541666174
        },
        {
          "name": "D#5",
          "midi": 75,
          "time": 64.73674500000021,
          "velocity": 0.7874015748031497,
          "duration": 0.06469288541666174
        },
        {
          "name": "F5",
          "midi": 77,
          "time": 64.73674500000021,
          "velocity": 0.7874015748031497,
          "duration": 0.06469288541666174
        },
        {
          "name": "D#6",
          "midi": 87,
          "time": 64.73674500000021,
          "velocity": 0.7874015748031497,
          "duration": 0.06469288541666174
        },
        {
          "name": "F6",
          "midi": 89,
          "time": 64.73674500000021,
          "velocity": 0.7874015748031497,
          "duration": 0.06469288541666174
        },
        {
          "name": "D#7",
          "midi": 99,
          "time": 64.73674500000021,
          "velocity": 0.7874015748031497,
          "duration": 0.06469288541666174
        },
        {
          "name": "F7",
          "midi": 101,
          "time": 64.73674500000021,
          "velocity": 0.7874015748031497,
          "duration": 0.06469288541666174
        },
        {
          "name": "E6",
          "midi": 88,
          "time": 64.91218333333354,
          "velocity": 0.7874015748031497,
          "duration": 0.06469288541666174
        },
        {
          "name": "F6",
          "midi": 89,
          "time": 64.91218333333354,
          "velocity": 0.7874015748031497,
          "duration": 0.06469288541666174
        },
        {
          "name": "E7",
          "midi": 100,
          "time": 64.91218333333354,
          "velocity": 0.7874015748031497,
          "duration": 0.06469288541666174
        },
        {
          "name": "F7",
          "midi": 101,
          "time": 64.91218333333354,
          "velocity": 0.7874015748031497,
          "duration": 0.06469288541666174
        },
        {
          "name": "D5",
          "midi": 74,
          "time": 64.9999025000002,
          "velocity": 0.7874015748031497,
          "duration": 0.06469288541666174
        },
        {
          "name": "F5",
          "midi": 77,
          "time": 64.9999025000002,
          "velocity": 0.7874015748031497,
          "duration": 0.06469288541666174
        },
        {
          "name": "D#7",
          "midi": 99,
          "time": 65.08762166666686,
          "velocity": 0.7874015748031497,
          "duration": 0.06469288541667595
        },
        {
          "name": "F7",
          "midi": 101,
          "time": 65.08762166666686,
          "velocity": 0.7874015748031497,
          "duration": 0.06469288541667595
        },
        {
          "name": "C#4",
          "midi": 61,
          "time": 65.0985865625002,
          "velocity": 0.7874015748031497,
          "duration": 0.06469288541667595
        },
        {
          "name": "F4",
          "midi": 65,
          "time": 65.0985865625002,
          "velocity": 0.7874015748031497,
          "duration": 0.06469288541667595
        },
        {
          "name": "C#5",
          "midi": 73,
          "time": 65.26306000000021,
          "velocity": 0.7874015748031497,
          "duration": 0.06469288541666174
        },
        {
          "name": "F5",
          "midi": 77,
          "time": 65.26306000000021,
          "velocity": 0.7874015748031497,
          "duration": 0.06469288541666174
        },
        {
          "name": "D#6",
          "midi": 87,
          "time": 65.26306000000021,
          "velocity": 0.7874015748031497,
          "duration": 0.06469288541666174
        },
        {
          "name": "F6",
          "midi": 89,
          "time": 65.26306000000021,
          "velocity": 0.7874015748031497,
          "duration": 0.06469288541666174
        },
        {
          "name": "D7",
          "midi": 98,
          "time": 65.26306000000021,
          "velocity": 0.7874015748031497,
          "duration": 0.06469288541666174
        },
        {
          "name": "F7",
          "midi": 101,
          "time": 65.26306000000021,
          "velocity": 0.7874015748031497,
          "duration": 0.06469288541666174
        },
        {
          "name": "C#6",
          "midi": 85,
          "time": 65.43849833333354,
          "velocity": 0.7874015748031497,
          "duration": 1.3124980312500014
        },
        {
          "name": "F6",
          "midi": 89,
          "time": 65.43849833333354,
          "velocity": 0.7874015748031497,
          "duration": 1.3124980312500014
        },
        {
          "name": "C#7",
          "midi": 97,
          "time": 65.43849833333354,
          "velocity": 0.7874015748031497,
          "duration": 1.3124980312500014
        },
        {
          "name": "F7",
          "midi": 101,
          "time": 65.43849833333354,
          "velocity": 0.7874015748031497,
          "duration": 1.3124980312500014
        },
        {
          "name": "C4",
          "midi": 60,
          "time": 65.45933163541687,
          "velocity": 0.7874015748031497,
          "duration": 1.2916647291666692
        },
        {
          "name": "F4",
          "midi": 65,
          "time": 65.45933163541687,
          "velocity": 0.7874015748031497,
          "duration": 1.2916647291666692
        },
        {
          "name": "C5",
          "midi": 72,
          "time": 65.45933163541687,
          "velocity": 0.7874015748031497,
          "duration": 1.2916647291666692
        },
        {
          "name": "F5",
          "midi": 77,
          "time": 65.45933163541687,
          "velocity": 0.7874015748031497,
          "duration": 1.2916647291666692
        },
        {
          "name": "D4",
          "midi": 62,
          "time": 66.84200500000021,
          "velocity": 0.7874015748031497,
          "duration": 0.06469288541666174
        },
        {
          "name": "F#4",
          "midi": 66,
          "time": 66.84200500000021,
          "velocity": 0.7874015748031497,
          "duration": 0.06469288541666174
        },
        {
          "name": "D5",
          "midi": 74,
          "time": 66.84200500000021,
          "velocity": 0.7874015748031497,
          "duration": 0.06469288541666174
        },
        {
          "name": "F#5",
          "midi": 78,
          "time": 66.84200500000021,
          "velocity": 0.7874015748031497,
          "duration": 0.06469288541666174
        },
        {
          "name": "D#6",
          "midi": 87,
          "time": 66.84200500000021,
          "velocity": 0.7874015748031497,
          "duration": 0.06469288541666174
        },
        {
          "name": "F#6",
          "midi": 90,
          "time": 66.84200500000021,
          "velocity": 0.7874015748031497,
          "duration": 0.06469288541666174
        },
        {
          "name": "E7",
          "midi": 100,
          "time": 66.84200500000021,
          "velocity": 0.7874015748031497,
          "duration": 0.06469288541666174
        },
        {
          "name": "F#7",
          "midi": 102,
          "time": 66.84200500000021,
          "velocity": 0.7874015748031497,
          "duration": 0.06469288541666174
        },
        {
          "name": "D6",
          "midi": 86,
          "time": 67.01744333333355,
          "velocity": 0.7874015748031497,
          "duration": 0.06578937499999427
        },
        {
          "name": "F6",
          "midi": 89,
          "time": 67.01744333333355,
          "velocity": 0.7874015748031497,
          "duration": 0.06578937499999427
        },
        {
          "name": "D#7",
          "midi": 99,
          "time": 67.01744333333355,
          "velocity": 0.7874015748031497,
          "duration": 0.06578937499999427
        },
        {
          "name": "F7",
          "midi": 101,
          "time": 67.01744333333355,
          "velocity": 0.7874015748031497,
          "duration": 0.06578937499999427
        },
        {
          "name": "C#4",
          "midi": 61,
          "time": 67.1051625000002,
          "velocity": 0.7874015748031497,
          "duration": 0.06469288541666174
        },
        {
          "name": "F4",
          "midi": 65,
          "time": 67.1051625000002,
          "velocity": 0.7874015748031497,
          "duration": 0.06469288541666174
        },
        {
          "name": "C#5",
          "midi": 73,
          "time": 67.1939781562502,
          "velocity": 0.7874015748031497,
          "duration": 0.06469288541666174
        },
        {
          "name": "F5",
          "midi": 77,
          "time": 67.1939781562502,
          "velocity": 0.7874015748031497,
          "duration": 0.06469288541666174
        },
        {
          "name": "C#6",
          "midi": 85,
          "time": 67.1939781562502,
          "velocity": 0.7874015748031497,
          "duration": 0.06469288541666174
        },
        {
          "name": "F6",
          "midi": 89,
          "time": 67.1939781562502,
          "velocity": 0.7874015748031497,
          "duration": 0.06469288541666174
        },
        {
          "name": "C#7",
          "midi": 97,
          "time": 67.1939781562502,
          "velocity": 0.7874015748031497,
          "duration": 0.06469288541666174
        },
        {
          "name": "F7",
          "midi": 101,
          "time": 67.1939781562502,
          "velocity": 0.7874015748031497,
          "duration": 0.06469288541666174
        },
        {
          "name": "C4",
          "midi": 60,
          "time": 67.3683200000002,
          "velocity": 0.7874015748031497,
          "duration": 0.06469288541666174
        },
        {
          "name": "F4",
          "midi": 65,
          "time": 67.3683200000002,
          "velocity": 0.7874015748031497,
          "duration": 0.06469288541666174
        },
        {
          "name": "C5",
          "midi": 72,
          "time": 67.3683200000002,
          "velocity": 0.7874015748031497,
          "duration": 0.06469288541666174
        },
        {
          "name": "F5",
          "midi": 77,
          "time": 67.3683200000002,
          "velocity": 0.7874015748031497,
          "duration": 0.06469288541666174
        },
        {
          "name": "C6",
          "midi": 84,
          "time": 67.3683200000002,
          "velocity": 0.7874015748031497,
          "duration": 0.06469288541666174
        },
        {
          "name": "F6",
          "midi": 89,
          "time": 67.3683200000002,
          "velocity": 0.7874015748031497,
          "duration": 0.06469288541666174
        },
        {
          "name": "C7",
          "midi": 96,
          "time": 67.3683200000002,
          "velocity": 0.7874015748031497,
          "duration": 0.06469288541666174
        },
        {
          "name": "F7",
          "midi": 101,
          "time": 67.3683200000002,
          "velocity": 0.7874015748031497,
          "duration": 0.06469288541666174
        },
        {
          "name": "D4",
          "midi": 62,
          "time": 68.42095000000019,
          "velocity": 0.7874015748031497,
          "duration": 0.06578937499999427
        },
        {
          "name": "F#4",
          "midi": 66,
          "time": 68.42095000000019,
          "velocity": 0.7874015748031497,
          "duration": 0.06578937499999427
        },
        {
          "name": "D#5",
          "midi": 75,
          "time": 68.42095000000019,
          "velocity": 0.7874015748031497,
          "duration": 0.06578937499999427
        },
        {
          "name": "F#5",
          "midi": 78,
          "time": 68.42095000000019,
          "velocity": 0.7874015748031497,
          "duration": 0.06578937499999427
        },
        {
          "name": "D#6",
          "midi": 87,
          "time": 68.42095000000019,
          "velocity": 0.7874015748031497,
          "duration": 0.06578937499999427
        },
        {
          "name": "F#6",
          "midi": 90,
          "time": 68.42095000000019,
          "velocity": 0.7874015748031497,
          "duration": 0.06578937499999427
        },
        {
          "name": "D#7",
          "midi": 99,
          "time": 68.42095000000019,
          "velocity": 0.7874015748031497,
          "duration": 0.06578937499999427
        },
        {
          "name": "F#7",
          "midi": 102,
          "time": 68.42095000000019,
          "velocity": 0.7874015748031497,
          "duration": 0.06578937499999427
        },
        {
          "name": "D#7",
          "midi": 99,
          "time": 68.55252875000018,
          "velocity": 0.7874015748031497,
          "duration": 0.06578937499999427
        },
        {
          "name": "F#7",
          "midi": 102,
          "time": 68.55252875000018,
          "velocity": 0.7874015748031497,
          "duration": 0.06578937499999427
        },
        {
          "name": "D5",
          "midi": 74,
          "time": 68.68410750000017,
          "velocity": 0.7874015748031497,
          "duration": 0.06578937499999427
        },
        {
          "name": "F5",
          "midi": 77,
          "time": 68.68410750000017,
          "velocity": 0.7874015748031497,
          "duration": 0.06578937499999427
        },
        {
          "name": "D6",
          "midi": 86,
          "time": 68.68410750000017,
          "velocity": 0.7874015748031497,
          "duration": 0.06578937499999427
        },
        {
          "name": "F6",
          "midi": 89,
          "time": 68.68410750000017,
          "velocity": 0.7874015748031497,
          "duration": 0.06578937499999427
        },
        {
          "name": "D7",
          "midi": 98,
          "time": 68.68410750000017,
          "velocity": 0.7874015748031497,
          "duration": 0.06578937499999427
        },
        {
          "name": "F7",
          "midi": 101,
          "time": 68.68410750000017,
          "velocity": 0.7874015748031497,
          "duration": 0.06578937499999427
        },
        {
          "name": "D4",
          "midi": 62,
          "time": 68.81678273958349,
          "velocity": 0.7874015748031497,
          "duration": 0.06469288541666174
        },
        {
          "name": "F#4",
          "midi": 66,
          "time": 68.81678273958349,
          "velocity": 0.7874015748031497,
          "duration": 0.06469288541666174
        },
        {
          "name": "D#5",
          "midi": 75,
          "time": 68.81678273958349,
          "velocity": 0.7874015748031497,
          "duration": 0.06469288541666174
        },
        {
          "name": "F5",
          "midi": 77,
          "time": 68.81678273958349,
          "velocity": 0.7874015748031497,
          "duration": 0.06469288541666174
        },
        {
          "name": "D#6",
          "midi": 87,
          "time": 68.81678273958349,
          "velocity": 0.7874015748031497,
          "duration": 0.06469288541666174
        },
        {
          "name": "F6",
          "midi": 89,
          "time": 68.81678273958349,
          "velocity": 0.7874015748031497,
          "duration": 0.06469288541666174
        },
        {
          "name": "D#7",
          "midi": 99,
          "time": 68.81678273958349,
          "velocity": 0.7874015748031497,
          "duration": 0.06469288541666174
        },
        {
          "name": "F7",
          "midi": 101,
          "time": 68.81678273958349,
          "velocity": 0.7874015748031497,
          "duration": 0.06469288541666174
        },
        {
          "name": "D7",
          "midi": 98,
          "time": 68.94726500000014,
          "velocity": 0.7874015748031497,
          "duration": 0.06469288541666174
        },
        {
          "name": "F7",
          "midi": 101,
          "time": 68.94726500000014,
          "velocity": 0.7874015748031497,
          "duration": 0.06469288541666174
        },
        {
          "name": "D5",
          "midi": 74,
          "time": 69.07884375000013,
          "velocity": 0.7874015748031497,
          "duration": 0.06578937499999427
        },
        {
          "name": "F5",
          "midi": 77,
          "time": 69.07884375000013,
          "velocity": 0.7874015748031497,
          "duration": 0.06578937499999427
        },
        {
          "name": "D#6",
          "midi": 87,
          "time": 69.07884375000013,
          "velocity": 0.7874015748031497,
          "duration": 0.06578937499999427
        },
        {
          "name": "F#6",
          "midi": 90,
          "time": 69.07884375000013,
          "velocity": 0.7874015748031497,
          "duration": 0.06578937499999427
        },
        {
          "name": "C#7",
          "midi": 97,
          "time": 69.07884375000013,
          "velocity": 0.7874015748031497,
          "duration": 0.06578937499999427
        },
        {
          "name": "F7",
          "midi": 101,
          "time": 69.07884375000013,
          "velocity": 0.7874015748031497,
          "duration": 0.06578937499999427
        },
        {
          "name": "C#4",
          "midi": 61,
          "time": 69.21042250000012,
          "velocity": 0.7874015748031497,
          "duration": 0.06469288541666174
        },
        {
          "name": "F4",
          "midi": 65,
          "time": 69.21042250000012,
          "velocity": 0.7874015748031497,
          "duration": 0.06469288541666174
        },
        {
          "name": "D6",
          "midi": 86,
          "time": 69.21042250000012,
          "velocity": 0.7874015748031497,
          "duration": 0.06469288541666174
        },
        {
          "name": "F6",
          "midi": 89,
          "time": 69.21042250000012,
          "velocity": 0.7874015748031497,
          "duration": 0.06469288541666174
        },
        {
          "name": "D7",
          "midi": 98,
          "time": 69.21042250000012,
          "velocity": 0.7874015748031497,
          "duration": 0.06469288541666174
        },
        {
          "name": "F7",
          "midi": 101,
          "time": 69.21042250000012,
          "velocity": 0.7874015748031497,
          "duration": 0.06469288541666174
        },
        {
          "name": "C#5",
          "midi": 73,
          "time": 69.34200125000011,
          "velocity": 0.7874015748031497,
          "duration": 0.06578937499999427
        },
        {
          "name": "F5",
          "midi": 77,
          "time": 69.34200125000011,
          "velocity": 0.7874015748031497,
          "duration": 0.06578937499999427
        },
        {
          "name": "C#6",
          "midi": 85,
          "time": 69.34200125000011,
          "velocity": 0.7874015748031497,
          "duration": 0.06578937499999427
        },
        {
          "name": "F6",
          "midi": 89,
          "time": 69.34200125000011,
          "velocity": 0.7874015748031497,
          "duration": 0.06578937499999427
        },
        {
          "name": "C#7",
          "midi": 97,
          "time": 69.34200125000011,
          "velocity": 0.7874015748031497,
          "duration": 0.06578937499999427
        },
        {
          "name": "F7",
          "midi": 101,
          "time": 69.34200125000011,
          "velocity": 0.7874015748031497,
          "duration": 0.06578937499999427
        },
        {
          "name": "C4",
          "midi": 60,
          "time": 69.4735800000001,
          "velocity": 0.7874015748031497,
          "duration": 1.5767520208333394
        },
        {
          "name": "F4",
          "midi": 65,
          "time": 69.4735800000001,
          "velocity": 0.7874015748031497,
          "duration": 1.5767520208333394
        },
        {
          "name": "C5",
          "midi": 72,
          "time": 69.4735800000001,
          "velocity": 0.7874015748031497,
          "duration": 1.5767520208333394
        },
        {
          "name": "F5",
          "midi": 77,
          "time": 69.4735800000001,
          "velocity": 0.7874015748031497,
          "duration": 1.5767520208333394
        },
        {
          "name": "C6",
          "midi": 84,
          "time": 69.4735800000001,
          "velocity": 0.7874015748031497,
          "duration": 1.5767520208333394
        },
        {
          "name": "F6",
          "midi": 89,
          "time": 69.4735800000001,
          "velocity": 0.7874015748031497,
          "duration": 1.5767520208333394
        },
        {
          "name": "C7",
          "midi": 96,
          "time": 69.4735800000001,
          "velocity": 0.7874015748031497,
          "duration": 1.5767520208333394
        },
        {
          "name": "F7",
          "midi": 101,
          "time": 69.4735800000001,
          "velocity": 0.7874015748031497,
          "duration": 1.5767520208333394
        },
        {
          "name": "C4",
          "midi": 60,
          "time": 71.0525250000001,
          "velocity": 0.7874015748031497,
          "duration": 0.5252185104166216
        },
        {
          "name": "F#4",
          "midi": 66,
          "time": 71.0525250000001,
          "velocity": 0.7874015748031497,
          "duration": 0.5241220208332891
        },
        {
          "name": "C5",
          "midi": 72,
          "time": 71.0525250000001,
          "velocity": 0.7874015748031497,
          "duration": 0.5252185104166216
        },
        {
          "name": "F#5",
          "midi": 78,
          "time": 71.0525250000001,
          "velocity": 0.7874015748031497,
          "duration": 0.5241220208332891
        },
        {
          "name": "C6",
          "midi": 84,
          "time": 71.0525250000001,
          "velocity": 0.7874015748031497,
          "duration": 0.5252185104166216
        },
        {
          "name": "F#6",
          "midi": 90,
          "time": 71.0525250000001,
          "velocity": 0.7874015748031497,
          "duration": 0.5241220208332891
        },
        {
          "name": "D#7",
          "midi": 99,
          "time": 71.0525250000001,
          "velocity": 0.7874015748031497,
          "duration": 0.06578937499999427
        },
        {
          "name": "F#7",
          "midi": 102,
          "time": 71.0525250000001,
          "velocity": 0.7874015748031497,
          "duration": 0.06578937499999427
        },
        {
          "name": "D7",
          "midi": 98,
          "time": 71.18410375000009,
          "velocity": 0.7874015748031497,
          "duration": 0.06578937499999427
        },
        {
          "name": "F7",
          "midi": 101,
          "time": 71.18410375000009,
          "velocity": 0.7874015748031497,
          "duration": 0.06578937499999427
        },
        {
          "name": "C#7",
          "midi": 97,
          "time": 71.31568250000008,
          "velocity": 0.7874015748031497,
          "duration": 0.06578937499999427
        },
        {
          "name": "F7",
          "midi": 101,
          "time": 71.31568250000008,
          "velocity": 0.7874015748031497,
          "duration": 0.06578937499999427
        },
        {
          "name": "C7",
          "midi": 96,
          "time": 71.44726125000007,
          "velocity": 0.7874015748031497,
          "duration": 0.06578937499999427
        },
        {
          "name": "F7",
          "midi": 101,
          "time": 71.44726125000007,
          "velocity": 0.7874015748031497,
          "duration": 0.06578937499999427
        },
        {
          "name": "D4",
          "midi": 62,
          "time": 71.57884000000006,
          "velocity": 0.7874015748031497,
          "duration": 0.06578937499999427
        },
        {
          "name": "F#4",
          "midi": 66,
          "time": 71.57884000000006,
          "velocity": 0.7874015748031497,
          "duration": 0.06578937499999427
        },
        {
          "name": "D5",
          "midi": 74,
          "time": 71.57884000000006,
          "velocity": 0.7874015748031497,
          "duration": 0.06578937499999427
        },
        {
          "name": "F#5",
          "midi": 78,
          "time": 71.57884000000006,
          "velocity": 0.7874015748031497,
          "duration": 0.06578937499999427
        },
        {
          "name": "D#6",
          "midi": 87,
          "time": 71.57884000000006,
          "velocity": 0.7874015748031497,
          "duration": 0.06578937499999427
        },
        {
          "name": "F#6",
          "midi": 90,
          "time": 71.57884000000006,
          "velocity": 0.7874015748031497,
          "duration": 0.06578937499999427
        },
        {
          "name": "D#7",
          "midi": 99,
          "time": 71.57884000000006,
          "velocity": 0.7874015748031497,
          "duration": 0.06578937499999427
        },
        {
          "name": "F#7",
          "midi": 102,
          "time": 71.57884000000006,
          "velocity": 0.7874015748031497,
          "duration": 0.06578937499999427
        },
        {
          "name": "D#7",
          "midi": 99,
          "time": 71.71041875000004,
          "velocity": 0.7874015748031497,
          "duration": 0.06578937499999427
        },
        {
          "name": "F#7",
          "midi": 102,
          "time": 71.71041875000004,
          "velocity": 0.7874015748031497,
          "duration": 0.06578937499999427
        },
        {
          "name": "C#5",
          "midi": 73,
          "time": 71.84309398958337,
          "velocity": 0.7874015748031497,
          "duration": 0.06469288541666174
        },
        {
          "name": "F5",
          "midi": 77,
          "time": 71.84309398958337,
          "velocity": 0.7874015748031497,
          "duration": 0.06469288541666174
        },
        {
          "name": "D6",
          "midi": 86,
          "time": 71.84309398958337,
          "velocity": 0.7874015748031497,
          "duration": 0.06469288541666174
        },
        {
          "name": "F6",
          "midi": 89,
          "time": 71.84309398958337,
          "velocity": 0.7874015748031497,
          "duration": 0.06469288541666174
        },
        {
          "name": "D7",
          "midi": 98,
          "time": 71.84309398958337,
          "velocity": 0.7874015748031497,
          "duration": 0.06469288541666174
        },
        {
          "name": "F7",
          "midi": 101,
          "time": 71.84309398958337,
          "velocity": 0.7874015748031497,
          "duration": 0.06469288541666174
        },
        {
          "name": "D4",
          "midi": 62,
          "time": 71.97467273958335,
          "velocity": 0.7874015748031497,
          "duration": 0.06469288541666174
        },
        {
          "name": "F#4",
          "midi": 66,
          "time": 71.97467273958335,
          "velocity": 0.7874015748031497,
          "duration": 0.06469288541666174
        },
        {
          "name": "D5",
          "midi": 74,
          "time": 71.97467273958335,
          "velocity": 0.7874015748031497,
          "duration": 0.06469288541666174
        },
        {
          "name": "F5",
          "midi": 77,
          "time": 71.97467273958335,
          "velocity": 0.7874015748031497,
          "duration": 0.06469288541666174
        },
        {
          "name": "D#6",
          "midi": 87,
          "time": 71.97467273958335,
          "velocity": 0.7874015748031497,
          "duration": 0.06469288541666174
        },
        {
          "name": "F6",
          "midi": 89,
          "time": 71.97467273958335,
          "velocity": 0.7874015748031497,
          "duration": 0.06469288541666174
        },
        {
          "name": "D#7",
          "midi": 99,
          "time": 71.97467273958335,
          "velocity": 0.7874015748031497,
          "duration": 0.06469288541666174
        },
        {
          "name": "F7",
          "midi": 101,
          "time": 71.97467273958335,
          "velocity": 0.7874015748031497,
          "duration": 0.06469288541666174
        },
        {
          "name": "D7",
          "midi": 98,
          "time": 72.10515500000001,
          "velocity": 0.7874015748031497,
          "duration": 0.06469288541666174
        },
        {
          "name": "F7",
          "midi": 101,
          "time": 72.10515500000001,
          "velocity": 0.7874015748031497,
          "duration": 0.06469288541666174
        },
        {
          "name": "C#4",
          "midi": 61,
          "time": 72.23673375,
          "velocity": 0.7874015748031497,
          "duration": 0.06469288541666174
        },
        {
          "name": "F4",
          "midi": 65,
          "time": 72.23673375,
          "velocity": 0.7874015748031497,
          "duration": 0.06469288541666174
        },
        {
          "name": "C#5",
          "midi": 73,
          "time": 72.23673375,
          "velocity": 0.7874015748031497,
          "duration": 0.06469288541666174
        },
        {
          "name": "F5",
          "midi": 77,
          "time": 72.23673375,
          "velocity": 0.7874015748031497,
          "duration": 0.06469288541666174
        },
        {
          "name": "D6",
          "midi": 86,
          "time": 72.23673375,
          "velocity": 0.7874015748031497,
          "duration": 0.06469288541666174
        },
        {
          "name": "F6",
          "midi": 89,
          "time": 72.23673375,
          "velocity": 0.7874015748031497,
          "duration": 0.06469288541666174
        },
        {
          "name": "C#7",
          "midi": 97,
          "time": 72.23673375,
          "velocity": 0.7874015748031497,
          "duration": 0.06469288541666174
        },
        {
          "name": "F7",
          "midi": 101,
          "time": 72.23673375,
          "velocity": 0.7874015748031497,
          "duration": 0.06469288541666174
        },
        {
          "name": "C#6",
          "midi": 85,
          "time": 72.36831249999999,
          "velocity": 0.7874015748031497,
          "duration": 0.06469288541666174
        },
        {
          "name": "F6",
          "midi": 89,
          "time": 72.36831249999999,
          "velocity": 0.7874015748031497,
          "duration": 0.06469288541666174
        },
        {
          "name": "C#7",
          "midi": 97,
          "time": 72.36831249999999,
          "velocity": 0.7874015748031497,
          "duration": 0.06469288541666174
        },
        {
          "name": "F#7",
          "midi": 102,
          "time": 72.36831249999999,
          "velocity": 0.7874015748031497,
          "duration": 0.06469288541666174
        },
        {
          "name": "C4",
          "midi": 60,
          "time": 72.63146999999998,
          "velocity": 0.7874015748031497,
          "duration": 1.051533510416661
        },
        {
          "name": "F#4",
          "midi": 66,
          "time": 72.63146999999998,
          "velocity": 0.7874015748031497,
          "duration": 1.0504370208333285
        },
        {
          "name": "C5",
          "midi": 72,
          "time": 72.63146999999998,
          "velocity": 0.7874015748031497,
          "duration": 1.051533510416661
        },
        {
          "name": "F#5",
          "midi": 78,
          "time": 72.63146999999998,
          "velocity": 0.7874015748031497,
          "duration": 1.0504370208333285
        },
        {
          "name": "C6",
          "midi": 84,
          "time": 72.63146999999998,
          "velocity": 0.7874015748031497,
          "duration": 1.051533510416661
        },
        {
          "name": "F#6",
          "midi": 90,
          "time": 72.63146999999998,
          "velocity": 0.7874015748031497,
          "duration": 1.0504370208333285
        },
        {
          "name": "C7",
          "midi": 96,
          "time": 72.63146999999998,
          "velocity": 0.7874015748031497,
          "duration": 1.051533510416661
        },
        {
          "name": "F#7",
          "midi": 102,
          "time": 72.63146999999998,
          "velocity": 0.7874015748031497,
          "duration": 1.0504370208333285
        },
        {
          "name": "D4",
          "midi": 62,
          "time": 73.68409999999997,
          "velocity": 0.7874015748031497,
          "duration": 0.06469288541666174
        },
        {
          "name": "F#4",
          "midi": 66,
          "time": 73.68409999999997,
          "velocity": 0.7874015748031497,
          "duration": 0.06469288541666174
        },
        {
          "name": "D5",
          "midi": 74,
          "time": 73.68409999999997,
          "velocity": 0.7874015748031497,
          "duration": 0.06469288541666174
        },
        {
          "name": "F#5",
          "midi": 78,
          "time": 73.68409999999997,
          "velocity": 0.7874015748031497,
          "duration": 0.06469288541666174
        },
        {
          "name": "D#6",
          "midi": 87,
          "time": 73.68409999999997,
          "velocity": 0.7874015748031497,
          "duration": 0.06469288541666174
        },
        {
          "name": "F#6",
          "midi": 90,
          "time": 73.68409999999997,
          "velocity": 0.7874015748031497,
          "duration": 0.06469288541666174
        },
        {
          "name": "D#7",
          "midi": 99,
          "time": 73.68409999999997,
          "velocity": 0.7874015748031497,
          "duration": 0.06469288541666174
        },
        {
          "name": "F#7",
          "midi": 102,
          "time": 73.68409999999997,
          "velocity": 0.7874015748031497,
          "duration": 0.06469288541666174
        },
        {
          "name": "D#7",
          "midi": 99,
          "time": 73.81458226041663,
          "velocity": 0.7874015748031497,
          "duration": 0.06578937499999427
        },
        {
          "name": "F#7",
          "midi": 102,
          "time": 73.81458226041663,
          "velocity": 0.7874015748031497,
          "duration": 0.06578937499999427
        },
        {
          "name": "D4",
          "midi": 62,
          "time": 74.01304687499996,
          "velocity": 0.7874015748031497,
          "duration": 0.06469288541667595
        },
        {
          "name": "F#4",
          "midi": 66,
          "time": 74.01304687499996,
          "velocity": 0.7874015748031497,
          "duration": 0.06469288541667595
        },
        {
          "name": "D5",
          "midi": 74,
          "time": 74.01304687499996,
          "velocity": 0.7874015748031497,
          "duration": 0.06469288541667595
        },
        {
          "name": "F#5",
          "midi": 78,
          "time": 74.01304687499996,
          "velocity": 0.7874015748031497,
          "duration": 0.06469288541667595
        },
        {
          "name": "D#7",
          "midi": 99,
          "time": 74.04594156249996,
          "velocity": 0.7874015748031497,
          "duration": 0.06469288541667595
        },
        {
          "name": "F#7",
          "midi": 102,
          "time": 74.04594156249996,
          "velocity": 0.7874015748031497,
          "duration": 0.06469288541667595
        },
        {
          "name": "D#6",
          "midi": 87,
          "time": 74.07773976041663,
          "velocity": 0.7874015748031497,
          "duration": 0.06578937500000848
        },
        {
          "name": "F#6",
          "midi": 90,
          "time": 74.07773976041663,
          "velocity": 0.7874015748031497,
          "duration": 0.06578937500000848
        },
        {
          "name": "D7",
          "midi": 98,
          "time": 74.21041499999997,
          "velocity": 0.7874015748031497,
          "duration": 0.06469288541666174
        },
        {
          "name": "F7",
          "midi": 101,
          "time": 74.21041499999997,
          "velocity": 0.7874015748031497,
          "duration": 0.06469288541666174
        },
        {
          "name": "C#4",
          "midi": 61,
          "time": 74.34199374999996,
          "velocity": 0.7874015748031497,
          "duration": 0.06469288541666174
        },
        {
          "name": "F4",
          "midi": 65,
          "time": 74.34199374999996,
          "velocity": 0.7874015748031497,
          "duration": 0.06469288541666174
        },
        {
          "name": "C#5",
          "midi": 73,
          "time": 74.34199374999996,
          "velocity": 0.7874015748031497,
          "duration": 0.06469288541666174
        },
        {
          "name": "F5",
          "midi": 77,
          "time": 74.34199374999996,
          "velocity": 0.7874015748031497,
          "duration": 0.06469288541666174
        },
        {
          "name": "D6",
          "midi": 86,
          "time": 74.34199374999996,
          "velocity": 0.7874015748031497,
          "duration": 0.06469288541666174
        },
        {
          "name": "F6",
          "midi": 89,
          "time": 74.34199374999996,
          "velocity": 0.7874015748031497,
          "duration": 0.06469288541666174
        },
        {
          "name": "C#7",
          "midi": 97,
          "time": 74.34199374999996,
          "velocity": 0.7874015748031497,
          "duration": 0.06469288541666174
        },
        {
          "name": "F7",
          "midi": 101,
          "time": 74.34199374999996,
          "velocity": 0.7874015748031497,
          "duration": 0.06469288541666174
        },
        {
          "name": "C#6",
          "midi": 85,
          "time": 74.47357249999995,
          "velocity": 0.7874015748031497,
          "duration": 0.06469288541666174
        },
        {
          "name": "F6",
          "midi": 89,
          "time": 74.47357249999995,
          "velocity": 0.7874015748031497,
          "duration": 0.06469288541666174
        },
        {
          "name": "D7",
          "midi": 98,
          "time": 74.47357249999995,
          "velocity": 0.7874015748031497,
          "duration": 0.06469288541666174
        },
        {
          "name": "F7",
          "midi": 101,
          "time": 74.47357249999995,
          "velocity": 0.7874015748031497,
          "duration": 0.06469288541666174
        },
        {
          "name": "D7",
          "midi": 98,
          "time": 74.60515124999993,
          "velocity": 0.7874015748031497,
          "duration": 0.06469288541666174
        },
        {
          "name": "F#7",
          "midi": 102,
          "time": 74.60515124999993,
          "velocity": 0.7874015748031497,
          "duration": 0.06469288541666174
        },
        {
          "name": "C#4",
          "midi": 61,
          "time": 74.73672999999992,
          "velocity": 0.7874015748031497,
          "duration": 0.39254327083332896
        },
        {
          "name": "F#4",
          "midi": 66,
          "time": 74.73672999999992,
          "velocity": 0.7874015748031497,
          "duration": 0.39254327083332896
        },
        {
          "name": "C#5",
          "midi": 73,
          "time": 74.73672999999992,
          "velocity": 0.7874015748031497,
          "duration": 0.39254327083332896
        },
        {
          "name": "F#5",
          "midi": 78,
          "time": 74.73672999999992,
          "velocity": 0.7874015748031497,
          "duration": 0.39254327083332896
        },
        {
          "name": "C#6",
          "midi": 85,
          "time": 74.73672999999992,
          "velocity": 0.7874015748031497,
          "duration": 0.39254327083332896
        },
        {
          "name": "F#6",
          "midi": 90,
          "time": 74.73672999999992,
          "velocity": 0.7874015748031497,
          "duration": 0.39254327083332896
        },
        {
          "name": "C#7",
          "midi": 97,
          "time": 74.73672999999992,
          "velocity": 0.7874015748031497,
          "duration": 0.39254327083332896
        },
        {
          "name": "F7",
          "midi": 101,
          "time": 74.73672999999992,
          "velocity": 0.7874015748031497,
          "duration": 0.39254327083332896
        },
        {
          "name": "D4",
          "midi": 62,
          "time": 75.13146624999992,
          "velocity": 0.7874015748031497,
          "duration": 0.39254327083332896
        },
        {
          "name": "F#4",
          "midi": 66,
          "time": 75.13146624999992,
          "velocity": 0.7874015748031497,
          "duration": 0.39254327083332896
        },
        {
          "name": "D5",
          "midi": 74,
          "time": 75.13146624999992,
          "velocity": 0.7874015748031497,
          "duration": 0.39254327083332896
        },
        {
          "name": "F#5",
          "midi": 78,
          "time": 75.13146624999992,
          "velocity": 0.7874015748031497,
          "duration": 0.39254327083332896
        },
        {
          "name": "D6",
          "midi": 86,
          "time": 75.13146624999992,
          "velocity": 0.7874015748031497,
          "duration": 0.39254327083332896
        },
        {
          "name": "F#6",
          "midi": 90,
          "time": 75.13146624999992,
          "velocity": 0.7874015748031497,
          "duration": 0.39254327083332896
        },
        {
          "name": "D7",
          "midi": 98,
          "time": 75.13146624999992,
          "velocity": 0.7874015748031497,
          "duration": 0.39254327083332896
        },
        {
          "name": "F#7",
          "midi": 102,
          "time": 75.13146624999992,
          "velocity": 0.7874015748031497,
          "duration": 0.39254327083332896
        },
        {
          "name": "C4",
          "midi": 60,
          "time": 75.52620249999991,
          "velocity": 0.7874015748031497,
          "duration": 0.06469288541666174
        },
        {
          "name": "F#4",
          "midi": 66,
          "time": 75.52620249999991,
          "velocity": 0.7874015748031497,
          "duration": 0.06469288541666174
        },
        {
          "name": "C5",
          "midi": 72,
          "time": 75.52620249999991,
          "velocity": 0.7874015748031497,
          "duration": 0.06469288541666174
        },
        {
          "name": "F#5",
          "midi": 78,
          "time": 75.52620249999991,
          "velocity": 0.7874015748031497,
          "duration": 0.06469288541666174
        },
        {
          "name": "C6",
          "midi": 84,
          "time": 75.52620249999991,
          "velocity": 0.7874015748031497,
          "duration": 0.06469288541666174
        },
        {
          "name": "F#6",
          "midi": 90,
          "time": 75.52620249999991,
          "velocity": 0.7874015748031497,
          "duration": 0.06469288541666174
        },
        {
          "name": "C7",
          "midi": 96,
          "time": 75.52620249999991,
          "velocity": 0.7874015748031497,
          "duration": 0.06469288541666174
        },
        {
          "name": "F#7",
          "midi": 102,
          "time": 75.52620249999991,
          "velocity": 0.7874015748031497,
          "duration": 0.06469288541666174
        },
        {
          "name": "D4",
          "midi": 62,
          "time": 75.7893599999999,
          "velocity": 0.7874015748031497,
          "duration": 0.06578937499999427
        },
        {
          "name": "F#4",
          "midi": 66,
          "time": 75.7893599999999,
          "velocity": 0.7874015748031497,
          "duration": 0.06578937499999427
        },
        {
          "name": "D5",
          "midi": 74,
          "time": 75.7893599999999,
          "velocity": 0.7874015748031497,
          "duration": 0.06578937499999427
        },
        {
          "name": "F#5",
          "midi": 78,
          "time": 75.7893599999999,
          "velocity": 0.7874015748031497,
          "duration": 0.06578937499999427
        },
        {
          "name": "D#6",
          "midi": 87,
          "time": 75.7893599999999,
          "velocity": 0.7874015748031497,
          "duration": 0.06578937499999427
        },
        {
          "name": "F#6",
          "midi": 90,
          "time": 75.7893599999999,
          "velocity": 0.7874015748031497,
          "duration": 0.06578937499999427
        },
        {
          "name": "D#7",
          "midi": 99,
          "time": 75.7893599999999,
          "velocity": 0.7874015748031497,
          "duration": 0.06578937499999427
        },
        {
          "name": "F#7",
          "midi": 102,
          "time": 75.7893599999999,
          "velocity": 0.7874015748031497,
          "duration": 0.06578937499999427
        },
        {
          "name": "D#7",
          "midi": 99,
          "time": 75.92203523958322,
          "velocity": 0.7874015748031497,
          "duration": 0.06578937499999427
        },
        {
          "name": "F#7",
          "midi": 102,
          "time": 75.92203523958322,
          "velocity": 0.7874015748031497,
          "duration": 0.06578937499999427
        },
        {
          "name": "C#5",
          "midi": 73,
          "time": 76.05361398958321,
          "velocity": 0.7874015748031497,
          "duration": 0.06469288541666174
        },
        {
          "name": "F5",
          "midi": 77,
          "time": 76.05361398958321,
          "velocity": 0.7874015748031497,
          "duration": 0.06469288541666174
        },
        {
          "name": "D6",
          "midi": 86,
          "time": 76.05361398958321,
          "velocity": 0.7874015748031497,
          "duration": 0.06469288541666174
        },
        {
          "name": "F6",
          "midi": 89,
          "time": 76.05361398958321,
          "velocity": 0.7874015748031497,
          "duration": 0.06469288541666174
        },
        {
          "name": "D7",
          "midi": 98,
          "time": 76.05361398958321,
          "velocity": 0.7874015748031497,
          "duration": 0.06469288541666174
        },
        {
          "name": "F7",
          "midi": 101,
          "time": 76.05361398958321,
          "velocity": 0.7874015748031497,
          "duration": 0.06469288541666174
        },
        {
          "name": "D4",
          "midi": 62,
          "time": 76.18409624999987,
          "velocity": 0.7874015748031497,
          "duration": 0.06578937499999427
        },
        {
          "name": "F#4",
          "midi": 66,
          "time": 76.18409624999987,
          "velocity": 0.7874015748031497,
          "duration": 0.06578937499999427
        },
        {
          "name": "D5",
          "midi": 74,
          "time": 76.18409624999987,
          "velocity": 0.7874015748031497,
          "duration": 0.06578937499999427
        },
        {
          "name": "F5",
          "midi": 77,
          "time": 76.18409624999987,
          "velocity": 0.7874015748031497,
          "duration": 0.06578937499999427
        },
        {
          "name": "D#6",
          "midi": 87,
          "time": 76.18409624999987,
          "velocity": 0.7874015748031497,
          "duration": 0.06578937499999427
        },
        {
          "name": "F6",
          "midi": 89,
          "time": 76.18409624999987,
          "velocity": 0.7874015748031497,
          "duration": 0.06578937499999427
        },
        {
          "name": "D#7",
          "midi": 99,
          "time": 76.18409624999987,
          "velocity": 0.7874015748031497,
          "duration": 0.06578937499999427
        },
        {
          "name": "F7",
          "midi": 101,
          "time": 76.18409624999987,
          "velocity": 0.7874015748031497,
          "duration": 0.06578937499999427
        },
        {
          "name": "D7",
          "midi": 98,
          "time": 76.31567499999986,
          "velocity": 0.7874015748031497,
          "duration": 0.06469288541666174
        },
        {
          "name": "F7",
          "midi": 101,
          "time": 76.31567499999986,
          "velocity": 0.7874015748031497,
          "duration": 0.06469288541666174
        },
        {
          "name": "C#4",
          "midi": 61,
          "time": 76.44725374999985,
          "velocity": 0.7874015748031497,
          "duration": 0.06469288541666174
        },
        {
          "name": "F4",
          "midi": 65,
          "time": 76.44725374999985,
          "velocity": 0.7874015748031497,
          "duration": 0.06469288541666174
        },
        {
          "name": "C#5",
          "midi": 73,
          "time": 76.44725374999985,
          "velocity": 0.7874015748031497,
          "duration": 0.06469288541666174
        },
        {
          "name": "F5",
          "midi": 77,
          "time": 76.44725374999985,
          "velocity": 0.7874015748031497,
          "duration": 0.06469288541666174
        },
        {
          "name": "D6",
          "midi": 86,
          "time": 76.44725374999985,
          "velocity": 0.7874015748031497,
          "duration": 0.06469288541666174
        },
        {
          "name": "F6",
          "midi": 89,
          "time": 76.44725374999985,
          "velocity": 0.7874015748031497,
          "duration": 0.06469288541666174
        },
        {
          "name": "C#7",
          "midi": 97,
          "time": 76.44725374999985,
          "velocity": 0.7874015748031497,
          "duration": 0.06469288541666174
        },
        {
          "name": "F7",
          "midi": 101,
          "time": 76.44725374999985,
          "velocity": 0.7874015748031497,
          "duration": 0.06469288541666174
        },
        {
          "name": "C#6",
          "midi": 85,
          "time": 76.57992898958318,
          "velocity": 0.7874015748031497,
          "duration": 0.06469288541666174
        },
        {
          "name": "F6",
          "midi": 89,
          "time": 76.57992898958318,
          "velocity": 0.7874015748031497,
          "duration": 0.06469288541666174
        },
        {
          "name": "C#7",
          "midi": 97,
          "time": 76.57992898958318,
          "velocity": 0.7874015748031497,
          "duration": 0.06469288541666174
        },
        {
          "name": "F#7",
          "midi": 102,
          "time": 76.57992898958318,
          "velocity": 0.7874015748031497,
          "duration": 0.06469288541666174
        },
        {
          "name": "C4",
          "midi": 60,
          "time": 76.84198999999984,
          "velocity": 0.7874015748031497,
          "duration": 1.051533510416661
        },
        {
          "name": "F#4",
          "midi": 66,
          "time": 76.84198999999984,
          "velocity": 0.7874015748031497,
          "duration": 1.0504370208333285
        },
        {
          "name": "C5",
          "midi": 72,
          "time": 76.84198999999984,
          "velocity": 0.7874015748031497,
          "duration": 1.051533510416661
        },
        {
          "name": "F#5",
          "midi": 78,
          "time": 76.84198999999984,
          "velocity": 0.7874015748031497,
          "duration": 1.0504370208333285
        },
        {
          "name": "C6",
          "midi": 84,
          "time": 76.84198999999984,
          "velocity": 0.7874015748031497,
          "duration": 1.051533510416661
        },
        {
          "name": "F#6",
          "midi": 90,
          "time": 76.84198999999984,
          "velocity": 0.7874015748031497,
          "duration": 1.0504370208333285
        },
        {
          "name": "C7",
          "midi": 96,
          "time": 76.84198999999984,
          "velocity": 0.7874015748031497,
          "duration": 1.051533510416661
        },
        {
          "name": "F#7",
          "midi": 102,
          "time": 76.84198999999984,
          "velocity": 0.7874015748031497,
          "duration": 1.0504370208333285
        },
        {
          "name": "D4",
          "midi": 62,
          "time": 77.89461999999983,
          "velocity": 0.7874015748031497,
          "duration": 0.06578937499999427
        },
        {
          "name": "F#4",
          "midi": 66,
          "time": 77.89461999999983,
          "velocity": 0.7874015748031497,
          "duration": 0.06578937499999427
        },
        {
          "name": "D5",
          "midi": 74,
          "time": 77.89461999999983,
          "velocity": 0.7874015748031497,
          "duration": 0.06578937499999427
        },
        {
          "name": "F#5",
          "midi": 78,
          "time": 77.89461999999983,
          "velocity": 0.7874015748031497,
          "duration": 0.06578937499999427
        },
        {
          "name": "D#6",
          "midi": 87,
          "time": 77.89461999999983,
          "velocity": 0.7874015748031497,
          "duration": 0.06578937499999427
        },
        {
          "name": "F#6",
          "midi": 90,
          "time": 77.89461999999983,
          "velocity": 0.7874015748031497,
          "duration": 0.06578937499999427
        },
        {
          "name": "D#7",
          "midi": 99,
          "time": 77.89461999999983,
          "velocity": 0.7874015748031497,
          "duration": 0.06578937499999427
        },
        {
          "name": "F#7",
          "midi": 102,
          "time": 77.89461999999983,
          "velocity": 0.7874015748031497,
          "duration": 0.06578937499999427
        },
        {
          "name": "D#7",
          "midi": 99,
          "time": 78.02729523958315,
          "velocity": 0.7874015748031497,
          "duration": 0.06469288541666174
        },
        {
          "name": "F#7",
          "midi": 102,
          "time": 78.02729523958315,
          "velocity": 0.7874015748031497,
          "duration": 0.06469288541666174
        },
        {
          "name": "C#5",
          "midi": 73,
          "time": 78.15777749999981,
          "velocity": 0.7874015748031497,
          "duration": 0.06578937499999427
        },
        {
          "name": "F5",
          "midi": 77,
          "time": 78.15777749999981,
          "velocity": 0.7874015748031497,
          "duration": 0.06578937499999427
        },
        {
          "name": "D6",
          "midi": 86,
          "time": 78.15777749999981,
          "velocity": 0.7874015748031497,
          "duration": 0.06578937499999427
        },
        {
          "name": "F6",
          "midi": 89,
          "time": 78.15777749999981,
          "velocity": 0.7874015748031497,
          "duration": 0.06578937499999427
        },
        {
          "name": "D7",
          "midi": 98,
          "time": 78.15777749999981,
          "velocity": 0.7874015748031497,
          "duration": 0.06578937499999427
        },
        {
          "name": "F7",
          "midi": 101,
          "time": 78.15777749999981,
          "velocity": 0.7874015748031497,
          "duration": 0.06578937499999427
        },
        {
          "name": "D4",
          "midi": 62,
          "time": 78.28825976041647,
          "velocity": 0.7874015748031497,
          "duration": 0.06578937499999427
        },
        {
          "name": "F#4",
          "midi": 66,
          "time": 78.28825976041647,
          "velocity": 0.7874015748031497,
          "duration": 0.06578937499999427
        },
        {
          "name": "D5",
          "midi": 74,
          "time": 78.28825976041647,
          "velocity": 0.7874015748031497,
          "duration": 0.06578937499999427
        },
        {
          "name": "F5",
          "midi": 77,
          "time": 78.28825976041647,
          "velocity": 0.7874015748031497,
          "duration": 0.06578937499999427
        },
        {
          "name": "D#6",
          "midi": 87,
          "time": 78.28825976041647,
          "velocity": 0.7874015748031497,
          "duration": 0.06578937499999427
        },
        {
          "name": "F6",
          "midi": 89,
          "time": 78.28825976041647,
          "velocity": 0.7874015748031497,
          "duration": 0.06578937499999427
        },
        {
          "name": "D#7",
          "midi": 99,
          "time": 78.28825976041647,
          "velocity": 0.7874015748031497,
          "duration": 0.06578937499999427
        },
        {
          "name": "F7",
          "midi": 101,
          "time": 78.28825976041647,
          "velocity": 0.7874015748031497,
          "duration": 0.06578937499999427
        },
        {
          "name": "D7",
          "midi": 98,
          "time": 78.42093499999979,
          "velocity": 0.7874015748031497,
          "duration": 0.06469288541666174
        },
        {
          "name": "F7",
          "midi": 101,
          "time": 78.42093499999979,
          "velocity": 0.7874015748031497,
          "duration": 0.06469288541666174
        },
        {
          "name": "C#4",
          "midi": 61,
          "time": 78.55251374999978,
          "velocity": 0.7874015748031497,
          "duration": 0.06469288541666174
        },
        {
          "name": "F4",
          "midi": 65,
          "time": 78.55251374999978,
          "velocity": 0.7874015748031497,
          "duration": 0.06469288541666174
        },
        {
          "name": "C#5",
          "midi": 73,
          "time": 78.55251374999978,
          "velocity": 0.7874015748031497,
          "duration": 0.06469288541666174
        },
        {
          "name": "F5",
          "midi": 77,
          "time": 78.55251374999978,
          "velocity": 0.7874015748031497,
          "duration": 0.06469288541666174
        },
        {
          "name": "D6",
          "midi": 86,
          "time": 78.55251374999978,
          "velocity": 0.7874015748031497,
          "duration": 0.06469288541666174
        },
        {
          "name": "F6",
          "midi": 89,
          "time": 78.55251374999978,
          "velocity": 0.7874015748031497,
          "duration": 0.06469288541666174
        },
        {
          "name": "C#7",
          "midi": 97,
          "time": 78.55251374999978,
          "velocity": 0.7874015748031497,
          "duration": 0.06469288541666174
        },
        {
          "name": "F7",
          "midi": 101,
          "time": 78.55251374999978,
          "velocity": 0.7874015748031497,
          "duration": 0.06469288541666174
        },
        {
          "name": "C#6",
          "midi": 85,
          "time": 78.68299601041643,
          "velocity": 0.7874015748031497,
          "duration": 0.06469288541666174
        },
        {
          "name": "F6",
          "midi": 89,
          "time": 78.68299601041643,
          "velocity": 0.7874015748031497,
          "duration": 0.06469288541666174
        },
        {
          "name": "D7",
          "midi": 98,
          "time": 78.68299601041643,
          "velocity": 0.7874015748031497,
          "duration": 0.06469288541666174
        },
        {
          "name": "F7",
          "midi": 101,
          "time": 78.68299601041643,
          "velocity": 0.7874015748031497,
          "duration": 0.06469288541666174
        },
        {
          "name": "D7",
          "midi": 98,
          "time": 78.81567124999977,
          "velocity": 0.7874015748031497,
          "duration": 0.06469288541666174
        },
        {
          "name": "F#7",
          "midi": 102,
          "time": 78.81567124999977,
          "velocity": 0.7874015748031497,
          "duration": 0.06469288541666174
        },
        {
          "name": "C#4",
          "midi": 61,
          "time": 78.94724999999976,
          "velocity": 0.7874015748031497,
          "duration": 0.39254327083332896
        },
        {
          "name": "F#4",
          "midi": 66,
          "time": 78.94724999999976,
          "velocity": 0.7874015748031497,
          "duration": 0.39254327083332896
        },
        {
          "name": "C#5",
          "midi": 73,
          "time": 78.94724999999976,
          "velocity": 0.7874015748031497,
          "duration": 0.39254327083332896
        },
        {
          "name": "F#5",
          "midi": 78,
          "time": 78.94724999999976,
          "velocity": 0.7874015748031497,
          "duration": 0.39254327083332896
        },
        {
          "name": "C#6",
          "midi": 85,
          "time": 78.94724999999976,
          "velocity": 0.7874015748031497,
          "duration": 0.39254327083332896
        },
        {
          "name": "F#6",
          "midi": 90,
          "time": 78.94724999999976,
          "velocity": 0.7874015748031497,
          "duration": 0.39254327083332896
        },
        {
          "name": "C#7",
          "midi": 97,
          "time": 78.94724999999976,
          "velocity": 0.7874015748031497,
          "duration": 0.39254327083332896
        },
        {
          "name": "F7",
          "midi": 101,
          "time": 78.94724999999976,
          "velocity": 0.7874015748031497,
          "duration": 0.39254327083332896
        },
        {
          "name": "D4",
          "midi": 62,
          "time": 79.34198624999975,
          "velocity": 0.7874015748031497,
          "duration": 0.39144678124999643
        },
        {
          "name": "F#4",
          "midi": 66,
          "time": 79.34198624999975,
          "velocity": 0.7874015748031497,
          "duration": 0.39144678124999643
        },
        {
          "name": "D5",
          "midi": 74,
          "time": 79.34198624999975,
          "velocity": 0.7874015748031497,
          "duration": 0.39144678124999643
        },
        {
          "name": "F#5",
          "midi": 78,
          "time": 79.34198624999975,
          "velocity": 0.7874015748031497,
          "duration": 0.39144678124999643
        },
        {
          "name": "D6",
          "midi": 86,
          "time": 79.34198624999975,
          "velocity": 0.7874015748031497,
          "duration": 0.39144678124999643
        },
        {
          "name": "F#6",
          "midi": 90,
          "time": 79.34198624999975,
          "velocity": 0.7874015748031497,
          "duration": 0.39144678124999643
        },
        {
          "name": "D7",
          "midi": 98,
          "time": 79.34198624999975,
          "velocity": 0.7874015748031497,
          "duration": 0.39144678124999643
        },
        {
          "name": "F#7",
          "midi": 102,
          "time": 79.34198624999975,
          "velocity": 0.7874015748031497,
          "duration": 0.39144678124999643
        },
        {
          "name": "C4",
          "midi": 60,
          "time": 79.73562601041641,
          "velocity": 0.7874015748031497,
          "duration": 0.06578937499999427
        },
        {
          "name": "F#4",
          "midi": 66,
          "time": 79.73562601041641,
          "velocity": 0.7874015748031497,
          "duration": 0.06578937499999427
        },
        {
          "name": "C5",
          "midi": 72,
          "time": 79.73562601041641,
          "velocity": 0.7874015748031497,
          "duration": 0.06578937499999427
        },
        {
          "name": "F#5",
          "midi": 78,
          "time": 79.73562601041641,
          "velocity": 0.7874015748031497,
          "duration": 0.06578937499999427
        },
        {
          "name": "C6",
          "midi": 84,
          "time": 79.73562601041641,
          "velocity": 0.7874015748031497,
          "duration": 0.06578937499999427
        },
        {
          "name": "F#6",
          "midi": 90,
          "time": 79.73562601041641,
          "velocity": 0.7874015748031497,
          "duration": 0.06578937499999427
        },
        {
          "name": "C7",
          "midi": 96,
          "time": 79.73562601041641,
          "velocity": 0.7874015748031497,
          "duration": 0.06578937499999427
        },
        {
          "name": "F#7",
          "midi": 102,
          "time": 79.73562601041641,
          "velocity": 0.7874015748031497,
          "duration": 0.06578937499999427
        },
        {
          "name": "D4",
          "midi": 62,
          "time": 79.99987999999973,
          "velocity": 0.7874015748031497,
          "duration": 0.06578937499999427
        },
        {
          "name": "F#4",
          "midi": 66,
          "time": 79.99987999999973,
          "velocity": 0.7874015748031497,
          "duration": 0.06578937499999427
        },
        {
          "name": "D#5",
          "midi": 75,
          "time": 79.99987999999973,
          "velocity": 0.7874015748031497,
          "duration": 0.06578937499999427
        },
        {
          "name": "F#5",
          "midi": 78,
          "time": 79.99987999999973,
          "velocity": 0.7874015748031497,
          "duration": 0.06578937499999427
        },
        {
          "name": "E6",
          "midi": 88,
          "time": 79.99987999999973,
          "velocity": 0.7874015748031497,
          "duration": 0.06578937499999427
        },
        {
          "name": "F#6",
          "midi": 90,
          "time": 79.99987999999973,
          "velocity": 0.7874015748031497,
          "duration": 0.06578937499999427
        },
        {
          "name": "E7",
          "midi": 100,
          "time": 79.99987999999973,
          "velocity": 0.7874015748031497,
          "duration": 0.06578937499999427
        },
        {
          "name": "F#7",
          "midi": 102,
          "time": 79.99987999999973,
          "velocity": 0.7874015748031497,
          "duration": 0.06578937499999427
        },
        {
          "name": "E7",
          "midi": 100,
          "time": 80.13145874999972,
          "velocity": 0.7874015748031497,
          "duration": 0.06578937499999427
        },
        {
          "name": "F#7",
          "midi": 102,
          "time": 80.13145874999972,
          "velocity": 0.7874015748031497,
          "duration": 0.06578937499999427
        },
        {
          "name": "D5",
          "midi": 74,
          "time": 80.26413398958304,
          "velocity": 0.7874015748031497,
          "duration": 0.06469288541666174
        },
        {
          "name": "F5",
          "midi": 77,
          "time": 80.26413398958304,
          "velocity": 0.7874015748031497,
          "duration": 0.06469288541666174
        },
        {
          "name": "D#6",
          "midi": 87,
          "time": 80.26413398958304,
          "velocity": 0.7874015748031497,
          "duration": 0.06469288541666174
        },
        {
          "name": "F6",
          "midi": 89,
          "time": 80.26413398958304,
          "velocity": 0.7874015748031497,
          "duration": 0.06469288541666174
        },
        {
          "name": "D#7",
          "midi": 99,
          "time": 80.26413398958304,
          "velocity": 0.7874015748031497,
          "duration": 0.06469288541666174
        },
        {
          "name": "F7",
          "midi": 101,
          "time": 80.26413398958304,
          "velocity": 0.7874015748031497,
          "duration": 0.06469288541666174
        },
        {
          "name": "D4",
          "midi": 62,
          "time": 80.3946162499997,
          "velocity": 0.7874015748031497,
          "duration": 0.06469288541666174
        },
        {
          "name": "F#4",
          "midi": 66,
          "time": 80.3946162499997,
          "velocity": 0.7874015748031497,
          "duration": 0.06469288541666174
        },
        {
          "name": "D#5",
          "midi": 75,
          "time": 80.3946162499997,
          "velocity": 0.7874015748031497,
          "duration": 0.06469288541666174
        },
        {
          "name": "F5",
          "midi": 77,
          "time": 80.3946162499997,
          "velocity": 0.7874015748031497,
          "duration": 0.06469288541666174
        },
        {
          "name": "E6",
          "midi": 88,
          "time": 80.3946162499997,
          "velocity": 0.7874015748031497,
          "duration": 0.06469288541666174
        },
        {
          "name": "F6",
          "midi": 89,
          "time": 80.3946162499997,
          "velocity": 0.7874015748031497,
          "duration": 0.06469288541666174
        },
        {
          "name": "E7",
          "midi": 100,
          "time": 80.3946162499997,
          "velocity": 0.7874015748031497,
          "duration": 0.06469288541666174
        },
        {
          "name": "F7",
          "midi": 101,
          "time": 80.3946162499997,
          "velocity": 0.7874015748031497,
          "duration": 0.06469288541666174
        },
        {
          "name": "D#7",
          "midi": 99,
          "time": 80.52619499999969,
          "velocity": 0.7874015748031497,
          "duration": 0.06578937499999427
        },
        {
          "name": "F7",
          "midi": 101,
          "time": 80.52619499999969,
          "velocity": 0.7874015748031497,
          "duration": 0.06578937499999427
        },
        {
          "name": "C#4",
          "midi": 61,
          "time": 80.65777374999968,
          "velocity": 0.7874015748031497,
          "duration": 0.06578937499999427
        },
        {
          "name": "F4",
          "midi": 65,
          "time": 80.65777374999968,
          "velocity": 0.7874015748031497,
          "duration": 0.06578937499999427
        },
        {
          "name": "D5",
          "midi": 74,
          "time": 80.65777374999968,
          "velocity": 0.7874015748031497,
          "duration": 0.06578937499999427
        },
        {
          "name": "F5",
          "midi": 77,
          "time": 80.65777374999968,
          "velocity": 0.7874015748031497,
          "duration": 0.06578937499999427
        },
        {
          "name": "D#6",
          "midi": 87,
          "time": 80.65777374999968,
          "velocity": 0.7874015748031497,
          "duration": 0.06578937499999427
        },
        {
          "name": "F6",
          "midi": 89,
          "time": 80.65777374999968,
          "velocity": 0.7874015748031497,
          "duration": 0.06578937499999427
        },
        {
          "name": "D7",
          "midi": 98,
          "time": 80.65777374999968,
          "velocity": 0.7874015748031497,
          "duration": 0.06578937499999427
        },
        {
          "name": "F7",
          "midi": 101,
          "time": 80.65777374999968,
          "velocity": 0.7874015748031497,
          "duration": 0.06578937499999427
        },
        {
          "name": "D6",
          "midi": 86,
          "time": 80.790448989583,
          "velocity": 0.7874015748031497,
          "duration": 0.06469288541666174
        },
        {
          "name": "F6",
          "midi": 89,
          "time": 80.790448989583,
          "velocity": 0.7874015748031497,
          "duration": 0.06469288541666174
        },
        {
          "name": "D7",
          "midi": 98,
          "time": 80.790448989583,
          "velocity": 0.7874015748031497,
          "duration": 0.06469288541666174
        },
        {
          "name": "F#7",
          "midi": 102,
          "time": 80.790448989583,
          "velocity": 0.7874015748031497,
          "duration": 0.06469288541666174
        },
        {
          "name": "C4",
          "midi": 60,
          "time": 81.05250999999966,
          "velocity": 0.7874015748031497,
          "duration": 1.051533510416661
        },
        {
          "name": "F#4",
          "midi": 66,
          "time": 81.05250999999966,
          "velocity": 0.7874015748031497,
          "duration": 1.0504370208333285
        },
        {
          "name": "C#5",
          "midi": 73,
          "time": 81.05250999999966,
          "velocity": 0.7874015748031497,
          "duration": 1.051533510416661
        },
        {
          "name": "F#5",
          "midi": 78,
          "time": 81.05250999999966,
          "velocity": 0.7874015748031497,
          "duration": 1.0504370208333285
        },
        {
          "name": "C#6",
          "midi": 85,
          "time": 81.05250999999966,
          "velocity": 0.7874015748031497,
          "duration": 1.051533510416661
        },
        {
          "name": "F#6",
          "midi": 90,
          "time": 81.05250999999966,
          "velocity": 0.7874015748031497,
          "duration": 1.0504370208333285
        },
        {
          "name": "C#7",
          "midi": 97,
          "time": 81.05250999999966,
          "velocity": 0.7874015748031497,
          "duration": 1.051533510416661
        },
        {
          "name": "F#7",
          "midi": 102,
          "time": 81.05250999999966,
          "velocity": 0.7874015748031497,
          "duration": 1.0504370208333285
        },
        {
          "name": "D4",
          "midi": 62,
          "time": 82.10513999999965,
          "velocity": 0.7874015748031497,
          "duration": 0.06469288541666174
        },
        {
          "name": "F#4",
          "midi": 66,
          "time": 82.10513999999965,
          "velocity": 0.7874015748031497,
          "duration": 0.06469288541666174
        },
        {
          "name": "D#5",
          "midi": 75,
          "time": 82.10513999999965,
          "velocity": 0.7874015748031497,
          "duration": 0.06469288541666174
        },
        {
          "name": "F#5",
          "midi": 78,
          "time": 82.10513999999965,
          "velocity": 0.7874015748031497,
          "duration": 0.06469288541666174
        },
        {
          "name": "E6",
          "midi": 88,
          "time": 82.10513999999965,
          "velocity": 0.7874015748031497,
          "duration": 0.06469288541666174
        },
        {
          "name": "F#6",
          "midi": 90,
          "time": 82.10513999999965,
          "velocity": 0.7874015748031497,
          "duration": 0.06469288541666174
        },
        {
          "name": "E7",
          "midi": 100,
          "time": 82.10513999999965,
          "velocity": 0.7874015748031497,
          "duration": 0.06469288541666174
        },
        {
          "name": "F#7",
          "midi": 102,
          "time": 82.10513999999965,
          "velocity": 0.7874015748031497,
          "duration": 0.06469288541666174
        },
        {
          "name": "E7",
          "midi": 100,
          "time": 82.23781523958299,
          "velocity": 0.7874015748031497,
          "duration": 0.06469288541666174
        },
        {
          "name": "F#7",
          "midi": 102,
          "time": 82.23781523958299,
          "velocity": 0.7874015748031497,
          "duration": 0.06469288541666174
        },
        {
          "name": "D5",
          "midi": 74,
          "time": 82.36829749999964,
          "velocity": 0.7874015748031497,
          "duration": 0.06469288541666174
        },
        {
          "name": "F5",
          "midi": 77,
          "time": 82.36829749999964,
          "velocity": 0.7874015748031497,
          "duration": 0.06469288541666174
        },
        {
          "name": "D#6",
          "midi": 87,
          "time": 82.36829749999964,
          "velocity": 0.7874015748031497,
          "duration": 0.06469288541666174
        },
        {
          "name": "F6",
          "midi": 89,
          "time": 82.36829749999964,
          "velocity": 0.7874015748031497,
          "duration": 0.06469288541666174
        },
        {
          "name": "D#7",
          "midi": 99,
          "time": 82.36829749999964,
          "velocity": 0.7874015748031497,
          "duration": 0.06469288541666174
        },
        {
          "name": "F7",
          "midi": 101,
          "time": 82.36829749999964,
          "velocity": 0.7874015748031497,
          "duration": 0.06469288541666174
        },
        {
          "name": "D4",
          "midi": 62,
          "time": 82.50097273958298,
          "velocity": 0.7874015748031497,
          "duration": 0.06469288541666174
        },
        {
          "name": "F#4",
          "midi": 66,
          "time": 82.50097273958298,
          "velocity": 0.7874015748031497,
          "duration": 0.06469288541666174
        },
        {
          "name": "D#5",
          "midi": 75,
          "time": 82.50097273958298,
          "velocity": 0.7874015748031497,
          "duration": 0.06469288541666174
        },
        {
          "name": "F5",
          "midi": 77,
          "time": 82.50097273958298,
          "velocity": 0.7874015748031497,
          "duration": 0.06469288541666174
        },
        {
          "name": "E6",
          "midi": 88,
          "time": 82.50097273958298,
          "velocity": 0.7874015748031497,
          "duration": 0.06469288541666174
        },
        {
          "name": "F6",
          "midi": 89,
          "time": 82.50097273958298,
          "velocity": 0.7874015748031497,
          "duration": 0.06469288541666174
        },
        {
          "name": "E7",
          "midi": 100,
          "time": 82.50097273958298,
          "velocity": 0.7874015748031497,
          "duration": 0.06469288541666174
        },
        {
          "name": "F7",
          "midi": 101,
          "time": 82.50097273958298,
          "velocity": 0.7874015748031497,
          "duration": 0.06469288541666174
        },
        {
          "name": "D#7",
          "midi": 99,
          "time": 82.63145499999963,
          "velocity": 0.7874015748031497,
          "duration": 0.06578937499999427
        },
        {
          "name": "F7",
          "midi": 101,
          "time": 82.63145499999963,
          "velocity": 0.7874015748031497,
          "duration": 0.06578937499999427
        },
        {
          "name": "C#4",
          "midi": 61,
          "time": 82.76193726041629,
          "velocity": 0.7874015748031497,
          "duration": 0.06578937499999427
        },
        {
          "name": "F4",
          "midi": 65,
          "time": 82.76193726041629,
          "velocity": 0.7874015748031497,
          "duration": 0.06578937499999427
        },
        {
          "name": "D5",
          "midi": 74,
          "time": 82.76193726041629,
          "velocity": 0.7874015748031497,
          "duration": 0.06578937499999427
        },
        {
          "name": "F5",
          "midi": 77,
          "time": 82.76193726041629,
          "velocity": 0.7874015748031497,
          "duration": 0.06578937499999427
        },
        {
          "name": "D#6",
          "midi": 87,
          "time": 82.76193726041629,
          "velocity": 0.7874015748031497,
          "duration": 0.06578937499999427
        },
        {
          "name": "F6",
          "midi": 89,
          "time": 82.76193726041629,
          "velocity": 0.7874015748031497,
          "duration": 0.06578937499999427
        },
        {
          "name": "D7",
          "midi": 98,
          "time": 82.76193726041629,
          "velocity": 0.7874015748031497,
          "duration": 0.06578937499999427
        },
        {
          "name": "F7",
          "midi": 101,
          "time": 82.76193726041629,
          "velocity": 0.7874015748031497,
          "duration": 0.06578937499999427
        },
        {
          "name": "D6",
          "midi": 86,
          "time": 82.89461249999961,
          "velocity": 0.7874015748031497,
          "duration": 0.06578937499999427
        },
        {
          "name": "F6",
          "midi": 89,
          "time": 82.89461249999961,
          "velocity": 0.7874015748031497,
          "duration": 0.06578937499999427
        },
        {
          "name": "D#7",
          "midi": 99,
          "time": 82.89461249999961,
          "velocity": 0.7874015748031497,
          "duration": 0.06578937499999427
        },
        {
          "name": "F7",
          "midi": 101,
          "time": 82.89461249999961,
          "velocity": 0.7874015748031497,
          "duration": 0.06578937499999427
        },
        {
          "name": "D#7",
          "midi": 99,
          "time": 83.02509476041627,
          "velocity": 0.7874015748031497,
          "duration": 0.06578937499999427
        },
        {
          "name": "F#7",
          "midi": 102,
          "time": 83.02509476041627,
          "velocity": 0.7874015748031497,
          "duration": 0.06578937499999427
        },
        {
          "name": "C#4",
          "midi": 61,
          "time": 83.15776999999959,
          "velocity": 0.7874015748031497,
          "duration": 0.39144678124999643
        },
        {
          "name": "F#4",
          "midi": 66,
          "time": 83.15776999999959,
          "velocity": 0.7874015748031497,
          "duration": 0.39144678124999643
        },
        {
          "name": "D5",
          "midi": 74,
          "time": 83.15776999999959,
          "velocity": 0.7874015748031497,
          "duration": 0.39144678124999643
        },
        {
          "name": "F#5",
          "midi": 78,
          "time": 83.15776999999959,
          "velocity": 0.7874015748031497,
          "duration": 0.39144678124999643
        },
        {
          "name": "D6",
          "midi": 86,
          "time": 83.15776999999959,
          "velocity": 0.7874015748031497,
          "duration": 0.39144678124999643
        },
        {
          "name": "F#6",
          "midi": 90,
          "time": 83.15776999999959,
          "velocity": 0.7874015748031497,
          "duration": 0.39144678124999643
        },
        {
          "name": "D7",
          "midi": 98,
          "time": 83.15776999999959,
          "velocity": 0.7874015748031497,
          "duration": 0.39144678124999643
        },
        {
          "name": "F7",
          "midi": 101,
          "time": 83.15776999999959,
          "velocity": 0.7874015748031497,
          "duration": 0.39144678124999643
        },
        {
          "name": "D4",
          "midi": 62,
          "time": 83.55360273958291,
          "velocity": 0.7874015748031497,
          "duration": 0.39144678124999643
        },
        {
          "name": "F#4",
          "midi": 66,
          "time": 83.55360273958291,
          "velocity": 0.7874015748031497,
          "duration": 0.39144678124999643
        },
        {
          "name": "D#5",
          "midi": 75,
          "time": 83.55360273958291,
          "velocity": 0.7874015748031497,
          "duration": 0.39144678124999643
        },
        {
          "name": "F#5",
          "midi": 78,
          "time": 83.55360273958291,
          "velocity": 0.7874015748031497,
          "duration": 0.39144678124999643
        },
        {
          "name": "D#6",
          "midi": 87,
          "time": 83.55360273958291,
          "velocity": 0.7874015748031497,
          "duration": 0.39144678124999643
        },
        {
          "name": "F#6",
          "midi": 90,
          "time": 83.55360273958291,
          "velocity": 0.7874015748031497,
          "duration": 0.39144678124999643
        },
        {
          "name": "D#7",
          "midi": 99,
          "time": 83.55360273958291,
          "velocity": 0.7874015748031497,
          "duration": 0.39144678124999643
        },
        {
          "name": "F#7",
          "midi": 102,
          "time": 83.55360273958291,
          "velocity": 0.7874015748031497,
          "duration": 0.39144678124999643
        },
        {
          "name": "C4",
          "midi": 60,
          "time": 83.94724249999958,
          "velocity": 0.7874015748031497,
          "duration": 0.06578937499999427
        },
        {
          "name": "F#4",
          "midi": 66,
          "time": 83.94724249999958,
          "velocity": 0.7874015748031497,
          "duration": 0.06578937499999427
        },
        {
          "name": "C#5",
          "midi": 73,
          "time": 83.94724249999958,
          "velocity": 0.7874015748031497,
          "duration": 0.06578937499999427
        },
        {
          "name": "F#5",
          "midi": 78,
          "time": 83.94724249999958,
          "velocity": 0.7874015748031497,
          "duration": 0.06578937499999427
        },
        {
          "name": "C#6",
          "midi": 85,
          "time": 83.94724249999958,
          "velocity": 0.7874015748031497,
          "duration": 0.06578937499999427
        },
        {
          "name": "F#6",
          "midi": 90,
          "time": 83.94724249999958,
          "velocity": 0.7874015748031497,
          "duration": 0.06578937499999427
        },
        {
          "name": "C#7",
          "midi": 97,
          "time": 83.94724249999958,
          "velocity": 0.7874015748031497,
          "duration": 0.06578937499999427
        },
        {
          "name": "F#7",
          "midi": 102,
          "time": 83.94724249999958,
          "velocity": 0.7874015748031497,
          "duration": 0.06578937499999427
        },
        {
          "name": "D4",
          "midi": 62,
          "time": 84.21039999999957,
          "velocity": 0.7874015748031497,
          "duration": 0.06469288541666174
        },
        {
          "name": "F#4",
          "midi": 66,
          "time": 84.21039999999957,
          "velocity": 0.7874015748031497,
          "duration": 0.06469288541666174
        },
        {
          "name": "D#5",
          "midi": 75,
          "time": 84.21039999999957,
          "velocity": 0.7874015748031497,
          "duration": 0.06469288541666174
        },
        {
          "name": "F#5",
          "midi": 78,
          "time": 84.21039999999957,
          "velocity": 0.7874015748031497,
          "duration": 0.06469288541666174
        },
        {
          "name": "E6",
          "midi": 88,
          "time": 84.21039999999957,
          "velocity": 0.7874015748031497,
          "duration": 0.06469288541666174
        },
        {
          "name": "F#6",
          "midi": 90,
          "time": 84.21039999999957,
          "velocity": 0.7874015748031497,
          "duration": 0.06469288541666174
        },
        {
          "name": "E7",
          "midi": 100,
          "time": 84.21039999999957,
          "velocity": 0.7874015748031497,
          "duration": 0.06469288541666174
        },
        {
          "name": "F#7",
          "midi": 102,
          "time": 84.21039999999957,
          "velocity": 0.7874015748031497,
          "duration": 0.06469288541666174
        },
        {
          "name": "E7",
          "midi": 100,
          "time": 84.34197874999956,
          "velocity": 0.7874015748031497,
          "duration": 0.06469288541666174
        },
        {
          "name": "F#7",
          "midi": 102,
          "time": 84.34197874999956,
          "velocity": 0.7874015748031497,
          "duration": 0.06469288541666174
        },
        {
          "name": "D5",
          "midi": 74,
          "time": 84.47465398958289,
          "velocity": 0.7874015748031497,
          "duration": 0.06469288541666174
        },
        {
          "name": "F5",
          "midi": 77,
          "time": 84.47465398958289,
          "velocity": 0.7874015748031497,
          "duration": 0.06469288541666174
        },
        {
          "name": "D#6",
          "midi": 87,
          "time": 84.47465398958289,
          "velocity": 0.7874015748031497,
          "duration": 0.06469288541666174
        },
        {
          "name": "F6",
          "midi": 89,
          "time": 84.47465398958289,
          "velocity": 0.7874015748031497,
          "duration": 0.06469288541666174
        },
        {
          "name": "D#7",
          "midi": 99,
          "time": 84.47465398958289,
          "velocity": 0.7874015748031497,
          "duration": 0.06469288541666174
        },
        {
          "name": "F7",
          "midi": 101,
          "time": 84.47465398958289,
          "velocity": 0.7874015748031497,
          "duration": 0.06469288541666174
        },
        {
          "name": "D4",
          "midi": 62,
          "time": 84.60623273958288,
          "velocity": 0.7874015748031497,
          "duration": 0.06469288541666174
        },
        {
          "name": "F#4",
          "midi": 66,
          "time": 84.60623273958288,
          "velocity": 0.7874015748031497,
          "duration": 0.06469288541666174
        },
        {
          "name": "D#5",
          "midi": 75,
          "time": 84.60623273958288,
          "velocity": 0.7874015748031497,
          "duration": 0.06469288541666174
        },
        {
          "name": "F5",
          "midi": 77,
          "time": 84.60623273958288,
          "velocity": 0.7874015748031497,
          "duration": 0.06469288541666174
        },
        {
          "name": "E6",
          "midi": 88,
          "time": 84.60623273958288,
          "velocity": 0.7874015748031497,
          "duration": 0.06469288541666174
        },
        {
          "name": "F6",
          "midi": 89,
          "time": 84.60623273958288,
          "velocity": 0.7874015748031497,
          "duration": 0.06469288541666174
        },
        {
          "name": "E7",
          "midi": 100,
          "time": 84.60623273958288,
          "velocity": 0.7874015748031497,
          "duration": 0.06469288541666174
        },
        {
          "name": "F7",
          "midi": 101,
          "time": 84.60623273958288,
          "velocity": 0.7874015748031497,
          "duration": 0.06469288541666174
        },
        {
          "name": "D#7",
          "midi": 99,
          "time": 84.73671499999953,
          "velocity": 0.7874015748031497,
          "duration": 0.06469288541666174
        },
        {
          "name": "F7",
          "midi": 101,
          "time": 84.73671499999953,
          "velocity": 0.7874015748031497,
          "duration": 0.06469288541666174
        },
        {
          "name": "C#4",
          "midi": 61,
          "time": 84.86939023958287,
          "velocity": 0.7874015748031497,
          "duration": 0.06469288541666174
        },
        {
          "name": "F4",
          "midi": 65,
          "time": 84.86939023958287,
          "velocity": 0.7874015748031497,
          "duration": 0.06469288541666174
        },
        {
          "name": "D5",
          "midi": 74,
          "time": 84.86939023958287,
          "velocity": 0.7874015748031497,
          "duration": 0.06469288541666174
        },
        {
          "name": "F5",
          "midi": 77,
          "time": 84.86939023958287,
          "velocity": 0.7874015748031497,
          "duration": 0.06469288541666174
        },
        {
          "name": "D#6",
          "midi": 87,
          "time": 84.86939023958287,
          "velocity": 0.7874015748031497,
          "duration": 0.06469288541666174
        },
        {
          "name": "F6",
          "midi": 89,
          "time": 84.86939023958287,
          "velocity": 0.7874015748031497,
          "duration": 0.06469288541666174
        },
        {
          "name": "D7",
          "midi": 98,
          "time": 84.86939023958287,
          "velocity": 0.7874015748031497,
          "duration": 0.06469288541666174
        },
        {
          "name": "F7",
          "midi": 101,
          "time": 84.86939023958287,
          "velocity": 0.7874015748031497,
          "duration": 0.06469288541666174
        },
        {
          "name": "D6",
          "midi": 86,
          "time": 84.99987249999953,
          "velocity": 0.7874015748031497,
          "duration": 0.06469288541666174
        },
        {
          "name": "F6",
          "midi": 89,
          "time": 84.99987249999953,
          "velocity": 0.7874015748031497,
          "duration": 0.06469288541666174
        },
        {
          "name": "D7",
          "midi": 98,
          "time": 84.99987249999953,
          "velocity": 0.7874015748031497,
          "duration": 0.06469288541666174
        },
        {
          "name": "F#7",
          "midi": 102,
          "time": 84.99987249999953,
          "velocity": 0.7874015748031497,
          "duration": 0.06469288541666174
        },
        {
          "name": "C4",
          "midi": 60,
          "time": 85.26302999999952,
          "velocity": 0.7874015748031497,
          "duration": 1.051533510416661
        },
        {
          "name": "F#4",
          "midi": 66,
          "time": 85.26302999999952,
          "velocity": 0.7874015748031497,
          "duration": 1.0504370208333285
        },
        {
          "name": "C#5",
          "midi": 73,
          "time": 85.26302999999952,
          "velocity": 0.7874015748031497,
          "duration": 1.051533510416661
        },
        {
          "name": "F#5",
          "midi": 78,
          "time": 85.26302999999952,
          "velocity": 0.7874015748031497,
          "duration": 1.0504370208333285
        },
        {
          "name": "C#6",
          "midi": 85,
          "time": 85.26302999999952,
          "velocity": 0.7874015748031497,
          "duration": 1.051533510416661
        },
        {
          "name": "F#6",
          "midi": 90,
          "time": 85.26302999999952,
          "velocity": 0.7874015748031497,
          "duration": 1.0504370208333285
        },
        {
          "name": "C#7",
          "midi": 97,
          "time": 85.26302999999952,
          "velocity": 0.7874015748031497,
          "duration": 1.051533510416661
        },
        {
          "name": "F#7",
          "midi": 102,
          "time": 85.26302999999952,
          "velocity": 0.7874015748031497,
          "duration": 1.0504370208333285
        },
        {
          "name": "G#8",
          "midi": 116,
          "time": 86.31565999999951,
          "velocity": 0.7874015748031497,
          "duration": 2.169952885416521
        },
        {
          "name": "D4",
          "midi": 62,
          "time": 86.31565999999951,
          "velocity": 0.7874015748031497,
          "duration": 0.06578937499999427
        },
        {
          "name": "F#4",
          "midi": 66,
          "time": 86.31565999999951,
          "velocity": 0.7874015748031497,
          "duration": 0.06578937499999427
        },
        {
          "name": "D#5",
          "midi": 75,
          "time": 86.31565999999951,
          "velocity": 0.7874015748031497,
          "duration": 0.06578937499999427
        },
        {
          "name": "F#5",
          "midi": 78,
          "time": 86.31565999999951,
          "velocity": 0.7874015748031497,
          "duration": 0.06578937499999427
        },
        {
          "name": "E6",
          "midi": 88,
          "time": 86.31565999999951,
          "velocity": 0.7874015748031497,
          "duration": 0.06578937499999427
        },
        {
          "name": "F#6",
          "midi": 90,
          "time": 86.31565999999951,
          "velocity": 0.7874015748031497,
          "duration": 0.06578937499999427
        },
        {
          "name": "E7",
          "midi": 100,
          "time": 86.31565999999951,
          "velocity": 0.7874015748031497,
          "duration": 0.06578937499999427
        },
        {
          "name": "F#7",
          "midi": 102,
          "time": 86.31565999999951,
          "velocity": 0.7874015748031497,
          "duration": 0.06578937499999427
        },
        {
          "name": "E7",
          "midi": 100,
          "time": 86.4472387499995,
          "velocity": 0.7874015748031497,
          "duration": 0.06578937499999427
        },
        {
          "name": "F#7",
          "midi": 102,
          "time": 86.4472387499995,
          "velocity": 0.7874015748031497,
          "duration": 0.06578937499999427
        },
        {
          "name": "D5",
          "midi": 74,
          "time": 86.57772101041616,
          "velocity": 0.7874015748031497,
          "duration": 0.06578937499999427
        },
        {
          "name": "F5",
          "midi": 77,
          "time": 86.57772101041616,
          "velocity": 0.7874015748031497,
          "duration": 0.06578937499999427
        },
        {
          "name": "D#6",
          "midi": 87,
          "time": 86.57772101041616,
          "velocity": 0.7874015748031497,
          "duration": 0.06578937499999427
        },
        {
          "name": "F6",
          "midi": 89,
          "time": 86.57772101041616,
          "velocity": 0.7874015748031497,
          "duration": 0.06578937499999427
        },
        {
          "name": "D#7",
          "midi": 99,
          "time": 86.57772101041616,
          "velocity": 0.7874015748031497,
          "duration": 0.06578937499999427
        },
        {
          "name": "F7",
          "midi": 101,
          "time": 86.57772101041616,
          "velocity": 0.7874015748031497,
          "duration": 0.06578937499999427
        },
        {
          "name": "D4",
          "midi": 62,
          "time": 86.71039624999948,
          "velocity": 0.7874015748031497,
          "duration": 0.06469288541666174
        },
        {
          "name": "F#4",
          "midi": 66,
          "time": 86.71039624999948,
          "velocity": 0.7874015748031497,
          "duration": 0.06469288541666174
        },
        {
          "name": "D#5",
          "midi": 75,
          "time": 86.71039624999948,
          "velocity": 0.7874015748031497,
          "duration": 0.06469288541666174
        },
        {
          "name": "F5",
          "midi": 77,
          "time": 86.71039624999948,
          "velocity": 0.7874015748031497,
          "duration": 0.06469288541666174
        },
        {
          "name": "E6",
          "midi": 88,
          "time": 86.71039624999948,
          "velocity": 0.7874015748031497,
          "duration": 0.06469288541666174
        },
        {
          "name": "F6",
          "midi": 89,
          "time": 86.71039624999948,
          "velocity": 0.7874015748031497,
          "duration": 0.06469288541666174
        },
        {
          "name": "E7",
          "midi": 100,
          "time": 86.71039624999948,
          "velocity": 0.7874015748031497,
          "duration": 0.06469288541666174
        },
        {
          "name": "F7",
          "midi": 101,
          "time": 86.71039624999948,
          "velocity": 0.7874015748031497,
          "duration": 0.06469288541666174
        },
        {
          "name": "D#7",
          "midi": 99,
          "time": 86.84197499999947,
          "velocity": 0.7874015748031497,
          "duration": 0.06578937499999427
        },
        {
          "name": "F7",
          "midi": 101,
          "time": 86.84197499999947,
          "velocity": 0.7874015748031497,
          "duration": 0.06578937499999427
        },
        {
          "name": "C#4",
          "midi": 61,
          "time": 86.97355374999945,
          "velocity": 0.7874015748031497,
          "duration": 0.06578937499999427
        },
        {
          "name": "F4",
          "midi": 65,
          "time": 86.97355374999945,
          "velocity": 0.7874015748031497,
          "duration": 0.06578937499999427
        },
        {
          "name": "D5",
          "midi": 74,
          "time": 86.97355374999945,
          "velocity": 0.7874015748031497,
          "duration": 0.06578937499999427
        },
        {
          "name": "F5",
          "midi": 77,
          "time": 86.97355374999945,
          "velocity": 0.7874015748031497,
          "duration": 0.06578937499999427
        },
        {
          "name": "D#6",
          "midi": 87,
          "time": 86.97355374999945,
          "velocity": 0.7874015748031497,
          "duration": 0.06578937499999427
        },
        {
          "name": "F6",
          "midi": 89,
          "time": 86.97355374999945,
          "velocity": 0.7874015748031497,
          "duration": 0.06578937499999427
        },
        {
          "name": "D7",
          "midi": 98,
          "time": 86.97355374999945,
          "velocity": 0.7874015748031497,
          "duration": 0.06578937499999427
        },
        {
          "name": "F7",
          "midi": 101,
          "time": 86.97355374999945,
          "velocity": 0.7874015748031497,
          "duration": 0.06578937499999427
        },
        {
          "name": "D6",
          "midi": 86,
          "time": 87.10622898958277,
          "velocity": 0.7874015748031497,
          "duration": 0.06469288541666174
        },
        {
          "name": "F6",
          "midi": 89,
          "time": 87.10622898958277,
          "velocity": 0.7874015748031497,
          "duration": 0.06469288541666174
        },
        {
          "name": "C#7",
          "midi": 97,
          "time": 87.10622898958277,
          "velocity": 0.7874015748031497,
          "duration": 0.06469288541666174
        },
        {
          "name": "F7",
          "midi": 101,
          "time": 87.10622898958277,
          "velocity": 0.7874015748031497,
          "duration": 0.06469288541666174
        },
        {
          "name": "C#4",
          "midi": 61,
          "time": 87.36828999999943,
          "velocity": 0.7874015748031497,
          "duration": 0.06578937499999427
        },
        {
          "name": "F#4",
          "midi": 66,
          "time": 87.36828999999943,
          "velocity": 0.7874015748031497,
          "duration": 0.06578937499999427
        },
        {
          "name": "C#5",
          "midi": 73,
          "time": 87.36828999999943,
          "velocity": 0.7874015748031497,
          "duration": 0.06578937499999427
        },
        {
          "name": "F#5",
          "midi": 78,
          "time": 87.36828999999943,
          "velocity": 0.7874015748031497,
          "duration": 0.06578937499999427
        },
        {
          "name": "D6",
          "midi": 86,
          "time": 87.36828999999943,
          "velocity": 0.7874015748031497,
          "duration": 0.06578937499999427
        },
        {
          "name": "F#6",
          "midi": 90,
          "time": 87.36828999999943,
          "velocity": 0.7874015748031497,
          "duration": 0.06578937499999427
        },
        {
          "name": "D7",
          "midi": 98,
          "time": 87.36828999999943,
          "velocity": 0.7874015748031497,
          "duration": 0.06578937499999427
        },
        {
          "name": "F#7",
          "midi": 102,
          "time": 87.36828999999943,
          "velocity": 0.7874015748031497,
          "duration": 0.06578937499999427
        },
        {
          "name": "D7",
          "midi": 98,
          "time": 87.49986874999942,
          "velocity": 0.7874015748031497,
          "duration": 0.06578937499999427
        },
        {
          "name": "F#7",
          "midi": 102,
          "time": 87.49986874999942,
          "velocity": 0.7874015748031497,
          "duration": 0.06578937499999427
        },
        {
          "name": "C5",
          "midi": 72,
          "time": 87.63035101041608,
          "velocity": 0.7874015748031497,
          "duration": 0.06578937499999427
        },
        {
          "name": "F5",
          "midi": 77,
          "time": 87.63035101041608,
          "velocity": 0.7874015748031497,
          "duration": 0.06578937499999427
        },
        {
          "name": "C#6",
          "midi": 85,
          "time": 87.63035101041608,
          "velocity": 0.7874015748031497,
          "duration": 0.06578937499999427
        },
        {
          "name": "F6",
          "midi": 89,
          "time": 87.63035101041608,
          "velocity": 0.7874015748031497,
          "duration": 0.06578937499999427
        },
        {
          "name": "C#7",
          "midi": 97,
          "time": 87.63035101041608,
          "velocity": 0.7874015748031497,
          "duration": 0.06578937499999427
        },
        {
          "name": "F7",
          "midi": 101,
          "time": 87.63035101041608,
          "velocity": 0.7874015748031497,
          "duration": 0.06578937499999427
        },
        {
          "name": "C#4",
          "midi": 61,
          "time": 87.7630262499994,
          "velocity": 0.7874015748031497,
          "duration": 0.06578937499999427
        },
        {
          "name": "F#4",
          "midi": 66,
          "time": 87.7630262499994,
          "velocity": 0.7874015748031497,
          "duration": 0.06578937499999427
        },
        {
          "name": "C#5",
          "midi": 73,
          "time": 87.7630262499994,
          "velocity": 0.7874015748031497,
          "duration": 0.06578937499999427
        },
        {
          "name": "F5",
          "midi": 77,
          "time": 87.7630262499994,
          "velocity": 0.7874015748031497,
          "duration": 0.06578937499999427
        },
        {
          "name": "D6",
          "midi": 86,
          "time": 87.7630262499994,
          "velocity": 0.7874015748031497,
          "duration": 0.06578937499999427
        },
        {
          "name": "F6",
          "midi": 89,
          "time": 87.7630262499994,
          "velocity": 0.7874015748031497,
          "duration": 0.06578937499999427
        },
        {
          "name": "D7",
          "midi": 98,
          "time": 87.7630262499994,
          "velocity": 0.7874015748031497,
          "duration": 0.06578937499999427
        },
        {
          "name": "F7",
          "midi": 101,
          "time": 87.7630262499994,
          "velocity": 0.7874015748031497,
          "duration": 0.06578937499999427
        },
        {
          "name": "D6",
          "midi": 86,
          "time": 88.02508726041606,
          "velocity": 0.7874015748031497,
          "duration": 0.06578937499999427
        },
        {
          "name": "F#6",
          "midi": 90,
          "time": 88.02508726041606,
          "velocity": 0.7874015748031497,
          "duration": 0.06578937499999427
        },
        {
          "name": "D7",
          "midi": 98,
          "time": 88.02508726041606,
          "velocity": 0.7874015748031497,
          "duration": 0.06578937499999427
        },
        {
          "name": "F#7",
          "midi": 102,
          "time": 88.02508726041606,
          "velocity": 0.7874015748031497,
          "duration": 0.06578937499999427
        },
        {
          "name": "C4",
          "midi": 60,
          "time": 88.15776249999938,
          "velocity": 0.7874015748031497,
          "duration": 0.06578937499999427
        },
        {
          "name": "F4",
          "midi": 65,
          "time": 88.15776249999938,
          "velocity": 0.7874015748031497,
          "duration": 0.06578937499999427
        },
        {
          "name": "C5",
          "midi": 72,
          "time": 88.15776249999938,
          "velocity": 0.7874015748031497,
          "duration": 0.06578937499999427
        },
        {
          "name": "F5",
          "midi": 77,
          "time": 88.15776249999938,
          "velocity": 0.7874015748031497,
          "duration": 0.06578937499999427
        },
        {
          "name": "C#6",
          "midi": 85,
          "time": 88.15776249999938,
          "velocity": 0.7874015748031497,
          "duration": 0.06578937499999427
        },
        {
          "name": "F6",
          "midi": 89,
          "time": 88.15776249999938,
          "velocity": 0.7874015748031497,
          "duration": 0.06578937499999427
        },
        {
          "name": "C#7",
          "midi": 97,
          "time": 88.15776249999938,
          "velocity": 0.7874015748031497,
          "duration": 0.06578937499999427
        },
        {
          "name": "F7",
          "midi": 101,
          "time": 88.15776249999938,
          "velocity": 0.7874015748031497,
          "duration": 0.06578937499999427
        },
        {
          "name": "D4",
          "midi": 62,
          "time": 88.42091999999937,
          "velocity": 0.7874015748031497,
          "duration": 0.06578937499999427
        },
        {
          "name": "F#4",
          "midi": 66,
          "time": 88.42091999999937,
          "velocity": 0.7874015748031497,
          "duration": 0.06578937499999427
        },
        {
          "name": "D5",
          "midi": 74,
          "time": 88.42091999999937,
          "velocity": 0.7874015748031497,
          "duration": 0.06578937499999427
        },
        {
          "name": "F#5",
          "midi": 78,
          "time": 88.42091999999937,
          "velocity": 0.7874015748031497,
          "duration": 0.06578937499999427
        },
        {
          "name": "D#6",
          "midi": 87,
          "time": 88.42091999999937,
          "velocity": 0.7874015748031497,
          "duration": 0.06578937499999427
        },
        {
          "name": "F#6",
          "midi": 90,
          "time": 88.42091999999937,
          "velocity": 0.7874015748031497,
          "duration": 0.06578937499999427
        },
        {
          "name": "D#7",
          "midi": 99,
          "time": 88.42091999999937,
          "velocity": 0.7874015748031497,
          "duration": 0.06578937499999427
        },
        {
          "name": "F#7",
          "midi": 102,
          "time": 88.42091999999937,
          "velocity": 0.7874015748031497,
          "duration": 0.06578937499999427
        },
        {
          "name": "D#7",
          "midi": 99,
          "time": 88.55249874999936,
          "velocity": 0.7874015748031497,
          "duration": 0.06578937499999427
        },
        {
          "name": "F#7",
          "midi": 102,
          "time": 88.55249874999936,
          "velocity": 0.7874015748031497,
          "duration": 0.06578937499999427
        },
        {
          "name": "C#5",
          "midi": 73,
          "time": 88.68407749999935,
          "velocity": 0.7874015748031497,
          "duration": 0.06578937499999427
        },
        {
          "name": "F5",
          "midi": 77,
          "time": 88.68407749999935,
          "velocity": 0.7874015748031497,
          "duration": 0.06578937499999427
        },
        {
          "name": "D6",
          "midi": 86,
          "time": 88.68407749999935,
          "velocity": 0.7874015748031497,
          "duration": 0.06578937499999427
        },
        {
          "name": "F6",
          "midi": 89,
          "time": 88.68407749999935,
          "velocity": 0.7874015748031497,
          "duration": 0.06578937499999427
        },
        {
          "name": "D7",
          "midi": 98,
          "time": 88.68407749999935,
          "velocity": 0.7874015748031497,
          "duration": 0.06578937499999427
        },
        {
          "name": "F7",
          "midi": 101,
          "time": 88.68407749999935,
          "velocity": 0.7874015748031497,
          "duration": 0.06578937499999427
        },
        {
          "name": "D4",
          "midi": 62,
          "time": 88.81565624999934,
          "velocity": 0.7874015748031497,
          "duration": 0.06578937499999427
        },
        {
          "name": "F#4",
          "midi": 66,
          "time": 88.81565624999934,
          "velocity": 0.7874015748031497,
          "duration": 0.06578937499999427
        },
        {
          "name": "D5",
          "midi": 74,
          "time": 88.81565624999934,
          "velocity": 0.7874015748031497,
          "duration": 0.06578937499999427
        },
        {
          "name": "F5",
          "midi": 77,
          "time": 88.81565624999934,
          "velocity": 0.7874015748031497,
          "duration": 0.06578937499999427
        },
        {
          "name": "D#6",
          "midi": 87,
          "time": 88.81565624999934,
          "velocity": 0.7874015748031497,
          "duration": 0.06578937499999427
        },
        {
          "name": "F6",
          "midi": 89,
          "time": 88.81565624999934,
          "velocity": 0.7874015748031497,
          "duration": 0.06578937499999427
        },
        {
          "name": "D#7",
          "midi": 99,
          "time": 88.81565624999934,
          "velocity": 0.7874015748031497,
          "duration": 0.06578937499999427
        },
        {
          "name": "F7",
          "midi": 101,
          "time": 88.81565624999934,
          "velocity": 0.7874015748031497,
          "duration": 0.06578937499999427
        },
        {
          "name": "D7",
          "midi": 98,
          "time": 88.94723499999932,
          "velocity": 0.7874015748031497,
          "duration": 0.06578937499999427
        },
        {
          "name": "F7",
          "midi": 101,
          "time": 88.94723499999932,
          "velocity": 0.7874015748031497,
          "duration": 0.06578937499999427
        },
        {
          "name": "C#4",
          "midi": 61,
          "time": 89.07881374999931,
          "velocity": 0.7874015748031497,
          "duration": 0.06578937499999427
        },
        {
          "name": "F4",
          "midi": 65,
          "time": 89.07881374999931,
          "velocity": 0.7874015748031497,
          "duration": 0.06578937499999427
        },
        {
          "name": "C#5",
          "midi": 73,
          "time": 89.07881374999931,
          "velocity": 0.7874015748031497,
          "duration": 0.06578937499999427
        },
        {
          "name": "F5",
          "midi": 77,
          "time": 89.07881374999931,
          "velocity": 0.7874015748031497,
          "duration": 0.06578937499999427
        },
        {
          "name": "D6",
          "midi": 86,
          "time": 89.07881374999931,
          "velocity": 0.7874015748031497,
          "duration": 0.06578937499999427
        },
        {
          "name": "F6",
          "midi": 89,
          "time": 89.07881374999931,
          "velocity": 0.7874015748031497,
          "duration": 0.06578937499999427
        },
        {
          "name": "C#7",
          "midi": 97,
          "time": 89.07881374999931,
          "velocity": 0.7874015748031497,
          "duration": 0.06578937499999427
        },
        {
          "name": "F7",
          "midi": 101,
          "time": 89.07881374999931,
          "velocity": 0.7874015748031497,
          "duration": 0.06578937499999427
        },
        {
          "name": "C#6",
          "midi": 85,
          "time": 89.2103924999993,
          "velocity": 0.7874015748031497,
          "duration": 0.06578937499999427
        },
        {
          "name": "F6",
          "midi": 89,
          "time": 89.2103924999993,
          "velocity": 0.7874015748031497,
          "duration": 0.06578937499999427
        },
        {
          "name": "C#7",
          "midi": 97,
          "time": 89.2103924999993,
          "velocity": 0.7874015748031497,
          "duration": 0.06578937499999427
        },
        {
          "name": "F#7",
          "midi": 102,
          "time": 89.2103924999993,
          "velocity": 0.7874015748031497,
          "duration": 0.06578937499999427
        },
        {
          "name": "C4",
          "midi": 60,
          "time": 89.47354999999929,
          "velocity": 0.7874015748031497,
          "duration": 1.051533510416661
        },
        {
          "name": "F#4",
          "midi": 66,
          "time": 89.47354999999929,
          "velocity": 0.7874015748031497,
          "duration": 1.0504370208333285
        },
        {
          "name": "C5",
          "midi": 72,
          "time": 89.47354999999929,
          "velocity": 0.7874015748031497,
          "duration": 1.051533510416661
        },
        {
          "name": "F#5",
          "midi": 78,
          "time": 89.47354999999929,
          "velocity": 0.7874015748031497,
          "duration": 1.0504370208333285
        },
        {
          "name": "C6",
          "midi": 84,
          "time": 89.47354999999929,
          "velocity": 0.7874015748031497,
          "duration": 1.051533510416661
        },
        {
          "name": "F#6",
          "midi": 90,
          "time": 89.47354999999929,
          "velocity": 0.7874015748031497,
          "duration": 1.0504370208333285
        },
        {
          "name": "C7",
          "midi": 96,
          "time": 89.47354999999929,
          "velocity": 0.7874015748031497,
          "duration": 1.051533510416661
        },
        {
          "name": "F#7",
          "midi": 102,
          "time": 89.47354999999929,
          "velocity": 0.7874015748031497,
          "duration": 1.0504370208333285
        },
        {
          "name": "D4",
          "midi": 62,
          "time": 90.52617999999929,
          "velocity": 0.7874015748031497,
          "duration": 0.06469288541666174
        },
        {
          "name": "F#4",
          "midi": 66,
          "time": 90.52617999999929,
          "velocity": 0.7874015748031497,
          "duration": 0.06469288541666174
        },
        {
          "name": "D5",
          "midi": 74,
          "time": 90.52617999999929,
          "velocity": 0.7874015748031497,
          "duration": 0.06469288541666174
        },
        {
          "name": "F#5",
          "midi": 78,
          "time": 90.52617999999929,
          "velocity": 0.7874015748031497,
          "duration": 0.06469288541666174
        },
        {
          "name": "D#6",
          "midi": 87,
          "time": 90.52617999999929,
          "velocity": 0.7874015748031497,
          "duration": 0.06469288541666174
        },
        {
          "name": "F#6",
          "midi": 90,
          "time": 90.52617999999929,
          "velocity": 0.7874015748031497,
          "duration": 0.06469288541666174
        },
        {
          "name": "D#7",
          "midi": 99,
          "time": 90.52617999999929,
          "velocity": 0.7874015748031497,
          "duration": 0.06469288541666174
        },
        {
          "name": "F#7",
          "midi": 102,
          "time": 90.52617999999929,
          "velocity": 0.7874015748031497,
          "duration": 0.06469288541666174
        },
        {
          "name": "D#7",
          "midi": 99,
          "time": 90.65775874999927,
          "velocity": 0.7874015748031497,
          "duration": 0.06469288541666174
        },
        {
          "name": "F#7",
          "midi": 102,
          "time": 90.65775874999927,
          "velocity": 0.7874015748031497,
          "duration": 0.06469288541666174
        },
        {
          "name": "C#5",
          "midi": 73,
          "time": 90.78824101041593,
          "velocity": 0.7874015748031497,
          "duration": 0.06469288541666174
        },
        {
          "name": "F5",
          "midi": 77,
          "time": 90.78824101041593,
          "velocity": 0.7874015748031497,
          "duration": 0.06469288541666174
        },
        {
          "name": "D6",
          "midi": 86,
          "time": 90.78824101041593,
          "velocity": 0.7874015748031497,
          "duration": 0.06469288541666174
        },
        {
          "name": "F6",
          "midi": 89,
          "time": 90.78824101041593,
          "velocity": 0.7874015748031497,
          "duration": 0.06469288541666174
        },
        {
          "name": "D7",
          "midi": 98,
          "time": 90.78824101041593,
          "velocity": 0.7874015748031497,
          "duration": 0.06469288541666174
        },
        {
          "name": "F7",
          "midi": 101,
          "time": 90.78824101041593,
          "velocity": 0.7874015748031497,
          "duration": 0.06469288541666174
        },
        {
          "name": "D4",
          "midi": 62,
          "time": 90.92091624999927,
          "velocity": 0.7874015748031497,
          "duration": 0.06469288541666174
        },
        {
          "name": "F#4",
          "midi": 66,
          "time": 90.92091624999927,
          "velocity": 0.7874015748031497,
          "duration": 0.06469288541666174
        },
        {
          "name": "D5",
          "midi": 74,
          "time": 90.92091624999927,
          "velocity": 0.7874015748031497,
          "duration": 0.06469288541666174
        },
        {
          "name": "F5",
          "midi": 77,
          "time": 90.92091624999927,
          "velocity": 0.7874015748031497,
          "duration": 0.06469288541666174
        },
        {
          "name": "D#6",
          "midi": 87,
          "time": 90.92091624999927,
          "velocity": 0.7874015748031497,
          "duration": 0.06469288541666174
        },
        {
          "name": "F6",
          "midi": 89,
          "time": 90.92091624999927,
          "velocity": 0.7874015748031497,
          "duration": 0.06469288541666174
        },
        {
          "name": "D#7",
          "midi": 99,
          "time": 90.92091624999927,
          "velocity": 0.7874015748031497,
          "duration": 0.06469288541666174
        },
        {
          "name": "F7",
          "midi": 101,
          "time": 90.92091624999927,
          "velocity": 0.7874015748031497,
          "duration": 0.06469288541666174
        },
        {
          "name": "D7",
          "midi": 98,
          "time": 91.05249499999925,
          "velocity": 0.7874015748031497,
          "duration": 0.06469288541666174
        },
        {
          "name": "F7",
          "midi": 101,
          "time": 91.05249499999925,
          "velocity": 0.7874015748031497,
          "duration": 0.06469288541666174
        },
        {
          "name": "C#4",
          "midi": 61,
          "time": 91.18297726041591,
          "velocity": 0.7874015748031497,
          "duration": 0.06578937499999427
        },
        {
          "name": "F4",
          "midi": 65,
          "time": 91.18297726041591,
          "velocity": 0.7874015748031497,
          "duration": 0.06578937499999427
        },
        {
          "name": "C#5",
          "midi": 73,
          "time": 91.18297726041591,
          "velocity": 0.7874015748031497,
          "duration": 0.06578937499999427
        },
        {
          "name": "F5",
          "midi": 77,
          "time": 91.18297726041591,
          "velocity": 0.7874015748031497,
          "duration": 0.06578937499999427
        },
        {
          "name": "D6",
          "midi": 86,
          "time": 91.18297726041591,
          "velocity": 0.7874015748031497,
          "duration": 0.06578937499999427
        },
        {
          "name": "F6",
          "midi": 89,
          "time": 91.18297726041591,
          "velocity": 0.7874015748031497,
          "duration": 0.06578937499999427
        },
        {
          "name": "C#7",
          "midi": 97,
          "time": 91.18297726041591,
          "velocity": 0.7874015748031497,
          "duration": 0.06578937499999427
        },
        {
          "name": "F7",
          "midi": 101,
          "time": 91.18297726041591,
          "velocity": 0.7874015748031497,
          "duration": 0.06578937499999427
        },
        {
          "name": "C#6",
          "midi": 85,
          "time": 91.31565249999923,
          "velocity": 0.7874015748031497,
          "duration": 0.06469288541666174
        },
        {
          "name": "F6",
          "midi": 89,
          "time": 91.31565249999923,
          "velocity": 0.7874015748031497,
          "duration": 0.06469288541666174
        },
        {
          "name": "D7",
          "midi": 98,
          "time": 91.31565249999923,
          "velocity": 0.7874015748031497,
          "duration": 0.06469288541666174
        },
        {
          "name": "F7",
          "midi": 101,
          "time": 91.31565249999923,
          "velocity": 0.7874015748031497,
          "duration": 0.06469288541666174
        },
        {
          "name": "D7",
          "midi": 98,
          "time": 91.44613476041589,
          "velocity": 0.7874015748031497,
          "duration": 0.06578937499999427
        },
        {
          "name": "F#7",
          "midi": 102,
          "time": 91.44613476041589,
          "velocity": 0.7874015748031497,
          "duration": 0.06578937499999427
        },
        {
          "name": "C#4",
          "midi": 61,
          "time": 91.57880999999921,
          "velocity": 0.7874015748031497,
          "duration": 0.39254327083332896
        },
        {
          "name": "F#4",
          "midi": 66,
          "time": 91.57880999999921,
          "velocity": 0.7874015748031497,
          "duration": 0.39254327083332896
        },
        {
          "name": "C#5",
          "midi": 73,
          "time": 91.57880999999921,
          "velocity": 0.7874015748031497,
          "duration": 0.39254327083332896
        },
        {
          "name": "F#5",
          "midi": 78,
          "time": 91.57880999999921,
          "velocity": 0.7874015748031497,
          "duration": 0.39254327083332896
        },
        {
          "name": "C#6",
          "midi": 85,
          "time": 91.57880999999921,
          "velocity": 0.7874015748031497,
          "duration": 0.39254327083332896
        },
        {
          "name": "F#6",
          "midi": 90,
          "time": 91.57880999999921,
          "velocity": 0.7874015748031497,
          "duration": 0.39254327083332896
        },
        {
          "name": "C#7",
          "midi": 97,
          "time": 91.57880999999921,
          "velocity": 0.7874015748031497,
          "duration": 0.39254327083332896
        },
        {
          "name": "F7",
          "midi": 101,
          "time": 91.57880999999921,
          "velocity": 0.7874015748031497,
          "duration": 0.39254327083332896
        },
        {
          "name": "D4",
          "midi": 62,
          "time": 91.97464273958254,
          "velocity": 0.7874015748031497,
          "duration": 0.3903502916666639
        },
        {
          "name": "F#4",
          "midi": 66,
          "time": 91.97464273958254,
          "velocity": 0.7874015748031497,
          "duration": 0.3903502916666639
        },
        {
          "name": "D5",
          "midi": 74,
          "time": 91.97464273958254,
          "velocity": 0.7874015748031497,
          "duration": 0.3903502916666639
        },
        {
          "name": "F#5",
          "midi": 78,
          "time": 91.97464273958254,
          "velocity": 0.7874015748031497,
          "duration": 0.3903502916666639
        },
        {
          "name": "D6",
          "midi": 86,
          "time": 91.97464273958254,
          "velocity": 0.7874015748031497,
          "duration": 0.3903502916666639
        },
        {
          "name": "F#6",
          "midi": 90,
          "time": 91.97464273958254,
          "velocity": 0.7874015748031497,
          "duration": 0.3903502916666639
        },
        {
          "name": "D7",
          "midi": 98,
          "time": 91.97464273958254,
          "velocity": 0.7874015748031497,
          "duration": 0.3903502916666639
        },
        {
          "name": "F#7",
          "midi": 102,
          "time": 91.97464273958254,
          "velocity": 0.7874015748031497,
          "duration": 0.3903502916666639
        },
        {
          "name": "C4",
          "midi": 60,
          "time": 92.36718601041586,
          "velocity": 0.7874015748031497,
          "duration": 0.06578937499999427
        },
        {
          "name": "F#4",
          "midi": 66,
          "time": 92.36718601041586,
          "velocity": 0.7874015748031497,
          "duration": 0.06578937499999427
        },
        {
          "name": "C5",
          "midi": 72,
          "time": 92.36718601041586,
          "velocity": 0.7874015748031497,
          "duration": 0.06578937499999427
        },
        {
          "name": "F#5",
          "midi": 78,
          "time": 92.36718601041586,
          "velocity": 0.7874015748031497,
          "duration": 0.06578937499999427
        },
        {
          "name": "C6",
          "midi": 84,
          "time": 92.36718601041586,
          "velocity": 0.7874015748031497,
          "duration": 0.06578937499999427
        },
        {
          "name": "F#6",
          "midi": 90,
          "time": 92.36718601041586,
          "velocity": 0.7874015748031497,
          "duration": 0.06578937499999427
        },
        {
          "name": "C7",
          "midi": 96,
          "time": 92.36718601041586,
          "velocity": 0.7874015748031497,
          "duration": 0.06578937499999427
        },
        {
          "name": "F#7",
          "midi": 102,
          "time": 92.36718601041586,
          "velocity": 0.7874015748031497,
          "duration": 0.06578937499999427
        },
        {
          "name": "D4",
          "midi": 62,
          "time": 92.63143999999919,
          "velocity": 0.7874015748031497,
          "duration": 0.06578937499999427
        },
        {
          "name": "F#4",
          "midi": 66,
          "time": 92.63143999999919,
          "velocity": 0.7874015748031497,
          "duration": 0.06578937499999427
        },
        {
          "name": "D5",
          "midi": 74,
          "time": 92.63143999999919,
          "velocity": 0.7874015748031497,
          "duration": 0.06578937499999427
        },
        {
          "name": "F#5",
          "midi": 78,
          "time": 92.63143999999919,
          "velocity": 0.7874015748031497,
          "duration": 0.06578937499999427
        },
        {
          "name": "D#6",
          "midi": 87,
          "time": 92.63143999999919,
          "velocity": 0.7874015748031497,
          "duration": 0.06578937499999427
        },
        {
          "name": "F#6",
          "midi": 90,
          "time": 92.63143999999919,
          "velocity": 0.7874015748031497,
          "duration": 0.06578937499999427
        },
        {
          "name": "D#7",
          "midi": 99,
          "time": 92.63143999999919,
          "velocity": 0.7874015748031497,
          "duration": 0.06578937499999427
        },
        {
          "name": "F#7",
          "midi": 102,
          "time": 92.63143999999919,
          "velocity": 0.7874015748031497,
          "duration": 0.06578937499999427
        },
        {
          "name": "D#7",
          "midi": 99,
          "time": 92.76301874999918,
          "velocity": 0.7874015748031497,
          "duration": 0.06578937499999427
        },
        {
          "name": "F#7",
          "midi": 102,
          "time": 92.76301874999918,
          "velocity": 0.7874015748031497,
          "duration": 0.06578937499999427
        },
        {
          "name": "C#5",
          "midi": 73,
          "time": 92.89350101041583,
          "velocity": 0.7874015748031497,
          "duration": 0.06578937499999427
        },
        {
          "name": "F5",
          "midi": 77,
          "time": 92.89350101041583,
          "velocity": 0.7874015748031497,
          "duration": 0.06578937499999427
        },
        {
          "name": "D6",
          "midi": 86,
          "time": 92.89350101041583,
          "velocity": 0.7874015748031497,
          "duration": 0.06578937499999427
        },
        {
          "name": "F6",
          "midi": 89,
          "time": 92.89350101041583,
          "velocity": 0.7874015748031497,
          "duration": 0.06578937499999427
        },
        {
          "name": "D7",
          "midi": 98,
          "time": 92.89350101041583,
          "velocity": 0.7874015748031497,
          "duration": 0.06578937499999427
        },
        {
          "name": "F7",
          "midi": 101,
          "time": 92.89350101041583,
          "velocity": 0.7874015748031497,
          "duration": 0.06578937499999427
        },
        {
          "name": "D4",
          "midi": 62,
          "time": 93.02507976041582,
          "velocity": 0.7874015748031497,
          "duration": 0.06578937499999427
        },
        {
          "name": "F#4",
          "midi": 66,
          "time": 93.02507976041582,
          "velocity": 0.7874015748031497,
          "duration": 0.06578937499999427
        },
        {
          "name": "D5",
          "midi": 74,
          "time": 93.02507976041582,
          "velocity": 0.7874015748031497,
          "duration": 0.06578937499999427
        },
        {
          "name": "F5",
          "midi": 77,
          "time": 93.02507976041582,
          "velocity": 0.7874015748031497,
          "duration": 0.06578937499999427
        },
        {
          "name": "D#6",
          "midi": 87,
          "time": 93.02507976041582,
          "velocity": 0.7874015748031497,
          "duration": 0.06578937499999427
        },
        {
          "name": "F6",
          "midi": 89,
          "time": 93.02507976041582,
          "velocity": 0.7874015748031497,
          "duration": 0.06578937499999427
        },
        {
          "name": "D#7",
          "midi": 99,
          "time": 93.02507976041582,
          "velocity": 0.7874015748031497,
          "duration": 0.06578937499999427
        },
        {
          "name": "F7",
          "midi": 101,
          "time": 93.02507976041582,
          "velocity": 0.7874015748031497,
          "duration": 0.06578937499999427
        },
        {
          "name": "D7",
          "midi": 98,
          "time": 93.15775499999914,
          "velocity": 0.7874015748031497,
          "duration": 0.06469288541666174
        },
        {
          "name": "F7",
          "midi": 101,
          "time": 93.15775499999914,
          "velocity": 0.7874015748031497,
          "duration": 0.06469288541666174
        },
        {
          "name": "C#4",
          "midi": 61,
          "time": 93.28933374999913,
          "velocity": 0.7874015748031497,
          "duration": 0.06469288541666174
        },
        {
          "name": "F4",
          "midi": 65,
          "time": 93.28933374999913,
          "velocity": 0.7874015748031497,
          "duration": 0.06469288541666174
        },
        {
          "name": "C#5",
          "midi": 73,
          "time": 93.28933374999913,
          "velocity": 0.7874015748031497,
          "duration": 0.06469288541666174
        },
        {
          "name": "F5",
          "midi": 77,
          "time": 93.28933374999913,
          "velocity": 0.7874015748031497,
          "duration": 0.06469288541666174
        },
        {
          "name": "D6",
          "midi": 86,
          "time": 93.28933374999913,
          "velocity": 0.7874015748031497,
          "duration": 0.06469288541666174
        },
        {
          "name": "F6",
          "midi": 89,
          "time": 93.28933374999913,
          "velocity": 0.7874015748031497,
          "duration": 0.06469288541666174
        },
        {
          "name": "C#7",
          "midi": 97,
          "time": 93.28933374999913,
          "velocity": 0.7874015748031497,
          "duration": 0.06469288541666174
        },
        {
          "name": "F7",
          "midi": 101,
          "time": 93.28933374999913,
          "velocity": 0.7874015748031497,
          "duration": 0.06469288541666174
        },
        {
          "name": "C#6",
          "midi": 85,
          "time": 93.42091249999912,
          "velocity": 0.7874015748031497,
          "duration": 0.06469288541666174
        },
        {
          "name": "F6",
          "midi": 89,
          "time": 93.42091249999912,
          "velocity": 0.7874015748031497,
          "duration": 0.06469288541666174
        },
        {
          "name": "C#7",
          "midi": 97,
          "time": 93.42091249999912,
          "velocity": 0.7874015748031497,
          "duration": 0.06469288541666174
        },
        {
          "name": "F#7",
          "midi": 102,
          "time": 93.42091249999912,
          "velocity": 0.7874015748031497,
          "duration": 0.06469288541666174
        },
        {
          "name": "C4",
          "midi": 60,
          "time": 93.68406999999911,
          "velocity": 0.7874015748031497,
          "duration": 1.051533510416661
        },
        {
          "name": "F#4",
          "midi": 66,
          "time": 93.68406999999911,
          "velocity": 0.7874015748031497,
          "duration": 1.0504370208333285
        },
        {
          "name": "C5",
          "midi": 72,
          "time": 93.68406999999911,
          "velocity": 0.7874015748031497,
          "duration": 1.051533510416661
        },
        {
          "name": "F#5",
          "midi": 78,
          "time": 93.68406999999911,
          "velocity": 0.7874015748031497,
          "duration": 1.0504370208333285
        },
        {
          "name": "C6",
          "midi": 84,
          "time": 93.68406999999911,
          "velocity": 0.7874015748031497,
          "duration": 1.051533510416661
        },
        {
          "name": "F#6",
          "midi": 90,
          "time": 93.68406999999911,
          "velocity": 0.7874015748031497,
          "duration": 1.0504370208333285
        },
        {
          "name": "C7",
          "midi": 96,
          "time": 93.68406999999911,
          "velocity": 0.7874015748031497,
          "duration": 1.051533510416661
        },
        {
          "name": "F#7",
          "midi": 102,
          "time": 93.68406999999911,
          "velocity": 0.7874015748031497,
          "duration": 1.0504370208333285
        },
        {
          "name": "D4",
          "midi": 62,
          "time": 94.7366999999991,
          "velocity": 0.7874015748031497,
          "duration": 0.06578937499999427
        },
        {
          "name": "F#4",
          "midi": 66,
          "time": 94.7366999999991,
          "velocity": 0.7874015748031497,
          "duration": 0.06578937499999427
        },
        {
          "name": "D5",
          "midi": 74,
          "time": 94.7366999999991,
          "velocity": 0.7874015748031497,
          "duration": 0.06578937499999427
        },
        {
          "name": "F#5",
          "midi": 78,
          "time": 94.7366999999991,
          "velocity": 0.7874015748031497,
          "duration": 0.06578937499999427
        },
        {
          "name": "D#6",
          "midi": 87,
          "time": 94.7366999999991,
          "velocity": 0.7874015748031497,
          "duration": 0.06578937499999427
        },
        {
          "name": "F#6",
          "midi": 90,
          "time": 94.7366999999991,
          "velocity": 0.7874015748031497,
          "duration": 0.06578937499999427
        },
        {
          "name": "D#7",
          "midi": 99,
          "time": 94.7366999999991,
          "velocity": 0.7874015748031497,
          "duration": 0.06578937499999427
        },
        {
          "name": "F#7",
          "midi": 102,
          "time": 94.7366999999991,
          "velocity": 0.7874015748031497,
          "duration": 0.06578937499999427
        },
        {
          "name": "D#7",
          "midi": 99,
          "time": 94.86827874999909,
          "velocity": 0.7874015748031497,
          "duration": 0.06578937499999427
        },
        {
          "name": "F#7",
          "midi": 102,
          "time": 94.86827874999909,
          "velocity": 0.7874015748031497,
          "duration": 0.06578937499999427
        },
        {
          "name": "C#5",
          "midi": 73,
          "time": 95.00095398958241,
          "velocity": 0.7874015748031497,
          "duration": 0.06469288541666174
        },
        {
          "name": "F5",
          "midi": 77,
          "time": 95.00095398958241,
          "velocity": 0.7874015748031497,
          "duration": 0.06469288541666174
        },
        {
          "name": "D6",
          "midi": 86,
          "time": 95.00095398958241,
          "velocity": 0.7874015748031497,
          "duration": 0.06469288541666174
        },
        {
          "name": "F6",
          "midi": 89,
          "time": 95.00095398958241,
          "velocity": 0.7874015748031497,
          "duration": 0.06469288541666174
        },
        {
          "name": "D7",
          "midi": 98,
          "time": 95.00095398958241,
          "velocity": 0.7874015748031497,
          "duration": 0.06469288541666174
        },
        {
          "name": "F7",
          "midi": 101,
          "time": 95.00095398958241,
          "velocity": 0.7874015748031497,
          "duration": 0.06469288541666174
        },
        {
          "name": "D4",
          "midi": 62,
          "time": 95.13143624999907,
          "velocity": 0.7874015748031497,
          "duration": 0.06469288541666174
        },
        {
          "name": "F#4",
          "midi": 66,
          "time": 95.13143624999907,
          "velocity": 0.7874015748031497,
          "duration": 0.06469288541666174
        },
        {
          "name": "D5",
          "midi": 74,
          "time": 95.13143624999907,
          "velocity": 0.7874015748031497,
          "duration": 0.06469288541666174
        },
        {
          "name": "F5",
          "midi": 77,
          "time": 95.13143624999907,
          "velocity": 0.7874015748031497,
          "duration": 0.06469288541666174
        },
        {
          "name": "D#6",
          "midi": 87,
          "time": 95.13143624999907,
          "velocity": 0.7874015748031497,
          "duration": 0.06469288541666174
        },
        {
          "name": "F6",
          "midi": 89,
          "time": 95.13143624999907,
          "velocity": 0.7874015748031497,
          "duration": 0.06469288541666174
        },
        {
          "name": "D#7",
          "midi": 99,
          "time": 95.13143624999907,
          "velocity": 0.7874015748031497,
          "duration": 0.06469288541666174
        },
        {
          "name": "F7",
          "midi": 101,
          "time": 95.13143624999907,
          "velocity": 0.7874015748031497,
          "duration": 0.06469288541666174
        },
        {
          "name": "D7",
          "midi": 98,
          "time": 95.26301499999906,
          "velocity": 0.7874015748031497,
          "duration": 0.06469288541666174
        },
        {
          "name": "F7",
          "midi": 101,
          "time": 95.26301499999906,
          "velocity": 0.7874015748031497,
          "duration": 0.06469288541666174
        },
        {
          "name": "C#4",
          "midi": 61,
          "time": 95.39349726041571,
          "velocity": 0.7874015748031497,
          "duration": 0.06578937499999427
        },
        {
          "name": "F4",
          "midi": 65,
          "time": 95.39349726041571,
          "velocity": 0.7874015748031497,
          "duration": 0.06578937499999427
        },
        {
          "name": "C#5",
          "midi": 73,
          "time": 95.39349726041571,
          "velocity": 0.7874015748031497,
          "duration": 0.06578937499999427
        },
        {
          "name": "F5",
          "midi": 77,
          "time": 95.39349726041571,
          "velocity": 0.7874015748031497,
          "duration": 0.06578937499999427
        },
        {
          "name": "D6",
          "midi": 86,
          "time": 95.39349726041571,
          "velocity": 0.7874015748031497,
          "duration": 0.06578937499999427
        },
        {
          "name": "F6",
          "midi": 89,
          "time": 95.39349726041571,
          "velocity": 0.7874015748031497,
          "duration": 0.06578937499999427
        },
        {
          "name": "C#7",
          "midi": 97,
          "time": 95.39349726041571,
          "velocity": 0.7874015748031497,
          "duration": 0.06578937499999427
        },
        {
          "name": "F7",
          "midi": 101,
          "time": 95.39349726041571,
          "velocity": 0.7874015748031497,
          "duration": 0.06578937499999427
        },
        {
          "name": "C#6",
          "midi": 85,
          "time": 95.52617249999903,
          "velocity": 0.7874015748031497,
          "duration": 0.06469288541666174
        },
        {
          "name": "F6",
          "midi": 89,
          "time": 95.52617249999903,
          "velocity": 0.7874015748031497,
          "duration": 0.06469288541666174
        },
        {
          "name": "D7",
          "midi": 98,
          "time": 95.52617249999903,
          "velocity": 0.7874015748031497,
          "duration": 0.06469288541666174
        },
        {
          "name": "F7",
          "midi": 101,
          "time": 95.52617249999903,
          "velocity": 0.7874015748031497,
          "duration": 0.06469288541666174
        },
        {
          "name": "D7",
          "midi": 98,
          "time": 95.65884773958237,
          "velocity": 0.7874015748031497,
          "duration": 0.06469288541666174
        },
        {
          "name": "F#7",
          "midi": 102,
          "time": 95.65884773958237,
          "velocity": 0.7874015748031497,
          "duration": 0.06469288541666174
        },
        {
          "name": "C#4",
          "midi": 61,
          "time": 95.78932999999903,
          "velocity": 0.7874015748031497,
          "duration": 0.39144678124999643
        },
        {
          "name": "F#4",
          "midi": 66,
          "time": 95.78932999999903,
          "velocity": 0.7874015748031497,
          "duration": 0.39144678124999643
        },
        {
          "name": "C#5",
          "midi": 73,
          "time": 95.78932999999903,
          "velocity": 0.7874015748031497,
          "duration": 0.39144678124999643
        },
        {
          "name": "F#5",
          "midi": 78,
          "time": 95.78932999999903,
          "velocity": 0.7874015748031497,
          "duration": 0.39144678124999643
        },
        {
          "name": "C#6",
          "midi": 85,
          "time": 95.78932999999903,
          "velocity": 0.7874015748031497,
          "duration": 0.39144678124999643
        },
        {
          "name": "F#6",
          "midi": 90,
          "time": 95.78932999999903,
          "velocity": 0.7874015748031497,
          "duration": 0.39144678124999643
        },
        {
          "name": "C#7",
          "midi": 97,
          "time": 95.78932999999903,
          "velocity": 0.7874015748031497,
          "duration": 0.39144678124999643
        },
        {
          "name": "F7",
          "midi": 101,
          "time": 95.78932999999903,
          "velocity": 0.7874015748031497,
          "duration": 0.39144678124999643
        },
        {
          "name": "D4",
          "midi": 62,
          "time": 96.18406624999902,
          "velocity": 0.7874015748031497,
          "duration": 0.39144678124999643
        },
        {
          "name": "F#4",
          "midi": 66,
          "time": 96.18406624999902,
          "velocity": 0.7874015748031497,
          "duration": 0.39144678124999643
        },
        {
          "name": "D5",
          "midi": 74,
          "time": 96.18406624999902,
          "velocity": 0.7874015748031497,
          "duration": 0.39144678124999643
        },
        {
          "name": "F#5",
          "midi": 78,
          "time": 96.18406624999902,
          "velocity": 0.7874015748031497,
          "duration": 0.39144678124999643
        },
        {
          "name": "D6",
          "midi": 86,
          "time": 96.18406624999902,
          "velocity": 0.7874015748031497,
          "duration": 0.39144678124999643
        },
        {
          "name": "F#6",
          "midi": 90,
          "time": 96.18406624999902,
          "velocity": 0.7874015748031497,
          "duration": 0.39144678124999643
        },
        {
          "name": "D7",
          "midi": 98,
          "time": 96.18406624999902,
          "velocity": 0.7874015748031497,
          "duration": 0.39144678124999643
        },
        {
          "name": "F#7",
          "midi": 102,
          "time": 96.18406624999902,
          "velocity": 0.7874015748031497,
          "duration": 0.39144678124999643
        },
        {
          "name": "C4",
          "midi": 60,
          "time": 96.57770601041568,
          "velocity": 0.7874015748031497,
          "duration": 0.06578937499999427
        },
        {
          "name": "F#4",
          "midi": 66,
          "time": 96.57770601041568,
          "velocity": 0.7874015748031497,
          "duration": 0.06578937499999427
        },
        {
          "name": "C5",
          "midi": 72,
          "time": 96.57770601041568,
          "velocity": 0.7874015748031497,
          "duration": 0.06578937499999427
        },
        {
          "name": "F#5",
          "midi": 78,
          "time": 96.57770601041568,
          "velocity": 0.7874015748031497,
          "duration": 0.06578937499999427
        },
        {
          "name": "C6",
          "midi": 84,
          "time": 96.57770601041568,
          "velocity": 0.7874015748031497,
          "duration": 0.06578937499999427
        },
        {
          "name": "F#6",
          "midi": 90,
          "time": 96.57770601041568,
          "velocity": 0.7874015748031497,
          "duration": 0.06578937499999427
        },
        {
          "name": "C7",
          "midi": 96,
          "time": 96.57770601041568,
          "velocity": 0.7874015748031497,
          "duration": 0.06578937499999427
        },
        {
          "name": "F#7",
          "midi": 102,
          "time": 96.57770601041568,
          "velocity": 0.7874015748031497,
          "duration": 0.06578937499999427
        },
        {
          "name": "D4",
          "midi": 62,
          "time": 96.841959999999,
          "velocity": 0.7874015748031497,
          "duration": 0.06578937499999427
        },
        {
          "name": "F#4",
          "midi": 66,
          "time": 96.841959999999,
          "velocity": 0.7874015748031497,
          "duration": 0.06578937499999427
        },
        {
          "name": "D#5",
          "midi": 75,
          "time": 96.841959999999,
          "velocity": 0.7874015748031497,
          "duration": 0.06578937499999427
        },
        {
          "name": "F#5",
          "midi": 78,
          "time": 96.841959999999,
          "velocity": 0.7874015748031497,
          "duration": 0.06578937499999427
        },
        {
          "name": "E6",
          "midi": 88,
          "time": 96.841959999999,
          "velocity": 0.7874015748031497,
          "duration": 0.06578937499999427
        },
        {
          "name": "F#6",
          "midi": 90,
          "time": 96.841959999999,
          "velocity": 0.7874015748031497,
          "duration": 0.06578937499999427
        },
        {
          "name": "E7",
          "midi": 100,
          "time": 96.841959999999,
          "velocity": 0.7874015748031497,
          "duration": 0.06578937499999427
        },
        {
          "name": "F#7",
          "midi": 102,
          "time": 96.841959999999,
          "velocity": 0.7874015748031497,
          "duration": 0.06578937499999427
        },
        {
          "name": "E7",
          "midi": 100,
          "time": 96.97463523958233,
          "velocity": 0.7874015748031497,
          "duration": 0.06469288541666174
        },
        {
          "name": "F#7",
          "midi": 102,
          "time": 96.97463523958233,
          "velocity": 0.7874015748031497,
          "duration": 0.06469288541666174
        },
        {
          "name": "D5",
          "midi": 74,
          "time": 97.10511749999898,
          "velocity": 0.7874015748031497,
          "duration": 0.06578937499999427
        },
        {
          "name": "F5",
          "midi": 77,
          "time": 97.10511749999898,
          "velocity": 0.7874015748031497,
          "duration": 0.06578937499999427
        },
        {
          "name": "D#6",
          "midi": 87,
          "time": 97.10511749999898,
          "velocity": 0.7874015748031497,
          "duration": 0.06578937499999427
        },
        {
          "name": "F6",
          "midi": 89,
          "time": 97.10511749999898,
          "velocity": 0.7874015748031497,
          "duration": 0.06578937499999427
        },
        {
          "name": "D#7",
          "midi": 99,
          "time": 97.10511749999898,
          "velocity": 0.7874015748031497,
          "duration": 0.06578937499999427
        },
        {
          "name": "F7",
          "midi": 101,
          "time": 97.10511749999898,
          "velocity": 0.7874015748031497,
          "duration": 0.06578937499999427
        },
        {
          "name": "D4",
          "midi": 62,
          "time": 97.2377927395823,
          "velocity": 0.7874015748031497,
          "duration": 0.06469288541666174
        },
        {
          "name": "F#4",
          "midi": 66,
          "time": 97.2377927395823,
          "velocity": 0.7874015748031497,
          "duration": 0.06469288541666174
        },
        {
          "name": "D#5",
          "midi": 75,
          "time": 97.2377927395823,
          "velocity": 0.7874015748031497,
          "duration": 0.06469288541666174
        },
        {
          "name": "F5",
          "midi": 77,
          "time": 97.2377927395823,
          "velocity": 0.7874015748031497,
          "duration": 0.06469288541666174
        },
        {
          "name": "E6",
          "midi": 88,
          "time": 97.2377927395823,
          "velocity": 0.7874015748031497,
          "duration": 0.06469288541666174
        },
        {
          "name": "F6",
          "midi": 89,
          "time": 97.2377927395823,
          "velocity": 0.7874015748031497,
          "duration": 0.06469288541666174
        },
        {
          "name": "E7",
          "midi": 100,
          "time": 97.2377927395823,
          "velocity": 0.7874015748031497,
          "duration": 0.06469288541666174
        },
        {
          "name": "F7",
          "midi": 101,
          "time": 97.2377927395823,
          "velocity": 0.7874015748031497,
          "duration": 0.06469288541666174
        },
        {
          "name": "D#7",
          "midi": 99,
          "time": 97.36827499999896,
          "velocity": 0.7874015748031497,
          "duration": 0.06578937499999427
        },
        {
          "name": "F7",
          "midi": 101,
          "time": 97.36827499999896,
          "velocity": 0.7874015748031497,
          "duration": 0.06578937499999427
        },
        {
          "name": "C#4",
          "midi": 61,
          "time": 97.49985374999895,
          "velocity": 0.7874015748031497,
          "duration": 0.06578937499999427
        },
        {
          "name": "F4",
          "midi": 65,
          "time": 97.49985374999895,
          "velocity": 0.7874015748031497,
          "duration": 0.06578937499999427
        },
        {
          "name": "D5",
          "midi": 74,
          "time": 97.49985374999895,
          "velocity": 0.7874015748031497,
          "duration": 0.06578937499999427
        },
        {
          "name": "F5",
          "midi": 77,
          "time": 97.49985374999895,
          "velocity": 0.7874015748031497,
          "duration": 0.06578937499999427
        },
        {
          "name": "D#6",
          "midi": 87,
          "time": 97.49985374999895,
          "velocity": 0.7874015748031497,
          "duration": 0.06578937499999427
        },
        {
          "name": "F6",
          "midi": 89,
          "time": 97.49985374999895,
          "velocity": 0.7874015748031497,
          "duration": 0.06578937499999427
        },
        {
          "name": "D7",
          "midi": 98,
          "time": 97.49985374999895,
          "velocity": 0.7874015748031497,
          "duration": 0.06578937499999427
        },
        {
          "name": "F7",
          "midi": 101,
          "time": 97.49985374999895,
          "velocity": 0.7874015748031497,
          "duration": 0.06578937499999427
        },
        {
          "name": "D6",
          "midi": 86,
          "time": 97.63252898958227,
          "velocity": 0.7874015748031497,
          "duration": 0.06469288541666174
        },
        {
          "name": "F6",
          "midi": 89,
          "time": 97.63252898958227,
          "velocity": 0.7874015748031497,
          "duration": 0.06469288541666174
        },
        {
          "name": "D7",
          "midi": 98,
          "time": 97.63252898958227,
          "velocity": 0.7874015748031497,
          "duration": 0.06469288541666174
        },
        {
          "name": "F#7",
          "midi": 102,
          "time": 97.63252898958227,
          "velocity": 0.7874015748031497,
          "duration": 0.06469288541666174
        },
        {
          "name": "C4",
          "midi": 60,
          "time": 97.89458999999893,
          "velocity": 0.7874015748031497,
          "duration": 1.051533510416661
        },
        {
          "name": "F#4",
          "midi": 66,
          "time": 97.89458999999893,
          "velocity": 0.7874015748031497,
          "duration": 1.0504370208333285
        },
        {
          "name": "C#5",
          "midi": 73,
          "time": 97.89458999999893,
          "velocity": 0.7874015748031497,
          "duration": 1.051533510416661
        },
        {
          "name": "F#5",
          "midi": 78,
          "time": 97.89458999999893,
          "velocity": 0.7874015748031497,
          "duration": 1.0504370208333285
        },
        {
          "name": "C#6",
          "midi": 85,
          "time": 97.89458999999893,
          "velocity": 0.7874015748031497,
          "duration": 1.051533510416661
        },
        {
          "name": "F#6",
          "midi": 90,
          "time": 97.89458999999893,
          "velocity": 0.7874015748031497,
          "duration": 1.0504370208333285
        },
        {
          "name": "C#7",
          "midi": 97,
          "time": 97.89458999999893,
          "velocity": 0.7874015748031497,
          "duration": 1.051533510416661
        },
        {
          "name": "F#7",
          "midi": 102,
          "time": 97.89458999999893,
          "velocity": 0.7874015748031497,
          "duration": 1.0504370208333285
        },
        {
          "name": "D4",
          "midi": 62,
          "time": 98.94721999999892,
          "velocity": 0.7874015748031497,
          "duration": 0.06469288541666174
        },
        {
          "name": "F#4",
          "midi": 66,
          "time": 98.94721999999892,
          "velocity": 0.7874015748031497,
          "duration": 0.06469288541666174
        },
        {
          "name": "D#5",
          "midi": 75,
          "time": 98.94721999999892,
          "velocity": 0.7874015748031497,
          "duration": 0.06469288541666174
        },
        {
          "name": "F#5",
          "midi": 78,
          "time": 98.94721999999892,
          "velocity": 0.7874015748031497,
          "duration": 0.06469288541666174
        },
        {
          "name": "E6",
          "midi": 88,
          "time": 98.94721999999892,
          "velocity": 0.7874015748031497,
          "duration": 0.06469288541666174
        },
        {
          "name": "F#6",
          "midi": 90,
          "time": 98.94721999999892,
          "velocity": 0.7874015748031497,
          "duration": 0.06469288541666174
        },
        {
          "name": "E7",
          "midi": 100,
          "time": 98.94721999999892,
          "velocity": 0.7874015748031497,
          "duration": 0.06469288541666174
        },
        {
          "name": "F#7",
          "midi": 102,
          "time": 98.94721999999892,
          "velocity": 0.7874015748031497,
          "duration": 0.06469288541666174
        },
        {
          "name": "E7",
          "midi": 100,
          "time": 99.07879874999891,
          "velocity": 0.7874015748031497,
          "duration": 0.06469288541666174
        },
        {
          "name": "F#7",
          "midi": 102,
          "time": 99.07879874999891,
          "velocity": 0.7874015748031497,
          "duration": 0.06469288541666174
        },
        {
          "name": "D5",
          "midi": 74,
          "time": 99.2103774999989,
          "velocity": 0.7874015748031497,
          "duration": 0.06469288541666174
        },
        {
          "name": "F5",
          "midi": 77,
          "time": 99.2103774999989,
          "velocity": 0.7874015748031497,
          "duration": 0.06469288541666174
        },
        {
          "name": "D#6",
          "midi": 87,
          "time": 99.2103774999989,
          "velocity": 0.7874015748031497,
          "duration": 0.06469288541666174
        },
        {
          "name": "F6",
          "midi": 89,
          "time": 99.2103774999989,
          "velocity": 0.7874015748031497,
          "duration": 0.06469288541666174
        },
        {
          "name": "D#7",
          "midi": 99,
          "time": 99.2103774999989,
          "velocity": 0.7874015748031497,
          "duration": 0.06469288541666174
        },
        {
          "name": "F7",
          "midi": 101,
          "time": 99.2103774999989,
          "velocity": 0.7874015748031497,
          "duration": 0.06469288541666174
        },
        {
          "name": "D4",
          "midi": 62,
          "time": 99.34195624999889,
          "velocity": 0.7874015748031497,
          "duration": 0.06469288541666174
        },
        {
          "name": "F#4",
          "midi": 66,
          "time": 99.34195624999889,
          "velocity": 0.7874015748031497,
          "duration": 0.06469288541666174
        },
        {
          "name": "D#5",
          "midi": 75,
          "time": 99.34195624999889,
          "velocity": 0.7874015748031497,
          "duration": 0.06469288541666174
        },
        {
          "name": "F5",
          "midi": 77,
          "time": 99.34195624999889,
          "velocity": 0.7874015748031497,
          "duration": 0.06469288541666174
        },
        {
          "name": "E6",
          "midi": 88,
          "time": 99.34195624999889,
          "velocity": 0.7874015748031497,
          "duration": 0.06469288541666174
        },
        {
          "name": "F6",
          "midi": 89,
          "time": 99.34195624999889,
          "velocity": 0.7874015748031497,
          "duration": 0.06469288541666174
        },
        {
          "name": "E7",
          "midi": 100,
          "time": 99.34195624999889,
          "velocity": 0.7874015748031497,
          "duration": 0.06469288541666174
        },
        {
          "name": "F7",
          "midi": 101,
          "time": 99.34195624999889,
          "velocity": 0.7874015748031497,
          "duration": 0.06469288541666174
        },
        {
          "name": "D#7",
          "midi": 99,
          "time": 99.47353499999888,
          "velocity": 0.7874015748031497,
          "duration": 0.06578937499999427
        },
        {
          "name": "F7",
          "midi": 101,
          "time": 99.47353499999888,
          "velocity": 0.7874015748031497,
          "duration": 0.06578937499999427
        },
        {
          "name": "C#4",
          "midi": 61,
          "time": 99.60511374999886,
          "velocity": 0.7874015748031497,
          "duration": 0.06578937499999427
        },
        {
          "name": "F4",
          "midi": 65,
          "time": 99.60511374999886,
          "velocity": 0.7874015748031497,
          "duration": 0.06578937499999427
        },
        {
          "name": "D5",
          "midi": 74,
          "time": 99.60511374999886,
          "velocity": 0.7874015748031497,
          "duration": 0.06578937499999427
        },
        {
          "name": "F5",
          "midi": 77,
          "time": 99.60511374999886,
          "velocity": 0.7874015748031497,
          "duration": 0.06578937499999427
        },
        {
          "name": "D#6",
          "midi": 87,
          "time": 99.60511374999886,
          "velocity": 0.7874015748031497,
          "duration": 0.06578937499999427
        },
        {
          "name": "F6",
          "midi": 89,
          "time": 99.60511374999886,
          "velocity": 0.7874015748031497,
          "duration": 0.06578937499999427
        },
        {
          "name": "D7",
          "midi": 98,
          "time": 99.60511374999886,
          "velocity": 0.7874015748031497,
          "duration": 0.06578937499999427
        },
        {
          "name": "F7",
          "midi": 101,
          "time": 99.60511374999886,
          "velocity": 0.7874015748031497,
          "duration": 0.06578937499999427
        },
        {
          "name": "D6",
          "midi": 86,
          "time": 99.73778898958219,
          "velocity": 0.7874015748031497,
          "duration": 0.06469288541666174
        },
        {
          "name": "F6",
          "midi": 89,
          "time": 99.73778898958219,
          "velocity": 0.7874015748031497,
          "duration": 0.06469288541666174
        },
        {
          "name": "D#7",
          "midi": 99,
          "time": 99.73778898958219,
          "velocity": 0.7874015748031497,
          "duration": 0.06469288541666174
        },
        {
          "name": "F7",
          "midi": 101,
          "time": 99.73778898958219,
          "velocity": 0.7874015748031497,
          "duration": 0.06469288541666174
        },
        {
          "name": "D#7",
          "midi": 99,
          "time": 99.86936773958217,
          "velocity": 0.7874015748031497,
          "duration": 0.06469288541666174
        },
        {
          "name": "F#7",
          "midi": 102,
          "time": 99.86936773958217,
          "velocity": 0.7874015748031497,
          "duration": 0.06469288541666174
        },
        {
          "name": "C#4",
          "midi": 61,
          "time": 99.99984999999883,
          "velocity": 0.7874015748031497,
          "duration": 0.39144678124999643
        },
        {
          "name": "F#4",
          "midi": 66,
          "time": 99.99984999999883,
          "velocity": 0.7874015748031497,
          "duration": 0.39144678124999643
        },
        {
          "name": "D5",
          "midi": 74,
          "time": 99.99984999999883,
          "velocity": 0.7874015748031497,
          "duration": 0.39144678124999643
        },
        {
          "name": "F#5",
          "midi": 78,
          "time": 99.99984999999883,
          "velocity": 0.7874015748031497,
          "duration": 0.39144678124999643
        },
        {
          "name": "D6",
          "midi": 86,
          "time": 99.99984999999883,
          "velocity": 0.7874015748031497,
          "duration": 0.39144678124999643
        },
        {
          "name": "F#6",
          "midi": 90,
          "time": 99.99984999999883,
          "velocity": 0.7874015748031497,
          "duration": 0.39144678124999643
        },
        {
          "name": "D7",
          "midi": 98,
          "time": 99.99984999999883,
          "velocity": 0.7874015748031497,
          "duration": 0.39144678124999643
        },
        {
          "name": "F7",
          "midi": 101,
          "time": 99.99984999999883,
          "velocity": 0.7874015748031497,
          "duration": 0.39144678124999643
        },
        {
          "name": "D4",
          "midi": 62,
          "time": 100.39458624999882,
          "velocity": 0.7874015748031497,
          "duration": 0.39254327083332896
        },
        {
          "name": "F#4",
          "midi": 66,
          "time": 100.39458624999882,
          "velocity": 0.7874015748031497,
          "duration": 0.39254327083332896
        },
        {
          "name": "D#5",
          "midi": 75,
          "time": 100.39458624999882,
          "velocity": 0.7874015748031497,
          "duration": 0.39254327083332896
        },
        {
          "name": "F#5",
          "midi": 78,
          "time": 100.39458624999882,
          "velocity": 0.7874015748031497,
          "duration": 0.39254327083332896
        },
        {
          "name": "D#6",
          "midi": 87,
          "time": 100.39458624999882,
          "velocity": 0.7874015748031497,
          "duration": 0.39254327083332896
        },
        {
          "name": "F#6",
          "midi": 90,
          "time": 100.39458624999882,
          "velocity": 0.7874015748031497,
          "duration": 0.39254327083332896
        },
        {
          "name": "D#7",
          "midi": 99,
          "time": 100.39458624999882,
          "velocity": 0.7874015748031497,
          "duration": 0.39254327083332896
        },
        {
          "name": "F#7",
          "midi": 102,
          "time": 100.39458624999882,
          "velocity": 0.7874015748031497,
          "duration": 0.39254327083332896
        },
        {
          "name": "C4",
          "midi": 60,
          "time": 100.78932249999882,
          "velocity": 0.7874015748031497,
          "duration": 0.06469288541666174
        },
        {
          "name": "F#4",
          "midi": 66,
          "time": 100.78932249999882,
          "velocity": 0.7874015748031497,
          "duration": 0.06469288541666174
        },
        {
          "name": "C#5",
          "midi": 73,
          "time": 100.78932249999882,
          "velocity": 0.7874015748031497,
          "duration": 0.06469288541666174
        },
        {
          "name": "F#5",
          "midi": 78,
          "time": 100.78932249999882,
          "velocity": 0.7874015748031497,
          "duration": 0.06469288541666174
        },
        {
          "name": "C#6",
          "midi": 85,
          "time": 100.78932249999882,
          "velocity": 0.7874015748031497,
          "duration": 0.06469288541666174
        },
        {
          "name": "F#6",
          "midi": 90,
          "time": 100.78932249999882,
          "velocity": 0.7874015748031497,
          "duration": 0.06469288541666174
        },
        {
          "name": "C#7",
          "midi": 97,
          "time": 100.78932249999882,
          "velocity": 0.7874015748031497,
          "duration": 0.06469288541666174
        },
        {
          "name": "F#7",
          "midi": 102,
          "time": 100.78932249999882,
          "velocity": 0.7874015748031497,
          "duration": 0.06469288541666174
        },
        {
          "name": "D4",
          "midi": 62,
          "time": 101.05247999999881,
          "velocity": 0.7874015748031497,
          "duration": 0.06469288541666174
        },
        {
          "name": "F#4",
          "midi": 66,
          "time": 101.05247999999881,
          "velocity": 0.7874015748031497,
          "duration": 0.06469288541666174
        },
        {
          "name": "D#5",
          "midi": 75,
          "time": 101.05247999999881,
          "velocity": 0.7874015748031497,
          "duration": 0.06469288541666174
        },
        {
          "name": "F#5",
          "midi": 78,
          "time": 101.05247999999881,
          "velocity": 0.7874015748031497,
          "duration": 0.06469288541666174
        },
        {
          "name": "E6",
          "midi": 88,
          "time": 101.05247999999881,
          "velocity": 0.7874015748031497,
          "duration": 0.06469288541666174
        },
        {
          "name": "F#6",
          "midi": 90,
          "time": 101.05247999999881,
          "velocity": 0.7874015748031497,
          "duration": 0.06469288541666174
        },
        {
          "name": "E7",
          "midi": 100,
          "time": 101.05247999999881,
          "velocity": 0.7874015748031497,
          "duration": 0.06469288541666174
        },
        {
          "name": "F#7",
          "midi": 102,
          "time": 101.05247999999881,
          "velocity": 0.7874015748031497,
          "duration": 0.06469288541666174
        },
        {
          "name": "E7",
          "midi": 100,
          "time": 101.1840587499988,
          "velocity": 0.7874015748031497,
          "duration": 0.06469288541666174
        },
        {
          "name": "F#7",
          "midi": 102,
          "time": 101.1840587499988,
          "velocity": 0.7874015748031497,
          "duration": 0.06469288541666174
        },
        {
          "name": "D5",
          "midi": 74,
          "time": 101.31563749999879,
          "velocity": 0.7874015748031497,
          "duration": 0.06469288541666174
        },
        {
          "name": "F5",
          "midi": 77,
          "time": 101.31563749999879,
          "velocity": 0.7874015748031497,
          "duration": 0.06469288541666174
        },
        {
          "name": "D#6",
          "midi": 87,
          "time": 101.31563749999879,
          "velocity": 0.7874015748031497,
          "duration": 0.06469288541666174
        },
        {
          "name": "F6",
          "midi": 89,
          "time": 101.31563749999879,
          "velocity": 0.7874015748031497,
          "duration": 0.06469288541666174
        },
        {
          "name": "D#7",
          "midi": 99,
          "time": 101.31563749999879,
          "velocity": 0.7874015748031497,
          "duration": 0.06469288541666174
        },
        {
          "name": "F7",
          "midi": 101,
          "time": 101.31563749999879,
          "velocity": 0.7874015748031497,
          "duration": 0.06469288541666174
        },
        {
          "name": "D4",
          "midi": 62,
          "time": 101.44721624999877,
          "velocity": 0.7874015748031497,
          "duration": 0.06469288541666174
        },
        {
          "name": "F#4",
          "midi": 66,
          "time": 101.44721624999877,
          "velocity": 0.7874015748031497,
          "duration": 0.06469288541666174
        },
        {
          "name": "D#5",
          "midi": 75,
          "time": 101.44721624999877,
          "velocity": 0.7874015748031497,
          "duration": 0.06469288541666174
        },
        {
          "name": "F5",
          "midi": 77,
          "time": 101.44721624999877,
          "velocity": 0.7874015748031497,
          "duration": 0.06469288541666174
        },
        {
          "name": "E6",
          "midi": 88,
          "time": 101.44721624999877,
          "velocity": 0.7874015748031497,
          "duration": 0.06469288541666174
        },
        {
          "name": "F6",
          "midi": 89,
          "time": 101.44721624999877,
          "velocity": 0.7874015748031497,
          "duration": 0.06469288541666174
        },
        {
          "name": "E7",
          "midi": 100,
          "time": 101.44721624999877,
          "velocity": 0.7874015748031497,
          "duration": 0.06469288541666174
        },
        {
          "name": "F7",
          "midi": 101,
          "time": 101.44721624999877,
          "velocity": 0.7874015748031497,
          "duration": 0.06469288541666174
        },
        {
          "name": "D#7",
          "midi": 99,
          "time": 101.57879499999876,
          "velocity": 0.7874015748031497,
          "duration": 0.06469288541666174
        },
        {
          "name": "F7",
          "midi": 101,
          "time": 101.57879499999876,
          "velocity": 0.7874015748031497,
          "duration": 0.06469288541666174
        },
        {
          "name": "C#4",
          "midi": 61,
          "time": 101.71037374999875,
          "velocity": 0.7874015748031497,
          "duration": 0.06469288541666174
        },
        {
          "name": "F4",
          "midi": 65,
          "time": 101.71037374999875,
          "velocity": 0.7874015748031497,
          "duration": 0.06469288541666174
        },
        {
          "name": "D5",
          "midi": 74,
          "time": 101.71037374999875,
          "velocity": 0.7874015748031497,
          "duration": 0.06469288541666174
        },
        {
          "name": "F5",
          "midi": 77,
          "time": 101.71037374999875,
          "velocity": 0.7874015748031497,
          "duration": 0.06469288541666174
        },
        {
          "name": "D#6",
          "midi": 87,
          "time": 101.71037374999875,
          "velocity": 0.7874015748031497,
          "duration": 0.06469288541666174
        },
        {
          "name": "F6",
          "midi": 89,
          "time": 101.71037374999875,
          "velocity": 0.7874015748031497,
          "duration": 0.06469288541666174
        },
        {
          "name": "D7",
          "midi": 98,
          "time": 101.71037374999875,
          "velocity": 0.7874015748031497,
          "duration": 0.06469288541666174
        },
        {
          "name": "F7",
          "midi": 101,
          "time": 101.71037374999875,
          "velocity": 0.7874015748031497,
          "duration": 0.06469288541666174
        },
        {
          "name": "D6",
          "midi": 86,
          "time": 101.84304898958209,
          "velocity": 0.7874015748031497,
          "duration": 0.06469288541666174
        },
        {
          "name": "F6",
          "midi": 89,
          "time": 101.84304898958209,
          "velocity": 0.7874015748031497,
          "duration": 0.06469288541666174
        },
        {
          "name": "D7",
          "midi": 98,
          "time": 101.84304898958209,
          "velocity": 0.7874015748031497,
          "duration": 0.06469288541666174
        },
        {
          "name": "F#7",
          "midi": 102,
          "time": 101.84304898958209,
          "velocity": 0.7874015748031497,
          "duration": 0.06469288541666174
        },
        {
          "name": "C4",
          "midi": 60,
          "time": 102.10510999999875,
          "velocity": 0.7874015748031497,
          "duration": 1.051533510416661
        },
        {
          "name": "F#4",
          "midi": 66,
          "time": 102.10510999999875,
          "velocity": 0.7874015748031497,
          "duration": 1.0504370208333285
        },
        {
          "name": "C#5",
          "midi": 73,
          "time": 102.10510999999875,
          "velocity": 0.7874015748031497,
          "duration": 1.051533510416661
        },
        {
          "name": "F#5",
          "midi": 78,
          "time": 102.10510999999875,
          "velocity": 0.7874015748031497,
          "duration": 1.0504370208333285
        },
        {
          "name": "C#6",
          "midi": 85,
          "time": 102.10510999999875,
          "velocity": 0.7874015748031497,
          "duration": 1.051533510416661
        },
        {
          "name": "F#6",
          "midi": 90,
          "time": 102.10510999999875,
          "velocity": 0.7874015748031497,
          "duration": 1.0504370208333285
        },
        {
          "name": "C#7",
          "midi": 97,
          "time": 102.10510999999875,
          "velocity": 0.7874015748031497,
          "duration": 1.051533510416661
        },
        {
          "name": "F#7",
          "midi": 102,
          "time": 102.10510999999875,
          "velocity": 0.7874015748031497,
          "duration": 1.0504370208333285
        },
        {
          "name": "D4",
          "midi": 62,
          "time": 103.15773999999874,
          "velocity": 0.7874015748031497,
          "duration": 0.06578937499999427
        },
        {
          "name": "F#4",
          "midi": 66,
          "time": 103.15773999999874,
          "velocity": 0.7874015748031497,
          "duration": 0.06578937499999427
        },
        {
          "name": "D#5",
          "midi": 75,
          "time": 103.15773999999874,
          "velocity": 0.7874015748031497,
          "duration": 0.06578937499999427
        },
        {
          "name": "F#5",
          "midi": 78,
          "time": 103.15773999999874,
          "velocity": 0.7874015748031497,
          "duration": 0.06578937499999427
        },
        {
          "name": "E6",
          "midi": 88,
          "time": 103.15773999999874,
          "velocity": 0.7874015748031497,
          "duration": 0.06578937499999427
        },
        {
          "name": "F#6",
          "midi": 90,
          "time": 103.15773999999874,
          "velocity": 0.7874015748031497,
          "duration": 0.06578937499999427
        },
        {
          "name": "E7",
          "midi": 100,
          "time": 103.15773999999874,
          "velocity": 0.7874015748031497,
          "duration": 0.06578937499999427
        },
        {
          "name": "F#7",
          "midi": 102,
          "time": 103.15773999999874,
          "velocity": 0.7874015748031497,
          "duration": 0.06578937499999427
        },
        {
          "name": "E7",
          "midi": 100,
          "time": 103.2882222604154,
          "velocity": 0.7874015748031497,
          "duration": 0.06578937499999427
        },
        {
          "name": "F#7",
          "midi": 102,
          "time": 103.2882222604154,
          "velocity": 0.7874015748031497,
          "duration": 0.06578937499999427
        },
        {
          "name": "D5",
          "midi": 74,
          "time": 103.42089749999872,
          "velocity": 0.7874015748031497,
          "duration": 0.06578937499999427
        },
        {
          "name": "F5",
          "midi": 77,
          "time": 103.42089749999872,
          "velocity": 0.7874015748031497,
          "duration": 0.06578937499999427
        },
        {
          "name": "D#6",
          "midi": 87,
          "time": 103.42089749999872,
          "velocity": 0.7874015748031497,
          "duration": 0.06578937499999427
        },
        {
          "name": "F6",
          "midi": 89,
          "time": 103.42089749999872,
          "velocity": 0.7874015748031497,
          "duration": 0.06578937499999427
        },
        {
          "name": "D#7",
          "midi": 99,
          "time": 103.42089749999872,
          "velocity": 0.7874015748031497,
          "duration": 0.06578937499999427
        },
        {
          "name": "F7",
          "midi": 101,
          "time": 103.42089749999872,
          "velocity": 0.7874015748031497,
          "duration": 0.06578937499999427
        },
        {
          "name": "D4",
          "midi": 62,
          "time": 103.55137976041537,
          "velocity": 0.7874015748031497,
          "duration": 0.06578937499999427
        },
        {
          "name": "F#4",
          "midi": 66,
          "time": 103.55137976041537,
          "velocity": 0.7874015748031497,
          "duration": 0.06578937499999427
        },
        {
          "name": "D#5",
          "midi": 75,
          "time": 103.55137976041537,
          "velocity": 0.7874015748031497,
          "duration": 0.06578937499999427
        },
        {
          "name": "F5",
          "midi": 77,
          "time": 103.55137976041537,
          "velocity": 0.7874015748031497,
          "duration": 0.06578937499999427
        },
        {
          "name": "E6",
          "midi": 88,
          "time": 103.55137976041537,
          "velocity": 0.7874015748031497,
          "duration": 0.06578937499999427
        },
        {
          "name": "F6",
          "midi": 89,
          "time": 103.55137976041537,
          "velocity": 0.7874015748031497,
          "duration": 0.06578937499999427
        },
        {
          "name": "E7",
          "midi": 100,
          "time": 103.55137976041537,
          "velocity": 0.7874015748031497,
          "duration": 0.06578937499999427
        },
        {
          "name": "F7",
          "midi": 101,
          "time": 103.55137976041537,
          "velocity": 0.7874015748031497,
          "duration": 0.06578937499999427
        },
        {
          "name": "D#7",
          "midi": 99,
          "time": 103.6840549999987,
          "velocity": 0.7874015748031497,
          "duration": 0.06798235416667353
        },
        {
          "name": "F7",
          "midi": 101,
          "time": 103.6840549999987,
          "velocity": 0.7874015748031497,
          "duration": 0.06798235416667353
        },
        {
          "name": "C#4",
          "midi": 61,
          "time": 103.82111619791537,
          "velocity": 0.7874015748031497,
          "duration": 0.06798235416667353
        },
        {
          "name": "F4",
          "midi": 65,
          "time": 103.82111619791537,
          "velocity": 0.7874015748031497,
          "duration": 0.06798235416667353
        },
        {
          "name": "D5",
          "midi": 74,
          "time": 103.82111619791537,
          "velocity": 0.7874015748031497,
          "duration": 0.06798235416667353
        },
        {
          "name": "F5",
          "midi": 77,
          "time": 103.82111619791537,
          "velocity": 0.7874015748031497,
          "duration": 0.06798235416667353
        },
        {
          "name": "D#6",
          "midi": 87,
          "time": 103.82111619791537,
          "velocity": 0.7874015748031497,
          "duration": 0.06798235416667353
        },
        {
          "name": "F6",
          "midi": 89,
          "time": 103.82111619791537,
          "velocity": 0.7874015748031497,
          "duration": 0.06798235416667353
        },
        {
          "name": "D7",
          "midi": 98,
          "time": 103.82111619791537,
          "velocity": 0.7874015748031497,
          "duration": 0.06798235416667353
        },
        {
          "name": "F7",
          "midi": 101,
          "time": 103.82111619791537,
          "velocity": 0.7874015748031497,
          "duration": 0.06798235416667353
        },
        {
          "name": "D6",
          "midi": 86,
          "time": 103.95817739583205,
          "velocity": 0.7874015748031497,
          "duration": 0.062499906249996684
        },
        {
          "name": "F6",
          "midi": 89,
          "time": 103.95817739583205,
          "velocity": 0.7874015748031497,
          "duration": 0.062499906249996684
        },
        {
          "name": "D#7",
          "midi": 99,
          "time": 103.95817739583205,
          "velocity": 0.7874015748031497,
          "duration": 0.062499906249996684
        },
        {
          "name": "F7",
          "midi": 101,
          "time": 103.95817739583205,
          "velocity": 0.7874015748031497,
          "duration": 0.062499906249996684
        },
        {
          "name": "D#7",
          "midi": 99,
          "time": 104.08317720833205,
          "velocity": 0.7874015748031497,
          "duration": 0.06359639583332921
        },
        {
          "name": "F#7",
          "midi": 102,
          "time": 104.08317720833205,
          "velocity": 0.7874015748031497,
          "duration": 0.06359639583332921
        },
        {
          "name": "C#4",
          "midi": 61,
          "time": 104.2103699999987,
          "velocity": 0.7874015748031497,
          "duration": 0.3903502916666639
        },
        {
          "name": "F#4",
          "midi": 66,
          "time": 104.2103699999987,
          "velocity": 0.7874015748031497,
          "duration": 0.3903502916666639
        },
        {
          "name": "D5",
          "midi": 74,
          "time": 104.2103699999987,
          "velocity": 0.7874015748031497,
          "duration": 0.3903502916666639
        },
        {
          "name": "F#5",
          "midi": 78,
          "time": 104.2103699999987,
          "velocity": 0.7874015748031497,
          "duration": 0.3903502916666639
        },
        {
          "name": "D6",
          "midi": 86,
          "time": 104.2103699999987,
          "velocity": 0.7874015748031497,
          "duration": 0.3903502916666639
        },
        {
          "name": "F#6",
          "midi": 90,
          "time": 104.2103699999987,
          "velocity": 0.7874015748031497,
          "duration": 0.3903502916666639
        },
        {
          "name": "D7",
          "midi": 98,
          "time": 104.2103699999987,
          "velocity": 0.7874015748031497,
          "duration": 0.3903502916666639
        },
        {
          "name": "F7",
          "midi": 101,
          "time": 104.2103699999987,
          "velocity": 0.7874015748031497,
          "duration": 0.3903502916666639
        },
        {
          "name": "D4",
          "midi": 62,
          "time": 104.6051062499987,
          "velocity": 0.7874015748031497,
          "duration": 0.39144678124999643
        },
        {
          "name": "F#4",
          "midi": 66,
          "time": 104.6051062499987,
          "velocity": 0.7874015748031497,
          "duration": 0.39144678124999643
        },
        {
          "name": "D#5",
          "midi": 75,
          "time": 104.6051062499987,
          "velocity": 0.7874015748031497,
          "duration": 0.39144678124999643
        },
        {
          "name": "F#5",
          "midi": 78,
          "time": 104.6051062499987,
          "velocity": 0.7874015748031497,
          "duration": 0.39144678124999643
        },
        {
          "name": "D#6",
          "midi": 87,
          "time": 104.6051062499987,
          "velocity": 0.7874015748031497,
          "duration": 0.39144678124999643
        },
        {
          "name": "F#6",
          "midi": 90,
          "time": 104.6051062499987,
          "velocity": 0.7874015748031497,
          "duration": 0.39144678124999643
        },
        {
          "name": "D#7",
          "midi": 99,
          "time": 104.6051062499987,
          "velocity": 0.7874015748031497,
          "duration": 0.39144678124999643
        },
        {
          "name": "F#7",
          "midi": 102,
          "time": 104.6051062499987,
          "velocity": 0.7874015748031497,
          "duration": 0.39144678124999643
        },
        {
          "name": "C4",
          "midi": 60,
          "time": 104.99984249999869,
          "velocity": 0.7874015748031497,
          "duration": 0.06578937499999427
        },
        {
          "name": "F#4",
          "midi": 66,
          "time": 104.99984249999869,
          "velocity": 0.7874015748031497,
          "duration": 0.06578937499999427
        },
        {
          "name": "C#5",
          "midi": 73,
          "time": 104.99984249999869,
          "velocity": 0.7874015748031497,
          "duration": 0.06578937499999427
        },
        {
          "name": "F#5",
          "midi": 78,
          "time": 104.99984249999869,
          "velocity": 0.7874015748031497,
          "duration": 0.06578937499999427
        },
        {
          "name": "C#6",
          "midi": 85,
          "time": 104.99984249999869,
          "velocity": 0.7874015748031497,
          "duration": 0.06578937499999427
        },
        {
          "name": "F#6",
          "midi": 90,
          "time": 104.99984249999869,
          "velocity": 0.7874015748031497,
          "duration": 0.06578937499999427
        },
        {
          "name": "C#7",
          "midi": 97,
          "time": 104.99984249999869,
          "velocity": 0.7874015748031497,
          "duration": 0.06578937499999427
        },
        {
          "name": "F#7",
          "midi": 102,
          "time": 104.99984249999869,
          "velocity": 0.7874015748031497,
          "duration": 0.06578937499999427
        },
        {
          "name": "C4",
          "midi": 60,
          "time": 105.26299999999868,
          "velocity": 0.7874015748031497,
          "duration": 0.3936397604166615
        },
        {
          "name": "F#4",
          "midi": 66,
          "time": 105.26299999999868,
          "velocity": 0.7874015748031497,
          "duration": 0.39254327083332896
        },
        {
          "name": "C5",
          "midi": 72,
          "time": 105.26299999999868,
          "velocity": 0.7874015748031497,
          "duration": 0.3936397604166615
        },
        {
          "name": "F#5",
          "midi": 78,
          "time": 105.26299999999868,
          "velocity": 0.7874015748031497,
          "duration": 0.39254327083332896
        },
        {
          "name": "C#6",
          "midi": 85,
          "time": 105.26299999999868,
          "velocity": 0.7874015748031497,
          "duration": 0.3936397604166615
        },
        {
          "name": "F#6",
          "midi": 90,
          "time": 105.26299999999868,
          "velocity": 0.7874015748031497,
          "duration": 0.39254327083332896
        },
        {
          "name": "C#7",
          "midi": 97,
          "time": 105.26299999999868,
          "velocity": 0.7874015748031497,
          "duration": 0.3936397604166615
        },
        {
          "name": "F#7",
          "midi": 102,
          "time": 105.26299999999868,
          "velocity": 0.7874015748031497,
          "duration": 0.39254327083332896
        },
        {
          "name": "C#4",
          "midi": 61,
          "time": 105.65773624999868,
          "velocity": 0.7874015748031497,
          "duration": 0.3278503854166672
        },
        {
          "name": "F#4",
          "midi": 66,
          "time": 105.65773624999868,
          "velocity": 0.7874015748031497,
          "duration": 0.3267538958333347
        },
        {
          "name": "C#5",
          "midi": 73,
          "time": 105.65773624999868,
          "velocity": 0.7874015748031497,
          "duration": 0.3278503854166672
        },
        {
          "name": "F#5",
          "midi": 78,
          "time": 105.65773624999868,
          "velocity": 0.7874015748031497,
          "duration": 0.3267538958333347
        },
        {
          "name": "D6",
          "midi": 86,
          "time": 105.65773624999868,
          "velocity": 0.7874015748031497,
          "duration": 0.3278503854166672
        },
        {
          "name": "F#6",
          "midi": 90,
          "time": 105.65773624999868,
          "velocity": 0.7874015748031497,
          "duration": 0.3267538958333347
        },
        {
          "name": "D7",
          "midi": 98,
          "time": 105.65773624999868,
          "velocity": 0.7874015748031497,
          "duration": 0.3278503854166672
        },
        {
          "name": "F#7",
          "midi": 102,
          "time": 105.65773624999868,
          "velocity": 0.7874015748031497,
          "duration": 0.3267538958333347
        },
        {
          "name": "D4",
          "midi": 62,
          "time": 105.98668312499868,
          "velocity": 0.7874015748031497,
          "duration": 0.3278503854166672
        },
        {
          "name": "F#4",
          "midi": 66,
          "time": 105.98668312499868,
          "velocity": 0.7874015748031497,
          "duration": 0.3267538958333347
        },
        {
          "name": "D5",
          "midi": 74,
          "time": 105.98668312499868,
          "velocity": 0.7874015748031497,
          "duration": 0.3278503854166672
        },
        {
          "name": "F#5",
          "midi": 78,
          "time": 105.98668312499868,
          "velocity": 0.7874015748031497,
          "duration": 0.3267538958333347
        },
        {
          "name": "D#6",
          "midi": 87,
          "time": 105.98668312499868,
          "velocity": 0.7874015748031497,
          "duration": 0.3278503854166672
        },
        {
          "name": "F#6",
          "midi": 90,
          "time": 105.98668312499868,
          "velocity": 0.7874015748031497,
          "duration": 0.3267538958333347
        },
        {
          "name": "D#7",
          "midi": 99,
          "time": 105.98668312499868,
          "velocity": 0.7874015748031497,
          "duration": 0.3278503854166672
        },
        {
          "name": "F#7",
          "midi": 102,
          "time": 105.98668312499868,
          "velocity": 0.7874015748031497,
          "duration": 0.3267538958333347
        },
        {
          "name": "C4",
          "midi": 60,
          "time": 106.31562999999868,
          "velocity": 0.7874015748031497,
          "duration": 1.051533510416661
        },
        {
          "name": "F#4",
          "midi": 66,
          "time": 106.31562999999868,
          "velocity": 0.7874015748031497,
          "duration": 1.051533510416661
        },
        {
          "name": "C5",
          "midi": 72,
          "time": 106.31562999999868,
          "velocity": 0.7874015748031497,
          "duration": 1.051533510416661
        },
        {
          "name": "F#5",
          "midi": 78,
          "time": 106.31562999999868,
          "velocity": 0.7874015748031497,
          "duration": 1.051533510416661
        },
        {
          "name": "C6",
          "midi": 84,
          "time": 106.31562999999868,
          "velocity": 0.7874015748031497,
          "duration": 1.051533510416661
        },
        {
          "name": "F#6",
          "midi": 90,
          "time": 106.31562999999868,
          "velocity": 0.7874015748031497,
          "duration": 1.051533510416661
        },
        {
          "name": "C7",
          "midi": 96,
          "time": 106.31562999999868,
          "velocity": 0.7874015748031497,
          "duration": 1.051533510416661
        },
        {
          "name": "F#7",
          "midi": 102,
          "time": 106.31562999999868,
          "velocity": 0.7874015748031497,
          "duration": 1.051533510416661
        },
        {
          "name": "C4",
          "midi": 60,
          "time": 107.63141749999868,
          "velocity": 0.7874015748031497,
          "duration": 0.06578937499999427
        },
        {
          "name": "F#4",
          "midi": 66,
          "time": 107.63141749999868,
          "velocity": 0.7874015748031497,
          "duration": 0.06578937499999427
        },
        {
          "name": "C5",
          "midi": 72,
          "time": 107.63141749999868,
          "velocity": 0.7874015748031497,
          "duration": 0.06578937499999427
        },
        {
          "name": "F#5",
          "midi": 78,
          "time": 107.63141749999868,
          "velocity": 0.7874015748031497,
          "duration": 0.06578937499999427
        },
        {
          "name": "C#6",
          "midi": 85,
          "time": 107.63141749999868,
          "velocity": 0.7874015748031497,
          "duration": 0.06578937499999427
        },
        {
          "name": "F#6",
          "midi": 90,
          "time": 107.63141749999868,
          "velocity": 0.7874015748031497,
          "duration": 0.06578937499999427
        },
        {
          "name": "C#7",
          "midi": 97,
          "time": 107.63141749999868,
          "velocity": 0.7874015748031497,
          "duration": 0.06578937499999427
        },
        {
          "name": "F#7",
          "midi": 102,
          "time": 107.63141749999868,
          "velocity": 0.7874015748031497,
          "duration": 0.06578937499999427
        },
        {
          "name": "C4",
          "midi": 60,
          "time": 107.89457499999867,
          "velocity": 0.7874015748031497,
          "duration": 0.06469288541666174
        },
        {
          "name": "F#4",
          "midi": 66,
          "time": 107.89457499999867,
          "velocity": 0.7874015748031497,
          "duration": 0.06469288541666174
        },
        {
          "name": "C#5",
          "midi": 73,
          "time": 107.89457499999867,
          "velocity": 0.7874015748031497,
          "duration": 0.06469288541666174
        },
        {
          "name": "F#5",
          "midi": 78,
          "time": 107.89457499999867,
          "velocity": 0.7874015748031497,
          "duration": 0.06469288541666174
        },
        {
          "name": "D6",
          "midi": 86,
          "time": 107.89457499999867,
          "velocity": 0.7874015748031497,
          "duration": 0.06469288541666174
        },
        {
          "name": "F#6",
          "midi": 90,
          "time": 107.89457499999867,
          "velocity": 0.7874015748031497,
          "duration": 0.06469288541666174
        },
        {
          "name": "D7",
          "midi": 98,
          "time": 107.89457499999867,
          "velocity": 0.7874015748031497,
          "duration": 0.06469288541666174
        },
        {
          "name": "F#7",
          "midi": 102,
          "time": 107.89457499999867,
          "velocity": 0.7874015748031497,
          "duration": 0.06469288541666174
        },
        {
          "name": "C#4",
          "midi": 61,
          "time": 108.15882898958199,
          "velocity": 0.7874015748031497,
          "duration": 0.06469288541666174
        },
        {
          "name": "F#4",
          "midi": 66,
          "time": 108.15882898958199,
          "velocity": 0.7874015748031497,
          "duration": 0.06469288541666174
        },
        {
          "name": "D5",
          "midi": 74,
          "time": 108.15882898958199,
          "velocity": 0.7874015748031497,
          "duration": 0.06469288541666174
        },
        {
          "name": "F#5",
          "midi": 78,
          "time": 108.15882898958199,
          "velocity": 0.7874015748031497,
          "duration": 0.06469288541666174
        },
        {
          "name": "D#6",
          "midi": 87,
          "time": 108.15882898958199,
          "velocity": 0.7874015748031497,
          "duration": 0.06469288541666174
        },
        {
          "name": "F#6",
          "midi": 90,
          "time": 108.15882898958199,
          "velocity": 0.7874015748031497,
          "duration": 0.06469288541666174
        },
        {
          "name": "D#7",
          "midi": 99,
          "time": 108.15882898958199,
          "velocity": 0.7874015748031497,
          "duration": 0.06469288541666174
        },
        {
          "name": "F#7",
          "midi": 102,
          "time": 108.15882898958199,
          "velocity": 0.7874015748031497,
          "duration": 0.06469288541666174
        },
        {
          "name": "D4",
          "midi": 62,
          "time": 108.42088999999865,
          "velocity": 0.7874015748031497,
          "duration": 0.5252185104166642
        },
        {
          "name": "F4",
          "midi": 65,
          "time": 108.42088999999865,
          "velocity": 0.7874015748031497,
          "duration": 0.5241220208333317
        },
        {
          "name": "D#5",
          "midi": 75,
          "time": 108.42088999999865,
          "velocity": 0.7874015748031497,
          "duration": 0.5252185104166642
        },
        {
          "name": "F5",
          "midi": 77,
          "time": 108.42088999999865,
          "velocity": 0.7874015748031497,
          "duration": 0.5241220208333317
        },
        {
          "name": "E6",
          "midi": 88,
          "time": 108.42088999999865,
          "velocity": 0.7874015748031497,
          "duration": 0.5252185104166642
        },
        {
          "name": "F6",
          "midi": 89,
          "time": 108.42088999999865,
          "velocity": 0.7874015748031497,
          "duration": 0.5241220208333317
        },
        {
          "name": "E7",
          "midi": 100,
          "time": 108.42088999999865,
          "velocity": 0.7874015748031497,
          "duration": 0.5252185104166642
        },
        {
          "name": "F7",
          "midi": 101,
          "time": 108.42088999999865,
          "velocity": 0.7874015748031497,
          "duration": 0.5241220208333317
        },
        {
          "name": "C#4",
          "midi": 61,
          "time": 108.94720499999865,
          "velocity": 0.7874015748031497,
          "duration": 0.5230255312499992
        },
        {
          "name": "F4",
          "midi": 65,
          "time": 108.94720499999865,
          "velocity": 0.7874015748031497,
          "duration": 0.5230255312499992
        },
        {
          "name": "D5",
          "midi": 74,
          "time": 108.94720499999865,
          "velocity": 0.7874015748031497,
          "duration": 0.5230255312499992
        },
        {
          "name": "F5",
          "midi": 77,
          "time": 108.94720499999865,
          "velocity": 0.7874015748031497,
          "duration": 0.5230255312499992
        },
        {
          "name": "D#6",
          "midi": 87,
          "time": 108.94720499999865,
          "velocity": 0.7874015748031497,
          "duration": 0.5230255312499992
        },
        {
          "name": "F6",
          "midi": 89,
          "time": 108.94720499999865,
          "velocity": 0.7874015748031497,
          "duration": 0.5230255312499992
        },
        {
          "name": "D#7",
          "midi": 99,
          "time": 108.94720499999865,
          "velocity": 0.7874015748031497,
          "duration": 0.5230255312499992
        },
        {
          "name": "F7",
          "midi": 101,
          "time": 108.94720499999865,
          "velocity": 0.7874015748031497,
          "duration": 0.5230255312499992
        },
        {
          "name": "C4",
          "midi": 60,
          "time": 109.47351999999864,
          "velocity": 0.7874015748031497,
          "duration": 0.3936397604166615
        },
        {
          "name": "F#4",
          "midi": 66,
          "time": 109.47351999999864,
          "velocity": 0.7874015748031497,
          "duration": 0.3936397604166615
        },
        {
          "name": "C5",
          "midi": 72,
          "time": 109.47351999999864,
          "velocity": 0.7874015748031497,
          "duration": 0.3936397604166615
        },
        {
          "name": "F#5",
          "midi": 78,
          "time": 109.47351999999864,
          "velocity": 0.7874015748031497,
          "duration": 0.3936397604166615
        },
        {
          "name": "C#6",
          "midi": 85,
          "time": 109.47351999999864,
          "velocity": 0.7874015748031497,
          "duration": 0.3936397604166615
        },
        {
          "name": "F#6",
          "midi": 90,
          "time": 109.47351999999864,
          "velocity": 0.7874015748031497,
          "duration": 0.3936397604166615
        },
        {
          "name": "C#7",
          "midi": 97,
          "time": 109.47351999999864,
          "velocity": 0.7874015748031497,
          "duration": 0.3936397604166615
        },
        {
          "name": "F#7",
          "midi": 102,
          "time": 109.47351999999864,
          "velocity": 0.7874015748031497,
          "duration": 0.3936397604166615
        },
        {
          "name": "C#4",
          "midi": 61,
          "time": 109.86935273958197,
          "velocity": 0.7874015748031497,
          "duration": 0.3267538958333347
        },
        {
          "name": "F#4",
          "midi": 66,
          "time": 109.86935273958197,
          "velocity": 0.7874015748031497,
          "duration": 0.32565740625000217
        },
        {
          "name": "C#5",
          "midi": 73,
          "time": 109.86935273958197,
          "velocity": 0.7874015748031497,
          "duration": 0.3267538958333347
        },
        {
          "name": "F#5",
          "midi": 78,
          "time": 109.86935273958197,
          "velocity": 0.7874015748031497,
          "duration": 0.32565740625000217
        },
        {
          "name": "D6",
          "midi": 86,
          "time": 109.86935273958197,
          "velocity": 0.7874015748031497,
          "duration": 0.3267538958333347
        },
        {
          "name": "F#6",
          "midi": 90,
          "time": 109.86935273958197,
          "velocity": 0.7874015748031497,
          "duration": 0.32565740625000217
        },
        {
          "name": "D7",
          "midi": 98,
          "time": 109.86935273958197,
          "velocity": 0.7874015748031497,
          "duration": 0.3267538958333347
        },
        {
          "name": "F#7",
          "midi": 102,
          "time": 109.86935273958197,
          "velocity": 0.7874015748031497,
          "duration": 0.32565740625000217
        },
        {
          "name": "D4",
          "midi": 62,
          "time": 110.19720312499864,
          "velocity": 0.7874015748031497,
          "duration": 0.3278503854166672
        },
        {
          "name": "F#4",
          "midi": 66,
          "time": 110.19720312499864,
          "velocity": 0.7874015748031497,
          "duration": 0.3267538958333347
        },
        {
          "name": "D5",
          "midi": 74,
          "time": 110.19720312499864,
          "velocity": 0.7874015748031497,
          "duration": 0.3278503854166672
        },
        {
          "name": "F#5",
          "midi": 78,
          "time": 110.19720312499864,
          "velocity": 0.7874015748031497,
          "duration": 0.3267538958333347
        },
        {
          "name": "D#6",
          "midi": 87,
          "time": 110.19720312499864,
          "velocity": 0.7874015748031497,
          "duration": 0.3278503854166672
        },
        {
          "name": "F#6",
          "midi": 90,
          "time": 110.19720312499864,
          "velocity": 0.7874015748031497,
          "duration": 0.3267538958333347
        },
        {
          "name": "D#7",
          "midi": 99,
          "time": 110.19720312499864,
          "velocity": 0.7874015748031497,
          "duration": 0.3278503854166672
        },
        {
          "name": "F#7",
          "midi": 102,
          "time": 110.19720312499864,
          "velocity": 0.7874015748031497,
          "duration": 0.3267538958333347
        },
        {
          "name": "C4",
          "midi": 60,
          "time": 110.52614999999864,
          "velocity": 0.7874015748031497,
          "duration": 0.06469288541666174
        },
        {
          "name": "F#4",
          "midi": 66,
          "time": 110.52614999999864,
          "velocity": 0.7874015748031497,
          "duration": 0.06469288541666174
        },
        {
          "name": "C5",
          "midi": 72,
          "time": 110.52614999999864,
          "velocity": 0.7874015748031497,
          "duration": 0.06469288541666174
        },
        {
          "name": "F#5",
          "midi": 78,
          "time": 110.52614999999864,
          "velocity": 0.7874015748031497,
          "duration": 0.06469288541666174
        },
        {
          "name": "C6",
          "midi": 84,
          "time": 110.52614999999864,
          "velocity": 0.7874015748031497,
          "duration": 0.06469288541666174
        },
        {
          "name": "F#6",
          "midi": 90,
          "time": 110.52614999999864,
          "velocity": 0.7874015748031497,
          "duration": 0.06469288541666174
        },
        {
          "name": "C7",
          "midi": 96,
          "time": 110.52614999999864,
          "velocity": 0.7874015748031497,
          "duration": 0.06469288541666174
        },
        {
          "name": "F#7",
          "midi": 102,
          "time": 110.52614999999864,
          "velocity": 0.7874015748031497,
          "duration": 0.06469288541666174
        },
        {
          "name": "C7",
          "midi": 96,
          "time": 110.65882523958197,
          "velocity": 0.7874015748031497,
          "duration": 0.06469288541666174
        },
        {
          "name": "F#7",
          "midi": 102,
          "time": 110.65882523958197,
          "velocity": 0.7874015748031497,
          "duration": 0.06469288541666174
        },
        {
          "name": "C4",
          "midi": 60,
          "time": 110.78930749999863,
          "velocity": 0.7874015748031497,
          "duration": 0.06469288541666174
        },
        {
          "name": "F#4",
          "midi": 66,
          "time": 110.78930749999863,
          "velocity": 0.7874015748031497,
          "duration": 0.06469288541666174
        },
        {
          "name": "C5",
          "midi": 72,
          "time": 110.78930749999863,
          "velocity": 0.7874015748031497,
          "duration": 0.06469288541666174
        },
        {
          "name": "F#5",
          "midi": 78,
          "time": 110.78930749999863,
          "velocity": 0.7874015748031497,
          "duration": 0.06469288541666174
        },
        {
          "name": "C6",
          "midi": 84,
          "time": 110.78930749999863,
          "velocity": 0.7874015748031497,
          "duration": 0.06469288541666174
        },
        {
          "name": "F#6",
          "midi": 90,
          "time": 110.78930749999863,
          "velocity": 0.7874015748031497,
          "duration": 0.06469288541666174
        },
        {
          "name": "C7",
          "midi": 96,
          "time": 110.78930749999863,
          "velocity": 0.7874015748031497,
          "duration": 0.06469288541666174
        },
        {
          "name": "F#7",
          "midi": 102,
          "time": 110.78930749999863,
          "velocity": 0.7874015748031497,
          "duration": 0.06469288541666174
        },
        {
          "name": "C7",
          "midi": 96,
          "time": 110.92198273958196,
          "velocity": 0.7874015748031497,
          "duration": 0.06469288541666174
        },
        {
          "name": "F#7",
          "midi": 102,
          "time": 110.92198273958196,
          "velocity": 0.7874015748031497,
          "duration": 0.06469288541666174
        },
        {
          "name": "C#4",
          "midi": 61,
          "time": 111.05246499999862,
          "velocity": 0.7874015748031497,
          "duration": 0.523025531249985
        },
        {
          "name": "F4",
          "midi": 65,
          "time": 111.05246499999862,
          "velocity": 0.7874015748031497,
          "duration": 0.523025531249985
        },
        {
          "name": "C5",
          "midi": 72,
          "time": 111.05246499999862,
          "velocity": 0.7874015748031497,
          "duration": 0.06469288541666174
        },
        {
          "name": "F#5",
          "midi": 78,
          "time": 111.05246499999862,
          "velocity": 0.7874015748031497,
          "duration": 0.06469288541666174
        },
        {
          "name": "C6",
          "midi": 84,
          "time": 111.05246499999862,
          "velocity": 0.7874015748031497,
          "duration": 0.06469288541666174
        },
        {
          "name": "F#6",
          "midi": 90,
          "time": 111.05246499999862,
          "velocity": 0.7874015748031497,
          "duration": 0.06469288541666174
        },
        {
          "name": "C7",
          "midi": 96,
          "time": 111.05246499999862,
          "velocity": 0.7874015748031497,
          "duration": 0.06469288541666174
        },
        {
          "name": "F#7",
          "midi": 102,
          "time": 111.05246499999862,
          "velocity": 0.7874015748031497,
          "duration": 0.06469288541666174
        },
        {
          "name": "C#5",
          "midi": 73,
          "time": 111.18404374999861,
          "velocity": 0.7874015748031497,
          "duration": 0.39144678124999643
        },
        {
          "name": "F5",
          "midi": 77,
          "time": 111.18404374999861,
          "velocity": 0.7874015748031497,
          "duration": 0.39144678124999643
        },
        {
          "name": "D6",
          "midi": 86,
          "time": 111.18404374999861,
          "velocity": 0.7874015748031497,
          "duration": 0.39144678124999643
        },
        {
          "name": "F6",
          "midi": 89,
          "time": 111.18404374999861,
          "velocity": 0.7874015748031497,
          "duration": 0.39144678124999643
        },
        {
          "name": "D7",
          "midi": 98,
          "time": 111.18404374999861,
          "velocity": 0.7874015748031497,
          "duration": 0.39144678124999643
        },
        {
          "name": "F7",
          "midi": 101,
          "time": 111.18404374999861,
          "velocity": 0.7874015748031497,
          "duration": 0.39144678124999643
        },
        {
          "name": "C4",
          "midi": 60,
          "time": 111.84084101041528,
          "velocity": 0.7874015748031497,
          "duration": 0.06469288541666174
        },
        {
          "name": "F#4",
          "midi": 66,
          "time": 111.84084101041528,
          "velocity": 0.7874015748031497,
          "duration": 0.06469288541666174
        },
        {
          "name": "C5",
          "midi": 72,
          "time": 111.84084101041528,
          "velocity": 0.7874015748031497,
          "duration": 0.06469288541666174
        },
        {
          "name": "F#5",
          "midi": 78,
          "time": 111.84084101041528,
          "velocity": 0.7874015748031497,
          "duration": 0.06469288541666174
        },
        {
          "name": "C#6",
          "midi": 85,
          "time": 111.84084101041528,
          "velocity": 0.7874015748031497,
          "duration": 0.06469288541666174
        },
        {
          "name": "F#6",
          "midi": 90,
          "time": 111.84084101041528,
          "velocity": 0.7874015748031497,
          "duration": 0.06469288541666174
        },
        {
          "name": "C#7",
          "midi": 97,
          "time": 111.84084101041528,
          "velocity": 0.7874015748031497,
          "duration": 0.06469288541666174
        },
        {
          "name": "F#7",
          "midi": 102,
          "time": 111.84084101041528,
          "velocity": 0.7874015748031497,
          "duration": 0.06469288541666174
        },
        {
          "name": "C4",
          "midi": 60,
          "time": 112.1050949999986,
          "velocity": 0.7874015748031497,
          "duration": 0.06578937499999427
        },
        {
          "name": "F#4",
          "midi": 66,
          "time": 112.1050949999986,
          "velocity": 0.7874015748031497,
          "duration": 0.06578937499999427
        },
        {
          "name": "C#5",
          "midi": 73,
          "time": 112.1050949999986,
          "velocity": 0.7874015748031497,
          "duration": 0.06578937499999427
        },
        {
          "name": "F#5",
          "midi": 78,
          "time": 112.1050949999986,
          "velocity": 0.7874015748031497,
          "duration": 0.06578937499999427
        },
        {
          "name": "D6",
          "midi": 86,
          "time": 112.1050949999986,
          "velocity": 0.7874015748031497,
          "duration": 0.06578937499999427
        },
        {
          "name": "F#6",
          "midi": 90,
          "time": 112.1050949999986,
          "velocity": 0.7874015748031497,
          "duration": 0.06578937499999427
        },
        {
          "name": "D7",
          "midi": 98,
          "time": 112.1050949999986,
          "velocity": 0.7874015748031497,
          "duration": 0.06578937499999427
        },
        {
          "name": "F#7",
          "midi": 102,
          "time": 112.1050949999986,
          "velocity": 0.7874015748031497,
          "duration": 0.06578937499999427
        },
        {
          "name": "C#4",
          "midi": 61,
          "time": 112.36825249999859,
          "velocity": 0.7874015748031497,
          "duration": 0.06578937499999427
        },
        {
          "name": "F#4",
          "midi": 66,
          "time": 112.36825249999859,
          "velocity": 0.7874015748031497,
          "duration": 0.06578937499999427
        },
        {
          "name": "D5",
          "midi": 74,
          "time": 112.36825249999859,
          "velocity": 0.7874015748031497,
          "duration": 0.06578937499999427
        },
        {
          "name": "F#5",
          "midi": 78,
          "time": 112.36825249999859,
          "velocity": 0.7874015748031497,
          "duration": 0.06578937499999427
        },
        {
          "name": "D#6",
          "midi": 87,
          "time": 112.36825249999859,
          "velocity": 0.7874015748031497,
          "duration": 0.06578937499999427
        },
        {
          "name": "F#6",
          "midi": 90,
          "time": 112.36825249999859,
          "velocity": 0.7874015748031497,
          "duration": 0.06578937499999427
        },
        {
          "name": "D#7",
          "midi": 99,
          "time": 112.36825249999859,
          "velocity": 0.7874015748031497,
          "duration": 0.06578937499999427
        },
        {
          "name": "F#7",
          "midi": 102,
          "time": 112.36825249999859,
          "velocity": 0.7874015748031497,
          "duration": 0.06578937499999427
        },
        {
          "name": "D4",
          "midi": 62,
          "time": 112.63140999999858,
          "velocity": 0.7874015748031497,
          "duration": 0.5252185104166642
        },
        {
          "name": "F4",
          "midi": 65,
          "time": 112.63140999999858,
          "velocity": 0.7874015748031497,
          "duration": 0.5241220208333317
        },
        {
          "name": "D#5",
          "midi": 75,
          "time": 112.63140999999858,
          "velocity": 0.7874015748031497,
          "duration": 0.5252185104166642
        },
        {
          "name": "F5",
          "midi": 77,
          "time": 112.63140999999858,
          "velocity": 0.7874015748031497,
          "duration": 0.5241220208333317
        },
        {
          "name": "E6",
          "midi": 88,
          "time": 112.63140999999858,
          "velocity": 0.7874015748031497,
          "duration": 0.5252185104166642
        },
        {
          "name": "F6",
          "midi": 89,
          "time": 112.63140999999858,
          "velocity": 0.7874015748031497,
          "duration": 0.5241220208333317
        },
        {
          "name": "E7",
          "midi": 100,
          "time": 112.63140999999858,
          "velocity": 0.7874015748031497,
          "duration": 0.5252185104166642
        },
        {
          "name": "F7",
          "midi": 101,
          "time": 112.63140999999858,
          "velocity": 0.7874015748031497,
          "duration": 0.5241220208333317
        },
        {
          "name": "C#4",
          "midi": 61,
          "time": 113.15772499999858,
          "velocity": 0.7874015748031497,
          "duration": 0.5230255312499992
        },
        {
          "name": "F4",
          "midi": 65,
          "time": 113.15772499999858,
          "velocity": 0.7874015748031497,
          "duration": 0.5230255312499992
        },
        {
          "name": "D5",
          "midi": 74,
          "time": 113.15772499999858,
          "velocity": 0.7874015748031497,
          "duration": 0.5230255312499992
        },
        {
          "name": "F5",
          "midi": 77,
          "time": 113.15772499999858,
          "velocity": 0.7874015748031497,
          "duration": 0.5230255312499992
        },
        {
          "name": "D#6",
          "midi": 87,
          "time": 113.15772499999858,
          "velocity": 0.7874015748031497,
          "duration": 0.5230255312499992
        },
        {
          "name": "F6",
          "midi": 89,
          "time": 113.15772499999858,
          "velocity": 0.7874015748031497,
          "duration": 0.5230255312499992
        },
        {
          "name": "D#7",
          "midi": 99,
          "time": 113.15772499999858,
          "velocity": 0.7874015748031497,
          "duration": 0.5230255312499992
        },
        {
          "name": "F7",
          "midi": 101,
          "time": 113.15772499999858,
          "velocity": 0.7874015748031497,
          "duration": 0.5230255312499992
        },
        {
          "name": "C4",
          "midi": 60,
          "time": 113.68403999999857,
          "velocity": 0.7874015748031497,
          "duration": 0.06578937499999427
        },
        {
          "name": "F#4",
          "midi": 66,
          "time": 113.68403999999857,
          "velocity": 0.7874015748031497,
          "duration": 0.06578937499999427
        },
        {
          "name": "C5",
          "midi": 72,
          "time": 113.68403999999857,
          "velocity": 0.7874015748031497,
          "duration": 0.06578937499999427
        },
        {
          "name": "F#5",
          "midi": 78,
          "time": 113.68403999999857,
          "velocity": 0.7874015748031497,
          "duration": 0.06578937499999427
        },
        {
          "name": "C6",
          "midi": 84,
          "time": 113.68403999999857,
          "velocity": 0.7874015748031497,
          "duration": 0.06578937499999427
        },
        {
          "name": "F#6",
          "midi": 90,
          "time": 113.68403999999857,
          "velocity": 0.7874015748031497,
          "duration": 0.06578937499999427
        },
        {
          "name": "C7",
          "midi": 96,
          "time": 113.68403999999857,
          "velocity": 0.7874015748031497,
          "duration": 0.06578937499999427
        },
        {
          "name": "F#7",
          "midi": 102,
          "time": 113.68403999999857,
          "velocity": 0.7874015748031497,
          "duration": 0.06578937499999427
        },
        {
          "name": "C#4",
          "midi": 61,
          "time": 114.07877624999857,
          "velocity": 0.7874015748031497,
          "duration": 0.06578937499999427
        },
        {
          "name": "F#4",
          "midi": 66,
          "time": 114.07877624999857,
          "velocity": 0.7874015748031497,
          "duration": 0.06578937499999427
        },
        {
          "name": "C#5",
          "midi": 73,
          "time": 114.07877624999857,
          "velocity": 0.7874015748031497,
          "duration": 0.06578937499999427
        },
        {
          "name": "F#5",
          "midi": 78,
          "time": 114.07877624999857,
          "velocity": 0.7874015748031497,
          "duration": 0.06578937499999427
        },
        {
          "name": "C#6",
          "midi": 85,
          "time": 114.07877624999857,
          "velocity": 0.7874015748031497,
          "duration": 0.06578937499999427
        },
        {
          "name": "F#6",
          "midi": 90,
          "time": 114.07877624999857,
          "velocity": 0.7874015748031497,
          "duration": 0.06578937499999427
        },
        {
          "name": "C#7",
          "midi": 97,
          "time": 114.07877624999857,
          "velocity": 0.7874015748031497,
          "duration": 0.06578937499999427
        },
        {
          "name": "F#7",
          "midi": 102,
          "time": 114.07877624999857,
          "velocity": 0.7874015748031497,
          "duration": 0.06578937499999427
        },
        {
          "name": "C#7",
          "midi": 97,
          "time": 114.34193374999856,
          "velocity": 0.7874015748031497,
          "duration": 0.06469288541666174
        },
        {
          "name": "F#7",
          "midi": 102,
          "time": 114.34193374999856,
          "velocity": 0.7874015748031497,
          "duration": 0.06469288541666174
        },
        {
          "name": "D4",
          "midi": 62,
          "time": 114.47241601041522,
          "velocity": 0.7874015748031497,
          "duration": 0.06578937499999427
        },
        {
          "name": "F#4",
          "midi": 66,
          "time": 114.47241601041522,
          "velocity": 0.7874015748031497,
          "duration": 0.06578937499999427
        },
        {
          "name": "D5",
          "midi": 74,
          "time": 114.47241601041522,
          "velocity": 0.7874015748031497,
          "duration": 0.06578937499999427
        },
        {
          "name": "F#5",
          "midi": 78,
          "time": 114.47241601041522,
          "velocity": 0.7874015748031497,
          "duration": 0.06578937499999427
        },
        {
          "name": "D6",
          "midi": 86,
          "time": 114.47241601041522,
          "velocity": 0.7874015748031497,
          "duration": 0.06578937499999427
        },
        {
          "name": "F#6",
          "midi": 90,
          "time": 114.47241601041522,
          "velocity": 0.7874015748031497,
          "duration": 0.06578937499999427
        },
        {
          "name": "D7",
          "midi": 98,
          "time": 114.47241601041522,
          "velocity": 0.7874015748031497,
          "duration": 0.06578937499999427
        },
        {
          "name": "F7",
          "midi": 101,
          "time": 114.47241601041522,
          "velocity": 0.7874015748031497,
          "duration": 0.06578937499999427
        },
        {
          "name": "C4",
          "midi": 60,
          "time": 114.73666999999854,
          "velocity": 0.7874015748031497,
          "duration": 0.06469288541666174
        },
        {
          "name": "F#4",
          "midi": 66,
          "time": 114.73666999999854,
          "velocity": 0.7874015748031497,
          "duration": 0.06469288541666174
        },
        {
          "name": "C#5",
          "midi": 73,
          "time": 114.73666999999854,
          "velocity": 0.7874015748031497,
          "duration": 0.06469288541666174
        },
        {
          "name": "F#5",
          "midi": 78,
          "time": 114.73666999999854,
          "velocity": 0.7874015748031497,
          "duration": 0.06469288541666174
        },
        {
          "name": "C#6",
          "midi": 85,
          "time": 114.73666999999854,
          "velocity": 0.7874015748031497,
          "duration": 0.06469288541666174
        },
        {
          "name": "F#6",
          "midi": 90,
          "time": 114.73666999999854,
          "velocity": 0.7874015748031497,
          "duration": 0.06469288541666174
        },
        {
          "name": "C#7",
          "midi": 97,
          "time": 114.73666999999854,
          "velocity": 0.7874015748031497,
          "duration": 0.06469288541666174
        },
        {
          "name": "F#7",
          "midi": 102,
          "time": 114.73666999999854,
          "velocity": 0.7874015748031497,
          "duration": 0.06469288541666174
        },
        {
          "name": "D7",
          "midi": 98,
          "time": 114.82329267708187,
          "velocity": 0.7874015748031497,
          "duration": 0.06578937499999427
        },
        {
          "name": "F7",
          "midi": 101,
          "time": 114.82329267708187,
          "velocity": 0.7874015748031497,
          "duration": 0.06578937499999427
        },
        {
          "name": "D6",
          "midi": 86,
          "time": 114.86824874999853,
          "velocity": 0.7874015748031497,
          "duration": 0.06469288541666174
        },
        {
          "name": "F6",
          "midi": 89,
          "time": 114.86824874999853,
          "velocity": 0.7874015748031497,
          "duration": 0.06469288541666174
        },
        {
          "name": "C#7",
          "midi": 97,
          "time": 114.91210833333186,
          "velocity": 0.7874015748031497,
          "duration": 0.06469288541666174
        },
        {
          "name": "F7",
          "midi": 101,
          "time": 114.91210833333186,
          "velocity": 0.7874015748031497,
          "duration": 0.06469288541666174
        },
        {
          "name": "C#4",
          "midi": 61,
          "time": 114.99982749999852,
          "velocity": 0.7874015748031497,
          "duration": 0.06469288541666174
        },
        {
          "name": "F4",
          "midi": 65,
          "time": 114.99982749999852,
          "velocity": 0.7874015748031497,
          "duration": 0.06469288541666174
        },
        {
          "name": "D5",
          "midi": 74,
          "time": 114.99982749999852,
          "velocity": 0.7874015748031497,
          "duration": 0.06469288541666174
        },
        {
          "name": "F5",
          "midi": 77,
          "time": 114.99982749999852,
          "velocity": 0.7874015748031497,
          "duration": 0.06469288541666174
        },
        {
          "name": "C#6",
          "midi": 85,
          "time": 114.99982749999852,
          "velocity": 0.7874015748031497,
          "duration": 0.06469288541666174
        },
        {
          "name": "F6",
          "midi": 89,
          "time": 114.99982749999852,
          "velocity": 0.7874015748031497,
          "duration": 0.06469288541666174
        },
        {
          "name": "D7",
          "midi": 98,
          "time": 115.08754666666518,
          "velocity": 0.7874015748031497,
          "duration": 0.06578937499999427
        },
        {
          "name": "F7",
          "midi": 101,
          "time": 115.08754666666518,
          "velocity": 0.7874015748031497,
          "duration": 0.06578937499999427
        },
        {
          "name": "D4",
          "midi": 62,
          "time": 115.26298499999851,
          "velocity": 0.7874015748031497,
          "duration": 0.7883760104166697
        },
        {
          "name": "F4",
          "midi": 65,
          "time": 115.26298499999851,
          "velocity": 0.7874015748031497,
          "duration": 0.7883760104166697
        },
        {
          "name": "D#5",
          "midi": 75,
          "time": 115.26298499999851,
          "velocity": 0.7874015748031497,
          "duration": 0.7883760104166697
        },
        {
          "name": "F5",
          "midi": 77,
          "time": 115.26298499999851,
          "velocity": 0.7874015748031497,
          "duration": 0.7883760104166697
        },
        {
          "name": "D#6",
          "midi": 87,
          "time": 115.26298499999851,
          "velocity": 0.7874015748031497,
          "duration": 0.7883760104166697
        },
        {
          "name": "F6",
          "midi": 89,
          "time": 115.26298499999851,
          "velocity": 0.7874015748031497,
          "duration": 0.7883760104166697
        },
        {
          "name": "D#7",
          "midi": 99,
          "time": 115.26298499999851,
          "velocity": 0.7874015748031497,
          "duration": 0.7883760104166697
        },
        {
          "name": "F7",
          "midi": 101,
          "time": 115.26298499999851,
          "velocity": 0.7874015748031497,
          "duration": 0.7883760104166697
        },
        {
          "name": "C4",
          "midi": 60,
          "time": 116.05245749999851,
          "velocity": 0.7874015748031497,
          "duration": 0.06578937499999427
        },
        {
          "name": "F#4",
          "midi": 66,
          "time": 116.05245749999851,
          "velocity": 0.7874015748031497,
          "duration": 0.06578937499999427
        },
        {
          "name": "C5",
          "midi": 72,
          "time": 116.05245749999851,
          "velocity": 0.7874015748031497,
          "duration": 0.06578937499999427
        },
        {
          "name": "F#5",
          "midi": 78,
          "time": 116.05245749999851,
          "velocity": 0.7874015748031497,
          "duration": 0.06578937499999427
        },
        {
          "name": "C6",
          "midi": 84,
          "time": 116.05245749999851,
          "velocity": 0.7874015748031497,
          "duration": 0.06578937499999427
        },
        {
          "name": "F#6",
          "midi": 90,
          "time": 116.05245749999851,
          "velocity": 0.7874015748031497,
          "duration": 0.06578937499999427
        },
        {
          "name": "C7",
          "midi": 96,
          "time": 116.05245749999851,
          "velocity": 0.7874015748031497,
          "duration": 0.06578937499999427
        },
        {
          "name": "F#7",
          "midi": 102,
          "time": 116.05245749999851,
          "velocity": 0.7874015748031497,
          "duration": 0.06578937499999427
        },
        {
          "name": "C#4",
          "midi": 61,
          "time": 116.3156149999985,
          "velocity": 0.7874015748031497,
          "duration": 0.06578937499999427
        },
        {
          "name": "F#4",
          "midi": 66,
          "time": 116.3156149999985,
          "velocity": 0.7874015748031497,
          "duration": 0.06578937499999427
        },
        {
          "name": "C#5",
          "midi": 73,
          "time": 116.3156149999985,
          "velocity": 0.7874015748031497,
          "duration": 0.06578937499999427
        },
        {
          "name": "F#5",
          "midi": 78,
          "time": 116.3156149999985,
          "velocity": 0.7874015748031497,
          "duration": 0.06578937499999427
        },
        {
          "name": "C#6",
          "midi": 85,
          "time": 116.3156149999985,
          "velocity": 0.7874015748031497,
          "duration": 0.06578937499999427
        },
        {
          "name": "F#6",
          "midi": 90,
          "time": 116.3156149999985,
          "velocity": 0.7874015748031497,
          "duration": 0.06578937499999427
        },
        {
          "name": "C#7",
          "midi": 97,
          "time": 116.3156149999985,
          "velocity": 0.7874015748031497,
          "duration": 0.06578937499999427
        },
        {
          "name": "F#7",
          "midi": 102,
          "time": 116.3156149999985,
          "velocity": 0.7874015748031497,
          "duration": 0.06578937499999427
        },
        {
          "name": "D4",
          "midi": 62,
          "time": 116.5787724999985,
          "velocity": 0.7874015748031497,
          "duration": 0.06578937499999427
        },
        {
          "name": "F#4",
          "midi": 66,
          "time": 116.5787724999985,
          "velocity": 0.7874015748031497,
          "duration": 0.06578937499999427
        },
        {
          "name": "D5",
          "midi": 74,
          "time": 116.5787724999985,
          "velocity": 0.7874015748031497,
          "duration": 0.06578937499999427
        },
        {
          "name": "F#5",
          "midi": 78,
          "time": 116.5787724999985,
          "velocity": 0.7874015748031497,
          "duration": 0.06578937499999427
        },
        {
          "name": "D6",
          "midi": 86,
          "time": 116.5787724999985,
          "velocity": 0.7874015748031497,
          "duration": 0.06578937499999427
        },
        {
          "name": "F#6",
          "midi": 90,
          "time": 116.5787724999985,
          "velocity": 0.7874015748031497,
          "duration": 0.06578937499999427
        },
        {
          "name": "C#7",
          "midi": 97,
          "time": 116.5787724999985,
          "velocity": 0.7874015748031497,
          "duration": 0.06469288541666174
        },
        {
          "name": "F#7",
          "midi": 102,
          "time": 116.5787724999985,
          "velocity": 0.7874015748031497,
          "duration": 0.06469288541666174
        },
        {
          "name": "D7",
          "midi": 98,
          "time": 116.64456187499849,
          "velocity": 0.7874015748031497,
          "duration": 0.06578937499999427
        },
        {
          "name": "F7",
          "midi": 101,
          "time": 116.64456187499849,
          "velocity": 0.7874015748031497,
          "duration": 0.06578937499999427
        },
        {
          "name": "C4",
          "midi": 60,
          "time": 116.84192999999848,
          "velocity": 0.7874015748031497,
          "duration": 0.06578937499999427
        },
        {
          "name": "F#4",
          "midi": 66,
          "time": 116.84192999999848,
          "velocity": 0.7874015748031497,
          "duration": 0.06578937499999427
        },
        {
          "name": "C#5",
          "midi": 73,
          "time": 116.84192999999848,
          "velocity": 0.7874015748031497,
          "duration": 0.06578937499999427
        },
        {
          "name": "F#5",
          "midi": 78,
          "time": 116.84192999999848,
          "velocity": 0.7874015748031497,
          "duration": 0.06578937499999427
        },
        {
          "name": "C#6",
          "midi": 85,
          "time": 116.84192999999848,
          "velocity": 0.7874015748031497,
          "duration": 0.06578937499999427
        },
        {
          "name": "F#6",
          "midi": 90,
          "time": 116.84192999999848,
          "velocity": 0.7874015748031497,
          "duration": 0.06578937499999427
        },
        {
          "name": "C#7",
          "midi": 97,
          "time": 116.84192999999848,
          "velocity": 0.7874015748031497,
          "duration": 0.06578937499999427
        },
        {
          "name": "F#7",
          "midi": 102,
          "time": 116.84192999999848,
          "velocity": 0.7874015748031497,
          "duration": 0.06578937499999427
        },
        {
          "name": "D7",
          "midi": 98,
          "time": 116.92964916666514,
          "velocity": 0.7874015748031497,
          "duration": 0.06578937499999427
        },
        {
          "name": "F7",
          "midi": 101,
          "time": 116.92964916666514,
          "velocity": 0.7874015748031497,
          "duration": 0.06578937499999427
        },
        {
          "name": "C#7",
          "midi": 97,
          "time": 117.0173683333318,
          "velocity": 0.7874015748031497,
          "duration": 0.06469288541666174
        },
        {
          "name": "F7",
          "midi": 101,
          "time": 117.0173683333318,
          "velocity": 0.7874015748031497,
          "duration": 0.06469288541666174
        },
        {
          "name": "C#4",
          "midi": 61,
          "time": 117.10399101041513,
          "velocity": 0.7874015748031497,
          "duration": 0.06578937499999427
        },
        {
          "name": "F4",
          "midi": 65,
          "time": 117.10399101041513,
          "velocity": 0.7874015748031497,
          "duration": 0.06578937499999427
        },
        {
          "name": "D5",
          "midi": 74,
          "time": 117.10399101041513,
          "velocity": 0.7874015748031497,
          "duration": 0.06578937499999427
        },
        {
          "name": "F5",
          "midi": 77,
          "time": 117.10399101041513,
          "velocity": 0.7874015748031497,
          "duration": 0.06578937499999427
        },
        {
          "name": "D6",
          "midi": 86,
          "time": 117.10399101041513,
          "velocity": 0.7874015748031497,
          "duration": 0.06578937499999427
        },
        {
          "name": "F#6",
          "midi": 90,
          "time": 117.10399101041513,
          "velocity": 0.7874015748031497,
          "duration": 0.06578937499999427
        },
        {
          "name": "D7",
          "midi": 98,
          "time": 117.19171017708179,
          "velocity": 0.7874015748031497,
          "duration": 0.06578937499999427
        },
        {
          "name": "F7",
          "midi": 101,
          "time": 117.19171017708179,
          "velocity": 0.7874015748031497,
          "duration": 0.06578937499999427
        },
        {
          "name": "D4",
          "midi": 62,
          "time": 117.36824499999845,
          "velocity": 0.7874015748031497,
          "duration": 0.06578937499999427
        },
        {
          "name": "F4",
          "midi": 65,
          "time": 117.36824499999845,
          "velocity": 0.7874015748031497,
          "duration": 0.06578937499999427
        },
        {
          "name": "D#5",
          "midi": 75,
          "time": 117.36824499999845,
          "velocity": 0.7874015748031497,
          "duration": 0.06578937499999427
        },
        {
          "name": "F5",
          "midi": 77,
          "time": 117.36824499999845,
          "velocity": 0.7874015748031497,
          "duration": 0.06578937499999427
        },
        {
          "name": "D#6",
          "midi": 87,
          "time": 117.36824499999845,
          "velocity": 0.7874015748031497,
          "duration": 0.06578937499999427
        },
        {
          "name": "F#6",
          "midi": 90,
          "time": 117.36824499999845,
          "velocity": 0.7874015748031497,
          "duration": 0.06578937499999427
        },
        {
          "name": "D#7",
          "midi": 99,
          "time": 117.36824499999845,
          "velocity": 0.7874015748031497,
          "duration": 0.06578937499999427
        },
        {
          "name": "F7",
          "midi": 101,
          "time": 117.36824499999845,
          "velocity": 0.7874015748031497,
          "duration": 0.06578937499999427
        },
        {
          "name": "D6",
          "midi": 86,
          "time": 117.49982374999844,
          "velocity": 0.7874015748031497,
          "duration": 0.06578937499999427
        },
        {
          "name": "F6",
          "midi": 89,
          "time": 117.49982374999844,
          "velocity": 0.7874015748031497,
          "duration": 0.06578937499999427
        },
        {
          "name": "D7",
          "midi": 98,
          "time": 117.49982374999844,
          "velocity": 0.7874015748031497,
          "duration": 0.06578937499999427
        },
        {
          "name": "F7",
          "midi": 101,
          "time": 117.49982374999844,
          "velocity": 0.7874015748031497,
          "duration": 0.06578937499999427
        },
        {
          "name": "C#4",
          "midi": 61,
          "time": 117.6303060104151,
          "velocity": 0.7874015748031497,
          "duration": 0.06578937499999427
        },
        {
          "name": "F4",
          "midi": 65,
          "time": 117.6303060104151,
          "velocity": 0.7874015748031497,
          "duration": 0.06578937499999427
        },
        {
          "name": "D5",
          "midi": 74,
          "time": 117.6303060104151,
          "velocity": 0.7874015748031497,
          "duration": 0.06578937499999427
        },
        {
          "name": "F5",
          "midi": 77,
          "time": 117.6303060104151,
          "velocity": 0.7874015748031497,
          "duration": 0.06578937499999427
        },
        {
          "name": "D#6",
          "midi": 87,
          "time": 117.6303060104151,
          "velocity": 0.7874015748031497,
          "duration": 0.06578937499999427
        },
        {
          "name": "F6",
          "midi": 89,
          "time": 117.6303060104151,
          "velocity": 0.7874015748031497,
          "duration": 0.06578937499999427
        },
        {
          "name": "D#7",
          "midi": 99,
          "time": 117.6303060104151,
          "velocity": 0.7874015748031497,
          "duration": 0.06578937499999427
        },
        {
          "name": "F7",
          "midi": 101,
          "time": 117.6303060104151,
          "velocity": 0.7874015748031497,
          "duration": 0.06578937499999427
        },
        {
          "name": "D7",
          "midi": 98,
          "time": 117.76188476041509,
          "velocity": 0.7874015748031497,
          "duration": 0.06578937499999427
        },
        {
          "name": "F7",
          "midi": 101,
          "time": 117.76188476041509,
          "velocity": 0.7874015748031497,
          "duration": 0.06578937499999427
        },
        {
          "name": "C4",
          "midi": 60,
          "time": 117.8945599999984,
          "velocity": 0.7874015748031497,
          "duration": 0.06578937499999427
        },
        {
          "name": "F#4",
          "midi": 66,
          "time": 117.8945599999984,
          "velocity": 0.7874015748031497,
          "duration": 0.06578937499999427
        },
        {
          "name": "C5",
          "midi": 72,
          "time": 117.8945599999984,
          "velocity": 0.7874015748031497,
          "duration": 0.06578937499999427
        },
        {
          "name": "F#5",
          "midi": 78,
          "time": 117.8945599999984,
          "velocity": 0.7874015748031497,
          "duration": 0.06578937499999427
        },
        {
          "name": "C6",
          "midi": 84,
          "time": 117.8945599999984,
          "velocity": 0.7874015748031497,
          "duration": 0.06578937499999427
        },
        {
          "name": "F#6",
          "midi": 90,
          "time": 117.8945599999984,
          "velocity": 0.7874015748031497,
          "duration": 0.06578937499999427
        },
        {
          "name": "C7",
          "midi": 96,
          "time": 117.8945599999984,
          "velocity": 0.7874015748031497,
          "duration": 0.06578937499999427
        },
        {
          "name": "F7",
          "midi": 101,
          "time": 117.8945599999984,
          "velocity": 0.7874015748031497,
          "duration": 0.06578937499999427
        },
        {
          "name": "C#4",
          "midi": 61,
          "time": 118.2892962499984,
          "velocity": 0.7874015748031497,
          "duration": 0.06469288541666174
        },
        {
          "name": "F#4",
          "midi": 66,
          "time": 118.2892962499984,
          "velocity": 0.7874015748031497,
          "duration": 0.06469288541666174
        },
        {
          "name": "C#5",
          "midi": 73,
          "time": 118.2892962499984,
          "velocity": 0.7874015748031497,
          "duration": 0.06469288541666174
        },
        {
          "name": "F#5",
          "midi": 78,
          "time": 118.2892962499984,
          "velocity": 0.7874015748031497,
          "duration": 0.06469288541666174
        },
        {
          "name": "C#6",
          "midi": 85,
          "time": 118.2892962499984,
          "velocity": 0.7874015748031497,
          "duration": 0.06469288541666174
        },
        {
          "name": "F#6",
          "midi": 90,
          "time": 118.2892962499984,
          "velocity": 0.7874015748031497,
          "duration": 0.06469288541666174
        },
        {
          "name": "C#7",
          "midi": 97,
          "time": 118.2892962499984,
          "velocity": 0.7874015748031497,
          "duration": 0.06469288541666174
        },
        {
          "name": "F#7",
          "midi": 102,
          "time": 118.2892962499984,
          "velocity": 0.7874015748031497,
          "duration": 0.06469288541666174
        },
        {
          "name": "C#7",
          "midi": 97,
          "time": 118.55245374999839,
          "velocity": 0.7874015748031497,
          "duration": 0.06578937499999427
        },
        {
          "name": "F#7",
          "midi": 102,
          "time": 118.55245374999839,
          "velocity": 0.7874015748031497,
          "duration": 0.06578937499999427
        },
        {
          "name": "D4",
          "midi": 62,
          "time": 118.68403249999838,
          "velocity": 0.7874015748031497,
          "duration": 0.06578937499999427
        },
        {
          "name": "F#4",
          "midi": 66,
          "time": 118.68403249999838,
          "velocity": 0.7874015748031497,
          "duration": 0.06578937499999427
        },
        {
          "name": "D5",
          "midi": 74,
          "time": 118.68403249999838,
          "velocity": 0.7874015748031497,
          "duration": 0.06578937499999427
        },
        {
          "name": "F#5",
          "midi": 78,
          "time": 118.68403249999838,
          "velocity": 0.7874015748031497,
          "duration": 0.06578937499999427
        },
        {
          "name": "D6",
          "midi": 86,
          "time": 118.68403249999838,
          "velocity": 0.7874015748031497,
          "duration": 0.06578937499999427
        },
        {
          "name": "F#6",
          "midi": 90,
          "time": 118.68403249999838,
          "velocity": 0.7874015748031497,
          "duration": 0.06578937499999427
        },
        {
          "name": "D7",
          "midi": 98,
          "time": 118.68403249999838,
          "velocity": 0.7874015748031497,
          "duration": 0.06578937499999427
        },
        {
          "name": "F7",
          "midi": 101,
          "time": 118.68403249999838,
          "velocity": 0.7874015748031497,
          "duration": 0.06578937499999427
        },
        {
          "name": "C4",
          "midi": 60,
          "time": 118.94718999999837,
          "velocity": 0.7874015748031497,
          "duration": 0.06578937499999427
        },
        {
          "name": "F#4",
          "midi": 66,
          "time": 118.94718999999837,
          "velocity": 0.7874015748031497,
          "duration": 0.06578937499999427
        },
        {
          "name": "C#5",
          "midi": 73,
          "time": 118.94718999999837,
          "velocity": 0.7874015748031497,
          "duration": 0.06578937499999427
        },
        {
          "name": "F#5",
          "midi": 78,
          "time": 118.94718999999837,
          "velocity": 0.7874015748031497,
          "duration": 0.06578937499999427
        },
        {
          "name": "C#6",
          "midi": 85,
          "time": 118.94718999999837,
          "velocity": 0.7874015748031497,
          "duration": 0.06578937499999427
        },
        {
          "name": "F#6",
          "midi": 90,
          "time": 118.94718999999837,
          "velocity": 0.7874015748031497,
          "duration": 0.06578937499999427
        },
        {
          "name": "C#7",
          "midi": 97,
          "time": 118.94718999999837,
          "velocity": 0.7874015748031497,
          "duration": 0.06578937499999427
        },
        {
          "name": "F#7",
          "midi": 102,
          "time": 118.94718999999837,
          "velocity": 0.7874015748031497,
          "duration": 0.06578937499999427
        },
        {
          "name": "D7",
          "midi": 98,
          "time": 119.03490916666503,
          "velocity": 0.7874015748031497,
          "duration": 0.06578937499999427
        },
        {
          "name": "F7",
          "midi": 101,
          "time": 119.03490916666503,
          "velocity": 0.7874015748031497,
          "duration": 0.06578937499999427
        },
        {
          "name": "D6",
          "midi": 86,
          "time": 119.07876874999836,
          "velocity": 0.7874015748031497,
          "duration": 0.06578937499999427
        },
        {
          "name": "F6",
          "midi": 89,
          "time": 119.07876874999836,
          "velocity": 0.7874015748031497,
          "duration": 0.06578937499999427
        },
        {
          "name": "C#7",
          "midi": 97,
          "time": 119.12262833333169,
          "velocity": 0.7874015748031497,
          "duration": 0.06578937499999427
        },
        {
          "name": "F7",
          "midi": 101,
          "time": 119.12262833333169,
          "velocity": 0.7874015748031497,
          "duration": 0.06578937499999427
        },
        {
          "name": "C#4",
          "midi": 61,
          "time": 119.21034749999835,
          "velocity": 0.7874015748031497,
          "duration": 0.06578937499999427
        },
        {
          "name": "F4",
          "midi": 65,
          "time": 119.21034749999835,
          "velocity": 0.7874015748031497,
          "duration": 0.06578937499999427
        },
        {
          "name": "D5",
          "midi": 74,
          "time": 119.21034749999835,
          "velocity": 0.7874015748031497,
          "duration": 0.06578937499999427
        },
        {
          "name": "F5",
          "midi": 77,
          "time": 119.21034749999835,
          "velocity": 0.7874015748031497,
          "duration": 0.06578937499999427
        },
        {
          "name": "C#6",
          "midi": 85,
          "time": 119.21034749999835,
          "velocity": 0.7874015748031497,
          "duration": 0.06578937499999427
        },
        {
          "name": "F6",
          "midi": 89,
          "time": 119.21034749999835,
          "velocity": 0.7874015748031497,
          "duration": 0.06578937499999427
        },
        {
          "name": "D7",
          "midi": 98,
          "time": 119.29806666666501,
          "velocity": 0.7874015748031497,
          "duration": 0.06578937499999427
        },
        {
          "name": "F7",
          "midi": 101,
          "time": 119.29806666666501,
          "velocity": 0.7874015748031497,
          "duration": 0.06578937499999427
        },
        {
          "name": "D4",
          "midi": 62,
          "time": 119.47350499999834,
          "velocity": 0.7874015748031497,
          "duration": 0.7883760104166697
        },
        {
          "name": "F4",
          "midi": 65,
          "time": 119.47350499999834,
          "velocity": 0.7874015748031497,
          "duration": 0.7883760104166697
        },
        {
          "name": "D#5",
          "midi": 75,
          "time": 119.47350499999834,
          "velocity": 0.7874015748031497,
          "duration": 0.7883760104166697
        },
        {
          "name": "F5",
          "midi": 77,
          "time": 119.47350499999834,
          "velocity": 0.7874015748031497,
          "duration": 0.7883760104166697
        },
        {
          "name": "D#6",
          "midi": 87,
          "time": 119.47350499999834,
          "velocity": 0.7874015748031497,
          "duration": 0.7883760104166697
        },
        {
          "name": "F6",
          "midi": 89,
          "time": 119.47350499999834,
          "velocity": 0.7874015748031497,
          "duration": 0.7883760104166697
        },
        {
          "name": "D#7",
          "midi": 99,
          "time": 119.47350499999834,
          "velocity": 0.7874015748031497,
          "duration": 0.7883760104166697
        },
        {
          "name": "F7",
          "midi": 101,
          "time": 119.47350499999834,
          "velocity": 0.7874015748031497,
          "duration": 0.7883760104166697
        },
        {
          "name": "C4",
          "midi": 60,
          "time": 120.26407398958168,
          "velocity": 0.7874015748031497,
          "duration": 0.06469288541666174
        },
        {
          "name": "F#4",
          "midi": 66,
          "time": 120.26407398958168,
          "velocity": 0.7874015748031497,
          "duration": 0.06469288541666174
        },
        {
          "name": "C5",
          "midi": 72,
          "time": 120.26407398958168,
          "velocity": 0.7874015748031497,
          "duration": 0.06469288541666174
        },
        {
          "name": "F#5",
          "midi": 78,
          "time": 120.26407398958168,
          "velocity": 0.7874015748031497,
          "duration": 0.06469288541666174
        },
        {
          "name": "C6",
          "midi": 84,
          "time": 120.26407398958168,
          "velocity": 0.7874015748031497,
          "duration": 0.06469288541666174
        },
        {
          "name": "F#6",
          "midi": 90,
          "time": 120.26407398958168,
          "velocity": 0.7874015748031497,
          "duration": 0.06469288541666174
        },
        {
          "name": "C7",
          "midi": 96,
          "time": 120.26407398958168,
          "velocity": 0.7874015748031497,
          "duration": 0.06469288541666174
        },
        {
          "name": "F#7",
          "midi": 102,
          "time": 120.26407398958168,
          "velocity": 0.7874015748031497,
          "duration": 0.06469288541666174
        },
        {
          "name": "C#4",
          "midi": 61,
          "time": 120.52613499999833,
          "velocity": 0.7874015748031497,
          "duration": 0.06578937499999427
        },
        {
          "name": "F#4",
          "midi": 66,
          "time": 120.52613499999833,
          "velocity": 0.7874015748031497,
          "duration": 0.06578937499999427
        },
        {
          "name": "C#5",
          "midi": 73,
          "time": 120.52613499999833,
          "velocity": 0.7874015748031497,
          "duration": 0.06578937499999427
        },
        {
          "name": "F#5",
          "midi": 78,
          "time": 120.52613499999833,
          "velocity": 0.7874015748031497,
          "duration": 0.06578937499999427
        },
        {
          "name": "C#6",
          "midi": 85,
          "time": 120.52613499999833,
          "velocity": 0.7874015748031497,
          "duration": 0.06578937499999427
        },
        {
          "name": "F#6",
          "midi": 90,
          "time": 120.52613499999833,
          "velocity": 0.7874015748031497,
          "duration": 0.06578937499999427
        },
        {
          "name": "C#7",
          "midi": 97,
          "time": 120.52613499999833,
          "velocity": 0.7874015748031497,
          "duration": 0.06578937499999427
        },
        {
          "name": "F#7",
          "midi": 102,
          "time": 120.52613499999833,
          "velocity": 0.7874015748031497,
          "duration": 0.06578937499999427
        },
        {
          "name": "D4",
          "midi": 62,
          "time": 120.78929249999833,
          "velocity": 0.7874015748031497,
          "duration": 0.06578937499999427
        },
        {
          "name": "F#4",
          "midi": 66,
          "time": 120.78929249999833,
          "velocity": 0.7874015748031497,
          "duration": 0.06578937499999427
        },
        {
          "name": "D5",
          "midi": 74,
          "time": 120.78929249999833,
          "velocity": 0.7874015748031497,
          "duration": 0.06578937499999427
        },
        {
          "name": "F#5",
          "midi": 78,
          "time": 120.78929249999833,
          "velocity": 0.7874015748031497,
          "duration": 0.06578937499999427
        },
        {
          "name": "D6",
          "midi": 86,
          "time": 120.78929249999833,
          "velocity": 0.7874015748031497,
          "duration": 0.06578937499999427
        },
        {
          "name": "F#6",
          "midi": 90,
          "time": 120.78929249999833,
          "velocity": 0.7874015748031497,
          "duration": 0.06578937499999427
        },
        {
          "name": "C#7",
          "midi": 97,
          "time": 120.78929249999833,
          "velocity": 0.7874015748031497,
          "duration": 0.06469288541666174
        },
        {
          "name": "F#7",
          "midi": 102,
          "time": 120.78929249999833,
          "velocity": 0.7874015748031497,
          "duration": 0.06469288541666174
        },
        {
          "name": "D7",
          "midi": 98,
          "time": 120.85508187499832,
          "velocity": 0.7874015748031497,
          "duration": 0.06469288541666174
        },
        {
          "name": "F7",
          "midi": 101,
          "time": 120.85508187499832,
          "velocity": 0.7874015748031497,
          "duration": 0.06469288541666174
        },
        {
          "name": "C4",
          "midi": 60,
          "time": 121.05244999999832,
          "velocity": 0.7874015748031497,
          "duration": 0.06578937499999427
        },
        {
          "name": "F#4",
          "midi": 66,
          "time": 121.05244999999832,
          "velocity": 0.7874015748031497,
          "duration": 0.06578937499999427
        },
        {
          "name": "C#5",
          "midi": 73,
          "time": 121.05244999999832,
          "velocity": 0.7874015748031497,
          "duration": 0.06578937499999427
        },
        {
          "name": "F#5",
          "midi": 78,
          "time": 121.05244999999832,
          "velocity": 0.7874015748031497,
          "duration": 0.06578937499999427
        },
        {
          "name": "C#6",
          "midi": 85,
          "time": 121.05244999999832,
          "velocity": 0.7874015748031497,
          "duration": 0.06578937499999427
        },
        {
          "name": "F#6",
          "midi": 90,
          "time": 121.05244999999832,
          "velocity": 0.7874015748031497,
          "duration": 0.06578937499999427
        },
        {
          "name": "C#7",
          "midi": 97,
          "time": 121.05244999999832,
          "velocity": 0.7874015748031497,
          "duration": 0.06578937499999427
        },
        {
          "name": "F#7",
          "midi": 102,
          "time": 121.05244999999832,
          "velocity": 0.7874015748031497,
          "duration": 0.06578937499999427
        },
        {
          "name": "D7",
          "midi": 98,
          "time": 121.14016916666498,
          "velocity": 0.7874015748031497,
          "duration": 0.06578937499999427
        },
        {
          "name": "F7",
          "midi": 101,
          "time": 121.14016916666498,
          "velocity": 0.7874015748031497,
          "duration": 0.06578937499999427
        },
        {
          "name": "C#7",
          "midi": 97,
          "time": 121.22788833333163,
          "velocity": 0.7874015748031497,
          "duration": 0.06469288541666174
        },
        {
          "name": "F7",
          "midi": 101,
          "time": 121.22788833333163,
          "velocity": 0.7874015748031497,
          "duration": 0.06469288541666174
        },
        {
          "name": "C#4",
          "midi": 61,
          "time": 121.3156074999983,
          "velocity": 0.7874015748031497,
          "duration": 0.06578937499999427
        },
        {
          "name": "F4",
          "midi": 65,
          "time": 121.3156074999983,
          "velocity": 0.7874015748031497,
          "duration": 0.06578937499999427
        },
        {
          "name": "D5",
          "midi": 74,
          "time": 121.3156074999983,
          "velocity": 0.7874015748031497,
          "duration": 0.06578937499999427
        },
        {
          "name": "F5",
          "midi": 77,
          "time": 121.3156074999983,
          "velocity": 0.7874015748031497,
          "duration": 0.06578937499999427
        },
        {
          "name": "D6",
          "midi": 86,
          "time": 121.3156074999983,
          "velocity": 0.7874015748031497,
          "duration": 0.06578937499999427
        },
        {
          "name": "F#6",
          "midi": 90,
          "time": 121.3156074999983,
          "velocity": 0.7874015748031497,
          "duration": 0.06578937499999427
        },
        {
          "name": "D7",
          "midi": 98,
          "time": 121.40223017708162,
          "velocity": 0.7874015748031497,
          "duration": 0.06578937499999427
        },
        {
          "name": "F7",
          "midi": 101,
          "time": 121.40223017708162,
          "velocity": 0.7874015748031497,
          "duration": 0.06578937499999427
        },
        {
          "name": "D4",
          "midi": 62,
          "time": 121.57876499999828,
          "velocity": 0.7874015748031497,
          "duration": 0.06578937499999427
        },
        {
          "name": "F4",
          "midi": 65,
          "time": 121.57876499999828,
          "velocity": 0.7874015748031497,
          "duration": 0.06578937499999427
        },
        {
          "name": "D#5",
          "midi": 75,
          "time": 121.57876499999828,
          "velocity": 0.7874015748031497,
          "duration": 0.06578937499999427
        },
        {
          "name": "F5",
          "midi": 77,
          "time": 121.57876499999828,
          "velocity": 0.7874015748031497,
          "duration": 0.06578937499999427
        },
        {
          "name": "D#6",
          "midi": 87,
          "time": 121.57876499999828,
          "velocity": 0.7874015748031497,
          "duration": 0.06578937499999427
        },
        {
          "name": "F#6",
          "midi": 90,
          "time": 121.57876499999828,
          "velocity": 0.7874015748031497,
          "duration": 0.06578937499999427
        },
        {
          "name": "D#7",
          "midi": 99,
          "time": 121.57876499999828,
          "velocity": 0.7874015748031497,
          "duration": 0.06578937499999427
        },
        {
          "name": "F7",
          "midi": 101,
          "time": 121.57876499999828,
          "velocity": 0.7874015748031497,
          "duration": 0.06578937499999427
        },
        {
          "name": "D6",
          "midi": 86,
          "time": 121.71034374999827,
          "velocity": 0.7874015748031497,
          "duration": 0.06578937499999427
        },
        {
          "name": "F6",
          "midi": 89,
          "time": 121.71034374999827,
          "velocity": 0.7874015748031497,
          "duration": 0.06578937499999427
        },
        {
          "name": "D7",
          "midi": 98,
          "time": 121.71034374999827,
          "velocity": 0.7874015748031497,
          "duration": 0.06578937499999427
        },
        {
          "name": "F7",
          "midi": 101,
          "time": 121.71034374999827,
          "velocity": 0.7874015748031497,
          "duration": 0.06578937499999427
        },
        {
          "name": "C#4",
          "midi": 61,
          "time": 121.84082601041493,
          "velocity": 0.7874015748031497,
          "duration": 0.06578937499999427
        },
        {
          "name": "F4",
          "midi": 65,
          "time": 121.84082601041493,
          "velocity": 0.7874015748031497,
          "duration": 0.06578937499999427
        },
        {
          "name": "D5",
          "midi": 74,
          "time": 121.84082601041493,
          "velocity": 0.7874015748031497,
          "duration": 0.06578937499999427
        },
        {
          "name": "F5",
          "midi": 77,
          "time": 121.84082601041493,
          "velocity": 0.7874015748031497,
          "duration": 0.06578937499999427
        },
        {
          "name": "D#6",
          "midi": 87,
          "time": 121.84082601041493,
          "velocity": 0.7874015748031497,
          "duration": 0.06578937499999427
        },
        {
          "name": "F6",
          "midi": 89,
          "time": 121.84082601041493,
          "velocity": 0.7874015748031497,
          "duration": 0.06578937499999427
        },
        {
          "name": "D#7",
          "midi": 99,
          "time": 121.84082601041493,
          "velocity": 0.7874015748031497,
          "duration": 0.06578937499999427
        },
        {
          "name": "F7",
          "midi": 101,
          "time": 121.84082601041493,
          "velocity": 0.7874015748031497,
          "duration": 0.06578937499999427
        },
        {
          "name": "D7",
          "midi": 98,
          "time": 121.97350124999825,
          "velocity": 0.7874015748031497,
          "duration": 0.06578937499999427
        },
        {
          "name": "F7",
          "midi": 101,
          "time": 121.97350124999825,
          "velocity": 0.7874015748031497,
          "duration": 0.06578937499999427
        },
        {
          "name": "C4",
          "midi": 60,
          "time": 122.10507999999824,
          "velocity": 0.7874015748031497,
          "duration": 0.39254327083332896
        },
        {
          "name": "F#4",
          "midi": 66,
          "time": 122.10507999999824,
          "velocity": 0.7874015748031497,
          "duration": 0.39144678124999643
        },
        {
          "name": "C5",
          "midi": 72,
          "time": 122.10507999999824,
          "velocity": 0.7874015748031497,
          "duration": 0.39254327083332896
        },
        {
          "name": "F#5",
          "midi": 78,
          "time": 122.10507999999824,
          "velocity": 0.7874015748031497,
          "duration": 0.39144678124999643
        },
        {
          "name": "C#6",
          "midi": 85,
          "time": 122.10507999999824,
          "velocity": 0.7874015748031497,
          "duration": 0.39254327083332896
        },
        {
          "name": "F#6",
          "midi": 90,
          "time": 122.10507999999824,
          "velocity": 0.7874015748031497,
          "duration": 0.39144678124999643
        },
        {
          "name": "C#7",
          "midi": 97,
          "time": 122.10507999999824,
          "velocity": 0.7874015748031497,
          "duration": 0.39254327083332896
        },
        {
          "name": "F7",
          "midi": 101,
          "time": 122.10507999999824,
          "velocity": 0.7874015748031497,
          "duration": 0.39254327083332896
        },
        {
          "name": "C#4",
          "midi": 61,
          "time": 122.4987197604149,
          "velocity": 0.7874015748031497,
          "duration": 0.32894687499999975
        },
        {
          "name": "F#4",
          "midi": 66,
          "time": 122.4987197604149,
          "velocity": 0.7874015748031497,
          "duration": 0.3278503854166672
        },
        {
          "name": "C#5",
          "midi": 73,
          "time": 122.4987197604149,
          "velocity": 0.7874015748031497,
          "duration": 0.32894687499999975
        },
        {
          "name": "F#5",
          "midi": 78,
          "time": 122.4987197604149,
          "velocity": 0.7874015748031497,
          "duration": 0.3278503854166672
        },
        {
          "name": "D6",
          "midi": 86,
          "time": 122.4987197604149,
          "velocity": 0.7874015748031497,
          "duration": 0.32894687499999975
        },
        {
          "name": "F#6",
          "midi": 90,
          "time": 122.4987197604149,
          "velocity": 0.7874015748031497,
          "duration": 0.3278503854166672
        },
        {
          "name": "D7",
          "midi": 98,
          "time": 122.4987197604149,
          "velocity": 0.7874015748031497,
          "duration": 0.32894687499999975
        },
        {
          "name": "F#7",
          "midi": 102,
          "time": 122.4987197604149,
          "velocity": 0.7874015748031497,
          "duration": 0.3278503854166672
        },
        {
          "name": "D4",
          "midi": 62,
          "time": 122.82876312499823,
          "velocity": 0.7874015748031497,
          "duration": 0.3278503854166672
        },
        {
          "name": "F#4",
          "midi": 66,
          "time": 122.82876312499823,
          "velocity": 0.7874015748031497,
          "duration": 0.3267538958333347
        },
        {
          "name": "D5",
          "midi": 74,
          "time": 122.82876312499823,
          "velocity": 0.7874015748031497,
          "duration": 0.3278503854166672
        },
        {
          "name": "F#5",
          "midi": 78,
          "time": 122.82876312499823,
          "velocity": 0.7874015748031497,
          "duration": 0.3267538958333347
        },
        {
          "name": "D#6",
          "midi": 87,
          "time": 122.82876312499823,
          "velocity": 0.7874015748031497,
          "duration": 0.3278503854166672
        },
        {
          "name": "F#6",
          "midi": 90,
          "time": 122.82876312499823,
          "velocity": 0.7874015748031497,
          "duration": 0.3267538958333347
        },
        {
          "name": "D#7",
          "midi": 99,
          "time": 122.82876312499823,
          "velocity": 0.7874015748031497,
          "duration": 0.3278503854166672
        },
        {
          "name": "F#7",
          "midi": 102,
          "time": 122.82876312499823,
          "velocity": 0.7874015748031497,
          "duration": 0.3267538958333347
        },
        {
          "name": "C4",
          "midi": 60,
          "time": 123.15770999999823,
          "velocity": 0.7874015748031497,
          "duration": 1.051533510416661
        },
        {
          "name": "F#4",
          "midi": 66,
          "time": 123.15770999999823,
          "velocity": 0.7874015748031497,
          "duration": 1.051533510416661
        },
        {
          "name": "C5",
          "midi": 72,
          "time": 123.15770999999823,
          "velocity": 0.7874015748031497,
          "duration": 1.051533510416661
        },
        {
          "name": "F#5",
          "midi": 78,
          "time": 123.15770999999823,
          "velocity": 0.7874015748031497,
          "duration": 1.051533510416661
        },
        {
          "name": "C6",
          "midi": 84,
          "time": 123.15770999999823,
          "velocity": 0.7874015748031497,
          "duration": 1.051533510416661
        },
        {
          "name": "F#6",
          "midi": 90,
          "time": 123.15770999999823,
          "velocity": 0.7874015748031497,
          "duration": 1.051533510416661
        },
        {
          "name": "C7",
          "midi": 96,
          "time": 123.15770999999823,
          "velocity": 0.7874015748031497,
          "duration": 1.051533510416661
        },
        {
          "name": "F#7",
          "midi": 102,
          "time": 123.15770999999823,
          "velocity": 0.7874015748031497,
          "duration": 1.051533510416661
        },
        {
          "name": "C4",
          "midi": 60,
          "time": 124.4724010104149,
          "velocity": 0.7874015748031497,
          "duration": 0.06469288541666174
        },
        {
          "name": "F#4",
          "midi": 66,
          "time": 124.4724010104149,
          "velocity": 0.7874015748031497,
          "duration": 0.06469288541666174
        },
        {
          "name": "C5",
          "midi": 72,
          "time": 124.4724010104149,
          "velocity": 0.7874015748031497,
          "duration": 0.06469288541666174
        },
        {
          "name": "F#5",
          "midi": 78,
          "time": 124.4724010104149,
          "velocity": 0.7874015748031497,
          "duration": 0.06469288541666174
        },
        {
          "name": "C#6",
          "midi": 85,
          "time": 124.4724010104149,
          "velocity": 0.7874015748031497,
          "duration": 0.06469288541666174
        },
        {
          "name": "F#6",
          "midi": 90,
          "time": 124.4724010104149,
          "velocity": 0.7874015748031497,
          "duration": 0.06469288541666174
        },
        {
          "name": "C#7",
          "midi": 97,
          "time": 124.4724010104149,
          "velocity": 0.7874015748031497,
          "duration": 0.06469288541666174
        },
        {
          "name": "F#7",
          "midi": 102,
          "time": 124.4724010104149,
          "velocity": 0.7874015748031497,
          "duration": 0.06469288541666174
        },
        {
          "name": "C4",
          "midi": 60,
          "time": 124.73665499999822,
          "velocity": 0.7874015748031497,
          "duration": 0.06469288541666174
        },
        {
          "name": "F#4",
          "midi": 66,
          "time": 124.73665499999822,
          "velocity": 0.7874015748031497,
          "duration": 0.06469288541666174
        },
        {
          "name": "C#5",
          "midi": 73,
          "time": 124.73665499999822,
          "velocity": 0.7874015748031497,
          "duration": 0.06469288541666174
        },
        {
          "name": "F#5",
          "midi": 78,
          "time": 124.73665499999822,
          "velocity": 0.7874015748031497,
          "duration": 0.06469288541666174
        },
        {
          "name": "D6",
          "midi": 86,
          "time": 124.73665499999822,
          "velocity": 0.7874015748031497,
          "duration": 0.06469288541666174
        },
        {
          "name": "F#6",
          "midi": 90,
          "time": 124.73665499999822,
          "velocity": 0.7874015748031497,
          "duration": 0.06469288541666174
        },
        {
          "name": "D7",
          "midi": 98,
          "time": 124.73665499999822,
          "velocity": 0.7874015748031497,
          "duration": 0.06469288541666174
        },
        {
          "name": "F#7",
          "midi": 102,
          "time": 124.73665499999822,
          "velocity": 0.7874015748031497,
          "duration": 0.06469288541666174
        },
        {
          "name": "C#4",
          "midi": 61,
          "time": 124.99981249999821,
          "velocity": 0.7874015748031497,
          "duration": 0.06469288541666174
        },
        {
          "name": "F#4",
          "midi": 66,
          "time": 124.99981249999821,
          "velocity": 0.7874015748031497,
          "duration": 0.06469288541666174
        },
        {
          "name": "D5",
          "midi": 74,
          "time": 124.99981249999821,
          "velocity": 0.7874015748031497,
          "duration": 0.06469288541666174
        },
        {
          "name": "F#5",
          "midi": 78,
          "time": 124.99981249999821,
          "velocity": 0.7874015748031497,
          "duration": 0.06469288541666174
        },
        {
          "name": "D#6",
          "midi": 87,
          "time": 124.99981249999821,
          "velocity": 0.7874015748031497,
          "duration": 0.06469288541666174
        },
        {
          "name": "F#6",
          "midi": 90,
          "time": 124.99981249999821,
          "velocity": 0.7874015748031497,
          "duration": 0.06469288541666174
        },
        {
          "name": "D#7",
          "midi": 99,
          "time": 124.99981249999821,
          "velocity": 0.7874015748031497,
          "duration": 0.06469288541666174
        },
        {
          "name": "F#7",
          "midi": 102,
          "time": 124.99981249999821,
          "velocity": 0.7874015748031497,
          "duration": 0.06469288541666174
        },
        {
          "name": "D4",
          "midi": 62,
          "time": 125.2629699999982,
          "velocity": 0.7874015748031497,
          "duration": 0.5252185104166642
        },
        {
          "name": "F4",
          "midi": 65,
          "time": 125.2629699999982,
          "velocity": 0.7874015748031497,
          "duration": 0.5241220208333317
        },
        {
          "name": "D#5",
          "midi": 75,
          "time": 125.2629699999982,
          "velocity": 0.7874015748031497,
          "duration": 0.5252185104166642
        },
        {
          "name": "F5",
          "midi": 77,
          "time": 125.2629699999982,
          "velocity": 0.7874015748031497,
          "duration": 0.5241220208333317
        },
        {
          "name": "E6",
          "midi": 88,
          "time": 125.2629699999982,
          "velocity": 0.7874015748031497,
          "duration": 0.5252185104166642
        },
        {
          "name": "F6",
          "midi": 89,
          "time": 125.2629699999982,
          "velocity": 0.7874015748031497,
          "duration": 0.5241220208333317
        },
        {
          "name": "E7",
          "midi": 100,
          "time": 125.2629699999982,
          "velocity": 0.7874015748031497,
          "duration": 0.5252185104166642
        },
        {
          "name": "F7",
          "midi": 101,
          "time": 125.2629699999982,
          "velocity": 0.7874015748031497,
          "duration": 0.5241220208333317
        },
        {
          "name": "C#4",
          "midi": 61,
          "time": 125.7892849999982,
          "velocity": 0.7874015748031497,
          "duration": 0.5230255312499992
        },
        {
          "name": "F4",
          "midi": 65,
          "time": 125.7892849999982,
          "velocity": 0.7874015748031497,
          "duration": 0.5230255312499992
        },
        {
          "name": "D5",
          "midi": 74,
          "time": 125.7892849999982,
          "velocity": 0.7874015748031497,
          "duration": 0.5230255312499992
        },
        {
          "name": "F5",
          "midi": 77,
          "time": 125.7892849999982,
          "velocity": 0.7874015748031497,
          "duration": 0.5230255312499992
        },
        {
          "name": "D#6",
          "midi": 87,
          "time": 125.7892849999982,
          "velocity": 0.7874015748031497,
          "duration": 0.5230255312499992
        },
        {
          "name": "F6",
          "midi": 89,
          "time": 125.7892849999982,
          "velocity": 0.7874015748031497,
          "duration": 0.5230255312499992
        },
        {
          "name": "D#7",
          "midi": 99,
          "time": 125.7892849999982,
          "velocity": 0.7874015748031497,
          "duration": 0.5230255312499992
        },
        {
          "name": "F7",
          "midi": 101,
          "time": 125.7892849999982,
          "velocity": 0.7874015748031497,
          "duration": 0.5230255312499992
        },
        {
          "name": "G#8",
          "midi": 116,
          "time": 126.3155999999982,
          "velocity": 0.7874015748031497,
          "duration": 2.434206874999944
        },
        {
          "name": "C4",
          "midi": 60,
          "time": 126.3155999999982,
          "velocity": 0.7874015748031497,
          "duration": 0.3936397604166615
        },
        {
          "name": "F#4",
          "midi": 66,
          "time": 126.3155999999982,
          "velocity": 0.7874015748031497,
          "duration": 0.3936397604166615
        },
        {
          "name": "C5",
          "midi": 72,
          "time": 126.3155999999982,
          "velocity": 0.7874015748031497,
          "duration": 0.3936397604166615
        },
        {
          "name": "F#5",
          "midi": 78,
          "time": 126.3155999999982,
          "velocity": 0.7874015748031497,
          "duration": 0.3936397604166615
        },
        {
          "name": "C#6",
          "midi": 85,
          "time": 126.3155999999982,
          "velocity": 0.7874015748031497,
          "duration": 0.3936397604166615
        },
        {
          "name": "F#6",
          "midi": 90,
          "time": 126.3155999999982,
          "velocity": 0.7874015748031497,
          "duration": 0.3936397604166615
        },
        {
          "name": "C#7",
          "midi": 97,
          "time": 126.3155999999982,
          "velocity": 0.7874015748031497,
          "duration": 0.3936397604166615
        },
        {
          "name": "F#7",
          "midi": 102,
          "time": 126.3155999999982,
          "velocity": 0.7874015748031497,
          "duration": 0.3936397604166615
        },
        {
          "name": "C#4",
          "midi": 61,
          "time": 126.71143273958153,
          "velocity": 0.7874015748031497,
          "duration": 0.3267538958333347
        },
        {
          "name": "F#4",
          "midi": 66,
          "time": 126.71143273958153,
          "velocity": 0.7874015748031497,
          "duration": 0.32565740625000217
        },
        {
          "name": "C#5",
          "midi": 73,
          "time": 126.71143273958153,
          "velocity": 0.7874015748031497,
          "duration": 0.3267538958333347
        },
        {
          "name": "F#5",
          "midi": 78,
          "time": 126.71143273958153,
          "velocity": 0.7874015748031497,
          "duration": 0.32565740625000217
        },
        {
          "name": "D6",
          "midi": 86,
          "time": 126.71143273958153,
          "velocity": 0.7874015748031497,
          "duration": 0.3267538958333347
        },
        {
          "name": "F#6",
          "midi": 90,
          "time": 126.71143273958153,
          "velocity": 0.7874015748031497,
          "duration": 0.32565740625000217
        },
        {
          "name": "D7",
          "midi": 98,
          "time": 126.71143273958153,
          "velocity": 0.7874015748031497,
          "duration": 0.3267538958333347
        },
        {
          "name": "F#7",
          "midi": 102,
          "time": 126.71143273958153,
          "velocity": 0.7874015748031497,
          "duration": 0.32565740625000217
        },
        {
          "name": "D4",
          "midi": 62,
          "time": 127.03928312499819,
          "velocity": 0.7874015748031497,
          "duration": 0.3278503854166672
        },
        {
          "name": "F#4",
          "midi": 66,
          "time": 127.03928312499819,
          "velocity": 0.7874015748031497,
          "duration": 0.3267538958333347
        },
        {
          "name": "D5",
          "midi": 74,
          "time": 127.03928312499819,
          "velocity": 0.7874015748031497,
          "duration": 0.3278503854166672
        },
        {
          "name": "F#5",
          "midi": 78,
          "time": 127.03928312499819,
          "velocity": 0.7874015748031497,
          "duration": 0.3267538958333347
        },
        {
          "name": "D#6",
          "midi": 87,
          "time": 127.03928312499819,
          "velocity": 0.7874015748031497,
          "duration": 0.3278503854166672
        },
        {
          "name": "F#6",
          "midi": 90,
          "time": 127.03928312499819,
          "velocity": 0.7874015748031497,
          "duration": 0.3267538958333347
        },
        {
          "name": "D#7",
          "midi": 99,
          "time": 127.03928312499819,
          "velocity": 0.7874015748031497,
          "duration": 0.3278503854166672
        },
        {
          "name": "F#7",
          "midi": 102,
          "time": 127.03928312499819,
          "velocity": 0.7874015748031497,
          "duration": 0.3267538958333347
        },
        {
          "name": "C4",
          "midi": 60,
          "time": 127.36822999999819,
          "velocity": 0.7874015748031497,
          "duration": 0.06469288541666174
        },
        {
          "name": "F#4",
          "midi": 66,
          "time": 127.36822999999819,
          "velocity": 0.7874015748031497,
          "duration": 0.06469288541666174
        },
        {
          "name": "C5",
          "midi": 72,
          "time": 127.36822999999819,
          "velocity": 0.7874015748031497,
          "duration": 0.06469288541666174
        },
        {
          "name": "F#5",
          "midi": 78,
          "time": 127.36822999999819,
          "velocity": 0.7874015748031497,
          "duration": 0.06469288541666174
        },
        {
          "name": "C6",
          "midi": 84,
          "time": 127.36822999999819,
          "velocity": 0.7874015748031497,
          "duration": 0.06469288541666174
        },
        {
          "name": "F#6",
          "midi": 90,
          "time": 127.36822999999819,
          "velocity": 0.7874015748031497,
          "duration": 0.06469288541666174
        },
        {
          "name": "C7",
          "midi": 96,
          "time": 127.36822999999819,
          "velocity": 0.7874015748031497,
          "duration": 0.06469288541666174
        },
        {
          "name": "F#7",
          "midi": 102,
          "time": 127.36822999999819,
          "velocity": 0.7874015748031497,
          "duration": 0.06469288541666174
        },
        {
          "name": "C7",
          "midi": 96,
          "time": 127.49871226041485,
          "velocity": 0.7874015748031497,
          "duration": 0.06578937499999427
        },
        {
          "name": "F#7",
          "midi": 102,
          "time": 127.49871226041485,
          "velocity": 0.7874015748031497,
          "duration": 0.06578937499999427
        },
        {
          "name": "C4",
          "midi": 60,
          "time": 127.63138749999817,
          "velocity": 0.7874015748031497,
          "duration": 0.06469288541666174
        },
        {
          "name": "F#4",
          "midi": 66,
          "time": 127.63138749999817,
          "velocity": 0.7874015748031497,
          "duration": 0.06469288541666174
        },
        {
          "name": "C5",
          "midi": 72,
          "time": 127.63138749999817,
          "velocity": 0.7874015748031497,
          "duration": 0.06469288541666174
        },
        {
          "name": "F#5",
          "midi": 78,
          "time": 127.63138749999817,
          "velocity": 0.7874015748031497,
          "duration": 0.06469288541666174
        },
        {
          "name": "C6",
          "midi": 84,
          "time": 127.63138749999817,
          "velocity": 0.7874015748031497,
          "duration": 0.06469288541666174
        },
        {
          "name": "F#6",
          "midi": 90,
          "time": 127.63138749999817,
          "velocity": 0.7874015748031497,
          "duration": 0.06469288541666174
        },
        {
          "name": "C7",
          "midi": 96,
          "time": 127.63138749999817,
          "velocity": 0.7874015748031497,
          "duration": 0.06469288541666174
        },
        {
          "name": "F#7",
          "midi": 102,
          "time": 127.63138749999817,
          "velocity": 0.7874015748031497,
          "duration": 0.06469288541666174
        },
        {
          "name": "C7",
          "midi": 96,
          "time": 127.76186976041483,
          "velocity": 0.7874015748031497,
          "duration": 0.06578937499999427
        },
        {
          "name": "F#7",
          "midi": 102,
          "time": 127.76186976041483,
          "velocity": 0.7874015748031497,
          "duration": 0.06578937499999427
        },
        {
          "name": "C#4",
          "midi": 61,
          "time": 127.89454499999815,
          "velocity": 0.7874015748031497,
          "duration": 0.5241220208333459
        },
        {
          "name": "F4",
          "midi": 65,
          "time": 127.89454499999815,
          "velocity": 0.7874015748031497,
          "duration": 0.5241220208333459
        },
        {
          "name": "C5",
          "midi": 72,
          "time": 127.89454499999815,
          "velocity": 0.7874015748031497,
          "duration": 0.06578937499999427
        },
        {
          "name": "F#5",
          "midi": 78,
          "time": 127.89454499999815,
          "velocity": 0.7874015748031497,
          "duration": 0.06578937499999427
        },
        {
          "name": "C6",
          "midi": 84,
          "time": 127.89454499999815,
          "velocity": 0.7874015748031497,
          "duration": 0.06578937499999427
        },
        {
          "name": "F#6",
          "midi": 90,
          "time": 127.89454499999815,
          "velocity": 0.7874015748031497,
          "duration": 0.06578937499999427
        },
        {
          "name": "C7",
          "midi": 96,
          "time": 127.89454499999815,
          "velocity": 0.7874015748031497,
          "duration": 0.06578937499999427
        },
        {
          "name": "F#7",
          "midi": 102,
          "time": 127.89454499999815,
          "velocity": 0.7874015748031497,
          "duration": 0.06578937499999427
        },
        {
          "name": "C#5",
          "midi": 73,
          "time": 128.02502726041482,
          "velocity": 0.7874015748031497,
          "duration": 0.39254327083332896
        },
        {
          "name": "F5",
          "midi": 77,
          "time": 128.02502726041482,
          "velocity": 0.7874015748031497,
          "duration": 0.39254327083332896
        },
        {
          "name": "D6",
          "midi": 86,
          "time": 128.02502726041482,
          "velocity": 0.7874015748031497,
          "duration": 0.39254327083332896
        },
        {
          "name": "F6",
          "midi": 89,
          "time": 128.02502726041482,
          "velocity": 0.7874015748031497,
          "duration": 0.39254327083332896
        },
        {
          "name": "D7",
          "midi": 98,
          "time": 128.02502726041482,
          "velocity": 0.7874015748031497,
          "duration": 0.39254327083332896
        },
        {
          "name": "F7",
          "midi": 101,
          "time": 128.02502726041482,
          "velocity": 0.7874015748031497,
          "duration": 0.39254327083332896
        },
        {
          "name": "C4",
          "midi": 60,
          "time": 128.68292101041482,
          "velocity": 0.7874015748031497,
          "duration": 0.06469288541666174
        },
        {
          "name": "F#4",
          "midi": 66,
          "time": 128.68292101041482,
          "velocity": 0.7874015748031497,
          "duration": 0.06469288541666174
        },
        {
          "name": "C5",
          "midi": 72,
          "time": 128.68292101041482,
          "velocity": 0.7874015748031497,
          "duration": 0.06469288541666174
        },
        {
          "name": "F#5",
          "midi": 78,
          "time": 128.68292101041482,
          "velocity": 0.7874015748031497,
          "duration": 0.06469288541666174
        },
        {
          "name": "C#6",
          "midi": 85,
          "time": 128.68292101041482,
          "velocity": 0.7874015748031497,
          "duration": 0.06469288541666174
        },
        {
          "name": "F#6",
          "midi": 90,
          "time": 128.68292101041482,
          "velocity": 0.7874015748031497,
          "duration": 0.06469288541666174
        },
        {
          "name": "C#7",
          "midi": 97,
          "time": 128.68292101041482,
          "velocity": 0.7874015748031497,
          "duration": 0.06469288541666174
        },
        {
          "name": "F#7",
          "midi": 102,
          "time": 128.68292101041482,
          "velocity": 0.7874015748031497,
          "duration": 0.06469288541666174
        },
        {
          "name": "C4",
          "midi": 60,
          "time": 128.94717499999814,
          "velocity": 0.7874015748031497,
          "duration": 0.06578937500000848
        },
        {
          "name": "F#4",
          "midi": 66,
          "time": 128.94717499999814,
          "velocity": 0.7874015748031497,
          "duration": 0.06578937500000848
        },
        {
          "name": "C#5",
          "midi": 73,
          "time": 128.94717499999814,
          "velocity": 0.7874015748031497,
          "duration": 0.06578937500000848
        },
        {
          "name": "F#5",
          "midi": 78,
          "time": 128.94717499999814,
          "velocity": 0.7874015748031497,
          "duration": 0.06578937500000848
        },
        {
          "name": "D6",
          "midi": 86,
          "time": 128.94717499999814,
          "velocity": 0.7874015748031497,
          "duration": 0.06578937500000848
        },
        {
          "name": "F#6",
          "midi": 90,
          "time": 128.94717499999814,
          "velocity": 0.7874015748031497,
          "duration": 0.06578937500000848
        },
        {
          "name": "D7",
          "midi": 98,
          "time": 128.94717499999814,
          "velocity": 0.7874015748031497,
          "duration": 0.06578937500000848
        },
        {
          "name": "F#7",
          "midi": 102,
          "time": 128.94717499999814,
          "velocity": 0.7874015748031497,
          "duration": 0.06578937500000848
        },
        {
          "name": "C#4",
          "midi": 61,
          "time": 129.21033249999815,
          "velocity": 0.7874015748031497,
          "duration": 0.06578937500000848
        },
        {
          "name": "F#4",
          "midi": 66,
          "time": 129.21033249999815,
          "velocity": 0.7874015748031497,
          "duration": 0.06578937500000848
        },
        {
          "name": "D5",
          "midi": 74,
          "time": 129.21033249999815,
          "velocity": 0.7874015748031497,
          "duration": 0.06578937500000848
        },
        {
          "name": "F#5",
          "midi": 78,
          "time": 129.21033249999815,
          "velocity": 0.7874015748031497,
          "duration": 0.06578937500000848
        },
        {
          "name": "D#6",
          "midi": 87,
          "time": 129.21033249999815,
          "velocity": 0.7874015748031497,
          "duration": 0.06578937500000848
        },
        {
          "name": "F#6",
          "midi": 90,
          "time": 129.21033249999815,
          "velocity": 0.7874015748031497,
          "duration": 0.06578937500000848
        },
        {
          "name": "D#7",
          "midi": 99,
          "time": 129.21033249999815,
          "velocity": 0.7874015748031497,
          "duration": 0.06578937500000848
        },
        {
          "name": "F#7",
          "midi": 102,
          "time": 129.21033249999815,
          "velocity": 0.7874015748031497,
          "duration": 0.06578937500000848
        },
        {
          "name": "D4",
          "midi": 62,
          "time": 129.47348999999815,
          "velocity": 0.7874015748031497,
          "duration": 0.5252185104166927
        },
        {
          "name": "F4",
          "midi": 65,
          "time": 129.47348999999815,
          "velocity": 0.7874015748031497,
          "duration": 0.5241220208333459
        },
        {
          "name": "D#5",
          "midi": 75,
          "time": 129.47348999999815,
          "velocity": 0.7874015748031497,
          "duration": 0.5252185104166927
        },
        {
          "name": "F5",
          "midi": 77,
          "time": 129.47348999999815,
          "velocity": 0.7874015748031497,
          "duration": 0.5241220208333459
        },
        {
          "name": "E6",
          "midi": 88,
          "time": 129.47348999999815,
          "velocity": 0.7874015748031497,
          "duration": 0.5252185104166927
        },
        {
          "name": "F6",
          "midi": 89,
          "time": 129.47348999999815,
          "velocity": 0.7874015748031497,
          "duration": 0.5241220208333459
        },
        {
          "name": "E7",
          "midi": 100,
          "time": 129.47348999999815,
          "velocity": 0.7874015748031497,
          "duration": 0.5252185104166927
        },
        {
          "name": "F7",
          "midi": 101,
          "time": 129.47348999999815,
          "velocity": 0.7874015748031497,
          "duration": 0.5241220208333459
        },
        {
          "name": "C#4",
          "midi": 61,
          "time": 129.9998049999982,
          "velocity": 0.7874015748031497,
          "duration": 0.5230255312499992
        },
        {
          "name": "F4",
          "midi": 65,
          "time": 129.9998049999982,
          "velocity": 0.7874015748031497,
          "duration": 0.5230255312499992
        },
        {
          "name": "D5",
          "midi": 74,
          "time": 129.9998049999982,
          "velocity": 0.7874015748031497,
          "duration": 0.5230255312499992
        },
        {
          "name": "F5",
          "midi": 77,
          "time": 129.9998049999982,
          "velocity": 0.7874015748031497,
          "duration": 0.5230255312499992
        },
        {
          "name": "D#6",
          "midi": 87,
          "time": 129.9998049999982,
          "velocity": 0.7874015748031497,
          "duration": 0.5230255312499992
        },
        {
          "name": "F6",
          "midi": 89,
          "time": 129.9998049999982,
          "velocity": 0.7874015748031497,
          "duration": 0.5230255312499992
        },
        {
          "name": "D#7",
          "midi": 99,
          "time": 129.9998049999982,
          "velocity": 0.7874015748031497,
          "duration": 0.5230255312499992
        },
        {
          "name": "F7",
          "midi": 101,
          "time": 129.9998049999982,
          "velocity": 0.7874015748031497,
          "duration": 0.5230255312499992
        },
        {
          "name": "C4",
          "midi": 60,
          "time": 130.5261199999982,
          "velocity": 0.7874015748031497,
          "duration": 0.06688586458332679
        },
        {
          "name": "F#4",
          "midi": 66,
          "time": 130.5261199999982,
          "velocity": 0.7874015748031497,
          "duration": 0.06688586458332679
        },
        {
          "name": "C5",
          "midi": 72,
          "time": 130.5261199999982,
          "velocity": 0.7874015748031497,
          "duration": 0.06688586458332679
        },
        {
          "name": "F#5",
          "midi": 78,
          "time": 130.5261199999982,
          "velocity": 0.7874015748031497,
          "duration": 0.06688586458332679
        },
        {
          "name": "C6",
          "midi": 84,
          "time": 130.5261199999982,
          "velocity": 0.7874015748031497,
          "duration": 0.06688586458332679
        },
        {
          "name": "F#6",
          "midi": 90,
          "time": 130.5261199999982,
          "velocity": 0.7874015748031497,
          "duration": 0.06688586458332679
        },
        {
          "name": "C7",
          "midi": 96,
          "time": 130.5261199999982,
          "velocity": 0.7874015748031497,
          "duration": 0.06688586458332679
        },
        {
          "name": "F#7",
          "midi": 102,
          "time": 130.5261199999982,
          "velocity": 0.7874015748031497,
          "duration": 0.06688586458332679
        },
        {
          "name": "C#4",
          "midi": 61,
          "time": 130.92195273958154,
          "velocity": 0.7874015748031497,
          "duration": 0.06469288541666174
        },
        {
          "name": "F#4",
          "midi": 66,
          "time": 130.92195273958154,
          "velocity": 0.7874015748031497,
          "duration": 0.06469288541666174
        },
        {
          "name": "C#5",
          "midi": 73,
          "time": 130.92195273958154,
          "velocity": 0.7874015748031497,
          "duration": 0.06469288541666174
        },
        {
          "name": "F#5",
          "midi": 78,
          "time": 130.92195273958154,
          "velocity": 0.7874015748031497,
          "duration": 0.06469288541666174
        },
        {
          "name": "C#6",
          "midi": 85,
          "time": 130.92195273958154,
          "velocity": 0.7874015748031497,
          "duration": 0.06469288541666174
        },
        {
          "name": "F#6",
          "midi": 90,
          "time": 130.92195273958154,
          "velocity": 0.7874015748031497,
          "duration": 0.06469288541666174
        },
        {
          "name": "C#7",
          "midi": 97,
          "time": 130.92195273958154,
          "velocity": 0.7874015748031497,
          "duration": 0.06469288541666174
        },
        {
          "name": "F#7",
          "midi": 102,
          "time": 130.92195273958154,
          "velocity": 0.7874015748031497,
          "duration": 0.06469288541666174
        },
        {
          "name": "C#7",
          "midi": 97,
          "time": 131.1840137499982,
          "velocity": 0.7874015748031497,
          "duration": 0.06469288541666174
        },
        {
          "name": "F#7",
          "midi": 102,
          "time": 131.1840137499982,
          "velocity": 0.7874015748031497,
          "duration": 0.06469288541666174
        },
        {
          "name": "D4",
          "midi": 62,
          "time": 131.3155924999982,
          "velocity": 0.7874015748031497,
          "duration": 0.06469288541666174
        },
        {
          "name": "F#4",
          "midi": 66,
          "time": 131.3155924999982,
          "velocity": 0.7874015748031497,
          "duration": 0.06469288541666174
        },
        {
          "name": "D5",
          "midi": 74,
          "time": 131.3155924999982,
          "velocity": 0.7874015748031497,
          "duration": 0.06469288541666174
        },
        {
          "name": "F#5",
          "midi": 78,
          "time": 131.3155924999982,
          "velocity": 0.7874015748031497,
          "duration": 0.06469288541666174
        },
        {
          "name": "D6",
          "midi": 86,
          "time": 131.3155924999982,
          "velocity": 0.7874015748031497,
          "duration": 0.06469288541666174
        },
        {
          "name": "F#6",
          "midi": 90,
          "time": 131.3155924999982,
          "velocity": 0.7874015748031497,
          "duration": 0.06469288541666174
        },
        {
          "name": "D7",
          "midi": 98,
          "time": 131.3155924999982,
          "velocity": 0.7874015748031497,
          "duration": 0.06469288541666174
        },
        {
          "name": "F7",
          "midi": 101,
          "time": 131.3155924999982,
          "velocity": 0.7874015748031497,
          "duration": 0.06469288541666174
        },
        {
          "name": "C4",
          "midi": 60,
          "time": 131.5787499999982,
          "velocity": 0.7874015748031497,
          "duration": 0.06469288541666174
        },
        {
          "name": "F#4",
          "midi": 66,
          "time": 131.5787499999982,
          "velocity": 0.7874015748031497,
          "duration": 0.06469288541666174
        },
        {
          "name": "C#5",
          "midi": 73,
          "time": 131.5787499999982,
          "velocity": 0.7874015748031497,
          "duration": 0.06469288541666174
        },
        {
          "name": "F#5",
          "midi": 78,
          "time": 131.5787499999982,
          "velocity": 0.7874015748031497,
          "duration": 0.06469288541666174
        },
        {
          "name": "C#6",
          "midi": 85,
          "time": 131.5787499999982,
          "velocity": 0.7874015748031497,
          "duration": 0.06469288541666174
        },
        {
          "name": "F#6",
          "midi": 90,
          "time": 131.5787499999982,
          "velocity": 0.7874015748031497,
          "duration": 0.06469288541666174
        },
        {
          "name": "C#7",
          "midi": 97,
          "time": 131.5787499999982,
          "velocity": 0.7874015748031497,
          "duration": 0.06469288541666174
        },
        {
          "name": "F#7",
          "midi": 102,
          "time": 131.5787499999982,
          "velocity": 0.7874015748031497,
          "duration": 0.06469288541666174
        },
        {
          "name": "D7",
          "midi": 98,
          "time": 131.66646916666485,
          "velocity": 0.7874015748031497,
          "duration": 0.06469288541666174
        },
        {
          "name": "F7",
          "midi": 101,
          "time": 131.66646916666485,
          "velocity": 0.7874015748031497,
          "duration": 0.06469288541666174
        },
        {
          "name": "D6",
          "midi": 86,
          "time": 131.71032874999818,
          "velocity": 0.7874015748031497,
          "duration": 0.06469288541666174
        },
        {
          "name": "F6",
          "midi": 89,
          "time": 131.71032874999818,
          "velocity": 0.7874015748031497,
          "duration": 0.06469288541666174
        },
        {
          "name": "C#7",
          "midi": 97,
          "time": 131.7541883333315,
          "velocity": 0.7874015748031497,
          "duration": 0.06578937500000848
        },
        {
          "name": "F7",
          "midi": 101,
          "time": 131.7541883333315,
          "velocity": 0.7874015748031497,
          "duration": 0.06578937500000848
        },
        {
          "name": "C#4",
          "midi": 61,
          "time": 131.8419074999982,
          "velocity": 0.7874015748031497,
          "duration": 0.06469288541666174
        },
        {
          "name": "F4",
          "midi": 65,
          "time": 131.8419074999982,
          "velocity": 0.7874015748031497,
          "duration": 0.06469288541666174
        },
        {
          "name": "D5",
          "midi": 74,
          "time": 131.8419074999982,
          "velocity": 0.7874015748031497,
          "duration": 0.06469288541666174
        },
        {
          "name": "F5",
          "midi": 77,
          "time": 131.8419074999982,
          "velocity": 0.7874015748031497,
          "duration": 0.06469288541666174
        },
        {
          "name": "C#6",
          "midi": 85,
          "time": 131.8419074999982,
          "velocity": 0.7874015748031497,
          "duration": 0.06469288541666174
        },
        {
          "name": "F6",
          "midi": 89,
          "time": 131.8419074999982,
          "velocity": 0.7874015748031497,
          "duration": 0.06469288541666174
        },
        {
          "name": "D7",
          "midi": 98,
          "time": 131.92962666666486,
          "velocity": 0.7874015748031497,
          "duration": 0.06469288541666174
        },
        {
          "name": "F7",
          "midi": 101,
          "time": 131.92962666666486,
          "velocity": 0.7874015748031497,
          "duration": 0.06469288541666174
        },
        {
          "name": "D4",
          "midi": 62,
          "time": 132.10506499999818,
          "velocity": 0.7874015748031497,
          "duration": 0.7883760104166697
        },
        {
          "name": "F4",
          "midi": 65,
          "time": 132.10506499999818,
          "velocity": 0.7874015748031497,
          "duration": 0.7883760104166697
        },
        {
          "name": "D#5",
          "midi": 75,
          "time": 132.10506499999818,
          "velocity": 0.7874015748031497,
          "duration": 0.7883760104166697
        },
        {
          "name": "F5",
          "midi": 77,
          "time": 132.10506499999818,
          "velocity": 0.7874015748031497,
          "duration": 0.7883760104166697
        },
        {
          "name": "D#6",
          "midi": 87,
          "time": 132.10506499999818,
          "velocity": 0.7874015748031497,
          "duration": 0.7883760104166697
        },
        {
          "name": "F6",
          "midi": 89,
          "time": 132.10506499999818,
          "velocity": 0.7874015748031497,
          "duration": 0.7883760104166697
        },
        {
          "name": "D#7",
          "midi": 99,
          "time": 132.10506499999818,
          "velocity": 0.7874015748031497,
          "duration": 0.7883760104166697
        },
        {
          "name": "F7",
          "midi": 101,
          "time": 132.10506499999818,
          "velocity": 0.7874015748031497,
          "duration": 0.7883760104166697
        },
        {
          "name": "C4",
          "midi": 60,
          "time": 132.8945374999982,
          "velocity": 0.7874015748031497,
          "duration": 0.06469288541666174
        },
        {
          "name": "F#4",
          "midi": 66,
          "time": 132.8945374999982,
          "velocity": 0.7874015748031497,
          "duration": 0.06469288541666174
        },
        {
          "name": "C5",
          "midi": 72,
          "time": 132.8945374999982,
          "velocity": 0.7874015748031497,
          "duration": 0.06469288541666174
        },
        {
          "name": "F#5",
          "midi": 78,
          "time": 132.8945374999982,
          "velocity": 0.7874015748031497,
          "duration": 0.06469288541666174
        },
        {
          "name": "C6",
          "midi": 84,
          "time": 132.8945374999982,
          "velocity": 0.7874015748031497,
          "duration": 0.06469288541666174
        },
        {
          "name": "F#6",
          "midi": 90,
          "time": 132.8945374999982,
          "velocity": 0.7874015748031497,
          "duration": 0.06469288541666174
        },
        {
          "name": "C7",
          "midi": 96,
          "time": 132.8945374999982,
          "velocity": 0.7874015748031497,
          "duration": 0.06469288541666174
        },
        {
          "name": "F#7",
          "midi": 102,
          "time": 132.8945374999982,
          "velocity": 0.7874015748031497,
          "duration": 0.06469288541666174
        },
        {
          "name": "C#4",
          "midi": 61,
          "time": 133.1576949999982,
          "velocity": 0.7874015748031497,
          "duration": 0.06469288541666174
        },
        {
          "name": "F#4",
          "midi": 66,
          "time": 133.1576949999982,
          "velocity": 0.7874015748031497,
          "duration": 0.06469288541666174
        },
        {
          "name": "C#5",
          "midi": 73,
          "time": 133.1576949999982,
          "velocity": 0.7874015748031497,
          "duration": 0.06469288541666174
        },
        {
          "name": "F#5",
          "midi": 78,
          "time": 133.1576949999982,
          "velocity": 0.7874015748031497,
          "duration": 0.06469288541666174
        },
        {
          "name": "C#6",
          "midi": 85,
          "time": 133.1576949999982,
          "velocity": 0.7874015748031497,
          "duration": 0.06469288541666174
        },
        {
          "name": "F#6",
          "midi": 90,
          "time": 133.1576949999982,
          "velocity": 0.7874015748031497,
          "duration": 0.06469288541666174
        },
        {
          "name": "C#7",
          "midi": 97,
          "time": 133.1576949999982,
          "velocity": 0.7874015748031497,
          "duration": 0.06469288541666174
        },
        {
          "name": "F#7",
          "midi": 102,
          "time": 133.1576949999982,
          "velocity": 0.7874015748031497,
          "duration": 0.06469288541666174
        },
        {
          "name": "D4",
          "midi": 62,
          "time": 133.41975601041486,
          "velocity": 0.7874015748031497,
          "duration": 0.06469288541666174
        },
        {
          "name": "F#4",
          "midi": 66,
          "time": 133.41975601041486,
          "velocity": 0.7874015748031497,
          "duration": 0.06469288541666174
        },
        {
          "name": "D5",
          "midi": 74,
          "time": 133.41975601041486,
          "velocity": 0.7874015748031497,
          "duration": 0.06469288541666174
        },
        {
          "name": "F#5",
          "midi": 78,
          "time": 133.41975601041486,
          "velocity": 0.7874015748031497,
          "duration": 0.06469288541666174
        },
        {
          "name": "D6",
          "midi": 86,
          "time": 133.41975601041486,
          "velocity": 0.7874015748031497,
          "duration": 0.06469288541666174
        },
        {
          "name": "F#6",
          "midi": 90,
          "time": 133.41975601041486,
          "velocity": 0.7874015748031497,
          "duration": 0.06469288541666174
        },
        {
          "name": "C#7",
          "midi": 97,
          "time": 133.41975601041486,
          "velocity": 0.7874015748031497,
          "duration": 0.06469288541666174
        },
        {
          "name": "F#7",
          "midi": 102,
          "time": 133.41975601041486,
          "velocity": 0.7874015748031497,
          "duration": 0.06469288541666174
        },
        {
          "name": "D7",
          "midi": 98,
          "time": 133.48664187499818,
          "velocity": 0.7874015748031497,
          "duration": 0.06469288541666174
        },
        {
          "name": "F7",
          "midi": 101,
          "time": 133.48664187499818,
          "velocity": 0.7874015748031497,
          "duration": 0.06469288541666174
        },
        {
          "name": "C4",
          "midi": 60,
          "time": 133.68400999999818,
          "velocity": 0.7874015748031497,
          "duration": 0.06469288541666174
        },
        {
          "name": "F#4",
          "midi": 66,
          "time": 133.68400999999818,
          "velocity": 0.7874015748031497,
          "duration": 0.06469288541666174
        },
        {
          "name": "C#5",
          "midi": 73,
          "time": 133.68400999999818,
          "velocity": 0.7874015748031497,
          "duration": 0.06469288541666174
        },
        {
          "name": "F#5",
          "midi": 78,
          "time": 133.68400999999818,
          "velocity": 0.7874015748031497,
          "duration": 0.06469288541666174
        },
        {
          "name": "C#6",
          "midi": 85,
          "time": 133.68400999999818,
          "velocity": 0.7874015748031497,
          "duration": 0.06469288541666174
        },
        {
          "name": "F#6",
          "midi": 90,
          "time": 133.68400999999818,
          "velocity": 0.7874015748031497,
          "duration": 0.06469288541666174
        },
        {
          "name": "C#7",
          "midi": 97,
          "time": 133.68400999999818,
          "velocity": 0.7874015748031497,
          "duration": 0.06469288541666174
        },
        {
          "name": "F#7",
          "midi": 102,
          "time": 133.68400999999818,
          "velocity": 0.7874015748031497,
          "duration": 0.06469288541666174
        },
        {
          "name": "D7",
          "midi": 98,
          "time": 133.77172916666484,
          "velocity": 0.7874015748031497,
          "duration": 0.06469288541666174
        },
        {
          "name": "F7",
          "midi": 101,
          "time": 133.77172916666484,
          "velocity": 0.7874015748031497,
          "duration": 0.06469288541666174
        },
        {
          "name": "C#7",
          "midi": 97,
          "time": 133.8594483333315,
          "velocity": 0.7874015748031497,
          "duration": 0.06469288541666174
        },
        {
          "name": "F7",
          "midi": 101,
          "time": 133.8594483333315,
          "velocity": 0.7874015748031497,
          "duration": 0.06469288541666174
        },
        {
          "name": "C#4",
          "midi": 61,
          "time": 133.94716749999816,
          "velocity": 0.7874015748031497,
          "duration": 0.06469288541666174
        },
        {
          "name": "F4",
          "midi": 65,
          "time": 133.94716749999816,
          "velocity": 0.7874015748031497,
          "duration": 0.06469288541666174
        },
        {
          "name": "D5",
          "midi": 74,
          "time": 133.94716749999816,
          "velocity": 0.7874015748031497,
          "duration": 0.06469288541666174
        },
        {
          "name": "F5",
          "midi": 77,
          "time": 133.94716749999816,
          "velocity": 0.7874015748031497,
          "duration": 0.06469288541666174
        },
        {
          "name": "D6",
          "midi": 86,
          "time": 133.94716749999816,
          "velocity": 0.7874015748031497,
          "duration": 0.06469288541666174
        },
        {
          "name": "F#6",
          "midi": 90,
          "time": 133.94716749999816,
          "velocity": 0.7874015748031497,
          "duration": 0.06469288541666174
        },
        {
          "name": "D7",
          "midi": 98,
          "time": 134.03488666666482,
          "velocity": 0.7874015748031497,
          "duration": 0.06469288541666174
        },
        {
          "name": "F7",
          "midi": 101,
          "time": 134.03488666666482,
          "velocity": 0.7874015748031497,
          "duration": 0.06469288541666174
        },
        {
          "name": "D4",
          "midi": 62,
          "time": 134.21032499999814,
          "velocity": 0.7874015748031497,
          "duration": 0.06469288541666174
        },
        {
          "name": "F4",
          "midi": 65,
          "time": 134.21032499999814,
          "velocity": 0.7874015748031497,
          "duration": 0.06469288541666174
        },
        {
          "name": "D#5",
          "midi": 75,
          "time": 134.21032499999814,
          "velocity": 0.7874015748031497,
          "duration": 0.06469288541666174
        },
        {
          "name": "F5",
          "midi": 77,
          "time": 134.21032499999814,
          "velocity": 0.7874015748031497,
          "duration": 0.06469288541666174
        },
        {
          "name": "D#6",
          "midi": 87,
          "time": 134.21032499999814,
          "velocity": 0.7874015748031497,
          "duration": 0.06469288541666174
        },
        {
          "name": "F#6",
          "midi": 90,
          "time": 134.21032499999814,
          "velocity": 0.7874015748031497,
          "duration": 0.06469288541666174
        },
        {
          "name": "D#7",
          "midi": 99,
          "time": 134.21032499999814,
          "velocity": 0.7874015748031497,
          "duration": 0.06469288541666174
        },
        {
          "name": "F7",
          "midi": 101,
          "time": 134.21032499999814,
          "velocity": 0.7874015748031497,
          "duration": 0.06469288541666174
        },
        {
          "name": "D6",
          "midi": 86,
          "time": 134.34190374999812,
          "velocity": 0.7874015748031497,
          "duration": 0.06469288541666174
        },
        {
          "name": "F6",
          "midi": 89,
          "time": 134.34190374999812,
          "velocity": 0.7874015748031497,
          "duration": 0.06469288541666174
        },
        {
          "name": "D7",
          "midi": 98,
          "time": 134.34190374999812,
          "velocity": 0.7874015748031497,
          "duration": 0.06469288541666174
        },
        {
          "name": "F7",
          "midi": 101,
          "time": 134.34190374999812,
          "velocity": 0.7874015748031497,
          "duration": 0.06469288541666174
        },
        {
          "name": "C#4",
          "midi": 61,
          "time": 134.47457898958146,
          "velocity": 0.7874015748031497,
          "duration": 0.06469288541666174
        },
        {
          "name": "F4",
          "midi": 65,
          "time": 134.47457898958146,
          "velocity": 0.7874015748031497,
          "duration": 0.06469288541666174
        },
        {
          "name": "D5",
          "midi": 74,
          "time": 134.47457898958146,
          "velocity": 0.7874015748031497,
          "duration": 0.06469288541666174
        },
        {
          "name": "F5",
          "midi": 77,
          "time": 134.47457898958146,
          "velocity": 0.7874015748031497,
          "duration": 0.06469288541666174
        },
        {
          "name": "D#6",
          "midi": 87,
          "time": 134.47457898958146,
          "velocity": 0.7874015748031497,
          "duration": 0.06469288541666174
        },
        {
          "name": "F6",
          "midi": 89,
          "time": 134.47457898958146,
          "velocity": 0.7874015748031497,
          "duration": 0.06469288541666174
        },
        {
          "name": "D#7",
          "midi": 99,
          "time": 134.47457898958146,
          "velocity": 0.7874015748031497,
          "duration": 0.06469288541666174
        },
        {
          "name": "F7",
          "midi": 101,
          "time": 134.47457898958146,
          "velocity": 0.7874015748031497,
          "duration": 0.06469288541666174
        },
        {
          "name": "D7",
          "midi": 98,
          "time": 134.60506124999813,
          "velocity": 0.7874015748031497,
          "duration": 0.06469288541666174
        },
        {
          "name": "F7",
          "midi": 101,
          "time": 134.60506124999813,
          "velocity": 0.7874015748031497,
          "duration": 0.06469288541666174
        },
        {
          "name": "C4",
          "midi": 60,
          "time": 134.73663999999812,
          "velocity": 0.7874015748031497,
          "duration": 0.06469288541666174
        },
        {
          "name": "F#4",
          "midi": 66,
          "time": 134.73663999999812,
          "velocity": 0.7874015748031497,
          "duration": 0.06469288541666174
        },
        {
          "name": "C5",
          "midi": 72,
          "time": 134.73663999999812,
          "velocity": 0.7874015748031497,
          "duration": 0.06469288541666174
        },
        {
          "name": "F#5",
          "midi": 78,
          "time": 134.73663999999812,
          "velocity": 0.7874015748031497,
          "duration": 0.06469288541666174
        },
        {
          "name": "C6",
          "midi": 84,
          "time": 134.73663999999812,
          "velocity": 0.7874015748031497,
          "duration": 0.06469288541666174
        },
        {
          "name": "F#6",
          "midi": 90,
          "time": 134.73663999999812,
          "velocity": 0.7874015748031497,
          "duration": 0.06469288541666174
        },
        {
          "name": "C7",
          "midi": 96,
          "time": 134.73663999999812,
          "velocity": 0.7874015748031497,
          "duration": 0.06469288541666174
        },
        {
          "name": "F7",
          "midi": 101,
          "time": 134.73663999999812,
          "velocity": 0.7874015748031497,
          "duration": 0.06469288541666174
        },
        {
          "name": "C#4",
          "midi": 61,
          "time": 135.1313762499981,
          "velocity": 0.7874015748031497,
          "duration": 0.06469288541666174
        },
        {
          "name": "F#4",
          "midi": 66,
          "time": 135.1313762499981,
          "velocity": 0.7874015748031497,
          "duration": 0.06469288541666174
        },
        {
          "name": "C#5",
          "midi": 73,
          "time": 135.1313762499981,
          "velocity": 0.7874015748031497,
          "duration": 0.06469288541666174
        },
        {
          "name": "F#5",
          "midi": 78,
          "time": 135.1313762499981,
          "velocity": 0.7874015748031497,
          "duration": 0.06469288541666174
        },
        {
          "name": "C#6",
          "midi": 85,
          "time": 135.1313762499981,
          "velocity": 0.7874015748031497,
          "duration": 0.06469288541666174
        },
        {
          "name": "F#6",
          "midi": 90,
          "time": 135.1313762499981,
          "velocity": 0.7874015748031497,
          "duration": 0.06469288541666174
        },
        {
          "name": "C#7",
          "midi": 97,
          "time": 135.1313762499981,
          "velocity": 0.7874015748031497,
          "duration": 0.06469288541666174
        },
        {
          "name": "F#7",
          "midi": 102,
          "time": 135.1313762499981,
          "velocity": 0.7874015748031497,
          "duration": 0.06469288541666174
        },
        {
          "name": "C#7",
          "midi": 97,
          "time": 135.39453374999812,
          "velocity": 0.7874015748031497,
          "duration": 0.06469288541666174
        },
        {
          "name": "F#7",
          "midi": 102,
          "time": 135.39453374999812,
          "velocity": 0.7874015748031497,
          "duration": 0.06469288541666174
        },
        {
          "name": "D4",
          "midi": 62,
          "time": 135.5261124999981,
          "velocity": 0.7874015748031497,
          "duration": 0.06469288541666174
        },
        {
          "name": "F#4",
          "midi": 66,
          "time": 135.5261124999981,
          "velocity": 0.7874015748031497,
          "duration": 0.06469288541666174
        },
        {
          "name": "D5",
          "midi": 74,
          "time": 135.5261124999981,
          "velocity": 0.7874015748031497,
          "duration": 0.06469288541666174
        },
        {
          "name": "F#5",
          "midi": 78,
          "time": 135.5261124999981,
          "velocity": 0.7874015748031497,
          "duration": 0.06469288541666174
        },
        {
          "name": "D6",
          "midi": 86,
          "time": 135.5261124999981,
          "velocity": 0.7874015748031497,
          "duration": 0.06469288541666174
        },
        {
          "name": "F#6",
          "midi": 90,
          "time": 135.5261124999981,
          "velocity": 0.7874015748031497,
          "duration": 0.06469288541666174
        },
        {
          "name": "D7",
          "midi": 98,
          "time": 135.5261124999981,
          "velocity": 0.7874015748031497,
          "duration": 0.06469288541666174
        },
        {
          "name": "F7",
          "midi": 101,
          "time": 135.5261124999981,
          "velocity": 0.7874015748031497,
          "duration": 0.06469288541666174
        },
        {
          "name": "C4",
          "midi": 60,
          "time": 135.7892699999981,
          "velocity": 0.7874015748031497,
          "duration": 0.06469288541666174
        },
        {
          "name": "F#4",
          "midi": 66,
          "time": 135.7892699999981,
          "velocity": 0.7874015748031497,
          "duration": 0.06469288541666174
        },
        {
          "name": "C#5",
          "midi": 73,
          "time": 135.7892699999981,
          "velocity": 0.7874015748031497,
          "duration": 0.06469288541666174
        },
        {
          "name": "F#5",
          "midi": 78,
          "time": 135.7892699999981,
          "velocity": 0.7874015748031497,
          "duration": 0.06469288541666174
        },
        {
          "name": "C#6",
          "midi": 85,
          "time": 135.7892699999981,
          "velocity": 0.7874015748031497,
          "duration": 0.06469288541666174
        },
        {
          "name": "F#6",
          "midi": 90,
          "time": 135.7892699999981,
          "velocity": 0.7874015748031497,
          "duration": 0.06469288541666174
        },
        {
          "name": "C#7",
          "midi": 97,
          "time": 135.7892699999981,
          "velocity": 0.7874015748031497,
          "duration": 0.06469288541666174
        },
        {
          "name": "F#7",
          "midi": 102,
          "time": 135.7892699999981,
          "velocity": 0.7874015748031497,
          "duration": 0.06469288541666174
        },
        {
          "name": "D7",
          "midi": 98,
          "time": 135.87698916666477,
          "velocity": 0.7874015748031497,
          "duration": 0.06469288541666174
        },
        {
          "name": "F7",
          "midi": 101,
          "time": 135.87698916666477,
          "velocity": 0.7874015748031497,
          "duration": 0.06469288541666174
        },
        {
          "name": "D6",
          "midi": 86,
          "time": 135.9208487499981,
          "velocity": 0.7874015748031497,
          "duration": 0.06469288541666174
        },
        {
          "name": "F6",
          "midi": 89,
          "time": 135.9208487499981,
          "velocity": 0.7874015748031497,
          "duration": 0.06469288541666174
        },
        {
          "name": "C#7",
          "midi": 97,
          "time": 135.96470833333143,
          "velocity": 0.7874015748031497,
          "duration": 0.06469288541666174
        },
        {
          "name": "F7",
          "midi": 101,
          "time": 135.96470833333143,
          "velocity": 0.7874015748031497,
          "duration": 0.06469288541666174
        },
        {
          "name": "C#4",
          "midi": 61,
          "time": 136.05352398958144,
          "velocity": 0.7874015748031497,
          "duration": 0.06469288541666174
        },
        {
          "name": "F4",
          "midi": 65,
          "time": 136.05352398958144,
          "velocity": 0.7874015748031497,
          "duration": 0.06469288541666174
        },
        {
          "name": "D5",
          "midi": 74,
          "time": 136.05352398958144,
          "velocity": 0.7874015748031497,
          "duration": 0.06469288541666174
        },
        {
          "name": "F5",
          "midi": 77,
          "time": 136.05352398958144,
          "velocity": 0.7874015748031497,
          "duration": 0.06469288541666174
        },
        {
          "name": "C#6",
          "midi": 85,
          "time": 136.05352398958144,
          "velocity": 0.7874015748031497,
          "duration": 0.06469288541666174
        },
        {
          "name": "F6",
          "midi": 89,
          "time": 136.05352398958144,
          "velocity": 0.7874015748031497,
          "duration": 0.06469288541666174
        },
        {
          "name": "D7",
          "midi": 98,
          "time": 136.1412431562481,
          "velocity": 0.7874015748031497,
          "duration": 0.06469288541666174
        },
        {
          "name": "F7",
          "midi": 101,
          "time": 136.1412431562481,
          "velocity": 0.7874015748031497,
          "duration": 0.06469288541666174
        },
        {
          "name": "D4",
          "midi": 62,
          "time": 136.3155849999981,
          "velocity": 0.7874015748031497,
          "duration": 0.7883760104166697
        },
        {
          "name": "F4",
          "midi": 65,
          "time": 136.3155849999981,
          "velocity": 0.7874015748031497,
          "duration": 0.7883760104166697
        },
        {
          "name": "D#5",
          "midi": 75,
          "time": 136.3155849999981,
          "velocity": 0.7874015748031497,
          "duration": 0.7883760104166697
        },
        {
          "name": "F5",
          "midi": 77,
          "time": 136.3155849999981,
          "velocity": 0.7874015748031497,
          "duration": 0.7883760104166697
        },
        {
          "name": "D#6",
          "midi": 87,
          "time": 136.3155849999981,
          "velocity": 0.7874015748031497,
          "duration": 0.7883760104166697
        },
        {
          "name": "F6",
          "midi": 89,
          "time": 136.3155849999981,
          "velocity": 0.7874015748031497,
          "duration": 0.7883760104166697
        },
        {
          "name": "D#7",
          "midi": 99,
          "time": 136.3155849999981,
          "velocity": 0.7874015748031497,
          "duration": 0.7883760104166697
        },
        {
          "name": "F7",
          "midi": 101,
          "time": 136.3155849999981,
          "velocity": 0.7874015748031497,
          "duration": 0.7883760104166697
        },
        {
          "name": "C4",
          "midi": 60,
          "time": 137.1050574999981,
          "velocity": 0.7874015748031497,
          "duration": 0.06469288541666174
        },
        {
          "name": "F#4",
          "midi": 66,
          "time": 137.1050574999981,
          "velocity": 0.7874015748031497,
          "duration": 0.06469288541666174
        },
        {
          "name": "C5",
          "midi": 72,
          "time": 137.1050574999981,
          "velocity": 0.7874015748031497,
          "duration": 0.06469288541666174
        },
        {
          "name": "F#5",
          "midi": 78,
          "time": 137.1050574999981,
          "velocity": 0.7874015748031497,
          "duration": 0.06469288541666174
        },
        {
          "name": "C6",
          "midi": 84,
          "time": 137.1050574999981,
          "velocity": 0.7874015748031497,
          "duration": 0.06469288541666174
        },
        {
          "name": "F#6",
          "midi": 90,
          "time": 137.1050574999981,
          "velocity": 0.7874015748031497,
          "duration": 0.06469288541666174
        },
        {
          "name": "C7",
          "midi": 96,
          "time": 137.1050574999981,
          "velocity": 0.7874015748031497,
          "duration": 0.06469288541666174
        },
        {
          "name": "F#7",
          "midi": 102,
          "time": 137.1050574999981,
          "velocity": 0.7874015748031497,
          "duration": 0.06469288541666174
        },
        {
          "name": "C#4",
          "midi": 61,
          "time": 137.36821499999812,
          "velocity": 0.7874015748031497,
          "duration": 0.06578937500000848
        },
        {
          "name": "F#4",
          "midi": 66,
          "time": 137.36821499999812,
          "velocity": 0.7874015748031497,
          "duration": 0.06578937500000848
        },
        {
          "name": "C#5",
          "midi": 73,
          "time": 137.36821499999812,
          "velocity": 0.7874015748031497,
          "duration": 0.06578937500000848
        },
        {
          "name": "F#5",
          "midi": 78,
          "time": 137.36821499999812,
          "velocity": 0.7874015748031497,
          "duration": 0.06578937500000848
        },
        {
          "name": "C#6",
          "midi": 85,
          "time": 137.36821499999812,
          "velocity": 0.7874015748031497,
          "duration": 0.06578937500000848
        },
        {
          "name": "F#6",
          "midi": 90,
          "time": 137.36821499999812,
          "velocity": 0.7874015748031497,
          "duration": 0.06578937500000848
        },
        {
          "name": "C#7",
          "midi": 97,
          "time": 137.36821499999812,
          "velocity": 0.7874015748031497,
          "duration": 0.06578937500000848
        },
        {
          "name": "F#7",
          "midi": 102,
          "time": 137.36821499999812,
          "velocity": 0.7874015748031497,
          "duration": 0.06578937500000848
        },
        {
          "name": "D4",
          "midi": 62,
          "time": 137.63137249999812,
          "velocity": 0.7874015748031497,
          "duration": 0.06578937500000848
        },
        {
          "name": "F#4",
          "midi": 66,
          "time": 137.63137249999812,
          "velocity": 0.7874015748031497,
          "duration": 0.06578937500000848
        },
        {
          "name": "D5",
          "midi": 74,
          "time": 137.63137249999812,
          "velocity": 0.7874015748031497,
          "duration": 0.06578937500000848
        },
        {
          "name": "F#5",
          "midi": 78,
          "time": 137.63137249999812,
          "velocity": 0.7874015748031497,
          "duration": 0.06578937500000848
        },
        {
          "name": "D6",
          "midi": 86,
          "time": 137.63137249999812,
          "velocity": 0.7874015748031497,
          "duration": 0.06578937500000848
        },
        {
          "name": "F#6",
          "midi": 90,
          "time": 137.63137249999812,
          "velocity": 0.7874015748031497,
          "duration": 0.06578937500000848
        },
        {
          "name": "C#7",
          "midi": 97,
          "time": 137.63137249999812,
          "velocity": 0.7874015748031497,
          "duration": 0.06469288541666174
        },
        {
          "name": "F#7",
          "midi": 102,
          "time": 137.63137249999812,
          "velocity": 0.7874015748031497,
          "duration": 0.06469288541666174
        },
        {
          "name": "D7",
          "midi": 98,
          "time": 137.69716187499813,
          "velocity": 0.7874015748031497,
          "duration": 0.06469288541666174
        },
        {
          "name": "F7",
          "midi": 101,
          "time": 137.69716187499813,
          "velocity": 0.7874015748031497,
          "duration": 0.06469288541666174
        },
        {
          "name": "C4",
          "midi": 60,
          "time": 137.89452999999813,
          "velocity": 0.7874015748031497,
          "duration": 0.06578937500000848
        },
        {
          "name": "F#4",
          "midi": 66,
          "time": 137.89452999999813,
          "velocity": 0.7874015748031497,
          "duration": 0.06578937500000848
        },
        {
          "name": "C#5",
          "midi": 73,
          "time": 137.89452999999813,
          "velocity": 0.7874015748031497,
          "duration": 0.06578937500000848
        },
        {
          "name": "F#5",
          "midi": 78,
          "time": 137.89452999999813,
          "velocity": 0.7874015748031497,
          "duration": 0.06578937500000848
        },
        {
          "name": "C#6",
          "midi": 85,
          "time": 137.89452999999813,
          "velocity": 0.7874015748031497,
          "duration": 0.06578937500000848
        },
        {
          "name": "F#6",
          "midi": 90,
          "time": 137.89452999999813,
          "velocity": 0.7874015748031497,
          "duration": 0.06578937500000848
        },
        {
          "name": "C#7",
          "midi": 97,
          "time": 137.89452999999813,
          "velocity": 0.7874015748031497,
          "duration": 0.06578937500000848
        },
        {
          "name": "F#7",
          "midi": 102,
          "time": 137.89452999999813,
          "velocity": 0.7874015748031497,
          "duration": 0.06578937500000848
        },
        {
          "name": "D7",
          "midi": 98,
          "time": 137.98224916666481,
          "velocity": 0.7874015748031497,
          "duration": 0.06578937500000848
        },
        {
          "name": "F7",
          "midi": 101,
          "time": 137.98224916666481,
          "velocity": 0.7874015748031497,
          "duration": 0.06578937500000848
        },
        {
          "name": "C#7",
          "midi": 97,
          "time": 138.0699683333315,
          "velocity": 0.7874015748031497,
          "duration": 0.06578937500000848
        },
        {
          "name": "F7",
          "midi": 101,
          "time": 138.0699683333315,
          "velocity": 0.7874015748031497,
          "duration": 0.06578937500000848
        },
        {
          "name": "C#4",
          "midi": 61,
          "time": 138.1576874999982,
          "velocity": 0.7874015748031497,
          "duration": 0.06578937500000848
        },
        {
          "name": "F4",
          "midi": 65,
          "time": 138.1576874999982,
          "velocity": 0.7874015748031497,
          "duration": 0.06578937500000848
        },
        {
          "name": "D5",
          "midi": 74,
          "time": 138.1576874999982,
          "velocity": 0.7874015748031497,
          "duration": 0.06578937500000848
        },
        {
          "name": "F5",
          "midi": 77,
          "time": 138.1576874999982,
          "velocity": 0.7874015748031497,
          "duration": 0.06578937500000848
        },
        {
          "name": "D6",
          "midi": 86,
          "time": 138.1576874999982,
          "velocity": 0.7874015748031497,
          "duration": 0.06578937500000848
        },
        {
          "name": "F#6",
          "midi": 90,
          "time": 138.1576874999982,
          "velocity": 0.7874015748031497,
          "duration": 0.06578937500000848
        },
        {
          "name": "D7",
          "midi": 98,
          "time": 138.24540666666488,
          "velocity": 0.7874015748031497,
          "duration": 0.06578937500000848
        },
        {
          "name": "F7",
          "midi": 101,
          "time": 138.24540666666488,
          "velocity": 0.7874015748031497,
          "duration": 0.06578937500000848
        },
        {
          "name": "D4",
          "midi": 62,
          "time": 138.42084499999822,
          "velocity": 0.7874015748031497,
          "duration": 0.06688586458332679
        },
        {
          "name": "F4",
          "midi": 65,
          "time": 138.42084499999822,
          "velocity": 0.7874015748031497,
          "duration": 0.06688586458332679
        },
        {
          "name": "D#5",
          "midi": 75,
          "time": 138.42084499999822,
          "velocity": 0.7874015748031497,
          "duration": 0.06688586458332679
        },
        {
          "name": "F5",
          "midi": 77,
          "time": 138.42084499999822,
          "velocity": 0.7874015748031497,
          "duration": 0.06688586458332679
        },
        {
          "name": "D#6",
          "midi": 87,
          "time": 138.42084499999822,
          "velocity": 0.7874015748031497,
          "duration": 0.06688586458332679
        },
        {
          "name": "F#6",
          "midi": 90,
          "time": 138.42084499999822,
          "velocity": 0.7874015748031497,
          "duration": 0.06688586458332679
        },
        {
          "name": "D#7",
          "midi": 99,
          "time": 138.42084499999822,
          "velocity": 0.7874015748031497,
          "duration": 0.06688586458332679
        },
        {
          "name": "F7",
          "midi": 101,
          "time": 138.42084499999822,
          "velocity": 0.7874015748031497,
          "duration": 0.06688586458332679
        },
        {
          "name": "D6",
          "midi": 86,
          "time": 138.5524237499982,
          "velocity": 0.7874015748031497,
          "duration": 0.06578937500000848
        },
        {
          "name": "F6",
          "midi": 89,
          "time": 138.5524237499982,
          "velocity": 0.7874015748031497,
          "duration": 0.06578937500000848
        },
        {
          "name": "D7",
          "midi": 98,
          "time": 138.5524237499982,
          "velocity": 0.7874015748031497,
          "duration": 0.06578937500000848
        },
        {
          "name": "F7",
          "midi": 101,
          "time": 138.5524237499982,
          "velocity": 0.7874015748031497,
          "duration": 0.06578937500000848
        },
        {
          "name": "C#4",
          "midi": 61,
          "time": 138.68509898958155,
          "velocity": 0.7874015748031497,
          "duration": 0.06469288541666174
        },
        {
          "name": "F4",
          "midi": 65,
          "time": 138.68509898958155,
          "velocity": 0.7874015748031497,
          "duration": 0.06469288541666174
        },
        {
          "name": "D5",
          "midi": 74,
          "time": 138.68509898958155,
          "velocity": 0.7874015748031497,
          "duration": 0.06469288541666174
        },
        {
          "name": "F5",
          "midi": 77,
          "time": 138.68509898958155,
          "velocity": 0.7874015748031497,
          "duration": 0.06469288541666174
        },
        {
          "name": "D#6",
          "midi": 87,
          "time": 138.68509898958155,
          "velocity": 0.7874015748031497,
          "duration": 0.06469288541666174
        },
        {
          "name": "F6",
          "midi": 89,
          "time": 138.68509898958155,
          "velocity": 0.7874015748031497,
          "duration": 0.06469288541666174
        },
        {
          "name": "D#7",
          "midi": 99,
          "time": 138.68509898958155,
          "velocity": 0.7874015748031497,
          "duration": 0.06469288541666174
        },
        {
          "name": "F7",
          "midi": 101,
          "time": 138.68509898958155,
          "velocity": 0.7874015748031497,
          "duration": 0.06469288541666174
        },
        {
          "name": "C4",
          "midi": 60,
          "time": 138.9471599999982,
          "velocity": 0.7874015748031497,
          "duration": 0.06578937500000848
        },
        {
          "name": "F#4",
          "midi": 66,
          "time": 138.9471599999982,
          "velocity": 0.7874015748031497,
          "duration": 0.06578937500000848
        },
        {
          "name": "C#5",
          "midi": 73,
          "time": 138.9471599999982,
          "velocity": 0.7874015748031497,
          "duration": 0.06578937500000848
        },
        {
          "name": "D5",
          "midi": 74,
          "time": 138.9471599999982,
          "velocity": 0.7874015748031497,
          "duration": 0.06578937500000848
        },
        {
          "name": "F#5",
          "midi": 78,
          "time": 138.9471599999982,
          "velocity": 0.7874015748031497,
          "duration": 0.06578937500000848
        },
        {
          "name": "C#6",
          "midi": 85,
          "time": 138.9471599999982,
          "velocity": 0.7874015748031497,
          "duration": 0.06578937500000848
        },
        {
          "name": "D#6",
          "midi": 87,
          "time": 138.9471599999982,
          "velocity": 0.7874015748031497,
          "duration": 0.06578937500000848
        },
        {
          "name": "F#6",
          "midi": 90,
          "time": 138.9471599999982,
          "velocity": 0.7874015748031497,
          "duration": 0.06578937500000848
        },
        {
          "name": "C#7",
          "midi": 97,
          "time": 138.9471599999982,
          "velocity": 0.7874015748031497,
          "duration": 0.06578937500000848
        },
        {
          "name": "D7",
          "midi": 98,
          "time": 138.9471599999982,
          "velocity": 0.7874015748031497,
          "duration": 0.06578937500000848
        },
        {
          "name": "D#7",
          "midi": 99,
          "time": 138.9471599999982,
          "velocity": 0.7874015748031497,
          "duration": 0.06578937500000848
        },
        {
          "name": "F#7",
          "midi": 102,
          "time": 138.9471599999982,
          "velocity": 0.7874015748031497,
          "duration": 0.06578937500000848
        },
        {
          "name": "C4",
          "midi": 60,
          "time": 139.27501038541487,
          "velocity": 0.7874015748031497,
          "duration": 0.06578937500000848
        },
        {
          "name": "F#4",
          "midi": 66,
          "time": 139.27501038541487,
          "velocity": 0.7874015748031497,
          "duration": 0.06578937500000848
        },
        {
          "name": "C#5",
          "midi": 73,
          "time": 139.27501038541487,
          "velocity": 0.7874015748031497,
          "duration": 0.06578937500000848
        },
        {
          "name": "D5",
          "midi": 74,
          "time": 139.27501038541487,
          "velocity": 0.7874015748031497,
          "duration": 0.06578937500000848
        },
        {
          "name": "F#5",
          "midi": 78,
          "time": 139.27501038541487,
          "velocity": 0.7874015748031497,
          "duration": 0.06578937500000848
        },
        {
          "name": "C#6",
          "midi": 85,
          "time": 139.27501038541487,
          "velocity": 0.7874015748031497,
          "duration": 0.06578937500000848
        },
        {
          "name": "D#6",
          "midi": 87,
          "time": 139.27501038541487,
          "velocity": 0.7874015748031497,
          "duration": 0.06578937500000848
        },
        {
          "name": "F#6",
          "midi": 90,
          "time": 139.27501038541487,
          "velocity": 0.7874015748031497,
          "duration": 0.06578937500000848
        },
        {
          "name": "C#7",
          "midi": 97,
          "time": 139.27501038541487,
          "velocity": 0.7874015748031497,
          "duration": 0.06578937500000848
        },
        {
          "name": "D7",
          "midi": 98,
          "time": 139.27501038541487,
          "velocity": 0.7874015748031497,
          "duration": 0.06578937500000848
        },
        {
          "name": "D#7",
          "midi": 99,
          "time": 139.27501038541487,
          "velocity": 0.7874015748031497,
          "duration": 0.06578937500000848
        },
        {
          "name": "F#7",
          "midi": 102,
          "time": 139.27501038541487,
          "velocity": 0.7874015748031497,
          "duration": 0.06578937500000848
        },
        {
          "name": "C4",
          "midi": 60,
          "time": 139.73553601041488,
          "velocity": 0.7874015748031497,
          "duration": 0.06578937500000848
        },
        {
          "name": "F#4",
          "midi": 66,
          "time": 139.73553601041488,
          "velocity": 0.7874015748031497,
          "duration": 0.06578937500000848
        },
        {
          "name": "C#5",
          "midi": 73,
          "time": 139.73553601041488,
          "velocity": 0.7874015748031497,
          "duration": 0.06578937500000848
        },
        {
          "name": "D5",
          "midi": 74,
          "time": 139.73553601041488,
          "velocity": 0.7874015748031497,
          "duration": 0.06578937500000848
        },
        {
          "name": "F#5",
          "midi": 78,
          "time": 139.73553601041488,
          "velocity": 0.7874015748031497,
          "duration": 0.06578937500000848
        },
        {
          "name": "C#6",
          "midi": 85,
          "time": 139.73553601041488,
          "velocity": 0.7874015748031497,
          "duration": 0.06578937500000848
        },
        {
          "name": "D#6",
          "midi": 87,
          "time": 139.73553601041488,
          "velocity": 0.7874015748031497,
          "duration": 0.06578937500000848
        },
        {
          "name": "F#6",
          "midi": 90,
          "time": 139.73553601041488,
          "velocity": 0.7874015748031497,
          "duration": 0.06578937500000848
        },
        {
          "name": "C#7",
          "midi": 97,
          "time": 139.73553601041488,
          "velocity": 0.7874015748031497,
          "duration": 0.06578937500000848
        },
        {
          "name": "D7",
          "midi": 98,
          "time": 139.73553601041488,
          "velocity": 0.7874015748031497,
          "duration": 0.06578937500000848
        },
        {
          "name": "D#7",
          "midi": 99,
          "time": 139.73553601041488,
          "velocity": 0.7874015748031497,
          "duration": 0.06578937500000848
        },
        {
          "name": "F#7",
          "midi": 102,
          "time": 139.73553601041488,
          "velocity": 0.7874015748031497,
          "duration": 0.06578937500000848
        },
        {
          "name": "C4",
          "midi": 60,
          "time": 140.2618510104149,
          "velocity": 0.7874015748031497,
          "duration": 0.06578937500000848
        },
        {
          "name": "F#4",
          "midi": 66,
          "time": 140.2618510104149,
          "velocity": 0.7874015748031497,
          "duration": 0.06578937500000848
        },
        {
          "name": "C#5",
          "midi": 73,
          "time": 140.2618510104149,
          "velocity": 0.7874015748031497,
          "duration": 0.06578937500000848
        },
        {
          "name": "D5",
          "midi": 74,
          "time": 140.2618510104149,
          "velocity": 0.7874015748031497,
          "duration": 0.06578937500000848
        },
        {
          "name": "F#5",
          "midi": 78,
          "time": 140.2618510104149,
          "velocity": 0.7874015748031497,
          "duration": 0.06578937500000848
        },
        {
          "name": "C#6",
          "midi": 85,
          "time": 140.2618510104149,
          "velocity": 0.7874015748031497,
          "duration": 0.06578937500000848
        },
        {
          "name": "D#6",
          "midi": 87,
          "time": 140.2618510104149,
          "velocity": 0.7874015748031497,
          "duration": 0.06578937500000848
        },
        {
          "name": "F#6",
          "midi": 90,
          "time": 140.2618510104149,
          "velocity": 0.7874015748031497,
          "duration": 0.06578937500000848
        },
        {
          "name": "C#7",
          "midi": 97,
          "time": 140.2618510104149,
          "velocity": 0.7874015748031497,
          "duration": 0.06578937500000848
        },
        {
          "name": "D7",
          "midi": 98,
          "time": 140.2618510104149,
          "velocity": 0.7874015748031497,
          "duration": 0.06578937500000848
        },
        {
          "name": "D#7",
          "midi": 99,
          "time": 140.2618510104149,
          "velocity": 0.7874015748031497,
          "duration": 0.06578937500000848
        },
        {
          "name": "F#7",
          "midi": 102,
          "time": 140.2618510104149,
          "velocity": 0.7874015748031497,
          "duration": 0.06578937500000848
        },
        {
          "name": "C4",
          "midi": 60,
          "time": 140.79035898958156,
          "velocity": 0.7874015748031497,
          "duration": 0.06469288541666174
        },
        {
          "name": "F#4",
          "midi": 66,
          "time": 140.79035898958156,
          "velocity": 0.7874015748031497,
          "duration": 0.06469288541666174
        },
        {
          "name": "C#5",
          "midi": 73,
          "time": 140.79035898958156,
          "velocity": 0.7874015748031497,
          "duration": 0.06469288541666174
        },
        {
          "name": "D5",
          "midi": 74,
          "time": 140.79035898958156,
          "velocity": 0.7874015748031497,
          "duration": 0.06469288541666174
        },
        {
          "name": "F#5",
          "midi": 78,
          "time": 140.79035898958156,
          "velocity": 0.7874015748031497,
          "duration": 0.06469288541666174
        },
        {
          "name": "C#6",
          "midi": 85,
          "time": 140.79035898958156,
          "velocity": 0.7874015748031497,
          "duration": 0.06469288541666174
        },
        {
          "name": "D#6",
          "midi": 87,
          "time": 140.79035898958156,
          "velocity": 0.7874015748031497,
          "duration": 0.06469288541666174
        },
        {
          "name": "F#6",
          "midi": 90,
          "time": 140.79035898958156,
          "velocity": 0.7874015748031497,
          "duration": 0.06469288541666174
        },
        {
          "name": "C#7",
          "midi": 97,
          "time": 140.79035898958156,
          "velocity": 0.7874015748031497,
          "duration": 0.06469288541666174
        },
        {
          "name": "D7",
          "midi": 98,
          "time": 140.79035898958156,
          "velocity": 0.7874015748031497,
          "duration": 0.06469288541666174
        },
        {
          "name": "D#7",
          "midi": 99,
          "time": 140.79035898958156,
          "velocity": 0.7874015748031497,
          "duration": 0.06469288541666174
        },
        {
          "name": "F#7",
          "midi": 102,
          "time": 140.79035898958156,
          "velocity": 0.7874015748031497,
          "duration": 0.06469288541666174
        },
        {
          "name": "C4",
          "midi": 60,
          "time": 141.05241999999822,
          "velocity": 0.7874015748031497,
          "duration": 0.06578937500000848
        },
        {
          "name": "F#4",
          "midi": 66,
          "time": 141.05241999999822,
          "velocity": 0.7874015748031497,
          "duration": 0.06578937500000848
        },
        {
          "name": "C#5",
          "midi": 73,
          "time": 141.05241999999822,
          "velocity": 0.7874015748031497,
          "duration": 0.06578937500000848
        },
        {
          "name": "D5",
          "midi": 74,
          "time": 141.05241999999822,
          "velocity": 0.7874015748031497,
          "duration": 0.06578937500000848
        },
        {
          "name": "F#5",
          "midi": 78,
          "time": 141.05241999999822,
          "velocity": 0.7874015748031497,
          "duration": 0.06578937500000848
        },
        {
          "name": "C#6",
          "midi": 85,
          "time": 141.05241999999822,
          "velocity": 0.7874015748031497,
          "duration": 0.06578937500000848
        },
        {
          "name": "D#6",
          "midi": 87,
          "time": 141.05241999999822,
          "velocity": 0.7874015748031497,
          "duration": 0.06578937500000848
        },
        {
          "name": "F#6",
          "midi": 90,
          "time": 141.05241999999822,
          "velocity": 0.7874015748031497,
          "duration": 0.06578937500000848
        },
        {
          "name": "C#7",
          "midi": 97,
          "time": 141.05241999999822,
          "velocity": 0.7874015748031497,
          "duration": 0.06578937500000848
        },
        {
          "name": "D7",
          "midi": 98,
          "time": 141.05241999999822,
          "velocity": 0.7874015748031497,
          "duration": 0.06578937500000848
        },
        {
          "name": "D#7",
          "midi": 99,
          "time": 141.05241999999822,
          "velocity": 0.7874015748031497,
          "duration": 0.06578937500000848
        },
        {
          "name": "F#7",
          "midi": 102,
          "time": 141.05241999999822,
          "velocity": 0.7874015748031497,
          "duration": 0.06578937500000848
        },
        {
          "name": "C4",
          "midi": 60,
          "time": 141.38136687499824,
          "velocity": 0.7874015748031497,
          "duration": 0.06578937500000848
        },
        {
          "name": "F#4",
          "midi": 66,
          "time": 141.38136687499824,
          "velocity": 0.7874015748031497,
          "duration": 0.06578937500000848
        },
        {
          "name": "C#5",
          "midi": 73,
          "time": 141.38136687499824,
          "velocity": 0.7874015748031497,
          "duration": 0.06578937500000848
        },
        {
          "name": "D5",
          "midi": 74,
          "time": 141.38136687499824,
          "velocity": 0.7874015748031497,
          "duration": 0.06578937500000848
        },
        {
          "name": "F#5",
          "midi": 78,
          "time": 141.38136687499824,
          "velocity": 0.7874015748031497,
          "duration": 0.06578937500000848
        },
        {
          "name": "C#6",
          "midi": 85,
          "time": 141.38136687499824,
          "velocity": 0.7874015748031497,
          "duration": 0.06578937500000848
        },
        {
          "name": "D#6",
          "midi": 87,
          "time": 141.38136687499824,
          "velocity": 0.7874015748031497,
          "duration": 0.06578937500000848
        },
        {
          "name": "F#6",
          "midi": 90,
          "time": 141.38136687499824,
          "velocity": 0.7874015748031497,
          "duration": 0.06578937500000848
        },
        {
          "name": "C#7",
          "midi": 97,
          "time": 141.38136687499824,
          "velocity": 0.7874015748031497,
          "duration": 0.06578937500000848
        },
        {
          "name": "D7",
          "midi": 98,
          "time": 141.38136687499824,
          "velocity": 0.7874015748031497,
          "duration": 0.06578937500000848
        },
        {
          "name": "D#7",
          "midi": 99,
          "time": 141.38136687499824,
          "velocity": 0.7874015748031497,
          "duration": 0.06578937500000848
        },
        {
          "name": "F#7",
          "midi": 102,
          "time": 141.38136687499824,
          "velocity": 0.7874015748031497,
          "duration": 0.06578937500000848
        },
        {
          "name": "C4",
          "midi": 60,
          "time": 141.84189249999824,
          "velocity": 0.7874015748031497,
          "duration": 0.06469288541666174
        },
        {
          "name": "F#4",
          "midi": 66,
          "time": 141.84189249999824,
          "velocity": 0.7874015748031497,
          "duration": 0.06469288541666174
        },
        {
          "name": "C#5",
          "midi": 73,
          "time": 141.84189249999824,
          "velocity": 0.7874015748031497,
          "duration": 0.06469288541666174
        },
        {
          "name": "D5",
          "midi": 74,
          "time": 141.84189249999824,
          "velocity": 0.7874015748031497,
          "duration": 0.06469288541666174
        },
        {
          "name": "F#5",
          "midi": 78,
          "time": 141.84189249999824,
          "velocity": 0.7874015748031497,
          "duration": 0.06469288541666174
        },
        {
          "name": "C#6",
          "midi": 85,
          "time": 141.84189249999824,
          "velocity": 0.7874015748031497,
          "duration": 0.06469288541666174
        },
        {
          "name": "D#6",
          "midi": 87,
          "time": 141.84189249999824,
          "velocity": 0.7874015748031497,
          "duration": 0.06469288541666174
        },
        {
          "name": "F#6",
          "midi": 90,
          "time": 141.84189249999824,
          "velocity": 0.7874015748031497,
          "duration": 0.06469288541666174
        },
        {
          "name": "C#7",
          "midi": 97,
          "time": 141.84189249999824,
          "velocity": 0.7874015748031497,
          "duration": 0.06469288541666174
        },
        {
          "name": "D7",
          "midi": 98,
          "time": 141.84189249999824,
          "velocity": 0.7874015748031497,
          "duration": 0.06469288541666174
        },
        {
          "name": "D#7",
          "midi": 99,
          "time": 141.84189249999824,
          "velocity": 0.7874015748031497,
          "duration": 0.06469288541666174
        },
        {
          "name": "F#7",
          "midi": 102,
          "time": 141.84189249999824,
          "velocity": 0.7874015748031497,
          "duration": 0.06469288541666174
        },
        {
          "name": "C4",
          "midi": 60,
          "time": 142.36820749999822,
          "velocity": 0.7874015748031497,
          "duration": 0.06469288541666174
        },
        {
          "name": "F#4",
          "midi": 66,
          "time": 142.36820749999822,
          "velocity": 0.7874015748031497,
          "duration": 0.06469288541666174
        },
        {
          "name": "C#5",
          "midi": 73,
          "time": 142.36820749999822,
          "velocity": 0.7874015748031497,
          "duration": 0.06469288541666174
        },
        {
          "name": "D5",
          "midi": 74,
          "time": 142.36820749999822,
          "velocity": 0.7874015748031497,
          "duration": 0.06469288541666174
        },
        {
          "name": "F#5",
          "midi": 78,
          "time": 142.36820749999822,
          "velocity": 0.7874015748031497,
          "duration": 0.06469288541666174
        },
        {
          "name": "C#6",
          "midi": 85,
          "time": 142.36820749999822,
          "velocity": 0.7874015748031497,
          "duration": 0.06469288541666174
        },
        {
          "name": "D#6",
          "midi": 87,
          "time": 142.36820749999822,
          "velocity": 0.7874015748031497,
          "duration": 0.06469288541666174
        },
        {
          "name": "F#6",
          "midi": 90,
          "time": 142.36820749999822,
          "velocity": 0.7874015748031497,
          "duration": 0.06469288541666174
        },
        {
          "name": "C#7",
          "midi": 97,
          "time": 142.36820749999822,
          "velocity": 0.7874015748031497,
          "duration": 0.06469288541666174
        },
        {
          "name": "D7",
          "midi": 98,
          "time": 142.36820749999822,
          "velocity": 0.7874015748031497,
          "duration": 0.06469288541666174
        },
        {
          "name": "D#7",
          "midi": 99,
          "time": 142.36820749999822,
          "velocity": 0.7874015748031497,
          "duration": 0.06469288541666174
        },
        {
          "name": "F#7",
          "midi": 102,
          "time": 142.36820749999822,
          "velocity": 0.7874015748031497,
          "duration": 0.06469288541666174
        },
        {
          "name": "C4",
          "midi": 60,
          "time": 142.89342601041488,
          "velocity": 0.7874015748031497,
          "duration": 0.06578937500000848
        },
        {
          "name": "F#4",
          "midi": 66,
          "time": 142.89342601041488,
          "velocity": 0.7874015748031497,
          "duration": 0.06578937500000848
        },
        {
          "name": "C#5",
          "midi": 73,
          "time": 142.89342601041488,
          "velocity": 0.7874015748031497,
          "duration": 0.06578937500000848
        },
        {
          "name": "D5",
          "midi": 74,
          "time": 142.89342601041488,
          "velocity": 0.7874015748031497,
          "duration": 0.06578937500000848
        },
        {
          "name": "F#5",
          "midi": 78,
          "time": 142.89342601041488,
          "velocity": 0.7874015748031497,
          "duration": 0.06578937500000848
        },
        {
          "name": "C#6",
          "midi": 85,
          "time": 142.89342601041488,
          "velocity": 0.7874015748031497,
          "duration": 0.06578937500000848
        },
        {
          "name": "D#6",
          "midi": 87,
          "time": 142.89342601041488,
          "velocity": 0.7874015748031497,
          "duration": 0.06578937500000848
        },
        {
          "name": "F#6",
          "midi": 90,
          "time": 142.89342601041488,
          "velocity": 0.7874015748031497,
          "duration": 0.06578937500000848
        },
        {
          "name": "C#7",
          "midi": 97,
          "time": 142.89342601041488,
          "velocity": 0.7874015748031497,
          "duration": 0.06578937500000848
        },
        {
          "name": "D7",
          "midi": 98,
          "time": 142.89342601041488,
          "velocity": 0.7874015748031497,
          "duration": 0.06578937500000848
        },
        {
          "name": "D#7",
          "midi": 99,
          "time": 142.89342601041488,
          "velocity": 0.7874015748031497,
          "duration": 0.06578937500000848
        },
        {
          "name": "F#7",
          "midi": 102,
          "time": 142.89342601041488,
          "velocity": 0.7874015748031497,
          "duration": 0.06578937500000848
        },
        {
          "name": "C#4",
          "midi": 61,
          "time": 143.15767999999824,
          "velocity": 0.7874015748031497,
          "duration": 0.06578937500000848
        },
        {
          "name": "F#4",
          "midi": 66,
          "time": 143.15767999999824,
          "velocity": 0.7874015748031497,
          "duration": 0.06578937500000848
        },
        {
          "name": "D5",
          "midi": 74,
          "time": 143.15767999999824,
          "velocity": 0.7874015748031497,
          "duration": 0.06578937500000848
        },
        {
          "name": "D#5",
          "midi": 75,
          "time": 143.15767999999824,
          "velocity": 0.7874015748031497,
          "duration": 0.06578937500000848
        },
        {
          "name": "F#5",
          "midi": 78,
          "time": 143.15767999999824,
          "velocity": 0.7874015748031497,
          "duration": 0.06578937500000848
        },
        {
          "name": "D6",
          "midi": 86,
          "time": 143.15767999999824,
          "velocity": 0.7874015748031497,
          "duration": 0.06578937500000848
        },
        {
          "name": "E6",
          "midi": 88,
          "time": 143.15767999999824,
          "velocity": 0.7874015748031497,
          "duration": 0.06578937500000848
        },
        {
          "name": "F#6",
          "midi": 90,
          "time": 143.15767999999824,
          "velocity": 0.7874015748031497,
          "duration": 0.06578937500000848
        },
        {
          "name": "D7",
          "midi": 98,
          "time": 143.15767999999824,
          "velocity": 0.7874015748031497,
          "duration": 0.06578937500000848
        },
        {
          "name": "D#7",
          "midi": 99,
          "time": 143.15767999999824,
          "velocity": 0.7874015748031497,
          "duration": 0.06578937500000848
        },
        {
          "name": "E7",
          "midi": 100,
          "time": 143.15767999999824,
          "velocity": 0.7874015748031497,
          "duration": 0.06578937500000848
        },
        {
          "name": "F#7",
          "midi": 102,
          "time": 143.15767999999824,
          "velocity": 0.7874015748031497,
          "duration": 0.06578937500000848
        },
        {
          "name": "C#4",
          "midi": 61,
          "time": 143.48662687499825,
          "velocity": 0.7874015748031497,
          "duration": 0.06578937500000848
        },
        {
          "name": "F#4",
          "midi": 66,
          "time": 143.48662687499825,
          "velocity": 0.7874015748031497,
          "duration": 0.06578937500000848
        },
        {
          "name": "D5",
          "midi": 74,
          "time": 143.48662687499825,
          "velocity": 0.7874015748031497,
          "duration": 0.06578937500000848
        },
        {
          "name": "D#5",
          "midi": 75,
          "time": 143.48662687499825,
          "velocity": 0.7874015748031497,
          "duration": 0.06578937500000848
        },
        {
          "name": "F#5",
          "midi": 78,
          "time": 143.48662687499825,
          "velocity": 0.7874015748031497,
          "duration": 0.06578937500000848
        },
        {
          "name": "D6",
          "midi": 86,
          "time": 143.48662687499825,
          "velocity": 0.7874015748031497,
          "duration": 0.06578937500000848
        },
        {
          "name": "E6",
          "midi": 88,
          "time": 143.48662687499825,
          "velocity": 0.7874015748031497,
          "duration": 0.06578937500000848
        },
        {
          "name": "F#6",
          "midi": 90,
          "time": 143.48662687499825,
          "velocity": 0.7874015748031497,
          "duration": 0.06578937500000848
        },
        {
          "name": "D7",
          "midi": 98,
          "time": 143.48662687499825,
          "velocity": 0.7874015748031497,
          "duration": 0.06578937500000848
        },
        {
          "name": "D#7",
          "midi": 99,
          "time": 143.48662687499825,
          "velocity": 0.7874015748031497,
          "duration": 0.06578937500000848
        },
        {
          "name": "E7",
          "midi": 100,
          "time": 143.48662687499825,
          "velocity": 0.7874015748031497,
          "duration": 0.06578937500000848
        },
        {
          "name": "F#7",
          "midi": 102,
          "time": 143.48662687499825,
          "velocity": 0.7874015748031497,
          "duration": 0.06578937500000848
        },
        {
          "name": "C#4",
          "midi": 61,
          "time": 143.94715249999825,
          "velocity": 0.7874015748031497,
          "duration": 0.06469288541666174
        },
        {
          "name": "F#4",
          "midi": 66,
          "time": 143.94715249999825,
          "velocity": 0.7874015748031497,
          "duration": 0.06469288541666174
        },
        {
          "name": "D5",
          "midi": 74,
          "time": 143.94715249999825,
          "velocity": 0.7874015748031497,
          "duration": 0.06469288541666174
        },
        {
          "name": "D#5",
          "midi": 75,
          "time": 143.94715249999825,
          "velocity": 0.7874015748031497,
          "duration": 0.06469288541666174
        },
        {
          "name": "F#5",
          "midi": 78,
          "time": 143.94715249999825,
          "velocity": 0.7874015748031497,
          "duration": 0.06469288541666174
        },
        {
          "name": "D6",
          "midi": 86,
          "time": 143.94715249999825,
          "velocity": 0.7874015748031497,
          "duration": 0.06469288541666174
        },
        {
          "name": "E6",
          "midi": 88,
          "time": 143.94715249999825,
          "velocity": 0.7874015748031497,
          "duration": 0.06469288541666174
        },
        {
          "name": "F#6",
          "midi": 90,
          "time": 143.94715249999825,
          "velocity": 0.7874015748031497,
          "duration": 0.06469288541666174
        },
        {
          "name": "D7",
          "midi": 98,
          "time": 143.94715249999825,
          "velocity": 0.7874015748031497,
          "duration": 0.06469288541666174
        },
        {
          "name": "D#7",
          "midi": 99,
          "time": 143.94715249999825,
          "velocity": 0.7874015748031497,
          "duration": 0.06469288541666174
        },
        {
          "name": "E7",
          "midi": 100,
          "time": 143.94715249999825,
          "velocity": 0.7874015748031497,
          "duration": 0.06469288541666174
        },
        {
          "name": "F#7",
          "midi": 102,
          "time": 143.94715249999825,
          "velocity": 0.7874015748031497,
          "duration": 0.06469288541666174
        },
        {
          "name": "C#4",
          "midi": 61,
          "time": 144.47456398958158,
          "velocity": 0.7874015748031497,
          "duration": 0.06469288541666174
        },
        {
          "name": "F#4",
          "midi": 66,
          "time": 144.47456398958158,
          "velocity": 0.7874015748031497,
          "duration": 0.06469288541666174
        },
        {
          "name": "D5",
          "midi": 74,
          "time": 144.47456398958158,
          "velocity": 0.7874015748031497,
          "duration": 0.06469288541666174
        },
        {
          "name": "D#5",
          "midi": 75,
          "time": 144.47456398958158,
          "velocity": 0.7874015748031497,
          "duration": 0.06469288541666174
        },
        {
          "name": "F#5",
          "midi": 78,
          "time": 144.47456398958158,
          "velocity": 0.7874015748031497,
          "duration": 0.06469288541666174
        },
        {
          "name": "D6",
          "midi": 86,
          "time": 144.47456398958158,
          "velocity": 0.7874015748031497,
          "duration": 0.06469288541666174
        },
        {
          "name": "E6",
          "midi": 88,
          "time": 144.47456398958158,
          "velocity": 0.7874015748031497,
          "duration": 0.06469288541666174
        },
        {
          "name": "F#6",
          "midi": 90,
          "time": 144.47456398958158,
          "velocity": 0.7874015748031497,
          "duration": 0.06469288541666174
        },
        {
          "name": "D7",
          "midi": 98,
          "time": 144.47456398958158,
          "velocity": 0.7874015748031497,
          "duration": 0.06469288541666174
        },
        {
          "name": "D#7",
          "midi": 99,
          "time": 144.47456398958158,
          "velocity": 0.7874015748031497,
          "duration": 0.06469288541666174
        },
        {
          "name": "E7",
          "midi": 100,
          "time": 144.47456398958158,
          "velocity": 0.7874015748031497,
          "duration": 0.06469288541666174
        },
        {
          "name": "F#7",
          "midi": 102,
          "time": 144.47456398958158,
          "velocity": 0.7874015748031497,
          "duration": 0.06469288541666174
        },
        {
          "name": "C#4",
          "midi": 61,
          "time": 144.99978249999825,
          "velocity": 0.7874015748031497,
          "duration": 0.06469288541666174
        },
        {
          "name": "F#4",
          "midi": 66,
          "time": 144.99978249999825,
          "velocity": 0.7874015748031497,
          "duration": 0.06469288541666174
        },
        {
          "name": "D5",
          "midi": 74,
          "time": 144.99978249999825,
          "velocity": 0.7874015748031497,
          "duration": 0.06469288541666174
        },
        {
          "name": "D#5",
          "midi": 75,
          "time": 144.99978249999825,
          "velocity": 0.7874015748031497,
          "duration": 0.06469288541666174
        },
        {
          "name": "F#5",
          "midi": 78,
          "time": 144.99978249999825,
          "velocity": 0.7874015748031497,
          "duration": 0.06469288541666174
        },
        {
          "name": "D6",
          "midi": 86,
          "time": 144.99978249999825,
          "velocity": 0.7874015748031497,
          "duration": 0.06469288541666174
        },
        {
          "name": "E6",
          "midi": 88,
          "time": 144.99978249999825,
          "velocity": 0.7874015748031497,
          "duration": 0.06469288541666174
        },
        {
          "name": "F#6",
          "midi": 90,
          "time": 144.99978249999825,
          "velocity": 0.7874015748031497,
          "duration": 0.06469288541666174
        },
        {
          "name": "D7",
          "midi": 98,
          "time": 144.99978249999825,
          "velocity": 0.7874015748031497,
          "duration": 0.06469288541666174
        },
        {
          "name": "D#7",
          "midi": 99,
          "time": 144.99978249999825,
          "velocity": 0.7874015748031497,
          "duration": 0.06469288541666174
        },
        {
          "name": "E7",
          "midi": 100,
          "time": 144.99978249999825,
          "velocity": 0.7874015748031497,
          "duration": 0.06469288541666174
        },
        {
          "name": "F#7",
          "midi": 102,
          "time": 144.99978249999825,
          "velocity": 0.7874015748031497,
          "duration": 0.06469288541666174
        },
        {
          "name": "C#4",
          "midi": 61,
          "time": 145.26293999999825,
          "velocity": 0.7874015748031497,
          "duration": 0.06469288541666174
        },
        {
          "name": "F#4",
          "midi": 66,
          "time": 145.26293999999825,
          "velocity": 0.7874015748031497,
          "duration": 0.06469288541666174
        },
        {
          "name": "D5",
          "midi": 74,
          "time": 145.26293999999825,
          "velocity": 0.7874015748031497,
          "duration": 0.06469288541666174
        },
        {
          "name": "D#5",
          "midi": 75,
          "time": 145.26293999999825,
          "velocity": 0.7874015748031497,
          "duration": 0.06469288541666174
        },
        {
          "name": "F#5",
          "midi": 78,
          "time": 145.26293999999825,
          "velocity": 0.7874015748031497,
          "duration": 0.06469288541666174
        },
        {
          "name": "D6",
          "midi": 86,
          "time": 145.26293999999825,
          "velocity": 0.7874015748031497,
          "duration": 0.06469288541666174
        },
        {
          "name": "E6",
          "midi": 88,
          "time": 145.26293999999825,
          "velocity": 0.7874015748031497,
          "duration": 0.06469288541666174
        },
        {
          "name": "F#6",
          "midi": 90,
          "time": 145.26293999999825,
          "velocity": 0.7874015748031497,
          "duration": 0.06469288541666174
        },
        {
          "name": "D7",
          "midi": 98,
          "time": 145.26293999999825,
          "velocity": 0.7874015748031497,
          "duration": 0.06469288541666174
        },
        {
          "name": "D#7",
          "midi": 99,
          "time": 145.26293999999825,
          "velocity": 0.7874015748031497,
          "duration": 0.06469288541666174
        },
        {
          "name": "E7",
          "midi": 100,
          "time": 145.26293999999825,
          "velocity": 0.7874015748031497,
          "duration": 0.06469288541666174
        },
        {
          "name": "F#7",
          "midi": 102,
          "time": 145.26293999999825,
          "velocity": 0.7874015748031497,
          "duration": 0.06469288541666174
        },
        {
          "name": "C4",
          "midi": 60,
          "time": 147.36819999999824,
          "velocity": 0.7874015748031497,
          "duration": 0.06578937500000848
        },
        {
          "name": "F#4",
          "midi": 66,
          "time": 147.36819999999824,
          "velocity": 0.7874015748031497,
          "duration": 0.06578937500000848
        },
        {
          "name": "C#5",
          "midi": 73,
          "time": 147.36819999999824,
          "velocity": 0.7874015748031497,
          "duration": 0.06578937500000848
        },
        {
          "name": "D5",
          "midi": 74,
          "time": 147.36819999999824,
          "velocity": 0.7874015748031497,
          "duration": 0.06578937500000848
        },
        {
          "name": "F#5",
          "midi": 78,
          "time": 147.36819999999824,
          "velocity": 0.7874015748031497,
          "duration": 0.06578937500000848
        },
        {
          "name": "C#6",
          "midi": 85,
          "time": 147.36819999999824,
          "velocity": 0.7874015748031497,
          "duration": 0.06578937500000848
        },
        {
          "name": "D#6",
          "midi": 87,
          "time": 147.36819999999824,
          "velocity": 0.7874015748031497,
          "duration": 0.06578937500000848
        },
        {
          "name": "F#6",
          "midi": 90,
          "time": 147.36819999999824,
          "velocity": 0.7874015748031497,
          "duration": 0.06578937500000848
        },
        {
          "name": "C#7",
          "midi": 97,
          "time": 147.36819999999824,
          "velocity": 0.7874015748031497,
          "duration": 0.06578937500000848
        },
        {
          "name": "D7",
          "midi": 98,
          "time": 147.36819999999824,
          "velocity": 0.7874015748031497,
          "duration": 0.06578937500000848
        },
        {
          "name": "D#7",
          "midi": 99,
          "time": 147.36819999999824,
          "velocity": 0.7874015748031497,
          "duration": 0.06578937500000848
        },
        {
          "name": "F#7",
          "midi": 102,
          "time": 147.36819999999824,
          "velocity": 0.7874015748031497,
          "duration": 0.06578937500000848
        },
        {
          "name": "C4",
          "midi": 60,
          "time": 147.69714687499825,
          "velocity": 0.7874015748031497,
          "duration": 0.06578937500000848
        },
        {
          "name": "F#4",
          "midi": 66,
          "time": 147.69714687499825,
          "velocity": 0.7874015748031497,
          "duration": 0.06578937500000848
        },
        {
          "name": "C#5",
          "midi": 73,
          "time": 147.69714687499825,
          "velocity": 0.7874015748031497,
          "duration": 0.06578937500000848
        },
        {
          "name": "D5",
          "midi": 74,
          "time": 147.69714687499825,
          "velocity": 0.7874015748031497,
          "duration": 0.06578937500000848
        },
        {
          "name": "F#5",
          "midi": 78,
          "time": 147.69714687499825,
          "velocity": 0.7874015748031497,
          "duration": 0.06578937500000848
        },
        {
          "name": "C#6",
          "midi": 85,
          "time": 147.69714687499825,
          "velocity": 0.7874015748031497,
          "duration": 0.06578937500000848
        },
        {
          "name": "D#6",
          "midi": 87,
          "time": 147.69714687499825,
          "velocity": 0.7874015748031497,
          "duration": 0.06578937500000848
        },
        {
          "name": "F#6",
          "midi": 90,
          "time": 147.69714687499825,
          "velocity": 0.7874015748031497,
          "duration": 0.06578937500000848
        },
        {
          "name": "C#7",
          "midi": 97,
          "time": 147.69714687499825,
          "velocity": 0.7874015748031497,
          "duration": 0.06578937500000848
        },
        {
          "name": "D7",
          "midi": 98,
          "time": 147.69714687499825,
          "velocity": 0.7874015748031497,
          "duration": 0.06578937500000848
        },
        {
          "name": "D#7",
          "midi": 99,
          "time": 147.69714687499825,
          "velocity": 0.7874015748031497,
          "duration": 0.06578937500000848
        },
        {
          "name": "F#7",
          "midi": 102,
          "time": 147.69714687499825,
          "velocity": 0.7874015748031497,
          "duration": 0.06578937500000848
        },
        {
          "name": "C4",
          "midi": 60,
          "time": 148.15767249999826,
          "velocity": 0.7874015748031497,
          "duration": 0.06578937500000848
        },
        {
          "name": "F#4",
          "midi": 66,
          "time": 148.15767249999826,
          "velocity": 0.7874015748031497,
          "duration": 0.06578937500000848
        },
        {
          "name": "C#5",
          "midi": 73,
          "time": 148.15767249999826,
          "velocity": 0.7874015748031497,
          "duration": 0.06578937500000848
        },
        {
          "name": "D5",
          "midi": 74,
          "time": 148.15767249999826,
          "velocity": 0.7874015748031497,
          "duration": 0.06578937500000848
        },
        {
          "name": "F#5",
          "midi": 78,
          "time": 148.15767249999826,
          "velocity": 0.7874015748031497,
          "duration": 0.06578937500000848
        },
        {
          "name": "C#6",
          "midi": 85,
          "time": 148.15767249999826,
          "velocity": 0.7874015748031497,
          "duration": 0.06578937500000848
        },
        {
          "name": "D#6",
          "midi": 87,
          "time": 148.15767249999826,
          "velocity": 0.7874015748031497,
          "duration": 0.06578937500000848
        },
        {
          "name": "F#6",
          "midi": 90,
          "time": 148.15767249999826,
          "velocity": 0.7874015748031497,
          "duration": 0.06578937500000848
        },
        {
          "name": "C#7",
          "midi": 97,
          "time": 148.15767249999826,
          "velocity": 0.7874015748031497,
          "duration": 0.06578937500000848
        },
        {
          "name": "D7",
          "midi": 98,
          "time": 148.15767249999826,
          "velocity": 0.7874015748031497,
          "duration": 0.06578937500000848
        },
        {
          "name": "D#7",
          "midi": 99,
          "time": 148.15767249999826,
          "velocity": 0.7874015748031497,
          "duration": 0.06578937500000848
        },
        {
          "name": "F#7",
          "midi": 102,
          "time": 148.15767249999826,
          "velocity": 0.7874015748031497,
          "duration": 0.06578937500000848
        },
        {
          "name": "C4",
          "midi": 60,
          "time": 148.68508398958159,
          "velocity": 0.7874015748031497,
          "duration": 0.06469288541666174
        },
        {
          "name": "F#4",
          "midi": 66,
          "time": 148.68508398958159,
          "velocity": 0.7874015748031497,
          "duration": 0.06469288541666174
        },
        {
          "name": "C#5",
          "midi": 73,
          "time": 148.68508398958159,
          "velocity": 0.7874015748031497,
          "duration": 0.06469288541666174
        },
        {
          "name": "D5",
          "midi": 74,
          "time": 148.68508398958159,
          "velocity": 0.7874015748031497,
          "duration": 0.06469288541666174
        },
        {
          "name": "F#5",
          "midi": 78,
          "time": 148.68508398958159,
          "velocity": 0.7874015748031497,
          "duration": 0.06469288541666174
        },
        {
          "name": "C#6",
          "midi": 85,
          "time": 148.68508398958159,
          "velocity": 0.7874015748031497,
          "duration": 0.06469288541666174
        },
        {
          "name": "D#6",
          "midi": 87,
          "time": 148.68508398958159,
          "velocity": 0.7874015748031497,
          "duration": 0.06469288541666174
        },
        {
          "name": "F#6",
          "midi": 90,
          "time": 148.68508398958159,
          "velocity": 0.7874015748031497,
          "duration": 0.06469288541666174
        },
        {
          "name": "C#7",
          "midi": 97,
          "time": 148.68508398958159,
          "velocity": 0.7874015748031497,
          "duration": 0.06469288541666174
        },
        {
          "name": "D7",
          "midi": 98,
          "time": 148.68508398958159,
          "velocity": 0.7874015748031497,
          "duration": 0.06469288541666174
        },
        {
          "name": "D#7",
          "midi": 99,
          "time": 148.68508398958159,
          "velocity": 0.7874015748031497,
          "duration": 0.06469288541666174
        },
        {
          "name": "F#7",
          "midi": 102,
          "time": 148.68508398958159,
          "velocity": 0.7874015748031497,
          "duration": 0.06469288541666174
        },
        {
          "name": "C4",
          "midi": 60,
          "time": 149.21030249999825,
          "velocity": 0.7874015748031497,
          "duration": 0.06469288541666174
        },
        {
          "name": "F#4",
          "midi": 66,
          "time": 149.21030249999825,
          "velocity": 0.7874015748031497,
          "duration": 0.06469288541666174
        },
        {
          "name": "C#5",
          "midi": 73,
          "time": 149.21030249999825,
          "velocity": 0.7874015748031497,
          "duration": 0.06469288541666174
        },
        {
          "name": "D5",
          "midi": 74,
          "time": 149.21030249999825,
          "velocity": 0.7874015748031497,
          "duration": 0.06469288541666174
        },
        {
          "name": "F#5",
          "midi": 78,
          "time": 149.21030249999825,
          "velocity": 0.7874015748031497,
          "duration": 0.06469288541666174
        },
        {
          "name": "C#6",
          "midi": 85,
          "time": 149.21030249999825,
          "velocity": 0.7874015748031497,
          "duration": 0.06469288541666174
        },
        {
          "name": "D#6",
          "midi": 87,
          "time": 149.21030249999825,
          "velocity": 0.7874015748031497,
          "duration": 0.06469288541666174
        },
        {
          "name": "F#6",
          "midi": 90,
          "time": 149.21030249999825,
          "velocity": 0.7874015748031497,
          "duration": 0.06469288541666174
        },
        {
          "name": "C#7",
          "midi": 97,
          "time": 149.21030249999825,
          "velocity": 0.7874015748031497,
          "duration": 0.06469288541666174
        },
        {
          "name": "D7",
          "midi": 98,
          "time": 149.21030249999825,
          "velocity": 0.7874015748031497,
          "duration": 0.06469288541666174
        },
        {
          "name": "D#7",
          "midi": 99,
          "time": 149.21030249999825,
          "velocity": 0.7874015748031497,
          "duration": 0.06469288541666174
        },
        {
          "name": "F#7",
          "midi": 102,
          "time": 149.21030249999825,
          "velocity": 0.7874015748031497,
          "duration": 0.06469288541666174
        },
        {
          "name": "C4",
          "midi": 60,
          "time": 149.47345999999825,
          "velocity": 0.7874015748031497,
          "duration": 0.06578937500000848
        },
        {
          "name": "F#4",
          "midi": 66,
          "time": 149.47345999999825,
          "velocity": 0.7874015748031497,
          "duration": 0.06578937500000848
        },
        {
          "name": "C#5",
          "midi": 73,
          "time": 149.47345999999825,
          "velocity": 0.7874015748031497,
          "duration": 0.06578937500000848
        },
        {
          "name": "D5",
          "midi": 74,
          "time": 149.47345999999825,
          "velocity": 0.7874015748031497,
          "duration": 0.06578937500000848
        },
        {
          "name": "F#5",
          "midi": 78,
          "time": 149.47345999999825,
          "velocity": 0.7874015748031497,
          "duration": 0.06578937500000848
        },
        {
          "name": "C#6",
          "midi": 85,
          "time": 149.47345999999825,
          "velocity": 0.7874015748031497,
          "duration": 0.06578937500000848
        },
        {
          "name": "D#6",
          "midi": 87,
          "time": 149.47345999999825,
          "velocity": 0.7874015748031497,
          "duration": 0.06578937500000848
        },
        {
          "name": "F#6",
          "midi": 90,
          "time": 149.47345999999825,
          "velocity": 0.7874015748031497,
          "duration": 0.06578937500000848
        },
        {
          "name": "C#7",
          "midi": 97,
          "time": 149.47345999999825,
          "velocity": 0.7874015748031497,
          "duration": 0.06578937500000848
        },
        {
          "name": "D7",
          "midi": 98,
          "time": 149.47345999999825,
          "velocity": 0.7874015748031497,
          "duration": 0.06578937500000848
        },
        {
          "name": "D#7",
          "midi": 99,
          "time": 149.47345999999825,
          "velocity": 0.7874015748031497,
          "duration": 0.06578937500000848
        },
        {
          "name": "F#7",
          "midi": 102,
          "time": 149.47345999999825,
          "velocity": 0.7874015748031497,
          "duration": 0.06578937500000848
        },
        {
          "name": "C4",
          "midi": 60,
          "time": 149.80240687499827,
          "velocity": 0.7874015748031497,
          "duration": 0.06578937500000848
        },
        {
          "name": "F#4",
          "midi": 66,
          "time": 149.80240687499827,
          "velocity": 0.7874015748031497,
          "duration": 0.06578937500000848
        },
        {
          "name": "C#5",
          "midi": 73,
          "time": 149.80240687499827,
          "velocity": 0.7874015748031497,
          "duration": 0.06578937500000848
        },
        {
          "name": "D5",
          "midi": 74,
          "time": 149.80240687499827,
          "velocity": 0.7874015748031497,
          "duration": 0.06578937500000848
        },
        {
          "name": "F#5",
          "midi": 78,
          "time": 149.80240687499827,
          "velocity": 0.7874015748031497,
          "duration": 0.06578937500000848
        },
        {
          "name": "C#6",
          "midi": 85,
          "time": 149.80240687499827,
          "velocity": 0.7874015748031497,
          "duration": 0.06578937500000848
        },
        {
          "name": "D#6",
          "midi": 87,
          "time": 149.80240687499827,
          "velocity": 0.7874015748031497,
          "duration": 0.06578937500000848
        },
        {
          "name": "F#6",
          "midi": 90,
          "time": 149.80240687499827,
          "velocity": 0.7874015748031497,
          "duration": 0.06578937500000848
        },
        {
          "name": "C#7",
          "midi": 97,
          "time": 149.80240687499827,
          "velocity": 0.7874015748031497,
          "duration": 0.06578937500000848
        },
        {
          "name": "D7",
          "midi": 98,
          "time": 149.80240687499827,
          "velocity": 0.7874015748031497,
          "duration": 0.06578937500000848
        },
        {
          "name": "D#7",
          "midi": 99,
          "time": 149.80240687499827,
          "velocity": 0.7874015748031497,
          "duration": 0.06578937500000848
        },
        {
          "name": "F#7",
          "midi": 102,
          "time": 149.80240687499827,
          "velocity": 0.7874015748031497,
          "duration": 0.06578937500000848
        },
        {
          "name": "C4",
          "midi": 60,
          "time": 150.26402898958162,
          "velocity": 0.7874015748031497,
          "duration": 0.06469288541666174
        },
        {
          "name": "F#4",
          "midi": 66,
          "time": 150.26402898958162,
          "velocity": 0.7874015748031497,
          "duration": 0.06469288541666174
        },
        {
          "name": "C#5",
          "midi": 73,
          "time": 150.26402898958162,
          "velocity": 0.7874015748031497,
          "duration": 0.06469288541666174
        },
        {
          "name": "D5",
          "midi": 74,
          "time": 150.26402898958162,
          "velocity": 0.7874015748031497,
          "duration": 0.06469288541666174
        },
        {
          "name": "F#5",
          "midi": 78,
          "time": 150.26402898958162,
          "velocity": 0.7874015748031497,
          "duration": 0.06469288541666174
        },
        {
          "name": "C#6",
          "midi": 85,
          "time": 150.26402898958162,
          "velocity": 0.7874015748031497,
          "duration": 0.06469288541666174
        },
        {
          "name": "D#6",
          "midi": 87,
          "time": 150.26402898958162,
          "velocity": 0.7874015748031497,
          "duration": 0.06469288541666174
        },
        {
          "name": "F#6",
          "midi": 90,
          "time": 150.26402898958162,
          "velocity": 0.7874015748031497,
          "duration": 0.06469288541666174
        },
        {
          "name": "C#7",
          "midi": 97,
          "time": 150.26402898958162,
          "velocity": 0.7874015748031497,
          "duration": 0.06469288541666174
        },
        {
          "name": "D7",
          "midi": 98,
          "time": 150.26402898958162,
          "velocity": 0.7874015748031497,
          "duration": 0.06469288541666174
        },
        {
          "name": "D#7",
          "midi": 99,
          "time": 150.26402898958162,
          "velocity": 0.7874015748031497,
          "duration": 0.06469288541666174
        },
        {
          "name": "F#7",
          "midi": 102,
          "time": 150.26402898958162,
          "velocity": 0.7874015748031497,
          "duration": 0.06469288541666174
        },
        {
          "name": "C4",
          "midi": 60,
          "time": 150.7903439895816,
          "velocity": 0.7874015748031497,
          "duration": 0.06469288541666174
        },
        {
          "name": "F#4",
          "midi": 66,
          "time": 150.7903439895816,
          "velocity": 0.7874015748031497,
          "duration": 0.06469288541666174
        },
        {
          "name": "C#5",
          "midi": 73,
          "time": 150.7903439895816,
          "velocity": 0.7874015748031497,
          "duration": 0.06469288541666174
        },
        {
          "name": "D5",
          "midi": 74,
          "time": 150.7903439895816,
          "velocity": 0.7874015748031497,
          "duration": 0.06469288541666174
        },
        {
          "name": "F#5",
          "midi": 78,
          "time": 150.7903439895816,
          "velocity": 0.7874015748031497,
          "duration": 0.06469288541666174
        },
        {
          "name": "C#6",
          "midi": 85,
          "time": 150.7903439895816,
          "velocity": 0.7874015748031497,
          "duration": 0.06469288541666174
        },
        {
          "name": "D#6",
          "midi": 87,
          "time": 150.7903439895816,
          "velocity": 0.7874015748031497,
          "duration": 0.06469288541666174
        },
        {
          "name": "F#6",
          "midi": 90,
          "time": 150.7903439895816,
          "velocity": 0.7874015748031497,
          "duration": 0.06469288541666174
        },
        {
          "name": "C#7",
          "midi": 97,
          "time": 150.7903439895816,
          "velocity": 0.7874015748031497,
          "duration": 0.06469288541666174
        },
        {
          "name": "D7",
          "midi": 98,
          "time": 150.7903439895816,
          "velocity": 0.7874015748031497,
          "duration": 0.06469288541666174
        },
        {
          "name": "D#7",
          "midi": 99,
          "time": 150.7903439895816,
          "velocity": 0.7874015748031497,
          "duration": 0.06469288541666174
        },
        {
          "name": "F#7",
          "midi": 102,
          "time": 150.7903439895816,
          "velocity": 0.7874015748031497,
          "duration": 0.06469288541666174
        },
        {
          "name": "C4",
          "midi": 60,
          "time": 151.31665898958158,
          "velocity": 0.7874015748031497,
          "duration": 0.06469288541666174
        },
        {
          "name": "F#4",
          "midi": 66,
          "time": 151.31665898958158,
          "velocity": 0.7874015748031497,
          "duration": 0.06469288541666174
        },
        {
          "name": "C#5",
          "midi": 73,
          "time": 151.31665898958158,
          "velocity": 0.7874015748031497,
          "duration": 0.06469288541666174
        },
        {
          "name": "D5",
          "midi": 74,
          "time": 151.31665898958158,
          "velocity": 0.7874015748031497,
          "duration": 0.06469288541666174
        },
        {
          "name": "F#5",
          "midi": 78,
          "time": 151.31665898958158,
          "velocity": 0.7874015748031497,
          "duration": 0.06469288541666174
        },
        {
          "name": "C#6",
          "midi": 85,
          "time": 151.31665898958158,
          "velocity": 0.7874015748031497,
          "duration": 0.06469288541666174
        },
        {
          "name": "D#6",
          "midi": 87,
          "time": 151.31665898958158,
          "velocity": 0.7874015748031497,
          "duration": 0.06469288541666174
        },
        {
          "name": "F#6",
          "midi": 90,
          "time": 151.31665898958158,
          "velocity": 0.7874015748031497,
          "duration": 0.06469288541666174
        },
        {
          "name": "C#7",
          "midi": 97,
          "time": 151.31665898958158,
          "velocity": 0.7874015748031497,
          "duration": 0.06469288541666174
        },
        {
          "name": "D7",
          "midi": 98,
          "time": 151.31665898958158,
          "velocity": 0.7874015748031497,
          "duration": 0.06469288541666174
        },
        {
          "name": "D#7",
          "midi": 99,
          "time": 151.31665898958158,
          "velocity": 0.7874015748031497,
          "duration": 0.06469288541666174
        },
        {
          "name": "F#7",
          "midi": 102,
          "time": 151.31665898958158,
          "velocity": 0.7874015748031497,
          "duration": 0.06469288541666174
        },
        {
          "name": "C#4",
          "midi": 61,
          "time": 151.57871999999824,
          "velocity": 0.7874015748031497,
          "duration": 0.06469288541666174
        },
        {
          "name": "F#4",
          "midi": 66,
          "time": 151.57871999999824,
          "velocity": 0.7874015748031497,
          "duration": 0.06469288541666174
        },
        {
          "name": "D5",
          "midi": 74,
          "time": 151.57871999999824,
          "velocity": 0.7874015748031497,
          "duration": 0.06469288541666174
        },
        {
          "name": "D#5",
          "midi": 75,
          "time": 151.57871999999824,
          "velocity": 0.7874015748031497,
          "duration": 0.06469288541666174
        },
        {
          "name": "F#5",
          "midi": 78,
          "time": 151.57871999999824,
          "velocity": 0.7874015748031497,
          "duration": 0.06469288541666174
        },
        {
          "name": "D6",
          "midi": 86,
          "time": 151.57871999999824,
          "velocity": 0.7874015748031497,
          "duration": 0.06469288541666174
        },
        {
          "name": "E6",
          "midi": 88,
          "time": 151.57871999999824,
          "velocity": 0.7874015748031497,
          "duration": 0.06469288541666174
        },
        {
          "name": "F#6",
          "midi": 90,
          "time": 151.57871999999824,
          "velocity": 0.7874015748031497,
          "duration": 0.06469288541666174
        },
        {
          "name": "D7",
          "midi": 98,
          "time": 151.57871999999824,
          "velocity": 0.7874015748031497,
          "duration": 0.06469288541666174
        },
        {
          "name": "D#7",
          "midi": 99,
          "time": 151.57871999999824,
          "velocity": 0.7874015748031497,
          "duration": 0.06469288541666174
        },
        {
          "name": "E7",
          "midi": 100,
          "time": 151.57871999999824,
          "velocity": 0.7874015748031497,
          "duration": 0.06469288541666174
        },
        {
          "name": "F#7",
          "midi": 102,
          "time": 151.57871999999824,
          "velocity": 0.7874015748031497,
          "duration": 0.06469288541666174
        },
        {
          "name": "C#4",
          "midi": 61,
          "time": 151.90766687499823,
          "velocity": 0.7874015748031497,
          "duration": 0.06469288541666174
        },
        {
          "name": "F#4",
          "midi": 66,
          "time": 151.90766687499823,
          "velocity": 0.7874015748031497,
          "duration": 0.06469288541666174
        },
        {
          "name": "D5",
          "midi": 74,
          "time": 151.90766687499823,
          "velocity": 0.7874015748031497,
          "duration": 0.06469288541666174
        },
        {
          "name": "D#5",
          "midi": 75,
          "time": 151.90766687499823,
          "velocity": 0.7874015748031497,
          "duration": 0.06469288541666174
        },
        {
          "name": "F#5",
          "midi": 78,
          "time": 151.90766687499823,
          "velocity": 0.7874015748031497,
          "duration": 0.06469288541666174
        },
        {
          "name": "D6",
          "midi": 86,
          "time": 151.90766687499823,
          "velocity": 0.7874015748031497,
          "duration": 0.06469288541666174
        },
        {
          "name": "E6",
          "midi": 88,
          "time": 151.90766687499823,
          "velocity": 0.7874015748031497,
          "duration": 0.06469288541666174
        },
        {
          "name": "F#6",
          "midi": 90,
          "time": 151.90766687499823,
          "velocity": 0.7874015748031497,
          "duration": 0.06469288541666174
        },
        {
          "name": "D7",
          "midi": 98,
          "time": 151.90766687499823,
          "velocity": 0.7874015748031497,
          "duration": 0.06469288541666174
        },
        {
          "name": "D#7",
          "midi": 99,
          "time": 151.90766687499823,
          "velocity": 0.7874015748031497,
          "duration": 0.06469288541666174
        },
        {
          "name": "E7",
          "midi": 100,
          "time": 151.90766687499823,
          "velocity": 0.7874015748031497,
          "duration": 0.06469288541666174
        },
        {
          "name": "F#7",
          "midi": 102,
          "time": 151.90766687499823,
          "velocity": 0.7874015748031497,
          "duration": 0.06469288541666174
        },
        {
          "name": "C#4",
          "midi": 61,
          "time": 152.36928898958155,
          "velocity": 0.7874015748031497,
          "duration": 0.06469288541666174
        },
        {
          "name": "F#4",
          "midi": 66,
          "time": 152.36928898958155,
          "velocity": 0.7874015748031497,
          "duration": 0.06469288541666174
        },
        {
          "name": "D5",
          "midi": 74,
          "time": 152.36928898958155,
          "velocity": 0.7874015748031497,
          "duration": 0.06469288541666174
        },
        {
          "name": "D#5",
          "midi": 75,
          "time": 152.36928898958155,
          "velocity": 0.7874015748031497,
          "duration": 0.06469288541666174
        },
        {
          "name": "F#5",
          "midi": 78,
          "time": 152.36928898958155,
          "velocity": 0.7874015748031497,
          "duration": 0.06469288541666174
        },
        {
          "name": "D6",
          "midi": 86,
          "time": 152.36928898958155,
          "velocity": 0.7874015748031497,
          "duration": 0.06469288541666174
        },
        {
          "name": "E6",
          "midi": 88,
          "time": 152.36928898958155,
          "velocity": 0.7874015748031497,
          "duration": 0.06469288541666174
        },
        {
          "name": "F#6",
          "midi": 90,
          "time": 152.36928898958155,
          "velocity": 0.7874015748031497,
          "duration": 0.06469288541666174
        },
        {
          "name": "D7",
          "midi": 98,
          "time": 152.36928898958155,
          "velocity": 0.7874015748031497,
          "duration": 0.06469288541666174
        },
        {
          "name": "D#7",
          "midi": 99,
          "time": 152.36928898958155,
          "velocity": 0.7874015748031497,
          "duration": 0.06469288541666174
        },
        {
          "name": "E7",
          "midi": 100,
          "time": 152.36928898958155,
          "velocity": 0.7874015748031497,
          "duration": 0.06469288541666174
        },
        {
          "name": "F#7",
          "midi": 102,
          "time": 152.36928898958155,
          "velocity": 0.7874015748031497,
          "duration": 0.06469288541666174
        },
        {
          "name": "C#4",
          "midi": 61,
          "time": 152.89560398958153,
          "velocity": 0.7874015748031497,
          "duration": 0.06469288541666174
        },
        {
          "name": "F#4",
          "midi": 66,
          "time": 152.89560398958153,
          "velocity": 0.7874015748031497,
          "duration": 0.06469288541666174
        },
        {
          "name": "D5",
          "midi": 74,
          "time": 152.89560398958153,
          "velocity": 0.7874015748031497,
          "duration": 0.06469288541666174
        },
        {
          "name": "D#5",
          "midi": 75,
          "time": 152.89560398958153,
          "velocity": 0.7874015748031497,
          "duration": 0.06469288541666174
        },
        {
          "name": "F#5",
          "midi": 78,
          "time": 152.89560398958153,
          "velocity": 0.7874015748031497,
          "duration": 0.06469288541666174
        },
        {
          "name": "D6",
          "midi": 86,
          "time": 152.89560398958153,
          "velocity": 0.7874015748031497,
          "duration": 0.06469288541666174
        },
        {
          "name": "E6",
          "midi": 88,
          "time": 152.89560398958153,
          "velocity": 0.7874015748031497,
          "duration": 0.06469288541666174
        },
        {
          "name": "F#6",
          "midi": 90,
          "time": 152.89560398958153,
          "velocity": 0.7874015748031497,
          "duration": 0.06469288541666174
        },
        {
          "name": "D7",
          "midi": 98,
          "time": 152.89560398958153,
          "velocity": 0.7874015748031497,
          "duration": 0.06469288541666174
        },
        {
          "name": "D#7",
          "midi": 99,
          "time": 152.89560398958153,
          "velocity": 0.7874015748031497,
          "duration": 0.06469288541666174
        },
        {
          "name": "E7",
          "midi": 100,
          "time": 152.89560398958153,
          "velocity": 0.7874015748031497,
          "duration": 0.06469288541666174
        },
        {
          "name": "F#7",
          "midi": 102,
          "time": 152.89560398958153,
          "velocity": 0.7874015748031497,
          "duration": 0.06469288541666174
        },
        {
          "name": "C#4",
          "midi": 61,
          "time": 153.4208224999982,
          "velocity": 0.7874015748031497,
          "duration": 0.06578937500000848
        },
        {
          "name": "F#4",
          "midi": 66,
          "time": 153.4208224999982,
          "velocity": 0.7874015748031497,
          "duration": 0.06578937500000848
        },
        {
          "name": "D5",
          "midi": 74,
          "time": 153.4208224999982,
          "velocity": 0.7874015748031497,
          "duration": 0.06578937500000848
        },
        {
          "name": "D#5",
          "midi": 75,
          "time": 153.4208224999982,
          "velocity": 0.7874015748031497,
          "duration": 0.06578937500000848
        },
        {
          "name": "F#5",
          "midi": 78,
          "time": 153.4208224999982,
          "velocity": 0.7874015748031497,
          "duration": 0.06578937500000848
        },
        {
          "name": "D6",
          "midi": 86,
          "time": 153.4208224999982,
          "velocity": 0.7874015748031497,
          "duration": 0.06578937500000848
        },
        {
          "name": "E6",
          "midi": 88,
          "time": 153.4208224999982,
          "velocity": 0.7874015748031497,
          "duration": 0.06578937500000848
        },
        {
          "name": "F#6",
          "midi": 90,
          "time": 153.4208224999982,
          "velocity": 0.7874015748031497,
          "duration": 0.06578937500000848
        },
        {
          "name": "D7",
          "midi": 98,
          "time": 153.4208224999982,
          "velocity": 0.7874015748031497,
          "duration": 0.06578937500000848
        },
        {
          "name": "D#7",
          "midi": 99,
          "time": 153.4208224999982,
          "velocity": 0.7874015748031497,
          "duration": 0.06578937500000848
        },
        {
          "name": "E7",
          "midi": 100,
          "time": 153.4208224999982,
          "velocity": 0.7874015748031497,
          "duration": 0.06578937500000848
        },
        {
          "name": "F#7",
          "midi": 102,
          "time": 153.4208224999982,
          "velocity": 0.7874015748031497,
          "duration": 0.06578937500000848
        },
        {
          "name": "D7",
          "midi": 98,
          "time": 153.5524012499982,
          "velocity": 0.7874015748031497,
          "duration": 0.06578937500000848
        },
        {
          "name": "D#7",
          "midi": 99,
          "time": 153.5524012499982,
          "velocity": 0.7874015748031497,
          "duration": 0.06578937500000848
        },
        {
          "name": "E7",
          "midi": 100,
          "time": 153.5524012499982,
          "velocity": 0.7874015748031497,
          "duration": 0.06578937500000848
        },
        {
          "name": "F#7",
          "midi": 102,
          "time": 153.5524012499982,
          "velocity": 0.7874015748031497,
          "duration": 0.06578937500000848
        },
        {
          "name": "C#4",
          "midi": 61,
          "time": 153.68397999999823,
          "velocity": 0.7874015748031497,
          "duration": 0.06578937500000848
        },
        {
          "name": "F#4",
          "midi": 66,
          "time": 153.68397999999823,
          "velocity": 0.7874015748031497,
          "duration": 0.06578937500000848
        },
        {
          "name": "D5",
          "midi": 74,
          "time": 153.68397999999823,
          "velocity": 0.7874015748031497,
          "duration": 0.06578937500000848
        },
        {
          "name": "D#5",
          "midi": 75,
          "time": 153.68397999999823,
          "velocity": 0.7874015748031497,
          "duration": 0.06578937500000848
        },
        {
          "name": "F#5",
          "midi": 78,
          "time": 153.68397999999823,
          "velocity": 0.7874015748031497,
          "duration": 0.06578937500000848
        },
        {
          "name": "D6",
          "midi": 86,
          "time": 153.68397999999823,
          "velocity": 0.7874015748031497,
          "duration": 0.06578937500000848
        },
        {
          "name": "E6",
          "midi": 88,
          "time": 153.68397999999823,
          "velocity": 0.7874015748031497,
          "duration": 0.06578937500000848
        },
        {
          "name": "F#6",
          "midi": 90,
          "time": 153.68397999999823,
          "velocity": 0.7874015748031497,
          "duration": 0.06578937500000848
        },
        {
          "name": "D7",
          "midi": 98,
          "time": 153.68397999999823,
          "velocity": 0.7874015748031497,
          "duration": 0.06578937500000848
        },
        {
          "name": "D#7",
          "midi": 99,
          "time": 153.68397999999823,
          "velocity": 0.7874015748031497,
          "duration": 0.06578937500000848
        },
        {
          "name": "E7",
          "midi": 100,
          "time": 153.68397999999823,
          "velocity": 0.7874015748031497,
          "duration": 0.06578937500000848
        },
        {
          "name": "F#7",
          "midi": 102,
          "time": 153.68397999999823,
          "velocity": 0.7874015748031497,
          "duration": 0.06578937500000848
        },
        {
          "name": "C4",
          "midi": 60,
          "time": 155.78923999999824,
          "velocity": 0.7874015748031497,
          "duration": 0.06578937500000848
        },
        {
          "name": "F#4",
          "midi": 66,
          "time": 155.78923999999824,
          "velocity": 0.7874015748031497,
          "duration": 0.06578937500000848
        },
        {
          "name": "C#5",
          "midi": 73,
          "time": 155.78923999999824,
          "velocity": 0.7874015748031497,
          "duration": 0.06578937500000848
        },
        {
          "name": "D5",
          "midi": 74,
          "time": 155.78923999999824,
          "velocity": 0.7874015748031497,
          "duration": 0.06578937500000848
        },
        {
          "name": "F#5",
          "midi": 78,
          "time": 155.78923999999824,
          "velocity": 0.7874015748031497,
          "duration": 0.06578937500000848
        },
        {
          "name": "C#6",
          "midi": 85,
          "time": 155.78923999999824,
          "velocity": 0.7874015748031497,
          "duration": 0.06578937500000848
        },
        {
          "name": "D#6",
          "midi": 87,
          "time": 155.78923999999824,
          "velocity": 0.7874015748031497,
          "duration": 0.06578937500000848
        },
        {
          "name": "F#6",
          "midi": 90,
          "time": 155.78923999999824,
          "velocity": 0.7874015748031497,
          "duration": 0.06578937500000848
        },
        {
          "name": "C#7",
          "midi": 97,
          "time": 155.78923999999824,
          "velocity": 0.7874015748031497,
          "duration": 0.06578937500000848
        },
        {
          "name": "D7",
          "midi": 98,
          "time": 155.78923999999824,
          "velocity": 0.7874015748031497,
          "duration": 0.06578937500000848
        },
        {
          "name": "D#7",
          "midi": 99,
          "time": 155.78923999999824,
          "velocity": 0.7874015748031497,
          "duration": 0.06578937500000848
        },
        {
          "name": "F#7",
          "midi": 102,
          "time": 155.78923999999824,
          "velocity": 0.7874015748031497,
          "duration": 0.06578937500000848
        },
        {
          "name": "C#7",
          "midi": 97,
          "time": 155.92081874999826,
          "velocity": 0.7874015748031497,
          "duration": 0.06578937500000848
        },
        {
          "name": "D7",
          "midi": 98,
          "time": 155.92081874999826,
          "velocity": 0.7874015748031497,
          "duration": 0.06578937500000848
        },
        {
          "name": "D#7",
          "midi": 99,
          "time": 155.92081874999826,
          "velocity": 0.7874015748031497,
          "duration": 0.06578937500000848
        },
        {
          "name": "F#7",
          "midi": 102,
          "time": 155.92081874999826,
          "velocity": 0.7874015748031497,
          "duration": 0.06578937500000848
        },
        {
          "name": "C4",
          "midi": 60,
          "time": 156.05130101041493,
          "velocity": 0.7874015748031497,
          "duration": 0.06578937500000848
        },
        {
          "name": "F#4",
          "midi": 66,
          "time": 156.05130101041493,
          "velocity": 0.7874015748031497,
          "duration": 0.06578937500000848
        },
        {
          "name": "C#5",
          "midi": 73,
          "time": 156.05130101041493,
          "velocity": 0.7874015748031497,
          "duration": 0.06578937500000848
        },
        {
          "name": "D5",
          "midi": 74,
          "time": 156.05130101041493,
          "velocity": 0.7874015748031497,
          "duration": 0.06578937500000848
        },
        {
          "name": "F#5",
          "midi": 78,
          "time": 156.05130101041493,
          "velocity": 0.7874015748031497,
          "duration": 0.06578937500000848
        },
        {
          "name": "C#6",
          "midi": 85,
          "time": 156.05130101041493,
          "velocity": 0.7874015748031497,
          "duration": 0.06578937500000848
        },
        {
          "name": "D#6",
          "midi": 87,
          "time": 156.05130101041493,
          "velocity": 0.7874015748031497,
          "duration": 0.06578937500000848
        },
        {
          "name": "F#6",
          "midi": 90,
          "time": 156.05130101041493,
          "velocity": 0.7874015748031497,
          "duration": 0.06578937500000848
        },
        {
          "name": "C#7",
          "midi": 97,
          "time": 156.05130101041493,
          "velocity": 0.7874015748031497,
          "duration": 0.06578937500000848
        },
        {
          "name": "D7",
          "midi": 98,
          "time": 156.05130101041493,
          "velocity": 0.7874015748031497,
          "duration": 0.06578937500000848
        },
        {
          "name": "D#7",
          "midi": 99,
          "time": 156.05130101041493,
          "velocity": 0.7874015748031497,
          "duration": 0.06578937500000848
        },
        {
          "name": "F#7",
          "midi": 102,
          "time": 156.05130101041493,
          "velocity": 0.7874015748031497,
          "duration": 0.06578937500000848
        },
        {
          "name": "C4",
          "midi": 60,
          "time": 156.84186999999827,
          "velocity": 0.7874015748031497,
          "duration": 0.06578937500000848
        },
        {
          "name": "F#4",
          "midi": 66,
          "time": 156.84186999999827,
          "velocity": 0.7874015748031497,
          "duration": 0.06578937500000848
        },
        {
          "name": "C5",
          "midi": 72,
          "time": 156.84186999999827,
          "velocity": 0.7874015748031497,
          "duration": 0.06578937500000848
        },
        {
          "name": "F#5",
          "midi": 78,
          "time": 156.84186999999827,
          "velocity": 0.7874015748031497,
          "duration": 0.06578937500000848
        },
        {
          "name": "C6",
          "midi": 84,
          "time": 156.84186999999827,
          "velocity": 0.7874015748031497,
          "duration": 0.06578937500000848
        },
        {
          "name": "F#6",
          "midi": 90,
          "time": 156.84186999999827,
          "velocity": 0.7874015748031497,
          "duration": 0.06578937500000848
        },
        {
          "name": "C7",
          "midi": 96,
          "time": 156.84186999999827,
          "velocity": 0.7874015748031497,
          "duration": 0.06578937500000848
        },
        {
          "name": "F#7",
          "midi": 102,
          "time": 156.84186999999827,
          "velocity": 0.7874015748031497,
          "duration": 0.06578937500000848
        },
        {
          "name": "C#4",
          "midi": 61,
          "time": 157.10393101041495,
          "velocity": 0.7874015748031497,
          "duration": 0.06578937500000848
        },
        {
          "name": "F#4",
          "midi": 66,
          "time": 157.10393101041495,
          "velocity": 0.7874015748031497,
          "duration": 0.06578937500000848
        },
        {
          "name": "C#5",
          "midi": 73,
          "time": 157.10393101041495,
          "velocity": 0.7874015748031497,
          "duration": 0.06578937500000848
        },
        {
          "name": "F#5",
          "midi": 78,
          "time": 157.10393101041495,
          "velocity": 0.7874015748031497,
          "duration": 0.06578937500000848
        },
        {
          "name": "C#6",
          "midi": 85,
          "time": 157.10393101041495,
          "velocity": 0.7874015748031497,
          "duration": 0.06578937500000848
        },
        {
          "name": "F#6",
          "midi": 90,
          "time": 157.10393101041495,
          "velocity": 0.7874015748031497,
          "duration": 0.06578937500000848
        },
        {
          "name": "C#7",
          "midi": 97,
          "time": 157.10393101041495,
          "velocity": 0.7874015748031497,
          "duration": 0.06578937500000848
        },
        {
          "name": "F#7",
          "midi": 102,
          "time": 157.10393101041495,
          "velocity": 0.7874015748031497,
          "duration": 0.06578937500000848
        },
        {
          "name": "D4",
          "midi": 62,
          "time": 157.3681849999983,
          "velocity": 0.7874015748031497,
          "duration": 0.06578937500000848
        },
        {
          "name": "F#4",
          "midi": 66,
          "time": 157.3681849999983,
          "velocity": 0.7874015748031497,
          "duration": 0.06578937500000848
        },
        {
          "name": "D5",
          "midi": 74,
          "time": 157.3681849999983,
          "velocity": 0.7874015748031497,
          "duration": 0.06578937500000848
        },
        {
          "name": "F#5",
          "midi": 78,
          "time": 157.3681849999983,
          "velocity": 0.7874015748031497,
          "duration": 0.06578937500000848
        },
        {
          "name": "D6",
          "midi": 86,
          "time": 157.3681849999983,
          "velocity": 0.7874015748031497,
          "duration": 0.06578937500000848
        },
        {
          "name": "F#6",
          "midi": 90,
          "time": 157.3681849999983,
          "velocity": 0.7874015748031497,
          "duration": 0.06578937500000848
        },
        {
          "name": "D7",
          "midi": 98,
          "time": 157.3681849999983,
          "velocity": 0.7874015748031497,
          "duration": 0.06578937500000848
        },
        {
          "name": "F#7",
          "midi": 102,
          "time": 157.3681849999983,
          "velocity": 0.7874015748031497,
          "duration": 0.06578937500000848
        },
        {
          "name": "C4",
          "midi": 60,
          "time": 157.89449999999832,
          "velocity": 0.7874015748031497,
          "duration": 0.06469288541666174
        },
        {
          "name": "F#4",
          "midi": 66,
          "time": 157.89449999999832,
          "velocity": 0.7874015748031497,
          "duration": 0.06469288541666174
        },
        {
          "name": "C#5",
          "midi": 73,
          "time": 157.89449999999832,
          "velocity": 0.7874015748031497,
          "duration": 0.06469288541666174
        },
        {
          "name": "D5",
          "midi": 74,
          "time": 157.89449999999832,
          "velocity": 0.7874015748031497,
          "duration": 0.06469288541666174
        },
        {
          "name": "F#5",
          "midi": 78,
          "time": 157.89449999999832,
          "velocity": 0.7874015748031497,
          "duration": 0.06469288541666174
        },
        {
          "name": "C#6",
          "midi": 85,
          "time": 157.89449999999832,
          "velocity": 0.7874015748031497,
          "duration": 0.06469288541666174
        },
        {
          "name": "D#6",
          "midi": 87,
          "time": 157.89449999999832,
          "velocity": 0.7874015748031497,
          "duration": 0.06469288541666174
        },
        {
          "name": "F#6",
          "midi": 90,
          "time": 157.89449999999832,
          "velocity": 0.7874015748031497,
          "duration": 0.06469288541666174
        },
        {
          "name": "C#7",
          "midi": 97,
          "time": 157.89449999999832,
          "velocity": 0.7874015748031497,
          "duration": 0.06469288541666174
        },
        {
          "name": "D7",
          "midi": 98,
          "time": 157.89449999999832,
          "velocity": 0.7874015748031497,
          "duration": 0.06469288541666174
        },
        {
          "name": "D#7",
          "midi": 99,
          "time": 157.89449999999832,
          "velocity": 0.7874015748031497,
          "duration": 0.06469288541666174
        },
        {
          "name": "F#7",
          "midi": 102,
          "time": 157.89449999999832,
          "velocity": 0.7874015748031497,
          "duration": 0.06469288541666174
        },
        {
          "name": "C#7",
          "midi": 97,
          "time": 158.0260787499983,
          "velocity": 0.7874015748031497,
          "duration": 0.06469288541666174
        },
        {
          "name": "D7",
          "midi": 98,
          "time": 158.0260787499983,
          "velocity": 0.7874015748031497,
          "duration": 0.06469288541666174
        },
        {
          "name": "D#7",
          "midi": 99,
          "time": 158.0260787499983,
          "velocity": 0.7874015748031497,
          "duration": 0.06469288541666174
        },
        {
          "name": "F#7",
          "midi": 102,
          "time": 158.0260787499983,
          "velocity": 0.7874015748031497,
          "duration": 0.06469288541666174
        },
        {
          "name": "C4",
          "midi": 60,
          "time": 158.15656101041498,
          "velocity": 0.7874015748031497,
          "duration": 0.06578937500000848
        },
        {
          "name": "F#4",
          "midi": 66,
          "time": 158.15656101041498,
          "velocity": 0.7874015748031497,
          "duration": 0.06578937500000848
        },
        {
          "name": "C#5",
          "midi": 73,
          "time": 158.15656101041498,
          "velocity": 0.7874015748031497,
          "duration": 0.06578937500000848
        },
        {
          "name": "D5",
          "midi": 74,
          "time": 158.15656101041498,
          "velocity": 0.7874015748031497,
          "duration": 0.06578937500000848
        },
        {
          "name": "F#5",
          "midi": 78,
          "time": 158.15656101041498,
          "velocity": 0.7874015748031497,
          "duration": 0.06578937500000848
        },
        {
          "name": "C#6",
          "midi": 85,
          "time": 158.15656101041498,
          "velocity": 0.7874015748031497,
          "duration": 0.06578937500000848
        },
        {
          "name": "D#6",
          "midi": 87,
          "time": 158.15656101041498,
          "velocity": 0.7874015748031497,
          "duration": 0.06578937500000848
        },
        {
          "name": "F#6",
          "midi": 90,
          "time": 158.15656101041498,
          "velocity": 0.7874015748031497,
          "duration": 0.06578937500000848
        },
        {
          "name": "C#7",
          "midi": 97,
          "time": 158.15656101041498,
          "velocity": 0.7874015748031497,
          "duration": 0.06578937500000848
        },
        {
          "name": "D7",
          "midi": 98,
          "time": 158.15656101041498,
          "velocity": 0.7874015748031497,
          "duration": 0.06578937500000848
        },
        {
          "name": "D#7",
          "midi": 99,
          "time": 158.15656101041498,
          "velocity": 0.7874015748031497,
          "duration": 0.06578937500000848
        },
        {
          "name": "F#7",
          "midi": 102,
          "time": 158.15656101041498,
          "velocity": 0.7874015748031497,
          "duration": 0.06578937500000848
        },
        {
          "name": "C4",
          "midi": 60,
          "time": 158.9471299999983,
          "velocity": 0.7874015748031497,
          "duration": 0.06578937500000848
        },
        {
          "name": "F#4",
          "midi": 66,
          "time": 158.9471299999983,
          "velocity": 0.7874015748031497,
          "duration": 0.06578937500000848
        },
        {
          "name": "C5",
          "midi": 72,
          "time": 158.9471299999983,
          "velocity": 0.7874015748031497,
          "duration": 0.06578937500000848
        },
        {
          "name": "F#5",
          "midi": 78,
          "time": 158.9471299999983,
          "velocity": 0.7874015748031497,
          "duration": 0.06578937500000848
        },
        {
          "name": "C6",
          "midi": 84,
          "time": 158.9471299999983,
          "velocity": 0.7874015748031497,
          "duration": 0.06578937500000848
        },
        {
          "name": "F#6",
          "midi": 90,
          "time": 158.9471299999983,
          "velocity": 0.7874015748031497,
          "duration": 0.06578937500000848
        },
        {
          "name": "C7",
          "midi": 96,
          "time": 158.9471299999983,
          "velocity": 0.7874015748031497,
          "duration": 0.06578937500000848
        },
        {
          "name": "F#7",
          "midi": 102,
          "time": 158.9471299999983,
          "velocity": 0.7874015748031497,
          "duration": 0.06578937500000848
        },
        {
          "name": "C#4",
          "midi": 61,
          "time": 159.21138398958166,
          "velocity": 0.7874015748031497,
          "duration": 0.06469288541666174
        },
        {
          "name": "F#4",
          "midi": 66,
          "time": 159.21138398958166,
          "velocity": 0.7874015748031497,
          "duration": 0.06469288541666174
        },
        {
          "name": "C#5",
          "midi": 73,
          "time": 159.21138398958166,
          "velocity": 0.7874015748031497,
          "duration": 0.06469288541666174
        },
        {
          "name": "F#5",
          "midi": 78,
          "time": 159.21138398958166,
          "velocity": 0.7874015748031497,
          "duration": 0.06469288541666174
        },
        {
          "name": "C#6",
          "midi": 85,
          "time": 159.21138398958166,
          "velocity": 0.7874015748031497,
          "duration": 0.06469288541666174
        },
        {
          "name": "F#6",
          "midi": 90,
          "time": 159.21138398958166,
          "velocity": 0.7874015748031497,
          "duration": 0.06469288541666174
        },
        {
          "name": "C#7",
          "midi": 97,
          "time": 159.21138398958166,
          "velocity": 0.7874015748031497,
          "duration": 0.06469288541666174
        },
        {
          "name": "F#7",
          "midi": 102,
          "time": 159.21138398958166,
          "velocity": 0.7874015748031497,
          "duration": 0.06469288541666174
        },
        {
          "name": "D4",
          "midi": 62,
          "time": 159.47344499999832,
          "velocity": 0.7874015748031497,
          "duration": 0.06469288541666174
        },
        {
          "name": "F#4",
          "midi": 66,
          "time": 159.47344499999832,
          "velocity": 0.7874015748031497,
          "duration": 0.06469288541666174
        },
        {
          "name": "D5",
          "midi": 74,
          "time": 159.47344499999832,
          "velocity": 0.7874015748031497,
          "duration": 0.06469288541666174
        },
        {
          "name": "F#5",
          "midi": 78,
          "time": 159.47344499999832,
          "velocity": 0.7874015748031497,
          "duration": 0.06469288541666174
        },
        {
          "name": "D6",
          "midi": 86,
          "time": 159.47344499999832,
          "velocity": 0.7874015748031497,
          "duration": 0.06469288541666174
        },
        {
          "name": "F#6",
          "midi": 90,
          "time": 159.47344499999832,
          "velocity": 0.7874015748031497,
          "duration": 0.06469288541666174
        },
        {
          "name": "D7",
          "midi": 98,
          "time": 159.47344499999832,
          "velocity": 0.7874015748031497,
          "duration": 0.06469288541666174
        },
        {
          "name": "F#7",
          "midi": 102,
          "time": 159.47344499999832,
          "velocity": 0.7874015748031497,
          "duration": 0.06469288541666174
        },
        {
          "name": "C#4",
          "midi": 61,
          "time": 159.9997599999983,
          "velocity": 0.7874015748031497,
          "duration": 0.06469288541666174
        },
        {
          "name": "F#4",
          "midi": 66,
          "time": 159.9997599999983,
          "velocity": 0.7874015748031497,
          "duration": 0.06469288541666174
        },
        {
          "name": "D5",
          "midi": 74,
          "time": 159.9997599999983,
          "velocity": 0.7874015748031497,
          "duration": 0.06469288541666174
        },
        {
          "name": "D#5",
          "midi": 75,
          "time": 159.9997599999983,
          "velocity": 0.7874015748031497,
          "duration": 0.06469288541666174
        },
        {
          "name": "F#5",
          "midi": 78,
          "time": 159.9997599999983,
          "velocity": 0.7874015748031497,
          "duration": 0.06469288541666174
        },
        {
          "name": "D6",
          "midi": 86,
          "time": 159.9997599999983,
          "velocity": 0.7874015748031497,
          "duration": 0.06469288541666174
        },
        {
          "name": "E6",
          "midi": 88,
          "time": 159.9997599999983,
          "velocity": 0.7874015748031497,
          "duration": 0.06469288541666174
        },
        {
          "name": "F#6",
          "midi": 90,
          "time": 159.9997599999983,
          "velocity": 0.7874015748031497,
          "duration": 0.06469288541666174
        },
        {
          "name": "D7",
          "midi": 98,
          "time": 159.9997599999983,
          "velocity": 0.7874015748031497,
          "duration": 0.06469288541666174
        },
        {
          "name": "D#7",
          "midi": 99,
          "time": 159.9997599999983,
          "velocity": 0.7874015748031497,
          "duration": 0.06469288541666174
        },
        {
          "name": "E7",
          "midi": 100,
          "time": 159.9997599999983,
          "velocity": 0.7874015748031497,
          "duration": 0.06469288541666174
        },
        {
          "name": "F#7",
          "midi": 102,
          "time": 159.9997599999983,
          "velocity": 0.7874015748031497,
          "duration": 0.06469288541666174
        },
        {
          "name": "D7",
          "midi": 98,
          "time": 160.13243523958164,
          "velocity": 0.7874015748031497,
          "duration": 0.06469288541666174
        },
        {
          "name": "D#7",
          "midi": 99,
          "time": 160.13243523958164,
          "velocity": 0.7874015748031497,
          "duration": 0.06469288541666174
        },
        {
          "name": "E7",
          "midi": 100,
          "time": 160.13243523958164,
          "velocity": 0.7874015748031497,
          "duration": 0.06469288541666174
        },
        {
          "name": "F#7",
          "midi": 102,
          "time": 160.13243523958164,
          "velocity": 0.7874015748031497,
          "duration": 0.06469288541666174
        },
        {
          "name": "C#4",
          "midi": 61,
          "time": 160.26401398958163,
          "velocity": 0.7874015748031497,
          "duration": 0.06469288541666174
        },
        {
          "name": "F#4",
          "midi": 66,
          "time": 160.26401398958163,
          "velocity": 0.7874015748031497,
          "duration": 0.06469288541666174
        },
        {
          "name": "D5",
          "midi": 74,
          "time": 160.26401398958163,
          "velocity": 0.7874015748031497,
          "duration": 0.06469288541666174
        },
        {
          "name": "D#5",
          "midi": 75,
          "time": 160.26401398958163,
          "velocity": 0.7874015748031497,
          "duration": 0.06469288541666174
        },
        {
          "name": "F#5",
          "midi": 78,
          "time": 160.26401398958163,
          "velocity": 0.7874015748031497,
          "duration": 0.06469288541666174
        },
        {
          "name": "D6",
          "midi": 86,
          "time": 160.26401398958163,
          "velocity": 0.7874015748031497,
          "duration": 0.06469288541666174
        },
        {
          "name": "E6",
          "midi": 88,
          "time": 160.26401398958163,
          "velocity": 0.7874015748031497,
          "duration": 0.06469288541666174
        },
        {
          "name": "F#6",
          "midi": 90,
          "time": 160.26401398958163,
          "velocity": 0.7874015748031497,
          "duration": 0.06469288541666174
        },
        {
          "name": "D7",
          "midi": 98,
          "time": 160.26401398958163,
          "velocity": 0.7874015748031497,
          "duration": 0.06469288541666174
        },
        {
          "name": "D#7",
          "midi": 99,
          "time": 160.26401398958163,
          "velocity": 0.7874015748031497,
          "duration": 0.06469288541666174
        },
        {
          "name": "E7",
          "midi": 100,
          "time": 160.26401398958163,
          "velocity": 0.7874015748031497,
          "duration": 0.06469288541666174
        },
        {
          "name": "F#7",
          "midi": 102,
          "time": 160.26401398958163,
          "velocity": 0.7874015748031497,
          "duration": 0.06469288541666174
        },
        {
          "name": "C4",
          "midi": 60,
          "time": 161.0523899999983,
          "velocity": 0.7874015748031497,
          "duration": 0.06578937500000848
        },
        {
          "name": "F#4",
          "midi": 66,
          "time": 161.0523899999983,
          "velocity": 0.7874015748031497,
          "duration": 0.06578937500000848
        },
        {
          "name": "C#5",
          "midi": 73,
          "time": 161.0523899999983,
          "velocity": 0.7874015748031497,
          "duration": 0.06578937500000848
        },
        {
          "name": "F#5",
          "midi": 78,
          "time": 161.0523899999983,
          "velocity": 0.7874015748031497,
          "duration": 0.06578937500000848
        },
        {
          "name": "C#6",
          "midi": 85,
          "time": 161.0523899999983,
          "velocity": 0.7874015748031497,
          "duration": 0.06578937500000848
        },
        {
          "name": "F#6",
          "midi": 90,
          "time": 161.0523899999983,
          "velocity": 0.7874015748031497,
          "duration": 0.06578937500000848
        },
        {
          "name": "C#7",
          "midi": 97,
          "time": 161.0523899999983,
          "velocity": 0.7874015748031497,
          "duration": 0.06578937500000848
        },
        {
          "name": "F#7",
          "midi": 102,
          "time": 161.0523899999983,
          "velocity": 0.7874015748031497,
          "duration": 0.06578937500000848
        },
        {
          "name": "C#4",
          "midi": 61,
          "time": 161.31664398958165,
          "velocity": 0.7874015748031497,
          "duration": 0.06469288541666174
        },
        {
          "name": "F#4",
          "midi": 66,
          "time": 161.31664398958165,
          "velocity": 0.7874015748031497,
          "duration": 0.06469288541666174
        },
        {
          "name": "D5",
          "midi": 74,
          "time": 161.31664398958165,
          "velocity": 0.7874015748031497,
          "duration": 0.06469288541666174
        },
        {
          "name": "F#5",
          "midi": 78,
          "time": 161.31664398958165,
          "velocity": 0.7874015748031497,
          "duration": 0.06469288541666174
        },
        {
          "name": "D6",
          "midi": 86,
          "time": 161.31664398958165,
          "velocity": 0.7874015748031497,
          "duration": 0.06469288541666174
        },
        {
          "name": "F#6",
          "midi": 90,
          "time": 161.31664398958165,
          "velocity": 0.7874015748031497,
          "duration": 0.06469288541666174
        },
        {
          "name": "D7",
          "midi": 98,
          "time": 161.31664398958165,
          "velocity": 0.7874015748031497,
          "duration": 0.06469288541666174
        },
        {
          "name": "F#7",
          "midi": 102,
          "time": 161.31664398958165,
          "velocity": 0.7874015748031497,
          "duration": 0.06469288541666174
        },
        {
          "name": "D4",
          "midi": 62,
          "time": 161.5787049999983,
          "velocity": 0.7874015748031497,
          "duration": 0.06578937500000848
        },
        {
          "name": "F#4",
          "midi": 66,
          "time": 161.5787049999983,
          "velocity": 0.7874015748031497,
          "duration": 0.06578937500000848
        },
        {
          "name": "D#5",
          "midi": 75,
          "time": 161.5787049999983,
          "velocity": 0.7874015748031497,
          "duration": 0.06578937500000848
        },
        {
          "name": "F#5",
          "midi": 78,
          "time": 161.5787049999983,
          "velocity": 0.7874015748031497,
          "duration": 0.06578937500000848
        },
        {
          "name": "D#6",
          "midi": 87,
          "time": 161.5787049999983,
          "velocity": 0.7874015748031497,
          "duration": 0.06578937500000848
        },
        {
          "name": "F#6",
          "midi": 90,
          "time": 161.5787049999983,
          "velocity": 0.7874015748031497,
          "duration": 0.06578937500000848
        },
        {
          "name": "D#7",
          "midi": 99,
          "time": 161.5787049999983,
          "velocity": 0.7874015748031497,
          "duration": 0.06578937500000848
        },
        {
          "name": "F#7",
          "midi": 102,
          "time": 161.5787049999983,
          "velocity": 0.7874015748031497,
          "duration": 0.06578937500000848
        },
        {
          "name": "C#4",
          "midi": 61,
          "time": 162.10501999999832,
          "velocity": 0.7874015748031497,
          "duration": 0.06469288541666174
        },
        {
          "name": "D4",
          "midi": 62,
          "time": 162.10501999999832,
          "velocity": 0.7874015748031497,
          "duration": 0.06469288541666174
        },
        {
          "name": "F#4",
          "midi": 66,
          "time": 162.10501999999832,
          "velocity": 0.7874015748031497,
          "duration": 0.06469288541666174
        },
        {
          "name": "D5",
          "midi": 74,
          "time": 162.10501999999832,
          "velocity": 0.7874015748031497,
          "duration": 0.06469288541666174
        },
        {
          "name": "D#5",
          "midi": 75,
          "time": 162.10501999999832,
          "velocity": 0.7874015748031497,
          "duration": 0.06469288541666174
        },
        {
          "name": "F#5",
          "midi": 78,
          "time": 162.10501999999832,
          "velocity": 0.7874015748031497,
          "duration": 0.06469288541666174
        },
        {
          "name": "D6",
          "midi": 86,
          "time": 162.10501999999832,
          "velocity": 0.7874015748031497,
          "duration": 0.06469288541666174
        },
        {
          "name": "E6",
          "midi": 88,
          "time": 162.10501999999832,
          "velocity": 0.7874015748031497,
          "duration": 0.06469288541666174
        },
        {
          "name": "F#6",
          "midi": 90,
          "time": 162.10501999999832,
          "velocity": 0.7874015748031497,
          "duration": 0.06469288541666174
        },
        {
          "name": "D7",
          "midi": 98,
          "time": 162.10501999999832,
          "velocity": 0.7874015748031497,
          "duration": 0.06469288541666174
        },
        {
          "name": "D#7",
          "midi": 99,
          "time": 162.10501999999832,
          "velocity": 0.7874015748031497,
          "duration": 0.06469288541666174
        },
        {
          "name": "E7",
          "midi": 100,
          "time": 162.10501999999832,
          "velocity": 0.7874015748031497,
          "duration": 0.06469288541666174
        },
        {
          "name": "F#7",
          "midi": 102,
          "time": 162.10501999999832,
          "velocity": 0.7874015748031497,
          "duration": 0.06469288541666174
        },
        {
          "name": "C4",
          "midi": 60,
          "time": 164.2102799999983,
          "velocity": 0.7874015748031497,
          "duration": 0.06469288541666174
        },
        {
          "name": "F#4",
          "midi": 66,
          "time": 164.2102799999983,
          "velocity": 0.7874015748031497,
          "duration": 0.06469288541666174
        },
        {
          "name": "C#5",
          "midi": 73,
          "time": 164.2102799999983,
          "velocity": 0.7874015748031497,
          "duration": 0.06469288541666174
        },
        {
          "name": "F#5",
          "midi": 78,
          "time": 164.2102799999983,
          "velocity": 0.7874015748031497,
          "duration": 0.06469288541666174
        },
        {
          "name": "C#6",
          "midi": 85,
          "time": 164.2102799999983,
          "velocity": 0.7874015748031497,
          "duration": 0.06469288541666174
        },
        {
          "name": "F#6",
          "midi": 90,
          "time": 164.2102799999983,
          "velocity": 0.7874015748031497,
          "duration": 0.06469288541666174
        },
        {
          "name": "C#7",
          "midi": 97,
          "time": 164.2102799999983,
          "velocity": 0.7874015748031497,
          "duration": 0.06469288541666174
        },
        {
          "name": "F#7",
          "midi": 102,
          "time": 164.2102799999983,
          "velocity": 0.7874015748031497,
          "duration": 0.06469288541666174
        },
        {
          "name": "C#7",
          "midi": 97,
          "time": 164.3418587499983,
          "velocity": 0.7874015748031497,
          "duration": 0.06469288541666174
        },
        {
          "name": "F#7",
          "midi": 102,
          "time": 164.3418587499983,
          "velocity": 0.7874015748031497,
          "duration": 0.06469288541666174
        },
        {
          "name": "C#5",
          "midi": 73,
          "time": 164.47343749999828,
          "velocity": 0.7874015748031497,
          "duration": 0.06469288541666174
        },
        {
          "name": "F#5",
          "midi": 78,
          "time": 164.47343749999828,
          "velocity": 0.7874015748031497,
          "duration": 0.06469288541666174
        },
        {
          "name": "C#6",
          "midi": 85,
          "time": 164.47343749999828,
          "velocity": 0.7874015748031497,
          "duration": 0.06469288541666174
        },
        {
          "name": "F#6",
          "midi": 90,
          "time": 164.47343749999828,
          "velocity": 0.7874015748031497,
          "duration": 0.06469288541666174
        },
        {
          "name": "C#7",
          "midi": 97,
          "time": 164.47343749999828,
          "velocity": 0.7874015748031497,
          "duration": 0.06469288541666174
        },
        {
          "name": "F#7",
          "midi": 102,
          "time": 164.47343749999828,
          "velocity": 0.7874015748031497,
          "duration": 0.06469288541666174
        },
        {
          "name": "C#7",
          "midi": 97,
          "time": 164.60501624999827,
          "velocity": 0.7874015748031497,
          "duration": 0.06469288541666174
        },
        {
          "name": "F#7",
          "midi": 102,
          "time": 164.60501624999827,
          "velocity": 0.7874015748031497,
          "duration": 0.06469288541666174
        },
        {
          "name": "C#4",
          "midi": 61,
          "time": 164.73659499999826,
          "velocity": 0.7874015748031497,
          "duration": 0.06578937500000848
        },
        {
          "name": "F#4",
          "midi": 66,
          "time": 164.73659499999826,
          "velocity": 0.7874015748031497,
          "duration": 0.06578937500000848
        },
        {
          "name": "C#5",
          "midi": 73,
          "time": 164.73659499999826,
          "velocity": 0.7874015748031497,
          "duration": 0.06578937500000848
        },
        {
          "name": "D5",
          "midi": 74,
          "time": 164.73659499999826,
          "velocity": 0.7874015748031497,
          "duration": 0.06578937500000848
        },
        {
          "name": "F#5",
          "midi": 78,
          "time": 164.73659499999826,
          "velocity": 0.7874015748031497,
          "duration": 0.06578937500000848
        },
        {
          "name": "C#6",
          "midi": 85,
          "time": 164.73659499999826,
          "velocity": 0.7874015748031497,
          "duration": 0.06578937500000848
        },
        {
          "name": "D#6",
          "midi": 87,
          "time": 164.73659499999826,
          "velocity": 0.7874015748031497,
          "duration": 0.06578937500000848
        },
        {
          "name": "F#6",
          "midi": 90,
          "time": 164.73659499999826,
          "velocity": 0.7874015748031497,
          "duration": 0.06578937500000848
        },
        {
          "name": "C#7",
          "midi": 97,
          "time": 164.73659499999826,
          "velocity": 0.7874015748031497,
          "duration": 0.06578937500000848
        },
        {
          "name": "D7",
          "midi": 98,
          "time": 164.73659499999826,
          "velocity": 0.7874015748031497,
          "duration": 0.06578937500000848
        },
        {
          "name": "D#7",
          "midi": 99,
          "time": 164.73659499999826,
          "velocity": 0.7874015748031497,
          "duration": 0.06578937500000848
        },
        {
          "name": "F#7",
          "midi": 102,
          "time": 164.73659499999826,
          "velocity": 0.7874015748031497,
          "duration": 0.06578937500000848
        },
        {
          "name": "C#6",
          "midi": 85,
          "time": 164.99865601041495,
          "velocity": 0.7874015748031497,
          "duration": 0.06578937500000848
        },
        {
          "name": "F#6",
          "midi": 90,
          "time": 164.99865601041495,
          "velocity": 0.7874015748031497,
          "duration": 0.06578937500000848
        },
        {
          "name": "C#7",
          "midi": 97,
          "time": 164.99865601041495,
          "velocity": 0.7874015748031497,
          "duration": 0.06578937500000848
        },
        {
          "name": "F#7",
          "midi": 102,
          "time": 164.99865601041495,
          "velocity": 0.7874015748031497,
          "duration": 0.06578937500000848
        },
        {
          "name": "C#7",
          "midi": 97,
          "time": 165.13133124999828,
          "velocity": 0.7874015748031497,
          "duration": 0.06469288541666174
        },
        {
          "name": "F#7",
          "midi": 102,
          "time": 165.13133124999828,
          "velocity": 0.7874015748031497,
          "duration": 0.06469288541666174
        },
        {
          "name": "C4",
          "midi": 60,
          "time": 165.26290999999827,
          "velocity": 0.7874015748031497,
          "duration": 0.06469288541666174
        },
        {
          "name": "F#4",
          "midi": 66,
          "time": 165.26290999999827,
          "velocity": 0.7874015748031497,
          "duration": 0.06469288541666174
        },
        {
          "name": "C#5",
          "midi": 73,
          "time": 165.26290999999827,
          "velocity": 0.7874015748031497,
          "duration": 0.06469288541666174
        },
        {
          "name": "F#5",
          "midi": 78,
          "time": 165.26290999999827,
          "velocity": 0.7874015748031497,
          "duration": 0.06469288541666174
        },
        {
          "name": "C#6",
          "midi": 85,
          "time": 165.26290999999827,
          "velocity": 0.7874015748031497,
          "duration": 0.06469288541666174
        },
        {
          "name": "F#6",
          "midi": 90,
          "time": 165.26290999999827,
          "velocity": 0.7874015748031497,
          "duration": 0.06469288541666174
        },
        {
          "name": "C#7",
          "midi": 97,
          "time": 165.26290999999827,
          "velocity": 0.7874015748031497,
          "duration": 0.06469288541666174
        },
        {
          "name": "F#7",
          "midi": 102,
          "time": 165.26290999999827,
          "velocity": 0.7874015748031497,
          "duration": 0.06469288541666174
        },
        {
          "name": "C#7",
          "midi": 97,
          "time": 165.39448874999826,
          "velocity": 0.7874015748031497,
          "duration": 0.06469288541666174
        },
        {
          "name": "F#7",
          "midi": 102,
          "time": 165.39448874999826,
          "velocity": 0.7874015748031497,
          "duration": 0.06469288541666174
        },
        {
          "name": "C#5",
          "midi": 73,
          "time": 165.52497101041493,
          "velocity": 0.7874015748031497,
          "duration": 0.06469288541666174
        },
        {
          "name": "F#5",
          "midi": 78,
          "time": 165.52497101041493,
          "velocity": 0.7874015748031497,
          "duration": 0.06469288541666174
        },
        {
          "name": "C#6",
          "midi": 85,
          "time": 165.52497101041493,
          "velocity": 0.7874015748031497,
          "duration": 0.06469288541666174
        },
        {
          "name": "F#6",
          "midi": 90,
          "time": 165.52497101041493,
          "velocity": 0.7874015748031497,
          "duration": 0.06469288541666174
        },
        {
          "name": "C#7",
          "midi": 97,
          "time": 165.52497101041493,
          "velocity": 0.7874015748031497,
          "duration": 0.06469288541666174
        },
        {
          "name": "F#7",
          "midi": 102,
          "time": 165.52497101041493,
          "velocity": 0.7874015748031497,
          "duration": 0.06469288541666174
        },
        {
          "name": "C#7",
          "midi": 97,
          "time": 165.65764624999827,
          "velocity": 0.7874015748031497,
          "duration": 0.06469288541666174
        },
        {
          "name": "F#7",
          "midi": 102,
          "time": 165.65764624999827,
          "velocity": 0.7874015748031497,
          "duration": 0.06469288541666174
        },
        {
          "name": "C#4",
          "midi": 61,
          "time": 165.78922499999825,
          "velocity": 0.7874015748031497,
          "duration": 0.06469288541666174
        },
        {
          "name": "F#4",
          "midi": 66,
          "time": 165.78922499999825,
          "velocity": 0.7874015748031497,
          "duration": 0.06469288541666174
        },
        {
          "name": "C#5",
          "midi": 73,
          "time": 165.78922499999825,
          "velocity": 0.7874015748031497,
          "duration": 0.06469288541666174
        },
        {
          "name": "D5",
          "midi": 74,
          "time": 165.78922499999825,
          "velocity": 0.7874015748031497,
          "duration": 0.06469288541666174
        },
        {
          "name": "F#5",
          "midi": 78,
          "time": 165.78922499999825,
          "velocity": 0.7874015748031497,
          "duration": 0.06469288541666174
        },
        {
          "name": "C#6",
          "midi": 85,
          "time": 165.78922499999825,
          "velocity": 0.7874015748031497,
          "duration": 0.06469288541666174
        },
        {
          "name": "D#6",
          "midi": 87,
          "time": 165.78922499999825,
          "velocity": 0.7874015748031497,
          "duration": 0.06469288541666174
        },
        {
          "name": "F#6",
          "midi": 90,
          "time": 165.78922499999825,
          "velocity": 0.7874015748031497,
          "duration": 0.06469288541666174
        },
        {
          "name": "C#7",
          "midi": 97,
          "time": 165.78922499999825,
          "velocity": 0.7874015748031497,
          "duration": 0.06469288541666174
        },
        {
          "name": "D7",
          "midi": 98,
          "time": 165.78922499999825,
          "velocity": 0.7874015748031497,
          "duration": 0.06469288541666174
        },
        {
          "name": "D#7",
          "midi": 99,
          "time": 165.78922499999825,
          "velocity": 0.7874015748031497,
          "duration": 0.06469288541666174
        },
        {
          "name": "F#7",
          "midi": 102,
          "time": 165.78922499999825,
          "velocity": 0.7874015748031497,
          "duration": 0.06469288541666174
        },
        {
          "name": "C#6",
          "midi": 85,
          "time": 166.05238249999826,
          "velocity": 0.7874015748031497,
          "duration": 0.06469288541666174
        },
        {
          "name": "F#6",
          "midi": 90,
          "time": 166.05238249999826,
          "velocity": 0.7874015748031497,
          "duration": 0.06469288541666174
        },
        {
          "name": "C#7",
          "midi": 97,
          "time": 166.05238249999826,
          "velocity": 0.7874015748031497,
          "duration": 0.06469288541666174
        },
        {
          "name": "F#7",
          "midi": 102,
          "time": 166.05238249999826,
          "velocity": 0.7874015748031497,
          "duration": 0.06469288541666174
        },
        {
          "name": "C#7",
          "midi": 97,
          "time": 166.18396124999825,
          "velocity": 0.7874015748031497,
          "duration": 0.06469288541666174
        },
        {
          "name": "F#7",
          "midi": 102,
          "time": 166.18396124999825,
          "velocity": 0.7874015748031497,
          "duration": 0.06469288541666174
        },
        {
          "name": "C4",
          "midi": 60,
          "time": 166.31553999999824,
          "velocity": 0.7874015748031497,
          "duration": 0.06578937500000848
        },
        {
          "name": "F#4",
          "midi": 66,
          "time": 166.31553999999824,
          "velocity": 0.7874015748031497,
          "duration": 0.06578937500000848
        },
        {
          "name": "C#5",
          "midi": 73,
          "time": 166.31553999999824,
          "velocity": 0.7874015748031497,
          "duration": 0.06578937500000848
        },
        {
          "name": "F#5",
          "midi": 78,
          "time": 166.31553999999824,
          "velocity": 0.7874015748031497,
          "duration": 0.06578937500000848
        },
        {
          "name": "C#6",
          "midi": 85,
          "time": 166.31553999999824,
          "velocity": 0.7874015748031497,
          "duration": 0.06578937500000848
        },
        {
          "name": "F#6",
          "midi": 90,
          "time": 166.31553999999824,
          "velocity": 0.7874015748031497,
          "duration": 0.06578937500000848
        },
        {
          "name": "C#7",
          "midi": 97,
          "time": 166.31553999999824,
          "velocity": 0.7874015748031497,
          "duration": 0.06578937500000848
        },
        {
          "name": "F#7",
          "midi": 102,
          "time": 166.31553999999824,
          "velocity": 0.7874015748031497,
          "duration": 0.06578937500000848
        },
        {
          "name": "C#7",
          "midi": 97,
          "time": 166.44821523958157,
          "velocity": 0.7874015748031497,
          "duration": 0.06469288541666174
        },
        {
          "name": "F#7",
          "midi": 102,
          "time": 166.44821523958157,
          "velocity": 0.7874015748031497,
          "duration": 0.06469288541666174
        },
        {
          "name": "C#5",
          "midi": 73,
          "time": 166.57869749999824,
          "velocity": 0.7874015748031497,
          "duration": 0.06578937500000848
        },
        {
          "name": "F#5",
          "midi": 78,
          "time": 166.57869749999824,
          "velocity": 0.7874015748031497,
          "duration": 0.06578937500000848
        },
        {
          "name": "C#6",
          "midi": 85,
          "time": 166.57869749999824,
          "velocity": 0.7874015748031497,
          "duration": 0.06578937500000848
        },
        {
          "name": "F#6",
          "midi": 90,
          "time": 166.57869749999824,
          "velocity": 0.7874015748031497,
          "duration": 0.06578937500000848
        },
        {
          "name": "C#7",
          "midi": 97,
          "time": 166.57869749999824,
          "velocity": 0.7874015748031497,
          "duration": 0.06578937500000848
        },
        {
          "name": "F#7",
          "midi": 102,
          "time": 166.57869749999824,
          "velocity": 0.7874015748031497,
          "duration": 0.06578937500000848
        },
        {
          "name": "C#7",
          "midi": 97,
          "time": 166.7091797604149,
          "velocity": 0.7874015748031497,
          "duration": 0.06578937500000848
        },
        {
          "name": "F#7",
          "midi": 102,
          "time": 166.7091797604149,
          "velocity": 0.7874015748031497,
          "duration": 0.06578937500000848
        },
        {
          "name": "C#4",
          "midi": 61,
          "time": 166.84185499999825,
          "velocity": 0.7874015748031497,
          "duration": 0.06578937500000848
        },
        {
          "name": "F#4",
          "midi": 66,
          "time": 166.84185499999825,
          "velocity": 0.7874015748031497,
          "duration": 0.06578937500000848
        },
        {
          "name": "C#5",
          "midi": 73,
          "time": 166.84185499999825,
          "velocity": 0.7874015748031497,
          "duration": 0.06578937500000848
        },
        {
          "name": "D5",
          "midi": 74,
          "time": 166.84185499999825,
          "velocity": 0.7874015748031497,
          "duration": 0.06578937500000848
        },
        {
          "name": "F#5",
          "midi": 78,
          "time": 166.84185499999825,
          "velocity": 0.7874015748031497,
          "duration": 0.06578937500000848
        },
        {
          "name": "C#6",
          "midi": 85,
          "time": 166.84185499999825,
          "velocity": 0.7874015748031497,
          "duration": 0.06578937500000848
        },
        {
          "name": "D#6",
          "midi": 87,
          "time": 166.84185499999825,
          "velocity": 0.7874015748031497,
          "duration": 0.06578937500000848
        },
        {
          "name": "F#6",
          "midi": 90,
          "time": 166.84185499999825,
          "velocity": 0.7874015748031497,
          "duration": 0.06578937500000848
        },
        {
          "name": "C#7",
          "midi": 97,
          "time": 166.84185499999825,
          "velocity": 0.7874015748031497,
          "duration": 0.06578937500000848
        },
        {
          "name": "D7",
          "midi": 98,
          "time": 166.84185499999825,
          "velocity": 0.7874015748031497,
          "duration": 0.06578937500000848
        },
        {
          "name": "D#7",
          "midi": 99,
          "time": 166.84185499999825,
          "velocity": 0.7874015748031497,
          "duration": 0.06578937500000848
        },
        {
          "name": "F#7",
          "midi": 102,
          "time": 166.84185499999825,
          "velocity": 0.7874015748031497,
          "duration": 0.06578937500000848
        },
        {
          "name": "C#6",
          "midi": 85,
          "time": 167.10501249999825,
          "velocity": 0.7874015748031497,
          "duration": 0.06578937500000848
        },
        {
          "name": "F#6",
          "midi": 90,
          "time": 167.10501249999825,
          "velocity": 0.7874015748031497,
          "duration": 0.06578937500000848
        },
        {
          "name": "C#7",
          "midi": 97,
          "time": 167.10501249999825,
          "velocity": 0.7874015748031497,
          "duration": 0.06578937500000848
        },
        {
          "name": "F#7",
          "midi": 102,
          "time": 167.10501249999825,
          "velocity": 0.7874015748031497,
          "duration": 0.06578937500000848
        },
        {
          "name": "C#7",
          "midi": 97,
          "time": 167.23549476041492,
          "velocity": 0.7874015748031497,
          "duration": 0.06578937500000848
        },
        {
          "name": "F#7",
          "midi": 102,
          "time": 167.23549476041492,
          "velocity": 0.7874015748031497,
          "duration": 0.06578937500000848
        },
        {
          "name": "C4",
          "midi": 60,
          "time": 167.36816999999826,
          "velocity": 0.7874015748031497,
          "duration": 0.06578937500000848
        },
        {
          "name": "F#4",
          "midi": 66,
          "time": 167.36816999999826,
          "velocity": 0.7874015748031497,
          "duration": 0.06578937500000848
        },
        {
          "name": "C#5",
          "midi": 73,
          "time": 167.36816999999826,
          "velocity": 0.7874015748031497,
          "duration": 0.06578937500000848
        },
        {
          "name": "F#5",
          "midi": 78,
          "time": 167.36816999999826,
          "velocity": 0.7874015748031497,
          "duration": 0.06578937500000848
        },
        {
          "name": "C#6",
          "midi": 85,
          "time": 167.36816999999826,
          "velocity": 0.7874015748031497,
          "duration": 0.06578937500000848
        },
        {
          "name": "F#6",
          "midi": 90,
          "time": 167.36816999999826,
          "velocity": 0.7874015748031497,
          "duration": 0.06578937500000848
        },
        {
          "name": "C#7",
          "midi": 97,
          "time": 167.36816999999826,
          "velocity": 0.7874015748031497,
          "duration": 0.06578937500000848
        },
        {
          "name": "F#7",
          "midi": 102,
          "time": 167.36816999999826,
          "velocity": 0.7874015748031497,
          "duration": 0.06578937500000848
        },
        {
          "name": "C#7",
          "midi": 97,
          "time": 167.5008452395816,
          "velocity": 0.7874015748031497,
          "duration": 0.06469288541666174
        },
        {
          "name": "F#7",
          "midi": 102,
          "time": 167.5008452395816,
          "velocity": 0.7874015748031497,
          "duration": 0.06469288541666174
        },
        {
          "name": "C#5",
          "midi": 73,
          "time": 167.63132749999826,
          "velocity": 0.7874015748031497,
          "duration": 0.06578937500000848
        },
        {
          "name": "F#5",
          "midi": 78,
          "time": 167.63132749999826,
          "velocity": 0.7874015748031497,
          "duration": 0.06578937500000848
        },
        {
          "name": "C#6",
          "midi": 85,
          "time": 167.63132749999826,
          "velocity": 0.7874015748031497,
          "duration": 0.06578937500000848
        },
        {
          "name": "F#6",
          "midi": 90,
          "time": 167.63132749999826,
          "velocity": 0.7874015748031497,
          "duration": 0.06578937500000848
        },
        {
          "name": "C#7",
          "midi": 97,
          "time": 167.63132749999826,
          "velocity": 0.7874015748031497,
          "duration": 0.06578937500000848
        },
        {
          "name": "F#7",
          "midi": 102,
          "time": 167.63132749999826,
          "velocity": 0.7874015748031497,
          "duration": 0.06578937500000848
        },
        {
          "name": "C#7",
          "midi": 97,
          "time": 167.7640027395816,
          "velocity": 0.7874015748031497,
          "duration": 0.06469288541666174
        },
        {
          "name": "F#7",
          "midi": 102,
          "time": 167.7640027395816,
          "velocity": 0.7874015748031497,
          "duration": 0.06469288541666174
        },
        {
          "name": "C#4",
          "midi": 61,
          "time": 167.89448499999827,
          "velocity": 0.7874015748031497,
          "duration": 0.06578937500000848
        },
        {
          "name": "F#4",
          "midi": 66,
          "time": 167.89448499999827,
          "velocity": 0.7874015748031497,
          "duration": 0.06578937500000848
        },
        {
          "name": "C#5",
          "midi": 73,
          "time": 167.89448499999827,
          "velocity": 0.7874015748031497,
          "duration": 0.06578937500000848
        },
        {
          "name": "D5",
          "midi": 74,
          "time": 167.89448499999827,
          "velocity": 0.7874015748031497,
          "duration": 0.06578937500000848
        },
        {
          "name": "F#5",
          "midi": 78,
          "time": 167.89448499999827,
          "velocity": 0.7874015748031497,
          "duration": 0.06578937500000848
        },
        {
          "name": "C#6",
          "midi": 85,
          "time": 167.89448499999827,
          "velocity": 0.7874015748031497,
          "duration": 0.06578937500000848
        },
        {
          "name": "D#6",
          "midi": 87,
          "time": 167.89448499999827,
          "velocity": 0.7874015748031497,
          "duration": 0.06578937500000848
        },
        {
          "name": "F#6",
          "midi": 90,
          "time": 167.89448499999827,
          "velocity": 0.7874015748031497,
          "duration": 0.06578937500000848
        },
        {
          "name": "C#7",
          "midi": 97,
          "time": 167.89448499999827,
          "velocity": 0.7874015748031497,
          "duration": 0.06578937500000848
        },
        {
          "name": "D7",
          "midi": 98,
          "time": 167.89448499999827,
          "velocity": 0.7874015748031497,
          "duration": 0.06578937500000848
        },
        {
          "name": "D#7",
          "midi": 99,
          "time": 167.89448499999827,
          "velocity": 0.7874015748031497,
          "duration": 0.06578937500000848
        },
        {
          "name": "F#7",
          "midi": 102,
          "time": 167.89448499999827,
          "velocity": 0.7874015748031497,
          "duration": 0.06578937500000848
        },
        {
          "name": "D6",
          "midi": 86,
          "time": 168.15873898958162,
          "velocity": 0.7874015748031497,
          "duration": 0.06469288541666174
        },
        {
          "name": "F#6",
          "midi": 90,
          "time": 168.15873898958162,
          "velocity": 0.7874015748031497,
          "duration": 0.06469288541666174
        },
        {
          "name": "D7",
          "midi": 98,
          "time": 168.15873898958162,
          "velocity": 0.7874015748031497,
          "duration": 0.06469288541666174
        },
        {
          "name": "F#7",
          "midi": 102,
          "time": 168.15873898958162,
          "velocity": 0.7874015748031497,
          "duration": 0.06469288541666174
        },
        {
          "name": "D7",
          "midi": 98,
          "time": 168.2892212499983,
          "velocity": 0.7874015748031497,
          "duration": 0.06469288541666174
        },
        {
          "name": "F#7",
          "midi": 102,
          "time": 168.2892212499983,
          "velocity": 0.7874015748031497,
          "duration": 0.06469288541666174
        },
        {
          "name": "G#8",
          "midi": 116,
          "time": 168.42079999999828,
          "velocity": 0.7874015748031497,
          "duration": 2.171049375000024
        },
        {
          "name": "C#4",
          "midi": 61,
          "time": 168.42079999999828,
          "velocity": 0.7874015748031497,
          "duration": 0.06578937500000848
        },
        {
          "name": "F#4",
          "midi": 66,
          "time": 168.42079999999828,
          "velocity": 0.7874015748031497,
          "duration": 0.06578937500000848
        },
        {
          "name": "D5",
          "midi": 74,
          "time": 168.42079999999828,
          "velocity": 0.7874015748031497,
          "duration": 0.06578937500000848
        },
        {
          "name": "F#5",
          "midi": 78,
          "time": 168.42079999999828,
          "velocity": 0.7874015748031497,
          "duration": 0.06578937500000848
        },
        {
          "name": "D6",
          "midi": 86,
          "time": 168.42079999999828,
          "velocity": 0.7874015748031497,
          "duration": 0.06578937500000848
        },
        {
          "name": "F#6",
          "midi": 90,
          "time": 168.42079999999828,
          "velocity": 0.7874015748031497,
          "duration": 0.06578937500000848
        },
        {
          "name": "D7",
          "midi": 98,
          "time": 168.42079999999828,
          "velocity": 0.7874015748031497,
          "duration": 0.06578937500000848
        },
        {
          "name": "F#7",
          "midi": 102,
          "time": 168.42079999999828,
          "velocity": 0.7874015748031497,
          "duration": 0.06578937500000848
        },
        {
          "name": "D7",
          "midi": 98,
          "time": 168.55347523958162,
          "velocity": 0.7874015748031497,
          "duration": 0.06469288541666174
        },
        {
          "name": "F#7",
          "midi": 102,
          "time": 168.55347523958162,
          "velocity": 0.7874015748031497,
          "duration": 0.06469288541666174
        },
        {
          "name": "D5",
          "midi": 74,
          "time": 168.6839574999983,
          "velocity": 0.7874015748031497,
          "duration": 0.06578937500000848
        },
        {
          "name": "F#5",
          "midi": 78,
          "time": 168.6839574999983,
          "velocity": 0.7874015748031497,
          "duration": 0.06578937500000848
        },
        {
          "name": "D6",
          "midi": 86,
          "time": 168.6839574999983,
          "velocity": 0.7874015748031497,
          "duration": 0.06578937500000848
        },
        {
          "name": "F#6",
          "midi": 90,
          "time": 168.6839574999983,
          "velocity": 0.7874015748031497,
          "duration": 0.06578937500000848
        },
        {
          "name": "D7",
          "midi": 98,
          "time": 168.6839574999983,
          "velocity": 0.7874015748031497,
          "duration": 0.06578937500000848
        },
        {
          "name": "F#7",
          "midi": 102,
          "time": 168.6839574999983,
          "velocity": 0.7874015748031497,
          "duration": 0.06578937500000848
        },
        {
          "name": "D7",
          "midi": 98,
          "time": 168.81663273958162,
          "velocity": 0.7874015748031497,
          "duration": 0.06469288541666174
        },
        {
          "name": "F#7",
          "midi": 102,
          "time": 168.81663273958162,
          "velocity": 0.7874015748031497,
          "duration": 0.06469288541666174
        },
        {
          "name": "D4",
          "midi": 62,
          "time": 168.9471149999983,
          "velocity": 0.7874015748031497,
          "duration": 0.06578937500000848
        },
        {
          "name": "F#4",
          "midi": 66,
          "time": 168.9471149999983,
          "velocity": 0.7874015748031497,
          "duration": 0.06578937500000848
        },
        {
          "name": "D5",
          "midi": 74,
          "time": 168.9471149999983,
          "velocity": 0.7874015748031497,
          "duration": 0.06578937500000848
        },
        {
          "name": "D#5",
          "midi": 75,
          "time": 168.9471149999983,
          "velocity": 0.7874015748031497,
          "duration": 0.06578937500000848
        },
        {
          "name": "F#5",
          "midi": 78,
          "time": 168.9471149999983,
          "velocity": 0.7874015748031497,
          "duration": 0.06578937500000848
        },
        {
          "name": "D6",
          "midi": 86,
          "time": 168.9471149999983,
          "velocity": 0.7874015748031497,
          "duration": 0.06578937500000848
        },
        {
          "name": "E6",
          "midi": 88,
          "time": 168.9471149999983,
          "velocity": 0.7874015748031497,
          "duration": 0.06578937500000848
        },
        {
          "name": "F#6",
          "midi": 90,
          "time": 168.9471149999983,
          "velocity": 0.7874015748031497,
          "duration": 0.06578937500000848
        },
        {
          "name": "D7",
          "midi": 98,
          "time": 168.9471149999983,
          "velocity": 0.7874015748031497,
          "duration": 0.06578937500000848
        },
        {
          "name": "D#7",
          "midi": 99,
          "time": 168.9471149999983,
          "velocity": 0.7874015748031497,
          "duration": 0.06578937500000848
        },
        {
          "name": "E7",
          "midi": 100,
          "time": 168.9471149999983,
          "velocity": 0.7874015748031497,
          "duration": 0.06578937500000848
        },
        {
          "name": "F#7",
          "midi": 102,
          "time": 168.9471149999983,
          "velocity": 0.7874015748031497,
          "duration": 0.06578937500000848
        },
        {
          "name": "D6",
          "midi": 86,
          "time": 169.21136898958164,
          "velocity": 0.7874015748031497,
          "duration": 0.06469288541666174
        },
        {
          "name": "F#6",
          "midi": 90,
          "time": 169.21136898958164,
          "velocity": 0.7874015748031497,
          "duration": 0.06469288541666174
        },
        {
          "name": "D7",
          "midi": 98,
          "time": 169.21136898958164,
          "velocity": 0.7874015748031497,
          "duration": 0.06469288541666174
        },
        {
          "name": "F#7",
          "midi": 102,
          "time": 169.21136898958164,
          "velocity": 0.7874015748031497,
          "duration": 0.06469288541666174
        },
        {
          "name": "D7",
          "midi": 98,
          "time": 169.3418512499983,
          "velocity": 0.7874015748031497,
          "duration": 0.06469288541666174
        },
        {
          "name": "F#7",
          "midi": 102,
          "time": 169.3418512499983,
          "velocity": 0.7874015748031497,
          "duration": 0.06469288541666174
        },
        {
          "name": "C#4",
          "midi": 61,
          "time": 169.4734299999983,
          "velocity": 0.7874015748031497,
          "duration": 0.06578937500000848
        },
        {
          "name": "F#4",
          "midi": 66,
          "time": 169.4734299999983,
          "velocity": 0.7874015748031497,
          "duration": 0.06578937500000848
        },
        {
          "name": "D5",
          "midi": 74,
          "time": 169.4734299999983,
          "velocity": 0.7874015748031497,
          "duration": 0.06578937500000848
        },
        {
          "name": "F#5",
          "midi": 78,
          "time": 169.4734299999983,
          "velocity": 0.7874015748031497,
          "duration": 0.06578937500000848
        },
        {
          "name": "D6",
          "midi": 86,
          "time": 169.4734299999983,
          "velocity": 0.7874015748031497,
          "duration": 0.06578937500000848
        },
        {
          "name": "F#6",
          "midi": 90,
          "time": 169.4734299999983,
          "velocity": 0.7874015748031497,
          "duration": 0.06578937500000848
        },
        {
          "name": "D7",
          "midi": 98,
          "time": 169.4734299999983,
          "velocity": 0.7874015748031497,
          "duration": 0.06578937500000848
        },
        {
          "name": "F#7",
          "midi": 102,
          "time": 169.4734299999983,
          "velocity": 0.7874015748031497,
          "duration": 0.06578937500000848
        },
        {
          "name": "D7",
          "midi": 98,
          "time": 169.60500874999832,
          "velocity": 0.7874015748031497,
          "duration": 0.06578937500000848
        },
        {
          "name": "F#7",
          "midi": 102,
          "time": 169.60500874999832,
          "velocity": 0.7874015748031497,
          "duration": 0.06578937500000848
        },
        {
          "name": "D5",
          "midi": 74,
          "time": 169.73768398958165,
          "velocity": 0.7874015748031497,
          "duration": 0.06469288541666174
        },
        {
          "name": "F#5",
          "midi": 78,
          "time": 169.73768398958165,
          "velocity": 0.7874015748031497,
          "duration": 0.06469288541666174
        },
        {
          "name": "D6",
          "midi": 86,
          "time": 169.73768398958165,
          "velocity": 0.7874015748031497,
          "duration": 0.06469288541666174
        },
        {
          "name": "F#6",
          "midi": 90,
          "time": 169.73768398958165,
          "velocity": 0.7874015748031497,
          "duration": 0.06469288541666174
        },
        {
          "name": "D7",
          "midi": 98,
          "time": 169.73768398958165,
          "velocity": 0.7874015748031497,
          "duration": 0.06469288541666174
        },
        {
          "name": "F#7",
          "midi": 102,
          "time": 169.73768398958165,
          "velocity": 0.7874015748031497,
          "duration": 0.06469288541666174
        },
        {
          "name": "D7",
          "midi": 98,
          "time": 169.86816624999832,
          "velocity": 0.7874015748031497,
          "duration": 0.06469288541666174
        },
        {
          "name": "F#7",
          "midi": 102,
          "time": 169.86816624999832,
          "velocity": 0.7874015748031497,
          "duration": 0.06469288541666174
        },
        {
          "name": "D4",
          "midi": 62,
          "time": 169.9997449999983,
          "velocity": 0.7874015748031497,
          "duration": 0.06469288541666174
        },
        {
          "name": "F#4",
          "midi": 66,
          "time": 169.9997449999983,
          "velocity": 0.7874015748031497,
          "duration": 0.06469288541666174
        },
        {
          "name": "D5",
          "midi": 74,
          "time": 169.9997449999983,
          "velocity": 0.7874015748031497,
          "duration": 0.06469288541666174
        },
        {
          "name": "D#5",
          "midi": 75,
          "time": 169.9997449999983,
          "velocity": 0.7874015748031497,
          "duration": 0.06469288541666174
        },
        {
          "name": "F#5",
          "midi": 78,
          "time": 169.9997449999983,
          "velocity": 0.7874015748031497,
          "duration": 0.06469288541666174
        },
        {
          "name": "D6",
          "midi": 86,
          "time": 169.9997449999983,
          "velocity": 0.7874015748031497,
          "duration": 0.06469288541666174
        },
        {
          "name": "E6",
          "midi": 88,
          "time": 169.9997449999983,
          "velocity": 0.7874015748031497,
          "duration": 0.06469288541666174
        },
        {
          "name": "F#6",
          "midi": 90,
          "time": 169.9997449999983,
          "velocity": 0.7874015748031497,
          "duration": 0.06469288541666174
        },
        {
          "name": "D7",
          "midi": 98,
          "time": 169.9997449999983,
          "velocity": 0.7874015748031497,
          "duration": 0.06469288541666174
        },
        {
          "name": "D#7",
          "midi": 99,
          "time": 169.9997449999983,
          "velocity": 0.7874015748031497,
          "duration": 0.06469288541666174
        },
        {
          "name": "E7",
          "midi": 100,
          "time": 169.9997449999983,
          "velocity": 0.7874015748031497,
          "duration": 0.06469288541666174
        },
        {
          "name": "F#7",
          "midi": 102,
          "time": 169.9997449999983,
          "velocity": 0.7874015748031497,
          "duration": 0.06469288541666174
        },
        {
          "name": "D6",
          "midi": 86,
          "time": 170.26399898958164,
          "velocity": 0.7874015748031497,
          "duration": 0.06469288541666174
        },
        {
          "name": "F#6",
          "midi": 90,
          "time": 170.26399898958164,
          "velocity": 0.7874015748031497,
          "duration": 0.06469288541666174
        },
        {
          "name": "D7",
          "midi": 98,
          "time": 170.26399898958164,
          "velocity": 0.7874015748031497,
          "duration": 0.06469288541666174
        },
        {
          "name": "F#7",
          "midi": 102,
          "time": 170.26399898958164,
          "velocity": 0.7874015748031497,
          "duration": 0.06469288541666174
        },
        {
          "name": "D7",
          "midi": 98,
          "time": 170.3944812499983,
          "velocity": 0.7874015748031497,
          "duration": 0.06469288541666174
        },
        {
          "name": "F#7",
          "midi": 102,
          "time": 170.3944812499983,
          "velocity": 0.7874015748031497,
          "duration": 0.06469288541666174
        },
        {
          "name": "C#4",
          "midi": 61,
          "time": 170.5260599999983,
          "velocity": 0.7874015748031497,
          "duration": 0.06578937500000848
        },
        {
          "name": "D4",
          "midi": 62,
          "time": 170.5260599999983,
          "velocity": 0.7874015748031497,
          "duration": 0.06578937500000848
        },
        {
          "name": "F#4",
          "midi": 66,
          "time": 170.5260599999983,
          "velocity": 0.7874015748031497,
          "duration": 0.06578937500000848
        },
        {
          "name": "D5",
          "midi": 74,
          "time": 170.5260599999983,
          "velocity": 0.7874015748031497,
          "duration": 0.06578937500000848
        },
        {
          "name": "D#5",
          "midi": 75,
          "time": 170.5260599999983,
          "velocity": 0.7874015748031497,
          "duration": 0.06578937500000848
        },
        {
          "name": "F#5",
          "midi": 78,
          "time": 170.5260599999983,
          "velocity": 0.7874015748031497,
          "duration": 0.06578937500000848
        },
        {
          "name": "D6",
          "midi": 86,
          "time": 170.5260599999983,
          "velocity": 0.7874015748031497,
          "duration": 0.06578937500000848
        },
        {
          "name": "E6",
          "midi": 88,
          "time": 170.5260599999983,
          "velocity": 0.7874015748031497,
          "duration": 0.06578937500000848
        },
        {
          "name": "F#6",
          "midi": 90,
          "time": 170.5260599999983,
          "velocity": 0.7874015748031497,
          "duration": 0.06578937500000848
        },
        {
          "name": "D7",
          "midi": 98,
          "time": 170.5260599999983,
          "velocity": 0.7874015748031497,
          "duration": 0.06578937500000848
        },
        {
          "name": "D#7",
          "midi": 99,
          "time": 170.5260599999983,
          "velocity": 0.7874015748031497,
          "duration": 0.06578937500000848
        },
        {
          "name": "E7",
          "midi": 100,
          "time": 170.5260599999983,
          "velocity": 0.7874015748031497,
          "duration": 0.06578937500000848
        },
        {
          "name": "F#7",
          "midi": 102,
          "time": 170.5260599999983,
          "velocity": 0.7874015748031497,
          "duration": 0.06578937500000848
        },
        {
          "name": "C4",
          "midi": 60,
          "time": 172.6313199999983,
          "velocity": 0.7874015748031497,
          "duration": 0.06469288541666174
        },
        {
          "name": "F#4",
          "midi": 66,
          "time": 172.6313199999983,
          "velocity": 0.7874015748031497,
          "duration": 0.06469288541666174
        },
        {
          "name": "C#5",
          "midi": 73,
          "time": 172.6313199999983,
          "velocity": 0.7874015748031497,
          "duration": 0.06469288541666174
        },
        {
          "name": "F#5",
          "midi": 78,
          "time": 172.6313199999983,
          "velocity": 0.7874015748031497,
          "duration": 0.06469288541666174
        },
        {
          "name": "C#6",
          "midi": 85,
          "time": 172.6313199999983,
          "velocity": 0.7874015748031497,
          "duration": 0.06469288541666174
        },
        {
          "name": "F#6",
          "midi": 90,
          "time": 172.6313199999983,
          "velocity": 0.7874015748031497,
          "duration": 0.06469288541666174
        },
        {
          "name": "C#7",
          "midi": 97,
          "time": 172.6313199999983,
          "velocity": 0.7874015748031497,
          "duration": 0.06469288541666174
        },
        {
          "name": "F#7",
          "midi": 102,
          "time": 172.6313199999983,
          "velocity": 0.7874015748031497,
          "duration": 0.06469288541666174
        },
        {
          "name": "C#7",
          "midi": 97,
          "time": 173.0260562499983,
          "velocity": 0.7874015748031497,
          "duration": 0.06578937500000848
        },
        {
          "name": "F#7",
          "midi": 102,
          "time": 173.0260562499983,
          "velocity": 0.7874015748031497,
          "duration": 0.06578937500000848
        },
        {
          "name": "D7",
          "midi": 98,
          "time": 173.09294211458166,
          "velocity": 0.7874015748031497,
          "duration": 0.06469288541666174
        },
        {
          "name": "F7",
          "midi": 101,
          "time": 173.09294211458166,
          "velocity": 0.7874015748031497,
          "duration": 0.06469288541666174
        },
        {
          "name": "C#4",
          "midi": 61,
          "time": 173.15763499999832,
          "velocity": 0.7874015748031497,
          "duration": 0.06688586458332679
        },
        {
          "name": "F#4",
          "midi": 66,
          "time": 173.15763499999832,
          "velocity": 0.7874015748031497,
          "duration": 0.06688586458332679
        },
        {
          "name": "C#5",
          "midi": 73,
          "time": 173.15763499999832,
          "velocity": 0.7874015748031497,
          "duration": 0.06688586458332679
        },
        {
          "name": "D5",
          "midi": 74,
          "time": 173.15763499999832,
          "velocity": 0.7874015748031497,
          "duration": 0.06688586458332679
        },
        {
          "name": "F#5",
          "midi": 78,
          "time": 173.15763499999832,
          "velocity": 0.7874015748031497,
          "duration": 0.06688586458332679
        },
        {
          "name": "D6",
          "midi": 86,
          "time": 173.15763499999832,
          "velocity": 0.7874015748031497,
          "duration": 0.06688586458332679
        },
        {
          "name": "D#6",
          "midi": 87,
          "time": 173.15763499999832,
          "velocity": 0.7874015748031497,
          "duration": 0.06688586458332679
        },
        {
          "name": "F#6",
          "midi": 90,
          "time": 173.15763499999832,
          "velocity": 0.7874015748031497,
          "duration": 0.06688586458332679
        },
        {
          "name": "D#7",
          "midi": 99,
          "time": 173.15763499999832,
          "velocity": 0.7874015748031497,
          "duration": 0.06688586458332679
        },
        {
          "name": "F7",
          "midi": 101,
          "time": 173.15763499999832,
          "velocity": 0.7874015748031497,
          "duration": 0.06688586458332679
        },
        {
          "name": "C4",
          "midi": 60,
          "time": 173.6839499999983,
          "velocity": 0.7874015748031497,
          "duration": 0.06578937500000848
        },
        {
          "name": "F#4",
          "midi": 66,
          "time": 173.6839499999983,
          "velocity": 0.7874015748031497,
          "duration": 0.06578937500000848
        },
        {
          "name": "C#5",
          "midi": 73,
          "time": 173.6839499999983,
          "velocity": 0.7874015748031497,
          "duration": 0.06578937500000848
        },
        {
          "name": "F#5",
          "midi": 78,
          "time": 173.6839499999983,
          "velocity": 0.7874015748031497,
          "duration": 0.06578937500000848
        },
        {
          "name": "C#6",
          "midi": 85,
          "time": 173.6839499999983,
          "velocity": 0.7874015748031497,
          "duration": 0.06578937500000848
        },
        {
          "name": "F#6",
          "midi": 90,
          "time": 173.6839499999983,
          "velocity": 0.7874015748031497,
          "duration": 0.06578937500000848
        },
        {
          "name": "C#7",
          "midi": 97,
          "time": 173.6839499999983,
          "velocity": 0.7874015748031497,
          "duration": 0.06578937500000848
        },
        {
          "name": "F#7",
          "midi": 102,
          "time": 173.6839499999983,
          "velocity": 0.7874015748031497,
          "duration": 0.06578937500000848
        },
        {
          "name": "C#4",
          "midi": 61,
          "time": 174.21026499999832,
          "velocity": 0.7874015748031497,
          "duration": 0.06578937500000848
        },
        {
          "name": "F#4",
          "midi": 66,
          "time": 174.21026499999832,
          "velocity": 0.7874015748031497,
          "duration": 0.06578937500000848
        },
        {
          "name": "C#5",
          "midi": 73,
          "time": 174.21026499999832,
          "velocity": 0.7874015748031497,
          "duration": 0.06578937500000848
        },
        {
          "name": "D5",
          "midi": 74,
          "time": 174.21026499999832,
          "velocity": 0.7874015748031497,
          "duration": 0.06578937500000848
        },
        {
          "name": "F#5",
          "midi": 78,
          "time": 174.21026499999832,
          "velocity": 0.7874015748031497,
          "duration": 0.06578937500000848
        },
        {
          "name": "D6",
          "midi": 86,
          "time": 174.21026499999832,
          "velocity": 0.7874015748031497,
          "duration": 0.06578937500000848
        },
        {
          "name": "D#6",
          "midi": 87,
          "time": 174.21026499999832,
          "velocity": 0.7874015748031497,
          "duration": 0.06578937500000848
        },
        {
          "name": "F#6",
          "midi": 90,
          "time": 174.21026499999832,
          "velocity": 0.7874015748031497,
          "duration": 0.06578937500000848
        },
        {
          "name": "D7",
          "midi": 98,
          "time": 174.21026499999832,
          "velocity": 0.7874015748031497,
          "duration": 0.06578937500000848
        },
        {
          "name": "D#7",
          "midi": 99,
          "time": 174.21026499999832,
          "velocity": 0.7874015748031497,
          "duration": 0.06578937500000848
        },
        {
          "name": "F#7",
          "midi": 102,
          "time": 174.21026499999832,
          "velocity": 0.7874015748031497,
          "duration": 0.06578937500000848
        },
        {
          "name": "C4",
          "midi": 60,
          "time": 174.73657999999833,
          "velocity": 0.7874015748031497,
          "duration": 0.5252185104167211
        },
        {
          "name": "F#4",
          "midi": 66,
          "time": 174.73657999999833,
          "velocity": 0.7874015748031497,
          "duration": 0.5241220208333743
        },
        {
          "name": "C#5",
          "midi": 73,
          "time": 174.73657999999833,
          "velocity": 0.7874015748031497,
          "duration": 0.5252185104167211
        },
        {
          "name": "F#5",
          "midi": 78,
          "time": 174.73657999999833,
          "velocity": 0.7874015748031497,
          "duration": 0.5241220208333743
        },
        {
          "name": "C#6",
          "midi": 85,
          "time": 174.73657999999833,
          "velocity": 0.7874015748031497,
          "duration": 0.5252185104167211
        },
        {
          "name": "F#6",
          "midi": 90,
          "time": 174.73657999999833,
          "velocity": 0.7874015748031497,
          "duration": 0.5241220208333743
        },
        {
          "name": "C#7",
          "midi": 97,
          "time": 174.73657999999833,
          "velocity": 0.7874015748031497,
          "duration": 0.3936397604166757
        },
        {
          "name": "F#7",
          "midi": 102,
          "time": 174.73657999999833,
          "velocity": 0.7874015748031497,
          "duration": 0.39254327083332896
        },
        {
          "name": "C#7",
          "midi": 97,
          "time": 175.13131624999835,
          "velocity": 0.7874015748031497,
          "duration": 0.06469288541666174
        },
        {
          "name": "F#7",
          "midi": 102,
          "time": 175.13131624999835,
          "velocity": 0.7874015748031497,
          "duration": 0.06469288541666174
        },
        {
          "name": "D7",
          "midi": 98,
          "time": 175.19710562499836,
          "velocity": 0.7874015748031497,
          "duration": 0.06469288541669016
        },
        {
          "name": "F7",
          "midi": 101,
          "time": 175.19710562499836,
          "velocity": 0.7874015748031497,
          "duration": 0.06359639583334342
        },
        {
          "name": "C#4",
          "midi": 61,
          "time": 175.2628949999984,
          "velocity": 0.7874015748031497,
          "duration": 0.06578937500000848
        },
        {
          "name": "F#4",
          "midi": 66,
          "time": 175.2628949999984,
          "velocity": 0.7874015748031497,
          "duration": 0.06578937500000848
        },
        {
          "name": "C#5",
          "midi": 73,
          "time": 175.2628949999984,
          "velocity": 0.7874015748031497,
          "duration": 0.06578937500000848
        },
        {
          "name": "D5",
          "midi": 74,
          "time": 175.2628949999984,
          "velocity": 0.7874015748031497,
          "duration": 0.06578937500000848
        },
        {
          "name": "F#5",
          "midi": 78,
          "time": 175.2628949999984,
          "velocity": 0.7874015748031497,
          "duration": 0.06578937500000848
        },
        {
          "name": "D6",
          "midi": 86,
          "time": 175.2628949999984,
          "velocity": 0.7874015748031497,
          "duration": 0.06578937500000848
        },
        {
          "name": "D#6",
          "midi": 87,
          "time": 175.2628949999984,
          "velocity": 0.7874015748031497,
          "duration": 0.06578937500000848
        },
        {
          "name": "F#6",
          "midi": 90,
          "time": 175.2628949999984,
          "velocity": 0.7874015748031497,
          "duration": 0.06578937500000848
        },
        {
          "name": "D#7",
          "midi": 99,
          "time": 175.2628949999984,
          "velocity": 0.7874015748031497,
          "duration": 0.06578937500000848
        },
        {
          "name": "F7",
          "midi": 101,
          "time": 175.2628949999984,
          "velocity": 0.7874015748031497,
          "duration": 0.06578937500000848
        },
        {
          "name": "C4",
          "midi": 60,
          "time": 175.7892099999984,
          "velocity": 0.7874015748031497,
          "duration": 0.06469288541666174
        },
        {
          "name": "F#4",
          "midi": 66,
          "time": 175.7892099999984,
          "velocity": 0.7874015748031497,
          "duration": 0.06469288541666174
        },
        {
          "name": "C#5",
          "midi": 73,
          "time": 175.7892099999984,
          "velocity": 0.7874015748031497,
          "duration": 0.06469288541666174
        },
        {
          "name": "F#5",
          "midi": 78,
          "time": 175.7892099999984,
          "velocity": 0.7874015748031497,
          "duration": 0.06469288541666174
        },
        {
          "name": "C#6",
          "midi": 85,
          "time": 175.7892099999984,
          "velocity": 0.7874015748031497,
          "duration": 0.06469288541666174
        },
        {
          "name": "F#6",
          "midi": 90,
          "time": 175.7892099999984,
          "velocity": 0.7874015748031497,
          "duration": 0.06469288541666174
        },
        {
          "name": "C#7",
          "midi": 97,
          "time": 175.7892099999984,
          "velocity": 0.7874015748031497,
          "duration": 0.06469288541666174
        },
        {
          "name": "F#7",
          "midi": 102,
          "time": 175.7892099999984,
          "velocity": 0.7874015748031497,
          "duration": 0.06469288541666174
        },
        {
          "name": "C#4",
          "midi": 61,
          "time": 176.3155249999984,
          "velocity": 0.7874015748031497,
          "duration": 0.06578937500000848
        },
        {
          "name": "F#4",
          "midi": 66,
          "time": 176.3155249999984,
          "velocity": 0.7874015748031497,
          "duration": 0.06578937500000848
        },
        {
          "name": "C#5",
          "midi": 73,
          "time": 176.3155249999984,
          "velocity": 0.7874015748031497,
          "duration": 0.06578937500000848
        },
        {
          "name": "D5",
          "midi": 74,
          "time": 176.3155249999984,
          "velocity": 0.7874015748031497,
          "duration": 0.06578937500000848
        },
        {
          "name": "F#5",
          "midi": 78,
          "time": 176.3155249999984,
          "velocity": 0.7874015748031497,
          "duration": 0.06578937500000848
        },
        {
          "name": "D6",
          "midi": 86,
          "time": 176.3155249999984,
          "velocity": 0.7874015748031497,
          "duration": 0.06578937500000848
        },
        {
          "name": "D#6",
          "midi": 87,
          "time": 176.3155249999984,
          "velocity": 0.7874015748031497,
          "duration": 0.06578937500000848
        },
        {
          "name": "F#6",
          "midi": 90,
          "time": 176.3155249999984,
          "velocity": 0.7874015748031497,
          "duration": 0.06578937500000848
        },
        {
          "name": "D7",
          "midi": 98,
          "time": 176.3155249999984,
          "velocity": 0.7874015748031497,
          "duration": 0.06578937500000848
        },
        {
          "name": "D#7",
          "midi": 99,
          "time": 176.3155249999984,
          "velocity": 0.7874015748031497,
          "duration": 0.06578937500000848
        },
        {
          "name": "F#7",
          "midi": 102,
          "time": 176.3155249999984,
          "velocity": 0.7874015748031497,
          "duration": 0.06578937500000848
        },
        {
          "name": "C#4",
          "midi": 61,
          "time": 176.8418399999984,
          "velocity": 0.7874015748031497,
          "duration": 0.5252185104166927
        },
        {
          "name": "F#4",
          "midi": 66,
          "time": 176.8418399999984,
          "velocity": 0.7874015748031497,
          "duration": 0.5241220208333459
        },
        {
          "name": "D5",
          "midi": 74,
          "time": 176.8418399999984,
          "velocity": 0.7874015748031497,
          "duration": 0.5252185104166927
        },
        {
          "name": "F#5",
          "midi": 78,
          "time": 176.8418399999984,
          "velocity": 0.7874015748031497,
          "duration": 0.5241220208333459
        },
        {
          "name": "D6",
          "midi": 86,
          "time": 176.8418399999984,
          "velocity": 0.7874015748031497,
          "duration": 0.5252185104166927
        },
        {
          "name": "F#6",
          "midi": 90,
          "time": 176.8418399999984,
          "velocity": 0.7874015748031497,
          "duration": 0.5241220208333459
        },
        {
          "name": "D7",
          "midi": 98,
          "time": 176.8418399999984,
          "velocity": 0.7874015748031497,
          "duration": 0.5252185104166927
        },
        {
          "name": "F#7",
          "midi": 102,
          "time": 176.8418399999984,
          "velocity": 0.7874015748031497,
          "duration": 0.5241220208333459
        },
        {
          "name": "D4",
          "midi": 62,
          "time": 177.36815499999844,
          "velocity": 0.7874015748031497,
          "duration": 0.06469288541666174
        },
        {
          "name": "F#4",
          "midi": 66,
          "time": 177.36815499999844,
          "velocity": 0.7874015748031497,
          "duration": 0.06469288541666174
        },
        {
          "name": "D5",
          "midi": 74,
          "time": 177.36815499999844,
          "velocity": 0.7874015748031497,
          "duration": 0.06469288541666174
        },
        {
          "name": "D#5",
          "midi": 75,
          "time": 177.36815499999844,
          "velocity": 0.7874015748031497,
          "duration": 0.06469288541666174
        },
        {
          "name": "F#5",
          "midi": 78,
          "time": 177.36815499999844,
          "velocity": 0.7874015748031497,
          "duration": 0.06469288541666174
        },
        {
          "name": "D6",
          "midi": 86,
          "time": 177.36815499999844,
          "velocity": 0.7874015748031497,
          "duration": 0.06469288541666174
        },
        {
          "name": "E6",
          "midi": 88,
          "time": 177.36815499999844,
          "velocity": 0.7874015748031497,
          "duration": 0.06469288541666174
        },
        {
          "name": "F#6",
          "midi": 90,
          "time": 177.36815499999844,
          "velocity": 0.7874015748031497,
          "duration": 0.06469288541666174
        },
        {
          "name": "D#7",
          "midi": 99,
          "time": 177.36815499999844,
          "velocity": 0.7874015748031497,
          "duration": 0.06469288541666174
        },
        {
          "name": "E7",
          "midi": 100,
          "time": 177.36815499999844,
          "velocity": 0.7874015748031497,
          "duration": 0.06469288541666174
        },
        {
          "name": "F#7",
          "midi": 102,
          "time": 177.36815499999844,
          "velocity": 0.7874015748031497,
          "duration": 0.06469288541666174
        },
        {
          "name": "C#4",
          "midi": 61,
          "time": 177.89446999999842,
          "velocity": 0.7874015748031497,
          "duration": 0.06469288541666174
        },
        {
          "name": "F#4",
          "midi": 66,
          "time": 177.89446999999842,
          "velocity": 0.7874015748031497,
          "duration": 0.06469288541666174
        },
        {
          "name": "D5",
          "midi": 74,
          "time": 177.89446999999842,
          "velocity": 0.7874015748031497,
          "duration": 0.06469288541666174
        },
        {
          "name": "F#5",
          "midi": 78,
          "time": 177.89446999999842,
          "velocity": 0.7874015748031497,
          "duration": 0.06469288541666174
        },
        {
          "name": "D6",
          "midi": 86,
          "time": 177.89446999999842,
          "velocity": 0.7874015748031497,
          "duration": 0.06469288541666174
        },
        {
          "name": "F#6",
          "midi": 90,
          "time": 177.89446999999842,
          "velocity": 0.7874015748031497,
          "duration": 0.06469288541666174
        },
        {
          "name": "D7",
          "midi": 98,
          "time": 177.89446999999842,
          "velocity": 0.7874015748031497,
          "duration": 0.06469288541666174
        },
        {
          "name": "F#7",
          "midi": 102,
          "time": 177.89446999999842,
          "velocity": 0.7874015748031497,
          "duration": 0.06469288541666174
        },
        {
          "name": "D4",
          "midi": 62,
          "time": 178.4207849999984,
          "velocity": 0.7874015748031497,
          "duration": 0.06359639583334342
        },
        {
          "name": "F#4",
          "midi": 66,
          "time": 178.4207849999984,
          "velocity": 0.7874015748031497,
          "duration": 0.06359639583334342
        },
        {
          "name": "D5",
          "midi": 74,
          "time": 178.4207849999984,
          "velocity": 0.7874015748031497,
          "duration": 0.06359639583334342
        },
        {
          "name": "D#5",
          "midi": 75,
          "time": 178.4207849999984,
          "velocity": 0.7874015748031497,
          "duration": 0.06359639583334342
        },
        {
          "name": "F#5",
          "midi": 78,
          "time": 178.4207849999984,
          "velocity": 0.7874015748031497,
          "duration": 0.06359639583334342
        },
        {
          "name": "D#6",
          "midi": 87,
          "time": 178.4207849999984,
          "velocity": 0.7874015748031497,
          "duration": 0.06359639583334342
        },
        {
          "name": "E6",
          "midi": 88,
          "time": 178.4207849999984,
          "velocity": 0.7874015748031497,
          "duration": 0.06359639583334342
        },
        {
          "name": "F#6",
          "midi": 90,
          "time": 178.4207849999984,
          "velocity": 0.7874015748031497,
          "duration": 0.06359639583334342
        },
        {
          "name": "D#7",
          "midi": 99,
          "time": 178.4207849999984,
          "velocity": 0.7874015748031497,
          "duration": 0.06359639583334342
        },
        {
          "name": "E7",
          "midi": 100,
          "time": 178.4207849999984,
          "velocity": 0.7874015748031497,
          "duration": 0.06359639583334342
        },
        {
          "name": "F#7",
          "midi": 102,
          "time": 178.4207849999984,
          "velocity": 0.7874015748031497,
          "duration": 0.06359639583334342
        },
        {
          "name": "C#4",
          "midi": 61,
          "time": 178.94709999999841,
          "velocity": 0.7874015748031497,
          "duration": 0.06469288541666174
        },
        {
          "name": "D4",
          "midi": 62,
          "time": 178.94709999999841,
          "velocity": 0.7874015748031497,
          "duration": 0.06469288541666174
        },
        {
          "name": "F#4",
          "midi": 66,
          "time": 178.94709999999841,
          "velocity": 0.7874015748031497,
          "duration": 0.06469288541666174
        },
        {
          "name": "D5",
          "midi": 74,
          "time": 178.94709999999841,
          "velocity": 0.7874015748031497,
          "duration": 0.06469288541666174
        },
        {
          "name": "D#5",
          "midi": 75,
          "time": 178.94709999999841,
          "velocity": 0.7874015748031497,
          "duration": 0.06469288541666174
        },
        {
          "name": "F#5",
          "midi": 78,
          "time": 178.94709999999841,
          "velocity": 0.7874015748031497,
          "duration": 0.06469288541666174
        },
        {
          "name": "D#6",
          "midi": 87,
          "time": 178.94709999999841,
          "velocity": 0.7874015748031497,
          "duration": 0.06469288541666174
        },
        {
          "name": "E6",
          "midi": 88,
          "time": 178.94709999999841,
          "velocity": 0.7874015748031497,
          "duration": 0.06469288541666174
        },
        {
          "name": "F#6",
          "midi": 90,
          "time": 178.94709999999841,
          "velocity": 0.7874015748031497,
          "duration": 0.06469288541666174
        },
        {
          "name": "D#7",
          "midi": 99,
          "time": 178.94709999999841,
          "velocity": 0.7874015748031497,
          "duration": 0.06469288541666174
        },
        {
          "name": "E7",
          "midi": 100,
          "time": 178.94709999999841,
          "velocity": 0.7874015748031497,
          "duration": 0.06469288541666174
        },
        {
          "name": "F#7",
          "midi": 102,
          "time": 178.94709999999841,
          "velocity": 0.7874015748031497,
          "duration": 0.06469288541666174
        },
        {
          "name": "C4",
          "midi": 60,
          "time": 183.15761999999842,
          "velocity": 0.7874015748031497,
          "duration": 0.526315000000011
        },
        {
          "name": "C#4",
          "midi": 61,
          "time": 183.15761999999842,
          "velocity": 0.7874015748031497,
          "duration": 0.526315000000011
        },
        {
          "name": "F#4",
          "midi": 66,
          "time": 183.15761999999842,
          "velocity": 0.7874015748031497,
          "duration": 0.526315000000011
        },
        {
          "name": "C5",
          "midi": 72,
          "time": 183.15761999999842,
          "velocity": 0.7874015748031497,
          "duration": 0.526315000000011
        },
        {
          "name": "D5",
          "midi": 74,
          "time": 183.15761999999842,
          "velocity": 0.7874015748031497,
          "duration": 0.526315000000011
        },
        {
          "name": "F#5",
          "midi": 78,
          "time": 183.15761999999842,
          "velocity": 0.7874015748031497,
          "duration": 0.526315000000011
        },
        {
          "name": "C6",
          "midi": 84,
          "time": 183.15761999999842,
          "velocity": 0.7874015748031497,
          "duration": 0.526315000000011
        },
        {
          "name": "D#6",
          "midi": 87,
          "time": 183.15761999999842,
          "velocity": 0.7874015748031497,
          "duration": 0.526315000000011
        },
        {
          "name": "F#6",
          "midi": 90,
          "time": 183.15761999999842,
          "velocity": 0.7874015748031497,
          "duration": 0.526315000000011
        },
        {
          "name": "C7",
          "midi": 96,
          "time": 183.15761999999842,
          "velocity": 0.7874015748031497,
          "duration": 0.526315000000011
        },
        {
          "name": "D7",
          "midi": 98,
          "time": 183.15761999999842,
          "velocity": 0.7874015748031497,
          "duration": 0.526315000000011
        },
        {
          "name": "D#7",
          "midi": 99,
          "time": 183.15761999999842,
          "velocity": 0.7874015748031497,
          "duration": 0.526315000000011
        },
        {
          "name": "F#7",
          "midi": 102,
          "time": 183.15761999999842,
          "velocity": 0.7874015748031497,
          "duration": 0.526315000000011
        },
        {
          "name": "C4",
          "midi": 60,
          "time": 183.94818898958175,
          "velocity": 0.7874015748031497,
          "duration": 0.7883760104166697
        },
        {
          "name": "C#4",
          "midi": 61,
          "time": 183.94818898958175,
          "velocity": 0.7874015748031497,
          "duration": 0.7883760104166697
        },
        {
          "name": "F#4",
          "midi": 66,
          "time": 183.94818898958175,
          "velocity": 0.7874015748031497,
          "duration": 0.7883760104166697
        },
        {
          "name": "C5",
          "midi": 72,
          "time": 183.94818898958175,
          "velocity": 0.7874015748031497,
          "duration": 0.7883760104166697
        },
        {
          "name": "D5",
          "midi": 74,
          "time": 183.94818898958175,
          "velocity": 0.7874015748031497,
          "duration": 0.7883760104166697
        },
        {
          "name": "F#5",
          "midi": 78,
          "time": 183.94818898958175,
          "velocity": 0.7874015748031497,
          "duration": 0.7883760104166697
        },
        {
          "name": "C6",
          "midi": 84,
          "time": 183.94818898958175,
          "velocity": 0.7874015748031497,
          "duration": 0.7883760104166697
        },
        {
          "name": "D#6",
          "midi": 87,
          "time": 183.94818898958175,
          "velocity": 0.7874015748031497,
          "duration": 0.7883760104166697
        },
        {
          "name": "F#6",
          "midi": 90,
          "time": 183.94818898958175,
          "velocity": 0.7874015748031497,
          "duration": 0.7883760104166697
        },
        {
          "name": "C7",
          "midi": 96,
          "time": 183.94818898958175,
          "velocity": 0.7874015748031497,
          "duration": 0.7883760104166697
        },
        {
          "name": "D7",
          "midi": 98,
          "time": 183.94818898958175,
          "velocity": 0.7874015748031497,
          "duration": 0.7883760104166697
        },
        {
          "name": "D#7",
          "midi": 99,
          "time": 183.94818898958175,
          "velocity": 0.7874015748031497,
          "duration": 0.7883760104166697
        },
        {
          "name": "F#7",
          "midi": 102,
          "time": 183.94818898958175,
          "velocity": 0.7874015748031497,
          "duration": 0.7883760104166697
        },
        {
          "name": "C4",
          "midi": 60,
          "time": 185.26287999999843,
          "velocity": 0.7874015748031497,
          "duration": 0.5252185104166642
        },
        {
          "name": "C#4",
          "midi": 61,
          "time": 185.26287999999843,
          "velocity": 0.7874015748031497,
          "duration": 0.5252185104166642
        },
        {
          "name": "F#4",
          "midi": 66,
          "time": 185.26287999999843,
          "velocity": 0.7874015748031497,
          "duration": 0.5252185104166642
        },
        {
          "name": "C5",
          "midi": 72,
          "time": 185.26287999999843,
          "velocity": 0.7874015748031497,
          "duration": 0.5252185104166642
        },
        {
          "name": "D5",
          "midi": 74,
          "time": 185.26287999999843,
          "velocity": 0.7874015748031497,
          "duration": 0.5252185104166642
        },
        {
          "name": "F#5",
          "midi": 78,
          "time": 185.26287999999843,
          "velocity": 0.7874015748031497,
          "duration": 0.5252185104166642
        },
        {
          "name": "C6",
          "midi": 84,
          "time": 185.26287999999843,
          "velocity": 0.7874015748031497,
          "duration": 0.5252185104166642
        },
        {
          "name": "D#6",
          "midi": 87,
          "time": 185.26287999999843,
          "velocity": 0.7874015748031497,
          "duration": 0.5252185104166642
        },
        {
          "name": "F#6",
          "midi": 90,
          "time": 185.26287999999843,
          "velocity": 0.7874015748031497,
          "duration": 0.5252185104166642
        },
        {
          "name": "C7",
          "midi": 96,
          "time": 185.26287999999843,
          "velocity": 0.7874015748031497,
          "duration": 0.5252185104166642
        },
        {
          "name": "D7",
          "midi": 98,
          "time": 185.26287999999843,
          "velocity": 0.7874015748031497,
          "duration": 0.5252185104166642
        },
        {
          "name": "D#7",
          "midi": 99,
          "time": 185.26287999999843,
          "velocity": 0.7874015748031497,
          "duration": 0.5252185104166642
        },
        {
          "name": "F#7",
          "midi": 102,
          "time": 185.26287999999843,
          "velocity": 0.7874015748031497,
          "duration": 0.5252185104166642
        },
        {
          "name": "C4",
          "midi": 60,
          "time": 186.05235249999842,
          "velocity": 0.7874015748031497,
          "duration": 0.7883760104166697
        },
        {
          "name": "C#4",
          "midi": 61,
          "time": 186.05235249999842,
          "velocity": 0.7874015748031497,
          "duration": 0.7883760104166697
        },
        {
          "name": "F#4",
          "midi": 66,
          "time": 186.05235249999842,
          "velocity": 0.7874015748031497,
          "duration": 0.7883760104166697
        },
        {
          "name": "C5",
          "midi": 72,
          "time": 186.05235249999842,
          "velocity": 0.7874015748031497,
          "duration": 0.7883760104166697
        },
        {
          "name": "D5",
          "midi": 74,
          "time": 186.05235249999842,
          "velocity": 0.7874015748031497,
          "duration": 0.7883760104166697
        },
        {
          "name": "F#5",
          "midi": 78,
          "time": 186.05235249999842,
          "velocity": 0.7874015748031497,
          "duration": 0.7883760104166697
        },
        {
          "name": "C6",
          "midi": 84,
          "time": 186.05235249999842,
          "velocity": 0.7874015748031497,
          "duration": 0.7883760104166697
        },
        {
          "name": "D#6",
          "midi": 87,
          "time": 186.05235249999842,
          "velocity": 0.7874015748031497,
          "duration": 0.7883760104166697
        },
        {
          "name": "F#6",
          "midi": 90,
          "time": 186.05235249999842,
          "velocity": 0.7874015748031497,
          "duration": 0.7883760104166697
        },
        {
          "name": "C7",
          "midi": 96,
          "time": 186.05235249999842,
          "velocity": 0.7874015748031497,
          "duration": 0.7883760104166697
        },
        {
          "name": "D7",
          "midi": 98,
          "time": 186.05235249999842,
          "velocity": 0.7874015748031497,
          "duration": 0.7883760104166697
        },
        {
          "name": "D#7",
          "midi": 99,
          "time": 186.05235249999842,
          "velocity": 0.7874015748031497,
          "duration": 0.7883760104166697
        },
        {
          "name": "F#7",
          "midi": 102,
          "time": 186.05235249999842,
          "velocity": 0.7874015748031497,
          "duration": 0.7883760104166697
        },
        {
          "name": "C#4",
          "midi": 61,
          "time": 187.36813999999842,
          "velocity": 0.7874015748031497,
          "duration": 0.526315000000011
        },
        {
          "name": "D4",
          "midi": 62,
          "time": 187.36813999999842,
          "velocity": 0.7874015748031497,
          "duration": 0.526315000000011
        },
        {
          "name": "F#4",
          "midi": 66,
          "time": 187.36813999999842,
          "velocity": 0.7874015748031497,
          "duration": 0.526315000000011
        },
        {
          "name": "C#5",
          "midi": 73,
          "time": 187.36813999999842,
          "velocity": 0.7874015748031497,
          "duration": 0.526315000000011
        },
        {
          "name": "D#5",
          "midi": 75,
          "time": 187.36813999999842,
          "velocity": 0.7874015748031497,
          "duration": 0.526315000000011
        },
        {
          "name": "F#5",
          "midi": 78,
          "time": 187.36813999999842,
          "velocity": 0.7874015748031497,
          "duration": 0.526315000000011
        },
        {
          "name": "C#6",
          "midi": 85,
          "time": 187.36813999999842,
          "velocity": 0.7874015748031497,
          "duration": 0.526315000000011
        },
        {
          "name": "E6",
          "midi": 88,
          "time": 187.36813999999842,
          "velocity": 0.7874015748031497,
          "duration": 0.526315000000011
        },
        {
          "name": "F#6",
          "midi": 90,
          "time": 187.36813999999842,
          "velocity": 0.7874015748031497,
          "duration": 0.526315000000011
        },
        {
          "name": "C#7",
          "midi": 97,
          "time": 187.36813999999842,
          "velocity": 0.7874015748031497,
          "duration": 0.526315000000011
        },
        {
          "name": "D#7",
          "midi": 99,
          "time": 187.36813999999842,
          "velocity": 0.7874015748031497,
          "duration": 0.526315000000011
        },
        {
          "name": "E7",
          "midi": 100,
          "time": 187.36813999999842,
          "velocity": 0.7874015748031497,
          "duration": 0.526315000000011
        },
        {
          "name": "F#7",
          "midi": 102,
          "time": 187.36813999999842,
          "velocity": 0.7874015748031497,
          "duration": 0.526315000000011
        },
        {
          "name": "C#4",
          "midi": 61,
          "time": 188.15761249999844,
          "velocity": 0.7874015748031497,
          "duration": 0.7883760104166697
        },
        {
          "name": "D4",
          "midi": 62,
          "time": 188.15761249999844,
          "velocity": 0.7874015748031497,
          "duration": 0.7883760104166697
        },
        {
          "name": "F#4",
          "midi": 66,
          "time": 188.15761249999844,
          "velocity": 0.7874015748031497,
          "duration": 0.7883760104166697
        },
        {
          "name": "C#5",
          "midi": 73,
          "time": 188.15761249999844,
          "velocity": 0.7874015748031497,
          "duration": 0.7883760104166697
        },
        {
          "name": "D#5",
          "midi": 75,
          "time": 188.15761249999844,
          "velocity": 0.7874015748031497,
          "duration": 0.7883760104166697
        },
        {
          "name": "F#5",
          "midi": 78,
          "time": 188.15761249999844,
          "velocity": 0.7874015748031497,
          "duration": 0.7883760104166697
        },
        {
          "name": "C#6",
          "midi": 85,
          "time": 188.15761249999844,
          "velocity": 0.7874015748031497,
          "duration": 0.7883760104166697
        },
        {
          "name": "E6",
          "midi": 88,
          "time": 188.15761249999844,
          "velocity": 0.7874015748031497,
          "duration": 0.7883760104166697
        },
        {
          "name": "F#6",
          "midi": 90,
          "time": 188.15761249999844,
          "velocity": 0.7874015748031497,
          "duration": 0.7883760104166697
        },
        {
          "name": "C#7",
          "midi": 97,
          "time": 188.15761249999844,
          "velocity": 0.7874015748031497,
          "duration": 0.7883760104166697
        },
        {
          "name": "D#7",
          "midi": 99,
          "time": 188.15761249999844,
          "velocity": 0.7874015748031497,
          "duration": 0.7883760104166697
        },
        {
          "name": "E7",
          "midi": 100,
          "time": 188.15761249999844,
          "velocity": 0.7874015748031497,
          "duration": 0.7883760104166697
        },
        {
          "name": "F#7",
          "midi": 102,
          "time": 188.15761249999844,
          "velocity": 0.7874015748031497,
          "duration": 0.7883760104166697
        },
        {
          "name": "C#7",
          "midi": 97,
          "time": 189.40761062499843,
          "velocity": 0.7874015748031497,
          "duration": 0.06578937500000848
        },
        {
          "name": "D#7",
          "midi": 99,
          "time": 189.40761062499843,
          "velocity": 0.7874015748031497,
          "duration": 0.06578937500000848
        },
        {
          "name": "E7",
          "midi": 100,
          "time": 189.40761062499843,
          "velocity": 0.7874015748031497,
          "duration": 0.06578937500000848
        },
        {
          "name": "F#7",
          "midi": 102,
          "time": 189.40761062499843,
          "velocity": 0.7874015748031497,
          "duration": 0.06578937500000848
        },
        {
          "name": "C#4",
          "midi": 61,
          "time": 189.47339999999843,
          "velocity": 0.7874015748031497,
          "duration": 0.06578937500000848
        },
        {
          "name": "D4",
          "midi": 62,
          "time": 189.47339999999843,
          "velocity": 0.7874015748031497,
          "duration": 0.06578937500000848
        },
        {
          "name": "F#4",
          "midi": 66,
          "time": 189.47339999999843,
          "velocity": 0.7874015748031497,
          "duration": 0.06578937500000848
        },
        {
          "name": "C#5",
          "midi": 73,
          "time": 189.47339999999843,
          "velocity": 0.7874015748031497,
          "duration": 0.06578937500000848
        },
        {
          "name": "D#5",
          "midi": 75,
          "time": 189.47339999999843,
          "velocity": 0.7874015748031497,
          "duration": 0.06578937500000848
        },
        {
          "name": "F#5",
          "midi": 78,
          "time": 189.47339999999843,
          "velocity": 0.7874015748031497,
          "duration": 0.06578937500000848
        },
        {
          "name": "C#6",
          "midi": 85,
          "time": 189.47339999999843,
          "velocity": 0.7874015748031497,
          "duration": 0.06578937500000848
        },
        {
          "name": "E6",
          "midi": 88,
          "time": 189.47339999999843,
          "velocity": 0.7874015748031497,
          "duration": 0.06578937500000848
        },
        {
          "name": "F#6",
          "midi": 90,
          "time": 189.47339999999843,
          "velocity": 0.7874015748031497,
          "duration": 0.06578937500000848
        },
        {
          "name": "G#8",
          "midi": 116,
          "time": 193.48655187499844,
          "velocity": 0.7874015748031497,
          "duration": 1.578944999999976
        },
        {
          "name": "D4",
          "midi": 62,
          "time": 193.50848166666512,
          "velocity": 0.7874015748031497,
          "duration": 0.06469288541666174
        },
        {
          "name": "F#4",
          "midi": 66,
          "time": 193.50848166666512,
          "velocity": 0.7874015748031497,
          "duration": 0.06469288541666174
        },
        {
          "name": "D#5",
          "midi": 75,
          "time": 193.50848166666512,
          "velocity": 0.7874015748031497,
          "duration": 0.06469288541666174
        },
        {
          "name": "F#5",
          "midi": 78,
          "time": 193.50848166666512,
          "velocity": 0.7874015748031497,
          "duration": 0.06469288541666174
        },
        {
          "name": "D#6",
          "midi": 87,
          "time": 193.50848166666512,
          "velocity": 0.7874015748031497,
          "duration": 0.06469288541666174
        },
        {
          "name": "F#6",
          "midi": 90,
          "time": 193.50848166666512,
          "velocity": 0.7874015748031497,
          "duration": 0.06469288541666174
        },
        {
          "name": "E7",
          "midi": 100,
          "time": 193.50848166666512,
          "velocity": 0.7874015748031497,
          "duration": 0.06469288541666174
        },
        {
          "name": "F#7",
          "midi": 102,
          "time": 193.50848166666512,
          "velocity": 0.7874015748031497,
          "duration": 0.06469288541666174
        },
        {
          "name": "G7",
          "midi": 103,
          "time": 193.50848166666512,
          "velocity": 0.7874015748031497,
          "duration": 35.767490208333726
        },
        {
          "name": "D#7",
          "midi": 99,
          "time": 193.59620083333178,
          "velocity": 0.7874015748031497,
          "duration": 0.06469288541666174
        },
        {
          "name": "F7",
          "midi": 101,
          "time": 193.59620083333178,
          "velocity": 0.7874015748031497,
          "duration": 0.06469288541666174
        },
        {
          "name": "D6",
          "midi": 86,
          "time": 193.68391999999844,
          "velocity": 0.7874015748031497,
          "duration": 0.06469288541666174
        },
        {
          "name": "F6",
          "midi": 89,
          "time": 193.68391999999844,
          "velocity": 0.7874015748031497,
          "duration": 0.06469288541666174
        },
        {
          "name": "D7",
          "midi": 98,
          "time": 193.68391999999844,
          "velocity": 0.7874015748031497,
          "duration": 0.06469288541666174
        },
        {
          "name": "F7",
          "midi": 101,
          "time": 193.68391999999844,
          "velocity": 0.7874015748031497,
          "duration": 0.06469288541666174
        },
        {
          "name": "C4",
          "midi": 60,
          "time": 193.81549874999843,
          "velocity": 0.7874015748031497,
          "duration": 0.06469288541666174
        },
        {
          "name": "F4",
          "midi": 65,
          "time": 193.81549874999843,
          "velocity": 0.7874015748031497,
          "duration": 0.06469288541666174
        },
        {
          "name": "C5",
          "midi": 72,
          "time": 193.81549874999843,
          "velocity": 0.7874015748031497,
          "duration": 0.06469288541666174
        },
        {
          "name": "F5",
          "midi": 77,
          "time": 193.81549874999843,
          "velocity": 0.7874015748031497,
          "duration": 0.06469288541666174
        },
        {
          "name": "C6",
          "midi": 84,
          "time": 193.81549874999843,
          "velocity": 0.7874015748031497,
          "duration": 0.06469288541666174
        },
        {
          "name": "F6",
          "midi": 89,
          "time": 193.81549874999843,
          "velocity": 0.7874015748031497,
          "duration": 0.06469288541666174
        },
        {
          "name": "C7",
          "midi": 96,
          "time": 193.81549874999843,
          "velocity": 0.7874015748031497,
          "duration": 0.06469288541666174
        },
        {
          "name": "F7",
          "midi": 101,
          "time": 193.81549874999843,
          "velocity": 0.7874015748031497,
          "duration": 0.06469288541666174
        },
        {
          "name": "C#5",
          "midi": 73,
          "time": 194.01286687499842,
          "velocity": 0.7874015748031497,
          "duration": 0.06469288541666174
        },
        {
          "name": "F5",
          "midi": 77,
          "time": 194.01286687499842,
          "velocity": 0.7874015748031497,
          "duration": 0.06469288541666174
        },
        {
          "name": "D6",
          "midi": 86,
          "time": 194.01286687499842,
          "velocity": 0.7874015748031497,
          "duration": 0.06469288541666174
        },
        {
          "name": "F6",
          "midi": 89,
          "time": 194.01286687499842,
          "velocity": 0.7874015748031497,
          "duration": 0.06469288541666174
        },
        {
          "name": "D7",
          "midi": 98,
          "time": 194.01286687499842,
          "velocity": 0.7874015748031497,
          "duration": 0.06469288541666174
        },
        {
          "name": "F7",
          "midi": 101,
          "time": 194.01286687499842,
          "velocity": 0.7874015748031497,
          "duration": 0.06469288541666174
        },
        {
          "name": "C#4",
          "midi": 61,
          "time": 194.21023499999842,
          "velocity": 0.7874015748031497,
          "duration": 0.06469288541666174
        },
        {
          "name": "F4",
          "midi": 65,
          "time": 194.21023499999842,
          "velocity": 0.7874015748031497,
          "duration": 0.06469288541666174
        },
        {
          "name": "D5",
          "midi": 74,
          "time": 194.21023499999842,
          "velocity": 0.7874015748031497,
          "duration": 0.06469288541666174
        },
        {
          "name": "F5",
          "midi": 77,
          "time": 194.21023499999842,
          "velocity": 0.7874015748031497,
          "duration": 0.06469288541666174
        },
        {
          "name": "D#6",
          "midi": 87,
          "time": 194.21023499999842,
          "velocity": 0.7874015748031497,
          "duration": 0.06469288541666174
        },
        {
          "name": "F6",
          "midi": 89,
          "time": 194.21023499999842,
          "velocity": 0.7874015748031497,
          "duration": 0.06469288541666174
        },
        {
          "name": "D#7",
          "midi": 99,
          "time": 194.21023499999842,
          "velocity": 0.7874015748031497,
          "duration": 0.06469288541666174
        },
        {
          "name": "F7",
          "midi": 101,
          "time": 194.21023499999842,
          "velocity": 0.7874015748031497,
          "duration": 0.06469288541666174
        },
        {
          "name": "D4",
          "midi": 62,
          "time": 194.47339249999843,
          "velocity": 0.7874015748031497,
          "duration": 0.6129376770833233
        },
        {
          "name": "F4",
          "midi": 65,
          "time": 194.47339249999843,
          "velocity": 0.7874015748031497,
          "duration": 0.6129376770833233
        },
        {
          "name": "D#5",
          "midi": 75,
          "time": 194.47339249999843,
          "velocity": 0.7874015748031497,
          "duration": 0.6129376770833233
        },
        {
          "name": "F5",
          "midi": 77,
          "time": 194.47339249999843,
          "velocity": 0.7874015748031497,
          "duration": 0.6129376770833233
        },
        {
          "name": "E6",
          "midi": 88,
          "time": 194.47339249999843,
          "velocity": 0.7874015748031497,
          "duration": 0.6129376770833233
        },
        {
          "name": "F6",
          "midi": 89,
          "time": 194.47339249999843,
          "velocity": 0.7874015748031497,
          "duration": 0.6129376770833233
        },
        {
          "name": "E7",
          "midi": 100,
          "time": 194.47339249999843,
          "velocity": 0.7874015748031497,
          "duration": 0.6129376770833233
        },
        {
          "name": "F7",
          "midi": 101,
          "time": 194.47339249999843,
          "velocity": 0.7874015748031497,
          "duration": 0.6129376770833233
        },
        {
          "name": "D4",
          "midi": 62,
          "time": 195.0874266666651,
          "velocity": 0.7874015748031497,
          "duration": 0.06469288541666174
        },
        {
          "name": "F#4",
          "midi": 66,
          "time": 195.0874266666651,
          "velocity": 0.7874015748031497,
          "duration": 0.06469288541666174
        },
        {
          "name": "D#5",
          "midi": 75,
          "time": 195.0874266666651,
          "velocity": 0.7874015748031497,
          "duration": 0.06469288541666174
        },
        {
          "name": "F#5",
          "midi": 78,
          "time": 195.0874266666651,
          "velocity": 0.7874015748031497,
          "duration": 0.06469288541666174
        },
        {
          "name": "D#7",
          "midi": 99,
          "time": 195.09839156249842,
          "velocity": 0.7874015748031497,
          "duration": 0.06469288541666174
        },
        {
          "name": "F7",
          "midi": 101,
          "time": 195.09839156249842,
          "velocity": 0.7874015748031497,
          "duration": 0.06469288541666174
        },
        {
          "name": "E6",
          "midi": 88,
          "time": 195.19817211458175,
          "velocity": 0.7874015748031497,
          "duration": 0.06469288541666174
        },
        {
          "name": "F#6",
          "midi": 90,
          "time": 195.19817211458175,
          "velocity": 0.7874015748031497,
          "duration": 0.06469288541666174
        },
        {
          "name": "E7",
          "midi": 100,
          "time": 195.19817211458175,
          "velocity": 0.7874015748031497,
          "duration": 0.06469288541666174
        },
        {
          "name": "F7",
          "midi": 101,
          "time": 195.19817211458175,
          "velocity": 0.7874015748031497,
          "duration": 0.06469288541666174
        },
        {
          "name": "D#6",
          "midi": 87,
          "time": 195.31330352083174,
          "velocity": 0.7874015748031497,
          "duration": 0.06469288541666174
        },
        {
          "name": "F6",
          "midi": 89,
          "time": 195.31330352083174,
          "velocity": 0.7874015748031497,
          "duration": 0.06469288541666174
        },
        {
          "name": "D#7",
          "midi": 99,
          "time": 195.31330352083174,
          "velocity": 0.7874015748031497,
          "duration": 0.06469288541666174
        },
        {
          "name": "F7",
          "midi": 101,
          "time": 195.31330352083174,
          "velocity": 0.7874015748031497,
          "duration": 0.06469288541666174
        },
        {
          "name": "D5",
          "midi": 74,
          "time": 195.3286543749984,
          "velocity": 0.7874015748031497,
          "duration": 0.06469288541666174
        },
        {
          "name": "F5",
          "midi": 77,
          "time": 195.3286543749984,
          "velocity": 0.7874015748031497,
          "duration": 0.06469288541666174
        },
        {
          "name": "C#4",
          "midi": 61,
          "time": 195.3944437499984,
          "velocity": 0.7874015748031497,
          "duration": 0.06469288541666174
        },
        {
          "name": "F4",
          "midi": 65,
          "time": 195.3944437499984,
          "velocity": 0.7874015748031497,
          "duration": 0.06469288541666174
        },
        {
          "name": "D7",
          "midi": 98,
          "time": 195.44597876041507,
          "velocity": 0.7874015748031497,
          "duration": 0.06469288541666174
        },
        {
          "name": "F7",
          "midi": 101,
          "time": 195.44597876041507,
          "velocity": 0.7874015748031497,
          "duration": 0.06469288541666174
        },
        {
          "name": "D#6",
          "midi": 87,
          "time": 195.56001367708174,
          "velocity": 0.7874015748031497,
          "duration": 0.06469288541666174
        },
        {
          "name": "F#6",
          "midi": 90,
          "time": 195.56001367708174,
          "velocity": 0.7874015748031497,
          "duration": 0.06469288541666174
        },
        {
          "name": "D#7",
          "midi": 99,
          "time": 195.56001367708174,
          "velocity": 0.7874015748031497,
          "duration": 0.06469288541666174
        },
        {
          "name": "F7",
          "midi": 101,
          "time": 195.56001367708174,
          "velocity": 0.7874015748031497,
          "duration": 0.06469288541666174
        },
        {
          "name": "C#5",
          "midi": 73,
          "time": 195.5918118749984,
          "velocity": 0.7874015748031497,
          "duration": 0.06469288541666174
        },
        {
          "name": "F5",
          "midi": 77,
          "time": 195.5918118749984,
          "velocity": 0.7874015748031497,
          "duration": 0.06469288541666174
        },
        {
          "name": "D6",
          "midi": 86,
          "time": 195.67404859374838,
          "velocity": 0.7874015748031497,
          "duration": 0.06469288541666174
        },
        {
          "name": "F6",
          "midi": 89,
          "time": 195.67404859374838,
          "velocity": 0.7874015748031497,
          "duration": 0.06469288541666174
        },
        {
          "name": "D7",
          "midi": 98,
          "time": 195.69049593749838,
          "velocity": 0.7874015748031497,
          "duration": 0.06469288541666174
        },
        {
          "name": "F7",
          "midi": 101,
          "time": 195.69049593749838,
          "velocity": 0.7874015748031497,
          "duration": 0.06469288541666174
        },
        {
          "name": "C4",
          "midi": 60,
          "time": 195.78917999999837,
          "velocity": 0.7874015748031497,
          "duration": 1.0493405312500101
        },
        {
          "name": "F4",
          "midi": 65,
          "time": 195.78917999999837,
          "velocity": 0.7874015748031497,
          "duration": 1.0493405312500101
        },
        {
          "name": "C5",
          "midi": 72,
          "time": 195.78917999999837,
          "velocity": 0.7874015748031497,
          "duration": 1.0493405312500101
        },
        {
          "name": "F5",
          "midi": 77,
          "time": 195.78917999999837,
          "velocity": 0.7874015748031497,
          "duration": 1.0493405312500101
        },
        {
          "name": "C#6",
          "midi": 85,
          "time": 195.78917999999837,
          "velocity": 0.7874015748031497,
          "duration": 1.0493405312500101
        },
        {
          "name": "F6",
          "midi": 89,
          "time": 195.78917999999837,
          "velocity": 0.7874015748031497,
          "duration": 1.0493405312500101
        },
        {
          "name": "C#7",
          "midi": 97,
          "time": 195.82207468749837,
          "velocity": 0.7874015748031497,
          "duration": 1.0175423333333526
        },
        {
          "name": "F7",
          "midi": 101,
          "time": 195.82207468749837,
          "velocity": 0.7874015748031497,
          "duration": 1.0175423333333526
        },
        {
          "name": "C4",
          "midi": 60,
          "time": 196.8418099999984,
          "velocity": 0.7874015748031497,
          "duration": 0.06578937499998005
        },
        {
          "name": "F#4",
          "midi": 66,
          "time": 196.8418099999984,
          "velocity": 0.7874015748031497,
          "duration": 0.06578937499998005
        },
        {
          "name": "C5",
          "midi": 72,
          "time": 196.8418099999984,
          "velocity": 0.7874015748031497,
          "duration": 0.06578937499998005
        },
        {
          "name": "F#5",
          "midi": 78,
          "time": 196.8418099999984,
          "velocity": 0.7874015748031497,
          "duration": 0.06578937499998005
        },
        {
          "name": "C6",
          "midi": 84,
          "time": 196.8418099999984,
          "velocity": 0.7874015748031497,
          "duration": 0.06578937499998005
        },
        {
          "name": "F#6",
          "midi": 90,
          "time": 196.8418099999984,
          "velocity": 0.7874015748031497,
          "duration": 0.06578937499998005
        },
        {
          "name": "C7",
          "midi": 96,
          "time": 196.87360819791505,
          "velocity": 0.7874015748031497,
          "duration": 0.06578937499998005
        },
        {
          "name": "F#7",
          "midi": 102,
          "time": 196.87360819791505,
          "velocity": 0.7874015748031497,
          "duration": 0.06578937499998005
        },
        {
          "name": "C#6",
          "midi": 85,
          "time": 197.01615184374836,
          "velocity": 0.7874015748031497,
          "duration": 0.06578937500000848
        },
        {
          "name": "F6",
          "midi": 89,
          "time": 197.01615184374836,
          "velocity": 0.7874015748031497,
          "duration": 0.06578937500000848
        },
        {
          "name": "C#7",
          "midi": 97,
          "time": 197.03917812499836,
          "velocity": 0.7874015748031497,
          "duration": 0.06469288541669016
        },
        {
          "name": "F7",
          "midi": 101,
          "time": 197.03917812499836,
          "velocity": 0.7874015748031497,
          "duration": 0.06469288541669016
        },
        {
          "name": "C#4",
          "midi": 61,
          "time": 197.19268666666505,
          "velocity": 0.7874015748031497,
          "duration": 0.06469288541666174
        },
        {
          "name": "F#4",
          "midi": 66,
          "time": 197.19268666666505,
          "velocity": 0.7874015748031497,
          "duration": 0.06469288541666174
        },
        {
          "name": "D6",
          "midi": 86,
          "time": 197.19268666666505,
          "velocity": 0.7874015748031497,
          "duration": 0.06469288541666174
        },
        {
          "name": "F6",
          "midi": 89,
          "time": 197.19268666666505,
          "velocity": 0.7874015748031497,
          "duration": 0.06469288541666174
        },
        {
          "name": "D7",
          "midi": 98,
          "time": 197.20255507291506,
          "velocity": 0.7874015748031497,
          "duration": 0.06578937499998005
        },
        {
          "name": "F7",
          "midi": 101,
          "time": 197.20255507291506,
          "velocity": 0.7874015748031497,
          "duration": 0.06578937499998005
        },
        {
          "name": "C#5",
          "midi": 73,
          "time": 197.23654624999838,
          "velocity": 0.7874015748031497,
          "duration": 0.06469288541666174
        },
        {
          "name": "F5",
          "midi": 77,
          "time": 197.23654624999838,
          "velocity": 0.7874015748031497,
          "duration": 0.06469288541666174
        },
        {
          "name": "D#6",
          "midi": 87,
          "time": 197.36812499999837,
          "velocity": 0.7874015748031497,
          "duration": 0.06578937500000848
        },
        {
          "name": "F6",
          "midi": 89,
          "time": 197.36812499999837,
          "velocity": 0.7874015748031497,
          "duration": 0.06578937500000848
        },
        {
          "name": "D#7",
          "midi": 99,
          "time": 197.36812499999837,
          "velocity": 0.7874015748031497,
          "duration": 0.06578937500000848
        },
        {
          "name": "F7",
          "midi": 101,
          "time": 197.36812499999837,
          "velocity": 0.7874015748031497,
          "duration": 0.06578937500000848
        },
        {
          "name": "E6",
          "midi": 88,
          "time": 197.54356333333172,
          "velocity": 0.7874015748031497,
          "duration": 0.06578937500000848
        },
        {
          "name": "F6",
          "midi": 89,
          "time": 197.54356333333172,
          "velocity": 0.7874015748031497,
          "duration": 0.06578937500000848
        },
        {
          "name": "C#4",
          "midi": 61,
          "time": 197.5654931249984,
          "velocity": 0.7874015748031497,
          "duration": 0.06469288541666174
        },
        {
          "name": "F#4",
          "midi": 66,
          "time": 197.5654931249984,
          "velocity": 0.7874015748031497,
          "duration": 0.06469288541666174
        },
        {
          "name": "D#5",
          "midi": 75,
          "time": 197.5654931249984,
          "velocity": 0.7874015748031497,
          "duration": 0.06469288541666174
        },
        {
          "name": "F5",
          "midi": 77,
          "time": 197.5654931249984,
          "velocity": 0.7874015748031497,
          "duration": 0.06469288541666174
        },
        {
          "name": "E7",
          "midi": 100,
          "time": 197.5654931249984,
          "velocity": 0.7874015748031497,
          "duration": 0.06469288541666174
        },
        {
          "name": "F7",
          "midi": 101,
          "time": 197.5654931249984,
          "velocity": 0.7874015748031497,
          "duration": 0.06469288541666174
        },
        {
          "name": "D#7",
          "midi": 99,
          "time": 197.7628612499984,
          "velocity": 0.7874015748031497,
          "duration": 0.06578937500000848
        },
        {
          "name": "F7",
          "midi": 101,
          "time": 197.7628612499984,
          "velocity": 0.7874015748031497,
          "duration": 0.06578937500000848
        },
        {
          "name": "D4",
          "midi": 62,
          "time": 197.8944399999984,
          "velocity": 0.7874015748031497,
          "duration": 0.06469288541666174
        },
        {
          "name": "F4",
          "midi": 65,
          "time": 197.8944399999984,
          "velocity": 0.7874015748031497,
          "duration": 0.06469288541666174
        },
        {
          "name": "D#5",
          "midi": 75,
          "time": 197.8944399999984,
          "velocity": 0.7874015748031497,
          "duration": 0.06469288541666174
        },
        {
          "name": "F#5",
          "midi": 78,
          "time": 197.8944399999984,
          "velocity": 0.7874015748031497,
          "duration": 0.06469288541666174
        },
        {
          "name": "D#6",
          "midi": 87,
          "time": 197.8944399999984,
          "velocity": 0.7874015748031497,
          "duration": 0.06469288541666174
        },
        {
          "name": "F#6",
          "midi": 90,
          "time": 197.8944399999984,
          "velocity": 0.7874015748031497,
          "duration": 0.06469288541666174
        },
        {
          "name": "D7",
          "midi": 98,
          "time": 197.8944399999984,
          "velocity": 0.7874015748031497,
          "duration": 0.06469288541666174
        },
        {
          "name": "F7",
          "midi": 101,
          "time": 197.8944399999984,
          "velocity": 0.7874015748031497,
          "duration": 0.06469288541666174
        },
        {
          "name": "D6",
          "midi": 86,
          "time": 198.02711523958175,
          "velocity": 0.7874015748031497,
          "duration": 0.06469288541666174
        },
        {
          "name": "F6",
          "midi": 89,
          "time": 198.02711523958175,
          "velocity": 0.7874015748031497,
          "duration": 0.06469288541666174
        },
        {
          "name": "C#7",
          "midi": 97,
          "time": 198.02711523958175,
          "velocity": 0.7874015748031497,
          "duration": 0.06469288541666174
        },
        {
          "name": "F7",
          "midi": 101,
          "time": 198.02711523958175,
          "velocity": 0.7874015748031497,
          "duration": 0.06469288541666174
        },
        {
          "name": "C#4",
          "midi": 61,
          "time": 198.15869398958174,
          "velocity": 0.7874015748031497,
          "duration": 0.06469288541666174
        },
        {
          "name": "F4",
          "midi": 65,
          "time": 198.15869398958174,
          "velocity": 0.7874015748031497,
          "duration": 0.06469288541666174
        },
        {
          "name": "C#5",
          "midi": 73,
          "time": 198.15869398958174,
          "velocity": 0.7874015748031497,
          "duration": 0.06469288541666174
        },
        {
          "name": "F5",
          "midi": 77,
          "time": 198.15869398958174,
          "velocity": 0.7874015748031497,
          "duration": 0.06469288541666174
        },
        {
          "name": "C#6",
          "midi": 85,
          "time": 198.15869398958174,
          "velocity": 0.7874015748031497,
          "duration": 0.06469288541666174
        },
        {
          "name": "F6",
          "midi": 89,
          "time": 198.15869398958174,
          "velocity": 0.7874015748031497,
          "duration": 0.06469288541666174
        },
        {
          "name": "D7",
          "midi": 98,
          "time": 198.15869398958174,
          "velocity": 0.7874015748031497,
          "duration": 0.06469288541666174
        },
        {
          "name": "F7",
          "midi": 101,
          "time": 198.15869398958174,
          "velocity": 0.7874015748031497,
          "duration": 0.06469288541666174
        },
        {
          "name": "C#7",
          "midi": 97,
          "time": 198.2891762499984,
          "velocity": 0.7874015748031497,
          "duration": 0.06578937500000848
        },
        {
          "name": "F7",
          "midi": 101,
          "time": 198.2891762499984,
          "velocity": 0.7874015748031497,
          "duration": 0.06578937500000848
        },
        {
          "name": "C4",
          "midi": 60,
          "time": 198.42075499999842,
          "velocity": 0.7874015748031497,
          "duration": 0.06578937500000848
        },
        {
          "name": "F4",
          "midi": 65,
          "time": 198.42075499999842,
          "velocity": 0.7874015748031497,
          "duration": 0.06578937500000848
        },
        {
          "name": "C5",
          "midi": 72,
          "time": 198.42075499999842,
          "velocity": 0.7874015748031497,
          "duration": 0.06578937500000848
        },
        {
          "name": "F5",
          "midi": 77,
          "time": 198.42075499999842,
          "velocity": 0.7874015748031497,
          "duration": 0.06578937500000848
        },
        {
          "name": "C6",
          "midi": 84,
          "time": 198.42075499999842,
          "velocity": 0.7874015748031497,
          "duration": 0.06578937500000848
        },
        {
          "name": "F#6",
          "midi": 90,
          "time": 198.42075499999842,
          "velocity": 0.7874015748031497,
          "duration": 0.06578937500000848
        },
        {
          "name": "C7",
          "midi": 96,
          "time": 198.42075499999842,
          "velocity": 0.7874015748031497,
          "duration": 0.06578937500000848
        },
        {
          "name": "F7",
          "midi": 101,
          "time": 198.42075499999842,
          "velocity": 0.7874015748031497,
          "duration": 0.06578937500000848
        },
        {
          "name": "C#6",
          "midi": 85,
          "time": 198.55233374999844,
          "velocity": 0.7874015748031497,
          "duration": 0.06578937500000848
        },
        {
          "name": "F6",
          "midi": 89,
          "time": 198.55233374999844,
          "velocity": 0.7874015748031497,
          "duration": 0.06578937500000848
        },
        {
          "name": "C#7",
          "midi": 97,
          "time": 198.55233374999844,
          "velocity": 0.7874015748031497,
          "duration": 0.06578937500000848
        },
        {
          "name": "F7",
          "midi": 101,
          "time": 198.55233374999844,
          "velocity": 0.7874015748031497,
          "duration": 0.06578937500000848
        },
        {
          "name": "C#4",
          "midi": 61,
          "time": 198.68500898958177,
          "velocity": 0.7874015748031497,
          "duration": 0.06469288541666174
        },
        {
          "name": "F4",
          "midi": 65,
          "time": 198.68500898958177,
          "velocity": 0.7874015748031497,
          "duration": 0.06469288541666174
        },
        {
          "name": "C#5",
          "midi": 73,
          "time": 198.68500898958177,
          "velocity": 0.7874015748031497,
          "duration": 0.06469288541666174
        },
        {
          "name": "F5",
          "midi": 77,
          "time": 198.68500898958177,
          "velocity": 0.7874015748031497,
          "duration": 0.06469288541666174
        },
        {
          "name": "D6",
          "midi": 86,
          "time": 198.68500898958177,
          "velocity": 0.7874015748031497,
          "duration": 0.06469288541666174
        },
        {
          "name": "F6",
          "midi": 89,
          "time": 198.68500898958177,
          "velocity": 0.7874015748031497,
          "duration": 0.06469288541666174
        },
        {
          "name": "D7",
          "midi": 98,
          "time": 198.68500898958177,
          "velocity": 0.7874015748031497,
          "duration": 0.06469288541666174
        },
        {
          "name": "F7",
          "midi": 101,
          "time": 198.68500898958177,
          "velocity": 0.7874015748031497,
          "duration": 0.06469288541666174
        },
        {
          "name": "D#6",
          "midi": 87,
          "time": 198.85935083333177,
          "velocity": 0.7874015748031497,
          "duration": 0.06578937500000848
        },
        {
          "name": "F6",
          "midi": 89,
          "time": 198.85935083333177,
          "velocity": 0.7874015748031497,
          "duration": 0.06578937500000848
        },
        {
          "name": "D#7",
          "midi": 99,
          "time": 198.88128062499845,
          "velocity": 0.7874015748031497,
          "duration": 0.06578937500000848
        },
        {
          "name": "F7",
          "midi": 101,
          "time": 198.88128062499845,
          "velocity": 0.7874015748031497,
          "duration": 0.06578937500000848
        },
        {
          "name": "D5",
          "midi": 74,
          "time": 198.94706999999846,
          "velocity": 0.7874015748031497,
          "duration": 0.06688586458332679
        },
        {
          "name": "F5",
          "midi": 77,
          "time": 198.94706999999846,
          "velocity": 0.7874015748031497,
          "duration": 0.06688586458332679
        },
        {
          "name": "E6",
          "midi": 88,
          "time": 199.14443812499846,
          "velocity": 0.7874015748031497,
          "duration": 0.4594291354166842
        },
        {
          "name": "F#6",
          "midi": 90,
          "time": 199.14443812499846,
          "velocity": 0.7874015748031497,
          "duration": 0.4594291354166842
        },
        {
          "name": "D#7",
          "midi": 99,
          "time": 199.14443812499846,
          "velocity": 0.7874015748031497,
          "duration": 0.06578937500000848
        },
        {
          "name": "F#7",
          "midi": 102,
          "time": 199.14443812499846,
          "velocity": 0.7874015748031497,
          "duration": 0.06578937500000848
        },
        {
          "name": "D4",
          "midi": 62,
          "time": 199.21022749999847,
          "velocity": 0.7874015748031497,
          "duration": 0.41556955208335467
        },
        {
          "name": "F#4",
          "midi": 66,
          "time": 199.21022749999847,
          "velocity": 0.7874015748031497,
          "duration": 0.41556955208335467
        },
        {
          "name": "D#5",
          "midi": 75,
          "time": 199.21022749999847,
          "velocity": 0.7874015748031497,
          "duration": 0.3936397604166757
        },
        {
          "name": "F5",
          "midi": 77,
          "time": 199.21022749999847,
          "velocity": 0.7874015748031497,
          "duration": 0.3936397604166757
        },
        {
          "name": "E7",
          "midi": 100,
          "time": 199.27601687499848,
          "velocity": 0.7874015748031497,
          "duration": 0.3278503854166672
        },
        {
          "name": "F7",
          "midi": 101,
          "time": 199.27601687499848,
          "velocity": 0.7874015748031497,
          "duration": 0.3267538958333205
        },
        {
          "name": "D#7",
          "midi": 99,
          "time": 199.6049637499985,
          "velocity": 0.7874015748031497,
          "duration": 0.06578937500000848
        },
        {
          "name": "F7",
          "midi": 101,
          "time": 199.6049637499985,
          "velocity": 0.7874015748031497,
          "duration": 0.06578937500000848
        },
        {
          "name": "C4",
          "midi": 60,
          "time": 199.7365424999985,
          "velocity": 0.7874015748031497,
          "duration": 0.06578937500000848
        },
        {
          "name": "F4",
          "midi": 65,
          "time": 199.7365424999985,
          "velocity": 0.7874015748031497,
          "duration": 0.06578937500000848
        },
        {
          "name": "C#5",
          "midi": 73,
          "time": 199.7365424999985,
          "velocity": 0.7874015748031497,
          "duration": 0.06578937500000848
        },
        {
          "name": "F5",
          "midi": 77,
          "time": 199.7365424999985,
          "velocity": 0.7874015748031497,
          "duration": 0.06578937500000848
        },
        {
          "name": "C#6",
          "midi": 85,
          "time": 199.7365424999985,
          "velocity": 0.7874015748031497,
          "duration": 0.06578937500000848
        },
        {
          "name": "F6",
          "midi": 89,
          "time": 199.7365424999985,
          "velocity": 0.7874015748031497,
          "duration": 0.06578937500000848
        },
        {
          "name": "D7",
          "midi": 98,
          "time": 199.7365424999985,
          "velocity": 0.7874015748031497,
          "duration": 0.06578937500000848
        },
        {
          "name": "F7",
          "midi": 101,
          "time": 199.7365424999985,
          "velocity": 0.7874015748031497,
          "duration": 0.06578937500000848
        },
        {
          "name": "C#7",
          "midi": 97,
          "time": 199.86812124999852,
          "velocity": 0.7874015748031497,
          "duration": 0.06578937500000848
        },
        {
          "name": "F7",
          "midi": 101,
          "time": 199.86812124999852,
          "velocity": 0.7874015748031497,
          "duration": 0.06578937500000848
        },
        {
          "name": "C#4",
          "midi": 61,
          "time": 199.99969999999854,
          "velocity": 0.7874015748031497,
          "duration": 1.0515335104166752
        },
        {
          "name": "F4",
          "midi": 65,
          "time": 199.99969999999854,
          "velocity": 0.7874015748031497,
          "duration": 1.0515335104166752
        },
        {
          "name": "D5",
          "midi": 74,
          "time": 199.99969999999854,
          "velocity": 0.7874015748031497,
          "duration": 1.0515335104166752
        },
        {
          "name": "F5",
          "midi": 77,
          "time": 199.99969999999854,
          "velocity": 0.7874015748031497,
          "duration": 1.0515335104166752
        },
        {
          "name": "D6",
          "midi": 86,
          "time": 199.99969999999854,
          "velocity": 0.7874015748031497,
          "duration": 1.0515335104166752
        },
        {
          "name": "F6",
          "midi": 89,
          "time": 199.99969999999854,
          "velocity": 0.7874015748031497,
          "duration": 1.0515335104166752
        },
        {
          "name": "D7",
          "midi": 98,
          "time": 199.99969999999854,
          "velocity": 0.7874015748031497,
          "duration": 1.0515335104166752
        },
        {
          "name": "F7",
          "midi": 101,
          "time": 199.99969999999854,
          "velocity": 0.7874015748031497,
          "duration": 1.0515335104166752
        },
        {
          "name": "C7",
          "midi": 96,
          "time": 202.33631930208188,
          "velocity": 0.7874015748031497,
          "duration": 0.06469288541666174
        },
        {
          "name": "F#7",
          "midi": 102,
          "time": 202.33631930208188,
          "velocity": 0.7874015748031497,
          "duration": 0.06469288541666174
        },
        {
          "name": "C4",
          "midi": 60,
          "time": 202.36811749999853,
          "velocity": 0.7874015748031497,
          "duration": 0.06578937500000848
        },
        {
          "name": "F#4",
          "midi": 66,
          "time": 202.36811749999853,
          "velocity": 0.7874015748031497,
          "duration": 0.06578937500000848
        },
        {
          "name": "C5",
          "midi": 72,
          "time": 202.36811749999853,
          "velocity": 0.7874015748031497,
          "duration": 0.06578937500000848
        },
        {
          "name": "F#5",
          "midi": 78,
          "time": 202.36811749999853,
          "velocity": 0.7874015748031497,
          "duration": 0.06578937500000848
        },
        {
          "name": "C6",
          "midi": 84,
          "time": 202.36811749999853,
          "velocity": 0.7874015748031497,
          "duration": 0.06578937500000848
        },
        {
          "name": "F#6",
          "midi": 90,
          "time": 202.36811749999853,
          "velocity": 0.7874015748031497,
          "duration": 0.06578937500000848
        },
        {
          "name": "C#7",
          "midi": 97,
          "time": 202.43390687499854,
          "velocity": 0.7874015748031497,
          "duration": 0.06469288541666174
        },
        {
          "name": "F7",
          "midi": 101,
          "time": 202.43390687499854,
          "velocity": 0.7874015748031497,
          "duration": 0.06469288541666174
        },
        {
          "name": "C#4",
          "midi": 61,
          "time": 202.63127499999854,
          "velocity": 0.7874015748031497,
          "duration": 0.06469288541666174
        },
        {
          "name": "F#4",
          "midi": 66,
          "time": 202.63127499999854,
          "velocity": 0.7874015748031497,
          "duration": 0.06469288541666174
        },
        {
          "name": "C#5",
          "midi": 73,
          "time": 202.63127499999854,
          "velocity": 0.7874015748031497,
          "duration": 0.06469288541666174
        },
        {
          "name": "F#5",
          "midi": 78,
          "time": 202.63127499999854,
          "velocity": 0.7874015748031497,
          "duration": 0.06469288541666174
        },
        {
          "name": "D6",
          "midi": 86,
          "time": 202.63127499999854,
          "velocity": 0.7874015748031497,
          "duration": 0.06469288541666174
        },
        {
          "name": "F#6",
          "midi": 90,
          "time": 202.63127499999854,
          "velocity": 0.7874015748031497,
          "duration": 0.06469288541666174
        },
        {
          "name": "D7",
          "midi": 98,
          "time": 202.63127499999854,
          "velocity": 0.7874015748031497,
          "duration": 0.06469288541666174
        },
        {
          "name": "F#7",
          "midi": 102,
          "time": 202.63127499999854,
          "velocity": 0.7874015748031497,
          "duration": 0.06469288541666174
        },
        {
          "name": "C#7",
          "midi": 97,
          "time": 202.72995906249852,
          "velocity": 0.7874015748031497,
          "duration": 0.06469288541666174
        },
        {
          "name": "F7",
          "midi": 101,
          "time": 202.72995906249852,
          "velocity": 0.7874015748031497,
          "duration": 0.06469288541666174
        },
        {
          "name": "C#6",
          "midi": 85,
          "time": 202.76285374999853,
          "velocity": 0.7874015748031497,
          "duration": 0.06469288541666174
        },
        {
          "name": "F6",
          "midi": 89,
          "time": 202.76285374999853,
          "velocity": 0.7874015748031497,
          "duration": 0.06469288541666174
        },
        {
          "name": "C7",
          "midi": 96,
          "time": 202.82864312499854,
          "velocity": 0.7874015748031497,
          "duration": 0.06469288541666174
        },
        {
          "name": "F7",
          "midi": 101,
          "time": 202.82864312499854,
          "velocity": 0.7874015748031497,
          "duration": 0.06469288541666174
        },
        {
          "name": "C4",
          "midi": 60,
          "time": 202.89552898958186,
          "velocity": 0.7874015748031497,
          "duration": 0.06469288541666174
        },
        {
          "name": "F#4",
          "midi": 66,
          "time": 202.89552898958186,
          "velocity": 0.7874015748031497,
          "duration": 0.06469288541666174
        },
        {
          "name": "C5",
          "midi": 72,
          "time": 202.89552898958186,
          "velocity": 0.7874015748031497,
          "duration": 0.06469288541666174
        },
        {
          "name": "F#5",
          "midi": 78,
          "time": 202.89552898958186,
          "velocity": 0.7874015748031497,
          "duration": 0.06469288541666174
        },
        {
          "name": "C6",
          "midi": 84,
          "time": 202.89552898958186,
          "velocity": 0.7874015748031497,
          "duration": 0.06469288541666174
        },
        {
          "name": "F6",
          "midi": 89,
          "time": 202.89552898958186,
          "velocity": 0.7874015748031497,
          "duration": 0.06469288541666174
        },
        {
          "name": "D7",
          "midi": 98,
          "time": 203.02601124999853,
          "velocity": 0.7874015748031497,
          "duration": 0.06469288541666174
        },
        {
          "name": "F#7",
          "midi": 102,
          "time": 203.02601124999853,
          "velocity": 0.7874015748031497,
          "duration": 0.06469288541666174
        },
        {
          "name": "D#7",
          "midi": 99,
          "time": 203.12469531249852,
          "velocity": 0.7874015748031497,
          "duration": 0.06578937500000848
        },
        {
          "name": "F7",
          "midi": 101,
          "time": 203.12469531249852,
          "velocity": 0.7874015748031497,
          "duration": 0.06578937500000848
        },
        {
          "name": "C#4",
          "midi": 61,
          "time": 203.15758999999852,
          "velocity": 0.7874015748031497,
          "duration": 0.06469288541666174
        },
        {
          "name": "F#4",
          "midi": 66,
          "time": 203.15758999999852,
          "velocity": 0.7874015748031497,
          "duration": 0.06469288541666174
        },
        {
          "name": "D5",
          "midi": 74,
          "time": 203.15758999999852,
          "velocity": 0.7874015748031497,
          "duration": 0.06469288541666174
        },
        {
          "name": "F#5",
          "midi": 78,
          "time": 203.15758999999852,
          "velocity": 0.7874015748031497,
          "duration": 0.06469288541666174
        },
        {
          "name": "D#6",
          "midi": 87,
          "time": 203.15758999999852,
          "velocity": 0.7874015748031497,
          "duration": 0.06469288541666174
        },
        {
          "name": "F#6",
          "midi": 90,
          "time": 203.15758999999852,
          "velocity": 0.7874015748031497,
          "duration": 0.06469288541666174
        },
        {
          "name": "D7",
          "midi": 98,
          "time": 203.22337937499853,
          "velocity": 0.7874015748031497,
          "duration": 0.06469288541666174
        },
        {
          "name": "F7",
          "midi": 101,
          "time": 203.22337937499853,
          "velocity": 0.7874015748031497,
          "duration": 0.06469288541666174
        },
        {
          "name": "D6",
          "midi": 86,
          "time": 203.28916874999854,
          "velocity": 0.7874015748031497,
          "duration": 0.06469288541666174
        },
        {
          "name": "F6",
          "midi": 89,
          "time": 203.28916874999854,
          "velocity": 0.7874015748031497,
          "duration": 0.06469288541666174
        },
        {
          "name": "C7",
          "midi": 96,
          "time": 203.32206343749854,
          "velocity": 0.7874015748031497,
          "duration": 0.06469288541666174
        },
        {
          "name": "F7",
          "midi": 101,
          "time": 203.32206343749854,
          "velocity": 0.7874015748031497,
          "duration": 0.06469288541666174
        },
        {
          "name": "C4",
          "midi": 60,
          "time": 203.35495812499855,
          "velocity": 0.7874015748031497,
          "duration": 0.06469288541666174
        },
        {
          "name": "F#4",
          "midi": 66,
          "time": 203.35495812499855,
          "velocity": 0.7874015748031497,
          "duration": 0.06469288541666174
        },
        {
          "name": "C5",
          "midi": 72,
          "time": 203.35495812499855,
          "velocity": 0.7874015748031497,
          "duration": 0.06469288541666174
        },
        {
          "name": "F#5",
          "midi": 78,
          "time": 203.35495812499855,
          "velocity": 0.7874015748031497,
          "duration": 0.06469288541666174
        },
        {
          "name": "C6",
          "midi": 84,
          "time": 203.42184398958187,
          "velocity": 0.7874015748031497,
          "duration": 0.06469288541666174
        },
        {
          "name": "F6",
          "midi": 89,
          "time": 203.42184398958187,
          "velocity": 0.7874015748031497,
          "duration": 0.06469288541666174
        },
        {
          "name": "C#4",
          "midi": 61,
          "time": 203.55232624999854,
          "velocity": 0.7874015748031497,
          "duration": 1.0515335104166752
        },
        {
          "name": "F#4",
          "midi": 66,
          "time": 203.55232624999854,
          "velocity": 0.7874015748031497,
          "duration": 1.0504370208333285
        },
        {
          "name": "D5",
          "midi": 74,
          "time": 203.55232624999854,
          "velocity": 0.7874015748031497,
          "duration": 1.0515335104166752
        },
        {
          "name": "F#5",
          "midi": 78,
          "time": 203.55232624999854,
          "velocity": 0.7874015748031497,
          "duration": 1.0504370208333285
        },
        {
          "name": "D6",
          "midi": 86,
          "time": 203.55232624999854,
          "velocity": 0.7874015748031497,
          "duration": 1.0515335104166752
        },
        {
          "name": "F6",
          "midi": 89,
          "time": 203.55232624999854,
          "velocity": 0.7874015748031497,
          "duration": 1.0515335104166752
        },
        {
          "name": "D#7",
          "midi": 99,
          "time": 203.55232624999854,
          "velocity": 0.7874015748031497,
          "duration": 1.0844281979167079
        },
        {
          "name": "F#7",
          "midi": 102,
          "time": 203.55232624999854,
          "velocity": 0.7874015748031497,
          "duration": 1.0833317083333611
        },
        {
          "name": "D4",
          "midi": 62,
          "time": 204.60495624999857,
          "velocity": 0.7874015748031497,
          "duration": 0.7883760104166981
        },
        {
          "name": "F#4",
          "midi": 66,
          "time": 204.60495624999857,
          "velocity": 0.7874015748031497,
          "duration": 0.7883760104166981
        },
        {
          "name": "D#5",
          "midi": 75,
          "time": 204.60495624999857,
          "velocity": 0.7874015748031497,
          "duration": 0.7883760104166981
        },
        {
          "name": "F#5",
          "midi": 78,
          "time": 204.60495624999857,
          "velocity": 0.7874015748031497,
          "duration": 0.7883760104166981
        },
        {
          "name": "D#6",
          "midi": 87,
          "time": 204.60495624999857,
          "velocity": 0.7874015748031497,
          "duration": 0.7883760104166981
        },
        {
          "name": "F#6",
          "midi": 90,
          "time": 204.60495624999857,
          "velocity": 0.7874015748031497,
          "duration": 0.7883760104166981
        },
        {
          "name": "E7",
          "midi": 100,
          "time": 204.6378509374986,
          "velocity": 0.7874015748031497,
          "duration": 0.789472499999988
        },
        {
          "name": "F#7",
          "midi": 102,
          "time": 204.6378509374986,
          "velocity": 0.7874015748031497,
          "duration": 0.789472499999988
        },
        {
          "name": "D6",
          "midi": 86,
          "time": 205.39552523958193,
          "velocity": 0.7874015748031497,
          "duration": 0.06469288541666174
        },
        {
          "name": "F#6",
          "midi": 90,
          "time": 205.39552523958193,
          "velocity": 0.7874015748031497,
          "duration": 0.06469288541666174
        },
        {
          "name": "D#7",
          "midi": 99,
          "time": 205.42841992708193,
          "velocity": 0.7874015748031497,
          "duration": 0.06469288541666174
        },
        {
          "name": "F7",
          "midi": 101,
          "time": 205.42841992708193,
          "velocity": 0.7874015748031497,
          "duration": 0.06469288541666174
        },
        {
          "name": "C#4",
          "midi": 61,
          "time": 205.5260074999986,
          "velocity": 0.7874015748031497,
          "duration": 0.06469288541666174
        },
        {
          "name": "F4",
          "midi": 65,
          "time": 205.5260074999986,
          "velocity": 0.7874015748031497,
          "duration": 0.06469288541666174
        },
        {
          "name": "C#5",
          "midi": 73,
          "time": 205.5260074999986,
          "velocity": 0.7874015748031497,
          "duration": 0.06469288541666174
        },
        {
          "name": "F5",
          "midi": 77,
          "time": 205.5260074999986,
          "velocity": 0.7874015748031497,
          "duration": 0.06469288541666174
        },
        {
          "name": "C#6",
          "midi": 85,
          "time": 205.5260074999986,
          "velocity": 0.7874015748031497,
          "duration": 0.06469288541666174
        },
        {
          "name": "F6",
          "midi": 89,
          "time": 205.5260074999986,
          "velocity": 0.7874015748031497,
          "duration": 0.06469288541666174
        },
        {
          "name": "D7",
          "midi": 98,
          "time": 205.5260074999986,
          "velocity": 0.7874015748031497,
          "duration": 0.06469288541666174
        },
        {
          "name": "F7",
          "midi": 101,
          "time": 205.5260074999986,
          "velocity": 0.7874015748031497,
          "duration": 0.06469288541666174
        },
        {
          "name": "D#7",
          "midi": 99,
          "time": 205.62469156249858,
          "velocity": 0.7874015748031497,
          "duration": 0.06578937500000848
        },
        {
          "name": "F7",
          "midi": 101,
          "time": 205.62469156249858,
          "velocity": 0.7874015748031497,
          "duration": 0.06578937500000848
        },
        {
          "name": "D4",
          "midi": 62,
          "time": 205.7891649999986,
          "velocity": 0.7874015748031497,
          "duration": 0.5252185104166642
        },
        {
          "name": "F4",
          "midi": 65,
          "time": 205.7891649999986,
          "velocity": 0.7874015748031497,
          "duration": 0.5252185104166642
        },
        {
          "name": "D5",
          "midi": 74,
          "time": 205.7891649999986,
          "velocity": 0.7874015748031497,
          "duration": 0.5252185104166642
        },
        {
          "name": "F5",
          "midi": 77,
          "time": 205.7891649999986,
          "velocity": 0.7874015748031497,
          "duration": 0.5252185104166642
        },
        {
          "name": "D6",
          "midi": 86,
          "time": 205.7891649999986,
          "velocity": 0.7874015748031497,
          "duration": 0.5252185104166642
        },
        {
          "name": "F6",
          "midi": 89,
          "time": 205.7891649999986,
          "velocity": 0.7874015748031497,
          "duration": 0.5252185104166642
        },
        {
          "name": "D7",
          "midi": 98,
          "time": 205.7891649999986,
          "velocity": 0.7874015748031497,
          "duration": 0.5252185104166642
        },
        {
          "name": "F7",
          "midi": 101,
          "time": 205.7891649999986,
          "velocity": 0.7874015748031497,
          "duration": 0.5252185104166642
        },
        {
          "name": "C#4",
          "midi": 61,
          "time": 206.31547999999862,
          "velocity": 0.7874015748031497,
          "duration": 0.06578937500000848
        },
        {
          "name": "F#4",
          "midi": 66,
          "time": 206.31547999999862,
          "velocity": 0.7874015748031497,
          "duration": 0.06578937500000848
        },
        {
          "name": "C#5",
          "midi": 73,
          "time": 206.31547999999862,
          "velocity": 0.7874015748031497,
          "duration": 0.06578937500000848
        },
        {
          "name": "F#5",
          "midi": 78,
          "time": 206.31547999999862,
          "velocity": 0.7874015748031497,
          "duration": 0.06578937500000848
        },
        {
          "name": "C#6",
          "midi": 85,
          "time": 206.31547999999862,
          "velocity": 0.7874015748031497,
          "duration": 0.06578937500000848
        },
        {
          "name": "F#6",
          "midi": 90,
          "time": 206.31547999999862,
          "velocity": 0.7874015748031497,
          "duration": 0.06578937500000848
        },
        {
          "name": "C#7",
          "midi": 97,
          "time": 206.31547999999862,
          "velocity": 0.7874015748031497,
          "duration": 0.06578937500000848
        },
        {
          "name": "F#7",
          "midi": 102,
          "time": 206.31547999999862,
          "velocity": 0.7874015748031497,
          "duration": 0.06578937500000848
        },
        {
          "name": "C4",
          "midi": 60,
          "time": 206.57863749999862,
          "velocity": 0.7874015748031497,
          "duration": 0.06578937500000848
        },
        {
          "name": "F4",
          "midi": 65,
          "time": 206.57863749999862,
          "velocity": 0.7874015748031497,
          "duration": 0.06578937500000848
        },
        {
          "name": "C5",
          "midi": 72,
          "time": 206.57863749999862,
          "velocity": 0.7874015748031497,
          "duration": 0.06578937500000848
        },
        {
          "name": "F5",
          "midi": 77,
          "time": 206.57863749999862,
          "velocity": 0.7874015748031497,
          "duration": 0.06578937500000848
        },
        {
          "name": "C6",
          "midi": 84,
          "time": 206.57863749999862,
          "velocity": 0.7874015748031497,
          "duration": 0.06578937500000848
        },
        {
          "name": "F6",
          "midi": 89,
          "time": 206.57863749999862,
          "velocity": 0.7874015748031497,
          "duration": 0.06578937500000848
        },
        {
          "name": "C7",
          "midi": 96,
          "time": 206.57863749999862,
          "velocity": 0.7874015748031497,
          "duration": 0.06578937500000848
        },
        {
          "name": "F7",
          "midi": 101,
          "time": 206.57863749999862,
          "velocity": 0.7874015748031497,
          "duration": 0.06578937500000848
        },
        {
          "name": "C#4",
          "midi": 61,
          "time": 206.84179499999863,
          "velocity": 0.7874015748031497,
          "duration": 0.06469288541666174
        },
        {
          "name": "F4",
          "midi": 65,
          "time": 206.84179499999863,
          "velocity": 0.7874015748031497,
          "duration": 0.06469288541666174
        },
        {
          "name": "C#5",
          "midi": 73,
          "time": 206.84179499999863,
          "velocity": 0.7874015748031497,
          "duration": 0.06469288541666174
        },
        {
          "name": "F5",
          "midi": 77,
          "time": 206.84179499999863,
          "velocity": 0.7874015748031497,
          "duration": 0.06469288541666174
        },
        {
          "name": "C#6",
          "midi": 85,
          "time": 206.84179499999863,
          "velocity": 0.7874015748031497,
          "duration": 0.06469288541666174
        },
        {
          "name": "F6",
          "midi": 89,
          "time": 206.84179499999863,
          "velocity": 0.7874015748031497,
          "duration": 0.06469288541666174
        },
        {
          "name": "C#7",
          "midi": 97,
          "time": 206.84179499999863,
          "velocity": 0.7874015748031497,
          "duration": 0.06469288541666174
        },
        {
          "name": "F7",
          "midi": 101,
          "time": 206.84179499999863,
          "velocity": 0.7874015748031497,
          "duration": 0.06469288541666174
        },
        {
          "name": "D4",
          "midi": 62,
          "time": 207.10604898958195,
          "velocity": 0.7874015748031497,
          "duration": 0.06469288541666174
        },
        {
          "name": "F4",
          "midi": 65,
          "time": 207.10604898958195,
          "velocity": 0.7874015748031497,
          "duration": 0.06469288541666174
        },
        {
          "name": "D5",
          "midi": 74,
          "time": 207.10604898958195,
          "velocity": 0.7874015748031497,
          "duration": 0.06469288541666174
        },
        {
          "name": "F5",
          "midi": 77,
          "time": 207.10604898958195,
          "velocity": 0.7874015748031497,
          "duration": 0.06469288541666174
        },
        {
          "name": "D6",
          "midi": 86,
          "time": 207.10604898958195,
          "velocity": 0.7874015748031497,
          "duration": 0.06469288541666174
        },
        {
          "name": "F6",
          "midi": 89,
          "time": 207.10604898958195,
          "velocity": 0.7874015748031497,
          "duration": 0.06469288541666174
        },
        {
          "name": "D7",
          "midi": 98,
          "time": 207.10604898958195,
          "velocity": 0.7874015748031497,
          "duration": 0.06469288541666174
        },
        {
          "name": "F7",
          "midi": 101,
          "time": 207.10604898958195,
          "velocity": 0.7874015748031497,
          "duration": 0.06469288541666174
        },
        {
          "name": "C4",
          "midi": 60,
          "time": 207.3681099999986,
          "velocity": 0.7874015748031497,
          "duration": 0.06469288541666174
        },
        {
          "name": "F4",
          "midi": 65,
          "time": 207.3681099999986,
          "velocity": 0.7874015748031497,
          "duration": 0.06469288541666174
        },
        {
          "name": "C#5",
          "midi": 73,
          "time": 207.3681099999986,
          "velocity": 0.7874015748031497,
          "duration": 0.06469288541666174
        },
        {
          "name": "F5",
          "midi": 77,
          "time": 207.3681099999986,
          "velocity": 0.7874015748031497,
          "duration": 0.06469288541666174
        },
        {
          "name": "C#6",
          "midi": 85,
          "time": 207.3681099999986,
          "velocity": 0.7874015748031497,
          "duration": 0.06469288541666174
        },
        {
          "name": "F6",
          "midi": 89,
          "time": 207.3681099999986,
          "velocity": 0.7874015748031497,
          "duration": 0.06469288541666174
        },
        {
          "name": "C#7",
          "midi": 97,
          "time": 207.3681099999986,
          "velocity": 0.7874015748031497,
          "duration": 0.06469288541666174
        },
        {
          "name": "F7",
          "midi": 101,
          "time": 207.3681099999986,
          "velocity": 0.7874015748031497,
          "duration": 0.06469288541666174
        },
        {
          "name": "C#4",
          "midi": 61,
          "time": 207.63236398958193,
          "velocity": 0.7874015748031497,
          "duration": 0.06469288541666174
        },
        {
          "name": "F4",
          "midi": 65,
          "time": 207.63236398958193,
          "velocity": 0.7874015748031497,
          "duration": 0.06469288541666174
        },
        {
          "name": "D5",
          "midi": 74,
          "time": 207.63236398958193,
          "velocity": 0.7874015748031497,
          "duration": 0.06469288541666174
        },
        {
          "name": "F5",
          "midi": 77,
          "time": 207.63236398958193,
          "velocity": 0.7874015748031497,
          "duration": 0.06469288541666174
        },
        {
          "name": "D6",
          "midi": 86,
          "time": 207.63236398958193,
          "velocity": 0.7874015748031497,
          "duration": 0.06469288541666174
        },
        {
          "name": "F6",
          "midi": 89,
          "time": 207.63236398958193,
          "velocity": 0.7874015748031497,
          "duration": 0.06469288541666174
        },
        {
          "name": "D7",
          "midi": 98,
          "time": 207.63236398958193,
          "velocity": 0.7874015748031497,
          "duration": 0.06469288541666174
        },
        {
          "name": "F7",
          "midi": 101,
          "time": 207.63236398958193,
          "velocity": 0.7874015748031497,
          "duration": 0.06469288541666174
        },
        {
          "name": "D4",
          "midi": 62,
          "time": 207.8944249999986,
          "velocity": 0.7874015748031497,
          "duration": 0.5252185104166927
        },
        {
          "name": "F4",
          "midi": 65,
          "time": 207.8944249999986,
          "velocity": 0.7874015748031497,
          "duration": 0.5241220208333459
        },
        {
          "name": "D#5",
          "midi": 75,
          "time": 207.8944249999986,
          "velocity": 0.7874015748031497,
          "duration": 0.5252185104166927
        },
        {
          "name": "F5",
          "midi": 77,
          "time": 207.8944249999986,
          "velocity": 0.7874015748031497,
          "duration": 0.5241220208333459
        },
        {
          "name": "D#6",
          "midi": 87,
          "time": 207.8944249999986,
          "velocity": 0.7874015748031497,
          "duration": 0.06469288541666174
        },
        {
          "name": "F6",
          "midi": 89,
          "time": 207.8944249999986,
          "velocity": 0.7874015748031497,
          "duration": 0.06469288541666174
        },
        {
          "name": "D#7",
          "midi": 99,
          "time": 207.8944249999986,
          "velocity": 0.7874015748031497,
          "duration": 0.06469288541666174
        },
        {
          "name": "F7",
          "midi": 101,
          "time": 207.8944249999986,
          "velocity": 0.7874015748031497,
          "duration": 0.06469288541666174
        },
        {
          "name": "D7",
          "midi": 98,
          "time": 208.02710023958193,
          "velocity": 0.7874015748031497,
          "duration": 0.06469288541666174
        },
        {
          "name": "F7",
          "midi": 101,
          "time": 208.02710023958193,
          "velocity": 0.7874015748031497,
          "duration": 0.06469288541666174
        },
        {
          "name": "D6",
          "midi": 86,
          "time": 208.1575824999986,
          "velocity": 0.7874015748031497,
          "duration": 0.06469288541666174
        },
        {
          "name": "F6",
          "midi": 89,
          "time": 208.1575824999986,
          "velocity": 0.7874015748031497,
          "duration": 0.06469288541666174
        },
        {
          "name": "D#7",
          "midi": 99,
          "time": 208.1575824999986,
          "velocity": 0.7874015748031497,
          "duration": 0.06469288541666174
        },
        {
          "name": "F7",
          "midi": 101,
          "time": 208.1575824999986,
          "velocity": 0.7874015748031497,
          "duration": 0.06469288541666174
        },
        {
          "name": "C#7",
          "midi": 97,
          "time": 208.3878453124986,
          "velocity": 0.7874015748031497,
          "duration": 1.0855246875000262
        },
        {
          "name": "F7",
          "midi": 101,
          "time": 208.3878453124986,
          "velocity": 0.7874015748031497,
          "duration": 1.0855246875000262
        },
        {
          "name": "C#4",
          "midi": 61,
          "time": 208.42073999999863,
          "velocity": 0.7874015748031497,
          "duration": 1.0526299999999935
        },
        {
          "name": "F4",
          "midi": 65,
          "time": 208.42073999999863,
          "velocity": 0.7874015748031497,
          "duration": 1.0526299999999935
        },
        {
          "name": "C#5",
          "midi": 73,
          "time": 208.42073999999863,
          "velocity": 0.7874015748031497,
          "duration": 1.0526299999999935
        },
        {
          "name": "F5",
          "midi": 77,
          "time": 208.42073999999863,
          "velocity": 0.7874015748031497,
          "duration": 1.0526299999999935
        },
        {
          "name": "C#6",
          "midi": 85,
          "time": 208.42073999999863,
          "velocity": 0.7874015748031497,
          "duration": 1.0526299999999935
        },
        {
          "name": "F6",
          "midi": 89,
          "time": 208.42073999999863,
          "velocity": 0.7874015748031497,
          "duration": 1.0526299999999935
        },
        {
          "name": "D4",
          "midi": 62,
          "time": 210.65757874999863,
          "velocity": 0.7874015748031497,
          "duration": 0.06469288541666174
        },
        {
          "name": "F#4",
          "midi": 66,
          "time": 210.65757874999863,
          "velocity": 0.7874015748031497,
          "duration": 0.06469288541666174
        },
        {
          "name": "D#5",
          "midi": 75,
          "time": 210.65757874999863,
          "velocity": 0.7874015748031497,
          "duration": 0.06469288541666174
        },
        {
          "name": "F#5",
          "midi": 78,
          "time": 210.65757874999863,
          "velocity": 0.7874015748031497,
          "duration": 0.06469288541666174
        },
        {
          "name": "E6",
          "midi": 88,
          "time": 210.65757874999863,
          "velocity": 0.7874015748031497,
          "duration": 0.06469288541666174
        },
        {
          "name": "F#6",
          "midi": 90,
          "time": 210.65757874999863,
          "velocity": 0.7874015748031497,
          "duration": 0.06469288541666174
        },
        {
          "name": "E7",
          "midi": 100,
          "time": 210.65757874999863,
          "velocity": 0.7874015748031497,
          "duration": 0.06469288541666174
        },
        {
          "name": "F#7",
          "midi": 102,
          "time": 210.65757874999863,
          "velocity": 0.7874015748031497,
          "duration": 0.06469288541666174
        },
        {
          "name": "C#7",
          "midi": 97,
          "time": 210.7880610104153,
          "velocity": 0.7874015748031497,
          "duration": 0.06578937500000848
        },
        {
          "name": "F7",
          "midi": 101,
          "time": 210.7880610104153,
          "velocity": 0.7874015748031497,
          "duration": 0.06578937500000848
        },
        {
          "name": "D5",
          "midi": 74,
          "time": 210.85494687499866,
          "velocity": 0.7874015748031497,
          "duration": 0.06469288541666174
        },
        {
          "name": "F5",
          "midi": 77,
          "time": 210.85494687499866,
          "velocity": 0.7874015748031497,
          "duration": 0.06469288541666174
        },
        {
          "name": "D#6",
          "midi": 87,
          "time": 210.85494687499866,
          "velocity": 0.7874015748031497,
          "duration": 0.06469288541666174
        },
        {
          "name": "F6",
          "midi": 89,
          "time": 210.85494687499866,
          "velocity": 0.7874015748031497,
          "duration": 0.06469288541666174
        },
        {
          "name": "C#4",
          "midi": 61,
          "time": 210.92073624999867,
          "velocity": 0.7874015748031497,
          "duration": 0.06578937500000848
        },
        {
          "name": "F4",
          "midi": 65,
          "time": 210.92073624999867,
          "velocity": 0.7874015748031497,
          "duration": 0.06578937500000848
        },
        {
          "name": "D7",
          "midi": 98,
          "time": 210.95363093749867,
          "velocity": 0.7874015748031497,
          "duration": 0.06469288541666174
        },
        {
          "name": "F7",
          "midi": 101,
          "time": 210.95363093749867,
          "velocity": 0.7874015748031497,
          "duration": 0.06469288541666174
        },
        {
          "name": "C#5",
          "midi": 73,
          "time": 211.05231499999866,
          "velocity": 0.7874015748031497,
          "duration": 0.06578937500000848
        },
        {
          "name": "F5",
          "midi": 77,
          "time": 211.05231499999866,
          "velocity": 0.7874015748031497,
          "duration": 0.06578937500000848
        },
        {
          "name": "D6",
          "midi": 86,
          "time": 211.05231499999866,
          "velocity": 0.7874015748031497,
          "duration": 0.06578937500000848
        },
        {
          "name": "F6",
          "midi": 89,
          "time": 211.05231499999866,
          "velocity": 0.7874015748031497,
          "duration": 0.06578937500000848
        },
        {
          "name": "C#7",
          "midi": 97,
          "time": 211.11810437499867,
          "velocity": 0.7874015748031497,
          "duration": 0.06578937500000848
        },
        {
          "name": "F7",
          "midi": 101,
          "time": 211.11810437499867,
          "velocity": 0.7874015748031497,
          "duration": 0.06578937500000848
        },
        {
          "name": "D#7",
          "midi": 99,
          "time": 211.21678843749868,
          "velocity": 0.7874015748031497,
          "duration": 0.06578937500000848
        },
        {
          "name": "F7",
          "midi": 101,
          "time": 211.21678843749868,
          "velocity": 0.7874015748031497,
          "duration": 0.06578937500000848
        },
        {
          "name": "D4",
          "midi": 62,
          "time": 211.316568989582,
          "velocity": 0.7874015748031497,
          "duration": 0.06469288541666174
        },
        {
          "name": "F4",
          "midi": 65,
          "time": 211.316568989582,
          "velocity": 0.7874015748031497,
          "duration": 0.06469288541666174
        },
        {
          "name": "D5",
          "midi": 74,
          "time": 211.316568989582,
          "velocity": 0.7874015748031497,
          "duration": 0.06469288541666174
        },
        {
          "name": "F5",
          "midi": 77,
          "time": 211.316568989582,
          "velocity": 0.7874015748031497,
          "duration": 0.06469288541666174
        },
        {
          "name": "D#6",
          "midi": 87,
          "time": 211.316568989582,
          "velocity": 0.7874015748031497,
          "duration": 0.06469288541666174
        },
        {
          "name": "F6",
          "midi": 89,
          "time": 211.316568989582,
          "velocity": 0.7874015748031497,
          "duration": 0.06469288541666174
        },
        {
          "name": "D7",
          "midi": 98,
          "time": 211.316568989582,
          "velocity": 0.7874015748031497,
          "duration": 0.06469288541666174
        },
        {
          "name": "F7",
          "midi": 101,
          "time": 211.316568989582,
          "velocity": 0.7874015748031497,
          "duration": 0.06469288541666174
        },
        {
          "name": "C#7",
          "midi": 97,
          "time": 211.41415656249868,
          "velocity": 0.7874015748031497,
          "duration": 0.06578937500000848
        },
        {
          "name": "F7",
          "midi": 101,
          "time": 211.41415656249868,
          "velocity": 0.7874015748031497,
          "duration": 0.06578937500000848
        },
        {
          "name": "D7",
          "midi": 98,
          "time": 211.5128406249987,
          "velocity": 0.7874015748031497,
          "duration": 0.06578937500000848
        },
        {
          "name": "F7",
          "midi": 101,
          "time": 211.5128406249987,
          "velocity": 0.7874015748031497,
          "duration": 0.06578937500000848
        },
        {
          "name": "C#4",
          "midi": 61,
          "time": 211.5786299999987,
          "velocity": 0.7874015748031497,
          "duration": 0.06578937500000848
        },
        {
          "name": "F4",
          "midi": 65,
          "time": 211.5786299999987,
          "velocity": 0.7874015748031497,
          "duration": 0.06578937500000848
        },
        {
          "name": "C#5",
          "midi": 73,
          "time": 211.5786299999987,
          "velocity": 0.7874015748031497,
          "duration": 0.06578937500000848
        },
        {
          "name": "F5",
          "midi": 77,
          "time": 211.5786299999987,
          "velocity": 0.7874015748031497,
          "duration": 0.06578937500000848
        },
        {
          "name": "D6",
          "midi": 86,
          "time": 211.5786299999987,
          "velocity": 0.7874015748031497,
          "duration": 0.06578937500000848
        },
        {
          "name": "F6",
          "midi": 89,
          "time": 211.5786299999987,
          "velocity": 0.7874015748031497,
          "duration": 0.06578937500000848
        },
        {
          "name": "C7",
          "midi": 96,
          "time": 211.6115246874987,
          "velocity": 0.7874015748031497,
          "duration": 0.06578937500000848
        },
        {
          "name": "F7",
          "midi": 101,
          "time": 211.6115246874987,
          "velocity": 0.7874015748031497,
          "duration": 0.06578937500000848
        },
        {
          "name": "C#7",
          "midi": 97,
          "time": 211.7102087499987,
          "velocity": 0.7874015748031497,
          "duration": 0.06578937500000848
        },
        {
          "name": "F7",
          "midi": 101,
          "time": 211.7102087499987,
          "velocity": 0.7874015748031497,
          "duration": 0.06578937500000848
        },
        {
          "name": "C4",
          "midi": 60,
          "time": 211.84288398958205,
          "velocity": 0.7874015748031497,
          "duration": 0.06469288541666174
        },
        {
          "name": "F4",
          "midi": 65,
          "time": 211.84288398958205,
          "velocity": 0.7874015748031497,
          "duration": 0.06469288541666174
        },
        {
          "name": "D#6",
          "midi": 87,
          "time": 211.84288398958205,
          "velocity": 0.7874015748031497,
          "duration": 0.06469288541666174
        },
        {
          "name": "F6",
          "midi": 89,
          "time": 211.84288398958205,
          "velocity": 0.7874015748031497,
          "duration": 0.06469288541666174
        },
        {
          "name": "D#7",
          "midi": 99,
          "time": 211.8746821874987,
          "velocity": 0.7874015748031497,
          "duration": 0.06578937500000848
        },
        {
          "name": "F7",
          "midi": 101,
          "time": 211.8746821874987,
          "velocity": 0.7874015748031497,
          "duration": 0.06578937500000848
        },
        {
          "name": "D6",
          "midi": 86,
          "time": 211.97336624999872,
          "velocity": 0.7874015748031497,
          "duration": 0.06578937500000848
        },
        {
          "name": "F6",
          "midi": 89,
          "time": 211.97336624999872,
          "velocity": 0.7874015748031497,
          "duration": 0.06578937500000848
        },
        {
          "name": "D7",
          "midi": 98,
          "time": 212.03915562499873,
          "velocity": 0.7874015748031497,
          "duration": 0.06578937500000848
        },
        {
          "name": "F7",
          "midi": 101,
          "time": 212.03915562499873,
          "velocity": 0.7874015748031497,
          "duration": 0.06578937500000848
        },
        {
          "name": "C5",
          "midi": 72,
          "time": 212.10494499999874,
          "velocity": 0.7874015748031497,
          "duration": 0.06469288541666174
        },
        {
          "name": "F5",
          "midi": 77,
          "time": 212.10494499999874,
          "velocity": 0.7874015748031497,
          "duration": 0.06469288541666174
        },
        {
          "name": "C#6",
          "midi": 85,
          "time": 212.10494499999874,
          "velocity": 0.7874015748031497,
          "duration": 0.06469288541666174
        },
        {
          "name": "F6",
          "midi": 89,
          "time": 212.10494499999874,
          "velocity": 0.7874015748031497,
          "duration": 0.06469288541666174
        },
        {
          "name": "C#7",
          "midi": 97,
          "time": 212.13783968749874,
          "velocity": 0.7874015748031497,
          "duration": 0.06469288541666174
        },
        {
          "name": "F7",
          "midi": 101,
          "time": 212.13783968749874,
          "velocity": 0.7874015748031497,
          "duration": 0.06469288541666174
        },
        {
          "name": "C#5",
          "midi": 73,
          "time": 212.30340961458208,
          "velocity": 0.7874015748031497,
          "duration": 0.06469288541666174
        },
        {
          "name": "F5",
          "midi": 77,
          "time": 212.30340961458208,
          "velocity": 0.7874015748031497,
          "duration": 0.06469288541666174
        },
        {
          "name": "D6",
          "midi": 86,
          "time": 212.30340961458208,
          "velocity": 0.7874015748031497,
          "duration": 0.06469288541666174
        },
        {
          "name": "F6",
          "midi": 89,
          "time": 212.30340961458208,
          "velocity": 0.7874015748031497,
          "duration": 0.06469288541666174
        },
        {
          "name": "D7",
          "midi": 98,
          "time": 212.30340961458208,
          "velocity": 0.7874015748031497,
          "duration": 0.06469288541666174
        },
        {
          "name": "F7",
          "midi": 101,
          "time": 212.30340961458208,
          "velocity": 0.7874015748031497,
          "duration": 0.06469288541666174
        },
        {
          "name": "C#4",
          "midi": 61,
          "time": 212.36810249999874,
          "velocity": 0.7874015748031497,
          "duration": 0.06469288541666174
        },
        {
          "name": "F4",
          "midi": 65,
          "time": 212.36810249999874,
          "velocity": 0.7874015748031497,
          "duration": 0.06469288541666174
        },
        {
          "name": "D#7",
          "midi": 99,
          "time": 212.46678656249873,
          "velocity": 0.7874015748031497,
          "duration": 0.06578937499998005
        },
        {
          "name": "F7",
          "midi": 101,
          "time": 212.46678656249873,
          "velocity": 0.7874015748031497,
          "duration": 0.06578937499998005
        },
        {
          "name": "D5",
          "midi": 74,
          "time": 212.50077773958205,
          "velocity": 0.7874015748031497,
          "duration": 0.06469288541666174
        },
        {
          "name": "F5",
          "midi": 77,
          "time": 212.50077773958205,
          "velocity": 0.7874015748031497,
          "duration": 0.06469288541666174
        },
        {
          "name": "D#6",
          "midi": 87,
          "time": 212.50077773958205,
          "velocity": 0.7874015748031497,
          "duration": 0.06469288541666174
        },
        {
          "name": "F6",
          "midi": 89,
          "time": 212.50077773958205,
          "velocity": 0.7874015748031497,
          "duration": 0.06469288541666174
        },
        {
          "name": "D4",
          "midi": 62,
          "time": 212.63125999999872,
          "velocity": 0.7874015748031497,
          "duration": 0.7894725000000165
        },
        {
          "name": "F4",
          "midi": 65,
          "time": 212.63125999999872,
          "velocity": 0.7874015748031497,
          "duration": 0.7894725000000165
        },
        {
          "name": "D#5",
          "midi": 75,
          "time": 212.69704937499873,
          "velocity": 0.7874015748031497,
          "duration": 0.7225866354166612
        },
        {
          "name": "F5",
          "midi": 77,
          "time": 212.69704937499873,
          "velocity": 0.7874015748031497,
          "duration": 0.7214901458333145
        },
        {
          "name": "E6",
          "midi": 88,
          "time": 212.69704937499873,
          "velocity": 0.7874015748031497,
          "duration": 0.7225866354166612
        },
        {
          "name": "F6",
          "midi": 89,
          "time": 212.69704937499873,
          "velocity": 0.7874015748031497,
          "duration": 0.7214901458333145
        },
        {
          "name": "D#7",
          "midi": 99,
          "time": 212.69704937499873,
          "velocity": 0.7874015748031497,
          "duration": 0.06469288541666174
        },
        {
          "name": "F#7",
          "midi": 102,
          "time": 212.69704937499873,
          "velocity": 0.7874015748031497,
          "duration": 0.06469288541666174
        },
        {
          "name": "E7",
          "midi": 100,
          "time": 212.82862812499872,
          "velocity": 0.7874015748031497,
          "duration": 0.5910078854166727
        },
        {
          "name": "F7",
          "midi": 101,
          "time": 212.82862812499872,
          "velocity": 0.7874015748031497,
          "duration": 0.589911395833326
        },
        {
          "name": "D5",
          "midi": 74,
          "time": 213.42073249999873,
          "velocity": 0.7874015748031497,
          "duration": 0.06469288541666174
        },
        {
          "name": "F5",
          "midi": 77,
          "time": 213.42073249999873,
          "velocity": 0.7874015748031497,
          "duration": 0.06469288541666174
        },
        {
          "name": "D#6",
          "midi": 87,
          "time": 213.42073249999873,
          "velocity": 0.7874015748031497,
          "duration": 0.06469288541666174
        },
        {
          "name": "F6",
          "midi": 89,
          "time": 213.42073249999873,
          "velocity": 0.7874015748031497,
          "duration": 0.06469288541666174
        },
        {
          "name": "D7",
          "midi": 98,
          "time": 213.42073249999873,
          "velocity": 0.7874015748031497,
          "duration": 0.06469288541666174
        },
        {
          "name": "F7",
          "midi": 101,
          "time": 213.42073249999873,
          "velocity": 0.7874015748031497,
          "duration": 0.06469288541666174
        },
        {
          "name": "C#7",
          "midi": 97,
          "time": 213.55231124999872,
          "velocity": 0.7874015748031497,
          "duration": 0.06469288541666174
        },
        {
          "name": "F7",
          "midi": 101,
          "time": 213.55231124999872,
          "velocity": 0.7874015748031497,
          "duration": 0.06469288541666174
        },
        {
          "name": "C#4",
          "midi": 61,
          "time": 213.6838899999987,
          "velocity": 0.7874015748031497,
          "duration": 0.06469288541666174
        },
        {
          "name": "F#4",
          "midi": 66,
          "time": 213.6838899999987,
          "velocity": 0.7874015748031497,
          "duration": 0.06469288541666174
        },
        {
          "name": "C#5",
          "midi": 73,
          "time": 213.6838899999987,
          "velocity": 0.7874015748031497,
          "duration": 0.06469288541666174
        },
        {
          "name": "F5",
          "midi": 77,
          "time": 213.6838899999987,
          "velocity": 0.7874015748031497,
          "duration": 0.06469288541666174
        },
        {
          "name": "C#6",
          "midi": 85,
          "time": 213.6838899999987,
          "velocity": 0.7874015748031497,
          "duration": 0.06469288541666174
        },
        {
          "name": "F6",
          "midi": 89,
          "time": 213.6838899999987,
          "velocity": 0.7874015748031497,
          "duration": 0.06469288541666174
        },
        {
          "name": "C7",
          "midi": 96,
          "time": 213.71678468749872,
          "velocity": 0.7874015748031497,
          "duration": 0.06469288541666174
        },
        {
          "name": "F7",
          "midi": 101,
          "time": 213.71678468749872,
          "velocity": 0.7874015748031497,
          "duration": 0.06469288541666174
        },
        {
          "name": "D6",
          "midi": 86,
          "time": 213.86042482291538,
          "velocity": 0.7874015748031497,
          "duration": 0.06469288541669016
        },
        {
          "name": "F6",
          "midi": 89,
          "time": 213.86042482291538,
          "velocity": 0.7874015748031497,
          "duration": 0.06469288541669016
        },
        {
          "name": "C#7",
          "midi": 97,
          "time": 213.88235461458206,
          "velocity": 0.7874015748031497,
          "duration": 0.06469288541669016
        },
        {
          "name": "F7",
          "midi": 101,
          "time": 213.88235461458206,
          "velocity": 0.7874015748031497,
          "duration": 0.06469288541669016
        },
        {
          "name": "C#4",
          "midi": 61,
          "time": 214.01393336458207,
          "velocity": 0.7874015748031497,
          "duration": 0.06469288541666174
        },
        {
          "name": "F#4",
          "midi": 66,
          "time": 214.01393336458207,
          "velocity": 0.7874015748031497,
          "duration": 0.06469288541666174
        },
        {
          "name": "C#5",
          "midi": 73,
          "time": 214.01393336458207,
          "velocity": 0.7874015748031497,
          "duration": 0.06469288541666174
        },
        {
          "name": "F#5",
          "midi": 78,
          "time": 214.01393336458207,
          "velocity": 0.7874015748031497,
          "duration": 0.06469288541666174
        },
        {
          "name": "C#6",
          "midi": 85,
          "time": 214.0347666666654,
          "velocity": 0.7874015748031497,
          "duration": 0.06578937500000848
        },
        {
          "name": "F6",
          "midi": 89,
          "time": 214.0347666666654,
          "velocity": 0.7874015748031497,
          "duration": 0.06578937500000848
        },
        {
          "name": "C7",
          "midi": 96,
          "time": 214.11261742708209,
          "velocity": 0.7874015748031497,
          "duration": 0.06469288541666174
        },
        {
          "name": "F7",
          "midi": 101,
          "time": 214.11261742708209,
          "velocity": 0.7874015748031497,
          "duration": 0.06469288541666174
        },
        {
          "name": "D4",
          "midi": 62,
          "time": 214.34178374999874,
          "velocity": 0.7874015748031497,
          "duration": 0.3936397604167041
        },
        {
          "name": "F#4",
          "midi": 66,
          "time": 214.34178374999874,
          "velocity": 0.7874015748031497,
          "duration": 0.3936397604167041
        },
        {
          "name": "D#5",
          "midi": 75,
          "time": 214.34178374999874,
          "velocity": 0.7874015748031497,
          "duration": 0.3936397604167041
        },
        {
          "name": "F#5",
          "midi": 78,
          "time": 214.34178374999874,
          "velocity": 0.7874015748031497,
          "duration": 0.3936397604167041
        },
        {
          "name": "E6",
          "midi": 88,
          "time": 214.34178374999874,
          "velocity": 0.7874015748031497,
          "duration": 0.3936397604167041
        },
        {
          "name": "F#6",
          "midi": 90,
          "time": 214.34178374999874,
          "velocity": 0.7874015748031497,
          "duration": 0.3936397604167041
        },
        {
          "name": "D#7",
          "midi": 99,
          "time": 214.34178374999874,
          "velocity": 0.7874015748031497,
          "duration": 0.06578937500000848
        },
        {
          "name": "F#7",
          "midi": 102,
          "time": 214.34178374999874,
          "velocity": 0.7874015748031497,
          "duration": 0.06578937500000848
        },
        {
          "name": "E7",
          "midi": 100,
          "time": 214.47336249999876,
          "velocity": 0.7874015748031497,
          "duration": 0.06578937500000848
        },
        {
          "name": "F7",
          "midi": 101,
          "time": 214.47336249999876,
          "velocity": 0.7874015748031497,
          "duration": 0.06578937500000848
        },
        {
          "name": "C#4",
          "midi": 61,
          "time": 214.7365199999988,
          "velocity": 0.7874015748031497,
          "duration": 0.06469288541666174
        },
        {
          "name": "F4",
          "midi": 65,
          "time": 214.7365199999988,
          "velocity": 0.7874015748031497,
          "duration": 0.06469288541666174
        },
        {
          "name": "D5",
          "midi": 74,
          "time": 214.7365199999988,
          "velocity": 0.7874015748031497,
          "duration": 0.06469288541666174
        },
        {
          "name": "F5",
          "midi": 77,
          "time": 214.7365199999988,
          "velocity": 0.7874015748031497,
          "duration": 0.06469288541666174
        },
        {
          "name": "D#6",
          "midi": 87,
          "time": 214.7365199999988,
          "velocity": 0.7874015748031497,
          "duration": 0.06469288541666174
        },
        {
          "name": "F6",
          "midi": 89,
          "time": 214.7365199999988,
          "velocity": 0.7874015748031497,
          "duration": 0.06469288541666174
        },
        {
          "name": "D#7",
          "midi": 99,
          "time": 214.7365199999988,
          "velocity": 0.7874015748031497,
          "duration": 0.06469288541666174
        },
        {
          "name": "F7",
          "midi": 101,
          "time": 214.7365199999988,
          "velocity": 0.7874015748031497,
          "duration": 0.06469288541666174
        },
        {
          "name": "D7",
          "midi": 98,
          "time": 214.83630055208212,
          "velocity": 0.7874015748031497,
          "duration": 0.06469288541666174
        },
        {
          "name": "F7",
          "midi": 101,
          "time": 214.83630055208212,
          "velocity": 0.7874015748031497,
          "duration": 0.06469288541666174
        },
        {
          "name": "D6",
          "midi": 86,
          "time": 214.86809874999878,
          "velocity": 0.7874015748031497,
          "duration": 0.06469288541666174
        },
        {
          "name": "F6",
          "midi": 89,
          "time": 214.86809874999878,
          "velocity": 0.7874015748031497,
          "duration": 0.06469288541666174
        },
        {
          "name": "C#7",
          "midi": 97,
          "time": 214.9338881249988,
          "velocity": 0.7874015748031497,
          "duration": 0.06469288541666174
        },
        {
          "name": "F7",
          "midi": 101,
          "time": 214.9338881249988,
          "velocity": 0.7874015748031497,
          "duration": 0.06469288541666174
        },
        {
          "name": "C4",
          "midi": 60,
          "time": 215.00077398958211,
          "velocity": 0.7874015748031497,
          "duration": 0.06469288541666174
        },
        {
          "name": "F4",
          "midi": 65,
          "time": 215.00077398958211,
          "velocity": 0.7874015748031497,
          "duration": 0.06469288541666174
        },
        {
          "name": "C#5",
          "midi": 73,
          "time": 215.00077398958211,
          "velocity": 0.7874015748031497,
          "duration": 0.06469288541666174
        },
        {
          "name": "F5",
          "midi": 77,
          "time": 215.00077398958211,
          "velocity": 0.7874015748031497,
          "duration": 0.06469288541666174
        },
        {
          "name": "C#6",
          "midi": 85,
          "time": 215.00077398958211,
          "velocity": 0.7874015748031497,
          "duration": 0.06469288541666174
        },
        {
          "name": "F6",
          "midi": 89,
          "time": 215.00077398958211,
          "velocity": 0.7874015748031497,
          "duration": 0.06469288541666174
        },
        {
          "name": "D7",
          "midi": 98,
          "time": 215.1641509374988,
          "velocity": 0.7874015748031497,
          "duration": 0.06469288541666174
        },
        {
          "name": "F7",
          "midi": 101,
          "time": 215.1641509374988,
          "velocity": 0.7874015748031497,
          "duration": 0.06469288541666174
        },
        {
          "name": "D4",
          "midi": 62,
          "time": 215.39331726041544,
          "velocity": 0.7874015748031497,
          "duration": 0.06578937499998005
        },
        {
          "name": "F#4",
          "midi": 66,
          "time": 215.39331726041544,
          "velocity": 0.7874015748031497,
          "duration": 0.06578937499998005
        },
        {
          "name": "D#5",
          "midi": 75,
          "time": 215.39331726041544,
          "velocity": 0.7874015748031497,
          "duration": 0.06578937499998005
        },
        {
          "name": "F#5",
          "midi": 78,
          "time": 215.39331726041544,
          "velocity": 0.7874015748031497,
          "duration": 0.06578937499998005
        },
        {
          "name": "E6",
          "midi": 88,
          "time": 215.39331726041544,
          "velocity": 0.7874015748031497,
          "duration": 0.06578937499998005
        },
        {
          "name": "F#6",
          "midi": 90,
          "time": 215.39331726041544,
          "velocity": 0.7874015748031497,
          "duration": 0.06578937499998005
        },
        {
          "name": "E7",
          "midi": 100,
          "time": 215.42730843749877,
          "velocity": 0.7874015748031497,
          "duration": 0.06469288541666174
        },
        {
          "name": "F#7",
          "midi": 102,
          "time": 215.42730843749877,
          "velocity": 0.7874015748031497,
          "duration": 0.06469288541666174
        },
        {
          "name": "E7",
          "midi": 100,
          "time": 215.7244571145821,
          "velocity": 0.7874015748031497,
          "duration": 0.06469288541666174
        },
        {
          "name": "F#7",
          "midi": 102,
          "time": 215.7244571145821,
          "velocity": 0.7874015748031497,
          "duration": 0.06469288541666174
        },
        {
          "name": "D4",
          "midi": 62,
          "time": 215.78914999999876,
          "velocity": 0.7874015748031497,
          "duration": 0.06469288541666174
        },
        {
          "name": "F#4",
          "midi": 66,
          "time": 215.78914999999876,
          "velocity": 0.7874015748031497,
          "duration": 0.06469288541666174
        },
        {
          "name": "D#5",
          "midi": 75,
          "time": 215.78914999999876,
          "velocity": 0.7874015748031497,
          "duration": 0.06469288541666174
        },
        {
          "name": "F#5",
          "midi": 78,
          "time": 215.78914999999876,
          "velocity": 0.7874015748031497,
          "duration": 0.06469288541666174
        },
        {
          "name": "E6",
          "midi": 88,
          "time": 215.78914999999876,
          "velocity": 0.7874015748031497,
          "duration": 0.06469288541666174
        },
        {
          "name": "F#6",
          "midi": 90,
          "time": 215.78914999999876,
          "velocity": 0.7874015748031497,
          "duration": 0.06469288541666174
        },
        {
          "name": "D#7",
          "midi": 99,
          "time": 215.92072874999874,
          "velocity": 0.7874015748031497,
          "duration": 0.06469288541669016
        },
        {
          "name": "F7",
          "midi": 101,
          "time": 215.92072874999874,
          "velocity": 0.7874015748031497,
          "duration": 0.06469288541669016
        },
        {
          "name": "D#6",
          "midi": 87,
          "time": 215.96568482291542,
          "velocity": 0.7874015748031497,
          "duration": 0.06469288541669016
        },
        {
          "name": "F6",
          "midi": 89,
          "time": 215.96568482291542,
          "velocity": 0.7874015748031497,
          "duration": 0.06469288541669016
        },
        {
          "name": "C#4",
          "midi": 61,
          "time": 216.0534039895821,
          "velocity": 0.7874015748031497,
          "duration": 0.06469288541666174
        },
        {
          "name": "F4",
          "midi": 65,
          "time": 216.0534039895821,
          "velocity": 0.7874015748031497,
          "duration": 0.06469288541666174
        },
        {
          "name": "C#5",
          "midi": 73,
          "time": 216.0534039895821,
          "velocity": 0.7874015748031497,
          "duration": 0.06469288541666174
        },
        {
          "name": "F5",
          "midi": 77,
          "time": 216.0534039895821,
          "velocity": 0.7874015748031497,
          "duration": 0.06469288541666174
        },
        {
          "name": "D7",
          "midi": 98,
          "time": 216.11919336458212,
          "velocity": 0.7874015748031497,
          "duration": 0.06469288541666174
        },
        {
          "name": "F7",
          "midi": 101,
          "time": 216.11919336458212,
          "velocity": 0.7874015748031497,
          "duration": 0.06469288541666174
        },
        {
          "name": "D6",
          "midi": 86,
          "time": 216.14002666666545,
          "velocity": 0.7874015748031497,
          "duration": 0.06469288541666174
        },
        {
          "name": "F6",
          "midi": 89,
          "time": 216.14002666666545,
          "velocity": 0.7874015748031497,
          "duration": 0.06469288541666174
        },
        {
          "name": "D#7",
          "midi": 99,
          "time": 216.21678093749878,
          "velocity": 0.7874015748031497,
          "duration": 0.06469288541666174
        },
        {
          "name": "F7",
          "midi": 101,
          "time": 216.21678093749878,
          "velocity": 0.7874015748031497,
          "duration": 0.06469288541666174
        },
        {
          "name": "D4",
          "midi": 62,
          "time": 216.31546499999877,
          "velocity": 0.7874015748031497,
          "duration": 0.06578937500000848
        },
        {
          "name": "F4",
          "midi": 65,
          "time": 216.31546499999877,
          "velocity": 0.7874015748031497,
          "duration": 0.06578937500000848
        },
        {
          "name": "D5",
          "midi": 74,
          "time": 216.31546499999877,
          "velocity": 0.7874015748031497,
          "duration": 0.06578937500000848
        },
        {
          "name": "F5",
          "midi": 77,
          "time": 216.31546499999877,
          "velocity": 0.7874015748031497,
          "duration": 0.06578937500000848
        },
        {
          "name": "D#6",
          "midi": 87,
          "time": 216.38125437499878,
          "velocity": 0.7874015748031497,
          "duration": 0.06469288541666174
        },
        {
          "name": "F6",
          "midi": 89,
          "time": 216.38125437499878,
          "velocity": 0.7874015748031497,
          "duration": 0.06469288541666174
        },
        {
          "name": "D7",
          "midi": 98,
          "time": 216.38125437499878,
          "velocity": 0.7874015748031497,
          "duration": 0.06469288541666174
        },
        {
          "name": "F7",
          "midi": 101,
          "time": 216.38125437499878,
          "velocity": 0.7874015748031497,
          "duration": 0.06469288541666174
        },
        {
          "name": "C#7",
          "midi": 97,
          "time": 216.51283312499876,
          "velocity": 0.7874015748031497,
          "duration": 0.06578937500000848
        },
        {
          "name": "F7",
          "midi": 101,
          "time": 216.51283312499876,
          "velocity": 0.7874015748031497,
          "duration": 0.06578937500000848
        },
        {
          "name": "D6",
          "midi": 86,
          "time": 216.57862249999877,
          "velocity": 0.7874015748031497,
          "duration": 0.06578937500000848
        },
        {
          "name": "F6",
          "midi": 89,
          "time": 216.57862249999877,
          "velocity": 0.7874015748031497,
          "duration": 0.06578937500000848
        },
        {
          "name": "C#4",
          "midi": 61,
          "time": 216.64441187499878,
          "velocity": 0.7874015748031497,
          "duration": 0.06469288541666174
        },
        {
          "name": "F4",
          "midi": 65,
          "time": 216.64441187499878,
          "velocity": 0.7874015748031497,
          "duration": 0.06469288541666174
        },
        {
          "name": "D7",
          "midi": 98,
          "time": 216.64441187499878,
          "velocity": 0.7874015748031497,
          "duration": 0.06469288541666174
        },
        {
          "name": "F7",
          "midi": 101,
          "time": 216.64441187499878,
          "velocity": 0.7874015748031497,
          "duration": 0.06469288541666174
        },
        {
          "name": "C#5",
          "midi": 73,
          "time": 216.7112977395821,
          "velocity": 0.7874015748031497,
          "duration": 0.06469288541666174
        },
        {
          "name": "F5",
          "midi": 77,
          "time": 216.7112977395821,
          "velocity": 0.7874015748031497,
          "duration": 0.06469288541666174
        },
        {
          "name": "C#6",
          "midi": 85,
          "time": 216.77599062499877,
          "velocity": 0.7874015748031497,
          "duration": 0.06578937500000848
        },
        {
          "name": "F6",
          "midi": 89,
          "time": 216.77599062499877,
          "velocity": 0.7874015748031497,
          "duration": 0.06578937500000848
        },
        {
          "name": "C#7",
          "midi": 97,
          "time": 216.84177999999878,
          "velocity": 0.7874015748031497,
          "duration": 0.06469288541666174
        },
        {
          "name": "F7",
          "midi": 101,
          "time": 216.84177999999878,
          "velocity": 0.7874015748031497,
          "duration": 0.06469288541666174
        },
        {
          "name": "C4",
          "midi": 60,
          "time": 216.97335874999877,
          "velocity": 0.7874015748031497,
          "duration": 0.7861830312499762
        },
        {
          "name": "F4",
          "midi": 65,
          "time": 216.97335874999877,
          "velocity": 0.7874015748031497,
          "duration": 0.7861830312499762
        },
        {
          "name": "C5",
          "midi": 72,
          "time": 216.97335874999877,
          "velocity": 0.7874015748031497,
          "duration": 0.7861830312499762
        },
        {
          "name": "F5",
          "midi": 77,
          "time": 216.97335874999877,
          "velocity": 0.7874015748031497,
          "duration": 0.7861830312499762
        },
        {
          "name": "C6",
          "midi": 84,
          "time": 216.97335874999877,
          "velocity": 0.7874015748031497,
          "duration": 0.7861830312499762
        },
        {
          "name": "F6",
          "midi": 89,
          "time": 216.97335874999877,
          "velocity": 0.7874015748031497,
          "duration": 0.7861830312499762
        },
        {
          "name": "C7",
          "midi": 96,
          "time": 217.0073499270821,
          "velocity": 0.7874015748031497,
          "duration": 0.7532883437500004
        },
        {
          "name": "F7",
          "midi": 101,
          "time": 217.0073499270821,
          "velocity": 0.7874015748031497,
          "duration": 0.7532883437500004
        },
        {
          "name": "C4",
          "midi": 60,
          "time": 218.94703999999876,
          "velocity": 0.7874015748031497,
          "duration": 0.06469288541666174
        },
        {
          "name": "F#4",
          "midi": 66,
          "time": 218.94703999999876,
          "velocity": 0.7874015748031497,
          "duration": 0.06469288541666174
        },
        {
          "name": "C5",
          "midi": 72,
          "time": 218.94703999999876,
          "velocity": 0.7874015748031497,
          "duration": 0.06469288541666174
        },
        {
          "name": "F#5",
          "midi": 78,
          "time": 218.94703999999876,
          "velocity": 0.7874015748031497,
          "duration": 0.06469288541666174
        },
        {
          "name": "C6",
          "midi": 84,
          "time": 218.94703999999876,
          "velocity": 0.7874015748031497,
          "duration": 0.06469288541666174
        },
        {
          "name": "F#6",
          "midi": 90,
          "time": 218.94703999999876,
          "velocity": 0.7874015748031497,
          "duration": 0.06469288541666174
        },
        {
          "name": "C7",
          "midi": 96,
          "time": 218.94703999999876,
          "velocity": 0.7874015748031497,
          "duration": 0.06469288541666174
        },
        {
          "name": "F#7",
          "midi": 102,
          "time": 218.94703999999876,
          "velocity": 0.7874015748031497,
          "duration": 0.06469288541666174
        },
        {
          "name": "C#5",
          "midi": 73,
          "time": 219.12247833333208,
          "velocity": 0.7874015748031497,
          "duration": 0.06469288541666174
        },
        {
          "name": "F5",
          "midi": 77,
          "time": 219.12247833333208,
          "velocity": 0.7874015748031497,
          "duration": 0.06469288541666174
        },
        {
          "name": "C#6",
          "midi": 85,
          "time": 219.12247833333208,
          "velocity": 0.7874015748031497,
          "duration": 0.06469288541666174
        },
        {
          "name": "F6",
          "midi": 89,
          "time": 219.12247833333208,
          "velocity": 0.7874015748031497,
          "duration": 0.06469288541666174
        },
        {
          "name": "C#7",
          "midi": 97,
          "time": 219.12247833333208,
          "velocity": 0.7874015748031497,
          "duration": 0.06469288541666174
        },
        {
          "name": "F7",
          "midi": 101,
          "time": 219.12247833333208,
          "velocity": 0.7874015748031497,
          "duration": 0.06469288541666174
        },
        {
          "name": "D4",
          "midi": 62,
          "time": 219.27598687499875,
          "velocity": 0.7874015748031497,
          "duration": 0.06469288541669016
        },
        {
          "name": "F4",
          "midi": 65,
          "time": 219.27598687499875,
          "velocity": 0.7874015748031497,
          "duration": 0.06469288541669016
        },
        {
          "name": "D5",
          "midi": 74,
          "time": 219.29791666666543,
          "velocity": 0.7874015748031497,
          "duration": 0.06578937500000848
        },
        {
          "name": "F5",
          "midi": 77,
          "time": 219.29791666666543,
          "velocity": 0.7874015748031497,
          "duration": 0.06578937500000848
        },
        {
          "name": "D6",
          "midi": 86,
          "time": 219.29791666666543,
          "velocity": 0.7874015748031497,
          "duration": 0.06578937500000848
        },
        {
          "name": "F6",
          "midi": 89,
          "time": 219.29791666666543,
          "velocity": 0.7874015748031497,
          "duration": 0.06578937500000848
        },
        {
          "name": "D#7",
          "midi": 99,
          "time": 219.29791666666543,
          "velocity": 0.7874015748031497,
          "duration": 0.06578937500000848
        },
        {
          "name": "F7",
          "midi": 101,
          "time": 219.29791666666543,
          "velocity": 0.7874015748031497,
          "duration": 0.06578937500000848
        },
        {
          "name": "C#7",
          "midi": 97,
          "time": 219.47335499999878,
          "velocity": 0.7874015748031497,
          "duration": 0.06469288541666174
        },
        {
          "name": "F7",
          "midi": 101,
          "time": 219.47335499999878,
          "velocity": 0.7874015748031497,
          "duration": 0.06469288541666174
        },
        {
          "name": "C#4",
          "midi": 61,
          "time": 219.60493374999876,
          "velocity": 0.7874015748031497,
          "duration": 0.06469288541666174
        },
        {
          "name": "F#4",
          "midi": 66,
          "time": 219.60493374999876,
          "velocity": 0.7874015748031497,
          "duration": 0.06469288541666174
        },
        {
          "name": "C6",
          "midi": 84,
          "time": 219.60493374999876,
          "velocity": 0.7874015748031497,
          "duration": 0.06469288541666174
        },
        {
          "name": "F#6",
          "midi": 90,
          "time": 219.60493374999876,
          "velocity": 0.7874015748031497,
          "duration": 0.06469288541666174
        },
        {
          "name": "C7",
          "midi": 96,
          "time": 219.60493374999876,
          "velocity": 0.7874015748031497,
          "duration": 0.06469288541666174
        },
        {
          "name": "F7",
          "midi": 101,
          "time": 219.60493374999876,
          "velocity": 0.7874015748031497,
          "duration": 0.06469288541666174
        },
        {
          "name": "C#5",
          "midi": 73,
          "time": 219.67072312499877,
          "velocity": 0.7874015748031497,
          "duration": 0.06469288541666174
        },
        {
          "name": "F#5",
          "midi": 78,
          "time": 219.67072312499877,
          "velocity": 0.7874015748031497,
          "duration": 0.06469288541666174
        },
        {
          "name": "C#6",
          "midi": 85,
          "time": 219.7376089895821,
          "velocity": 0.7874015748031497,
          "duration": 0.06469288541666174
        },
        {
          "name": "F6",
          "midi": 89,
          "time": 219.7376089895821,
          "velocity": 0.7874015748031497,
          "duration": 0.06469288541666174
        },
        {
          "name": "C#7",
          "midi": 97,
          "time": 219.7376089895821,
          "velocity": 0.7874015748031497,
          "duration": 0.06469288541666174
        },
        {
          "name": "F7",
          "midi": 101,
          "time": 219.7376089895821,
          "velocity": 0.7874015748031497,
          "duration": 0.06469288541666174
        },
        {
          "name": "C4",
          "midi": 60,
          "time": 219.86809124999877,
          "velocity": 0.7874015748031497,
          "duration": 0.06469288541666174
        },
        {
          "name": "F4",
          "midi": 65,
          "time": 219.86809124999877,
          "velocity": 0.7874015748031497,
          "duration": 0.06469288541666174
        },
        {
          "name": "C5",
          "midi": 72,
          "time": 219.86809124999877,
          "velocity": 0.7874015748031497,
          "duration": 0.06469288541666174
        },
        {
          "name": "F5",
          "midi": 77,
          "time": 219.86809124999877,
          "velocity": 0.7874015748031497,
          "duration": 0.06469288541666174
        },
        {
          "name": "C6",
          "midi": 84,
          "time": 219.86809124999877,
          "velocity": 0.7874015748031497,
          "duration": 0.06469288541666174
        },
        {
          "name": "F6",
          "midi": 89,
          "time": 219.86809124999877,
          "velocity": 0.7874015748031497,
          "duration": 0.06469288541666174
        },
        {
          "name": "C7",
          "midi": 96,
          "time": 219.86809124999877,
          "velocity": 0.7874015748031497,
          "duration": 0.06469288541666174
        },
        {
          "name": "F7",
          "midi": 101,
          "time": 219.86809124999877,
          "velocity": 0.7874015748031497,
          "duration": 0.06469288541666174
        },
        {
          "name": "D7",
          "midi": 98,
          "time": 220.13124874999878,
          "velocity": 0.7874015748031497,
          "duration": 0.06469288541666174
        },
        {
          "name": "F#7",
          "midi": 102,
          "time": 220.13124874999878,
          "velocity": 0.7874015748031497,
          "duration": 0.06469288541666174
        },
        {
          "name": "D4",
          "midi": 62,
          "time": 220.19703812499878,
          "velocity": 0.7874015748031497,
          "duration": 0.06469288541666174
        },
        {
          "name": "F#4",
          "midi": 66,
          "time": 220.19703812499878,
          "velocity": 0.7874015748031497,
          "duration": 0.06469288541666174
        },
        {
          "name": "E7",
          "midi": 100,
          "time": 220.2299328124988,
          "velocity": 0.7874015748031497,
          "duration": 0.06469288541666174
        },
        {
          "name": "F7",
          "midi": 101,
          "time": 220.2299328124988,
          "velocity": 0.7874015748031497,
          "duration": 0.06469288541666174
        },
        {
          "name": "D5",
          "midi": 74,
          "time": 220.2639239895821,
          "velocity": 0.7874015748031497,
          "duration": 0.06469288541666174
        },
        {
          "name": "F#5",
          "midi": 78,
          "time": 220.2639239895821,
          "velocity": 0.7874015748031497,
          "duration": 0.06469288541666174
        },
        {
          "name": "D#6",
          "midi": 87,
          "time": 220.2639239895821,
          "velocity": 0.7874015748031497,
          "duration": 0.06469288541666174
        },
        {
          "name": "F#6",
          "midi": 90,
          "time": 220.2639239895821,
          "velocity": 0.7874015748031497,
          "duration": 0.06469288541666174
        },
        {
          "name": "C#5",
          "midi": 73,
          "time": 220.39440624999878,
          "velocity": 0.7874015748031497,
          "duration": 0.06469288541666174
        },
        {
          "name": "F5",
          "midi": 77,
          "time": 220.39440624999878,
          "velocity": 0.7874015748031497,
          "duration": 0.06469288541666174
        },
        {
          "name": "D6",
          "midi": 86,
          "time": 220.39440624999878,
          "velocity": 0.7874015748031497,
          "duration": 0.06469288541666174
        },
        {
          "name": "F6",
          "midi": 89,
          "time": 220.39440624999878,
          "velocity": 0.7874015748031497,
          "duration": 0.06469288541666174
        },
        {
          "name": "D7",
          "midi": 98,
          "time": 220.39440624999878,
          "velocity": 0.7874015748031497,
          "duration": 0.06469288541666174
        },
        {
          "name": "F7",
          "midi": 101,
          "time": 220.39440624999878,
          "velocity": 0.7874015748031497,
          "duration": 0.06469288541666174
        },
        {
          "name": "C4",
          "midi": 60,
          "time": 220.52598499999877,
          "velocity": 0.7874015748031497,
          "duration": 0.06578937500000848
        },
        {
          "name": "F4",
          "midi": 65,
          "time": 220.52598499999877,
          "velocity": 0.7874015748031497,
          "duration": 0.06578937500000848
        },
        {
          "name": "C5",
          "midi": 72,
          "time": 220.52598499999877,
          "velocity": 0.7874015748031497,
          "duration": 0.06578937500000848
        },
        {
          "name": "F5",
          "midi": 77,
          "time": 220.52598499999877,
          "velocity": 0.7874015748031497,
          "duration": 0.06578937500000848
        },
        {
          "name": "C6",
          "midi": 84,
          "time": 220.52598499999877,
          "velocity": 0.7874015748031497,
          "duration": 0.06578937500000848
        },
        {
          "name": "F6",
          "midi": 89,
          "time": 220.52598499999877,
          "velocity": 0.7874015748031497,
          "duration": 0.06578937500000848
        },
        {
          "name": "C7",
          "midi": 96,
          "time": 220.52598499999877,
          "velocity": 0.7874015748031497,
          "duration": 0.06578937500000848
        },
        {
          "name": "F7",
          "midi": 101,
          "time": 220.52598499999877,
          "velocity": 0.7874015748031497,
          "duration": 0.06578937500000848
        },
        {
          "name": "D7",
          "midi": 98,
          "time": 220.65646726041544,
          "velocity": 0.7874015748031497,
          "duration": 0.06578937500000848
        },
        {
          "name": "F7",
          "midi": 101,
          "time": 220.65646726041544,
          "velocity": 0.7874015748031497,
          "duration": 0.06578937500000848
        },
        {
          "name": "D#7",
          "midi": 99,
          "time": 220.75624781249877,
          "velocity": 0.7874015748031497,
          "duration": 0.4594291354166842
        },
        {
          "name": "F7",
          "midi": 101,
          "time": 220.75624781249877,
          "velocity": 0.7874015748031497,
          "duration": 0.4594291354166842
        },
        {
          "name": "C#4",
          "midi": 61,
          "time": 220.78914249999877,
          "velocity": 0.7874015748031497,
          "duration": 0.43749934375003363
        },
        {
          "name": "F4",
          "midi": 65,
          "time": 220.78914249999877,
          "velocity": 0.7874015748031497,
          "duration": 0.43749934375003363
        },
        {
          "name": "D5",
          "midi": 74,
          "time": 220.78914249999877,
          "velocity": 0.7874015748031497,
          "duration": 0.43749934375003363
        },
        {
          "name": "F5",
          "midi": 77,
          "time": 220.78914249999877,
          "velocity": 0.7874015748031497,
          "duration": 0.43749934375003363
        },
        {
          "name": "D6",
          "midi": 86,
          "time": 220.78914249999877,
          "velocity": 0.7874015748031497,
          "duration": 0.43749934375003363
        },
        {
          "name": "F6",
          "midi": 89,
          "time": 220.78914249999877,
          "velocity": 0.7874015748031497,
          "duration": 0.43749934375003363
        },
        {
          "name": "D7",
          "midi": 98,
          "time": 221.2167734374988,
          "velocity": 0.7874015748031497,
          "duration": 0.06578937500000848
        },
        {
          "name": "F#7",
          "midi": 102,
          "time": 221.2167734374988,
          "velocity": 0.7874015748031497,
          "duration": 0.06578937500000848
        },
        {
          "name": "D6",
          "midi": 86,
          "time": 221.35931708333214,
          "velocity": 0.7874015748031497,
          "duration": 0.06469288541669016
        },
        {
          "name": "F#6",
          "midi": 90,
          "time": 221.35931708333214,
          "velocity": 0.7874015748031497,
          "duration": 0.06469288541669016
        },
        {
          "name": "D#7",
          "midi": 99,
          "time": 221.35931708333214,
          "velocity": 0.7874015748031497,
          "duration": 0.06469288541669016
        },
        {
          "name": "F7",
          "midi": 101,
          "time": 221.35931708333214,
          "velocity": 0.7874015748031497,
          "duration": 0.06469288541669016
        },
        {
          "name": "C#5",
          "midi": 73,
          "time": 221.38124687499882,
          "velocity": 0.7874015748031497,
          "duration": 0.06578937500000848
        },
        {
          "name": "F#5",
          "midi": 78,
          "time": 221.38124687499882,
          "velocity": 0.7874015748031497,
          "duration": 0.06578937500000848
        },
        {
          "name": "C#6",
          "midi": 85,
          "time": 221.49089583333216,
          "velocity": 0.7874015748031497,
          "duration": 0.06469288541666174
        },
        {
          "name": "F6",
          "midi": 89,
          "time": 221.49089583333216,
          "velocity": 0.7874015748031497,
          "duration": 0.06469288541666174
        },
        {
          "name": "D7",
          "midi": 98,
          "time": 221.49089583333216,
          "velocity": 0.7874015748031497,
          "duration": 0.06469288541666174
        },
        {
          "name": "F7",
          "midi": 101,
          "time": 221.49089583333216,
          "velocity": 0.7874015748031497,
          "duration": 0.06469288541666174
        },
        {
          "name": "G#8",
          "midi": 116,
          "time": 221.57861499999882,
          "velocity": 0.7874015748031497,
          "duration": 2.8947325000000603
        },
        {
          "name": "C4",
          "midi": 60,
          "time": 221.57861499999882,
          "velocity": 0.7874015748031497,
          "duration": 0.06578937500000848
        },
        {
          "name": "F#4",
          "midi": 66,
          "time": 221.57861499999882,
          "velocity": 0.7874015748031497,
          "duration": 0.06578937500000848
        },
        {
          "name": "C5",
          "midi": 72,
          "time": 221.57861499999882,
          "velocity": 0.7874015748031497,
          "duration": 0.06578937500000848
        },
        {
          "name": "F#5",
          "midi": 78,
          "time": 221.57861499999882,
          "velocity": 0.7874015748031497,
          "duration": 0.06578937500000848
        },
        {
          "name": "C6",
          "midi": 84,
          "time": 221.57861499999882,
          "velocity": 0.7874015748031497,
          "duration": 0.06578937500000848
        },
        {
          "name": "F6",
          "midi": 89,
          "time": 221.57861499999882,
          "velocity": 0.7874015748031497,
          "duration": 0.06578937500000848
        },
        {
          "name": "C7",
          "midi": 96,
          "time": 221.57861499999882,
          "velocity": 0.7874015748031497,
          "duration": 0.06578937500000848
        },
        {
          "name": "F7",
          "midi": 101,
          "time": 221.57861499999882,
          "velocity": 0.7874015748031497,
          "duration": 0.06578937500000848
        },
        {
          "name": "C#4",
          "midi": 61,
          "time": 221.84177249999883,
          "velocity": 0.7874015748031497,
          "duration": 0.06578937500000848
        },
        {
          "name": "F#4",
          "midi": 66,
          "time": 221.84177249999883,
          "velocity": 0.7874015748031497,
          "duration": 0.06578937500000848
        },
        {
          "name": "D#7",
          "midi": 99,
          "time": 221.84177249999883,
          "velocity": 0.7874015748031497,
          "duration": 0.06578937500000848
        },
        {
          "name": "F#7",
          "midi": 102,
          "time": 221.84177249999883,
          "velocity": 0.7874015748031497,
          "duration": 0.06578937500000848
        },
        {
          "name": "D5",
          "midi": 74,
          "time": 221.90756187499883,
          "velocity": 0.7874015748031497,
          "duration": 0.06578937500000848
        },
        {
          "name": "F#5",
          "midi": 78,
          "time": 221.90756187499883,
          "velocity": 0.7874015748031497,
          "duration": 0.06578937500000848
        },
        {
          "name": "D4",
          "midi": 62,
          "time": 222.03914062499885,
          "velocity": 0.7874015748031497,
          "duration": 0.41556955208332624
        },
        {
          "name": "F#4",
          "midi": 66,
          "time": 222.03914062499885,
          "velocity": 0.7874015748031497,
          "duration": 0.41556955208332624
        },
        {
          "name": "D#5",
          "midi": 75,
          "time": 222.03914062499885,
          "velocity": 0.7874015748031497,
          "duration": 0.41556955208332624
        },
        {
          "name": "F5",
          "midi": 77,
          "time": 222.03914062499885,
          "velocity": 0.7874015748031497,
          "duration": 0.41556955208332624
        },
        {
          "name": "D#6",
          "midi": 87,
          "time": 222.03914062499885,
          "velocity": 0.7874015748031497,
          "duration": 0.41556955208332624
        },
        {
          "name": "F#6",
          "midi": 90,
          "time": 222.03914062499885,
          "velocity": 0.7874015748031497,
          "duration": 0.41556955208332624
        },
        {
          "name": "E7",
          "midi": 100,
          "time": 222.03914062499885,
          "velocity": 0.7874015748031497,
          "duration": 0.41556955208332624
        },
        {
          "name": "F#7",
          "midi": 102,
          "time": 222.03914062499885,
          "velocity": 0.7874015748031497,
          "duration": 0.41556955208332624
        },
        {
          "name": "D7",
          "midi": 98,
          "time": 222.53256093749886,
          "velocity": 0.7874015748031497,
          "duration": 0.06578937500000848
        },
        {
          "name": "F#7",
          "midi": 102,
          "time": 222.53256093749886,
          "velocity": 0.7874015748031497,
          "duration": 0.06578937500000848
        },
        {
          "name": "C#4",
          "midi": 61,
          "time": 222.63124499999887,
          "velocity": 0.7874015748031497,
          "duration": 0.06578937500000848
        },
        {
          "name": "F#4",
          "midi": 66,
          "time": 222.63124499999887,
          "velocity": 0.7874015748031497,
          "duration": 0.06578937500000848
        },
        {
          "name": "D5",
          "midi": 74,
          "time": 222.63124499999887,
          "velocity": 0.7874015748031497,
          "duration": 0.06578937500000848
        },
        {
          "name": "F#5",
          "midi": 78,
          "time": 222.63124499999887,
          "velocity": 0.7874015748031497,
          "duration": 0.06578937500000848
        },
        {
          "name": "D6",
          "midi": 86,
          "time": 222.63124499999887,
          "velocity": 0.7874015748031497,
          "duration": 0.06578937500000848
        },
        {
          "name": "F#6",
          "midi": 90,
          "time": 222.63124499999887,
          "velocity": 0.7874015748031497,
          "duration": 0.06578937500000848
        },
        {
          "name": "D#7",
          "midi": 99,
          "time": 222.63124499999887,
          "velocity": 0.7874015748031497,
          "duration": 0.06578937500000848
        },
        {
          "name": "F7",
          "midi": 101,
          "time": 222.63124499999887,
          "velocity": 0.7874015748031497,
          "duration": 0.06578937500000848
        },
        {
          "name": "D7",
          "midi": 98,
          "time": 222.72883257291554,
          "velocity": 0.7874015748031497,
          "duration": 0.06578937499998005
        },
        {
          "name": "F7",
          "midi": 101,
          "time": 222.72883257291554,
          "velocity": 0.7874015748031497,
          "duration": 0.06578937499998005
        },
        {
          "name": "C#6",
          "midi": 85,
          "time": 222.76282374999886,
          "velocity": 0.7874015748031497,
          "duration": 0.06578937499998005
        },
        {
          "name": "F6",
          "midi": 89,
          "time": 222.76282374999886,
          "velocity": 0.7874015748031497,
          "duration": 0.06578937499998005
        },
        {
          "name": "C#7",
          "midi": 97,
          "time": 222.82861312499884,
          "velocity": 0.7874015748031497,
          "duration": 0.06469288541666174
        },
        {
          "name": "F7",
          "midi": 101,
          "time": 222.82861312499884,
          "velocity": 0.7874015748031497,
          "duration": 0.06469288541666174
        },
        {
          "name": "C4",
          "midi": 60,
          "time": 222.8933060104155,
          "velocity": 0.7874015748031497,
          "duration": 0.06578937500000848
        },
        {
          "name": "F#4",
          "midi": 66,
          "time": 222.8933060104155,
          "velocity": 0.7874015748031497,
          "duration": 0.06578937500000848
        },
        {
          "name": "C5",
          "midi": 72,
          "time": 222.8933060104155,
          "velocity": 0.7874015748031497,
          "duration": 0.06578937500000848
        },
        {
          "name": "F#5",
          "midi": 78,
          "time": 222.8933060104155,
          "velocity": 0.7874015748031497,
          "duration": 0.06578937500000848
        },
        {
          "name": "C6",
          "midi": 84,
          "time": 222.8933060104155,
          "velocity": 0.7874015748031497,
          "duration": 0.06578937500000848
        },
        {
          "name": "F6",
          "midi": 89,
          "time": 222.8933060104155,
          "velocity": 0.7874015748031497,
          "duration": 0.06578937500000848
        },
        {
          "name": "D7",
          "midi": 98,
          "time": 223.09177062499884,
          "velocity": 0.7874015748031497,
          "duration": 0.06578937500000848
        },
        {
          "name": "F#7",
          "midi": 102,
          "time": 223.09177062499884,
          "velocity": 0.7874015748031497,
          "duration": 0.06578937500000848
        },
        {
          "name": "C#4",
          "midi": 61,
          "time": 223.15755999999885,
          "velocity": 0.7874015748031497,
          "duration": 0.06469288541666174
        },
        {
          "name": "F#4",
          "midi": 66,
          "time": 223.15755999999885,
          "velocity": 0.7874015748031497,
          "duration": 0.06469288541666174
        },
        {
          "name": "C#5",
          "midi": 73,
          "time": 223.15755999999885,
          "velocity": 0.7874015748031497,
          "duration": 0.06469288541666174
        },
        {
          "name": "F#5",
          "midi": 78,
          "time": 223.15755999999885,
          "velocity": 0.7874015748031497,
          "duration": 0.06469288541666174
        },
        {
          "name": "C#6",
          "midi": 85,
          "time": 223.15755999999885,
          "velocity": 0.7874015748031497,
          "duration": 0.06469288541666174
        },
        {
          "name": "F#6",
          "midi": 90,
          "time": 223.15755999999885,
          "velocity": 0.7874015748031497,
          "duration": 0.06469288541666174
        },
        {
          "name": "C7",
          "midi": 96,
          "time": 223.32203343749885,
          "velocity": 0.7874015748031497,
          "duration": 0.06469288541666174
        },
        {
          "name": "F#7",
          "midi": 102,
          "time": 223.32203343749885,
          "velocity": 0.7874015748031497,
          "duration": 0.06469288541666174
        },
        {
          "name": "C5",
          "midi": 72,
          "time": 223.33299833333217,
          "velocity": 0.7874015748031497,
          "duration": 0.06469288541666174
        },
        {
          "name": "F5",
          "midi": 77,
          "time": 223.33299833333217,
          "velocity": 0.7874015748031497,
          "duration": 0.06469288541666174
        },
        {
          "name": "C6",
          "midi": 84,
          "time": 223.33299833333217,
          "velocity": 0.7874015748031497,
          "duration": 0.06469288541666174
        },
        {
          "name": "F6",
          "midi": 89,
          "time": 223.33299833333217,
          "velocity": 0.7874015748031497,
          "duration": 0.06469288541666174
        },
        {
          "name": "C4",
          "midi": 60,
          "time": 223.35492812499885,
          "velocity": 0.7874015748031497,
          "duration": 0.06469288541666174
        },
        {
          "name": "F#4",
          "midi": 66,
          "time": 223.35492812499885,
          "velocity": 0.7874015748031497,
          "duration": 0.06469288541666174
        },
        {
          "name": "C#7",
          "midi": 97,
          "time": 223.48650687499884,
          "velocity": 0.7874015748031497,
          "duration": 0.06469288541669016
        },
        {
          "name": "F7",
          "midi": 101,
          "time": 223.48650687499884,
          "velocity": 0.7874015748031497,
          "duration": 0.06469288541669016
        },
        {
          "name": "C#6",
          "midi": 85,
          "time": 223.50843666666552,
          "velocity": 0.7874015748031497,
          "duration": 0.06469288541669016
        },
        {
          "name": "F6",
          "midi": 89,
          "time": 223.50843666666552,
          "velocity": 0.7874015748031497,
          "duration": 0.06469288541669016
        },
        {
          "name": "C#5",
          "midi": 73,
          "time": 223.55229624999888,
          "velocity": 0.7874015748031497,
          "duration": 0.06469288541666174
        },
        {
          "name": "F#5",
          "midi": 78,
          "time": 223.55229624999888,
          "velocity": 0.7874015748031497,
          "duration": 0.06469288541666174
        },
        {
          "name": "C#4",
          "midi": 61,
          "time": 223.61808562499888,
          "velocity": 0.7874015748031497,
          "duration": 0.06469288541666174
        },
        {
          "name": "F#4",
          "midi": 66,
          "time": 223.61808562499888,
          "velocity": 0.7874015748031497,
          "duration": 0.06469288541666174
        },
        {
          "name": "C7",
          "midi": 96,
          "time": 223.64988382291554,
          "velocity": 0.7874015748031497,
          "duration": 0.06578937500000848
        },
        {
          "name": "F7",
          "midi": 101,
          "time": 223.64988382291554,
          "velocity": 0.7874015748031497,
          "duration": 0.06578937500000848
        },
        {
          "name": "C6",
          "midi": 84,
          "time": 223.6838749999989,
          "velocity": 0.7874015748031497,
          "duration": 0.06578937499998005
        },
        {
          "name": "F6",
          "midi": 89,
          "time": 223.6838749999989,
          "velocity": 0.7874015748031497,
          "duration": 0.06578937499998005
        },
        {
          "name": "C#7",
          "midi": 97,
          "time": 223.84834843749888,
          "velocity": 0.7874015748031497,
          "duration": 0.06578937500000848
        },
        {
          "name": "F#7",
          "midi": 102,
          "time": 223.84834843749888,
          "velocity": 0.7874015748031497,
          "duration": 0.06578937500000848
        },
        {
          "name": "D4",
          "midi": 62,
          "time": 223.8812431249989,
          "velocity": 0.7874015748031497,
          "duration": 0.592104374999991
        },
        {
          "name": "F#4",
          "midi": 66,
          "time": 223.8812431249989,
          "velocity": 0.7874015748031497,
          "duration": 0.592104374999991
        },
        {
          "name": "D5",
          "midi": 74,
          "time": 223.8812431249989,
          "velocity": 0.7874015748031497,
          "duration": 0.592104374999991
        },
        {
          "name": "F#5",
          "midi": 78,
          "time": 223.8812431249989,
          "velocity": 0.7874015748031497,
          "duration": 0.592104374999991
        },
        {
          "name": "D6",
          "midi": 86,
          "time": 223.8812431249989,
          "velocity": 0.7874015748031497,
          "duration": 0.592104374999991
        },
        {
          "name": "F#6",
          "midi": 90,
          "time": 223.8812431249989,
          "velocity": 0.7874015748031497,
          "duration": 0.592104374999991
        },
        {
          "name": "D7",
          "midi": 98,
          "time": 223.94812898958222,
          "velocity": 0.7874015748031497,
          "duration": 0.5252185104166642
        },
        {
          "name": "F7",
          "midi": 101,
          "time": 223.94812898958222,
          "velocity": 0.7874015748031497,
          "duration": 0.5252185104166642
        },
        {
          "name": "C4",
          "midi": 60,
          "time": 224.9996624999989,
          "velocity": 0.7874015748031497,
          "duration": 0.06469288541666174
        },
        {
          "name": "F#4",
          "midi": 66,
          "time": 224.9996624999989,
          "velocity": 0.7874015748031497,
          "duration": 0.06469288541666174
        },
        {
          "name": "C5",
          "midi": 72,
          "time": 224.9996624999989,
          "velocity": 0.7874015748031497,
          "duration": 0.06469288541666174
        },
        {
          "name": "F#5",
          "midi": 78,
          "time": 224.9996624999989,
          "velocity": 0.7874015748031497,
          "duration": 0.06469288541666174
        },
        {
          "name": "C6",
          "midi": 84,
          "time": 224.9996624999989,
          "velocity": 0.7874015748031497,
          "duration": 0.06469288541666174
        },
        {
          "name": "F#6",
          "midi": 90,
          "time": 224.9996624999989,
          "velocity": 0.7874015748031497,
          "duration": 0.06469288541666174
        },
        {
          "name": "C7",
          "midi": 96,
          "time": 225.0654518749989,
          "velocity": 0.7874015748031497,
          "duration": 0.06469288541666174
        },
        {
          "name": "F#7",
          "midi": 102,
          "time": 225.0654518749989,
          "velocity": 0.7874015748031497,
          "duration": 0.06469288541666174
        },
        {
          "name": "D4",
          "midi": 62,
          "time": 225.2628199999989,
          "velocity": 0.7874015748031497,
          "duration": 0.06469288541666174
        },
        {
          "name": "F#4",
          "midi": 66,
          "time": 225.2628199999989,
          "velocity": 0.7874015748031497,
          "duration": 0.06469288541666174
        },
        {
          "name": "D#5",
          "midi": 75,
          "time": 225.2628199999989,
          "velocity": 0.7874015748031497,
          "duration": 0.06469288541666174
        },
        {
          "name": "F#5",
          "midi": 78,
          "time": 225.2628199999989,
          "velocity": 0.7874015748031497,
          "duration": 0.06469288541666174
        },
        {
          "name": "D6",
          "midi": 86,
          "time": 225.2628199999989,
          "velocity": 0.7874015748031497,
          "duration": 0.06469288541666174
        },
        {
          "name": "F#6",
          "midi": 90,
          "time": 225.2628199999989,
          "velocity": 0.7874015748031497,
          "duration": 0.06469288541666174
        },
        {
          "name": "D#7",
          "midi": 99,
          "time": 225.2957146874989,
          "velocity": 0.7874015748031497,
          "duration": 0.06469288541666174
        },
        {
          "name": "F#7",
          "midi": 102,
          "time": 225.2957146874989,
          "velocity": 0.7874015748031497,
          "duration": 0.06469288541666174
        },
        {
          "name": "D#6",
          "midi": 87,
          "time": 225.39330226041557,
          "velocity": 0.7874015748031497,
          "duration": 0.06578937499998005
        },
        {
          "name": "F6",
          "midi": 89,
          "time": 225.39330226041557,
          "velocity": 0.7874015748031497,
          "duration": 0.06578937499998005
        },
        {
          "name": "E7",
          "midi": 100,
          "time": 225.4272934374989,
          "velocity": 0.7874015748031497,
          "duration": 0.06469288541666174
        },
        {
          "name": "F7",
          "midi": 101,
          "time": 225.4272934374989,
          "velocity": 0.7874015748031497,
          "duration": 0.06469288541666174
        },
        {
          "name": "C4",
          "midi": 60,
          "time": 225.52597749999887,
          "velocity": 0.7874015748031497,
          "duration": 0.06469288541666174
        },
        {
          "name": "F#4",
          "midi": 66,
          "time": 225.52597749999887,
          "velocity": 0.7874015748031497,
          "duration": 0.06469288541666174
        },
        {
          "name": "D#7",
          "midi": 99,
          "time": 225.55887218749888,
          "velocity": 0.7874015748031497,
          "duration": 0.06469288541666174
        },
        {
          "name": "F7",
          "midi": 101,
          "time": 225.55887218749888,
          "velocity": 0.7874015748031497,
          "duration": 0.06469288541666174
        },
        {
          "name": "C5",
          "midi": 72,
          "time": 225.65645976041554,
          "velocity": 0.7874015748031497,
          "duration": 0.06578937499998005
        },
        {
          "name": "F#5",
          "midi": 78,
          "time": 225.65645976041554,
          "velocity": 0.7874015748031497,
          "duration": 0.06578937499998005
        },
        {
          "name": "C6",
          "midi": 84,
          "time": 225.65645976041554,
          "velocity": 0.7874015748031497,
          "duration": 0.06578937499998005
        },
        {
          "name": "F#6",
          "midi": 90,
          "time": 225.65645976041554,
          "velocity": 0.7874015748031497,
          "duration": 0.06578937499998005
        },
        {
          "name": "C7",
          "midi": 96,
          "time": 225.69045093749887,
          "velocity": 0.7874015748031497,
          "duration": 0.06469288541666174
        },
        {
          "name": "F7",
          "midi": 101,
          "time": 225.69045093749887,
          "velocity": 0.7874015748031497,
          "duration": 0.06469288541666174
        },
        {
          "name": "D4",
          "midi": 62,
          "time": 225.78913499999885,
          "velocity": 0.7874015748031497,
          "duration": 0.06469288541666174
        },
        {
          "name": "F#4",
          "midi": 66,
          "time": 225.78913499999885,
          "velocity": 0.7874015748031497,
          "duration": 0.06469288541666174
        },
        {
          "name": "D#5",
          "midi": 75,
          "time": 225.78913499999885,
          "velocity": 0.7874015748031497,
          "duration": 0.06469288541666174
        },
        {
          "name": "F5",
          "midi": 77,
          "time": 225.78913499999885,
          "velocity": 0.7874015748031497,
          "duration": 0.06469288541666174
        },
        {
          "name": "D6",
          "midi": 86,
          "time": 225.78913499999885,
          "velocity": 0.7874015748031497,
          "duration": 0.06469288541666174
        },
        {
          "name": "F6",
          "midi": 89,
          "time": 225.78913499999885,
          "velocity": 0.7874015748031497,
          "duration": 0.06469288541666174
        },
        {
          "name": "D#7",
          "midi": 99,
          "time": 225.82202968749885,
          "velocity": 0.7874015748031497,
          "duration": 0.06469288541666174
        },
        {
          "name": "F7",
          "midi": 101,
          "time": 225.82202968749885,
          "velocity": 0.7874015748031497,
          "duration": 0.06469288541666174
        },
        {
          "name": "D#6",
          "midi": 87,
          "time": 225.91961726041552,
          "velocity": 0.7874015748031497,
          "duration": 0.06578937499998005
        },
        {
          "name": "F6",
          "midi": 89,
          "time": 225.91961726041552,
          "velocity": 0.7874015748031497,
          "duration": 0.06578937499998005
        },
        {
          "name": "E7",
          "midi": 100,
          "time": 225.95360843749884,
          "velocity": 0.7874015748031497,
          "duration": 0.06469288541666174
        },
        {
          "name": "F7",
          "midi": 101,
          "time": 225.95360843749884,
          "velocity": 0.7874015748031497,
          "duration": 0.06469288541666174
        },
        {
          "name": "D#7",
          "midi": 99,
          "time": 226.08518718749883,
          "velocity": 0.7874015748031497,
          "duration": 0.06469288541666174
        },
        {
          "name": "F7",
          "midi": 101,
          "time": 226.08518718749883,
          "velocity": 0.7874015748031497,
          "duration": 0.06469288541666174
        },
        {
          "name": "C5",
          "midi": 72,
          "time": 226.1827747604155,
          "velocity": 0.7874015748031497,
          "duration": 0.06578937499998005
        },
        {
          "name": "F#5",
          "midi": 78,
          "time": 226.1827747604155,
          "velocity": 0.7874015748031497,
          "duration": 0.06578937499998005
        },
        {
          "name": "C6",
          "midi": 84,
          "time": 226.1827747604155,
          "velocity": 0.7874015748031497,
          "duration": 0.06578937499998005
        },
        {
          "name": "F#6",
          "midi": 90,
          "time": 226.1827747604155,
          "velocity": 0.7874015748031497,
          "duration": 0.06578937499998005
        },
        {
          "name": "C7",
          "midi": 96,
          "time": 226.21676593749882,
          "velocity": 0.7874015748031497,
          "duration": 0.06469288541666174
        },
        {
          "name": "F7",
          "midi": 101,
          "time": 226.21676593749882,
          "velocity": 0.7874015748031497,
          "duration": 0.06469288541666174
        },
        {
          "name": "C#4",
          "midi": 61,
          "time": 226.3154499999988,
          "velocity": 0.7874015748031497,
          "duration": 0.06469288541666174
        },
        {
          "name": "F#4",
          "midi": 66,
          "time": 226.3154499999988,
          "velocity": 0.7874015748031497,
          "duration": 0.06469288541666174
        },
        {
          "name": "D5",
          "midi": 74,
          "time": 226.3154499999988,
          "velocity": 0.7874015748031497,
          "duration": 0.06469288541666174
        },
        {
          "name": "F5",
          "midi": 77,
          "time": 226.3154499999988,
          "velocity": 0.7874015748031497,
          "duration": 0.06469288541666174
        },
        {
          "name": "C#6",
          "midi": 85,
          "time": 226.3154499999988,
          "velocity": 0.7874015748031497,
          "duration": 0.06469288541666174
        },
        {
          "name": "F6",
          "midi": 89,
          "time": 226.3154499999988,
          "velocity": 0.7874015748031497,
          "duration": 0.06469288541666174
        },
        {
          "name": "D7",
          "midi": 98,
          "time": 226.3483446874988,
          "velocity": 0.7874015748031497,
          "duration": 0.06469288541666174
        },
        {
          "name": "F7",
          "midi": 101,
          "time": 226.3483446874988,
          "velocity": 0.7874015748031497,
          "duration": 0.06469288541666174
        },
        {
          "name": "D6",
          "midi": 86,
          "time": 226.44593226041547,
          "velocity": 0.7874015748031497,
          "duration": 0.06578937499998005
        },
        {
          "name": "F6",
          "midi": 89,
          "time": 226.44593226041547,
          "velocity": 0.7874015748031497,
          "duration": 0.06578937499998005
        },
        {
          "name": "D#7",
          "midi": 99,
          "time": 226.4799234374988,
          "velocity": 0.7874015748031497,
          "duration": 0.06469288541666174
        },
        {
          "name": "F7",
          "midi": 101,
          "time": 226.4799234374988,
          "velocity": 0.7874015748031497,
          "duration": 0.06469288541666174
        },
        {
          "name": "C4",
          "midi": 60,
          "time": 226.57860749999878,
          "velocity": 0.7874015748031497,
          "duration": 0.06469288541666174
        },
        {
          "name": "F#4",
          "midi": 66,
          "time": 226.57860749999878,
          "velocity": 0.7874015748031497,
          "duration": 0.06469288541666174
        },
        {
          "name": "D7",
          "midi": 98,
          "time": 226.57860749999878,
          "velocity": 0.7874015748031497,
          "duration": 0.06469288541666174
        },
        {
          "name": "F7",
          "midi": 101,
          "time": 226.57860749999878,
          "velocity": 0.7874015748031497,
          "duration": 0.06469288541666174
        },
        {
          "name": "C5",
          "midi": 72,
          "time": 226.70908976041545,
          "velocity": 0.7874015748031497,
          "duration": 0.06578937500000848
        },
        {
          "name": "F#5",
          "midi": 78,
          "time": 226.70908976041545,
          "velocity": 0.7874015748031497,
          "duration": 0.06578937500000848
        },
        {
          "name": "C6",
          "midi": 84,
          "time": 226.70908976041545,
          "velocity": 0.7874015748031497,
          "duration": 0.06578937500000848
        },
        {
          "name": "F#6",
          "midi": 90,
          "time": 226.70908976041545,
          "velocity": 0.7874015748031497,
          "duration": 0.06578937500000848
        },
        {
          "name": "C7",
          "midi": 96,
          "time": 226.70908976041545,
          "velocity": 0.7874015748031497,
          "duration": 0.06578937500000848
        },
        {
          "name": "F7",
          "midi": 101,
          "time": 226.70908976041545,
          "velocity": 0.7874015748031497,
          "duration": 0.06578937500000848
        },
        {
          "name": "C#4",
          "midi": 61,
          "time": 226.8417649999988,
          "velocity": 0.7874015748031497,
          "duration": 0.06469288541666174
        },
        {
          "name": "F#4",
          "midi": 66,
          "time": 226.8417649999988,
          "velocity": 0.7874015748031497,
          "duration": 0.06469288541666174
        },
        {
          "name": "D5",
          "midi": 74,
          "time": 226.8417649999988,
          "velocity": 0.7874015748031497,
          "duration": 0.06469288541666174
        },
        {
          "name": "F5",
          "midi": 77,
          "time": 226.8417649999988,
          "velocity": 0.7874015748031497,
          "duration": 0.06469288541666174
        },
        {
          "name": "C#6",
          "midi": 85,
          "time": 226.8417649999988,
          "velocity": 0.7874015748031497,
          "duration": 0.06469288541666174
        },
        {
          "name": "F6",
          "midi": 89,
          "time": 226.8417649999988,
          "velocity": 0.7874015748031497,
          "duration": 0.06469288541666174
        },
        {
          "name": "D7",
          "midi": 98,
          "time": 226.8417649999988,
          "velocity": 0.7874015748031497,
          "duration": 0.06469288541666174
        },
        {
          "name": "F7",
          "midi": 101,
          "time": 226.8417649999988,
          "velocity": 0.7874015748031497,
          "duration": 0.06469288541666174
        },
        {
          "name": "D6",
          "midi": 86,
          "time": 226.97334374999878,
          "velocity": 0.7874015748031497,
          "duration": 0.06469288541666174
        },
        {
          "name": "F6",
          "midi": 89,
          "time": 226.97334374999878,
          "velocity": 0.7874015748031497,
          "duration": 0.06469288541666174
        },
        {
          "name": "D#7",
          "midi": 99,
          "time": 226.97334374999878,
          "velocity": 0.7874015748031497,
          "duration": 0.06469288541666174
        },
        {
          "name": "F7",
          "midi": 101,
          "time": 226.97334374999878,
          "velocity": 0.7874015748031497,
          "duration": 0.06469288541666174
        },
        {
          "name": "D7",
          "midi": 98,
          "time": 227.1060189895821,
          "velocity": 0.7874015748031497,
          "duration": 0.06469288541666174
        },
        {
          "name": "F7",
          "midi": 101,
          "time": 227.1060189895821,
          "velocity": 0.7874015748031497,
          "duration": 0.06469288541666174
        },
        {
          "name": "C5",
          "midi": 72,
          "time": 227.23650124999878,
          "velocity": 0.7874015748031497,
          "duration": 0.06578937500000848
        },
        {
          "name": "F#5",
          "midi": 78,
          "time": 227.23650124999878,
          "velocity": 0.7874015748031497,
          "duration": 0.06578937500000848
        },
        {
          "name": "C6",
          "midi": 84,
          "time": 227.23650124999878,
          "velocity": 0.7874015748031497,
          "duration": 0.06578937500000848
        },
        {
          "name": "F#6",
          "midi": 90,
          "time": 227.23650124999878,
          "velocity": 0.7874015748031497,
          "duration": 0.06578937500000848
        },
        {
          "name": "C7",
          "midi": 96,
          "time": 227.23650124999878,
          "velocity": 0.7874015748031497,
          "duration": 0.06578937500000848
        },
        {
          "name": "F7",
          "midi": 101,
          "time": 227.23650124999878,
          "velocity": 0.7874015748031497,
          "duration": 0.06578937500000848
        },
        {
          "name": "D4",
          "midi": 62,
          "time": 227.3680799999988,
          "velocity": 0.7874015748031497,
          "duration": 0.06688586458332679
        },
        {
          "name": "F#4",
          "midi": 66,
          "time": 227.3680799999988,
          "velocity": 0.7874015748031497,
          "duration": 0.06688586458332679
        },
        {
          "name": "C#5",
          "midi": 73,
          "time": 227.3680799999988,
          "velocity": 0.7874015748031497,
          "duration": 0.06688586458332679
        },
        {
          "name": "F5",
          "midi": 77,
          "time": 227.3680799999988,
          "velocity": 0.7874015748031497,
          "duration": 0.06688586458332679
        },
        {
          "name": "D6",
          "midi": 86,
          "time": 227.3680799999988,
          "velocity": 0.7874015748031497,
          "duration": 0.06688586458332679
        },
        {
          "name": "F6",
          "midi": 89,
          "time": 227.3680799999988,
          "velocity": 0.7874015748031497,
          "duration": 0.06688586458332679
        },
        {
          "name": "D7",
          "midi": 98,
          "time": 227.3680799999988,
          "velocity": 0.7874015748031497,
          "duration": 0.06688586458332679
        },
        {
          "name": "F7",
          "midi": 101,
          "time": 227.3680799999988,
          "velocity": 0.7874015748031497,
          "duration": 0.06688586458332679
        },
        {
          "name": "D#6",
          "midi": 87,
          "time": 227.4996587499988,
          "velocity": 0.7874015748031497,
          "duration": 0.06578937500000848
        },
        {
          "name": "F6",
          "midi": 89,
          "time": 227.4996587499988,
          "velocity": 0.7874015748031497,
          "duration": 0.06578937500000848
        },
        {
          "name": "E7",
          "midi": 100,
          "time": 227.4996587499988,
          "velocity": 0.7874015748031497,
          "duration": 0.06578937500000848
        },
        {
          "name": "F7",
          "midi": 101,
          "time": 227.4996587499988,
          "velocity": 0.7874015748031497,
          "duration": 0.06578937500000848
        },
        {
          "name": "D7",
          "midi": 98,
          "time": 227.63233398958212,
          "velocity": 0.7874015748031497,
          "duration": 0.06469288541666174
        },
        {
          "name": "F7",
          "midi": 101,
          "time": 227.63233398958212,
          "velocity": 0.7874015748031497,
          "duration": 0.06469288541666174
        },
        {
          "name": "C5",
          "midi": 72,
          "time": 227.7628162499988,
          "velocity": 0.7874015748031497,
          "duration": 0.06469288541666174
        },
        {
          "name": "F#5",
          "midi": 78,
          "time": 227.7628162499988,
          "velocity": 0.7874015748031497,
          "duration": 0.06469288541666174
        },
        {
          "name": "C6",
          "midi": 84,
          "time": 227.7628162499988,
          "velocity": 0.7874015748031497,
          "duration": 0.06469288541666174
        },
        {
          "name": "F#6",
          "midi": 90,
          "time": 227.7628162499988,
          "velocity": 0.7874015748031497,
          "duration": 0.06469288541666174
        },
        {
          "name": "C7",
          "midi": 96,
          "time": 227.7628162499988,
          "velocity": 0.7874015748031497,
          "duration": 0.06469288541666174
        },
        {
          "name": "F7",
          "midi": 101,
          "time": 227.7628162499988,
          "velocity": 0.7874015748031497,
          "duration": 0.06469288541666174
        },
        {
          "name": "C#4",
          "midi": 61,
          "time": 227.89439499999878,
          "velocity": 0.7874015748031497,
          "duration": 0.06578937500000848
        },
        {
          "name": "F#4",
          "midi": 66,
          "time": 227.89439499999878,
          "velocity": 0.7874015748031497,
          "duration": 0.06578937500000848
        },
        {
          "name": "C#5",
          "midi": 73,
          "time": 227.89439499999878,
          "velocity": 0.7874015748031497,
          "duration": 0.06578937500000848
        },
        {
          "name": "F5",
          "midi": 77,
          "time": 227.89439499999878,
          "velocity": 0.7874015748031497,
          "duration": 0.06578937500000848
        },
        {
          "name": "C#6",
          "midi": 85,
          "time": 227.89439499999878,
          "velocity": 0.7874015748031497,
          "duration": 0.06578937500000848
        },
        {
          "name": "F6",
          "midi": 89,
          "time": 227.89439499999878,
          "velocity": 0.7874015748031497,
          "duration": 0.06578937500000848
        },
        {
          "name": "D7",
          "midi": 98,
          "time": 227.89439499999878,
          "velocity": 0.7874015748031497,
          "duration": 0.06578937500000848
        },
        {
          "name": "F7",
          "midi": 101,
          "time": 227.89439499999878,
          "velocity": 0.7874015748031497,
          "duration": 0.06578937500000848
        },
        {
          "name": "D#6",
          "midi": 87,
          "time": 228.02487726041545,
          "velocity": 0.7874015748031497,
          "duration": 0.06578937500000848
        },
        {
          "name": "F6",
          "midi": 89,
          "time": 228.02487726041545,
          "velocity": 0.7874015748031497,
          "duration": 0.06578937500000848
        },
        {
          "name": "D#7",
          "midi": 99,
          "time": 228.02487726041545,
          "velocity": 0.7874015748031497,
          "duration": 0.06578937500000848
        },
        {
          "name": "F7",
          "midi": 101,
          "time": 228.02487726041545,
          "velocity": 0.7874015748031497,
          "duration": 0.06578937500000848
        },
        {
          "name": "C4",
          "midi": 60,
          "time": 228.1575524999988,
          "velocity": 0.7874015748031497,
          "duration": 0.06578937500000848
        },
        {
          "name": "F#4",
          "midi": 66,
          "time": 228.1575524999988,
          "velocity": 0.7874015748031497,
          "duration": 0.06578937500000848
        },
        {
          "name": "D7",
          "midi": 98,
          "time": 228.1575524999988,
          "velocity": 0.7874015748031497,
          "duration": 0.06578937500000848
        },
        {
          "name": "F7",
          "midi": 101,
          "time": 228.1575524999988,
          "velocity": 0.7874015748031497,
          "duration": 0.06578937500000848
        },
        {
          "name": "C5",
          "midi": 72,
          "time": 228.28803476041546,
          "velocity": 0.7874015748031497,
          "duration": 0.06578937500000848
        },
        {
          "name": "F#5",
          "midi": 78,
          "time": 228.28803476041546,
          "velocity": 0.7874015748031497,
          "duration": 0.06578937500000848
        },
        {
          "name": "C6",
          "midi": 84,
          "time": 228.28803476041546,
          "velocity": 0.7874015748031497,
          "duration": 0.06578937500000848
        },
        {
          "name": "F#6",
          "midi": 90,
          "time": 228.28803476041546,
          "velocity": 0.7874015748031497,
          "duration": 0.06578937500000848
        },
        {
          "name": "C7",
          "midi": 96,
          "time": 228.28803476041546,
          "velocity": 0.7874015748031497,
          "duration": 0.06578937500000848
        },
        {
          "name": "F7",
          "midi": 101,
          "time": 228.28803476041546,
          "velocity": 0.7874015748031497,
          "duration": 0.06578937500000848
        },
        {
          "name": "C#4",
          "midi": 61,
          "time": 228.4207099999988,
          "velocity": 0.7874015748031497,
          "duration": 0.06578937500000848
        },
        {
          "name": "F#4",
          "midi": 66,
          "time": 228.4207099999988,
          "velocity": 0.7874015748031497,
          "duration": 0.06578937500000848
        },
        {
          "name": "D5",
          "midi": 74,
          "time": 228.4207099999988,
          "velocity": 0.7874015748031497,
          "duration": 0.06578937500000848
        },
        {
          "name": "F5",
          "midi": 77,
          "time": 228.4207099999988,
          "velocity": 0.7874015748031497,
          "duration": 0.06578937500000848
        },
        {
          "name": "D6",
          "midi": 86,
          "time": 228.4207099999988,
          "velocity": 0.7874015748031497,
          "duration": 0.06578937500000848
        },
        {
          "name": "F6",
          "midi": 89,
          "time": 228.4207099999988,
          "velocity": 0.7874015748031497,
          "duration": 0.06578937500000848
        },
        {
          "name": "C#7",
          "midi": 97,
          "time": 228.4207099999988,
          "velocity": 0.7874015748031497,
          "duration": 0.06578937500000848
        },
        {
          "name": "F7",
          "midi": 101,
          "time": 228.4207099999988,
          "velocity": 0.7874015748031497,
          "duration": 0.06578937500000848
        },
        {
          "name": "D#6",
          "midi": 87,
          "time": 228.55338523958213,
          "velocity": 0.7874015748031497,
          "duration": 0.06469288541666174
        },
        {
          "name": "F6",
          "midi": 89,
          "time": 228.55338523958213,
          "velocity": 0.7874015748031497,
          "duration": 0.06469288541666174
        },
        {
          "name": "D#7",
          "midi": 99,
          "time": 228.55338523958213,
          "velocity": 0.7874015748031497,
          "duration": 0.06469288541666174
        },
        {
          "name": "F7",
          "midi": 101,
          "time": 228.55338523958213,
          "velocity": 0.7874015748031497,
          "duration": 0.06469288541666174
        },
        {
          "name": "C4",
          "midi": 60,
          "time": 228.6838674999988,
          "velocity": 0.7874015748031497,
          "duration": 0.06578937500000848
        },
        {
          "name": "F#4",
          "midi": 66,
          "time": 228.6838674999988,
          "velocity": 0.7874015748031497,
          "duration": 0.06578937500000848
        },
        {
          "name": "C#7",
          "midi": 97,
          "time": 228.6838674999988,
          "velocity": 0.7874015748031497,
          "duration": 0.06578937500000848
        },
        {
          "name": "F7",
          "midi": 101,
          "time": 228.6838674999988,
          "velocity": 0.7874015748031497,
          "duration": 0.06578937500000848
        },
        {
          "name": "C5",
          "midi": 72,
          "time": 228.81654273958213,
          "velocity": 0.7874015748031497,
          "duration": 0.06469288541666174
        },
        {
          "name": "F#5",
          "midi": 78,
          "time": 228.81654273958213,
          "velocity": 0.7874015748031497,
          "duration": 0.06469288541666174
        },
        {
          "name": "C6",
          "midi": 84,
          "time": 228.81654273958213,
          "velocity": 0.7874015748031497,
          "duration": 0.06469288541666174
        },
        {
          "name": "F#6",
          "midi": 90,
          "time": 228.81654273958213,
          "velocity": 0.7874015748031497,
          "duration": 0.06469288541666174
        },
        {
          "name": "C7",
          "midi": 96,
          "time": 228.81654273958213,
          "velocity": 0.7874015748031497,
          "duration": 0.06469288541666174
        },
        {
          "name": "F7",
          "midi": 101,
          "time": 228.81654273958213,
          "velocity": 0.7874015748031497,
          "duration": 0.06469288541666174
        },
        {
          "name": "C#4",
          "midi": 61,
          "time": 228.9470249999988,
          "velocity": 0.7874015748031497,
          "duration": 0.06578937500000848
        },
        {
          "name": "F#4",
          "midi": 66,
          "time": 228.9470249999988,
          "velocity": 0.7874015748031497,
          "duration": 0.06578937500000848
        },
        {
          "name": "C#5",
          "midi": 73,
          "time": 228.9470249999988,
          "velocity": 0.7874015748031497,
          "duration": 0.06578937500000848
        },
        {
          "name": "F5",
          "midi": 77,
          "time": 228.9470249999988,
          "velocity": 0.7874015748031497,
          "duration": 0.06578937500000848
        },
        {
          "name": "C#6",
          "midi": 85,
          "time": 228.9470249999988,
          "velocity": 0.7874015748031497,
          "duration": 0.06578937500000848
        },
        {
          "name": "F6",
          "midi": 89,
          "time": 228.9470249999988,
          "velocity": 0.7874015748031497,
          "duration": 0.06578937500000848
        },
        {
          "name": "C#7",
          "midi": 97,
          "time": 228.9470249999988,
          "velocity": 0.7874015748031497,
          "duration": 0.06578937500000848
        },
        {
          "name": "F7",
          "midi": 101,
          "time": 228.9470249999988,
          "velocity": 0.7874015748031497,
          "duration": 0.06578937500000848
        },
        {
          "name": "D6",
          "midi": 86,
          "time": 229.0347441666655,
          "velocity": 0.7874015748031497,
          "duration": 0.06578937500000848
        },
        {
          "name": "F6",
          "midi": 89,
          "time": 229.0347441666655,
          "velocity": 0.7874015748031497,
          "duration": 0.06578937500000848
        },
        {
          "name": "D7",
          "midi": 98,
          "time": 229.0347441666655,
          "velocity": 0.7874015748031497,
          "duration": 0.06578937500000848
        },
        {
          "name": "F7",
          "midi": 101,
          "time": 229.0347441666655,
          "velocity": 0.7874015748031497,
          "duration": 0.06578937500000848
        },
        {
          "name": "C#7",
          "midi": 97,
          "time": 229.1235598229155,
          "velocity": 0.7874015748031497,
          "duration": 0.06469288541666174
        },
        {
          "name": "F7",
          "midi": 101,
          "time": 229.1235598229155,
          "velocity": 0.7874015748031497,
          "duration": 0.06469288541666174
        },
        {
          "name": "C4",
          "midi": 60,
          "time": 229.21018249999884,
          "velocity": 0.7874015748031497,
          "duration": 0.06578937500000848
        },
        {
          "name": "F#4",
          "midi": 66,
          "time": 229.21018249999884,
          "velocity": 0.7874015748031497,
          "duration": 0.06578937500000848
        },
        {
          "name": "C5",
          "midi": 72,
          "time": 229.21018249999884,
          "velocity": 0.7874015748031497,
          "duration": 0.06578937500000848
        },
        {
          "name": "F#5",
          "midi": 78,
          "time": 229.21018249999884,
          "velocity": 0.7874015748031497,
          "duration": 0.06578937500000848
        },
        {
          "name": "C6",
          "midi": 84,
          "time": 229.21018249999884,
          "velocity": 0.7874015748031497,
          "duration": 0.06578937500000848
        },
        {
          "name": "F6",
          "midi": 89,
          "time": 229.21018249999884,
          "velocity": 0.7874015748031497,
          "duration": 0.06578937500000848
        },
        {
          "name": "C7",
          "midi": 96,
          "time": 229.21018249999884,
          "velocity": 0.7874015748031497,
          "duration": 0.06578937500000848
        },
        {
          "name": "F7",
          "midi": 101,
          "time": 229.21018249999884,
          "velocity": 0.7874015748031497,
          "duration": 0.06578937500000848
        },
        {
          "name": "D4",
          "midi": 62,
          "time": 229.47333999999884,
          "velocity": 0.7874015748031497,
          "duration": 11.051518510416685
        },
        {
          "name": "F4",
          "midi": 65,
          "time": 229.47333999999884,
          "velocity": 0.7874015748031497,
          "duration": 11.051518510416685
        },
        {
          "name": "D5",
          "midi": 74,
          "time": 229.47333999999884,
          "velocity": 0.7874015748031497,
          "duration": 11.051518510416685
        },
        {
          "name": "F5",
          "midi": 77,
          "time": 229.47333999999884,
          "velocity": 0.7874015748031497,
          "duration": 11.051518510416685
        },
        {
          "name": "D#6",
          "midi": 87,
          "time": 229.47333999999884,
          "velocity": 0.7874015748031497,
          "duration": 11.051518510416685
        },
        {
          "name": "F6",
          "midi": 89,
          "time": 229.47333999999884,
          "velocity": 0.7874015748031497,
          "duration": 11.051518510416685
        },
        {
          "name": "E7",
          "midi": 100,
          "time": 229.47333999999884,
          "velocity": 0.7874015748031497,
          "duration": 11.051518510416685
        },
        {
          "name": "F#7",
          "midi": 102,
          "time": 229.47333999999884,
          "velocity": 0.7874015748031497,
          "duration": 11.051518510416685
        },
        {
          "name": "C4",
          "midi": 60,
          "time": 246.31541999999885,
          "velocity": 0.7874015748031497,
          "duration": 1.8410060104166917
        },
        {
          "name": "F#4",
          "midi": 66,
          "time": 246.31541999999885,
          "velocity": 0.7874015748031497,
          "duration": 1.839909520833345
        },
        {
          "name": "C5",
          "midi": 72,
          "time": 246.31541999999885,
          "velocity": 0.7874015748031497,
          "duration": 1.8410060104166917
        },
        {
          "name": "F#5",
          "midi": 78,
          "time": 246.31541999999885,
          "velocity": 0.7874015748031497,
          "duration": 1.839909520833345
        },
        {
          "name": "C6",
          "midi": 84,
          "time": 246.31541999999885,
          "velocity": 0.7874015748031497,
          "duration": 1.8410060104166917
        },
        {
          "name": "F#6",
          "midi": 90,
          "time": 246.31541999999885,
          "velocity": 0.7874015748031497,
          "duration": 1.839909520833345
        },
        {
          "name": "C7",
          "midi": 96,
          "time": 246.31541999999885,
          "velocity": 0.7874015748031497,
          "duration": 1.8410060104166917
        },
        {
          "name": "F#7",
          "midi": 102,
          "time": 246.31541999999885,
          "velocity": 0.7874015748031497,
          "duration": 1.839909520833345
        },
        {
          "name": "C#4",
          "midi": 61,
          "time": 248.1575224999989,
          "velocity": 0.7874015748031497,
          "duration": 2.367321010416674
        },
        {
          "name": "F#4",
          "midi": 66,
          "time": 248.1575224999989,
          "velocity": 0.7874015748031497,
          "duration": 2.3662245208333275
        },
        {
          "name": "C#5",
          "midi": 73,
          "time": 248.1575224999989,
          "velocity": 0.7874015748031497,
          "duration": 2.367321010416674
        },
        {
          "name": "F#5",
          "midi": 78,
          "time": 248.1575224999989,
          "velocity": 0.7874015748031497,
          "duration": 2.3662245208333275
        },
        {
          "name": "D6",
          "midi": 86,
          "time": 248.1575224999989,
          "velocity": 0.7874015748031497,
          "duration": 2.367321010416674
        },
        {
          "name": "F#6",
          "midi": 90,
          "time": 248.1575224999989,
          "velocity": 0.7874015748031497,
          "duration": 2.3662245208333275
        },
        {
          "name": "D7",
          "midi": 98,
          "time": 248.1575224999989,
          "velocity": 0.7874015748031497,
          "duration": 2.367321010416674
        },
        {
          "name": "F#7",
          "midi": 102,
          "time": 248.1575224999989,
          "velocity": 0.7874015748031497,
          "duration": 2.3662245208333275
        },
        {
          "name": "D4",
          "midi": 62,
          "time": 250.5259399999989,
          "velocity": 0.7874015748031497,
          "duration": 1.5778485104166862
        },
        {
          "name": "F#4",
          "midi": 66,
          "time": 250.5259399999989,
          "velocity": 0.7874015748031497,
          "duration": 1.5767520208333394
        },
        {
          "name": "D#5",
          "midi": 75,
          "time": 250.5259399999989,
          "velocity": 0.7874015748031497,
          "duration": 1.5778485104166862
        },
        {
          "name": "F#5",
          "midi": 78,
          "time": 250.5259399999989,
          "velocity": 0.7874015748031497,
          "duration": 1.5767520208333394
        },
        {
          "name": "E6",
          "midi": 88,
          "time": 250.5259399999989,
          "velocity": 0.7874015748031497,
          "duration": 1.5778485104166862
        },
        {
          "name": "F#6",
          "midi": 90,
          "time": 250.5259399999989,
          "velocity": 0.7874015748031497,
          "duration": 1.5767520208333394
        },
        {
          "name": "E7",
          "midi": 100,
          "time": 250.5259399999989,
          "velocity": 0.7874015748031497,
          "duration": 1.5778485104166862
        },
        {
          "name": "F#7",
          "midi": 102,
          "time": 250.5259399999989,
          "velocity": 0.7874015748031497,
          "duration": 1.5767520208333394
        },
        {
          "name": "C#4",
          "midi": 61,
          "time": 252.10488499999894,
          "velocity": 0.7874015748031497,
          "duration": 0.32894687500001396
        },
        {
          "name": "F#4",
          "midi": 66,
          "time": 252.10488499999894,
          "velocity": 0.7874015748031497,
          "duration": 0.32894687500001396
        },
        {
          "name": "C#5",
          "midi": 73,
          "time": 252.10488499999894,
          "velocity": 0.7874015748031497,
          "duration": 0.32894687500001396
        },
        {
          "name": "F#5",
          "midi": 78,
          "time": 252.10488499999894,
          "velocity": 0.7874015748031497,
          "duration": 0.32894687500001396
        },
        {
          "name": "C#6",
          "midi": 85,
          "time": 252.10488499999894,
          "velocity": 0.7874015748031497,
          "duration": 0.32894687500001396
        },
        {
          "name": "F#6",
          "midi": 90,
          "time": 252.10488499999894,
          "velocity": 0.7874015748031497,
          "duration": 0.32894687500001396
        },
        {
          "name": "C#7",
          "midi": 97,
          "time": 252.10488499999894,
          "velocity": 0.7874015748031497,
          "duration": 0.32894687500001396
        },
        {
          "name": "F#7",
          "midi": 102,
          "time": 252.10488499999894,
          "velocity": 0.7874015748031497,
          "duration": 0.32894687500001396
        },
        {
          "name": "D4",
          "midi": 62,
          "time": 252.4349283645823,
          "velocity": 0.7874015748031497,
          "duration": 2.301531635416694
        },
        {
          "name": "F4",
          "midi": 65,
          "time": 252.4349283645823,
          "velocity": 0.7874015748031497,
          "duration": 2.3004351458333474
        },
        {
          "name": "D5",
          "midi": 74,
          "time": 252.4349283645823,
          "velocity": 0.7874015748031497,
          "duration": 2.301531635416694
        },
        {
          "name": "F5",
          "midi": 77,
          "time": 252.4349283645823,
          "velocity": 0.7874015748031497,
          "duration": 2.3004351458333474
        },
        {
          "name": "D#6",
          "midi": 87,
          "time": 252.4349283645823,
          "velocity": 0.7874015748031497,
          "duration": 2.301531635416694
        },
        {
          "name": "F6",
          "midi": 89,
          "time": 252.4349283645823,
          "velocity": 0.7874015748031497,
          "duration": 2.3004351458333474
        },
        {
          "name": "D#7",
          "midi": 99,
          "time": 252.4349283645823,
          "velocity": 0.7874015748031497,
          "duration": 2.301531635416694
        },
        {
          "name": "F7",
          "midi": 101,
          "time": 252.4349283645823,
          "velocity": 0.7874015748031497,
          "duration": 2.3004351458333474
        },
        {
          "name": "C#4",
          "midi": 61,
          "time": 254.736459999999,
          "velocity": 0.7874015748031497,
          "duration": 0.7225866354166612
        },
        {
          "name": "F#4",
          "midi": 66,
          "time": 254.736459999999,
          "velocity": 0.7874015748031497,
          "duration": 0.7225866354166612
        },
        {
          "name": "C#5",
          "midi": 73,
          "time": 254.736459999999,
          "velocity": 0.7874015748031497,
          "duration": 0.7225866354166612
        },
        {
          "name": "F#5",
          "midi": 78,
          "time": 254.736459999999,
          "velocity": 0.7874015748031497,
          "duration": 0.7225866354166612
        },
        {
          "name": "D6",
          "midi": 86,
          "time": 254.736459999999,
          "velocity": 0.7874015748031497,
          "duration": 0.7225866354166612
        },
        {
          "name": "F#6",
          "midi": 90,
          "time": 254.736459999999,
          "velocity": 0.7874015748031497,
          "duration": 0.7225866354166612
        },
        {
          "name": "D7",
          "midi": 98,
          "time": 254.736459999999,
          "velocity": 0.7874015748031497,
          "duration": 0.7225866354166612
        },
        {
          "name": "F#7",
          "midi": 102,
          "time": 254.736459999999,
          "velocity": 0.7874015748031497,
          "duration": 0.7225866354166612
        },
        {
          "name": "D4",
          "midi": 62,
          "time": 255.46123961458233,
          "velocity": 0.7874015748031497,
          "duration": 0.3267538958333489
        },
        {
          "name": "F4",
          "midi": 65,
          "time": 255.46123961458233,
          "velocity": 0.7874015748031497,
          "duration": 0.32565740625000217
        },
        {
          "name": "D5",
          "midi": 74,
          "time": 255.46123961458233,
          "velocity": 0.7874015748031497,
          "duration": 0.3267538958333489
        },
        {
          "name": "F5",
          "midi": 77,
          "time": 255.46123961458233,
          "velocity": 0.7874015748031497,
          "duration": 0.32565740625000217
        },
        {
          "name": "D#6",
          "midi": 87,
          "time": 255.46123961458233,
          "velocity": 0.7874015748031497,
          "duration": 0.3267538958333489
        },
        {
          "name": "F6",
          "midi": 89,
          "time": 255.46123961458233,
          "velocity": 0.7874015748031497,
          "duration": 0.32565740625000217
        },
        {
          "name": "D#7",
          "midi": 99,
          "time": 255.46123961458233,
          "velocity": 0.7874015748031497,
          "duration": 0.3267538958333489
        },
        {
          "name": "F7",
          "midi": 101,
          "time": 255.46123961458233,
          "velocity": 0.7874015748031497,
          "duration": 0.32565740625000217
        },
        {
          "name": "C#4",
          "midi": 61,
          "time": 255.78908999999902,
          "velocity": 0.7874015748031497,
          "duration": 0.7883760104166413
        },
        {
          "name": "F4",
          "midi": 65,
          "time": 255.78908999999902,
          "velocity": 0.7874015748031497,
          "duration": 0.7883760104166413
        },
        {
          "name": "C#5",
          "midi": 73,
          "time": 255.78908999999902,
          "velocity": 0.7874015748031497,
          "duration": 0.7883760104166413
        },
        {
          "name": "F5",
          "midi": 77,
          "time": 255.78908999999902,
          "velocity": 0.7874015748031497,
          "duration": 0.7883760104166413
        },
        {
          "name": "D6",
          "midi": 86,
          "time": 255.78908999999902,
          "velocity": 0.7874015748031497,
          "duration": 0.7883760104166413
        },
        {
          "name": "F6",
          "midi": 89,
          "time": 255.78908999999902,
          "velocity": 0.7874015748031497,
          "duration": 0.7883760104166413
        },
        {
          "name": "D7",
          "midi": 98,
          "time": 255.78908999999902,
          "velocity": 0.7874015748031497,
          "duration": 0.7883760104166413
        },
        {
          "name": "F7",
          "midi": 101,
          "time": 255.78908999999902,
          "velocity": 0.7874015748031497,
          "duration": 0.7883760104166413
        },
        {
          "name": "C#4",
          "midi": 61,
          "time": 256.57965898958236,
          "velocity": 0.7874015748031497,
          "duration": 2.3662245208333275
        },
        {
          "name": "F#4",
          "midi": 66,
          "time": 256.57965898958236,
          "velocity": 0.7874015748031497,
          "duration": 2.3651280312499807
        },
        {
          "name": "C#5",
          "midi": 73,
          "time": 256.57965898958236,
          "velocity": 0.7874015748031497,
          "duration": 2.3662245208333275
        },
        {
          "name": "F#5",
          "midi": 78,
          "time": 256.57965898958236,
          "velocity": 0.7874015748031497,
          "duration": 2.3651280312499807
        },
        {
          "name": "C#6",
          "midi": 85,
          "time": 256.57965898958236,
          "velocity": 0.7874015748031497,
          "duration": 2.3662245208333275
        },
        {
          "name": "F#6",
          "midi": 90,
          "time": 256.57965898958236,
          "velocity": 0.7874015748031497,
          "duration": 2.3651280312499807
        },
        {
          "name": "C#7",
          "midi": 97,
          "time": 256.57965898958236,
          "velocity": 0.7874015748031497,
          "duration": 2.3662245208333275
        },
        {
          "name": "F#7",
          "midi": 102,
          "time": 256.57965898958236,
          "velocity": 0.7874015748031497,
          "duration": 2.3651280312499807
        },
        {
          "name": "C4",
          "midi": 60,
          "time": 258.94697999999903,
          "velocity": 0.7874015748031497,
          "duration": 1.8431989895833567
        },
        {
          "name": "F#4",
          "midi": 66,
          "time": 258.94697999999903,
          "velocity": 0.7874015748031497,
          "duration": 1.84210250000001
        },
        {
          "name": "C5",
          "midi": 72,
          "time": 258.94697999999903,
          "velocity": 0.7874015748031497,
          "duration": 1.8431989895833567
        },
        {
          "name": "F#5",
          "midi": 78,
          "time": 258.94697999999903,
          "velocity": 0.7874015748031497,
          "duration": 1.84210250000001
        },
        {
          "name": "C6",
          "midi": 84,
          "time": 258.94697999999903,
          "velocity": 0.7874015748031497,
          "duration": 1.8431989895833567
        },
        {
          "name": "F#6",
          "midi": 90,
          "time": 258.94697999999903,
          "velocity": 0.7874015748031497,
          "duration": 1.84210250000001
        },
        {
          "name": "C7",
          "midi": 96,
          "time": 258.94697999999903,
          "velocity": 0.7874015748031497,
          "duration": 1.8431989895833567
        },
        {
          "name": "F#7",
          "midi": 102,
          "time": 258.94697999999903,
          "velocity": 0.7874015748031497,
          "duration": 1.84210250000001
        },
        {
          "name": "C#4",
          "midi": 61,
          "time": 260.79127547916573,
          "velocity": 0.7874015748031497,
          "duration": 3.9440730312500136
        },
        {
          "name": "F#4",
          "midi": 66,
          "time": 260.79127547916573,
          "velocity": 0.7874015748031497,
          "duration": 3.942976541666667
        },
        {
          "name": "C#5",
          "midi": 73,
          "time": 260.79127547916573,
          "velocity": 0.7874015748031497,
          "duration": 3.9440730312500136
        },
        {
          "name": "F#5",
          "midi": 78,
          "time": 260.79127547916573,
          "velocity": 0.7874015748031497,
          "duration": 3.942976541666667
        },
        {
          "name": "C#6",
          "midi": 85,
          "time": 260.79127547916573,
          "velocity": 0.7874015748031497,
          "duration": 3.9440730312500136
        },
        {
          "name": "F#6",
          "midi": 90,
          "time": 260.79127547916573,
          "velocity": 0.7874015748031497,
          "duration": 3.942976541666667
        },
        {
          "name": "C#7",
          "midi": 97,
          "time": 260.79127547916573,
          "velocity": 0.7874015748031497,
          "duration": 3.9440730312500136
        },
        {
          "name": "F#7",
          "midi": 102,
          "time": 260.79127547916573,
          "velocity": 0.7874015748031497,
          "duration": 3.942976541666667
        },
        {
          "name": "C4",
          "midi": 60,
          "time": 264.7364449999991,
          "velocity": 0.7874015748031497,
          "duration": 0.5263150000000678
        },
        {
          "name": "F#4",
          "midi": 66,
          "time": 264.7364449999991,
          "velocity": 0.7874015748031497,
          "duration": 0.5263150000000678
        },
        {
          "name": "C5",
          "midi": 72,
          "time": 264.7364449999991,
          "velocity": 0.7874015748031497,
          "duration": 0.5263150000000678
        },
        {
          "name": "F#5",
          "midi": 78,
          "time": 264.7364449999991,
          "velocity": 0.7874015748031497,
          "duration": 0.5263150000000678
        },
        {
          "name": "C6",
          "midi": 84,
          "time": 264.7364449999991,
          "velocity": 0.7874015748031497,
          "duration": 0.5263150000000678
        },
        {
          "name": "F#6",
          "midi": 90,
          "time": 264.7364449999991,
          "velocity": 0.7874015748031497,
          "duration": 0.5263150000000678
        },
        {
          "name": "D#7",
          "midi": 99,
          "time": 264.7364449999991,
          "velocity": 0.7874015748031497,
          "duration": 0.06578937500000848
        },
        {
          "name": "F#7",
          "midi": 102,
          "time": 264.7364449999991,
          "velocity": 0.7874015748031497,
          "duration": 0.06578937500000848
        },
        {
          "name": "D7",
          "midi": 98,
          "time": 264.86912023958246,
          "velocity": 0.7874015748031497,
          "duration": 0.06469288541666174
        },
        {
          "name": "F7",
          "midi": 101,
          "time": 264.86912023958246,
          "velocity": 0.7874015748031497,
          "duration": 0.06469288541666174
        },
        {
          "name": "C#7",
          "midi": 97,
          "time": 264.9996024999991,
          "velocity": 0.7874015748031497,
          "duration": 0.06578937500000848
        },
        {
          "name": "F7",
          "midi": 101,
          "time": 264.9996024999991,
          "velocity": 0.7874015748031497,
          "duration": 0.06578937500000848
        },
        {
          "name": "C7",
          "midi": 96,
          "time": 265.1322777395825,
          "velocity": 0.7874015748031497,
          "duration": 0.06469288541666174
        },
        {
          "name": "F7",
          "midi": 101,
          "time": 265.1322777395825,
          "velocity": 0.7874015748031497,
          "duration": 0.06469288541666174
        },
        {
          "name": "G#8",
          "midi": 116,
          "time": 265.26275999999916,
          "velocity": 0.7874015748031497,
          "duration": 2.1052600000001576
        },
        {
          "name": "D4",
          "midi": 62,
          "time": 265.26275999999916,
          "velocity": 0.7874015748031497,
          "duration": 0.06688586458335521
        },
        {
          "name": "F#4",
          "midi": 66,
          "time": 265.26275999999916,
          "velocity": 0.7874015748031497,
          "duration": 0.06688586458335521
        },
        {
          "name": "D5",
          "midi": 74,
          "time": 265.26275999999916,
          "velocity": 0.7874015748031497,
          "duration": 0.06688586458335521
        },
        {
          "name": "F#5",
          "midi": 78,
          "time": 265.26275999999916,
          "velocity": 0.7874015748031497,
          "duration": 0.06688586458335521
        },
        {
          "name": "D#6",
          "midi": 87,
          "time": 265.26275999999916,
          "velocity": 0.7874015748031497,
          "duration": 0.06688586458335521
        },
        {
          "name": "F#6",
          "midi": 90,
          "time": 265.26275999999916,
          "velocity": 0.7874015748031497,
          "duration": 0.06688586458335521
        },
        {
          "name": "D#7",
          "midi": 99,
          "time": 265.26275999999916,
          "velocity": 0.7874015748031497,
          "duration": 0.06688586458335521
        },
        {
          "name": "F#7",
          "midi": 102,
          "time": 265.26275999999916,
          "velocity": 0.7874015748031497,
          "duration": 0.06688586458335521
        },
        {
          "name": "D#7",
          "midi": 99,
          "time": 265.3943387499992,
          "velocity": 0.7874015748031497,
          "duration": 0.06578937500000848
        },
        {
          "name": "F#7",
          "midi": 102,
          "time": 265.3943387499992,
          "velocity": 0.7874015748031497,
          "duration": 0.06578937500000848
        },
        {
          "name": "C#5",
          "midi": 73,
          "time": 265.52701398958254,
          "velocity": 0.7874015748031497,
          "duration": 0.06469288541666174
        },
        {
          "name": "F5",
          "midi": 77,
          "time": 265.52701398958254,
          "velocity": 0.7874015748031497,
          "duration": 0.06469288541666174
        },
        {
          "name": "D6",
          "midi": 86,
          "time": 265.52701398958254,
          "velocity": 0.7874015748031497,
          "duration": 0.06469288541666174
        },
        {
          "name": "F6",
          "midi": 89,
          "time": 265.52701398958254,
          "velocity": 0.7874015748031497,
          "duration": 0.06469288541666174
        },
        {
          "name": "D7",
          "midi": 98,
          "time": 265.52701398958254,
          "velocity": 0.7874015748031497,
          "duration": 0.06469288541666174
        },
        {
          "name": "F7",
          "midi": 101,
          "time": 265.52701398958254,
          "velocity": 0.7874015748031497,
          "duration": 0.06469288541666174
        },
        {
          "name": "D4",
          "midi": 62,
          "time": 265.65859273958256,
          "velocity": 0.7874015748031497,
          "duration": 0.06469288541666174
        },
        {
          "name": "F#4",
          "midi": 66,
          "time": 265.65859273958256,
          "velocity": 0.7874015748031497,
          "duration": 0.06469288541666174
        },
        {
          "name": "D5",
          "midi": 74,
          "time": 265.65859273958256,
          "velocity": 0.7874015748031497,
          "duration": 0.06469288541666174
        },
        {
          "name": "F5",
          "midi": 77,
          "time": 265.65859273958256,
          "velocity": 0.7874015748031497,
          "duration": 0.06469288541666174
        },
        {
          "name": "D#6",
          "midi": 87,
          "time": 265.65859273958256,
          "velocity": 0.7874015748031497,
          "duration": 0.06469288541666174
        },
        {
          "name": "F6",
          "midi": 89,
          "time": 265.65859273958256,
          "velocity": 0.7874015748031497,
          "duration": 0.06469288541666174
        },
        {
          "name": "D#7",
          "midi": 99,
          "time": 265.65859273958256,
          "velocity": 0.7874015748031497,
          "duration": 0.06469288541666174
        },
        {
          "name": "F7",
          "midi": 101,
          "time": 265.65859273958256,
          "velocity": 0.7874015748031497,
          "duration": 0.06469288541666174
        },
        {
          "name": "D7",
          "midi": 98,
          "time": 265.78907499999923,
          "velocity": 0.7874015748031497,
          "duration": 0.06578937500000848
        },
        {
          "name": "F7",
          "midi": 101,
          "time": 265.78907499999923,
          "velocity": 0.7874015748031497,
          "duration": 0.06578937500000848
        },
        {
          "name": "C#4",
          "midi": 61,
          "time": 265.9217502395826,
          "velocity": 0.7874015748031497,
          "duration": 0.06469288541666174
        },
        {
          "name": "F4",
          "midi": 65,
          "time": 265.9217502395826,
          "velocity": 0.7874015748031497,
          "duration": 0.06469288541666174
        },
        {
          "name": "C#5",
          "midi": 73,
          "time": 265.9217502395826,
          "velocity": 0.7874015748031497,
          "duration": 0.06469288541666174
        },
        {
          "name": "F5",
          "midi": 77,
          "time": 265.9217502395826,
          "velocity": 0.7874015748031497,
          "duration": 0.06469288541666174
        },
        {
          "name": "D6",
          "midi": 86,
          "time": 265.9217502395826,
          "velocity": 0.7874015748031497,
          "duration": 0.06469288541666174
        },
        {
          "name": "F6",
          "midi": 89,
          "time": 265.9217502395826,
          "velocity": 0.7874015748031497,
          "duration": 0.06469288541666174
        },
        {
          "name": "C#7",
          "midi": 97,
          "time": 265.9217502395826,
          "velocity": 0.7874015748031497,
          "duration": 0.06469288541666174
        },
        {
          "name": "F7",
          "midi": 101,
          "time": 265.9217502395826,
          "velocity": 0.7874015748031497,
          "duration": 0.06469288541666174
        },
        {
          "name": "C#6",
          "midi": 85,
          "time": 266.05223249999926,
          "velocity": 0.7874015748031497,
          "duration": 0.06578937500000848
        },
        {
          "name": "F6",
          "midi": 89,
          "time": 266.05223249999926,
          "velocity": 0.7874015748031497,
          "duration": 0.06578937500000848
        },
        {
          "name": "C#7",
          "midi": 97,
          "time": 266.05223249999926,
          "velocity": 0.7874015748031497,
          "duration": 0.06578937500000848
        },
        {
          "name": "F#7",
          "midi": 102,
          "time": 266.05223249999926,
          "velocity": 0.7874015748031497,
          "duration": 0.06578937500000848
        },
        {
          "name": "C4",
          "midi": 60,
          "time": 266.3153899999993,
          "velocity": 0.7874015748031497,
          "duration": 1.0515335104166752
        },
        {
          "name": "F#4",
          "midi": 66,
          "time": 266.3153899999993,
          "velocity": 0.7874015748031497,
          "duration": 1.0504370208333285
        },
        {
          "name": "C5",
          "midi": 72,
          "time": 266.3153899999993,
          "velocity": 0.7874015748031497,
          "duration": 1.0515335104166752
        },
        {
          "name": "F#5",
          "midi": 78,
          "time": 266.3153899999993,
          "velocity": 0.7874015748031497,
          "duration": 1.0504370208333285
        },
        {
          "name": "C6",
          "midi": 84,
          "time": 266.3153899999993,
          "velocity": 0.7874015748031497,
          "duration": 1.0515335104166752
        },
        {
          "name": "F#6",
          "midi": 90,
          "time": 266.3153899999993,
          "velocity": 0.7874015748031497,
          "duration": 1.0504370208333285
        },
        {
          "name": "C7",
          "midi": 96,
          "time": 266.3153899999993,
          "velocity": 0.7874015748031497,
          "duration": 1.0515335104166752
        },
        {
          "name": "F#7",
          "midi": 102,
          "time": 266.3153899999993,
          "velocity": 0.7874015748031497,
          "duration": 1.0504370208333285
        },
        {
          "name": "D4",
          "midi": 62,
          "time": 267.3680199999993,
          "velocity": 0.7874015748031497,
          "duration": 0.06469288541666174
        },
        {
          "name": "F#4",
          "midi": 66,
          "time": 267.3680199999993,
          "velocity": 0.7874015748031497,
          "duration": 0.06469288541666174
        },
        {
          "name": "D5",
          "midi": 74,
          "time": 267.3680199999993,
          "velocity": 0.7874015748031497,
          "duration": 0.06469288541666174
        },
        {
          "name": "F#5",
          "midi": 78,
          "time": 267.3680199999993,
          "velocity": 0.7874015748031497,
          "duration": 0.06469288541666174
        },
        {
          "name": "D#6",
          "midi": 87,
          "time": 267.3680199999993,
          "velocity": 0.7874015748031497,
          "duration": 0.06469288541666174
        },
        {
          "name": "F#6",
          "midi": 90,
          "time": 267.3680199999993,
          "velocity": 0.7874015748031497,
          "duration": 0.06469288541666174
        },
        {
          "name": "D#7",
          "midi": 99,
          "time": 267.3680199999993,
          "velocity": 0.7874015748031497,
          "duration": 0.06469288541666174
        },
        {
          "name": "F#7",
          "midi": 102,
          "time": 267.3680199999993,
          "velocity": 0.7874015748031497,
          "duration": 0.06469288541666174
        },
        {
          "name": "D#7",
          "midi": 99,
          "time": 267.49959874999934,
          "velocity": 0.7874015748031497,
          "duration": 0.06469288541666174
        },
        {
          "name": "F#7",
          "midi": 102,
          "time": 267.49959874999934,
          "velocity": 0.7874015748031497,
          "duration": 0.06469288541666174
        },
        {
          "name": "C#5",
          "midi": 73,
          "time": 267.63117749999935,
          "velocity": 0.7874015748031497,
          "duration": 0.06469288541666174
        },
        {
          "name": "F5",
          "midi": 77,
          "time": 267.63117749999935,
          "velocity": 0.7874015748031497,
          "duration": 0.06469288541666174
        },
        {
          "name": "D6",
          "midi": 86,
          "time": 267.63117749999935,
          "velocity": 0.7874015748031497,
          "duration": 0.06469288541666174
        },
        {
          "name": "F6",
          "midi": 89,
          "time": 267.63117749999935,
          "velocity": 0.7874015748031497,
          "duration": 0.06469288541666174
        },
        {
          "name": "D7",
          "midi": 98,
          "time": 267.63117749999935,
          "velocity": 0.7874015748031497,
          "duration": 0.06469288541666174
        },
        {
          "name": "F7",
          "midi": 101,
          "time": 267.63117749999935,
          "velocity": 0.7874015748031497,
          "duration": 0.06469288541666174
        },
        {
          "name": "D4",
          "midi": 62,
          "time": 267.76275624999937,
          "velocity": 0.7874015748031497,
          "duration": 0.06469288541666174
        },
        {
          "name": "F#4",
          "midi": 66,
          "time": 267.76275624999937,
          "velocity": 0.7874015748031497,
          "duration": 0.06469288541666174
        },
        {
          "name": "D5",
          "midi": 74,
          "time": 267.76275624999937,
          "velocity": 0.7874015748031497,
          "duration": 0.06469288541666174
        },
        {
          "name": "F5",
          "midi": 77,
          "time": 267.76275624999937,
          "velocity": 0.7874015748031497,
          "duration": 0.06469288541666174
        },
        {
          "name": "D#6",
          "midi": 87,
          "time": 267.76275624999937,
          "velocity": 0.7874015748031497,
          "duration": 0.06469288541666174
        },
        {
          "name": "F6",
          "midi": 89,
          "time": 267.76275624999937,
          "velocity": 0.7874015748031497,
          "duration": 0.06469288541666174
        },
        {
          "name": "D#7",
          "midi": 99,
          "time": 267.76275624999937,
          "velocity": 0.7874015748031497,
          "duration": 0.06469288541666174
        },
        {
          "name": "F7",
          "midi": 101,
          "time": 267.76275624999937,
          "velocity": 0.7874015748031497,
          "duration": 0.06469288541666174
        },
        {
          "name": "D7",
          "midi": 98,
          "time": 267.8943349999994,
          "velocity": 0.7874015748031497,
          "duration": 0.06469288541666174
        },
        {
          "name": "F7",
          "midi": 101,
          "time": 267.8943349999994,
          "velocity": 0.7874015748031497,
          "duration": 0.06469288541666174
        },
        {
          "name": "C#4",
          "midi": 61,
          "time": 268.0259137499994,
          "velocity": 0.7874015748031497,
          "duration": 0.06469288541666174
        },
        {
          "name": "F4",
          "midi": 65,
          "time": 268.0259137499994,
          "velocity": 0.7874015748031497,
          "duration": 0.06469288541666174
        },
        {
          "name": "C#5",
          "midi": 73,
          "time": 268.0259137499994,
          "velocity": 0.7874015748031497,
          "duration": 0.06469288541666174
        },
        {
          "name": "F5",
          "midi": 77,
          "time": 268.0259137499994,
          "velocity": 0.7874015748031497,
          "duration": 0.06469288541666174
        },
        {
          "name": "D6",
          "midi": 86,
          "time": 268.0259137499994,
          "velocity": 0.7874015748031497,
          "duration": 0.06469288541666174
        },
        {
          "name": "F6",
          "midi": 89,
          "time": 268.0259137499994,
          "velocity": 0.7874015748031497,
          "duration": 0.06469288541666174
        },
        {
          "name": "C#7",
          "midi": 97,
          "time": 268.0259137499994,
          "velocity": 0.7874015748031497,
          "duration": 0.06469288541666174
        },
        {
          "name": "F7",
          "midi": 101,
          "time": 268.0259137499994,
          "velocity": 0.7874015748031497,
          "duration": 0.06469288541666174
        },
        {
          "name": "C#6",
          "midi": 85,
          "time": 268.1563960104161,
          "velocity": 0.7874015748031497,
          "duration": 0.06578937500000848
        },
        {
          "name": "F6",
          "midi": 89,
          "time": 268.1563960104161,
          "velocity": 0.7874015748031497,
          "duration": 0.06578937500000848
        },
        {
          "name": "D7",
          "midi": 98,
          "time": 268.1563960104161,
          "velocity": 0.7874015748031497,
          "duration": 0.06578937500000848
        },
        {
          "name": "F7",
          "midi": 101,
          "time": 268.1563960104161,
          "velocity": 0.7874015748031497,
          "duration": 0.06578937500000848
        },
        {
          "name": "D7",
          "midi": 98,
          "time": 268.28907124999944,
          "velocity": 0.7874015748031497,
          "duration": 0.06578937500000848
        },
        {
          "name": "F#7",
          "midi": 102,
          "time": 268.28907124999944,
          "velocity": 0.7874015748031497,
          "duration": 0.06578937500000848
        },
        {
          "name": "C#4",
          "midi": 61,
          "time": 268.42064999999945,
          "velocity": 0.7874015748031497,
          "duration": 0.3925432708333574
        },
        {
          "name": "F#4",
          "midi": 66,
          "time": 268.42064999999945,
          "velocity": 0.7874015748031497,
          "duration": 0.3925432708333574
        },
        {
          "name": "C#5",
          "midi": 73,
          "time": 268.42064999999945,
          "velocity": 0.7874015748031497,
          "duration": 0.3925432708333574
        },
        {
          "name": "F#5",
          "midi": 78,
          "time": 268.42064999999945,
          "velocity": 0.7874015748031497,
          "duration": 0.3925432708333574
        },
        {
          "name": "C#6",
          "midi": 85,
          "time": 268.42064999999945,
          "velocity": 0.7874015748031497,
          "duration": 0.3925432708333574
        },
        {
          "name": "F#6",
          "midi": 90,
          "time": 268.42064999999945,
          "velocity": 0.7874015748031497,
          "duration": 0.3925432708333574
        },
        {
          "name": "C#7",
          "midi": 97,
          "time": 268.42064999999945,
          "velocity": 0.7874015748031497,
          "duration": 0.3925432708333574
        },
        {
          "name": "F7",
          "midi": 101,
          "time": 268.42064999999945,
          "velocity": 0.7874015748031497,
          "duration": 0.3925432708333574
        },
        {
          "name": "D4",
          "midi": 62,
          "time": 268.8153862499995,
          "velocity": 0.7874015748031497,
          "duration": 0.3925432708333574
        },
        {
          "name": "F#4",
          "midi": 66,
          "time": 268.8153862499995,
          "velocity": 0.7874015748031497,
          "duration": 0.3925432708333574
        },
        {
          "name": "D5",
          "midi": 74,
          "time": 268.8153862499995,
          "velocity": 0.7874015748031497,
          "duration": 0.3925432708333574
        },
        {
          "name": "F#5",
          "midi": 78,
          "time": 268.8153862499995,
          "velocity": 0.7874015748031497,
          "duration": 0.3925432708333574
        },
        {
          "name": "D6",
          "midi": 86,
          "time": 268.8153862499995,
          "velocity": 0.7874015748031497,
          "duration": 0.3925432708333574
        },
        {
          "name": "F#6",
          "midi": 90,
          "time": 268.8153862499995,
          "velocity": 0.7874015748031497,
          "duration": 0.3925432708333574
        },
        {
          "name": "D7",
          "midi": 98,
          "time": 268.8153862499995,
          "velocity": 0.7874015748031497,
          "duration": 0.3925432708333574
        },
        {
          "name": "F#7",
          "midi": 102,
          "time": 268.8153862499995,
          "velocity": 0.7874015748031497,
          "duration": 0.3925432708333574
        },
        {
          "name": "C4",
          "midi": 60,
          "time": 269.21012249999956,
          "velocity": 0.7874015748031497,
          "duration": 0.06469288541666174
        },
        {
          "name": "F#4",
          "midi": 66,
          "time": 269.21012249999956,
          "velocity": 0.7874015748031497,
          "duration": 0.06469288541666174
        },
        {
          "name": "C5",
          "midi": 72,
          "time": 269.21012249999956,
          "velocity": 0.7874015748031497,
          "duration": 0.06469288541666174
        },
        {
          "name": "F#5",
          "midi": 78,
          "time": 269.21012249999956,
          "velocity": 0.7874015748031497,
          "duration": 0.06469288541666174
        },
        {
          "name": "C6",
          "midi": 84,
          "time": 269.21012249999956,
          "velocity": 0.7874015748031497,
          "duration": 0.06469288541666174
        },
        {
          "name": "F#6",
          "midi": 90,
          "time": 269.21012249999956,
          "velocity": 0.7874015748031497,
          "duration": 0.06469288541666174
        },
        {
          "name": "C7",
          "midi": 96,
          "time": 269.21012249999956,
          "velocity": 0.7874015748031497,
          "duration": 0.06469288541666174
        },
        {
          "name": "F#7",
          "midi": 102,
          "time": 269.21012249999956,
          "velocity": 0.7874015748031497,
          "duration": 0.06469288541666174
        },
        {
          "name": "D4",
          "midi": 62,
          "time": 269.47327999999953,
          "velocity": 0.7874015748031497,
          "duration": 0.06469288541666174
        },
        {
          "name": "F#4",
          "midi": 66,
          "time": 269.47327999999953,
          "velocity": 0.7874015748031497,
          "duration": 0.06469288541666174
        },
        {
          "name": "D5",
          "midi": 74,
          "time": 269.47327999999953,
          "velocity": 0.7874015748031497,
          "duration": 0.06469288541666174
        },
        {
          "name": "F#5",
          "midi": 78,
          "time": 269.47327999999953,
          "velocity": 0.7874015748031497,
          "duration": 0.06469288541666174
        },
        {
          "name": "D#6",
          "midi": 87,
          "time": 269.47327999999953,
          "velocity": 0.7874015748031497,
          "duration": 0.06469288541666174
        },
        {
          "name": "F#6",
          "midi": 90,
          "time": 269.47327999999953,
          "velocity": 0.7874015748031497,
          "duration": 0.06469288541666174
        },
        {
          "name": "D#7",
          "midi": 99,
          "time": 269.47327999999953,
          "velocity": 0.7874015748031497,
          "duration": 0.06469288541666174
        },
        {
          "name": "F#7",
          "midi": 102,
          "time": 269.47327999999953,
          "velocity": 0.7874015748031497,
          "duration": 0.06469288541666174
        },
        {
          "name": "D#7",
          "midi": 99,
          "time": 269.60485874999955,
          "velocity": 0.7874015748031497,
          "duration": 0.06469288541666174
        },
        {
          "name": "F#7",
          "midi": 102,
          "time": 269.60485874999955,
          "velocity": 0.7874015748031497,
          "duration": 0.06469288541666174
        },
        {
          "name": "C#5",
          "midi": 73,
          "time": 269.73753398958286,
          "velocity": 0.7874015748031497,
          "duration": 0.06469288541666174
        },
        {
          "name": "F5",
          "midi": 77,
          "time": 269.73753398958286,
          "velocity": 0.7874015748031497,
          "duration": 0.06469288541666174
        },
        {
          "name": "D6",
          "midi": 86,
          "time": 269.73753398958286,
          "velocity": 0.7874015748031497,
          "duration": 0.06469288541666174
        },
        {
          "name": "F6",
          "midi": 89,
          "time": 269.73753398958286,
          "velocity": 0.7874015748031497,
          "duration": 0.06469288541666174
        },
        {
          "name": "D7",
          "midi": 98,
          "time": 269.73753398958286,
          "velocity": 0.7874015748031497,
          "duration": 0.06469288541666174
        },
        {
          "name": "F7",
          "midi": 101,
          "time": 269.73753398958286,
          "velocity": 0.7874015748031497,
          "duration": 0.06469288541666174
        },
        {
          "name": "D4",
          "midi": 62,
          "time": 269.8680162499995,
          "velocity": 0.7874015748031497,
          "duration": 0.06469288541666174
        },
        {
          "name": "F#4",
          "midi": 66,
          "time": 269.8680162499995,
          "velocity": 0.7874015748031497,
          "duration": 0.06469288541666174
        },
        {
          "name": "D5",
          "midi": 74,
          "time": 269.8680162499995,
          "velocity": 0.7874015748031497,
          "duration": 0.06469288541666174
        },
        {
          "name": "F5",
          "midi": 77,
          "time": 269.8680162499995,
          "velocity": 0.7874015748031497,
          "duration": 0.06469288541666174
        },
        {
          "name": "D#6",
          "midi": 87,
          "time": 269.8680162499995,
          "velocity": 0.7874015748031497,
          "duration": 0.06469288541666174
        },
        {
          "name": "F6",
          "midi": 89,
          "time": 269.8680162499995,
          "velocity": 0.7874015748031497,
          "duration": 0.06469288541666174
        },
        {
          "name": "D#7",
          "midi": 99,
          "time": 269.8680162499995,
          "velocity": 0.7874015748031497,
          "duration": 0.06469288541666174
        },
        {
          "name": "F7",
          "midi": 101,
          "time": 269.8680162499995,
          "velocity": 0.7874015748031497,
          "duration": 0.06469288541666174
        },
        {
          "name": "D7",
          "midi": 98,
          "time": 269.99959499999954,
          "velocity": 0.7874015748031497,
          "duration": 0.06469288541666174
        },
        {
          "name": "F7",
          "midi": 101,
          "time": 269.99959499999954,
          "velocity": 0.7874015748031497,
          "duration": 0.06469288541666174
        },
        {
          "name": "C#4",
          "midi": 61,
          "time": 270.13227023958285,
          "velocity": 0.7874015748031497,
          "duration": 0.06469288541666174
        },
        {
          "name": "F4",
          "midi": 65,
          "time": 270.13227023958285,
          "velocity": 0.7874015748031497,
          "duration": 0.06469288541666174
        },
        {
          "name": "C#5",
          "midi": 73,
          "time": 270.13227023958285,
          "velocity": 0.7874015748031497,
          "duration": 0.06469288541666174
        },
        {
          "name": "F5",
          "midi": 77,
          "time": 270.13227023958285,
          "velocity": 0.7874015748031497,
          "duration": 0.06469288541666174
        },
        {
          "name": "D6",
          "midi": 86,
          "time": 270.13227023958285,
          "velocity": 0.7874015748031497,
          "duration": 0.06469288541666174
        },
        {
          "name": "F6",
          "midi": 89,
          "time": 270.13227023958285,
          "velocity": 0.7874015748031497,
          "duration": 0.06469288541666174
        },
        {
          "name": "C#7",
          "midi": 97,
          "time": 270.13227023958285,
          "velocity": 0.7874015748031497,
          "duration": 0.06469288541666174
        },
        {
          "name": "F7",
          "midi": 101,
          "time": 270.13227023958285,
          "velocity": 0.7874015748031497,
          "duration": 0.06469288541666174
        },
        {
          "name": "C#6",
          "midi": 85,
          "time": 270.2627524999995,
          "velocity": 0.7874015748031497,
          "duration": 0.06469288541666174
        },
        {
          "name": "F6",
          "midi": 89,
          "time": 270.2627524999995,
          "velocity": 0.7874015748031497,
          "duration": 0.06469288541666174
        },
        {
          "name": "C#7",
          "midi": 97,
          "time": 270.2627524999995,
          "velocity": 0.7874015748031497,
          "duration": 0.06469288541666174
        },
        {
          "name": "F#7",
          "midi": 102,
          "time": 270.2627524999995,
          "velocity": 0.7874015748031497,
          "duration": 0.06469288541666174
        },
        {
          "name": "C4",
          "midi": 60,
          "time": 270.5259099999995,
          "velocity": 0.7874015748031497,
          "duration": 1.0515335104166752
        },
        {
          "name": "F#4",
          "midi": 66,
          "time": 270.5259099999995,
          "velocity": 0.7874015748031497,
          "duration": 1.0504370208333285
        },
        {
          "name": "C5",
          "midi": 72,
          "time": 270.5259099999995,
          "velocity": 0.7874015748031497,
          "duration": 1.0515335104166752
        },
        {
          "name": "F#5",
          "midi": 78,
          "time": 270.5259099999995,
          "velocity": 0.7874015748031497,
          "duration": 1.0504370208333285
        },
        {
          "name": "C6",
          "midi": 84,
          "time": 270.5259099999995,
          "velocity": 0.7874015748031497,
          "duration": 1.0515335104166752
        },
        {
          "name": "F#6",
          "midi": 90,
          "time": 270.5259099999995,
          "velocity": 0.7874015748031497,
          "duration": 1.0504370208333285
        },
        {
          "name": "C7",
          "midi": 96,
          "time": 270.5259099999995,
          "velocity": 0.7874015748031497,
          "duration": 1.0515335104166752
        },
        {
          "name": "F#7",
          "midi": 102,
          "time": 270.5259099999995,
          "velocity": 0.7874015748031497,
          "duration": 1.0504370208333285
        },
        {
          "name": "D4",
          "midi": 62,
          "time": 271.5785399999995,
          "velocity": 0.7874015748031497,
          "duration": 0.06469288541666174
        },
        {
          "name": "F#4",
          "midi": 66,
          "time": 271.5785399999995,
          "velocity": 0.7874015748031497,
          "duration": 0.06469288541666174
        },
        {
          "name": "D5",
          "midi": 74,
          "time": 271.5785399999995,
          "velocity": 0.7874015748031497,
          "duration": 0.06469288541666174
        },
        {
          "name": "F#5",
          "midi": 78,
          "time": 271.5785399999995,
          "velocity": 0.7874015748031497,
          "duration": 0.06469288541666174
        },
        {
          "name": "D#6",
          "midi": 87,
          "time": 271.5785399999995,
          "velocity": 0.7874015748031497,
          "duration": 0.06469288541666174
        },
        {
          "name": "F#6",
          "midi": 90,
          "time": 271.5785399999995,
          "velocity": 0.7874015748031497,
          "duration": 0.06469288541666174
        },
        {
          "name": "D#7",
          "midi": 99,
          "time": 271.5785399999995,
          "velocity": 0.7874015748031497,
          "duration": 0.06469288541666174
        },
        {
          "name": "F#7",
          "midi": 102,
          "time": 271.5785399999995,
          "velocity": 0.7874015748031497,
          "duration": 0.06469288541666174
        },
        {
          "name": "D#7",
          "midi": 99,
          "time": 271.71011874999954,
          "velocity": 0.7874015748031497,
          "duration": 0.06469288541666174
        },
        {
          "name": "F#7",
          "midi": 102,
          "time": 271.71011874999954,
          "velocity": 0.7874015748031497,
          "duration": 0.06469288541666174
        },
        {
          "name": "C#5",
          "midi": 73,
          "time": 271.84169749999955,
          "velocity": 0.7874015748031497,
          "duration": 0.06469288541666174
        },
        {
          "name": "F5",
          "midi": 77,
          "time": 271.84169749999955,
          "velocity": 0.7874015748031497,
          "duration": 0.06469288541666174
        },
        {
          "name": "D6",
          "midi": 86,
          "time": 271.84169749999955,
          "velocity": 0.7874015748031497,
          "duration": 0.06469288541666174
        },
        {
          "name": "F6",
          "midi": 89,
          "time": 271.84169749999955,
          "velocity": 0.7874015748031497,
          "duration": 0.06469288541666174
        },
        {
          "name": "D7",
          "midi": 98,
          "time": 271.84169749999955,
          "velocity": 0.7874015748031497,
          "duration": 0.06469288541666174
        },
        {
          "name": "F7",
          "midi": 101,
          "time": 271.84169749999955,
          "velocity": 0.7874015748031497,
          "duration": 0.06469288541666174
        },
        {
          "name": "D4",
          "midi": 62,
          "time": 271.97327624999957,
          "velocity": 0.7874015748031497,
          "duration": 0.06469288541666174
        },
        {
          "name": "F#4",
          "midi": 66,
          "time": 271.97327624999957,
          "velocity": 0.7874015748031497,
          "duration": 0.06469288541666174
        },
        {
          "name": "D5",
          "midi": 74,
          "time": 271.97327624999957,
          "velocity": 0.7874015748031497,
          "duration": 0.06469288541666174
        },
        {
          "name": "F5",
          "midi": 77,
          "time": 271.97327624999957,
          "velocity": 0.7874015748031497,
          "duration": 0.06469288541666174
        },
        {
          "name": "D#6",
          "midi": 87,
          "time": 271.97327624999957,
          "velocity": 0.7874015748031497,
          "duration": 0.06469288541666174
        },
        {
          "name": "F6",
          "midi": 89,
          "time": 271.97327624999957,
          "velocity": 0.7874015748031497,
          "duration": 0.06469288541666174
        },
        {
          "name": "D#7",
          "midi": 99,
          "time": 271.97327624999957,
          "velocity": 0.7874015748031497,
          "duration": 0.06469288541666174
        },
        {
          "name": "F7",
          "midi": 101,
          "time": 271.97327624999957,
          "velocity": 0.7874015748031497,
          "duration": 0.06469288541666174
        },
        {
          "name": "D7",
          "midi": 98,
          "time": 272.1048549999996,
          "velocity": 0.7874015748031497,
          "duration": 0.06578937500000848
        },
        {
          "name": "F7",
          "midi": 101,
          "time": 272.1048549999996,
          "velocity": 0.7874015748031497,
          "duration": 0.06578937500000848
        },
        {
          "name": "C#4",
          "midi": 61,
          "time": 272.2364337499996,
          "velocity": 0.7874015748031497,
          "duration": 0.06578937500000848
        },
        {
          "name": "F4",
          "midi": 65,
          "time": 272.2364337499996,
          "velocity": 0.7874015748031497,
          "duration": 0.06578937500000848
        },
        {
          "name": "C#5",
          "midi": 73,
          "time": 272.2364337499996,
          "velocity": 0.7874015748031497,
          "duration": 0.06578937500000848
        },
        {
          "name": "F5",
          "midi": 77,
          "time": 272.2364337499996,
          "velocity": 0.7874015748031497,
          "duration": 0.06578937500000848
        },
        {
          "name": "D6",
          "midi": 86,
          "time": 272.2364337499996,
          "velocity": 0.7874015748031497,
          "duration": 0.06578937500000848
        },
        {
          "name": "F6",
          "midi": 89,
          "time": 272.2364337499996,
          "velocity": 0.7874015748031497,
          "duration": 0.06578937500000848
        },
        {
          "name": "C#7",
          "midi": 97,
          "time": 272.2364337499996,
          "velocity": 0.7874015748031497,
          "duration": 0.06578937500000848
        },
        {
          "name": "F7",
          "midi": 101,
          "time": 272.2364337499996,
          "velocity": 0.7874015748031497,
          "duration": 0.06578937500000848
        },
        {
          "name": "C#6",
          "midi": 85,
          "time": 272.3680124999996,
          "velocity": 0.7874015748031497,
          "duration": 0.06578937500000848
        },
        {
          "name": "F6",
          "midi": 89,
          "time": 272.3680124999996,
          "velocity": 0.7874015748031497,
          "duration": 0.06578937500000848
        },
        {
          "name": "D7",
          "midi": 98,
          "time": 272.3680124999996,
          "velocity": 0.7874015748031497,
          "duration": 0.06578937500000848
        },
        {
          "name": "F7",
          "midi": 101,
          "time": 272.3680124999996,
          "velocity": 0.7874015748031497,
          "duration": 0.06578937500000848
        },
        {
          "name": "D7",
          "midi": 98,
          "time": 272.49959124999964,
          "velocity": 0.7874015748031497,
          "duration": 0.06578937500000848
        },
        {
          "name": "F#7",
          "midi": 102,
          "time": 272.49959124999964,
          "velocity": 0.7874015748031497,
          "duration": 0.06578937500000848
        },
        {
          "name": "C#4",
          "midi": 61,
          "time": 272.63116999999966,
          "velocity": 0.7874015748031497,
          "duration": 0.3925432708333574
        },
        {
          "name": "F#4",
          "midi": 66,
          "time": 272.63116999999966,
          "velocity": 0.7874015748031497,
          "duration": 0.3925432708333574
        },
        {
          "name": "C#5",
          "midi": 73,
          "time": 272.63116999999966,
          "velocity": 0.7874015748031497,
          "duration": 0.3925432708333574
        },
        {
          "name": "F#5",
          "midi": 78,
          "time": 272.63116999999966,
          "velocity": 0.7874015748031497,
          "duration": 0.3925432708333574
        },
        {
          "name": "C#6",
          "midi": 85,
          "time": 272.63116999999966,
          "velocity": 0.7874015748031497,
          "duration": 0.3925432708333574
        },
        {
          "name": "F#6",
          "midi": 90,
          "time": 272.63116999999966,
          "velocity": 0.7874015748031497,
          "duration": 0.3925432708333574
        },
        {
          "name": "C#7",
          "midi": 97,
          "time": 272.63116999999966,
          "velocity": 0.7874015748031497,
          "duration": 0.3925432708333574
        },
        {
          "name": "F7",
          "midi": 101,
          "time": 272.63116999999966,
          "velocity": 0.7874015748031497,
          "duration": 0.3925432708333574
        },
        {
          "name": "D4",
          "midi": 62,
          "time": 273.0259062499997,
          "velocity": 0.7874015748031497,
          "duration": 0.39144678125001064
        },
        {
          "name": "F#4",
          "midi": 66,
          "time": 273.0259062499997,
          "velocity": 0.7874015748031497,
          "duration": 0.39144678125001064
        },
        {
          "name": "D5",
          "midi": 74,
          "time": 273.0259062499997,
          "velocity": 0.7874015748031497,
          "duration": 0.39144678125001064
        },
        {
          "name": "F#5",
          "midi": 78,
          "time": 273.0259062499997,
          "velocity": 0.7874015748031497,
          "duration": 0.39144678125001064
        },
        {
          "name": "D6",
          "midi": 86,
          "time": 273.0259062499997,
          "velocity": 0.7874015748031497,
          "duration": 0.39144678125001064
        },
        {
          "name": "F#6",
          "midi": 90,
          "time": 273.0259062499997,
          "velocity": 0.7874015748031497,
          "duration": 0.39144678125001064
        },
        {
          "name": "D7",
          "midi": 98,
          "time": 273.0259062499997,
          "velocity": 0.7874015748031497,
          "duration": 0.39144678125001064
        },
        {
          "name": "F#7",
          "midi": 102,
          "time": 273.0259062499997,
          "velocity": 0.7874015748031497,
          "duration": 0.39144678125001064
        },
        {
          "name": "C4",
          "midi": 60,
          "time": 273.42173898958305,
          "velocity": 0.7874015748031497,
          "duration": 0.06469288541666174
        },
        {
          "name": "F#4",
          "midi": 66,
          "time": 273.42173898958305,
          "velocity": 0.7874015748031497,
          "duration": 0.06469288541666174
        },
        {
          "name": "C5",
          "midi": 72,
          "time": 273.42173898958305,
          "velocity": 0.7874015748031497,
          "duration": 0.06469288541666174
        },
        {
          "name": "F#5",
          "midi": 78,
          "time": 273.42173898958305,
          "velocity": 0.7874015748031497,
          "duration": 0.06469288541666174
        },
        {
          "name": "C6",
          "midi": 84,
          "time": 273.42173898958305,
          "velocity": 0.7874015748031497,
          "duration": 0.06469288541666174
        },
        {
          "name": "F#6",
          "midi": 90,
          "time": 273.42173898958305,
          "velocity": 0.7874015748031497,
          "duration": 0.06469288541666174
        },
        {
          "name": "C7",
          "midi": 96,
          "time": 273.42173898958305,
          "velocity": 0.7874015748031497,
          "duration": 0.06469288541666174
        },
        {
          "name": "F#7",
          "midi": 102,
          "time": 273.42173898958305,
          "velocity": 0.7874015748031497,
          "duration": 0.06469288541666174
        },
        {
          "name": "D4",
          "midi": 62,
          "time": 273.68379999999974,
          "velocity": 0.7874015748031497,
          "duration": 0.06578937500000848
        },
        {
          "name": "F#4",
          "midi": 66,
          "time": 273.68379999999974,
          "velocity": 0.7874015748031497,
          "duration": 0.06578937500000848
        },
        {
          "name": "D#5",
          "midi": 75,
          "time": 273.68379999999974,
          "velocity": 0.7874015748031497,
          "duration": 0.06578937500000848
        },
        {
          "name": "F#5",
          "midi": 78,
          "time": 273.68379999999974,
          "velocity": 0.7874015748031497,
          "duration": 0.06578937500000848
        },
        {
          "name": "E6",
          "midi": 88,
          "time": 273.68379999999974,
          "velocity": 0.7874015748031497,
          "duration": 0.06578937500000848
        },
        {
          "name": "F#6",
          "midi": 90,
          "time": 273.68379999999974,
          "velocity": 0.7874015748031497,
          "duration": 0.06578937500000848
        },
        {
          "name": "E7",
          "midi": 100,
          "time": 273.68379999999974,
          "velocity": 0.7874015748031497,
          "duration": 0.06578937500000848
        },
        {
          "name": "F#7",
          "midi": 102,
          "time": 273.68379999999974,
          "velocity": 0.7874015748031497,
          "duration": 0.06578937500000848
        },
        {
          "name": "E7",
          "midi": 100,
          "time": 273.81537874999975,
          "velocity": 0.7874015748031497,
          "duration": 0.06578937500000848
        },
        {
          "name": "F#7",
          "midi": 102,
          "time": 273.81537874999975,
          "velocity": 0.7874015748031497,
          "duration": 0.06578937500000848
        },
        {
          "name": "D5",
          "midi": 74,
          "time": 273.9480539895831,
          "velocity": 0.7874015748031497,
          "duration": 0.06469288541666174
        },
        {
          "name": "F5",
          "midi": 77,
          "time": 273.9480539895831,
          "velocity": 0.7874015748031497,
          "duration": 0.06469288541666174
        },
        {
          "name": "D#6",
          "midi": 87,
          "time": 273.9480539895831,
          "velocity": 0.7874015748031497,
          "duration": 0.06469288541666174
        },
        {
          "name": "F6",
          "midi": 89,
          "time": 273.9480539895831,
          "velocity": 0.7874015748031497,
          "duration": 0.06469288541666174
        },
        {
          "name": "D#7",
          "midi": 99,
          "time": 273.9480539895831,
          "velocity": 0.7874015748031497,
          "duration": 0.06469288541666174
        },
        {
          "name": "F7",
          "midi": 101,
          "time": 273.9480539895831,
          "velocity": 0.7874015748031497,
          "duration": 0.06469288541666174
        },
        {
          "name": "D4",
          "midi": 62,
          "time": 274.0785362499998,
          "velocity": 0.7874015748031497,
          "duration": 0.06469288541666174
        },
        {
          "name": "F#4",
          "midi": 66,
          "time": 274.0785362499998,
          "velocity": 0.7874015748031497,
          "duration": 0.06469288541666174
        },
        {
          "name": "D#5",
          "midi": 75,
          "time": 274.0785362499998,
          "velocity": 0.7874015748031497,
          "duration": 0.06469288541666174
        },
        {
          "name": "F5",
          "midi": 77,
          "time": 274.0785362499998,
          "velocity": 0.7874015748031497,
          "duration": 0.06469288541666174
        },
        {
          "name": "E6",
          "midi": 88,
          "time": 274.0785362499998,
          "velocity": 0.7874015748031497,
          "duration": 0.06469288541666174
        },
        {
          "name": "F6",
          "midi": 89,
          "time": 274.0785362499998,
          "velocity": 0.7874015748031497,
          "duration": 0.06469288541666174
        },
        {
          "name": "E7",
          "midi": 100,
          "time": 274.0785362499998,
          "velocity": 0.7874015748031497,
          "duration": 0.06469288541666174
        },
        {
          "name": "F7",
          "midi": 101,
          "time": 274.0785362499998,
          "velocity": 0.7874015748031497,
          "duration": 0.06469288541666174
        },
        {
          "name": "D#7",
          "midi": 99,
          "time": 274.2101149999998,
          "velocity": 0.7874015748031497,
          "duration": 0.06469288541666174
        },
        {
          "name": "F7",
          "midi": 101,
          "time": 274.2101149999998,
          "velocity": 0.7874015748031497,
          "duration": 0.06469288541666174
        },
        {
          "name": "C#4",
          "midi": 61,
          "time": 274.3416937499998,
          "velocity": 0.7874015748031497,
          "duration": 0.06469288541666174
        },
        {
          "name": "F4",
          "midi": 65,
          "time": 274.3416937499998,
          "velocity": 0.7874015748031497,
          "duration": 0.06469288541666174
        },
        {
          "name": "D5",
          "midi": 74,
          "time": 274.3416937499998,
          "velocity": 0.7874015748031497,
          "duration": 0.06469288541666174
        },
        {
          "name": "F5",
          "midi": 77,
          "time": 274.3416937499998,
          "velocity": 0.7874015748031497,
          "duration": 0.06469288541666174
        },
        {
          "name": "D#6",
          "midi": 87,
          "time": 274.3416937499998,
          "velocity": 0.7874015748031497,
          "duration": 0.06469288541666174
        },
        {
          "name": "F6",
          "midi": 89,
          "time": 274.3416937499998,
          "velocity": 0.7874015748031497,
          "duration": 0.06469288541666174
        },
        {
          "name": "D7",
          "midi": 98,
          "time": 274.3416937499998,
          "velocity": 0.7874015748031497,
          "duration": 0.06469288541666174
        },
        {
          "name": "F7",
          "midi": 101,
          "time": 274.3416937499998,
          "velocity": 0.7874015748031497,
          "duration": 0.06469288541666174
        },
        {
          "name": "D6",
          "midi": 86,
          "time": 274.47327249999984,
          "velocity": 0.7874015748031497,
          "duration": 0.06469288541666174
        },
        {
          "name": "F6",
          "midi": 89,
          "time": 274.47327249999984,
          "velocity": 0.7874015748031497,
          "duration": 0.06469288541666174
        },
        {
          "name": "D7",
          "midi": 98,
          "time": 274.47327249999984,
          "velocity": 0.7874015748031497,
          "duration": 0.06469288541666174
        },
        {
          "name": "F#7",
          "midi": 102,
          "time": 274.47327249999984,
          "velocity": 0.7874015748031497,
          "duration": 0.06469288541666174
        },
        {
          "name": "C4",
          "midi": 60,
          "time": 274.7364299999998,
          "velocity": 0.7874015748031497,
          "duration": 1.0515335104166752
        },
        {
          "name": "F#4",
          "midi": 66,
          "time": 274.7364299999998,
          "velocity": 0.7874015748031497,
          "duration": 1.0504370208333285
        },
        {
          "name": "C#5",
          "midi": 73,
          "time": 274.7364299999998,
          "velocity": 0.7874015748031497,
          "duration": 1.0515335104166752
        },
        {
          "name": "F#5",
          "midi": 78,
          "time": 274.7364299999998,
          "velocity": 0.7874015748031497,
          "duration": 1.0504370208333285
        },
        {
          "name": "C#6",
          "midi": 85,
          "time": 274.7364299999998,
          "velocity": 0.7874015748031497,
          "duration": 1.0515335104166752
        },
        {
          "name": "F#6",
          "midi": 90,
          "time": 274.7364299999998,
          "velocity": 0.7874015748031497,
          "duration": 1.0504370208333285
        },
        {
          "name": "C#7",
          "midi": 97,
          "time": 274.7364299999998,
          "velocity": 0.7874015748031497,
          "duration": 1.0515335104166752
        },
        {
          "name": "F#7",
          "midi": 102,
          "time": 274.7364299999998,
          "velocity": 0.7874015748031497,
          "duration": 1.0504370208333285
        },
        {
          "name": "D4",
          "midi": 62,
          "time": 275.78905999999984,
          "velocity": 0.7874015748031497,
          "duration": 0.06469288541666174
        },
        {
          "name": "F#4",
          "midi": 66,
          "time": 275.78905999999984,
          "velocity": 0.7874015748031497,
          "duration": 0.06469288541666174
        },
        {
          "name": "D#5",
          "midi": 75,
          "time": 275.78905999999984,
          "velocity": 0.7874015748031497,
          "duration": 0.06469288541666174
        },
        {
          "name": "F#5",
          "midi": 78,
          "time": 275.78905999999984,
          "velocity": 0.7874015748031497,
          "duration": 0.06469288541666174
        },
        {
          "name": "E6",
          "midi": 88,
          "time": 275.78905999999984,
          "velocity": 0.7874015748031497,
          "duration": 0.06469288541666174
        },
        {
          "name": "F#6",
          "midi": 90,
          "time": 275.78905999999984,
          "velocity": 0.7874015748031497,
          "duration": 0.06469288541666174
        },
        {
          "name": "E7",
          "midi": 100,
          "time": 275.78905999999984,
          "velocity": 0.7874015748031497,
          "duration": 0.06469288541666174
        },
        {
          "name": "F#7",
          "midi": 102,
          "time": 275.78905999999984,
          "velocity": 0.7874015748031497,
          "duration": 0.06469288541666174
        },
        {
          "name": "E7",
          "midi": 100,
          "time": 275.92063874999985,
          "velocity": 0.7874015748031497,
          "duration": 0.06469288541666174
        },
        {
          "name": "F#7",
          "midi": 102,
          "time": 275.92063874999985,
          "velocity": 0.7874015748031497,
          "duration": 0.06469288541666174
        },
        {
          "name": "D5",
          "midi": 74,
          "time": 276.0511210104165,
          "velocity": 0.7874015748031497,
          "duration": 0.06578937500000848
        },
        {
          "name": "F5",
          "midi": 77,
          "time": 276.0511210104165,
          "velocity": 0.7874015748031497,
          "duration": 0.06578937500000848
        },
        {
          "name": "D#6",
          "midi": 87,
          "time": 276.0511210104165,
          "velocity": 0.7874015748031497,
          "duration": 0.06578937500000848
        },
        {
          "name": "F6",
          "midi": 89,
          "time": 276.0511210104165,
          "velocity": 0.7874015748031497,
          "duration": 0.06578937500000848
        },
        {
          "name": "D#7",
          "midi": 99,
          "time": 276.0511210104165,
          "velocity": 0.7874015748031497,
          "duration": 0.06578937500000848
        },
        {
          "name": "F7",
          "midi": 101,
          "time": 276.0511210104165,
          "velocity": 0.7874015748031497,
          "duration": 0.06578937500000848
        },
        {
          "name": "D4",
          "midi": 62,
          "time": 276.18269976041654,
          "velocity": 0.7874015748031497,
          "duration": 0.06469288541666174
        },
        {
          "name": "F#4",
          "midi": 66,
          "time": 276.18269976041654,
          "velocity": 0.7874015748031497,
          "duration": 0.06469288541666174
        },
        {
          "name": "D#5",
          "midi": 75,
          "time": 276.18269976041654,
          "velocity": 0.7874015748031497,
          "duration": 0.06469288541666174
        },
        {
          "name": "F5",
          "midi": 77,
          "time": 276.18269976041654,
          "velocity": 0.7874015748031497,
          "duration": 0.06469288541666174
        },
        {
          "name": "E6",
          "midi": 88,
          "time": 276.18269976041654,
          "velocity": 0.7874015748031497,
          "duration": 0.06469288541666174
        },
        {
          "name": "F6",
          "midi": 89,
          "time": 276.18269976041654,
          "velocity": 0.7874015748031497,
          "duration": 0.06469288541666174
        },
        {
          "name": "E7",
          "midi": 100,
          "time": 276.18269976041654,
          "velocity": 0.7874015748031497,
          "duration": 0.06469288541666174
        },
        {
          "name": "F7",
          "midi": 101,
          "time": 276.18269976041654,
          "velocity": 0.7874015748031497,
          "duration": 0.06469288541666174
        },
        {
          "name": "D#7",
          "midi": 99,
          "time": 276.31537499999985,
          "velocity": 0.7874015748031497,
          "duration": 0.06578937500000848
        },
        {
          "name": "F7",
          "midi": 101,
          "time": 276.31537499999985,
          "velocity": 0.7874015748031497,
          "duration": 0.06578937500000848
        },
        {
          "name": "C#4",
          "midi": 61,
          "time": 276.44695374999986,
          "velocity": 0.7874015748031497,
          "duration": 0.06578937500000848
        },
        {
          "name": "F4",
          "midi": 65,
          "time": 276.44695374999986,
          "velocity": 0.7874015748031497,
          "duration": 0.06578937500000848
        },
        {
          "name": "D5",
          "midi": 74,
          "time": 276.44695374999986,
          "velocity": 0.7874015748031497,
          "duration": 0.06578937500000848
        },
        {
          "name": "F5",
          "midi": 77,
          "time": 276.44695374999986,
          "velocity": 0.7874015748031497,
          "duration": 0.06578937500000848
        },
        {
          "name": "D#6",
          "midi": 87,
          "time": 276.44695374999986,
          "velocity": 0.7874015748031497,
          "duration": 0.06578937500000848
        },
        {
          "name": "F6",
          "midi": 89,
          "time": 276.44695374999986,
          "velocity": 0.7874015748031497,
          "duration": 0.06578937500000848
        },
        {
          "name": "D7",
          "midi": 98,
          "time": 276.44695374999986,
          "velocity": 0.7874015748031497,
          "duration": 0.06578937500000848
        },
        {
          "name": "F7",
          "midi": 101,
          "time": 276.44695374999986,
          "velocity": 0.7874015748031497,
          "duration": 0.06578937500000848
        },
        {
          "name": "D6",
          "midi": 86,
          "time": 276.5785324999999,
          "velocity": 0.7874015748031497,
          "duration": 0.06578937500000848
        },
        {
          "name": "F6",
          "midi": 89,
          "time": 276.5785324999999,
          "velocity": 0.7874015748031497,
          "duration": 0.06578937500000848
        },
        {
          "name": "D#7",
          "midi": 99,
          "time": 276.5785324999999,
          "velocity": 0.7874015748031497,
          "duration": 0.06578937500000848
        },
        {
          "name": "F7",
          "midi": 101,
          "time": 276.5785324999999,
          "velocity": 0.7874015748031497,
          "duration": 0.06578937500000848
        },
        {
          "name": "D#7",
          "midi": 99,
          "time": 276.7101112499999,
          "velocity": 0.7874015748031497,
          "duration": 0.06578937500000848
        },
        {
          "name": "F#7",
          "midi": 102,
          "time": 276.7101112499999,
          "velocity": 0.7874015748031497,
          "duration": 0.06578937500000848
        },
        {
          "name": "C#4",
          "midi": 61,
          "time": 276.8416899999999,
          "velocity": 0.7874015748031497,
          "duration": 0.3925432708333574
        },
        {
          "name": "F#4",
          "midi": 66,
          "time": 276.8416899999999,
          "velocity": 0.7874015748031497,
          "duration": 0.3925432708333574
        },
        {
          "name": "D5",
          "midi": 74,
          "time": 276.8416899999999,
          "velocity": 0.7874015748031497,
          "duration": 0.3925432708333574
        },
        {
          "name": "F#5",
          "midi": 78,
          "time": 276.8416899999999,
          "velocity": 0.7874015748031497,
          "duration": 0.3925432708333574
        },
        {
          "name": "D6",
          "midi": 86,
          "time": 276.8416899999999,
          "velocity": 0.7874015748031497,
          "duration": 0.3925432708333574
        },
        {
          "name": "F#6",
          "midi": 90,
          "time": 276.8416899999999,
          "velocity": 0.7874015748031497,
          "duration": 0.3925432708333574
        },
        {
          "name": "D7",
          "midi": 98,
          "time": 276.8416899999999,
          "velocity": 0.7874015748031497,
          "duration": 0.3925432708333574
        },
        {
          "name": "F7",
          "midi": 101,
          "time": 276.8416899999999,
          "velocity": 0.7874015748031497,
          "duration": 0.3925432708333574
        },
        {
          "name": "D4",
          "midi": 62,
          "time": 277.23642624999997,
          "velocity": 0.7874015748031497,
          "duration": 0.3925432708333574
        },
        {
          "name": "F#4",
          "midi": 66,
          "time": 277.23642624999997,
          "velocity": 0.7874015748031497,
          "duration": 0.3925432708333574
        },
        {
          "name": "D#5",
          "midi": 75,
          "time": 277.23642624999997,
          "velocity": 0.7874015748031497,
          "duration": 0.3925432708333574
        },
        {
          "name": "F#5",
          "midi": 78,
          "time": 277.23642624999997,
          "velocity": 0.7874015748031497,
          "duration": 0.3925432708333574
        },
        {
          "name": "D#6",
          "midi": 87,
          "time": 277.23642624999997,
          "velocity": 0.7874015748031497,
          "duration": 0.3925432708333574
        },
        {
          "name": "F#6",
          "midi": 90,
          "time": 277.23642624999997,
          "velocity": 0.7874015748031497,
          "duration": 0.3925432708333574
        },
        {
          "name": "D#7",
          "midi": 99,
          "time": 277.23642624999997,
          "velocity": 0.7874015748031497,
          "duration": 0.3925432708333574
        },
        {
          "name": "F#7",
          "midi": 102,
          "time": 277.23642624999997,
          "velocity": 0.7874015748031497,
          "duration": 0.3925432708333574
        },
        {
          "name": "C4",
          "midi": 60,
          "time": 277.6311625,
          "velocity": 0.7874015748031497,
          "duration": 0.06578937500000848
        },
        {
          "name": "F#4",
          "midi": 66,
          "time": 277.6311625,
          "velocity": 0.7874015748031497,
          "duration": 0.06578937500000848
        },
        {
          "name": "C#5",
          "midi": 73,
          "time": 277.6311625,
          "velocity": 0.7874015748031497,
          "duration": 0.06578937500000848
        },
        {
          "name": "F#5",
          "midi": 78,
          "time": 277.6311625,
          "velocity": 0.7874015748031497,
          "duration": 0.06578937500000848
        },
        {
          "name": "C#6",
          "midi": 85,
          "time": 277.6311625,
          "velocity": 0.7874015748031497,
          "duration": 0.06578937500000848
        },
        {
          "name": "F#6",
          "midi": 90,
          "time": 277.6311625,
          "velocity": 0.7874015748031497,
          "duration": 0.06578937500000848
        },
        {
          "name": "C#7",
          "midi": 97,
          "time": 277.6311625,
          "velocity": 0.7874015748031497,
          "duration": 0.06578937500000848
        },
        {
          "name": "F#7",
          "midi": 102,
          "time": 277.6311625,
          "velocity": 0.7874015748031497,
          "duration": 0.06578937500000848
        },
        {
          "name": "D4",
          "midi": 62,
          "time": 277.89432000000005,
          "velocity": 0.7874015748031497,
          "duration": 0.06469288541666174
        },
        {
          "name": "F#4",
          "midi": 66,
          "time": 277.89432000000005,
          "velocity": 0.7874015748031497,
          "duration": 0.06469288541666174
        },
        {
          "name": "D#5",
          "midi": 75,
          "time": 277.89432000000005,
          "velocity": 0.7874015748031497,
          "duration": 0.06469288541666174
        },
        {
          "name": "F#5",
          "midi": 78,
          "time": 277.89432000000005,
          "velocity": 0.7874015748031497,
          "duration": 0.06469288541666174
        },
        {
          "name": "E6",
          "midi": 88,
          "time": 277.89432000000005,
          "velocity": 0.7874015748031497,
          "duration": 0.06469288541666174
        },
        {
          "name": "F#6",
          "midi": 90,
          "time": 277.89432000000005,
          "velocity": 0.7874015748031497,
          "duration": 0.06469288541666174
        },
        {
          "name": "E7",
          "midi": 100,
          "time": 277.89432000000005,
          "velocity": 0.7874015748031497,
          "duration": 0.06469288541666174
        },
        {
          "name": "F#7",
          "midi": 102,
          "time": 277.89432000000005,
          "velocity": 0.7874015748031497,
          "duration": 0.06469288541666174
        },
        {
          "name": "E7",
          "midi": 100,
          "time": 278.02699523958336,
          "velocity": 0.7874015748031497,
          "duration": 0.06469288541666174
        },
        {
          "name": "F#7",
          "midi": 102,
          "time": 278.02699523958336,
          "velocity": 0.7874015748031497,
          "duration": 0.06469288541666174
        },
        {
          "name": "D5",
          "midi": 74,
          "time": 278.1585739895834,
          "velocity": 0.7874015748031497,
          "duration": 0.06469288541666174
        },
        {
          "name": "F5",
          "midi": 77,
          "time": 278.1585739895834,
          "velocity": 0.7874015748031497,
          "duration": 0.06469288541666174
        },
        {
          "name": "D#6",
          "midi": 87,
          "time": 278.1585739895834,
          "velocity": 0.7874015748031497,
          "duration": 0.06469288541666174
        },
        {
          "name": "F6",
          "midi": 89,
          "time": 278.1585739895834,
          "velocity": 0.7874015748031497,
          "duration": 0.06469288541666174
        },
        {
          "name": "D#7",
          "midi": 99,
          "time": 278.1585739895834,
          "velocity": 0.7874015748031497,
          "duration": 0.06469288541666174
        },
        {
          "name": "F7",
          "midi": 101,
          "time": 278.1585739895834,
          "velocity": 0.7874015748031497,
          "duration": 0.06469288541666174
        },
        {
          "name": "D4",
          "midi": 62,
          "time": 278.28905625000004,
          "velocity": 0.7874015748031497,
          "duration": 0.06578937500000848
        },
        {
          "name": "F#4",
          "midi": 66,
          "time": 278.28905625000004,
          "velocity": 0.7874015748031497,
          "duration": 0.06578937500000848
        },
        {
          "name": "D#5",
          "midi": 75,
          "time": 278.28905625000004,
          "velocity": 0.7874015748031497,
          "duration": 0.06578937500000848
        },
        {
          "name": "F5",
          "midi": 77,
          "time": 278.28905625000004,
          "velocity": 0.7874015748031497,
          "duration": 0.06578937500000848
        },
        {
          "name": "E6",
          "midi": 88,
          "time": 278.28905625000004,
          "velocity": 0.7874015748031497,
          "duration": 0.06578937500000848
        },
        {
          "name": "F6",
          "midi": 89,
          "time": 278.28905625000004,
          "velocity": 0.7874015748031497,
          "duration": 0.06578937500000848
        },
        {
          "name": "E7",
          "midi": 100,
          "time": 278.28905625000004,
          "velocity": 0.7874015748031497,
          "duration": 0.06578937500000848
        },
        {
          "name": "F7",
          "midi": 101,
          "time": 278.28905625000004,
          "velocity": 0.7874015748031497,
          "duration": 0.06578937500000848
        },
        {
          "name": "D#7",
          "midi": 99,
          "time": 278.42063500000006,
          "velocity": 0.7874015748031497,
          "duration": 0.06469288541666174
        },
        {
          "name": "F7",
          "midi": 101,
          "time": 278.42063500000006,
          "velocity": 0.7874015748031497,
          "duration": 0.06469288541666174
        },
        {
          "name": "C#4",
          "midi": 61,
          "time": 278.5522137500001,
          "velocity": 0.7874015748031497,
          "duration": 0.06469288541666174
        },
        {
          "name": "F4",
          "midi": 65,
          "time": 278.5522137500001,
          "velocity": 0.7874015748031497,
          "duration": 0.06469288541666174
        },
        {
          "name": "D5",
          "midi": 74,
          "time": 278.5522137500001,
          "velocity": 0.7874015748031497,
          "duration": 0.06469288541666174
        },
        {
          "name": "F5",
          "midi": 77,
          "time": 278.5522137500001,
          "velocity": 0.7874015748031497,
          "duration": 0.06469288541666174
        },
        {
          "name": "D#6",
          "midi": 87,
          "time": 278.5522137500001,
          "velocity": 0.7874015748031497,
          "duration": 0.06469288541666174
        },
        {
          "name": "F6",
          "midi": 89,
          "time": 278.5522137500001,
          "velocity": 0.7874015748031497,
          "duration": 0.06469288541666174
        },
        {
          "name": "D7",
          "midi": 98,
          "time": 278.5522137500001,
          "velocity": 0.7874015748031497,
          "duration": 0.06469288541666174
        },
        {
          "name": "F7",
          "midi": 101,
          "time": 278.5522137500001,
          "velocity": 0.7874015748031497,
          "duration": 0.06469288541666174
        },
        {
          "name": "D6",
          "midi": 86,
          "time": 278.6848889895834,
          "velocity": 0.7874015748031497,
          "duration": 0.06469288541666174
        },
        {
          "name": "F6",
          "midi": 89,
          "time": 278.6848889895834,
          "velocity": 0.7874015748031497,
          "duration": 0.06469288541666174
        },
        {
          "name": "D7",
          "midi": 98,
          "time": 278.6848889895834,
          "velocity": 0.7874015748031497,
          "duration": 0.06469288541666174
        },
        {
          "name": "F#7",
          "midi": 102,
          "time": 278.6848889895834,
          "velocity": 0.7874015748031497,
          "duration": 0.06469288541666174
        },
        {
          "name": "C4",
          "midi": 60,
          "time": 278.9469500000001,
          "velocity": 0.7874015748031497,
          "duration": 1.0515335104166752
        },
        {
          "name": "F#4",
          "midi": 66,
          "time": 278.9469500000001,
          "velocity": 0.7874015748031497,
          "duration": 1.0504370208333285
        },
        {
          "name": "C#5",
          "midi": 73,
          "time": 278.9469500000001,
          "velocity": 0.7874015748031497,
          "duration": 1.0515335104166752
        },
        {
          "name": "F#5",
          "midi": 78,
          "time": 278.9469500000001,
          "velocity": 0.7874015748031497,
          "duration": 1.0504370208333285
        },
        {
          "name": "C#6",
          "midi": 85,
          "time": 278.9469500000001,
          "velocity": 0.7874015748031497,
          "duration": 1.0515335104166752
        },
        {
          "name": "F#6",
          "midi": 90,
          "time": 278.9469500000001,
          "velocity": 0.7874015748031497,
          "duration": 1.0504370208333285
        },
        {
          "name": "C#7",
          "midi": 97,
          "time": 278.9469500000001,
          "velocity": 0.7874015748031497,
          "duration": 1.0515335104166752
        },
        {
          "name": "F#7",
          "midi": 102,
          "time": 278.9469500000001,
          "velocity": 0.7874015748031497,
          "duration": 1.0504370208333285
        },
        {
          "name": "D4",
          "midi": 62,
          "time": 279.9995800000001,
          "velocity": 0.7874015748031497,
          "duration": 0.06578937500000848
        },
        {
          "name": "F#4",
          "midi": 66,
          "time": 279.9995800000001,
          "velocity": 0.7874015748031497,
          "duration": 0.06578937500000848
        },
        {
          "name": "D#5",
          "midi": 75,
          "time": 279.9995800000001,
          "velocity": 0.7874015748031497,
          "duration": 0.06578937500000848
        },
        {
          "name": "F#5",
          "midi": 78,
          "time": 279.9995800000001,
          "velocity": 0.7874015748031497,
          "duration": 0.06578937500000848
        },
        {
          "name": "E6",
          "midi": 88,
          "time": 279.9995800000001,
          "velocity": 0.7874015748031497,
          "duration": 0.06578937500000848
        },
        {
          "name": "F#6",
          "midi": 90,
          "time": 279.9995800000001,
          "velocity": 0.7874015748031497,
          "duration": 0.06578937500000848
        },
        {
          "name": "E7",
          "midi": 100,
          "time": 279.9995800000001,
          "velocity": 0.7874015748031497,
          "duration": 0.06578937500000848
        },
        {
          "name": "F#7",
          "midi": 102,
          "time": 279.9995800000001,
          "velocity": 0.7874015748031497,
          "duration": 0.06578937500000848
        },
        {
          "name": "E7",
          "midi": 100,
          "time": 280.1311587500001,
          "velocity": 0.7874015748031497,
          "duration": 0.06578937500000848
        },
        {
          "name": "F#7",
          "midi": 102,
          "time": 280.1311587500001,
          "velocity": 0.7874015748031497,
          "duration": 0.06578937500000848
        },
        {
          "name": "D5",
          "midi": 74,
          "time": 280.2638339895835,
          "velocity": 0.7874015748031497,
          "duration": 0.06469288541666174
        },
        {
          "name": "F5",
          "midi": 77,
          "time": 280.2638339895835,
          "velocity": 0.7874015748031497,
          "duration": 0.06469288541666174
        },
        {
          "name": "D#6",
          "midi": 87,
          "time": 280.2638339895835,
          "velocity": 0.7874015748031497,
          "duration": 0.06469288541666174
        },
        {
          "name": "F6",
          "midi": 89,
          "time": 280.2638339895835,
          "velocity": 0.7874015748031497,
          "duration": 0.06469288541666174
        },
        {
          "name": "D#7",
          "midi": 99,
          "time": 280.2638339895835,
          "velocity": 0.7874015748031497,
          "duration": 0.06469288541666174
        },
        {
          "name": "F7",
          "midi": 101,
          "time": 280.2638339895835,
          "velocity": 0.7874015748031497,
          "duration": 0.06469288541666174
        },
        {
          "name": "D4",
          "midi": 62,
          "time": 280.39431625000014,
          "velocity": 0.7874015748031497,
          "duration": 0.06469288541666174
        },
        {
          "name": "F#4",
          "midi": 66,
          "time": 280.39431625000014,
          "velocity": 0.7874015748031497,
          "duration": 0.06469288541666174
        },
        {
          "name": "D#5",
          "midi": 75,
          "time": 280.39431625000014,
          "velocity": 0.7874015748031497,
          "duration": 0.06469288541666174
        },
        {
          "name": "F5",
          "midi": 77,
          "time": 280.39431625000014,
          "velocity": 0.7874015748031497,
          "duration": 0.06469288541666174
        },
        {
          "name": "E6",
          "midi": 88,
          "time": 280.39431625000014,
          "velocity": 0.7874015748031497,
          "duration": 0.06469288541666174
        },
        {
          "name": "F6",
          "midi": 89,
          "time": 280.39431625000014,
          "velocity": 0.7874015748031497,
          "duration": 0.06469288541666174
        },
        {
          "name": "E7",
          "midi": 100,
          "time": 280.39431625000014,
          "velocity": 0.7874015748031497,
          "duration": 0.06469288541666174
        },
        {
          "name": "F7",
          "midi": 101,
          "time": 280.39431625000014,
          "velocity": 0.7874015748031497,
          "duration": 0.06469288541666174
        },
        {
          "name": "D#7",
          "midi": 99,
          "time": 280.52589500000016,
          "velocity": 0.7874015748031497,
          "duration": 0.06578937500000848
        },
        {
          "name": "F7",
          "midi": 101,
          "time": 280.52589500000016,
          "velocity": 0.7874015748031497,
          "duration": 0.06578937500000848
        },
        {
          "name": "C#4",
          "midi": 61,
          "time": 280.65637726041683,
          "velocity": 0.7874015748031497,
          "duration": 0.06578937500000848
        },
        {
          "name": "F4",
          "midi": 65,
          "time": 280.65637726041683,
          "velocity": 0.7874015748031497,
          "duration": 0.06578937500000848
        },
        {
          "name": "D5",
          "midi": 74,
          "time": 280.65637726041683,
          "velocity": 0.7874015748031497,
          "duration": 0.06578937500000848
        },
        {
          "name": "F5",
          "midi": 77,
          "time": 280.65637726041683,
          "velocity": 0.7874015748031497,
          "duration": 0.06578937500000848
        },
        {
          "name": "D#6",
          "midi": 87,
          "time": 280.65637726041683,
          "velocity": 0.7874015748031497,
          "duration": 0.06578937500000848
        },
        {
          "name": "F6",
          "midi": 89,
          "time": 280.65637726041683,
          "velocity": 0.7874015748031497,
          "duration": 0.06578937500000848
        },
        {
          "name": "D7",
          "midi": 98,
          "time": 280.65637726041683,
          "velocity": 0.7874015748031497,
          "duration": 0.06578937500000848
        },
        {
          "name": "F7",
          "midi": 101,
          "time": 280.65637726041683,
          "velocity": 0.7874015748031497,
          "duration": 0.06578937500000848
        },
        {
          "name": "D6",
          "midi": 86,
          "time": 280.7890525000002,
          "velocity": 0.7874015748031497,
          "duration": 0.06578937500000848
        },
        {
          "name": "F6",
          "midi": 89,
          "time": 280.7890525000002,
          "velocity": 0.7874015748031497,
          "duration": 0.06578937500000848
        },
        {
          "name": "C#7",
          "midi": 97,
          "time": 280.7890525000002,
          "velocity": 0.7874015748031497,
          "duration": 0.06578937500000848
        },
        {
          "name": "F7",
          "midi": 101,
          "time": 280.7890525000002,
          "velocity": 0.7874015748031497,
          "duration": 0.06578937500000848
        },
        {
          "name": "C#4",
          "midi": 61,
          "time": 281.05221000000023,
          "velocity": 0.7874015748031497,
          "duration": 0.06469288541666174
        },
        {
          "name": "F#4",
          "midi": 66,
          "time": 281.05221000000023,
          "velocity": 0.7874015748031497,
          "duration": 0.06469288541666174
        },
        {
          "name": "C#5",
          "midi": 73,
          "time": 281.05221000000023,
          "velocity": 0.7874015748031497,
          "duration": 0.06469288541666174
        },
        {
          "name": "F#5",
          "midi": 78,
          "time": 281.05221000000023,
          "velocity": 0.7874015748031497,
          "duration": 0.06469288541666174
        },
        {
          "name": "D6",
          "midi": 86,
          "time": 281.05221000000023,
          "velocity": 0.7874015748031497,
          "duration": 0.06469288541666174
        },
        {
          "name": "F#6",
          "midi": 90,
          "time": 281.05221000000023,
          "velocity": 0.7874015748031497,
          "duration": 0.06469288541666174
        },
        {
          "name": "D7",
          "midi": 98,
          "time": 281.05221000000023,
          "velocity": 0.7874015748031497,
          "duration": 0.06469288541666174
        },
        {
          "name": "F#7",
          "midi": 102,
          "time": 281.05221000000023,
          "velocity": 0.7874015748031497,
          "duration": 0.06469288541666174
        },
        {
          "name": "D7",
          "midi": 98,
          "time": 281.18378875000025,
          "velocity": 0.7874015748031497,
          "duration": 0.06469288541666174
        },
        {
          "name": "F#7",
          "midi": 102,
          "time": 281.18378875000025,
          "velocity": 0.7874015748031497,
          "duration": 0.06469288541666174
        },
        {
          "name": "C5",
          "midi": 72,
          "time": 281.3142710104169,
          "velocity": 0.7874015748031497,
          "duration": 0.06469288541666174
        },
        {
          "name": "F5",
          "midi": 77,
          "time": 281.3142710104169,
          "velocity": 0.7874015748031497,
          "duration": 0.06469288541666174
        },
        {
          "name": "C#6",
          "midi": 85,
          "time": 281.3142710104169,
          "velocity": 0.7874015748031497,
          "duration": 0.06469288541666174
        },
        {
          "name": "F6",
          "midi": 89,
          "time": 281.3142710104169,
          "velocity": 0.7874015748031497,
          "duration": 0.06469288541666174
        },
        {
          "name": "C#7",
          "midi": 97,
          "time": 281.3142710104169,
          "velocity": 0.7874015748031497,
          "duration": 0.06469288541666174
        },
        {
          "name": "F7",
          "midi": 101,
          "time": 281.3142710104169,
          "velocity": 0.7874015748031497,
          "duration": 0.06469288541666174
        },
        {
          "name": "C#4",
          "midi": 61,
          "time": 281.4469462500002,
          "velocity": 0.7874015748031497,
          "duration": 0.06469288541666174
        },
        {
          "name": "F#4",
          "midi": 66,
          "time": 281.4469462500002,
          "velocity": 0.7874015748031497,
          "duration": 0.06469288541666174
        },
        {
          "name": "C#5",
          "midi": 73,
          "time": 281.4469462500002,
          "velocity": 0.7874015748031497,
          "duration": 0.06469288541666174
        },
        {
          "name": "F5",
          "midi": 77,
          "time": 281.4469462500002,
          "velocity": 0.7874015748031497,
          "duration": 0.06469288541666174
        },
        {
          "name": "D6",
          "midi": 86,
          "time": 281.4469462500002,
          "velocity": 0.7874015748031497,
          "duration": 0.06469288541666174
        },
        {
          "name": "F6",
          "midi": 89,
          "time": 281.4469462500002,
          "velocity": 0.7874015748031497,
          "duration": 0.06469288541666174
        },
        {
          "name": "D7",
          "midi": 98,
          "time": 281.4469462500002,
          "velocity": 0.7874015748031497,
          "duration": 0.06469288541666174
        },
        {
          "name": "F7",
          "midi": 101,
          "time": 281.4469462500002,
          "velocity": 0.7874015748031497,
          "duration": 0.06469288541666174
        },
        {
          "name": "D6",
          "midi": 86,
          "time": 281.7090072604169,
          "velocity": 0.7874015748031497,
          "duration": 0.06578937500000848
        },
        {
          "name": "F#6",
          "midi": 90,
          "time": 281.7090072604169,
          "velocity": 0.7874015748031497,
          "duration": 0.06578937500000848
        },
        {
          "name": "D7",
          "midi": 98,
          "time": 281.7090072604169,
          "velocity": 0.7874015748031497,
          "duration": 0.06578937500000848
        },
        {
          "name": "F#7",
          "midi": 102,
          "time": 281.7090072604169,
          "velocity": 0.7874015748031497,
          "duration": 0.06578937500000848
        },
        {
          "name": "C4",
          "midi": 60,
          "time": 281.8416825000003,
          "velocity": 0.7874015748031497,
          "duration": 0.06469288541666174
        },
        {
          "name": "F4",
          "midi": 65,
          "time": 281.8416825000003,
          "velocity": 0.7874015748031497,
          "duration": 0.06469288541666174
        },
        {
          "name": "C5",
          "midi": 72,
          "time": 281.8416825000003,
          "velocity": 0.7874015748031497,
          "duration": 0.06469288541666174
        },
        {
          "name": "F5",
          "midi": 77,
          "time": 281.8416825000003,
          "velocity": 0.7874015748031497,
          "duration": 0.06469288541666174
        },
        {
          "name": "C#6",
          "midi": 85,
          "time": 281.8416825000003,
          "velocity": 0.7874015748031497,
          "duration": 0.06469288541666174
        },
        {
          "name": "F6",
          "midi": 89,
          "time": 281.8416825000003,
          "velocity": 0.7874015748031497,
          "duration": 0.06469288541666174
        },
        {
          "name": "C#7",
          "midi": 97,
          "time": 281.8416825000003,
          "velocity": 0.7874015748031497,
          "duration": 0.06469288541666174
        },
        {
          "name": "F7",
          "midi": 101,
          "time": 281.8416825000003,
          "velocity": 0.7874015748031497,
          "duration": 0.06469288541666174
        },
        {
          "name": "D4",
          "midi": 62,
          "time": 282.10484000000025,
          "velocity": 0.7874015748031497,
          "duration": 0.06578937500000848
        },
        {
          "name": "F#4",
          "midi": 66,
          "time": 282.10484000000025,
          "velocity": 0.7874015748031497,
          "duration": 0.06578937500000848
        },
        {
          "name": "D5",
          "midi": 74,
          "time": 282.10484000000025,
          "velocity": 0.7874015748031497,
          "duration": 0.06578937500000848
        },
        {
          "name": "F#5",
          "midi": 78,
          "time": 282.10484000000025,
          "velocity": 0.7874015748031497,
          "duration": 0.06578937500000848
        },
        {
          "name": "D#6",
          "midi": 87,
          "time": 282.10484000000025,
          "velocity": 0.7874015748031497,
          "duration": 0.06578937500000848
        },
        {
          "name": "F#6",
          "midi": 90,
          "time": 282.10484000000025,
          "velocity": 0.7874015748031497,
          "duration": 0.06578937500000848
        },
        {
          "name": "D#7",
          "midi": 99,
          "time": 282.10484000000025,
          "velocity": 0.7874015748031497,
          "duration": 0.06578937500000848
        },
        {
          "name": "F#7",
          "midi": 102,
          "time": 282.10484000000025,
          "velocity": 0.7874015748031497,
          "duration": 0.06578937500000848
        },
        {
          "name": "D#7",
          "midi": 99,
          "time": 282.23641875000027,
          "velocity": 0.7874015748031497,
          "duration": 0.06578937500000848
        },
        {
          "name": "F#7",
          "midi": 102,
          "time": 282.23641875000027,
          "velocity": 0.7874015748031497,
          "duration": 0.06578937500000848
        },
        {
          "name": "C#5",
          "midi": 73,
          "time": 282.3679975000003,
          "velocity": 0.7874015748031497,
          "duration": 0.06578937500000848
        },
        {
          "name": "F5",
          "midi": 77,
          "time": 282.3679975000003,
          "velocity": 0.7874015748031497,
          "duration": 0.06578937500000848
        },
        {
          "name": "D6",
          "midi": 86,
          "time": 282.3679975000003,
          "velocity": 0.7874015748031497,
          "duration": 0.06578937500000848
        },
        {
          "name": "F6",
          "midi": 89,
          "time": 282.3679975000003,
          "velocity": 0.7874015748031497,
          "duration": 0.06578937500000848
        },
        {
          "name": "D7",
          "midi": 98,
          "time": 282.3679975000003,
          "velocity": 0.7874015748031497,
          "duration": 0.06578937500000848
        },
        {
          "name": "F7",
          "midi": 101,
          "time": 282.3679975000003,
          "velocity": 0.7874015748031497,
          "duration": 0.06578937500000848
        },
        {
          "name": "D4",
          "midi": 62,
          "time": 282.4995762500003,
          "velocity": 0.7874015748031497,
          "duration": 0.06578937500000848
        },
        {
          "name": "F#4",
          "midi": 66,
          "time": 282.4995762500003,
          "velocity": 0.7874015748031497,
          "duration": 0.06578937500000848
        },
        {
          "name": "D5",
          "midi": 74,
          "time": 282.4995762500003,
          "velocity": 0.7874015748031497,
          "duration": 0.06578937500000848
        },
        {
          "name": "F5",
          "midi": 77,
          "time": 282.4995762500003,
          "velocity": 0.7874015748031497,
          "duration": 0.06578937500000848
        },
        {
          "name": "D#6",
          "midi": 87,
          "time": 282.4995762500003,
          "velocity": 0.7874015748031497,
          "duration": 0.06578937500000848
        },
        {
          "name": "F6",
          "midi": 89,
          "time": 282.4995762500003,
          "velocity": 0.7874015748031497,
          "duration": 0.06578937500000848
        },
        {
          "name": "D#7",
          "midi": 99,
          "time": 282.4995762500003,
          "velocity": 0.7874015748031497,
          "duration": 0.06578937500000848
        },
        {
          "name": "F7",
          "midi": 101,
          "time": 282.4995762500003,
          "velocity": 0.7874015748031497,
          "duration": 0.06578937500000848
        },
        {
          "name": "D7",
          "midi": 98,
          "time": 282.6311550000003,
          "velocity": 0.7874015748031497,
          "duration": 0.06688586458335521
        },
        {
          "name": "F7",
          "midi": 101,
          "time": 282.6311550000003,
          "velocity": 0.7874015748031497,
          "duration": 0.06688586458335521
        },
        {
          "name": "C#4",
          "midi": 61,
          "time": 282.76273375000034,
          "velocity": 0.7874015748031497,
          "duration": 0.06578937500000848
        },
        {
          "name": "F4",
          "midi": 65,
          "time": 282.76273375000034,
          "velocity": 0.7874015748031497,
          "duration": 0.06578937500000848
        },
        {
          "name": "C#5",
          "midi": 73,
          "time": 282.76273375000034,
          "velocity": 0.7874015748031497,
          "duration": 0.06578937500000848
        },
        {
          "name": "F5",
          "midi": 77,
          "time": 282.76273375000034,
          "velocity": 0.7874015748031497,
          "duration": 0.06578937500000848
        },
        {
          "name": "D6",
          "midi": 86,
          "time": 282.76273375000034,
          "velocity": 0.7874015748031497,
          "duration": 0.06578937500000848
        },
        {
          "name": "F6",
          "midi": 89,
          "time": 282.76273375000034,
          "velocity": 0.7874015748031497,
          "duration": 0.06578937500000848
        },
        {
          "name": "C#7",
          "midi": 97,
          "time": 282.76273375000034,
          "velocity": 0.7874015748031497,
          "duration": 0.06578937500000848
        },
        {
          "name": "F7",
          "midi": 101,
          "time": 282.76273375000034,
          "velocity": 0.7874015748031497,
          "duration": 0.06578937500000848
        },
        {
          "name": "C#6",
          "midi": 85,
          "time": 282.8954089895837,
          "velocity": 0.7874015748031497,
          "duration": 0.06469288541666174
        },
        {
          "name": "F6",
          "midi": 89,
          "time": 282.8954089895837,
          "velocity": 0.7874015748031497,
          "duration": 0.06469288541666174
        },
        {
          "name": "C#7",
          "midi": 97,
          "time": 282.8954089895837,
          "velocity": 0.7874015748031497,
          "duration": 0.06469288541666174
        },
        {
          "name": "F#7",
          "midi": 102,
          "time": 282.8954089895837,
          "velocity": 0.7874015748031497,
          "duration": 0.06469288541666174
        },
        {
          "name": "C4",
          "midi": 60,
          "time": 283.0269877395837,
          "velocity": 0.7874015748031497,
          "duration": 1.1831122604166922
        },
        {
          "name": "F#4",
          "midi": 66,
          "time": 283.0269877395837,
          "velocity": 0.7874015748031497,
          "duration": 1.1831122604166922
        },
        {
          "name": "C5",
          "midi": 72,
          "time": 283.0269877395837,
          "velocity": 0.7874015748031497,
          "duration": 1.1831122604166922
        },
        {
          "name": "F#5",
          "midi": 78,
          "time": 283.0269877395837,
          "velocity": 0.7874015748031497,
          "duration": 1.1831122604166922
        },
        {
          "name": "C6",
          "midi": 84,
          "time": 283.0269877395837,
          "velocity": 0.7874015748031497,
          "duration": 1.1831122604166922
        },
        {
          "name": "F6",
          "midi": 89,
          "time": 283.0269877395837,
          "velocity": 0.7874015748031497,
          "duration": 1.1820157708333454
        },
        {
          "name": "C7",
          "midi": 96,
          "time": 283.0269877395837,
          "velocity": 0.7874015748031497,
          "duration": 1.1831122604166922
        },
        {
          "name": "F7",
          "midi": 101,
          "time": 283.0269877395837,
          "velocity": 0.7874015748031497,
          "duration": 1.1820157708333454
        },
        {
          "name": "D4",
          "midi": 62,
          "time": 284.2101000000004,
          "velocity": 0.7874015748031497,
          "duration": 0.06578937500000848
        },
        {
          "name": "F#4",
          "midi": 66,
          "time": 284.2101000000004,
          "velocity": 0.7874015748031497,
          "duration": 0.06578937500000848
        },
        {
          "name": "D5",
          "midi": 74,
          "time": 284.2101000000004,
          "velocity": 0.7874015748031497,
          "duration": 0.06578937500000848
        },
        {
          "name": "F#5",
          "midi": 78,
          "time": 284.2101000000004,
          "velocity": 0.7874015748031497,
          "duration": 0.06578937500000848
        },
        {
          "name": "D#6",
          "midi": 87,
          "time": 284.2101000000004,
          "velocity": 0.7874015748031497,
          "duration": 0.06578937500000848
        },
        {
          "name": "F#6",
          "midi": 90,
          "time": 284.2101000000004,
          "velocity": 0.7874015748031497,
          "duration": 0.06578937500000848
        },
        {
          "name": "D#7",
          "midi": 99,
          "time": 284.2101000000004,
          "velocity": 0.7874015748031497,
          "duration": 0.06578937500000848
        },
        {
          "name": "G#8",
          "midi": 116,
          "time": 284.2101000000004,
          "velocity": 0.7874015748031497,
          "duration": 1.907891875000189
        },
        {
          "name": "F#7",
          "midi": 102,
          "time": 284.2101000000004,
          "velocity": 0.7874015748031497,
          "duration": 0.06578937500000848
        },
        {
          "name": "D#7",
          "midi": 99,
          "time": 284.3427752395838,
          "velocity": 0.7874015748031497,
          "duration": 0.06469288541666174
        },
        {
          "name": "F#7",
          "midi": 102,
          "time": 284.3427752395838,
          "velocity": 0.7874015748031497,
          "duration": 0.06469288541666174
        },
        {
          "name": "C#5",
          "midi": 73,
          "time": 284.4743539895838,
          "velocity": 0.7874015748031497,
          "duration": 0.06469288541666174
        },
        {
          "name": "F5",
          "midi": 77,
          "time": 284.4743539895838,
          "velocity": 0.7874015748031497,
          "duration": 0.06469288541666174
        },
        {
          "name": "D6",
          "midi": 86,
          "time": 284.4743539895838,
          "velocity": 0.7874015748031497,
          "duration": 0.06469288541666174
        },
        {
          "name": "F6",
          "midi": 89,
          "time": 284.4743539895838,
          "velocity": 0.7874015748031497,
          "duration": 0.06469288541666174
        },
        {
          "name": "D7",
          "midi": 98,
          "time": 284.4743539895838,
          "velocity": 0.7874015748031497,
          "duration": 0.06469288541666174
        },
        {
          "name": "F7",
          "midi": 101,
          "time": 284.4743539895838,
          "velocity": 0.7874015748031497,
          "duration": 0.06469288541666174
        },
        {
          "name": "D4",
          "midi": 62,
          "time": 284.6059327395838,
          "velocity": 0.7874015748031497,
          "duration": 0.06469288541666174
        },
        {
          "name": "F#4",
          "midi": 66,
          "time": 284.6059327395838,
          "velocity": 0.7874015748031497,
          "duration": 0.06469288541666174
        },
        {
          "name": "D5",
          "midi": 74,
          "time": 284.6059327395838,
          "velocity": 0.7874015748031497,
          "duration": 0.06469288541666174
        },
        {
          "name": "F5",
          "midi": 77,
          "time": 284.6059327395838,
          "velocity": 0.7874015748031497,
          "duration": 0.06469288541666174
        },
        {
          "name": "D#6",
          "midi": 87,
          "time": 284.6059327395838,
          "velocity": 0.7874015748031497,
          "duration": 0.06469288541666174
        },
        {
          "name": "F6",
          "midi": 89,
          "time": 284.6059327395838,
          "velocity": 0.7874015748031497,
          "duration": 0.06469288541666174
        },
        {
          "name": "D#7",
          "midi": 99,
          "time": 284.6059327395838,
          "velocity": 0.7874015748031497,
          "duration": 0.06469288541666174
        },
        {
          "name": "F7",
          "midi": 101,
          "time": 284.6059327395838,
          "velocity": 0.7874015748031497,
          "duration": 0.06469288541666174
        },
        {
          "name": "D7",
          "midi": 98,
          "time": 284.7364150000005,
          "velocity": 0.7874015748031497,
          "duration": 0.06469288541666174
        },
        {
          "name": "F7",
          "midi": 101,
          "time": 284.7364150000005,
          "velocity": 0.7874015748031497,
          "duration": 0.06469288541666174
        },
        {
          "name": "C#4",
          "midi": 61,
          "time": 284.8679937500005,
          "velocity": 0.7874015748031497,
          "duration": 0.06469288541666174
        },
        {
          "name": "F4",
          "midi": 65,
          "time": 284.8679937500005,
          "velocity": 0.7874015748031497,
          "duration": 0.06469288541666174
        },
        {
          "name": "C#5",
          "midi": 73,
          "time": 284.8679937500005,
          "velocity": 0.7874015748031497,
          "duration": 0.06469288541666174
        },
        {
          "name": "F5",
          "midi": 77,
          "time": 284.8679937500005,
          "velocity": 0.7874015748031497,
          "duration": 0.06469288541666174
        },
        {
          "name": "D6",
          "midi": 86,
          "time": 284.8679937500005,
          "velocity": 0.7874015748031497,
          "duration": 0.06469288541666174
        },
        {
          "name": "F6",
          "midi": 89,
          "time": 284.8679937500005,
          "velocity": 0.7874015748031497,
          "duration": 0.06469288541666174
        },
        {
          "name": "C#7",
          "midi": 97,
          "time": 284.8679937500005,
          "velocity": 0.7874015748031497,
          "duration": 0.06469288541666174
        },
        {
          "name": "F7",
          "midi": 101,
          "time": 284.8679937500005,
          "velocity": 0.7874015748031497,
          "duration": 0.06469288541666174
        },
        {
          "name": "C#6",
          "midi": 85,
          "time": 284.9995725000005,
          "velocity": 0.7874015748031497,
          "duration": 0.06469288541666174
        },
        {
          "name": "F6",
          "midi": 89,
          "time": 284.9995725000005,
          "velocity": 0.7874015748031497,
          "duration": 0.06469288541666174
        },
        {
          "name": "D7",
          "midi": 98,
          "time": 284.9995725000005,
          "velocity": 0.7874015748031497,
          "duration": 0.06469288541666174
        },
        {
          "name": "F7",
          "midi": 101,
          "time": 284.9995725000005,
          "velocity": 0.7874015748031497,
          "duration": 0.06469288541666174
        },
        {
          "name": "D7",
          "midi": 98,
          "time": 285.1311512500005,
          "velocity": 0.7874015748031497,
          "duration": 0.06469288541666174
        },
        {
          "name": "F#7",
          "midi": 102,
          "time": 285.1311512500005,
          "velocity": 0.7874015748031497,
          "duration": 0.06469288541666174
        },
        {
          "name": "C#4",
          "midi": 61,
          "time": 285.26273000000054,
          "velocity": 0.7874015748031497,
          "duration": 0.39144678125001064
        },
        {
          "name": "F#4",
          "midi": 66,
          "time": 285.26273000000054,
          "velocity": 0.7874015748031497,
          "duration": 0.39144678125001064
        },
        {
          "name": "C#5",
          "midi": 73,
          "time": 285.26273000000054,
          "velocity": 0.7874015748031497,
          "duration": 0.39144678125001064
        },
        {
          "name": "F#5",
          "midi": 78,
          "time": 285.26273000000054,
          "velocity": 0.7874015748031497,
          "duration": 0.39144678125001064
        },
        {
          "name": "C#6",
          "midi": 85,
          "time": 285.26273000000054,
          "velocity": 0.7874015748031497,
          "duration": 0.39144678125001064
        },
        {
          "name": "F#6",
          "midi": 90,
          "time": 285.26273000000054,
          "velocity": 0.7874015748031497,
          "duration": 0.39144678125001064
        },
        {
          "name": "C#7",
          "midi": 97,
          "time": 285.26273000000054,
          "velocity": 0.7874015748031497,
          "duration": 0.39144678125001064
        },
        {
          "name": "F7",
          "midi": 101,
          "time": 285.26273000000054,
          "velocity": 0.7874015748031497,
          "duration": 0.39144678125001064
        },
        {
          "name": "D4",
          "midi": 62,
          "time": 285.65746625000054,
          "velocity": 0.7874015748031497,
          "duration": 0.3925432708333574
        },
        {
          "name": "F#4",
          "midi": 66,
          "time": 285.65746625000054,
          "velocity": 0.7874015748031497,
          "duration": 0.3925432708333574
        },
        {
          "name": "D5",
          "midi": 74,
          "time": 285.65746625000054,
          "velocity": 0.7874015748031497,
          "duration": 0.3925432708333574
        },
        {
          "name": "F#5",
          "midi": 78,
          "time": 285.65746625000054,
          "velocity": 0.7874015748031497,
          "duration": 0.3925432708333574
        },
        {
          "name": "D6",
          "midi": 86,
          "time": 285.65746625000054,
          "velocity": 0.7874015748031497,
          "duration": 0.3925432708333574
        },
        {
          "name": "F#6",
          "midi": 90,
          "time": 285.65746625000054,
          "velocity": 0.7874015748031497,
          "duration": 0.3925432708333574
        },
        {
          "name": "D7",
          "midi": 98,
          "time": 285.65746625000054,
          "velocity": 0.7874015748031497,
          "duration": 0.3925432708333574
        },
        {
          "name": "F#7",
          "midi": 102,
          "time": 285.65746625000054,
          "velocity": 0.7874015748031497,
          "duration": 0.3925432708333574
        },
        {
          "name": "C4",
          "midi": 60,
          "time": 286.0522025000006,
          "velocity": 0.7874015748031497,
          "duration": 0.06469288541666174
        },
        {
          "name": "F#4",
          "midi": 66,
          "time": 286.0522025000006,
          "velocity": 0.7874015748031497,
          "duration": 0.06469288541666174
        },
        {
          "name": "C5",
          "midi": 72,
          "time": 286.0522025000006,
          "velocity": 0.7874015748031497,
          "duration": 0.06469288541666174
        },
        {
          "name": "F#5",
          "midi": 78,
          "time": 286.0522025000006,
          "velocity": 0.7874015748031497,
          "duration": 0.06469288541666174
        },
        {
          "name": "C6",
          "midi": 84,
          "time": 286.0522025000006,
          "velocity": 0.7874015748031497,
          "duration": 0.06469288541666174
        },
        {
          "name": "F#6",
          "midi": 90,
          "time": 286.0522025000006,
          "velocity": 0.7874015748031497,
          "duration": 0.06469288541666174
        },
        {
          "name": "C7",
          "midi": 96,
          "time": 286.0522025000006,
          "velocity": 0.7874015748031497,
          "duration": 0.06469288541666174
        },
        {
          "name": "F#7",
          "midi": 102,
          "time": 286.0522025000006,
          "velocity": 0.7874015748031497,
          "duration": 0.06469288541666174
        },
        {
          "name": "D4",
          "midi": 62,
          "time": 286.3153600000006,
          "velocity": 0.7874015748031497,
          "duration": 0.06578937500000848
        },
        {
          "name": "F#4",
          "midi": 66,
          "time": 286.3153600000006,
          "velocity": 0.7874015748031497,
          "duration": 0.06578937500000848
        },
        {
          "name": "D5",
          "midi": 74,
          "time": 286.3153600000006,
          "velocity": 0.7874015748031497,
          "duration": 0.06578937500000848
        },
        {
          "name": "F#5",
          "midi": 78,
          "time": 286.3153600000006,
          "velocity": 0.7874015748031497,
          "duration": 0.06578937500000848
        },
        {
          "name": "D#6",
          "midi": 87,
          "time": 286.3153600000006,
          "velocity": 0.7874015748031497,
          "duration": 0.06578937500000848
        },
        {
          "name": "F#6",
          "midi": 90,
          "time": 286.3153600000006,
          "velocity": 0.7874015748031497,
          "duration": 0.06578937500000848
        },
        {
          "name": "D#7",
          "midi": 99,
          "time": 286.3153600000006,
          "velocity": 0.7874015748031497,
          "duration": 0.06578937500000848
        },
        {
          "name": "F#7",
          "midi": 102,
          "time": 286.3153600000006,
          "velocity": 0.7874015748031497,
          "duration": 0.06578937500000848
        },
        {
          "name": "D#7",
          "midi": 99,
          "time": 286.448035239584,
          "velocity": 0.7874015748031497,
          "duration": 0.06469288541666174
        },
        {
          "name": "F#7",
          "midi": 102,
          "time": 286.448035239584,
          "velocity": 0.7874015748031497,
          "duration": 0.06469288541666174
        },
        {
          "name": "C#5",
          "midi": 73,
          "time": 286.579613989584,
          "velocity": 0.7874015748031497,
          "duration": 0.06469288541666174
        },
        {
          "name": "F5",
          "midi": 77,
          "time": 286.579613989584,
          "velocity": 0.7874015748031497,
          "duration": 0.06469288541666174
        },
        {
          "name": "D6",
          "midi": 86,
          "time": 286.579613989584,
          "velocity": 0.7874015748031497,
          "duration": 0.06469288541666174
        },
        {
          "name": "F6",
          "midi": 89,
          "time": 286.579613989584,
          "velocity": 0.7874015748031497,
          "duration": 0.06469288541666174
        },
        {
          "name": "D7",
          "midi": 98,
          "time": 286.579613989584,
          "velocity": 0.7874015748031497,
          "duration": 0.06469288541666174
        },
        {
          "name": "F7",
          "midi": 101,
          "time": 286.579613989584,
          "velocity": 0.7874015748031497,
          "duration": 0.06469288541666174
        },
        {
          "name": "D4",
          "midi": 62,
          "time": 286.7100962500007,
          "velocity": 0.7874015748031497,
          "duration": 0.06578937500000848
        },
        {
          "name": "F#4",
          "midi": 66,
          "time": 286.7100962500007,
          "velocity": 0.7874015748031497,
          "duration": 0.06578937500000848
        },
        {
          "name": "D5",
          "midi": 74,
          "time": 286.7100962500007,
          "velocity": 0.7874015748031497,
          "duration": 0.06578937500000848
        },
        {
          "name": "F5",
          "midi": 77,
          "time": 286.7100962500007,
          "velocity": 0.7874015748031497,
          "duration": 0.06578937500000848
        },
        {
          "name": "D#6",
          "midi": 87,
          "time": 286.7100962500007,
          "velocity": 0.7874015748031497,
          "duration": 0.06578937500000848
        },
        {
          "name": "F6",
          "midi": 89,
          "time": 286.7100962500007,
          "velocity": 0.7874015748031497,
          "duration": 0.06578937500000848
        },
        {
          "name": "D#7",
          "midi": 99,
          "time": 286.7100962500007,
          "velocity": 0.7874015748031497,
          "duration": 0.06578937500000848
        },
        {
          "name": "F7",
          "midi": 101,
          "time": 286.7100962500007,
          "velocity": 0.7874015748031497,
          "duration": 0.06578937500000848
        },
        {
          "name": "D7",
          "midi": 98,
          "time": 286.8416750000007,
          "velocity": 0.7874015748031497,
          "duration": 0.06578937500000848
        },
        {
          "name": "F7",
          "midi": 101,
          "time": 286.8416750000007,
          "velocity": 0.7874015748031497,
          "duration": 0.06578937500000848
        },
        {
          "name": "C#4",
          "midi": 61,
          "time": 286.9732537500007,
          "velocity": 0.7874015748031497,
          "duration": 0.06578937500000848
        },
        {
          "name": "F4",
          "midi": 65,
          "time": 286.9732537500007,
          "velocity": 0.7874015748031497,
          "duration": 0.06578937500000848
        },
        {
          "name": "C#5",
          "midi": 73,
          "time": 286.9732537500007,
          "velocity": 0.7874015748031497,
          "duration": 0.06578937500000848
        },
        {
          "name": "F5",
          "midi": 77,
          "time": 286.9732537500007,
          "velocity": 0.7874015748031497,
          "duration": 0.06578937500000848
        },
        {
          "name": "D6",
          "midi": 86,
          "time": 286.9732537500007,
          "velocity": 0.7874015748031497,
          "duration": 0.06578937500000848
        },
        {
          "name": "F6",
          "midi": 89,
          "time": 286.9732537500007,
          "velocity": 0.7874015748031497,
          "duration": 0.06578937500000848
        },
        {
          "name": "C#7",
          "midi": 97,
          "time": 286.9732537500007,
          "velocity": 0.7874015748031497,
          "duration": 0.06578937500000848
        },
        {
          "name": "F7",
          "midi": 101,
          "time": 286.9732537500007,
          "velocity": 0.7874015748031497,
          "duration": 0.06578937500000848
        },
        {
          "name": "C#6",
          "midi": 85,
          "time": 287.1037360104174,
          "velocity": 0.7874015748031497,
          "duration": 0.06578937500000848
        },
        {
          "name": "F6",
          "midi": 89,
          "time": 287.1037360104174,
          "velocity": 0.7874015748031497,
          "duration": 0.06578937500000848
        },
        {
          "name": "C#7",
          "midi": 97,
          "time": 287.1037360104174,
          "velocity": 0.7874015748031497,
          "duration": 0.06578937500000848
        },
        {
          "name": "F#7",
          "midi": 102,
          "time": 287.1037360104174,
          "velocity": 0.7874015748031497,
          "duration": 0.06578937500000848
        },
        {
          "name": "C4",
          "midi": 60,
          "time": 287.3679900000007,
          "velocity": 0.7874015748031497,
          "duration": 1.0515335104166752
        },
        {
          "name": "F#4",
          "midi": 66,
          "time": 287.3679900000007,
          "velocity": 0.7874015748031497,
          "duration": 1.0504370208333285
        },
        {
          "name": "C5",
          "midi": 72,
          "time": 287.3679900000007,
          "velocity": 0.7874015748031497,
          "duration": 1.0515335104166752
        },
        {
          "name": "F#5",
          "midi": 78,
          "time": 287.3679900000007,
          "velocity": 0.7874015748031497,
          "duration": 1.0504370208333285
        },
        {
          "name": "C6",
          "midi": 84,
          "time": 287.3679900000007,
          "velocity": 0.7874015748031497,
          "duration": 1.0515335104166752
        },
        {
          "name": "F#6",
          "midi": 90,
          "time": 287.3679900000007,
          "velocity": 0.7874015748031497,
          "duration": 1.0504370208333285
        },
        {
          "name": "C7",
          "midi": 96,
          "time": 287.3679900000007,
          "velocity": 0.7874015748031497,
          "duration": 1.0515335104166752
        },
        {
          "name": "F#7",
          "midi": 102,
          "time": 287.3679900000007,
          "velocity": 0.7874015748031497,
          "duration": 1.0504370208333285
        },
        {
          "name": "D4",
          "midi": 62,
          "time": 288.4206200000007,
          "velocity": 0.7874015748031497,
          "duration": 0.06469288541666174
        },
        {
          "name": "F#4",
          "midi": 66,
          "time": 288.4206200000007,
          "velocity": 0.7874015748031497,
          "duration": 0.06469288541666174
        },
        {
          "name": "D5",
          "midi": 74,
          "time": 288.4206200000007,
          "velocity": 0.7874015748031497,
          "duration": 0.06469288541666174
        },
        {
          "name": "F#5",
          "midi": 78,
          "time": 288.4206200000007,
          "velocity": 0.7874015748031497,
          "duration": 0.06469288541666174
        },
        {
          "name": "D#6",
          "midi": 87,
          "time": 288.4206200000007,
          "velocity": 0.7874015748031497,
          "duration": 0.06469288541666174
        },
        {
          "name": "F#6",
          "midi": 90,
          "time": 288.4206200000007,
          "velocity": 0.7874015748031497,
          "duration": 0.06469288541666174
        },
        {
          "name": "D#7",
          "midi": 99,
          "time": 288.4206200000007,
          "velocity": 0.7874015748031497,
          "duration": 0.06469288541666174
        },
        {
          "name": "F#7",
          "midi": 102,
          "time": 288.4206200000007,
          "velocity": 0.7874015748031497,
          "duration": 0.06469288541666174
        },
        {
          "name": "D#7",
          "midi": 99,
          "time": 288.55219875000074,
          "velocity": 0.7874015748031497,
          "duration": 0.06469288541666174
        },
        {
          "name": "F#7",
          "midi": 102,
          "time": 288.55219875000074,
          "velocity": 0.7874015748031497,
          "duration": 0.06469288541666174
        },
        {
          "name": "C#5",
          "midi": 73,
          "time": 288.68487398958405,
          "velocity": 0.7874015748031497,
          "duration": 0.06469288541666174
        },
        {
          "name": "F5",
          "midi": 77,
          "time": 288.68487398958405,
          "velocity": 0.7874015748031497,
          "duration": 0.06469288541666174
        },
        {
          "name": "D6",
          "midi": 86,
          "time": 288.68487398958405,
          "velocity": 0.7874015748031497,
          "duration": 0.06469288541666174
        },
        {
          "name": "F6",
          "midi": 89,
          "time": 288.68487398958405,
          "velocity": 0.7874015748031497,
          "duration": 0.06469288541666174
        },
        {
          "name": "D7",
          "midi": 98,
          "time": 288.68487398958405,
          "velocity": 0.7874015748031497,
          "duration": 0.06469288541666174
        },
        {
          "name": "F7",
          "midi": 101,
          "time": 288.68487398958405,
          "velocity": 0.7874015748031497,
          "duration": 0.06469288541666174
        },
        {
          "name": "D4",
          "midi": 62,
          "time": 288.8153562500007,
          "velocity": 0.7874015748031497,
          "duration": 0.06469288541666174
        },
        {
          "name": "F#4",
          "midi": 66,
          "time": 288.8153562500007,
          "velocity": 0.7874015748031497,
          "duration": 0.06469288541666174
        },
        {
          "name": "D5",
          "midi": 74,
          "time": 288.8153562500007,
          "velocity": 0.7874015748031497,
          "duration": 0.06469288541666174
        },
        {
          "name": "F5",
          "midi": 77,
          "time": 288.8153562500007,
          "velocity": 0.7874015748031497,
          "duration": 0.06469288541666174
        },
        {
          "name": "D#6",
          "midi": 87,
          "time": 288.8153562500007,
          "velocity": 0.7874015748031497,
          "duration": 0.06469288541666174
        },
        {
          "name": "F6",
          "midi": 89,
          "time": 288.8153562500007,
          "velocity": 0.7874015748031497,
          "duration": 0.06469288541666174
        },
        {
          "name": "D#7",
          "midi": 99,
          "time": 288.8153562500007,
          "velocity": 0.7874015748031497,
          "duration": 0.06469288541666174
        },
        {
          "name": "F7",
          "midi": 101,
          "time": 288.8153562500007,
          "velocity": 0.7874015748031497,
          "duration": 0.06469288541666174
        },
        {
          "name": "D7",
          "midi": 98,
          "time": 288.94693500000074,
          "velocity": 0.7874015748031497,
          "duration": 0.06469288541666174
        },
        {
          "name": "F7",
          "midi": 101,
          "time": 288.94693500000074,
          "velocity": 0.7874015748031497,
          "duration": 0.06469288541666174
        },
        {
          "name": "C#4",
          "midi": 61,
          "time": 289.07851375000075,
          "velocity": 0.7874015748031497,
          "duration": 0.06469288541666174
        },
        {
          "name": "F4",
          "midi": 65,
          "time": 289.07851375000075,
          "velocity": 0.7874015748031497,
          "duration": 0.06469288541666174
        },
        {
          "name": "C#5",
          "midi": 73,
          "time": 289.07851375000075,
          "velocity": 0.7874015748031497,
          "duration": 0.06469288541666174
        },
        {
          "name": "F5",
          "midi": 77,
          "time": 289.07851375000075,
          "velocity": 0.7874015748031497,
          "duration": 0.06469288541666174
        },
        {
          "name": "D6",
          "midi": 86,
          "time": 289.07851375000075,
          "velocity": 0.7874015748031497,
          "duration": 0.06469288541666174
        },
        {
          "name": "F6",
          "midi": 89,
          "time": 289.07851375000075,
          "velocity": 0.7874015748031497,
          "duration": 0.06469288541666174
        },
        {
          "name": "C#7",
          "midi": 97,
          "time": 289.07851375000075,
          "velocity": 0.7874015748031497,
          "duration": 0.06469288541666174
        },
        {
          "name": "F7",
          "midi": 101,
          "time": 289.07851375000075,
          "velocity": 0.7874015748031497,
          "duration": 0.06469288541666174
        },
        {
          "name": "C#6",
          "midi": 85,
          "time": 289.21009250000077,
          "velocity": 0.7874015748031497,
          "duration": 0.06469288541666174
        },
        {
          "name": "F6",
          "midi": 89,
          "time": 289.21009250000077,
          "velocity": 0.7874015748031497,
          "duration": 0.06469288541666174
        },
        {
          "name": "D7",
          "midi": 98,
          "time": 289.21009250000077,
          "velocity": 0.7874015748031497,
          "duration": 0.06469288541666174
        },
        {
          "name": "F7",
          "midi": 101,
          "time": 289.21009250000077,
          "velocity": 0.7874015748031497,
          "duration": 0.06469288541666174
        },
        {
          "name": "D7",
          "midi": 98,
          "time": 289.3416712500008,
          "velocity": 0.7874015748031497,
          "duration": 0.06469288541666174
        },
        {
          "name": "F#7",
          "midi": 102,
          "time": 289.3416712500008,
          "velocity": 0.7874015748031497,
          "duration": 0.06469288541666174
        },
        {
          "name": "C#4",
          "midi": 61,
          "time": 289.4732500000008,
          "velocity": 0.7874015748031497,
          "duration": 0.39144678125001064
        },
        {
          "name": "F#4",
          "midi": 66,
          "time": 289.4732500000008,
          "velocity": 0.7874015748031497,
          "duration": 0.39144678125001064
        },
        {
          "name": "C#5",
          "midi": 73,
          "time": 289.4732500000008,
          "velocity": 0.7874015748031497,
          "duration": 0.39144678125001064
        },
        {
          "name": "F#5",
          "midi": 78,
          "time": 289.4732500000008,
          "velocity": 0.7874015748031497,
          "duration": 0.39144678125001064
        },
        {
          "name": "C#6",
          "midi": 85,
          "time": 289.4732500000008,
          "velocity": 0.7874015748031497,
          "duration": 0.39144678125001064
        },
        {
          "name": "F#6",
          "midi": 90,
          "time": 289.4732500000008,
          "velocity": 0.7874015748031497,
          "duration": 0.39144678125001064
        },
        {
          "name": "C#7",
          "midi": 97,
          "time": 289.4732500000008,
          "velocity": 0.7874015748031497,
          "duration": 0.39144678125001064
        },
        {
          "name": "F7",
          "midi": 101,
          "time": 289.4732500000008,
          "velocity": 0.7874015748031497,
          "duration": 0.39144678125001064
        },
        {
          "name": "D4",
          "midi": 62,
          "time": 289.8679862500008,
          "velocity": 0.7874015748031497,
          "duration": 0.3925432708333574
        },
        {
          "name": "F#4",
          "midi": 66,
          "time": 289.8679862500008,
          "velocity": 0.7874015748031497,
          "duration": 0.3925432708333574
        },
        {
          "name": "D5",
          "midi": 74,
          "time": 289.8679862500008,
          "velocity": 0.7874015748031497,
          "duration": 0.3925432708333574
        },
        {
          "name": "F#5",
          "midi": 78,
          "time": 289.8679862500008,
          "velocity": 0.7874015748031497,
          "duration": 0.3925432708333574
        },
        {
          "name": "D6",
          "midi": 86,
          "time": 289.8679862500008,
          "velocity": 0.7874015748031497,
          "duration": 0.3925432708333574
        },
        {
          "name": "F#6",
          "midi": 90,
          "time": 289.8679862500008,
          "velocity": 0.7874015748031497,
          "duration": 0.3925432708333574
        },
        {
          "name": "D7",
          "midi": 98,
          "time": 289.8679862500008,
          "velocity": 0.7874015748031497,
          "duration": 0.3925432708333574
        },
        {
          "name": "F#7",
          "midi": 102,
          "time": 289.8679862500008,
          "velocity": 0.7874015748031497,
          "duration": 0.3925432708333574
        },
        {
          "name": "C4",
          "midi": 60,
          "time": 290.26381898958414,
          "velocity": 0.7874015748031497,
          "duration": 0.06469288541666174
        },
        {
          "name": "F#4",
          "midi": 66,
          "time": 290.26381898958414,
          "velocity": 0.7874015748031497,
          "duration": 0.06469288541666174
        },
        {
          "name": "C5",
          "midi": 72,
          "time": 290.26381898958414,
          "velocity": 0.7874015748031497,
          "duration": 0.06469288541666174
        },
        {
          "name": "F#5",
          "midi": 78,
          "time": 290.26381898958414,
          "velocity": 0.7874015748031497,
          "duration": 0.06469288541666174
        },
        {
          "name": "C6",
          "midi": 84,
          "time": 290.26381898958414,
          "velocity": 0.7874015748031497,
          "duration": 0.06469288541666174
        },
        {
          "name": "F#6",
          "midi": 90,
          "time": 290.26381898958414,
          "velocity": 0.7874015748031497,
          "duration": 0.06469288541666174
        },
        {
          "name": "C7",
          "midi": 96,
          "time": 290.26381898958414,
          "velocity": 0.7874015748031497,
          "duration": 0.06469288541666174
        },
        {
          "name": "F#7",
          "midi": 102,
          "time": 290.26381898958414,
          "velocity": 0.7874015748031497,
          "duration": 0.06469288541666174
        },
        {
          "name": "D4",
          "midi": 62,
          "time": 290.5258800000008,
          "velocity": 0.7874015748031497,
          "duration": 0.06469288541666174
        },
        {
          "name": "F#4",
          "midi": 66,
          "time": 290.5258800000008,
          "velocity": 0.7874015748031497,
          "duration": 0.06469288541666174
        },
        {
          "name": "D#5",
          "midi": 75,
          "time": 290.5258800000008,
          "velocity": 0.7874015748031497,
          "duration": 0.06469288541666174
        },
        {
          "name": "F#5",
          "midi": 78,
          "time": 290.5258800000008,
          "velocity": 0.7874015748031497,
          "duration": 0.06469288541666174
        },
        {
          "name": "E6",
          "midi": 88,
          "time": 290.5258800000008,
          "velocity": 0.7874015748031497,
          "duration": 0.06469288541666174
        },
        {
          "name": "F#6",
          "midi": 90,
          "time": 290.5258800000008,
          "velocity": 0.7874015748031497,
          "duration": 0.06469288541666174
        },
        {
          "name": "E7",
          "midi": 100,
          "time": 290.5258800000008,
          "velocity": 0.7874015748031497,
          "duration": 0.06469288541666174
        },
        {
          "name": "F#7",
          "midi": 102,
          "time": 290.5258800000008,
          "velocity": 0.7874015748031497,
          "duration": 0.06469288541666174
        },
        {
          "name": "E7",
          "midi": 100,
          "time": 290.65745875000084,
          "velocity": 0.7874015748031497,
          "duration": 0.06469288541666174
        },
        {
          "name": "F#7",
          "midi": 102,
          "time": 290.65745875000084,
          "velocity": 0.7874015748031497,
          "duration": 0.06469288541666174
        },
        {
          "name": "D5",
          "midi": 74,
          "time": 290.7879410104175,
          "velocity": 0.7874015748031497,
          "duration": 0.06469288541666174
        },
        {
          "name": "F5",
          "midi": 77,
          "time": 290.7879410104175,
          "velocity": 0.7874015748031497,
          "duration": 0.06469288541666174
        },
        {
          "name": "D#6",
          "midi": 87,
          "time": 290.7879410104175,
          "velocity": 0.7874015748031497,
          "duration": 0.06469288541666174
        },
        {
          "name": "F6",
          "midi": 89,
          "time": 290.7879410104175,
          "velocity": 0.7874015748031497,
          "duration": 0.06469288541666174
        },
        {
          "name": "D#7",
          "midi": 99,
          "time": 290.7879410104175,
          "velocity": 0.7874015748031497,
          "duration": 0.06469288541666174
        },
        {
          "name": "F7",
          "midi": 101,
          "time": 290.7879410104175,
          "velocity": 0.7874015748031497,
          "duration": 0.06469288541666174
        },
        {
          "name": "D4",
          "midi": 62,
          "time": 290.9206162500008,
          "velocity": 0.7874015748031497,
          "duration": 0.06469288541666174
        },
        {
          "name": "F#4",
          "midi": 66,
          "time": 290.9206162500008,
          "velocity": 0.7874015748031497,
          "duration": 0.06469288541666174
        },
        {
          "name": "D#5",
          "midi": 75,
          "time": 290.9206162500008,
          "velocity": 0.7874015748031497,
          "duration": 0.06469288541666174
        },
        {
          "name": "F5",
          "midi": 77,
          "time": 290.9206162500008,
          "velocity": 0.7874015748031497,
          "duration": 0.06469288541666174
        },
        {
          "name": "E6",
          "midi": 88,
          "time": 290.9206162500008,
          "velocity": 0.7874015748031497,
          "duration": 0.06469288541666174
        },
        {
          "name": "F6",
          "midi": 89,
          "time": 290.9206162500008,
          "velocity": 0.7874015748031497,
          "duration": 0.06469288541666174
        },
        {
          "name": "E7",
          "midi": 100,
          "time": 290.9206162500008,
          "velocity": 0.7874015748031497,
          "duration": 0.06469288541666174
        },
        {
          "name": "F7",
          "midi": 101,
          "time": 290.9206162500008,
          "velocity": 0.7874015748031497,
          "duration": 0.06469288541666174
        },
        {
          "name": "D#7",
          "midi": 99,
          "time": 291.05219500000084,
          "velocity": 0.7874015748031497,
          "duration": 0.06578937500000848
        },
        {
          "name": "F7",
          "midi": 101,
          "time": 291.05219500000084,
          "velocity": 0.7874015748031497,
          "duration": 0.06578937500000848
        },
        {
          "name": "C#4",
          "midi": 61,
          "time": 291.18377375000085,
          "velocity": 0.7874015748031497,
          "duration": 0.06578937500000848
        },
        {
          "name": "F4",
          "midi": 65,
          "time": 291.18377375000085,
          "velocity": 0.7874015748031497,
          "duration": 0.06578937500000848
        },
        {
          "name": "D5",
          "midi": 74,
          "time": 291.18377375000085,
          "velocity": 0.7874015748031497,
          "duration": 0.06578937500000848
        },
        {
          "name": "F5",
          "midi": 77,
          "time": 291.18377375000085,
          "velocity": 0.7874015748031497,
          "duration": 0.06578937500000848
        },
        {
          "name": "D#6",
          "midi": 87,
          "time": 291.18377375000085,
          "velocity": 0.7874015748031497,
          "duration": 0.06578937500000848
        },
        {
          "name": "F6",
          "midi": 89,
          "time": 291.18377375000085,
          "velocity": 0.7874015748031497,
          "duration": 0.06578937500000848
        },
        {
          "name": "D7",
          "midi": 98,
          "time": 291.18377375000085,
          "velocity": 0.7874015748031497,
          "duration": 0.06578937500000848
        },
        {
          "name": "F7",
          "midi": 101,
          "time": 291.18377375000085,
          "velocity": 0.7874015748031497,
          "duration": 0.06578937500000848
        },
        {
          "name": "D6",
          "midi": 86,
          "time": 291.3164489895842,
          "velocity": 0.7874015748031497,
          "duration": 0.06469288541666174
        },
        {
          "name": "F6",
          "midi": 89,
          "time": 291.3164489895842,
          "velocity": 0.7874015748031497,
          "duration": 0.06469288541666174
        },
        {
          "name": "D7",
          "midi": 98,
          "time": 291.3164489895842,
          "velocity": 0.7874015748031497,
          "duration": 0.06469288541666174
        },
        {
          "name": "F#7",
          "midi": 102,
          "time": 291.3164489895842,
          "velocity": 0.7874015748031497,
          "duration": 0.06469288541666174
        },
        {
          "name": "C4",
          "midi": 60,
          "time": 291.5785100000009,
          "velocity": 0.7874015748031497,
          "duration": 1.0515335104166752
        },
        {
          "name": "F#4",
          "midi": 66,
          "time": 291.5785100000009,
          "velocity": 0.7874015748031497,
          "duration": 1.0504370208333285
        },
        {
          "name": "C#5",
          "midi": 73,
          "time": 291.5785100000009,
          "velocity": 0.7874015748031497,
          "duration": 1.0515335104166752
        },
        {
          "name": "F#5",
          "midi": 78,
          "time": 291.5785100000009,
          "velocity": 0.7874015748031497,
          "duration": 1.0504370208333285
        },
        {
          "name": "C#6",
          "midi": 85,
          "time": 291.5785100000009,
          "velocity": 0.7874015748031497,
          "duration": 1.0515335104166752
        },
        {
          "name": "F#6",
          "midi": 90,
          "time": 291.5785100000009,
          "velocity": 0.7874015748031497,
          "duration": 1.0504370208333285
        },
        {
          "name": "C#7",
          "midi": 97,
          "time": 291.5785100000009,
          "velocity": 0.7874015748031497,
          "duration": 1.0515335104166752
        },
        {
          "name": "F#7",
          "midi": 102,
          "time": 291.5785100000009,
          "velocity": 0.7874015748031497,
          "duration": 1.0504370208333285
        },
        {
          "name": "D4",
          "midi": 62,
          "time": 292.6311400000009,
          "velocity": 0.7874015748031497,
          "duration": 0.06578937500000848
        },
        {
          "name": "F#4",
          "midi": 66,
          "time": 292.6311400000009,
          "velocity": 0.7874015748031497,
          "duration": 0.06578937500000848
        },
        {
          "name": "D#5",
          "midi": 75,
          "time": 292.6311400000009,
          "velocity": 0.7874015748031497,
          "duration": 0.06578937500000848
        },
        {
          "name": "F#5",
          "midi": 78,
          "time": 292.6311400000009,
          "velocity": 0.7874015748031497,
          "duration": 0.06578937500000848
        },
        {
          "name": "E6",
          "midi": 88,
          "time": 292.6311400000009,
          "velocity": 0.7874015748031497,
          "duration": 0.06578937500000848
        },
        {
          "name": "F#6",
          "midi": 90,
          "time": 292.6311400000009,
          "velocity": 0.7874015748031497,
          "duration": 0.06578937500000848
        },
        {
          "name": "E7",
          "midi": 100,
          "time": 292.6311400000009,
          "velocity": 0.7874015748031497,
          "duration": 0.06578937500000848
        },
        {
          "name": "F#7",
          "midi": 102,
          "time": 292.6311400000009,
          "velocity": 0.7874015748031497,
          "duration": 0.06578937500000848
        },
        {
          "name": "E7",
          "midi": 100,
          "time": 292.7638152395843,
          "velocity": 0.7874015748031497,
          "duration": 0.06469288541666174
        },
        {
          "name": "F#7",
          "midi": 102,
          "time": 292.7638152395843,
          "velocity": 0.7874015748031497,
          "duration": 0.06469288541666174
        },
        {
          "name": "D5",
          "midi": 74,
          "time": 292.89429750000096,
          "velocity": 0.7874015748031497,
          "duration": 0.06578937500000848
        },
        {
          "name": "F5",
          "midi": 77,
          "time": 292.89429750000096,
          "velocity": 0.7874015748031497,
          "duration": 0.06578937500000848
        },
        {
          "name": "D#6",
          "midi": 87,
          "time": 292.89429750000096,
          "velocity": 0.7874015748031497,
          "duration": 0.06578937500000848
        },
        {
          "name": "F6",
          "midi": 89,
          "time": 292.89429750000096,
          "velocity": 0.7874015748031497,
          "duration": 0.06578937500000848
        },
        {
          "name": "D#7",
          "midi": 99,
          "time": 292.89429750000096,
          "velocity": 0.7874015748031497,
          "duration": 0.06578937500000848
        },
        {
          "name": "F7",
          "midi": 101,
          "time": 292.89429750000096,
          "velocity": 0.7874015748031497,
          "duration": 0.06578937500000848
        },
        {
          "name": "D4",
          "midi": 62,
          "time": 293.0269727395843,
          "velocity": 0.7874015748031497,
          "duration": 0.06469288541666174
        },
        {
          "name": "F#4",
          "midi": 66,
          "time": 293.0269727395843,
          "velocity": 0.7874015748031497,
          "duration": 0.06469288541666174
        },
        {
          "name": "D#5",
          "midi": 75,
          "time": 293.0269727395843,
          "velocity": 0.7874015748031497,
          "duration": 0.06469288541666174
        },
        {
          "name": "F5",
          "midi": 77,
          "time": 293.0269727395843,
          "velocity": 0.7874015748031497,
          "duration": 0.06469288541666174
        },
        {
          "name": "E6",
          "midi": 88,
          "time": 293.0269727395843,
          "velocity": 0.7874015748031497,
          "duration": 0.06469288541666174
        },
        {
          "name": "F6",
          "midi": 89,
          "time": 293.0269727395843,
          "velocity": 0.7874015748031497,
          "duration": 0.06469288541666174
        },
        {
          "name": "E7",
          "midi": 100,
          "time": 293.0269727395843,
          "velocity": 0.7874015748031497,
          "duration": 0.06469288541666174
        },
        {
          "name": "F7",
          "midi": 101,
          "time": 293.0269727395843,
          "velocity": 0.7874015748031497,
          "duration": 0.06469288541666174
        },
        {
          "name": "D#7",
          "midi": 99,
          "time": 293.157455000001,
          "velocity": 0.7874015748031497,
          "duration": 0.06688586458335521
        },
        {
          "name": "F7",
          "midi": 101,
          "time": 293.157455000001,
          "velocity": 0.7874015748031497,
          "duration": 0.06688586458335521
        },
        {
          "name": "C#4",
          "midi": 61,
          "time": 293.29013023958436,
          "velocity": 0.7874015748031497,
          "duration": 0.06469288541666174
        },
        {
          "name": "F4",
          "midi": 65,
          "time": 293.29013023958436,
          "velocity": 0.7874015748031497,
          "duration": 0.06469288541666174
        },
        {
          "name": "D5",
          "midi": 74,
          "time": 293.29013023958436,
          "velocity": 0.7874015748031497,
          "duration": 0.06469288541666174
        },
        {
          "name": "F5",
          "midi": 77,
          "time": 293.29013023958436,
          "velocity": 0.7874015748031497,
          "duration": 0.06469288541666174
        },
        {
          "name": "D#6",
          "midi": 87,
          "time": 293.29013023958436,
          "velocity": 0.7874015748031497,
          "duration": 0.06469288541666174
        },
        {
          "name": "F6",
          "midi": 89,
          "time": 293.29013023958436,
          "velocity": 0.7874015748031497,
          "duration": 0.06469288541666174
        },
        {
          "name": "D7",
          "midi": 98,
          "time": 293.29013023958436,
          "velocity": 0.7874015748031497,
          "duration": 0.06469288541666174
        },
        {
          "name": "F7",
          "midi": 101,
          "time": 293.29013023958436,
          "velocity": 0.7874015748031497,
          "duration": 0.06469288541666174
        },
        {
          "name": "D6",
          "midi": 86,
          "time": 293.420612500001,
          "velocity": 0.7874015748031497,
          "duration": 0.06578937500000848
        },
        {
          "name": "F6",
          "midi": 89,
          "time": 293.420612500001,
          "velocity": 0.7874015748031497,
          "duration": 0.06578937500000848
        },
        {
          "name": "D#7",
          "midi": 99,
          "time": 293.420612500001,
          "velocity": 0.7874015748031497,
          "duration": 0.06578937500000848
        },
        {
          "name": "F7",
          "midi": 101,
          "time": 293.420612500001,
          "velocity": 0.7874015748031497,
          "duration": 0.06578937500000848
        },
        {
          "name": "D#7",
          "midi": 99,
          "time": 293.5532877395844,
          "velocity": 0.7874015748031497,
          "duration": 0.06469288541666174
        },
        {
          "name": "F#7",
          "midi": 102,
          "time": 293.5532877395844,
          "velocity": 0.7874015748031497,
          "duration": 0.06469288541666174
        },
        {
          "name": "C#4",
          "midi": 61,
          "time": 293.68377000000106,
          "velocity": 0.7874015748031497,
          "duration": 0.3925432708333574
        },
        {
          "name": "F#4",
          "midi": 66,
          "time": 293.68377000000106,
          "velocity": 0.7874015748031497,
          "duration": 0.3925432708333574
        },
        {
          "name": "D5",
          "midi": 74,
          "time": 293.68377000000106,
          "velocity": 0.7874015748031497,
          "duration": 0.3925432708333574
        },
        {
          "name": "F#5",
          "midi": 78,
          "time": 293.68377000000106,
          "velocity": 0.7874015748031497,
          "duration": 0.3925432708333574
        },
        {
          "name": "D6",
          "midi": 86,
          "time": 293.68377000000106,
          "velocity": 0.7874015748031497,
          "duration": 0.3925432708333574
        },
        {
          "name": "F#6",
          "midi": 90,
          "time": 293.68377000000106,
          "velocity": 0.7874015748031497,
          "duration": 0.3925432708333574
        },
        {
          "name": "D7",
          "midi": 98,
          "time": 293.68377000000106,
          "velocity": 0.7874015748031497,
          "duration": 0.3925432708333574
        },
        {
          "name": "F7",
          "midi": 101,
          "time": 293.68377000000106,
          "velocity": 0.7874015748031497,
          "duration": 0.3925432708333574
        },
        {
          "name": "D4",
          "midi": 62,
          "time": 294.0796027395844,
          "velocity": 0.7874015748031497,
          "duration": 0.39144678125001064
        },
        {
          "name": "F#4",
          "midi": 66,
          "time": 294.0796027395844,
          "velocity": 0.7874015748031497,
          "duration": 0.39144678125001064
        },
        {
          "name": "D#5",
          "midi": 75,
          "time": 294.0796027395844,
          "velocity": 0.7874015748031497,
          "duration": 0.39144678125001064
        },
        {
          "name": "F#5",
          "midi": 78,
          "time": 294.0796027395844,
          "velocity": 0.7874015748031497,
          "duration": 0.39144678125001064
        },
        {
          "name": "D#6",
          "midi": 87,
          "time": 294.0796027395844,
          "velocity": 0.7874015748031497,
          "duration": 0.39144678125001064
        },
        {
          "name": "F#6",
          "midi": 90,
          "time": 294.0796027395844,
          "velocity": 0.7874015748031497,
          "duration": 0.39144678125001064
        },
        {
          "name": "D#7",
          "midi": 99,
          "time": 294.0796027395844,
          "velocity": 0.7874015748031497,
          "duration": 0.39144678125001064
        },
        {
          "name": "F#7",
          "midi": 102,
          "time": 294.0796027395844,
          "velocity": 0.7874015748031497,
          "duration": 0.39144678125001064
        },
        {
          "name": "C4",
          "midi": 60,
          "time": 294.4732425000011,
          "velocity": 0.7874015748031497,
          "duration": 0.06578937500000848
        },
        {
          "name": "F#4",
          "midi": 66,
          "time": 294.4732425000011,
          "velocity": 0.7874015748031497,
          "duration": 0.06578937500000848
        },
        {
          "name": "C#5",
          "midi": 73,
          "time": 294.4732425000011,
          "velocity": 0.7874015748031497,
          "duration": 0.06578937500000848
        },
        {
          "name": "F#5",
          "midi": 78,
          "time": 294.4732425000011,
          "velocity": 0.7874015748031497,
          "duration": 0.06578937500000848
        },
        {
          "name": "C#6",
          "midi": 85,
          "time": 294.4732425000011,
          "velocity": 0.7874015748031497,
          "duration": 0.06578937500000848
        },
        {
          "name": "F#6",
          "midi": 90,
          "time": 294.4732425000011,
          "velocity": 0.7874015748031497,
          "duration": 0.06578937500000848
        },
        {
          "name": "C#7",
          "midi": 97,
          "time": 294.4732425000011,
          "velocity": 0.7874015748031497,
          "duration": 0.06578937500000848
        },
        {
          "name": "F#7",
          "midi": 102,
          "time": 294.4732425000011,
          "velocity": 0.7874015748031497,
          "duration": 0.06578937500000848
        },
        {
          "name": "D4",
          "midi": 62,
          "time": 294.73640000000114,
          "velocity": 0.7874015748031497,
          "duration": 0.06469288541666174
        },
        {
          "name": "F#4",
          "midi": 66,
          "time": 294.73640000000114,
          "velocity": 0.7874015748031497,
          "duration": 0.06469288541666174
        },
        {
          "name": "D#5",
          "midi": 75,
          "time": 294.73640000000114,
          "velocity": 0.7874015748031497,
          "duration": 0.06469288541666174
        },
        {
          "name": "F#5",
          "midi": 78,
          "time": 294.73640000000114,
          "velocity": 0.7874015748031497,
          "duration": 0.06469288541666174
        },
        {
          "name": "E6",
          "midi": 88,
          "time": 294.73640000000114,
          "velocity": 0.7874015748031497,
          "duration": 0.06469288541666174
        },
        {
          "name": "F#6",
          "midi": 90,
          "time": 294.73640000000114,
          "velocity": 0.7874015748031497,
          "duration": 0.06469288541666174
        },
        {
          "name": "E7",
          "midi": 100,
          "time": 294.73640000000114,
          "velocity": 0.7874015748031497,
          "duration": 0.06469288541666174
        },
        {
          "name": "F#7",
          "midi": 102,
          "time": 294.73640000000114,
          "velocity": 0.7874015748031497,
          "duration": 0.06469288541666174
        },
        {
          "name": "E7",
          "midi": 100,
          "time": 294.86797875000116,
          "velocity": 0.7874015748031497,
          "duration": 0.06469288541666174
        },
        {
          "name": "F#7",
          "midi": 102,
          "time": 294.86797875000116,
          "velocity": 0.7874015748031497,
          "duration": 0.06469288541666174
        },
        {
          "name": "D5",
          "midi": 74,
          "time": 294.9984610104178,
          "velocity": 0.7874015748031497,
          "duration": 0.06578937500000848
        },
        {
          "name": "F5",
          "midi": 77,
          "time": 294.9984610104178,
          "velocity": 0.7874015748031497,
          "duration": 0.06578937500000848
        },
        {
          "name": "D#6",
          "midi": 87,
          "time": 294.9984610104178,
          "velocity": 0.7874015748031497,
          "duration": 0.06578937500000848
        },
        {
          "name": "F6",
          "midi": 89,
          "time": 294.9984610104178,
          "velocity": 0.7874015748031497,
          "duration": 0.06578937500000848
        },
        {
          "name": "D#7",
          "midi": 99,
          "time": 294.9984610104178,
          "velocity": 0.7874015748031497,
          "duration": 0.06578937500000848
        },
        {
          "name": "F7",
          "midi": 101,
          "time": 294.9984610104178,
          "velocity": 0.7874015748031497,
          "duration": 0.06578937500000848
        },
        {
          "name": "D4",
          "midi": 62,
          "time": 295.1311362500012,
          "velocity": 0.7874015748031497,
          "duration": 0.06578937500000848
        },
        {
          "name": "F#4",
          "midi": 66,
          "time": 295.1311362500012,
          "velocity": 0.7874015748031497,
          "duration": 0.06578937500000848
        },
        {
          "name": "D#5",
          "midi": 75,
          "time": 295.1311362500012,
          "velocity": 0.7874015748031497,
          "duration": 0.06578937500000848
        },
        {
          "name": "F5",
          "midi": 77,
          "time": 295.1311362500012,
          "velocity": 0.7874015748031497,
          "duration": 0.06578937500000848
        },
        {
          "name": "E6",
          "midi": 88,
          "time": 295.1311362500012,
          "velocity": 0.7874015748031497,
          "duration": 0.06578937500000848
        },
        {
          "name": "F6",
          "midi": 89,
          "time": 295.1311362500012,
          "velocity": 0.7874015748031497,
          "duration": 0.06578937500000848
        },
        {
          "name": "E7",
          "midi": 100,
          "time": 295.1311362500012,
          "velocity": 0.7874015748031497,
          "duration": 0.06578937500000848
        },
        {
          "name": "F7",
          "midi": 101,
          "time": 295.1311362500012,
          "velocity": 0.7874015748031497,
          "duration": 0.06578937500000848
        },
        {
          "name": "D#7",
          "midi": 99,
          "time": 295.2627150000012,
          "velocity": 0.7874015748031497,
          "duration": 0.06469288541666174
        },
        {
          "name": "F7",
          "midi": 101,
          "time": 295.2627150000012,
          "velocity": 0.7874015748031497,
          "duration": 0.06469288541666174
        },
        {
          "name": "C#4",
          "midi": 61,
          "time": 295.3942937500012,
          "velocity": 0.7874015748031497,
          "duration": 0.06469288541666174
        },
        {
          "name": "F4",
          "midi": 65,
          "time": 295.3942937500012,
          "velocity": 0.7874015748031497,
          "duration": 0.06469288541666174
        },
        {
          "name": "D5",
          "midi": 74,
          "time": 295.3942937500012,
          "velocity": 0.7874015748031497,
          "duration": 0.06469288541666174
        },
        {
          "name": "F5",
          "midi": 77,
          "time": 295.3942937500012,
          "velocity": 0.7874015748031497,
          "duration": 0.06469288541666174
        },
        {
          "name": "D#6",
          "midi": 87,
          "time": 295.3942937500012,
          "velocity": 0.7874015748031497,
          "duration": 0.06469288541666174
        },
        {
          "name": "F6",
          "midi": 89,
          "time": 295.3942937500012,
          "velocity": 0.7874015748031497,
          "duration": 0.06469288541666174
        },
        {
          "name": "D7",
          "midi": 98,
          "time": 295.3942937500012,
          "velocity": 0.7874015748031497,
          "duration": 0.06469288541666174
        },
        {
          "name": "F7",
          "midi": 101,
          "time": 295.3942937500012,
          "velocity": 0.7874015748031497,
          "duration": 0.06469288541666174
        },
        {
          "name": "D6",
          "midi": 86,
          "time": 295.5247760104179,
          "velocity": 0.7874015748031497,
          "duration": 0.06578937500000848
        },
        {
          "name": "F6",
          "midi": 89,
          "time": 295.5247760104179,
          "velocity": 0.7874015748031497,
          "duration": 0.06578937500000848
        },
        {
          "name": "D7",
          "midi": 98,
          "time": 295.5247760104179,
          "velocity": 0.7874015748031497,
          "duration": 0.06578937500000848
        },
        {
          "name": "F#7",
          "midi": 102,
          "time": 295.5247760104179,
          "velocity": 0.7874015748031497,
          "duration": 0.06578937500000848
        },
        {
          "name": "C4",
          "midi": 60,
          "time": 295.7890300000012,
          "velocity": 0.7874015748031497,
          "duration": 1.0515335104166752
        },
        {
          "name": "F#4",
          "midi": 66,
          "time": 295.7890300000012,
          "velocity": 0.7874015748031497,
          "duration": 1.0504370208333285
        },
        {
          "name": "C#5",
          "midi": 73,
          "time": 295.7890300000012,
          "velocity": 0.7874015748031497,
          "duration": 1.0515335104166752
        },
        {
          "name": "F#5",
          "midi": 78,
          "time": 295.7890300000012,
          "velocity": 0.7874015748031497,
          "duration": 1.0504370208333285
        },
        {
          "name": "C#6",
          "midi": 85,
          "time": 295.7890300000012,
          "velocity": 0.7874015748031497,
          "duration": 1.0515335104166752
        },
        {
          "name": "F#6",
          "midi": 90,
          "time": 295.7890300000012,
          "velocity": 0.7874015748031497,
          "duration": 1.0504370208333285
        },
        {
          "name": "C#7",
          "midi": 97,
          "time": 295.7890300000012,
          "velocity": 0.7874015748031497,
          "duration": 1.0515335104166752
        },
        {
          "name": "F#7",
          "midi": 102,
          "time": 295.7890300000012,
          "velocity": 0.7874015748031497,
          "duration": 1.0504370208333285
        },
        {
          "name": "D4",
          "midi": 62,
          "time": 296.84166000000124,
          "velocity": 0.7874015748031497,
          "duration": 0.06469288541666174
        },
        {
          "name": "F#4",
          "midi": 66,
          "time": 296.84166000000124,
          "velocity": 0.7874015748031497,
          "duration": 0.06469288541666174
        },
        {
          "name": "D#5",
          "midi": 75,
          "time": 296.84166000000124,
          "velocity": 0.7874015748031497,
          "duration": 0.06469288541666174
        },
        {
          "name": "F#5",
          "midi": 78,
          "time": 296.84166000000124,
          "velocity": 0.7874015748031497,
          "duration": 0.06469288541666174
        },
        {
          "name": "E6",
          "midi": 88,
          "time": 296.84166000000124,
          "velocity": 0.7874015748031497,
          "duration": 0.06469288541666174
        },
        {
          "name": "F#6",
          "midi": 90,
          "time": 296.84166000000124,
          "velocity": 0.7874015748031497,
          "duration": 0.06469288541666174
        },
        {
          "name": "E7",
          "midi": 100,
          "time": 296.84166000000124,
          "velocity": 0.7874015748031497,
          "duration": 0.06469288541666174
        },
        {
          "name": "F#7",
          "midi": 102,
          "time": 296.84166000000124,
          "velocity": 0.7874015748031497,
          "duration": 0.06469288541666174
        },
        {
          "name": "E7",
          "midi": 100,
          "time": 296.97433523958455,
          "velocity": 0.7874015748031497,
          "duration": 0.06469288541666174
        },
        {
          "name": "F#7",
          "midi": 102,
          "time": 296.97433523958455,
          "velocity": 0.7874015748031497,
          "duration": 0.06469288541666174
        },
        {
          "name": "D5",
          "midi": 74,
          "time": 297.1048175000012,
          "velocity": 0.7874015748031497,
          "duration": 0.06469288541666174
        },
        {
          "name": "F5",
          "midi": 77,
          "time": 297.1048175000012,
          "velocity": 0.7874015748031497,
          "duration": 0.06469288541666174
        },
        {
          "name": "D#6",
          "midi": 87,
          "time": 297.1048175000012,
          "velocity": 0.7874015748031497,
          "duration": 0.06469288541666174
        },
        {
          "name": "F6",
          "midi": 89,
          "time": 297.1048175000012,
          "velocity": 0.7874015748031497,
          "duration": 0.06469288541666174
        },
        {
          "name": "D#7",
          "midi": 99,
          "time": 297.1048175000012,
          "velocity": 0.7874015748031497,
          "duration": 0.06469288541666174
        },
        {
          "name": "F7",
          "midi": 101,
          "time": 297.1048175000012,
          "velocity": 0.7874015748031497,
          "duration": 0.06469288541666174
        },
        {
          "name": "D4",
          "midi": 62,
          "time": 297.2352997604179,
          "velocity": 0.7874015748031497,
          "duration": 0.06578937500000848
        },
        {
          "name": "F#4",
          "midi": 66,
          "time": 297.2352997604179,
          "velocity": 0.7874015748031497,
          "duration": 0.06578937500000848
        },
        {
          "name": "D#5",
          "midi": 75,
          "time": 297.2352997604179,
          "velocity": 0.7874015748031497,
          "duration": 0.06578937500000848
        },
        {
          "name": "F5",
          "midi": 77,
          "time": 297.2352997604179,
          "velocity": 0.7874015748031497,
          "duration": 0.06578937500000848
        },
        {
          "name": "E6",
          "midi": 88,
          "time": 297.2352997604179,
          "velocity": 0.7874015748031497,
          "duration": 0.06578937500000848
        },
        {
          "name": "F6",
          "midi": 89,
          "time": 297.2352997604179,
          "velocity": 0.7874015748031497,
          "duration": 0.06578937500000848
        },
        {
          "name": "E7",
          "midi": 100,
          "time": 297.2352997604179,
          "velocity": 0.7874015748031497,
          "duration": 0.06578937500000848
        },
        {
          "name": "F7",
          "midi": 101,
          "time": 297.2352997604179,
          "velocity": 0.7874015748031497,
          "duration": 0.06578937500000848
        },
        {
          "name": "D#7",
          "midi": 99,
          "time": 297.36797500000125,
          "velocity": 0.7874015748031497,
          "duration": 0.06578937500000848
        },
        {
          "name": "F7",
          "midi": 101,
          "time": 297.36797500000125,
          "velocity": 0.7874015748031497,
          "duration": 0.06578937500000848
        },
        {
          "name": "C#4",
          "midi": 61,
          "time": 297.49955375000127,
          "velocity": 0.7874015748031497,
          "duration": 0.06578937500000848
        },
        {
          "name": "F4",
          "midi": 65,
          "time": 297.49955375000127,
          "velocity": 0.7874015748031497,
          "duration": 0.06578937500000848
        },
        {
          "name": "D5",
          "midi": 74,
          "time": 297.49955375000127,
          "velocity": 0.7874015748031497,
          "duration": 0.06578937500000848
        },
        {
          "name": "F5",
          "midi": 77,
          "time": 297.49955375000127,
          "velocity": 0.7874015748031497,
          "duration": 0.06578937500000848
        },
        {
          "name": "D#6",
          "midi": 87,
          "time": 297.49955375000127,
          "velocity": 0.7874015748031497,
          "duration": 0.06578937500000848
        },
        {
          "name": "F6",
          "midi": 89,
          "time": 297.49955375000127,
          "velocity": 0.7874015748031497,
          "duration": 0.06578937500000848
        },
        {
          "name": "D7",
          "midi": 98,
          "time": 297.49955375000127,
          "velocity": 0.7874015748031497,
          "duration": 0.06578937500000848
        },
        {
          "name": "F7",
          "midi": 101,
          "time": 297.49955375000127,
          "velocity": 0.7874015748031497,
          "duration": 0.06578937500000848
        },
        {
          "name": "D6",
          "midi": 86,
          "time": 297.6311325000013,
          "velocity": 0.7874015748031497,
          "duration": 0.06578937500000848
        },
        {
          "name": "F6",
          "midi": 89,
          "time": 297.6311325000013,
          "velocity": 0.7874015748031497,
          "duration": 0.06578937500000848
        },
        {
          "name": "D#7",
          "midi": 99,
          "time": 297.6311325000013,
          "velocity": 0.7874015748031497,
          "duration": 0.06578937500000848
        },
        {
          "name": "F7",
          "midi": 101,
          "time": 297.6311325000013,
          "velocity": 0.7874015748031497,
          "duration": 0.06578937500000848
        },
        {
          "name": "D#7",
          "midi": 99,
          "time": 297.7627112500013,
          "velocity": 0.7874015748031497,
          "duration": 0.06578937500000848
        },
        {
          "name": "F#7",
          "midi": 102,
          "time": 297.7627112500013,
          "velocity": 0.7874015748031497,
          "duration": 0.06578937500000848
        },
        {
          "name": "C#4",
          "midi": 61,
          "time": 297.8942900000013,
          "velocity": 0.7874015748031497,
          "duration": 0.3903502916666639
        },
        {
          "name": "F#4",
          "midi": 66,
          "time": 297.8942900000013,
          "velocity": 0.7874015748031497,
          "duration": 0.3903502916666639
        },
        {
          "name": "D5",
          "midi": 74,
          "time": 297.8942900000013,
          "velocity": 0.7874015748031497,
          "duration": 0.3903502916666639
        },
        {
          "name": "F#5",
          "midi": 78,
          "time": 297.8942900000013,
          "velocity": 0.7874015748031497,
          "duration": 0.3903502916666639
        },
        {
          "name": "D6",
          "midi": 86,
          "time": 297.8942900000013,
          "velocity": 0.7874015748031497,
          "duration": 0.3903502916666639
        },
        {
          "name": "F#6",
          "midi": 90,
          "time": 297.8942900000013,
          "velocity": 0.7874015748031497,
          "duration": 0.3903502916666639
        },
        {
          "name": "D7",
          "midi": 98,
          "time": 297.8942900000013,
          "velocity": 0.7874015748031497,
          "duration": 0.3903502916666639
        },
        {
          "name": "F7",
          "midi": 101,
          "time": 297.8942900000013,
          "velocity": 0.7874015748031497,
          "duration": 0.3903502916666639
        },
        {
          "name": "D4",
          "midi": 62,
          "time": 298.2890262500013,
          "velocity": 0.7874015748031497,
          "duration": 0.39144678125001064
        },
        {
          "name": "F#4",
          "midi": 66,
          "time": 298.2890262500013,
          "velocity": 0.7874015748031497,
          "duration": 0.39144678125001064
        },
        {
          "name": "D#5",
          "midi": 75,
          "time": 298.2890262500013,
          "velocity": 0.7874015748031497,
          "duration": 0.39144678125001064
        },
        {
          "name": "F#5",
          "midi": 78,
          "time": 298.2890262500013,
          "velocity": 0.7874015748031497,
          "duration": 0.39144678125001064
        },
        {
          "name": "D#6",
          "midi": 87,
          "time": 298.2890262500013,
          "velocity": 0.7874015748031497,
          "duration": 0.39144678125001064
        },
        {
          "name": "F#6",
          "midi": 90,
          "time": 298.2890262500013,
          "velocity": 0.7874015748031497,
          "duration": 0.39144678125001064
        },
        {
          "name": "D#7",
          "midi": 99,
          "time": 298.2890262500013,
          "velocity": 0.7874015748031497,
          "duration": 0.39144678125001064
        },
        {
          "name": "F#7",
          "midi": 102,
          "time": 298.2890262500013,
          "velocity": 0.7874015748031497,
          "duration": 0.39144678125001064
        },
        {
          "name": "C4",
          "midi": 60,
          "time": 298.68485898958465,
          "velocity": 0.7874015748031497,
          "duration": 0.06469288541666174
        },
        {
          "name": "F#4",
          "midi": 66,
          "time": 298.68485898958465,
          "velocity": 0.7874015748031497,
          "duration": 0.06469288541666174
        },
        {
          "name": "C#5",
          "midi": 73,
          "time": 298.68485898958465,
          "velocity": 0.7874015748031497,
          "duration": 0.06469288541666174
        },
        {
          "name": "F#5",
          "midi": 78,
          "time": 298.68485898958465,
          "velocity": 0.7874015748031497,
          "duration": 0.06469288541666174
        },
        {
          "name": "C#6",
          "midi": 85,
          "time": 298.68485898958465,
          "velocity": 0.7874015748031497,
          "duration": 0.06469288541666174
        },
        {
          "name": "F#6",
          "midi": 90,
          "time": 298.68485898958465,
          "velocity": 0.7874015748031497,
          "duration": 0.06469288541666174
        },
        {
          "name": "C7",
          "midi": 96,
          "time": 298.68485898958465,
          "velocity": 0.7874015748031497,
          "duration": 0.06469288541666174
        },
        {
          "name": "F#7",
          "midi": 102,
          "time": 298.68485898958465,
          "velocity": 0.7874015748031497,
          "duration": 0.06469288541666174
        },
        {
          "name": "C4",
          "midi": 60,
          "time": 298.94692000000134,
          "velocity": 0.7874015748031497,
          "duration": 0.3936397604167041
        },
        {
          "name": "F#4",
          "midi": 66,
          "time": 298.94692000000134,
          "velocity": 0.7874015748031497,
          "duration": 0.3925432708333574
        },
        {
          "name": "C5",
          "midi": 72,
          "time": 298.94692000000134,
          "velocity": 0.7874015748031497,
          "duration": 0.3936397604167041
        },
        {
          "name": "F#5",
          "midi": 78,
          "time": 298.94692000000134,
          "velocity": 0.7874015748031497,
          "duration": 0.3925432708333574
        },
        {
          "name": "C#6",
          "midi": 85,
          "time": 298.94692000000134,
          "velocity": 0.7874015748031497,
          "duration": 0.3936397604167041
        },
        {
          "name": "F#6",
          "midi": 90,
          "time": 298.94692000000134,
          "velocity": 0.7874015748031497,
          "duration": 0.3925432708333574
        },
        {
          "name": "C#7",
          "midi": 97,
          "time": 298.94692000000134,
          "velocity": 0.7874015748031497,
          "duration": 0.3936397604167041
        },
        {
          "name": "F#7",
          "midi": 102,
          "time": 298.94692000000134,
          "velocity": 0.7874015748031497,
          "duration": 0.3925432708333574
        },
        {
          "name": "C#4",
          "midi": 61,
          "time": 299.3416562500014,
          "velocity": 0.7874015748031497,
          "duration": 0.32785038541669564
        },
        {
          "name": "F#4",
          "midi": 66,
          "time": 299.3416562500014,
          "velocity": 0.7874015748031497,
          "duration": 0.3267538958333489
        },
        {
          "name": "C#5",
          "midi": 73,
          "time": 299.3416562500014,
          "velocity": 0.7874015748031497,
          "duration": 0.32785038541669564
        },
        {
          "name": "F#5",
          "midi": 78,
          "time": 299.3416562500014,
          "velocity": 0.7874015748031497,
          "duration": 0.3267538958333489
        },
        {
          "name": "D6",
          "midi": 86,
          "time": 299.3416562500014,
          "velocity": 0.7874015748031497,
          "duration": 0.32785038541669564
        },
        {
          "name": "F#6",
          "midi": 90,
          "time": 299.3416562500014,
          "velocity": 0.7874015748031497,
          "duration": 0.3267538958333489
        },
        {
          "name": "D7",
          "midi": 98,
          "time": 299.3416562500014,
          "velocity": 0.7874015748031497,
          "duration": 0.32785038541669564
        },
        {
          "name": "F#7",
          "midi": 102,
          "time": 299.3416562500014,
          "velocity": 0.7874015748031497,
          "duration": 0.3267538958333489
        },
        {
          "name": "D4",
          "midi": 62,
          "time": 299.67060312500143,
          "velocity": 0.7874015748031497,
          "duration": 0.32785038541669564
        },
        {
          "name": "F#4",
          "midi": 66,
          "time": 299.67060312500143,
          "velocity": 0.7874015748031497,
          "duration": 0.3267538958333489
        },
        {
          "name": "D5",
          "midi": 74,
          "time": 299.67060312500143,
          "velocity": 0.7874015748031497,
          "duration": 0.32785038541669564
        },
        {
          "name": "F#5",
          "midi": 78,
          "time": 299.67060312500143,
          "velocity": 0.7874015748031497,
          "duration": 0.3267538958333489
        },
        {
          "name": "D#6",
          "midi": 87,
          "time": 299.67060312500143,
          "velocity": 0.7874015748031497,
          "duration": 0.32785038541669564
        },
        {
          "name": "F#6",
          "midi": 90,
          "time": 299.67060312500143,
          "velocity": 0.7874015748031497,
          "duration": 0.3267538958333489
        },
        {
          "name": "D#7",
          "midi": 99,
          "time": 299.67060312500143,
          "velocity": 0.7874015748031497,
          "duration": 0.32785038541669564
        },
        {
          "name": "F#7",
          "midi": 102,
          "time": 299.67060312500143,
          "velocity": 0.7874015748031497,
          "duration": 0.3267538958333489
        },
        {
          "name": "C4",
          "midi": 60,
          "time": 299.9995500000015,
          "velocity": 0.7874015748031497,
          "duration": 1.052630000000022
        },
        {
          "name": "F#4",
          "midi": 66,
          "time": 299.9995500000015,
          "velocity": 0.7874015748031497,
          "duration": 1.052630000000022
        },
        {
          "name": "C5",
          "midi": 72,
          "time": 299.9995500000015,
          "velocity": 0.7874015748031497,
          "duration": 1.052630000000022
        },
        {
          "name": "F#5",
          "midi": 78,
          "time": 299.9995500000015,
          "velocity": 0.7874015748031497,
          "duration": 1.052630000000022
        },
        {
          "name": "C6",
          "midi": 84,
          "time": 299.9995500000015,
          "velocity": 0.7874015748031497,
          "duration": 1.052630000000022
        },
        {
          "name": "F#6",
          "midi": 90,
          "time": 299.9995500000015,
          "velocity": 0.7874015748031497,
          "duration": 1.052630000000022
        },
        {
          "name": "C7",
          "midi": 96,
          "time": 299.9995500000015,
          "velocity": 0.7874015748031497,
          "duration": 1.052630000000022
        },
        {
          "name": "F#7",
          "midi": 102,
          "time": 299.9995500000015,
          "velocity": 0.7874015748031497,
          "duration": 1.052630000000022
        },
        {
          "name": "C4",
          "midi": 60,
          "time": 301.3142410104182,
          "velocity": 0.7874015748031497,
          "duration": 0.06469288541666174
        },
        {
          "name": "F#4",
          "midi": 66,
          "time": 301.3142410104182,
          "velocity": 0.7874015748031497,
          "duration": 0.06469288541666174
        },
        {
          "name": "C5",
          "midi": 72,
          "time": 301.3142410104182,
          "velocity": 0.7874015748031497,
          "duration": 0.06469288541666174
        },
        {
          "name": "F#5",
          "midi": 78,
          "time": 301.3142410104182,
          "velocity": 0.7874015748031497,
          "duration": 0.06469288541666174
        },
        {
          "name": "C#6",
          "midi": 85,
          "time": 301.3142410104182,
          "velocity": 0.7874015748031497,
          "duration": 0.06469288541666174
        },
        {
          "name": "F#6",
          "midi": 90,
          "time": 301.3142410104182,
          "velocity": 0.7874015748031497,
          "duration": 0.06469288541666174
        },
        {
          "name": "C#7",
          "midi": 97,
          "time": 301.3142410104182,
          "velocity": 0.7874015748031497,
          "duration": 0.06469288541666174
        },
        {
          "name": "F#7",
          "midi": 102,
          "time": 301.3142410104182,
          "velocity": 0.7874015748031497,
          "duration": 0.06469288541666174
        },
        {
          "name": "C4",
          "midi": 60,
          "time": 301.5784950000015,
          "velocity": 0.7874015748031497,
          "duration": 0.06469288541666174
        },
        {
          "name": "F#4",
          "midi": 66,
          "time": 301.5784950000015,
          "velocity": 0.7874015748031497,
          "duration": 0.06469288541666174
        },
        {
          "name": "C#5",
          "midi": 73,
          "time": 301.5784950000015,
          "velocity": 0.7874015748031497,
          "duration": 0.06469288541666174
        },
        {
          "name": "F#5",
          "midi": 78,
          "time": 301.5784950000015,
          "velocity": 0.7874015748031497,
          "duration": 0.06469288541666174
        },
        {
          "name": "D6",
          "midi": 86,
          "time": 301.5784950000015,
          "velocity": 0.7874015748031497,
          "duration": 0.06469288541666174
        },
        {
          "name": "F#6",
          "midi": 90,
          "time": 301.5784950000015,
          "velocity": 0.7874015748031497,
          "duration": 0.06469288541666174
        },
        {
          "name": "D7",
          "midi": 98,
          "time": 301.5784950000015,
          "velocity": 0.7874015748031497,
          "duration": 0.06469288541666174
        },
        {
          "name": "F#7",
          "midi": 102,
          "time": 301.5784950000015,
          "velocity": 0.7874015748031497,
          "duration": 0.06469288541666174
        },
        {
          "name": "C#4",
          "midi": 61,
          "time": 301.84274898958483,
          "velocity": 0.7874015748031497,
          "duration": 0.06469288541666174
        },
        {
          "name": "F#4",
          "midi": 66,
          "time": 301.84274898958483,
          "velocity": 0.7874015748031497,
          "duration": 0.06469288541666174
        },
        {
          "name": "D5",
          "midi": 74,
          "time": 301.84274898958483,
          "velocity": 0.7874015748031497,
          "duration": 0.06469288541666174
        },
        {
          "name": "F#5",
          "midi": 78,
          "time": 301.84274898958483,
          "velocity": 0.7874015748031497,
          "duration": 0.06469288541666174
        },
        {
          "name": "D#6",
          "midi": 87,
          "time": 301.84274898958483,
          "velocity": 0.7874015748031497,
          "duration": 0.06469288541666174
        },
        {
          "name": "F#6",
          "midi": 90,
          "time": 301.84274898958483,
          "velocity": 0.7874015748031497,
          "duration": 0.06469288541666174
        },
        {
          "name": "D#7",
          "midi": 99,
          "time": 301.84274898958483,
          "velocity": 0.7874015748031497,
          "duration": 0.06469288541666174
        },
        {
          "name": "F#7",
          "midi": 102,
          "time": 301.84274898958483,
          "velocity": 0.7874015748031497,
          "duration": 0.06469288541666174
        },
        {
          "name": "D4",
          "midi": 62,
          "time": 302.1048100000015,
          "velocity": 0.7874015748031497,
          "duration": 0.5252185104166642
        },
        {
          "name": "F4",
          "midi": 65,
          "time": 302.1048100000015,
          "velocity": 0.7874015748031497,
          "duration": 0.5241220208333175
        },
        {
          "name": "D#5",
          "midi": 75,
          "time": 302.1048100000015,
          "velocity": 0.7874015748031497,
          "duration": 0.5252185104166642
        },
        {
          "name": "F5",
          "midi": 77,
          "time": 302.1048100000015,
          "velocity": 0.7874015748031497,
          "duration": 0.5241220208333175
        },
        {
          "name": "E6",
          "midi": 88,
          "time": 302.1048100000015,
          "velocity": 0.7874015748031497,
          "duration": 0.5252185104166642
        },
        {
          "name": "F6",
          "midi": 89,
          "time": 302.1048100000015,
          "velocity": 0.7874015748031497,
          "duration": 0.5241220208333175
        },
        {
          "name": "E7",
          "midi": 100,
          "time": 302.1048100000015,
          "velocity": 0.7874015748031497,
          "duration": 0.5252185104166642
        },
        {
          "name": "F7",
          "midi": 101,
          "time": 302.1048100000015,
          "velocity": 0.7874015748031497,
          "duration": 0.5241220208333175
        },
        {
          "name": "C#4",
          "midi": 61,
          "time": 302.63112500000153,
          "velocity": 0.7874015748031497,
          "duration": 0.5230255312500276
        },
        {
          "name": "F4",
          "midi": 65,
          "time": 302.63112500000153,
          "velocity": 0.7874015748031497,
          "duration": 0.5230255312500276
        },
        {
          "name": "D5",
          "midi": 74,
          "time": 302.63112500000153,
          "velocity": 0.7874015748031497,
          "duration": 0.5230255312500276
        },
        {
          "name": "F5",
          "midi": 77,
          "time": 302.63112500000153,
          "velocity": 0.7874015748031497,
          "duration": 0.5230255312500276
        },
        {
          "name": "D#6",
          "midi": 87,
          "time": 302.63112500000153,
          "velocity": 0.7874015748031497,
          "duration": 0.5230255312500276
        },
        {
          "name": "F6",
          "midi": 89,
          "time": 302.63112500000153,
          "velocity": 0.7874015748031497,
          "duration": 0.5230255312500276
        },
        {
          "name": "D#7",
          "midi": 99,
          "time": 302.63112500000153,
          "velocity": 0.7874015748031497,
          "duration": 0.5230255312500276
        },
        {
          "name": "F7",
          "midi": 101,
          "time": 302.63112500000153,
          "velocity": 0.7874015748031497,
          "duration": 0.5230255312500276
        },
        {
          "name": "C4",
          "midi": 60,
          "time": 303.15744000000154,
          "velocity": 0.7874015748031497,
          "duration": 0.3925432708333574
        },
        {
          "name": "F#4",
          "midi": 66,
          "time": 303.15744000000154,
          "velocity": 0.7874015748031497,
          "duration": 0.39144678125001064
        },
        {
          "name": "C5",
          "midi": 72,
          "time": 303.15744000000154,
          "velocity": 0.7874015748031497,
          "duration": 0.3925432708333574
        },
        {
          "name": "F#5",
          "midi": 78,
          "time": 303.15744000000154,
          "velocity": 0.7874015748031497,
          "duration": 0.39144678125001064
        },
        {
          "name": "C#6",
          "midi": 85,
          "time": 303.15744000000154,
          "velocity": 0.7874015748031497,
          "duration": 0.3925432708333574
        },
        {
          "name": "F#6",
          "midi": 90,
          "time": 303.15744000000154,
          "velocity": 0.7874015748031497,
          "duration": 0.39144678125001064
        },
        {
          "name": "C#7",
          "midi": 97,
          "time": 303.15744000000154,
          "velocity": 0.7874015748031497,
          "duration": 0.3925432708333574
        },
        {
          "name": "F#7",
          "midi": 102,
          "time": 303.15744000000154,
          "velocity": 0.7874015748031497,
          "duration": 0.39144678125001064
        },
        {
          "name": "C#4",
          "midi": 61,
          "time": 303.55107976041825,
          "velocity": 0.7874015748031497,
          "duration": 0.3300433645833323
        },
        {
          "name": "F#4",
          "midi": 66,
          "time": 303.55107976041825,
          "velocity": 0.7874015748031497,
          "duration": 0.32894687499998554
        },
        {
          "name": "C#5",
          "midi": 73,
          "time": 303.55107976041825,
          "velocity": 0.7874015748031497,
          "duration": 0.3300433645833323
        },
        {
          "name": "F#5",
          "midi": 78,
          "time": 303.55107976041825,
          "velocity": 0.7874015748031497,
          "duration": 0.32894687499998554
        },
        {
          "name": "D6",
          "midi": 86,
          "time": 303.55107976041825,
          "velocity": 0.7874015748031497,
          "duration": 0.3300433645833323
        },
        {
          "name": "F#6",
          "midi": 90,
          "time": 303.55107976041825,
          "velocity": 0.7874015748031497,
          "duration": 0.32894687499998554
        },
        {
          "name": "D7",
          "midi": 98,
          "time": 303.55107976041825,
          "velocity": 0.7874015748031497,
          "duration": 0.3300433645833323
        },
        {
          "name": "F#7",
          "midi": 102,
          "time": 303.55107976041825,
          "velocity": 0.7874015748031497,
          "duration": 0.32894687499998554
        },
        {
          "name": "D4",
          "midi": 62,
          "time": 303.8822196145849,
          "velocity": 0.7874015748031497,
          "duration": 0.3278503854166388
        },
        {
          "name": "F#4",
          "midi": 66,
          "time": 303.8822196145849,
          "velocity": 0.7874015748031497,
          "duration": 0.3278503854166388
        },
        {
          "name": "D5",
          "midi": 74,
          "time": 303.8822196145849,
          "velocity": 0.7874015748031497,
          "duration": 0.3278503854166388
        },
        {
          "name": "F#5",
          "midi": 78,
          "time": 303.8822196145849,
          "velocity": 0.7874015748031497,
          "duration": 0.3278503854166388
        },
        {
          "name": "D#6",
          "midi": 87,
          "time": 303.8822196145849,
          "velocity": 0.7874015748031497,
          "duration": 0.3278503854166388
        },
        {
          "name": "F#6",
          "midi": 90,
          "time": 303.8822196145849,
          "velocity": 0.7874015748031497,
          "duration": 0.3278503854166388
        },
        {
          "name": "D#7",
          "midi": 99,
          "time": 303.8822196145849,
          "velocity": 0.7874015748031497,
          "duration": 0.3278503854166388
        },
        {
          "name": "F#7",
          "midi": 102,
          "time": 303.8822196145849,
          "velocity": 0.7874015748031497,
          "duration": 0.3278503854166388
        },
        {
          "name": "C4",
          "midi": 60,
          "time": 304.21007000000156,
          "velocity": 0.7874015748031497,
          "duration": 0.06688586458335521
        },
        {
          "name": "F#4",
          "midi": 66,
          "time": 304.21007000000156,
          "velocity": 0.7874015748031497,
          "duration": 0.06688586458335521
        },
        {
          "name": "C5",
          "midi": 72,
          "time": 304.21007000000156,
          "velocity": 0.7874015748031497,
          "duration": 0.06688586458335521
        },
        {
          "name": "F#5",
          "midi": 78,
          "time": 304.21007000000156,
          "velocity": 0.7874015748031497,
          "duration": 0.06688586458335521
        },
        {
          "name": "C6",
          "midi": 84,
          "time": 304.21007000000156,
          "velocity": 0.7874015748031497,
          "duration": 0.06688586458335521
        },
        {
          "name": "F#6",
          "midi": 90,
          "time": 304.21007000000156,
          "velocity": 0.7874015748031497,
          "duration": 0.06688586458335521
        },
        {
          "name": "C7",
          "midi": 96,
          "time": 304.21007000000156,
          "velocity": 0.7874015748031497,
          "duration": 0.06688586458335521
        },
        {
          "name": "F#7",
          "midi": 102,
          "time": 304.21007000000156,
          "velocity": 0.7874015748031497,
          "duration": 0.06688586458335521
        },
        {
          "name": "C7",
          "midi": 96,
          "time": 304.34274523958493,
          "velocity": 0.7874015748031497,
          "duration": 0.06469288541666174
        },
        {
          "name": "F#7",
          "midi": 102,
          "time": 304.34274523958493,
          "velocity": 0.7874015748031497,
          "duration": 0.06469288541666174
        },
        {
          "name": "C4",
          "midi": 60,
          "time": 304.4732275000016,
          "velocity": 0.7874015748031497,
          "duration": 0.06578937500000848
        },
        {
          "name": "F#4",
          "midi": 66,
          "time": 304.4732275000016,
          "velocity": 0.7874015748031497,
          "duration": 0.06578937500000848
        },
        {
          "name": "C5",
          "midi": 72,
          "time": 304.4732275000016,
          "velocity": 0.7874015748031497,
          "duration": 0.06578937500000848
        },
        {
          "name": "F#5",
          "midi": 78,
          "time": 304.4732275000016,
          "velocity": 0.7874015748031497,
          "duration": 0.06578937500000848
        },
        {
          "name": "C6",
          "midi": 84,
          "time": 304.4732275000016,
          "velocity": 0.7874015748031497,
          "duration": 0.06578937500000848
        },
        {
          "name": "F#6",
          "midi": 90,
          "time": 304.4732275000016,
          "velocity": 0.7874015748031497,
          "duration": 0.06578937500000848
        },
        {
          "name": "C7",
          "midi": 96,
          "time": 304.4732275000016,
          "velocity": 0.7874015748031497,
          "duration": 0.06578937500000848
        },
        {
          "name": "F#7",
          "midi": 102,
          "time": 304.4732275000016,
          "velocity": 0.7874015748031497,
          "duration": 0.06578937500000848
        },
        {
          "name": "C7",
          "midi": 96,
          "time": 304.60590273958496,
          "velocity": 0.7874015748031497,
          "duration": 0.06469288541666174
        },
        {
          "name": "F#7",
          "midi": 102,
          "time": 304.60590273958496,
          "velocity": 0.7874015748031497,
          "duration": 0.06469288541666174
        },
        {
          "name": "C#4",
          "midi": 61,
          "time": 304.73638500000163,
          "velocity": 0.7874015748031497,
          "duration": 0.5241220208333743
        },
        {
          "name": "F4",
          "midi": 65,
          "time": 304.73638500000163,
          "velocity": 0.7874015748031497,
          "duration": 0.5241220208333743
        },
        {
          "name": "C5",
          "midi": 72,
          "time": 304.73638500000163,
          "velocity": 0.7874015748031497,
          "duration": 0.06469288541666174
        },
        {
          "name": "F#5",
          "midi": 78,
          "time": 304.73638500000163,
          "velocity": 0.7874015748031497,
          "duration": 0.06469288541666174
        },
        {
          "name": "C6",
          "midi": 84,
          "time": 304.73638500000163,
          "velocity": 0.7874015748031497,
          "duration": 0.06469288541666174
        },
        {
          "name": "F#6",
          "midi": 90,
          "time": 304.73638500000163,
          "velocity": 0.7874015748031497,
          "duration": 0.06469288541666174
        },
        {
          "name": "C7",
          "midi": 96,
          "time": 304.73638500000163,
          "velocity": 0.7874015748031497,
          "duration": 0.06469288541666174
        },
        {
          "name": "F#7",
          "midi": 102,
          "time": 304.73638500000163,
          "velocity": 0.7874015748031497,
          "duration": 0.06469288541666174
        },
        {
          "name": "C#5",
          "midi": 73,
          "time": 304.86796375000165,
          "velocity": 0.7874015748031497,
          "duration": 0.3925432708333574
        },
        {
          "name": "F5",
          "midi": 77,
          "time": 304.86796375000165,
          "velocity": 0.7874015748031497,
          "duration": 0.3925432708333574
        },
        {
          "name": "D6",
          "midi": 86,
          "time": 304.86796375000165,
          "velocity": 0.7874015748031497,
          "duration": 0.3925432708333574
        },
        {
          "name": "F6",
          "midi": 89,
          "time": 304.86796375000165,
          "velocity": 0.7874015748031497,
          "duration": 0.3925432708333574
        },
        {
          "name": "D7",
          "midi": 98,
          "time": 304.86796375000165,
          "velocity": 0.7874015748031497,
          "duration": 0.3925432708333574
        },
        {
          "name": "F7",
          "midi": 101,
          "time": 304.86796375000165,
          "velocity": 0.7874015748031497,
          "duration": 0.3925432708333574
        },
        {
          "name": "C4",
          "midi": 60,
          "time": 305.52476101041833,
          "velocity": 0.7874015748031497,
          "duration": 0.06578937500000848
        },
        {
          "name": "F#4",
          "midi": 66,
          "time": 305.52476101041833,
          "velocity": 0.7874015748031497,
          "duration": 0.06578937500000848
        },
        {
          "name": "C5",
          "midi": 72,
          "time": 305.52476101041833,
          "velocity": 0.7874015748031497,
          "duration": 0.06578937500000848
        },
        {
          "name": "F#5",
          "midi": 78,
          "time": 305.52476101041833,
          "velocity": 0.7874015748031497,
          "duration": 0.06578937500000848
        },
        {
          "name": "C#6",
          "midi": 85,
          "time": 305.52476101041833,
          "velocity": 0.7874015748031497,
          "duration": 0.06578937500000848
        },
        {
          "name": "F#6",
          "midi": 90,
          "time": 305.52476101041833,
          "velocity": 0.7874015748031497,
          "duration": 0.06578937500000848
        },
        {
          "name": "C#7",
          "midi": 97,
          "time": 305.52476101041833,
          "velocity": 0.7874015748031497,
          "duration": 0.06578937500000848
        },
        {
          "name": "F#7",
          "midi": 102,
          "time": 305.52476101041833,
          "velocity": 0.7874015748031497,
          "duration": 0.06578937500000848
        },
        {
          "name": "C4",
          "midi": 60,
          "time": 305.78901500000165,
          "velocity": 0.7874015748031497,
          "duration": 0.06469288541666174
        },
        {
          "name": "F#4",
          "midi": 66,
          "time": 305.78901500000165,
          "velocity": 0.7874015748031497,
          "duration": 0.06469288541666174
        },
        {
          "name": "C#5",
          "midi": 73,
          "time": 305.78901500000165,
          "velocity": 0.7874015748031497,
          "duration": 0.06469288541666174
        },
        {
          "name": "F#5",
          "midi": 78,
          "time": 305.78901500000165,
          "velocity": 0.7874015748031497,
          "duration": 0.06469288541666174
        },
        {
          "name": "D6",
          "midi": 86,
          "time": 305.78901500000165,
          "velocity": 0.7874015748031497,
          "duration": 0.06469288541666174
        },
        {
          "name": "F#6",
          "midi": 90,
          "time": 305.78901500000165,
          "velocity": 0.7874015748031497,
          "duration": 0.06469288541666174
        },
        {
          "name": "D7",
          "midi": 98,
          "time": 305.78901500000165,
          "velocity": 0.7874015748031497,
          "duration": 0.06469288541666174
        },
        {
          "name": "F#7",
          "midi": 102,
          "time": 305.78901500000165,
          "velocity": 0.7874015748031497,
          "duration": 0.06469288541666174
        },
        {
          "name": "C#4",
          "midi": 61,
          "time": 306.053268989585,
          "velocity": 0.7874015748031497,
          "duration": 0.06469288541666174
        },
        {
          "name": "F#4",
          "midi": 66,
          "time": 306.053268989585,
          "velocity": 0.7874015748031497,
          "duration": 0.06469288541666174
        },
        {
          "name": "D5",
          "midi": 74,
          "time": 306.053268989585,
          "velocity": 0.7874015748031497,
          "duration": 0.06469288541666174
        },
        {
          "name": "F#5",
          "midi": 78,
          "time": 306.053268989585,
          "velocity": 0.7874015748031497,
          "duration": 0.06469288541666174
        },
        {
          "name": "D#6",
          "midi": 87,
          "time": 306.053268989585,
          "velocity": 0.7874015748031497,
          "duration": 0.06469288541666174
        },
        {
          "name": "F#6",
          "midi": 90,
          "time": 306.053268989585,
          "velocity": 0.7874015748031497,
          "duration": 0.06469288541666174
        },
        {
          "name": "D#7",
          "midi": 99,
          "time": 306.053268989585,
          "velocity": 0.7874015748031497,
          "duration": 0.06469288541666174
        },
        {
          "name": "F#7",
          "midi": 102,
          "time": 306.053268989585,
          "velocity": 0.7874015748031497,
          "duration": 0.06469288541666174
        },
        {
          "name": "D4",
          "midi": 62,
          "time": 306.31533000000167,
          "velocity": 0.7874015748031497,
          "duration": 0.5252185104166642
        },
        {
          "name": "F4",
          "midi": 65,
          "time": 306.31533000000167,
          "velocity": 0.7874015748031497,
          "duration": 0.5241220208333175
        },
        {
          "name": "D#5",
          "midi": 75,
          "time": 306.31533000000167,
          "velocity": 0.7874015748031497,
          "duration": 0.5252185104166642
        },
        {
          "name": "F5",
          "midi": 77,
          "time": 306.31533000000167,
          "velocity": 0.7874015748031497,
          "duration": 0.5241220208333175
        },
        {
          "name": "E6",
          "midi": 88,
          "time": 306.31533000000167,
          "velocity": 0.7874015748031497,
          "duration": 0.5252185104166642
        },
        {
          "name": "F6",
          "midi": 89,
          "time": 306.31533000000167,
          "velocity": 0.7874015748031497,
          "duration": 0.5241220208333175
        },
        {
          "name": "E7",
          "midi": 100,
          "time": 306.31533000000167,
          "velocity": 0.7874015748031497,
          "duration": 0.5252185104166642
        },
        {
          "name": "F7",
          "midi": 101,
          "time": 306.31533000000167,
          "velocity": 0.7874015748031497,
          "duration": 0.5241220208333175
        },
        {
          "name": "C#4",
          "midi": 61,
          "time": 306.8416450000017,
          "velocity": 0.7874015748031497,
          "duration": 0.5230255312500276
        },
        {
          "name": "F4",
          "midi": 65,
          "time": 306.8416450000017,
          "velocity": 0.7874015748031497,
          "duration": 0.5230255312500276
        },
        {
          "name": "D5",
          "midi": 74,
          "time": 306.8416450000017,
          "velocity": 0.7874015748031497,
          "duration": 0.5230255312500276
        },
        {
          "name": "F5",
          "midi": 77,
          "time": 306.8416450000017,
          "velocity": 0.7874015748031497,
          "duration": 0.5230255312500276
        },
        {
          "name": "D#6",
          "midi": 87,
          "time": 306.8416450000017,
          "velocity": 0.7874015748031497,
          "duration": 0.5230255312500276
        },
        {
          "name": "F6",
          "midi": 89,
          "time": 306.8416450000017,
          "velocity": 0.7874015748031497,
          "duration": 0.5230255312500276
        },
        {
          "name": "D#7",
          "midi": 99,
          "time": 306.8416450000017,
          "velocity": 0.7874015748031497,
          "duration": 0.5230255312500276
        },
        {
          "name": "F7",
          "midi": 101,
          "time": 306.8416450000017,
          "velocity": 0.7874015748031497,
          "duration": 0.5230255312500276
        },
        {
          "name": "C4",
          "midi": 60,
          "time": 307.3679600000017,
          "velocity": 0.7874015748031497,
          "duration": 0.06578937500000848
        },
        {
          "name": "F#4",
          "midi": 66,
          "time": 307.3679600000017,
          "velocity": 0.7874015748031497,
          "duration": 0.06578937500000848
        },
        {
          "name": "C5",
          "midi": 72,
          "time": 307.3679600000017,
          "velocity": 0.7874015748031497,
          "duration": 0.06578937500000848
        },
        {
          "name": "F#5",
          "midi": 78,
          "time": 307.3679600000017,
          "velocity": 0.7874015748031497,
          "duration": 0.06578937500000848
        },
        {
          "name": "C6",
          "midi": 84,
          "time": 307.3679600000017,
          "velocity": 0.7874015748031497,
          "duration": 0.06578937500000848
        },
        {
          "name": "F#6",
          "midi": 90,
          "time": 307.3679600000017,
          "velocity": 0.7874015748031497,
          "duration": 0.06578937500000848
        },
        {
          "name": "C7",
          "midi": 96,
          "time": 307.3679600000017,
          "velocity": 0.7874015748031497,
          "duration": 0.06578937500000848
        },
        {
          "name": "F#7",
          "midi": 102,
          "time": 307.3679600000017,
          "velocity": 0.7874015748031497,
          "duration": 0.06578937500000848
        },
        {
          "name": "C#4",
          "midi": 61,
          "time": 307.7626962500017,
          "velocity": 0.7874015748031497,
          "duration": 0.06469288541666174
        },
        {
          "name": "F#4",
          "midi": 66,
          "time": 307.7626962500017,
          "velocity": 0.7874015748031497,
          "duration": 0.06469288541666174
        },
        {
          "name": "C#5",
          "midi": 73,
          "time": 307.7626962500017,
          "velocity": 0.7874015748031497,
          "duration": 0.06469288541666174
        },
        {
          "name": "F#5",
          "midi": 78,
          "time": 307.7626962500017,
          "velocity": 0.7874015748031497,
          "duration": 0.06469288541666174
        },
        {
          "name": "C#6",
          "midi": 85,
          "time": 307.7626962500017,
          "velocity": 0.7874015748031497,
          "duration": 0.06469288541666174
        },
        {
          "name": "F#6",
          "midi": 90,
          "time": 307.7626962500017,
          "velocity": 0.7874015748031497,
          "duration": 0.06469288541666174
        },
        {
          "name": "C#7",
          "midi": 97,
          "time": 307.7626962500017,
          "velocity": 0.7874015748031497,
          "duration": 0.06469288541666174
        },
        {
          "name": "F#7",
          "midi": 102,
          "time": 307.7626962500017,
          "velocity": 0.7874015748031497,
          "duration": 0.06469288541666174
        },
        {
          "name": "C#7",
          "midi": 97,
          "time": 308.02585375000166,
          "velocity": 0.7874015748031497,
          "duration": 0.06578937500000848
        },
        {
          "name": "F#7",
          "midi": 102,
          "time": 308.02585375000166,
          "velocity": 0.7874015748031497,
          "duration": 0.06578937500000848
        },
        {
          "name": "D4",
          "midi": 62,
          "time": 308.158528989585,
          "velocity": 0.7874015748031497,
          "duration": 0.06469288541666174
        },
        {
          "name": "F#4",
          "midi": 66,
          "time": 308.158528989585,
          "velocity": 0.7874015748031497,
          "duration": 0.06469288541666174
        },
        {
          "name": "D5",
          "midi": 74,
          "time": 308.158528989585,
          "velocity": 0.7874015748031497,
          "duration": 0.06469288541666174
        },
        {
          "name": "F#5",
          "midi": 78,
          "time": 308.158528989585,
          "velocity": 0.7874015748031497,
          "duration": 0.06469288541666174
        },
        {
          "name": "D6",
          "midi": 86,
          "time": 308.158528989585,
          "velocity": 0.7874015748031497,
          "duration": 0.06469288541666174
        },
        {
          "name": "F#6",
          "midi": 90,
          "time": 308.158528989585,
          "velocity": 0.7874015748031497,
          "duration": 0.06469288541666174
        },
        {
          "name": "D7",
          "midi": 98,
          "time": 308.158528989585,
          "velocity": 0.7874015748031497,
          "duration": 0.06469288541666174
        },
        {
          "name": "F7",
          "midi": 101,
          "time": 308.158528989585,
          "velocity": 0.7874015748031497,
          "duration": 0.06469288541666174
        },
        {
          "name": "C4",
          "midi": 60,
          "time": 308.4205900000017,
          "velocity": 0.7874015748031497,
          "duration": 0.06688586458335521
        },
        {
          "name": "F#4",
          "midi": 66,
          "time": 308.4205900000017,
          "velocity": 0.7874015748031497,
          "duration": 0.06688586458335521
        },
        {
          "name": "C#5",
          "midi": 73,
          "time": 308.4205900000017,
          "velocity": 0.7874015748031497,
          "duration": 0.06688586458335521
        },
        {
          "name": "F#5",
          "midi": 78,
          "time": 308.4205900000017,
          "velocity": 0.7874015748031497,
          "duration": 0.06688586458335521
        },
        {
          "name": "C#6",
          "midi": 85,
          "time": 308.4205900000017,
          "velocity": 0.7874015748031497,
          "duration": 0.06688586458335521
        },
        {
          "name": "F#6",
          "midi": 90,
          "time": 308.4205900000017,
          "velocity": 0.7874015748031497,
          "duration": 0.06688586458335521
        },
        {
          "name": "C#7",
          "midi": 97,
          "time": 308.4205900000017,
          "velocity": 0.7874015748031497,
          "duration": 0.06688586458335521
        },
        {
          "name": "F#7",
          "midi": 102,
          "time": 308.4205900000017,
          "velocity": 0.7874015748031497,
          "duration": 0.06688586458335521
        },
        {
          "name": "D7",
          "midi": 98,
          "time": 308.5083091666684,
          "velocity": 0.7874015748031497,
          "duration": 0.06578937500000848
        },
        {
          "name": "F7",
          "midi": 101,
          "time": 308.5083091666684,
          "velocity": 0.7874015748031497,
          "duration": 0.06578937500000848
        },
        {
          "name": "D6",
          "midi": 86,
          "time": 308.5532652395851,
          "velocity": 0.7874015748031497,
          "duration": 0.06469288541671858
        },
        {
          "name": "F6",
          "midi": 89,
          "time": 308.5532652395851,
          "velocity": 0.7874015748031497,
          "duration": 0.06469288541671858
        },
        {
          "name": "C#7",
          "midi": 97,
          "time": 308.59712482291843,
          "velocity": 0.7874015748031497,
          "duration": 0.06469288541671858
        },
        {
          "name": "F7",
          "midi": 101,
          "time": 308.59712482291843,
          "velocity": 0.7874015748031497,
          "duration": 0.06469288541671858
        },
        {
          "name": "C#4",
          "midi": 61,
          "time": 308.6837475000018,
          "velocity": 0.7874015748031497,
          "duration": 0.06578937500000848
        },
        {
          "name": "F4",
          "midi": 65,
          "time": 308.6837475000018,
          "velocity": 0.7874015748031497,
          "duration": 0.06578937500000848
        },
        {
          "name": "D5",
          "midi": 74,
          "time": 308.6837475000018,
          "velocity": 0.7874015748031497,
          "duration": 0.06578937500000848
        },
        {
          "name": "F5",
          "midi": 77,
          "time": 308.6837475000018,
          "velocity": 0.7874015748031497,
          "duration": 0.06578937500000848
        },
        {
          "name": "C#6",
          "midi": 85,
          "time": 308.6837475000018,
          "velocity": 0.7874015748031497,
          "duration": 0.06578937500000848
        },
        {
          "name": "F6",
          "midi": 89,
          "time": 308.6837475000018,
          "velocity": 0.7874015748031497,
          "duration": 0.06578937500000848
        },
        {
          "name": "D7",
          "midi": 98,
          "time": 308.77146666666846,
          "velocity": 0.7874015748031497,
          "duration": 0.06578937500000848
        },
        {
          "name": "F7",
          "midi": 101,
          "time": 308.77146666666846,
          "velocity": 0.7874015748031497,
          "duration": 0.06578937500000848
        },
        {
          "name": "D4",
          "midi": 62,
          "time": 308.9469050000018,
          "velocity": 0.7874015748031497,
          "duration": 0.7872795208333514
        },
        {
          "name": "F4",
          "midi": 65,
          "time": 308.9469050000018,
          "velocity": 0.7874015748031497,
          "duration": 0.7872795208333514
        },
        {
          "name": "D#5",
          "midi": 75,
          "time": 308.9469050000018,
          "velocity": 0.7874015748031497,
          "duration": 0.7872795208333514
        },
        {
          "name": "F5",
          "midi": 77,
          "time": 308.9469050000018,
          "velocity": 0.7874015748031497,
          "duration": 0.7872795208333514
        },
        {
          "name": "D#6",
          "midi": 87,
          "time": 308.9469050000018,
          "velocity": 0.7874015748031497,
          "duration": 0.7872795208333514
        },
        {
          "name": "F6",
          "midi": 89,
          "time": 308.9469050000018,
          "velocity": 0.7874015748031497,
          "duration": 0.7872795208333514
        },
        {
          "name": "D#7",
          "midi": 99,
          "time": 308.9469050000018,
          "velocity": 0.7874015748031497,
          "duration": 0.7872795208333514
        },
        {
          "name": "F7",
          "midi": 101,
          "time": 308.9469050000018,
          "velocity": 0.7874015748031497,
          "duration": 0.7872795208333514
        },
        {
          "name": "C4",
          "midi": 60,
          "time": 309.7352810104185,
          "velocity": 0.7874015748031497,
          "duration": 0.06578937500000848
        },
        {
          "name": "F#4",
          "midi": 66,
          "time": 309.7352810104185,
          "velocity": 0.7874015748031497,
          "duration": 0.06578937500000848
        },
        {
          "name": "C5",
          "midi": 72,
          "time": 309.7352810104185,
          "velocity": 0.7874015748031497,
          "duration": 0.06578937500000848
        },
        {
          "name": "F#5",
          "midi": 78,
          "time": 309.7352810104185,
          "velocity": 0.7874015748031497,
          "duration": 0.06578937500000848
        },
        {
          "name": "C6",
          "midi": 84,
          "time": 309.7352810104185,
          "velocity": 0.7874015748031497,
          "duration": 0.06578937500000848
        },
        {
          "name": "F#6",
          "midi": 90,
          "time": 309.7352810104185,
          "velocity": 0.7874015748031497,
          "duration": 0.06578937500000848
        },
        {
          "name": "C7",
          "midi": 96,
          "time": 309.7352810104185,
          "velocity": 0.7874015748031497,
          "duration": 0.06578937500000848
        },
        {
          "name": "F#7",
          "midi": 102,
          "time": 309.7352810104185,
          "velocity": 0.7874015748031497,
          "duration": 0.06578937500000848
        },
        {
          "name": "C#4",
          "midi": 61,
          "time": 309.9995350000018,
          "velocity": 0.7874015748031497,
          "duration": 0.06578937500000848
        },
        {
          "name": "F#4",
          "midi": 66,
          "time": 309.9995350000018,
          "velocity": 0.7874015748031497,
          "duration": 0.06578937500000848
        },
        {
          "name": "C#5",
          "midi": 73,
          "time": 309.9995350000018,
          "velocity": 0.7874015748031497,
          "duration": 0.06578937500000848
        },
        {
          "name": "F#5",
          "midi": 78,
          "time": 309.9995350000018,
          "velocity": 0.7874015748031497,
          "duration": 0.06578937500000848
        },
        {
          "name": "C#6",
          "midi": 85,
          "time": 309.9995350000018,
          "velocity": 0.7874015748031497,
          "duration": 0.06578937500000848
        },
        {
          "name": "F#6",
          "midi": 90,
          "time": 309.9995350000018,
          "velocity": 0.7874015748031497,
          "duration": 0.06578937500000848
        },
        {
          "name": "C#7",
          "midi": 97,
          "time": 309.9995350000018,
          "velocity": 0.7874015748031497,
          "duration": 0.06578937500000848
        },
        {
          "name": "F#7",
          "midi": 102,
          "time": 309.9995350000018,
          "velocity": 0.7874015748031497,
          "duration": 0.06578937500000848
        },
        {
          "name": "D4",
          "midi": 62,
          "time": 310.26269250000183,
          "velocity": 0.7874015748031497,
          "duration": 0.06578937500000848
        },
        {
          "name": "F#4",
          "midi": 66,
          "time": 310.26269250000183,
          "velocity": 0.7874015748031497,
          "duration": 0.06578937500000848
        },
        {
          "name": "D5",
          "midi": 74,
          "time": 310.26269250000183,
          "velocity": 0.7874015748031497,
          "duration": 0.06578937500000848
        },
        {
          "name": "F#5",
          "midi": 78,
          "time": 310.26269250000183,
          "velocity": 0.7874015748031497,
          "duration": 0.06578937500000848
        },
        {
          "name": "D6",
          "midi": 86,
          "time": 310.26269250000183,
          "velocity": 0.7874015748031497,
          "duration": 0.06578937500000848
        },
        {
          "name": "F#6",
          "midi": 90,
          "time": 310.26269250000183,
          "velocity": 0.7874015748031497,
          "duration": 0.06578937500000848
        },
        {
          "name": "C#7",
          "midi": 97,
          "time": 310.26269250000183,
          "velocity": 0.7874015748031497,
          "duration": 0.06578937500000848
        },
        {
          "name": "F#7",
          "midi": 102,
          "time": 310.26269250000183,
          "velocity": 0.7874015748031497,
          "duration": 0.06578937500000848
        },
        {
          "name": "D7",
          "midi": 98,
          "time": 310.3295783645852,
          "velocity": 0.7874015748031497,
          "duration": 0.06578937500000848
        },
        {
          "name": "F7",
          "midi": 101,
          "time": 310.3295783645852,
          "velocity": 0.7874015748031497,
          "duration": 0.06578937500000848
        },
        {
          "name": "C4",
          "midi": 60,
          "time": 310.52585000000187,
          "velocity": 0.7874015748031497,
          "duration": 0.06578937500000848
        },
        {
          "name": "F#4",
          "midi": 66,
          "time": 310.52585000000187,
          "velocity": 0.7874015748031497,
          "duration": 0.06578937500000848
        },
        {
          "name": "C#5",
          "midi": 73,
          "time": 310.52585000000187,
          "velocity": 0.7874015748031497,
          "duration": 0.06578937500000848
        },
        {
          "name": "F#5",
          "midi": 78,
          "time": 310.52585000000187,
          "velocity": 0.7874015748031497,
          "duration": 0.06578937500000848
        },
        {
          "name": "C#6",
          "midi": 85,
          "time": 310.52585000000187,
          "velocity": 0.7874015748031497,
          "duration": 0.06578937500000848
        },
        {
          "name": "F#6",
          "midi": 90,
          "time": 310.52585000000187,
          "velocity": 0.7874015748031497,
          "duration": 0.06578937500000848
        },
        {
          "name": "C#7",
          "midi": 97,
          "time": 310.52585000000187,
          "velocity": 0.7874015748031497,
          "duration": 0.06578937500000848
        },
        {
          "name": "F#7",
          "midi": 102,
          "time": 310.52585000000187,
          "velocity": 0.7874015748031497,
          "duration": 0.06578937500000848
        },
        {
          "name": "D7",
          "midi": 98,
          "time": 310.6146656562519,
          "velocity": 0.7874015748031497,
          "duration": 0.06469288541666174
        },
        {
          "name": "F7",
          "midi": 101,
          "time": 310.6146656562519,
          "velocity": 0.7874015748031497,
          "duration": 0.06469288541666174
        },
        {
          "name": "C#7",
          "midi": 97,
          "time": 310.7012883333352,
          "velocity": 0.7874015748031497,
          "duration": 0.06578937500000848
        },
        {
          "name": "F7",
          "midi": 101,
          "time": 310.7012883333352,
          "velocity": 0.7874015748031497,
          "duration": 0.06578937500000848
        },
        {
          "name": "C#4",
          "midi": 61,
          "time": 310.7901039895852,
          "velocity": 0.7874015748031497,
          "duration": 0.06469288541666174
        },
        {
          "name": "F4",
          "midi": 65,
          "time": 310.7901039895852,
          "velocity": 0.7874015748031497,
          "duration": 0.06469288541666174
        },
        {
          "name": "D5",
          "midi": 74,
          "time": 310.7901039895852,
          "velocity": 0.7874015748031497,
          "duration": 0.06469288541666174
        },
        {
          "name": "F5",
          "midi": 77,
          "time": 310.7901039895852,
          "velocity": 0.7874015748031497,
          "duration": 0.06469288541666174
        },
        {
          "name": "D6",
          "midi": 86,
          "time": 310.7901039895852,
          "velocity": 0.7874015748031497,
          "duration": 0.06469288541666174
        },
        {
          "name": "F#6",
          "midi": 90,
          "time": 310.7901039895852,
          "velocity": 0.7874015748031497,
          "duration": 0.06469288541666174
        },
        {
          "name": "D7",
          "midi": 98,
          "time": 310.8767266666685,
          "velocity": 0.7874015748031497,
          "duration": 0.06578937500000848
        },
        {
          "name": "F7",
          "midi": 101,
          "time": 310.8767266666685,
          "velocity": 0.7874015748031497,
          "duration": 0.06578937500000848
        },
        {
          "name": "D4",
          "midi": 62,
          "time": 311.0521650000018,
          "velocity": 0.7874015748031497,
          "duration": 0.06578937500000848
        },
        {
          "name": "F4",
          "midi": 65,
          "time": 311.0521650000018,
          "velocity": 0.7874015748031497,
          "duration": 0.06578937500000848
        },
        {
          "name": "D#5",
          "midi": 75,
          "time": 311.0521650000018,
          "velocity": 0.7874015748031497,
          "duration": 0.06578937500000848
        },
        {
          "name": "F5",
          "midi": 77,
          "time": 311.0521650000018,
          "velocity": 0.7874015748031497,
          "duration": 0.06578937500000848
        },
        {
          "name": "D#6",
          "midi": 87,
          "time": 311.0521650000018,
          "velocity": 0.7874015748031497,
          "duration": 0.06578937500000848
        },
        {
          "name": "F#6",
          "midi": 90,
          "time": 311.0521650000018,
          "velocity": 0.7874015748031497,
          "duration": 0.06578937500000848
        },
        {
          "name": "D#7",
          "midi": 99,
          "time": 311.0521650000018,
          "velocity": 0.7874015748031497,
          "duration": 0.06578937500000848
        },
        {
          "name": "F7",
          "midi": 101,
          "time": 311.0521650000018,
          "velocity": 0.7874015748031497,
          "duration": 0.06578937500000848
        },
        {
          "name": "D6",
          "midi": 86,
          "time": 311.18374375000184,
          "velocity": 0.7874015748031497,
          "duration": 0.06578937500000848
        },
        {
          "name": "F6",
          "midi": 89,
          "time": 311.18374375000184,
          "velocity": 0.7874015748031497,
          "duration": 0.06578937500000848
        },
        {
          "name": "D7",
          "midi": 98,
          "time": 311.18374375000184,
          "velocity": 0.7874015748031497,
          "duration": 0.06578937500000848
        },
        {
          "name": "F7",
          "midi": 101,
          "time": 311.18374375000184,
          "velocity": 0.7874015748031497,
          "duration": 0.06578937500000848
        },
        {
          "name": "C#4",
          "midi": 61,
          "time": 311.3142260104185,
          "velocity": 0.7874015748031497,
          "duration": 0.06578937500000848
        },
        {
          "name": "F4",
          "midi": 65,
          "time": 311.3142260104185,
          "velocity": 0.7874015748031497,
          "duration": 0.06578937500000848
        },
        {
          "name": "D5",
          "midi": 74,
          "time": 311.3142260104185,
          "velocity": 0.7874015748031497,
          "duration": 0.06578937500000848
        },
        {
          "name": "F5",
          "midi": 77,
          "time": 311.3142260104185,
          "velocity": 0.7874015748031497,
          "duration": 0.06578937500000848
        },
        {
          "name": "D#6",
          "midi": 87,
          "time": 311.3142260104185,
          "velocity": 0.7874015748031497,
          "duration": 0.06578937500000848
        },
        {
          "name": "F6",
          "midi": 89,
          "time": 311.3142260104185,
          "velocity": 0.7874015748031497,
          "duration": 0.06578937500000848
        },
        {
          "name": "D#7",
          "midi": 99,
          "time": 311.3142260104185,
          "velocity": 0.7874015748031497,
          "duration": 0.06578937500000848
        },
        {
          "name": "F7",
          "midi": 101,
          "time": 311.3142260104185,
          "velocity": 0.7874015748031497,
          "duration": 0.06578937500000848
        },
        {
          "name": "D7",
          "midi": 98,
          "time": 311.4469012500019,
          "velocity": 0.7874015748031497,
          "duration": 0.06469288541666174
        },
        {
          "name": "F7",
          "midi": 101,
          "time": 311.4469012500019,
          "velocity": 0.7874015748031497,
          "duration": 0.06469288541666174
        },
        {
          "name": "C4",
          "midi": 60,
          "time": 311.5784800000019,
          "velocity": 0.7874015748031497,
          "duration": 0.06469288541666174
        },
        {
          "name": "F#4",
          "midi": 66,
          "time": 311.5784800000019,
          "velocity": 0.7874015748031497,
          "duration": 0.06469288541666174
        },
        {
          "name": "C5",
          "midi": 72,
          "time": 311.5784800000019,
          "velocity": 0.7874015748031497,
          "duration": 0.06469288541666174
        },
        {
          "name": "F#5",
          "midi": 78,
          "time": 311.5784800000019,
          "velocity": 0.7874015748031497,
          "duration": 0.06469288541666174
        },
        {
          "name": "C6",
          "midi": 84,
          "time": 311.5784800000019,
          "velocity": 0.7874015748031497,
          "duration": 0.06469288541666174
        },
        {
          "name": "F#6",
          "midi": 90,
          "time": 311.5784800000019,
          "velocity": 0.7874015748031497,
          "duration": 0.06469288541666174
        },
        {
          "name": "C7",
          "midi": 96,
          "time": 311.5784800000019,
          "velocity": 0.7874015748031497,
          "duration": 0.06469288541666174
        },
        {
          "name": "F7",
          "midi": 101,
          "time": 311.5784800000019,
          "velocity": 0.7874015748031497,
          "duration": 0.06469288541666174
        },
        {
          "name": "C#4",
          "midi": 61,
          "time": 311.9732162500019,
          "velocity": 0.7874015748031497,
          "duration": 0.06469288541666174
        },
        {
          "name": "F#4",
          "midi": 66,
          "time": 311.9732162500019,
          "velocity": 0.7874015748031497,
          "duration": 0.06469288541666174
        },
        {
          "name": "C#5",
          "midi": 73,
          "time": 311.9732162500019,
          "velocity": 0.7874015748031497,
          "duration": 0.06469288541666174
        },
        {
          "name": "F#5",
          "midi": 78,
          "time": 311.9732162500019,
          "velocity": 0.7874015748031497,
          "duration": 0.06469288541666174
        },
        {
          "name": "C#6",
          "midi": 85,
          "time": 311.9732162500019,
          "velocity": 0.7874015748031497,
          "duration": 0.06469288541666174
        },
        {
          "name": "F#6",
          "midi": 90,
          "time": 311.9732162500019,
          "velocity": 0.7874015748031497,
          "duration": 0.06469288541666174
        },
        {
          "name": "C#7",
          "midi": 97,
          "time": 311.9732162500019,
          "velocity": 0.7874015748031497,
          "duration": 0.06469288541666174
        },
        {
          "name": "F#7",
          "midi": 102,
          "time": 311.9732162500019,
          "velocity": 0.7874015748031497,
          "duration": 0.06469288541666174
        },
        {
          "name": "C#7",
          "midi": 97,
          "time": 312.23637375000186,
          "velocity": 0.7874015748031497,
          "duration": 0.06578937500000848
        },
        {
          "name": "F#7",
          "midi": 102,
          "time": 312.23637375000186,
          "velocity": 0.7874015748031497,
          "duration": 0.06578937500000848
        },
        {
          "name": "D4",
          "midi": 62,
          "time": 312.3690489895852,
          "velocity": 0.7874015748031497,
          "duration": 0.06469288541666174
        },
        {
          "name": "F#4",
          "midi": 66,
          "time": 312.3690489895852,
          "velocity": 0.7874015748031497,
          "duration": 0.06469288541666174
        },
        {
          "name": "D5",
          "midi": 74,
          "time": 312.3690489895852,
          "velocity": 0.7874015748031497,
          "duration": 0.06469288541666174
        },
        {
          "name": "F#5",
          "midi": 78,
          "time": 312.3690489895852,
          "velocity": 0.7874015748031497,
          "duration": 0.06469288541666174
        },
        {
          "name": "D6",
          "midi": 86,
          "time": 312.3690489895852,
          "velocity": 0.7874015748031497,
          "duration": 0.06469288541666174
        },
        {
          "name": "F#6",
          "midi": 90,
          "time": 312.3690489895852,
          "velocity": 0.7874015748031497,
          "duration": 0.06469288541666174
        },
        {
          "name": "D7",
          "midi": 98,
          "time": 312.3690489895852,
          "velocity": 0.7874015748031497,
          "duration": 0.06469288541666174
        },
        {
          "name": "F7",
          "midi": 101,
          "time": 312.3690489895852,
          "velocity": 0.7874015748031497,
          "duration": 0.06469288541666174
        },
        {
          "name": "C4",
          "midi": 60,
          "time": 312.6311100000019,
          "velocity": 0.7874015748031497,
          "duration": 0.06688586458335521
        },
        {
          "name": "F#4",
          "midi": 66,
          "time": 312.6311100000019,
          "velocity": 0.7874015748031497,
          "duration": 0.06688586458335521
        },
        {
          "name": "C#5",
          "midi": 73,
          "time": 312.6311100000019,
          "velocity": 0.7874015748031497,
          "duration": 0.06688586458335521
        },
        {
          "name": "F#5",
          "midi": 78,
          "time": 312.6311100000019,
          "velocity": 0.7874015748031497,
          "duration": 0.06688586458335521
        },
        {
          "name": "C#6",
          "midi": 85,
          "time": 312.6311100000019,
          "velocity": 0.7874015748031497,
          "duration": 0.06688586458335521
        },
        {
          "name": "F#6",
          "midi": 90,
          "time": 312.6311100000019,
          "velocity": 0.7874015748031497,
          "duration": 0.06688586458335521
        },
        {
          "name": "C#7",
          "midi": 97,
          "time": 312.6311100000019,
          "velocity": 0.7874015748031497,
          "duration": 0.06688586458335521
        },
        {
          "name": "F#7",
          "midi": 102,
          "time": 312.6311100000019,
          "velocity": 0.7874015748031497,
          "duration": 0.06688586458335521
        },
        {
          "name": "D7",
          "midi": 98,
          "time": 312.7199256562519,
          "velocity": 0.7874015748031497,
          "duration": 0.06469288541671858
        },
        {
          "name": "F7",
          "midi": 101,
          "time": 312.7199256562519,
          "velocity": 0.7874015748031497,
          "duration": 0.06469288541671858
        },
        {
          "name": "D6",
          "midi": 86,
          "time": 312.7637852395853,
          "velocity": 0.7874015748031497,
          "duration": 0.06578937500000848
        },
        {
          "name": "F6",
          "midi": 89,
          "time": 312.7637852395853,
          "velocity": 0.7874015748031497,
          "duration": 0.06578937500000848
        },
        {
          "name": "C#7",
          "midi": 97,
          "time": 312.8065483333353,
          "velocity": 0.7874015748031497,
          "duration": 0.06578937500000848
        },
        {
          "name": "F7",
          "midi": 101,
          "time": 312.8065483333353,
          "velocity": 0.7874015748031497,
          "duration": 0.06578937500000848
        },
        {
          "name": "C#4",
          "midi": 61,
          "time": 312.89426750000194,
          "velocity": 0.7874015748031497,
          "duration": 0.06469288541666174
        },
        {
          "name": "F4",
          "midi": 65,
          "time": 312.89426750000194,
          "velocity": 0.7874015748031497,
          "duration": 0.06469288541666174
        },
        {
          "name": "D5",
          "midi": 74,
          "time": 312.89426750000194,
          "velocity": 0.7874015748031497,
          "duration": 0.06469288541666174
        },
        {
          "name": "F5",
          "midi": 77,
          "time": 312.89426750000194,
          "velocity": 0.7874015748031497,
          "duration": 0.06469288541666174
        },
        {
          "name": "C#6",
          "midi": 85,
          "time": 312.89426750000194,
          "velocity": 0.7874015748031497,
          "duration": 0.06469288541666174
        },
        {
          "name": "F6",
          "midi": 89,
          "time": 312.89426750000194,
          "velocity": 0.7874015748031497,
          "duration": 0.06469288541666174
        },
        {
          "name": "D7",
          "midi": 98,
          "time": 312.98308315625195,
          "velocity": 0.7874015748031497,
          "duration": 0.06469288541666174
        },
        {
          "name": "F7",
          "midi": 101,
          "time": 312.98308315625195,
          "velocity": 0.7874015748031497,
          "duration": 0.06469288541666174
        },
        {
          "name": "D4",
          "midi": 62,
          "time": 313.1574250000019,
          "velocity": 0.7874015748031497,
          "duration": 0.7883760104166413
        },
        {
          "name": "F4",
          "midi": 65,
          "time": 313.1574250000019,
          "velocity": 0.7874015748031497,
          "duration": 0.7883760104166413
        },
        {
          "name": "D#5",
          "midi": 75,
          "time": 313.1574250000019,
          "velocity": 0.7874015748031497,
          "duration": 0.7883760104166413
        },
        {
          "name": "F5",
          "midi": 77,
          "time": 313.1574250000019,
          "velocity": 0.7874015748031497,
          "duration": 0.7883760104166413
        },
        {
          "name": "D#6",
          "midi": 87,
          "time": 313.1574250000019,
          "velocity": 0.7874015748031497,
          "duration": 0.7883760104166413
        },
        {
          "name": "F6",
          "midi": 89,
          "time": 313.1574250000019,
          "velocity": 0.7874015748031497,
          "duration": 0.7883760104166413
        },
        {
          "name": "D#7",
          "midi": 99,
          "time": 313.1574250000019,
          "velocity": 0.7874015748031497,
          "duration": 0.7883760104166413
        },
        {
          "name": "F7",
          "midi": 101,
          "time": 313.1574250000019,
          "velocity": 0.7874015748031497,
          "duration": 0.7883760104166413
        },
        {
          "name": "G#8",
          "midi": 116,
          "time": 313.9468975000019,
          "velocity": 0.7874015748031497,
          "duration": 1.6436378854166946
        },
        {
          "name": "C4",
          "midi": 60,
          "time": 313.9468975000019,
          "velocity": 0.7874015748031497,
          "duration": 0.06578937500000848
        },
        {
          "name": "F#4",
          "midi": 66,
          "time": 313.9468975000019,
          "velocity": 0.7874015748031497,
          "duration": 0.06578937500000848
        },
        {
          "name": "C5",
          "midi": 72,
          "time": 313.9468975000019,
          "velocity": 0.7874015748031497,
          "duration": 0.06578937500000848
        },
        {
          "name": "F#5",
          "midi": 78,
          "time": 313.9468975000019,
          "velocity": 0.7874015748031497,
          "duration": 0.06578937500000848
        },
        {
          "name": "C6",
          "midi": 84,
          "time": 313.9468975000019,
          "velocity": 0.7874015748031497,
          "duration": 0.06578937500000848
        },
        {
          "name": "F#6",
          "midi": 90,
          "time": 313.9468975000019,
          "velocity": 0.7874015748031497,
          "duration": 0.06578937500000848
        },
        {
          "name": "C7",
          "midi": 96,
          "time": 313.9468975000019,
          "velocity": 0.7874015748031497,
          "duration": 0.06578937500000848
        },
        {
          "name": "F#7",
          "midi": 102,
          "time": 313.9468975000019,
          "velocity": 0.7874015748031497,
          "duration": 0.06578937500000848
        },
        {
          "name": "C#4",
          "midi": 61,
          "time": 314.21005500000194,
          "velocity": 0.7874015748031497,
          "duration": 0.06578937500000848
        },
        {
          "name": "F#4",
          "midi": 66,
          "time": 314.21005500000194,
          "velocity": 0.7874015748031497,
          "duration": 0.06578937500000848
        },
        {
          "name": "C#5",
          "midi": 73,
          "time": 314.21005500000194,
          "velocity": 0.7874015748031497,
          "duration": 0.06578937500000848
        },
        {
          "name": "F#5",
          "midi": 78,
          "time": 314.21005500000194,
          "velocity": 0.7874015748031497,
          "duration": 0.06578937500000848
        },
        {
          "name": "C#6",
          "midi": 85,
          "time": 314.21005500000194,
          "velocity": 0.7874015748031497,
          "duration": 0.06578937500000848
        },
        {
          "name": "F#6",
          "midi": 90,
          "time": 314.21005500000194,
          "velocity": 0.7874015748031497,
          "duration": 0.06578937500000848
        },
        {
          "name": "C#7",
          "midi": 97,
          "time": 314.21005500000194,
          "velocity": 0.7874015748031497,
          "duration": 0.06578937500000848
        },
        {
          "name": "F#7",
          "midi": 102,
          "time": 314.21005500000194,
          "velocity": 0.7874015748031497,
          "duration": 0.06578937500000848
        },
        {
          "name": "D4",
          "midi": 62,
          "time": 314.47430898958527,
          "velocity": 0.7874015748031497,
          "duration": 0.06469288541666174
        },
        {
          "name": "F#4",
          "midi": 66,
          "time": 314.47430898958527,
          "velocity": 0.7874015748031497,
          "duration": 0.06469288541666174
        },
        {
          "name": "D5",
          "midi": 74,
          "time": 314.47430898958527,
          "velocity": 0.7874015748031497,
          "duration": 0.06469288541666174
        },
        {
          "name": "F#5",
          "midi": 78,
          "time": 314.47430898958527,
          "velocity": 0.7874015748031497,
          "duration": 0.06469288541666174
        },
        {
          "name": "D6",
          "midi": 86,
          "time": 314.47430898958527,
          "velocity": 0.7874015748031497,
          "duration": 0.06469288541666174
        },
        {
          "name": "F#6",
          "midi": 90,
          "time": 314.47430898958527,
          "velocity": 0.7874015748031497,
          "duration": 0.06469288541666174
        },
        {
          "name": "C#7",
          "midi": 97,
          "time": 314.47430898958527,
          "velocity": 0.7874015748031497,
          "duration": 0.063596395833315
        },
        {
          "name": "F#7",
          "midi": 102,
          "time": 314.47430898958527,
          "velocity": 0.7874015748031497,
          "duration": 0.063596395833315
        },
        {
          "name": "D7",
          "midi": 98,
          "time": 314.53900187500193,
          "velocity": 0.7874015748031497,
          "duration": 0.06578937500000848
        },
        {
          "name": "F7",
          "midi": 101,
          "time": 314.53900187500193,
          "velocity": 0.7874015748031497,
          "duration": 0.06578937500000848
        },
        {
          "name": "C4",
          "midi": 60,
          "time": 314.73637000000195,
          "velocity": 0.7874015748031497,
          "duration": 0.06688586458335521
        },
        {
          "name": "F#4",
          "midi": 66,
          "time": 314.73637000000195,
          "velocity": 0.7874015748031497,
          "duration": 0.06688586458335521
        },
        {
          "name": "C#5",
          "midi": 73,
          "time": 314.73637000000195,
          "velocity": 0.7874015748031497,
          "duration": 0.06688586458335521
        },
        {
          "name": "F#5",
          "midi": 78,
          "time": 314.73637000000195,
          "velocity": 0.7874015748031497,
          "duration": 0.06688586458335521
        },
        {
          "name": "C#6",
          "midi": 85,
          "time": 314.73637000000195,
          "velocity": 0.7874015748031497,
          "duration": 0.06688586458335521
        },
        {
          "name": "F#6",
          "midi": 90,
          "time": 314.73637000000195,
          "velocity": 0.7874015748031497,
          "duration": 0.06688586458335521
        },
        {
          "name": "C#7",
          "midi": 97,
          "time": 314.73637000000195,
          "velocity": 0.7874015748031497,
          "duration": 0.06688586458335521
        },
        {
          "name": "F#7",
          "midi": 102,
          "time": 314.73637000000195,
          "velocity": 0.7874015748031497,
          "duration": 0.06688586458335521
        },
        {
          "name": "D7",
          "midi": 98,
          "time": 314.82518565625196,
          "velocity": 0.7874015748031497,
          "duration": 0.06578937500000848
        },
        {
          "name": "F7",
          "midi": 101,
          "time": 314.82518565625196,
          "velocity": 0.7874015748031497,
          "duration": 0.06578937500000848
        },
        {
          "name": "C#7",
          "midi": 97,
          "time": 314.9129048229186,
          "velocity": 0.7874015748031497,
          "duration": 0.06578937500000848
        },
        {
          "name": "F7",
          "midi": 101,
          "time": 314.9129048229186,
          "velocity": 0.7874015748031497,
          "duration": 0.06578937500000848
        },
        {
          "name": "C#4",
          "midi": 61,
          "time": 315.0006239895853,
          "velocity": 0.7874015748031497,
          "duration": 0.06469288541666174
        },
        {
          "name": "F4",
          "midi": 65,
          "time": 315.0006239895853,
          "velocity": 0.7874015748031497,
          "duration": 0.06469288541666174
        },
        {
          "name": "D5",
          "midi": 74,
          "time": 315.0006239895853,
          "velocity": 0.7874015748031497,
          "duration": 0.06469288541666174
        },
        {
          "name": "F5",
          "midi": 77,
          "time": 315.0006239895853,
          "velocity": 0.7874015748031497,
          "duration": 0.06469288541666174
        },
        {
          "name": "D6",
          "midi": 86,
          "time": 315.0006239895853,
          "velocity": 0.7874015748031497,
          "duration": 0.06469288541666174
        },
        {
          "name": "F#6",
          "midi": 90,
          "time": 315.0006239895853,
          "velocity": 0.7874015748031497,
          "duration": 0.06469288541666174
        },
        {
          "name": "D7",
          "midi": 98,
          "time": 315.0872466666686,
          "velocity": 0.7874015748031497,
          "duration": 0.06578937500000848
        },
        {
          "name": "F7",
          "midi": 101,
          "time": 315.0872466666686,
          "velocity": 0.7874015748031497,
          "duration": 0.06578937500000848
        },
        {
          "name": "D4",
          "midi": 62,
          "time": 315.2626850000019,
          "velocity": 0.7874015748031497,
          "duration": 0.06578937500000848
        },
        {
          "name": "F4",
          "midi": 65,
          "time": 315.2626850000019,
          "velocity": 0.7874015748031497,
          "duration": 0.06578937500000848
        },
        {
          "name": "D#5",
          "midi": 75,
          "time": 315.2626850000019,
          "velocity": 0.7874015748031497,
          "duration": 0.06578937500000848
        },
        {
          "name": "F5",
          "midi": 77,
          "time": 315.2626850000019,
          "velocity": 0.7874015748031497,
          "duration": 0.06578937500000848
        },
        {
          "name": "D#6",
          "midi": 87,
          "time": 315.2626850000019,
          "velocity": 0.7874015748031497,
          "duration": 0.06578937500000848
        },
        {
          "name": "F#6",
          "midi": 90,
          "time": 315.2626850000019,
          "velocity": 0.7874015748031497,
          "duration": 0.06578937500000848
        },
        {
          "name": "D#7",
          "midi": 99,
          "time": 315.2626850000019,
          "velocity": 0.7874015748031497,
          "duration": 0.06578937500000848
        },
        {
          "name": "F7",
          "midi": 101,
          "time": 315.2626850000019,
          "velocity": 0.7874015748031497,
          "duration": 0.06578937500000848
        },
        {
          "name": "D6",
          "midi": 86,
          "time": 315.3942637500019,
          "velocity": 0.7874015748031497,
          "duration": 0.06578937500000848
        },
        {
          "name": "F6",
          "midi": 89,
          "time": 315.3942637500019,
          "velocity": 0.7874015748031497,
          "duration": 0.06578937500000848
        },
        {
          "name": "D7",
          "midi": 98,
          "time": 315.3942637500019,
          "velocity": 0.7874015748031497,
          "duration": 0.06578937500000848
        },
        {
          "name": "F7",
          "midi": 101,
          "time": 315.3942637500019,
          "velocity": 0.7874015748031497,
          "duration": 0.06578937500000848
        },
        {
          "name": "C#4",
          "midi": 61,
          "time": 315.52584250000194,
          "velocity": 0.7874015748031497,
          "duration": 0.06578937500000848
        },
        {
          "name": "F4",
          "midi": 65,
          "time": 315.52584250000194,
          "velocity": 0.7874015748031497,
          "duration": 0.06578937500000848
        },
        {
          "name": "D5",
          "midi": 74,
          "time": 315.52584250000194,
          "velocity": 0.7874015748031497,
          "duration": 0.06578937500000848
        },
        {
          "name": "F5",
          "midi": 77,
          "time": 315.52584250000194,
          "velocity": 0.7874015748031497,
          "duration": 0.06578937500000848
        },
        {
          "name": "D#6",
          "midi": 87,
          "time": 315.52584250000194,
          "velocity": 0.7874015748031497,
          "duration": 0.06578937500000848
        },
        {
          "name": "F6",
          "midi": 89,
          "time": 315.52584250000194,
          "velocity": 0.7874015748031497,
          "duration": 0.06578937500000848
        },
        {
          "name": "D#7",
          "midi": 99,
          "time": 315.52584250000194,
          "velocity": 0.7874015748031497,
          "duration": 0.06578937500000848
        },
        {
          "name": "F7",
          "midi": 101,
          "time": 315.52584250000194,
          "velocity": 0.7874015748031497,
          "duration": 0.06578937500000848
        },
        {
          "name": "C4",
          "midi": 60,
          "time": 315.789000000002,
          "velocity": 0.7874015748031497,
          "duration": 0.3936397604167041
        },
        {
          "name": "F#4",
          "midi": 66,
          "time": 315.789000000002,
          "velocity": 0.7874015748031497,
          "duration": 0.3925432708333574
        },
        {
          "name": "C5",
          "midi": 72,
          "time": 315.789000000002,
          "velocity": 0.7874015748031497,
          "duration": 0.3936397604167041
        },
        {
          "name": "F#5",
          "midi": 78,
          "time": 315.789000000002,
          "velocity": 0.7874015748031497,
          "duration": 0.3925432708333574
        },
        {
          "name": "C#6",
          "midi": 85,
          "time": 315.789000000002,
          "velocity": 0.7874015748031497,
          "duration": 0.3936397604167041
        },
        {
          "name": "F#6",
          "midi": 90,
          "time": 315.789000000002,
          "velocity": 0.7874015748031497,
          "duration": 0.3925432708333574
        },
        {
          "name": "C#7",
          "midi": 97,
          "time": 315.789000000002,
          "velocity": 0.7874015748031497,
          "duration": 0.3936397604167041
        },
        {
          "name": "F#7",
          "midi": 102,
          "time": 315.789000000002,
          "velocity": 0.7874015748031497,
          "duration": 0.3925432708333574
        },
        {
          "name": "C#4",
          "midi": 61,
          "time": 316.183736250002,
          "velocity": 0.7874015748031497,
          "duration": 0.32785038541669564
        },
        {
          "name": "F#4",
          "midi": 66,
          "time": 316.183736250002,
          "velocity": 0.7874015748031497,
          "duration": 0.3267538958333489
        },
        {
          "name": "C#5",
          "midi": 73,
          "time": 316.183736250002,
          "velocity": 0.7874015748031497,
          "duration": 0.32785038541669564
        },
        {
          "name": "F#5",
          "midi": 78,
          "time": 316.183736250002,
          "velocity": 0.7874015748031497,
          "duration": 0.3267538958333489
        },
        {
          "name": "D6",
          "midi": 86,
          "time": 316.183736250002,
          "velocity": 0.7874015748031497,
          "duration": 0.32785038541669564
        },
        {
          "name": "F#6",
          "midi": 90,
          "time": 316.183736250002,
          "velocity": 0.7874015748031497,
          "duration": 0.3267538958333489
        },
        {
          "name": "D7",
          "midi": 98,
          "time": 316.183736250002,
          "velocity": 0.7874015748031497,
          "duration": 0.32785038541669564
        },
        {
          "name": "F#7",
          "midi": 102,
          "time": 316.183736250002,
          "velocity": 0.7874015748031497,
          "duration": 0.3267538958333489
        },
        {
          "name": "D4",
          "midi": 62,
          "time": 316.51268312500207,
          "velocity": 0.7874015748031497,
          "duration": 0.32785038541669564
        },
        {
          "name": "F#4",
          "midi": 66,
          "time": 316.51268312500207,
          "velocity": 0.7874015748031497,
          "duration": 0.3267538958333489
        },
        {
          "name": "D5",
          "midi": 74,
          "time": 316.51268312500207,
          "velocity": 0.7874015748031497,
          "duration": 0.32785038541669564
        },
        {
          "name": "F#5",
          "midi": 78,
          "time": 316.51268312500207,
          "velocity": 0.7874015748031497,
          "duration": 0.3267538958333489
        },
        {
          "name": "D#6",
          "midi": 87,
          "time": 316.51268312500207,
          "velocity": 0.7874015748031497,
          "duration": 0.32785038541669564
        },
        {
          "name": "F#6",
          "midi": 90,
          "time": 316.51268312500207,
          "velocity": 0.7874015748031497,
          "duration": 0.3267538958333489
        },
        {
          "name": "D#7",
          "midi": 99,
          "time": 316.51268312500207,
          "velocity": 0.7874015748031497,
          "duration": 0.32785038541669564
        },
        {
          "name": "F#7",
          "midi": 102,
          "time": 316.51268312500207,
          "velocity": 0.7874015748031497,
          "duration": 0.3267538958333489
        },
        {
          "name": "C4",
          "midi": 60,
          "time": 316.8416300000021,
          "velocity": 0.7874015748031497,
          "duration": 1.0515335104166752
        },
        {
          "name": "F#4",
          "midi": 66,
          "time": 316.8416300000021,
          "velocity": 0.7874015748031497,
          "duration": 1.0515335104166752
        },
        {
          "name": "C5",
          "midi": 72,
          "time": 316.8416300000021,
          "velocity": 0.7874015748031497,
          "duration": 1.0515335104166752
        },
        {
          "name": "F#5",
          "midi": 78,
          "time": 316.8416300000021,
          "velocity": 0.7874015748031497,
          "duration": 1.0515335104166752
        },
        {
          "name": "C6",
          "midi": 84,
          "time": 316.8416300000021,
          "velocity": 0.7874015748031497,
          "duration": 1.0515335104166752
        },
        {
          "name": "F#6",
          "midi": 90,
          "time": 316.8416300000021,
          "velocity": 0.7874015748031497,
          "duration": 1.0515335104166752
        },
        {
          "name": "C7",
          "midi": 96,
          "time": 316.8416300000021,
          "velocity": 0.7874015748031497,
          "duration": 1.0515335104166752
        },
        {
          "name": "F#7",
          "midi": 102,
          "time": 316.8416300000021,
          "velocity": 0.7874015748031497,
          "duration": 1.0515335104166752
        },
        {
          "name": "C4",
          "midi": 60,
          "time": 318.1574175000021,
          "velocity": 0.7874015748031497,
          "duration": 0.06469288541666174
        },
        {
          "name": "F#4",
          "midi": 66,
          "time": 318.1574175000021,
          "velocity": 0.7874015748031497,
          "duration": 0.06469288541666174
        },
        {
          "name": "C5",
          "midi": 72,
          "time": 318.1574175000021,
          "velocity": 0.7874015748031497,
          "duration": 0.06469288541666174
        },
        {
          "name": "F#5",
          "midi": 78,
          "time": 318.1574175000021,
          "velocity": 0.7874015748031497,
          "duration": 0.06469288541666174
        },
        {
          "name": "C#6",
          "midi": 85,
          "time": 318.1574175000021,
          "velocity": 0.7874015748031497,
          "duration": 0.06469288541666174
        },
        {
          "name": "F#6",
          "midi": 90,
          "time": 318.1574175000021,
          "velocity": 0.7874015748031497,
          "duration": 0.06469288541666174
        },
        {
          "name": "C#7",
          "midi": 97,
          "time": 318.1574175000021,
          "velocity": 0.7874015748031497,
          "duration": 0.06469288541666174
        },
        {
          "name": "F#7",
          "midi": 102,
          "time": 318.1574175000021,
          "velocity": 0.7874015748031497,
          "duration": 0.06469288541666174
        },
        {
          "name": "C4",
          "midi": 60,
          "time": 318.4205750000021,
          "velocity": 0.7874015748031497,
          "duration": 0.06578937500000848
        },
        {
          "name": "F#4",
          "midi": 66,
          "time": 318.4205750000021,
          "velocity": 0.7874015748031497,
          "duration": 0.06578937500000848
        },
        {
          "name": "C#5",
          "midi": 73,
          "time": 318.4205750000021,
          "velocity": 0.7874015748031497,
          "duration": 0.06578937500000848
        },
        {
          "name": "F#5",
          "midi": 78,
          "time": 318.4205750000021,
          "velocity": 0.7874015748031497,
          "duration": 0.06578937500000848
        },
        {
          "name": "D6",
          "midi": 86,
          "time": 318.4205750000021,
          "velocity": 0.7874015748031497,
          "duration": 0.06578937500000848
        },
        {
          "name": "F#6",
          "midi": 90,
          "time": 318.4205750000021,
          "velocity": 0.7874015748031497,
          "duration": 0.06578937500000848
        },
        {
          "name": "D7",
          "midi": 98,
          "time": 318.4205750000021,
          "velocity": 0.7874015748031497,
          "duration": 0.06578937500000848
        },
        {
          "name": "F#7",
          "midi": 102,
          "time": 318.4205750000021,
          "velocity": 0.7874015748031497,
          "duration": 0.06578937500000848
        },
        {
          "name": "C#4",
          "midi": 61,
          "time": 318.6848289895854,
          "velocity": 0.7874015748031497,
          "duration": 0.06469288541666174
        },
        {
          "name": "F#4",
          "midi": 66,
          "time": 318.6848289895854,
          "velocity": 0.7874015748031497,
          "duration": 0.06469288541666174
        },
        {
          "name": "D5",
          "midi": 74,
          "time": 318.6848289895854,
          "velocity": 0.7874015748031497,
          "duration": 0.06469288541666174
        },
        {
          "name": "F#5",
          "midi": 78,
          "time": 318.6848289895854,
          "velocity": 0.7874015748031497,
          "duration": 0.06469288541666174
        },
        {
          "name": "D#6",
          "midi": 87,
          "time": 318.6848289895854,
          "velocity": 0.7874015748031497,
          "duration": 0.06469288541666174
        },
        {
          "name": "F#6",
          "midi": 90,
          "time": 318.6848289895854,
          "velocity": 0.7874015748031497,
          "duration": 0.06469288541666174
        },
        {
          "name": "D#7",
          "midi": 99,
          "time": 318.6848289895854,
          "velocity": 0.7874015748031497,
          "duration": 0.06469288541666174
        },
        {
          "name": "F#7",
          "midi": 102,
          "time": 318.6848289895854,
          "velocity": 0.7874015748031497,
          "duration": 0.06469288541666174
        },
        {
          "name": "D4",
          "midi": 62,
          "time": 318.9468900000021,
          "velocity": 0.7874015748031497,
          "duration": 0.5252185104166642
        },
        {
          "name": "F#4",
          "midi": 66,
          "time": 318.9468900000021,
          "velocity": 0.7874015748031497,
          "duration": 0.5241220208333175
        },
        {
          "name": "D#5",
          "midi": 75,
          "time": 318.9468900000021,
          "velocity": 0.7874015748031497,
          "duration": 0.5252185104166642
        },
        {
          "name": "F#5",
          "midi": 78,
          "time": 318.9468900000021,
          "velocity": 0.7874015748031497,
          "duration": 0.5241220208333175
        },
        {
          "name": "E6",
          "midi": 88,
          "time": 318.9468900000021,
          "velocity": 0.7874015748031497,
          "duration": 0.5252185104166642
        },
        {
          "name": "F#6",
          "midi": 90,
          "time": 318.9468900000021,
          "velocity": 0.7874015748031497,
          "duration": 0.5241220208333175
        },
        {
          "name": "D#7",
          "midi": 99,
          "time": 318.9468900000021,
          "velocity": 0.7874015748031497,
          "duration": 0.06469288541666174
        },
        {
          "name": "F#7",
          "midi": 102,
          "time": 318.9468900000021,
          "velocity": 0.7874015748031497,
          "duration": 0.06469288541666174
        },
        {
          "name": "E7",
          "midi": 100,
          "time": 319.0126793750021,
          "velocity": 0.7874015748031497,
          "duration": 0.45942913541665575
        },
        {
          "name": "F7",
          "midi": 101,
          "time": 319.0126793750021,
          "velocity": 0.7874015748031497,
          "duration": 0.45942913541665575
        },
        {
          "name": "C#4",
          "midi": 61,
          "time": 319.4732050000021,
          "velocity": 0.7874015748031497,
          "duration": 0.5230255312500276
        },
        {
          "name": "F#4",
          "midi": 66,
          "time": 319.4732050000021,
          "velocity": 0.7874015748031497,
          "duration": 0.5230255312500276
        },
        {
          "name": "D5",
          "midi": 74,
          "time": 319.4732050000021,
          "velocity": 0.7874015748031497,
          "duration": 0.5230255312500276
        },
        {
          "name": "F#5",
          "midi": 78,
          "time": 319.4732050000021,
          "velocity": 0.7874015748031497,
          "duration": 0.5230255312500276
        },
        {
          "name": "D#6",
          "midi": 87,
          "time": 319.4732050000021,
          "velocity": 0.7874015748031497,
          "duration": 0.5230255312500276
        },
        {
          "name": "F#6",
          "midi": 90,
          "time": 319.4732050000021,
          "velocity": 0.7874015748031497,
          "duration": 0.5230255312500276
        },
        {
          "name": "D#7",
          "midi": 99,
          "time": 319.4732050000021,
          "velocity": 0.7874015748031497,
          "duration": 0.5230255312500276
        },
        {
          "name": "F#7",
          "midi": 102,
          "time": 319.4732050000021,
          "velocity": 0.7874015748031497,
          "duration": 0.5230255312500276
        },
        {
          "name": "C4",
          "midi": 60,
          "time": 319.9995200000021,
          "velocity": 0.7874015748031497,
          "duration": 0.45942913541665575
        },
        {
          "name": "F#4",
          "midi": 66,
          "time": 319.9995200000021,
          "velocity": 0.7874015748031497,
          "duration": 0.458332645833309
        },
        {
          "name": "C5",
          "midi": 72,
          "time": 319.9995200000021,
          "velocity": 0.7874015748031497,
          "duration": 0.45942913541665575
        },
        {
          "name": "F#5",
          "midi": 78,
          "time": 319.9995200000021,
          "velocity": 0.7874015748031497,
          "duration": 0.458332645833309
        },
        {
          "name": "C#6",
          "midi": 85,
          "time": 319.9995200000021,
          "velocity": 0.7874015748031497,
          "duration": 0.45942913541665575
        },
        {
          "name": "F#6",
          "midi": 90,
          "time": 319.9995200000021,
          "velocity": 0.7874015748031497,
          "duration": 0.458332645833309
        },
        {
          "name": "C#7",
          "midi": 97,
          "time": 319.9995200000021,
          "velocity": 0.7874015748031497,
          "duration": 0.45942913541665575
        },
        {
          "name": "F#7",
          "midi": 102,
          "time": 319.9995200000021,
          "velocity": 0.7874015748031497,
          "duration": 0.458332645833309
        },
        {
          "name": "C#4",
          "midi": 61,
          "time": 320.4600456250021,
          "velocity": 0.7874015748031497,
          "duration": 0.06469288541666174
        },
        {
          "name": "F#4",
          "midi": 66,
          "time": 320.4600456250021,
          "velocity": 0.7874015748031497,
          "duration": 0.06469288541666174
        },
        {
          "name": "C#5",
          "midi": 73,
          "time": 320.4600456250021,
          "velocity": 0.7874015748031497,
          "duration": 0.06469288541666174
        },
        {
          "name": "F#5",
          "midi": 78,
          "time": 320.4600456250021,
          "velocity": 0.7874015748031497,
          "duration": 0.06469288541666174
        },
        {
          "name": "D6",
          "midi": 86,
          "time": 320.4600456250021,
          "velocity": 0.7874015748031497,
          "duration": 0.06469288541666174
        },
        {
          "name": "F#6",
          "midi": 90,
          "time": 320.4600456250021,
          "velocity": 0.7874015748031497,
          "duration": 0.06469288541666174
        },
        {
          "name": "D7",
          "midi": 98,
          "time": 320.4600456250021,
          "velocity": 0.7874015748031497,
          "duration": 0.06469288541666174
        },
        {
          "name": "F#7",
          "midi": 102,
          "time": 320.4600456250021,
          "velocity": 0.7874015748031497,
          "duration": 0.06469288541666174
        },
        {
          "name": "D4",
          "midi": 62,
          "time": 320.7889925000021,
          "velocity": 0.7874015748031497,
          "duration": 0.06469288541666174
        },
        {
          "name": "F#4",
          "midi": 66,
          "time": 320.7889925000021,
          "velocity": 0.7874015748031497,
          "duration": 0.06469288541666174
        },
        {
          "name": "D5",
          "midi": 74,
          "time": 320.7889925000021,
          "velocity": 0.7874015748031497,
          "duration": 0.06469288541666174
        },
        {
          "name": "F#5",
          "midi": 78,
          "time": 320.7889925000021,
          "velocity": 0.7874015748031497,
          "duration": 0.06469288541666174
        },
        {
          "name": "D#6",
          "midi": 87,
          "time": 320.7889925000021,
          "velocity": 0.7874015748031497,
          "duration": 0.06469288541666174
        },
        {
          "name": "F#6",
          "midi": 90,
          "time": 320.7889925000021,
          "velocity": 0.7874015748031497,
          "duration": 0.06469288541666174
        },
        {
          "name": "D#7",
          "midi": 99,
          "time": 320.7889925000021,
          "velocity": 0.7874015748031497,
          "duration": 0.06469288541666174
        },
        {
          "name": "F#7",
          "midi": 102,
          "time": 320.7889925000021,
          "velocity": 0.7874015748031497,
          "duration": 0.06469288541666174
        },
        {
          "name": "C4",
          "midi": 60,
          "time": 321.0521500000021,
          "velocity": 0.7874015748031497,
          "duration": 1.0515335104166752
        },
        {
          "name": "F#4",
          "midi": 66,
          "time": 321.0521500000021,
          "velocity": 0.7874015748031497,
          "duration": 1.0515335104166752
        },
        {
          "name": "C5",
          "midi": 72,
          "time": 321.0521500000021,
          "velocity": 0.7874015748031497,
          "duration": 1.0515335104166752
        },
        {
          "name": "F#5",
          "midi": 78,
          "time": 321.0521500000021,
          "velocity": 0.7874015748031497,
          "duration": 1.0515335104166752
        },
        {
          "name": "C6",
          "midi": 84,
          "time": 321.0521500000021,
          "velocity": 0.7874015748031497,
          "duration": 1.0515335104166752
        },
        {
          "name": "F#6",
          "midi": 90,
          "time": 321.0521500000021,
          "velocity": 0.7874015748031497,
          "duration": 1.0515335104166752
        },
        {
          "name": "C7",
          "midi": 96,
          "time": 321.0521500000021,
          "velocity": 0.7874015748031497,
          "duration": 1.0515335104166752
        },
        {
          "name": "F#7",
          "midi": 102,
          "time": 321.0521500000021,
          "velocity": 0.7874015748031497,
          "duration": 1.0515335104166752
        },
        {
          "name": "C4",
          "midi": 60,
          "time": 322.36684101041874,
          "velocity": 0.7874015748031497,
          "duration": 0.06578937500000848
        },
        {
          "name": "F#4",
          "midi": 66,
          "time": 322.36684101041874,
          "velocity": 0.7874015748031497,
          "duration": 0.06578937500000848
        },
        {
          "name": "C5",
          "midi": 72,
          "time": 322.36684101041874,
          "velocity": 0.7874015748031497,
          "duration": 0.06578937500000848
        },
        {
          "name": "F#5",
          "midi": 78,
          "time": 322.36684101041874,
          "velocity": 0.7874015748031497,
          "duration": 0.06578937500000848
        },
        {
          "name": "C#6",
          "midi": 85,
          "time": 322.36684101041874,
          "velocity": 0.7874015748031497,
          "duration": 0.06578937500000848
        },
        {
          "name": "F#6",
          "midi": 90,
          "time": 322.36684101041874,
          "velocity": 0.7874015748031497,
          "duration": 0.06578937500000848
        },
        {
          "name": "C#7",
          "midi": 97,
          "time": 322.36684101041874,
          "velocity": 0.7874015748031497,
          "duration": 0.06578937500000848
        },
        {
          "name": "F#7",
          "midi": 102,
          "time": 322.36684101041874,
          "velocity": 0.7874015748031497,
          "duration": 0.06578937500000848
        },
        {
          "name": "C4",
          "midi": 60,
          "time": 322.63109500000206,
          "velocity": 0.7874015748031497,
          "duration": 0.06469288541666174
        },
        {
          "name": "F#4",
          "midi": 66,
          "time": 322.63109500000206,
          "velocity": 0.7874015748031497,
          "duration": 0.06469288541666174
        },
        {
          "name": "C#5",
          "midi": 73,
          "time": 322.63109500000206,
          "velocity": 0.7874015748031497,
          "duration": 0.06469288541666174
        },
        {
          "name": "F#5",
          "midi": 78,
          "time": 322.63109500000206,
          "velocity": 0.7874015748031497,
          "duration": 0.06469288541666174
        },
        {
          "name": "D6",
          "midi": 86,
          "time": 322.63109500000206,
          "velocity": 0.7874015748031497,
          "duration": 0.06469288541666174
        },
        {
          "name": "F#6",
          "midi": 90,
          "time": 322.63109500000206,
          "velocity": 0.7874015748031497,
          "duration": 0.06469288541666174
        },
        {
          "name": "D7",
          "midi": 98,
          "time": 322.63109500000206,
          "velocity": 0.7874015748031497,
          "duration": 0.06469288541666174
        },
        {
          "name": "F#7",
          "midi": 102,
          "time": 322.63109500000206,
          "velocity": 0.7874015748031497,
          "duration": 0.06469288541666174
        },
        {
          "name": "C#4",
          "midi": 61,
          "time": 322.89315601041875,
          "velocity": 0.7874015748031497,
          "duration": 0.06578937500000848
        },
        {
          "name": "F#4",
          "midi": 66,
          "time": 322.89315601041875,
          "velocity": 0.7874015748031497,
          "duration": 0.06578937500000848
        },
        {
          "name": "D5",
          "midi": 74,
          "time": 322.89315601041875,
          "velocity": 0.7874015748031497,
          "duration": 0.06578937500000848
        },
        {
          "name": "F#5",
          "midi": 78,
          "time": 322.89315601041875,
          "velocity": 0.7874015748031497,
          "duration": 0.06578937500000848
        },
        {
          "name": "D#6",
          "midi": 87,
          "time": 322.89315601041875,
          "velocity": 0.7874015748031497,
          "duration": 0.06578937500000848
        },
        {
          "name": "F#6",
          "midi": 90,
          "time": 322.89315601041875,
          "velocity": 0.7874015748031497,
          "duration": 0.06578937500000848
        },
        {
          "name": "D#7",
          "midi": 99,
          "time": 322.89315601041875,
          "velocity": 0.7874015748031497,
          "duration": 0.06578937500000848
        },
        {
          "name": "F#7",
          "midi": 102,
          "time": 322.89315601041875,
          "velocity": 0.7874015748031497,
          "duration": 0.06578937500000848
        },
        {
          "name": "D4",
          "midi": 62,
          "time": 323.1574100000021,
          "velocity": 0.7874015748031497,
          "duration": 0.5252185104166642
        },
        {
          "name": "F#4",
          "midi": 66,
          "time": 323.1574100000021,
          "velocity": 0.7874015748031497,
          "duration": 0.5241220208333175
        },
        {
          "name": "D#5",
          "midi": 75,
          "time": 323.1574100000021,
          "velocity": 0.7874015748031497,
          "duration": 0.5252185104166642
        },
        {
          "name": "F#5",
          "midi": 78,
          "time": 323.1574100000021,
          "velocity": 0.7874015748031497,
          "duration": 0.5241220208333175
        },
        {
          "name": "E6",
          "midi": 88,
          "time": 323.1574100000021,
          "velocity": 0.7874015748031497,
          "duration": 0.5252185104166642
        },
        {
          "name": "F#6",
          "midi": 90,
          "time": 323.1574100000021,
          "velocity": 0.7874015748031497,
          "duration": 0.5241220208333175
        },
        {
          "name": "D#7",
          "midi": 99,
          "time": 323.1574100000021,
          "velocity": 0.7874015748031497,
          "duration": 0.06469288541666174
        },
        {
          "name": "F#7",
          "midi": 102,
          "time": 323.1574100000021,
          "velocity": 0.7874015748031497,
          "duration": 0.06469288541666174
        },
        {
          "name": "E7",
          "midi": 100,
          "time": 323.2231993750021,
          "velocity": 0.7874015748031497,
          "duration": 0.45942913541665575
        },
        {
          "name": "F7",
          "midi": 101,
          "time": 323.2231993750021,
          "velocity": 0.7874015748031497,
          "duration": 0.45942913541665575
        },
        {
          "name": "C#4",
          "midi": 61,
          "time": 323.6837250000021,
          "velocity": 0.7874015748031497,
          "duration": 0.5230255312500276
        },
        {
          "name": "F#4",
          "midi": 66,
          "time": 323.6837250000021,
          "velocity": 0.7874015748031497,
          "duration": 0.5230255312500276
        },
        {
          "name": "D5",
          "midi": 74,
          "time": 323.6837250000021,
          "velocity": 0.7874015748031497,
          "duration": 0.5230255312500276
        },
        {
          "name": "F#5",
          "midi": 78,
          "time": 323.6837250000021,
          "velocity": 0.7874015748031497,
          "duration": 0.5230255312500276
        },
        {
          "name": "D#6",
          "midi": 87,
          "time": 323.6837250000021,
          "velocity": 0.7874015748031497,
          "duration": 0.5230255312500276
        },
        {
          "name": "F#6",
          "midi": 90,
          "time": 323.6837250000021,
          "velocity": 0.7874015748031497,
          "duration": 0.5230255312500276
        },
        {
          "name": "D#7",
          "midi": 99,
          "time": 323.6837250000021,
          "velocity": 0.7874015748031497,
          "duration": 0.5230255312500276
        },
        {
          "name": "F#7",
          "midi": 102,
          "time": 323.6837250000021,
          "velocity": 0.7874015748031497,
          "duration": 0.5230255312500276
        },
        {
          "name": "C4",
          "midi": 60,
          "time": 324.2100400000021,
          "velocity": 0.7874015748031497,
          "duration": 0.06578937500000848
        },
        {
          "name": "F#4",
          "midi": 66,
          "time": 324.2100400000021,
          "velocity": 0.7874015748031497,
          "duration": 0.06578937500000848
        },
        {
          "name": "C5",
          "midi": 72,
          "time": 324.2100400000021,
          "velocity": 0.7874015748031497,
          "duration": 0.06578937500000848
        },
        {
          "name": "F#5",
          "midi": 78,
          "time": 324.2100400000021,
          "velocity": 0.7874015748031497,
          "duration": 0.06578937500000848
        },
        {
          "name": "C6",
          "midi": 84,
          "time": 324.2100400000021,
          "velocity": 0.7874015748031497,
          "duration": 0.06578937500000848
        },
        {
          "name": "F#6",
          "midi": 90,
          "time": 324.2100400000021,
          "velocity": 0.7874015748031497,
          "duration": 0.06578937500000848
        },
        {
          "name": "C7",
          "midi": 96,
          "time": 324.2100400000021,
          "velocity": 0.7874015748031497,
          "duration": 0.06578937500000848
        },
        {
          "name": "F#7",
          "midi": 102,
          "time": 324.2100400000021,
          "velocity": 0.7874015748031497,
          "duration": 0.06578937500000848
        },
        {
          "name": "C#4",
          "midi": 61,
          "time": 324.60587273958544,
          "velocity": 0.7874015748031497,
          "duration": 0.06469288541666174
        },
        {
          "name": "F#4",
          "midi": 66,
          "time": 324.60587273958544,
          "velocity": 0.7874015748031497,
          "duration": 0.06469288541666174
        },
        {
          "name": "C#5",
          "midi": 73,
          "time": 324.60587273958544,
          "velocity": 0.7874015748031497,
          "duration": 0.06469288541666174
        },
        {
          "name": "F#5",
          "midi": 78,
          "time": 324.60587273958544,
          "velocity": 0.7874015748031497,
          "duration": 0.06469288541666174
        },
        {
          "name": "C#6",
          "midi": 85,
          "time": 324.60587273958544,
          "velocity": 0.7874015748031497,
          "duration": 0.06469288541666174
        },
        {
          "name": "F#6",
          "midi": 90,
          "time": 324.60587273958544,
          "velocity": 0.7874015748031497,
          "duration": 0.06469288541666174
        },
        {
          "name": "C#7",
          "midi": 97,
          "time": 324.60587273958544,
          "velocity": 0.7874015748031497,
          "duration": 0.06469288541666174
        },
        {
          "name": "F#7",
          "midi": 102,
          "time": 324.60587273958544,
          "velocity": 0.7874015748031497,
          "duration": 0.06469288541666174
        },
        {
          "name": "C#7",
          "midi": 97,
          "time": 324.8679337500021,
          "velocity": 0.7874015748031497,
          "duration": 0.06578937500000848
        },
        {
          "name": "F#7",
          "midi": 102,
          "time": 324.8679337500021,
          "velocity": 0.7874015748031497,
          "duration": 0.06578937500000848
        },
        {
          "name": "D4",
          "midi": 62,
          "time": 325.0006089895855,
          "velocity": 0.7874015748031497,
          "duration": 0.06469288541666174
        },
        {
          "name": "F#4",
          "midi": 66,
          "time": 325.0006089895855,
          "velocity": 0.7874015748031497,
          "duration": 0.06469288541666174
        },
        {
          "name": "D5",
          "midi": 74,
          "time": 325.0006089895855,
          "velocity": 0.7874015748031497,
          "duration": 0.06469288541666174
        },
        {
          "name": "F#5",
          "midi": 78,
          "time": 325.0006089895855,
          "velocity": 0.7874015748031497,
          "duration": 0.06469288541666174
        },
        {
          "name": "D6",
          "midi": 86,
          "time": 325.0006089895855,
          "velocity": 0.7874015748031497,
          "duration": 0.06469288541666174
        },
        {
          "name": "F#6",
          "midi": 90,
          "time": 325.0006089895855,
          "velocity": 0.7874015748031497,
          "duration": 0.06469288541666174
        },
        {
          "name": "D7",
          "midi": 98,
          "time": 325.0006089895855,
          "velocity": 0.7874015748031497,
          "duration": 0.06469288541666174
        },
        {
          "name": "F7",
          "midi": 101,
          "time": 325.0006089895855,
          "velocity": 0.7874015748031497,
          "duration": 0.06469288541666174
        },
        {
          "name": "C4",
          "midi": 60,
          "time": 325.2626700000022,
          "velocity": 0.7874015748031497,
          "duration": 0.06688586458335521
        },
        {
          "name": "F#4",
          "midi": 66,
          "time": 325.2626700000022,
          "velocity": 0.7874015748031497,
          "duration": 0.06688586458335521
        },
        {
          "name": "C#5",
          "midi": 73,
          "time": 325.2626700000022,
          "velocity": 0.7874015748031497,
          "duration": 0.06688586458335521
        },
        {
          "name": "F#5",
          "midi": 78,
          "time": 325.2626700000022,
          "velocity": 0.7874015748031497,
          "duration": 0.06688586458335521
        },
        {
          "name": "C#6",
          "midi": 85,
          "time": 325.2626700000022,
          "velocity": 0.7874015748031497,
          "duration": 0.06688586458335521
        },
        {
          "name": "F#6",
          "midi": 90,
          "time": 325.2626700000022,
          "velocity": 0.7874015748031497,
          "duration": 0.06688586458335521
        },
        {
          "name": "C#7",
          "midi": 97,
          "time": 325.2626700000022,
          "velocity": 0.7874015748031497,
          "duration": 0.06688586458335521
        },
        {
          "name": "F#7",
          "midi": 102,
          "time": 325.2626700000022,
          "velocity": 0.7874015748031497,
          "duration": 0.06688586458335521
        },
        {
          "name": "D7",
          "midi": 98,
          "time": 325.3503891666689,
          "velocity": 0.7874015748031497,
          "duration": 0.06578937500000848
        },
        {
          "name": "F7",
          "midi": 101,
          "time": 325.3503891666689,
          "velocity": 0.7874015748031497,
          "duration": 0.06578937500000848
        },
        {
          "name": "D6",
          "midi": 86,
          "time": 325.39424875000225,
          "velocity": 0.7874015748031497,
          "duration": 0.06578937499995163
        },
        {
          "name": "F6",
          "midi": 89,
          "time": 325.39424875000225,
          "velocity": 0.7874015748031497,
          "duration": 0.06578937499995163
        },
        {
          "name": "C#7",
          "midi": 97,
          "time": 325.43810833333555,
          "velocity": 0.7874015748031497,
          "duration": 0.06578937500000848
        },
        {
          "name": "F7",
          "midi": 101,
          "time": 325.43810833333555,
          "velocity": 0.7874015748031497,
          "duration": 0.06578937500000848
        },
        {
          "name": "C#4",
          "midi": 61,
          "time": 325.52692398958555,
          "velocity": 0.7874015748031497,
          "duration": 0.06469288541666174
        },
        {
          "name": "F4",
          "midi": 65,
          "time": 325.52692398958555,
          "velocity": 0.7874015748031497,
          "duration": 0.06469288541666174
        },
        {
          "name": "D5",
          "midi": 74,
          "time": 325.52692398958555,
          "velocity": 0.7874015748031497,
          "duration": 0.06469288541666174
        },
        {
          "name": "F5",
          "midi": 77,
          "time": 325.52692398958555,
          "velocity": 0.7874015748031497,
          "duration": 0.06469288541666174
        },
        {
          "name": "C#6",
          "midi": 85,
          "time": 325.52692398958555,
          "velocity": 0.7874015748031497,
          "duration": 0.06469288541666174
        },
        {
          "name": "F6",
          "midi": 89,
          "time": 325.52692398958555,
          "velocity": 0.7874015748031497,
          "duration": 0.06469288541666174
        },
        {
          "name": "D7",
          "midi": 98,
          "time": 325.6146431562522,
          "velocity": 0.7874015748031497,
          "duration": 0.06469288541666174
        },
        {
          "name": "F7",
          "midi": 101,
          "time": 325.6146431562522,
          "velocity": 0.7874015748031497,
          "duration": 0.06469288541666174
        },
        {
          "name": "D4",
          "midi": 62,
          "time": 325.7889850000022,
          "velocity": 0.7874015748031497,
          "duration": 0.7883760104166413
        },
        {
          "name": "F4",
          "midi": 65,
          "time": 325.7889850000022,
          "velocity": 0.7874015748031497,
          "duration": 0.7883760104166413
        },
        {
          "name": "D#5",
          "midi": 75,
          "time": 325.7889850000022,
          "velocity": 0.7874015748031497,
          "duration": 0.7883760104166413
        },
        {
          "name": "F5",
          "midi": 77,
          "time": 325.7889850000022,
          "velocity": 0.7874015748031497,
          "duration": 0.7883760104166413
        },
        {
          "name": "D#6",
          "midi": 87,
          "time": 325.7889850000022,
          "velocity": 0.7874015748031497,
          "duration": 0.7883760104166413
        },
        {
          "name": "F6",
          "midi": 89,
          "time": 325.7889850000022,
          "velocity": 0.7874015748031497,
          "duration": 0.7883760104166413
        },
        {
          "name": "D#7",
          "midi": 99,
          "time": 325.7889850000022,
          "velocity": 0.7874015748031497,
          "duration": 0.7883760104166413
        },
        {
          "name": "F7",
          "midi": 101,
          "time": 325.7889850000022,
          "velocity": 0.7874015748031497,
          "duration": 0.7883760104166413
        },
        {
          "name": "C4",
          "midi": 60,
          "time": 326.5784575000022,
          "velocity": 0.7874015748031497,
          "duration": 0.06469288541666174
        },
        {
          "name": "F#4",
          "midi": 66,
          "time": 326.5784575000022,
          "velocity": 0.7874015748031497,
          "duration": 0.06469288541666174
        },
        {
          "name": "C5",
          "midi": 72,
          "time": 326.5784575000022,
          "velocity": 0.7874015748031497,
          "duration": 0.06469288541666174
        },
        {
          "name": "F#5",
          "midi": 78,
          "time": 326.5784575000022,
          "velocity": 0.7874015748031497,
          "duration": 0.06469288541666174
        },
        {
          "name": "C6",
          "midi": 84,
          "time": 326.5784575000022,
          "velocity": 0.7874015748031497,
          "duration": 0.06469288541666174
        },
        {
          "name": "F#6",
          "midi": 90,
          "time": 326.5784575000022,
          "velocity": 0.7874015748031497,
          "duration": 0.06469288541666174
        },
        {
          "name": "C7",
          "midi": 96,
          "time": 326.5784575000022,
          "velocity": 0.7874015748031497,
          "duration": 0.06469288541666174
        },
        {
          "name": "F#7",
          "midi": 102,
          "time": 326.5784575000022,
          "velocity": 0.7874015748031497,
          "duration": 0.06469288541666174
        },
        {
          "name": "C#4",
          "midi": 61,
          "time": 326.84161500000215,
          "velocity": 0.7874015748031497,
          "duration": 0.06578937500000848
        },
        {
          "name": "F#4",
          "midi": 66,
          "time": 326.84161500000215,
          "velocity": 0.7874015748031497,
          "duration": 0.06578937500000848
        },
        {
          "name": "C#5",
          "midi": 73,
          "time": 326.84161500000215,
          "velocity": 0.7874015748031497,
          "duration": 0.06578937500000848
        },
        {
          "name": "F#5",
          "midi": 78,
          "time": 326.84161500000215,
          "velocity": 0.7874015748031497,
          "duration": 0.06578937500000848
        },
        {
          "name": "C#6",
          "midi": 85,
          "time": 326.84161500000215,
          "velocity": 0.7874015748031497,
          "duration": 0.06578937500000848
        },
        {
          "name": "F#6",
          "midi": 90,
          "time": 326.84161500000215,
          "velocity": 0.7874015748031497,
          "duration": 0.06578937500000848
        },
        {
          "name": "C#7",
          "midi": 97,
          "time": 326.84161500000215,
          "velocity": 0.7874015748031497,
          "duration": 0.06578937500000848
        },
        {
          "name": "F#7",
          "midi": 102,
          "time": 326.84161500000215,
          "velocity": 0.7874015748031497,
          "duration": 0.06578937500000848
        },
        {
          "name": "D4",
          "midi": 62,
          "time": 327.1058689895855,
          "velocity": 0.7874015748031497,
          "duration": 0.06469288541666174
        },
        {
          "name": "F#4",
          "midi": 66,
          "time": 327.1058689895855,
          "velocity": 0.7874015748031497,
          "duration": 0.06469288541666174
        },
        {
          "name": "D5",
          "midi": 74,
          "time": 327.1058689895855,
          "velocity": 0.7874015748031497,
          "duration": 0.06469288541666174
        },
        {
          "name": "F#5",
          "midi": 78,
          "time": 327.1058689895855,
          "velocity": 0.7874015748031497,
          "duration": 0.06469288541666174
        },
        {
          "name": "D6",
          "midi": 86,
          "time": 327.1058689895855,
          "velocity": 0.7874015748031497,
          "duration": 0.06469288541666174
        },
        {
          "name": "F#6",
          "midi": 90,
          "time": 327.1058689895855,
          "velocity": 0.7874015748031497,
          "duration": 0.06469288541666174
        },
        {
          "name": "C#7",
          "midi": 97,
          "time": 327.1058689895855,
          "velocity": 0.7874015748031497,
          "duration": 0.063596395833315
        },
        {
          "name": "F#7",
          "midi": 102,
          "time": 327.1058689895855,
          "velocity": 0.7874015748031497,
          "duration": 0.063596395833315
        },
        {
          "name": "D7",
          "midi": 98,
          "time": 327.17056187500214,
          "velocity": 0.7874015748031497,
          "duration": 0.06578937500000848
        },
        {
          "name": "F7",
          "midi": 101,
          "time": 327.17056187500214,
          "velocity": 0.7874015748031497,
          "duration": 0.06578937500000848
        },
        {
          "name": "C4",
          "midi": 60,
          "time": 327.36793000000216,
          "velocity": 0.7874015748031497,
          "duration": 0.06578937500000848
        },
        {
          "name": "F#4",
          "midi": 66,
          "time": 327.36793000000216,
          "velocity": 0.7874015748031497,
          "duration": 0.06578937500000848
        },
        {
          "name": "C#5",
          "midi": 73,
          "time": 327.36793000000216,
          "velocity": 0.7874015748031497,
          "duration": 0.06578937500000848
        },
        {
          "name": "F#5",
          "midi": 78,
          "time": 327.36793000000216,
          "velocity": 0.7874015748031497,
          "duration": 0.06578937500000848
        },
        {
          "name": "C#6",
          "midi": 85,
          "time": 327.36793000000216,
          "velocity": 0.7874015748031497,
          "duration": 0.06578937500000848
        },
        {
          "name": "F#6",
          "midi": 90,
          "time": 327.36793000000216,
          "velocity": 0.7874015748031497,
          "duration": 0.06578937500000848
        },
        {
          "name": "C#7",
          "midi": 97,
          "time": 327.36793000000216,
          "velocity": 0.7874015748031497,
          "duration": 0.06578937500000848
        },
        {
          "name": "F#7",
          "midi": 102,
          "time": 327.36793000000216,
          "velocity": 0.7874015748031497,
          "duration": 0.06578937500000848
        },
        {
          "name": "D7",
          "midi": 98,
          "time": 327.45674565625217,
          "velocity": 0.7874015748031497,
          "duration": 0.06469288541666174
        },
        {
          "name": "F7",
          "midi": 101,
          "time": 327.45674565625217,
          "velocity": 0.7874015748031497,
          "duration": 0.06469288541666174
        },
        {
          "name": "C#7",
          "midi": 97,
          "time": 327.5444648229188,
          "velocity": 0.7874015748031497,
          "duration": 0.06469288541666174
        },
        {
          "name": "F7",
          "midi": 101,
          "time": 327.5444648229188,
          "velocity": 0.7874015748031497,
          "duration": 0.06469288541666174
        },
        {
          "name": "C#4",
          "midi": 61,
          "time": 327.6321839895855,
          "velocity": 0.7874015748031497,
          "duration": 0.06469288541666174
        },
        {
          "name": "F4",
          "midi": 65,
          "time": 327.6321839895855,
          "velocity": 0.7874015748031497,
          "duration": 0.06469288541666174
        },
        {
          "name": "D5",
          "midi": 74,
          "time": 327.6321839895855,
          "velocity": 0.7874015748031497,
          "duration": 0.06469288541666174
        },
        {
          "name": "F5",
          "midi": 77,
          "time": 327.6321839895855,
          "velocity": 0.7874015748031497,
          "duration": 0.06469288541666174
        },
        {
          "name": "D6",
          "midi": 86,
          "time": 327.6321839895855,
          "velocity": 0.7874015748031497,
          "duration": 0.06469288541666174
        },
        {
          "name": "F#6",
          "midi": 90,
          "time": 327.6321839895855,
          "velocity": 0.7874015748031497,
          "duration": 0.06469288541666174
        },
        {
          "name": "D7",
          "midi": 98,
          "time": 327.7188066666688,
          "velocity": 0.7874015748031497,
          "duration": 0.06578937500000848
        },
        {
          "name": "F7",
          "midi": 101,
          "time": 327.7188066666688,
          "velocity": 0.7874015748031497,
          "duration": 0.06578937500000848
        },
        {
          "name": "D4",
          "midi": 62,
          "time": 327.8942450000021,
          "velocity": 0.7874015748031497,
          "duration": 0.06578937500000848
        },
        {
          "name": "F4",
          "midi": 65,
          "time": 327.8942450000021,
          "velocity": 0.7874015748031497,
          "duration": 0.06578937500000848
        },
        {
          "name": "D#5",
          "midi": 75,
          "time": 327.8942450000021,
          "velocity": 0.7874015748031497,
          "duration": 0.06578937500000848
        },
        {
          "name": "F5",
          "midi": 77,
          "time": 327.8942450000021,
          "velocity": 0.7874015748031497,
          "duration": 0.06578937500000848
        },
        {
          "name": "D#6",
          "midi": 87,
          "time": 327.8942450000021,
          "velocity": 0.7874015748031497,
          "duration": 0.06578937500000848
        },
        {
          "name": "F#6",
          "midi": 90,
          "time": 327.8942450000021,
          "velocity": 0.7874015748031497,
          "duration": 0.06578937500000848
        },
        {
          "name": "D#7",
          "midi": 99,
          "time": 327.8942450000021,
          "velocity": 0.7874015748031497,
          "duration": 0.06578937500000848
        },
        {
          "name": "F7",
          "midi": 101,
          "time": 327.8942450000021,
          "velocity": 0.7874015748031497,
          "duration": 0.06578937500000848
        },
        {
          "name": "D6",
          "midi": 86,
          "time": 328.0269202395855,
          "velocity": 0.7874015748031497,
          "duration": 0.06469288541666174
        },
        {
          "name": "F6",
          "midi": 89,
          "time": 328.0269202395855,
          "velocity": 0.7874015748031497,
          "duration": 0.06469288541666174
        },
        {
          "name": "D7",
          "midi": 98,
          "time": 328.0269202395855,
          "velocity": 0.7874015748031497,
          "duration": 0.06469288541666174
        },
        {
          "name": "F7",
          "midi": 101,
          "time": 328.0269202395855,
          "velocity": 0.7874015748031497,
          "duration": 0.06469288541666174
        },
        {
          "name": "C#4",
          "midi": 61,
          "time": 328.15740250000215,
          "velocity": 0.7874015748031497,
          "duration": 0.06469288541666174
        },
        {
          "name": "F4",
          "midi": 65,
          "time": 328.15740250000215,
          "velocity": 0.7874015748031497,
          "duration": 0.06469288541666174
        },
        {
          "name": "D5",
          "midi": 74,
          "time": 328.15740250000215,
          "velocity": 0.7874015748031497,
          "duration": 0.06469288541666174
        },
        {
          "name": "F5",
          "midi": 77,
          "time": 328.15740250000215,
          "velocity": 0.7874015748031497,
          "duration": 0.06469288541666174
        },
        {
          "name": "D#6",
          "midi": 87,
          "time": 328.15740250000215,
          "velocity": 0.7874015748031497,
          "duration": 0.06469288541666174
        },
        {
          "name": "F6",
          "midi": 89,
          "time": 328.15740250000215,
          "velocity": 0.7874015748031497,
          "duration": 0.06469288541666174
        },
        {
          "name": "D#7",
          "midi": 99,
          "time": 328.15740250000215,
          "velocity": 0.7874015748031497,
          "duration": 0.06469288541666174
        },
        {
          "name": "F7",
          "midi": 101,
          "time": 328.15740250000215,
          "velocity": 0.7874015748031497,
          "duration": 0.06469288541666174
        },
        {
          "name": "D7",
          "midi": 98,
          "time": 328.28898125000217,
          "velocity": 0.7874015748031497,
          "duration": 0.06469288541666174
        },
        {
          "name": "F7",
          "midi": 101,
          "time": 328.28898125000217,
          "velocity": 0.7874015748031497,
          "duration": 0.06469288541666174
        },
        {
          "name": "C4",
          "midi": 60,
          "time": 328.4205600000022,
          "velocity": 0.7874015748031497,
          "duration": 0.06469288541666174
        },
        {
          "name": "F#4",
          "midi": 66,
          "time": 328.4205600000022,
          "velocity": 0.7874015748031497,
          "duration": 0.06469288541666174
        },
        {
          "name": "C5",
          "midi": 72,
          "time": 328.4205600000022,
          "velocity": 0.7874015748031497,
          "duration": 0.06469288541666174
        },
        {
          "name": "F#5",
          "midi": 78,
          "time": 328.4205600000022,
          "velocity": 0.7874015748031497,
          "duration": 0.06469288541666174
        },
        {
          "name": "C6",
          "midi": 84,
          "time": 328.4205600000022,
          "velocity": 0.7874015748031497,
          "duration": 0.06469288541666174
        },
        {
          "name": "F#6",
          "midi": 90,
          "time": 328.4205600000022,
          "velocity": 0.7874015748031497,
          "duration": 0.06469288541666174
        },
        {
          "name": "C7",
          "midi": 96,
          "time": 328.4205600000022,
          "velocity": 0.7874015748031497,
          "duration": 0.06469288541666174
        },
        {
          "name": "F7",
          "midi": 101,
          "time": 328.4205600000022,
          "velocity": 0.7874015748031497,
          "duration": 0.06469288541666174
        },
        {
          "name": "C#4",
          "midi": 61,
          "time": 328.8152962500022,
          "velocity": 0.7874015748031497,
          "duration": 0.06578937500000848
        },
        {
          "name": "F#4",
          "midi": 66,
          "time": 328.8152962500022,
          "velocity": 0.7874015748031497,
          "duration": 0.06578937500000848
        },
        {
          "name": "C#5",
          "midi": 73,
          "time": 328.8152962500022,
          "velocity": 0.7874015748031497,
          "duration": 0.06578937500000848
        },
        {
          "name": "F#5",
          "midi": 78,
          "time": 328.8152962500022,
          "velocity": 0.7874015748031497,
          "duration": 0.06578937500000848
        },
        {
          "name": "C#6",
          "midi": 85,
          "time": 328.8152962500022,
          "velocity": 0.7874015748031497,
          "duration": 0.06578937500000848
        },
        {
          "name": "F#6",
          "midi": 90,
          "time": 328.8152962500022,
          "velocity": 0.7874015748031497,
          "duration": 0.06578937500000848
        },
        {
          "name": "C#7",
          "midi": 97,
          "time": 328.8152962500022,
          "velocity": 0.7874015748031497,
          "duration": 0.06578937500000848
        },
        {
          "name": "F#7",
          "midi": 102,
          "time": 328.8152962500022,
          "velocity": 0.7874015748031497,
          "duration": 0.06578937500000848
        },
        {
          "name": "C#7",
          "midi": 97,
          "time": 329.0795502395855,
          "velocity": 0.7874015748031497,
          "duration": 0.06469288541666174
        },
        {
          "name": "F#7",
          "midi": 102,
          "time": 329.0795502395855,
          "velocity": 0.7874015748031497,
          "duration": 0.06469288541666174
        },
        {
          "name": "D4",
          "midi": 62,
          "time": 329.21003250000217,
          "velocity": 0.7874015748031497,
          "duration": 0.06469288541666174
        },
        {
          "name": "F#4",
          "midi": 66,
          "time": 329.21003250000217,
          "velocity": 0.7874015748031497,
          "duration": 0.06469288541666174
        },
        {
          "name": "D5",
          "midi": 74,
          "time": 329.21003250000217,
          "velocity": 0.7874015748031497,
          "duration": 0.06469288541666174
        },
        {
          "name": "F#5",
          "midi": 78,
          "time": 329.21003250000217,
          "velocity": 0.7874015748031497,
          "duration": 0.06469288541666174
        },
        {
          "name": "D6",
          "midi": 86,
          "time": 329.21003250000217,
          "velocity": 0.7874015748031497,
          "duration": 0.06469288541666174
        },
        {
          "name": "F#6",
          "midi": 90,
          "time": 329.21003250000217,
          "velocity": 0.7874015748031497,
          "duration": 0.06469288541666174
        },
        {
          "name": "D7",
          "midi": 98,
          "time": 329.21003250000217,
          "velocity": 0.7874015748031497,
          "duration": 0.06469288541666174
        },
        {
          "name": "F7",
          "midi": 101,
          "time": 329.21003250000217,
          "velocity": 0.7874015748031497,
          "duration": 0.06469288541666174
        },
        {
          "name": "C4",
          "midi": 60,
          "time": 329.47319000000215,
          "velocity": 0.7874015748031497,
          "duration": 0.06469288541666174
        },
        {
          "name": "F#4",
          "midi": 66,
          "time": 329.47319000000215,
          "velocity": 0.7874015748031497,
          "duration": 0.06469288541666174
        },
        {
          "name": "C#5",
          "midi": 73,
          "time": 329.47319000000215,
          "velocity": 0.7874015748031497,
          "duration": 0.06469288541666174
        },
        {
          "name": "F#5",
          "midi": 78,
          "time": 329.47319000000215,
          "velocity": 0.7874015748031497,
          "duration": 0.06469288541666174
        },
        {
          "name": "C#6",
          "midi": 85,
          "time": 329.47319000000215,
          "velocity": 0.7874015748031497,
          "duration": 0.06469288541666174
        },
        {
          "name": "F#6",
          "midi": 90,
          "time": 329.47319000000215,
          "velocity": 0.7874015748031497,
          "duration": 0.06469288541666174
        },
        {
          "name": "C#7",
          "midi": 97,
          "time": 329.47319000000215,
          "velocity": 0.7874015748031497,
          "duration": 0.06469288541666174
        },
        {
          "name": "F#7",
          "midi": 102,
          "time": 329.47319000000215,
          "velocity": 0.7874015748031497,
          "duration": 0.06469288541666174
        },
        {
          "name": "D7",
          "midi": 98,
          "time": 329.5609091666688,
          "velocity": 0.7874015748031497,
          "duration": 0.06578937500000848
        },
        {
          "name": "F7",
          "midi": 101,
          "time": 329.5609091666688,
          "velocity": 0.7874015748031497,
          "duration": 0.06578937500000848
        },
        {
          "name": "D6",
          "midi": 86,
          "time": 329.60476875000217,
          "velocity": 0.7874015748031497,
          "duration": 0.06469288541666174
        },
        {
          "name": "F6",
          "midi": 89,
          "time": 329.60476875000217,
          "velocity": 0.7874015748031497,
          "duration": 0.06469288541666174
        },
        {
          "name": "C#7",
          "midi": 97,
          "time": 329.64862833333547,
          "velocity": 0.7874015748031497,
          "duration": 0.06469288541671858
        },
        {
          "name": "F7",
          "midi": 101,
          "time": 329.64862833333547,
          "velocity": 0.7874015748031497,
          "duration": 0.06469288541671858
        },
        {
          "name": "C#4",
          "midi": 61,
          "time": 329.7363475000022,
          "velocity": 0.7874015748031497,
          "duration": 0.06469288541666174
        },
        {
          "name": "F4",
          "midi": 65,
          "time": 329.7363475000022,
          "velocity": 0.7874015748031497,
          "duration": 0.06469288541666174
        },
        {
          "name": "D5",
          "midi": 74,
          "time": 329.7363475000022,
          "velocity": 0.7874015748031497,
          "duration": 0.06469288541666174
        },
        {
          "name": "F5",
          "midi": 77,
          "time": 329.7363475000022,
          "velocity": 0.7874015748031497,
          "duration": 0.06469288541666174
        },
        {
          "name": "C#6",
          "midi": 85,
          "time": 329.7363475000022,
          "velocity": 0.7874015748031497,
          "duration": 0.06469288541666174
        },
        {
          "name": "F6",
          "midi": 89,
          "time": 329.7363475000022,
          "velocity": 0.7874015748031497,
          "duration": 0.06469288541666174
        },
        {
          "name": "D7",
          "midi": 98,
          "time": 329.82406666666884,
          "velocity": 0.7874015748031497,
          "duration": 0.06578937500000848
        },
        {
          "name": "F7",
          "midi": 101,
          "time": 329.82406666666884,
          "velocity": 0.7874015748031497,
          "duration": 0.06578937500000848
        },
        {
          "name": "D4",
          "midi": 62,
          "time": 329.99950500000216,
          "velocity": 0.7874015748031497,
          "duration": 4.735738510416695
        },
        {
          "name": "F4",
          "midi": 65,
          "time": 329.99950500000216,
          "velocity": 0.7874015748031497,
          "duration": 4.735738510416695
        },
        {
          "name": "D#5",
          "midi": 75,
          "time": 329.99950500000216,
          "velocity": 0.7874015748031497,
          "duration": 4.735738510416695
        },
        {
          "name": "F5",
          "midi": 77,
          "time": 329.99950500000216,
          "velocity": 0.7874015748031497,
          "duration": 4.735738510416695
        },
        {
          "name": "D#6",
          "midi": 87,
          "time": 329.99950500000216,
          "velocity": 0.7874015748031497,
          "duration": 4.735738510416695
        },
        {
          "name": "F6",
          "midi": 89,
          "time": 329.99950500000216,
          "velocity": 0.7874015748031497,
          "duration": 4.735738510416695
        },
        {
          "name": "D#7",
          "midi": 99,
          "time": 329.99950500000216,
          "velocity": 0.7874015748031497,
          "duration": 4.735738510416695
        },
        {
          "name": "F7",
          "midi": 101,
          "time": 329.99950500000216,
          "velocity": 0.7874015748031497,
          "duration": 4.735738510416695
        },
        {
          "name": "C#4",
          "midi": 61,
          "time": 334.7363400000022,
          "velocity": 0.7874015748031497,
          "duration": 0.06469288541666174
        },
        {
          "name": "F#4",
          "midi": 66,
          "time": 334.7363400000022,
          "velocity": 0.7874015748031497,
          "duration": 0.06469288541666174
        },
        {
          "name": "D5",
          "midi": 74,
          "time": 334.7363400000022,
          "velocity": 0.7874015748031497,
          "duration": 0.06469288541666174
        },
        {
          "name": "F#5",
          "midi": 78,
          "time": 334.7363400000022,
          "velocity": 0.7874015748031497,
          "duration": 0.06469288541666174
        },
        {
          "name": "D#6",
          "midi": 87,
          "time": 334.7363400000022,
          "velocity": 0.7874015748031497,
          "duration": 0.06469288541666174
        },
        {
          "name": "F#6",
          "midi": 90,
          "time": 334.7363400000022,
          "velocity": 0.7874015748031497,
          "duration": 0.06469288541666174
        },
        {
          "name": "E7",
          "midi": 100,
          "time": 334.7363400000022,
          "velocity": 0.7874015748031497,
          "duration": 0.06469288541666174
        },
        {
          "name": "F#7",
          "midi": 102,
          "time": 334.7363400000022,
          "velocity": 0.7874015748031497,
          "duration": 0.06469288541666174
        },
        {
          "name": "C#4",
          "midi": 61,
          "time": 335.2626550000022,
          "velocity": 0.7874015748031497,
          "duration": 0.06578937500000848
        },
        {
          "name": "F#4",
          "midi": 66,
          "time": 335.2626550000022,
          "velocity": 0.7874015748031497,
          "duration": 0.06578937500000848
        },
        {
          "name": "D5",
          "midi": 74,
          "time": 335.2626550000022,
          "velocity": 0.7874015748031497,
          "duration": 0.06578937500000848
        },
        {
          "name": "F#5",
          "midi": 78,
          "time": 335.2626550000022,
          "velocity": 0.7874015748031497,
          "duration": 0.06578937500000848
        },
        {
          "name": "D#6",
          "midi": 87,
          "time": 335.2626550000022,
          "velocity": 0.7874015748031497,
          "duration": 0.06578937500000848
        },
        {
          "name": "F#6",
          "midi": 90,
          "time": 335.2626550000022,
          "velocity": 0.7874015748031497,
          "duration": 0.06578937500000848
        },
        {
          "name": "E7",
          "midi": 100,
          "time": 335.2626550000022,
          "velocity": 0.7874015748031497,
          "duration": 0.06578937500000848
        },
        {
          "name": "F#7",
          "midi": 102,
          "time": 335.2626550000022,
          "velocity": 0.7874015748031497,
          "duration": 0.06578937500000848
        },
        {
          "name": "C4",
          "midi": 60,
          "time": 335.7889700000022,
          "velocity": 0.7874015748031497,
          "duration": 0.06688586458335521
        },
        {
          "name": "F#4",
          "midi": 66,
          "time": 335.7889700000022,
          "velocity": 0.7874015748031497,
          "duration": 0.06688586458335521
        },
        {
          "name": "C5",
          "midi": 72,
          "time": 335.7889700000022,
          "velocity": 0.7874015748031497,
          "duration": 0.06688586458335521
        },
        {
          "name": "F#5",
          "midi": 78,
          "time": 335.7889700000022,
          "velocity": 0.7874015748031497,
          "duration": 0.06688586458335521
        },
        {
          "name": "C6",
          "midi": 84,
          "time": 335.7889700000022,
          "velocity": 0.7874015748031497,
          "duration": 0.06688586458335521
        },
        {
          "name": "F#6",
          "midi": 90,
          "time": 335.7889700000022,
          "velocity": 0.7874015748031497,
          "duration": 0.06688586458335521
        },
        {
          "name": "C7",
          "midi": 96,
          "time": 335.7889700000022,
          "velocity": 0.7874015748031497,
          "duration": 0.06688586458335521
        },
        {
          "name": "F#7",
          "midi": 102,
          "time": 335.7889700000022,
          "velocity": 0.7874015748031497,
          "duration": 0.06688586458335521
        },
        {
          "name": "C#4",
          "midi": 61,
          "time": 336.0565134583356,
          "velocity": 0.7874015748031497,
          "duration": 0.063596395833315
        },
        {
          "name": "F#4",
          "midi": 66,
          "time": 336.0565134583356,
          "velocity": 0.7874015748031497,
          "duration": 0.063596395833315
        },
        {
          "name": "D5",
          "midi": 74,
          "time": 336.0565134583356,
          "velocity": 0.7874015748031497,
          "duration": 0.063596395833315
        },
        {
          "name": "F#5",
          "midi": 78,
          "time": 336.0565134583356,
          "velocity": 0.7874015748031497,
          "duration": 0.063596395833315
        },
        {
          "name": "D#6",
          "midi": 87,
          "time": 336.0565134583356,
          "velocity": 0.7874015748031497,
          "duration": 0.063596395833315
        },
        {
          "name": "F#6",
          "midi": 90,
          "time": 336.0565134583356,
          "velocity": 0.7874015748031497,
          "duration": 0.063596395833315
        },
        {
          "name": "E7",
          "midi": 100,
          "time": 336.0565134583356,
          "velocity": 0.7874015748031497,
          "duration": 0.063596395833315
        },
        {
          "name": "F#7",
          "midi": 102,
          "time": 336.0565134583356,
          "velocity": 0.7874015748031497,
          "duration": 0.063596395833315
        },
        {
          "name": "C#4",
          "midi": 61,
          "time": 336.5740565416689,
          "velocity": 0.7874015748031497,
          "duration": 0.06688586458335521
        },
        {
          "name": "F#4",
          "midi": 66,
          "time": 336.5740565416689,
          "velocity": 0.7874015748031497,
          "duration": 0.06688586458335521
        },
        {
          "name": "D5",
          "midi": 74,
          "time": 336.5740565416689,
          "velocity": 0.7874015748031497,
          "duration": 0.06688586458335521
        },
        {
          "name": "F#5",
          "midi": 78,
          "time": 336.5740565416689,
          "velocity": 0.7874015748031497,
          "duration": 0.06688586458335521
        },
        {
          "name": "D#6",
          "midi": 87,
          "time": 336.5740565416689,
          "velocity": 0.7874015748031497,
          "duration": 0.06688586458335521
        },
        {
          "name": "F#6",
          "midi": 90,
          "time": 336.5740565416689,
          "velocity": 0.7874015748031497,
          "duration": 0.06688586458335521
        },
        {
          "name": "E7",
          "midi": 100,
          "time": 336.5740565416689,
          "velocity": 0.7874015748031497,
          "duration": 0.06688586458335521
        },
        {
          "name": "F#7",
          "midi": 102,
          "time": 336.5740565416689,
          "velocity": 0.7874015748031497,
          "duration": 0.06688586458335521
        },
        {
          "name": "C#4",
          "midi": 61,
          "time": 337.09817856250226,
          "velocity": 0.7874015748031497,
          "duration": 0.06688586458335521
        },
        {
          "name": "F#4",
          "midi": 66,
          "time": 337.09817856250226,
          "velocity": 0.7874015748031497,
          "duration": 0.06688586458335521
        },
        {
          "name": "D5",
          "midi": 74,
          "time": 337.09817856250226,
          "velocity": 0.7874015748031497,
          "duration": 0.06688586458335521
        },
        {
          "name": "F#5",
          "midi": 78,
          "time": 337.09817856250226,
          "velocity": 0.7874015748031497,
          "duration": 0.06688586458335521
        },
        {
          "name": "D#6",
          "midi": 87,
          "time": 337.09817856250226,
          "velocity": 0.7874015748031497,
          "duration": 0.06688586458335521
        },
        {
          "name": "F#6",
          "midi": 90,
          "time": 337.09817856250226,
          "velocity": 0.7874015748031497,
          "duration": 0.06688586458335521
        },
        {
          "name": "E7",
          "midi": 100,
          "time": 337.09817856250226,
          "velocity": 0.7874015748031497,
          "duration": 0.06688586458335521
        },
        {
          "name": "F#7",
          "midi": 102,
          "time": 337.09817856250226,
          "velocity": 0.7874015748031497,
          "duration": 0.06688586458335521
        },
        {
          "name": "C4",
          "midi": 60,
          "time": 337.63216898958564,
          "velocity": 0.7874015748031497,
          "duration": 4.995606541666689
        },
        {
          "name": "F#4",
          "midi": 66,
          "time": 337.63216898958564,
          "velocity": 0.7874015748031497,
          "duration": 4.995606541666689
        },
        {
          "name": "C5",
          "midi": 72,
          "time": 337.63216898958564,
          "velocity": 0.7874015748031497,
          "duration": 4.995606541666689
        },
        {
          "name": "F#5",
          "midi": 78,
          "time": 337.63216898958564,
          "velocity": 0.7874015748031497,
          "duration": 4.995606541666689
        },
        {
          "name": "C6",
          "midi": 84,
          "time": 337.63216898958564,
          "velocity": 0.7874015748031497,
          "duration": 4.995606541666689
        },
        {
          "name": "F#6",
          "midi": 90,
          "time": 337.63216898958564,
          "velocity": 0.7874015748031497,
          "duration": 4.995606541666689
        },
        {
          "name": "C7",
          "midi": 96,
          "time": 337.63216898958564,
          "velocity": 0.7874015748031497,
          "duration": 4.995606541666689
        },
        {
          "name": "F#7",
          "midi": 102,
          "time": 337.63216898958564,
          "velocity": 0.7874015748031497,
          "duration": 4.995606541666689
        },
        {
          "name": "D4",
          "midi": 62,
          "time": 342.6310650000023,
          "velocity": 0.7874015748031497,
          "duration": 0.06469288541666174
        },
        {
          "name": "F#4",
          "midi": 66,
          "time": 342.6310650000023,
          "velocity": 0.7874015748031497,
          "duration": 0.06469288541666174
        },
        {
          "name": "D#5",
          "midi": 75,
          "time": 342.6310650000023,
          "velocity": 0.7874015748031497,
          "duration": 0.06469288541666174
        },
        {
          "name": "F#5",
          "midi": 78,
          "time": 342.6310650000023,
          "velocity": 0.7874015748031497,
          "duration": 0.06469288541666174
        },
        {
          "name": "D#6",
          "midi": 87,
          "time": 342.6310650000023,
          "velocity": 0.7874015748031497,
          "duration": 0.06469288541666174
        },
        {
          "name": "F#6",
          "midi": 90,
          "time": 342.6310650000023,
          "velocity": 0.7874015748031497,
          "duration": 0.06469288541666174
        },
        {
          "name": "E7",
          "midi": 100,
          "time": 342.6310650000023,
          "velocity": 0.7874015748031497,
          "duration": 0.06469288541666174
        },
        {
          "name": "F#7",
          "midi": 102,
          "time": 342.6310650000023,
          "velocity": 0.7874015748031497,
          "duration": 0.06469288541666174
        },
        {
          "name": "D5",
          "midi": 74,
          "time": 342.893126010419,
          "velocity": 0.7874015748031497,
          "duration": 0.06469288541666174
        },
        {
          "name": "F5",
          "midi": 77,
          "time": 342.893126010419,
          "velocity": 0.7874015748031497,
          "duration": 0.06469288541666174
        },
        {
          "name": "D6",
          "midi": 86,
          "time": 342.893126010419,
          "velocity": 0.7874015748031497,
          "duration": 0.06469288541666174
        },
        {
          "name": "F#6",
          "midi": 90,
          "time": 342.893126010419,
          "velocity": 0.7874015748031497,
          "duration": 0.06469288541666174
        },
        {
          "name": "D#7",
          "midi": 99,
          "time": 342.893126010419,
          "velocity": 0.7874015748031497,
          "duration": 0.06469288541666174
        },
        {
          "name": "F#7",
          "midi": 102,
          "time": 342.893126010419,
          "velocity": 0.7874015748031497,
          "duration": 0.06469288541666174
        },
        {
          "name": "C#4",
          "midi": 61,
          "time": 343.1573800000023,
          "velocity": 0.7874015748031497,
          "duration": 0.06469288541666174
        },
        {
          "name": "F4",
          "midi": 65,
          "time": 343.1573800000023,
          "velocity": 0.7874015748031497,
          "duration": 0.06469288541666174
        },
        {
          "name": "C#5",
          "midi": 73,
          "time": 343.1573800000023,
          "velocity": 0.7874015748031497,
          "duration": 0.06469288541666174
        },
        {
          "name": "F5",
          "midi": 77,
          "time": 343.1573800000023,
          "velocity": 0.7874015748031497,
          "duration": 0.06469288541666174
        },
        {
          "name": "C#6",
          "midi": 85,
          "time": 343.1573800000023,
          "velocity": 0.7874015748031497,
          "duration": 0.06469288541666174
        },
        {
          "name": "F#6",
          "midi": 90,
          "time": 343.1573800000023,
          "velocity": 0.7874015748031497,
          "duration": 0.06469288541666174
        },
        {
          "name": "D7",
          "midi": 98,
          "time": 343.1573800000023,
          "velocity": 0.7874015748031497,
          "duration": 0.06469288541666174
        },
        {
          "name": "F#7",
          "midi": 102,
          "time": 343.1573800000023,
          "velocity": 0.7874015748031497,
          "duration": 0.06469288541666174
        },
        {
          "name": "C4",
          "midi": 60,
          "time": 343.419441010419,
          "velocity": 0.7874015748031497,
          "duration": 0.06469288541666174
        },
        {
          "name": "F4",
          "midi": 65,
          "time": 343.419441010419,
          "velocity": 0.7874015748031497,
          "duration": 0.06469288541666174
        },
        {
          "name": "C5",
          "midi": 72,
          "time": 343.419441010419,
          "velocity": 0.7874015748031497,
          "duration": 0.06469288541666174
        },
        {
          "name": "F5",
          "midi": 77,
          "time": 343.419441010419,
          "velocity": 0.7874015748031497,
          "duration": 0.06469288541666174
        },
        {
          "name": "C6",
          "midi": 84,
          "time": 343.419441010419,
          "velocity": 0.7874015748031497,
          "duration": 0.06469288541666174
        },
        {
          "name": "F#6",
          "midi": 90,
          "time": 343.419441010419,
          "velocity": 0.7874015748031497,
          "duration": 0.06469288541666174
        },
        {
          "name": "C#7",
          "midi": 97,
          "time": 343.419441010419,
          "velocity": 0.7874015748031497,
          "duration": 0.06469288541666174
        },
        {
          "name": "F#7",
          "midi": 102,
          "time": 343.419441010419,
          "velocity": 0.7874015748031497,
          "duration": 0.06469288541666174
        }
      ],
      "controlChanges": {},
      "id": 2,
      "name": "PART GUITAR",
      "channelNumber": 0,
      "isPercussion": false
    },
    {
      "startTime": 9.47367,
      "duration": 343.484133895837,
      "length": 6822,
      "notes": [
        {
          "name": "D4",
          "midi": 62,
          "time": 9.47367,
          "velocity": 0.7874015748031497,
          "duration": 0.0657893749999996
        },
        {
          "name": "F#4",
          "midi": 66,
          "time": 9.47367,
          "velocity": 0.7874015748031497,
          "duration": 0.0657893749999996
        },
        {
          "name": "D5",
          "midi": 74,
          "time": 9.47367,
          "velocity": 0.7874015748031497,
          "duration": 0.0657893749999996
        },
        {
          "name": "F#5",
          "midi": 78,
          "time": 9.47367,
          "velocity": 0.7874015748031497,
          "duration": 0.0657893749999996
        },
        {
          "name": "D#6",
          "midi": 87,
          "time": 9.47367,
          "velocity": 0.7874015748031497,
          "duration": 0.0657893749999996
        },
        {
          "name": "F#6",
          "midi": 90,
          "time": 9.47367,
          "velocity": 0.7874015748031497,
          "duration": 0.0657893749999996
        },
        {
          "name": "E7",
          "midi": 100,
          "time": 9.47367,
          "velocity": 0.7874015748031497,
          "duration": 0.0657893749999996
        },
        {
          "name": "F#7",
          "midi": 102,
          "time": 9.47367,
          "velocity": 0.7874015748031497,
          "duration": 0.0657893749999996
        },
        {
          "name": "C#4",
          "midi": 61,
          "time": 9.999985,
          "velocity": 0.7874015748031497,
          "duration": 0.0668858645833339
        },
        {
          "name": "F#4",
          "midi": 66,
          "time": 9.999985,
          "velocity": 0.7874015748031497,
          "duration": 0.0668858645833339
        },
        {
          "name": "C5",
          "midi": 72,
          "time": 9.999985,
          "velocity": 0.7874015748031497,
          "duration": 0.0668858645833339
        },
        {
          "name": "F#5",
          "midi": 78,
          "time": 9.999985,
          "velocity": 0.7874015748031497,
          "duration": 0.0668858645833339
        },
        {
          "name": "C6",
          "midi": 84,
          "time": 9.999985,
          "velocity": 0.7874015748031497,
          "duration": 0.0668858645833339
        },
        {
          "name": "F#6",
          "midi": 90,
          "time": 9.999985,
          "velocity": 0.7874015748031497,
          "duration": 0.0668858645833339
        },
        {
          "name": "C7",
          "midi": 96,
          "time": 9.999985,
          "velocity": 0.7874015748031497,
          "duration": 0.0668858645833339
        },
        {
          "name": "F#7",
          "midi": 102,
          "time": 9.999985,
          "velocity": 0.7874015748031497,
          "duration": 0.0668858645833339
        },
        {
          "name": "D4",
          "midi": 62,
          "time": 10.266431968750002,
          "velocity": 0.7874015748031497,
          "duration": 0.06359639583333276
        },
        {
          "name": "F#4",
          "midi": 66,
          "time": 10.266431968750002,
          "velocity": 0.7874015748031497,
          "duration": 0.06359639583333276
        },
        {
          "name": "D5",
          "midi": 74,
          "time": 10.266431968750002,
          "velocity": 0.7874015748031497,
          "duration": 0.06359639583333276
        },
        {
          "name": "F#5",
          "midi": 78,
          "time": 10.266431968750002,
          "velocity": 0.7874015748031497,
          "duration": 0.06359639583333276
        },
        {
          "name": "D#6",
          "midi": 87,
          "time": 10.266431968750002,
          "velocity": 0.7874015748031497,
          "duration": 0.06359639583333276
        },
        {
          "name": "F#6",
          "midi": 90,
          "time": 10.266431968750002,
          "velocity": 0.7874015748031497,
          "duration": 0.06359639583333276
        },
        {
          "name": "E7",
          "midi": 100,
          "time": 10.266431968750002,
          "velocity": 0.7874015748031497,
          "duration": 0.06359639583333276
        },
        {
          "name": "F#7",
          "midi": 102,
          "time": 10.266431968750002,
          "velocity": 0.7874015748031497,
          "duration": 0.06359639583333276
        },
        {
          "name": "D4",
          "midi": 62,
          "time": 10.792746968750002,
          "velocity": 0.7874015748031497,
          "duration": 0.06469288541666707
        },
        {
          "name": "F#4",
          "midi": 66,
          "time": 10.792746968750002,
          "velocity": 0.7874015748031497,
          "duration": 0.06469288541666707
        },
        {
          "name": "D5",
          "midi": 74,
          "time": 10.792746968750002,
          "velocity": 0.7874015748031497,
          "duration": 0.06469288541666707
        },
        {
          "name": "F#5",
          "midi": 78,
          "time": 10.792746968750002,
          "velocity": 0.7874015748031497,
          "duration": 0.06469288541666707
        },
        {
          "name": "D#6",
          "midi": 87,
          "time": 10.792746968750002,
          "velocity": 0.7874015748031497,
          "duration": 0.06469288541666707
        },
        {
          "name": "F#6",
          "midi": 90,
          "time": 10.792746968750002,
          "velocity": 0.7874015748031497,
          "duration": 0.06469288541666707
        },
        {
          "name": "E7",
          "midi": 100,
          "time": 10.792746968750002,
          "velocity": 0.7874015748031497,
          "duration": 0.06469288541666707
        },
        {
          "name": "F#7",
          "midi": 102,
          "time": 10.792746968750002,
          "velocity": 0.7874015748031497,
          "duration": 0.06469288541666707
        },
        {
          "name": "D4",
          "midi": 62,
          "time": 11.315772500000003,
          "velocity": 0.7874015748031497,
          "duration": 0.06469288541666707
        },
        {
          "name": "F#4",
          "midi": 66,
          "time": 11.315772500000003,
          "velocity": 0.7874015748031497,
          "duration": 0.06469288541666707
        },
        {
          "name": "D5",
          "midi": 74,
          "time": 11.315772500000003,
          "velocity": 0.7874015748031497,
          "duration": 0.06469288541666707
        },
        {
          "name": "F#5",
          "midi": 78,
          "time": 11.315772500000003,
          "velocity": 0.7874015748031497,
          "duration": 0.06469288541666707
        },
        {
          "name": "D#6",
          "midi": 87,
          "time": 11.315772500000003,
          "velocity": 0.7874015748031497,
          "duration": 0.06469288541666707
        },
        {
          "name": "F#6",
          "midi": 90,
          "time": 11.315772500000003,
          "velocity": 0.7874015748031497,
          "duration": 0.06469288541666707
        },
        {
          "name": "E7",
          "midi": 100,
          "time": 11.315772500000003,
          "velocity": 0.7874015748031497,
          "duration": 0.06469288541666707
        },
        {
          "name": "F#7",
          "midi": 102,
          "time": 11.315772500000003,
          "velocity": 0.7874015748031497,
          "duration": 0.06469288541666707
        },
        {
          "name": "C#4",
          "midi": 61,
          "time": 11.832219093750004,
          "velocity": 0.7874015748031497,
          "duration": 0.06798235416666643
        },
        {
          "name": "F#4",
          "midi": 66,
          "time": 11.832219093750004,
          "velocity": 0.7874015748031497,
          "duration": 0.06798235416666643
        },
        {
          "name": "C5",
          "midi": 72,
          "time": 11.832219093750004,
          "velocity": 0.7874015748031497,
          "duration": 0.06798235416666643
        },
        {
          "name": "F#5",
          "midi": 78,
          "time": 11.832219093750004,
          "velocity": 0.7874015748031497,
          "duration": 0.06798235416666643
        },
        {
          "name": "C6",
          "midi": 84,
          "time": 11.832219093750004,
          "velocity": 0.7874015748031497,
          "duration": 0.06798235416666643
        },
        {
          "name": "F#6",
          "midi": 90,
          "time": 11.832219093750004,
          "velocity": 0.7874015748031497,
          "duration": 0.06798235416666643
        },
        {
          "name": "C7",
          "midi": 96,
          "time": 11.832219093750004,
          "velocity": 0.7874015748031497,
          "duration": 0.06798235416666643
        },
        {
          "name": "F#7",
          "midi": 102,
          "time": 11.832219093750004,
          "velocity": 0.7874015748031497,
          "duration": 0.06798235416666643
        },
        {
          "name": "D4",
          "midi": 62,
          "time": 12.105245000000004,
          "velocity": 0.7874015748031497,
          "duration": 0.0657893749999996
        },
        {
          "name": "F#4",
          "midi": 66,
          "time": 12.105245000000004,
          "velocity": 0.7874015748031497,
          "duration": 0.0657893749999996
        },
        {
          "name": "D5",
          "midi": 74,
          "time": 12.105245000000004,
          "velocity": 0.7874015748031497,
          "duration": 0.0657893749999996
        },
        {
          "name": "F#5",
          "midi": 78,
          "time": 12.105245000000004,
          "velocity": 0.7874015748031497,
          "duration": 0.0657893749999996
        },
        {
          "name": "D#6",
          "midi": 87,
          "time": 12.105245000000004,
          "velocity": 0.7874015748031497,
          "duration": 0.0657893749999996
        },
        {
          "name": "F#6",
          "midi": 90,
          "time": 12.105245000000004,
          "velocity": 0.7874015748031497,
          "duration": 0.0657893749999996
        },
        {
          "name": "E7",
          "midi": 100,
          "time": 12.105245000000004,
          "velocity": 0.7874015748031497,
          "duration": 0.0657893749999996
        },
        {
          "name": "F#7",
          "midi": 102,
          "time": 12.105245000000004,
          "velocity": 0.7874015748031497,
          "duration": 0.0657893749999996
        },
        {
          "name": "D4",
          "midi": 62,
          "time": 12.631560000000004,
          "velocity": 0.7874015748031497,
          "duration": 0.06469288541666707
        },
        {
          "name": "F#4",
          "midi": 66,
          "time": 12.631560000000004,
          "velocity": 0.7874015748031497,
          "duration": 0.06469288541666707
        },
        {
          "name": "D5",
          "midi": 74,
          "time": 12.631560000000004,
          "velocity": 0.7874015748031497,
          "duration": 0.06469288541666707
        },
        {
          "name": "F#5",
          "midi": 78,
          "time": 12.631560000000004,
          "velocity": 0.7874015748031497,
          "duration": 0.06469288541666707
        },
        {
          "name": "D#6",
          "midi": 87,
          "time": 12.631560000000004,
          "velocity": 0.7874015748031497,
          "duration": 0.06469288541666707
        },
        {
          "name": "F#6",
          "midi": 90,
          "time": 12.631560000000004,
          "velocity": 0.7874015748031497,
          "duration": 0.06469288541666707
        },
        {
          "name": "E7",
          "midi": 100,
          "time": 12.631560000000004,
          "velocity": 0.7874015748031497,
          "duration": 0.06469288541666707
        },
        {
          "name": "F#7",
          "midi": 102,
          "time": 12.631560000000004,
          "velocity": 0.7874015748031497,
          "duration": 0.06469288541666707
        },
        {
          "name": "D4",
          "midi": 62,
          "time": 13.157875000000004,
          "velocity": 0.7874015748031497,
          "duration": 0.0657893749999996
        },
        {
          "name": "F#4",
          "midi": 66,
          "time": 13.157875000000004,
          "velocity": 0.7874015748031497,
          "duration": 0.0657893749999996
        },
        {
          "name": "D5",
          "midi": 74,
          "time": 13.157875000000004,
          "velocity": 0.7874015748031497,
          "duration": 0.0657893749999996
        },
        {
          "name": "F#5",
          "midi": 78,
          "time": 13.157875000000004,
          "velocity": 0.7874015748031497,
          "duration": 0.0657893749999996
        },
        {
          "name": "D#6",
          "midi": 87,
          "time": 13.157875000000004,
          "velocity": 0.7874015748031497,
          "duration": 0.0657893749999996
        },
        {
          "name": "F#6",
          "midi": 90,
          "time": 13.157875000000004,
          "velocity": 0.7874015748031497,
          "duration": 0.0657893749999996
        },
        {
          "name": "E7",
          "midi": 100,
          "time": 13.157875000000004,
          "velocity": 0.7874015748031497,
          "duration": 0.0657893749999996
        },
        {
          "name": "F#7",
          "midi": 102,
          "time": 13.157875000000004,
          "velocity": 0.7874015748031497,
          "duration": 0.0657893749999996
        },
        {
          "name": "D4",
          "midi": 62,
          "time": 13.684190000000005,
          "velocity": 0.7874015748031497,
          "duration": 0.0657893749999996
        },
        {
          "name": "F#4",
          "midi": 66,
          "time": 13.684190000000005,
          "velocity": 0.7874015748031497,
          "duration": 0.0657893749999996
        },
        {
          "name": "D5",
          "midi": 74,
          "time": 13.684190000000005,
          "velocity": 0.7874015748031497,
          "duration": 0.0657893749999996
        },
        {
          "name": "F#5",
          "midi": 78,
          "time": 13.684190000000005,
          "velocity": 0.7874015748031497,
          "duration": 0.0657893749999996
        },
        {
          "name": "D#6",
          "midi": 87,
          "time": 13.684190000000005,
          "velocity": 0.7874015748031497,
          "duration": 0.0657893749999996
        },
        {
          "name": "F#6",
          "midi": 90,
          "time": 13.684190000000005,
          "velocity": 0.7874015748031497,
          "duration": 0.0657893749999996
        },
        {
          "name": "E7",
          "midi": 100,
          "time": 13.684190000000005,
          "velocity": 0.7874015748031497,
          "duration": 0.0657893749999996
        },
        {
          "name": "F#7",
          "midi": 102,
          "time": 13.684190000000005,
          "velocity": 0.7874015748031497,
          "duration": 0.0657893749999996
        },
        {
          "name": "C#4",
          "midi": 61,
          "time": 14.210505000000005,
          "velocity": 0.7874015748031497,
          "duration": 0.06469288541666707
        },
        {
          "name": "F#4",
          "midi": 66,
          "time": 14.210505000000005,
          "velocity": 0.7874015748031497,
          "duration": 0.06469288541666707
        },
        {
          "name": "C5",
          "midi": 72,
          "time": 14.210505000000005,
          "velocity": 0.7874015748031497,
          "duration": 0.06469288541666707
        },
        {
          "name": "F#5",
          "midi": 78,
          "time": 14.210505000000005,
          "velocity": 0.7874015748031497,
          "duration": 0.06469288541666707
        },
        {
          "name": "C6",
          "midi": 84,
          "time": 14.210505000000005,
          "velocity": 0.7874015748031497,
          "duration": 0.06469288541666707
        },
        {
          "name": "F#6",
          "midi": 90,
          "time": 14.210505000000005,
          "velocity": 0.7874015748031497,
          "duration": 0.06469288541666707
        },
        {
          "name": "C7",
          "midi": 96,
          "time": 14.210505000000005,
          "velocity": 0.7874015748031497,
          "duration": 0.06469288541666707
        },
        {
          "name": "F#7",
          "midi": 102,
          "time": 14.210505000000005,
          "velocity": 0.7874015748031497,
          "duration": 0.06469288541666707
        },
        {
          "name": "C6",
          "midi": 84,
          "time": 14.47475898958334,
          "velocity": 0.7874015748031497,
          "duration": 0.06469288541666707
        },
        {
          "name": "F#6",
          "midi": 90,
          "time": 14.47475898958334,
          "velocity": 0.7874015748031497,
          "duration": 0.06469288541666707
        },
        {
          "name": "C7",
          "midi": 96,
          "time": 14.47475898958334,
          "velocity": 0.7874015748031497,
          "duration": 0.06469288541666707
        },
        {
          "name": "F#7",
          "midi": 102,
          "time": 14.47475898958334,
          "velocity": 0.7874015748031497,
          "duration": 0.06469288541666707
        },
        {
          "name": "D4",
          "midi": 62,
          "time": 14.736820000000007,
          "velocity": 0.7874015748031497,
          "duration": 0.06469288541666707
        },
        {
          "name": "F#4",
          "midi": 66,
          "time": 14.736820000000007,
          "velocity": 0.7874015748031497,
          "duration": 0.06469288541666707
        },
        {
          "name": "D5",
          "midi": 74,
          "time": 14.736820000000007,
          "velocity": 0.7874015748031497,
          "duration": 0.06469288541666707
        },
        {
          "name": "F#5",
          "midi": 78,
          "time": 14.736820000000007,
          "velocity": 0.7874015748031497,
          "duration": 0.06469288541666707
        },
        {
          "name": "D#6",
          "midi": 87,
          "time": 14.736820000000007,
          "velocity": 0.7874015748031497,
          "duration": 0.06469288541666707
        },
        {
          "name": "F#6",
          "midi": 90,
          "time": 14.736820000000007,
          "velocity": 0.7874015748031497,
          "duration": 0.06469288541666707
        },
        {
          "name": "E7",
          "midi": 100,
          "time": 14.736820000000007,
          "velocity": 0.7874015748031497,
          "duration": 0.06469288541666707
        },
        {
          "name": "F#7",
          "midi": 102,
          "time": 14.736820000000007,
          "velocity": 0.7874015748031497,
          "duration": 0.06469288541666707
        },
        {
          "name": "C#4",
          "midi": 61,
          "time": 15.263135000000007,
          "velocity": 0.7874015748031497,
          "duration": 0.06469288541666707
        },
        {
          "name": "F#4",
          "midi": 66,
          "time": 15.263135000000007,
          "velocity": 0.7874015748031497,
          "duration": 0.06469288541666707
        },
        {
          "name": "C5",
          "midi": 72,
          "time": 15.263135000000007,
          "velocity": 0.7874015748031497,
          "duration": 0.06469288541666707
        },
        {
          "name": "F#5",
          "midi": 78,
          "time": 15.263135000000007,
          "velocity": 0.7874015748031497,
          "duration": 0.06469288541666707
        },
        {
          "name": "C6",
          "midi": 84,
          "time": 15.263135000000007,
          "velocity": 0.7874015748031497,
          "duration": 0.06469288541666707
        },
        {
          "name": "F#6",
          "midi": 90,
          "time": 15.263135000000007,
          "velocity": 0.7874015748031497,
          "duration": 0.06469288541666707
        },
        {
          "name": "C7",
          "midi": 96,
          "time": 15.263135000000007,
          "velocity": 0.7874015748031497,
          "duration": 0.06469288541666707
        },
        {
          "name": "F#7",
          "midi": 102,
          "time": 15.263135000000007,
          "velocity": 0.7874015748031497,
          "duration": 0.06469288541666707
        },
        {
          "name": "D4",
          "midi": 62,
          "time": 15.527388989583342,
          "velocity": 0.7874015748031497,
          "duration": 0.06469288541666707
        },
        {
          "name": "F#4",
          "midi": 66,
          "time": 15.527388989583342,
          "velocity": 0.7874015748031497,
          "duration": 0.06469288541666707
        },
        {
          "name": "D5",
          "midi": 74,
          "time": 15.527388989583342,
          "velocity": 0.7874015748031497,
          "duration": 0.06469288541666707
        },
        {
          "name": "F#5",
          "midi": 78,
          "time": 15.527388989583342,
          "velocity": 0.7874015748031497,
          "duration": 0.06469288541666707
        },
        {
          "name": "D#6",
          "midi": 87,
          "time": 15.527388989583342,
          "velocity": 0.7874015748031497,
          "duration": 0.06469288541666707
        },
        {
          "name": "F#6",
          "midi": 90,
          "time": 15.527388989583342,
          "velocity": 0.7874015748031497,
          "duration": 0.06469288541666707
        },
        {
          "name": "E7",
          "midi": 100,
          "time": 15.527388989583342,
          "velocity": 0.7874015748031497,
          "duration": 0.06469288541666707
        },
        {
          "name": "F#7",
          "midi": 102,
          "time": 15.527388989583342,
          "velocity": 0.7874015748031497,
          "duration": 0.06469288541666707
        },
        {
          "name": "D4",
          "midi": 62,
          "time": 16.054800479166676,
          "velocity": 0.7874015748031497,
          "duration": 0.06578937500000137
        },
        {
          "name": "F#4",
          "midi": 66,
          "time": 16.054800479166676,
          "velocity": 0.7874015748031497,
          "duration": 0.06578937500000137
        },
        {
          "name": "D5",
          "midi": 74,
          "time": 16.054800479166676,
          "velocity": 0.7874015748031497,
          "duration": 0.06578937500000137
        },
        {
          "name": "F#5",
          "midi": 78,
          "time": 16.054800479166676,
          "velocity": 0.7874015748031497,
          "duration": 0.06578937500000137
        },
        {
          "name": "D#6",
          "midi": 87,
          "time": 16.054800479166676,
          "velocity": 0.7874015748031497,
          "duration": 0.06578937500000137
        },
        {
          "name": "F#6",
          "midi": 90,
          "time": 16.054800479166676,
          "velocity": 0.7874015748031497,
          "duration": 0.06578937500000137
        },
        {
          "name": "E7",
          "midi": 100,
          "time": 16.054800479166676,
          "velocity": 0.7874015748031497,
          "duration": 0.06578937500000137
        },
        {
          "name": "F#7",
          "midi": 102,
          "time": 16.054800479166676,
          "velocity": 0.7874015748031497,
          "duration": 0.06578937500000137
        },
        {
          "name": "D4",
          "midi": 62,
          "time": 16.57892250000001,
          "velocity": 0.7874015748031497,
          "duration": 0.06578937500000137
        },
        {
          "name": "F#4",
          "midi": 66,
          "time": 16.57892250000001,
          "velocity": 0.7874015748031497,
          "duration": 0.06578937500000137
        },
        {
          "name": "D5",
          "midi": 74,
          "time": 16.57892250000001,
          "velocity": 0.7874015748031497,
          "duration": 0.06578937500000137
        },
        {
          "name": "F#5",
          "midi": 78,
          "time": 16.57892250000001,
          "velocity": 0.7874015748031497,
          "duration": 0.06578937500000137
        },
        {
          "name": "D#6",
          "midi": 87,
          "time": 16.57892250000001,
          "velocity": 0.7874015748031497,
          "duration": 0.06578937500000137
        },
        {
          "name": "F#6",
          "midi": 90,
          "time": 16.57892250000001,
          "velocity": 0.7874015748031497,
          "duration": 0.06578937500000137
        },
        {
          "name": "E7",
          "midi": 100,
          "time": 16.57892250000001,
          "velocity": 0.7874015748031497,
          "duration": 0.06578937500000137
        },
        {
          "name": "F#7",
          "midi": 102,
          "time": 16.57892250000001,
          "velocity": 0.7874015748031497,
          "duration": 0.06578937500000137
        },
        {
          "name": "C#4",
          "midi": 61,
          "time": 17.105237500000012,
          "velocity": 0.7874015748031497,
          "duration": 0.06578937500000137
        },
        {
          "name": "F#4",
          "midi": 66,
          "time": 17.105237500000012,
          "velocity": 0.7874015748031497,
          "duration": 0.06578937500000137
        },
        {
          "name": "C5",
          "midi": 72,
          "time": 17.105237500000012,
          "velocity": 0.7874015748031497,
          "duration": 0.06578937500000137
        },
        {
          "name": "F#5",
          "midi": 78,
          "time": 17.105237500000012,
          "velocity": 0.7874015748031497,
          "duration": 0.06578937500000137
        },
        {
          "name": "C6",
          "midi": 84,
          "time": 17.105237500000012,
          "velocity": 0.7874015748031497,
          "duration": 0.06578937500000137
        },
        {
          "name": "F#6",
          "midi": 90,
          "time": 17.105237500000012,
          "velocity": 0.7874015748031497,
          "duration": 0.06578937500000137
        },
        {
          "name": "C7",
          "midi": 96,
          "time": 17.105237500000012,
          "velocity": 0.7874015748031497,
          "duration": 0.06578937500000137
        },
        {
          "name": "F#7",
          "midi": 102,
          "time": 17.105237500000012,
          "velocity": 0.7874015748031497,
          "duration": 0.06578937500000137
        },
        {
          "name": "D4",
          "midi": 62,
          "time": 17.368395000000014,
          "velocity": 0.7874015748031497,
          "duration": 0.06469288541666529
        },
        {
          "name": "F#4",
          "midi": 66,
          "time": 17.368395000000014,
          "velocity": 0.7874015748031497,
          "duration": 0.06469288541666529
        },
        {
          "name": "D5",
          "midi": 74,
          "time": 17.368395000000014,
          "velocity": 0.7874015748031497,
          "duration": 0.06469288541666529
        },
        {
          "name": "F#5",
          "midi": 78,
          "time": 17.368395000000014,
          "velocity": 0.7874015748031497,
          "duration": 0.06469288541666529
        },
        {
          "name": "D#6",
          "midi": 87,
          "time": 17.368395000000014,
          "velocity": 0.7874015748031497,
          "duration": 0.06469288541666529
        },
        {
          "name": "F#6",
          "midi": 90,
          "time": 17.368395000000014,
          "velocity": 0.7874015748031497,
          "duration": 0.06469288541666529
        },
        {
          "name": "E7",
          "midi": 100,
          "time": 17.368395000000014,
          "velocity": 0.7874015748031497,
          "duration": 0.06469288541666529
        },
        {
          "name": "F#7",
          "midi": 102,
          "time": 17.368395000000014,
          "velocity": 0.7874015748031497,
          "duration": 0.06469288541666529
        },
        {
          "name": "D4",
          "midi": 62,
          "time": 17.894710000000014,
          "velocity": 0.7874015748031497,
          "duration": 0.06359639583333276
        },
        {
          "name": "F#4",
          "midi": 66,
          "time": 17.894710000000014,
          "velocity": 0.7874015748031497,
          "duration": 0.06359639583333276
        },
        {
          "name": "D5",
          "midi": 74,
          "time": 17.894710000000014,
          "velocity": 0.7874015748031497,
          "duration": 0.06359639583333276
        },
        {
          "name": "F#5",
          "midi": 78,
          "time": 17.894710000000014,
          "velocity": 0.7874015748031497,
          "duration": 0.06359639583333276
        },
        {
          "name": "D#6",
          "midi": 87,
          "time": 17.894710000000014,
          "velocity": 0.7874015748031497,
          "duration": 0.06359639583333276
        },
        {
          "name": "F#6",
          "midi": 90,
          "time": 17.894710000000014,
          "velocity": 0.7874015748031497,
          "duration": 0.06359639583333276
        },
        {
          "name": "E7",
          "midi": 100,
          "time": 17.894710000000014,
          "velocity": 0.7874015748031497,
          "duration": 0.06359639583333276
        },
        {
          "name": "F#7",
          "midi": 102,
          "time": 17.894710000000014,
          "velocity": 0.7874015748031497,
          "duration": 0.06359639583333276
        },
        {
          "name": "D4",
          "midi": 62,
          "time": 18.421025000000014,
          "velocity": 0.7874015748031497,
          "duration": 0.06469288541666529
        },
        {
          "name": "F#4",
          "midi": 66,
          "time": 18.421025000000014,
          "velocity": 0.7874015748031497,
          "duration": 0.06469288541666529
        },
        {
          "name": "D5",
          "midi": 74,
          "time": 18.421025000000014,
          "velocity": 0.7874015748031497,
          "duration": 0.06469288541666529
        },
        {
          "name": "F#5",
          "midi": 78,
          "time": 18.421025000000014,
          "velocity": 0.7874015748031497,
          "duration": 0.06469288541666529
        },
        {
          "name": "D#6",
          "midi": 87,
          "time": 18.421025000000014,
          "velocity": 0.7874015748031497,
          "duration": 0.06469288541666529
        },
        {
          "name": "F#6",
          "midi": 90,
          "time": 18.421025000000014,
          "velocity": 0.7874015748031497,
          "duration": 0.06469288541666529
        },
        {
          "name": "E7",
          "midi": 100,
          "time": 18.421025000000014,
          "velocity": 0.7874015748031497,
          "duration": 0.06469288541666529
        },
        {
          "name": "F#7",
          "midi": 102,
          "time": 18.421025000000014,
          "velocity": 0.7874015748031497,
          "duration": 0.06469288541666529
        },
        {
          "name": "D4",
          "midi": 62,
          "time": 18.947340000000015,
          "velocity": 0.7874015748031497,
          "duration": 0.06469288541666529
        },
        {
          "name": "F#4",
          "midi": 66,
          "time": 18.947340000000015,
          "velocity": 0.7874015748031497,
          "duration": 0.06469288541666529
        },
        {
          "name": "D5",
          "midi": 74,
          "time": 18.947340000000015,
          "velocity": 0.7874015748031497,
          "duration": 0.06469288541666529
        },
        {
          "name": "F#5",
          "midi": 78,
          "time": 18.947340000000015,
          "velocity": 0.7874015748031497,
          "duration": 0.06469288541666529
        },
        {
          "name": "D#6",
          "midi": 87,
          "time": 18.947340000000015,
          "velocity": 0.7874015748031497,
          "duration": 0.06469288541666529
        },
        {
          "name": "F#6",
          "midi": 90,
          "time": 18.947340000000015,
          "velocity": 0.7874015748031497,
          "duration": 0.06469288541666529
        },
        {
          "name": "E7",
          "midi": 100,
          "time": 18.947340000000015,
          "velocity": 0.7874015748031497,
          "duration": 0.06469288541666529
        },
        {
          "name": "F#7",
          "midi": 102,
          "time": 18.947340000000015,
          "velocity": 0.7874015748031497,
          "duration": 0.06469288541666529
        },
        {
          "name": "C#4",
          "midi": 61,
          "time": 19.473655000000015,
          "velocity": 0.7874015748031497,
          "duration": 0.06578937500000137
        },
        {
          "name": "F#4",
          "midi": 66,
          "time": 19.473655000000015,
          "velocity": 0.7874015748031497,
          "duration": 0.06578937500000137
        },
        {
          "name": "C5",
          "midi": 72,
          "time": 19.473655000000015,
          "velocity": 0.7874015748031497,
          "duration": 0.06578937500000137
        },
        {
          "name": "F#5",
          "midi": 78,
          "time": 19.473655000000015,
          "velocity": 0.7874015748031497,
          "duration": 0.06578937500000137
        },
        {
          "name": "C6",
          "midi": 84,
          "time": 19.473655000000015,
          "velocity": 0.7874015748031497,
          "duration": 0.06578937500000137
        },
        {
          "name": "F#6",
          "midi": 90,
          "time": 19.473655000000015,
          "velocity": 0.7874015748031497,
          "duration": 0.06578937500000137
        },
        {
          "name": "C7",
          "midi": 96,
          "time": 19.473655000000015,
          "velocity": 0.7874015748031497,
          "duration": 0.06578937500000137
        },
        {
          "name": "F#7",
          "midi": 102,
          "time": 19.473655000000015,
          "velocity": 0.7874015748031497,
          "duration": 0.06578937500000137
        },
        {
          "name": "C6",
          "midi": 84,
          "time": 19.735716010416684,
          "velocity": 0.7874015748031497,
          "duration": 0.06578937500000137
        },
        {
          "name": "F#6",
          "midi": 90,
          "time": 19.735716010416684,
          "velocity": 0.7874015748031497,
          "duration": 0.06578937500000137
        },
        {
          "name": "C7",
          "midi": 96,
          "time": 19.735716010416684,
          "velocity": 0.7874015748031497,
          "duration": 0.06578937500000137
        },
        {
          "name": "F#7",
          "midi": 102,
          "time": 19.735716010416684,
          "velocity": 0.7874015748031497,
          "duration": 0.06578937500000137
        },
        {
          "name": "D4",
          "midi": 62,
          "time": 19.99997000000002,
          "velocity": 0.7874015748031497,
          "duration": 0.06359639583333276
        },
        {
          "name": "F#4",
          "midi": 66,
          "time": 19.99997000000002,
          "velocity": 0.7874015748031497,
          "duration": 0.06359639583333276
        },
        {
          "name": "D5",
          "midi": 74,
          "time": 19.99997000000002,
          "velocity": 0.7874015748031497,
          "duration": 0.06359639583333276
        },
        {
          "name": "F#5",
          "midi": 78,
          "time": 19.99997000000002,
          "velocity": 0.7874015748031497,
          "duration": 0.06359639583333276
        },
        {
          "name": "D#6",
          "midi": 87,
          "time": 19.99997000000002,
          "velocity": 0.7874015748031497,
          "duration": 0.06359639583333276
        },
        {
          "name": "F#6",
          "midi": 90,
          "time": 19.99997000000002,
          "velocity": 0.7874015748031497,
          "duration": 0.06359639583333276
        },
        {
          "name": "E7",
          "midi": 100,
          "time": 19.99997000000002,
          "velocity": 0.7874015748031497,
          "duration": 0.06359639583333276
        },
        {
          "name": "F#7",
          "midi": 102,
          "time": 19.99997000000002,
          "velocity": 0.7874015748031497,
          "duration": 0.06359639583333276
        },
        {
          "name": "C#4",
          "midi": 61,
          "time": 20.52628500000002,
          "velocity": 0.7874015748031497,
          "duration": 0.06578937500000137
        },
        {
          "name": "F#4",
          "midi": 66,
          "time": 20.52628500000002,
          "velocity": 0.7874015748031497,
          "duration": 0.06578937500000137
        },
        {
          "name": "C5",
          "midi": 72,
          "time": 20.52628500000002,
          "velocity": 0.7874015748031497,
          "duration": 0.06578937500000137
        },
        {
          "name": "F#5",
          "midi": 78,
          "time": 20.52628500000002,
          "velocity": 0.7874015748031497,
          "duration": 0.06578937500000137
        },
        {
          "name": "C6",
          "midi": 84,
          "time": 20.52628500000002,
          "velocity": 0.7874015748031497,
          "duration": 0.06578937500000137
        },
        {
          "name": "F#6",
          "midi": 90,
          "time": 20.52628500000002,
          "velocity": 0.7874015748031497,
          "duration": 0.06578937500000137
        },
        {
          "name": "C7",
          "midi": 96,
          "time": 20.52628500000002,
          "velocity": 0.7874015748031497,
          "duration": 0.06578937500000137
        },
        {
          "name": "F#7",
          "midi": 102,
          "time": 20.52628500000002,
          "velocity": 0.7874015748031497,
          "duration": 0.06578937500000137
        },
        {
          "name": "D4",
          "midi": 62,
          "time": 20.78834601041669,
          "velocity": 0.7874015748031497,
          "duration": 0.06578937500000137
        },
        {
          "name": "F#4",
          "midi": 66,
          "time": 20.78834601041669,
          "velocity": 0.7874015748031497,
          "duration": 0.06578937500000137
        },
        {
          "name": "D5",
          "midi": 74,
          "time": 20.78834601041669,
          "velocity": 0.7874015748031497,
          "duration": 0.06578937500000137
        },
        {
          "name": "F#5",
          "midi": 78,
          "time": 20.78834601041669,
          "velocity": 0.7874015748031497,
          "duration": 0.06578937500000137
        },
        {
          "name": "D#6",
          "midi": 87,
          "time": 20.78834601041669,
          "velocity": 0.7874015748031497,
          "duration": 0.06578937500000137
        },
        {
          "name": "F#6",
          "midi": 90,
          "time": 20.78834601041669,
          "velocity": 0.7874015748031497,
          "duration": 0.06578937500000137
        },
        {
          "name": "E7",
          "midi": 100,
          "time": 20.78834601041669,
          "velocity": 0.7874015748031497,
          "duration": 0.06578937500000137
        },
        {
          "name": "F#7",
          "midi": 102,
          "time": 20.78834601041669,
          "velocity": 0.7874015748031497,
          "duration": 0.06578937500000137
        },
        {
          "name": "D4",
          "midi": 62,
          "time": 21.31466101041669,
          "velocity": 0.7874015748031497,
          "duration": 0.06578937500000137
        },
        {
          "name": "F#4",
          "midi": 66,
          "time": 21.31466101041669,
          "velocity": 0.7874015748031497,
          "duration": 0.06578937500000137
        },
        {
          "name": "D5",
          "midi": 74,
          "time": 21.31466101041669,
          "velocity": 0.7874015748031497,
          "duration": 0.06578937500000137
        },
        {
          "name": "F#5",
          "midi": 78,
          "time": 21.31466101041669,
          "velocity": 0.7874015748031497,
          "duration": 0.06578937500000137
        },
        {
          "name": "D#6",
          "midi": 87,
          "time": 21.31466101041669,
          "velocity": 0.7874015748031497,
          "duration": 0.06578937500000137
        },
        {
          "name": "F#6",
          "midi": 90,
          "time": 21.31466101041669,
          "velocity": 0.7874015748031497,
          "duration": 0.06578937500000137
        },
        {
          "name": "E7",
          "midi": 100,
          "time": 21.31466101041669,
          "velocity": 0.7874015748031497,
          "duration": 0.06578937500000137
        },
        {
          "name": "F#7",
          "midi": 102,
          "time": 21.31466101041669,
          "velocity": 0.7874015748031497,
          "duration": 0.06578937500000137
        },
        {
          "name": "D4",
          "midi": 62,
          "time": 21.84097601041669,
          "velocity": 0.7874015748031497,
          "duration": 0.06578937500000137
        },
        {
          "name": "F#4",
          "midi": 66,
          "time": 21.84097601041669,
          "velocity": 0.7874015748031497,
          "duration": 0.06578937500000137
        },
        {
          "name": "D5",
          "midi": 74,
          "time": 21.84097601041669,
          "velocity": 0.7874015748031497,
          "duration": 0.06578937500000137
        },
        {
          "name": "F#5",
          "midi": 78,
          "time": 21.84097601041669,
          "velocity": 0.7874015748031497,
          "duration": 0.06578937500000137
        },
        {
          "name": "D#6",
          "midi": 87,
          "time": 21.84097601041669,
          "velocity": 0.7874015748031497,
          "duration": 0.06578937500000137
        },
        {
          "name": "F#6",
          "midi": 90,
          "time": 21.84097601041669,
          "velocity": 0.7874015748031497,
          "duration": 0.06578937500000137
        },
        {
          "name": "E7",
          "midi": 100,
          "time": 21.84097601041669,
          "velocity": 0.7874015748031497,
          "duration": 0.06578937500000137
        },
        {
          "name": "F#7",
          "midi": 102,
          "time": 21.84097601041669,
          "velocity": 0.7874015748031497,
          "duration": 0.06578937500000137
        },
        {
          "name": "C#4",
          "midi": 61,
          "time": 22.36729101041669,
          "velocity": 0.7874015748031497,
          "duration": 0.06578937500000137
        },
        {
          "name": "F#4",
          "midi": 66,
          "time": 22.36729101041669,
          "velocity": 0.7874015748031497,
          "duration": 0.06578937500000137
        },
        {
          "name": "C5",
          "midi": 72,
          "time": 22.36729101041669,
          "velocity": 0.7874015748031497,
          "duration": 0.06578937500000137
        },
        {
          "name": "F#5",
          "midi": 78,
          "time": 22.36729101041669,
          "velocity": 0.7874015748031497,
          "duration": 0.06578937500000137
        },
        {
          "name": "C6",
          "midi": 84,
          "time": 22.36729101041669,
          "velocity": 0.7874015748031497,
          "duration": 0.06578937500000137
        },
        {
          "name": "F#6",
          "midi": 90,
          "time": 22.36729101041669,
          "velocity": 0.7874015748031497,
          "duration": 0.06578937500000137
        },
        {
          "name": "C7",
          "midi": 96,
          "time": 22.36729101041669,
          "velocity": 0.7874015748031497,
          "duration": 0.06578937500000137
        },
        {
          "name": "F#7",
          "midi": 102,
          "time": 22.36729101041669,
          "velocity": 0.7874015748031497,
          "duration": 0.06578937500000137
        },
        {
          "name": "D4",
          "midi": 62,
          "time": 22.631545000000024,
          "velocity": 0.7874015748031497,
          "duration": 0.06578937500000137
        },
        {
          "name": "F#4",
          "midi": 66,
          "time": 22.631545000000024,
          "velocity": 0.7874015748031497,
          "duration": 0.06578937500000137
        },
        {
          "name": "D5",
          "midi": 74,
          "time": 22.631545000000024,
          "velocity": 0.7874015748031497,
          "duration": 0.06578937500000137
        },
        {
          "name": "F#5",
          "midi": 78,
          "time": 22.631545000000024,
          "velocity": 0.7874015748031497,
          "duration": 0.06578937500000137
        },
        {
          "name": "D#6",
          "midi": 87,
          "time": 22.631545000000024,
          "velocity": 0.7874015748031497,
          "duration": 0.06578937500000137
        },
        {
          "name": "F#6",
          "midi": 90,
          "time": 22.631545000000024,
          "velocity": 0.7874015748031497,
          "duration": 0.06578937500000137
        },
        {
          "name": "E7",
          "midi": 100,
          "time": 22.631545000000024,
          "velocity": 0.7874015748031497,
          "duration": 0.06578937500000137
        },
        {
          "name": "F#7",
          "midi": 102,
          "time": 22.631545000000024,
          "velocity": 0.7874015748031497,
          "duration": 0.06578937500000137
        },
        {
          "name": "D4",
          "midi": 62,
          "time": 23.157860000000024,
          "velocity": 0.7874015748031497,
          "duration": 0.06469288541666529
        },
        {
          "name": "F#4",
          "midi": 66,
          "time": 23.157860000000024,
          "velocity": 0.7874015748031497,
          "duration": 0.06469288541666529
        },
        {
          "name": "D5",
          "midi": 74,
          "time": 23.157860000000024,
          "velocity": 0.7874015748031497,
          "duration": 0.06469288541666529
        },
        {
          "name": "F#5",
          "midi": 78,
          "time": 23.157860000000024,
          "velocity": 0.7874015748031497,
          "duration": 0.06469288541666529
        },
        {
          "name": "D#6",
          "midi": 87,
          "time": 23.157860000000024,
          "velocity": 0.7874015748031497,
          "duration": 0.06469288541666529
        },
        {
          "name": "F#6",
          "midi": 90,
          "time": 23.157860000000024,
          "velocity": 0.7874015748031497,
          "duration": 0.06469288541666529
        },
        {
          "name": "E7",
          "midi": 100,
          "time": 23.157860000000024,
          "velocity": 0.7874015748031497,
          "duration": 0.06469288541666529
        },
        {
          "name": "F#7",
          "midi": 102,
          "time": 23.157860000000024,
          "velocity": 0.7874015748031497,
          "duration": 0.06469288541666529
        },
        {
          "name": "D4",
          "midi": 62,
          "time": 23.684175000000025,
          "velocity": 0.7874015748031497,
          "duration": 0.06469288541666529
        },
        {
          "name": "F#4",
          "midi": 66,
          "time": 23.684175000000025,
          "velocity": 0.7874015748031497,
          "duration": 0.06469288541666529
        },
        {
          "name": "D5",
          "midi": 74,
          "time": 23.684175000000025,
          "velocity": 0.7874015748031497,
          "duration": 0.06469288541666529
        },
        {
          "name": "F#5",
          "midi": 78,
          "time": 23.684175000000025,
          "velocity": 0.7874015748031497,
          "duration": 0.06469288541666529
        },
        {
          "name": "D#6",
          "midi": 87,
          "time": 23.684175000000025,
          "velocity": 0.7874015748031497,
          "duration": 0.06469288541666529
        },
        {
          "name": "F#6",
          "midi": 90,
          "time": 23.684175000000025,
          "velocity": 0.7874015748031497,
          "duration": 0.06469288541666529
        },
        {
          "name": "E7",
          "midi": 100,
          "time": 23.684175000000025,
          "velocity": 0.7874015748031497,
          "duration": 0.06469288541666529
        },
        {
          "name": "F#7",
          "midi": 102,
          "time": 23.684175000000025,
          "velocity": 0.7874015748031497,
          "duration": 0.06469288541666529
        },
        {
          "name": "D4",
          "midi": 62,
          "time": 24.210490000000025,
          "velocity": 0.7874015748031497,
          "duration": 0.06578937500000137
        },
        {
          "name": "F#4",
          "midi": 66,
          "time": 24.210490000000025,
          "velocity": 0.7874015748031497,
          "duration": 0.06578937500000137
        },
        {
          "name": "D5",
          "midi": 74,
          "time": 24.210490000000025,
          "velocity": 0.7874015748031497,
          "duration": 0.06578937500000137
        },
        {
          "name": "F#5",
          "midi": 78,
          "time": 24.210490000000025,
          "velocity": 0.7874015748031497,
          "duration": 0.06578937500000137
        },
        {
          "name": "D#6",
          "midi": 87,
          "time": 24.210490000000025,
          "velocity": 0.7874015748031497,
          "duration": 0.06578937500000137
        },
        {
          "name": "F#6",
          "midi": 90,
          "time": 24.210490000000025,
          "velocity": 0.7874015748031497,
          "duration": 0.06578937500000137
        },
        {
          "name": "E7",
          "midi": 100,
          "time": 24.210490000000025,
          "velocity": 0.7874015748031497,
          "duration": 0.06578937500000137
        },
        {
          "name": "F#7",
          "midi": 102,
          "time": 24.210490000000025,
          "velocity": 0.7874015748031497,
          "duration": 0.06578937500000137
        },
        {
          "name": "C#4",
          "midi": 61,
          "time": 24.736805000000025,
          "velocity": 0.7874015748031497,
          "duration": 0.06469288541666529
        },
        {
          "name": "F#4",
          "midi": 66,
          "time": 24.736805000000025,
          "velocity": 0.7874015748031497,
          "duration": 0.06469288541666529
        },
        {
          "name": "C5",
          "midi": 72,
          "time": 24.736805000000025,
          "velocity": 0.7874015748031497,
          "duration": 0.06469288541666529
        },
        {
          "name": "F#5",
          "midi": 78,
          "time": 24.736805000000025,
          "velocity": 0.7874015748031497,
          "duration": 0.06469288541666529
        },
        {
          "name": "C6",
          "midi": 84,
          "time": 24.736805000000025,
          "velocity": 0.7874015748031497,
          "duration": 0.06469288541666529
        },
        {
          "name": "F#6",
          "midi": 90,
          "time": 24.736805000000025,
          "velocity": 0.7874015748031497,
          "duration": 0.06469288541666529
        },
        {
          "name": "C7",
          "midi": 96,
          "time": 24.736805000000025,
          "velocity": 0.7874015748031497,
          "duration": 0.06469288541666529
        },
        {
          "name": "F#7",
          "midi": 102,
          "time": 24.736805000000025,
          "velocity": 0.7874015748031497,
          "duration": 0.06469288541666529
        },
        {
          "name": "C6",
          "midi": 84,
          "time": 25.001058989583356,
          "velocity": 0.7874015748031497,
          "duration": 0.06469288541666529
        },
        {
          "name": "F#6",
          "midi": 90,
          "time": 25.001058989583356,
          "velocity": 0.7874015748031497,
          "duration": 0.06469288541666529
        },
        {
          "name": "C7",
          "midi": 96,
          "time": 25.001058989583356,
          "velocity": 0.7874015748031497,
          "duration": 0.06469288541666529
        },
        {
          "name": "F#7",
          "midi": 102,
          "time": 25.001058989583356,
          "velocity": 0.7874015748031497,
          "duration": 0.06469288541666529
        },
        {
          "name": "D4",
          "midi": 62,
          "time": 25.263120000000022,
          "velocity": 0.7874015748031497,
          "duration": 0.06469288541666529
        },
        {
          "name": "F#4",
          "midi": 66,
          "time": 25.263120000000022,
          "velocity": 0.7874015748031497,
          "duration": 0.06469288541666529
        },
        {
          "name": "D5",
          "midi": 74,
          "time": 25.263120000000022,
          "velocity": 0.7874015748031497,
          "duration": 0.06469288541666529
        },
        {
          "name": "F#5",
          "midi": 78,
          "time": 25.263120000000022,
          "velocity": 0.7874015748031497,
          "duration": 0.06469288541666529
        },
        {
          "name": "D#6",
          "midi": 87,
          "time": 25.263120000000022,
          "velocity": 0.7874015748031497,
          "duration": 0.06469288541666529
        },
        {
          "name": "F#6",
          "midi": 90,
          "time": 25.263120000000022,
          "velocity": 0.7874015748031497,
          "duration": 0.06469288541666529
        },
        {
          "name": "E7",
          "midi": 100,
          "time": 25.263120000000022,
          "velocity": 0.7874015748031497,
          "duration": 0.06469288541666529
        },
        {
          "name": "F#7",
          "midi": 102,
          "time": 25.263120000000022,
          "velocity": 0.7874015748031497,
          "duration": 0.06469288541666529
        },
        {
          "name": "C#4",
          "midi": 61,
          "time": 25.789435000000022,
          "velocity": 0.7874015748031497,
          "duration": 0.06578937500000137
        },
        {
          "name": "F#4",
          "midi": 66,
          "time": 25.789435000000022,
          "velocity": 0.7874015748031497,
          "duration": 0.06578937500000137
        },
        {
          "name": "C5",
          "midi": 72,
          "time": 25.789435000000022,
          "velocity": 0.7874015748031497,
          "duration": 0.06578937500000137
        },
        {
          "name": "F#5",
          "midi": 78,
          "time": 25.789435000000022,
          "velocity": 0.7874015748031497,
          "duration": 0.06578937500000137
        },
        {
          "name": "C6",
          "midi": 84,
          "time": 25.789435000000022,
          "velocity": 0.7874015748031497,
          "duration": 0.06578937500000137
        },
        {
          "name": "F#6",
          "midi": 90,
          "time": 25.789435000000022,
          "velocity": 0.7874015748031497,
          "duration": 0.06578937500000137
        },
        {
          "name": "C7",
          "midi": 96,
          "time": 25.789435000000022,
          "velocity": 0.7874015748031497,
          "duration": 0.06578937500000137
        },
        {
          "name": "F#7",
          "midi": 102,
          "time": 25.789435000000022,
          "velocity": 0.7874015748031497,
          "duration": 0.06578937500000137
        },
        {
          "name": "D4",
          "midi": 62,
          "time": 26.052592500000024,
          "velocity": 0.7874015748031497,
          "duration": 0.06578937500000137
        },
        {
          "name": "F#4",
          "midi": 66,
          "time": 26.052592500000024,
          "velocity": 0.7874015748031497,
          "duration": 0.06578937500000137
        },
        {
          "name": "D5",
          "midi": 74,
          "time": 26.052592500000024,
          "velocity": 0.7874015748031497,
          "duration": 0.06578937500000137
        },
        {
          "name": "F#5",
          "midi": 78,
          "time": 26.052592500000024,
          "velocity": 0.7874015748031497,
          "duration": 0.06578937500000137
        },
        {
          "name": "D#6",
          "midi": 87,
          "time": 26.052592500000024,
          "velocity": 0.7874015748031497,
          "duration": 0.06578937500000137
        },
        {
          "name": "F#6",
          "midi": 90,
          "time": 26.052592500000024,
          "velocity": 0.7874015748031497,
          "duration": 0.06578937500000137
        },
        {
          "name": "E7",
          "midi": 100,
          "time": 26.052592500000024,
          "velocity": 0.7874015748031497,
          "duration": 0.06578937500000137
        },
        {
          "name": "F#7",
          "midi": 102,
          "time": 26.052592500000024,
          "velocity": 0.7874015748031497,
          "duration": 0.06578937500000137
        },
        {
          "name": "D4",
          "midi": 62,
          "time": 26.578907500000025,
          "velocity": 0.7874015748031497,
          "duration": 0.06578937500000137
        },
        {
          "name": "F#4",
          "midi": 66,
          "time": 26.578907500000025,
          "velocity": 0.7874015748031497,
          "duration": 0.06578937500000137
        },
        {
          "name": "D5",
          "midi": 74,
          "time": 26.578907500000025,
          "velocity": 0.7874015748031497,
          "duration": 0.06578937500000137
        },
        {
          "name": "F#5",
          "midi": 78,
          "time": 26.578907500000025,
          "velocity": 0.7874015748031497,
          "duration": 0.06578937500000137
        },
        {
          "name": "D#6",
          "midi": 87,
          "time": 26.578907500000025,
          "velocity": 0.7874015748031497,
          "duration": 0.06578937500000137
        },
        {
          "name": "F#6",
          "midi": 90,
          "time": 26.578907500000025,
          "velocity": 0.7874015748031497,
          "duration": 0.06578937500000137
        },
        {
          "name": "E7",
          "midi": 100,
          "time": 26.578907500000025,
          "velocity": 0.7874015748031497,
          "duration": 0.06578937500000137
        },
        {
          "name": "F#7",
          "midi": 102,
          "time": 26.578907500000025,
          "velocity": 0.7874015748031497,
          "duration": 0.06578937500000137
        },
        {
          "name": "D4",
          "midi": 62,
          "time": 27.105222500000025,
          "velocity": 0.7874015748031497,
          "duration": 0.06578937500000137
        },
        {
          "name": "F#4",
          "midi": 66,
          "time": 27.105222500000025,
          "velocity": 0.7874015748031497,
          "duration": 0.06578937500000137
        },
        {
          "name": "D5",
          "midi": 74,
          "time": 27.105222500000025,
          "velocity": 0.7874015748031497,
          "duration": 0.06578937500000137
        },
        {
          "name": "F#5",
          "midi": 78,
          "time": 27.105222500000025,
          "velocity": 0.7874015748031497,
          "duration": 0.06578937500000137
        },
        {
          "name": "D#6",
          "midi": 87,
          "time": 27.105222500000025,
          "velocity": 0.7874015748031497,
          "duration": 0.06578937500000137
        },
        {
          "name": "F#6",
          "midi": 90,
          "time": 27.105222500000025,
          "velocity": 0.7874015748031497,
          "duration": 0.06578937500000137
        },
        {
          "name": "E7",
          "midi": 100,
          "time": 27.105222500000025,
          "velocity": 0.7874015748031497,
          "duration": 0.06578937500000137
        },
        {
          "name": "F#7",
          "midi": 102,
          "time": 27.105222500000025,
          "velocity": 0.7874015748031497,
          "duration": 0.06578937500000137
        },
        {
          "name": "C#4",
          "midi": 61,
          "time": 27.631537500000025,
          "velocity": 0.7874015748031497,
          "duration": 0.06578937500000137
        },
        {
          "name": "F#4",
          "midi": 66,
          "time": 27.631537500000025,
          "velocity": 0.7874015748031497,
          "duration": 0.06578937500000137
        },
        {
          "name": "C5",
          "midi": 72,
          "time": 27.631537500000025,
          "velocity": 0.7874015748031497,
          "duration": 0.06578937500000137
        },
        {
          "name": "F#5",
          "midi": 78,
          "time": 27.631537500000025,
          "velocity": 0.7874015748031497,
          "duration": 0.06578937500000137
        },
        {
          "name": "C6",
          "midi": 84,
          "time": 27.631537500000025,
          "velocity": 0.7874015748031497,
          "duration": 0.06578937500000137
        },
        {
          "name": "F#6",
          "midi": 90,
          "time": 27.631537500000025,
          "velocity": 0.7874015748031497,
          "duration": 0.06578937500000137
        },
        {
          "name": "C7",
          "midi": 96,
          "time": 27.631537500000025,
          "velocity": 0.7874015748031497,
          "duration": 0.06578937500000137
        },
        {
          "name": "F#7",
          "midi": 102,
          "time": 27.631537500000025,
          "velocity": 0.7874015748031497,
          "duration": 0.06578937500000137
        },
        {
          "name": "D4",
          "midi": 62,
          "time": 27.894695000000027,
          "velocity": 0.7874015748031497,
          "duration": 0.06469288541666529
        },
        {
          "name": "F#4",
          "midi": 66,
          "time": 27.894695000000027,
          "velocity": 0.7874015748031497,
          "duration": 0.06469288541666529
        },
        {
          "name": "D5",
          "midi": 74,
          "time": 27.894695000000027,
          "velocity": 0.7874015748031497,
          "duration": 0.06469288541666529
        },
        {
          "name": "F#5",
          "midi": 78,
          "time": 27.894695000000027,
          "velocity": 0.7874015748031497,
          "duration": 0.06469288541666529
        },
        {
          "name": "D#6",
          "midi": 87,
          "time": 27.894695000000027,
          "velocity": 0.7874015748031497,
          "duration": 0.06469288541666529
        },
        {
          "name": "F#6",
          "midi": 90,
          "time": 27.894695000000027,
          "velocity": 0.7874015748031497,
          "duration": 0.06469288541666529
        },
        {
          "name": "E7",
          "midi": 100,
          "time": 27.894695000000027,
          "velocity": 0.7874015748031497,
          "duration": 0.06469288541666529
        },
        {
          "name": "F#7",
          "midi": 102,
          "time": 27.894695000000027,
          "velocity": 0.7874015748031497,
          "duration": 0.06469288541666529
        },
        {
          "name": "D4",
          "midi": 62,
          "time": 28.421010000000027,
          "velocity": 0.7874015748031497,
          "duration": 0.06578937500000137
        },
        {
          "name": "F#4",
          "midi": 66,
          "time": 28.421010000000027,
          "velocity": 0.7874015748031497,
          "duration": 0.06578937500000137
        },
        {
          "name": "D5",
          "midi": 74,
          "time": 28.421010000000027,
          "velocity": 0.7874015748031497,
          "duration": 0.06578937500000137
        },
        {
          "name": "F#5",
          "midi": 78,
          "time": 28.421010000000027,
          "velocity": 0.7874015748031497,
          "duration": 0.06578937500000137
        },
        {
          "name": "D#6",
          "midi": 87,
          "time": 28.421010000000027,
          "velocity": 0.7874015748031497,
          "duration": 0.06578937500000137
        },
        {
          "name": "F#6",
          "midi": 90,
          "time": 28.421010000000027,
          "velocity": 0.7874015748031497,
          "duration": 0.06578937500000137
        },
        {
          "name": "E7",
          "midi": 100,
          "time": 28.421010000000027,
          "velocity": 0.7874015748031497,
          "duration": 0.06578937500000137
        },
        {
          "name": "F#7",
          "midi": 102,
          "time": 28.421010000000027,
          "velocity": 0.7874015748031497,
          "duration": 0.06578937500000137
        },
        {
          "name": "D4",
          "midi": 62,
          "time": 28.947325000000028,
          "velocity": 0.7874015748031497,
          "duration": 0.06578937500000137
        },
        {
          "name": "F#4",
          "midi": 66,
          "time": 28.947325000000028,
          "velocity": 0.7874015748031497,
          "duration": 0.06578937500000137
        },
        {
          "name": "D5",
          "midi": 74,
          "time": 28.947325000000028,
          "velocity": 0.7874015748031497,
          "duration": 0.06578937500000137
        },
        {
          "name": "F#5",
          "midi": 78,
          "time": 28.947325000000028,
          "velocity": 0.7874015748031497,
          "duration": 0.06578937500000137
        },
        {
          "name": "D#6",
          "midi": 87,
          "time": 28.947325000000028,
          "velocity": 0.7874015748031497,
          "duration": 0.06578937500000137
        },
        {
          "name": "F#6",
          "midi": 90,
          "time": 28.947325000000028,
          "velocity": 0.7874015748031497,
          "duration": 0.06578937500000137
        },
        {
          "name": "E7",
          "midi": 100,
          "time": 28.947325000000028,
          "velocity": 0.7874015748031497,
          "duration": 0.06578937500000137
        },
        {
          "name": "F#7",
          "midi": 102,
          "time": 28.947325000000028,
          "velocity": 0.7874015748031497,
          "duration": 0.06578937500000137
        },
        {
          "name": "D4",
          "midi": 62,
          "time": 29.473640000000028,
          "velocity": 0.7874015748031497,
          "duration": 0.06578937500000137
        },
        {
          "name": "F#4",
          "midi": 66,
          "time": 29.473640000000028,
          "velocity": 0.7874015748031497,
          "duration": 0.06578937500000137
        },
        {
          "name": "D5",
          "midi": 74,
          "time": 29.473640000000028,
          "velocity": 0.7874015748031497,
          "duration": 0.06578937500000137
        },
        {
          "name": "F#5",
          "midi": 78,
          "time": 29.473640000000028,
          "velocity": 0.7874015748031497,
          "duration": 0.06578937500000137
        },
        {
          "name": "D#6",
          "midi": 87,
          "time": 29.473640000000028,
          "velocity": 0.7874015748031497,
          "duration": 0.06578937500000137
        },
        {
          "name": "F#6",
          "midi": 90,
          "time": 29.473640000000028,
          "velocity": 0.7874015748031497,
          "duration": 0.06578937500000137
        },
        {
          "name": "E7",
          "midi": 100,
          "time": 29.473640000000028,
          "velocity": 0.7874015748031497,
          "duration": 0.06578937500000137
        },
        {
          "name": "F#7",
          "midi": 102,
          "time": 29.473640000000028,
          "velocity": 0.7874015748031497,
          "duration": 0.06578937500000137
        },
        {
          "name": "C#4",
          "midi": 61,
          "time": 29.99995500000003,
          "velocity": 0.7874015748031497,
          "duration": 0.06469288541666529
        },
        {
          "name": "F#4",
          "midi": 66,
          "time": 29.99995500000003,
          "velocity": 0.7874015748031497,
          "duration": 0.06469288541666529
        },
        {
          "name": "C5",
          "midi": 72,
          "time": 29.99995500000003,
          "velocity": 0.7874015748031497,
          "duration": 0.06469288541666529
        },
        {
          "name": "F#5",
          "midi": 78,
          "time": 29.99995500000003,
          "velocity": 0.7874015748031497,
          "duration": 0.06469288541666529
        },
        {
          "name": "C6",
          "midi": 84,
          "time": 29.99995500000003,
          "velocity": 0.7874015748031497,
          "duration": 0.06469288541666529
        },
        {
          "name": "F#6",
          "midi": 90,
          "time": 29.99995500000003,
          "velocity": 0.7874015748031497,
          "duration": 0.06469288541666529
        },
        {
          "name": "C7",
          "midi": 96,
          "time": 29.99995500000003,
          "velocity": 0.7874015748031497,
          "duration": 0.06469288541666529
        },
        {
          "name": "F#7",
          "midi": 102,
          "time": 29.99995500000003,
          "velocity": 0.7874015748031497,
          "duration": 0.06469288541666529
        },
        {
          "name": "C6",
          "midi": 84,
          "time": 30.26420898958336,
          "velocity": 0.7874015748031497,
          "duration": 0.06469288541666529
        },
        {
          "name": "F#6",
          "midi": 90,
          "time": 30.26420898958336,
          "velocity": 0.7874015748031497,
          "duration": 0.06469288541666529
        },
        {
          "name": "C7",
          "midi": 96,
          "time": 30.26420898958336,
          "velocity": 0.7874015748031497,
          "duration": 0.06469288541666529
        },
        {
          "name": "F#7",
          "midi": 102,
          "time": 30.26420898958336,
          "velocity": 0.7874015748031497,
          "duration": 0.06469288541666529
        },
        {
          "name": "D4",
          "midi": 62,
          "time": 30.526270000000025,
          "velocity": 0.7874015748031497,
          "duration": 0.06359639583333276
        },
        {
          "name": "F#4",
          "midi": 66,
          "time": 30.526270000000025,
          "velocity": 0.7874015748031497,
          "duration": 0.06359639583333276
        },
        {
          "name": "D5",
          "midi": 74,
          "time": 30.526270000000025,
          "velocity": 0.7874015748031497,
          "duration": 0.06359639583333276
        },
        {
          "name": "F#5",
          "midi": 78,
          "time": 30.526270000000025,
          "velocity": 0.7874015748031497,
          "duration": 0.06359639583333276
        },
        {
          "name": "D#6",
          "midi": 87,
          "time": 30.526270000000025,
          "velocity": 0.7874015748031497,
          "duration": 0.06359639583333276
        },
        {
          "name": "F#6",
          "midi": 90,
          "time": 30.526270000000025,
          "velocity": 0.7874015748031497,
          "duration": 0.06359639583333276
        },
        {
          "name": "E7",
          "midi": 100,
          "time": 30.526270000000025,
          "velocity": 0.7874015748031497,
          "duration": 0.06359639583333276
        },
        {
          "name": "F#7",
          "midi": 102,
          "time": 30.526270000000025,
          "velocity": 0.7874015748031497,
          "duration": 0.06359639583333276
        },
        {
          "name": "C#4",
          "midi": 61,
          "time": 31.052585000000025,
          "velocity": 0.7874015748031497,
          "duration": 0.06469288541666529
        },
        {
          "name": "F#4",
          "midi": 66,
          "time": 31.052585000000025,
          "velocity": 0.7874015748031497,
          "duration": 0.06469288541666529
        },
        {
          "name": "C5",
          "midi": 72,
          "time": 31.052585000000025,
          "velocity": 0.7874015748031497,
          "duration": 0.06469288541666529
        },
        {
          "name": "F#5",
          "midi": 78,
          "time": 31.052585000000025,
          "velocity": 0.7874015748031497,
          "duration": 0.06469288541666529
        },
        {
          "name": "C6",
          "midi": 84,
          "time": 31.052585000000025,
          "velocity": 0.7874015748031497,
          "duration": 0.06469288541666529
        },
        {
          "name": "F#6",
          "midi": 90,
          "time": 31.052585000000025,
          "velocity": 0.7874015748031497,
          "duration": 0.06469288541666529
        },
        {
          "name": "C7",
          "midi": 96,
          "time": 31.052585000000025,
          "velocity": 0.7874015748031497,
          "duration": 0.06469288541666529
        },
        {
          "name": "F#7",
          "midi": 102,
          "time": 31.052585000000025,
          "velocity": 0.7874015748031497,
          "duration": 0.06469288541666529
        },
        {
          "name": "D4",
          "midi": 62,
          "time": 31.31464601041669,
          "velocity": 0.7874015748031497,
          "duration": 0.06469288541666529
        },
        {
          "name": "F#4",
          "midi": 66,
          "time": 31.31464601041669,
          "velocity": 0.7874015748031497,
          "duration": 0.06469288541666529
        },
        {
          "name": "D5",
          "midi": 74,
          "time": 31.31464601041669,
          "velocity": 0.7874015748031497,
          "duration": 0.06469288541666529
        },
        {
          "name": "F#5",
          "midi": 78,
          "time": 31.31464601041669,
          "velocity": 0.7874015748031497,
          "duration": 0.06469288541666529
        },
        {
          "name": "D#6",
          "midi": 87,
          "time": 31.31464601041669,
          "velocity": 0.7874015748031497,
          "duration": 0.06469288541666529
        },
        {
          "name": "F#6",
          "midi": 90,
          "time": 31.31464601041669,
          "velocity": 0.7874015748031497,
          "duration": 0.06469288541666529
        },
        {
          "name": "E7",
          "midi": 100,
          "time": 31.31464601041669,
          "velocity": 0.7874015748031497,
          "duration": 0.06469288541666529
        },
        {
          "name": "F#7",
          "midi": 102,
          "time": 31.31464601041669,
          "velocity": 0.7874015748031497,
          "duration": 0.06469288541666529
        },
        {
          "name": "D4",
          "midi": 62,
          "time": 31.843153989583357,
          "velocity": 0.7874015748031497,
          "duration": 0.06359639583333276
        },
        {
          "name": "F#4",
          "midi": 66,
          "time": 31.843153989583357,
          "velocity": 0.7874015748031497,
          "duration": 0.06359639583333276
        },
        {
          "name": "D5",
          "midi": 74,
          "time": 31.843153989583357,
          "velocity": 0.7874015748031497,
          "duration": 0.06359639583333276
        },
        {
          "name": "F#5",
          "midi": 78,
          "time": 31.843153989583357,
          "velocity": 0.7874015748031497,
          "duration": 0.06359639583333276
        },
        {
          "name": "D#6",
          "midi": 87,
          "time": 31.843153989583357,
          "velocity": 0.7874015748031497,
          "duration": 0.06359639583333276
        },
        {
          "name": "F#6",
          "midi": 90,
          "time": 31.843153989583357,
          "velocity": 0.7874015748031497,
          "duration": 0.06359639583333276
        },
        {
          "name": "E7",
          "midi": 100,
          "time": 31.843153989583357,
          "velocity": 0.7874015748031497,
          "duration": 0.06359639583333276
        },
        {
          "name": "F#7",
          "midi": 102,
          "time": 31.843153989583357,
          "velocity": 0.7874015748031497,
          "duration": 0.06359639583333276
        },
        {
          "name": "D4",
          "midi": 62,
          "time": 32.36837250000002,
          "velocity": 0.7874015748031497,
          "duration": 0.06359639583333632
        },
        {
          "name": "F#4",
          "midi": 66,
          "time": 32.36837250000002,
          "velocity": 0.7874015748031497,
          "duration": 0.06359639583333632
        },
        {
          "name": "D5",
          "midi": 74,
          "time": 32.36837250000002,
          "velocity": 0.7874015748031497,
          "duration": 0.06359639583333632
        },
        {
          "name": "F#5",
          "midi": 78,
          "time": 32.36837250000002,
          "velocity": 0.7874015748031497,
          "duration": 0.06359639583333632
        },
        {
          "name": "D#6",
          "midi": 87,
          "time": 32.36837250000002,
          "velocity": 0.7874015748031497,
          "duration": 0.06359639583333632
        },
        {
          "name": "F#6",
          "midi": 90,
          "time": 32.36837250000002,
          "velocity": 0.7874015748031497,
          "duration": 0.06359639583333632
        },
        {
          "name": "E7",
          "midi": 100,
          "time": 32.36837250000002,
          "velocity": 0.7874015748031497,
          "duration": 0.06359639583333632
        },
        {
          "name": "F#7",
          "midi": 102,
          "time": 32.36837250000002,
          "velocity": 0.7874015748031497,
          "duration": 0.06359639583333632
        },
        {
          "name": "C#4",
          "midi": 61,
          "time": 32.89359101041669,
          "velocity": 0.7874015748031497,
          "duration": 0.06469288541666884
        },
        {
          "name": "F#4",
          "midi": 66,
          "time": 32.89359101041669,
          "velocity": 0.7874015748031497,
          "duration": 0.06469288541666884
        },
        {
          "name": "C5",
          "midi": 72,
          "time": 32.89359101041669,
          "velocity": 0.7874015748031497,
          "duration": 0.06469288541666884
        },
        {
          "name": "F#5",
          "midi": 78,
          "time": 32.89359101041669,
          "velocity": 0.7874015748031497,
          "duration": 0.06469288541666884
        },
        {
          "name": "C6",
          "midi": 84,
          "time": 32.89359101041669,
          "velocity": 0.7874015748031497,
          "duration": 0.06469288541666884
        },
        {
          "name": "F#6",
          "midi": 90,
          "time": 32.89359101041669,
          "velocity": 0.7874015748031497,
          "duration": 0.06469288541666884
        },
        {
          "name": "C7",
          "midi": 96,
          "time": 32.89359101041669,
          "velocity": 0.7874015748031497,
          "duration": 0.06469288541666884
        },
        {
          "name": "F#7",
          "midi": 102,
          "time": 32.89359101041669,
          "velocity": 0.7874015748031497,
          "duration": 0.06469288541666884
        },
        {
          "name": "D4",
          "midi": 62,
          "time": 33.15784500000003,
          "velocity": 0.7874015748031497,
          "duration": 0.06469288541666884
        },
        {
          "name": "F#4",
          "midi": 66,
          "time": 33.15784500000003,
          "velocity": 0.7874015748031497,
          "duration": 0.06469288541666884
        },
        {
          "name": "D5",
          "midi": 74,
          "time": 33.15784500000003,
          "velocity": 0.7874015748031497,
          "duration": 0.06469288541666884
        },
        {
          "name": "F#5",
          "midi": 78,
          "time": 33.15784500000003,
          "velocity": 0.7874015748031497,
          "duration": 0.06469288541666884
        },
        {
          "name": "D#6",
          "midi": 87,
          "time": 33.15784500000003,
          "velocity": 0.7874015748031497,
          "duration": 0.06469288541666884
        },
        {
          "name": "F#6",
          "midi": 90,
          "time": 33.15784500000003,
          "velocity": 0.7874015748031497,
          "duration": 0.06469288541666884
        },
        {
          "name": "E7",
          "midi": 100,
          "time": 33.15784500000003,
          "velocity": 0.7874015748031497,
          "duration": 0.06469288541666884
        },
        {
          "name": "F#7",
          "midi": 102,
          "time": 33.15784500000003,
          "velocity": 0.7874015748031497,
          "duration": 0.06469288541666884
        },
        {
          "name": "D4",
          "midi": 62,
          "time": 33.684160000000034,
          "velocity": 0.7874015748031497,
          "duration": 0.06469288541666884
        },
        {
          "name": "F#4",
          "midi": 66,
          "time": 33.684160000000034,
          "velocity": 0.7874015748031497,
          "duration": 0.06469288541666884
        },
        {
          "name": "D5",
          "midi": 74,
          "time": 33.684160000000034,
          "velocity": 0.7874015748031497,
          "duration": 0.06469288541666884
        },
        {
          "name": "F#5",
          "midi": 78,
          "time": 33.684160000000034,
          "velocity": 0.7874015748031497,
          "duration": 0.06469288541666884
        },
        {
          "name": "D#6",
          "midi": 87,
          "time": 33.684160000000034,
          "velocity": 0.7874015748031497,
          "duration": 0.06469288541666884
        },
        {
          "name": "F#6",
          "midi": 90,
          "time": 33.684160000000034,
          "velocity": 0.7874015748031497,
          "duration": 0.06469288541666884
        },
        {
          "name": "E7",
          "midi": 100,
          "time": 33.684160000000034,
          "velocity": 0.7874015748031497,
          "duration": 0.06469288541666884
        },
        {
          "name": "F#7",
          "midi": 102,
          "time": 33.684160000000034,
          "velocity": 0.7874015748031497,
          "duration": 0.06469288541666884
        },
        {
          "name": "D4",
          "midi": 62,
          "time": 34.21047500000004,
          "velocity": 0.7874015748031497,
          "duration": 0.06578937500000137
        },
        {
          "name": "F#4",
          "midi": 66,
          "time": 34.21047500000004,
          "velocity": 0.7874015748031497,
          "duration": 0.06578937500000137
        },
        {
          "name": "D5",
          "midi": 74,
          "time": 34.21047500000004,
          "velocity": 0.7874015748031497,
          "duration": 0.06578937500000137
        },
        {
          "name": "F#5",
          "midi": 78,
          "time": 34.21047500000004,
          "velocity": 0.7874015748031497,
          "duration": 0.06578937500000137
        },
        {
          "name": "D#6",
          "midi": 87,
          "time": 34.21047500000004,
          "velocity": 0.7874015748031497,
          "duration": 0.06578937500000137
        },
        {
          "name": "F#6",
          "midi": 90,
          "time": 34.21047500000004,
          "velocity": 0.7874015748031497,
          "duration": 0.06578937500000137
        },
        {
          "name": "E7",
          "midi": 100,
          "time": 34.21047500000004,
          "velocity": 0.7874015748031497,
          "duration": 0.06578937500000137
        },
        {
          "name": "F#7",
          "midi": 102,
          "time": 34.21047500000004,
          "velocity": 0.7874015748031497,
          "duration": 0.06578937500000137
        },
        {
          "name": "D4",
          "midi": 62,
          "time": 34.73679000000004,
          "velocity": 0.7874015748031497,
          "duration": 0.06359639583333632
        },
        {
          "name": "F#4",
          "midi": 66,
          "time": 34.73679000000004,
          "velocity": 0.7874015748031497,
          "duration": 0.06359639583333632
        },
        {
          "name": "D5",
          "midi": 74,
          "time": 34.73679000000004,
          "velocity": 0.7874015748031497,
          "duration": 0.06359639583333632
        },
        {
          "name": "F#5",
          "midi": 78,
          "time": 34.73679000000004,
          "velocity": 0.7874015748031497,
          "duration": 0.06359639583333632
        },
        {
          "name": "D#6",
          "midi": 87,
          "time": 34.73679000000004,
          "velocity": 0.7874015748031497,
          "duration": 0.06359639583333632
        },
        {
          "name": "F#6",
          "midi": 90,
          "time": 34.73679000000004,
          "velocity": 0.7874015748031497,
          "duration": 0.06359639583333632
        },
        {
          "name": "E7",
          "midi": 100,
          "time": 34.73679000000004,
          "velocity": 0.7874015748031497,
          "duration": 0.06359639583333632
        },
        {
          "name": "F#7",
          "midi": 102,
          "time": 34.73679000000004,
          "velocity": 0.7874015748031497,
          "duration": 0.06359639583333632
        },
        {
          "name": "C#4",
          "midi": 61,
          "time": 35.263105000000046,
          "velocity": 0.7874015748031497,
          "duration": 0.06359639583333632
        },
        {
          "name": "F#4",
          "midi": 66,
          "time": 35.263105000000046,
          "velocity": 0.7874015748031497,
          "duration": 0.06359639583333632
        },
        {
          "name": "C5",
          "midi": 72,
          "time": 35.263105000000046,
          "velocity": 0.7874015748031497,
          "duration": 0.06359639583333632
        },
        {
          "name": "F#5",
          "midi": 78,
          "time": 35.263105000000046,
          "velocity": 0.7874015748031497,
          "duration": 0.06359639583333632
        },
        {
          "name": "C6",
          "midi": 84,
          "time": 35.263105000000046,
          "velocity": 0.7874015748031497,
          "duration": 0.06359639583333632
        },
        {
          "name": "F#6",
          "midi": 90,
          "time": 35.263105000000046,
          "velocity": 0.7874015748031497,
          "duration": 0.06359639583333632
        },
        {
          "name": "C7",
          "midi": 96,
          "time": 35.263105000000046,
          "velocity": 0.7874015748031497,
          "duration": 0.06359639583333632
        },
        {
          "name": "F#7",
          "midi": 102,
          "time": 35.263105000000046,
          "velocity": 0.7874015748031497,
          "duration": 0.06359639583333632
        },
        {
          "name": "C6",
          "midi": 84,
          "time": 35.52626250000005,
          "velocity": 0.7874015748031497,
          "duration": 0.06359639583333632
        },
        {
          "name": "F#6",
          "midi": 90,
          "time": 35.52626250000005,
          "velocity": 0.7874015748031497,
          "duration": 0.06359639583333632
        },
        {
          "name": "C7",
          "midi": 96,
          "time": 35.52626250000005,
          "velocity": 0.7874015748031497,
          "duration": 0.06359639583333632
        },
        {
          "name": "F#7",
          "midi": 102,
          "time": 35.52626250000005,
          "velocity": 0.7874015748031497,
          "duration": 0.06359639583333632
        },
        {
          "name": "D4",
          "midi": 62,
          "time": 35.78942000000006,
          "velocity": 0.7874015748031497,
          "duration": 0.06578937500000137
        },
        {
          "name": "F#4",
          "midi": 66,
          "time": 35.78942000000006,
          "velocity": 0.7874015748031497,
          "duration": 0.06578937500000137
        },
        {
          "name": "D5",
          "midi": 74,
          "time": 35.78942000000006,
          "velocity": 0.7874015748031497,
          "duration": 0.06578937500000137
        },
        {
          "name": "F#5",
          "midi": 78,
          "time": 35.78942000000006,
          "velocity": 0.7874015748031497,
          "duration": 0.06578937500000137
        },
        {
          "name": "D#6",
          "midi": 87,
          "time": 35.78942000000006,
          "velocity": 0.7874015748031497,
          "duration": 0.06578937500000137
        },
        {
          "name": "F#6",
          "midi": 90,
          "time": 35.78942000000006,
          "velocity": 0.7874015748031497,
          "duration": 0.06578937500000137
        },
        {
          "name": "E7",
          "midi": 100,
          "time": 35.78942000000006,
          "velocity": 0.7874015748031497,
          "duration": 0.06578937500000137
        },
        {
          "name": "F#7",
          "midi": 102,
          "time": 35.78942000000006,
          "velocity": 0.7874015748031497,
          "duration": 0.06578937500000137
        },
        {
          "name": "C#4",
          "midi": 61,
          "time": 36.31573500000006,
          "velocity": 0.7874015748031497,
          "duration": 0.06469288541666884
        },
        {
          "name": "F#4",
          "midi": 66,
          "time": 36.31573500000006,
          "velocity": 0.7874015748031497,
          "duration": 0.06469288541666884
        },
        {
          "name": "C5",
          "midi": 72,
          "time": 36.31573500000006,
          "velocity": 0.7874015748031497,
          "duration": 0.06469288541666884
        },
        {
          "name": "F#5",
          "midi": 78,
          "time": 36.31573500000006,
          "velocity": 0.7874015748031497,
          "duration": 0.06469288541666884
        },
        {
          "name": "C6",
          "midi": 84,
          "time": 36.31573500000006,
          "velocity": 0.7874015748031497,
          "duration": 0.06469288541666884
        },
        {
          "name": "F#6",
          "midi": 90,
          "time": 36.31573500000006,
          "velocity": 0.7874015748031497,
          "duration": 0.06469288541666884
        },
        {
          "name": "C7",
          "midi": 96,
          "time": 36.31573500000006,
          "velocity": 0.7874015748031497,
          "duration": 0.06469288541666884
        },
        {
          "name": "F#7",
          "midi": 102,
          "time": 36.31573500000006,
          "velocity": 0.7874015748031497,
          "duration": 0.06469288541666884
        },
        {
          "name": "D4",
          "midi": 62,
          "time": 36.5799889895834,
          "velocity": 0.7874015748031497,
          "duration": 0.06469288541666884
        },
        {
          "name": "F#4",
          "midi": 66,
          "time": 36.5799889895834,
          "velocity": 0.7874015748031497,
          "duration": 0.06469288541666884
        },
        {
          "name": "D5",
          "midi": 74,
          "time": 36.5799889895834,
          "velocity": 0.7874015748031497,
          "duration": 0.06469288541666884
        },
        {
          "name": "F#5",
          "midi": 78,
          "time": 36.5799889895834,
          "velocity": 0.7874015748031497,
          "duration": 0.06469288541666884
        },
        {
          "name": "D#6",
          "midi": 87,
          "time": 36.5799889895834,
          "velocity": 0.7874015748031497,
          "duration": 0.06469288541666884
        },
        {
          "name": "F#6",
          "midi": 90,
          "time": 36.5799889895834,
          "velocity": 0.7874015748031497,
          "duration": 0.06469288541666884
        },
        {
          "name": "E7",
          "midi": 100,
          "time": 36.5799889895834,
          "velocity": 0.7874015748031497,
          "duration": 0.06469288541666884
        },
        {
          "name": "F#7",
          "midi": 102,
          "time": 36.5799889895834,
          "velocity": 0.7874015748031497,
          "duration": 0.06469288541666884
        },
        {
          "name": "D4",
          "midi": 62,
          "time": 37.10520750000007,
          "velocity": 0.7874015748031497,
          "duration": 0.06578937500000137
        },
        {
          "name": "F#4",
          "midi": 66,
          "time": 37.10520750000007,
          "velocity": 0.7874015748031497,
          "duration": 0.06578937500000137
        },
        {
          "name": "D5",
          "midi": 74,
          "time": 37.10520750000007,
          "velocity": 0.7874015748031497,
          "duration": 0.06578937500000137
        },
        {
          "name": "F#5",
          "midi": 78,
          "time": 37.10520750000007,
          "velocity": 0.7874015748031497,
          "duration": 0.06578937500000137
        },
        {
          "name": "D#6",
          "midi": 87,
          "time": 37.10520750000007,
          "velocity": 0.7874015748031497,
          "duration": 0.06578937500000137
        },
        {
          "name": "F#6",
          "midi": 90,
          "time": 37.10520750000007,
          "velocity": 0.7874015748031497,
          "duration": 0.06578937500000137
        },
        {
          "name": "E7",
          "midi": 100,
          "time": 37.10520750000007,
          "velocity": 0.7874015748031497,
          "duration": 0.06578937500000137
        },
        {
          "name": "F#7",
          "midi": 102,
          "time": 37.10520750000007,
          "velocity": 0.7874015748031497,
          "duration": 0.06578937500000137
        },
        {
          "name": "D4",
          "midi": 62,
          "time": 37.632618989583406,
          "velocity": 0.7874015748031497,
          "duration": 0.06469288541666884
        },
        {
          "name": "F#4",
          "midi": 66,
          "time": 37.632618989583406,
          "velocity": 0.7874015748031497,
          "duration": 0.06469288541666884
        },
        {
          "name": "D5",
          "midi": 74,
          "time": 37.632618989583406,
          "velocity": 0.7874015748031497,
          "duration": 0.06469288541666884
        },
        {
          "name": "F#5",
          "midi": 78,
          "time": 37.632618989583406,
          "velocity": 0.7874015748031497,
          "duration": 0.06469288541666884
        },
        {
          "name": "D#6",
          "midi": 87,
          "time": 37.632618989583406,
          "velocity": 0.7874015748031497,
          "duration": 0.06469288541666884
        },
        {
          "name": "F#6",
          "midi": 90,
          "time": 37.632618989583406,
          "velocity": 0.7874015748031497,
          "duration": 0.06469288541666884
        },
        {
          "name": "E7",
          "midi": 100,
          "time": 37.632618989583406,
          "velocity": 0.7874015748031497,
          "duration": 0.06469288541666884
        },
        {
          "name": "F#7",
          "midi": 102,
          "time": 37.632618989583406,
          "velocity": 0.7874015748031497,
          "duration": 0.06469288541666884
        },
        {
          "name": "C#4",
          "midi": 61,
          "time": 38.15783750000008,
          "velocity": 0.7874015748031497,
          "duration": 0.06578937500000137
        },
        {
          "name": "F#4",
          "midi": 66,
          "time": 38.15783750000008,
          "velocity": 0.7874015748031497,
          "duration": 0.06578937500000137
        },
        {
          "name": "C5",
          "midi": 72,
          "time": 38.15783750000008,
          "velocity": 0.7874015748031497,
          "duration": 0.06578937500000137
        },
        {
          "name": "F#5",
          "midi": 78,
          "time": 38.15783750000008,
          "velocity": 0.7874015748031497,
          "duration": 0.06578937500000137
        },
        {
          "name": "C6",
          "midi": 84,
          "time": 38.15783750000008,
          "velocity": 0.7874015748031497,
          "duration": 0.06578937500000137
        },
        {
          "name": "F#6",
          "midi": 90,
          "time": 38.15783750000008,
          "velocity": 0.7874015748031497,
          "duration": 0.06578937500000137
        },
        {
          "name": "C7",
          "midi": 96,
          "time": 38.15783750000008,
          "velocity": 0.7874015748031497,
          "duration": 0.06578937500000137
        },
        {
          "name": "F#7",
          "midi": 102,
          "time": 38.15783750000008,
          "velocity": 0.7874015748031497,
          "duration": 0.06578937500000137
        },
        {
          "name": "D4",
          "midi": 62,
          "time": 38.420995000000076,
          "velocity": 0.7874015748031497,
          "duration": 0.06469288541666884
        },
        {
          "name": "F#4",
          "midi": 66,
          "time": 38.420995000000076,
          "velocity": 0.7874015748031497,
          "duration": 0.06469288541666884
        },
        {
          "name": "D5",
          "midi": 74,
          "time": 38.420995000000076,
          "velocity": 0.7874015748031497,
          "duration": 0.06469288541666884
        },
        {
          "name": "F#5",
          "midi": 78,
          "time": 38.420995000000076,
          "velocity": 0.7874015748031497,
          "duration": 0.06469288541666884
        },
        {
          "name": "D#6",
          "midi": 87,
          "time": 38.420995000000076,
          "velocity": 0.7874015748031497,
          "duration": 0.06469288541666884
        },
        {
          "name": "F#6",
          "midi": 90,
          "time": 38.420995000000076,
          "velocity": 0.7874015748031497,
          "duration": 0.06469288541666884
        },
        {
          "name": "E7",
          "midi": 100,
          "time": 38.420995000000076,
          "velocity": 0.7874015748031497,
          "duration": 0.06469288541666884
        },
        {
          "name": "F#7",
          "midi": 102,
          "time": 38.420995000000076,
          "velocity": 0.7874015748031497,
          "duration": 0.06469288541666884
        },
        {
          "name": "D4",
          "midi": 62,
          "time": 38.94731000000008,
          "velocity": 0.7874015748031497,
          "duration": 0.06578937500000137
        },
        {
          "name": "F#4",
          "midi": 66,
          "time": 38.94731000000008,
          "velocity": 0.7874015748031497,
          "duration": 0.06578937500000137
        },
        {
          "name": "D5",
          "midi": 74,
          "time": 38.94731000000008,
          "velocity": 0.7874015748031497,
          "duration": 0.06578937500000137
        },
        {
          "name": "F#5",
          "midi": 78,
          "time": 38.94731000000008,
          "velocity": 0.7874015748031497,
          "duration": 0.06578937500000137
        },
        {
          "name": "D#6",
          "midi": 87,
          "time": 38.94731000000008,
          "velocity": 0.7874015748031497,
          "duration": 0.06578937500000137
        },
        {
          "name": "F#6",
          "midi": 90,
          "time": 38.94731000000008,
          "velocity": 0.7874015748031497,
          "duration": 0.06578937500000137
        },
        {
          "name": "E7",
          "midi": 100,
          "time": 38.94731000000008,
          "velocity": 0.7874015748031497,
          "duration": 0.06578937500000137
        },
        {
          "name": "F#7",
          "midi": 102,
          "time": 38.94731000000008,
          "velocity": 0.7874015748031497,
          "duration": 0.06578937500000137
        },
        {
          "name": "D4",
          "midi": 62,
          "time": 39.473625000000084,
          "velocity": 0.7874015748031497,
          "duration": 0.06469288541666884
        },
        {
          "name": "F#4",
          "midi": 66,
          "time": 39.473625000000084,
          "velocity": 0.7874015748031497,
          "duration": 0.06469288541666884
        },
        {
          "name": "D5",
          "midi": 74,
          "time": 39.473625000000084,
          "velocity": 0.7874015748031497,
          "duration": 0.06469288541666884
        },
        {
          "name": "F#5",
          "midi": 78,
          "time": 39.473625000000084,
          "velocity": 0.7874015748031497,
          "duration": 0.06469288541666884
        },
        {
          "name": "D#6",
          "midi": 87,
          "time": 39.473625000000084,
          "velocity": 0.7874015748031497,
          "duration": 0.06469288541666884
        },
        {
          "name": "F#6",
          "midi": 90,
          "time": 39.473625000000084,
          "velocity": 0.7874015748031497,
          "duration": 0.06469288541666884
        },
        {
          "name": "E7",
          "midi": 100,
          "time": 39.473625000000084,
          "velocity": 0.7874015748031497,
          "duration": 0.06469288541666884
        },
        {
          "name": "F#7",
          "midi": 102,
          "time": 39.473625000000084,
          "velocity": 0.7874015748031497,
          "duration": 0.06469288541666884
        },
        {
          "name": "D4",
          "midi": 62,
          "time": 39.99994000000009,
          "velocity": 0.7874015748031497,
          "duration": 0.06359639583333632
        },
        {
          "name": "F#4",
          "midi": 66,
          "time": 39.99994000000009,
          "velocity": 0.7874015748031497,
          "duration": 0.06359639583333632
        },
        {
          "name": "D5",
          "midi": 74,
          "time": 39.99994000000009,
          "velocity": 0.7874015748031497,
          "duration": 0.06359639583333632
        },
        {
          "name": "F#5",
          "midi": 78,
          "time": 39.99994000000009,
          "velocity": 0.7874015748031497,
          "duration": 0.06359639583333632
        },
        {
          "name": "D#6",
          "midi": 87,
          "time": 39.99994000000009,
          "velocity": 0.7874015748031497,
          "duration": 0.06359639583333632
        },
        {
          "name": "F#6",
          "midi": 90,
          "time": 39.99994000000009,
          "velocity": 0.7874015748031497,
          "duration": 0.06359639583333632
        },
        {
          "name": "E7",
          "midi": 100,
          "time": 39.99994000000009,
          "velocity": 0.7874015748031497,
          "duration": 0.06359639583333632
        },
        {
          "name": "F#7",
          "midi": 102,
          "time": 39.99994000000009,
          "velocity": 0.7874015748031497,
          "duration": 0.06359639583333632
        },
        {
          "name": "C#4",
          "midi": 61,
          "time": 40.52625500000009,
          "velocity": 0.7874015748031497,
          "duration": 0.06578937500000137
        },
        {
          "name": "F#4",
          "midi": 66,
          "time": 40.52625500000009,
          "velocity": 0.7874015748031497,
          "duration": 0.06578937500000137
        },
        {
          "name": "C5",
          "midi": 72,
          "time": 40.52625500000009,
          "velocity": 0.7874015748031497,
          "duration": 0.06578937500000137
        },
        {
          "name": "F#5",
          "midi": 78,
          "time": 40.52625500000009,
          "velocity": 0.7874015748031497,
          "duration": 0.06578937500000137
        },
        {
          "name": "C6",
          "midi": 84,
          "time": 40.52625500000009,
          "velocity": 0.7874015748031497,
          "duration": 0.06578937500000137
        },
        {
          "name": "F#6",
          "midi": 90,
          "time": 40.52625500000009,
          "velocity": 0.7874015748031497,
          "duration": 0.06578937500000137
        },
        {
          "name": "C7",
          "midi": 96,
          "time": 40.52625500000009,
          "velocity": 0.7874015748031497,
          "duration": 0.06578937500000137
        },
        {
          "name": "F#7",
          "midi": 102,
          "time": 40.52625500000009,
          "velocity": 0.7874015748031497,
          "duration": 0.06578937500000137
        },
        {
          "name": "C6",
          "midi": 84,
          "time": 40.79050898958343,
          "velocity": 0.7874015748031497,
          "duration": 0.06578937500000137
        },
        {
          "name": "F#6",
          "midi": 90,
          "time": 40.79050898958343,
          "velocity": 0.7874015748031497,
          "duration": 0.06578937500000137
        },
        {
          "name": "C7",
          "midi": 96,
          "time": 40.79050898958343,
          "velocity": 0.7874015748031497,
          "duration": 0.06578937500000137
        },
        {
          "name": "F#7",
          "midi": 102,
          "time": 40.79050898958343,
          "velocity": 0.7874015748031497,
          "duration": 0.06578937500000137
        },
        {
          "name": "D4",
          "midi": 62,
          "time": 41.052570000000095,
          "velocity": 0.7874015748031497,
          "duration": 0.06578937500000137
        },
        {
          "name": "F#4",
          "midi": 66,
          "time": 41.052570000000095,
          "velocity": 0.7874015748031497,
          "duration": 0.06578937500000137
        },
        {
          "name": "D5",
          "midi": 74,
          "time": 41.052570000000095,
          "velocity": 0.7874015748031497,
          "duration": 0.06578937500000137
        },
        {
          "name": "F#5",
          "midi": 78,
          "time": 41.052570000000095,
          "velocity": 0.7874015748031497,
          "duration": 0.06578937500000137
        },
        {
          "name": "D#6",
          "midi": 87,
          "time": 41.052570000000095,
          "velocity": 0.7874015748031497,
          "duration": 0.06578937500000137
        },
        {
          "name": "F#6",
          "midi": 90,
          "time": 41.052570000000095,
          "velocity": 0.7874015748031497,
          "duration": 0.06578937500000137
        },
        {
          "name": "E7",
          "midi": 100,
          "time": 41.052570000000095,
          "velocity": 0.7874015748031497,
          "duration": 0.06578937500000137
        },
        {
          "name": "F#7",
          "midi": 102,
          "time": 41.052570000000095,
          "velocity": 0.7874015748031497,
          "duration": 0.06578937500000137
        },
        {
          "name": "C#4",
          "midi": 61,
          "time": 41.5788850000001,
          "velocity": 0.7874015748031497,
          "duration": 0.06578937500000137
        },
        {
          "name": "F#4",
          "midi": 66,
          "time": 41.5788850000001,
          "velocity": 0.7874015748031497,
          "duration": 0.06578937500000137
        },
        {
          "name": "C5",
          "midi": 72,
          "time": 41.5788850000001,
          "velocity": 0.7874015748031497,
          "duration": 0.06578937500000137
        },
        {
          "name": "F#5",
          "midi": 78,
          "time": 41.5788850000001,
          "velocity": 0.7874015748031497,
          "duration": 0.06578937500000137
        },
        {
          "name": "C6",
          "midi": 84,
          "time": 41.5788850000001,
          "velocity": 0.7874015748031497,
          "duration": 0.06578937500000137
        },
        {
          "name": "F#6",
          "midi": 90,
          "time": 41.5788850000001,
          "velocity": 0.7874015748031497,
          "duration": 0.06578937500000137
        },
        {
          "name": "C7",
          "midi": 96,
          "time": 41.5788850000001,
          "velocity": 0.7874015748031497,
          "duration": 0.06578937500000137
        },
        {
          "name": "F#7",
          "midi": 102,
          "time": 41.5788850000001,
          "velocity": 0.7874015748031497,
          "duration": 0.06578937500000137
        },
        {
          "name": "D4",
          "midi": 62,
          "time": 41.840946010416765,
          "velocity": 0.7874015748031497,
          "duration": 0.06578937500000137
        },
        {
          "name": "F#4",
          "midi": 66,
          "time": 41.840946010416765,
          "velocity": 0.7874015748031497,
          "duration": 0.06578937500000137
        },
        {
          "name": "D5",
          "midi": 74,
          "time": 41.840946010416765,
          "velocity": 0.7874015748031497,
          "duration": 0.06578937500000137
        },
        {
          "name": "F#5",
          "midi": 78,
          "time": 41.840946010416765,
          "velocity": 0.7874015748031497,
          "duration": 0.06578937500000137
        },
        {
          "name": "D#6",
          "midi": 87,
          "time": 41.840946010416765,
          "velocity": 0.7874015748031497,
          "duration": 0.06578937500000137
        },
        {
          "name": "F#6",
          "midi": 90,
          "time": 41.840946010416765,
          "velocity": 0.7874015748031497,
          "duration": 0.06578937500000137
        },
        {
          "name": "E7",
          "midi": 100,
          "time": 41.840946010416765,
          "velocity": 0.7874015748031497,
          "duration": 0.06578937500000137
        },
        {
          "name": "F#7",
          "midi": 102,
          "time": 41.840946010416765,
          "velocity": 0.7874015748031497,
          "duration": 0.06578937500000137
        },
        {
          "name": "D4",
          "midi": 62,
          "time": 42.3683575000001,
          "velocity": 0.7874015748031497,
          "duration": 0.06578937500000137
        },
        {
          "name": "F#4",
          "midi": 66,
          "time": 42.3683575000001,
          "velocity": 0.7874015748031497,
          "duration": 0.06578937500000137
        },
        {
          "name": "D5",
          "midi": 74,
          "time": 42.3683575000001,
          "velocity": 0.7874015748031497,
          "duration": 0.06578937500000137
        },
        {
          "name": "F#5",
          "midi": 78,
          "time": 42.3683575000001,
          "velocity": 0.7874015748031497,
          "duration": 0.06578937500000137
        },
        {
          "name": "D#6",
          "midi": 87,
          "time": 42.3683575000001,
          "velocity": 0.7874015748031497,
          "duration": 0.06578937500000137
        },
        {
          "name": "F#6",
          "midi": 90,
          "time": 42.3683575000001,
          "velocity": 0.7874015748031497,
          "duration": 0.06578937500000137
        },
        {
          "name": "E7",
          "midi": 100,
          "time": 42.3683575000001,
          "velocity": 0.7874015748031497,
          "duration": 0.06578937500000137
        },
        {
          "name": "F#7",
          "midi": 102,
          "time": 42.3683575000001,
          "velocity": 0.7874015748031497,
          "duration": 0.06578937500000137
        },
        {
          "name": "D4",
          "midi": 62,
          "time": 42.89576898958344,
          "velocity": 0.7874015748031497,
          "duration": 0.06578937500000137
        },
        {
          "name": "F#4",
          "midi": 66,
          "time": 42.89576898958344,
          "velocity": 0.7874015748031497,
          "duration": 0.06578937500000137
        },
        {
          "name": "D5",
          "midi": 74,
          "time": 42.89576898958344,
          "velocity": 0.7874015748031497,
          "duration": 0.06578937500000137
        },
        {
          "name": "F#5",
          "midi": 78,
          "time": 42.89576898958344,
          "velocity": 0.7874015748031497,
          "duration": 0.06578937500000137
        },
        {
          "name": "D#6",
          "midi": 87,
          "time": 42.89576898958344,
          "velocity": 0.7874015748031497,
          "duration": 0.06578937500000137
        },
        {
          "name": "F#6",
          "midi": 90,
          "time": 42.89576898958344,
          "velocity": 0.7874015748031497,
          "duration": 0.06578937500000137
        },
        {
          "name": "E7",
          "midi": 100,
          "time": 42.89576898958344,
          "velocity": 0.7874015748031497,
          "duration": 0.06578937500000137
        },
        {
          "name": "F#7",
          "midi": 102,
          "time": 42.89576898958344,
          "velocity": 0.7874015748031497,
          "duration": 0.06578937500000137
        },
        {
          "name": "C#4",
          "midi": 61,
          "time": 43.41989101041677,
          "velocity": 0.7874015748031497,
          "duration": 0.06578937500000137
        },
        {
          "name": "F#4",
          "midi": 66,
          "time": 43.41989101041677,
          "velocity": 0.7874015748031497,
          "duration": 0.06578937500000137
        },
        {
          "name": "C5",
          "midi": 72,
          "time": 43.41989101041677,
          "velocity": 0.7874015748031497,
          "duration": 0.06578937500000137
        },
        {
          "name": "F#5",
          "midi": 78,
          "time": 43.41989101041677,
          "velocity": 0.7874015748031497,
          "duration": 0.06578937500000137
        },
        {
          "name": "C6",
          "midi": 84,
          "time": 43.41989101041677,
          "velocity": 0.7874015748031497,
          "duration": 0.06578937500000137
        },
        {
          "name": "F#6",
          "midi": 90,
          "time": 43.41989101041677,
          "velocity": 0.7874015748031497,
          "duration": 0.06578937500000137
        },
        {
          "name": "C7",
          "midi": 96,
          "time": 43.41989101041677,
          "velocity": 0.7874015748031497,
          "duration": 0.06578937500000137
        },
        {
          "name": "F#7",
          "midi": 102,
          "time": 43.41989101041677,
          "velocity": 0.7874015748031497,
          "duration": 0.06578937500000137
        },
        {
          "name": "D4",
          "midi": 62,
          "time": 43.68414500000011,
          "velocity": 0.7874015748031497,
          "duration": 0.06469288541666884
        },
        {
          "name": "F#4",
          "midi": 66,
          "time": 43.68414500000011,
          "velocity": 0.7874015748031497,
          "duration": 0.06469288541666884
        },
        {
          "name": "D5",
          "midi": 74,
          "time": 43.68414500000011,
          "velocity": 0.7874015748031497,
          "duration": 0.06469288541666884
        },
        {
          "name": "F#5",
          "midi": 78,
          "time": 43.68414500000011,
          "velocity": 0.7874015748031497,
          "duration": 0.06469288541666884
        },
        {
          "name": "D#6",
          "midi": 87,
          "time": 43.68414500000011,
          "velocity": 0.7874015748031497,
          "duration": 0.06469288541666884
        },
        {
          "name": "F#6",
          "midi": 90,
          "time": 43.68414500000011,
          "velocity": 0.7874015748031497,
          "duration": 0.06469288541666884
        },
        {
          "name": "E7",
          "midi": 100,
          "time": 43.68414500000011,
          "velocity": 0.7874015748031497,
          "duration": 0.06469288541666884
        },
        {
          "name": "F#7",
          "midi": 102,
          "time": 43.68414500000011,
          "velocity": 0.7874015748031497,
          "duration": 0.06469288541666884
        },
        {
          "name": "D4",
          "midi": 62,
          "time": 44.21046000000011,
          "velocity": 0.7874015748031497,
          "duration": 0.06469288541666884
        },
        {
          "name": "F#4",
          "midi": 66,
          "time": 44.21046000000011,
          "velocity": 0.7874015748031497,
          "duration": 0.06469288541666884
        },
        {
          "name": "D5",
          "midi": 74,
          "time": 44.21046000000011,
          "velocity": 0.7874015748031497,
          "duration": 0.06469288541666884
        },
        {
          "name": "F#5",
          "midi": 78,
          "time": 44.21046000000011,
          "velocity": 0.7874015748031497,
          "duration": 0.06469288541666884
        },
        {
          "name": "D#6",
          "midi": 87,
          "time": 44.21046000000011,
          "velocity": 0.7874015748031497,
          "duration": 0.06469288541666884
        },
        {
          "name": "F#6",
          "midi": 90,
          "time": 44.21046000000011,
          "velocity": 0.7874015748031497,
          "duration": 0.06469288541666884
        },
        {
          "name": "E7",
          "midi": 100,
          "time": 44.21046000000011,
          "velocity": 0.7874015748031497,
          "duration": 0.06469288541666884
        },
        {
          "name": "F#7",
          "midi": 102,
          "time": 44.21046000000011,
          "velocity": 0.7874015748031497,
          "duration": 0.06469288541666884
        },
        {
          "name": "D4",
          "midi": 62,
          "time": 44.736775000000115,
          "velocity": 0.7874015748031497,
          "duration": 0.06578937500000137
        },
        {
          "name": "F#4",
          "midi": 66,
          "time": 44.736775000000115,
          "velocity": 0.7874015748031497,
          "duration": 0.06578937500000137
        },
        {
          "name": "D5",
          "midi": 74,
          "time": 44.736775000000115,
          "velocity": 0.7874015748031497,
          "duration": 0.06578937500000137
        },
        {
          "name": "F#5",
          "midi": 78,
          "time": 44.736775000000115,
          "velocity": 0.7874015748031497,
          "duration": 0.06578937500000137
        },
        {
          "name": "D#6",
          "midi": 87,
          "time": 44.736775000000115,
          "velocity": 0.7874015748031497,
          "duration": 0.06578937500000137
        },
        {
          "name": "F#6",
          "midi": 90,
          "time": 44.736775000000115,
          "velocity": 0.7874015748031497,
          "duration": 0.06578937500000137
        },
        {
          "name": "E7",
          "midi": 100,
          "time": 44.736775000000115,
          "velocity": 0.7874015748031497,
          "duration": 0.06578937500000137
        },
        {
          "name": "F#7",
          "midi": 102,
          "time": 44.736775000000115,
          "velocity": 0.7874015748031497,
          "duration": 0.06578937500000137
        },
        {
          "name": "D4",
          "midi": 62,
          "time": 45.26309000000012,
          "velocity": 0.7874015748031497,
          "duration": 0.06469288541666884
        },
        {
          "name": "F#4",
          "midi": 66,
          "time": 45.26309000000012,
          "velocity": 0.7874015748031497,
          "duration": 0.06469288541666884
        },
        {
          "name": "D5",
          "midi": 74,
          "time": 45.26309000000012,
          "velocity": 0.7874015748031497,
          "duration": 0.06469288541666884
        },
        {
          "name": "F#5",
          "midi": 78,
          "time": 45.26309000000012,
          "velocity": 0.7874015748031497,
          "duration": 0.06469288541666884
        },
        {
          "name": "D#6",
          "midi": 87,
          "time": 45.26309000000012,
          "velocity": 0.7874015748031497,
          "duration": 0.06469288541666884
        },
        {
          "name": "F#6",
          "midi": 90,
          "time": 45.26309000000012,
          "velocity": 0.7874015748031497,
          "duration": 0.06469288541666884
        },
        {
          "name": "E7",
          "midi": 100,
          "time": 45.26309000000012,
          "velocity": 0.7874015748031497,
          "duration": 0.06469288541666884
        },
        {
          "name": "F#7",
          "midi": 102,
          "time": 45.26309000000012,
          "velocity": 0.7874015748031497,
          "duration": 0.06469288541666884
        },
        {
          "name": "C#4",
          "midi": 61,
          "time": 45.78940500000012,
          "velocity": 0.7874015748031497,
          "duration": 0.06578937500000137
        },
        {
          "name": "F#4",
          "midi": 66,
          "time": 45.78940500000012,
          "velocity": 0.7874015748031497,
          "duration": 0.06578937500000137
        },
        {
          "name": "C5",
          "midi": 72,
          "time": 45.78940500000012,
          "velocity": 0.7874015748031497,
          "duration": 0.06578937500000137
        },
        {
          "name": "F#5",
          "midi": 78,
          "time": 45.78940500000012,
          "velocity": 0.7874015748031497,
          "duration": 0.06578937500000137
        },
        {
          "name": "C6",
          "midi": 84,
          "time": 45.78940500000012,
          "velocity": 0.7874015748031497,
          "duration": 0.06578937500000137
        },
        {
          "name": "F#6",
          "midi": 90,
          "time": 45.78940500000012,
          "velocity": 0.7874015748031497,
          "duration": 0.06578937500000137
        },
        {
          "name": "C7",
          "midi": 96,
          "time": 45.78940500000012,
          "velocity": 0.7874015748031497,
          "duration": 0.06578937500000137
        },
        {
          "name": "F#7",
          "midi": 102,
          "time": 45.78940500000012,
          "velocity": 0.7874015748031497,
          "duration": 0.06578937500000137
        },
        {
          "name": "C6",
          "midi": 84,
          "time": 46.05256250000012,
          "velocity": 0.7874015748031497,
          "duration": 0.06578937500000137
        },
        {
          "name": "F#6",
          "midi": 90,
          "time": 46.05256250000012,
          "velocity": 0.7874015748031497,
          "duration": 0.06578937500000137
        },
        {
          "name": "C7",
          "midi": 96,
          "time": 46.05256250000012,
          "velocity": 0.7874015748031497,
          "duration": 0.06578937500000137
        },
        {
          "name": "F#7",
          "midi": 102,
          "time": 46.05256250000012,
          "velocity": 0.7874015748031497,
          "duration": 0.06578937500000137
        },
        {
          "name": "G#8",
          "midi": 116,
          "time": 46.31572000000012,
          "velocity": 0.7874015748031497,
          "duration": 5.327842885416715
        },
        {
          "name": "D4",
          "midi": 62,
          "time": 46.31572000000012,
          "velocity": 0.7874015748031497,
          "duration": 0.06469288541666884
        },
        {
          "name": "F#4",
          "midi": 66,
          "time": 46.31572000000012,
          "velocity": 0.7874015748031497,
          "duration": 0.06469288541666884
        },
        {
          "name": "D5",
          "midi": 74,
          "time": 46.31572000000012,
          "velocity": 0.7874015748031497,
          "duration": 0.06469288541666884
        },
        {
          "name": "F#5",
          "midi": 78,
          "time": 46.31572000000012,
          "velocity": 0.7874015748031497,
          "duration": 0.06469288541666884
        },
        {
          "name": "D#6",
          "midi": 87,
          "time": 46.31572000000012,
          "velocity": 0.7874015748031497,
          "duration": 0.06469288541666884
        },
        {
          "name": "F#6",
          "midi": 90,
          "time": 46.31572000000012,
          "velocity": 0.7874015748031497,
          "duration": 0.06469288541666884
        },
        {
          "name": "E7",
          "midi": 100,
          "time": 46.31572000000012,
          "velocity": 0.7874015748031497,
          "duration": 0.06469288541666884
        },
        {
          "name": "F#7",
          "midi": 102,
          "time": 46.31572000000012,
          "velocity": 0.7874015748031497,
          "duration": 0.06469288541666884
        },
        {
          "name": "C#4",
          "midi": 61,
          "time": 46.84203500000012,
          "velocity": 0.7874015748031497,
          "duration": 0.06469288541666884
        },
        {
          "name": "F#4",
          "midi": 66,
          "time": 46.84203500000012,
          "velocity": 0.7874015748031497,
          "duration": 0.06469288541666884
        },
        {
          "name": "C5",
          "midi": 72,
          "time": 46.84203500000012,
          "velocity": 0.7874015748031497,
          "duration": 0.06469288541666884
        },
        {
          "name": "F#5",
          "midi": 78,
          "time": 46.84203500000012,
          "velocity": 0.7874015748031497,
          "duration": 0.06469288541666884
        },
        {
          "name": "C6",
          "midi": 84,
          "time": 46.84203500000012,
          "velocity": 0.7874015748031497,
          "duration": 0.06469288541666884
        },
        {
          "name": "F#6",
          "midi": 90,
          "time": 46.84203500000012,
          "velocity": 0.7874015748031497,
          "duration": 0.06469288541666884
        },
        {
          "name": "C7",
          "midi": 96,
          "time": 46.84203500000012,
          "velocity": 0.7874015748031497,
          "duration": 0.06469288541666884
        },
        {
          "name": "F#7",
          "midi": 102,
          "time": 46.84203500000012,
          "velocity": 0.7874015748031497,
          "duration": 0.06469288541666884
        },
        {
          "name": "D4",
          "midi": 62,
          "time": 47.10628898958346,
          "velocity": 0.7874015748031497,
          "duration": 0.06469288541666884
        },
        {
          "name": "F#4",
          "midi": 66,
          "time": 47.10628898958346,
          "velocity": 0.7874015748031497,
          "duration": 0.06469288541666884
        },
        {
          "name": "D5",
          "midi": 74,
          "time": 47.10628898958346,
          "velocity": 0.7874015748031497,
          "duration": 0.06469288541666884
        },
        {
          "name": "F#5",
          "midi": 78,
          "time": 47.10628898958346,
          "velocity": 0.7874015748031497,
          "duration": 0.06469288541666884
        },
        {
          "name": "D#6",
          "midi": 87,
          "time": 47.10628898958346,
          "velocity": 0.7874015748031497,
          "duration": 0.06469288541666884
        },
        {
          "name": "F#6",
          "midi": 90,
          "time": 47.10628898958346,
          "velocity": 0.7874015748031497,
          "duration": 0.06469288541666884
        },
        {
          "name": "E7",
          "midi": 100,
          "time": 47.10628898958346,
          "velocity": 0.7874015748031497,
          "duration": 0.06469288541666884
        },
        {
          "name": "F#7",
          "midi": 102,
          "time": 47.10628898958346,
          "velocity": 0.7874015748031497,
          "duration": 0.06469288541666884
        },
        {
          "name": "D4",
          "midi": 62,
          "time": 47.63150750000013,
          "velocity": 0.7874015748031497,
          "duration": 0.06469288541666884
        },
        {
          "name": "F#4",
          "midi": 66,
          "time": 47.63150750000013,
          "velocity": 0.7874015748031497,
          "duration": 0.06469288541666884
        },
        {
          "name": "D5",
          "midi": 74,
          "time": 47.63150750000013,
          "velocity": 0.7874015748031497,
          "duration": 0.06469288541666884
        },
        {
          "name": "F#5",
          "midi": 78,
          "time": 47.63150750000013,
          "velocity": 0.7874015748031497,
          "duration": 0.06469288541666884
        },
        {
          "name": "D#6",
          "midi": 87,
          "time": 47.63150750000013,
          "velocity": 0.7874015748031497,
          "duration": 0.06469288541666884
        },
        {
          "name": "F#6",
          "midi": 90,
          "time": 47.63150750000013,
          "velocity": 0.7874015748031497,
          "duration": 0.06469288541666884
        },
        {
          "name": "E7",
          "midi": 100,
          "time": 47.63150750000013,
          "velocity": 0.7874015748031497,
          "duration": 0.06469288541666884
        },
        {
          "name": "F#7",
          "midi": 102,
          "time": 47.63150750000013,
          "velocity": 0.7874015748031497,
          "duration": 0.06469288541666884
        },
        {
          "name": "D4",
          "midi": 62,
          "time": 48.15782250000014,
          "velocity": 0.7874015748031497,
          "duration": 0.06469288541666884
        },
        {
          "name": "F#4",
          "midi": 66,
          "time": 48.15782250000014,
          "velocity": 0.7874015748031497,
          "duration": 0.06469288541666884
        },
        {
          "name": "D5",
          "midi": 74,
          "time": 48.15782250000014,
          "velocity": 0.7874015748031497,
          "duration": 0.06469288541666884
        },
        {
          "name": "F#5",
          "midi": 78,
          "time": 48.15782250000014,
          "velocity": 0.7874015748031497,
          "duration": 0.06469288541666884
        },
        {
          "name": "D#6",
          "midi": 87,
          "time": 48.15782250000014,
          "velocity": 0.7874015748031497,
          "duration": 0.06469288541666884
        },
        {
          "name": "F#6",
          "midi": 90,
          "time": 48.15782250000014,
          "velocity": 0.7874015748031497,
          "duration": 0.06469288541666884
        },
        {
          "name": "E7",
          "midi": 100,
          "time": 48.15782250000014,
          "velocity": 0.7874015748031497,
          "duration": 0.06469288541666884
        },
        {
          "name": "F#7",
          "midi": 102,
          "time": 48.15782250000014,
          "velocity": 0.7874015748031497,
          "duration": 0.06469288541666884
        },
        {
          "name": "C#4",
          "midi": 61,
          "time": 48.68413750000014,
          "velocity": 0.7874015748031497,
          "duration": 0.06469288541666884
        },
        {
          "name": "F#4",
          "midi": 66,
          "time": 48.68413750000014,
          "velocity": 0.7874015748031497,
          "duration": 0.06469288541666884
        },
        {
          "name": "C5",
          "midi": 72,
          "time": 48.68413750000014,
          "velocity": 0.7874015748031497,
          "duration": 0.06469288541666884
        },
        {
          "name": "F#5",
          "midi": 78,
          "time": 48.68413750000014,
          "velocity": 0.7874015748031497,
          "duration": 0.06469288541666884
        },
        {
          "name": "C6",
          "midi": 84,
          "time": 48.68413750000014,
          "velocity": 0.7874015748031497,
          "duration": 0.06469288541666884
        },
        {
          "name": "F#6",
          "midi": 90,
          "time": 48.68413750000014,
          "velocity": 0.7874015748031497,
          "duration": 0.06469288541666884
        },
        {
          "name": "C7",
          "midi": 96,
          "time": 48.68413750000014,
          "velocity": 0.7874015748031497,
          "duration": 0.06469288541666884
        },
        {
          "name": "F#7",
          "midi": 102,
          "time": 48.68413750000014,
          "velocity": 0.7874015748031497,
          "duration": 0.06469288541666884
        },
        {
          "name": "D4",
          "midi": 62,
          "time": 48.947295000000146,
          "velocity": 0.7874015748031497,
          "duration": 0.06469288541666884
        },
        {
          "name": "F#4",
          "midi": 66,
          "time": 48.947295000000146,
          "velocity": 0.7874015748031497,
          "duration": 0.06469288541666884
        },
        {
          "name": "D5",
          "midi": 74,
          "time": 48.947295000000146,
          "velocity": 0.7874015748031497,
          "duration": 0.06469288541666884
        },
        {
          "name": "F#5",
          "midi": 78,
          "time": 48.947295000000146,
          "velocity": 0.7874015748031497,
          "duration": 0.06469288541666884
        },
        {
          "name": "D#6",
          "midi": 87,
          "time": 48.947295000000146,
          "velocity": 0.7874015748031497,
          "duration": 0.06469288541666884
        },
        {
          "name": "F#6",
          "midi": 90,
          "time": 48.947295000000146,
          "velocity": 0.7874015748031497,
          "duration": 0.06469288541666884
        },
        {
          "name": "E7",
          "midi": 100,
          "time": 48.947295000000146,
          "velocity": 0.7874015748031497,
          "duration": 0.06469288541666884
        },
        {
          "name": "F#7",
          "midi": 102,
          "time": 48.947295000000146,
          "velocity": 0.7874015748031497,
          "duration": 0.06469288541666884
        },
        {
          "name": "D4",
          "midi": 62,
          "time": 49.47361000000015,
          "velocity": 0.7874015748031497,
          "duration": 0.06578937500000137
        },
        {
          "name": "F#4",
          "midi": 66,
          "time": 49.47361000000015,
          "velocity": 0.7874015748031497,
          "duration": 0.06578937500000137
        },
        {
          "name": "D5",
          "midi": 74,
          "time": 49.47361000000015,
          "velocity": 0.7874015748031497,
          "duration": 0.06578937500000137
        },
        {
          "name": "F#5",
          "midi": 78,
          "time": 49.47361000000015,
          "velocity": 0.7874015748031497,
          "duration": 0.06578937500000137
        },
        {
          "name": "D#6",
          "midi": 87,
          "time": 49.47361000000015,
          "velocity": 0.7874015748031497,
          "duration": 0.06578937500000137
        },
        {
          "name": "F#6",
          "midi": 90,
          "time": 49.47361000000015,
          "velocity": 0.7874015748031497,
          "duration": 0.06578937500000137
        },
        {
          "name": "E7",
          "midi": 100,
          "time": 49.47361000000015,
          "velocity": 0.7874015748031497,
          "duration": 0.06578937500000137
        },
        {
          "name": "F#7",
          "midi": 102,
          "time": 49.47361000000015,
          "velocity": 0.7874015748031497,
          "duration": 0.06578937500000137
        },
        {
          "name": "D4",
          "midi": 62,
          "time": 49.999925000000154,
          "velocity": 0.7874015748031497,
          "duration": 0.06469288541666884
        },
        {
          "name": "F#4",
          "midi": 66,
          "time": 49.999925000000154,
          "velocity": 0.7874015748031497,
          "duration": 0.06469288541666884
        },
        {
          "name": "D5",
          "midi": 74,
          "time": 49.999925000000154,
          "velocity": 0.7874015748031497,
          "duration": 0.06469288541666884
        },
        {
          "name": "F#5",
          "midi": 78,
          "time": 49.999925000000154,
          "velocity": 0.7874015748031497,
          "duration": 0.06469288541666884
        },
        {
          "name": "D#6",
          "midi": 87,
          "time": 49.999925000000154,
          "velocity": 0.7874015748031497,
          "duration": 0.06469288541666884
        },
        {
          "name": "F#6",
          "midi": 90,
          "time": 49.999925000000154,
          "velocity": 0.7874015748031497,
          "duration": 0.06469288541666884
        },
        {
          "name": "E7",
          "midi": 100,
          "time": 49.999925000000154,
          "velocity": 0.7874015748031497,
          "duration": 0.06469288541666884
        },
        {
          "name": "F#7",
          "midi": 102,
          "time": 49.999925000000154,
          "velocity": 0.7874015748031497,
          "duration": 0.06469288541666884
        },
        {
          "name": "D4",
          "midi": 62,
          "time": 50.52624000000016,
          "velocity": 0.7874015748031497,
          "duration": 0.06469288541666884
        },
        {
          "name": "F#4",
          "midi": 66,
          "time": 50.52624000000016,
          "velocity": 0.7874015748031497,
          "duration": 0.06469288541666884
        },
        {
          "name": "D5",
          "midi": 74,
          "time": 50.52624000000016,
          "velocity": 0.7874015748031497,
          "duration": 0.06469288541666884
        },
        {
          "name": "F#5",
          "midi": 78,
          "time": 50.52624000000016,
          "velocity": 0.7874015748031497,
          "duration": 0.06469288541666884
        },
        {
          "name": "D#6",
          "midi": 87,
          "time": 50.52624000000016,
          "velocity": 0.7874015748031497,
          "duration": 0.06469288541666884
        },
        {
          "name": "F#6",
          "midi": 90,
          "time": 50.52624000000016,
          "velocity": 0.7874015748031497,
          "duration": 0.06469288541666884
        },
        {
          "name": "E7",
          "midi": 100,
          "time": 50.52624000000016,
          "velocity": 0.7874015748031497,
          "duration": 0.06469288541666884
        },
        {
          "name": "F#7",
          "midi": 102,
          "time": 50.52624000000016,
          "velocity": 0.7874015748031497,
          "duration": 0.06469288541666884
        },
        {
          "name": "C#4",
          "midi": 61,
          "time": 51.05255500000016,
          "velocity": 0.7874015748031497,
          "duration": 0.06469288541666884
        },
        {
          "name": "F#4",
          "midi": 66,
          "time": 51.05255500000016,
          "velocity": 0.7874015748031497,
          "duration": 0.06469288541666884
        },
        {
          "name": "C5",
          "midi": 72,
          "time": 51.05255500000016,
          "velocity": 0.7874015748031497,
          "duration": 0.06469288541666884
        },
        {
          "name": "F#5",
          "midi": 78,
          "time": 51.05255500000016,
          "velocity": 0.7874015748031497,
          "duration": 0.06469288541666884
        },
        {
          "name": "C6",
          "midi": 84,
          "time": 51.05255500000016,
          "velocity": 0.7874015748031497,
          "duration": 0.06469288541666884
        },
        {
          "name": "F#6",
          "midi": 90,
          "time": 51.05255500000016,
          "velocity": 0.7874015748031497,
          "duration": 0.06469288541666884
        },
        {
          "name": "C7",
          "midi": 96,
          "time": 51.05255500000016,
          "velocity": 0.7874015748031497,
          "duration": 0.06469288541666884
        },
        {
          "name": "F#7",
          "midi": 102,
          "time": 51.05255500000016,
          "velocity": 0.7874015748031497,
          "duration": 0.06469288541666884
        },
        {
          "name": "C6",
          "midi": 84,
          "time": 51.3168089895835,
          "velocity": 0.7874015748031497,
          "duration": 0.06469288541666884
        },
        {
          "name": "F#6",
          "midi": 90,
          "time": 51.3168089895835,
          "velocity": 0.7874015748031497,
          "duration": 0.06469288541666884
        },
        {
          "name": "C7",
          "midi": 96,
          "time": 51.3168089895835,
          "velocity": 0.7874015748031497,
          "duration": 0.06469288541666884
        },
        {
          "name": "F#7",
          "midi": 102,
          "time": 51.3168089895835,
          "velocity": 0.7874015748031497,
          "duration": 0.06469288541666884
        },
        {
          "name": "C#4",
          "midi": 61,
          "time": 51.578870000000165,
          "velocity": 0.7874015748031497,
          "duration": 0.06469288541666884
        },
        {
          "name": "F#4",
          "midi": 66,
          "time": 51.578870000000165,
          "velocity": 0.7874015748031497,
          "duration": 0.06469288541666884
        },
        {
          "name": "C#5",
          "midi": 73,
          "time": 51.578870000000165,
          "velocity": 0.7874015748031497,
          "duration": 0.06469288541666884
        },
        {
          "name": "F#5",
          "midi": 78,
          "time": 51.578870000000165,
          "velocity": 0.7874015748031497,
          "duration": 0.06469288541666884
        },
        {
          "name": "D6",
          "midi": 86,
          "time": 51.578870000000165,
          "velocity": 0.7874015748031497,
          "duration": 0.06469288541666884
        },
        {
          "name": "F#6",
          "midi": 90,
          "time": 51.578870000000165,
          "velocity": 0.7874015748031497,
          "duration": 0.06469288541666884
        },
        {
          "name": "D#7",
          "midi": 99,
          "time": 51.578870000000165,
          "velocity": 0.7874015748031497,
          "duration": 0.06469288541666884
        },
        {
          "name": "F#7",
          "midi": 102,
          "time": 51.578870000000165,
          "velocity": 0.7874015748031497,
          "duration": 0.06469288541666884
        },
        {
          "name": "C4",
          "midi": 60,
          "time": 52.10518500000017,
          "velocity": 0.7874015748031497,
          "duration": 0.06469288541666884
        },
        {
          "name": "F#4",
          "midi": 66,
          "time": 52.10518500000017,
          "velocity": 0.7874015748031497,
          "duration": 0.06469288541666884
        },
        {
          "name": "C5",
          "midi": 72,
          "time": 52.10518500000017,
          "velocity": 0.7874015748031497,
          "duration": 0.06469288541666884
        },
        {
          "name": "C6",
          "midi": 84,
          "time": 52.10518500000017,
          "velocity": 0.7874015748031497,
          "duration": 0.06469288541666884
        },
        {
          "name": "C7",
          "midi": 96,
          "time": 52.10518500000017,
          "velocity": 0.7874015748031497,
          "duration": 0.06469288541666884
        },
        {
          "name": "C#4",
          "midi": 61,
          "time": 52.367246010416835,
          "velocity": 0.7874015748031497,
          "duration": 0.06578937500000137
        },
        {
          "name": "F#4",
          "midi": 66,
          "time": 52.367246010416835,
          "velocity": 0.7874015748031497,
          "duration": 0.06578937500000137
        },
        {
          "name": "C#5",
          "midi": 73,
          "time": 52.367246010416835,
          "velocity": 0.7874015748031497,
          "duration": 0.06578937500000137
        },
        {
          "name": "F#5",
          "midi": 78,
          "time": 52.367246010416835,
          "velocity": 0.7874015748031497,
          "duration": 0.06578937500000137
        },
        {
          "name": "D6",
          "midi": 86,
          "time": 52.367246010416835,
          "velocity": 0.7874015748031497,
          "duration": 0.06578937500000137
        },
        {
          "name": "F#6",
          "midi": 90,
          "time": 52.367246010416835,
          "velocity": 0.7874015748031497,
          "duration": 0.06578937500000137
        },
        {
          "name": "D#7",
          "midi": 99,
          "time": 52.367246010416835,
          "velocity": 0.7874015748031497,
          "duration": 0.06578937500000137
        },
        {
          "name": "F#7",
          "midi": 102,
          "time": 52.367246010416835,
          "velocity": 0.7874015748031497,
          "duration": 0.06578937500000137
        },
        {
          "name": "C#4",
          "midi": 61,
          "time": 52.89465750000017,
          "velocity": 0.7874015748031497,
          "duration": 0.06469288541666884
        },
        {
          "name": "F#4",
          "midi": 66,
          "time": 52.89465750000017,
          "velocity": 0.7874015748031497,
          "duration": 0.06469288541666884
        },
        {
          "name": "C#5",
          "midi": 73,
          "time": 52.89465750000017,
          "velocity": 0.7874015748031497,
          "duration": 0.06469288541666884
        },
        {
          "name": "F#5",
          "midi": 78,
          "time": 52.89465750000017,
          "velocity": 0.7874015748031497,
          "duration": 0.06469288541666884
        },
        {
          "name": "D6",
          "midi": 86,
          "time": 52.89465750000017,
          "velocity": 0.7874015748031497,
          "duration": 0.06469288541666884
        },
        {
          "name": "F#6",
          "midi": 90,
          "time": 52.89465750000017,
          "velocity": 0.7874015748031497,
          "duration": 0.06469288541666884
        },
        {
          "name": "D#7",
          "midi": 99,
          "time": 52.89465750000017,
          "velocity": 0.7874015748031497,
          "duration": 0.06469288541666884
        },
        {
          "name": "F#7",
          "midi": 102,
          "time": 52.89465750000017,
          "velocity": 0.7874015748031497,
          "duration": 0.06469288541666884
        },
        {
          "name": "C#4",
          "midi": 61,
          "time": 53.42206898958351,
          "velocity": 0.7874015748031497,
          "duration": 0.06469288541666884
        },
        {
          "name": "F#4",
          "midi": 66,
          "time": 53.42206898958351,
          "velocity": 0.7874015748031497,
          "duration": 0.06469288541666884
        },
        {
          "name": "C#5",
          "midi": 73,
          "time": 53.42206898958351,
          "velocity": 0.7874015748031497,
          "duration": 0.06469288541666884
        },
        {
          "name": "F#5",
          "midi": 78,
          "time": 53.42206898958351,
          "velocity": 0.7874015748031497,
          "duration": 0.06469288541666884
        },
        {
          "name": "D6",
          "midi": 86,
          "time": 53.42206898958351,
          "velocity": 0.7874015748031497,
          "duration": 0.06469288541666884
        },
        {
          "name": "F#6",
          "midi": 90,
          "time": 53.42206898958351,
          "velocity": 0.7874015748031497,
          "duration": 0.06469288541666884
        },
        {
          "name": "D#7",
          "midi": 99,
          "time": 53.42206898958351,
          "velocity": 0.7874015748031497,
          "duration": 0.06469288541666884
        },
        {
          "name": "F#7",
          "midi": 102,
          "time": 53.42206898958351,
          "velocity": 0.7874015748031497,
          "duration": 0.06469288541666884
        },
        {
          "name": "C4",
          "midi": 60,
          "time": 53.94728750000018,
          "velocity": 0.7874015748031497,
          "duration": 0.06469288541666884
        },
        {
          "name": "F#4",
          "midi": 66,
          "time": 53.94728750000018,
          "velocity": 0.7874015748031497,
          "duration": 0.06469288541666884
        },
        {
          "name": "C5",
          "midi": 72,
          "time": 53.94728750000018,
          "velocity": 0.7874015748031497,
          "duration": 0.06469288541666884
        },
        {
          "name": "C6",
          "midi": 84,
          "time": 53.94728750000018,
          "velocity": 0.7874015748031497,
          "duration": 0.06469288541666884
        },
        {
          "name": "C7",
          "midi": 96,
          "time": 53.94728750000018,
          "velocity": 0.7874015748031497,
          "duration": 0.06469288541666884
        },
        {
          "name": "C#4",
          "midi": 61,
          "time": 54.210445000000185,
          "velocity": 0.7874015748031497,
          "duration": 0.06469288541666884
        },
        {
          "name": "F#4",
          "midi": 66,
          "time": 54.210445000000185,
          "velocity": 0.7874015748031497,
          "duration": 0.06469288541666884
        },
        {
          "name": "C#5",
          "midi": 73,
          "time": 54.210445000000185,
          "velocity": 0.7874015748031497,
          "duration": 0.06469288541666884
        },
        {
          "name": "F#5",
          "midi": 78,
          "time": 54.210445000000185,
          "velocity": 0.7874015748031497,
          "duration": 0.06469288541666884
        },
        {
          "name": "D6",
          "midi": 86,
          "time": 54.210445000000185,
          "velocity": 0.7874015748031497,
          "duration": 0.06469288541666884
        },
        {
          "name": "F#6",
          "midi": 90,
          "time": 54.210445000000185,
          "velocity": 0.7874015748031497,
          "duration": 0.06469288541666884
        },
        {
          "name": "D#7",
          "midi": 99,
          "time": 54.210445000000185,
          "velocity": 0.7874015748031497,
          "duration": 0.06469288541666884
        },
        {
          "name": "F#7",
          "midi": 102,
          "time": 54.210445000000185,
          "velocity": 0.7874015748031497,
          "duration": 0.06469288541666884
        },
        {
          "name": "C#4",
          "midi": 61,
          "time": 54.73676000000019,
          "velocity": 0.7874015748031497,
          "duration": 0.06469288541666884
        },
        {
          "name": "F#4",
          "midi": 66,
          "time": 54.73676000000019,
          "velocity": 0.7874015748031497,
          "duration": 0.06469288541666884
        },
        {
          "name": "C#5",
          "midi": 73,
          "time": 54.73676000000019,
          "velocity": 0.7874015748031497,
          "duration": 0.06469288541666884
        },
        {
          "name": "F#5",
          "midi": 78,
          "time": 54.73676000000019,
          "velocity": 0.7874015748031497,
          "duration": 0.06469288541666884
        },
        {
          "name": "D6",
          "midi": 86,
          "time": 54.73676000000019,
          "velocity": 0.7874015748031497,
          "duration": 0.06469288541666884
        },
        {
          "name": "F#6",
          "midi": 90,
          "time": 54.73676000000019,
          "velocity": 0.7874015748031497,
          "duration": 0.06469288541666884
        },
        {
          "name": "D#7",
          "midi": 99,
          "time": 54.73676000000019,
          "velocity": 0.7874015748031497,
          "duration": 0.06469288541666884
        },
        {
          "name": "F#7",
          "midi": 102,
          "time": 54.73676000000019,
          "velocity": 0.7874015748031497,
          "duration": 0.06469288541666884
        },
        {
          "name": "C#4",
          "midi": 61,
          "time": 55.26307500000019,
          "velocity": 0.7874015748031497,
          "duration": 0.06578937500000137
        },
        {
          "name": "F#4",
          "midi": 66,
          "time": 55.26307500000019,
          "velocity": 0.7874015748031497,
          "duration": 0.06578937500000137
        },
        {
          "name": "C#5",
          "midi": 73,
          "time": 55.26307500000019,
          "velocity": 0.7874015748031497,
          "duration": 0.06578937500000137
        },
        {
          "name": "F#5",
          "midi": 78,
          "time": 55.26307500000019,
          "velocity": 0.7874015748031497,
          "duration": 0.06578937500000137
        },
        {
          "name": "D6",
          "midi": 86,
          "time": 55.26307500000019,
          "velocity": 0.7874015748031497,
          "duration": 0.06578937500000137
        },
        {
          "name": "F#6",
          "midi": 90,
          "time": 55.26307500000019,
          "velocity": 0.7874015748031497,
          "duration": 0.06578937500000137
        },
        {
          "name": "D#7",
          "midi": 99,
          "time": 55.26307500000019,
          "velocity": 0.7874015748031497,
          "duration": 0.06578937500000137
        },
        {
          "name": "F#7",
          "midi": 102,
          "time": 55.26307500000019,
          "velocity": 0.7874015748031497,
          "duration": 0.06578937500000137
        },
        {
          "name": "C#4",
          "midi": 61,
          "time": 55.789390000000196,
          "velocity": 0.7874015748031497,
          "duration": 0.06359639583333632
        },
        {
          "name": "F#4",
          "midi": 66,
          "time": 55.789390000000196,
          "velocity": 0.7874015748031497,
          "duration": 0.06359639583333632
        },
        {
          "name": "C#5",
          "midi": 73,
          "time": 55.789390000000196,
          "velocity": 0.7874015748031497,
          "duration": 0.06359639583333632
        },
        {
          "name": "F#5",
          "midi": 78,
          "time": 55.789390000000196,
          "velocity": 0.7874015748031497,
          "duration": 0.06359639583333632
        },
        {
          "name": "D6",
          "midi": 86,
          "time": 55.789390000000196,
          "velocity": 0.7874015748031497,
          "duration": 0.06359639583333632
        },
        {
          "name": "F#6",
          "midi": 90,
          "time": 55.789390000000196,
          "velocity": 0.7874015748031497,
          "duration": 0.06359639583333632
        },
        {
          "name": "D#7",
          "midi": 99,
          "time": 55.789390000000196,
          "velocity": 0.7874015748031497,
          "duration": 0.06359639583333632
        },
        {
          "name": "F#7",
          "midi": 102,
          "time": 55.789390000000196,
          "velocity": 0.7874015748031497,
          "duration": 0.06359639583333632
        },
        {
          "name": "C4",
          "midi": 60,
          "time": 56.3157050000002,
          "velocity": 0.7874015748031497,
          "duration": 0.06469288541666884
        },
        {
          "name": "F#4",
          "midi": 66,
          "time": 56.3157050000002,
          "velocity": 0.7874015748031497,
          "duration": 0.06469288541666884
        },
        {
          "name": "C5",
          "midi": 72,
          "time": 56.3157050000002,
          "velocity": 0.7874015748031497,
          "duration": 0.06469288541666884
        },
        {
          "name": "C6",
          "midi": 84,
          "time": 56.3157050000002,
          "velocity": 0.7874015748031497,
          "duration": 0.06469288541666884
        },
        {
          "name": "C7",
          "midi": 96,
          "time": 56.3157050000002,
          "velocity": 0.7874015748031497,
          "duration": 0.06469288541666884
        },
        {
          "name": "C6",
          "midi": 84,
          "time": 56.57995898958354,
          "velocity": 0.7874015748031497,
          "duration": 0.06469288541666884
        },
        {
          "name": "C7",
          "midi": 96,
          "time": 56.57995898958354,
          "velocity": 0.7874015748031497,
          "duration": 0.06469288541666884
        },
        {
          "name": "C#4",
          "midi": 61,
          "time": 56.842020000000204,
          "velocity": 0.7874015748031497,
          "duration": 0.06469288541666884
        },
        {
          "name": "F#4",
          "midi": 66,
          "time": 56.842020000000204,
          "velocity": 0.7874015748031497,
          "duration": 0.06469288541666884
        },
        {
          "name": "C#5",
          "midi": 73,
          "time": 56.842020000000204,
          "velocity": 0.7874015748031497,
          "duration": 0.06469288541666884
        },
        {
          "name": "F#5",
          "midi": 78,
          "time": 56.842020000000204,
          "velocity": 0.7874015748031497,
          "duration": 0.06469288541666884
        },
        {
          "name": "D6",
          "midi": 86,
          "time": 56.842020000000204,
          "velocity": 0.7874015748031497,
          "duration": 0.06469288541666884
        },
        {
          "name": "F#6",
          "midi": 90,
          "time": 56.842020000000204,
          "velocity": 0.7874015748031497,
          "duration": 0.06469288541666884
        },
        {
          "name": "D#7",
          "midi": 99,
          "time": 56.842020000000204,
          "velocity": 0.7874015748031497,
          "duration": 0.06469288541666884
        },
        {
          "name": "F#7",
          "midi": 102,
          "time": 56.842020000000204,
          "velocity": 0.7874015748031497,
          "duration": 0.06469288541666884
        },
        {
          "name": "C#4",
          "midi": 61,
          "time": 57.621624093750206,
          "velocity": 0.7874015748031497,
          "duration": 0.06798235416666643
        },
        {
          "name": "F#4",
          "midi": 66,
          "time": 57.621624093750206,
          "velocity": 0.7874015748031497,
          "duration": 0.06798235416666643
        },
        {
          "name": "C#5",
          "midi": 73,
          "time": 57.621624093750206,
          "velocity": 0.7874015748031497,
          "duration": 0.06798235416666643
        },
        {
          "name": "F#5",
          "midi": 78,
          "time": 57.621624093750206,
          "velocity": 0.7874015748031497,
          "duration": 0.06798235416666643
        },
        {
          "name": "D6",
          "midi": 86,
          "time": 57.621624093750206,
          "velocity": 0.7874015748031497,
          "duration": 0.06798235416666643
        },
        {
          "name": "F#6",
          "midi": 90,
          "time": 57.621624093750206,
          "velocity": 0.7874015748031497,
          "duration": 0.06798235416666643
        },
        {
          "name": "D#7",
          "midi": 99,
          "time": 57.621624093750206,
          "velocity": 0.7874015748031497,
          "duration": 0.06798235416666643
        },
        {
          "name": "F#7",
          "midi": 102,
          "time": 57.621624093750206,
          "velocity": 0.7874015748031497,
          "duration": 0.06798235416666643
        },
        {
          "name": "C#4",
          "midi": 61,
          "time": 58.1578075000002,
          "velocity": 0.7874015748031497,
          "duration": 0.06469288541666884
        },
        {
          "name": "F#4",
          "midi": 66,
          "time": 58.1578075000002,
          "velocity": 0.7874015748031497,
          "duration": 0.06469288541666884
        },
        {
          "name": "C#5",
          "midi": 73,
          "time": 58.1578075000002,
          "velocity": 0.7874015748031497,
          "duration": 0.06469288541666884
        },
        {
          "name": "F#5",
          "midi": 78,
          "time": 58.1578075000002,
          "velocity": 0.7874015748031497,
          "duration": 0.06469288541666884
        },
        {
          "name": "D6",
          "midi": 86,
          "time": 58.1578075000002,
          "velocity": 0.7874015748031497,
          "duration": 0.06469288541666884
        },
        {
          "name": "F#6",
          "midi": 90,
          "time": 58.1578075000002,
          "velocity": 0.7874015748031497,
          "duration": 0.06469288541666884
        },
        {
          "name": "D#7",
          "midi": 99,
          "time": 58.1578075000002,
          "velocity": 0.7874015748031497,
          "duration": 0.06469288541666884
        },
        {
          "name": "F#7",
          "midi": 102,
          "time": 58.1578075000002,
          "velocity": 0.7874015748031497,
          "duration": 0.06469288541666884
        },
        {
          "name": "C#4",
          "midi": 61,
          "time": 58.683026010416874,
          "velocity": 0.7874015748031497,
          "duration": 0.06469288541666884
        },
        {
          "name": "F#4",
          "midi": 66,
          "time": 58.683026010416874,
          "velocity": 0.7874015748031497,
          "duration": 0.06469288541666884
        },
        {
          "name": "C#5",
          "midi": 73,
          "time": 58.683026010416874,
          "velocity": 0.7874015748031497,
          "duration": 0.06469288541666884
        },
        {
          "name": "F#5",
          "midi": 78,
          "time": 58.683026010416874,
          "velocity": 0.7874015748031497,
          "duration": 0.06469288541666884
        },
        {
          "name": "D6",
          "midi": 86,
          "time": 58.683026010416874,
          "velocity": 0.7874015748031497,
          "duration": 0.06469288541666884
        },
        {
          "name": "F#6",
          "midi": 90,
          "time": 58.683026010416874,
          "velocity": 0.7874015748031497,
          "duration": 0.06469288541666884
        },
        {
          "name": "D#7",
          "midi": 99,
          "time": 58.683026010416874,
          "velocity": 0.7874015748031497,
          "duration": 0.06469288541666884
        },
        {
          "name": "F#7",
          "midi": 102,
          "time": 58.683026010416874,
          "velocity": 0.7874015748031497,
          "duration": 0.06469288541666884
        },
        {
          "name": "C#4",
          "midi": 61,
          "time": 59.47359500000021,
          "velocity": 0.7874015748031497,
          "duration": 0.06469288541666884
        },
        {
          "name": "F#4",
          "midi": 66,
          "time": 59.47359500000021,
          "velocity": 0.7874015748031497,
          "duration": 0.06469288541666884
        },
        {
          "name": "C#5",
          "midi": 73,
          "time": 59.47359500000021,
          "velocity": 0.7874015748031497,
          "duration": 0.06469288541666884
        },
        {
          "name": "F#5",
          "midi": 78,
          "time": 59.47359500000021,
          "velocity": 0.7874015748031497,
          "duration": 0.06469288541666884
        },
        {
          "name": "D6",
          "midi": 86,
          "time": 59.47359500000021,
          "velocity": 0.7874015748031497,
          "duration": 0.06469288541666884
        },
        {
          "name": "F#6",
          "midi": 90,
          "time": 59.47359500000021,
          "velocity": 0.7874015748031497,
          "duration": 0.06469288541666884
        },
        {
          "name": "D#7",
          "midi": 99,
          "time": 59.47359500000021,
          "velocity": 0.7874015748031497,
          "duration": 0.06469288541666884
        },
        {
          "name": "F#7",
          "midi": 102,
          "time": 59.47359500000021,
          "velocity": 0.7874015748031497,
          "duration": 0.06469288541666884
        },
        {
          "name": "C#4",
          "midi": 61,
          "time": 59.99991000000021,
          "velocity": 0.7874015748031497,
          "duration": 0.06469288541666884
        },
        {
          "name": "F#4",
          "midi": 66,
          "time": 59.99991000000021,
          "velocity": 0.7874015748031497,
          "duration": 0.06469288541666884
        },
        {
          "name": "C#5",
          "midi": 73,
          "time": 59.99991000000021,
          "velocity": 0.7874015748031497,
          "duration": 0.06469288541666884
        },
        {
          "name": "F#5",
          "midi": 78,
          "time": 59.99991000000021,
          "velocity": 0.7874015748031497,
          "duration": 0.06469288541666884
        },
        {
          "name": "D6",
          "midi": 86,
          "time": 59.99991000000021,
          "velocity": 0.7874015748031497,
          "duration": 0.06469288541666884
        },
        {
          "name": "F#6",
          "midi": 90,
          "time": 59.99991000000021,
          "velocity": 0.7874015748031497,
          "duration": 0.06469288541666884
        },
        {
          "name": "D#7",
          "midi": 99,
          "time": 59.99991000000021,
          "velocity": 0.7874015748031497,
          "duration": 0.06469288541666884
        },
        {
          "name": "F#7",
          "midi": 102,
          "time": 59.99991000000021,
          "velocity": 0.7874015748031497,
          "duration": 0.06469288541666884
        },
        {
          "name": "C#4",
          "midi": 61,
          "time": 60.52622500000022,
          "velocity": 0.7874015748031497,
          "duration": 0.06469288541666884
        },
        {
          "name": "F#4",
          "midi": 66,
          "time": 60.52622500000022,
          "velocity": 0.7874015748031497,
          "duration": 0.06469288541666884
        },
        {
          "name": "C#5",
          "midi": 73,
          "time": 60.52622500000022,
          "velocity": 0.7874015748031497,
          "duration": 0.06469288541666884
        },
        {
          "name": "F#5",
          "midi": 78,
          "time": 60.52622500000022,
          "velocity": 0.7874015748031497,
          "duration": 0.06469288541666884
        },
        {
          "name": "D6",
          "midi": 86,
          "time": 60.52622500000022,
          "velocity": 0.7874015748031497,
          "duration": 0.06469288541666884
        },
        {
          "name": "F#6",
          "midi": 90,
          "time": 60.52622500000022,
          "velocity": 0.7874015748031497,
          "duration": 0.06469288541666884
        },
        {
          "name": "D#7",
          "midi": 99,
          "time": 60.52622500000022,
          "velocity": 0.7874015748031497,
          "duration": 0.06469288541666884
        },
        {
          "name": "F#7",
          "midi": 102,
          "time": 60.52622500000022,
          "velocity": 0.7874015748031497,
          "duration": 0.06469288541666884
        },
        {
          "name": "C#4",
          "midi": 61,
          "time": 61.05254000000022,
          "velocity": 0.7874015748031497,
          "duration": 0.06469288541666884
        },
        {
          "name": "F#4",
          "midi": 66,
          "time": 61.05254000000022,
          "velocity": 0.7874015748031497,
          "duration": 0.06469288541666884
        },
        {
          "name": "C#5",
          "midi": 73,
          "time": 61.05254000000022,
          "velocity": 0.7874015748031497,
          "duration": 0.06469288541666884
        },
        {
          "name": "F#5",
          "midi": 78,
          "time": 61.05254000000022,
          "velocity": 0.7874015748031497,
          "duration": 0.06469288541666884
        },
        {
          "name": "D6",
          "midi": 86,
          "time": 61.05254000000022,
          "velocity": 0.7874015748031497,
          "duration": 0.06469288541666884
        },
        {
          "name": "F#6",
          "midi": 90,
          "time": 61.05254000000022,
          "velocity": 0.7874015748031497,
          "duration": 0.06469288541666884
        },
        {
          "name": "D#7",
          "midi": 99,
          "time": 61.05254000000022,
          "velocity": 0.7874015748031497,
          "duration": 0.06469288541666884
        },
        {
          "name": "F#7",
          "midi": 102,
          "time": 61.05254000000022,
          "velocity": 0.7874015748031497,
          "duration": 0.06469288541666884
        },
        {
          "name": "C4",
          "midi": 60,
          "time": 63.15780000000022,
          "velocity": 0.7874015748031497,
          "duration": 0.06578937500000137
        },
        {
          "name": "F#4",
          "midi": 66,
          "time": 63.15780000000022,
          "velocity": 0.7874015748031497,
          "duration": 0.06578937500000137
        },
        {
          "name": "C5",
          "midi": 72,
          "time": 63.15780000000022,
          "velocity": 0.7874015748031497,
          "duration": 0.06578937500000137
        },
        {
          "name": "F#5",
          "midi": 78,
          "time": 63.15780000000022,
          "velocity": 0.7874015748031497,
          "duration": 0.06578937500000137
        },
        {
          "name": "C6",
          "midi": 84,
          "time": 63.15780000000022,
          "velocity": 0.7874015748031497,
          "duration": 0.06578937500000137
        },
        {
          "name": "F#6",
          "midi": 90,
          "time": 63.15780000000022,
          "velocity": 0.7874015748031497,
          "duration": 0.06578937500000137
        },
        {
          "name": "C7",
          "midi": 96,
          "time": 63.15780000000022,
          "velocity": 0.7874015748031497,
          "duration": 0.06578937500000137
        },
        {
          "name": "F#7",
          "midi": 102,
          "time": 63.15780000000022,
          "velocity": 0.7874015748031497,
          "duration": 0.06578937500000137
        },
        {
          "name": "C#6",
          "midi": 85,
          "time": 63.333238333333554,
          "velocity": 0.7874015748031497,
          "duration": 0.06578937500000137
        },
        {
          "name": "F6",
          "midi": 89,
          "time": 63.333238333333554,
          "velocity": 0.7874015748031497,
          "duration": 0.06578937500000137
        },
        {
          "name": "C#7",
          "midi": 97,
          "time": 63.333238333333554,
          "velocity": 0.7874015748031497,
          "duration": 0.06578937500000137
        },
        {
          "name": "F7",
          "midi": 101,
          "time": 63.333238333333554,
          "velocity": 0.7874015748031497,
          "duration": 0.06578937500000137
        },
        {
          "name": "C#5",
          "midi": 73,
          "time": 63.50867666666689,
          "velocity": 0.7874015748031497,
          "duration": 0.06578937500000137
        },
        {
          "name": "F5",
          "midi": 77,
          "time": 63.50867666666689,
          "velocity": 0.7874015748031497,
          "duration": 0.06578937500000137
        },
        {
          "name": "D7",
          "midi": 98,
          "time": 63.50867666666689,
          "velocity": 0.7874015748031497,
          "duration": 0.06578937500000137
        },
        {
          "name": "F7",
          "midi": 101,
          "time": 63.50867666666689,
          "velocity": 0.7874015748031497,
          "duration": 0.06578937500000137
        },
        {
          "name": "C#4",
          "midi": 61,
          "time": 63.68411500000022,
          "velocity": 0.7874015748031497,
          "duration": 0.06578937500000137
        },
        {
          "name": "F4",
          "midi": 65,
          "time": 63.68411500000022,
          "velocity": 0.7874015748031497,
          "duration": 0.06578937500000137
        },
        {
          "name": "C#6",
          "midi": 85,
          "time": 63.68411500000022,
          "velocity": 0.7874015748031497,
          "duration": 0.06578937500000137
        },
        {
          "name": "F#6",
          "midi": 90,
          "time": 63.68411500000022,
          "velocity": 0.7874015748031497,
          "duration": 0.06578937500000137
        },
        {
          "name": "D#7",
          "midi": 99,
          "time": 63.68411500000022,
          "velocity": 0.7874015748031497,
          "duration": 0.06578937500000137
        },
        {
          "name": "F7",
          "midi": 101,
          "time": 63.68411500000022,
          "velocity": 0.7874015748031497,
          "duration": 0.06578937500000137
        },
        {
          "name": "D5",
          "midi": 74,
          "time": 63.86064982291688,
          "velocity": 0.7874015748031497,
          "duration": 0.06578937500000137
        },
        {
          "name": "F5",
          "midi": 77,
          "time": 63.86064982291688,
          "velocity": 0.7874015748031497,
          "duration": 0.06578937500000137
        },
        {
          "name": "D6",
          "midi": 86,
          "time": 63.86064982291688,
          "velocity": 0.7874015748031497,
          "duration": 0.06578937500000137
        },
        {
          "name": "F6",
          "midi": 89,
          "time": 63.86064982291688,
          "velocity": 0.7874015748031497,
          "duration": 0.06578937500000137
        },
        {
          "name": "E7",
          "midi": 100,
          "time": 63.86064982291688,
          "velocity": 0.7874015748031497,
          "duration": 0.06578937500000137
        },
        {
          "name": "F7",
          "midi": 101,
          "time": 63.86064982291688,
          "velocity": 0.7874015748031497,
          "duration": 0.06578937500000137
        },
        {
          "name": "C7",
          "midi": 96,
          "time": 64.03499166666688,
          "velocity": 0.7874015748031497,
          "duration": 0.06578937499999427
        },
        {
          "name": "F7",
          "midi": 101,
          "time": 64.03499166666688,
          "velocity": 0.7874015748031497,
          "duration": 0.06578937499999427
        },
        {
          "name": "D4",
          "midi": 62,
          "time": 64.21043000000022,
          "velocity": 0.7874015748031497,
          "duration": 0.06469288541666174
        },
        {
          "name": "F4",
          "midi": 65,
          "time": 64.21043000000022,
          "velocity": 0.7874015748031497,
          "duration": 0.06469288541666174
        },
        {
          "name": "C#5",
          "midi": 73,
          "time": 64.21043000000022,
          "velocity": 0.7874015748031497,
          "duration": 0.06469288541666174
        },
        {
          "name": "F#5",
          "midi": 78,
          "time": 64.21043000000022,
          "velocity": 0.7874015748031497,
          "duration": 0.06469288541666174
        },
        {
          "name": "D6",
          "midi": 86,
          "time": 64.21043000000022,
          "velocity": 0.7874015748031497,
          "duration": 0.06469288541666174
        },
        {
          "name": "F#6",
          "midi": 90,
          "time": 64.21043000000022,
          "velocity": 0.7874015748031497,
          "duration": 0.06469288541666174
        },
        {
          "name": "C#7",
          "midi": 97,
          "time": 64.21043000000022,
          "velocity": 0.7874015748031497,
          "duration": 0.06469288541666174
        },
        {
          "name": "F7",
          "midi": 101,
          "time": 64.21043000000022,
          "velocity": 0.7874015748031497,
          "duration": 0.06469288541666174
        },
        {
          "name": "D#6",
          "midi": 87,
          "time": 64.38696482291688,
          "velocity": 0.7874015748031497,
          "duration": 0.06469288541666174
        },
        {
          "name": "F6",
          "midi": 89,
          "time": 64.38696482291688,
          "velocity": 0.7874015748031497,
          "duration": 0.06469288541666174
        },
        {
          "name": "C#7",
          "midi": 97,
          "time": 64.38696482291688,
          "velocity": 0.7874015748031497,
          "duration": 0.06469288541666174
        },
        {
          "name": "F#7",
          "midi": 102,
          "time": 64.38696482291688,
          "velocity": 0.7874015748031497,
          "duration": 0.06469288541666174
        },
        {
          "name": "D5",
          "midi": 74,
          "time": 64.56130666666688,
          "velocity": 0.7874015748031497,
          "duration": 0.06469288541666174
        },
        {
          "name": "F5",
          "midi": 77,
          "time": 64.56130666666688,
          "velocity": 0.7874015748031497,
          "duration": 0.06469288541666174
        },
        {
          "name": "D7",
          "midi": 98,
          "time": 64.56130666666688,
          "velocity": 0.7874015748031497,
          "duration": 0.06469288541666174
        },
        {
          "name": "F7",
          "midi": 101,
          "time": 64.56130666666688,
          "velocity": 0.7874015748031497,
          "duration": 0.06469288541666174
        },
        {
          "name": "D4",
          "midi": 62,
          "time": 64.73674500000021,
          "velocity": 0.7874015748031497,
          "duration": 0.06469288541666174
        },
        {
          "name": "F#4",
          "midi": 66,
          "time": 64.73674500000021,
          "velocity": 0.7874015748031497,
          "duration": 0.06469288541666174
        },
        {
          "name": "D#6",
          "midi": 87,
          "time": 64.73674500000021,
          "velocity": 0.7874015748031497,
          "duration": 0.06469288541666174
        },
        {
          "name": "F#6",
          "midi": 90,
          "time": 64.73674500000021,
          "velocity": 0.7874015748031497,
          "duration": 0.06469288541666174
        },
        {
          "name": "D#7",
          "midi": 99,
          "time": 64.73674500000021,
          "velocity": 0.7874015748031497,
          "duration": 0.06469288541666174
        },
        {
          "name": "F7",
          "midi": 101,
          "time": 64.73674500000021,
          "velocity": 0.7874015748031497,
          "duration": 0.06469288541666174
        },
        {
          "name": "D#5",
          "midi": 75,
          "time": 64.91218333333354,
          "velocity": 0.7874015748031497,
          "duration": 0.06469288541666174
        },
        {
          "name": "F5",
          "midi": 77,
          "time": 64.91218333333354,
          "velocity": 0.7874015748031497,
          "duration": 0.06469288541666174
        },
        {
          "name": "E6",
          "midi": 88,
          "time": 64.91218333333354,
          "velocity": 0.7874015748031497,
          "duration": 0.06469288541666174
        },
        {
          "name": "F6",
          "midi": 89,
          "time": 64.91218333333354,
          "velocity": 0.7874015748031497,
          "duration": 0.06469288541666174
        },
        {
          "name": "E7",
          "midi": 100,
          "time": 64.91218333333354,
          "velocity": 0.7874015748031497,
          "duration": 0.06469288541666174
        },
        {
          "name": "F7",
          "midi": 101,
          "time": 64.91218333333354,
          "velocity": 0.7874015748031497,
          "duration": 0.06469288541666174
        },
        {
          "name": "C#4",
          "midi": 61,
          "time": 65.06459538541688,
          "velocity": 0.7874015748031497,
          "duration": 0.06469288541666174
        },
        {
          "name": "F4",
          "midi": 65,
          "time": 65.06459538541688,
          "velocity": 0.7874015748031497,
          "duration": 0.06469288541666174
        },
        {
          "name": "D#7",
          "midi": 99,
          "time": 65.08762166666688,
          "velocity": 0.7874015748031497,
          "duration": 0.06469288541666174
        },
        {
          "name": "F7",
          "midi": 101,
          "time": 65.08762166666688,
          "velocity": 0.7874015748031497,
          "duration": 0.06469288541666174
        },
        {
          "name": "D5",
          "midi": 74,
          "time": 65.26306000000021,
          "velocity": 0.7874015748031497,
          "duration": 0.06469288541666174
        },
        {
          "name": "F5",
          "midi": 77,
          "time": 65.26306000000021,
          "velocity": 0.7874015748031497,
          "duration": 0.06469288541666174
        },
        {
          "name": "D6",
          "midi": 86,
          "time": 65.26306000000021,
          "velocity": 0.7874015748031497,
          "duration": 0.06469288541666174
        },
        {
          "name": "F#6",
          "midi": 90,
          "time": 65.26306000000021,
          "velocity": 0.7874015748031497,
          "duration": 0.06469288541666174
        },
        {
          "name": "D7",
          "midi": 98,
          "time": 65.26306000000021,
          "velocity": 0.7874015748031497,
          "duration": 0.06469288541666174
        },
        {
          "name": "F7",
          "midi": 101,
          "time": 65.26306000000021,
          "velocity": 0.7874015748031497,
          "duration": 0.06469288541666174
        },
        {
          "name": "D#6",
          "midi": 87,
          "time": 65.43849833333354,
          "velocity": 0.7874015748031497,
          "duration": 1.4024101770833255
        },
        {
          "name": "F6",
          "midi": 89,
          "time": 65.43849833333354,
          "velocity": 0.7874015748031497,
          "duration": 1.4024101770833255
        },
        {
          "name": "D#7",
          "midi": 99,
          "time": 65.43849833333354,
          "velocity": 0.7874015748031497,
          "duration": 1.4024101770833255
        },
        {
          "name": "F7",
          "midi": 101,
          "time": 65.43849833333354,
          "velocity": 0.7874015748031497,
          "duration": 1.4024101770833255
        },
        {
          "name": "D4",
          "midi": 62,
          "time": 65.45933163541687,
          "velocity": 0.7874015748031497,
          "duration": 1.3815768749999933
        },
        {
          "name": "F4",
          "midi": 65,
          "time": 65.45933163541687,
          "velocity": 0.7874015748031497,
          "duration": 1.3815768749999933
        },
        {
          "name": "D#5",
          "midi": 75,
          "time": 65.45933163541687,
          "velocity": 0.7874015748031497,
          "duration": 1.3815768749999933
        },
        {
          "name": "F#5",
          "midi": 78,
          "time": 65.45933163541687,
          "velocity": 0.7874015748031497,
          "duration": 1.3804803854166607
        },
        {
          "name": "D4",
          "midi": 62,
          "time": 66.8420050000002,
          "velocity": 0.7874015748031497,
          "duration": 0.06469288541666174
        },
        {
          "name": "F#4",
          "midi": 66,
          "time": 66.8420050000002,
          "velocity": 0.7874015748031497,
          "duration": 0.06469288541666174
        },
        {
          "name": "D#5",
          "midi": 75,
          "time": 66.8420050000002,
          "velocity": 0.7874015748031497,
          "duration": 0.06469288541666174
        },
        {
          "name": "F#5",
          "midi": 78,
          "time": 66.8420050000002,
          "velocity": 0.7874015748031497,
          "duration": 0.06469288541666174
        },
        {
          "name": "D#6",
          "midi": 87,
          "time": 66.8420050000002,
          "velocity": 0.7874015748031497,
          "duration": 0.06469288541666174
        },
        {
          "name": "F#6",
          "midi": 90,
          "time": 66.8420050000002,
          "velocity": 0.7874015748031497,
          "duration": 0.06469288541666174
        },
        {
          "name": "D#7",
          "midi": 99,
          "time": 66.8420050000002,
          "velocity": 0.7874015748031497,
          "duration": 0.06469288541666174
        },
        {
          "name": "F#7",
          "midi": 102,
          "time": 66.8420050000002,
          "velocity": 0.7874015748031497,
          "duration": 0.06469288541666174
        },
        {
          "name": "D5",
          "midi": 74,
          "time": 67.01744333333353,
          "velocity": 0.7874015748031497,
          "duration": 0.06578937499999427
        },
        {
          "name": "F#5",
          "midi": 78,
          "time": 67.01744333333353,
          "velocity": 0.7874015748031497,
          "duration": 0.06578937499999427
        },
        {
          "name": "D6",
          "midi": 86,
          "time": 67.01744333333353,
          "velocity": 0.7874015748031497,
          "duration": 0.06578937499999427
        },
        {
          "name": "F6",
          "midi": 89,
          "time": 67.01744333333353,
          "velocity": 0.7874015748031497,
          "duration": 0.06578937499999427
        },
        {
          "name": "D7",
          "midi": 98,
          "time": 67.01744333333353,
          "velocity": 0.7874015748031497,
          "duration": 0.06578937499999427
        },
        {
          "name": "F7",
          "midi": 101,
          "time": 67.01744333333353,
          "velocity": 0.7874015748031497,
          "duration": 0.06578937499999427
        },
        {
          "name": "C#4",
          "midi": 61,
          "time": 67.17204836458353,
          "velocity": 0.7874015748031497,
          "duration": 0.06469288541666174
        },
        {
          "name": "F4",
          "midi": 65,
          "time": 67.17204836458353,
          "velocity": 0.7874015748031497,
          "duration": 0.06469288541666174
        },
        {
          "name": "C#5",
          "midi": 73,
          "time": 67.1939781562502,
          "velocity": 0.7874015748031497,
          "duration": 0.06469288541666174
        },
        {
          "name": "F#5",
          "midi": 78,
          "time": 67.1939781562502,
          "velocity": 0.7874015748031497,
          "duration": 0.06469288541666174
        },
        {
          "name": "C#6",
          "midi": 85,
          "time": 67.1939781562502,
          "velocity": 0.7874015748031497,
          "duration": 0.06469288541666174
        },
        {
          "name": "F6",
          "midi": 89,
          "time": 67.1939781562502,
          "velocity": 0.7874015748031497,
          "duration": 0.06469288541666174
        },
        {
          "name": "C#7",
          "midi": 97,
          "time": 67.1939781562502,
          "velocity": 0.7874015748031497,
          "duration": 0.06469288541666174
        },
        {
          "name": "F7",
          "midi": 101,
          "time": 67.1939781562502,
          "velocity": 0.7874015748031497,
          "duration": 0.06469288541666174
        },
        {
          "name": "C4",
          "midi": 60,
          "time": 67.3683200000002,
          "velocity": 0.7874015748031497,
          "duration": 0.06469288541666174
        },
        {
          "name": "F4",
          "midi": 65,
          "time": 67.3683200000002,
          "velocity": 0.7874015748031497,
          "duration": 0.06469288541666174
        },
        {
          "name": "C5",
          "midi": 72,
          "time": 67.3683200000002,
          "velocity": 0.7874015748031497,
          "duration": 0.06469288541666174
        },
        {
          "name": "F#5",
          "midi": 78,
          "time": 67.3683200000002,
          "velocity": 0.7874015748031497,
          "duration": 0.06469288541666174
        },
        {
          "name": "C6",
          "midi": 84,
          "time": 67.3683200000002,
          "velocity": 0.7874015748031497,
          "duration": 0.06469288541666174
        },
        {
          "name": "F6",
          "midi": 89,
          "time": 67.3683200000002,
          "velocity": 0.7874015748031497,
          "duration": 0.06469288541666174
        },
        {
          "name": "C7",
          "midi": 96,
          "time": 67.3683200000002,
          "velocity": 0.7874015748031497,
          "duration": 0.06469288541666174
        },
        {
          "name": "F7",
          "midi": 101,
          "time": 67.3683200000002,
          "velocity": 0.7874015748031497,
          "duration": 0.06469288541666174
        },
        {
          "name": "D4",
          "midi": 62,
          "time": 68.42095000000019,
          "velocity": 0.7874015748031497,
          "duration": 0.06578937499999427
        },
        {
          "name": "F#4",
          "midi": 66,
          "time": 68.42095000000019,
          "velocity": 0.7874015748031497,
          "duration": 0.06578937499999427
        },
        {
          "name": "D#5",
          "midi": 75,
          "time": 68.42095000000019,
          "velocity": 0.7874015748031497,
          "duration": 0.06578937499999427
        },
        {
          "name": "F#5",
          "midi": 78,
          "time": 68.42095000000019,
          "velocity": 0.7874015748031497,
          "duration": 0.06578937499999427
        },
        {
          "name": "D#6",
          "midi": 87,
          "time": 68.42095000000019,
          "velocity": 0.7874015748031497,
          "duration": 0.06578937499999427
        },
        {
          "name": "F#6",
          "midi": 90,
          "time": 68.42095000000019,
          "velocity": 0.7874015748031497,
          "duration": 0.06578937499999427
        },
        {
          "name": "E7",
          "midi": 100,
          "time": 68.42095000000019,
          "velocity": 0.7874015748031497,
          "duration": 0.06578937499999427
        },
        {
          "name": "F#7",
          "midi": 102,
          "time": 68.42095000000019,
          "velocity": 0.7874015748031497,
          "duration": 0.06578937499999427
        },
        {
          "name": "E7",
          "midi": 100,
          "time": 68.55252875000018,
          "velocity": 0.7874015748031497,
          "duration": 0.06578937499999427
        },
        {
          "name": "F#7",
          "midi": 102,
          "time": 68.55252875000018,
          "velocity": 0.7874015748031497,
          "duration": 0.06578937499999427
        },
        {
          "name": "D5",
          "midi": 74,
          "time": 68.68410750000017,
          "velocity": 0.7874015748031497,
          "duration": 0.06578937499999427
        },
        {
          "name": "F5",
          "midi": 77,
          "time": 68.68410750000017,
          "velocity": 0.7874015748031497,
          "duration": 0.06578937499999427
        },
        {
          "name": "D6",
          "midi": 86,
          "time": 68.68410750000017,
          "velocity": 0.7874015748031497,
          "duration": 0.06578937499999427
        },
        {
          "name": "F6",
          "midi": 89,
          "time": 68.68410750000017,
          "velocity": 0.7874015748031497,
          "duration": 0.06578937499999427
        },
        {
          "name": "D#7",
          "midi": 99,
          "time": 68.68410750000017,
          "velocity": 0.7874015748031497,
          "duration": 0.06578937499999427
        },
        {
          "name": "F7",
          "midi": 101,
          "time": 68.68410750000017,
          "velocity": 0.7874015748031497,
          "duration": 0.06578937499999427
        },
        {
          "name": "D4",
          "midi": 62,
          "time": 68.81678273958349,
          "velocity": 0.7874015748031497,
          "duration": 0.06469288541666174
        },
        {
          "name": "F#4",
          "midi": 66,
          "time": 68.81678273958349,
          "velocity": 0.7874015748031497,
          "duration": 0.06469288541666174
        },
        {
          "name": "D#5",
          "midi": 75,
          "time": 68.81678273958349,
          "velocity": 0.7874015748031497,
          "duration": 0.06469288541666174
        },
        {
          "name": "F5",
          "midi": 77,
          "time": 68.81678273958349,
          "velocity": 0.7874015748031497,
          "duration": 0.06469288541666174
        },
        {
          "name": "D#6",
          "midi": 87,
          "time": 68.81678273958349,
          "velocity": 0.7874015748031497,
          "duration": 0.06469288541666174
        },
        {
          "name": "F6",
          "midi": 89,
          "time": 68.81678273958349,
          "velocity": 0.7874015748031497,
          "duration": 0.06469288541666174
        },
        {
          "name": "E7",
          "midi": 100,
          "time": 68.81678273958349,
          "velocity": 0.7874015748031497,
          "duration": 0.06469288541666174
        },
        {
          "name": "F7",
          "midi": 101,
          "time": 68.81678273958349,
          "velocity": 0.7874015748031497,
          "duration": 0.06469288541666174
        },
        {
          "name": "D#7",
          "midi": 99,
          "time": 68.94726500000014,
          "velocity": 0.7874015748031497,
          "duration": 0.06469288541666174
        },
        {
          "name": "F7",
          "midi": 101,
          "time": 68.94726500000014,
          "velocity": 0.7874015748031497,
          "duration": 0.06469288541666174
        },
        {
          "name": "D5",
          "midi": 74,
          "time": 69.07884375000013,
          "velocity": 0.7874015748031497,
          "duration": 0.06578937499999427
        },
        {
          "name": "F5",
          "midi": 77,
          "time": 69.07884375000013,
          "velocity": 0.7874015748031497,
          "duration": 0.06578937499999427
        },
        {
          "name": "D#6",
          "midi": 87,
          "time": 69.07884375000013,
          "velocity": 0.7874015748031497,
          "duration": 0.06578937499999427
        },
        {
          "name": "F#6",
          "midi": 90,
          "time": 69.07884375000013,
          "velocity": 0.7874015748031497,
          "duration": 0.06578937499999427
        },
        {
          "name": "D7",
          "midi": 98,
          "time": 69.07884375000013,
          "velocity": 0.7874015748031497,
          "duration": 0.06578937499999427
        },
        {
          "name": "F7",
          "midi": 101,
          "time": 69.07884375000013,
          "velocity": 0.7874015748031497,
          "duration": 0.06578937499999427
        },
        {
          "name": "C#4",
          "midi": 61,
          "time": 69.21042250000012,
          "velocity": 0.7874015748031497,
          "duration": 0.06469288541666174
        },
        {
          "name": "F4",
          "midi": 65,
          "time": 69.21042250000012,
          "velocity": 0.7874015748031497,
          "duration": 0.06469288541666174
        },
        {
          "name": "D6",
          "midi": 86,
          "time": 69.21042250000012,
          "velocity": 0.7874015748031497,
          "duration": 0.06469288541666174
        },
        {
          "name": "F6",
          "midi": 89,
          "time": 69.21042250000012,
          "velocity": 0.7874015748031497,
          "duration": 0.06469288541666174
        },
        {
          "name": "D#7",
          "midi": 99,
          "time": 69.21042250000012,
          "velocity": 0.7874015748031497,
          "duration": 0.06469288541666174
        },
        {
          "name": "F7",
          "midi": 101,
          "time": 69.21042250000012,
          "velocity": 0.7874015748031497,
          "duration": 0.06469288541666174
        },
        {
          "name": "C#5",
          "midi": 73,
          "time": 69.34200125000011,
          "velocity": 0.7874015748031497,
          "duration": 0.06578937499999427
        },
        {
          "name": "F5",
          "midi": 77,
          "time": 69.34200125000011,
          "velocity": 0.7874015748031497,
          "duration": 0.06578937499999427
        },
        {
          "name": "C#6",
          "midi": 85,
          "time": 69.34200125000011,
          "velocity": 0.7874015748031497,
          "duration": 0.06578937499999427
        },
        {
          "name": "F6",
          "midi": 89,
          "time": 69.34200125000011,
          "velocity": 0.7874015748031497,
          "duration": 0.06578937499999427
        },
        {
          "name": "D7",
          "midi": 98,
          "time": 69.34200125000011,
          "velocity": 0.7874015748031497,
          "duration": 0.06578937499999427
        },
        {
          "name": "F7",
          "midi": 101,
          "time": 69.34200125000011,
          "velocity": 0.7874015748031497,
          "duration": 0.06578937499999427
        },
        {
          "name": "C4",
          "midi": 60,
          "time": 69.4735800000001,
          "velocity": 0.7874015748031497,
          "duration": 1.5767520208333394
        },
        {
          "name": "F4",
          "midi": 65,
          "time": 69.4735800000001,
          "velocity": 0.7874015748031497,
          "duration": 1.5767520208333394
        },
        {
          "name": "C5",
          "midi": 72,
          "time": 69.4735800000001,
          "velocity": 0.7874015748031497,
          "duration": 1.5767520208333394
        },
        {
          "name": "F5",
          "midi": 77,
          "time": 69.4735800000001,
          "velocity": 0.7874015748031497,
          "duration": 1.5767520208333394
        },
        {
          "name": "C6",
          "midi": 84,
          "time": 69.4735800000001,
          "velocity": 0.7874015748031497,
          "duration": 1.5767520208333394
        },
        {
          "name": "F6",
          "midi": 89,
          "time": 69.4735800000001,
          "velocity": 0.7874015748031497,
          "duration": 1.5767520208333394
        },
        {
          "name": "C#7",
          "midi": 97,
          "time": 69.4735800000001,
          "velocity": 0.7874015748031497,
          "duration": 1.5767520208333394
        },
        {
          "name": "F7",
          "midi": 101,
          "time": 69.4735800000001,
          "velocity": 0.7874015748031497,
          "duration": 1.5767520208333394
        },
        {
          "name": "D4",
          "midi": 62,
          "time": 71.0525250000001,
          "velocity": 0.7874015748031497,
          "duration": 0.5252185104166216
        },
        {
          "name": "F#4",
          "midi": 66,
          "time": 71.0525250000001,
          "velocity": 0.7874015748031497,
          "duration": 0.5241220208332891
        },
        {
          "name": "D#5",
          "midi": 75,
          "time": 71.0525250000001,
          "velocity": 0.7874015748031497,
          "duration": 0.5252185104166216
        },
        {
          "name": "F#5",
          "midi": 78,
          "time": 71.0525250000001,
          "velocity": 0.7874015748031497,
          "duration": 0.5241220208332891
        },
        {
          "name": "E6",
          "midi": 88,
          "time": 71.0525250000001,
          "velocity": 0.7874015748031497,
          "duration": 0.5252185104166216
        },
        {
          "name": "F#6",
          "midi": 90,
          "time": 71.0525250000001,
          "velocity": 0.7874015748031497,
          "duration": 0.5241220208332891
        },
        {
          "name": "E7",
          "midi": 100,
          "time": 71.0525250000001,
          "velocity": 0.7874015748031497,
          "duration": 0.06578937499999427
        },
        {
          "name": "F#7",
          "midi": 102,
          "time": 71.0525250000001,
          "velocity": 0.7874015748031497,
          "duration": 0.06578937499999427
        },
        {
          "name": "D#7",
          "midi": 99,
          "time": 71.18410375000009,
          "velocity": 0.7874015748031497,
          "duration": 0.06578937499999427
        },
        {
          "name": "F7",
          "midi": 101,
          "time": 71.18410375000009,
          "velocity": 0.7874015748031497,
          "duration": 0.06578937499999427
        },
        {
          "name": "D7",
          "midi": 98,
          "time": 71.31568250000008,
          "velocity": 0.7874015748031497,
          "duration": 0.06578937499999427
        },
        {
          "name": "F7",
          "midi": 101,
          "time": 71.31568250000008,
          "velocity": 0.7874015748031497,
          "duration": 0.06578937499999427
        },
        {
          "name": "C#7",
          "midi": 97,
          "time": 71.44726125000007,
          "velocity": 0.7874015748031497,
          "duration": 0.06578937499999427
        },
        {
          "name": "F7",
          "midi": 101,
          "time": 71.44726125000007,
          "velocity": 0.7874015748031497,
          "duration": 0.06578937499999427
        },
        {
          "name": "D4",
          "midi": 62,
          "time": 71.57884000000006,
          "velocity": 0.7874015748031497,
          "duration": 0.06578937499999427
        },
        {
          "name": "F#4",
          "midi": 66,
          "time": 71.57884000000006,
          "velocity": 0.7874015748031497,
          "duration": 0.06578937499999427
        },
        {
          "name": "D5",
          "midi": 74,
          "time": 71.57884000000006,
          "velocity": 0.7874015748031497,
          "duration": 0.06578937499999427
        },
        {
          "name": "F#5",
          "midi": 78,
          "time": 71.57884000000006,
          "velocity": 0.7874015748031497,
          "duration": 0.06578937499999427
        },
        {
          "name": "D#6",
          "midi": 87,
          "time": 71.57884000000006,
          "velocity": 0.7874015748031497,
          "duration": 0.06578937499999427
        },
        {
          "name": "F#6",
          "midi": 90,
          "time": 71.57884000000006,
          "velocity": 0.7874015748031497,
          "duration": 0.06578937499999427
        },
        {
          "name": "D#7",
          "midi": 99,
          "time": 71.57884000000006,
          "velocity": 0.7874015748031497,
          "duration": 0.06578937499999427
        },
        {
          "name": "F7",
          "midi": 101,
          "time": 71.57884000000006,
          "velocity": 0.7874015748031497,
          "duration": 0.06578937499999427
        },
        {
          "name": "D#7",
          "midi": 99,
          "time": 71.71041875000004,
          "velocity": 0.7874015748031497,
          "duration": 0.06578937499999427
        },
        {
          "name": "F#7",
          "midi": 102,
          "time": 71.71041875000004,
          "velocity": 0.7874015748031497,
          "duration": 0.06578937499999427
        },
        {
          "name": "C#5",
          "midi": 73,
          "time": 71.84309398958337,
          "velocity": 0.7874015748031497,
          "duration": 0.06469288541666174
        },
        {
          "name": "F5",
          "midi": 77,
          "time": 71.84309398958337,
          "velocity": 0.7874015748031497,
          "duration": 0.06469288541666174
        },
        {
          "name": "D6",
          "midi": 86,
          "time": 71.84309398958337,
          "velocity": 0.7874015748031497,
          "duration": 0.06469288541666174
        },
        {
          "name": "F6",
          "midi": 89,
          "time": 71.84309398958337,
          "velocity": 0.7874015748031497,
          "duration": 0.06469288541666174
        },
        {
          "name": "D7",
          "midi": 98,
          "time": 71.84309398958337,
          "velocity": 0.7874015748031497,
          "duration": 0.06469288541666174
        },
        {
          "name": "F7",
          "midi": 101,
          "time": 71.84309398958337,
          "velocity": 0.7874015748031497,
          "duration": 0.06469288541666174
        },
        {
          "name": "D4",
          "midi": 62,
          "time": 71.97467273958335,
          "velocity": 0.7874015748031497,
          "duration": 0.06469288541666174
        },
        {
          "name": "F#4",
          "midi": 66,
          "time": 71.97467273958335,
          "velocity": 0.7874015748031497,
          "duration": 0.06469288541666174
        },
        {
          "name": "D5",
          "midi": 74,
          "time": 71.97467273958335,
          "velocity": 0.7874015748031497,
          "duration": 0.06469288541666174
        },
        {
          "name": "F5",
          "midi": 77,
          "time": 71.97467273958335,
          "velocity": 0.7874015748031497,
          "duration": 0.06469288541666174
        },
        {
          "name": "D#6",
          "midi": 87,
          "time": 71.97467273958335,
          "velocity": 0.7874015748031497,
          "duration": 0.06469288541666174
        },
        {
          "name": "F6",
          "midi": 89,
          "time": 71.97467273958335,
          "velocity": 0.7874015748031497,
          "duration": 0.06469288541666174
        },
        {
          "name": "D#7",
          "midi": 99,
          "time": 71.97467273958335,
          "velocity": 0.7874015748031497,
          "duration": 0.06469288541666174
        },
        {
          "name": "F7",
          "midi": 101,
          "time": 71.97467273958335,
          "velocity": 0.7874015748031497,
          "duration": 0.06469288541666174
        },
        {
          "name": "D7",
          "midi": 98,
          "time": 72.10515500000001,
          "velocity": 0.7874015748031497,
          "duration": 0.06469288541666174
        },
        {
          "name": "F7",
          "midi": 101,
          "time": 72.10515500000001,
          "velocity": 0.7874015748031497,
          "duration": 0.06469288541666174
        },
        {
          "name": "C#4",
          "midi": 61,
          "time": 72.23673375,
          "velocity": 0.7874015748031497,
          "duration": 0.06469288541666174
        },
        {
          "name": "F4",
          "midi": 65,
          "time": 72.23673375,
          "velocity": 0.7874015748031497,
          "duration": 0.06469288541666174
        },
        {
          "name": "C#5",
          "midi": 73,
          "time": 72.23673375,
          "velocity": 0.7874015748031497,
          "duration": 0.06469288541666174
        },
        {
          "name": "F5",
          "midi": 77,
          "time": 72.23673375,
          "velocity": 0.7874015748031497,
          "duration": 0.06469288541666174
        },
        {
          "name": "D6",
          "midi": 86,
          "time": 72.23673375,
          "velocity": 0.7874015748031497,
          "duration": 0.06469288541666174
        },
        {
          "name": "F6",
          "midi": 89,
          "time": 72.23673375,
          "velocity": 0.7874015748031497,
          "duration": 0.06469288541666174
        },
        {
          "name": "C#7",
          "midi": 97,
          "time": 72.23673375,
          "velocity": 0.7874015748031497,
          "duration": 0.06469288541666174
        },
        {
          "name": "F7",
          "midi": 101,
          "time": 72.23673375,
          "velocity": 0.7874015748031497,
          "duration": 0.06469288541666174
        },
        {
          "name": "C#6",
          "midi": 85,
          "time": 72.36831249999999,
          "velocity": 0.7874015748031497,
          "duration": 0.06469288541666174
        },
        {
          "name": "F6",
          "midi": 89,
          "time": 72.36831249999999,
          "velocity": 0.7874015748031497,
          "duration": 0.06469288541666174
        },
        {
          "name": "C#7",
          "midi": 97,
          "time": 72.36831249999999,
          "velocity": 0.7874015748031497,
          "duration": 0.06469288541666174
        },
        {
          "name": "F#7",
          "midi": 102,
          "time": 72.36831249999999,
          "velocity": 0.7874015748031497,
          "duration": 0.06469288541666174
        },
        {
          "name": "C4",
          "midi": 60,
          "time": 72.63146999999998,
          "velocity": 0.7874015748031497,
          "duration": 1.051533510416661
        },
        {
          "name": "F#4",
          "midi": 66,
          "time": 72.63146999999998,
          "velocity": 0.7874015748031497,
          "duration": 1.0504370208333285
        },
        {
          "name": "C5",
          "midi": 72,
          "time": 72.63146999999998,
          "velocity": 0.7874015748031497,
          "duration": 1.051533510416661
        },
        {
          "name": "F#5",
          "midi": 78,
          "time": 72.63146999999998,
          "velocity": 0.7874015748031497,
          "duration": 1.0504370208333285
        },
        {
          "name": "C6",
          "midi": 84,
          "time": 72.63146999999998,
          "velocity": 0.7874015748031497,
          "duration": 1.051533510416661
        },
        {
          "name": "F#6",
          "midi": 90,
          "time": 72.63146999999998,
          "velocity": 0.7874015748031497,
          "duration": 1.0504370208333285
        },
        {
          "name": "C7",
          "midi": 96,
          "time": 72.63146999999998,
          "velocity": 0.7874015748031497,
          "duration": 1.051533510416661
        },
        {
          "name": "F#7",
          "midi": 102,
          "time": 72.63146999999998,
          "velocity": 0.7874015748031497,
          "duration": 1.0504370208333285
        },
        {
          "name": "D4",
          "midi": 62,
          "time": 73.68409999999997,
          "velocity": 0.7874015748031497,
          "duration": 0.06469288541666174
        },
        {
          "name": "F#4",
          "midi": 66,
          "time": 73.68409999999997,
          "velocity": 0.7874015748031497,
          "duration": 0.06469288541666174
        },
        {
          "name": "D5",
          "midi": 74,
          "time": 73.68409999999997,
          "velocity": 0.7874015748031497,
          "duration": 0.06469288541666174
        },
        {
          "name": "F#5",
          "midi": 78,
          "time": 73.68409999999997,
          "velocity": 0.7874015748031497,
          "duration": 0.06469288541666174
        },
        {
          "name": "D#6",
          "midi": 87,
          "time": 73.68409999999997,
          "velocity": 0.7874015748031497,
          "duration": 0.06469288541666174
        },
        {
          "name": "F#6",
          "midi": 90,
          "time": 73.68409999999997,
          "velocity": 0.7874015748031497,
          "duration": 0.06469288541666174
        },
        {
          "name": "D#7",
          "midi": 99,
          "time": 73.68409999999997,
          "velocity": 0.7874015748031497,
          "duration": 0.06469288541666174
        },
        {
          "name": "F#7",
          "midi": 102,
          "time": 73.68409999999997,
          "velocity": 0.7874015748031497,
          "duration": 0.06469288541666174
        },
        {
          "name": "D#7",
          "midi": 99,
          "time": 73.81458226041663,
          "velocity": 0.7874015748031497,
          "duration": 0.06578937499999427
        },
        {
          "name": "F#7",
          "midi": 102,
          "time": 73.81458226041663,
          "velocity": 0.7874015748031497,
          "duration": 0.06578937499999427
        },
        {
          "name": "C#5",
          "midi": 73,
          "time": 73.94725749999995,
          "velocity": 0.7874015748031497,
          "duration": 0.06469288541666174
        },
        {
          "name": "F5",
          "midi": 77,
          "time": 73.94725749999995,
          "velocity": 0.7874015748031497,
          "duration": 0.06469288541666174
        },
        {
          "name": "D6",
          "midi": 86,
          "time": 73.94725749999995,
          "velocity": 0.7874015748031497,
          "duration": 0.06469288541666174
        },
        {
          "name": "F6",
          "midi": 89,
          "time": 73.94725749999995,
          "velocity": 0.7874015748031497,
          "duration": 0.06469288541666174
        },
        {
          "name": "D7",
          "midi": 98,
          "time": 73.94725749999995,
          "velocity": 0.7874015748031497,
          "duration": 0.06469288541666174
        },
        {
          "name": "F7",
          "midi": 101,
          "time": 73.94725749999995,
          "velocity": 0.7874015748031497,
          "duration": 0.06469288541666174
        },
        {
          "name": "D4",
          "midi": 62,
          "time": 74.0777397604166,
          "velocity": 0.7874015748031497,
          "duration": 0.06578937499999427
        },
        {
          "name": "F#4",
          "midi": 66,
          "time": 74.0777397604166,
          "velocity": 0.7874015748031497,
          "duration": 0.06578937499999427
        },
        {
          "name": "D5",
          "midi": 74,
          "time": 74.0777397604166,
          "velocity": 0.7874015748031497,
          "duration": 0.06578937499999427
        },
        {
          "name": "F5",
          "midi": 77,
          "time": 74.0777397604166,
          "velocity": 0.7874015748031497,
          "duration": 0.06578937499999427
        },
        {
          "name": "D#6",
          "midi": 87,
          "time": 74.0777397604166,
          "velocity": 0.7874015748031497,
          "duration": 0.06578937499999427
        },
        {
          "name": "F6",
          "midi": 89,
          "time": 74.0777397604166,
          "velocity": 0.7874015748031497,
          "duration": 0.06578937499999427
        },
        {
          "name": "D#7",
          "midi": 99,
          "time": 74.0777397604166,
          "velocity": 0.7874015748031497,
          "duration": 0.06578937499999427
        },
        {
          "name": "F7",
          "midi": 101,
          "time": 74.0777397604166,
          "velocity": 0.7874015748031497,
          "duration": 0.06578937499999427
        },
        {
          "name": "D7",
          "midi": 98,
          "time": 74.21041499999993,
          "velocity": 0.7874015748031497,
          "duration": 0.06469288541666174
        },
        {
          "name": "F7",
          "midi": 101,
          "time": 74.21041499999993,
          "velocity": 0.7874015748031497,
          "duration": 0.06469288541666174
        },
        {
          "name": "C#4",
          "midi": 61,
          "time": 74.34199374999992,
          "velocity": 0.7874015748031497,
          "duration": 0.06469288541666174
        },
        {
          "name": "F4",
          "midi": 65,
          "time": 74.34199374999992,
          "velocity": 0.7874015748031497,
          "duration": 0.06469288541666174
        },
        {
          "name": "C#5",
          "midi": 73,
          "time": 74.34199374999992,
          "velocity": 0.7874015748031497,
          "duration": 0.06469288541666174
        },
        {
          "name": "F5",
          "midi": 77,
          "time": 74.34199374999992,
          "velocity": 0.7874015748031497,
          "duration": 0.06469288541666174
        },
        {
          "name": "D6",
          "midi": 86,
          "time": 74.34199374999992,
          "velocity": 0.7874015748031497,
          "duration": 0.06469288541666174
        },
        {
          "name": "F6",
          "midi": 89,
          "time": 74.34199374999992,
          "velocity": 0.7874015748031497,
          "duration": 0.06469288541666174
        },
        {
          "name": "C#7",
          "midi": 97,
          "time": 74.34199374999992,
          "velocity": 0.7874015748031497,
          "duration": 0.06469288541666174
        },
        {
          "name": "F7",
          "midi": 101,
          "time": 74.34199374999992,
          "velocity": 0.7874015748031497,
          "duration": 0.06469288541666174
        },
        {
          "name": "C#6",
          "midi": 85,
          "time": 74.4735724999999,
          "velocity": 0.7874015748031497,
          "duration": 0.06469288541666174
        },
        {
          "name": "F6",
          "midi": 89,
          "time": 74.4735724999999,
          "velocity": 0.7874015748031497,
          "duration": 0.06469288541666174
        },
        {
          "name": "D7",
          "midi": 98,
          "time": 74.4735724999999,
          "velocity": 0.7874015748031497,
          "duration": 0.06469288541666174
        },
        {
          "name": "F7",
          "midi": 101,
          "time": 74.4735724999999,
          "velocity": 0.7874015748031497,
          "duration": 0.06469288541666174
        },
        {
          "name": "C#7",
          "midi": 97,
          "time": 74.60515124999989,
          "velocity": 0.7874015748031497,
          "duration": 0.06469288541666174
        },
        {
          "name": "F7",
          "midi": 101,
          "time": 74.60515124999989,
          "velocity": 0.7874015748031497,
          "duration": 0.06469288541666174
        },
        {
          "name": "C4",
          "midi": 60,
          "time": 74.73672999999988,
          "velocity": 0.7874015748031497,
          "duration": 0.39254327083332896
        },
        {
          "name": "F#4",
          "midi": 66,
          "time": 74.73672999999988,
          "velocity": 0.7874015748031497,
          "duration": 0.39254327083332896
        },
        {
          "name": "C5",
          "midi": 72,
          "time": 74.73672999999988,
          "velocity": 0.7874015748031497,
          "duration": 0.39254327083332896
        },
        {
          "name": "F#5",
          "midi": 78,
          "time": 74.73672999999988,
          "velocity": 0.7874015748031497,
          "duration": 0.39254327083332896
        },
        {
          "name": "C6",
          "midi": 84,
          "time": 74.73672999999988,
          "velocity": 0.7874015748031497,
          "duration": 0.39254327083332896
        },
        {
          "name": "F#6",
          "midi": 90,
          "time": 74.73672999999988,
          "velocity": 0.7874015748031497,
          "duration": 0.39254327083332896
        },
        {
          "name": "C7",
          "midi": 96,
          "time": 74.73672999999988,
          "velocity": 0.7874015748031497,
          "duration": 0.39254327083332896
        },
        {
          "name": "F7",
          "midi": 101,
          "time": 74.73672999999988,
          "velocity": 0.7874015748031497,
          "duration": 0.39254327083332896
        },
        {
          "name": "C#4",
          "midi": 61,
          "time": 75.13146624999987,
          "velocity": 0.7874015748031497,
          "duration": 0.39254327083332896
        },
        {
          "name": "F#4",
          "midi": 66,
          "time": 75.13146624999987,
          "velocity": 0.7874015748031497,
          "duration": 0.39254327083332896
        },
        {
          "name": "C#5",
          "midi": 73,
          "time": 75.13146624999987,
          "velocity": 0.7874015748031497,
          "duration": 0.39254327083332896
        },
        {
          "name": "F#5",
          "midi": 78,
          "time": 75.13146624999987,
          "velocity": 0.7874015748031497,
          "duration": 0.39254327083332896
        },
        {
          "name": "C#6",
          "midi": 85,
          "time": 75.13146624999987,
          "velocity": 0.7874015748031497,
          "duration": 0.39254327083332896
        },
        {
          "name": "F#6",
          "midi": 90,
          "time": 75.13146624999987,
          "velocity": 0.7874015748031497,
          "duration": 0.39254327083332896
        },
        {
          "name": "C#7",
          "midi": 97,
          "time": 75.13146624999987,
          "velocity": 0.7874015748031497,
          "duration": 0.39254327083332896
        },
        {
          "name": "F#7",
          "midi": 102,
          "time": 75.13146624999987,
          "velocity": 0.7874015748031497,
          "duration": 0.39254327083332896
        },
        {
          "name": "C4",
          "midi": 60,
          "time": 75.52620249999987,
          "velocity": 0.7874015748031497,
          "duration": 0.06469288541666174
        },
        {
          "name": "F#4",
          "midi": 66,
          "time": 75.52620249999987,
          "velocity": 0.7874015748031497,
          "duration": 0.06469288541666174
        },
        {
          "name": "C5",
          "midi": 72,
          "time": 75.52620249999987,
          "velocity": 0.7874015748031497,
          "duration": 0.06469288541666174
        },
        {
          "name": "C6",
          "midi": 84,
          "time": 75.52620249999987,
          "velocity": 0.7874015748031497,
          "duration": 0.06469288541666174
        },
        {
          "name": "C7",
          "midi": 96,
          "time": 75.52620249999987,
          "velocity": 0.7874015748031497,
          "duration": 0.06469288541666174
        },
        {
          "name": "D4",
          "midi": 62,
          "time": 75.78935999999986,
          "velocity": 0.7874015748031497,
          "duration": 0.06578937499999427
        },
        {
          "name": "F#4",
          "midi": 66,
          "time": 75.78935999999986,
          "velocity": 0.7874015748031497,
          "duration": 0.06578937499999427
        },
        {
          "name": "D5",
          "midi": 74,
          "time": 75.78935999999986,
          "velocity": 0.7874015748031497,
          "duration": 0.06578937499999427
        },
        {
          "name": "F#5",
          "midi": 78,
          "time": 75.78935999999986,
          "velocity": 0.7874015748031497,
          "duration": 0.06578937499999427
        },
        {
          "name": "D#6",
          "midi": 87,
          "time": 75.78935999999986,
          "velocity": 0.7874015748031497,
          "duration": 0.06578937499999427
        },
        {
          "name": "F#6",
          "midi": 90,
          "time": 75.78935999999986,
          "velocity": 0.7874015748031497,
          "duration": 0.06578937499999427
        },
        {
          "name": "D#7",
          "midi": 99,
          "time": 75.78935999999986,
          "velocity": 0.7874015748031497,
          "duration": 0.06578937499999427
        },
        {
          "name": "F#7",
          "midi": 102,
          "time": 75.78935999999986,
          "velocity": 0.7874015748031497,
          "duration": 0.06578937499999427
        },
        {
          "name": "D#7",
          "midi": 99,
          "time": 75.92203523958318,
          "velocity": 0.7874015748031497,
          "duration": 0.06578937499999427
        },
        {
          "name": "F#7",
          "midi": 102,
          "time": 75.92203523958318,
          "velocity": 0.7874015748031497,
          "duration": 0.06578937499999427
        },
        {
          "name": "C#5",
          "midi": 73,
          "time": 76.05361398958317,
          "velocity": 0.7874015748031497,
          "duration": 0.06469288541666174
        },
        {
          "name": "F5",
          "midi": 77,
          "time": 76.05361398958317,
          "velocity": 0.7874015748031497,
          "duration": 0.06469288541666174
        },
        {
          "name": "D6",
          "midi": 86,
          "time": 76.05361398958317,
          "velocity": 0.7874015748031497,
          "duration": 0.06469288541666174
        },
        {
          "name": "F6",
          "midi": 89,
          "time": 76.05361398958317,
          "velocity": 0.7874015748031497,
          "duration": 0.06469288541666174
        },
        {
          "name": "D7",
          "midi": 98,
          "time": 76.05361398958317,
          "velocity": 0.7874015748031497,
          "duration": 0.06469288541666174
        },
        {
          "name": "F7",
          "midi": 101,
          "time": 76.05361398958317,
          "velocity": 0.7874015748031497,
          "duration": 0.06469288541666174
        },
        {
          "name": "D4",
          "midi": 62,
          "time": 76.18409624999983,
          "velocity": 0.7874015748031497,
          "duration": 0.06578937499999427
        },
        {
          "name": "F#4",
          "midi": 66,
          "time": 76.18409624999983,
          "velocity": 0.7874015748031497,
          "duration": 0.06578937499999427
        },
        {
          "name": "D5",
          "midi": 74,
          "time": 76.18409624999983,
          "velocity": 0.7874015748031497,
          "duration": 0.06578937499999427
        },
        {
          "name": "F5",
          "midi": 77,
          "time": 76.18409624999983,
          "velocity": 0.7874015748031497,
          "duration": 0.06578937499999427
        },
        {
          "name": "D#6",
          "midi": 87,
          "time": 76.18409624999983,
          "velocity": 0.7874015748031497,
          "duration": 0.06578937499999427
        },
        {
          "name": "F6",
          "midi": 89,
          "time": 76.18409624999983,
          "velocity": 0.7874015748031497,
          "duration": 0.06578937499999427
        },
        {
          "name": "D#7",
          "midi": 99,
          "time": 76.18409624999983,
          "velocity": 0.7874015748031497,
          "duration": 0.06578937499999427
        },
        {
          "name": "F7",
          "midi": 101,
          "time": 76.18409624999983,
          "velocity": 0.7874015748031497,
          "duration": 0.06578937499999427
        },
        {
          "name": "D7",
          "midi": 98,
          "time": 76.31567499999981,
          "velocity": 0.7874015748031497,
          "duration": 0.06469288541666174
        },
        {
          "name": "F7",
          "midi": 101,
          "time": 76.31567499999981,
          "velocity": 0.7874015748031497,
          "duration": 0.06469288541666174
        },
        {
          "name": "C#4",
          "midi": 61,
          "time": 76.4472537499998,
          "velocity": 0.7874015748031497,
          "duration": 0.06469288541666174
        },
        {
          "name": "F4",
          "midi": 65,
          "time": 76.4472537499998,
          "velocity": 0.7874015748031497,
          "duration": 0.06469288541666174
        },
        {
          "name": "C#5",
          "midi": 73,
          "time": 76.4472537499998,
          "velocity": 0.7874015748031497,
          "duration": 0.06469288541666174
        },
        {
          "name": "F5",
          "midi": 77,
          "time": 76.4472537499998,
          "velocity": 0.7874015748031497,
          "duration": 0.06469288541666174
        },
        {
          "name": "D6",
          "midi": 86,
          "time": 76.4472537499998,
          "velocity": 0.7874015748031497,
          "duration": 0.06469288541666174
        },
        {
          "name": "F6",
          "midi": 89,
          "time": 76.4472537499998,
          "velocity": 0.7874015748031497,
          "duration": 0.06469288541666174
        },
        {
          "name": "C#7",
          "midi": 97,
          "time": 76.4472537499998,
          "velocity": 0.7874015748031497,
          "duration": 0.06469288541666174
        },
        {
          "name": "F7",
          "midi": 101,
          "time": 76.4472537499998,
          "velocity": 0.7874015748031497,
          "duration": 0.06469288541666174
        },
        {
          "name": "C#6",
          "midi": 85,
          "time": 76.57992898958314,
          "velocity": 0.7874015748031497,
          "duration": 0.06469288541666174
        },
        {
          "name": "F6",
          "midi": 89,
          "time": 76.57992898958314,
          "velocity": 0.7874015748031497,
          "duration": 0.06469288541666174
        },
        {
          "name": "C#7",
          "midi": 97,
          "time": 76.57992898958314,
          "velocity": 0.7874015748031497,
          "duration": 0.06469288541666174
        },
        {
          "name": "F#7",
          "midi": 102,
          "time": 76.57992898958314,
          "velocity": 0.7874015748031497,
          "duration": 0.06469288541666174
        },
        {
          "name": "C4",
          "midi": 60,
          "time": 76.8419899999998,
          "velocity": 0.7874015748031497,
          "duration": 1.051533510416661
        },
        {
          "name": "F#4",
          "midi": 66,
          "time": 76.8419899999998,
          "velocity": 0.7874015748031497,
          "duration": 1.0504370208333285
        },
        {
          "name": "C5",
          "midi": 72,
          "time": 76.8419899999998,
          "velocity": 0.7874015748031497,
          "duration": 1.051533510416661
        },
        {
          "name": "F#5",
          "midi": 78,
          "time": 76.8419899999998,
          "velocity": 0.7874015748031497,
          "duration": 1.0504370208333285
        },
        {
          "name": "C6",
          "midi": 84,
          "time": 76.8419899999998,
          "velocity": 0.7874015748031497,
          "duration": 1.051533510416661
        },
        {
          "name": "F#6",
          "midi": 90,
          "time": 76.8419899999998,
          "velocity": 0.7874015748031497,
          "duration": 1.0504370208333285
        },
        {
          "name": "C7",
          "midi": 96,
          "time": 76.8419899999998,
          "velocity": 0.7874015748031497,
          "duration": 1.051533510416661
        },
        {
          "name": "F#7",
          "midi": 102,
          "time": 76.8419899999998,
          "velocity": 0.7874015748031497,
          "duration": 1.0504370208333285
        },
        {
          "name": "D4",
          "midi": 62,
          "time": 77.89461999999979,
          "velocity": 0.7874015748031497,
          "duration": 0.06578937499999427
        },
        {
          "name": "F#4",
          "midi": 66,
          "time": 77.89461999999979,
          "velocity": 0.7874015748031497,
          "duration": 0.06578937499999427
        },
        {
          "name": "D5",
          "midi": 74,
          "time": 77.89461999999979,
          "velocity": 0.7874015748031497,
          "duration": 0.06578937499999427
        },
        {
          "name": "F#5",
          "midi": 78,
          "time": 77.89461999999979,
          "velocity": 0.7874015748031497,
          "duration": 0.06578937499999427
        },
        {
          "name": "D#6",
          "midi": 87,
          "time": 77.89461999999979,
          "velocity": 0.7874015748031497,
          "duration": 0.06578937499999427
        },
        {
          "name": "F#6",
          "midi": 90,
          "time": 77.89461999999979,
          "velocity": 0.7874015748031497,
          "duration": 0.06578937499999427
        },
        {
          "name": "D#7",
          "midi": 99,
          "time": 77.89461999999979,
          "velocity": 0.7874015748031497,
          "duration": 0.06578937499999427
        },
        {
          "name": "F#7",
          "midi": 102,
          "time": 77.89461999999979,
          "velocity": 0.7874015748031497,
          "duration": 0.06578937499999427
        },
        {
          "name": "D#7",
          "midi": 99,
          "time": 78.02729523958311,
          "velocity": 0.7874015748031497,
          "duration": 0.06469288541666174
        },
        {
          "name": "F#7",
          "midi": 102,
          "time": 78.02729523958311,
          "velocity": 0.7874015748031497,
          "duration": 0.06469288541666174
        },
        {
          "name": "C#5",
          "midi": 73,
          "time": 78.15777749999977,
          "velocity": 0.7874015748031497,
          "duration": 0.06578937499999427
        },
        {
          "name": "F5",
          "midi": 77,
          "time": 78.15777749999977,
          "velocity": 0.7874015748031497,
          "duration": 0.06578937499999427
        },
        {
          "name": "D6",
          "midi": 86,
          "time": 78.15777749999977,
          "velocity": 0.7874015748031497,
          "duration": 0.06578937499999427
        },
        {
          "name": "F6",
          "midi": 89,
          "time": 78.15777749999977,
          "velocity": 0.7874015748031497,
          "duration": 0.06578937499999427
        },
        {
          "name": "D7",
          "midi": 98,
          "time": 78.15777749999977,
          "velocity": 0.7874015748031497,
          "duration": 0.06578937499999427
        },
        {
          "name": "F7",
          "midi": 101,
          "time": 78.15777749999977,
          "velocity": 0.7874015748031497,
          "duration": 0.06578937499999427
        },
        {
          "name": "D4",
          "midi": 62,
          "time": 78.28825976041642,
          "velocity": 0.7874015748031497,
          "duration": 0.06578937499999427
        },
        {
          "name": "F#4",
          "midi": 66,
          "time": 78.28825976041642,
          "velocity": 0.7874015748031497,
          "duration": 0.06578937499999427
        },
        {
          "name": "D5",
          "midi": 74,
          "time": 78.28825976041642,
          "velocity": 0.7874015748031497,
          "duration": 0.06578937499999427
        },
        {
          "name": "F5",
          "midi": 77,
          "time": 78.28825976041642,
          "velocity": 0.7874015748031497,
          "duration": 0.06578937499999427
        },
        {
          "name": "D#6",
          "midi": 87,
          "time": 78.28825976041642,
          "velocity": 0.7874015748031497,
          "duration": 0.06578937499999427
        },
        {
          "name": "F6",
          "midi": 89,
          "time": 78.28825976041642,
          "velocity": 0.7874015748031497,
          "duration": 0.06578937499999427
        },
        {
          "name": "D#7",
          "midi": 99,
          "time": 78.28825976041642,
          "velocity": 0.7874015748031497,
          "duration": 0.06578937499999427
        },
        {
          "name": "F7",
          "midi": 101,
          "time": 78.28825976041642,
          "velocity": 0.7874015748031497,
          "duration": 0.06578937499999427
        },
        {
          "name": "D7",
          "midi": 98,
          "time": 78.42093499999974,
          "velocity": 0.7874015748031497,
          "duration": 0.06469288541666174
        },
        {
          "name": "F7",
          "midi": 101,
          "time": 78.42093499999974,
          "velocity": 0.7874015748031497,
          "duration": 0.06469288541666174
        },
        {
          "name": "C#4",
          "midi": 61,
          "time": 78.55251374999973,
          "velocity": 0.7874015748031497,
          "duration": 0.06469288541666174
        },
        {
          "name": "F4",
          "midi": 65,
          "time": 78.55251374999973,
          "velocity": 0.7874015748031497,
          "duration": 0.06469288541666174
        },
        {
          "name": "C#5",
          "midi": 73,
          "time": 78.55251374999973,
          "velocity": 0.7874015748031497,
          "duration": 0.06469288541666174
        },
        {
          "name": "F5",
          "midi": 77,
          "time": 78.55251374999973,
          "velocity": 0.7874015748031497,
          "duration": 0.06469288541666174
        },
        {
          "name": "D6",
          "midi": 86,
          "time": 78.55251374999973,
          "velocity": 0.7874015748031497,
          "duration": 0.06469288541666174
        },
        {
          "name": "F6",
          "midi": 89,
          "time": 78.55251374999973,
          "velocity": 0.7874015748031497,
          "duration": 0.06469288541666174
        },
        {
          "name": "C#7",
          "midi": 97,
          "time": 78.55251374999973,
          "velocity": 0.7874015748031497,
          "duration": 0.06469288541666174
        },
        {
          "name": "F7",
          "midi": 101,
          "time": 78.55251374999973,
          "velocity": 0.7874015748031497,
          "duration": 0.06469288541666174
        },
        {
          "name": "C#6",
          "midi": 85,
          "time": 78.68299601041639,
          "velocity": 0.7874015748031497,
          "duration": 0.06469288541666174
        },
        {
          "name": "F6",
          "midi": 89,
          "time": 78.68299601041639,
          "velocity": 0.7874015748031497,
          "duration": 0.06469288541666174
        },
        {
          "name": "D7",
          "midi": 98,
          "time": 78.68299601041639,
          "velocity": 0.7874015748031497,
          "duration": 0.06469288541666174
        },
        {
          "name": "F7",
          "midi": 101,
          "time": 78.68299601041639,
          "velocity": 0.7874015748031497,
          "duration": 0.06469288541666174
        },
        {
          "name": "C#7",
          "midi": 97,
          "time": 78.81567124999972,
          "velocity": 0.7874015748031497,
          "duration": 0.06469288541666174
        },
        {
          "name": "F7",
          "midi": 101,
          "time": 78.81567124999972,
          "velocity": 0.7874015748031497,
          "duration": 0.06469288541666174
        },
        {
          "name": "C4",
          "midi": 60,
          "time": 78.94724999999971,
          "velocity": 0.7874015748031497,
          "duration": 0.39254327083332896
        },
        {
          "name": "F#4",
          "midi": 66,
          "time": 78.94724999999971,
          "velocity": 0.7874015748031497,
          "duration": 0.39254327083332896
        },
        {
          "name": "C5",
          "midi": 72,
          "time": 78.94724999999971,
          "velocity": 0.7874015748031497,
          "duration": 0.39254327083332896
        },
        {
          "name": "F#5",
          "midi": 78,
          "time": 78.94724999999971,
          "velocity": 0.7874015748031497,
          "duration": 0.39254327083332896
        },
        {
          "name": "C6",
          "midi": 84,
          "time": 78.94724999999971,
          "velocity": 0.7874015748031497,
          "duration": 0.39254327083332896
        },
        {
          "name": "F#6",
          "midi": 90,
          "time": 78.94724999999971,
          "velocity": 0.7874015748031497,
          "duration": 0.39254327083332896
        },
        {
          "name": "C7",
          "midi": 96,
          "time": 78.94724999999971,
          "velocity": 0.7874015748031497,
          "duration": 0.39254327083332896
        },
        {
          "name": "F7",
          "midi": 101,
          "time": 78.94724999999971,
          "velocity": 0.7874015748031497,
          "duration": 0.39254327083332896
        },
        {
          "name": "C#4",
          "midi": 61,
          "time": 79.3419862499997,
          "velocity": 0.7874015748031497,
          "duration": 0.39144678124999643
        },
        {
          "name": "F#4",
          "midi": 66,
          "time": 79.3419862499997,
          "velocity": 0.7874015748031497,
          "duration": 0.39144678124999643
        },
        {
          "name": "C#5",
          "midi": 73,
          "time": 79.3419862499997,
          "velocity": 0.7874015748031497,
          "duration": 0.39144678124999643
        },
        {
          "name": "F#5",
          "midi": 78,
          "time": 79.3419862499997,
          "velocity": 0.7874015748031497,
          "duration": 0.39144678124999643
        },
        {
          "name": "C#6",
          "midi": 85,
          "time": 79.3419862499997,
          "velocity": 0.7874015748031497,
          "duration": 0.39144678124999643
        },
        {
          "name": "F#6",
          "midi": 90,
          "time": 79.3419862499997,
          "velocity": 0.7874015748031497,
          "duration": 0.39144678124999643
        },
        {
          "name": "C#7",
          "midi": 97,
          "time": 79.3419862499997,
          "velocity": 0.7874015748031497,
          "duration": 0.39144678124999643
        },
        {
          "name": "F#7",
          "midi": 102,
          "time": 79.3419862499997,
          "velocity": 0.7874015748031497,
          "duration": 0.39144678124999643
        },
        {
          "name": "C4",
          "midi": 60,
          "time": 79.73562601041637,
          "velocity": 0.7874015748031497,
          "duration": 0.06578937499999427
        },
        {
          "name": "F#4",
          "midi": 66,
          "time": 79.73562601041637,
          "velocity": 0.7874015748031497,
          "duration": 0.06578937499999427
        },
        {
          "name": "C5",
          "midi": 72,
          "time": 79.73562601041637,
          "velocity": 0.7874015748031497,
          "duration": 0.06578937499999427
        },
        {
          "name": "C6",
          "midi": 84,
          "time": 79.73562601041637,
          "velocity": 0.7874015748031497,
          "duration": 0.06578937499999427
        },
        {
          "name": "C7",
          "midi": 96,
          "time": 79.73562601041637,
          "velocity": 0.7874015748031497,
          "duration": 0.06578937499999427
        },
        {
          "name": "D4",
          "midi": 62,
          "time": 79.99987999999969,
          "velocity": 0.7874015748031497,
          "duration": 0.06578937499999427
        },
        {
          "name": "F#4",
          "midi": 66,
          "time": 79.99987999999969,
          "velocity": 0.7874015748031497,
          "duration": 0.06578937499999427
        },
        {
          "name": "D#5",
          "midi": 75,
          "time": 79.99987999999969,
          "velocity": 0.7874015748031497,
          "duration": 0.06578937499999427
        },
        {
          "name": "F#5",
          "midi": 78,
          "time": 79.99987999999969,
          "velocity": 0.7874015748031497,
          "duration": 0.06578937499999427
        },
        {
          "name": "E6",
          "midi": 88,
          "time": 79.99987999999969,
          "velocity": 0.7874015748031497,
          "duration": 0.06578937499999427
        },
        {
          "name": "F#6",
          "midi": 90,
          "time": 79.99987999999969,
          "velocity": 0.7874015748031497,
          "duration": 0.06578937499999427
        },
        {
          "name": "E7",
          "midi": 100,
          "time": 79.99987999999969,
          "velocity": 0.7874015748031497,
          "duration": 0.06578937499999427
        },
        {
          "name": "F#7",
          "midi": 102,
          "time": 79.99987999999969,
          "velocity": 0.7874015748031497,
          "duration": 0.06578937499999427
        },
        {
          "name": "E7",
          "midi": 100,
          "time": 80.13145874999968,
          "velocity": 0.7874015748031497,
          "duration": 0.06578937499999427
        },
        {
          "name": "F#7",
          "midi": 102,
          "time": 80.13145874999968,
          "velocity": 0.7874015748031497,
          "duration": 0.06578937499999427
        },
        {
          "name": "D5",
          "midi": 74,
          "time": 80.264133989583,
          "velocity": 0.7874015748031497,
          "duration": 0.06469288541666174
        },
        {
          "name": "F5",
          "midi": 77,
          "time": 80.264133989583,
          "velocity": 0.7874015748031497,
          "duration": 0.06469288541666174
        },
        {
          "name": "D#6",
          "midi": 87,
          "time": 80.264133989583,
          "velocity": 0.7874015748031497,
          "duration": 0.06469288541666174
        },
        {
          "name": "F6",
          "midi": 89,
          "time": 80.264133989583,
          "velocity": 0.7874015748031497,
          "duration": 0.06469288541666174
        },
        {
          "name": "D#7",
          "midi": 99,
          "time": 80.264133989583,
          "velocity": 0.7874015748031497,
          "duration": 0.06469288541666174
        },
        {
          "name": "F7",
          "midi": 101,
          "time": 80.264133989583,
          "velocity": 0.7874015748031497,
          "duration": 0.06469288541666174
        },
        {
          "name": "D4",
          "midi": 62,
          "time": 80.39461624999966,
          "velocity": 0.7874015748031497,
          "duration": 0.06469288541666174
        },
        {
          "name": "F#4",
          "midi": 66,
          "time": 80.39461624999966,
          "velocity": 0.7874015748031497,
          "duration": 0.06469288541666174
        },
        {
          "name": "D#5",
          "midi": 75,
          "time": 80.39461624999966,
          "velocity": 0.7874015748031497,
          "duration": 0.06469288541666174
        },
        {
          "name": "F5",
          "midi": 77,
          "time": 80.39461624999966,
          "velocity": 0.7874015748031497,
          "duration": 0.06469288541666174
        },
        {
          "name": "E6",
          "midi": 88,
          "time": 80.39461624999966,
          "velocity": 0.7874015748031497,
          "duration": 0.06469288541666174
        },
        {
          "name": "F6",
          "midi": 89,
          "time": 80.39461624999966,
          "velocity": 0.7874015748031497,
          "duration": 0.06469288541666174
        },
        {
          "name": "E7",
          "midi": 100,
          "time": 80.39461624999966,
          "velocity": 0.7874015748031497,
          "duration": 0.06469288541666174
        },
        {
          "name": "F7",
          "midi": 101,
          "time": 80.39461624999966,
          "velocity": 0.7874015748031497,
          "duration": 0.06469288541666174
        },
        {
          "name": "D#7",
          "midi": 99,
          "time": 80.52619499999965,
          "velocity": 0.7874015748031497,
          "duration": 0.06578937499999427
        },
        {
          "name": "F7",
          "midi": 101,
          "time": 80.52619499999965,
          "velocity": 0.7874015748031497,
          "duration": 0.06578937499999427
        },
        {
          "name": "C#4",
          "midi": 61,
          "time": 80.65777374999963,
          "velocity": 0.7874015748031497,
          "duration": 0.06578937499999427
        },
        {
          "name": "F4",
          "midi": 65,
          "time": 80.65777374999963,
          "velocity": 0.7874015748031497,
          "duration": 0.06578937499999427
        },
        {
          "name": "D5",
          "midi": 74,
          "time": 80.65777374999963,
          "velocity": 0.7874015748031497,
          "duration": 0.06578937499999427
        },
        {
          "name": "F5",
          "midi": 77,
          "time": 80.65777374999963,
          "velocity": 0.7874015748031497,
          "duration": 0.06578937499999427
        },
        {
          "name": "D#6",
          "midi": 87,
          "time": 80.65777374999963,
          "velocity": 0.7874015748031497,
          "duration": 0.06578937499999427
        },
        {
          "name": "F6",
          "midi": 89,
          "time": 80.65777374999963,
          "velocity": 0.7874015748031497,
          "duration": 0.06578937499999427
        },
        {
          "name": "D7",
          "midi": 98,
          "time": 80.65777374999963,
          "velocity": 0.7874015748031497,
          "duration": 0.06578937499999427
        },
        {
          "name": "F7",
          "midi": 101,
          "time": 80.65777374999963,
          "velocity": 0.7874015748031497,
          "duration": 0.06578937499999427
        },
        {
          "name": "D6",
          "midi": 86,
          "time": 80.79044898958296,
          "velocity": 0.7874015748031497,
          "duration": 0.06469288541666174
        },
        {
          "name": "F6",
          "midi": 89,
          "time": 80.79044898958296,
          "velocity": 0.7874015748031497,
          "duration": 0.06469288541666174
        },
        {
          "name": "D7",
          "midi": 98,
          "time": 80.79044898958296,
          "velocity": 0.7874015748031497,
          "duration": 0.06469288541666174
        },
        {
          "name": "F#7",
          "midi": 102,
          "time": 80.79044898958296,
          "velocity": 0.7874015748031497,
          "duration": 0.06469288541666174
        },
        {
          "name": "C4",
          "midi": 60,
          "time": 81.05250999999961,
          "velocity": 0.7874015748031497,
          "duration": 1.051533510416661
        },
        {
          "name": "F#4",
          "midi": 66,
          "time": 81.05250999999961,
          "velocity": 0.7874015748031497,
          "duration": 1.0504370208333285
        },
        {
          "name": "C#5",
          "midi": 73,
          "time": 81.05250999999961,
          "velocity": 0.7874015748031497,
          "duration": 1.051533510416661
        },
        {
          "name": "F#5",
          "midi": 78,
          "time": 81.05250999999961,
          "velocity": 0.7874015748031497,
          "duration": 1.0504370208333285
        },
        {
          "name": "C#6",
          "midi": 85,
          "time": 81.05250999999961,
          "velocity": 0.7874015748031497,
          "duration": 1.051533510416661
        },
        {
          "name": "F#6",
          "midi": 90,
          "time": 81.05250999999961,
          "velocity": 0.7874015748031497,
          "duration": 1.0504370208333285
        },
        {
          "name": "C#7",
          "midi": 97,
          "time": 81.05250999999961,
          "velocity": 0.7874015748031497,
          "duration": 1.051533510416661
        },
        {
          "name": "F#7",
          "midi": 102,
          "time": 81.05250999999961,
          "velocity": 0.7874015748031497,
          "duration": 1.0504370208333285
        },
        {
          "name": "D4",
          "midi": 62,
          "time": 82.10513999999961,
          "velocity": 0.7874015748031497,
          "duration": 0.06469288541666174
        },
        {
          "name": "F#4",
          "midi": 66,
          "time": 82.10513999999961,
          "velocity": 0.7874015748031497,
          "duration": 0.06469288541666174
        },
        {
          "name": "D#5",
          "midi": 75,
          "time": 82.10513999999961,
          "velocity": 0.7874015748031497,
          "duration": 0.06469288541666174
        },
        {
          "name": "F#5",
          "midi": 78,
          "time": 82.10513999999961,
          "velocity": 0.7874015748031497,
          "duration": 0.06469288541666174
        },
        {
          "name": "E6",
          "midi": 88,
          "time": 82.10513999999961,
          "velocity": 0.7874015748031497,
          "duration": 0.06469288541666174
        },
        {
          "name": "F#6",
          "midi": 90,
          "time": 82.10513999999961,
          "velocity": 0.7874015748031497,
          "duration": 0.06469288541666174
        },
        {
          "name": "E7",
          "midi": 100,
          "time": 82.10513999999961,
          "velocity": 0.7874015748031497,
          "duration": 0.06469288541666174
        },
        {
          "name": "F#7",
          "midi": 102,
          "time": 82.10513999999961,
          "velocity": 0.7874015748031497,
          "duration": 0.06469288541666174
        },
        {
          "name": "E7",
          "midi": 100,
          "time": 82.23781523958294,
          "velocity": 0.7874015748031497,
          "duration": 0.06469288541666174
        },
        {
          "name": "F#7",
          "midi": 102,
          "time": 82.23781523958294,
          "velocity": 0.7874015748031497,
          "duration": 0.06469288541666174
        },
        {
          "name": "D5",
          "midi": 74,
          "time": 82.3682974999996,
          "velocity": 0.7874015748031497,
          "duration": 0.06469288541666174
        },
        {
          "name": "F5",
          "midi": 77,
          "time": 82.3682974999996,
          "velocity": 0.7874015748031497,
          "duration": 0.06469288541666174
        },
        {
          "name": "D#6",
          "midi": 87,
          "time": 82.3682974999996,
          "velocity": 0.7874015748031497,
          "duration": 0.06469288541666174
        },
        {
          "name": "F6",
          "midi": 89,
          "time": 82.3682974999996,
          "velocity": 0.7874015748031497,
          "duration": 0.06469288541666174
        },
        {
          "name": "D#7",
          "midi": 99,
          "time": 82.3682974999996,
          "velocity": 0.7874015748031497,
          "duration": 0.06469288541666174
        },
        {
          "name": "F7",
          "midi": 101,
          "time": 82.3682974999996,
          "velocity": 0.7874015748031497,
          "duration": 0.06469288541666174
        },
        {
          "name": "D4",
          "midi": 62,
          "time": 82.50097273958293,
          "velocity": 0.7874015748031497,
          "duration": 0.06469288541666174
        },
        {
          "name": "F#4",
          "midi": 66,
          "time": 82.50097273958293,
          "velocity": 0.7874015748031497,
          "duration": 0.06469288541666174
        },
        {
          "name": "D#5",
          "midi": 75,
          "time": 82.50097273958293,
          "velocity": 0.7874015748031497,
          "duration": 0.06469288541666174
        },
        {
          "name": "F5",
          "midi": 77,
          "time": 82.50097273958293,
          "velocity": 0.7874015748031497,
          "duration": 0.06469288541666174
        },
        {
          "name": "E6",
          "midi": 88,
          "time": 82.50097273958293,
          "velocity": 0.7874015748031497,
          "duration": 0.06469288541666174
        },
        {
          "name": "F6",
          "midi": 89,
          "time": 82.50097273958293,
          "velocity": 0.7874015748031497,
          "duration": 0.06469288541666174
        },
        {
          "name": "E7",
          "midi": 100,
          "time": 82.50097273958293,
          "velocity": 0.7874015748031497,
          "duration": 0.06469288541666174
        },
        {
          "name": "F7",
          "midi": 101,
          "time": 82.50097273958293,
          "velocity": 0.7874015748031497,
          "duration": 0.06469288541666174
        },
        {
          "name": "D#7",
          "midi": 99,
          "time": 82.63145499999959,
          "velocity": 0.7874015748031497,
          "duration": 0.06578937499999427
        },
        {
          "name": "F7",
          "midi": 101,
          "time": 82.63145499999959,
          "velocity": 0.7874015748031497,
          "duration": 0.06578937499999427
        },
        {
          "name": "C#4",
          "midi": 61,
          "time": 82.76193726041625,
          "velocity": 0.7874015748031497,
          "duration": 0.06578937499999427
        },
        {
          "name": "F4",
          "midi": 65,
          "time": 82.76193726041625,
          "velocity": 0.7874015748031497,
          "duration": 0.06578937499999427
        },
        {
          "name": "D5",
          "midi": 74,
          "time": 82.76193726041625,
          "velocity": 0.7874015748031497,
          "duration": 0.06578937499999427
        },
        {
          "name": "F5",
          "midi": 77,
          "time": 82.76193726041625,
          "velocity": 0.7874015748031497,
          "duration": 0.06578937499999427
        },
        {
          "name": "D#6",
          "midi": 87,
          "time": 82.76193726041625,
          "velocity": 0.7874015748031497,
          "duration": 0.06578937499999427
        },
        {
          "name": "F6",
          "midi": 89,
          "time": 82.76193726041625,
          "velocity": 0.7874015748031497,
          "duration": 0.06578937499999427
        },
        {
          "name": "D7",
          "midi": 98,
          "time": 82.76193726041625,
          "velocity": 0.7874015748031497,
          "duration": 0.06578937499999427
        },
        {
          "name": "F7",
          "midi": 101,
          "time": 82.76193726041625,
          "velocity": 0.7874015748031497,
          "duration": 0.06578937499999427
        },
        {
          "name": "D6",
          "midi": 86,
          "time": 82.89461249999957,
          "velocity": 0.7874015748031497,
          "duration": 0.06578937499999427
        },
        {
          "name": "F6",
          "midi": 89,
          "time": 82.89461249999957,
          "velocity": 0.7874015748031497,
          "duration": 0.06578937499999427
        },
        {
          "name": "D#7",
          "midi": 99,
          "time": 82.89461249999957,
          "velocity": 0.7874015748031497,
          "duration": 0.06578937499999427
        },
        {
          "name": "F7",
          "midi": 101,
          "time": 82.89461249999957,
          "velocity": 0.7874015748031497,
          "duration": 0.06578937499999427
        },
        {
          "name": "D7",
          "midi": 98,
          "time": 83.02509476041622,
          "velocity": 0.7874015748031497,
          "duration": 0.06578937499999427
        },
        {
          "name": "F7",
          "midi": 101,
          "time": 83.02509476041622,
          "velocity": 0.7874015748031497,
          "duration": 0.06578937499999427
        },
        {
          "name": "C#4",
          "midi": 61,
          "time": 83.15776999999954,
          "velocity": 0.7874015748031497,
          "duration": 0.39144678124999643
        },
        {
          "name": "F#4",
          "midi": 66,
          "time": 83.15776999999954,
          "velocity": 0.7874015748031497,
          "duration": 0.39144678124999643
        },
        {
          "name": "C#5",
          "midi": 73,
          "time": 83.15776999999954,
          "velocity": 0.7874015748031497,
          "duration": 0.39144678124999643
        },
        {
          "name": "F#5",
          "midi": 78,
          "time": 83.15776999999954,
          "velocity": 0.7874015748031497,
          "duration": 0.39144678124999643
        },
        {
          "name": "C#6",
          "midi": 85,
          "time": 83.15776999999954,
          "velocity": 0.7874015748031497,
          "duration": 0.39144678124999643
        },
        {
          "name": "F#6",
          "midi": 90,
          "time": 83.15776999999954,
          "velocity": 0.7874015748031497,
          "duration": 0.39144678124999643
        },
        {
          "name": "C#7",
          "midi": 97,
          "time": 83.15776999999954,
          "velocity": 0.7874015748031497,
          "duration": 0.39144678124999643
        },
        {
          "name": "F7",
          "midi": 101,
          "time": 83.15776999999954,
          "velocity": 0.7874015748031497,
          "duration": 0.39144678124999643
        },
        {
          "name": "D4",
          "midi": 62,
          "time": 83.55360273958287,
          "velocity": 0.7874015748031497,
          "duration": 0.39144678124999643
        },
        {
          "name": "F#4",
          "midi": 66,
          "time": 83.55360273958287,
          "velocity": 0.7874015748031497,
          "duration": 0.39144678124999643
        },
        {
          "name": "D5",
          "midi": 74,
          "time": 83.55360273958287,
          "velocity": 0.7874015748031497,
          "duration": 0.39144678124999643
        },
        {
          "name": "F#5",
          "midi": 78,
          "time": 83.55360273958287,
          "velocity": 0.7874015748031497,
          "duration": 0.39144678124999643
        },
        {
          "name": "D6",
          "midi": 86,
          "time": 83.55360273958287,
          "velocity": 0.7874015748031497,
          "duration": 0.39144678124999643
        },
        {
          "name": "F#6",
          "midi": 90,
          "time": 83.55360273958287,
          "velocity": 0.7874015748031497,
          "duration": 0.39144678124999643
        },
        {
          "name": "D7",
          "midi": 98,
          "time": 83.55360273958287,
          "velocity": 0.7874015748031497,
          "duration": 0.39144678124999643
        },
        {
          "name": "F#7",
          "midi": 102,
          "time": 83.55360273958287,
          "velocity": 0.7874015748031497,
          "duration": 0.39144678124999643
        },
        {
          "name": "C#4",
          "midi": 61,
          "time": 83.94724249999953,
          "velocity": 0.7874015748031497,
          "duration": 0.06578937499999427
        },
        {
          "name": "F#4",
          "midi": 66,
          "time": 83.94724249999953,
          "velocity": 0.7874015748031497,
          "duration": 0.06578937499999427
        },
        {
          "name": "C5",
          "midi": 72,
          "time": 83.94724249999953,
          "velocity": 0.7874015748031497,
          "duration": 0.06578937499999427
        },
        {
          "name": "F#5",
          "midi": 78,
          "time": 83.94724249999953,
          "velocity": 0.7874015748031497,
          "duration": 0.06578937499999427
        },
        {
          "name": "C6",
          "midi": 84,
          "time": 83.94724249999953,
          "velocity": 0.7874015748031497,
          "duration": 0.06578937499999427
        },
        {
          "name": "F#6",
          "midi": 90,
          "time": 83.94724249999953,
          "velocity": 0.7874015748031497,
          "duration": 0.06578937499999427
        },
        {
          "name": "C7",
          "midi": 96,
          "time": 83.94724249999953,
          "velocity": 0.7874015748031497,
          "duration": 0.06578937499999427
        },
        {
          "name": "F#7",
          "midi": 102,
          "time": 83.94724249999953,
          "velocity": 0.7874015748031497,
          "duration": 0.06578937499999427
        },
        {
          "name": "D4",
          "midi": 62,
          "time": 84.21039999999952,
          "velocity": 0.7874015748031497,
          "duration": 0.06469288541666174
        },
        {
          "name": "F#4",
          "midi": 66,
          "time": 84.21039999999952,
          "velocity": 0.7874015748031497,
          "duration": 0.06469288541666174
        },
        {
          "name": "D#5",
          "midi": 75,
          "time": 84.21039999999952,
          "velocity": 0.7874015748031497,
          "duration": 0.06469288541666174
        },
        {
          "name": "F#5",
          "midi": 78,
          "time": 84.21039999999952,
          "velocity": 0.7874015748031497,
          "duration": 0.06469288541666174
        },
        {
          "name": "E6",
          "midi": 88,
          "time": 84.21039999999952,
          "velocity": 0.7874015748031497,
          "duration": 0.06469288541666174
        },
        {
          "name": "F#6",
          "midi": 90,
          "time": 84.21039999999952,
          "velocity": 0.7874015748031497,
          "duration": 0.06469288541666174
        },
        {
          "name": "E7",
          "midi": 100,
          "time": 84.21039999999952,
          "velocity": 0.7874015748031497,
          "duration": 0.06469288541666174
        },
        {
          "name": "F#7",
          "midi": 102,
          "time": 84.21039999999952,
          "velocity": 0.7874015748031497,
          "duration": 0.06469288541666174
        },
        {
          "name": "E7",
          "midi": 100,
          "time": 84.34197874999951,
          "velocity": 0.7874015748031497,
          "duration": 0.06469288541666174
        },
        {
          "name": "F#7",
          "midi": 102,
          "time": 84.34197874999951,
          "velocity": 0.7874015748031497,
          "duration": 0.06469288541666174
        },
        {
          "name": "D5",
          "midi": 74,
          "time": 84.47465398958285,
          "velocity": 0.7874015748031497,
          "duration": 0.06469288541666174
        },
        {
          "name": "F5",
          "midi": 77,
          "time": 84.47465398958285,
          "velocity": 0.7874015748031497,
          "duration": 0.06469288541666174
        },
        {
          "name": "D#6",
          "midi": 87,
          "time": 84.47465398958285,
          "velocity": 0.7874015748031497,
          "duration": 0.06469288541666174
        },
        {
          "name": "F6",
          "midi": 89,
          "time": 84.47465398958285,
          "velocity": 0.7874015748031497,
          "duration": 0.06469288541666174
        },
        {
          "name": "D#7",
          "midi": 99,
          "time": 84.47465398958285,
          "velocity": 0.7874015748031497,
          "duration": 0.06469288541666174
        },
        {
          "name": "F7",
          "midi": 101,
          "time": 84.47465398958285,
          "velocity": 0.7874015748031497,
          "duration": 0.06469288541666174
        },
        {
          "name": "D4",
          "midi": 62,
          "time": 84.60623273958284,
          "velocity": 0.7874015748031497,
          "duration": 0.06469288541666174
        },
        {
          "name": "F#4",
          "midi": 66,
          "time": 84.60623273958284,
          "velocity": 0.7874015748031497,
          "duration": 0.06469288541666174
        },
        {
          "name": "D#5",
          "midi": 75,
          "time": 84.60623273958284,
          "velocity": 0.7874015748031497,
          "duration": 0.06469288541666174
        },
        {
          "name": "F5",
          "midi": 77,
          "time": 84.60623273958284,
          "velocity": 0.7874015748031497,
          "duration": 0.06469288541666174
        },
        {
          "name": "E6",
          "midi": 88,
          "time": 84.60623273958284,
          "velocity": 0.7874015748031497,
          "duration": 0.06469288541666174
        },
        {
          "name": "F6",
          "midi": 89,
          "time": 84.60623273958284,
          "velocity": 0.7874015748031497,
          "duration": 0.06469288541666174
        },
        {
          "name": "E7",
          "midi": 100,
          "time": 84.60623273958284,
          "velocity": 0.7874015748031497,
          "duration": 0.06469288541666174
        },
        {
          "name": "F7",
          "midi": 101,
          "time": 84.60623273958284,
          "velocity": 0.7874015748031497,
          "duration": 0.06469288541666174
        },
        {
          "name": "D#7",
          "midi": 99,
          "time": 84.73671499999949,
          "velocity": 0.7874015748031497,
          "duration": 0.06469288541666174
        },
        {
          "name": "F7",
          "midi": 101,
          "time": 84.73671499999949,
          "velocity": 0.7874015748031497,
          "duration": 0.06469288541666174
        },
        {
          "name": "C#4",
          "midi": 61,
          "time": 84.86939023958283,
          "velocity": 0.7874015748031497,
          "duration": 0.06469288541666174
        },
        {
          "name": "F4",
          "midi": 65,
          "time": 84.86939023958283,
          "velocity": 0.7874015748031497,
          "duration": 0.06469288541666174
        },
        {
          "name": "D5",
          "midi": 74,
          "time": 84.86939023958283,
          "velocity": 0.7874015748031497,
          "duration": 0.06469288541666174
        },
        {
          "name": "F5",
          "midi": 77,
          "time": 84.86939023958283,
          "velocity": 0.7874015748031497,
          "duration": 0.06469288541666174
        },
        {
          "name": "D#6",
          "midi": 87,
          "time": 84.86939023958283,
          "velocity": 0.7874015748031497,
          "duration": 0.06469288541666174
        },
        {
          "name": "F6",
          "midi": 89,
          "time": 84.86939023958283,
          "velocity": 0.7874015748031497,
          "duration": 0.06469288541666174
        },
        {
          "name": "D7",
          "midi": 98,
          "time": 84.86939023958283,
          "velocity": 0.7874015748031497,
          "duration": 0.06469288541666174
        },
        {
          "name": "F7",
          "midi": 101,
          "time": 84.86939023958283,
          "velocity": 0.7874015748031497,
          "duration": 0.06469288541666174
        },
        {
          "name": "D6",
          "midi": 86,
          "time": 84.99987249999948,
          "velocity": 0.7874015748031497,
          "duration": 0.06469288541666174
        },
        {
          "name": "F6",
          "midi": 89,
          "time": 84.99987249999948,
          "velocity": 0.7874015748031497,
          "duration": 0.06469288541666174
        },
        {
          "name": "D7",
          "midi": 98,
          "time": 84.99987249999948,
          "velocity": 0.7874015748031497,
          "duration": 0.06469288541666174
        },
        {
          "name": "F#7",
          "midi": 102,
          "time": 84.99987249999948,
          "velocity": 0.7874015748031497,
          "duration": 0.06469288541666174
        },
        {
          "name": "C4",
          "midi": 60,
          "time": 85.26302999999947,
          "velocity": 0.7874015748031497,
          "duration": 1.051533510416661
        },
        {
          "name": "F#4",
          "midi": 66,
          "time": 85.26302999999947,
          "velocity": 0.7874015748031497,
          "duration": 1.0504370208333285
        },
        {
          "name": "C#5",
          "midi": 73,
          "time": 85.26302999999947,
          "velocity": 0.7874015748031497,
          "duration": 1.051533510416661
        },
        {
          "name": "F#5",
          "midi": 78,
          "time": 85.26302999999947,
          "velocity": 0.7874015748031497,
          "duration": 1.0504370208333285
        },
        {
          "name": "C#6",
          "midi": 85,
          "time": 85.26302999999947,
          "velocity": 0.7874015748031497,
          "duration": 1.051533510416661
        },
        {
          "name": "F#6",
          "midi": 90,
          "time": 85.26302999999947,
          "velocity": 0.7874015748031497,
          "duration": 1.0504370208333285
        },
        {
          "name": "C#7",
          "midi": 97,
          "time": 85.26302999999947,
          "velocity": 0.7874015748031497,
          "duration": 1.051533510416661
        },
        {
          "name": "F#7",
          "midi": 102,
          "time": 85.26302999999947,
          "velocity": 0.7874015748031497,
          "duration": 1.0504370208333285
        },
        {
          "name": "G#8",
          "midi": 116,
          "time": 86.31565999999947,
          "velocity": 0.7874015748031497,
          "duration": 2.1699528854164924
        },
        {
          "name": "D4",
          "midi": 62,
          "time": 86.31565999999947,
          "velocity": 0.7874015748031497,
          "duration": 0.06578937499999427
        },
        {
          "name": "F#4",
          "midi": 66,
          "time": 86.31565999999947,
          "velocity": 0.7874015748031497,
          "duration": 0.06578937499999427
        },
        {
          "name": "D#5",
          "midi": 75,
          "time": 86.31565999999947,
          "velocity": 0.7874015748031497,
          "duration": 0.06578937499999427
        },
        {
          "name": "F#5",
          "midi": 78,
          "time": 86.31565999999947,
          "velocity": 0.7874015748031497,
          "duration": 0.06578937499999427
        },
        {
          "name": "E6",
          "midi": 88,
          "time": 86.31565999999947,
          "velocity": 0.7874015748031497,
          "duration": 0.06578937499999427
        },
        {
          "name": "F#6",
          "midi": 90,
          "time": 86.31565999999947,
          "velocity": 0.7874015748031497,
          "duration": 0.06578937499999427
        },
        {
          "name": "E7",
          "midi": 100,
          "time": 86.31565999999947,
          "velocity": 0.7874015748031497,
          "duration": 0.06578937499999427
        },
        {
          "name": "F#7",
          "midi": 102,
          "time": 86.31565999999947,
          "velocity": 0.7874015748031497,
          "duration": 0.06578937499999427
        },
        {
          "name": "E7",
          "midi": 100,
          "time": 86.44723874999946,
          "velocity": 0.7874015748031497,
          "duration": 0.06578937499999427
        },
        {
          "name": "F#7",
          "midi": 102,
          "time": 86.44723874999946,
          "velocity": 0.7874015748031497,
          "duration": 0.06578937499999427
        },
        {
          "name": "D5",
          "midi": 74,
          "time": 86.57772101041611,
          "velocity": 0.7874015748031497,
          "duration": 0.06578937499999427
        },
        {
          "name": "F5",
          "midi": 77,
          "time": 86.57772101041611,
          "velocity": 0.7874015748031497,
          "duration": 0.06578937499999427
        },
        {
          "name": "D#6",
          "midi": 87,
          "time": 86.57772101041611,
          "velocity": 0.7874015748031497,
          "duration": 0.06578937499999427
        },
        {
          "name": "F6",
          "midi": 89,
          "time": 86.57772101041611,
          "velocity": 0.7874015748031497,
          "duration": 0.06578937499999427
        },
        {
          "name": "D#7",
          "midi": 99,
          "time": 86.57772101041611,
          "velocity": 0.7874015748031497,
          "duration": 0.06578937499999427
        },
        {
          "name": "F7",
          "midi": 101,
          "time": 86.57772101041611,
          "velocity": 0.7874015748031497,
          "duration": 0.06578937499999427
        },
        {
          "name": "D4",
          "midi": 62,
          "time": 86.71039624999943,
          "velocity": 0.7874015748031497,
          "duration": 0.06469288541666174
        },
        {
          "name": "F#4",
          "midi": 66,
          "time": 86.71039624999943,
          "velocity": 0.7874015748031497,
          "duration": 0.06469288541666174
        },
        {
          "name": "D#5",
          "midi": 75,
          "time": 86.71039624999943,
          "velocity": 0.7874015748031497,
          "duration": 0.06469288541666174
        },
        {
          "name": "F5",
          "midi": 77,
          "time": 86.71039624999943,
          "velocity": 0.7874015748031497,
          "duration": 0.06469288541666174
        },
        {
          "name": "E6",
          "midi": 88,
          "time": 86.71039624999943,
          "velocity": 0.7874015748031497,
          "duration": 0.06469288541666174
        },
        {
          "name": "F6",
          "midi": 89,
          "time": 86.71039624999943,
          "velocity": 0.7874015748031497,
          "duration": 0.06469288541666174
        },
        {
          "name": "E7",
          "midi": 100,
          "time": 86.71039624999943,
          "velocity": 0.7874015748031497,
          "duration": 0.06469288541666174
        },
        {
          "name": "F7",
          "midi": 101,
          "time": 86.71039624999943,
          "velocity": 0.7874015748031497,
          "duration": 0.06469288541666174
        },
        {
          "name": "D#7",
          "midi": 99,
          "time": 86.84197499999942,
          "velocity": 0.7874015748031497,
          "duration": 0.06578937499999427
        },
        {
          "name": "F7",
          "midi": 101,
          "time": 86.84197499999942,
          "velocity": 0.7874015748031497,
          "duration": 0.06578937499999427
        },
        {
          "name": "C#4",
          "midi": 61,
          "time": 86.97355374999941,
          "velocity": 0.7874015748031497,
          "duration": 0.06578937499999427
        },
        {
          "name": "F4",
          "midi": 65,
          "time": 86.97355374999941,
          "velocity": 0.7874015748031497,
          "duration": 0.06578937499999427
        },
        {
          "name": "D5",
          "midi": 74,
          "time": 86.97355374999941,
          "velocity": 0.7874015748031497,
          "duration": 0.06578937499999427
        },
        {
          "name": "F5",
          "midi": 77,
          "time": 86.97355374999941,
          "velocity": 0.7874015748031497,
          "duration": 0.06578937499999427
        },
        {
          "name": "D#6",
          "midi": 87,
          "time": 86.97355374999941,
          "velocity": 0.7874015748031497,
          "duration": 0.06578937499999427
        },
        {
          "name": "F6",
          "midi": 89,
          "time": 86.97355374999941,
          "velocity": 0.7874015748031497,
          "duration": 0.06578937499999427
        },
        {
          "name": "D7",
          "midi": 98,
          "time": 86.97355374999941,
          "velocity": 0.7874015748031497,
          "duration": 0.06578937499999427
        },
        {
          "name": "F7",
          "midi": 101,
          "time": 86.97355374999941,
          "velocity": 0.7874015748031497,
          "duration": 0.06578937499999427
        },
        {
          "name": "D6",
          "midi": 86,
          "time": 87.10622898958273,
          "velocity": 0.7874015748031497,
          "duration": 0.06469288541666174
        },
        {
          "name": "F6",
          "midi": 89,
          "time": 87.10622898958273,
          "velocity": 0.7874015748031497,
          "duration": 0.06469288541666174
        },
        {
          "name": "C#7",
          "midi": 97,
          "time": 87.10622898958273,
          "velocity": 0.7874015748031497,
          "duration": 0.06469288541666174
        },
        {
          "name": "F7",
          "midi": 101,
          "time": 87.10622898958273,
          "velocity": 0.7874015748031497,
          "duration": 0.06469288541666174
        },
        {
          "name": "C7",
          "midi": 96,
          "time": 87.23671124999939,
          "velocity": 0.7874015748031497,
          "duration": 0.06578937499999427
        },
        {
          "name": "F7",
          "midi": 101,
          "time": 87.23671124999939,
          "velocity": 0.7874015748031497,
          "duration": 0.06578937499999427
        },
        {
          "name": "C#4",
          "midi": 61,
          "time": 87.36828999999938,
          "velocity": 0.7874015748031497,
          "duration": 0.06578937499999427
        },
        {
          "name": "F#4",
          "midi": 66,
          "time": 87.36828999999938,
          "velocity": 0.7874015748031497,
          "duration": 0.06578937499999427
        },
        {
          "name": "C#5",
          "midi": 73,
          "time": 87.36828999999938,
          "velocity": 0.7874015748031497,
          "duration": 0.06578937499999427
        },
        {
          "name": "F#5",
          "midi": 78,
          "time": 87.36828999999938,
          "velocity": 0.7874015748031497,
          "duration": 0.06578937499999427
        },
        {
          "name": "D6",
          "midi": 86,
          "time": 87.36828999999938,
          "velocity": 0.7874015748031497,
          "duration": 0.06578937499999427
        },
        {
          "name": "F#6",
          "midi": 90,
          "time": 87.36828999999938,
          "velocity": 0.7874015748031497,
          "duration": 0.06578937499999427
        },
        {
          "name": "D7",
          "midi": 98,
          "time": 87.36828999999938,
          "velocity": 0.7874015748031497,
          "duration": 0.06578937499999427
        },
        {
          "name": "F7",
          "midi": 101,
          "time": 87.36828999999938,
          "velocity": 0.7874015748031497,
          "duration": 0.06578937499999427
        },
        {
          "name": "D7",
          "midi": 98,
          "time": 87.49986874999937,
          "velocity": 0.7874015748031497,
          "duration": 0.06578937499999427
        },
        {
          "name": "F#7",
          "midi": 102,
          "time": 87.49986874999937,
          "velocity": 0.7874015748031497,
          "duration": 0.06578937499999427
        },
        {
          "name": "C5",
          "midi": 72,
          "time": 87.63035101041602,
          "velocity": 0.7874015748031497,
          "duration": 0.06578937499999427
        },
        {
          "name": "F5",
          "midi": 77,
          "time": 87.63035101041602,
          "velocity": 0.7874015748031497,
          "duration": 0.06578937499999427
        },
        {
          "name": "C#6",
          "midi": 85,
          "time": 87.63035101041602,
          "velocity": 0.7874015748031497,
          "duration": 0.06578937499999427
        },
        {
          "name": "F6",
          "midi": 89,
          "time": 87.63035101041602,
          "velocity": 0.7874015748031497,
          "duration": 0.06578937499999427
        },
        {
          "name": "C#7",
          "midi": 97,
          "time": 87.63035101041602,
          "velocity": 0.7874015748031497,
          "duration": 0.06578937499999427
        },
        {
          "name": "F7",
          "midi": 101,
          "time": 87.63035101041602,
          "velocity": 0.7874015748031497,
          "duration": 0.06578937499999427
        },
        {
          "name": "C#4",
          "midi": 61,
          "time": 87.76302624999934,
          "velocity": 0.7874015748031497,
          "duration": 0.06578937499999427
        },
        {
          "name": "F#4",
          "midi": 66,
          "time": 87.76302624999934,
          "velocity": 0.7874015748031497,
          "duration": 0.06578937499999427
        },
        {
          "name": "C#5",
          "midi": 73,
          "time": 87.76302624999934,
          "velocity": 0.7874015748031497,
          "duration": 0.06578937499999427
        },
        {
          "name": "F5",
          "midi": 77,
          "time": 87.76302624999934,
          "velocity": 0.7874015748031497,
          "duration": 0.06578937499999427
        },
        {
          "name": "D6",
          "midi": 86,
          "time": 87.76302624999934,
          "velocity": 0.7874015748031497,
          "duration": 0.06578937499999427
        },
        {
          "name": "F6",
          "midi": 89,
          "time": 87.76302624999934,
          "velocity": 0.7874015748031497,
          "duration": 0.06578937499999427
        },
        {
          "name": "D7",
          "midi": 98,
          "time": 87.76302624999934,
          "velocity": 0.7874015748031497,
          "duration": 0.06578937499999427
        },
        {
          "name": "F7",
          "midi": 101,
          "time": 87.76302624999934,
          "velocity": 0.7874015748031497,
          "duration": 0.06578937499999427
        },
        {
          "name": "C#7",
          "midi": 97,
          "time": 87.89460499999933,
          "velocity": 0.7874015748031497,
          "duration": 0.06578937499999427
        },
        {
          "name": "F7",
          "midi": 101,
          "time": 87.89460499999933,
          "velocity": 0.7874015748031497,
          "duration": 0.06578937499999427
        },
        {
          "name": "C4",
          "midi": 60,
          "time": 88.02508726041599,
          "velocity": 0.7874015748031497,
          "duration": 0.06578937499999427
        },
        {
          "name": "F4",
          "midi": 65,
          "time": 88.02508726041599,
          "velocity": 0.7874015748031497,
          "duration": 0.06578937499999427
        },
        {
          "name": "C5",
          "midi": 72,
          "time": 88.02508726041599,
          "velocity": 0.7874015748031497,
          "duration": 0.06578937499999427
        },
        {
          "name": "F5",
          "midi": 77,
          "time": 88.02508726041599,
          "velocity": 0.7874015748031497,
          "duration": 0.06578937499999427
        },
        {
          "name": "C#6",
          "midi": 85,
          "time": 88.02508726041599,
          "velocity": 0.7874015748031497,
          "duration": 0.06578937499999427
        },
        {
          "name": "F6",
          "midi": 89,
          "time": 88.02508726041599,
          "velocity": 0.7874015748031497,
          "duration": 0.06578937499999427
        },
        {
          "name": "C7",
          "midi": 96,
          "time": 88.02508726041599,
          "velocity": 0.7874015748031497,
          "duration": 0.06578937499999427
        },
        {
          "name": "F7",
          "midi": 101,
          "time": 88.02508726041599,
          "velocity": 0.7874015748031497,
          "duration": 0.06578937499999427
        },
        {
          "name": "C6",
          "midi": 84,
          "time": 88.15776249999931,
          "velocity": 0.7874015748031497,
          "duration": 0.06578937499999427
        },
        {
          "name": "F6",
          "midi": 89,
          "time": 88.15776249999931,
          "velocity": 0.7874015748031497,
          "duration": 0.06578937499999427
        },
        {
          "name": "C7",
          "midi": 96,
          "time": 88.15776249999931,
          "velocity": 0.7874015748031497,
          "duration": 0.06578937499999427
        },
        {
          "name": "F#7",
          "midi": 102,
          "time": 88.15776249999931,
          "velocity": 0.7874015748031497,
          "duration": 0.06578937499999427
        },
        {
          "name": "D4",
          "midi": 62,
          "time": 88.4209199999993,
          "velocity": 0.7874015748031497,
          "duration": 0.06578937499999427
        },
        {
          "name": "F#4",
          "midi": 66,
          "time": 88.4209199999993,
          "velocity": 0.7874015748031497,
          "duration": 0.06578937499999427
        },
        {
          "name": "D5",
          "midi": 74,
          "time": 88.4209199999993,
          "velocity": 0.7874015748031497,
          "duration": 0.06578937499999427
        },
        {
          "name": "F#5",
          "midi": 78,
          "time": 88.4209199999993,
          "velocity": 0.7874015748031497,
          "duration": 0.06578937499999427
        },
        {
          "name": "D#6",
          "midi": 87,
          "time": 88.4209199999993,
          "velocity": 0.7874015748031497,
          "duration": 0.06578937499999427
        },
        {
          "name": "F#6",
          "midi": 90,
          "time": 88.4209199999993,
          "velocity": 0.7874015748031497,
          "duration": 0.06578937499999427
        },
        {
          "name": "D#7",
          "midi": 99,
          "time": 88.4209199999993,
          "velocity": 0.7874015748031497,
          "duration": 0.06578937499999427
        },
        {
          "name": "F#7",
          "midi": 102,
          "time": 88.4209199999993,
          "velocity": 0.7874015748031497,
          "duration": 0.06578937499999427
        },
        {
          "name": "D#7",
          "midi": 99,
          "time": 88.55249874999929,
          "velocity": 0.7874015748031497,
          "duration": 0.06578937499999427
        },
        {
          "name": "F#7",
          "midi": 102,
          "time": 88.55249874999929,
          "velocity": 0.7874015748031497,
          "duration": 0.06578937499999427
        },
        {
          "name": "C#5",
          "midi": 73,
          "time": 88.68407749999928,
          "velocity": 0.7874015748031497,
          "duration": 0.06578937499999427
        },
        {
          "name": "F5",
          "midi": 77,
          "time": 88.68407749999928,
          "velocity": 0.7874015748031497,
          "duration": 0.06578937499999427
        },
        {
          "name": "D6",
          "midi": 86,
          "time": 88.68407749999928,
          "velocity": 0.7874015748031497,
          "duration": 0.06578937499999427
        },
        {
          "name": "F6",
          "midi": 89,
          "time": 88.68407749999928,
          "velocity": 0.7874015748031497,
          "duration": 0.06578937499999427
        },
        {
          "name": "D7",
          "midi": 98,
          "time": 88.68407749999928,
          "velocity": 0.7874015748031497,
          "duration": 0.06578937499999427
        },
        {
          "name": "F7",
          "midi": 101,
          "time": 88.68407749999928,
          "velocity": 0.7874015748031497,
          "duration": 0.06578937499999427
        },
        {
          "name": "D4",
          "midi": 62,
          "time": 88.81565624999926,
          "velocity": 0.7874015748031497,
          "duration": 0.06578937499999427
        },
        {
          "name": "F#4",
          "midi": 66,
          "time": 88.81565624999926,
          "velocity": 0.7874015748031497,
          "duration": 0.06578937499999427
        },
        {
          "name": "D5",
          "midi": 74,
          "time": 88.81565624999926,
          "velocity": 0.7874015748031497,
          "duration": 0.06578937499999427
        },
        {
          "name": "F5",
          "midi": 77,
          "time": 88.81565624999926,
          "velocity": 0.7874015748031497,
          "duration": 0.06578937499999427
        },
        {
          "name": "D#6",
          "midi": 87,
          "time": 88.81565624999926,
          "velocity": 0.7874015748031497,
          "duration": 0.06578937499999427
        },
        {
          "name": "F6",
          "midi": 89,
          "time": 88.81565624999926,
          "velocity": 0.7874015748031497,
          "duration": 0.06578937499999427
        },
        {
          "name": "D#7",
          "midi": 99,
          "time": 88.81565624999926,
          "velocity": 0.7874015748031497,
          "duration": 0.06578937499999427
        },
        {
          "name": "F7",
          "midi": 101,
          "time": 88.81565624999926,
          "velocity": 0.7874015748031497,
          "duration": 0.06578937499999427
        },
        {
          "name": "D7",
          "midi": 98,
          "time": 88.94723499999925,
          "velocity": 0.7874015748031497,
          "duration": 0.06578937499999427
        },
        {
          "name": "F7",
          "midi": 101,
          "time": 88.94723499999925,
          "velocity": 0.7874015748031497,
          "duration": 0.06578937499999427
        },
        {
          "name": "C#4",
          "midi": 61,
          "time": 89.07881374999924,
          "velocity": 0.7874015748031497,
          "duration": 0.06578937499999427
        },
        {
          "name": "F4",
          "midi": 65,
          "time": 89.07881374999924,
          "velocity": 0.7874015748031497,
          "duration": 0.06578937499999427
        },
        {
          "name": "C#5",
          "midi": 73,
          "time": 89.07881374999924,
          "velocity": 0.7874015748031497,
          "duration": 0.06578937499999427
        },
        {
          "name": "F5",
          "midi": 77,
          "time": 89.07881374999924,
          "velocity": 0.7874015748031497,
          "duration": 0.06578937499999427
        },
        {
          "name": "D6",
          "midi": 86,
          "time": 89.07881374999924,
          "velocity": 0.7874015748031497,
          "duration": 0.06578937499999427
        },
        {
          "name": "F6",
          "midi": 89,
          "time": 89.07881374999924,
          "velocity": 0.7874015748031497,
          "duration": 0.06578937499999427
        },
        {
          "name": "C#7",
          "midi": 97,
          "time": 89.07881374999924,
          "velocity": 0.7874015748031497,
          "duration": 0.06578937499999427
        },
        {
          "name": "F7",
          "midi": 101,
          "time": 89.07881374999924,
          "velocity": 0.7874015748031497,
          "duration": 0.06578937499999427
        },
        {
          "name": "C#6",
          "midi": 85,
          "time": 89.21039249999923,
          "velocity": 0.7874015748031497,
          "duration": 0.06578937499999427
        },
        {
          "name": "F6",
          "midi": 89,
          "time": 89.21039249999923,
          "velocity": 0.7874015748031497,
          "duration": 0.06578937499999427
        },
        {
          "name": "C#7",
          "midi": 97,
          "time": 89.21039249999923,
          "velocity": 0.7874015748031497,
          "duration": 0.06578937499999427
        },
        {
          "name": "F#7",
          "midi": 102,
          "time": 89.21039249999923,
          "velocity": 0.7874015748031497,
          "duration": 0.06578937499999427
        },
        {
          "name": "C4",
          "midi": 60,
          "time": 89.47354999999922,
          "velocity": 0.7874015748031497,
          "duration": 1.051533510416661
        },
        {
          "name": "F#4",
          "midi": 66,
          "time": 89.47354999999922,
          "velocity": 0.7874015748031497,
          "duration": 1.0504370208333285
        },
        {
          "name": "C5",
          "midi": 72,
          "time": 89.47354999999922,
          "velocity": 0.7874015748031497,
          "duration": 1.051533510416661
        },
        {
          "name": "F#5",
          "midi": 78,
          "time": 89.47354999999922,
          "velocity": 0.7874015748031497,
          "duration": 1.0504370208333285
        },
        {
          "name": "C6",
          "midi": 84,
          "time": 89.47354999999922,
          "velocity": 0.7874015748031497,
          "duration": 1.051533510416661
        },
        {
          "name": "F#6",
          "midi": 90,
          "time": 89.47354999999922,
          "velocity": 0.7874015748031497,
          "duration": 1.0504370208333285
        },
        {
          "name": "C7",
          "midi": 96,
          "time": 89.47354999999922,
          "velocity": 0.7874015748031497,
          "duration": 1.051533510416661
        },
        {
          "name": "F#7",
          "midi": 102,
          "time": 89.47354999999922,
          "velocity": 0.7874015748031497,
          "duration": 1.0504370208333285
        },
        {
          "name": "D4",
          "midi": 62,
          "time": 90.52617999999921,
          "velocity": 0.7874015748031497,
          "duration": 0.06469288541666174
        },
        {
          "name": "F#4",
          "midi": 66,
          "time": 90.52617999999921,
          "velocity": 0.7874015748031497,
          "duration": 0.06469288541666174
        },
        {
          "name": "D5",
          "midi": 74,
          "time": 90.52617999999921,
          "velocity": 0.7874015748031497,
          "duration": 0.06469288541666174
        },
        {
          "name": "F#5",
          "midi": 78,
          "time": 90.52617999999921,
          "velocity": 0.7874015748031497,
          "duration": 0.06469288541666174
        },
        {
          "name": "D#6",
          "midi": 87,
          "time": 90.52617999999921,
          "velocity": 0.7874015748031497,
          "duration": 0.06469288541666174
        },
        {
          "name": "F#6",
          "midi": 90,
          "time": 90.52617999999921,
          "velocity": 0.7874015748031497,
          "duration": 0.06469288541666174
        },
        {
          "name": "D#7",
          "midi": 99,
          "time": 90.52617999999921,
          "velocity": 0.7874015748031497,
          "duration": 0.06469288541666174
        },
        {
          "name": "F#7",
          "midi": 102,
          "time": 90.52617999999921,
          "velocity": 0.7874015748031497,
          "duration": 0.06469288541666174
        },
        {
          "name": "D#7",
          "midi": 99,
          "time": 90.6577587499992,
          "velocity": 0.7874015748031497,
          "duration": 0.06469288541666174
        },
        {
          "name": "F#7",
          "midi": 102,
          "time": 90.6577587499992,
          "velocity": 0.7874015748031497,
          "duration": 0.06469288541666174
        },
        {
          "name": "C#5",
          "midi": 73,
          "time": 90.78824101041586,
          "velocity": 0.7874015748031497,
          "duration": 0.06469288541666174
        },
        {
          "name": "F5",
          "midi": 77,
          "time": 90.78824101041586,
          "velocity": 0.7874015748031497,
          "duration": 0.06469288541666174
        },
        {
          "name": "D6",
          "midi": 86,
          "time": 90.78824101041586,
          "velocity": 0.7874015748031497,
          "duration": 0.06469288541666174
        },
        {
          "name": "F6",
          "midi": 89,
          "time": 90.78824101041586,
          "velocity": 0.7874015748031497,
          "duration": 0.06469288541666174
        },
        {
          "name": "D7",
          "midi": 98,
          "time": 90.78824101041586,
          "velocity": 0.7874015748031497,
          "duration": 0.06469288541666174
        },
        {
          "name": "F7",
          "midi": 101,
          "time": 90.78824101041586,
          "velocity": 0.7874015748031497,
          "duration": 0.06469288541666174
        },
        {
          "name": "D4",
          "midi": 62,
          "time": 90.9209162499992,
          "velocity": 0.7874015748031497,
          "duration": 0.06469288541666174
        },
        {
          "name": "F#4",
          "midi": 66,
          "time": 90.9209162499992,
          "velocity": 0.7874015748031497,
          "duration": 0.06469288541666174
        },
        {
          "name": "D5",
          "midi": 74,
          "time": 90.9209162499992,
          "velocity": 0.7874015748031497,
          "duration": 0.06469288541666174
        },
        {
          "name": "F5",
          "midi": 77,
          "time": 90.9209162499992,
          "velocity": 0.7874015748031497,
          "duration": 0.06469288541666174
        },
        {
          "name": "D#6",
          "midi": 87,
          "time": 90.9209162499992,
          "velocity": 0.7874015748031497,
          "duration": 0.06469288541666174
        },
        {
          "name": "F6",
          "midi": 89,
          "time": 90.9209162499992,
          "velocity": 0.7874015748031497,
          "duration": 0.06469288541666174
        },
        {
          "name": "D#7",
          "midi": 99,
          "time": 90.9209162499992,
          "velocity": 0.7874015748031497,
          "duration": 0.06469288541666174
        },
        {
          "name": "F7",
          "midi": 101,
          "time": 90.9209162499992,
          "velocity": 0.7874015748031497,
          "duration": 0.06469288541666174
        },
        {
          "name": "D7",
          "midi": 98,
          "time": 91.05249499999918,
          "velocity": 0.7874015748031497,
          "duration": 0.06469288541666174
        },
        {
          "name": "F7",
          "midi": 101,
          "time": 91.05249499999918,
          "velocity": 0.7874015748031497,
          "duration": 0.06469288541666174
        },
        {
          "name": "C#4",
          "midi": 61,
          "time": 91.18297726041584,
          "velocity": 0.7874015748031497,
          "duration": 0.06578937499999427
        },
        {
          "name": "F4",
          "midi": 65,
          "time": 91.18297726041584,
          "velocity": 0.7874015748031497,
          "duration": 0.06578937499999427
        },
        {
          "name": "C#5",
          "midi": 73,
          "time": 91.18297726041584,
          "velocity": 0.7874015748031497,
          "duration": 0.06578937499999427
        },
        {
          "name": "F5",
          "midi": 77,
          "time": 91.18297726041584,
          "velocity": 0.7874015748031497,
          "duration": 0.06578937499999427
        },
        {
          "name": "D6",
          "midi": 86,
          "time": 91.18297726041584,
          "velocity": 0.7874015748031497,
          "duration": 0.06578937499999427
        },
        {
          "name": "F6",
          "midi": 89,
          "time": 91.18297726041584,
          "velocity": 0.7874015748031497,
          "duration": 0.06578937499999427
        },
        {
          "name": "C#7",
          "midi": 97,
          "time": 91.18297726041584,
          "velocity": 0.7874015748031497,
          "duration": 0.06578937499999427
        },
        {
          "name": "F7",
          "midi": 101,
          "time": 91.18297726041584,
          "velocity": 0.7874015748031497,
          "duration": 0.06578937499999427
        },
        {
          "name": "C#6",
          "midi": 85,
          "time": 91.31565249999916,
          "velocity": 0.7874015748031497,
          "duration": 0.06469288541666174
        },
        {
          "name": "F6",
          "midi": 89,
          "time": 91.31565249999916,
          "velocity": 0.7874015748031497,
          "duration": 0.06469288541666174
        },
        {
          "name": "D7",
          "midi": 98,
          "time": 91.31565249999916,
          "velocity": 0.7874015748031497,
          "duration": 0.06469288541666174
        },
        {
          "name": "F7",
          "midi": 101,
          "time": 91.31565249999916,
          "velocity": 0.7874015748031497,
          "duration": 0.06469288541666174
        },
        {
          "name": "C#7",
          "midi": 97,
          "time": 91.44613476041582,
          "velocity": 0.7874015748031497,
          "duration": 0.06578937499999427
        },
        {
          "name": "F7",
          "midi": 101,
          "time": 91.44613476041582,
          "velocity": 0.7874015748031497,
          "duration": 0.06578937499999427
        },
        {
          "name": "C4",
          "midi": 60,
          "time": 91.57880999999914,
          "velocity": 0.7874015748031497,
          "duration": 0.39254327083332896
        },
        {
          "name": "F#4",
          "midi": 66,
          "time": 91.57880999999914,
          "velocity": 0.7874015748031497,
          "duration": 0.39254327083332896
        },
        {
          "name": "C5",
          "midi": 72,
          "time": 91.57880999999914,
          "velocity": 0.7874015748031497,
          "duration": 0.39254327083332896
        },
        {
          "name": "F#5",
          "midi": 78,
          "time": 91.57880999999914,
          "velocity": 0.7874015748031497,
          "duration": 0.39254327083332896
        },
        {
          "name": "C6",
          "midi": 84,
          "time": 91.57880999999914,
          "velocity": 0.7874015748031497,
          "duration": 0.39254327083332896
        },
        {
          "name": "F#6",
          "midi": 90,
          "time": 91.57880999999914,
          "velocity": 0.7874015748031497,
          "duration": 0.39254327083332896
        },
        {
          "name": "C7",
          "midi": 96,
          "time": 91.57880999999914,
          "velocity": 0.7874015748031497,
          "duration": 0.39254327083332896
        },
        {
          "name": "F7",
          "midi": 101,
          "time": 91.57880999999914,
          "velocity": 0.7874015748031497,
          "duration": 0.39254327083332896
        },
        {
          "name": "C#4",
          "midi": 61,
          "time": 91.97464273958246,
          "velocity": 0.7874015748031497,
          "duration": 0.3903502916666639
        },
        {
          "name": "F#4",
          "midi": 66,
          "time": 91.97464273958246,
          "velocity": 0.7874015748031497,
          "duration": 0.3903502916666639
        },
        {
          "name": "C#5",
          "midi": 73,
          "time": 91.97464273958246,
          "velocity": 0.7874015748031497,
          "duration": 0.3903502916666639
        },
        {
          "name": "F#5",
          "midi": 78,
          "time": 91.97464273958246,
          "velocity": 0.7874015748031497,
          "duration": 0.3903502916666639
        },
        {
          "name": "C#6",
          "midi": 85,
          "time": 91.97464273958246,
          "velocity": 0.7874015748031497,
          "duration": 0.3903502916666639
        },
        {
          "name": "F#6",
          "midi": 90,
          "time": 91.97464273958246,
          "velocity": 0.7874015748031497,
          "duration": 0.3903502916666639
        },
        {
          "name": "C#7",
          "midi": 97,
          "time": 91.97464273958246,
          "velocity": 0.7874015748031497,
          "duration": 0.3903502916666639
        },
        {
          "name": "F#7",
          "midi": 102,
          "time": 91.97464273958246,
          "velocity": 0.7874015748031497,
          "duration": 0.3903502916666639
        },
        {
          "name": "C4",
          "midi": 60,
          "time": 92.3671860104158,
          "velocity": 0.7874015748031497,
          "duration": 0.06578937499999427
        },
        {
          "name": "F#4",
          "midi": 66,
          "time": 92.3671860104158,
          "velocity": 0.7874015748031497,
          "duration": 0.06578937499999427
        },
        {
          "name": "C5",
          "midi": 72,
          "time": 92.3671860104158,
          "velocity": 0.7874015748031497,
          "duration": 0.06578937499999427
        },
        {
          "name": "C6",
          "midi": 84,
          "time": 92.3671860104158,
          "velocity": 0.7874015748031497,
          "duration": 0.06578937499999427
        },
        {
          "name": "C7",
          "midi": 96,
          "time": 92.3671860104158,
          "velocity": 0.7874015748031497,
          "duration": 0.06578937499999427
        },
        {
          "name": "D4",
          "midi": 62,
          "time": 92.63143999999912,
          "velocity": 0.7874015748031497,
          "duration": 0.06578937499999427
        },
        {
          "name": "F#4",
          "midi": 66,
          "time": 92.63143999999912,
          "velocity": 0.7874015748031497,
          "duration": 0.06578937499999427
        },
        {
          "name": "D5",
          "midi": 74,
          "time": 92.63143999999912,
          "velocity": 0.7874015748031497,
          "duration": 0.06578937499999427
        },
        {
          "name": "F#5",
          "midi": 78,
          "time": 92.63143999999912,
          "velocity": 0.7874015748031497,
          "duration": 0.06578937499999427
        },
        {
          "name": "D#6",
          "midi": 87,
          "time": 92.63143999999912,
          "velocity": 0.7874015748031497,
          "duration": 0.06578937499999427
        },
        {
          "name": "F#6",
          "midi": 90,
          "time": 92.63143999999912,
          "velocity": 0.7874015748031497,
          "duration": 0.06578937499999427
        },
        {
          "name": "D#7",
          "midi": 99,
          "time": 92.63143999999912,
          "velocity": 0.7874015748031497,
          "duration": 0.06578937499999427
        },
        {
          "name": "F#7",
          "midi": 102,
          "time": 92.63143999999912,
          "velocity": 0.7874015748031497,
          "duration": 0.06578937499999427
        },
        {
          "name": "D#7",
          "midi": 99,
          "time": 92.7630187499991,
          "velocity": 0.7874015748031497,
          "duration": 0.06578937499999427
        },
        {
          "name": "F#7",
          "midi": 102,
          "time": 92.7630187499991,
          "velocity": 0.7874015748031497,
          "duration": 0.06578937499999427
        },
        {
          "name": "C#5",
          "midi": 73,
          "time": 92.89350101041576,
          "velocity": 0.7874015748031497,
          "duration": 0.06578937499999427
        },
        {
          "name": "F5",
          "midi": 77,
          "time": 92.89350101041576,
          "velocity": 0.7874015748031497,
          "duration": 0.06578937499999427
        },
        {
          "name": "D6",
          "midi": 86,
          "time": 92.89350101041576,
          "velocity": 0.7874015748031497,
          "duration": 0.06578937499999427
        },
        {
          "name": "F6",
          "midi": 89,
          "time": 92.89350101041576,
          "velocity": 0.7874015748031497,
          "duration": 0.06578937499999427
        },
        {
          "name": "D7",
          "midi": 98,
          "time": 92.89350101041576,
          "velocity": 0.7874015748031497,
          "duration": 0.06578937499999427
        },
        {
          "name": "F7",
          "midi": 101,
          "time": 92.89350101041576,
          "velocity": 0.7874015748031497,
          "duration": 0.06578937499999427
        },
        {
          "name": "D4",
          "midi": 62,
          "time": 93.02507976041575,
          "velocity": 0.7874015748031497,
          "duration": 0.06578937499999427
        },
        {
          "name": "F#4",
          "midi": 66,
          "time": 93.02507976041575,
          "velocity": 0.7874015748031497,
          "duration": 0.06578937499999427
        },
        {
          "name": "D5",
          "midi": 74,
          "time": 93.02507976041575,
          "velocity": 0.7874015748031497,
          "duration": 0.06578937499999427
        },
        {
          "name": "F5",
          "midi": 77,
          "time": 93.02507976041575,
          "velocity": 0.7874015748031497,
          "duration": 0.06578937499999427
        },
        {
          "name": "D#6",
          "midi": 87,
          "time": 93.02507976041575,
          "velocity": 0.7874015748031497,
          "duration": 0.06578937499999427
        },
        {
          "name": "F6",
          "midi": 89,
          "time": 93.02507976041575,
          "velocity": 0.7874015748031497,
          "duration": 0.06578937499999427
        },
        {
          "name": "D#7",
          "midi": 99,
          "time": 93.02507976041575,
          "velocity": 0.7874015748031497,
          "duration": 0.06578937499999427
        },
        {
          "name": "F7",
          "midi": 101,
          "time": 93.02507976041575,
          "velocity": 0.7874015748031497,
          "duration": 0.06578937499999427
        },
        {
          "name": "D7",
          "midi": 98,
          "time": 93.15775499999907,
          "velocity": 0.7874015748031497,
          "duration": 0.06469288541666174
        },
        {
          "name": "F7",
          "midi": 101,
          "time": 93.15775499999907,
          "velocity": 0.7874015748031497,
          "duration": 0.06469288541666174
        },
        {
          "name": "C#4",
          "midi": 61,
          "time": 93.28933374999906,
          "velocity": 0.7874015748031497,
          "duration": 0.06469288541666174
        },
        {
          "name": "F4",
          "midi": 65,
          "time": 93.28933374999906,
          "velocity": 0.7874015748031497,
          "duration": 0.06469288541666174
        },
        {
          "name": "C#5",
          "midi": 73,
          "time": 93.28933374999906,
          "velocity": 0.7874015748031497,
          "duration": 0.06469288541666174
        },
        {
          "name": "F5",
          "midi": 77,
          "time": 93.28933374999906,
          "velocity": 0.7874015748031497,
          "duration": 0.06469288541666174
        },
        {
          "name": "D6",
          "midi": 86,
          "time": 93.28933374999906,
          "velocity": 0.7874015748031497,
          "duration": 0.06469288541666174
        },
        {
          "name": "F6",
          "midi": 89,
          "time": 93.28933374999906,
          "velocity": 0.7874015748031497,
          "duration": 0.06469288541666174
        },
        {
          "name": "C#7",
          "midi": 97,
          "time": 93.28933374999906,
          "velocity": 0.7874015748031497,
          "duration": 0.06469288541666174
        },
        {
          "name": "F7",
          "midi": 101,
          "time": 93.28933374999906,
          "velocity": 0.7874015748031497,
          "duration": 0.06469288541666174
        },
        {
          "name": "C#6",
          "midi": 85,
          "time": 93.42091249999905,
          "velocity": 0.7874015748031497,
          "duration": 0.06469288541666174
        },
        {
          "name": "F6",
          "midi": 89,
          "time": 93.42091249999905,
          "velocity": 0.7874015748031497,
          "duration": 0.06469288541666174
        },
        {
          "name": "C#7",
          "midi": 97,
          "time": 93.42091249999905,
          "velocity": 0.7874015748031497,
          "duration": 0.06469288541666174
        },
        {
          "name": "F#7",
          "midi": 102,
          "time": 93.42091249999905,
          "velocity": 0.7874015748031497,
          "duration": 0.06469288541666174
        },
        {
          "name": "C4",
          "midi": 60,
          "time": 93.68406999999904,
          "velocity": 0.7874015748031497,
          "duration": 1.051533510416661
        },
        {
          "name": "F#4",
          "midi": 66,
          "time": 93.68406999999904,
          "velocity": 0.7874015748031497,
          "duration": 1.0504370208333285
        },
        {
          "name": "C5",
          "midi": 72,
          "time": 93.68406999999904,
          "velocity": 0.7874015748031497,
          "duration": 1.051533510416661
        },
        {
          "name": "F#5",
          "midi": 78,
          "time": 93.68406999999904,
          "velocity": 0.7874015748031497,
          "duration": 1.0504370208333285
        },
        {
          "name": "C6",
          "midi": 84,
          "time": 93.68406999999904,
          "velocity": 0.7874015748031497,
          "duration": 1.051533510416661
        },
        {
          "name": "F#6",
          "midi": 90,
          "time": 93.68406999999904,
          "velocity": 0.7874015748031497,
          "duration": 1.0504370208333285
        },
        {
          "name": "C7",
          "midi": 96,
          "time": 93.68406999999904,
          "velocity": 0.7874015748031497,
          "duration": 1.051533510416661
        },
        {
          "name": "F#7",
          "midi": 102,
          "time": 93.68406999999904,
          "velocity": 0.7874015748031497,
          "duration": 1.0504370208333285
        },
        {
          "name": "D4",
          "midi": 62,
          "time": 94.73669999999903,
          "velocity": 0.7874015748031497,
          "duration": 0.06578937499999427
        },
        {
          "name": "F#4",
          "midi": 66,
          "time": 94.73669999999903,
          "velocity": 0.7874015748031497,
          "duration": 0.06578937499999427
        },
        {
          "name": "D5",
          "midi": 74,
          "time": 94.73669999999903,
          "velocity": 0.7874015748031497,
          "duration": 0.06578937499999427
        },
        {
          "name": "F#5",
          "midi": 78,
          "time": 94.73669999999903,
          "velocity": 0.7874015748031497,
          "duration": 0.06578937499999427
        },
        {
          "name": "D#6",
          "midi": 87,
          "time": 94.73669999999903,
          "velocity": 0.7874015748031497,
          "duration": 0.06578937499999427
        },
        {
          "name": "F#6",
          "midi": 90,
          "time": 94.73669999999903,
          "velocity": 0.7874015748031497,
          "duration": 0.06578937499999427
        },
        {
          "name": "D#7",
          "midi": 99,
          "time": 94.73669999999903,
          "velocity": 0.7874015748031497,
          "duration": 0.06578937499999427
        },
        {
          "name": "F#7",
          "midi": 102,
          "time": 94.73669999999903,
          "velocity": 0.7874015748031497,
          "duration": 0.06578937499999427
        },
        {
          "name": "D#7",
          "midi": 99,
          "time": 94.86827874999902,
          "velocity": 0.7874015748031497,
          "duration": 0.06578937499999427
        },
        {
          "name": "F#7",
          "midi": 102,
          "time": 94.86827874999902,
          "velocity": 0.7874015748031497,
          "duration": 0.06578937499999427
        },
        {
          "name": "C#5",
          "midi": 73,
          "time": 95.00095398958234,
          "velocity": 0.7874015748031497,
          "duration": 0.06469288541666174
        },
        {
          "name": "F5",
          "midi": 77,
          "time": 95.00095398958234,
          "velocity": 0.7874015748031497,
          "duration": 0.06469288541666174
        },
        {
          "name": "D6",
          "midi": 86,
          "time": 95.00095398958234,
          "velocity": 0.7874015748031497,
          "duration": 0.06469288541666174
        },
        {
          "name": "F6",
          "midi": 89,
          "time": 95.00095398958234,
          "velocity": 0.7874015748031497,
          "duration": 0.06469288541666174
        },
        {
          "name": "D7",
          "midi": 98,
          "time": 95.00095398958234,
          "velocity": 0.7874015748031497,
          "duration": 0.06469288541666174
        },
        {
          "name": "F7",
          "midi": 101,
          "time": 95.00095398958234,
          "velocity": 0.7874015748031497,
          "duration": 0.06469288541666174
        },
        {
          "name": "D4",
          "midi": 62,
          "time": 95.131436249999,
          "velocity": 0.7874015748031497,
          "duration": 0.06469288541666174
        },
        {
          "name": "F#4",
          "midi": 66,
          "time": 95.131436249999,
          "velocity": 0.7874015748031497,
          "duration": 0.06469288541666174
        },
        {
          "name": "D5",
          "midi": 74,
          "time": 95.131436249999,
          "velocity": 0.7874015748031497,
          "duration": 0.06469288541666174
        },
        {
          "name": "F5",
          "midi": 77,
          "time": 95.131436249999,
          "velocity": 0.7874015748031497,
          "duration": 0.06469288541666174
        },
        {
          "name": "D#6",
          "midi": 87,
          "time": 95.131436249999,
          "velocity": 0.7874015748031497,
          "duration": 0.06469288541666174
        },
        {
          "name": "F6",
          "midi": 89,
          "time": 95.131436249999,
          "velocity": 0.7874015748031497,
          "duration": 0.06469288541666174
        },
        {
          "name": "D#7",
          "midi": 99,
          "time": 95.131436249999,
          "velocity": 0.7874015748031497,
          "duration": 0.06469288541666174
        },
        {
          "name": "F7",
          "midi": 101,
          "time": 95.131436249999,
          "velocity": 0.7874015748031497,
          "duration": 0.06469288541666174
        },
        {
          "name": "D7",
          "midi": 98,
          "time": 95.26301499999899,
          "velocity": 0.7874015748031497,
          "duration": 0.06469288541666174
        },
        {
          "name": "F7",
          "midi": 101,
          "time": 95.26301499999899,
          "velocity": 0.7874015748031497,
          "duration": 0.06469288541666174
        },
        {
          "name": "C#4",
          "midi": 61,
          "time": 95.39349726041564,
          "velocity": 0.7874015748031497,
          "duration": 0.06578937499999427
        },
        {
          "name": "F4",
          "midi": 65,
          "time": 95.39349726041564,
          "velocity": 0.7874015748031497,
          "duration": 0.06578937499999427
        },
        {
          "name": "C#5",
          "midi": 73,
          "time": 95.39349726041564,
          "velocity": 0.7874015748031497,
          "duration": 0.06578937499999427
        },
        {
          "name": "F5",
          "midi": 77,
          "time": 95.39349726041564,
          "velocity": 0.7874015748031497,
          "duration": 0.06578937499999427
        },
        {
          "name": "D6",
          "midi": 86,
          "time": 95.39349726041564,
          "velocity": 0.7874015748031497,
          "duration": 0.06578937499999427
        },
        {
          "name": "F6",
          "midi": 89,
          "time": 95.39349726041564,
          "velocity": 0.7874015748031497,
          "duration": 0.06578937499999427
        },
        {
          "name": "C#7",
          "midi": 97,
          "time": 95.39349726041564,
          "velocity": 0.7874015748031497,
          "duration": 0.06578937499999427
        },
        {
          "name": "F7",
          "midi": 101,
          "time": 95.39349726041564,
          "velocity": 0.7874015748031497,
          "duration": 0.06578937499999427
        },
        {
          "name": "C#6",
          "midi": 85,
          "time": 95.52617249999896,
          "velocity": 0.7874015748031497,
          "duration": 0.06469288541666174
        },
        {
          "name": "F6",
          "midi": 89,
          "time": 95.52617249999896,
          "velocity": 0.7874015748031497,
          "duration": 0.06469288541666174
        },
        {
          "name": "D7",
          "midi": 98,
          "time": 95.52617249999896,
          "velocity": 0.7874015748031497,
          "duration": 0.06469288541666174
        },
        {
          "name": "F7",
          "midi": 101,
          "time": 95.52617249999896,
          "velocity": 0.7874015748031497,
          "duration": 0.06469288541666174
        },
        {
          "name": "C#7",
          "midi": 97,
          "time": 95.6588477395823,
          "velocity": 0.7874015748031497,
          "duration": 0.06469288541666174
        },
        {
          "name": "F7",
          "midi": 101,
          "time": 95.6588477395823,
          "velocity": 0.7874015748031497,
          "duration": 0.06469288541666174
        },
        {
          "name": "C4",
          "midi": 60,
          "time": 95.78932999999896,
          "velocity": 0.7874015748031497,
          "duration": 0.39144678124999643
        },
        {
          "name": "F#4",
          "midi": 66,
          "time": 95.78932999999896,
          "velocity": 0.7874015748031497,
          "duration": 0.39144678124999643
        },
        {
          "name": "C5",
          "midi": 72,
          "time": 95.78932999999896,
          "velocity": 0.7874015748031497,
          "duration": 0.39144678124999643
        },
        {
          "name": "F#5",
          "midi": 78,
          "time": 95.78932999999896,
          "velocity": 0.7874015748031497,
          "duration": 0.39144678124999643
        },
        {
          "name": "C6",
          "midi": 84,
          "time": 95.78932999999896,
          "velocity": 0.7874015748031497,
          "duration": 0.39144678124999643
        },
        {
          "name": "F#6",
          "midi": 90,
          "time": 95.78932999999896,
          "velocity": 0.7874015748031497,
          "duration": 0.39144678124999643
        },
        {
          "name": "C7",
          "midi": 96,
          "time": 95.78932999999896,
          "velocity": 0.7874015748031497,
          "duration": 0.39144678124999643
        },
        {
          "name": "F7",
          "midi": 101,
          "time": 95.78932999999896,
          "velocity": 0.7874015748031497,
          "duration": 0.39144678124999643
        },
        {
          "name": "C#4",
          "midi": 61,
          "time": 96.18406624999895,
          "velocity": 0.7874015748031497,
          "duration": 0.39144678124999643
        },
        {
          "name": "F#4",
          "midi": 66,
          "time": 96.18406624999895,
          "velocity": 0.7874015748031497,
          "duration": 0.39144678124999643
        },
        {
          "name": "C#5",
          "midi": 73,
          "time": 96.18406624999895,
          "velocity": 0.7874015748031497,
          "duration": 0.39144678124999643
        },
        {
          "name": "F#5",
          "midi": 78,
          "time": 96.18406624999895,
          "velocity": 0.7874015748031497,
          "duration": 0.39144678124999643
        },
        {
          "name": "C#6",
          "midi": 85,
          "time": 96.18406624999895,
          "velocity": 0.7874015748031497,
          "duration": 0.39144678124999643
        },
        {
          "name": "F#6",
          "midi": 90,
          "time": 96.18406624999895,
          "velocity": 0.7874015748031497,
          "duration": 0.39144678124999643
        },
        {
          "name": "C#7",
          "midi": 97,
          "time": 96.18406624999895,
          "velocity": 0.7874015748031497,
          "duration": 0.39144678124999643
        },
        {
          "name": "F#7",
          "midi": 102,
          "time": 96.18406624999895,
          "velocity": 0.7874015748031497,
          "duration": 0.39144678124999643
        },
        {
          "name": "C4",
          "midi": 60,
          "time": 96.57770601041561,
          "velocity": 0.7874015748031497,
          "duration": 0.06578937499999427
        },
        {
          "name": "F#4",
          "midi": 66,
          "time": 96.57770601041561,
          "velocity": 0.7874015748031497,
          "duration": 0.06578937499999427
        },
        {
          "name": "C5",
          "midi": 72,
          "time": 96.57770601041561,
          "velocity": 0.7874015748031497,
          "duration": 0.06578937499999427
        },
        {
          "name": "C6",
          "midi": 84,
          "time": 96.57770601041561,
          "velocity": 0.7874015748031497,
          "duration": 0.06578937499999427
        },
        {
          "name": "C7",
          "midi": 96,
          "time": 96.57770601041561,
          "velocity": 0.7874015748031497,
          "duration": 0.06578937499999427
        },
        {
          "name": "D4",
          "midi": 62,
          "time": 96.84195999999893,
          "velocity": 0.7874015748031497,
          "duration": 0.06578937499999427
        },
        {
          "name": "F#4",
          "midi": 66,
          "time": 96.84195999999893,
          "velocity": 0.7874015748031497,
          "duration": 0.06578937499999427
        },
        {
          "name": "D#5",
          "midi": 75,
          "time": 96.84195999999893,
          "velocity": 0.7874015748031497,
          "duration": 0.06578937499999427
        },
        {
          "name": "F#5",
          "midi": 78,
          "time": 96.84195999999893,
          "velocity": 0.7874015748031497,
          "duration": 0.06578937499999427
        },
        {
          "name": "E6",
          "midi": 88,
          "time": 96.84195999999893,
          "velocity": 0.7874015748031497,
          "duration": 0.06578937499999427
        },
        {
          "name": "F#6",
          "midi": 90,
          "time": 96.84195999999893,
          "velocity": 0.7874015748031497,
          "duration": 0.06578937499999427
        },
        {
          "name": "E7",
          "midi": 100,
          "time": 96.84195999999893,
          "velocity": 0.7874015748031497,
          "duration": 0.06578937499999427
        },
        {
          "name": "F#7",
          "midi": 102,
          "time": 96.84195999999893,
          "velocity": 0.7874015748031497,
          "duration": 0.06578937499999427
        },
        {
          "name": "E7",
          "midi": 100,
          "time": 96.97463523958226,
          "velocity": 0.7874015748031497,
          "duration": 0.06469288541666174
        },
        {
          "name": "F#7",
          "midi": 102,
          "time": 96.97463523958226,
          "velocity": 0.7874015748031497,
          "duration": 0.06469288541666174
        },
        {
          "name": "D5",
          "midi": 74,
          "time": 97.10511749999891,
          "velocity": 0.7874015748031497,
          "duration": 0.06578937499999427
        },
        {
          "name": "F5",
          "midi": 77,
          "time": 97.10511749999891,
          "velocity": 0.7874015748031497,
          "duration": 0.06578937499999427
        },
        {
          "name": "D#6",
          "midi": 87,
          "time": 97.10511749999891,
          "velocity": 0.7874015748031497,
          "duration": 0.06578937499999427
        },
        {
          "name": "F6",
          "midi": 89,
          "time": 97.10511749999891,
          "velocity": 0.7874015748031497,
          "duration": 0.06578937499999427
        },
        {
          "name": "D#7",
          "midi": 99,
          "time": 97.10511749999891,
          "velocity": 0.7874015748031497,
          "duration": 0.06578937499999427
        },
        {
          "name": "F7",
          "midi": 101,
          "time": 97.10511749999891,
          "velocity": 0.7874015748031497,
          "duration": 0.06578937499999427
        },
        {
          "name": "D4",
          "midi": 62,
          "time": 97.23779273958223,
          "velocity": 0.7874015748031497,
          "duration": 0.06469288541666174
        },
        {
          "name": "F#4",
          "midi": 66,
          "time": 97.23779273958223,
          "velocity": 0.7874015748031497,
          "duration": 0.06469288541666174
        },
        {
          "name": "D#5",
          "midi": 75,
          "time": 97.23779273958223,
          "velocity": 0.7874015748031497,
          "duration": 0.06469288541666174
        },
        {
          "name": "F5",
          "midi": 77,
          "time": 97.23779273958223,
          "velocity": 0.7874015748031497,
          "duration": 0.06469288541666174
        },
        {
          "name": "E6",
          "midi": 88,
          "time": 97.23779273958223,
          "velocity": 0.7874015748031497,
          "duration": 0.06469288541666174
        },
        {
          "name": "F6",
          "midi": 89,
          "time": 97.23779273958223,
          "velocity": 0.7874015748031497,
          "duration": 0.06469288541666174
        },
        {
          "name": "E7",
          "midi": 100,
          "time": 97.23779273958223,
          "velocity": 0.7874015748031497,
          "duration": 0.06469288541666174
        },
        {
          "name": "F7",
          "midi": 101,
          "time": 97.23779273958223,
          "velocity": 0.7874015748031497,
          "duration": 0.06469288541666174
        },
        {
          "name": "D#7",
          "midi": 99,
          "time": 97.36827499999889,
          "velocity": 0.7874015748031497,
          "duration": 0.06578937499999427
        },
        {
          "name": "F7",
          "midi": 101,
          "time": 97.36827499999889,
          "velocity": 0.7874015748031497,
          "duration": 0.06578937499999427
        },
        {
          "name": "C#4",
          "midi": 61,
          "time": 97.49985374999888,
          "velocity": 0.7874015748031497,
          "duration": 0.06578937499999427
        },
        {
          "name": "F4",
          "midi": 65,
          "time": 97.49985374999888,
          "velocity": 0.7874015748031497,
          "duration": 0.06578937499999427
        },
        {
          "name": "D5",
          "midi": 74,
          "time": 97.49985374999888,
          "velocity": 0.7874015748031497,
          "duration": 0.06578937499999427
        },
        {
          "name": "F5",
          "midi": 77,
          "time": 97.49985374999888,
          "velocity": 0.7874015748031497,
          "duration": 0.06578937499999427
        },
        {
          "name": "D#6",
          "midi": 87,
          "time": 97.49985374999888,
          "velocity": 0.7874015748031497,
          "duration": 0.06578937499999427
        },
        {
          "name": "F6",
          "midi": 89,
          "time": 97.49985374999888,
          "velocity": 0.7874015748031497,
          "duration": 0.06578937499999427
        },
        {
          "name": "D7",
          "midi": 98,
          "time": 97.49985374999888,
          "velocity": 0.7874015748031497,
          "duration": 0.06578937499999427
        },
        {
          "name": "F7",
          "midi": 101,
          "time": 97.49985374999888,
          "velocity": 0.7874015748031497,
          "duration": 0.06578937499999427
        },
        {
          "name": "D6",
          "midi": 86,
          "time": 97.6325289895822,
          "velocity": 0.7874015748031497,
          "duration": 0.06469288541666174
        },
        {
          "name": "F6",
          "midi": 89,
          "time": 97.6325289895822,
          "velocity": 0.7874015748031497,
          "duration": 0.06469288541666174
        },
        {
          "name": "D7",
          "midi": 98,
          "time": 97.6325289895822,
          "velocity": 0.7874015748031497,
          "duration": 0.06469288541666174
        },
        {
          "name": "F#7",
          "midi": 102,
          "time": 97.6325289895822,
          "velocity": 0.7874015748031497,
          "duration": 0.06469288541666174
        },
        {
          "name": "C4",
          "midi": 60,
          "time": 97.89458999999886,
          "velocity": 0.7874015748031497,
          "duration": 1.051533510416661
        },
        {
          "name": "F#4",
          "midi": 66,
          "time": 97.89458999999886,
          "velocity": 0.7874015748031497,
          "duration": 1.0504370208333285
        },
        {
          "name": "C#5",
          "midi": 73,
          "time": 97.89458999999886,
          "velocity": 0.7874015748031497,
          "duration": 1.051533510416661
        },
        {
          "name": "F#5",
          "midi": 78,
          "time": 97.89458999999886,
          "velocity": 0.7874015748031497,
          "duration": 1.0504370208333285
        },
        {
          "name": "C#6",
          "midi": 85,
          "time": 97.89458999999886,
          "velocity": 0.7874015748031497,
          "duration": 1.051533510416661
        },
        {
          "name": "F#6",
          "midi": 90,
          "time": 97.89458999999886,
          "velocity": 0.7874015748031497,
          "duration": 1.0504370208333285
        },
        {
          "name": "C#7",
          "midi": 97,
          "time": 97.89458999999886,
          "velocity": 0.7874015748031497,
          "duration": 1.051533510416661
        },
        {
          "name": "F#7",
          "midi": 102,
          "time": 97.89458999999886,
          "velocity": 0.7874015748031497,
          "duration": 1.0504370208333285
        },
        {
          "name": "D4",
          "midi": 62,
          "time": 98.94721999999885,
          "velocity": 0.7874015748031497,
          "duration": 0.06469288541666174
        },
        {
          "name": "F#4",
          "midi": 66,
          "time": 98.94721999999885,
          "velocity": 0.7874015748031497,
          "duration": 0.06469288541666174
        },
        {
          "name": "D#5",
          "midi": 75,
          "time": 98.94721999999885,
          "velocity": 0.7874015748031497,
          "duration": 0.06469288541666174
        },
        {
          "name": "F#5",
          "midi": 78,
          "time": 98.94721999999885,
          "velocity": 0.7874015748031497,
          "duration": 0.06469288541666174
        },
        {
          "name": "E6",
          "midi": 88,
          "time": 98.94721999999885,
          "velocity": 0.7874015748031497,
          "duration": 0.06469288541666174
        },
        {
          "name": "F#6",
          "midi": 90,
          "time": 98.94721999999885,
          "velocity": 0.7874015748031497,
          "duration": 0.06469288541666174
        },
        {
          "name": "E7",
          "midi": 100,
          "time": 98.94721999999885,
          "velocity": 0.7874015748031497,
          "duration": 0.06469288541666174
        },
        {
          "name": "F#7",
          "midi": 102,
          "time": 98.94721999999885,
          "velocity": 0.7874015748031497,
          "duration": 0.06469288541666174
        },
        {
          "name": "E7",
          "midi": 100,
          "time": 99.07879874999884,
          "velocity": 0.7874015748031497,
          "duration": 0.06469288541666174
        },
        {
          "name": "F#7",
          "midi": 102,
          "time": 99.07879874999884,
          "velocity": 0.7874015748031497,
          "duration": 0.06469288541666174
        },
        {
          "name": "D5",
          "midi": 74,
          "time": 99.21037749999883,
          "velocity": 0.7874015748031497,
          "duration": 0.06469288541666174
        },
        {
          "name": "F5",
          "midi": 77,
          "time": 99.21037749999883,
          "velocity": 0.7874015748031497,
          "duration": 0.06469288541666174
        },
        {
          "name": "D#6",
          "midi": 87,
          "time": 99.21037749999883,
          "velocity": 0.7874015748031497,
          "duration": 0.06469288541666174
        },
        {
          "name": "F6",
          "midi": 89,
          "time": 99.21037749999883,
          "velocity": 0.7874015748031497,
          "duration": 0.06469288541666174
        },
        {
          "name": "D#7",
          "midi": 99,
          "time": 99.21037749999883,
          "velocity": 0.7874015748031497,
          "duration": 0.06469288541666174
        },
        {
          "name": "F7",
          "midi": 101,
          "time": 99.21037749999883,
          "velocity": 0.7874015748031497,
          "duration": 0.06469288541666174
        },
        {
          "name": "D4",
          "midi": 62,
          "time": 99.34195624999882,
          "velocity": 0.7874015748031497,
          "duration": 0.06469288541666174
        },
        {
          "name": "F#4",
          "midi": 66,
          "time": 99.34195624999882,
          "velocity": 0.7874015748031497,
          "duration": 0.06469288541666174
        },
        {
          "name": "D#5",
          "midi": 75,
          "time": 99.34195624999882,
          "velocity": 0.7874015748031497,
          "duration": 0.06469288541666174
        },
        {
          "name": "F5",
          "midi": 77,
          "time": 99.34195624999882,
          "velocity": 0.7874015748031497,
          "duration": 0.06469288541666174
        },
        {
          "name": "E6",
          "midi": 88,
          "time": 99.34195624999882,
          "velocity": 0.7874015748031497,
          "duration": 0.06469288541666174
        },
        {
          "name": "F6",
          "midi": 89,
          "time": 99.34195624999882,
          "velocity": 0.7874015748031497,
          "duration": 0.06469288541666174
        },
        {
          "name": "E7",
          "midi": 100,
          "time": 99.34195624999882,
          "velocity": 0.7874015748031497,
          "duration": 0.06469288541666174
        },
        {
          "name": "F7",
          "midi": 101,
          "time": 99.34195624999882,
          "velocity": 0.7874015748031497,
          "duration": 0.06469288541666174
        },
        {
          "name": "D#7",
          "midi": 99,
          "time": 99.4735349999988,
          "velocity": 0.7874015748031497,
          "duration": 0.06578937499999427
        },
        {
          "name": "F7",
          "midi": 101,
          "time": 99.4735349999988,
          "velocity": 0.7874015748031497,
          "duration": 0.06578937499999427
        },
        {
          "name": "C#4",
          "midi": 61,
          "time": 99.6051137499988,
          "velocity": 0.7874015748031497,
          "duration": 0.06578937499999427
        },
        {
          "name": "F4",
          "midi": 65,
          "time": 99.6051137499988,
          "velocity": 0.7874015748031497,
          "duration": 0.06578937499999427
        },
        {
          "name": "D5",
          "midi": 74,
          "time": 99.6051137499988,
          "velocity": 0.7874015748031497,
          "duration": 0.06578937499999427
        },
        {
          "name": "F5",
          "midi": 77,
          "time": 99.6051137499988,
          "velocity": 0.7874015748031497,
          "duration": 0.06578937499999427
        },
        {
          "name": "D#6",
          "midi": 87,
          "time": 99.6051137499988,
          "velocity": 0.7874015748031497,
          "duration": 0.06578937499999427
        },
        {
          "name": "F6",
          "midi": 89,
          "time": 99.6051137499988,
          "velocity": 0.7874015748031497,
          "duration": 0.06578937499999427
        },
        {
          "name": "D7",
          "midi": 98,
          "time": 99.6051137499988,
          "velocity": 0.7874015748031497,
          "duration": 0.06578937499999427
        },
        {
          "name": "F7",
          "midi": 101,
          "time": 99.6051137499988,
          "velocity": 0.7874015748031497,
          "duration": 0.06578937499999427
        },
        {
          "name": "D6",
          "midi": 86,
          "time": 99.73778898958211,
          "velocity": 0.7874015748031497,
          "duration": 0.06469288541666174
        },
        {
          "name": "F6",
          "midi": 89,
          "time": 99.73778898958211,
          "velocity": 0.7874015748031497,
          "duration": 0.06469288541666174
        },
        {
          "name": "D#7",
          "midi": 99,
          "time": 99.73778898958211,
          "velocity": 0.7874015748031497,
          "duration": 0.06469288541666174
        },
        {
          "name": "F7",
          "midi": 101,
          "time": 99.73778898958211,
          "velocity": 0.7874015748031497,
          "duration": 0.06469288541666174
        },
        {
          "name": "D7",
          "midi": 98,
          "time": 99.8693677395821,
          "velocity": 0.7874015748031497,
          "duration": 0.06469288541666174
        },
        {
          "name": "F7",
          "midi": 101,
          "time": 99.8693677395821,
          "velocity": 0.7874015748031497,
          "duration": 0.06469288541666174
        },
        {
          "name": "C#4",
          "midi": 61,
          "time": 99.99984999999876,
          "velocity": 0.7874015748031497,
          "duration": 0.39144678124999643
        },
        {
          "name": "F#4",
          "midi": 66,
          "time": 99.99984999999876,
          "velocity": 0.7874015748031497,
          "duration": 0.39144678124999643
        },
        {
          "name": "C#5",
          "midi": 73,
          "time": 99.99984999999876,
          "velocity": 0.7874015748031497,
          "duration": 0.39144678124999643
        },
        {
          "name": "F#5",
          "midi": 78,
          "time": 99.99984999999876,
          "velocity": 0.7874015748031497,
          "duration": 0.39144678124999643
        },
        {
          "name": "C#6",
          "midi": 85,
          "time": 99.99984999999876,
          "velocity": 0.7874015748031497,
          "duration": 0.39144678124999643
        },
        {
          "name": "F#6",
          "midi": 90,
          "time": 99.99984999999876,
          "velocity": 0.7874015748031497,
          "duration": 0.39144678124999643
        },
        {
          "name": "C#7",
          "midi": 97,
          "time": 99.99984999999876,
          "velocity": 0.7874015748031497,
          "duration": 0.39144678124999643
        },
        {
          "name": "F7",
          "midi": 101,
          "time": 99.99984999999876,
          "velocity": 0.7874015748031497,
          "duration": 0.39144678124999643
        },
        {
          "name": "D4",
          "midi": 62,
          "time": 100.39458624999875,
          "velocity": 0.7874015748031497,
          "duration": 0.39254327083332896
        },
        {
          "name": "F#4",
          "midi": 66,
          "time": 100.39458624999875,
          "velocity": 0.7874015748031497,
          "duration": 0.39254327083332896
        },
        {
          "name": "D5",
          "midi": 74,
          "time": 100.39458624999875,
          "velocity": 0.7874015748031497,
          "duration": 0.39254327083332896
        },
        {
          "name": "F#5",
          "midi": 78,
          "time": 100.39458624999875,
          "velocity": 0.7874015748031497,
          "duration": 0.39254327083332896
        },
        {
          "name": "D6",
          "midi": 86,
          "time": 100.39458624999875,
          "velocity": 0.7874015748031497,
          "duration": 0.39254327083332896
        },
        {
          "name": "F#6",
          "midi": 90,
          "time": 100.39458624999875,
          "velocity": 0.7874015748031497,
          "duration": 0.39254327083332896
        },
        {
          "name": "D7",
          "midi": 98,
          "time": 100.39458624999875,
          "velocity": 0.7874015748031497,
          "duration": 0.39254327083332896
        },
        {
          "name": "F#7",
          "midi": 102,
          "time": 100.39458624999875,
          "velocity": 0.7874015748031497,
          "duration": 0.39254327083332896
        },
        {
          "name": "C#4",
          "midi": 61,
          "time": 100.78932249999875,
          "velocity": 0.7874015748031497,
          "duration": 0.06469288541666174
        },
        {
          "name": "F#4",
          "midi": 66,
          "time": 100.78932249999875,
          "velocity": 0.7874015748031497,
          "duration": 0.06469288541666174
        },
        {
          "name": "C5",
          "midi": 72,
          "time": 100.78932249999875,
          "velocity": 0.7874015748031497,
          "duration": 0.06469288541666174
        },
        {
          "name": "F#5",
          "midi": 78,
          "time": 100.78932249999875,
          "velocity": 0.7874015748031497,
          "duration": 0.06469288541666174
        },
        {
          "name": "C6",
          "midi": 84,
          "time": 100.78932249999875,
          "velocity": 0.7874015748031497,
          "duration": 0.06469288541666174
        },
        {
          "name": "F#6",
          "midi": 90,
          "time": 100.78932249999875,
          "velocity": 0.7874015748031497,
          "duration": 0.06469288541666174
        },
        {
          "name": "C7",
          "midi": 96,
          "time": 100.78932249999875,
          "velocity": 0.7874015748031497,
          "duration": 0.06469288541666174
        },
        {
          "name": "F#7",
          "midi": 102,
          "time": 100.78932249999875,
          "velocity": 0.7874015748031497,
          "duration": 0.06469288541666174
        },
        {
          "name": "D4",
          "midi": 62,
          "time": 101.05247999999874,
          "velocity": 0.7874015748031497,
          "duration": 0.06469288541666174
        },
        {
          "name": "F#4",
          "midi": 66,
          "time": 101.05247999999874,
          "velocity": 0.7874015748031497,
          "duration": 0.06469288541666174
        },
        {
          "name": "D#5",
          "midi": 75,
          "time": 101.05247999999874,
          "velocity": 0.7874015748031497,
          "duration": 0.06469288541666174
        },
        {
          "name": "F#5",
          "midi": 78,
          "time": 101.05247999999874,
          "velocity": 0.7874015748031497,
          "duration": 0.06469288541666174
        },
        {
          "name": "E6",
          "midi": 88,
          "time": 101.05247999999874,
          "velocity": 0.7874015748031497,
          "duration": 0.06469288541666174
        },
        {
          "name": "F#6",
          "midi": 90,
          "time": 101.05247999999874,
          "velocity": 0.7874015748031497,
          "duration": 0.06469288541666174
        },
        {
          "name": "E7",
          "midi": 100,
          "time": 101.05247999999874,
          "velocity": 0.7874015748031497,
          "duration": 0.06469288541666174
        },
        {
          "name": "F#7",
          "midi": 102,
          "time": 101.05247999999874,
          "velocity": 0.7874015748031497,
          "duration": 0.06469288541666174
        },
        {
          "name": "E7",
          "midi": 100,
          "time": 101.18405874999873,
          "velocity": 0.7874015748031497,
          "duration": 0.06469288541666174
        },
        {
          "name": "F#7",
          "midi": 102,
          "time": 101.18405874999873,
          "velocity": 0.7874015748031497,
          "duration": 0.06469288541666174
        },
        {
          "name": "D5",
          "midi": 74,
          "time": 101.31563749999872,
          "velocity": 0.7874015748031497,
          "duration": 0.06469288541666174
        },
        {
          "name": "F5",
          "midi": 77,
          "time": 101.31563749999872,
          "velocity": 0.7874015748031497,
          "duration": 0.06469288541666174
        },
        {
          "name": "D#6",
          "midi": 87,
          "time": 101.31563749999872,
          "velocity": 0.7874015748031497,
          "duration": 0.06469288541666174
        },
        {
          "name": "F6",
          "midi": 89,
          "time": 101.31563749999872,
          "velocity": 0.7874015748031497,
          "duration": 0.06469288541666174
        },
        {
          "name": "D#7",
          "midi": 99,
          "time": 101.31563749999872,
          "velocity": 0.7874015748031497,
          "duration": 0.06469288541666174
        },
        {
          "name": "F7",
          "midi": 101,
          "time": 101.31563749999872,
          "velocity": 0.7874015748031497,
          "duration": 0.06469288541666174
        },
        {
          "name": "D4",
          "midi": 62,
          "time": 101.4472162499987,
          "velocity": 0.7874015748031497,
          "duration": 0.06469288541666174
        },
        {
          "name": "F#4",
          "midi": 66,
          "time": 101.4472162499987,
          "velocity": 0.7874015748031497,
          "duration": 0.06469288541666174
        },
        {
          "name": "D#5",
          "midi": 75,
          "time": 101.4472162499987,
          "velocity": 0.7874015748031497,
          "duration": 0.06469288541666174
        },
        {
          "name": "F5",
          "midi": 77,
          "time": 101.4472162499987,
          "velocity": 0.7874015748031497,
          "duration": 0.06469288541666174
        },
        {
          "name": "E6",
          "midi": 88,
          "time": 101.4472162499987,
          "velocity": 0.7874015748031497,
          "duration": 0.06469288541666174
        },
        {
          "name": "F6",
          "midi": 89,
          "time": 101.4472162499987,
          "velocity": 0.7874015748031497,
          "duration": 0.06469288541666174
        },
        {
          "name": "E7",
          "midi": 100,
          "time": 101.4472162499987,
          "velocity": 0.7874015748031497,
          "duration": 0.06469288541666174
        },
        {
          "name": "F7",
          "midi": 101,
          "time": 101.4472162499987,
          "velocity": 0.7874015748031497,
          "duration": 0.06469288541666174
        },
        {
          "name": "D#7",
          "midi": 99,
          "time": 101.57879499999869,
          "velocity": 0.7874015748031497,
          "duration": 0.06469288541666174
        },
        {
          "name": "F7",
          "midi": 101,
          "time": 101.57879499999869,
          "velocity": 0.7874015748031497,
          "duration": 0.06469288541666174
        },
        {
          "name": "C#4",
          "midi": 61,
          "time": 101.71037374999868,
          "velocity": 0.7874015748031497,
          "duration": 0.06469288541666174
        },
        {
          "name": "F4",
          "midi": 65,
          "time": 101.71037374999868,
          "velocity": 0.7874015748031497,
          "duration": 0.06469288541666174
        },
        {
          "name": "D5",
          "midi": 74,
          "time": 101.71037374999868,
          "velocity": 0.7874015748031497,
          "duration": 0.06469288541666174
        },
        {
          "name": "F5",
          "midi": 77,
          "time": 101.71037374999868,
          "velocity": 0.7874015748031497,
          "duration": 0.06469288541666174
        },
        {
          "name": "D#6",
          "midi": 87,
          "time": 101.71037374999868,
          "velocity": 0.7874015748031497,
          "duration": 0.06469288541666174
        },
        {
          "name": "F6",
          "midi": 89,
          "time": 101.71037374999868,
          "velocity": 0.7874015748031497,
          "duration": 0.06469288541666174
        },
        {
          "name": "D7",
          "midi": 98,
          "time": 101.71037374999868,
          "velocity": 0.7874015748031497,
          "duration": 0.06469288541666174
        },
        {
          "name": "F7",
          "midi": 101,
          "time": 101.71037374999868,
          "velocity": 0.7874015748031497,
          "duration": 0.06469288541666174
        },
        {
          "name": "D6",
          "midi": 86,
          "time": 101.84304898958202,
          "velocity": 0.7874015748031497,
          "duration": 0.06469288541666174
        },
        {
          "name": "F6",
          "midi": 89,
          "time": 101.84304898958202,
          "velocity": 0.7874015748031497,
          "duration": 0.06469288541666174
        },
        {
          "name": "D7",
          "midi": 98,
          "time": 101.84304898958202,
          "velocity": 0.7874015748031497,
          "duration": 0.06469288541666174
        },
        {
          "name": "F#7",
          "midi": 102,
          "time": 101.84304898958202,
          "velocity": 0.7874015748031497,
          "duration": 0.06469288541666174
        },
        {
          "name": "C4",
          "midi": 60,
          "time": 102.10510999999867,
          "velocity": 0.7874015748031497,
          "duration": 1.051533510416661
        },
        {
          "name": "F#4",
          "midi": 66,
          "time": 102.10510999999867,
          "velocity": 0.7874015748031497,
          "duration": 1.0504370208333285
        },
        {
          "name": "C#5",
          "midi": 73,
          "time": 102.10510999999867,
          "velocity": 0.7874015748031497,
          "duration": 1.051533510416661
        },
        {
          "name": "F#5",
          "midi": 78,
          "time": 102.10510999999867,
          "velocity": 0.7874015748031497,
          "duration": 1.0504370208333285
        },
        {
          "name": "C#6",
          "midi": 85,
          "time": 102.10510999999867,
          "velocity": 0.7874015748031497,
          "duration": 1.051533510416661
        },
        {
          "name": "F#6",
          "midi": 90,
          "time": 102.10510999999867,
          "velocity": 0.7874015748031497,
          "duration": 1.0504370208333285
        },
        {
          "name": "C#7",
          "midi": 97,
          "time": 102.10510999999867,
          "velocity": 0.7874015748031497,
          "duration": 1.051533510416661
        },
        {
          "name": "F#7",
          "midi": 102,
          "time": 102.10510999999867,
          "velocity": 0.7874015748031497,
          "duration": 1.0504370208333285
        },
        {
          "name": "D4",
          "midi": 62,
          "time": 103.15773999999867,
          "velocity": 0.7874015748031497,
          "duration": 0.06578937499999427
        },
        {
          "name": "F#4",
          "midi": 66,
          "time": 103.15773999999867,
          "velocity": 0.7874015748031497,
          "duration": 0.06578937499999427
        },
        {
          "name": "D#5",
          "midi": 75,
          "time": 103.15773999999867,
          "velocity": 0.7874015748031497,
          "duration": 0.06578937499999427
        },
        {
          "name": "F#5",
          "midi": 78,
          "time": 103.15773999999867,
          "velocity": 0.7874015748031497,
          "duration": 0.06578937499999427
        },
        {
          "name": "E6",
          "midi": 88,
          "time": 103.15773999999867,
          "velocity": 0.7874015748031497,
          "duration": 0.06578937499999427
        },
        {
          "name": "F#6",
          "midi": 90,
          "time": 103.15773999999867,
          "velocity": 0.7874015748031497,
          "duration": 0.06578937499999427
        },
        {
          "name": "E7",
          "midi": 100,
          "time": 103.15773999999867,
          "velocity": 0.7874015748031497,
          "duration": 0.06578937499999427
        },
        {
          "name": "F#7",
          "midi": 102,
          "time": 103.15773999999867,
          "velocity": 0.7874015748031497,
          "duration": 0.06578937499999427
        },
        {
          "name": "E7",
          "midi": 100,
          "time": 103.28822226041532,
          "velocity": 0.7874015748031497,
          "duration": 0.06578937499999427
        },
        {
          "name": "F#7",
          "midi": 102,
          "time": 103.28822226041532,
          "velocity": 0.7874015748031497,
          "duration": 0.06578937499999427
        },
        {
          "name": "D5",
          "midi": 74,
          "time": 103.42089749999865,
          "velocity": 0.7874015748031497,
          "duration": 0.06578937499999427
        },
        {
          "name": "F5",
          "midi": 77,
          "time": 103.42089749999865,
          "velocity": 0.7874015748031497,
          "duration": 0.06578937499999427
        },
        {
          "name": "D#6",
          "midi": 87,
          "time": 103.42089749999865,
          "velocity": 0.7874015748031497,
          "duration": 0.06578937499999427
        },
        {
          "name": "F6",
          "midi": 89,
          "time": 103.42089749999865,
          "velocity": 0.7874015748031497,
          "duration": 0.06578937499999427
        },
        {
          "name": "D#7",
          "midi": 99,
          "time": 103.42089749999865,
          "velocity": 0.7874015748031497,
          "duration": 0.06578937499999427
        },
        {
          "name": "F7",
          "midi": 101,
          "time": 103.42089749999865,
          "velocity": 0.7874015748031497,
          "duration": 0.06578937499999427
        },
        {
          "name": "D4",
          "midi": 62,
          "time": 103.5513797604153,
          "velocity": 0.7874015748031497,
          "duration": 0.06578937499999427
        },
        {
          "name": "F#4",
          "midi": 66,
          "time": 103.5513797604153,
          "velocity": 0.7874015748031497,
          "duration": 0.06578937499999427
        },
        {
          "name": "D#5",
          "midi": 75,
          "time": 103.5513797604153,
          "velocity": 0.7874015748031497,
          "duration": 0.06578937499999427
        },
        {
          "name": "F5",
          "midi": 77,
          "time": 103.5513797604153,
          "velocity": 0.7874015748031497,
          "duration": 0.06578937499999427
        },
        {
          "name": "E6",
          "midi": 88,
          "time": 103.5513797604153,
          "velocity": 0.7874015748031497,
          "duration": 0.06578937499999427
        },
        {
          "name": "F6",
          "midi": 89,
          "time": 103.5513797604153,
          "velocity": 0.7874015748031497,
          "duration": 0.06578937499999427
        },
        {
          "name": "E7",
          "midi": 100,
          "time": 103.5513797604153,
          "velocity": 0.7874015748031497,
          "duration": 0.06578937499999427
        },
        {
          "name": "F7",
          "midi": 101,
          "time": 103.5513797604153,
          "velocity": 0.7874015748031497,
          "duration": 0.06578937499999427
        },
        {
          "name": "D#7",
          "midi": 99,
          "time": 103.68405499999862,
          "velocity": 0.7874015748031497,
          "duration": 0.06798235416667353
        },
        {
          "name": "F7",
          "midi": 101,
          "time": 103.68405499999862,
          "velocity": 0.7874015748031497,
          "duration": 0.06798235416667353
        },
        {
          "name": "C#4",
          "midi": 61,
          "time": 103.8211161979153,
          "velocity": 0.7874015748031497,
          "duration": 0.06798235416667353
        },
        {
          "name": "F4",
          "midi": 65,
          "time": 103.8211161979153,
          "velocity": 0.7874015748031497,
          "duration": 0.06798235416667353
        },
        {
          "name": "D5",
          "midi": 74,
          "time": 103.8211161979153,
          "velocity": 0.7874015748031497,
          "duration": 0.06798235416667353
        },
        {
          "name": "F5",
          "midi": 77,
          "time": 103.8211161979153,
          "velocity": 0.7874015748031497,
          "duration": 0.06798235416667353
        },
        {
          "name": "D#6",
          "midi": 87,
          "time": 103.8211161979153,
          "velocity": 0.7874015748031497,
          "duration": 0.06798235416667353
        },
        {
          "name": "F6",
          "midi": 89,
          "time": 103.8211161979153,
          "velocity": 0.7874015748031497,
          "duration": 0.06798235416667353
        },
        {
          "name": "D7",
          "midi": 98,
          "time": 103.8211161979153,
          "velocity": 0.7874015748031497,
          "duration": 0.06798235416667353
        },
        {
          "name": "F7",
          "midi": 101,
          "time": 103.8211161979153,
          "velocity": 0.7874015748031497,
          "duration": 0.06798235416667353
        },
        {
          "name": "D6",
          "midi": 86,
          "time": 103.95817739583198,
          "velocity": 0.7874015748031497,
          "duration": 0.062499906249996684
        },
        {
          "name": "F6",
          "midi": 89,
          "time": 103.95817739583198,
          "velocity": 0.7874015748031497,
          "duration": 0.062499906249996684
        },
        {
          "name": "D#7",
          "midi": 99,
          "time": 103.95817739583198,
          "velocity": 0.7874015748031497,
          "duration": 0.062499906249996684
        },
        {
          "name": "F7",
          "midi": 101,
          "time": 103.95817739583198,
          "velocity": 0.7874015748031497,
          "duration": 0.062499906249996684
        },
        {
          "name": "D7",
          "midi": 98,
          "time": 104.08317720833197,
          "velocity": 0.7874015748031497,
          "duration": 0.06359639583332921
        },
        {
          "name": "F7",
          "midi": 101,
          "time": 104.08317720833197,
          "velocity": 0.7874015748031497,
          "duration": 0.06359639583332921
        },
        {
          "name": "C#4",
          "midi": 61,
          "time": 104.21036999999863,
          "velocity": 0.7874015748031497,
          "duration": 0.3903502916666639
        },
        {
          "name": "F#4",
          "midi": 66,
          "time": 104.21036999999863,
          "velocity": 0.7874015748031497,
          "duration": 0.3903502916666639
        },
        {
          "name": "C#5",
          "midi": 73,
          "time": 104.21036999999863,
          "velocity": 0.7874015748031497,
          "duration": 0.3903502916666639
        },
        {
          "name": "F#5",
          "midi": 78,
          "time": 104.21036999999863,
          "velocity": 0.7874015748031497,
          "duration": 0.3903502916666639
        },
        {
          "name": "C#6",
          "midi": 85,
          "time": 104.21036999999863,
          "velocity": 0.7874015748031497,
          "duration": 0.3903502916666639
        },
        {
          "name": "F#6",
          "midi": 90,
          "time": 104.21036999999863,
          "velocity": 0.7874015748031497,
          "duration": 0.3903502916666639
        },
        {
          "name": "C#7",
          "midi": 97,
          "time": 104.21036999999863,
          "velocity": 0.7874015748031497,
          "duration": 0.3903502916666639
        },
        {
          "name": "F7",
          "midi": 101,
          "time": 104.21036999999863,
          "velocity": 0.7874015748031497,
          "duration": 0.3903502916666639
        },
        {
          "name": "D4",
          "midi": 62,
          "time": 104.60510624999863,
          "velocity": 0.7874015748031497,
          "duration": 0.39144678124999643
        },
        {
          "name": "F#4",
          "midi": 66,
          "time": 104.60510624999863,
          "velocity": 0.7874015748031497,
          "duration": 0.39144678124999643
        },
        {
          "name": "D5",
          "midi": 74,
          "time": 104.60510624999863,
          "velocity": 0.7874015748031497,
          "duration": 0.39144678124999643
        },
        {
          "name": "F#5",
          "midi": 78,
          "time": 104.60510624999863,
          "velocity": 0.7874015748031497,
          "duration": 0.39144678124999643
        },
        {
          "name": "D6",
          "midi": 86,
          "time": 104.60510624999863,
          "velocity": 0.7874015748031497,
          "duration": 0.39144678124999643
        },
        {
          "name": "F#6",
          "midi": 90,
          "time": 104.60510624999863,
          "velocity": 0.7874015748031497,
          "duration": 0.39144678124999643
        },
        {
          "name": "D7",
          "midi": 98,
          "time": 104.60510624999863,
          "velocity": 0.7874015748031497,
          "duration": 0.39144678124999643
        },
        {
          "name": "F#7",
          "midi": 102,
          "time": 104.60510624999863,
          "velocity": 0.7874015748031497,
          "duration": 0.39144678124999643
        },
        {
          "name": "C#4",
          "midi": 61,
          "time": 104.99984249999862,
          "velocity": 0.7874015748031497,
          "duration": 0.06578937499999427
        },
        {
          "name": "F#4",
          "midi": 66,
          "time": 104.99984249999862,
          "velocity": 0.7874015748031497,
          "duration": 0.06578937499999427
        },
        {
          "name": "C5",
          "midi": 72,
          "time": 104.99984249999862,
          "velocity": 0.7874015748031497,
          "duration": 0.06578937499999427
        },
        {
          "name": "F#5",
          "midi": 78,
          "time": 104.99984249999862,
          "velocity": 0.7874015748031497,
          "duration": 0.06578937499999427
        },
        {
          "name": "C6",
          "midi": 84,
          "time": 104.99984249999862,
          "velocity": 0.7874015748031497,
          "duration": 0.06578937499999427
        },
        {
          "name": "F#6",
          "midi": 90,
          "time": 104.99984249999862,
          "velocity": 0.7874015748031497,
          "duration": 0.06578937499999427
        },
        {
          "name": "C7",
          "midi": 96,
          "time": 104.99984249999862,
          "velocity": 0.7874015748031497,
          "duration": 0.06578937499999427
        },
        {
          "name": "F#7",
          "midi": 102,
          "time": 104.99984249999862,
          "velocity": 0.7874015748031497,
          "duration": 0.06578937499999427
        },
        {
          "name": "C4",
          "midi": 60,
          "time": 105.26299999999861,
          "velocity": 0.7874015748031497,
          "duration": 0.39144678124999643
        },
        {
          "name": "F#4",
          "midi": 66,
          "time": 105.26299999999861,
          "velocity": 0.7874015748031497,
          "duration": 0.39144678124999643
        },
        {
          "name": "C5",
          "midi": 72,
          "time": 105.26299999999861,
          "velocity": 0.7874015748031497,
          "duration": 0.39144678124999643
        },
        {
          "name": "F#5",
          "midi": 78,
          "time": 105.26299999999861,
          "velocity": 0.7874015748031497,
          "duration": 0.39144678124999643
        },
        {
          "name": "C6",
          "midi": 84,
          "time": 105.26299999999861,
          "velocity": 0.7874015748031497,
          "duration": 0.39144678124999643
        },
        {
          "name": "F#6",
          "midi": 90,
          "time": 105.26299999999861,
          "velocity": 0.7874015748031497,
          "duration": 0.39144678124999643
        },
        {
          "name": "C7",
          "midi": 96,
          "time": 105.26299999999861,
          "velocity": 0.7874015748031497,
          "duration": 0.39144678124999643
        },
        {
          "name": "F#7",
          "midi": 102,
          "time": 105.26299999999861,
          "velocity": 0.7874015748031497,
          "duration": 0.39144678124999643
        },
        {
          "name": "C#4",
          "midi": 61,
          "time": 105.6577362499986,
          "velocity": 0.7874015748031497,
          "duration": 0.39144678124999643
        },
        {
          "name": "F#4",
          "midi": 66,
          "time": 105.6577362499986,
          "velocity": 0.7874015748031497,
          "duration": 0.39144678124999643
        },
        {
          "name": "C#5",
          "midi": 73,
          "time": 105.6577362499986,
          "velocity": 0.7874015748031497,
          "duration": 0.39144678124999643
        },
        {
          "name": "F#5",
          "midi": 78,
          "time": 105.6577362499986,
          "velocity": 0.7874015748031497,
          "duration": 0.39144678124999643
        },
        {
          "name": "C#6",
          "midi": 85,
          "time": 105.6577362499986,
          "velocity": 0.7874015748031497,
          "duration": 0.39144678124999643
        },
        {
          "name": "F#6",
          "midi": 90,
          "time": 105.6577362499986,
          "velocity": 0.7874015748031497,
          "duration": 0.39144678124999643
        },
        {
          "name": "C#7",
          "midi": 97,
          "time": 105.6577362499986,
          "velocity": 0.7874015748031497,
          "duration": 0.39144678124999643
        },
        {
          "name": "F#7",
          "midi": 102,
          "time": 105.6577362499986,
          "velocity": 0.7874015748031497,
          "duration": 0.39144678124999643
        },
        {
          "name": "C4",
          "midi": 60,
          "time": 106.05356898958193,
          "velocity": 0.7874015748031497,
          "duration": 0.06469288541666174
        },
        {
          "name": "F#4",
          "midi": 66,
          "time": 106.05356898958193,
          "velocity": 0.7874015748031497,
          "duration": 0.06469288541666174
        },
        {
          "name": "C5",
          "midi": 72,
          "time": 106.05356898958193,
          "velocity": 0.7874015748031497,
          "duration": 0.06469288541666174
        },
        {
          "name": "C6",
          "midi": 84,
          "time": 106.05356898958193,
          "velocity": 0.7874015748031497,
          "duration": 0.06469288541666174
        },
        {
          "name": "C7",
          "midi": 96,
          "time": 106.05356898958193,
          "velocity": 0.7874015748031497,
          "duration": 0.06469288541666174
        },
        {
          "name": "C#4",
          "midi": 61,
          "time": 106.31562999999859,
          "velocity": 0.7874015748031497,
          "duration": 1.3146910104166665
        },
        {
          "name": "F#4",
          "midi": 66,
          "time": 106.31562999999859,
          "velocity": 0.7874015748031497,
          "duration": 1.313594520833334
        },
        {
          "name": "D5",
          "midi": 74,
          "time": 106.31562999999859,
          "velocity": 0.7874015748031497,
          "duration": 1.3146910104166665
        },
        {
          "name": "F#5",
          "midi": 78,
          "time": 106.31562999999859,
          "velocity": 0.7874015748031497,
          "duration": 1.313594520833334
        },
        {
          "name": "D#6",
          "midi": 87,
          "time": 106.31562999999859,
          "velocity": 0.7874015748031497,
          "duration": 1.3146910104166665
        },
        {
          "name": "F#6",
          "midi": 90,
          "time": 106.31562999999859,
          "velocity": 0.7874015748031497,
          "duration": 1.313594520833334
        },
        {
          "name": "D7",
          "midi": 98,
          "time": 106.31562999999859,
          "velocity": 0.7874015748031497,
          "duration": 1.3146910104166665
        },
        {
          "name": "D#7",
          "midi": 99,
          "time": 106.31562999999859,
          "velocity": 0.7874015748031497,
          "duration": 1.3146910104166665
        },
        {
          "name": "F#7",
          "midi": 102,
          "time": 106.31562999999859,
          "velocity": 0.7874015748031497,
          "duration": 1.313594520833334
        },
        {
          "name": "C4",
          "midi": 60,
          "time": 107.63141749999859,
          "velocity": 0.7874015748031497,
          "duration": 0.06578937499999427
        },
        {
          "name": "F#4",
          "midi": 66,
          "time": 107.63141749999859,
          "velocity": 0.7874015748031497,
          "duration": 0.06578937499999427
        },
        {
          "name": "C5",
          "midi": 72,
          "time": 107.63141749999859,
          "velocity": 0.7874015748031497,
          "duration": 0.06578937499999427
        },
        {
          "name": "F#5",
          "midi": 78,
          "time": 107.63141749999859,
          "velocity": 0.7874015748031497,
          "duration": 0.06578937499999427
        },
        {
          "name": "C6",
          "midi": 84,
          "time": 107.63141749999859,
          "velocity": 0.7874015748031497,
          "duration": 0.06578937499999427
        },
        {
          "name": "F#6",
          "midi": 90,
          "time": 107.63141749999859,
          "velocity": 0.7874015748031497,
          "duration": 0.06578937499999427
        },
        {
          "name": "C7",
          "midi": 96,
          "time": 107.63141749999859,
          "velocity": 0.7874015748031497,
          "duration": 0.06578937499999427
        },
        {
          "name": "F#7",
          "midi": 102,
          "time": 107.63141749999859,
          "velocity": 0.7874015748031497,
          "duration": 0.06578937499999427
        },
        {
          "name": "C#4",
          "midi": 61,
          "time": 107.89457499999858,
          "velocity": 0.7874015748031497,
          "duration": 0.06469288541666174
        },
        {
          "name": "F#4",
          "midi": 66,
          "time": 107.89457499999858,
          "velocity": 0.7874015748031497,
          "duration": 0.06469288541666174
        },
        {
          "name": "C#5",
          "midi": 73,
          "time": 107.89457499999858,
          "velocity": 0.7874015748031497,
          "duration": 0.06469288541666174
        },
        {
          "name": "F#5",
          "midi": 78,
          "time": 107.89457499999858,
          "velocity": 0.7874015748031497,
          "duration": 0.06469288541666174
        },
        {
          "name": "C#6",
          "midi": 85,
          "time": 107.89457499999858,
          "velocity": 0.7874015748031497,
          "duration": 0.06469288541666174
        },
        {
          "name": "F#6",
          "midi": 90,
          "time": 107.89457499999858,
          "velocity": 0.7874015748031497,
          "duration": 0.06469288541666174
        },
        {
          "name": "C#7",
          "midi": 97,
          "time": 107.89457499999858,
          "velocity": 0.7874015748031497,
          "duration": 0.06469288541666174
        },
        {
          "name": "F#7",
          "midi": 102,
          "time": 107.89457499999858,
          "velocity": 0.7874015748031497,
          "duration": 0.06469288541666174
        },
        {
          "name": "C4",
          "midi": 60,
          "time": 108.1588289895819,
          "velocity": 0.7874015748031497,
          "duration": 0.06469288541666174
        },
        {
          "name": "F#4",
          "midi": 66,
          "time": 108.1588289895819,
          "velocity": 0.7874015748031497,
          "duration": 0.06469288541666174
        },
        {
          "name": "C5",
          "midi": 72,
          "time": 108.1588289895819,
          "velocity": 0.7874015748031497,
          "duration": 0.06469288541666174
        },
        {
          "name": "C6",
          "midi": 84,
          "time": 108.1588289895819,
          "velocity": 0.7874015748031497,
          "duration": 0.06469288541666174
        },
        {
          "name": "C7",
          "midi": 96,
          "time": 108.1588289895819,
          "velocity": 0.7874015748031497,
          "duration": 0.06469288541666174
        },
        {
          "name": "D4",
          "midi": 62,
          "time": 108.42088999999856,
          "velocity": 0.7874015748031497,
          "duration": 0.06469288541666174
        },
        {
          "name": "F#4",
          "midi": 66,
          "time": 108.42088999999856,
          "velocity": 0.7874015748031497,
          "duration": 0.06469288541666174
        },
        {
          "name": "D5",
          "midi": 74,
          "time": 108.42088999999856,
          "velocity": 0.7874015748031497,
          "duration": 0.06469288541666174
        },
        {
          "name": "F#5",
          "midi": 78,
          "time": 108.42088999999856,
          "velocity": 0.7874015748031497,
          "duration": 0.06469288541666174
        },
        {
          "name": "D#6",
          "midi": 87,
          "time": 108.42088999999856,
          "velocity": 0.7874015748031497,
          "duration": 0.06469288541666174
        },
        {
          "name": "F#6",
          "midi": 90,
          "time": 108.42088999999856,
          "velocity": 0.7874015748031497,
          "duration": 0.06469288541666174
        },
        {
          "name": "D#7",
          "midi": 99,
          "time": 108.42088999999856,
          "velocity": 0.7874015748031497,
          "duration": 0.06469288541666174
        },
        {
          "name": "F#7",
          "midi": 102,
          "time": 108.42088999999856,
          "velocity": 0.7874015748031497,
          "duration": 0.06469288541666174
        },
        {
          "name": "D#7",
          "midi": 99,
          "time": 108.5535652395819,
          "velocity": 0.7874015748031497,
          "duration": 0.06469288541666174
        },
        {
          "name": "F#7",
          "midi": 102,
          "time": 108.5535652395819,
          "velocity": 0.7874015748031497,
          "duration": 0.06469288541666174
        },
        {
          "name": "C#5",
          "midi": 73,
          "time": 108.68404749999856,
          "velocity": 0.7874015748031497,
          "duration": 0.06469288541666174
        },
        {
          "name": "F5",
          "midi": 77,
          "time": 108.68404749999856,
          "velocity": 0.7874015748031497,
          "duration": 0.06469288541666174
        },
        {
          "name": "D6",
          "midi": 86,
          "time": 108.68404749999856,
          "velocity": 0.7874015748031497,
          "duration": 0.06469288541666174
        },
        {
          "name": "F6",
          "midi": 89,
          "time": 108.68404749999856,
          "velocity": 0.7874015748031497,
          "duration": 0.06469288541666174
        },
        {
          "name": "D7",
          "midi": 98,
          "time": 108.68404749999856,
          "velocity": 0.7874015748031497,
          "duration": 0.06469288541666174
        },
        {
          "name": "F7",
          "midi": 101,
          "time": 108.68404749999856,
          "velocity": 0.7874015748031497,
          "duration": 0.06469288541666174
        },
        {
          "name": "D4",
          "midi": 62,
          "time": 108.81452976041521,
          "velocity": 0.7874015748031497,
          "duration": 0.06578937499999427
        },
        {
          "name": "F#4",
          "midi": 66,
          "time": 108.81452976041521,
          "velocity": 0.7874015748031497,
          "duration": 0.06578937499999427
        },
        {
          "name": "D5",
          "midi": 74,
          "time": 108.81452976041521,
          "velocity": 0.7874015748031497,
          "duration": 0.06578937499999427
        },
        {
          "name": "F5",
          "midi": 77,
          "time": 108.81452976041521,
          "velocity": 0.7874015748031497,
          "duration": 0.06578937499999427
        },
        {
          "name": "D#6",
          "midi": 87,
          "time": 108.81452976041521,
          "velocity": 0.7874015748031497,
          "duration": 0.06578937499999427
        },
        {
          "name": "F6",
          "midi": 89,
          "time": 108.81452976041521,
          "velocity": 0.7874015748031497,
          "duration": 0.06578937499999427
        },
        {
          "name": "D#7",
          "midi": 99,
          "time": 108.81452976041521,
          "velocity": 0.7874015748031497,
          "duration": 0.06578937499999427
        },
        {
          "name": "F7",
          "midi": 101,
          "time": 108.81452976041521,
          "velocity": 0.7874015748031497,
          "duration": 0.06578937499999427
        },
        {
          "name": "D#6",
          "midi": 87,
          "time": 109.07878374999854,
          "velocity": 0.7874015748031497,
          "duration": 0.06578937499999427
        },
        {
          "name": "F#6",
          "midi": 90,
          "time": 109.07878374999854,
          "velocity": 0.7874015748031497,
          "duration": 0.06578937499999427
        },
        {
          "name": "D#7",
          "midi": 99,
          "time": 109.07878374999854,
          "velocity": 0.7874015748031497,
          "duration": 0.06578937499999427
        },
        {
          "name": "F#7",
          "midi": 102,
          "time": 109.07878374999854,
          "velocity": 0.7874015748031497,
          "duration": 0.06578937499999427
        },
        {
          "name": "C#4",
          "midi": 61,
          "time": 109.21036249999852,
          "velocity": 0.7874015748031497,
          "duration": 0.06578937499999427
        },
        {
          "name": "F4",
          "midi": 65,
          "time": 109.21036249999852,
          "velocity": 0.7874015748031497,
          "duration": 0.06578937499999427
        },
        {
          "name": "C#5",
          "midi": 73,
          "time": 109.21036249999852,
          "velocity": 0.7874015748031497,
          "duration": 0.06578937499999427
        },
        {
          "name": "F5",
          "midi": 77,
          "time": 109.21036249999852,
          "velocity": 0.7874015748031497,
          "duration": 0.06578937499999427
        },
        {
          "name": "D6",
          "midi": 86,
          "time": 109.21036249999852,
          "velocity": 0.7874015748031497,
          "duration": 0.06578937499999427
        },
        {
          "name": "F6",
          "midi": 89,
          "time": 109.21036249999852,
          "velocity": 0.7874015748031497,
          "duration": 0.06578937499999427
        },
        {
          "name": "D7",
          "midi": 98,
          "time": 109.21036249999852,
          "velocity": 0.7874015748031497,
          "duration": 0.06578937499999427
        },
        {
          "name": "F7",
          "midi": 101,
          "time": 109.21036249999852,
          "velocity": 0.7874015748031497,
          "duration": 0.06578937499999427
        },
        {
          "name": "C#7",
          "midi": 97,
          "time": 109.34194124999851,
          "velocity": 0.7874015748031497,
          "duration": 0.06578937499999427
        },
        {
          "name": "F7",
          "midi": 101,
          "time": 109.34194124999851,
          "velocity": 0.7874015748031497,
          "duration": 0.06578937499999427
        },
        {
          "name": "C4",
          "midi": 60,
          "time": 109.4735199999985,
          "velocity": 0.7874015748031497,
          "duration": 0.3936397604166615
        },
        {
          "name": "F#4",
          "midi": 66,
          "time": 109.4735199999985,
          "velocity": 0.7874015748031497,
          "duration": 0.3936397604166615
        },
        {
          "name": "C5",
          "midi": 72,
          "time": 109.4735199999985,
          "velocity": 0.7874015748031497,
          "duration": 0.3936397604166615
        },
        {
          "name": "F#5",
          "midi": 78,
          "time": 109.4735199999985,
          "velocity": 0.7874015748031497,
          "duration": 0.3936397604166615
        },
        {
          "name": "C6",
          "midi": 84,
          "time": 109.4735199999985,
          "velocity": 0.7874015748031497,
          "duration": 0.3936397604166615
        },
        {
          "name": "F#6",
          "midi": 90,
          "time": 109.4735199999985,
          "velocity": 0.7874015748031497,
          "duration": 0.3936397604166615
        },
        {
          "name": "C7",
          "midi": 96,
          "time": 109.4735199999985,
          "velocity": 0.7874015748031497,
          "duration": 0.3936397604166615
        },
        {
          "name": "F7",
          "midi": 101,
          "time": 109.4735199999985,
          "velocity": 0.7874015748031497,
          "duration": 0.3936397604166615
        },
        {
          "name": "C#4",
          "midi": 61,
          "time": 109.86935273958183,
          "velocity": 0.7874015748031497,
          "duration": 0.39254327083332896
        },
        {
          "name": "F#4",
          "midi": 66,
          "time": 109.86935273958183,
          "velocity": 0.7874015748031497,
          "duration": 0.39144678124999643
        },
        {
          "name": "C#5",
          "midi": 73,
          "time": 109.86935273958183,
          "velocity": 0.7874015748031497,
          "duration": 0.39254327083332896
        },
        {
          "name": "F#5",
          "midi": 78,
          "time": 109.86935273958183,
          "velocity": 0.7874015748031497,
          "duration": 0.39254327083332896
        },
        {
          "name": "C#6",
          "midi": 85,
          "time": 109.86935273958183,
          "velocity": 0.7874015748031497,
          "duration": 0.39254327083332896
        },
        {
          "name": "F#6",
          "midi": 90,
          "time": 109.86935273958183,
          "velocity": 0.7874015748031497,
          "duration": 0.39254327083332896
        },
        {
          "name": "C#7",
          "midi": 97,
          "time": 109.86935273958183,
          "velocity": 0.7874015748031497,
          "duration": 0.39254327083332896
        },
        {
          "name": "F#7",
          "midi": 102,
          "time": 109.86935273958183,
          "velocity": 0.7874015748031497,
          "duration": 0.39254327083332896
        },
        {
          "name": "C4",
          "midi": 60,
          "time": 110.26299249999849,
          "velocity": 0.7874015748031497,
          "duration": 0.06469288541666174
        },
        {
          "name": "F#4",
          "midi": 66,
          "time": 110.26299249999849,
          "velocity": 0.7874015748031497,
          "duration": 0.06469288541666174
        },
        {
          "name": "C5",
          "midi": 72,
          "time": 110.26299249999849,
          "velocity": 0.7874015748031497,
          "duration": 0.06469288541666174
        },
        {
          "name": "C6",
          "midi": 84,
          "time": 110.26299249999849,
          "velocity": 0.7874015748031497,
          "duration": 0.06469288541666174
        },
        {
          "name": "C7",
          "midi": 96,
          "time": 110.26299249999849,
          "velocity": 0.7874015748031497,
          "duration": 0.06469288541666174
        },
        {
          "name": "C#4",
          "midi": 61,
          "time": 110.52614999999848,
          "velocity": 0.7874015748031497,
          "duration": 0.5252185104166642
        },
        {
          "name": "F#4",
          "midi": 66,
          "time": 110.52614999999848,
          "velocity": 0.7874015748031497,
          "duration": 0.5241220208333317
        },
        {
          "name": "D5",
          "midi": 74,
          "time": 110.52614999999848,
          "velocity": 0.7874015748031497,
          "duration": 0.5252185104166642
        },
        {
          "name": "F#5",
          "midi": 78,
          "time": 110.52614999999848,
          "velocity": 0.7874015748031497,
          "duration": 0.5241220208333317
        },
        {
          "name": "D#6",
          "midi": 87,
          "time": 110.52614999999848,
          "velocity": 0.7874015748031497,
          "duration": 0.5252185104166642
        },
        {
          "name": "F#6",
          "midi": 90,
          "time": 110.52614999999848,
          "velocity": 0.7874015748031497,
          "duration": 0.5241220208333317
        },
        {
          "name": "D7",
          "midi": 98,
          "time": 110.52614999999848,
          "velocity": 0.7874015748031497,
          "duration": 0.5252185104166642
        },
        {
          "name": "D#7",
          "midi": 99,
          "time": 110.52614999999848,
          "velocity": 0.7874015748031497,
          "duration": 0.5252185104166642
        },
        {
          "name": "F#7",
          "midi": 102,
          "time": 110.52614999999848,
          "velocity": 0.7874015748031497,
          "duration": 0.5241220208333317
        },
        {
          "name": "D4",
          "midi": 62,
          "time": 111.05246499999848,
          "velocity": 0.7874015748031497,
          "duration": 0.787279520833323
        },
        {
          "name": "F#4",
          "midi": 66,
          "time": 111.05246499999848,
          "velocity": 0.7874015748031497,
          "duration": 0.7861830312499904
        },
        {
          "name": "D#5",
          "midi": 75,
          "time": 111.05246499999848,
          "velocity": 0.7874015748031497,
          "duration": 0.787279520833323
        },
        {
          "name": "F#5",
          "midi": 78,
          "time": 111.05246499999848,
          "velocity": 0.7874015748031497,
          "duration": 0.7861830312499904
        },
        {
          "name": "D#6",
          "midi": 87,
          "time": 111.05246499999848,
          "velocity": 0.7874015748031497,
          "duration": 0.06469288541666174
        },
        {
          "name": "F#6",
          "midi": 90,
          "time": 111.05246499999848,
          "velocity": 0.7874015748031497,
          "duration": 0.06469288541666174
        },
        {
          "name": "D#7",
          "midi": 99,
          "time": 111.05246499999848,
          "velocity": 0.7874015748031497,
          "duration": 0.06469288541666174
        },
        {
          "name": "F#7",
          "midi": 102,
          "time": 111.05246499999848,
          "velocity": 0.7874015748031497,
          "duration": 0.06469288541666174
        },
        {
          "name": "E6",
          "midi": 88,
          "time": 111.18404374999847,
          "velocity": 0.7874015748031497,
          "duration": 0.6557007708333344
        },
        {
          "name": "F6",
          "midi": 89,
          "time": 111.18404374999847,
          "velocity": 0.7874015748031497,
          "duration": 0.6557007708333344
        },
        {
          "name": "E7",
          "midi": 100,
          "time": 111.18404374999847,
          "velocity": 0.7874015748031497,
          "duration": 0.6557007708333344
        },
        {
          "name": "F7",
          "midi": 101,
          "time": 111.18404374999847,
          "velocity": 0.7874015748031497,
          "duration": 0.6557007708333344
        },
        {
          "name": "C4",
          "midi": 60,
          "time": 111.84084101041513,
          "velocity": 0.7874015748031497,
          "duration": 0.06469288541666174
        },
        {
          "name": "F#4",
          "midi": 66,
          "time": 111.84084101041513,
          "velocity": 0.7874015748031497,
          "duration": 0.06469288541666174
        },
        {
          "name": "C5",
          "midi": 72,
          "time": 111.84084101041513,
          "velocity": 0.7874015748031497,
          "duration": 0.06469288541666174
        },
        {
          "name": "F#5",
          "midi": 78,
          "time": 111.84084101041513,
          "velocity": 0.7874015748031497,
          "duration": 0.06469288541666174
        },
        {
          "name": "C6",
          "midi": 84,
          "time": 111.84084101041513,
          "velocity": 0.7874015748031497,
          "duration": 0.06469288541666174
        },
        {
          "name": "F#6",
          "midi": 90,
          "time": 111.84084101041513,
          "velocity": 0.7874015748031497,
          "duration": 0.06469288541666174
        },
        {
          "name": "C7",
          "midi": 96,
          "time": 111.84084101041513,
          "velocity": 0.7874015748031497,
          "duration": 0.06469288541666174
        },
        {
          "name": "F#7",
          "midi": 102,
          "time": 111.84084101041513,
          "velocity": 0.7874015748031497,
          "duration": 0.06469288541666174
        },
        {
          "name": "C#4",
          "midi": 61,
          "time": 112.10509499999846,
          "velocity": 0.7874015748031497,
          "duration": 0.06578937499999427
        },
        {
          "name": "F#4",
          "midi": 66,
          "time": 112.10509499999846,
          "velocity": 0.7874015748031497,
          "duration": 0.06578937499999427
        },
        {
          "name": "C#5",
          "midi": 73,
          "time": 112.10509499999846,
          "velocity": 0.7874015748031497,
          "duration": 0.06578937499999427
        },
        {
          "name": "F#5",
          "midi": 78,
          "time": 112.10509499999846,
          "velocity": 0.7874015748031497,
          "duration": 0.06578937499999427
        },
        {
          "name": "C#6",
          "midi": 85,
          "time": 112.10509499999846,
          "velocity": 0.7874015748031497,
          "duration": 0.06578937499999427
        },
        {
          "name": "F#6",
          "midi": 90,
          "time": 112.10509499999846,
          "velocity": 0.7874015748031497,
          "duration": 0.06578937499999427
        },
        {
          "name": "C#7",
          "midi": 97,
          "time": 112.10509499999846,
          "velocity": 0.7874015748031497,
          "duration": 0.06578937499999427
        },
        {
          "name": "F#7",
          "midi": 102,
          "time": 112.10509499999846,
          "velocity": 0.7874015748031497,
          "duration": 0.06578937499999427
        },
        {
          "name": "C4",
          "midi": 60,
          "time": 112.36825249999845,
          "velocity": 0.7874015748031497,
          "duration": 0.06578937499999427
        },
        {
          "name": "F#4",
          "midi": 66,
          "time": 112.36825249999845,
          "velocity": 0.7874015748031497,
          "duration": 0.06578937499999427
        },
        {
          "name": "C5",
          "midi": 72,
          "time": 112.36825249999845,
          "velocity": 0.7874015748031497,
          "duration": 0.06578937499999427
        },
        {
          "name": "C6",
          "midi": 84,
          "time": 112.36825249999845,
          "velocity": 0.7874015748031497,
          "duration": 0.06578937499999427
        },
        {
          "name": "C7",
          "midi": 96,
          "time": 112.36825249999845,
          "velocity": 0.7874015748031497,
          "duration": 0.06578937499999427
        },
        {
          "name": "D4",
          "midi": 62,
          "time": 112.63140999999844,
          "velocity": 0.7874015748031497,
          "duration": 0.06688586458332679
        },
        {
          "name": "F#4",
          "midi": 66,
          "time": 112.63140999999844,
          "velocity": 0.7874015748031497,
          "duration": 0.06688586458332679
        },
        {
          "name": "D5",
          "midi": 74,
          "time": 112.63140999999844,
          "velocity": 0.7874015748031497,
          "duration": 0.06688586458332679
        },
        {
          "name": "F#5",
          "midi": 78,
          "time": 112.63140999999844,
          "velocity": 0.7874015748031497,
          "duration": 0.06688586458332679
        },
        {
          "name": "D#6",
          "midi": 87,
          "time": 112.63140999999844,
          "velocity": 0.7874015748031497,
          "duration": 0.06688586458332679
        },
        {
          "name": "F#6",
          "midi": 90,
          "time": 112.63140999999844,
          "velocity": 0.7874015748031497,
          "duration": 0.06688586458332679
        },
        {
          "name": "D#7",
          "midi": 99,
          "time": 112.63140999999844,
          "velocity": 0.7874015748031497,
          "duration": 0.06688586458332679
        },
        {
          "name": "F#7",
          "midi": 102,
          "time": 112.63140999999844,
          "velocity": 0.7874015748031497,
          "duration": 0.06688586458332679
        },
        {
          "name": "D#7",
          "midi": 99,
          "time": 112.76298874999843,
          "velocity": 0.7874015748031497,
          "duration": 0.06578937499999427
        },
        {
          "name": "F#7",
          "midi": 102,
          "time": 112.76298874999843,
          "velocity": 0.7874015748031497,
          "duration": 0.06578937499999427
        },
        {
          "name": "C#5",
          "midi": 73,
          "time": 112.89566398958175,
          "velocity": 0.7874015748031497,
          "duration": 0.06469288541666174
        },
        {
          "name": "F5",
          "midi": 77,
          "time": 112.89566398958175,
          "velocity": 0.7874015748031497,
          "duration": 0.06469288541666174
        },
        {
          "name": "D6",
          "midi": 86,
          "time": 112.89566398958175,
          "velocity": 0.7874015748031497,
          "duration": 0.06469288541666174
        },
        {
          "name": "F6",
          "midi": 89,
          "time": 112.89566398958175,
          "velocity": 0.7874015748031497,
          "duration": 0.06469288541666174
        },
        {
          "name": "D7",
          "midi": 98,
          "time": 112.89566398958175,
          "velocity": 0.7874015748031497,
          "duration": 0.06469288541666174
        },
        {
          "name": "F7",
          "midi": 101,
          "time": 112.89566398958175,
          "velocity": 0.7874015748031497,
          "duration": 0.06469288541666174
        },
        {
          "name": "D4",
          "midi": 62,
          "time": 113.02724273958174,
          "velocity": 0.7874015748031497,
          "duration": 0.06469288541666174
        },
        {
          "name": "F#4",
          "midi": 66,
          "time": 113.02724273958174,
          "velocity": 0.7874015748031497,
          "duration": 0.06469288541666174
        },
        {
          "name": "D5",
          "midi": 74,
          "time": 113.02724273958174,
          "velocity": 0.7874015748031497,
          "duration": 0.06469288541666174
        },
        {
          "name": "F5",
          "midi": 77,
          "time": 113.02724273958174,
          "velocity": 0.7874015748031497,
          "duration": 0.06469288541666174
        },
        {
          "name": "D#6",
          "midi": 87,
          "time": 113.02724273958174,
          "velocity": 0.7874015748031497,
          "duration": 0.06469288541666174
        },
        {
          "name": "F6",
          "midi": 89,
          "time": 113.02724273958174,
          "velocity": 0.7874015748031497,
          "duration": 0.06469288541666174
        },
        {
          "name": "D#7",
          "midi": 99,
          "time": 113.02724273958174,
          "velocity": 0.7874015748031497,
          "duration": 0.06469288541666174
        },
        {
          "name": "F7",
          "midi": 101,
          "time": 113.02724273958174,
          "velocity": 0.7874015748031497,
          "duration": 0.06469288541666174
        },
        {
          "name": "D#6",
          "midi": 87,
          "time": 113.2893037499984,
          "velocity": 0.7874015748031497,
          "duration": 0.06578937499999427
        },
        {
          "name": "F#6",
          "midi": 90,
          "time": 113.2893037499984,
          "velocity": 0.7874015748031497,
          "duration": 0.06578937499999427
        },
        {
          "name": "D#7",
          "midi": 99,
          "time": 113.2893037499984,
          "velocity": 0.7874015748031497,
          "duration": 0.06578937499999427
        },
        {
          "name": "F#7",
          "midi": 102,
          "time": 113.2893037499984,
          "velocity": 0.7874015748031497,
          "duration": 0.06578937499999427
        },
        {
          "name": "C#4",
          "midi": 61,
          "time": 113.42197898958172,
          "velocity": 0.7874015748031497,
          "duration": 0.06469288541666174
        },
        {
          "name": "F4",
          "midi": 65,
          "time": 113.42197898958172,
          "velocity": 0.7874015748031497,
          "duration": 0.06469288541666174
        },
        {
          "name": "C#5",
          "midi": 73,
          "time": 113.42197898958172,
          "velocity": 0.7874015748031497,
          "duration": 0.06469288541666174
        },
        {
          "name": "F5",
          "midi": 77,
          "time": 113.42197898958172,
          "velocity": 0.7874015748031497,
          "duration": 0.06469288541666174
        },
        {
          "name": "D6",
          "midi": 86,
          "time": 113.42197898958172,
          "velocity": 0.7874015748031497,
          "duration": 0.06469288541666174
        },
        {
          "name": "F6",
          "midi": 89,
          "time": 113.42197898958172,
          "velocity": 0.7874015748031497,
          "duration": 0.06469288541666174
        },
        {
          "name": "D7",
          "midi": 98,
          "time": 113.42197898958172,
          "velocity": 0.7874015748031497,
          "duration": 0.06469288541666174
        },
        {
          "name": "F7",
          "midi": 101,
          "time": 113.42197898958172,
          "velocity": 0.7874015748031497,
          "duration": 0.06469288541666174
        },
        {
          "name": "C#7",
          "midi": 97,
          "time": 113.55246124999837,
          "velocity": 0.7874015748031497,
          "duration": 0.06469288541666174
        },
        {
          "name": "F7",
          "midi": 101,
          "time": 113.55246124999837,
          "velocity": 0.7874015748031497,
          "duration": 0.06469288541666174
        },
        {
          "name": "C4",
          "midi": 60,
          "time": 113.68403999999836,
          "velocity": 0.7874015748031497,
          "duration": 0.06578937499999427
        },
        {
          "name": "F#4",
          "midi": 66,
          "time": 113.68403999999836,
          "velocity": 0.7874015748031497,
          "duration": 0.06578937499999427
        },
        {
          "name": "C#5",
          "midi": 73,
          "time": 113.68403999999836,
          "velocity": 0.7874015748031497,
          "duration": 0.06578937499999427
        },
        {
          "name": "F#5",
          "midi": 78,
          "time": 113.68403999999836,
          "velocity": 0.7874015748031497,
          "duration": 0.06578937499999427
        },
        {
          "name": "C#6",
          "midi": 85,
          "time": 113.68403999999836,
          "velocity": 0.7874015748031497,
          "duration": 0.06578937499999427
        },
        {
          "name": "F#6",
          "midi": 90,
          "time": 113.68403999999836,
          "velocity": 0.7874015748031497,
          "duration": 0.06578937499999427
        },
        {
          "name": "C7",
          "midi": 96,
          "time": 113.68403999999836,
          "velocity": 0.7874015748031497,
          "duration": 0.06578937499999427
        },
        {
          "name": "F7",
          "midi": 101,
          "time": 113.68403999999836,
          "velocity": 0.7874015748031497,
          "duration": 0.06578937499999427
        },
        {
          "name": "C#7",
          "midi": 97,
          "time": 113.81561874999835,
          "velocity": 0.7874015748031497,
          "duration": 0.06578937499999427
        },
        {
          "name": "F7",
          "midi": 101,
          "time": 113.81561874999835,
          "velocity": 0.7874015748031497,
          "duration": 0.06578937499999427
        },
        {
          "name": "C#4",
          "midi": 61,
          "time": 114.07877624999834,
          "velocity": 0.7874015748031497,
          "duration": 0.06578937499999427
        },
        {
          "name": "F#4",
          "midi": 66,
          "time": 114.07877624999834,
          "velocity": 0.7874015748031497,
          "duration": 0.06578937499999427
        },
        {
          "name": "D5",
          "midi": 74,
          "time": 114.07877624999834,
          "velocity": 0.7874015748031497,
          "duration": 0.06578937499999427
        },
        {
          "name": "F#5",
          "midi": 78,
          "time": 114.07877624999834,
          "velocity": 0.7874015748031497,
          "duration": 0.06578937499999427
        },
        {
          "name": "D6",
          "midi": 86,
          "time": 114.07877624999834,
          "velocity": 0.7874015748031497,
          "duration": 0.06578937499999427
        },
        {
          "name": "F#6",
          "midi": 90,
          "time": 114.07877624999834,
          "velocity": 0.7874015748031497,
          "duration": 0.06578937499999427
        },
        {
          "name": "D7",
          "midi": 98,
          "time": 114.07877624999834,
          "velocity": 0.7874015748031497,
          "duration": 0.06578937499999427
        },
        {
          "name": "F#7",
          "midi": 102,
          "time": 114.07877624999834,
          "velocity": 0.7874015748031497,
          "duration": 0.06578937499999427
        },
        {
          "name": "D#7",
          "midi": 99,
          "time": 114.37482843749834,
          "velocity": 0.7874015748031497,
          "duration": 0.06578937499999427
        },
        {
          "name": "F#7",
          "midi": 102,
          "time": 114.37482843749834,
          "velocity": 0.7874015748031497,
          "duration": 0.06578937499999427
        },
        {
          "name": "D4",
          "midi": 62,
          "time": 114.472416010415,
          "velocity": 0.7874015748031497,
          "duration": 0.06578937499999427
        },
        {
          "name": "F#4",
          "midi": 66,
          "time": 114.472416010415,
          "velocity": 0.7874015748031497,
          "duration": 0.06578937499999427
        },
        {
          "name": "D#5",
          "midi": 75,
          "time": 114.472416010415,
          "velocity": 0.7874015748031497,
          "duration": 0.06578937499999427
        },
        {
          "name": "F#5",
          "midi": 78,
          "time": 114.472416010415,
          "velocity": 0.7874015748031497,
          "duration": 0.06578937499999427
        },
        {
          "name": "D#6",
          "midi": 87,
          "time": 114.472416010415,
          "velocity": 0.7874015748031497,
          "duration": 0.06578937499999427
        },
        {
          "name": "F#6",
          "midi": 90,
          "time": 114.472416010415,
          "velocity": 0.7874015748031497,
          "duration": 0.06578937499999427
        },
        {
          "name": "E7",
          "midi": 100,
          "time": 114.472416010415,
          "velocity": 0.7874015748031497,
          "duration": 0.06578937499999427
        },
        {
          "name": "F7",
          "midi": 101,
          "time": 114.472416010415,
          "velocity": 0.7874015748031497,
          "duration": 0.06578937499999427
        },
        {
          "name": "C#4",
          "midi": 61,
          "time": 114.73666999999833,
          "velocity": 0.7874015748031497,
          "duration": 0.5230255312499992
        },
        {
          "name": "F#4",
          "midi": 66,
          "time": 114.73666999999833,
          "velocity": 0.7874015748031497,
          "duration": 0.5230255312499992
        },
        {
          "name": "D5",
          "midi": 74,
          "time": 114.73666999999833,
          "velocity": 0.7874015748031497,
          "duration": 0.5230255312499992
        },
        {
          "name": "F#5",
          "midi": 78,
          "time": 114.73666999999833,
          "velocity": 0.7874015748031497,
          "duration": 0.5230255312499992
        },
        {
          "name": "D6",
          "midi": 86,
          "time": 114.73666999999833,
          "velocity": 0.7874015748031497,
          "duration": 0.5252185104166642
        },
        {
          "name": "F#6",
          "midi": 90,
          "time": 114.73666999999833,
          "velocity": 0.7874015748031497,
          "duration": 0.5241220208333317
        },
        {
          "name": "D#7",
          "midi": 99,
          "time": 114.73666999999833,
          "velocity": 0.7874015748031497,
          "duration": 0.5230255312499992
        },
        {
          "name": "F#7",
          "midi": 102,
          "time": 114.73666999999833,
          "velocity": 0.7874015748031497,
          "duration": 0.5230255312499992
        },
        {
          "name": "D4",
          "midi": 62,
          "time": 115.26298499999832,
          "velocity": 0.7874015748031497,
          "duration": 0.7883760104166555
        },
        {
          "name": "F#4",
          "midi": 66,
          "time": 115.26298499999832,
          "velocity": 0.7874015748031497,
          "duration": 0.787279520833323
        },
        {
          "name": "D#5",
          "midi": 75,
          "time": 115.26298499999832,
          "velocity": 0.7874015748031497,
          "duration": 0.7883760104166555
        },
        {
          "name": "F#5",
          "midi": 78,
          "time": 115.26298499999832,
          "velocity": 0.7874015748031497,
          "duration": 0.787279520833323
        },
        {
          "name": "D6",
          "midi": 86,
          "time": 115.26298499999832,
          "velocity": 0.7874015748031497,
          "duration": 0.06469288541666174
        },
        {
          "name": "F#6",
          "midi": 90,
          "time": 115.26298499999832,
          "velocity": 0.7874015748031497,
          "duration": 0.06469288541666174
        },
        {
          "name": "D#7",
          "midi": 99,
          "time": 115.26298499999832,
          "velocity": 0.7874015748031497,
          "duration": 0.06469288541666174
        },
        {
          "name": "F#7",
          "midi": 102,
          "time": 115.26298499999832,
          "velocity": 0.7874015748031497,
          "duration": 0.06469288541666174
        },
        {
          "name": "D#6",
          "midi": 87,
          "time": 115.39456374999831,
          "velocity": 0.7874015748031497,
          "duration": 0.656797260416667
        },
        {
          "name": "F6",
          "midi": 89,
          "time": 115.39456374999831,
          "velocity": 0.7874015748031497,
          "duration": 0.656797260416667
        },
        {
          "name": "E7",
          "midi": 100,
          "time": 115.39456374999831,
          "velocity": 0.7874015748031497,
          "duration": 0.656797260416667
        },
        {
          "name": "F7",
          "midi": 101,
          "time": 115.39456374999831,
          "velocity": 0.7874015748031497,
          "duration": 0.656797260416667
        },
        {
          "name": "C4",
          "midi": 60,
          "time": 116.05245749999831,
          "velocity": 0.7874015748031497,
          "duration": 0.06578937499999427
        },
        {
          "name": "F#4",
          "midi": 66,
          "time": 116.05245749999831,
          "velocity": 0.7874015748031497,
          "duration": 0.06578937499999427
        },
        {
          "name": "C#5",
          "midi": 73,
          "time": 116.05245749999831,
          "velocity": 0.7874015748031497,
          "duration": 0.06578937499999427
        },
        {
          "name": "F#5",
          "midi": 78,
          "time": 116.05245749999831,
          "velocity": 0.7874015748031497,
          "duration": 0.06578937499999427
        },
        {
          "name": "C#6",
          "midi": 85,
          "time": 116.05245749999831,
          "velocity": 0.7874015748031497,
          "duration": 0.06578937499999427
        },
        {
          "name": "F#6",
          "midi": 90,
          "time": 116.05245749999831,
          "velocity": 0.7874015748031497,
          "duration": 0.06578937499999427
        },
        {
          "name": "C#7",
          "midi": 97,
          "time": 116.05245749999831,
          "velocity": 0.7874015748031497,
          "duration": 0.06578937499999427
        },
        {
          "name": "F#7",
          "midi": 102,
          "time": 116.05245749999831,
          "velocity": 0.7874015748031497,
          "duration": 0.06578937499999427
        },
        {
          "name": "C#4",
          "midi": 61,
          "time": 116.3156149999983,
          "velocity": 0.7874015748031497,
          "duration": 0.06578937499999427
        },
        {
          "name": "F#4",
          "midi": 66,
          "time": 116.3156149999983,
          "velocity": 0.7874015748031497,
          "duration": 0.06578937499999427
        },
        {
          "name": "D5",
          "midi": 74,
          "time": 116.3156149999983,
          "velocity": 0.7874015748031497,
          "duration": 0.06578937499999427
        },
        {
          "name": "F#5",
          "midi": 78,
          "time": 116.3156149999983,
          "velocity": 0.7874015748031497,
          "duration": 0.06578937499999427
        },
        {
          "name": "D6",
          "midi": 86,
          "time": 116.3156149999983,
          "velocity": 0.7874015748031497,
          "duration": 0.06578937499999427
        },
        {
          "name": "F#6",
          "midi": 90,
          "time": 116.3156149999983,
          "velocity": 0.7874015748031497,
          "duration": 0.06578937499999427
        },
        {
          "name": "D7",
          "midi": 98,
          "time": 116.3156149999983,
          "velocity": 0.7874015748031497,
          "duration": 0.06578937499999427
        },
        {
          "name": "F#7",
          "midi": 102,
          "time": 116.3156149999983,
          "velocity": 0.7874015748031497,
          "duration": 0.06578937499999427
        },
        {
          "name": "D4",
          "midi": 62,
          "time": 116.5787724999983,
          "velocity": 0.7874015748031497,
          "duration": 0.06578937499999427
        },
        {
          "name": "F#4",
          "midi": 66,
          "time": 116.5787724999983,
          "velocity": 0.7874015748031497,
          "duration": 0.06578937499999427
        },
        {
          "name": "D#5",
          "midi": 75,
          "time": 116.5787724999983,
          "velocity": 0.7874015748031497,
          "duration": 0.06578937499999427
        },
        {
          "name": "F#5",
          "midi": 78,
          "time": 116.5787724999983,
          "velocity": 0.7874015748031497,
          "duration": 0.06578937499999427
        },
        {
          "name": "D#6",
          "midi": 87,
          "time": 116.5787724999983,
          "velocity": 0.7874015748031497,
          "duration": 0.06578937499999427
        },
        {
          "name": "F#6",
          "midi": 90,
          "time": 116.5787724999983,
          "velocity": 0.7874015748031497,
          "duration": 0.06578937499999427
        },
        {
          "name": "E7",
          "midi": 100,
          "time": 116.5787724999983,
          "velocity": 0.7874015748031497,
          "duration": 0.06578937499999427
        },
        {
          "name": "F#7",
          "midi": 102,
          "time": 116.5787724999983,
          "velocity": 0.7874015748031497,
          "duration": 0.06578937499999427
        },
        {
          "name": "C#4",
          "midi": 61,
          "time": 116.84192999999829,
          "velocity": 0.7874015748031497,
          "duration": 0.06578937499999427
        },
        {
          "name": "F#4",
          "midi": 66,
          "time": 116.84192999999829,
          "velocity": 0.7874015748031497,
          "duration": 0.06578937499999427
        },
        {
          "name": "D5",
          "midi": 74,
          "time": 116.84192999999829,
          "velocity": 0.7874015748031497,
          "duration": 0.06578937499999427
        },
        {
          "name": "F#5",
          "midi": 78,
          "time": 116.84192999999829,
          "velocity": 0.7874015748031497,
          "duration": 0.06578937499999427
        },
        {
          "name": "D6",
          "midi": 86,
          "time": 116.84192999999829,
          "velocity": 0.7874015748031497,
          "duration": 0.06578937499999427
        },
        {
          "name": "F#6",
          "midi": 90,
          "time": 116.84192999999829,
          "velocity": 0.7874015748031497,
          "duration": 0.06578937499999427
        },
        {
          "name": "D#7",
          "midi": 99,
          "time": 116.84192999999829,
          "velocity": 0.7874015748031497,
          "duration": 0.06578937499999427
        },
        {
          "name": "F#7",
          "midi": 102,
          "time": 116.84192999999829,
          "velocity": 0.7874015748031497,
          "duration": 0.06578937499999427
        },
        {
          "name": "D#7",
          "midi": 99,
          "time": 116.97350874999827,
          "velocity": 0.7874015748031497,
          "duration": 0.06578937499999427
        },
        {
          "name": "F#7",
          "midi": 102,
          "time": 116.97350874999827,
          "velocity": 0.7874015748031497,
          "duration": 0.06578937499999427
        },
        {
          "name": "C#6",
          "midi": 85,
          "time": 117.10399101041493,
          "velocity": 0.7874015748031497,
          "duration": 0.06578937499999427
        },
        {
          "name": "F6",
          "midi": 89,
          "time": 117.10399101041493,
          "velocity": 0.7874015748031497,
          "duration": 0.06578937499999427
        },
        {
          "name": "D7",
          "midi": 98,
          "time": 117.10399101041493,
          "velocity": 0.7874015748031497,
          "duration": 0.06578937499999427
        },
        {
          "name": "F7",
          "midi": 101,
          "time": 117.10399101041493,
          "velocity": 0.7874015748031497,
          "duration": 0.06578937499999427
        },
        {
          "name": "C#4",
          "midi": 61,
          "time": 117.23666624999825,
          "velocity": 0.7874015748031497,
          "duration": 0.06578937499999427
        },
        {
          "name": "F#4",
          "midi": 66,
          "time": 117.23666624999825,
          "velocity": 0.7874015748031497,
          "duration": 0.06578937499999427
        },
        {
          "name": "D5",
          "midi": 74,
          "time": 117.23666624999825,
          "velocity": 0.7874015748031497,
          "duration": 0.06578937499999427
        },
        {
          "name": "F#5",
          "midi": 78,
          "time": 117.23666624999825,
          "velocity": 0.7874015748031497,
          "duration": 0.06578937499999427
        },
        {
          "name": "D6",
          "midi": 86,
          "time": 117.23666624999825,
          "velocity": 0.7874015748031497,
          "duration": 0.06578937499999427
        },
        {
          "name": "F6",
          "midi": 89,
          "time": 117.23666624999825,
          "velocity": 0.7874015748031497,
          "duration": 0.06578937499999427
        },
        {
          "name": "D#7",
          "midi": 99,
          "time": 117.23666624999825,
          "velocity": 0.7874015748031497,
          "duration": 0.06578937499999427
        },
        {
          "name": "F7",
          "midi": 101,
          "time": 117.23666624999825,
          "velocity": 0.7874015748031497,
          "duration": 0.06578937499999427
        },
        {
          "name": "D5",
          "midi": 74,
          "time": 117.49982374999824,
          "velocity": 0.7874015748031497,
          "duration": 0.06578937499999427
        },
        {
          "name": "F#5",
          "midi": 78,
          "time": 117.49982374999824,
          "velocity": 0.7874015748031497,
          "duration": 0.06578937499999427
        },
        {
          "name": "D6",
          "midi": 86,
          "time": 117.49982374999824,
          "velocity": 0.7874015748031497,
          "duration": 0.06578937499999427
        },
        {
          "name": "F#6",
          "midi": 90,
          "time": 117.49982374999824,
          "velocity": 0.7874015748031497,
          "duration": 0.06578937499999427
        },
        {
          "name": "D#7",
          "midi": 99,
          "time": 117.49982374999824,
          "velocity": 0.7874015748031497,
          "duration": 0.06578937499999427
        },
        {
          "name": "F#7",
          "midi": 102,
          "time": 117.49982374999824,
          "velocity": 0.7874015748031497,
          "duration": 0.06578937499999427
        },
        {
          "name": "C4",
          "midi": 60,
          "time": 117.6303060104149,
          "velocity": 0.7874015748031497,
          "duration": 0.06578937499999427
        },
        {
          "name": "F4",
          "midi": 65,
          "time": 117.6303060104149,
          "velocity": 0.7874015748031497,
          "duration": 0.06578937499999427
        },
        {
          "name": "C#5",
          "midi": 73,
          "time": 117.6303060104149,
          "velocity": 0.7874015748031497,
          "duration": 0.06578937499999427
        },
        {
          "name": "F5",
          "midi": 77,
          "time": 117.6303060104149,
          "velocity": 0.7874015748031497,
          "duration": 0.06578937499999427
        },
        {
          "name": "C#6",
          "midi": 85,
          "time": 117.6303060104149,
          "velocity": 0.7874015748031497,
          "duration": 0.06578937499999427
        },
        {
          "name": "F6",
          "midi": 89,
          "time": 117.6303060104149,
          "velocity": 0.7874015748031497,
          "duration": 0.06578937499999427
        },
        {
          "name": "D7",
          "midi": 98,
          "time": 117.6303060104149,
          "velocity": 0.7874015748031497,
          "duration": 0.06578937499999427
        },
        {
          "name": "F7",
          "midi": 101,
          "time": 117.6303060104149,
          "velocity": 0.7874015748031497,
          "duration": 0.06578937499999427
        },
        {
          "name": "C#7",
          "midi": 97,
          "time": 117.76188476041489,
          "velocity": 0.7874015748031497,
          "duration": 0.06578937499999427
        },
        {
          "name": "F7",
          "midi": 101,
          "time": 117.76188476041489,
          "velocity": 0.7874015748031497,
          "duration": 0.06578937499999427
        },
        {
          "name": "C4",
          "midi": 60,
          "time": 117.89455999999821,
          "velocity": 0.7874015748031497,
          "duration": 0.06578937499999427
        },
        {
          "name": "F#4",
          "midi": 66,
          "time": 117.89455999999821,
          "velocity": 0.7874015748031497,
          "duration": 0.06578937499999427
        },
        {
          "name": "C#5",
          "midi": 73,
          "time": 117.89455999999821,
          "velocity": 0.7874015748031497,
          "duration": 0.06578937499999427
        },
        {
          "name": "F#5",
          "midi": 78,
          "time": 117.89455999999821,
          "velocity": 0.7874015748031497,
          "duration": 0.06578937499999427
        },
        {
          "name": "C#6",
          "midi": 85,
          "time": 117.89455999999821,
          "velocity": 0.7874015748031497,
          "duration": 0.06578937499999427
        },
        {
          "name": "F#6",
          "midi": 90,
          "time": 117.89455999999821,
          "velocity": 0.7874015748031497,
          "duration": 0.06578937499999427
        },
        {
          "name": "C7",
          "midi": 96,
          "time": 117.89455999999821,
          "velocity": 0.7874015748031497,
          "duration": 0.06578937499999427
        },
        {
          "name": "F7",
          "midi": 101,
          "time": 117.89455999999821,
          "velocity": 0.7874015748031497,
          "duration": 0.06578937499999427
        },
        {
          "name": "C#4",
          "midi": 61,
          "time": 118.2892962499982,
          "velocity": 0.7874015748031497,
          "duration": 0.06469288541666174
        },
        {
          "name": "F#4",
          "midi": 66,
          "time": 118.2892962499982,
          "velocity": 0.7874015748031497,
          "duration": 0.06469288541666174
        },
        {
          "name": "D5",
          "midi": 74,
          "time": 118.2892962499982,
          "velocity": 0.7874015748031497,
          "duration": 0.06469288541666174
        },
        {
          "name": "F#5",
          "midi": 78,
          "time": 118.2892962499982,
          "velocity": 0.7874015748031497,
          "duration": 0.06469288541666174
        },
        {
          "name": "D6",
          "midi": 86,
          "time": 118.2892962499982,
          "velocity": 0.7874015748031497,
          "duration": 0.06469288541666174
        },
        {
          "name": "F#6",
          "midi": 90,
          "time": 118.2892962499982,
          "velocity": 0.7874015748031497,
          "duration": 0.06469288541666174
        },
        {
          "name": "D7",
          "midi": 98,
          "time": 118.2892962499982,
          "velocity": 0.7874015748031497,
          "duration": 0.06469288541666174
        },
        {
          "name": "F#7",
          "midi": 102,
          "time": 118.2892962499982,
          "velocity": 0.7874015748031497,
          "duration": 0.06469288541666174
        },
        {
          "name": "D4",
          "midi": 62,
          "time": 118.6840324999982,
          "velocity": 0.7874015748031497,
          "duration": 0.06578937499999427
        },
        {
          "name": "F#4",
          "midi": 66,
          "time": 118.6840324999982,
          "velocity": 0.7874015748031497,
          "duration": 0.06578937499999427
        },
        {
          "name": "D#5",
          "midi": 75,
          "time": 118.6840324999982,
          "velocity": 0.7874015748031497,
          "duration": 0.06578937499999427
        },
        {
          "name": "F#5",
          "midi": 78,
          "time": 118.6840324999982,
          "velocity": 0.7874015748031497,
          "duration": 0.06578937499999427
        },
        {
          "name": "D#6",
          "midi": 87,
          "time": 118.6840324999982,
          "velocity": 0.7874015748031497,
          "duration": 0.06578937499999427
        },
        {
          "name": "F#6",
          "midi": 90,
          "time": 118.6840324999982,
          "velocity": 0.7874015748031497,
          "duration": 0.06578937499999427
        },
        {
          "name": "E7",
          "midi": 100,
          "time": 118.6840324999982,
          "velocity": 0.7874015748031497,
          "duration": 0.06578937499999427
        },
        {
          "name": "F#7",
          "midi": 102,
          "time": 118.6840324999982,
          "velocity": 0.7874015748031497,
          "duration": 0.06578937499999427
        },
        {
          "name": "C#4",
          "midi": 61,
          "time": 118.94718999999819,
          "velocity": 0.7874015748031497,
          "duration": 0.06578937499999427
        },
        {
          "name": "F#4",
          "midi": 66,
          "time": 118.94718999999819,
          "velocity": 0.7874015748031497,
          "duration": 0.06578937499999427
        },
        {
          "name": "D5",
          "midi": 74,
          "time": 118.94718999999819,
          "velocity": 0.7874015748031497,
          "duration": 0.06578937499999427
        },
        {
          "name": "F#5",
          "midi": 78,
          "time": 118.94718999999819,
          "velocity": 0.7874015748031497,
          "duration": 0.06578937499999427
        },
        {
          "name": "D6",
          "midi": 86,
          "time": 118.94718999999819,
          "velocity": 0.7874015748031497,
          "duration": 0.06578937499999427
        },
        {
          "name": "F#6",
          "midi": 90,
          "time": 118.94718999999819,
          "velocity": 0.7874015748031497,
          "duration": 0.06578937499999427
        },
        {
          "name": "D#7",
          "midi": 99,
          "time": 118.94718999999819,
          "velocity": 0.7874015748031497,
          "duration": 0.06578937499999427
        },
        {
          "name": "F#7",
          "midi": 102,
          "time": 118.94718999999819,
          "velocity": 0.7874015748031497,
          "duration": 0.06578937499999427
        },
        {
          "name": "D#7",
          "midi": 99,
          "time": 119.14455812499818,
          "velocity": 0.7874015748031497,
          "duration": 0.06578937499999427
        },
        {
          "name": "F#7",
          "midi": 102,
          "time": 119.14455812499818,
          "velocity": 0.7874015748031497,
          "duration": 0.06578937499999427
        },
        {
          "name": "D4",
          "midi": 62,
          "time": 119.21034749999818,
          "velocity": 0.7874015748031497,
          "duration": 0.06578937500000848
        },
        {
          "name": "F#4",
          "midi": 66,
          "time": 119.21034749999818,
          "velocity": 0.7874015748031497,
          "duration": 0.06578937500000848
        },
        {
          "name": "D#5",
          "midi": 75,
          "time": 119.21034749999818,
          "velocity": 0.7874015748031497,
          "duration": 0.06578937500000848
        },
        {
          "name": "F#5",
          "midi": 78,
          "time": 119.21034749999818,
          "velocity": 0.7874015748031497,
          "duration": 0.06578937500000848
        },
        {
          "name": "D#6",
          "midi": 87,
          "time": 119.21034749999818,
          "velocity": 0.7874015748031497,
          "duration": 0.06578937500000848
        },
        {
          "name": "F#6",
          "midi": 90,
          "time": 119.21034749999818,
          "velocity": 0.7874015748031497,
          "duration": 0.06578937500000848
        },
        {
          "name": "E7",
          "midi": 100,
          "time": 119.24214569791485,
          "velocity": 0.7874015748031497,
          "duration": 0.06578937500000848
        },
        {
          "name": "F7",
          "midi": 101,
          "time": 119.24214569791485,
          "velocity": 0.7874015748031497,
          "duration": 0.06578937500000848
        },
        {
          "name": "C#4",
          "midi": 61,
          "time": 119.4735049999982,
          "velocity": 0.7874015748031497,
          "duration": 0.06469288541666174
        },
        {
          "name": "F#4",
          "midi": 66,
          "time": 119.4735049999982,
          "velocity": 0.7874015748031497,
          "duration": 0.06469288541666174
        },
        {
          "name": "D5",
          "midi": 74,
          "time": 119.4735049999982,
          "velocity": 0.7874015748031497,
          "duration": 0.06469288541666174
        },
        {
          "name": "F#5",
          "midi": 78,
          "time": 119.4735049999982,
          "velocity": 0.7874015748031497,
          "duration": 0.06469288541666174
        },
        {
          "name": "D6",
          "midi": 86,
          "time": 119.4735049999982,
          "velocity": 0.7874015748031497,
          "duration": 0.06469288541666174
        },
        {
          "name": "F#6",
          "midi": 90,
          "time": 119.4735049999982,
          "velocity": 0.7874015748031497,
          "duration": 0.06469288541666174
        },
        {
          "name": "D#7",
          "midi": 99,
          "time": 119.4735049999982,
          "velocity": 0.7874015748031497,
          "duration": 0.06469288541666174
        },
        {
          "name": "F#7",
          "midi": 102,
          "time": 119.4735049999982,
          "velocity": 0.7874015748031497,
          "duration": 0.06469288541666174
        },
        {
          "name": "C#5",
          "midi": 73,
          "time": 119.73666249999819,
          "velocity": 0.7874015748031497,
          "duration": 0.06469288541666174
        },
        {
          "name": "F#5",
          "midi": 78,
          "time": 119.73666249999819,
          "velocity": 0.7874015748031497,
          "duration": 0.06469288541666174
        },
        {
          "name": "C#6",
          "midi": 85,
          "time": 119.73666249999819,
          "velocity": 0.7874015748031497,
          "duration": 0.06469288541666174
        },
        {
          "name": "F#6",
          "midi": 90,
          "time": 119.73666249999819,
          "velocity": 0.7874015748031497,
          "duration": 0.06469288541666174
        },
        {
          "name": "D7",
          "midi": 98,
          "time": 119.73666249999819,
          "velocity": 0.7874015748031497,
          "duration": 0.06469288541666174
        },
        {
          "name": "F#7",
          "midi": 102,
          "time": 119.73666249999819,
          "velocity": 0.7874015748031497,
          "duration": 0.06469288541666174
        },
        {
          "name": "C#4",
          "midi": 61,
          "time": 119.99981999999818,
          "velocity": 0.7874015748031497,
          "duration": 0.06578937499999427
        },
        {
          "name": "F#4",
          "midi": 66,
          "time": 119.99981999999818,
          "velocity": 0.7874015748031497,
          "duration": 0.06578937499999427
        },
        {
          "name": "D#5",
          "midi": 75,
          "time": 119.99981999999818,
          "velocity": 0.7874015748031497,
          "duration": 0.06578937499999427
        },
        {
          "name": "F#5",
          "midi": 78,
          "time": 119.99981999999818,
          "velocity": 0.7874015748031497,
          "duration": 0.06578937499999427
        },
        {
          "name": "D6",
          "midi": 86,
          "time": 119.99981999999818,
          "velocity": 0.7874015748031497,
          "duration": 0.06578937499999427
        },
        {
          "name": "F#6",
          "midi": 90,
          "time": 119.99981999999818,
          "velocity": 0.7874015748031497,
          "duration": 0.06578937499999427
        },
        {
          "name": "C#7",
          "midi": 97,
          "time": 119.99981999999818,
          "velocity": 0.7874015748031497,
          "duration": 0.06578937499999427
        },
        {
          "name": "F#7",
          "midi": 102,
          "time": 119.99981999999818,
          "velocity": 0.7874015748031497,
          "duration": 0.06578937499999427
        },
        {
          "name": "D7",
          "midi": 98,
          "time": 120.13139874999817,
          "velocity": 0.7874015748031497,
          "duration": 0.06578937499999427
        },
        {
          "name": "F7",
          "midi": 101,
          "time": 120.13139874999817,
          "velocity": 0.7874015748031497,
          "duration": 0.06578937499999427
        },
        {
          "name": "C#6",
          "midi": 85,
          "time": 120.26407398958149,
          "velocity": 0.7874015748031497,
          "duration": 0.06469288541666174
        },
        {
          "name": "F6",
          "midi": 89,
          "time": 120.26407398958149,
          "velocity": 0.7874015748031497,
          "duration": 0.06469288541666174
        },
        {
          "name": "C#7",
          "midi": 97,
          "time": 120.26407398958149,
          "velocity": 0.7874015748031497,
          "duration": 0.06469288541666174
        },
        {
          "name": "F7",
          "midi": 101,
          "time": 120.26407398958149,
          "velocity": 0.7874015748031497,
          "duration": 0.06469288541666174
        },
        {
          "name": "D4",
          "midi": 62,
          "time": 120.39455624999815,
          "velocity": 0.7874015748031497,
          "duration": 0.06469288541666174
        },
        {
          "name": "F4",
          "midi": 65,
          "time": 120.39455624999815,
          "velocity": 0.7874015748031497,
          "duration": 0.06469288541666174
        },
        {
          "name": "D5",
          "midi": 74,
          "time": 120.39455624999815,
          "velocity": 0.7874015748031497,
          "duration": 0.06469288541666174
        },
        {
          "name": "F5",
          "midi": 77,
          "time": 120.39455624999815,
          "velocity": 0.7874015748031497,
          "duration": 0.06469288541666174
        },
        {
          "name": "E7",
          "midi": 100,
          "time": 120.39455624999815,
          "velocity": 0.7874015748031497,
          "duration": 0.06469288541666174
        },
        {
          "name": "F7",
          "midi": 101,
          "time": 120.39455624999815,
          "velocity": 0.7874015748031497,
          "duration": 0.06469288541666174
        },
        {
          "name": "D6",
          "midi": 86,
          "time": 120.52613499999813,
          "velocity": 0.7874015748031497,
          "duration": 0.06578937499999427
        },
        {
          "name": "F6",
          "midi": 89,
          "time": 120.52613499999813,
          "velocity": 0.7874015748031497,
          "duration": 0.06578937499999427
        },
        {
          "name": "D#7",
          "midi": 99,
          "time": 120.52613499999813,
          "velocity": 0.7874015748031497,
          "duration": 0.06578937499999427
        },
        {
          "name": "F7",
          "midi": 101,
          "time": 120.52613499999813,
          "velocity": 0.7874015748031497,
          "duration": 0.06578937499999427
        },
        {
          "name": "C#4",
          "midi": 61,
          "time": 120.65881023958146,
          "velocity": 0.7874015748031497,
          "duration": 0.06469288541666174
        },
        {
          "name": "F4",
          "midi": 65,
          "time": 120.65881023958146,
          "velocity": 0.7874015748031497,
          "duration": 0.06469288541666174
        },
        {
          "name": "C#5",
          "midi": 73,
          "time": 120.65881023958146,
          "velocity": 0.7874015748031497,
          "duration": 0.06469288541666174
        },
        {
          "name": "F5",
          "midi": 77,
          "time": 120.65881023958146,
          "velocity": 0.7874015748031497,
          "duration": 0.06469288541666174
        },
        {
          "name": "C#6",
          "midi": 85,
          "time": 120.65881023958146,
          "velocity": 0.7874015748031497,
          "duration": 0.06469288541666174
        },
        {
          "name": "F6",
          "midi": 89,
          "time": 120.65881023958146,
          "velocity": 0.7874015748031497,
          "duration": 0.06469288541666174
        },
        {
          "name": "D7",
          "midi": 98,
          "time": 120.65881023958146,
          "velocity": 0.7874015748031497,
          "duration": 0.06469288541666174
        },
        {
          "name": "F7",
          "midi": 101,
          "time": 120.65881023958146,
          "velocity": 0.7874015748031497,
          "duration": 0.06469288541666174
        },
        {
          "name": "C6",
          "midi": 84,
          "time": 120.78929249999811,
          "velocity": 0.7874015748031497,
          "duration": 0.06578937499999427
        },
        {
          "name": "F6",
          "midi": 89,
          "time": 120.78929249999811,
          "velocity": 0.7874015748031497,
          "duration": 0.06578937499999427
        },
        {
          "name": "C#7",
          "midi": 97,
          "time": 120.78929249999811,
          "velocity": 0.7874015748031497,
          "duration": 0.06578937499999427
        },
        {
          "name": "F7",
          "midi": 101,
          "time": 120.78929249999811,
          "velocity": 0.7874015748031497,
          "duration": 0.06578937499999427
        },
        {
          "name": "C4",
          "midi": 60,
          "time": 120.92196773958143,
          "velocity": 0.7874015748031497,
          "duration": 0.06469288541666174
        },
        {
          "name": "F4",
          "midi": 65,
          "time": 120.92196773958143,
          "velocity": 0.7874015748031497,
          "duration": 0.06469288541666174
        },
        {
          "name": "C5",
          "midi": 72,
          "time": 120.92196773958143,
          "velocity": 0.7874015748031497,
          "duration": 0.06469288541666174
        },
        {
          "name": "F5",
          "midi": 77,
          "time": 120.92196773958143,
          "velocity": 0.7874015748031497,
          "duration": 0.06469288541666174
        },
        {
          "name": "C7",
          "midi": 96,
          "time": 120.92196773958143,
          "velocity": 0.7874015748031497,
          "duration": 0.06469288541666174
        },
        {
          "name": "F7",
          "midi": 101,
          "time": 120.92196773958143,
          "velocity": 0.7874015748031497,
          "duration": 0.06469288541666174
        },
        {
          "name": "D6",
          "midi": 86,
          "time": 121.05244999999809,
          "velocity": 0.7874015748031497,
          "duration": 0.06578937499999427
        },
        {
          "name": "F6",
          "midi": 89,
          "time": 121.05244999999809,
          "velocity": 0.7874015748031497,
          "duration": 0.06578937499999427
        },
        {
          "name": "D#7",
          "midi": 99,
          "time": 121.05244999999809,
          "velocity": 0.7874015748031497,
          "duration": 0.06578937499999427
        },
        {
          "name": "F7",
          "midi": 101,
          "time": 121.05244999999809,
          "velocity": 0.7874015748031497,
          "duration": 0.06578937499999427
        },
        {
          "name": "C#4",
          "midi": 61,
          "time": 121.18293226041474,
          "velocity": 0.7874015748031497,
          "duration": 0.06578937499999427
        },
        {
          "name": "F#4",
          "midi": 66,
          "time": 121.18293226041474,
          "velocity": 0.7874015748031497,
          "duration": 0.06578937499999427
        },
        {
          "name": "D5",
          "midi": 74,
          "time": 121.18293226041474,
          "velocity": 0.7874015748031497,
          "duration": 0.06578937499999427
        },
        {
          "name": "F#5",
          "midi": 78,
          "time": 121.18293226041474,
          "velocity": 0.7874015748031497,
          "duration": 0.06578937499999427
        },
        {
          "name": "D7",
          "midi": 98,
          "time": 121.18293226041474,
          "velocity": 0.7874015748031497,
          "duration": 0.06578937499999427
        },
        {
          "name": "F7",
          "midi": 101,
          "time": 121.18293226041474,
          "velocity": 0.7874015748031497,
          "duration": 0.06578937499999427
        },
        {
          "name": "C6",
          "midi": 84,
          "time": 121.31560749999807,
          "velocity": 0.7874015748031497,
          "duration": 0.06578937499999427
        },
        {
          "name": "F6",
          "midi": 89,
          "time": 121.31560749999807,
          "velocity": 0.7874015748031497,
          "duration": 0.06578937499999427
        },
        {
          "name": "C#7",
          "midi": 97,
          "time": 121.31560749999807,
          "velocity": 0.7874015748031497,
          "duration": 0.06578937499999427
        },
        {
          "name": "F7",
          "midi": 101,
          "time": 121.31560749999807,
          "velocity": 0.7874015748031497,
          "duration": 0.06578937499999427
        },
        {
          "name": "C#5",
          "midi": 73,
          "time": 121.44608976041472,
          "velocity": 0.7874015748031497,
          "duration": 0.06578937499999427
        },
        {
          "name": "F5",
          "midi": 77,
          "time": 121.44608976041472,
          "velocity": 0.7874015748031497,
          "duration": 0.06578937499999427
        },
        {
          "name": "C#6",
          "midi": 85,
          "time": 121.44608976041472,
          "velocity": 0.7874015748031497,
          "duration": 0.06578937499999427
        },
        {
          "name": "F6",
          "midi": 89,
          "time": 121.44608976041472,
          "velocity": 0.7874015748031497,
          "duration": 0.06578937499999427
        },
        {
          "name": "D7",
          "midi": 98,
          "time": 121.44608976041472,
          "velocity": 0.7874015748031497,
          "duration": 0.06578937499999427
        },
        {
          "name": "F7",
          "midi": 101,
          "time": 121.44608976041472,
          "velocity": 0.7874015748031497,
          "duration": 0.06578937499999427
        },
        {
          "name": "C4",
          "midi": 60,
          "time": 121.71034374999805,
          "velocity": 0.7874015748031497,
          "duration": 0.06578937499999427
        },
        {
          "name": "F4",
          "midi": 65,
          "time": 121.71034374999805,
          "velocity": 0.7874015748031497,
          "duration": 0.06578937499999427
        },
        {
          "name": "C#5",
          "midi": 73,
          "time": 121.71034374999805,
          "velocity": 0.7874015748031497,
          "duration": 0.06578937499999427
        },
        {
          "name": "F#5",
          "midi": 78,
          "time": 121.71034374999805,
          "velocity": 0.7874015748031497,
          "duration": 0.06578937499999427
        },
        {
          "name": "C#6",
          "midi": 85,
          "time": 121.71034374999805,
          "velocity": 0.7874015748031497,
          "duration": 0.06578937499999427
        },
        {
          "name": "F#6",
          "midi": 90,
          "time": 121.71034374999805,
          "velocity": 0.7874015748031497,
          "duration": 0.06578937499999427
        },
        {
          "name": "D7",
          "midi": 98,
          "time": 121.71034374999805,
          "velocity": 0.7874015748031497,
          "duration": 0.06578937499999427
        },
        {
          "name": "F#7",
          "midi": 102,
          "time": 121.71034374999805,
          "velocity": 0.7874015748031497,
          "duration": 0.06578937499999427
        },
        {
          "name": "C5",
          "midi": 72,
          "time": 121.8408260104147,
          "velocity": 0.7874015748031497,
          "duration": 0.06578937499999427
        },
        {
          "name": "F5",
          "midi": 77,
          "time": 121.8408260104147,
          "velocity": 0.7874015748031497,
          "duration": 0.06578937499999427
        },
        {
          "name": "C6",
          "midi": 84,
          "time": 121.8408260104147,
          "velocity": 0.7874015748031497,
          "duration": 0.06578937499999427
        },
        {
          "name": "F6",
          "midi": 89,
          "time": 121.8408260104147,
          "velocity": 0.7874015748031497,
          "duration": 0.06578937499999427
        },
        {
          "name": "C#7",
          "midi": 97,
          "time": 121.8408260104147,
          "velocity": 0.7874015748031497,
          "duration": 0.06578937499999427
        },
        {
          "name": "F7",
          "midi": 101,
          "time": 121.8408260104147,
          "velocity": 0.7874015748031497,
          "duration": 0.06578937499999427
        },
        {
          "name": "C4",
          "midi": 60,
          "time": 122.10507999999803,
          "velocity": 0.7874015748031497,
          "duration": 0.5252185104166642
        },
        {
          "name": "F#4",
          "midi": 66,
          "time": 122.10507999999803,
          "velocity": 0.7874015748031497,
          "duration": 0.5241220208333317
        },
        {
          "name": "C5",
          "midi": 72,
          "time": 122.10507999999803,
          "velocity": 0.7874015748031497,
          "duration": 0.5252185104166642
        },
        {
          "name": "F#5",
          "midi": 78,
          "time": 122.10507999999803,
          "velocity": 0.7874015748031497,
          "duration": 0.5241220208333317
        },
        {
          "name": "C6",
          "midi": 84,
          "time": 122.10507999999803,
          "velocity": 0.7874015748031497,
          "duration": 0.5252185104166642
        },
        {
          "name": "F#6",
          "midi": 90,
          "time": 122.10507999999803,
          "velocity": 0.7874015748031497,
          "duration": 0.5241220208333317
        },
        {
          "name": "C7",
          "midi": 96,
          "time": 122.10507999999803,
          "velocity": 0.7874015748031497,
          "duration": 0.5252185104166642
        },
        {
          "name": "F#7",
          "midi": 102,
          "time": 122.10507999999803,
          "velocity": 0.7874015748031497,
          "duration": 0.5241220208333317
        },
        {
          "name": "C#4",
          "midi": 61,
          "time": 122.63139499999802,
          "velocity": 0.7874015748031497,
          "duration": 0.06469288541666174
        },
        {
          "name": "F#4",
          "midi": 66,
          "time": 122.63139499999802,
          "velocity": 0.7874015748031497,
          "duration": 0.06469288541666174
        },
        {
          "name": "C#5",
          "midi": 73,
          "time": 122.63139499999802,
          "velocity": 0.7874015748031497,
          "duration": 0.06469288541666174
        },
        {
          "name": "F#5",
          "midi": 78,
          "time": 122.63139499999802,
          "velocity": 0.7874015748031497,
          "duration": 0.06469288541666174
        },
        {
          "name": "C#6",
          "midi": 85,
          "time": 122.63139499999802,
          "velocity": 0.7874015748031497,
          "duration": 0.06469288541666174
        },
        {
          "name": "F#6",
          "midi": 90,
          "time": 122.63139499999802,
          "velocity": 0.7874015748031497,
          "duration": 0.06469288541666174
        },
        {
          "name": "C#7",
          "midi": 97,
          "time": 122.63139499999802,
          "velocity": 0.7874015748031497,
          "duration": 0.06469288541666174
        },
        {
          "name": "F#7",
          "midi": 102,
          "time": 122.63139499999802,
          "velocity": 0.7874015748031497,
          "duration": 0.06469288541666174
        },
        {
          "name": "C4",
          "midi": 60,
          "time": 122.89345601041468,
          "velocity": 0.7874015748031497,
          "duration": 0.06578937499999427
        },
        {
          "name": "F#4",
          "midi": 66,
          "time": 122.89345601041468,
          "velocity": 0.7874015748031497,
          "duration": 0.06578937499999427
        },
        {
          "name": "C5",
          "midi": 72,
          "time": 122.89345601041468,
          "velocity": 0.7874015748031497,
          "duration": 0.06578937499999427
        },
        {
          "name": "C6",
          "midi": 84,
          "time": 122.89345601041468,
          "velocity": 0.7874015748031497,
          "duration": 0.06578937499999427
        },
        {
          "name": "C7",
          "midi": 96,
          "time": 122.89345601041468,
          "velocity": 0.7874015748031497,
          "duration": 0.06578937499999427
        },
        {
          "name": "C#4",
          "midi": 61,
          "time": 123.157709999998,
          "velocity": 0.7874015748031497,
          "duration": 1.313594520833334
        },
        {
          "name": "F#4",
          "midi": 66,
          "time": 123.157709999998,
          "velocity": 0.7874015748031497,
          "duration": 1.3124980312500014
        },
        {
          "name": "D5",
          "midi": 74,
          "time": 123.157709999998,
          "velocity": 0.7874015748031497,
          "duration": 1.313594520833334
        },
        {
          "name": "F#5",
          "midi": 78,
          "time": 123.157709999998,
          "velocity": 0.7874015748031497,
          "duration": 1.3124980312500014
        },
        {
          "name": "D#6",
          "midi": 87,
          "time": 123.157709999998,
          "velocity": 0.7874015748031497,
          "duration": 1.313594520833334
        },
        {
          "name": "F#6",
          "midi": 90,
          "time": 123.157709999998,
          "velocity": 0.7874015748031497,
          "duration": 1.3124980312500014
        },
        {
          "name": "D7",
          "midi": 98,
          "time": 123.157709999998,
          "velocity": 0.7874015748031497,
          "duration": 1.313594520833334
        },
        {
          "name": "D#7",
          "midi": 99,
          "time": 123.157709999998,
          "velocity": 0.7874015748031497,
          "duration": 1.313594520833334
        },
        {
          "name": "F#7",
          "midi": 102,
          "time": 123.157709999998,
          "velocity": 0.7874015748031497,
          "duration": 1.3124980312500014
        },
        {
          "name": "C4",
          "midi": 60,
          "time": 124.47240101041467,
          "velocity": 0.7874015748031497,
          "duration": 0.06469288541666174
        },
        {
          "name": "F#4",
          "midi": 66,
          "time": 124.47240101041467,
          "velocity": 0.7874015748031497,
          "duration": 0.06469288541666174
        },
        {
          "name": "C5",
          "midi": 72,
          "time": 124.47240101041467,
          "velocity": 0.7874015748031497,
          "duration": 0.06469288541666174
        },
        {
          "name": "F#5",
          "midi": 78,
          "time": 124.47240101041467,
          "velocity": 0.7874015748031497,
          "duration": 0.06469288541666174
        },
        {
          "name": "C6",
          "midi": 84,
          "time": 124.47240101041467,
          "velocity": 0.7874015748031497,
          "duration": 0.06469288541666174
        },
        {
          "name": "F#6",
          "midi": 90,
          "time": 124.47240101041467,
          "velocity": 0.7874015748031497,
          "duration": 0.06469288541666174
        },
        {
          "name": "C7",
          "midi": 96,
          "time": 124.47240101041467,
          "velocity": 0.7874015748031497,
          "duration": 0.06469288541666174
        },
        {
          "name": "F#7",
          "midi": 102,
          "time": 124.47240101041467,
          "velocity": 0.7874015748031497,
          "duration": 0.06469288541666174
        },
        {
          "name": "C#4",
          "midi": 61,
          "time": 124.736654999998,
          "velocity": 0.7874015748031497,
          "duration": 0.06469288541666174
        },
        {
          "name": "F#4",
          "midi": 66,
          "time": 124.736654999998,
          "velocity": 0.7874015748031497,
          "duration": 0.06469288541666174
        },
        {
          "name": "C#5",
          "midi": 73,
          "time": 124.736654999998,
          "velocity": 0.7874015748031497,
          "duration": 0.06469288541666174
        },
        {
          "name": "F#5",
          "midi": 78,
          "time": 124.736654999998,
          "velocity": 0.7874015748031497,
          "duration": 0.06469288541666174
        },
        {
          "name": "C#6",
          "midi": 85,
          "time": 124.736654999998,
          "velocity": 0.7874015748031497,
          "duration": 0.06469288541666174
        },
        {
          "name": "F#6",
          "midi": 90,
          "time": 124.736654999998,
          "velocity": 0.7874015748031497,
          "duration": 0.06469288541666174
        },
        {
          "name": "C#7",
          "midi": 97,
          "time": 124.736654999998,
          "velocity": 0.7874015748031497,
          "duration": 0.06469288541666174
        },
        {
          "name": "F#7",
          "midi": 102,
          "time": 124.736654999998,
          "velocity": 0.7874015748031497,
          "duration": 0.06469288541666174
        },
        {
          "name": "C4",
          "midi": 60,
          "time": 124.99981249999799,
          "velocity": 0.7874015748031497,
          "duration": 0.06469288541666174
        },
        {
          "name": "F#4",
          "midi": 66,
          "time": 124.99981249999799,
          "velocity": 0.7874015748031497,
          "duration": 0.06469288541666174
        },
        {
          "name": "C5",
          "midi": 72,
          "time": 124.99981249999799,
          "velocity": 0.7874015748031497,
          "duration": 0.06469288541666174
        },
        {
          "name": "C6",
          "midi": 84,
          "time": 124.99981249999799,
          "velocity": 0.7874015748031497,
          "duration": 0.06469288541666174
        },
        {
          "name": "C7",
          "midi": 96,
          "time": 124.99981249999799,
          "velocity": 0.7874015748031497,
          "duration": 0.06469288541666174
        },
        {
          "name": "D4",
          "midi": 62,
          "time": 125.26296999999798,
          "velocity": 0.7874015748031497,
          "duration": 0.06469288541666174
        },
        {
          "name": "F#4",
          "midi": 66,
          "time": 125.26296999999798,
          "velocity": 0.7874015748031497,
          "duration": 0.06469288541666174
        },
        {
          "name": "D5",
          "midi": 74,
          "time": 125.26296999999798,
          "velocity": 0.7874015748031497,
          "duration": 0.06469288541666174
        },
        {
          "name": "F#5",
          "midi": 78,
          "time": 125.26296999999798,
          "velocity": 0.7874015748031497,
          "duration": 0.06469288541666174
        },
        {
          "name": "D#6",
          "midi": 87,
          "time": 125.26296999999798,
          "velocity": 0.7874015748031497,
          "duration": 0.06469288541666174
        },
        {
          "name": "F#6",
          "midi": 90,
          "time": 125.26296999999798,
          "velocity": 0.7874015748031497,
          "duration": 0.06469288541666174
        },
        {
          "name": "D#7",
          "midi": 99,
          "time": 125.26296999999798,
          "velocity": 0.7874015748031497,
          "duration": 0.06469288541666174
        },
        {
          "name": "F#7",
          "midi": 102,
          "time": 125.26296999999798,
          "velocity": 0.7874015748031497,
          "duration": 0.06469288541666174
        },
        {
          "name": "D#7",
          "midi": 99,
          "time": 125.39345226041463,
          "velocity": 0.7874015748031497,
          "duration": 0.06578937499999427
        },
        {
          "name": "F#7",
          "midi": 102,
          "time": 125.39345226041463,
          "velocity": 0.7874015748031497,
          "duration": 0.06578937499999427
        },
        {
          "name": "C#5",
          "midi": 73,
          "time": 125.52612749999795,
          "velocity": 0.7874015748031497,
          "duration": 0.06469288541666174
        },
        {
          "name": "F5",
          "midi": 77,
          "time": 125.52612749999795,
          "velocity": 0.7874015748031497,
          "duration": 0.06469288541666174
        },
        {
          "name": "D6",
          "midi": 86,
          "time": 125.52612749999795,
          "velocity": 0.7874015748031497,
          "duration": 0.06469288541666174
        },
        {
          "name": "F6",
          "midi": 89,
          "time": 125.52612749999795,
          "velocity": 0.7874015748031497,
          "duration": 0.06469288541666174
        },
        {
          "name": "D7",
          "midi": 98,
          "time": 125.52612749999795,
          "velocity": 0.7874015748031497,
          "duration": 0.06469288541666174
        },
        {
          "name": "F7",
          "midi": 101,
          "time": 125.52612749999795,
          "velocity": 0.7874015748031497,
          "duration": 0.06469288541666174
        },
        {
          "name": "D4",
          "midi": 62,
          "time": 125.65660976041461,
          "velocity": 0.7874015748031497,
          "duration": 0.06578937499999427
        },
        {
          "name": "F#4",
          "midi": 66,
          "time": 125.65660976041461,
          "velocity": 0.7874015748031497,
          "duration": 0.06578937499999427
        },
        {
          "name": "D5",
          "midi": 74,
          "time": 125.65660976041461,
          "velocity": 0.7874015748031497,
          "duration": 0.06578937499999427
        },
        {
          "name": "F5",
          "midi": 77,
          "time": 125.65660976041461,
          "velocity": 0.7874015748031497,
          "duration": 0.06578937499999427
        },
        {
          "name": "D#6",
          "midi": 87,
          "time": 125.65660976041461,
          "velocity": 0.7874015748031497,
          "duration": 0.06578937499999427
        },
        {
          "name": "F6",
          "midi": 89,
          "time": 125.65660976041461,
          "velocity": 0.7874015748031497,
          "duration": 0.06578937499999427
        },
        {
          "name": "D#7",
          "midi": 99,
          "time": 125.65660976041461,
          "velocity": 0.7874015748031497,
          "duration": 0.06578937499999427
        },
        {
          "name": "F7",
          "midi": 101,
          "time": 125.65660976041461,
          "velocity": 0.7874015748031497,
          "duration": 0.06578937499999427
        },
        {
          "name": "D#6",
          "midi": 87,
          "time": 125.92086374999793,
          "velocity": 0.7874015748031497,
          "duration": 0.06469288541666174
        },
        {
          "name": "F#6",
          "midi": 90,
          "time": 125.92086374999793,
          "velocity": 0.7874015748031497,
          "duration": 0.06469288541666174
        },
        {
          "name": "D#7",
          "midi": 99,
          "time": 125.92086374999793,
          "velocity": 0.7874015748031497,
          "duration": 0.06469288541666174
        },
        {
          "name": "F#7",
          "midi": 102,
          "time": 125.92086374999793,
          "velocity": 0.7874015748031497,
          "duration": 0.06469288541666174
        },
        {
          "name": "C#4",
          "midi": 61,
          "time": 126.05353898958127,
          "velocity": 0.7874015748031497,
          "duration": 0.06469288541666174
        },
        {
          "name": "F4",
          "midi": 65,
          "time": 126.05353898958127,
          "velocity": 0.7874015748031497,
          "duration": 0.06469288541666174
        },
        {
          "name": "C#5",
          "midi": 73,
          "time": 126.05353898958127,
          "velocity": 0.7874015748031497,
          "duration": 0.06469288541666174
        },
        {
          "name": "F5",
          "midi": 77,
          "time": 126.05353898958127,
          "velocity": 0.7874015748031497,
          "duration": 0.06469288541666174
        },
        {
          "name": "D6",
          "midi": 86,
          "time": 126.05353898958127,
          "velocity": 0.7874015748031497,
          "duration": 0.06469288541666174
        },
        {
          "name": "F6",
          "midi": 89,
          "time": 126.05353898958127,
          "velocity": 0.7874015748031497,
          "duration": 0.06469288541666174
        },
        {
          "name": "D7",
          "midi": 98,
          "time": 126.05353898958127,
          "velocity": 0.7874015748031497,
          "duration": 0.06469288541666174
        },
        {
          "name": "F7",
          "midi": 101,
          "time": 126.05353898958127,
          "velocity": 0.7874015748031497,
          "duration": 0.06469288541666174
        },
        {
          "name": "C#7",
          "midi": 97,
          "time": 126.18511773958126,
          "velocity": 0.7874015748031497,
          "duration": 0.06469288541666174
        },
        {
          "name": "F7",
          "midi": 101,
          "time": 126.18511773958126,
          "velocity": 0.7874015748031497,
          "duration": 0.06469288541666174
        },
        {
          "name": "G#8",
          "midi": 116,
          "time": 126.31559999999791,
          "velocity": 0.7874015748031497,
          "duration": 2.434206875000001
        },
        {
          "name": "C4",
          "midi": 60,
          "time": 126.31559999999791,
          "velocity": 0.7874015748031497,
          "duration": 0.3936397604166615
        },
        {
          "name": "F#4",
          "midi": 66,
          "time": 126.31559999999791,
          "velocity": 0.7874015748031497,
          "duration": 0.3936397604166615
        },
        {
          "name": "C5",
          "midi": 72,
          "time": 126.31559999999791,
          "velocity": 0.7874015748031497,
          "duration": 0.3936397604166615
        },
        {
          "name": "F#5",
          "midi": 78,
          "time": 126.31559999999791,
          "velocity": 0.7874015748031497,
          "duration": 0.3936397604166615
        },
        {
          "name": "C6",
          "midi": 84,
          "time": 126.31559999999791,
          "velocity": 0.7874015748031497,
          "duration": 0.3936397604166615
        },
        {
          "name": "F#6",
          "midi": 90,
          "time": 126.31559999999791,
          "velocity": 0.7874015748031497,
          "duration": 0.3936397604166615
        },
        {
          "name": "C7",
          "midi": 96,
          "time": 126.31559999999791,
          "velocity": 0.7874015748031497,
          "duration": 0.3936397604166615
        },
        {
          "name": "F7",
          "midi": 101,
          "time": 126.31559999999791,
          "velocity": 0.7874015748031497,
          "duration": 0.3936397604166615
        },
        {
          "name": "C#4",
          "midi": 61,
          "time": 126.71143273958124,
          "velocity": 0.7874015748031497,
          "duration": 0.39254327083332896
        },
        {
          "name": "F#4",
          "midi": 66,
          "time": 126.71143273958124,
          "velocity": 0.7874015748031497,
          "duration": 0.39144678124999643
        },
        {
          "name": "C#5",
          "midi": 73,
          "time": 126.71143273958124,
          "velocity": 0.7874015748031497,
          "duration": 0.39254327083332896
        },
        {
          "name": "F#5",
          "midi": 78,
          "time": 126.71143273958124,
          "velocity": 0.7874015748031497,
          "duration": 0.39254327083332896
        },
        {
          "name": "C#6",
          "midi": 85,
          "time": 126.71143273958124,
          "velocity": 0.7874015748031497,
          "duration": 0.39254327083332896
        },
        {
          "name": "F#6",
          "midi": 90,
          "time": 126.71143273958124,
          "velocity": 0.7874015748031497,
          "duration": 0.39254327083332896
        },
        {
          "name": "C#7",
          "midi": 97,
          "time": 126.71143273958124,
          "velocity": 0.7874015748031497,
          "duration": 0.39254327083332896
        },
        {
          "name": "F#7",
          "midi": 102,
          "time": 126.71143273958124,
          "velocity": 0.7874015748031497,
          "duration": 0.39254327083332896
        },
        {
          "name": "C4",
          "midi": 60,
          "time": 127.1050724999979,
          "velocity": 0.7874015748031497,
          "duration": 0.06469288541666174
        },
        {
          "name": "F#4",
          "midi": 66,
          "time": 127.1050724999979,
          "velocity": 0.7874015748031497,
          "duration": 0.06469288541666174
        },
        {
          "name": "C5",
          "midi": 72,
          "time": 127.1050724999979,
          "velocity": 0.7874015748031497,
          "duration": 0.06469288541666174
        },
        {
          "name": "C6",
          "midi": 84,
          "time": 127.1050724999979,
          "velocity": 0.7874015748031497,
          "duration": 0.06469288541666174
        },
        {
          "name": "C7",
          "midi": 96,
          "time": 127.1050724999979,
          "velocity": 0.7874015748031497,
          "duration": 0.06469288541666174
        },
        {
          "name": "C#4",
          "midi": 61,
          "time": 127.3682299999979,
          "velocity": 0.7874015748031497,
          "duration": 0.5252185104166642
        },
        {
          "name": "F#4",
          "midi": 66,
          "time": 127.3682299999979,
          "velocity": 0.7874015748031497,
          "duration": 0.5241220208333317
        },
        {
          "name": "D5",
          "midi": 74,
          "time": 127.3682299999979,
          "velocity": 0.7874015748031497,
          "duration": 0.5252185104166642
        },
        {
          "name": "F#5",
          "midi": 78,
          "time": 127.3682299999979,
          "velocity": 0.7874015748031497,
          "duration": 0.5241220208333317
        },
        {
          "name": "D#6",
          "midi": 87,
          "time": 127.3682299999979,
          "velocity": 0.7874015748031497,
          "duration": 0.5252185104166642
        },
        {
          "name": "F#6",
          "midi": 90,
          "time": 127.3682299999979,
          "velocity": 0.7874015748031497,
          "duration": 0.5241220208333317
        },
        {
          "name": "D7",
          "midi": 98,
          "time": 127.3682299999979,
          "velocity": 0.7874015748031497,
          "duration": 0.5252185104166642
        },
        {
          "name": "D#7",
          "midi": 99,
          "time": 127.3682299999979,
          "velocity": 0.7874015748031497,
          "duration": 0.5252185104166642
        },
        {
          "name": "F#7",
          "midi": 102,
          "time": 127.3682299999979,
          "velocity": 0.7874015748031497,
          "duration": 0.5241220208333317
        },
        {
          "name": "D4",
          "midi": 62,
          "time": 127.89454499999789,
          "velocity": 0.7874015748031497,
          "duration": 0.7872795208333514
        },
        {
          "name": "F#4",
          "midi": 66,
          "time": 127.89454499999789,
          "velocity": 0.7874015748031497,
          "duration": 0.7861830312500047
        },
        {
          "name": "D#5",
          "midi": 75,
          "time": 127.89454499999789,
          "velocity": 0.7874015748031497,
          "duration": 0.7872795208333514
        },
        {
          "name": "F#5",
          "midi": 78,
          "time": 127.89454499999789,
          "velocity": 0.7874015748031497,
          "duration": 0.7861830312500047
        },
        {
          "name": "D#6",
          "midi": 87,
          "time": 127.89454499999789,
          "velocity": 0.7874015748031497,
          "duration": 0.06578937499999427
        },
        {
          "name": "F#6",
          "midi": 90,
          "time": 127.89454499999789,
          "velocity": 0.7874015748031497,
          "duration": 0.06578937499999427
        },
        {
          "name": "D#7",
          "midi": 99,
          "time": 127.89454499999789,
          "velocity": 0.7874015748031497,
          "duration": 0.06578937499999427
        },
        {
          "name": "F#7",
          "midi": 102,
          "time": 127.89454499999789,
          "velocity": 0.7874015748031497,
          "duration": 0.06578937499999427
        },
        {
          "name": "E6",
          "midi": 88,
          "time": 128.02502726041456,
          "velocity": 0.7874015748031497,
          "duration": 0.6567972604166812
        },
        {
          "name": "F6",
          "midi": 89,
          "time": 128.02502726041456,
          "velocity": 0.7874015748031497,
          "duration": 0.6567972604166812
        },
        {
          "name": "E7",
          "midi": 100,
          "time": 128.02502726041456,
          "velocity": 0.7874015748031497,
          "duration": 0.6567972604166812
        },
        {
          "name": "F7",
          "midi": 101,
          "time": 128.02502726041456,
          "velocity": 0.7874015748031497,
          "duration": 0.6567972604166812
        },
        {
          "name": "C4",
          "midi": 60,
          "time": 128.6829210104146,
          "velocity": 0.7874015748031497,
          "duration": 0.06469288541666174
        },
        {
          "name": "F#4",
          "midi": 66,
          "time": 128.6829210104146,
          "velocity": 0.7874015748031497,
          "duration": 0.06469288541666174
        },
        {
          "name": "C5",
          "midi": 72,
          "time": 128.6829210104146,
          "velocity": 0.7874015748031497,
          "duration": 0.06469288541666174
        },
        {
          "name": "F#5",
          "midi": 78,
          "time": 128.6829210104146,
          "velocity": 0.7874015748031497,
          "duration": 0.06469288541666174
        },
        {
          "name": "C6",
          "midi": 84,
          "time": 128.6829210104146,
          "velocity": 0.7874015748031497,
          "duration": 0.06469288541666174
        },
        {
          "name": "F#6",
          "midi": 90,
          "time": 128.6829210104146,
          "velocity": 0.7874015748031497,
          "duration": 0.06469288541666174
        },
        {
          "name": "C7",
          "midi": 96,
          "time": 128.6829210104146,
          "velocity": 0.7874015748031497,
          "duration": 0.06469288541666174
        },
        {
          "name": "F#7",
          "midi": 102,
          "time": 128.6829210104146,
          "velocity": 0.7874015748031497,
          "duration": 0.06469288541666174
        },
        {
          "name": "C#4",
          "midi": 61,
          "time": 128.9471749999979,
          "velocity": 0.7874015748031497,
          "duration": 0.06578937500000848
        },
        {
          "name": "F#4",
          "midi": 66,
          "time": 128.9471749999979,
          "velocity": 0.7874015748031497,
          "duration": 0.06578937500000848
        },
        {
          "name": "C#5",
          "midi": 73,
          "time": 128.9471749999979,
          "velocity": 0.7874015748031497,
          "duration": 0.06578937500000848
        },
        {
          "name": "F#5",
          "midi": 78,
          "time": 128.9471749999979,
          "velocity": 0.7874015748031497,
          "duration": 0.06578937500000848
        },
        {
          "name": "C#6",
          "midi": 85,
          "time": 128.9471749999979,
          "velocity": 0.7874015748031497,
          "duration": 0.06578937500000848
        },
        {
          "name": "F#6",
          "midi": 90,
          "time": 128.9471749999979,
          "velocity": 0.7874015748031497,
          "duration": 0.06578937500000848
        },
        {
          "name": "C#7",
          "midi": 97,
          "time": 128.9471749999979,
          "velocity": 0.7874015748031497,
          "duration": 0.06578937500000848
        },
        {
          "name": "F#7",
          "midi": 102,
          "time": 128.9471749999979,
          "velocity": 0.7874015748031497,
          "duration": 0.06578937500000848
        },
        {
          "name": "C4",
          "midi": 60,
          "time": 129.21033249999792,
          "velocity": 0.7874015748031497,
          "duration": 0.06578937500000848
        },
        {
          "name": "F#4",
          "midi": 66,
          "time": 129.21033249999792,
          "velocity": 0.7874015748031497,
          "duration": 0.06578937500000848
        },
        {
          "name": "C5",
          "midi": 72,
          "time": 129.21033249999792,
          "velocity": 0.7874015748031497,
          "duration": 0.06578937500000848
        },
        {
          "name": "C6",
          "midi": 84,
          "time": 129.21033249999792,
          "velocity": 0.7874015748031497,
          "duration": 0.06578937500000848
        },
        {
          "name": "C7",
          "midi": 96,
          "time": 129.21033249999792,
          "velocity": 0.7874015748031497,
          "duration": 0.06578937500000848
        },
        {
          "name": "D4",
          "midi": 62,
          "time": 129.47348999999792,
          "velocity": 0.7874015748031497,
          "duration": 0.06688586458332679
        },
        {
          "name": "F#4",
          "midi": 66,
          "time": 129.47348999999792,
          "velocity": 0.7874015748031497,
          "duration": 0.06688586458332679
        },
        {
          "name": "D5",
          "midi": 74,
          "time": 129.47348999999792,
          "velocity": 0.7874015748031497,
          "duration": 0.06688586458332679
        },
        {
          "name": "F#5",
          "midi": 78,
          "time": 129.47348999999792,
          "velocity": 0.7874015748031497,
          "duration": 0.06688586458332679
        },
        {
          "name": "D#6",
          "midi": 87,
          "time": 129.47348999999792,
          "velocity": 0.7874015748031497,
          "duration": 0.06688586458332679
        },
        {
          "name": "F#6",
          "midi": 90,
          "time": 129.47348999999792,
          "velocity": 0.7874015748031497,
          "duration": 0.06688586458332679
        },
        {
          "name": "D#7",
          "midi": 99,
          "time": 129.47348999999792,
          "velocity": 0.7874015748031497,
          "duration": 0.06688586458332679
        },
        {
          "name": "F#7",
          "midi": 102,
          "time": 129.47348999999792,
          "velocity": 0.7874015748031497,
          "duration": 0.06688586458332679
        },
        {
          "name": "D#7",
          "midi": 99,
          "time": 129.60616523958126,
          "velocity": 0.7874015748031497,
          "duration": 0.06578937500000848
        },
        {
          "name": "F#7",
          "midi": 102,
          "time": 129.60616523958126,
          "velocity": 0.7874015748031497,
          "duration": 0.06578937500000848
        },
        {
          "name": "C#5",
          "midi": 73,
          "time": 129.73774398958128,
          "velocity": 0.7874015748031497,
          "duration": 0.06469288541666174
        },
        {
          "name": "F5",
          "midi": 77,
          "time": 129.73774398958128,
          "velocity": 0.7874015748031497,
          "duration": 0.06469288541666174
        },
        {
          "name": "D6",
          "midi": 86,
          "time": 129.73774398958128,
          "velocity": 0.7874015748031497,
          "duration": 0.06469288541666174
        },
        {
          "name": "F6",
          "midi": 89,
          "time": 129.73774398958128,
          "velocity": 0.7874015748031497,
          "duration": 0.06469288541666174
        },
        {
          "name": "D7",
          "midi": 98,
          "time": 129.73774398958128,
          "velocity": 0.7874015748031497,
          "duration": 0.06469288541666174
        },
        {
          "name": "F7",
          "midi": 101,
          "time": 129.73774398958128,
          "velocity": 0.7874015748031497,
          "duration": 0.06469288541666174
        },
        {
          "name": "D4",
          "midi": 62,
          "time": 129.86822624999795,
          "velocity": 0.7874015748031497,
          "duration": 0.06578937500000848
        },
        {
          "name": "F#4",
          "midi": 66,
          "time": 129.86822624999795,
          "velocity": 0.7874015748031497,
          "duration": 0.06578937500000848
        },
        {
          "name": "D5",
          "midi": 74,
          "time": 129.86822624999795,
          "velocity": 0.7874015748031497,
          "duration": 0.06578937500000848
        },
        {
          "name": "F5",
          "midi": 77,
          "time": 129.86822624999795,
          "velocity": 0.7874015748031497,
          "duration": 0.06578937500000848
        },
        {
          "name": "D#6",
          "midi": 87,
          "time": 129.86822624999795,
          "velocity": 0.7874015748031497,
          "duration": 0.06578937500000848
        },
        {
          "name": "F6",
          "midi": 89,
          "time": 129.86822624999795,
          "velocity": 0.7874015748031497,
          "duration": 0.06578937500000848
        },
        {
          "name": "D#7",
          "midi": 99,
          "time": 129.86822624999795,
          "velocity": 0.7874015748031497,
          "duration": 0.06578937500000848
        },
        {
          "name": "F7",
          "midi": 101,
          "time": 129.86822624999795,
          "velocity": 0.7874015748031497,
          "duration": 0.06578937500000848
        },
        {
          "name": "D#6",
          "midi": 87,
          "time": 130.1324802395813,
          "velocity": 0.7874015748031497,
          "duration": 0.06469288541666174
        },
        {
          "name": "F#6",
          "midi": 90,
          "time": 130.1324802395813,
          "velocity": 0.7874015748031497,
          "duration": 0.06469288541666174
        },
        {
          "name": "D#7",
          "midi": 99,
          "time": 130.1324802395813,
          "velocity": 0.7874015748031497,
          "duration": 0.06469288541666174
        },
        {
          "name": "F#7",
          "midi": 102,
          "time": 130.1324802395813,
          "velocity": 0.7874015748031497,
          "duration": 0.06469288541666174
        },
        {
          "name": "C#4",
          "midi": 61,
          "time": 130.2640589895813,
          "velocity": 0.7874015748031497,
          "duration": 0.06469288541666174
        },
        {
          "name": "F4",
          "midi": 65,
          "time": 130.2640589895813,
          "velocity": 0.7874015748031497,
          "duration": 0.06469288541666174
        },
        {
          "name": "C#5",
          "midi": 73,
          "time": 130.2640589895813,
          "velocity": 0.7874015748031497,
          "duration": 0.06469288541666174
        },
        {
          "name": "F5",
          "midi": 77,
          "time": 130.2640589895813,
          "velocity": 0.7874015748031497,
          "duration": 0.06469288541666174
        },
        {
          "name": "D6",
          "midi": 86,
          "time": 130.2640589895813,
          "velocity": 0.7874015748031497,
          "duration": 0.06469288541666174
        },
        {
          "name": "F6",
          "midi": 89,
          "time": 130.2640589895813,
          "velocity": 0.7874015748031497,
          "duration": 0.06469288541666174
        },
        {
          "name": "D7",
          "midi": 98,
          "time": 130.2640589895813,
          "velocity": 0.7874015748031497,
          "duration": 0.06469288541666174
        },
        {
          "name": "F7",
          "midi": 101,
          "time": 130.2640589895813,
          "velocity": 0.7874015748031497,
          "duration": 0.06469288541666174
        },
        {
          "name": "C#7",
          "midi": 97,
          "time": 130.39454124999796,
          "velocity": 0.7874015748031497,
          "duration": 0.06578937500000848
        },
        {
          "name": "F7",
          "midi": 101,
          "time": 130.39454124999796,
          "velocity": 0.7874015748031497,
          "duration": 0.06578937500000848
        },
        {
          "name": "C4",
          "midi": 60,
          "time": 130.52611999999797,
          "velocity": 0.7874015748031497,
          "duration": 0.06688586458332679
        },
        {
          "name": "F#4",
          "midi": 66,
          "time": 130.52611999999797,
          "velocity": 0.7874015748031497,
          "duration": 0.06688586458332679
        },
        {
          "name": "C#5",
          "midi": 73,
          "time": 130.52611999999797,
          "velocity": 0.7874015748031497,
          "duration": 0.06688586458332679
        },
        {
          "name": "F#5",
          "midi": 78,
          "time": 130.52611999999797,
          "velocity": 0.7874015748031497,
          "duration": 0.06688586458332679
        },
        {
          "name": "C#6",
          "midi": 85,
          "time": 130.52611999999797,
          "velocity": 0.7874015748031497,
          "duration": 0.06688586458332679
        },
        {
          "name": "F#6",
          "midi": 90,
          "time": 130.52611999999797,
          "velocity": 0.7874015748031497,
          "duration": 0.06688586458332679
        },
        {
          "name": "C7",
          "midi": 96,
          "time": 130.52611999999797,
          "velocity": 0.7874015748031497,
          "duration": 0.06688586458332679
        },
        {
          "name": "F7",
          "midi": 101,
          "time": 130.52611999999797,
          "velocity": 0.7874015748031497,
          "duration": 0.06688586458332679
        },
        {
          "name": "C#7",
          "midi": 97,
          "time": 130.6587952395813,
          "velocity": 0.7874015748031497,
          "duration": 0.06469288541666174
        },
        {
          "name": "F7",
          "midi": 101,
          "time": 130.6587952395813,
          "velocity": 0.7874015748031497,
          "duration": 0.06469288541666174
        },
        {
          "name": "C#4",
          "midi": 61,
          "time": 130.92195273958131,
          "velocity": 0.7874015748031497,
          "duration": 0.06469288541666174
        },
        {
          "name": "F#4",
          "midi": 66,
          "time": 130.92195273958131,
          "velocity": 0.7874015748031497,
          "duration": 0.06469288541666174
        },
        {
          "name": "D5",
          "midi": 74,
          "time": 130.92195273958131,
          "velocity": 0.7874015748031497,
          "duration": 0.06469288541666174
        },
        {
          "name": "F#5",
          "midi": 78,
          "time": 130.92195273958131,
          "velocity": 0.7874015748031497,
          "duration": 0.06469288541666174
        },
        {
          "name": "D6",
          "midi": 86,
          "time": 130.92195273958131,
          "velocity": 0.7874015748031497,
          "duration": 0.06469288541666174
        },
        {
          "name": "F#6",
          "midi": 90,
          "time": 130.92195273958131,
          "velocity": 0.7874015748031497,
          "duration": 0.06469288541666174
        },
        {
          "name": "D7",
          "midi": 98,
          "time": 130.92195273958131,
          "velocity": 0.7874015748031497,
          "duration": 0.06469288541666174
        },
        {
          "name": "F#7",
          "midi": 102,
          "time": 130.92195273958131,
          "velocity": 0.7874015748031497,
          "duration": 0.06469288541666174
        },
        {
          "name": "D7",
          "midi": 98,
          "time": 131.2837943020813,
          "velocity": 0.7874015748031497,
          "duration": 0.06469288541666174
        },
        {
          "name": "F#7",
          "midi": 102,
          "time": 131.2837943020813,
          "velocity": 0.7874015748031497,
          "duration": 0.06469288541666174
        },
        {
          "name": "C#4",
          "midi": 61,
          "time": 131.31559249999796,
          "velocity": 0.7874015748031497,
          "duration": 0.06469288541666174
        },
        {
          "name": "F#4",
          "midi": 66,
          "time": 131.31559249999796,
          "velocity": 0.7874015748031497,
          "duration": 0.06469288541666174
        },
        {
          "name": "D5",
          "midi": 74,
          "time": 131.31559249999796,
          "velocity": 0.7874015748031497,
          "duration": 0.06469288541666174
        },
        {
          "name": "F#5",
          "midi": 78,
          "time": 131.31559249999796,
          "velocity": 0.7874015748031497,
          "duration": 0.06469288541666174
        },
        {
          "name": "D6",
          "midi": 86,
          "time": 131.31559249999796,
          "velocity": 0.7874015748031497,
          "duration": 0.06469288541666174
        },
        {
          "name": "F#6",
          "midi": 90,
          "time": 131.31559249999796,
          "velocity": 0.7874015748031497,
          "duration": 0.06469288541666174
        },
        {
          "name": "D#7",
          "midi": 99,
          "time": 131.3824783645813,
          "velocity": 0.7874015748031497,
          "duration": 0.06469288541666174
        },
        {
          "name": "F7",
          "midi": 101,
          "time": 131.3824783645813,
          "velocity": 0.7874015748031497,
          "duration": 0.06469288541666174
        },
        {
          "name": "D4",
          "midi": 62,
          "time": 131.57874999999794,
          "velocity": 0.7874015748031497,
          "duration": 0.5219290416666809
        },
        {
          "name": "F#4",
          "midi": 66,
          "time": 131.57874999999794,
          "velocity": 0.7874015748031497,
          "duration": 0.5219290416666809
        },
        {
          "name": "D#5",
          "midi": 75,
          "time": 131.57874999999794,
          "velocity": 0.7874015748031497,
          "duration": 0.5219290416666809
        },
        {
          "name": "F#5",
          "midi": 78,
          "time": 131.57874999999794,
          "velocity": 0.7874015748031497,
          "duration": 0.5219290416666809
        },
        {
          "name": "D#6",
          "midi": 87,
          "time": 131.57874999999794,
          "velocity": 0.7874015748031497,
          "duration": 0.5252185104166927
        },
        {
          "name": "F#6",
          "midi": 90,
          "time": 131.57874999999794,
          "velocity": 0.7874015748031497,
          "duration": 0.5241220208333459
        },
        {
          "name": "E7",
          "midi": 100,
          "time": 131.57874999999794,
          "velocity": 0.7874015748031497,
          "duration": 0.42653444791667994
        },
        {
          "name": "F#7",
          "midi": 102,
          "time": 131.57874999999794,
          "velocity": 0.7874015748031497,
          "duration": 0.4254379583333332
        },
        {
          "name": "D#7",
          "midi": 99,
          "time": 132.00638093749797,
          "velocity": 0.7874015748031497,
          "duration": 0.7532883437500004
        },
        {
          "name": "F#7",
          "midi": 102,
          "time": 132.00638093749797,
          "velocity": 0.7874015748031497,
          "duration": 0.7532883437500004
        },
        {
          "name": "C#4",
          "midi": 61,
          "time": 132.10506499999798,
          "velocity": 0.7874015748031497,
          "duration": 0.6546042812499877
        },
        {
          "name": "F#4",
          "midi": 66,
          "time": 132.10506499999798,
          "velocity": 0.7874015748031497,
          "duration": 0.6546042812499877
        },
        {
          "name": "D5",
          "midi": 74,
          "time": 132.10506499999798,
          "velocity": 0.7874015748031497,
          "duration": 0.6546042812499877
        },
        {
          "name": "F#5",
          "midi": 78,
          "time": 132.10506499999798,
          "velocity": 0.7874015748031497,
          "duration": 0.6546042812499877
        },
        {
          "name": "D6",
          "midi": 86,
          "time": 132.10506499999798,
          "velocity": 0.7874015748031497,
          "duration": 0.6546042812499877
        },
        {
          "name": "F#6",
          "midi": 90,
          "time": 132.10506499999798,
          "velocity": 0.7874015748031497,
          "duration": 0.6546042812499877
        },
        {
          "name": "C4",
          "midi": 60,
          "time": 132.89453749999797,
          "velocity": 0.7874015748031497,
          "duration": 0.06469288541666174
        },
        {
          "name": "F#4",
          "midi": 66,
          "time": 132.89453749999797,
          "velocity": 0.7874015748031497,
          "duration": 0.06469288541666174
        },
        {
          "name": "C#5",
          "midi": 73,
          "time": 132.89453749999797,
          "velocity": 0.7874015748031497,
          "duration": 0.06469288541666174
        },
        {
          "name": "F#5",
          "midi": 78,
          "time": 132.89453749999797,
          "velocity": 0.7874015748031497,
          "duration": 0.06469288541666174
        },
        {
          "name": "C#6",
          "midi": 85,
          "time": 132.89453749999797,
          "velocity": 0.7874015748031497,
          "duration": 0.06469288541666174
        },
        {
          "name": "F#6",
          "midi": 90,
          "time": 132.89453749999797,
          "velocity": 0.7874015748031497,
          "duration": 0.06469288541666174
        },
        {
          "name": "C#7",
          "midi": 97,
          "time": 132.89453749999797,
          "velocity": 0.7874015748031497,
          "duration": 0.06469288541666174
        },
        {
          "name": "F#7",
          "midi": 102,
          "time": 132.89453749999797,
          "velocity": 0.7874015748031497,
          "duration": 0.06469288541666174
        },
        {
          "name": "C#4",
          "midi": 61,
          "time": 133.15769499999797,
          "velocity": 0.7874015748031497,
          "duration": 0.06469288541666174
        },
        {
          "name": "F#4",
          "midi": 66,
          "time": 133.15769499999797,
          "velocity": 0.7874015748031497,
          "duration": 0.06469288541666174
        },
        {
          "name": "D5",
          "midi": 74,
          "time": 133.15769499999797,
          "velocity": 0.7874015748031497,
          "duration": 0.06469288541666174
        },
        {
          "name": "F#5",
          "midi": 78,
          "time": 133.15769499999797,
          "velocity": 0.7874015748031497,
          "duration": 0.06469288541666174
        },
        {
          "name": "D6",
          "midi": 86,
          "time": 133.15769499999797,
          "velocity": 0.7874015748031497,
          "duration": 0.06469288541666174
        },
        {
          "name": "F#6",
          "midi": 90,
          "time": 133.15769499999797,
          "velocity": 0.7874015748031497,
          "duration": 0.06469288541666174
        },
        {
          "name": "D7",
          "midi": 98,
          "time": 133.15769499999797,
          "velocity": 0.7874015748031497,
          "duration": 0.06469288541666174
        },
        {
          "name": "F#7",
          "midi": 102,
          "time": 133.15769499999797,
          "velocity": 0.7874015748031497,
          "duration": 0.06469288541666174
        },
        {
          "name": "D4",
          "midi": 62,
          "time": 133.41975601041463,
          "velocity": 0.7874015748031497,
          "duration": 0.06469288541666174
        },
        {
          "name": "F#4",
          "midi": 66,
          "time": 133.41975601041463,
          "velocity": 0.7874015748031497,
          "duration": 0.06469288541666174
        },
        {
          "name": "D#5",
          "midi": 75,
          "time": 133.41975601041463,
          "velocity": 0.7874015748031497,
          "duration": 0.06469288541666174
        },
        {
          "name": "F#5",
          "midi": 78,
          "time": 133.41975601041463,
          "velocity": 0.7874015748031497,
          "duration": 0.06469288541666174
        },
        {
          "name": "D#6",
          "midi": 87,
          "time": 133.41975601041463,
          "velocity": 0.7874015748031497,
          "duration": 0.06469288541666174
        },
        {
          "name": "F#6",
          "midi": 90,
          "time": 133.41975601041463,
          "velocity": 0.7874015748031497,
          "duration": 0.06469288541666174
        },
        {
          "name": "E7",
          "midi": 100,
          "time": 133.41975601041463,
          "velocity": 0.7874015748031497,
          "duration": 0.06469288541666174
        },
        {
          "name": "F#7",
          "midi": 102,
          "time": 133.41975601041463,
          "velocity": 0.7874015748031497,
          "duration": 0.06469288541666174
        },
        {
          "name": "C#4",
          "midi": 61,
          "time": 133.68400999999795,
          "velocity": 0.7874015748031497,
          "duration": 0.06469288541666174
        },
        {
          "name": "F#4",
          "midi": 66,
          "time": 133.68400999999795,
          "velocity": 0.7874015748031497,
          "duration": 0.06469288541666174
        },
        {
          "name": "D5",
          "midi": 74,
          "time": 133.68400999999795,
          "velocity": 0.7874015748031497,
          "duration": 0.06469288541666174
        },
        {
          "name": "F#5",
          "midi": 78,
          "time": 133.68400999999795,
          "velocity": 0.7874015748031497,
          "duration": 0.06469288541666174
        },
        {
          "name": "D6",
          "midi": 86,
          "time": 133.68400999999795,
          "velocity": 0.7874015748031497,
          "duration": 0.06469288541666174
        },
        {
          "name": "F#6",
          "midi": 90,
          "time": 133.68400999999795,
          "velocity": 0.7874015748031497,
          "duration": 0.06469288541666174
        },
        {
          "name": "D#7",
          "midi": 99,
          "time": 133.68400999999795,
          "velocity": 0.7874015748031497,
          "duration": 0.06469288541666174
        },
        {
          "name": "F#7",
          "midi": 102,
          "time": 133.68400999999795,
          "velocity": 0.7874015748031497,
          "duration": 0.06469288541666174
        },
        {
          "name": "D#7",
          "midi": 99,
          "time": 133.81449226041462,
          "velocity": 0.7874015748031497,
          "duration": 0.06578937500000848
        },
        {
          "name": "F#7",
          "midi": 102,
          "time": 133.81449226041462,
          "velocity": 0.7874015748031497,
          "duration": 0.06578937500000848
        },
        {
          "name": "C#6",
          "midi": 85,
          "time": 133.94716749999796,
          "velocity": 0.7874015748031497,
          "duration": 0.06469288541666174
        },
        {
          "name": "F6",
          "midi": 89,
          "time": 133.94716749999796,
          "velocity": 0.7874015748031497,
          "duration": 0.06469288541666174
        },
        {
          "name": "D7",
          "midi": 98,
          "time": 133.94716749999796,
          "velocity": 0.7874015748031497,
          "duration": 0.06469288541666174
        },
        {
          "name": "F7",
          "midi": 101,
          "time": 133.94716749999796,
          "velocity": 0.7874015748031497,
          "duration": 0.06469288541666174
        },
        {
          "name": "C#4",
          "midi": 61,
          "time": 134.07764976041463,
          "velocity": 0.7874015748031497,
          "duration": 0.06578937500000848
        },
        {
          "name": "F#4",
          "midi": 66,
          "time": 134.07764976041463,
          "velocity": 0.7874015748031497,
          "duration": 0.06578937500000848
        },
        {
          "name": "D5",
          "midi": 74,
          "time": 134.07764976041463,
          "velocity": 0.7874015748031497,
          "duration": 0.06578937500000848
        },
        {
          "name": "F#5",
          "midi": 78,
          "time": 134.07764976041463,
          "velocity": 0.7874015748031497,
          "duration": 0.06578937500000848
        },
        {
          "name": "D6",
          "midi": 86,
          "time": 134.07764976041463,
          "velocity": 0.7874015748031497,
          "duration": 0.06578937500000848
        },
        {
          "name": "F6",
          "midi": 89,
          "time": 134.07764976041463,
          "velocity": 0.7874015748031497,
          "duration": 0.06578937500000848
        },
        {
          "name": "D#7",
          "midi": 99,
          "time": 134.07764976041463,
          "velocity": 0.7874015748031497,
          "duration": 0.06578937500000848
        },
        {
          "name": "F7",
          "midi": 101,
          "time": 134.07764976041463,
          "velocity": 0.7874015748031497,
          "duration": 0.06578937500000848
        },
        {
          "name": "D5",
          "midi": 74,
          "time": 134.34190374999798,
          "velocity": 0.7874015748031497,
          "duration": 0.06469288541666174
        },
        {
          "name": "F#5",
          "midi": 78,
          "time": 134.34190374999798,
          "velocity": 0.7874015748031497,
          "duration": 0.06469288541666174
        },
        {
          "name": "D6",
          "midi": 86,
          "time": 134.34190374999798,
          "velocity": 0.7874015748031497,
          "duration": 0.06469288541666174
        },
        {
          "name": "F#6",
          "midi": 90,
          "time": 134.34190374999798,
          "velocity": 0.7874015748031497,
          "duration": 0.06469288541666174
        },
        {
          "name": "D#7",
          "midi": 99,
          "time": 134.34190374999798,
          "velocity": 0.7874015748031497,
          "duration": 0.06469288541666174
        },
        {
          "name": "F#7",
          "midi": 102,
          "time": 134.34190374999798,
          "velocity": 0.7874015748031497,
          "duration": 0.06469288541666174
        },
        {
          "name": "C4",
          "midi": 60,
          "time": 134.47457898958132,
          "velocity": 0.7874015748031497,
          "duration": 0.06469288541666174
        },
        {
          "name": "F4",
          "midi": 65,
          "time": 134.47457898958132,
          "velocity": 0.7874015748031497,
          "duration": 0.06469288541666174
        },
        {
          "name": "C#5",
          "midi": 73,
          "time": 134.47457898958132,
          "velocity": 0.7874015748031497,
          "duration": 0.06469288541666174
        },
        {
          "name": "F5",
          "midi": 77,
          "time": 134.47457898958132,
          "velocity": 0.7874015748031497,
          "duration": 0.06469288541666174
        },
        {
          "name": "C#6",
          "midi": 85,
          "time": 134.47457898958132,
          "velocity": 0.7874015748031497,
          "duration": 0.06469288541666174
        },
        {
          "name": "F6",
          "midi": 89,
          "time": 134.47457898958132,
          "velocity": 0.7874015748031497,
          "duration": 0.06469288541666174
        },
        {
          "name": "D7",
          "midi": 98,
          "time": 134.47457898958132,
          "velocity": 0.7874015748031497,
          "duration": 0.06469288541666174
        },
        {
          "name": "F7",
          "midi": 101,
          "time": 134.47457898958132,
          "velocity": 0.7874015748031497,
          "duration": 0.06469288541666174
        },
        {
          "name": "C#7",
          "midi": 97,
          "time": 134.605061249998,
          "velocity": 0.7874015748031497,
          "duration": 0.06469288541666174
        },
        {
          "name": "F7",
          "midi": 101,
          "time": 134.605061249998,
          "velocity": 0.7874015748031497,
          "duration": 0.06469288541666174
        },
        {
          "name": "C4",
          "midi": 60,
          "time": 134.73663999999798,
          "velocity": 0.7874015748031497,
          "duration": 0.06469288541666174
        },
        {
          "name": "F#4",
          "midi": 66,
          "time": 134.73663999999798,
          "velocity": 0.7874015748031497,
          "duration": 0.06469288541666174
        },
        {
          "name": "C#5",
          "midi": 73,
          "time": 134.73663999999798,
          "velocity": 0.7874015748031497,
          "duration": 0.06469288541666174
        },
        {
          "name": "F#5",
          "midi": 78,
          "time": 134.73663999999798,
          "velocity": 0.7874015748031497,
          "duration": 0.06469288541666174
        },
        {
          "name": "C#6",
          "midi": 85,
          "time": 134.73663999999798,
          "velocity": 0.7874015748031497,
          "duration": 0.06469288541666174
        },
        {
          "name": "F#6",
          "midi": 90,
          "time": 134.73663999999798,
          "velocity": 0.7874015748031497,
          "duration": 0.06469288541666174
        },
        {
          "name": "C7",
          "midi": 96,
          "time": 134.73663999999798,
          "velocity": 0.7874015748031497,
          "duration": 0.06469288541666174
        },
        {
          "name": "F7",
          "midi": 101,
          "time": 134.73663999999798,
          "velocity": 0.7874015748031497,
          "duration": 0.06469288541666174
        },
        {
          "name": "C#4",
          "midi": 61,
          "time": 135.13137624999797,
          "velocity": 0.7874015748031497,
          "duration": 0.06469288541666174
        },
        {
          "name": "F#4",
          "midi": 66,
          "time": 135.13137624999797,
          "velocity": 0.7874015748031497,
          "duration": 0.06469288541666174
        },
        {
          "name": "D5",
          "midi": 74,
          "time": 135.13137624999797,
          "velocity": 0.7874015748031497,
          "duration": 0.06469288541666174
        },
        {
          "name": "F#5",
          "midi": 78,
          "time": 135.13137624999797,
          "velocity": 0.7874015748031497,
          "duration": 0.06469288541666174
        },
        {
          "name": "D6",
          "midi": 86,
          "time": 135.13137624999797,
          "velocity": 0.7874015748031497,
          "duration": 0.06469288541666174
        },
        {
          "name": "F#6",
          "midi": 90,
          "time": 135.13137624999797,
          "velocity": 0.7874015748031497,
          "duration": 0.06469288541666174
        },
        {
          "name": "D7",
          "midi": 98,
          "time": 135.13137624999797,
          "velocity": 0.7874015748031497,
          "duration": 0.06469288541666174
        },
        {
          "name": "F#7",
          "midi": 102,
          "time": 135.13137624999797,
          "velocity": 0.7874015748031497,
          "duration": 0.06469288541666174
        },
        {
          "name": "D4",
          "midi": 62,
          "time": 135.46032312499796,
          "velocity": 0.7874015748031497,
          "duration": 0.06469288541666174
        },
        {
          "name": "F#4",
          "midi": 66,
          "time": 135.46032312499796,
          "velocity": 0.7874015748031497,
          "duration": 0.06469288541666174
        },
        {
          "name": "D#5",
          "midi": 75,
          "time": 135.46032312499796,
          "velocity": 0.7874015748031497,
          "duration": 0.06469288541666174
        },
        {
          "name": "F#5",
          "midi": 78,
          "time": 135.46032312499796,
          "velocity": 0.7874015748031497,
          "duration": 0.06469288541666174
        },
        {
          "name": "D#6",
          "midi": 87,
          "time": 135.46032312499796,
          "velocity": 0.7874015748031497,
          "duration": 0.06469288541666174
        },
        {
          "name": "F#6",
          "midi": 90,
          "time": 135.46032312499796,
          "velocity": 0.7874015748031497,
          "duration": 0.06469288541666174
        },
        {
          "name": "D#7",
          "midi": 99,
          "time": 135.46032312499796,
          "velocity": 0.7874015748031497,
          "duration": 0.06469288541666174
        },
        {
          "name": "F#7",
          "midi": 102,
          "time": 135.46032312499796,
          "velocity": 0.7874015748031497,
          "duration": 0.06469288541666174
        },
        {
          "name": "E7",
          "midi": 100,
          "time": 135.55900718749794,
          "velocity": 0.7874015748031497,
          "duration": 0.06469288541666174
        },
        {
          "name": "F7",
          "midi": 101,
          "time": 135.55900718749794,
          "velocity": 0.7874015748031497,
          "duration": 0.06469288541666174
        },
        {
          "name": "C#4",
          "midi": 61,
          "time": 135.78926999999794,
          "velocity": 0.7874015748031497,
          "duration": 0.5252185104166927
        },
        {
          "name": "F#4",
          "midi": 66,
          "time": 135.78926999999794,
          "velocity": 0.7874015748031497,
          "duration": 0.5241220208333459
        },
        {
          "name": "D5",
          "midi": 74,
          "time": 135.78926999999794,
          "velocity": 0.7874015748031497,
          "duration": 0.5252185104166927
        },
        {
          "name": "F#5",
          "midi": 78,
          "time": 135.78926999999794,
          "velocity": 0.7874015748031497,
          "duration": 0.5241220208333459
        },
        {
          "name": "D6",
          "midi": 86,
          "time": 135.78926999999794,
          "velocity": 0.7874015748031497,
          "duration": 0.5252185104166927
        },
        {
          "name": "F#6",
          "midi": 90,
          "time": 135.78926999999794,
          "velocity": 0.7874015748031497,
          "duration": 0.5241220208333459
        },
        {
          "name": "D#7",
          "midi": 99,
          "time": 135.78926999999794,
          "velocity": 0.7874015748031497,
          "duration": 0.5252185104166927
        },
        {
          "name": "F#7",
          "midi": 102,
          "time": 135.78926999999794,
          "velocity": 0.7874015748031497,
          "duration": 0.5241220208333459
        },
        {
          "name": "D4",
          "midi": 62,
          "time": 136.31558499999798,
          "velocity": 0.7874015748031497,
          "duration": 0.5241220208333175
        },
        {
          "name": "F#4",
          "midi": 66,
          "time": 136.31558499999798,
          "velocity": 0.7874015748031497,
          "duration": 0.5241220208333175
        },
        {
          "name": "D#5",
          "midi": 75,
          "time": 136.31558499999798,
          "velocity": 0.7874015748031497,
          "duration": 0.5241220208333175
        },
        {
          "name": "F#5",
          "midi": 78,
          "time": 136.31558499999798,
          "velocity": 0.7874015748031497,
          "duration": 0.5241220208333175
        },
        {
          "name": "D#6",
          "midi": 87,
          "time": 136.31558499999798,
          "velocity": 0.7874015748031497,
          "duration": 0.5241220208333175
        },
        {
          "name": "F#6",
          "midi": 90,
          "time": 136.31558499999798,
          "velocity": 0.7874015748031497,
          "duration": 0.5241220208333175
        },
        {
          "name": "D#7",
          "midi": 99,
          "time": 136.31558499999798,
          "velocity": 0.7874015748031497,
          "duration": 0.06469288541666174
        },
        {
          "name": "F#7",
          "midi": 102,
          "time": 136.31558499999798,
          "velocity": 0.7874015748031497,
          "duration": 0.06469288541666174
        },
        {
          "name": "E7",
          "midi": 100,
          "time": 136.4153655520813,
          "velocity": 0.7874015748031497,
          "duration": 0.42434146874998646
        },
        {
          "name": "F7",
          "midi": 101,
          "time": 136.4153655520813,
          "velocity": 0.7874015748031497,
          "duration": 0.42434146874998646
        },
        {
          "name": "C#4",
          "midi": 61,
          "time": 136.84189999999796,
          "velocity": 0.7874015748031497,
          "duration": 0.06469288541666174
        },
        {
          "name": "F#4",
          "midi": 66,
          "time": 136.84189999999796,
          "velocity": 0.7874015748031497,
          "duration": 0.06469288541666174
        },
        {
          "name": "D5",
          "midi": 74,
          "time": 136.84189999999796,
          "velocity": 0.7874015748031497,
          "duration": 0.06469288541666174
        },
        {
          "name": "F#5",
          "midi": 78,
          "time": 136.84189999999796,
          "velocity": 0.7874015748031497,
          "duration": 0.06469288541666174
        },
        {
          "name": "D6",
          "midi": 86,
          "time": 136.84189999999796,
          "velocity": 0.7874015748031497,
          "duration": 0.06469288541666174
        },
        {
          "name": "F#6",
          "midi": 90,
          "time": 136.84189999999796,
          "velocity": 0.7874015748031497,
          "duration": 0.06469288541666174
        },
        {
          "name": "D#7",
          "midi": 99,
          "time": 136.84189999999796,
          "velocity": 0.7874015748031497,
          "duration": 0.06469288541666174
        },
        {
          "name": "F#7",
          "midi": 102,
          "time": 136.84189999999796,
          "velocity": 0.7874015748031497,
          "duration": 0.06469288541666174
        },
        {
          "name": "C4",
          "midi": 60,
          "time": 137.10505749999797,
          "velocity": 0.7874015748031497,
          "duration": 0.06469288541666174
        },
        {
          "name": "F#4",
          "midi": 66,
          "time": 137.10505749999797,
          "velocity": 0.7874015748031497,
          "duration": 0.06469288541666174
        },
        {
          "name": "C#5",
          "midi": 73,
          "time": 137.10505749999797,
          "velocity": 0.7874015748031497,
          "duration": 0.06469288541666174
        },
        {
          "name": "F#5",
          "midi": 78,
          "time": 137.10505749999797,
          "velocity": 0.7874015748031497,
          "duration": 0.06469288541666174
        },
        {
          "name": "C#6",
          "midi": 85,
          "time": 137.10505749999797,
          "velocity": 0.7874015748031497,
          "duration": 0.06469288541666174
        },
        {
          "name": "F#6",
          "midi": 90,
          "time": 137.10505749999797,
          "velocity": 0.7874015748031497,
          "duration": 0.06469288541666174
        },
        {
          "name": "D7",
          "midi": 98,
          "time": 137.10505749999797,
          "velocity": 0.7874015748031497,
          "duration": 0.06469288541666174
        },
        {
          "name": "F#7",
          "midi": 102,
          "time": 137.10505749999797,
          "velocity": 0.7874015748031497,
          "duration": 0.06469288541666174
        },
        {
          "name": "D7",
          "midi": 98,
          "time": 137.33532031249797,
          "velocity": 0.7874015748031497,
          "duration": 0.06469288541666174
        },
        {
          "name": "F#7",
          "midi": 102,
          "time": 137.33532031249797,
          "velocity": 0.7874015748031497,
          "duration": 0.06469288541666174
        },
        {
          "name": "C#4",
          "midi": 61,
          "time": 137.36821499999797,
          "velocity": 0.7874015748031497,
          "duration": 0.06578937499998005
        },
        {
          "name": "F#4",
          "midi": 66,
          "time": 137.36821499999797,
          "velocity": 0.7874015748031497,
          "duration": 0.06578937499998005
        },
        {
          "name": "D5",
          "midi": 74,
          "time": 137.36821499999797,
          "velocity": 0.7874015748031497,
          "duration": 0.06578937499998005
        },
        {
          "name": "F#5",
          "midi": 78,
          "time": 137.36821499999797,
          "velocity": 0.7874015748031497,
          "duration": 0.06578937499998005
        },
        {
          "name": "D6",
          "midi": 86,
          "time": 137.36821499999797,
          "velocity": 0.7874015748031497,
          "duration": 0.06578937499998005
        },
        {
          "name": "F#6",
          "midi": 90,
          "time": 137.36821499999797,
          "velocity": 0.7874015748031497,
          "duration": 0.06578937499998005
        },
        {
          "name": "D#7",
          "midi": 99,
          "time": 137.43400437499795,
          "velocity": 0.7874015748031497,
          "duration": 0.06469288541666174
        },
        {
          "name": "F7",
          "midi": 101,
          "time": 137.43400437499795,
          "velocity": 0.7874015748031497,
          "duration": 0.06469288541666174
        },
        {
          "name": "C#5",
          "midi": 73,
          "time": 137.63137249999795,
          "velocity": 0.7874015748031497,
          "duration": 0.06578937500000848
        },
        {
          "name": "F#5",
          "midi": 78,
          "time": 137.63137249999795,
          "velocity": 0.7874015748031497,
          "duration": 0.06578937500000848
        },
        {
          "name": "C#6",
          "midi": 85,
          "time": 137.63137249999795,
          "velocity": 0.7874015748031497,
          "duration": 0.06578937500000848
        },
        {
          "name": "F#6",
          "midi": 90,
          "time": 137.63137249999795,
          "velocity": 0.7874015748031497,
          "duration": 0.06578937500000848
        },
        {
          "name": "D7",
          "midi": 98,
          "time": 137.63137249999795,
          "velocity": 0.7874015748031497,
          "duration": 0.06578937500000848
        },
        {
          "name": "F#7",
          "midi": 102,
          "time": 137.63137249999795,
          "velocity": 0.7874015748031497,
          "duration": 0.06578937500000848
        },
        {
          "name": "D4",
          "midi": 62,
          "time": 137.89452999999796,
          "velocity": 0.7874015748031497,
          "duration": 0.06578937500000848
        },
        {
          "name": "F#4",
          "midi": 66,
          "time": 137.89452999999796,
          "velocity": 0.7874015748031497,
          "duration": 0.06578937500000848
        },
        {
          "name": "C6",
          "midi": 84,
          "time": 137.89452999999796,
          "velocity": 0.7874015748031497,
          "duration": 0.06578937500000848
        },
        {
          "name": "F#6",
          "midi": 90,
          "time": 137.89452999999796,
          "velocity": 0.7874015748031497,
          "duration": 0.06578937500000848
        },
        {
          "name": "C#7",
          "midi": 97,
          "time": 137.89452999999796,
          "velocity": 0.7874015748031497,
          "duration": 0.06578937500000848
        },
        {
          "name": "F#7",
          "midi": 102,
          "time": 137.89452999999796,
          "velocity": 0.7874015748031497,
          "duration": 0.06578937500000848
        },
        {
          "name": "C#4",
          "midi": 61,
          "time": 138.15768749999796,
          "velocity": 0.7874015748031497,
          "duration": 0.06578937500000848
        },
        {
          "name": "F#4",
          "midi": 66,
          "time": 138.15768749999796,
          "velocity": 0.7874015748031497,
          "duration": 0.06578937500000848
        },
        {
          "name": "D#5",
          "midi": 75,
          "time": 138.15768749999796,
          "velocity": 0.7874015748031497,
          "duration": 0.06578937500000848
        },
        {
          "name": "F#5",
          "midi": 78,
          "time": 138.15768749999796,
          "velocity": 0.7874015748031497,
          "duration": 0.06578937500000848
        },
        {
          "name": "D#6",
          "midi": 87,
          "time": 138.15768749999796,
          "velocity": 0.7874015748031497,
          "duration": 0.06578937500000848
        },
        {
          "name": "F#6",
          "midi": 90,
          "time": 138.15768749999796,
          "velocity": 0.7874015748031497,
          "duration": 0.06578937500000848
        },
        {
          "name": "C7",
          "midi": 96,
          "time": 138.15768749999796,
          "velocity": 0.7874015748031497,
          "duration": 0.06578937500000848
        },
        {
          "name": "F#7",
          "midi": 102,
          "time": 138.15768749999796,
          "velocity": 0.7874015748031497,
          "duration": 0.06578937500000848
        },
        {
          "name": "C4",
          "midi": 60,
          "time": 138.42084499999797,
          "velocity": 0.7874015748031497,
          "duration": 0.06688586458332679
        },
        {
          "name": "F#4",
          "midi": 66,
          "time": 138.42084499999797,
          "velocity": 0.7874015748031497,
          "duration": 0.06688586458332679
        },
        {
          "name": "D5",
          "midi": 74,
          "time": 138.42084499999797,
          "velocity": 0.7874015748031497,
          "duration": 0.06688586458332679
        },
        {
          "name": "F#5",
          "midi": 78,
          "time": 138.42084499999797,
          "velocity": 0.7874015748031497,
          "duration": 0.06688586458332679
        },
        {
          "name": "D6",
          "midi": 86,
          "time": 138.42084499999797,
          "velocity": 0.7874015748031497,
          "duration": 0.06688586458332679
        },
        {
          "name": "F#6",
          "midi": 90,
          "time": 138.42084499999797,
          "velocity": 0.7874015748031497,
          "duration": 0.06688586458332679
        },
        {
          "name": "D7",
          "midi": 98,
          "time": 138.42084499999797,
          "velocity": 0.7874015748031497,
          "duration": 0.06688586458332679
        },
        {
          "name": "F#7",
          "midi": 102,
          "time": 138.42084499999797,
          "velocity": 0.7874015748031497,
          "duration": 0.06688586458332679
        },
        {
          "name": "C#5",
          "midi": 73,
          "time": 138.6850989895813,
          "velocity": 0.7874015748031497,
          "duration": 0.06469288541666174
        },
        {
          "name": "F#5",
          "midi": 78,
          "time": 138.6850989895813,
          "velocity": 0.7874015748031497,
          "duration": 0.06469288541666174
        },
        {
          "name": "C#6",
          "midi": 85,
          "time": 138.6850989895813,
          "velocity": 0.7874015748031497,
          "duration": 0.06469288541666174
        },
        {
          "name": "F#6",
          "midi": 90,
          "time": 138.6850989895813,
          "velocity": 0.7874015748031497,
          "duration": 0.06469288541666174
        },
        {
          "name": "C#7",
          "midi": 97,
          "time": 138.6850989895813,
          "velocity": 0.7874015748031497,
          "duration": 0.06469288541666174
        },
        {
          "name": "F#7",
          "midi": 102,
          "time": 138.6850989895813,
          "velocity": 0.7874015748031497,
          "duration": 0.06469288541666174
        },
        {
          "name": "C4",
          "midi": 60,
          "time": 138.94715999999795,
          "velocity": 0.7874015748031497,
          "duration": 0.5252185104166927
        },
        {
          "name": "F#4",
          "midi": 66,
          "time": 138.94715999999795,
          "velocity": 0.7874015748031497,
          "duration": 0.5241220208333459
        },
        {
          "name": "C5",
          "midi": 72,
          "time": 138.94715999999795,
          "velocity": 0.7874015748031497,
          "duration": 0.5252185104166927
        },
        {
          "name": "F#5",
          "midi": 78,
          "time": 138.94715999999795,
          "velocity": 0.7874015748031497,
          "duration": 0.5241220208333459
        },
        {
          "name": "C6",
          "midi": 84,
          "time": 138.94715999999795,
          "velocity": 0.7874015748031497,
          "duration": 0.5252185104166927
        },
        {
          "name": "F#6",
          "midi": 90,
          "time": 138.94715999999795,
          "velocity": 0.7874015748031497,
          "duration": 0.5241220208333459
        },
        {
          "name": "C7",
          "midi": 96,
          "time": 138.94715999999795,
          "velocity": 0.7874015748031497,
          "duration": 0.5252185104166927
        },
        {
          "name": "F#7",
          "midi": 102,
          "time": 138.94715999999795,
          "velocity": 0.7874015748031497,
          "duration": 0.5241220208333459
        },
        {
          "name": "G7",
          "midi": 103,
          "time": 138.94715999999795,
          "velocity": 0.7874015748031497,
          "duration": 8.419943510416914
        },
        {
          "name": "C#4",
          "midi": 61,
          "time": 139.473474999998,
          "velocity": 0.7874015748031497,
          "duration": 0.06578937500000848
        },
        {
          "name": "F#4",
          "midi": 66,
          "time": 139.473474999998,
          "velocity": 0.7874015748031497,
          "duration": 0.06578937500000848
        },
        {
          "name": "C#5",
          "midi": 73,
          "time": 139.473474999998,
          "velocity": 0.7874015748031497,
          "duration": 0.06578937500000848
        },
        {
          "name": "F#5",
          "midi": 78,
          "time": 139.473474999998,
          "velocity": 0.7874015748031497,
          "duration": 0.06578937500000848
        },
        {
          "name": "C#6",
          "midi": 85,
          "time": 139.473474999998,
          "velocity": 0.7874015748031497,
          "duration": 0.06578937500000848
        },
        {
          "name": "F#6",
          "midi": 90,
          "time": 139.473474999998,
          "velocity": 0.7874015748031497,
          "duration": 0.06578937500000848
        },
        {
          "name": "C#7",
          "midi": 97,
          "time": 139.473474999998,
          "velocity": 0.7874015748031497,
          "duration": 0.06578937500000848
        },
        {
          "name": "F#7",
          "midi": 102,
          "time": 139.473474999998,
          "velocity": 0.7874015748031497,
          "duration": 0.06578937500000848
        },
        {
          "name": "C4",
          "midi": 60,
          "time": 139.73553601041468,
          "velocity": 0.7874015748031497,
          "duration": 0.06578937500000848
        },
        {
          "name": "F#4",
          "midi": 66,
          "time": 139.73553601041468,
          "velocity": 0.7874015748031497,
          "duration": 0.06578937500000848
        },
        {
          "name": "C5",
          "midi": 72,
          "time": 139.73553601041468,
          "velocity": 0.7874015748031497,
          "duration": 0.06578937500000848
        },
        {
          "name": "C6",
          "midi": 84,
          "time": 139.73553601041468,
          "velocity": 0.7874015748031497,
          "duration": 0.06578937500000848
        },
        {
          "name": "C7",
          "midi": 96,
          "time": 139.73553601041468,
          "velocity": 0.7874015748031497,
          "duration": 0.06578937500000848
        },
        {
          "name": "D4",
          "midi": 62,
          "time": 139.99978999999803,
          "velocity": 0.7874015748031497,
          "duration": 0.06469288541666174
        },
        {
          "name": "F#4",
          "midi": 66,
          "time": 139.99978999999803,
          "velocity": 0.7874015748031497,
          "duration": 0.06469288541666174
        },
        {
          "name": "D5",
          "midi": 74,
          "time": 139.99978999999803,
          "velocity": 0.7874015748031497,
          "duration": 0.06469288541666174
        },
        {
          "name": "F#5",
          "midi": 78,
          "time": 139.99978999999803,
          "velocity": 0.7874015748031497,
          "duration": 0.06469288541666174
        },
        {
          "name": "D#6",
          "midi": 87,
          "time": 139.99978999999803,
          "velocity": 0.7874015748031497,
          "duration": 0.06469288541666174
        },
        {
          "name": "F#6",
          "midi": 90,
          "time": 139.99978999999803,
          "velocity": 0.7874015748031497,
          "duration": 0.06469288541666174
        },
        {
          "name": "D#7",
          "midi": 99,
          "time": 139.99978999999803,
          "velocity": 0.7874015748031497,
          "duration": 0.06469288541666174
        },
        {
          "name": "F#7",
          "midi": 102,
          "time": 139.99978999999803,
          "velocity": 0.7874015748031497,
          "duration": 0.06469288541666174
        },
        {
          "name": "D#7",
          "midi": 99,
          "time": 140.13136874999802,
          "velocity": 0.7874015748031497,
          "duration": 0.06469288541666174
        },
        {
          "name": "F#7",
          "midi": 102,
          "time": 140.13136874999802,
          "velocity": 0.7874015748031497,
          "duration": 0.06469288541666174
        },
        {
          "name": "D6",
          "midi": 86,
          "time": 140.2618510104147,
          "velocity": 0.7874015748031497,
          "duration": 0.06578937500000848
        },
        {
          "name": "F6",
          "midi": 89,
          "time": 140.2618510104147,
          "velocity": 0.7874015748031497,
          "duration": 0.06578937500000848
        },
        {
          "name": "D7",
          "midi": 98,
          "time": 140.2618510104147,
          "velocity": 0.7874015748031497,
          "duration": 0.06578937500000848
        },
        {
          "name": "F7",
          "midi": 101,
          "time": 140.2618510104147,
          "velocity": 0.7874015748031497,
          "duration": 0.06578937500000848
        },
        {
          "name": "D4",
          "midi": 62,
          "time": 140.39452624999802,
          "velocity": 0.7874015748031497,
          "duration": 0.06578937500000848
        },
        {
          "name": "F#4",
          "midi": 66,
          "time": 140.39452624999802,
          "velocity": 0.7874015748031497,
          "duration": 0.06578937500000848
        },
        {
          "name": "D5",
          "midi": 74,
          "time": 140.39452624999802,
          "velocity": 0.7874015748031497,
          "duration": 0.06578937500000848
        },
        {
          "name": "F#5",
          "midi": 78,
          "time": 140.39452624999802,
          "velocity": 0.7874015748031497,
          "duration": 0.06578937500000848
        },
        {
          "name": "D#6",
          "midi": 87,
          "time": 140.39452624999802,
          "velocity": 0.7874015748031497,
          "duration": 0.06578937500000848
        },
        {
          "name": "F6",
          "midi": 89,
          "time": 140.39452624999802,
          "velocity": 0.7874015748031497,
          "duration": 0.06578937500000848
        },
        {
          "name": "D#7",
          "midi": 99,
          "time": 140.39452624999802,
          "velocity": 0.7874015748031497,
          "duration": 0.06578937500000848
        },
        {
          "name": "F7",
          "midi": 101,
          "time": 140.39452624999802,
          "velocity": 0.7874015748031497,
          "duration": 0.06578937500000848
        },
        {
          "name": "D5",
          "midi": 74,
          "time": 140.65768374999803,
          "velocity": 0.7874015748031497,
          "duration": 0.06578937500000848
        },
        {
          "name": "F#5",
          "midi": 78,
          "time": 140.65768374999803,
          "velocity": 0.7874015748031497,
          "duration": 0.06578937500000848
        },
        {
          "name": "D#6",
          "midi": 87,
          "time": 140.65768374999803,
          "velocity": 0.7874015748031497,
          "duration": 0.06578937500000848
        },
        {
          "name": "F#6",
          "midi": 90,
          "time": 140.65768374999803,
          "velocity": 0.7874015748031497,
          "duration": 0.06578937500000848
        },
        {
          "name": "D#7",
          "midi": 99,
          "time": 140.65768374999803,
          "velocity": 0.7874015748031497,
          "duration": 0.06578937500000848
        },
        {
          "name": "F#7",
          "midi": 102,
          "time": 140.65768374999803,
          "velocity": 0.7874015748031497,
          "duration": 0.06578937500000848
        },
        {
          "name": "C#4",
          "midi": 61,
          "time": 140.79035898958136,
          "velocity": 0.7874015748031497,
          "duration": 0.5219290416666809
        },
        {
          "name": "F4",
          "midi": 65,
          "time": 140.79035898958136,
          "velocity": 0.7874015748031497,
          "duration": 0.5219290416666809
        },
        {
          "name": "C#5",
          "midi": 73,
          "time": 140.79035898958136,
          "velocity": 0.7874015748031497,
          "duration": 0.5219290416666809
        },
        {
          "name": "F5",
          "midi": 77,
          "time": 140.79035898958136,
          "velocity": 0.7874015748031497,
          "duration": 0.5219290416666809
        },
        {
          "name": "D6",
          "midi": 86,
          "time": 140.79035898958136,
          "velocity": 0.7874015748031497,
          "duration": 0.5219290416666809
        },
        {
          "name": "F6",
          "midi": 89,
          "time": 140.79035898958136,
          "velocity": 0.7874015748031497,
          "duration": 0.5219290416666809
        },
        {
          "name": "D7",
          "midi": 98,
          "time": 140.79035898958136,
          "velocity": 0.7874015748031497,
          "duration": 0.5219290416666809
        },
        {
          "name": "F7",
          "midi": 101,
          "time": 140.79035898958136,
          "velocity": 0.7874015748031497,
          "duration": 0.5219290416666809
        },
        {
          "name": "C4",
          "midi": 60,
          "time": 141.31667398958137,
          "velocity": 0.7874015748031497,
          "duration": 0.06469288541666174
        },
        {
          "name": "F#4",
          "midi": 66,
          "time": 141.31667398958137,
          "velocity": 0.7874015748031497,
          "duration": 0.06469288541666174
        },
        {
          "name": "C5",
          "midi": 72,
          "time": 141.31667398958137,
          "velocity": 0.7874015748031497,
          "duration": 0.06469288541666174
        },
        {
          "name": "F#5",
          "midi": 78,
          "time": 141.31667398958137,
          "velocity": 0.7874015748031497,
          "duration": 0.06469288541666174
        },
        {
          "name": "C6",
          "midi": 84,
          "time": 141.31667398958137,
          "velocity": 0.7874015748031497,
          "duration": 0.06469288541666174
        },
        {
          "name": "F#6",
          "midi": 90,
          "time": 141.31667398958137,
          "velocity": 0.7874015748031497,
          "duration": 0.06469288541666174
        },
        {
          "name": "C7",
          "midi": 96,
          "time": 141.31667398958137,
          "velocity": 0.7874015748031497,
          "duration": 0.06469288541666174
        },
        {
          "name": "F#7",
          "midi": 102,
          "time": 141.31667398958137,
          "velocity": 0.7874015748031497,
          "duration": 0.06469288541666174
        },
        {
          "name": "C#4",
          "midi": 61,
          "time": 141.57873499999803,
          "velocity": 0.7874015748031497,
          "duration": 0.06469288541666174
        },
        {
          "name": "F#4",
          "midi": 66,
          "time": 141.57873499999803,
          "velocity": 0.7874015748031497,
          "duration": 0.06469288541666174
        },
        {
          "name": "C#5",
          "midi": 73,
          "time": 141.57873499999803,
          "velocity": 0.7874015748031497,
          "duration": 0.06469288541666174
        },
        {
          "name": "F#5",
          "midi": 78,
          "time": 141.57873499999803,
          "velocity": 0.7874015748031497,
          "duration": 0.06469288541666174
        },
        {
          "name": "C#6",
          "midi": 85,
          "time": 141.57873499999803,
          "velocity": 0.7874015748031497,
          "duration": 0.06469288541666174
        },
        {
          "name": "F#6",
          "midi": 90,
          "time": 141.57873499999803,
          "velocity": 0.7874015748031497,
          "duration": 0.06469288541666174
        },
        {
          "name": "C#7",
          "midi": 97,
          "time": 141.57873499999803,
          "velocity": 0.7874015748031497,
          "duration": 0.06469288541666174
        },
        {
          "name": "F#7",
          "midi": 102,
          "time": 141.57873499999803,
          "velocity": 0.7874015748031497,
          "duration": 0.06469288541666174
        },
        {
          "name": "C4",
          "midi": 60,
          "time": 141.84189249999804,
          "velocity": 0.7874015748031497,
          "duration": 0.06469288541666174
        },
        {
          "name": "F#4",
          "midi": 66,
          "time": 141.84189249999804,
          "velocity": 0.7874015748031497,
          "duration": 0.06469288541666174
        },
        {
          "name": "C5",
          "midi": 72,
          "time": 141.84189249999804,
          "velocity": 0.7874015748031497,
          "duration": 0.06469288541666174
        },
        {
          "name": "C6",
          "midi": 84,
          "time": 141.84189249999804,
          "velocity": 0.7874015748031497,
          "duration": 0.06469288541666174
        },
        {
          "name": "C7",
          "midi": 96,
          "time": 141.84189249999804,
          "velocity": 0.7874015748031497,
          "duration": 0.06469288541666174
        },
        {
          "name": "D4",
          "midi": 62,
          "time": 142.10504999999804,
          "velocity": 0.7874015748031497,
          "duration": 0.06469288541666174
        },
        {
          "name": "F#4",
          "midi": 66,
          "time": 142.10504999999804,
          "velocity": 0.7874015748031497,
          "duration": 0.06469288541666174
        },
        {
          "name": "D5",
          "midi": 74,
          "time": 142.10504999999804,
          "velocity": 0.7874015748031497,
          "duration": 0.06469288541666174
        },
        {
          "name": "F#5",
          "midi": 78,
          "time": 142.10504999999804,
          "velocity": 0.7874015748031497,
          "duration": 0.06469288541666174
        },
        {
          "name": "D#6",
          "midi": 87,
          "time": 142.10504999999804,
          "velocity": 0.7874015748031497,
          "duration": 0.06469288541666174
        },
        {
          "name": "F#6",
          "midi": 90,
          "time": 142.10504999999804,
          "velocity": 0.7874015748031497,
          "duration": 0.06469288541666174
        },
        {
          "name": "D#7",
          "midi": 99,
          "time": 142.10504999999804,
          "velocity": 0.7874015748031497,
          "duration": 0.06469288541666174
        },
        {
          "name": "F#7",
          "midi": 102,
          "time": 142.10504999999804,
          "velocity": 0.7874015748031497,
          "duration": 0.06469288541666174
        },
        {
          "name": "D#7",
          "midi": 99,
          "time": 142.23553226041471,
          "velocity": 0.7874015748031497,
          "duration": 0.06578937500000848
        },
        {
          "name": "F#7",
          "midi": 102,
          "time": 142.23553226041471,
          "velocity": 0.7874015748031497,
          "duration": 0.06578937500000848
        },
        {
          "name": "D6",
          "midi": 86,
          "time": 142.36820749999805,
          "velocity": 0.7874015748031497,
          "duration": 0.06469288541666174
        },
        {
          "name": "F6",
          "midi": 89,
          "time": 142.36820749999805,
          "velocity": 0.7874015748031497,
          "duration": 0.06469288541666174
        },
        {
          "name": "D7",
          "midi": 98,
          "time": 142.36820749999805,
          "velocity": 0.7874015748031497,
          "duration": 0.06469288541666174
        },
        {
          "name": "F7",
          "midi": 101,
          "time": 142.36820749999805,
          "velocity": 0.7874015748031497,
          "duration": 0.06469288541666174
        },
        {
          "name": "D4",
          "midi": 62,
          "time": 142.49868976041472,
          "velocity": 0.7874015748031497,
          "duration": 0.06578937500000848
        },
        {
          "name": "F#4",
          "midi": 66,
          "time": 142.49868976041472,
          "velocity": 0.7874015748031497,
          "duration": 0.06578937500000848
        },
        {
          "name": "D5",
          "midi": 74,
          "time": 142.49868976041472,
          "velocity": 0.7874015748031497,
          "duration": 0.06578937500000848
        },
        {
          "name": "F#5",
          "midi": 78,
          "time": 142.49868976041472,
          "velocity": 0.7874015748031497,
          "duration": 0.06578937500000848
        },
        {
          "name": "D#6",
          "midi": 87,
          "time": 142.49868976041472,
          "velocity": 0.7874015748031497,
          "duration": 0.06578937500000848
        },
        {
          "name": "F6",
          "midi": 89,
          "time": 142.49868976041472,
          "velocity": 0.7874015748031497,
          "duration": 0.06578937500000848
        },
        {
          "name": "D#7",
          "midi": 99,
          "time": 142.49868976041472,
          "velocity": 0.7874015748031497,
          "duration": 0.06578937500000848
        },
        {
          "name": "F7",
          "midi": 101,
          "time": 142.49868976041472,
          "velocity": 0.7874015748031497,
          "duration": 0.06578937500000848
        },
        {
          "name": "D5",
          "midi": 74,
          "time": 142.76294374999807,
          "velocity": 0.7874015748031497,
          "duration": 0.06578937500000848
        },
        {
          "name": "F#5",
          "midi": 78,
          "time": 142.76294374999807,
          "velocity": 0.7874015748031497,
          "duration": 0.06578937500000848
        },
        {
          "name": "D#6",
          "midi": 87,
          "time": 142.76294374999807,
          "velocity": 0.7874015748031497,
          "duration": 0.06578937500000848
        },
        {
          "name": "F#6",
          "midi": 90,
          "time": 142.76294374999807,
          "velocity": 0.7874015748031497,
          "duration": 0.06578937500000848
        },
        {
          "name": "D#7",
          "midi": 99,
          "time": 142.76294374999807,
          "velocity": 0.7874015748031497,
          "duration": 0.06578937500000848
        },
        {
          "name": "F#7",
          "midi": 102,
          "time": 142.76294374999807,
          "velocity": 0.7874015748031497,
          "duration": 0.06578937500000848
        },
        {
          "name": "C#4",
          "midi": 61,
          "time": 142.89342601041474,
          "velocity": 0.7874015748031497,
          "duration": 0.06578937500000848
        },
        {
          "name": "F4",
          "midi": 65,
          "time": 142.89342601041474,
          "velocity": 0.7874015748031497,
          "duration": 0.06578937500000848
        },
        {
          "name": "C#5",
          "midi": 73,
          "time": 142.89342601041474,
          "velocity": 0.7874015748031497,
          "duration": 0.06578937500000848
        },
        {
          "name": "F5",
          "midi": 77,
          "time": 142.89342601041474,
          "velocity": 0.7874015748031497,
          "duration": 0.06578937500000848
        },
        {
          "name": "D6",
          "midi": 86,
          "time": 142.89342601041474,
          "velocity": 0.7874015748031497,
          "duration": 0.06578937500000848
        },
        {
          "name": "F6",
          "midi": 89,
          "time": 142.89342601041474,
          "velocity": 0.7874015748031497,
          "duration": 0.06578937500000848
        },
        {
          "name": "D7",
          "midi": 98,
          "time": 142.89342601041474,
          "velocity": 0.7874015748031497,
          "duration": 0.06578937500000848
        },
        {
          "name": "F7",
          "midi": 101,
          "time": 142.89342601041474,
          "velocity": 0.7874015748031497,
          "duration": 0.06578937500000848
        },
        {
          "name": "C#7",
          "midi": 97,
          "time": 143.02610124999808,
          "velocity": 0.7874015748031497,
          "duration": 0.06469288541666174
        },
        {
          "name": "F7",
          "midi": 101,
          "time": 143.02610124999808,
          "velocity": 0.7874015748031497,
          "duration": 0.06469288541666174
        },
        {
          "name": "C4",
          "midi": 60,
          "time": 143.15767999999807,
          "velocity": 0.7874015748031497,
          "duration": 0.06578937500000848
        },
        {
          "name": "F#4",
          "midi": 66,
          "time": 143.15767999999807,
          "velocity": 0.7874015748031497,
          "duration": 0.06578937500000848
        },
        {
          "name": "C#5",
          "midi": 73,
          "time": 143.15767999999807,
          "velocity": 0.7874015748031497,
          "duration": 0.06578937500000848
        },
        {
          "name": "F#5",
          "midi": 78,
          "time": 143.15767999999807,
          "velocity": 0.7874015748031497,
          "duration": 0.06578937500000848
        },
        {
          "name": "C#6",
          "midi": 85,
          "time": 143.15767999999807,
          "velocity": 0.7874015748031497,
          "duration": 0.06578937500000848
        },
        {
          "name": "F#6",
          "midi": 90,
          "time": 143.15767999999807,
          "velocity": 0.7874015748031497,
          "duration": 0.06578937500000848
        },
        {
          "name": "C7",
          "midi": 96,
          "time": 143.15767999999807,
          "velocity": 0.7874015748031497,
          "duration": 0.06578937500000848
        },
        {
          "name": "F7",
          "midi": 101,
          "time": 143.15767999999807,
          "velocity": 0.7874015748031497,
          "duration": 0.06578937500000848
        },
        {
          "name": "C#7",
          "midi": 97,
          "time": 143.28925874999808,
          "velocity": 0.7874015748031497,
          "duration": 0.06578937500000848
        },
        {
          "name": "F7",
          "midi": 101,
          "time": 143.28925874999808,
          "velocity": 0.7874015748031497,
          "duration": 0.06578937500000848
        },
        {
          "name": "C#4",
          "midi": 61,
          "time": 143.5524162499981,
          "velocity": 0.7874015748031497,
          "duration": 0.06578937500000848
        },
        {
          "name": "F#4",
          "midi": 66,
          "time": 143.5524162499981,
          "velocity": 0.7874015748031497,
          "duration": 0.06578937500000848
        },
        {
          "name": "D5",
          "midi": 74,
          "time": 143.5524162499981,
          "velocity": 0.7874015748031497,
          "duration": 0.06578937500000848
        },
        {
          "name": "F#5",
          "midi": 78,
          "time": 143.5524162499981,
          "velocity": 0.7874015748031497,
          "duration": 0.06578937500000848
        },
        {
          "name": "D6",
          "midi": 86,
          "time": 143.5524162499981,
          "velocity": 0.7874015748031497,
          "duration": 0.06578937500000848
        },
        {
          "name": "F#6",
          "midi": 90,
          "time": 143.5524162499981,
          "velocity": 0.7874015748031497,
          "duration": 0.06578937500000848
        },
        {
          "name": "D7",
          "midi": 98,
          "time": 143.5524162499981,
          "velocity": 0.7874015748031497,
          "duration": 0.06578937500000848
        },
        {
          "name": "F#7",
          "midi": 102,
          "time": 143.5524162499981,
          "velocity": 0.7874015748031497,
          "duration": 0.06578937500000848
        },
        {
          "name": "D4",
          "midi": 62,
          "time": 143.88245961458142,
          "velocity": 0.7874015748031497,
          "duration": 0.06469288541666174
        },
        {
          "name": "F#4",
          "midi": 66,
          "time": 143.88245961458142,
          "velocity": 0.7874015748031497,
          "duration": 0.06469288541666174
        },
        {
          "name": "D#5",
          "midi": 75,
          "time": 143.88245961458142,
          "velocity": 0.7874015748031497,
          "duration": 0.06469288541666174
        },
        {
          "name": "F#5",
          "midi": 78,
          "time": 143.88245961458142,
          "velocity": 0.7874015748031497,
          "duration": 0.06469288541666174
        },
        {
          "name": "D#6",
          "midi": 87,
          "time": 143.88245961458142,
          "velocity": 0.7874015748031497,
          "duration": 0.06469288541666174
        },
        {
          "name": "F#6",
          "midi": 90,
          "time": 143.88245961458142,
          "velocity": 0.7874015748031497,
          "duration": 0.06469288541666174
        },
        {
          "name": "D#7",
          "midi": 99,
          "time": 143.88245961458142,
          "velocity": 0.7874015748031497,
          "duration": 0.06469288541666174
        },
        {
          "name": "F#7",
          "midi": 102,
          "time": 143.88245961458142,
          "velocity": 0.7874015748031497,
          "duration": 0.06469288541666174
        },
        {
          "name": "E7",
          "midi": 100,
          "time": 143.9800471874981,
          "velocity": 0.7874015748031497,
          "duration": 0.06578937500000848
        },
        {
          "name": "F7",
          "midi": 101,
          "time": 143.9800471874981,
          "velocity": 0.7874015748031497,
          "duration": 0.06578937500000848
        },
        {
          "name": "C#4",
          "midi": 61,
          "time": 144.2103099999981,
          "velocity": 0.7874015748031497,
          "duration": 0.5230255312499992
        },
        {
          "name": "F#4",
          "midi": 66,
          "time": 144.2103099999981,
          "velocity": 0.7874015748031497,
          "duration": 0.5230255312499992
        },
        {
          "name": "D5",
          "midi": 74,
          "time": 144.2103099999981,
          "velocity": 0.7874015748031497,
          "duration": 0.5230255312499992
        },
        {
          "name": "F#5",
          "midi": 78,
          "time": 144.2103099999981,
          "velocity": 0.7874015748031497,
          "duration": 0.5230255312499992
        },
        {
          "name": "D6",
          "midi": 86,
          "time": 144.2103099999981,
          "velocity": 0.7874015748031497,
          "duration": 0.5230255312499992
        },
        {
          "name": "F#6",
          "midi": 90,
          "time": 144.2103099999981,
          "velocity": 0.7874015748031497,
          "duration": 0.5230255312499992
        },
        {
          "name": "D#7",
          "midi": 99,
          "time": 144.2103099999981,
          "velocity": 0.7874015748031497,
          "duration": 0.5230255312499992
        },
        {
          "name": "F#7",
          "midi": 102,
          "time": 144.2103099999981,
          "velocity": 0.7874015748031497,
          "duration": 0.5230255312499992
        },
        {
          "name": "D4",
          "midi": 62,
          "time": 144.7366249999981,
          "velocity": 0.7874015748031497,
          "duration": 0.5252185104166927
        },
        {
          "name": "F#4",
          "midi": 66,
          "time": 144.7366249999981,
          "velocity": 0.7874015748031497,
          "duration": 0.5241220208333459
        },
        {
          "name": "D#5",
          "midi": 75,
          "time": 144.7366249999981,
          "velocity": 0.7874015748031497,
          "duration": 0.5252185104166927
        },
        {
          "name": "F#5",
          "midi": 78,
          "time": 144.7366249999981,
          "velocity": 0.7874015748031497,
          "duration": 0.5241220208333459
        },
        {
          "name": "D#6",
          "midi": 87,
          "time": 144.7366249999981,
          "velocity": 0.7874015748031497,
          "duration": 0.5252185104166927
        },
        {
          "name": "F#6",
          "midi": 90,
          "time": 144.7366249999981,
          "velocity": 0.7874015748031497,
          "duration": 0.5241220208333459
        },
        {
          "name": "E7",
          "midi": 100,
          "time": 144.7366249999981,
          "velocity": 0.7874015748031497,
          "duration": 0.5252185104166927
        },
        {
          "name": "F#7",
          "midi": 102,
          "time": 144.7366249999981,
          "velocity": 0.7874015748031497,
          "duration": 0.5241220208333459
        },
        {
          "name": "G#8",
          "midi": 116,
          "time": 145.26293999999814,
          "velocity": 0.7874015748031497,
          "duration": 2.6315750000001117
        },
        {
          "name": "C4",
          "midi": 60,
          "time": 145.26293999999814,
          "velocity": 0.7874015748031497,
          "duration": 0.06469288541666174
        },
        {
          "name": "F#4",
          "midi": 66,
          "time": 145.26293999999814,
          "velocity": 0.7874015748031497,
          "duration": 0.06469288541666174
        },
        {
          "name": "C#5",
          "midi": 73,
          "time": 145.26293999999814,
          "velocity": 0.7874015748031497,
          "duration": 0.06469288541666174
        },
        {
          "name": "F#5",
          "midi": 78,
          "time": 145.26293999999814,
          "velocity": 0.7874015748031497,
          "duration": 0.06469288541666174
        },
        {
          "name": "C#6",
          "midi": 85,
          "time": 145.26293999999814,
          "velocity": 0.7874015748031497,
          "duration": 0.06469288541666174
        },
        {
          "name": "F#6",
          "midi": 90,
          "time": 145.26293999999814,
          "velocity": 0.7874015748031497,
          "duration": 0.06469288541666174
        },
        {
          "name": "D7",
          "midi": 98,
          "time": 145.26293999999814,
          "velocity": 0.7874015748031497,
          "duration": 0.06469288541666174
        },
        {
          "name": "F#7",
          "midi": 102,
          "time": 145.26293999999814,
          "velocity": 0.7874015748031497,
          "duration": 0.06469288541666174
        },
        {
          "name": "C#7",
          "midi": 97,
          "time": 145.39451874999813,
          "velocity": 0.7874015748031497,
          "duration": 0.06469288541666174
        },
        {
          "name": "F7",
          "midi": 101,
          "time": 145.39451874999813,
          "velocity": 0.7874015748031497,
          "duration": 0.06469288541666174
        },
        {
          "name": "C#5",
          "midi": 73,
          "time": 145.52609749999812,
          "velocity": 0.7874015748031497,
          "duration": 0.06469288541666174
        },
        {
          "name": "F#5",
          "midi": 78,
          "time": 145.52609749999812,
          "velocity": 0.7874015748031497,
          "duration": 0.06469288541666174
        },
        {
          "name": "C6",
          "midi": 84,
          "time": 145.52609749999812,
          "velocity": 0.7874015748031497,
          "duration": 0.06469288541666174
        },
        {
          "name": "F6",
          "midi": 89,
          "time": 145.52609749999812,
          "velocity": 0.7874015748031497,
          "duration": 0.06469288541666174
        },
        {
          "name": "C7",
          "midi": 96,
          "time": 145.52609749999812,
          "velocity": 0.7874015748031497,
          "duration": 0.06469288541666174
        },
        {
          "name": "F7",
          "midi": 101,
          "time": 145.52609749999812,
          "velocity": 0.7874015748031497,
          "duration": 0.06469288541666174
        },
        {
          "name": "C#4",
          "midi": 61,
          "time": 145.6576762499981,
          "velocity": 0.7874015748031497,
          "duration": 0.06469288541666174
        },
        {
          "name": "F#4",
          "midi": 66,
          "time": 145.6576762499981,
          "velocity": 0.7874015748031497,
          "duration": 0.06469288541666174
        },
        {
          "name": "D5",
          "midi": 74,
          "time": 145.6576762499981,
          "velocity": 0.7874015748031497,
          "duration": 0.06469288541666174
        },
        {
          "name": "F5",
          "midi": 77,
          "time": 145.6576762499981,
          "velocity": 0.7874015748031497,
          "duration": 0.06469288541666174
        },
        {
          "name": "D6",
          "midi": 86,
          "time": 145.6576762499981,
          "velocity": 0.7874015748031497,
          "duration": 0.06469288541666174
        },
        {
          "name": "F6",
          "midi": 89,
          "time": 145.6576762499981,
          "velocity": 0.7874015748031497,
          "duration": 0.06469288541666174
        },
        {
          "name": "D#7",
          "midi": 99,
          "time": 145.6576762499981,
          "velocity": 0.7874015748031497,
          "duration": 0.06469288541666174
        },
        {
          "name": "F7",
          "midi": 101,
          "time": 145.6576762499981,
          "velocity": 0.7874015748031497,
          "duration": 0.06469288541666174
        },
        {
          "name": "D7",
          "midi": 98,
          "time": 145.7892549999981,
          "velocity": 0.7874015748031497,
          "duration": 0.06578937500000848
        },
        {
          "name": "F7",
          "midi": 101,
          "time": 145.7892549999981,
          "velocity": 0.7874015748031497,
          "duration": 0.06578937500000848
        },
        {
          "name": "D5",
          "midi": 74,
          "time": 145.9208337499981,
          "velocity": 0.7874015748031497,
          "duration": 0.06578937500000848
        },
        {
          "name": "F#5",
          "midi": 78,
          "time": 145.9208337499981,
          "velocity": 0.7874015748031497,
          "duration": 0.06578937500000848
        },
        {
          "name": "C#6",
          "midi": 85,
          "time": 145.9208337499981,
          "velocity": 0.7874015748031497,
          "duration": 0.06578937500000848
        },
        {
          "name": "F6",
          "midi": 89,
          "time": 145.9208337499981,
          "velocity": 0.7874015748031497,
          "duration": 0.06578937500000848
        },
        {
          "name": "C#7",
          "midi": 97,
          "time": 145.9208337499981,
          "velocity": 0.7874015748031497,
          "duration": 0.06578937500000848
        },
        {
          "name": "F7",
          "midi": 101,
          "time": 145.9208337499981,
          "velocity": 0.7874015748031497,
          "duration": 0.06578937500000848
        },
        {
          "name": "D4",
          "midi": 62,
          "time": 146.05131601041478,
          "velocity": 0.7874015748031497,
          "duration": 0.06578937500000848
        },
        {
          "name": "F#4",
          "midi": 66,
          "time": 146.05131601041478,
          "velocity": 0.7874015748031497,
          "duration": 0.06578937500000848
        },
        {
          "name": "D#5",
          "midi": 75,
          "time": 146.05131601041478,
          "velocity": 0.7874015748031497,
          "duration": 0.06578937500000848
        },
        {
          "name": "F5",
          "midi": 77,
          "time": 146.05131601041478,
          "velocity": 0.7874015748031497,
          "duration": 0.06578937500000848
        },
        {
          "name": "D#6",
          "midi": 87,
          "time": 146.05131601041478,
          "velocity": 0.7874015748031497,
          "duration": 0.06578937500000848
        },
        {
          "name": "F6",
          "midi": 89,
          "time": 146.05131601041478,
          "velocity": 0.7874015748031497,
          "duration": 0.06578937500000848
        },
        {
          "name": "E7",
          "midi": 100,
          "time": 146.05131601041478,
          "velocity": 0.7874015748031497,
          "duration": 0.06578937500000848
        },
        {
          "name": "F7",
          "midi": 101,
          "time": 146.05131601041478,
          "velocity": 0.7874015748031497,
          "duration": 0.06578937500000848
        },
        {
          "name": "C#4",
          "midi": 61,
          "time": 146.31556999999813,
          "velocity": 0.7874015748031497,
          "duration": 0.5230255312499992
        },
        {
          "name": "F#4",
          "midi": 66,
          "time": 146.31556999999813,
          "velocity": 0.7874015748031497,
          "duration": 0.5230255312499992
        },
        {
          "name": "D5",
          "midi": 74,
          "time": 146.31556999999813,
          "velocity": 0.7874015748031497,
          "duration": 0.5230255312499992
        },
        {
          "name": "F#5",
          "midi": 78,
          "time": 146.31556999999813,
          "velocity": 0.7874015748031497,
          "duration": 0.5230255312499992
        },
        {
          "name": "D6",
          "midi": 86,
          "time": 146.31556999999813,
          "velocity": 0.7874015748031497,
          "duration": 0.5230255312499992
        },
        {
          "name": "F#6",
          "midi": 90,
          "time": 146.31556999999813,
          "velocity": 0.7874015748031497,
          "duration": 0.5230255312499992
        },
        {
          "name": "D7",
          "midi": 98,
          "time": 146.31556999999813,
          "velocity": 0.7874015748031497,
          "duration": 0.5252185104166927
        },
        {
          "name": "F#7",
          "midi": 102,
          "time": 146.31556999999813,
          "velocity": 0.7874015748031497,
          "duration": 0.5241220208333459
        },
        {
          "name": "D4",
          "midi": 62,
          "time": 146.84188499999817,
          "velocity": 0.7874015748031497,
          "duration": 0.5252185104166927
        },
        {
          "name": "F#4",
          "midi": 66,
          "time": 146.84188499999817,
          "velocity": 0.7874015748031497,
          "duration": 0.5241220208333459
        },
        {
          "name": "D#5",
          "midi": 75,
          "time": 146.84188499999817,
          "velocity": 0.7874015748031497,
          "duration": 0.5252185104166927
        },
        {
          "name": "F#5",
          "midi": 78,
          "time": 146.84188499999817,
          "velocity": 0.7874015748031497,
          "duration": 0.5241220208333459
        },
        {
          "name": "D#6",
          "midi": 87,
          "time": 146.84188499999817,
          "velocity": 0.7874015748031497,
          "duration": 0.5252185104166927
        },
        {
          "name": "F#6",
          "midi": 90,
          "time": 146.84188499999817,
          "velocity": 0.7874015748031497,
          "duration": 0.5241220208333459
        },
        {
          "name": "D#7",
          "midi": 99,
          "time": 146.84188499999817,
          "velocity": 0.7874015748031497,
          "duration": 0.5252185104166927
        },
        {
          "name": "E7",
          "midi": 100,
          "time": 146.84188499999817,
          "velocity": 0.7874015748031497,
          "duration": 0.5252185104166927
        },
        {
          "name": "F#7",
          "midi": 102,
          "time": 146.84188499999817,
          "velocity": 0.7874015748031497,
          "duration": 0.5241220208333459
        },
        {
          "name": "C4",
          "midi": 60,
          "time": 147.3681999999982,
          "velocity": 0.7874015748031497,
          "duration": 0.5252185104166927
        },
        {
          "name": "F#4",
          "midi": 66,
          "time": 147.3681999999982,
          "velocity": 0.7874015748031497,
          "duration": 0.5241220208333459
        },
        {
          "name": "C5",
          "midi": 72,
          "time": 147.3681999999982,
          "velocity": 0.7874015748031497,
          "duration": 0.5252185104166927
        },
        {
          "name": "F#5",
          "midi": 78,
          "time": 147.3681999999982,
          "velocity": 0.7874015748031497,
          "duration": 0.5241220208333459
        },
        {
          "name": "C6",
          "midi": 84,
          "time": 147.3681999999982,
          "velocity": 0.7874015748031497,
          "duration": 0.5252185104166927
        },
        {
          "name": "F#6",
          "midi": 90,
          "time": 147.3681999999982,
          "velocity": 0.7874015748031497,
          "duration": 0.5241220208333459
        },
        {
          "name": "C7",
          "midi": 96,
          "time": 147.3681999999982,
          "velocity": 0.7874015748031497,
          "duration": 0.5252185104166927
        },
        {
          "name": "F#7",
          "midi": 102,
          "time": 147.3681999999982,
          "velocity": 0.7874015748031497,
          "duration": 0.5241220208333459
        },
        {
          "name": "C#4",
          "midi": 61,
          "time": 147.89451499999825,
          "velocity": 0.7874015748031497,
          "duration": 0.06578937500000848
        },
        {
          "name": "F#4",
          "midi": 66,
          "time": 147.89451499999825,
          "velocity": 0.7874015748031497,
          "duration": 0.06578937500000848
        },
        {
          "name": "C#5",
          "midi": 73,
          "time": 147.89451499999825,
          "velocity": 0.7874015748031497,
          "duration": 0.06578937500000848
        },
        {
          "name": "F#5",
          "midi": 78,
          "time": 147.89451499999825,
          "velocity": 0.7874015748031497,
          "duration": 0.06578937500000848
        },
        {
          "name": "C#6",
          "midi": 85,
          "time": 147.89451499999825,
          "velocity": 0.7874015748031497,
          "duration": 0.06578937500000848
        },
        {
          "name": "F#6",
          "midi": 90,
          "time": 147.89451499999825,
          "velocity": 0.7874015748031497,
          "duration": 0.06578937500000848
        },
        {
          "name": "C#7",
          "midi": 97,
          "time": 147.89451499999825,
          "velocity": 0.7874015748031497,
          "duration": 0.06578937500000848
        },
        {
          "name": "F#7",
          "midi": 102,
          "time": 147.89451499999825,
          "velocity": 0.7874015748031497,
          "duration": 0.06578937500000848
        },
        {
          "name": "C4",
          "midi": 60,
          "time": 148.15767249999826,
          "velocity": 0.7874015748031497,
          "duration": 0.06578937500000848
        },
        {
          "name": "F#4",
          "midi": 66,
          "time": 148.15767249999826,
          "velocity": 0.7874015748031497,
          "duration": 0.06578937500000848
        },
        {
          "name": "C5",
          "midi": 72,
          "time": 148.15767249999826,
          "velocity": 0.7874015748031497,
          "duration": 0.06578937500000848
        },
        {
          "name": "C6",
          "midi": 84,
          "time": 148.15767249999826,
          "velocity": 0.7874015748031497,
          "duration": 0.06578937500000848
        },
        {
          "name": "C7",
          "midi": 96,
          "time": 148.15767249999826,
          "velocity": 0.7874015748031497,
          "duration": 0.06578937500000848
        },
        {
          "name": "C#4",
          "midi": 61,
          "time": 148.42082999999826,
          "velocity": 0.7874015748031497,
          "duration": 0.06578937500000848
        },
        {
          "name": "F#4",
          "midi": 66,
          "time": 148.42082999999826,
          "velocity": 0.7874015748031497,
          "duration": 0.06578937500000848
        },
        {
          "name": "D5",
          "midi": 74,
          "time": 148.42082999999826,
          "velocity": 0.7874015748031497,
          "duration": 0.06578937500000848
        },
        {
          "name": "F#5",
          "midi": 78,
          "time": 148.42082999999826,
          "velocity": 0.7874015748031497,
          "duration": 0.06578937500000848
        },
        {
          "name": "D#6",
          "midi": 87,
          "time": 148.42082999999826,
          "velocity": 0.7874015748031497,
          "duration": 0.06578937500000848
        },
        {
          "name": "F#6",
          "midi": 90,
          "time": 148.42082999999826,
          "velocity": 0.7874015748031497,
          "duration": 0.06578937500000848
        },
        {
          "name": "D#7",
          "midi": 99,
          "time": 148.42082999999826,
          "velocity": 0.7874015748031497,
          "duration": 0.06578937500000848
        },
        {
          "name": "F#7",
          "midi": 102,
          "time": 148.42082999999826,
          "velocity": 0.7874015748031497,
          "duration": 0.06578937500000848
        },
        {
          "name": "D#7",
          "midi": 99,
          "time": 148.55240874999828,
          "velocity": 0.7874015748031497,
          "duration": 0.06578937500000848
        },
        {
          "name": "F#7",
          "midi": 102,
          "time": 148.55240874999828,
          "velocity": 0.7874015748031497,
          "duration": 0.06578937500000848
        },
        {
          "name": "D6",
          "midi": 86,
          "time": 148.6850839895816,
          "velocity": 0.7874015748031497,
          "duration": 0.06469288541666174
        },
        {
          "name": "F6",
          "midi": 89,
          "time": 148.6850839895816,
          "velocity": 0.7874015748031497,
          "duration": 0.06469288541666174
        },
        {
          "name": "D7",
          "midi": 98,
          "time": 148.6850839895816,
          "velocity": 0.7874015748031497,
          "duration": 0.06469288541666174
        },
        {
          "name": "F7",
          "midi": 101,
          "time": 148.6850839895816,
          "velocity": 0.7874015748031497,
          "duration": 0.06469288541666174
        },
        {
          "name": "C#4",
          "midi": 61,
          "time": 148.81556624999828,
          "velocity": 0.7874015748031497,
          "duration": 0.06578937500000848
        },
        {
          "name": "F#4",
          "midi": 66,
          "time": 148.81556624999828,
          "velocity": 0.7874015748031497,
          "duration": 0.06578937500000848
        },
        {
          "name": "D5",
          "midi": 74,
          "time": 148.81556624999828,
          "velocity": 0.7874015748031497,
          "duration": 0.06578937500000848
        },
        {
          "name": "F#5",
          "midi": 78,
          "time": 148.81556624999828,
          "velocity": 0.7874015748031497,
          "duration": 0.06578937500000848
        },
        {
          "name": "D#6",
          "midi": 87,
          "time": 148.81556624999828,
          "velocity": 0.7874015748031497,
          "duration": 0.06578937500000848
        },
        {
          "name": "F6",
          "midi": 89,
          "time": 148.81556624999828,
          "velocity": 0.7874015748031497,
          "duration": 0.06578937500000848
        },
        {
          "name": "D#7",
          "midi": 99,
          "time": 148.81556624999828,
          "velocity": 0.7874015748031497,
          "duration": 0.06578937500000848
        },
        {
          "name": "F7",
          "midi": 101,
          "time": 148.81556624999828,
          "velocity": 0.7874015748031497,
          "duration": 0.06578937500000848
        },
        {
          "name": "D5",
          "midi": 74,
          "time": 149.0787237499983,
          "velocity": 0.7874015748031497,
          "duration": 0.06469288541666174
        },
        {
          "name": "F#5",
          "midi": 78,
          "time": 149.0787237499983,
          "velocity": 0.7874015748031497,
          "duration": 0.06469288541666174
        },
        {
          "name": "D#6",
          "midi": 87,
          "time": 149.0787237499983,
          "velocity": 0.7874015748031497,
          "duration": 0.06469288541666174
        },
        {
          "name": "F#6",
          "midi": 90,
          "time": 149.0787237499983,
          "velocity": 0.7874015748031497,
          "duration": 0.06469288541666174
        },
        {
          "name": "D#7",
          "midi": 99,
          "time": 149.0787237499983,
          "velocity": 0.7874015748031497,
          "duration": 0.06469288541666174
        },
        {
          "name": "F#7",
          "midi": 102,
          "time": 149.0787237499983,
          "velocity": 0.7874015748031497,
          "duration": 0.06469288541666174
        },
        {
          "name": "D4",
          "midi": 62,
          "time": 149.21030249999828,
          "velocity": 0.7874015748031497,
          "duration": 0.06469288541666174
        },
        {
          "name": "F4",
          "midi": 65,
          "time": 149.21030249999828,
          "velocity": 0.7874015748031497,
          "duration": 0.06469288541666174
        },
        {
          "name": "D#5",
          "midi": 75,
          "time": 149.21030249999828,
          "velocity": 0.7874015748031497,
          "duration": 0.06469288541666174
        },
        {
          "name": "F5",
          "midi": 77,
          "time": 149.21030249999828,
          "velocity": 0.7874015748031497,
          "duration": 0.06469288541666174
        },
        {
          "name": "E6",
          "midi": 88,
          "time": 149.21030249999828,
          "velocity": 0.7874015748031497,
          "duration": 0.06469288541666174
        },
        {
          "name": "F6",
          "midi": 89,
          "time": 149.21030249999828,
          "velocity": 0.7874015748031497,
          "duration": 0.06469288541666174
        },
        {
          "name": "D#7",
          "midi": 99,
          "time": 149.21030249999828,
          "velocity": 0.7874015748031497,
          "duration": 0.06469288541666174
        },
        {
          "name": "F#7",
          "midi": 102,
          "time": 149.21030249999828,
          "velocity": 0.7874015748031497,
          "duration": 0.06469288541666174
        },
        {
          "name": "E7",
          "midi": 100,
          "time": 149.34188124999827,
          "velocity": 0.7874015748031497,
          "duration": 0.06469288541666174
        },
        {
          "name": "F7",
          "midi": 101,
          "time": 149.34188124999827,
          "velocity": 0.7874015748031497,
          "duration": 0.06469288541666174
        },
        {
          "name": "C4",
          "midi": 60,
          "time": 149.7377139895816,
          "velocity": 0.7874015748031497,
          "duration": 0.06469288541666174
        },
        {
          "name": "F#4",
          "midi": 66,
          "time": 149.7377139895816,
          "velocity": 0.7874015748031497,
          "duration": 0.06469288541666174
        },
        {
          "name": "C5",
          "midi": 72,
          "time": 149.7377139895816,
          "velocity": 0.7874015748031497,
          "duration": 0.06469288541666174
        },
        {
          "name": "F#5",
          "midi": 78,
          "time": 149.7377139895816,
          "velocity": 0.7874015748031497,
          "duration": 0.06469288541666174
        },
        {
          "name": "C6",
          "midi": 84,
          "time": 149.7377139895816,
          "velocity": 0.7874015748031497,
          "duration": 0.06469288541666174
        },
        {
          "name": "F#6",
          "midi": 90,
          "time": 149.7377139895816,
          "velocity": 0.7874015748031497,
          "duration": 0.06469288541666174
        },
        {
          "name": "C7",
          "midi": 96,
          "time": 149.7377139895816,
          "velocity": 0.7874015748031497,
          "duration": 0.06469288541666174
        },
        {
          "name": "F#7",
          "midi": 102,
          "time": 149.7377139895816,
          "velocity": 0.7874015748031497,
          "duration": 0.06469288541666174
        },
        {
          "name": "C#4",
          "midi": 61,
          "time": 149.99977499999827,
          "velocity": 0.7874015748031497,
          "duration": 0.06469288541666174
        },
        {
          "name": "F#4",
          "midi": 66,
          "time": 149.99977499999827,
          "velocity": 0.7874015748031497,
          "duration": 0.06469288541666174
        },
        {
          "name": "C#5",
          "midi": 73,
          "time": 149.99977499999827,
          "velocity": 0.7874015748031497,
          "duration": 0.06469288541666174
        },
        {
          "name": "F#5",
          "midi": 78,
          "time": 149.99977499999827,
          "velocity": 0.7874015748031497,
          "duration": 0.06469288541666174
        },
        {
          "name": "C#6",
          "midi": 85,
          "time": 149.99977499999827,
          "velocity": 0.7874015748031497,
          "duration": 0.06469288541666174
        },
        {
          "name": "F#6",
          "midi": 90,
          "time": 149.99977499999827,
          "velocity": 0.7874015748031497,
          "duration": 0.06469288541666174
        },
        {
          "name": "C#7",
          "midi": 97,
          "time": 149.99977499999827,
          "velocity": 0.7874015748031497,
          "duration": 0.06469288541666174
        },
        {
          "name": "F#7",
          "midi": 102,
          "time": 149.99977499999827,
          "velocity": 0.7874015748031497,
          "duration": 0.06469288541666174
        },
        {
          "name": "C4",
          "midi": 60,
          "time": 150.2640289895816,
          "velocity": 0.7874015748031497,
          "duration": 0.06469288541666174
        },
        {
          "name": "F#4",
          "midi": 66,
          "time": 150.2640289895816,
          "velocity": 0.7874015748031497,
          "duration": 0.06469288541666174
        },
        {
          "name": "C5",
          "midi": 72,
          "time": 150.2640289895816,
          "velocity": 0.7874015748031497,
          "duration": 0.06469288541666174
        },
        {
          "name": "C6",
          "midi": 84,
          "time": 150.2640289895816,
          "velocity": 0.7874015748031497,
          "duration": 0.06469288541666174
        },
        {
          "name": "C7",
          "midi": 96,
          "time": 150.2640289895816,
          "velocity": 0.7874015748031497,
          "duration": 0.06469288541666174
        },
        {
          "name": "D4",
          "midi": 62,
          "time": 150.52608999999825,
          "velocity": 0.7874015748031497,
          "duration": 0.06469288541666174
        },
        {
          "name": "F#4",
          "midi": 66,
          "time": 150.52608999999825,
          "velocity": 0.7874015748031497,
          "duration": 0.06469288541666174
        },
        {
          "name": "D5",
          "midi": 74,
          "time": 150.52608999999825,
          "velocity": 0.7874015748031497,
          "duration": 0.06469288541666174
        },
        {
          "name": "F#5",
          "midi": 78,
          "time": 150.52608999999825,
          "velocity": 0.7874015748031497,
          "duration": 0.06469288541666174
        },
        {
          "name": "D#6",
          "midi": 87,
          "time": 150.52608999999825,
          "velocity": 0.7874015748031497,
          "duration": 0.06469288541666174
        },
        {
          "name": "F#6",
          "midi": 90,
          "time": 150.52608999999825,
          "velocity": 0.7874015748031497,
          "duration": 0.06469288541666174
        },
        {
          "name": "D#7",
          "midi": 99,
          "time": 150.52608999999825,
          "velocity": 0.7874015748031497,
          "duration": 0.06469288541666174
        },
        {
          "name": "F#7",
          "midi": 102,
          "time": 150.52608999999825,
          "velocity": 0.7874015748031497,
          "duration": 0.06469288541666174
        },
        {
          "name": "D#7",
          "midi": 99,
          "time": 150.65766874999824,
          "velocity": 0.7874015748031497,
          "duration": 0.06469288541666174
        },
        {
          "name": "F#7",
          "midi": 102,
          "time": 150.65766874999824,
          "velocity": 0.7874015748031497,
          "duration": 0.06469288541666174
        },
        {
          "name": "D6",
          "midi": 86,
          "time": 150.79034398958157,
          "velocity": 0.7874015748031497,
          "duration": 0.06469288541666174
        },
        {
          "name": "F6",
          "midi": 89,
          "time": 150.79034398958157,
          "velocity": 0.7874015748031497,
          "duration": 0.06469288541666174
        },
        {
          "name": "D7",
          "midi": 98,
          "time": 150.79034398958157,
          "velocity": 0.7874015748031497,
          "duration": 0.06469288541666174
        },
        {
          "name": "F7",
          "midi": 101,
          "time": 150.79034398958157,
          "velocity": 0.7874015748031497,
          "duration": 0.06469288541666174
        },
        {
          "name": "D4",
          "midi": 62,
          "time": 150.92082624999824,
          "velocity": 0.7874015748031497,
          "duration": 0.06469288541666174
        },
        {
          "name": "F#4",
          "midi": 66,
          "time": 150.92082624999824,
          "velocity": 0.7874015748031497,
          "duration": 0.06469288541666174
        },
        {
          "name": "D5",
          "midi": 74,
          "time": 150.92082624999824,
          "velocity": 0.7874015748031497,
          "duration": 0.06469288541666174
        },
        {
          "name": "F#5",
          "midi": 78,
          "time": 150.92082624999824,
          "velocity": 0.7874015748031497,
          "duration": 0.06469288541666174
        },
        {
          "name": "D#6",
          "midi": 87,
          "time": 150.92082624999824,
          "velocity": 0.7874015748031497,
          "duration": 0.06469288541666174
        },
        {
          "name": "F6",
          "midi": 89,
          "time": 150.92082624999824,
          "velocity": 0.7874015748031497,
          "duration": 0.06469288541666174
        },
        {
          "name": "D#7",
          "midi": 99,
          "time": 150.92082624999824,
          "velocity": 0.7874015748031497,
          "duration": 0.06469288541666174
        },
        {
          "name": "F7",
          "midi": 101,
          "time": 150.92082624999824,
          "velocity": 0.7874015748031497,
          "duration": 0.06469288541666174
        },
        {
          "name": "D5",
          "midi": 74,
          "time": 151.18398374999825,
          "velocity": 0.7874015748031497,
          "duration": 0.06469288541666174
        },
        {
          "name": "F#5",
          "midi": 78,
          "time": 151.18398374999825,
          "velocity": 0.7874015748031497,
          "duration": 0.06469288541666174
        },
        {
          "name": "D#6",
          "midi": 87,
          "time": 151.18398374999825,
          "velocity": 0.7874015748031497,
          "duration": 0.06469288541666174
        },
        {
          "name": "F#6",
          "midi": 90,
          "time": 151.18398374999825,
          "velocity": 0.7874015748031497,
          "duration": 0.06469288541666174
        },
        {
          "name": "D#7",
          "midi": 99,
          "time": 151.18398374999825,
          "velocity": 0.7874015748031497,
          "duration": 0.06469288541666174
        },
        {
          "name": "F#7",
          "midi": 102,
          "time": 151.18398374999825,
          "velocity": 0.7874015748031497,
          "duration": 0.06469288541666174
        },
        {
          "name": "C#4",
          "midi": 61,
          "time": 151.31665898958158,
          "velocity": 0.7874015748031497,
          "duration": 0.06469288541666174
        },
        {
          "name": "F4",
          "midi": 65,
          "time": 151.31665898958158,
          "velocity": 0.7874015748031497,
          "duration": 0.06469288541666174
        },
        {
          "name": "C#5",
          "midi": 73,
          "time": 151.31665898958158,
          "velocity": 0.7874015748031497,
          "duration": 0.06469288541666174
        },
        {
          "name": "F5",
          "midi": 77,
          "time": 151.31665898958158,
          "velocity": 0.7874015748031497,
          "duration": 0.06469288541666174
        },
        {
          "name": "D6",
          "midi": 86,
          "time": 151.31665898958158,
          "velocity": 0.7874015748031497,
          "duration": 0.06469288541666174
        },
        {
          "name": "F6",
          "midi": 89,
          "time": 151.31665898958158,
          "velocity": 0.7874015748031497,
          "duration": 0.06469288541666174
        },
        {
          "name": "D7",
          "midi": 98,
          "time": 151.31665898958158,
          "velocity": 0.7874015748031497,
          "duration": 0.06469288541666174
        },
        {
          "name": "F7",
          "midi": 101,
          "time": 151.31665898958158,
          "velocity": 0.7874015748031497,
          "duration": 0.06469288541666174
        },
        {
          "name": "C#7",
          "midi": 97,
          "time": 151.44714124999825,
          "velocity": 0.7874015748031497,
          "duration": 0.06578937500000848
        },
        {
          "name": "F7",
          "midi": 101,
          "time": 151.44714124999825,
          "velocity": 0.7874015748031497,
          "duration": 0.06578937500000848
        },
        {
          "name": "C4",
          "midi": 60,
          "time": 151.57871999999827,
          "velocity": 0.7874015748031497,
          "duration": 0.06469288541666174
        },
        {
          "name": "F#4",
          "midi": 66,
          "time": 151.57871999999827,
          "velocity": 0.7874015748031497,
          "duration": 0.06469288541666174
        },
        {
          "name": "C#5",
          "midi": 73,
          "time": 151.57871999999827,
          "velocity": 0.7874015748031497,
          "duration": 0.06469288541666174
        },
        {
          "name": "F#5",
          "midi": 78,
          "time": 151.57871999999827,
          "velocity": 0.7874015748031497,
          "duration": 0.06469288541666174
        },
        {
          "name": "C#6",
          "midi": 85,
          "time": 151.57871999999827,
          "velocity": 0.7874015748031497,
          "duration": 0.06469288541666174
        },
        {
          "name": "F#6",
          "midi": 90,
          "time": 151.57871999999827,
          "velocity": 0.7874015748031497,
          "duration": 0.06469288541666174
        },
        {
          "name": "C7",
          "midi": 96,
          "time": 151.57871999999827,
          "velocity": 0.7874015748031497,
          "duration": 0.06469288541666174
        },
        {
          "name": "F7",
          "midi": 101,
          "time": 151.57871999999827,
          "velocity": 0.7874015748031497,
          "duration": 0.06469288541666174
        },
        {
          "name": "C#7",
          "midi": 97,
          "time": 151.71029874999826,
          "velocity": 0.7874015748031497,
          "duration": 0.06469288541666174
        },
        {
          "name": "F7",
          "midi": 101,
          "time": 151.71029874999826,
          "velocity": 0.7874015748031497,
          "duration": 0.06469288541666174
        },
        {
          "name": "C#4",
          "midi": 61,
          "time": 151.97345624999826,
          "velocity": 0.7874015748031497,
          "duration": 0.06469288541666174
        },
        {
          "name": "F#4",
          "midi": 66,
          "time": 151.97345624999826,
          "velocity": 0.7874015748031497,
          "duration": 0.06469288541666174
        },
        {
          "name": "D5",
          "midi": 74,
          "time": 151.97345624999826,
          "velocity": 0.7874015748031497,
          "duration": 0.06469288541666174
        },
        {
          "name": "F#5",
          "midi": 78,
          "time": 151.97345624999826,
          "velocity": 0.7874015748031497,
          "duration": 0.06469288541666174
        },
        {
          "name": "D6",
          "midi": 86,
          "time": 151.97345624999826,
          "velocity": 0.7874015748031497,
          "duration": 0.06469288541666174
        },
        {
          "name": "F#6",
          "midi": 90,
          "time": 151.97345624999826,
          "velocity": 0.7874015748031497,
          "duration": 0.06469288541666174
        },
        {
          "name": "D7",
          "midi": 98,
          "time": 151.97345624999826,
          "velocity": 0.7874015748031497,
          "duration": 0.06469288541666174
        },
        {
          "name": "F#7",
          "midi": 102,
          "time": 151.97345624999826,
          "velocity": 0.7874015748031497,
          "duration": 0.06469288541666174
        },
        {
          "name": "D4",
          "midi": 62,
          "time": 152.30240312499825,
          "velocity": 0.7874015748031497,
          "duration": 0.06469288541666174
        },
        {
          "name": "F#4",
          "midi": 66,
          "time": 152.30240312499825,
          "velocity": 0.7874015748031497,
          "duration": 0.06469288541666174
        },
        {
          "name": "D#5",
          "midi": 75,
          "time": 152.30240312499825,
          "velocity": 0.7874015748031497,
          "duration": 0.06469288541666174
        },
        {
          "name": "F#5",
          "midi": 78,
          "time": 152.30240312499825,
          "velocity": 0.7874015748031497,
          "duration": 0.06469288541666174
        },
        {
          "name": "D#6",
          "midi": 87,
          "time": 152.30240312499825,
          "velocity": 0.7874015748031497,
          "duration": 0.06469288541666174
        },
        {
          "name": "F#6",
          "midi": 90,
          "time": 152.30240312499825,
          "velocity": 0.7874015748031497,
          "duration": 0.06469288541666174
        },
        {
          "name": "D#7",
          "midi": 99,
          "time": 152.30240312499825,
          "velocity": 0.7874015748031497,
          "duration": 0.06469288541666174
        },
        {
          "name": "F#7",
          "midi": 102,
          "time": 152.30240312499825,
          "velocity": 0.7874015748031497,
          "duration": 0.06469288541666174
        },
        {
          "name": "E7",
          "midi": 100,
          "time": 152.43398187499824,
          "velocity": 0.7874015748031497,
          "duration": 0.06578937500000848
        },
        {
          "name": "F7",
          "midi": 101,
          "time": 152.43398187499824,
          "velocity": 0.7874015748031497,
          "duration": 0.06578937500000848
        },
        {
          "name": "C#4",
          "midi": 61,
          "time": 152.63134999999824,
          "velocity": 0.7874015748031497,
          "duration": 0.06578937500000848
        },
        {
          "name": "F#4",
          "midi": 66,
          "time": 152.63134999999824,
          "velocity": 0.7874015748031497,
          "duration": 0.06578937500000848
        },
        {
          "name": "D5",
          "midi": 74,
          "time": 152.63134999999824,
          "velocity": 0.7874015748031497,
          "duration": 0.06578937500000848
        },
        {
          "name": "F#5",
          "midi": 78,
          "time": 152.63134999999824,
          "velocity": 0.7874015748031497,
          "duration": 0.06578937500000848
        },
        {
          "name": "D6",
          "midi": 86,
          "time": 152.63134999999824,
          "velocity": 0.7874015748031497,
          "duration": 0.06578937500000848
        },
        {
          "name": "F#6",
          "midi": 90,
          "time": 152.63134999999824,
          "velocity": 0.7874015748031497,
          "duration": 0.06578937500000848
        },
        {
          "name": "D#7",
          "midi": 99,
          "time": 152.63134999999824,
          "velocity": 0.7874015748031497,
          "duration": 0.06578937500000848
        },
        {
          "name": "F#7",
          "midi": 102,
          "time": 152.63134999999824,
          "velocity": 0.7874015748031497,
          "duration": 0.06578937500000848
        },
        {
          "name": "C#4",
          "midi": 61,
          "time": 152.8956039895816,
          "velocity": 0.7874015748031497,
          "duration": 0.06469288541666174
        },
        {
          "name": "F#4",
          "midi": 66,
          "time": 152.8956039895816,
          "velocity": 0.7874015748031497,
          "duration": 0.06469288541666174
        },
        {
          "name": "D5",
          "midi": 74,
          "time": 152.8956039895816,
          "velocity": 0.7874015748031497,
          "duration": 0.06469288541666174
        },
        {
          "name": "F#5",
          "midi": 78,
          "time": 152.8956039895816,
          "velocity": 0.7874015748031497,
          "duration": 0.06469288541666174
        },
        {
          "name": "D6",
          "midi": 86,
          "time": 152.8956039895816,
          "velocity": 0.7874015748031497,
          "duration": 0.06469288541666174
        },
        {
          "name": "F#6",
          "midi": 90,
          "time": 152.8956039895816,
          "velocity": 0.7874015748031497,
          "duration": 0.06469288541666174
        },
        {
          "name": "D#7",
          "midi": 99,
          "time": 152.8956039895816,
          "velocity": 0.7874015748031497,
          "duration": 0.06469288541666174
        },
        {
          "name": "F#7",
          "midi": 102,
          "time": 152.8956039895816,
          "velocity": 0.7874015748031497,
          "duration": 0.06469288541666174
        },
        {
          "name": "D4",
          "midi": 62,
          "time": 153.15766499999825,
          "velocity": 0.7874015748031497,
          "duration": 0.06578937500000848
        },
        {
          "name": "F#4",
          "midi": 66,
          "time": 153.15766499999825,
          "velocity": 0.7874015748031497,
          "duration": 0.06578937500000848
        },
        {
          "name": "D#5",
          "midi": 75,
          "time": 153.15766499999825,
          "velocity": 0.7874015748031497,
          "duration": 0.06578937500000848
        },
        {
          "name": "F#5",
          "midi": 78,
          "time": 153.15766499999825,
          "velocity": 0.7874015748031497,
          "duration": 0.06578937500000848
        },
        {
          "name": "D6",
          "midi": 86,
          "time": 153.15766499999825,
          "velocity": 0.7874015748031497,
          "duration": 0.06578937500000848
        },
        {
          "name": "F#6",
          "midi": 90,
          "time": 153.15766499999825,
          "velocity": 0.7874015748031497,
          "duration": 0.06578937500000848
        },
        {
          "name": "D#7",
          "midi": 99,
          "time": 153.15766499999825,
          "velocity": 0.7874015748031497,
          "duration": 0.06578937500000848
        },
        {
          "name": "F#7",
          "midi": 102,
          "time": 153.15766499999825,
          "velocity": 0.7874015748031497,
          "duration": 0.06578937500000848
        },
        {
          "name": "D#6",
          "midi": 87,
          "time": 153.28924374999826,
          "velocity": 0.7874015748031497,
          "duration": 0.06578937500000848
        },
        {
          "name": "F6",
          "midi": 89,
          "time": 153.28924374999826,
          "velocity": 0.7874015748031497,
          "duration": 0.06578937500000848
        },
        {
          "name": "E7",
          "midi": 100,
          "time": 153.28924374999826,
          "velocity": 0.7874015748031497,
          "duration": 0.06578937500000848
        },
        {
          "name": "F7",
          "midi": 101,
          "time": 153.28924374999826,
          "velocity": 0.7874015748031497,
          "duration": 0.06578937500000848
        },
        {
          "name": "C#4",
          "midi": 61,
          "time": 153.42082249999828,
          "velocity": 0.7874015748031497,
          "duration": 0.06578937500000848
        },
        {
          "name": "F4",
          "midi": 65,
          "time": 153.42082249999828,
          "velocity": 0.7874015748031497,
          "duration": 0.06578937500000848
        },
        {
          "name": "D5",
          "midi": 74,
          "time": 153.42082249999828,
          "velocity": 0.7874015748031497,
          "duration": 0.06578937500000848
        },
        {
          "name": "F5",
          "midi": 77,
          "time": 153.42082249999828,
          "velocity": 0.7874015748031497,
          "duration": 0.06578937500000848
        },
        {
          "name": "D6",
          "midi": 86,
          "time": 153.42082249999828,
          "velocity": 0.7874015748031497,
          "duration": 0.06578937500000848
        },
        {
          "name": "F6",
          "midi": 89,
          "time": 153.42082249999828,
          "velocity": 0.7874015748031497,
          "duration": 0.06578937500000848
        },
        {
          "name": "D#7",
          "midi": 99,
          "time": 153.42082249999828,
          "velocity": 0.7874015748031497,
          "duration": 0.06578937500000848
        },
        {
          "name": "F7",
          "midi": 101,
          "time": 153.42082249999828,
          "velocity": 0.7874015748031497,
          "duration": 0.06578937500000848
        },
        {
          "name": "D7",
          "midi": 98,
          "time": 153.5524012499983,
          "velocity": 0.7874015748031497,
          "duration": 0.06578937500000848
        },
        {
          "name": "F7",
          "midi": 101,
          "time": 153.5524012499983,
          "velocity": 0.7874015748031497,
          "duration": 0.06578937500000848
        },
        {
          "name": "D4",
          "midi": 62,
          "time": 153.68397999999831,
          "velocity": 0.7874015748031497,
          "duration": 0.06578937500000848
        },
        {
          "name": "F#4",
          "midi": 66,
          "time": 153.68397999999831,
          "velocity": 0.7874015748031497,
          "duration": 0.06578937500000848
        },
        {
          "name": "D5",
          "midi": 74,
          "time": 153.68397999999831,
          "velocity": 0.7874015748031497,
          "duration": 0.06578937500000848
        },
        {
          "name": "D#5",
          "midi": 75,
          "time": 153.68397999999831,
          "velocity": 0.7874015748031497,
          "duration": 0.06578937500000848
        },
        {
          "name": "F#5",
          "midi": 78,
          "time": 153.68397999999831,
          "velocity": 0.7874015748031497,
          "duration": 0.06578937500000848
        },
        {
          "name": "D6",
          "midi": 86,
          "time": 153.68397999999831,
          "velocity": 0.7874015748031497,
          "duration": 0.06578937500000848
        },
        {
          "name": "D#6",
          "midi": 87,
          "time": 153.68397999999831,
          "velocity": 0.7874015748031497,
          "duration": 0.06578937500000848
        },
        {
          "name": "F#6",
          "midi": 90,
          "time": 153.68397999999831,
          "velocity": 0.7874015748031497,
          "duration": 0.06578937500000848
        },
        {
          "name": "D#7",
          "midi": 99,
          "time": 153.68397999999831,
          "velocity": 0.7874015748031497,
          "duration": 0.06578937500000848
        },
        {
          "name": "E7",
          "midi": 100,
          "time": 153.68397999999831,
          "velocity": 0.7874015748031497,
          "duration": 0.06578937500000848
        },
        {
          "name": "F#7",
          "midi": 102,
          "time": 153.68397999999831,
          "velocity": 0.7874015748031497,
          "duration": 0.06578937500000848
        },
        {
          "name": "C4",
          "midi": 60,
          "time": 155.78923999999833,
          "velocity": 0.7874015748031497,
          "duration": 0.5252185104166927
        },
        {
          "name": "F#4",
          "midi": 66,
          "time": 155.78923999999833,
          "velocity": 0.7874015748031497,
          "duration": 0.5241220208333459
        },
        {
          "name": "C5",
          "midi": 72,
          "time": 155.78923999999833,
          "velocity": 0.7874015748031497,
          "duration": 0.5252185104166927
        },
        {
          "name": "F#5",
          "midi": 78,
          "time": 155.78923999999833,
          "velocity": 0.7874015748031497,
          "duration": 0.5241220208333459
        },
        {
          "name": "C6",
          "midi": 84,
          "time": 155.78923999999833,
          "velocity": 0.7874015748031497,
          "duration": 0.5252185104166927
        },
        {
          "name": "F#6",
          "midi": 90,
          "time": 155.78923999999833,
          "velocity": 0.7874015748031497,
          "duration": 0.5241220208333459
        },
        {
          "name": "C7",
          "midi": 96,
          "time": 155.78923999999833,
          "velocity": 0.7874015748031497,
          "duration": 0.5252185104166927
        },
        {
          "name": "F#7",
          "midi": 102,
          "time": 155.78923999999833,
          "velocity": 0.7874015748031497,
          "duration": 0.5241220208333459
        },
        {
          "name": "G7",
          "midi": 103,
          "time": 155.78923999999833,
          "velocity": 0.7874015748031497,
          "duration": 8.222575385416746
        },
        {
          "name": "C#4",
          "midi": 61,
          "time": 156.31555499999837,
          "velocity": 0.7874015748031497,
          "duration": 0.06469288541666174
        },
        {
          "name": "F#4",
          "midi": 66,
          "time": 156.31555499999837,
          "velocity": 0.7874015748031497,
          "duration": 0.06469288541666174
        },
        {
          "name": "C#5",
          "midi": 73,
          "time": 156.31555499999837,
          "velocity": 0.7874015748031497,
          "duration": 0.06469288541666174
        },
        {
          "name": "F#5",
          "midi": 78,
          "time": 156.31555499999837,
          "velocity": 0.7874015748031497,
          "duration": 0.06469288541666174
        },
        {
          "name": "C#6",
          "midi": 85,
          "time": 156.31555499999837,
          "velocity": 0.7874015748031497,
          "duration": 0.06469288541666174
        },
        {
          "name": "F#6",
          "midi": 90,
          "time": 156.31555499999837,
          "velocity": 0.7874015748031497,
          "duration": 0.06469288541666174
        },
        {
          "name": "C#7",
          "midi": 97,
          "time": 156.31555499999837,
          "velocity": 0.7874015748031497,
          "duration": 0.06469288541666174
        },
        {
          "name": "F#7",
          "midi": 102,
          "time": 156.31555499999837,
          "velocity": 0.7874015748031497,
          "duration": 0.06469288541666174
        },
        {
          "name": "C4",
          "midi": 60,
          "time": 156.5798089895817,
          "velocity": 0.7874015748031497,
          "duration": 0.06469288541666174
        },
        {
          "name": "F#4",
          "midi": 66,
          "time": 156.5798089895817,
          "velocity": 0.7874015748031497,
          "duration": 0.06469288541666174
        },
        {
          "name": "C5",
          "midi": 72,
          "time": 156.5798089895817,
          "velocity": 0.7874015748031497,
          "duration": 0.06469288541666174
        },
        {
          "name": "C6",
          "midi": 84,
          "time": 156.5798089895817,
          "velocity": 0.7874015748031497,
          "duration": 0.06469288541666174
        },
        {
          "name": "C7",
          "midi": 96,
          "time": 156.5798089895817,
          "velocity": 0.7874015748031497,
          "duration": 0.06469288541666174
        },
        {
          "name": "C#4",
          "midi": 61,
          "time": 156.84186999999835,
          "velocity": 0.7874015748031497,
          "duration": 0.06578937500000848
        },
        {
          "name": "F#4",
          "midi": 66,
          "time": 156.84186999999835,
          "velocity": 0.7874015748031497,
          "duration": 0.06578937500000848
        },
        {
          "name": "D5",
          "midi": 74,
          "time": 156.84186999999835,
          "velocity": 0.7874015748031497,
          "duration": 0.06578937500000848
        },
        {
          "name": "F#5",
          "midi": 78,
          "time": 156.84186999999835,
          "velocity": 0.7874015748031497,
          "duration": 0.06578937500000848
        },
        {
          "name": "D#6",
          "midi": 87,
          "time": 156.84186999999835,
          "velocity": 0.7874015748031497,
          "duration": 0.06578937500000848
        },
        {
          "name": "F#6",
          "midi": 90,
          "time": 156.84186999999835,
          "velocity": 0.7874015748031497,
          "duration": 0.06578937500000848
        },
        {
          "name": "D#7",
          "midi": 99,
          "time": 156.84186999999835,
          "velocity": 0.7874015748031497,
          "duration": 0.06578937500000848
        },
        {
          "name": "F#7",
          "midi": 102,
          "time": 156.84186999999835,
          "velocity": 0.7874015748031497,
          "duration": 0.06578937500000848
        },
        {
          "name": "D#7",
          "midi": 99,
          "time": 156.97344874999837,
          "velocity": 0.7874015748031497,
          "duration": 0.06578937500000848
        },
        {
          "name": "F#7",
          "midi": 102,
          "time": 156.97344874999837,
          "velocity": 0.7874015748031497,
          "duration": 0.06578937500000848
        },
        {
          "name": "D6",
          "midi": 86,
          "time": 157.10393101041504,
          "velocity": 0.7874015748031497,
          "duration": 0.06578937500000848
        },
        {
          "name": "F6",
          "midi": 89,
          "time": 157.10393101041504,
          "velocity": 0.7874015748031497,
          "duration": 0.06578937500000848
        },
        {
          "name": "D7",
          "midi": 98,
          "time": 157.10393101041504,
          "velocity": 0.7874015748031497,
          "duration": 0.06578937500000848
        },
        {
          "name": "F7",
          "midi": 101,
          "time": 157.10393101041504,
          "velocity": 0.7874015748031497,
          "duration": 0.06578937500000848
        },
        {
          "name": "C#4",
          "midi": 61,
          "time": 157.23660624999837,
          "velocity": 0.7874015748031497,
          "duration": 0.06578937500000848
        },
        {
          "name": "F#4",
          "midi": 66,
          "time": 157.23660624999837,
          "velocity": 0.7874015748031497,
          "duration": 0.06578937500000848
        },
        {
          "name": "D5",
          "midi": 74,
          "time": 157.23660624999837,
          "velocity": 0.7874015748031497,
          "duration": 0.06578937500000848
        },
        {
          "name": "F#5",
          "midi": 78,
          "time": 157.23660624999837,
          "velocity": 0.7874015748031497,
          "duration": 0.06578937500000848
        },
        {
          "name": "D#6",
          "midi": 87,
          "time": 157.23660624999837,
          "velocity": 0.7874015748031497,
          "duration": 0.06578937500000848
        },
        {
          "name": "F6",
          "midi": 89,
          "time": 157.23660624999837,
          "velocity": 0.7874015748031497,
          "duration": 0.06578937500000848
        },
        {
          "name": "D#7",
          "midi": 99,
          "time": 157.23660624999837,
          "velocity": 0.7874015748031497,
          "duration": 0.06578937500000848
        },
        {
          "name": "F7",
          "midi": 101,
          "time": 157.23660624999837,
          "velocity": 0.7874015748031497,
          "duration": 0.06578937500000848
        },
        {
          "name": "D5",
          "midi": 74,
          "time": 157.49976374999838,
          "velocity": 0.7874015748031497,
          "duration": 0.06578937500000848
        },
        {
          "name": "F#5",
          "midi": 78,
          "time": 157.49976374999838,
          "velocity": 0.7874015748031497,
          "duration": 0.06578937500000848
        },
        {
          "name": "D#6",
          "midi": 87,
          "time": 157.49976374999838,
          "velocity": 0.7874015748031497,
          "duration": 0.06578937500000848
        },
        {
          "name": "F#6",
          "midi": 90,
          "time": 157.49976374999838,
          "velocity": 0.7874015748031497,
          "duration": 0.06578937500000848
        },
        {
          "name": "D#7",
          "midi": 99,
          "time": 157.49976374999838,
          "velocity": 0.7874015748031497,
          "duration": 0.06578937500000848
        },
        {
          "name": "F#7",
          "midi": 102,
          "time": 157.49976374999838,
          "velocity": 0.7874015748031497,
          "duration": 0.06578937500000848
        },
        {
          "name": "D4",
          "midi": 62,
          "time": 157.6313424999984,
          "velocity": 0.7874015748031497,
          "duration": 0.06578937500000848
        },
        {
          "name": "F4",
          "midi": 65,
          "time": 157.6313424999984,
          "velocity": 0.7874015748031497,
          "duration": 0.06578937500000848
        },
        {
          "name": "D#5",
          "midi": 75,
          "time": 157.6313424999984,
          "velocity": 0.7874015748031497,
          "duration": 0.06578937500000848
        },
        {
          "name": "F5",
          "midi": 77,
          "time": 157.6313424999984,
          "velocity": 0.7874015748031497,
          "duration": 0.06578937500000848
        },
        {
          "name": "E6",
          "midi": 88,
          "time": 157.6313424999984,
          "velocity": 0.7874015748031497,
          "duration": 0.06578937500000848
        },
        {
          "name": "F6",
          "midi": 89,
          "time": 157.6313424999984,
          "velocity": 0.7874015748031497,
          "duration": 0.06578937500000848
        },
        {
          "name": "D#7",
          "midi": 99,
          "time": 157.6313424999984,
          "velocity": 0.7874015748031497,
          "duration": 0.06578937500000848
        },
        {
          "name": "F#7",
          "midi": 102,
          "time": 157.6313424999984,
          "velocity": 0.7874015748031497,
          "duration": 0.06578937500000848
        },
        {
          "name": "E7",
          "midi": 100,
          "time": 157.7629212499984,
          "velocity": 0.7874015748031497,
          "duration": 0.06578937500000848
        },
        {
          "name": "F7",
          "midi": 101,
          "time": 157.7629212499984,
          "velocity": 0.7874015748031497,
          "duration": 0.06578937500000848
        },
        {
          "name": "C4",
          "midi": 60,
          "time": 158.1565610104151,
          "velocity": 0.7874015748031497,
          "duration": 0.06578937500000848
        },
        {
          "name": "F#4",
          "midi": 66,
          "time": 158.1565610104151,
          "velocity": 0.7874015748031497,
          "duration": 0.06578937500000848
        },
        {
          "name": "C5",
          "midi": 72,
          "time": 158.1565610104151,
          "velocity": 0.7874015748031497,
          "duration": 0.06578937500000848
        },
        {
          "name": "F#5",
          "midi": 78,
          "time": 158.1565610104151,
          "velocity": 0.7874015748031497,
          "duration": 0.06578937500000848
        },
        {
          "name": "C6",
          "midi": 84,
          "time": 158.1565610104151,
          "velocity": 0.7874015748031497,
          "duration": 0.06578937500000848
        },
        {
          "name": "F#6",
          "midi": 90,
          "time": 158.1565610104151,
          "velocity": 0.7874015748031497,
          "duration": 0.06578937500000848
        },
        {
          "name": "C7",
          "midi": 96,
          "time": 158.1565610104151,
          "velocity": 0.7874015748031497,
          "duration": 0.06578937500000848
        },
        {
          "name": "F#7",
          "midi": 102,
          "time": 158.1565610104151,
          "velocity": 0.7874015748031497,
          "duration": 0.06578937500000848
        },
        {
          "name": "C#4",
          "midi": 61,
          "time": 158.42081499999844,
          "velocity": 0.7874015748031497,
          "duration": 0.06578937500000848
        },
        {
          "name": "F#4",
          "midi": 66,
          "time": 158.42081499999844,
          "velocity": 0.7874015748031497,
          "duration": 0.06578937500000848
        },
        {
          "name": "C#5",
          "midi": 73,
          "time": 158.42081499999844,
          "velocity": 0.7874015748031497,
          "duration": 0.06578937500000848
        },
        {
          "name": "F#5",
          "midi": 78,
          "time": 158.42081499999844,
          "velocity": 0.7874015748031497,
          "duration": 0.06578937500000848
        },
        {
          "name": "C#6",
          "midi": 85,
          "time": 158.42081499999844,
          "velocity": 0.7874015748031497,
          "duration": 0.06578937500000848
        },
        {
          "name": "F#6",
          "midi": 90,
          "time": 158.42081499999844,
          "velocity": 0.7874015748031497,
          "duration": 0.06578937500000848
        },
        {
          "name": "C#7",
          "midi": 97,
          "time": 158.42081499999844,
          "velocity": 0.7874015748031497,
          "duration": 0.06578937500000848
        },
        {
          "name": "F#7",
          "midi": 102,
          "time": 158.42081499999844,
          "velocity": 0.7874015748031497,
          "duration": 0.06578937500000848
        },
        {
          "name": "C4",
          "midi": 60,
          "time": 158.6850689895818,
          "velocity": 0.7874015748031497,
          "duration": 0.06469288541666174
        },
        {
          "name": "F#4",
          "midi": 66,
          "time": 158.6850689895818,
          "velocity": 0.7874015748031497,
          "duration": 0.06469288541666174
        },
        {
          "name": "C5",
          "midi": 72,
          "time": 158.6850689895818,
          "velocity": 0.7874015748031497,
          "duration": 0.06469288541666174
        },
        {
          "name": "C6",
          "midi": 84,
          "time": 158.6850689895818,
          "velocity": 0.7874015748031497,
          "duration": 0.06469288541666174
        },
        {
          "name": "C7",
          "midi": 96,
          "time": 158.6850689895818,
          "velocity": 0.7874015748031497,
          "duration": 0.06469288541666174
        },
        {
          "name": "D4",
          "midi": 62,
          "time": 158.94712999999845,
          "velocity": 0.7874015748031497,
          "duration": 0.06578937500000848
        },
        {
          "name": "F#4",
          "midi": 66,
          "time": 158.94712999999845,
          "velocity": 0.7874015748031497,
          "duration": 0.06578937500000848
        },
        {
          "name": "D#5",
          "midi": 75,
          "time": 158.94712999999845,
          "velocity": 0.7874015748031497,
          "duration": 0.06578937500000848
        },
        {
          "name": "F#5",
          "midi": 78,
          "time": 158.94712999999845,
          "velocity": 0.7874015748031497,
          "duration": 0.06578937500000848
        },
        {
          "name": "D#6",
          "midi": 87,
          "time": 158.94712999999845,
          "velocity": 0.7874015748031497,
          "duration": 0.06578937500000848
        },
        {
          "name": "F#6",
          "midi": 90,
          "time": 158.94712999999845,
          "velocity": 0.7874015748031497,
          "duration": 0.06578937500000848
        },
        {
          "name": "D#7",
          "midi": 99,
          "time": 158.94712999999845,
          "velocity": 0.7874015748031497,
          "duration": 0.06578937500000848
        },
        {
          "name": "F#7",
          "midi": 102,
          "time": 158.94712999999845,
          "velocity": 0.7874015748031497,
          "duration": 0.06578937500000848
        },
        {
          "name": "D#7",
          "midi": 99,
          "time": 159.07870874999847,
          "velocity": 0.7874015748031497,
          "duration": 0.06578937500000848
        },
        {
          "name": "F#7",
          "midi": 102,
          "time": 159.07870874999847,
          "velocity": 0.7874015748031497,
          "duration": 0.06578937500000848
        },
        {
          "name": "D5",
          "midi": 74,
          "time": 159.2113839895818,
          "velocity": 0.7874015748031497,
          "duration": 0.06469288541666174
        },
        {
          "name": "F5",
          "midi": 77,
          "time": 159.2113839895818,
          "velocity": 0.7874015748031497,
          "duration": 0.06469288541666174
        },
        {
          "name": "D6",
          "midi": 86,
          "time": 159.2113839895818,
          "velocity": 0.7874015748031497,
          "duration": 0.06469288541666174
        },
        {
          "name": "F6",
          "midi": 89,
          "time": 159.2113839895818,
          "velocity": 0.7874015748031497,
          "duration": 0.06469288541666174
        },
        {
          "name": "D7",
          "midi": 98,
          "time": 159.2113839895818,
          "velocity": 0.7874015748031497,
          "duration": 0.06469288541666174
        },
        {
          "name": "F7",
          "midi": 101,
          "time": 159.2113839895818,
          "velocity": 0.7874015748031497,
          "duration": 0.06469288541666174
        },
        {
          "name": "D4",
          "midi": 62,
          "time": 159.34186624999847,
          "velocity": 0.7874015748031497,
          "duration": 0.06578937500000848
        },
        {
          "name": "F#4",
          "midi": 66,
          "time": 159.34186624999847,
          "velocity": 0.7874015748031497,
          "duration": 0.06578937500000848
        },
        {
          "name": "D#5",
          "midi": 75,
          "time": 159.34186624999847,
          "velocity": 0.7874015748031497,
          "duration": 0.06578937500000848
        },
        {
          "name": "F5",
          "midi": 77,
          "time": 159.34186624999847,
          "velocity": 0.7874015748031497,
          "duration": 0.06578937500000848
        },
        {
          "name": "D#6",
          "midi": 87,
          "time": 159.34186624999847,
          "velocity": 0.7874015748031497,
          "duration": 0.06578937500000848
        },
        {
          "name": "F6",
          "midi": 89,
          "time": 159.34186624999847,
          "velocity": 0.7874015748031497,
          "duration": 0.06578937500000848
        },
        {
          "name": "D#7",
          "midi": 99,
          "time": 159.34186624999847,
          "velocity": 0.7874015748031497,
          "duration": 0.06578937500000848
        },
        {
          "name": "F7",
          "midi": 101,
          "time": 159.34186624999847,
          "velocity": 0.7874015748031497,
          "duration": 0.06578937500000848
        },
        {
          "name": "D6",
          "midi": 86,
          "time": 159.4734449999985,
          "velocity": 0.7874015748031497,
          "duration": 0.06469288541666174
        },
        {
          "name": "F6",
          "midi": 89,
          "time": 159.4734449999985,
          "velocity": 0.7874015748031497,
          "duration": 0.06469288541666174
        },
        {
          "name": "D7",
          "midi": 98,
          "time": 159.4734449999985,
          "velocity": 0.7874015748031497,
          "duration": 0.06469288541666174
        },
        {
          "name": "F7",
          "midi": 101,
          "time": 159.4734449999985,
          "velocity": 0.7874015748031497,
          "duration": 0.06469288541666174
        },
        {
          "name": "C#6",
          "midi": 85,
          "time": 159.60502374999848,
          "velocity": 0.7874015748031497,
          "duration": 0.06469288541666174
        },
        {
          "name": "F6",
          "midi": 89,
          "time": 159.60502374999848,
          "velocity": 0.7874015748031497,
          "duration": 0.06469288541666174
        },
        {
          "name": "C#7",
          "midi": 97,
          "time": 159.60502374999848,
          "velocity": 0.7874015748031497,
          "duration": 0.06469288541666174
        },
        {
          "name": "F7",
          "midi": 101,
          "time": 159.60502374999848,
          "velocity": 0.7874015748031497,
          "duration": 0.06469288541666174
        },
        {
          "name": "C#4",
          "midi": 61,
          "time": 159.6719096145818,
          "velocity": 0.7874015748031497,
          "duration": 0.06469288541666174
        },
        {
          "name": "F4",
          "midi": 65,
          "time": 159.6719096145818,
          "velocity": 0.7874015748031497,
          "duration": 0.06469288541666174
        },
        {
          "name": "D5",
          "midi": 74,
          "time": 159.6719096145818,
          "velocity": 0.7874015748031497,
          "duration": 0.06469288541666174
        },
        {
          "name": "F5",
          "midi": 77,
          "time": 159.6719096145818,
          "velocity": 0.7874015748031497,
          "duration": 0.06469288541666174
        },
        {
          "name": "C6",
          "midi": 84,
          "time": 159.73660249999847,
          "velocity": 0.7874015748031497,
          "duration": 0.06469288541666174
        },
        {
          "name": "F6",
          "midi": 89,
          "time": 159.73660249999847,
          "velocity": 0.7874015748031497,
          "duration": 0.06469288541666174
        },
        {
          "name": "C7",
          "midi": 96,
          "time": 159.73660249999847,
          "velocity": 0.7874015748031497,
          "duration": 0.06469288541666174
        },
        {
          "name": "F7",
          "midi": 101,
          "time": 159.73660249999847,
          "velocity": 0.7874015748031497,
          "duration": 0.06469288541666174
        },
        {
          "name": "C#5",
          "midi": 73,
          "time": 159.8034883645818,
          "velocity": 0.7874015748031497,
          "duration": 0.06469288541666174
        },
        {
          "name": "F5",
          "midi": 77,
          "time": 159.8034883645818,
          "velocity": 0.7874015748031497,
          "duration": 0.06469288541666174
        },
        {
          "name": "C7",
          "midi": 96,
          "time": 159.86818124999846,
          "velocity": 0.7874015748031497,
          "duration": 0.06469288541666174
        },
        {
          "name": "C4",
          "midi": 60,
          "time": 159.99975999999845,
          "velocity": 0.7874015748031497,
          "duration": 0.06469288541666174
        },
        {
          "name": "F#4",
          "midi": 66,
          "time": 159.99975999999845,
          "velocity": 0.7874015748031497,
          "duration": 0.06469288541666174
        },
        {
          "name": "C#5",
          "midi": 73,
          "time": 159.99975999999845,
          "velocity": 0.7874015748031497,
          "duration": 0.06469288541666174
        },
        {
          "name": "F#5",
          "midi": 78,
          "time": 159.99975999999845,
          "velocity": 0.7874015748031497,
          "duration": 0.06469288541666174
        },
        {
          "name": "C#6",
          "midi": 85,
          "time": 159.99975999999845,
          "velocity": 0.7874015748031497,
          "duration": 0.06469288541666174
        },
        {
          "name": "F#6",
          "midi": 90,
          "time": 159.99975999999845,
          "velocity": 0.7874015748031497,
          "duration": 0.06469288541666174
        },
        {
          "name": "C7",
          "midi": 96,
          "time": 159.99975999999845,
          "velocity": 0.7874015748031497,
          "duration": 0.06469288541666174
        },
        {
          "name": "F7",
          "midi": 101,
          "time": 159.99975999999845,
          "velocity": 0.7874015748031497,
          "duration": 0.06469288541666174
        },
        {
          "name": "C#7",
          "midi": 97,
          "time": 160.13243523958178,
          "velocity": 0.7874015748031497,
          "duration": 0.06469288541666174
        },
        {
          "name": "F7",
          "midi": 101,
          "time": 160.13243523958178,
          "velocity": 0.7874015748031497,
          "duration": 0.06469288541666174
        },
        {
          "name": "C#4",
          "midi": 61,
          "time": 160.39449624999844,
          "velocity": 0.7874015748031497,
          "duration": 0.06578937500000848
        },
        {
          "name": "F#4",
          "midi": 66,
          "time": 160.39449624999844,
          "velocity": 0.7874015748031497,
          "duration": 0.06578937500000848
        },
        {
          "name": "D5",
          "midi": 74,
          "time": 160.39449624999844,
          "velocity": 0.7874015748031497,
          "duration": 0.06578937500000848
        },
        {
          "name": "F#5",
          "midi": 78,
          "time": 160.39449624999844,
          "velocity": 0.7874015748031497,
          "duration": 0.06578937500000848
        },
        {
          "name": "D6",
          "midi": 86,
          "time": 160.39449624999844,
          "velocity": 0.7874015748031497,
          "duration": 0.06578937500000848
        },
        {
          "name": "F#6",
          "midi": 90,
          "time": 160.39449624999844,
          "velocity": 0.7874015748031497,
          "duration": 0.06578937500000848
        },
        {
          "name": "D7",
          "midi": 98,
          "time": 160.39449624999844,
          "velocity": 0.7874015748031497,
          "duration": 0.06578937500000848
        },
        {
          "name": "F#7",
          "midi": 102,
          "time": 160.39449624999844,
          "velocity": 0.7874015748031497,
          "duration": 0.06578937500000848
        },
        {
          "name": "D#7",
          "midi": 99,
          "time": 160.72344312499845,
          "velocity": 0.7874015748031497,
          "duration": 0.06578937500000848
        },
        {
          "name": "F#7",
          "midi": 102,
          "time": 160.72344312499845,
          "velocity": 0.7874015748031497,
          "duration": 0.06578937500000848
        },
        {
          "name": "D4",
          "midi": 62,
          "time": 160.78923249999846,
          "velocity": 0.7874015748031497,
          "duration": 0.06578937499998005
        },
        {
          "name": "F#4",
          "midi": 66,
          "time": 160.78923249999846,
          "velocity": 0.7874015748031497,
          "duration": 0.06578937499998005
        },
        {
          "name": "D#5",
          "midi": 75,
          "time": 160.78923249999846,
          "velocity": 0.7874015748031497,
          "duration": 0.06578937499998005
        },
        {
          "name": "F#5",
          "midi": 78,
          "time": 160.78923249999846,
          "velocity": 0.7874015748031497,
          "duration": 0.06578937499998005
        },
        {
          "name": "D#6",
          "midi": 87,
          "time": 160.78923249999846,
          "velocity": 0.7874015748031497,
          "duration": 0.06578937499998005
        },
        {
          "name": "F#6",
          "midi": 90,
          "time": 160.78923249999846,
          "velocity": 0.7874015748031497,
          "duration": 0.06578937499998005
        },
        {
          "name": "E7",
          "midi": 100,
          "time": 160.82322367708178,
          "velocity": 0.7874015748031497,
          "duration": 0.06578937499998005
        },
        {
          "name": "F7",
          "midi": 101,
          "time": 160.82322367708178,
          "velocity": 0.7874015748031497,
          "duration": 0.06578937499998005
        },
        {
          "name": "C#4",
          "midi": 61,
          "time": 161.05238999999844,
          "velocity": 0.7874015748031497,
          "duration": 0.39144678125001064
        },
        {
          "name": "F#4",
          "midi": 66,
          "time": 161.05238999999844,
          "velocity": 0.7874015748031497,
          "duration": 0.39144678125001064
        },
        {
          "name": "D5",
          "midi": 74,
          "time": 161.05238999999844,
          "velocity": 0.7874015748031497,
          "duration": 0.39144678125001064
        },
        {
          "name": "F#5",
          "midi": 78,
          "time": 161.05238999999844,
          "velocity": 0.7874015748031497,
          "duration": 0.39144678125001064
        },
        {
          "name": "D6",
          "midi": 86,
          "time": 161.05238999999844,
          "velocity": 0.7874015748031497,
          "duration": 0.39144678125001064
        },
        {
          "name": "F#6",
          "midi": 90,
          "time": 161.05238999999844,
          "velocity": 0.7874015748031497,
          "duration": 0.39144678125001064
        },
        {
          "name": "D#7",
          "midi": 99,
          "time": 161.05238999999844,
          "velocity": 0.7874015748031497,
          "duration": 0.39144678125001064
        },
        {
          "name": "F#7",
          "midi": 102,
          "time": 161.05238999999844,
          "velocity": 0.7874015748031497,
          "duration": 0.39144678125001064
        },
        {
          "name": "D4",
          "midi": 62,
          "time": 161.44712624999846,
          "velocity": 0.7874015748031497,
          "duration": 0.3936397604166757
        },
        {
          "name": "F#4",
          "midi": 66,
          "time": 161.44712624999846,
          "velocity": 0.7874015748031497,
          "duration": 0.39254327083332896
        },
        {
          "name": "D#5",
          "midi": 75,
          "time": 161.44712624999846,
          "velocity": 0.7874015748031497,
          "duration": 0.3936397604166757
        },
        {
          "name": "F#5",
          "midi": 78,
          "time": 161.44712624999846,
          "velocity": 0.7874015748031497,
          "duration": 0.39254327083332896
        },
        {
          "name": "D#6",
          "midi": 87,
          "time": 161.44712624999846,
          "velocity": 0.7874015748031497,
          "duration": 0.3936397604166757
        },
        {
          "name": "F#6",
          "midi": 90,
          "time": 161.44712624999846,
          "velocity": 0.7874015748031497,
          "duration": 0.39254327083332896
        },
        {
          "name": "E7",
          "midi": 100,
          "time": 161.44712624999846,
          "velocity": 0.7874015748031497,
          "duration": 0.3936397604166757
        },
        {
          "name": "F#7",
          "midi": 102,
          "time": 161.44712624999846,
          "velocity": 0.7874015748031497,
          "duration": 0.39254327083332896
        },
        {
          "name": "C#4",
          "midi": 61,
          "time": 161.84186249999848,
          "velocity": 0.7874015748031497,
          "duration": 0.06578937500000848
        },
        {
          "name": "F#4",
          "midi": 66,
          "time": 161.84186249999848,
          "velocity": 0.7874015748031497,
          "duration": 0.06578937500000848
        },
        {
          "name": "D#5",
          "midi": 75,
          "time": 161.84186249999848,
          "velocity": 0.7874015748031497,
          "duration": 0.06578937500000848
        },
        {
          "name": "F#5",
          "midi": 78,
          "time": 161.84186249999848,
          "velocity": 0.7874015748031497,
          "duration": 0.06578937500000848
        },
        {
          "name": "D#6",
          "midi": 87,
          "time": 161.84186249999848,
          "velocity": 0.7874015748031497,
          "duration": 0.06578937500000848
        },
        {
          "name": "F#6",
          "midi": 90,
          "time": 161.84186249999848,
          "velocity": 0.7874015748031497,
          "duration": 0.06578937500000848
        },
        {
          "name": "D#7",
          "midi": 99,
          "time": 161.84186249999848,
          "velocity": 0.7874015748031497,
          "duration": 0.06578937500000848
        },
        {
          "name": "F#7",
          "midi": 102,
          "time": 161.84186249999848,
          "velocity": 0.7874015748031497,
          "duration": 0.06578937500000848
        },
        {
          "name": "E7",
          "midi": 100,
          "time": 161.92958166666517,
          "velocity": 0.7874015748031497,
          "duration": 0.06578937500000848
        },
        {
          "name": "F7",
          "midi": 101,
          "time": 161.92958166666517,
          "velocity": 0.7874015748031497,
          "duration": 0.06578937500000848
        },
        {
          "name": "D#7",
          "midi": 99,
          "time": 162.01730083333186,
          "velocity": 0.7874015748031497,
          "duration": 0.06578937500000848
        },
        {
          "name": "F7",
          "midi": 101,
          "time": 162.01730083333186,
          "velocity": 0.7874015748031497,
          "duration": 0.06578937500000848
        },
        {
          "name": "D4",
          "midi": 62,
          "time": 162.10501999999855,
          "velocity": 0.7874015748031497,
          "duration": 0.06469288541666174
        },
        {
          "name": "F#4",
          "midi": 66,
          "time": 162.10501999999855,
          "velocity": 0.7874015748031497,
          "duration": 0.06469288541666174
        },
        {
          "name": "D5",
          "midi": 74,
          "time": 162.10501999999855,
          "velocity": 0.7874015748031497,
          "duration": 0.06469288541666174
        },
        {
          "name": "D#5",
          "midi": 75,
          "time": 162.10501999999855,
          "velocity": 0.7874015748031497,
          "duration": 0.06469288541666174
        },
        {
          "name": "F#5",
          "midi": 78,
          "time": 162.10501999999855,
          "velocity": 0.7874015748031497,
          "duration": 0.06469288541666174
        },
        {
          "name": "D6",
          "midi": 86,
          "time": 162.10501999999855,
          "velocity": 0.7874015748031497,
          "duration": 0.06469288541666174
        },
        {
          "name": "D#6",
          "midi": 87,
          "time": 162.10501999999855,
          "velocity": 0.7874015748031497,
          "duration": 0.06469288541666174
        },
        {
          "name": "F#6",
          "midi": 90,
          "time": 162.10501999999855,
          "velocity": 0.7874015748031497,
          "duration": 0.06469288541666174
        },
        {
          "name": "D#7",
          "midi": 99,
          "time": 162.10501999999855,
          "velocity": 0.7874015748031497,
          "duration": 0.06469288541666174
        },
        {
          "name": "E7",
          "midi": 100,
          "time": 162.10501999999855,
          "velocity": 0.7874015748031497,
          "duration": 0.06469288541666174
        },
        {
          "name": "F#7",
          "midi": 102,
          "time": 162.10501999999855,
          "velocity": 0.7874015748031497,
          "duration": 0.06469288541666174
        },
        {
          "name": "D7",
          "midi": 98,
          "time": 162.36817749999855,
          "velocity": 0.7874015748031497,
          "duration": 0.06469288541666174
        },
        {
          "name": "F#7",
          "midi": 102,
          "time": 162.36817749999855,
          "velocity": 0.7874015748031497,
          "duration": 0.06469288541666174
        },
        {
          "name": "D4",
          "midi": 62,
          "time": 162.49975624999854,
          "velocity": 0.7874015748031497,
          "duration": 0.06469288541666174
        },
        {
          "name": "F#4",
          "midi": 66,
          "time": 162.49975624999854,
          "velocity": 0.7874015748031497,
          "duration": 0.06469288541666174
        },
        {
          "name": "D#5",
          "midi": 75,
          "time": 162.49975624999854,
          "velocity": 0.7874015748031497,
          "duration": 0.06469288541666174
        },
        {
          "name": "F#5",
          "midi": 78,
          "time": 162.49975624999854,
          "velocity": 0.7874015748031497,
          "duration": 0.06469288541666174
        },
        {
          "name": "E6",
          "midi": 88,
          "time": 162.49975624999854,
          "velocity": 0.7874015748031497,
          "duration": 0.06469288541666174
        },
        {
          "name": "F#6",
          "midi": 90,
          "time": 162.49975624999854,
          "velocity": 0.7874015748031497,
          "duration": 0.06469288541666174
        },
        {
          "name": "E7",
          "midi": 100,
          "time": 162.49975624999854,
          "velocity": 0.7874015748031497,
          "duration": 0.06469288541666174
        },
        {
          "name": "F7",
          "midi": 101,
          "time": 162.49975624999854,
          "velocity": 0.7874015748031497,
          "duration": 0.06469288541666174
        },
        {
          "name": "D#6",
          "midi": 87,
          "time": 162.63133499999853,
          "velocity": 0.7874015748031497,
          "duration": 0.06469288541666174
        },
        {
          "name": "F6",
          "midi": 89,
          "time": 162.63133499999853,
          "velocity": 0.7874015748031497,
          "duration": 0.06469288541666174
        },
        {
          "name": "D#7",
          "midi": 99,
          "time": 162.63133499999853,
          "velocity": 0.7874015748031497,
          "duration": 0.06469288541666174
        },
        {
          "name": "F7",
          "midi": 101,
          "time": 162.63133499999853,
          "velocity": 0.7874015748031497,
          "duration": 0.06469288541666174
        },
        {
          "name": "C#4",
          "midi": 61,
          "time": 162.76291374999852,
          "velocity": 0.7874015748031497,
          "duration": 0.06469288541666174
        },
        {
          "name": "F4",
          "midi": 65,
          "time": 162.76291374999852,
          "velocity": 0.7874015748031497,
          "duration": 0.06469288541666174
        },
        {
          "name": "C#5",
          "midi": 73,
          "time": 162.76291374999852,
          "velocity": 0.7874015748031497,
          "duration": 0.06469288541666174
        },
        {
          "name": "F5",
          "midi": 77,
          "time": 162.76291374999852,
          "velocity": 0.7874015748031497,
          "duration": 0.06469288541666174
        },
        {
          "name": "D6",
          "midi": 86,
          "time": 162.76291374999852,
          "velocity": 0.7874015748031497,
          "duration": 0.06469288541666174
        },
        {
          "name": "F6",
          "midi": 89,
          "time": 162.76291374999852,
          "velocity": 0.7874015748031497,
          "duration": 0.06469288541666174
        },
        {
          "name": "D7",
          "midi": 98,
          "time": 162.76291374999852,
          "velocity": 0.7874015748031497,
          "duration": 0.06469288541666174
        },
        {
          "name": "F7",
          "midi": 101,
          "time": 162.76291374999852,
          "velocity": 0.7874015748031497,
          "duration": 0.06469288541666174
        },
        {
          "name": "D5",
          "midi": 74,
          "time": 162.8944924999985,
          "velocity": 0.7874015748031497,
          "duration": 0.06469288541666174
        },
        {
          "name": "F5",
          "midi": 77,
          "time": 162.8944924999985,
          "velocity": 0.7874015748031497,
          "duration": 0.06469288541666174
        },
        {
          "name": "D#6",
          "midi": 87,
          "time": 162.8944924999985,
          "velocity": 0.7874015748031497,
          "duration": 0.06469288541666174
        },
        {
          "name": "F6",
          "midi": 89,
          "time": 162.8944924999985,
          "velocity": 0.7874015748031497,
          "duration": 0.06469288541666174
        },
        {
          "name": "D#7",
          "midi": 99,
          "time": 162.8944924999985,
          "velocity": 0.7874015748031497,
          "duration": 0.06469288541666174
        },
        {
          "name": "F7",
          "midi": 101,
          "time": 162.8944924999985,
          "velocity": 0.7874015748031497,
          "duration": 0.06469288541666174
        },
        {
          "name": "C#7",
          "midi": 97,
          "time": 163.0260712499985,
          "velocity": 0.7874015748031497,
          "duration": 0.06469288541666174
        },
        {
          "name": "F7",
          "midi": 101,
          "time": 163.0260712499985,
          "velocity": 0.7874015748031497,
          "duration": 0.06469288541666174
        },
        {
          "name": "D4",
          "midi": 62,
          "time": 163.15764999999848,
          "velocity": 0.7874015748031497,
          "duration": 0.06469288541666174
        },
        {
          "name": "F#4",
          "midi": 66,
          "time": 163.15764999999848,
          "velocity": 0.7874015748031497,
          "duration": 0.06469288541666174
        },
        {
          "name": "D#5",
          "midi": 75,
          "time": 163.15764999999848,
          "velocity": 0.7874015748031497,
          "duration": 0.06469288541666174
        },
        {
          "name": "F#5",
          "midi": 78,
          "time": 163.15764999999848,
          "velocity": 0.7874015748031497,
          "duration": 0.06469288541666174
        },
        {
          "name": "D6",
          "midi": 86,
          "time": 163.15764999999848,
          "velocity": 0.7874015748031497,
          "duration": 0.06469288541666174
        },
        {
          "name": "F6",
          "midi": 89,
          "time": 163.15764999999848,
          "velocity": 0.7874015748031497,
          "duration": 0.06469288541666174
        },
        {
          "name": "D7",
          "midi": 98,
          "time": 163.15764999999848,
          "velocity": 0.7874015748031497,
          "duration": 0.06469288541666174
        },
        {
          "name": "F7",
          "midi": 101,
          "time": 163.15764999999848,
          "velocity": 0.7874015748031497,
          "duration": 0.06469288541666174
        },
        {
          "name": "D#6",
          "midi": 87,
          "time": 163.28922874999847,
          "velocity": 0.7874015748031497,
          "duration": 0.06469288541666174
        },
        {
          "name": "F6",
          "midi": 89,
          "time": 163.28922874999847,
          "velocity": 0.7874015748031497,
          "duration": 0.06469288541666174
        },
        {
          "name": "D#7",
          "midi": 99,
          "time": 163.28922874999847,
          "velocity": 0.7874015748031497,
          "duration": 0.06469288541666174
        },
        {
          "name": "F7",
          "midi": 101,
          "time": 163.28922874999847,
          "velocity": 0.7874015748031497,
          "duration": 0.06469288541666174
        },
        {
          "name": "C#7",
          "midi": 97,
          "time": 163.42080749999846,
          "velocity": 0.7874015748031497,
          "duration": 0.06469288541666174
        },
        {
          "name": "F7",
          "midi": 101,
          "time": 163.42080749999846,
          "velocity": 0.7874015748031497,
          "duration": 0.06469288541666174
        },
        {
          "name": "C#4",
          "midi": 61,
          "time": 163.55238624999845,
          "velocity": 0.7874015748031497,
          "duration": 0.06469288541666174
        },
        {
          "name": "F4",
          "midi": 65,
          "time": 163.55238624999845,
          "velocity": 0.7874015748031497,
          "duration": 0.06469288541666174
        },
        {
          "name": "D#5",
          "midi": 75,
          "time": 163.55238624999845,
          "velocity": 0.7874015748031497,
          "duration": 0.06469288541666174
        },
        {
          "name": "F#5",
          "midi": 78,
          "time": 163.55238624999845,
          "velocity": 0.7874015748031497,
          "duration": 0.06469288541666174
        },
        {
          "name": "D#6",
          "midi": 87,
          "time": 163.55238624999845,
          "velocity": 0.7874015748031497,
          "duration": 0.06469288541666174
        },
        {
          "name": "F#6",
          "midi": 90,
          "time": 163.55238624999845,
          "velocity": 0.7874015748031497,
          "duration": 0.06469288541666174
        },
        {
          "name": "D#7",
          "midi": 99,
          "time": 163.55238624999845,
          "velocity": 0.7874015748031497,
          "duration": 0.06469288541666174
        },
        {
          "name": "F7",
          "midi": 101,
          "time": 163.55238624999845,
          "velocity": 0.7874015748031497,
          "duration": 0.06469288541666174
        },
        {
          "name": "D6",
          "midi": 86,
          "time": 163.68396499999844,
          "velocity": 0.7874015748031497,
          "duration": 0.06469288541666174
        },
        {
          "name": "F6",
          "midi": 89,
          "time": 163.68396499999844,
          "velocity": 0.7874015748031497,
          "duration": 0.06469288541666174
        },
        {
          "name": "D7",
          "midi": 98,
          "time": 163.68396499999844,
          "velocity": 0.7874015748031497,
          "duration": 0.06469288541666174
        },
        {
          "name": "F7",
          "midi": 101,
          "time": 163.68396499999844,
          "velocity": 0.7874015748031497,
          "duration": 0.06469288541666174
        },
        {
          "name": "C4",
          "midi": 60,
          "time": 163.81554374999843,
          "velocity": 0.7874015748031497,
          "duration": 0.06469288541666174
        },
        {
          "name": "F4",
          "midi": 65,
          "time": 163.81554374999843,
          "velocity": 0.7874015748031497,
          "duration": 0.06469288541666174
        },
        {
          "name": "D5",
          "midi": 74,
          "time": 163.81554374999843,
          "velocity": 0.7874015748031497,
          "duration": 0.06469288541666174
        },
        {
          "name": "F5",
          "midi": 77,
          "time": 163.81554374999843,
          "velocity": 0.7874015748031497,
          "duration": 0.06469288541666174
        },
        {
          "name": "C#6",
          "midi": 85,
          "time": 163.81554374999843,
          "velocity": 0.7874015748031497,
          "duration": 0.06469288541666174
        },
        {
          "name": "F6",
          "midi": 89,
          "time": 163.81554374999843,
          "velocity": 0.7874015748031497,
          "duration": 0.06469288541666174
        },
        {
          "name": "C#7",
          "midi": 97,
          "time": 163.81554374999843,
          "velocity": 0.7874015748031497,
          "duration": 0.06469288541666174
        },
        {
          "name": "F7",
          "midi": 101,
          "time": 163.81554374999843,
          "velocity": 0.7874015748031497,
          "duration": 0.06469288541666174
        },
        {
          "name": "C#5",
          "midi": 73,
          "time": 163.94712249999841,
          "velocity": 0.7874015748031497,
          "duration": 0.06469288541666174
        },
        {
          "name": "F5",
          "midi": 77,
          "time": 163.94712249999841,
          "velocity": 0.7874015748031497,
          "duration": 0.06469288541666174
        },
        {
          "name": "C6",
          "midi": 84,
          "time": 163.94712249999841,
          "velocity": 0.7874015748031497,
          "duration": 0.06469288541666174
        },
        {
          "name": "F6",
          "midi": 89,
          "time": 163.94712249999841,
          "velocity": 0.7874015748031497,
          "duration": 0.06469288541666174
        },
        {
          "name": "C7",
          "midi": 96,
          "time": 163.94712249999841,
          "velocity": 0.7874015748031497,
          "duration": 0.06469288541666174
        },
        {
          "name": "F7",
          "midi": 101,
          "time": 163.94712249999841,
          "velocity": 0.7874015748031497,
          "duration": 0.06469288541666174
        },
        {
          "name": "C4",
          "midi": 60,
          "time": 164.21027999999842,
          "velocity": 0.7874015748031497,
          "duration": 0.5241220208333459
        },
        {
          "name": "F#4",
          "midi": 66,
          "time": 164.21027999999842,
          "velocity": 0.7874015748031497,
          "duration": 0.5241220208333459
        },
        {
          "name": "C5",
          "midi": 72,
          "time": 164.21027999999842,
          "velocity": 0.7874015748031497,
          "duration": 0.5241220208333459
        },
        {
          "name": "F#5",
          "midi": 78,
          "time": 164.21027999999842,
          "velocity": 0.7874015748031497,
          "duration": 0.5241220208333459
        },
        {
          "name": "C6",
          "midi": 84,
          "time": 164.21027999999842,
          "velocity": 0.7874015748031497,
          "duration": 0.5241220208333459
        },
        {
          "name": "F#6",
          "midi": 90,
          "time": 164.21027999999842,
          "velocity": 0.7874015748031497,
          "duration": 0.5241220208333459
        },
        {
          "name": "C7",
          "midi": 96,
          "time": 164.21027999999842,
          "velocity": 0.7874015748031497,
          "duration": 0.5241220208333459
        },
        {
          "name": "F#7",
          "midi": 102,
          "time": 164.21027999999842,
          "velocity": 0.7874015748031497,
          "duration": 0.5241220208333459
        },
        {
          "name": "C#4",
          "midi": 61,
          "time": 164.73659499999843,
          "velocity": 0.7874015748031497,
          "duration": 0.06578937500000848
        },
        {
          "name": "F#4",
          "midi": 66,
          "time": 164.73659499999843,
          "velocity": 0.7874015748031497,
          "duration": 0.06578937500000848
        },
        {
          "name": "C#5",
          "midi": 73,
          "time": 164.73659499999843,
          "velocity": 0.7874015748031497,
          "duration": 0.06578937500000848
        },
        {
          "name": "F#5",
          "midi": 78,
          "time": 164.73659499999843,
          "velocity": 0.7874015748031497,
          "duration": 0.06578937500000848
        },
        {
          "name": "C#6",
          "midi": 85,
          "time": 164.73659499999843,
          "velocity": 0.7874015748031497,
          "duration": 0.06578937500000848
        },
        {
          "name": "F#6",
          "midi": 90,
          "time": 164.73659499999843,
          "velocity": 0.7874015748031497,
          "duration": 0.06578937500000848
        },
        {
          "name": "C#7",
          "midi": 97,
          "time": 164.73659499999843,
          "velocity": 0.7874015748031497,
          "duration": 0.06578937500000848
        },
        {
          "name": "F#7",
          "midi": 102,
          "time": 164.73659499999843,
          "velocity": 0.7874015748031497,
          "duration": 0.06578937500000848
        },
        {
          "name": "C5",
          "midi": 72,
          "time": 164.99865601041512,
          "velocity": 0.7874015748031497,
          "duration": 0.06578937500000848
        },
        {
          "name": "C6",
          "midi": 84,
          "time": 164.99865601041512,
          "velocity": 0.7874015748031497,
          "duration": 0.06578937500000848
        },
        {
          "name": "C7",
          "midi": 96,
          "time": 164.99865601041512,
          "velocity": 0.7874015748031497,
          "duration": 0.06578937500000848
        },
        {
          "name": "D4",
          "midi": 62,
          "time": 165.26290999999847,
          "velocity": 0.7874015748031497,
          "duration": 0.06469288541666174
        },
        {
          "name": "F#4",
          "midi": 66,
          "time": 165.26290999999847,
          "velocity": 0.7874015748031497,
          "duration": 0.06469288541666174
        },
        {
          "name": "D5",
          "midi": 74,
          "time": 165.26290999999847,
          "velocity": 0.7874015748031497,
          "duration": 0.06469288541666174
        },
        {
          "name": "F#5",
          "midi": 78,
          "time": 165.26290999999847,
          "velocity": 0.7874015748031497,
          "duration": 0.06469288541666174
        },
        {
          "name": "D#6",
          "midi": 87,
          "time": 165.26290999999847,
          "velocity": 0.7874015748031497,
          "duration": 0.06469288541666174
        },
        {
          "name": "F#6",
          "midi": 90,
          "time": 165.26290999999847,
          "velocity": 0.7874015748031497,
          "duration": 0.06469288541666174
        },
        {
          "name": "D#7",
          "midi": 99,
          "time": 165.26290999999847,
          "velocity": 0.7874015748031497,
          "duration": 0.06469288541666174
        },
        {
          "name": "F#7",
          "midi": 102,
          "time": 165.26290999999847,
          "velocity": 0.7874015748031497,
          "duration": 0.06469288541666174
        },
        {
          "name": "C#4",
          "midi": 61,
          "time": 165.52497101041513,
          "velocity": 0.7874015748031497,
          "duration": 0.06469288541666174
        },
        {
          "name": "F#4",
          "midi": 66,
          "time": 165.52497101041513,
          "velocity": 0.7874015748031497,
          "duration": 0.06469288541666174
        },
        {
          "name": "C#5",
          "midi": 73,
          "time": 165.52497101041513,
          "velocity": 0.7874015748031497,
          "duration": 0.06469288541666174
        },
        {
          "name": "F#5",
          "midi": 78,
          "time": 165.52497101041513,
          "velocity": 0.7874015748031497,
          "duration": 0.06469288541666174
        },
        {
          "name": "D6",
          "midi": 86,
          "time": 165.52497101041513,
          "velocity": 0.7874015748031497,
          "duration": 0.06469288541666174
        },
        {
          "name": "F#6",
          "midi": 90,
          "time": 165.52497101041513,
          "velocity": 0.7874015748031497,
          "duration": 0.06469288541666174
        },
        {
          "name": "D7",
          "midi": 98,
          "time": 165.52497101041513,
          "velocity": 0.7874015748031497,
          "duration": 0.06469288541666174
        },
        {
          "name": "F#7",
          "midi": 102,
          "time": 165.52497101041513,
          "velocity": 0.7874015748031497,
          "duration": 0.06469288541666174
        },
        {
          "name": "C4",
          "midi": 60,
          "time": 165.78922499999845,
          "velocity": 0.7874015748031497,
          "duration": 0.06469288541666174
        },
        {
          "name": "F#4",
          "midi": 66,
          "time": 165.78922499999845,
          "velocity": 0.7874015748031497,
          "duration": 0.06469288541666174
        },
        {
          "name": "C5",
          "midi": 72,
          "time": 165.78922499999845,
          "velocity": 0.7874015748031497,
          "duration": 0.06469288541666174
        },
        {
          "name": "F#5",
          "midi": 78,
          "time": 165.78922499999845,
          "velocity": 0.7874015748031497,
          "duration": 0.06469288541666174
        },
        {
          "name": "C#6",
          "midi": 85,
          "time": 165.78922499999845,
          "velocity": 0.7874015748031497,
          "duration": 0.06469288541666174
        },
        {
          "name": "F#6",
          "midi": 90,
          "time": 165.78922499999845,
          "velocity": 0.7874015748031497,
          "duration": 0.06469288541666174
        },
        {
          "name": "C#7",
          "midi": 97,
          "time": 165.78922499999845,
          "velocity": 0.7874015748031497,
          "duration": 0.06469288541666174
        },
        {
          "name": "F#7",
          "midi": 102,
          "time": 165.78922499999845,
          "velocity": 0.7874015748031497,
          "duration": 0.06469288541666174
        },
        {
          "name": "C#4",
          "midi": 61,
          "time": 166.05238249999846,
          "velocity": 0.7874015748031497,
          "duration": 0.6557007708333344
        },
        {
          "name": "F#4",
          "midi": 66,
          "time": 166.05238249999846,
          "velocity": 0.7874015748031497,
          "duration": 0.6546042812499877
        },
        {
          "name": "C#5",
          "midi": 73,
          "time": 166.05238249999846,
          "velocity": 0.7874015748031497,
          "duration": 0.6557007708333344
        },
        {
          "name": "F#5",
          "midi": 78,
          "time": 166.05238249999846,
          "velocity": 0.7874015748031497,
          "duration": 0.6546042812499877
        },
        {
          "name": "D6",
          "midi": 86,
          "time": 166.05238249999846,
          "velocity": 0.7874015748031497,
          "duration": 0.6557007708333344
        },
        {
          "name": "F#6",
          "midi": 90,
          "time": 166.05238249999846,
          "velocity": 0.7874015748031497,
          "duration": 0.6546042812499877
        },
        {
          "name": "D7",
          "midi": 98,
          "time": 166.05238249999846,
          "velocity": 0.7874015748031497,
          "duration": 0.6557007708333344
        },
        {
          "name": "F#7",
          "midi": 102,
          "time": 166.05238249999846,
          "velocity": 0.7874015748031497,
          "duration": 0.6546042812499877
        },
        {
          "name": "C4",
          "midi": 60,
          "time": 166.70917976041514,
          "velocity": 0.7874015748031497,
          "duration": 0.06578937500000848
        },
        {
          "name": "F#4",
          "midi": 66,
          "time": 166.70917976041514,
          "velocity": 0.7874015748031497,
          "duration": 0.06578937500000848
        },
        {
          "name": "C5",
          "midi": 72,
          "time": 166.70917976041514,
          "velocity": 0.7874015748031497,
          "duration": 0.06578937500000848
        },
        {
          "name": "F#5",
          "midi": 78,
          "time": 166.70917976041514,
          "velocity": 0.7874015748031497,
          "duration": 0.06578937500000848
        },
        {
          "name": "C6",
          "midi": 84,
          "time": 166.70917976041514,
          "velocity": 0.7874015748031497,
          "duration": 0.06578937500000848
        },
        {
          "name": "F#6",
          "midi": 90,
          "time": 166.70917976041514,
          "velocity": 0.7874015748031497,
          "duration": 0.06578937500000848
        },
        {
          "name": "C7",
          "midi": 96,
          "time": 166.70917976041514,
          "velocity": 0.7874015748031497,
          "duration": 0.06578937500000848
        },
        {
          "name": "F#7",
          "midi": 102,
          "time": 166.70917976041514,
          "velocity": 0.7874015748031497,
          "duration": 0.06578937500000848
        },
        {
          "name": "C#4",
          "midi": 61,
          "time": 166.97233726041515,
          "velocity": 0.7874015748031497,
          "duration": 0.06578937500000848
        },
        {
          "name": "F#4",
          "midi": 66,
          "time": 166.97233726041515,
          "velocity": 0.7874015748031497,
          "duration": 0.06578937500000848
        },
        {
          "name": "C#5",
          "midi": 73,
          "time": 166.97233726041515,
          "velocity": 0.7874015748031497,
          "duration": 0.06578937500000848
        },
        {
          "name": "F#5",
          "midi": 78,
          "time": 166.97233726041515,
          "velocity": 0.7874015748031497,
          "duration": 0.06578937500000848
        },
        {
          "name": "C#6",
          "midi": 85,
          "time": 166.97233726041515,
          "velocity": 0.7874015748031497,
          "duration": 0.06578937500000848
        },
        {
          "name": "F#6",
          "midi": 90,
          "time": 166.97233726041515,
          "velocity": 0.7874015748031497,
          "duration": 0.06578937500000848
        },
        {
          "name": "C#7",
          "midi": 97,
          "time": 166.97233726041515,
          "velocity": 0.7874015748031497,
          "duration": 0.06578937500000848
        },
        {
          "name": "F#7",
          "midi": 102,
          "time": 166.97233726041515,
          "velocity": 0.7874015748031497,
          "duration": 0.06578937500000848
        },
        {
          "name": "C6",
          "midi": 84,
          "time": 167.23549476041515,
          "velocity": 0.7874015748031497,
          "duration": 0.06578937500000848
        },
        {
          "name": "C7",
          "midi": 96,
          "time": 167.23549476041515,
          "velocity": 0.7874015748031497,
          "duration": 0.06578937500000848
        },
        {
          "name": "G#8",
          "midi": 116,
          "time": 167.36816999999849,
          "velocity": 0.7874015748031497,
          "duration": 3.223679375000046
        },
        {
          "name": "D4",
          "midi": 62,
          "time": 167.36816999999849,
          "velocity": 0.7874015748031497,
          "duration": 0.06578937500000848
        },
        {
          "name": "F#4",
          "midi": 66,
          "time": 167.36816999999849,
          "velocity": 0.7874015748031497,
          "duration": 0.06578937500000848
        },
        {
          "name": "D5",
          "midi": 74,
          "time": 167.36816999999849,
          "velocity": 0.7874015748031497,
          "duration": 0.06578937500000848
        },
        {
          "name": "F#5",
          "midi": 78,
          "time": 167.36816999999849,
          "velocity": 0.7874015748031497,
          "duration": 0.06578937500000848
        },
        {
          "name": "D#6",
          "midi": 87,
          "time": 167.36816999999849,
          "velocity": 0.7874015748031497,
          "duration": 0.06578937500000848
        },
        {
          "name": "F6",
          "midi": 89,
          "time": 167.36816999999849,
          "velocity": 0.7874015748031497,
          "duration": 0.06578937500000848
        },
        {
          "name": "D#7",
          "midi": 99,
          "time": 167.36816999999849,
          "velocity": 0.7874015748031497,
          "duration": 0.06578937500000848
        },
        {
          "name": "F7",
          "midi": 101,
          "time": 167.36816999999849,
          "velocity": 0.7874015748031497,
          "duration": 0.06578937500000848
        },
        {
          "name": "C#4",
          "midi": 61,
          "time": 167.6313274999985,
          "velocity": 0.7874015748031497,
          "duration": 0.06578937500000848
        },
        {
          "name": "F#4",
          "midi": 66,
          "time": 167.6313274999985,
          "velocity": 0.7874015748031497,
          "duration": 0.06578937500000848
        },
        {
          "name": "C#5",
          "midi": 73,
          "time": 167.6313274999985,
          "velocity": 0.7874015748031497,
          "duration": 0.06578937500000848
        },
        {
          "name": "F#5",
          "midi": 78,
          "time": 167.6313274999985,
          "velocity": 0.7874015748031497,
          "duration": 0.06578937500000848
        },
        {
          "name": "D6",
          "midi": 86,
          "time": 167.6313274999985,
          "velocity": 0.7874015748031497,
          "duration": 0.06578937500000848
        },
        {
          "name": "F#6",
          "midi": 90,
          "time": 167.6313274999985,
          "velocity": 0.7874015748031497,
          "duration": 0.06578937500000848
        },
        {
          "name": "D7",
          "midi": 98,
          "time": 167.6313274999985,
          "velocity": 0.7874015748031497,
          "duration": 0.06578937500000848
        },
        {
          "name": "F#7",
          "midi": 102,
          "time": 167.6313274999985,
          "velocity": 0.7874015748031497,
          "duration": 0.06578937500000848
        },
        {
          "name": "C4",
          "midi": 60,
          "time": 167.8944849999985,
          "velocity": 0.7874015748031497,
          "duration": 0.06578937500000848
        },
        {
          "name": "F#4",
          "midi": 66,
          "time": 167.8944849999985,
          "velocity": 0.7874015748031497,
          "duration": 0.06578937500000848
        },
        {
          "name": "C5",
          "midi": 72,
          "time": 167.8944849999985,
          "velocity": 0.7874015748031497,
          "duration": 0.06578937500000848
        },
        {
          "name": "F#5",
          "midi": 78,
          "time": 167.8944849999985,
          "velocity": 0.7874015748031497,
          "duration": 0.06578937500000848
        },
        {
          "name": "C#6",
          "midi": 85,
          "time": 167.8944849999985,
          "velocity": 0.7874015748031497,
          "duration": 0.06578937500000848
        },
        {
          "name": "F#6",
          "midi": 90,
          "time": 167.8944849999985,
          "velocity": 0.7874015748031497,
          "duration": 0.06578937500000848
        },
        {
          "name": "C#7",
          "midi": 97,
          "time": 167.8944849999985,
          "velocity": 0.7874015748031497,
          "duration": 0.06578937500000848
        },
        {
          "name": "F#7",
          "midi": 102,
          "time": 167.8944849999985,
          "velocity": 0.7874015748031497,
          "duration": 0.06578937500000848
        },
        {
          "name": "C#4",
          "midi": 61,
          "time": 168.15873898958185,
          "velocity": 0.7874015748031497,
          "duration": 0.06469288541666174
        },
        {
          "name": "F#4",
          "midi": 66,
          "time": 168.15873898958185,
          "velocity": 0.7874015748031497,
          "duration": 0.06469288541666174
        },
        {
          "name": "C#5",
          "midi": 73,
          "time": 168.15873898958185,
          "velocity": 0.7874015748031497,
          "duration": 0.06469288541666174
        },
        {
          "name": "F#5",
          "midi": 78,
          "time": 168.15873898958185,
          "velocity": 0.7874015748031497,
          "duration": 0.06469288541666174
        },
        {
          "name": "D6",
          "midi": 86,
          "time": 168.15873898958185,
          "velocity": 0.7874015748031497,
          "duration": 0.06469288541666174
        },
        {
          "name": "F#6",
          "midi": 90,
          "time": 168.15873898958185,
          "velocity": 0.7874015748031497,
          "duration": 0.06469288541666174
        },
        {
          "name": "D7",
          "midi": 98,
          "time": 168.15873898958185,
          "velocity": 0.7874015748031497,
          "duration": 0.06469288541666174
        },
        {
          "name": "F#7",
          "midi": 102,
          "time": 168.15873898958185,
          "velocity": 0.7874015748031497,
          "duration": 0.06469288541666174
        },
        {
          "name": "C5",
          "midi": 72,
          "time": 168.4207999999985,
          "velocity": 0.7874015748031497,
          "duration": 0.06578937500000848
        },
        {
          "name": "F#5",
          "midi": 78,
          "time": 168.4207999999985,
          "velocity": 0.7874015748031497,
          "duration": 0.06578937500000848
        },
        {
          "name": "C6",
          "midi": 84,
          "time": 168.4207999999985,
          "velocity": 0.7874015748031497,
          "duration": 0.06578937500000848
        },
        {
          "name": "F#6",
          "midi": 90,
          "time": 168.4207999999985,
          "velocity": 0.7874015748031497,
          "duration": 0.06578937500000848
        },
        {
          "name": "C#7",
          "midi": 97,
          "time": 168.4207999999985,
          "velocity": 0.7874015748031497,
          "duration": 0.06578937500000848
        },
        {
          "name": "F#7",
          "midi": 102,
          "time": 168.4207999999985,
          "velocity": 0.7874015748031497,
          "duration": 0.06578937500000848
        },
        {
          "name": "C4",
          "midi": 60,
          "time": 168.6839574999985,
          "velocity": 0.7874015748031497,
          "duration": 0.06578937500000848
        },
        {
          "name": "F#4",
          "midi": 66,
          "time": 168.6839574999985,
          "velocity": 0.7874015748031497,
          "duration": 0.06578937500000848
        },
        {
          "name": "C#5",
          "midi": 73,
          "time": 168.6839574999985,
          "velocity": 0.7874015748031497,
          "duration": 0.06578937500000848
        },
        {
          "name": "F#5",
          "midi": 78,
          "time": 168.6839574999985,
          "velocity": 0.7874015748031497,
          "duration": 0.06578937500000848
        },
        {
          "name": "C#6",
          "midi": 85,
          "time": 168.6839574999985,
          "velocity": 0.7874015748031497,
          "duration": 0.06578937500000848
        },
        {
          "name": "F#6",
          "midi": 90,
          "time": 168.6839574999985,
          "velocity": 0.7874015748031497,
          "duration": 0.06578937500000848
        },
        {
          "name": "D7",
          "midi": 98,
          "time": 168.6839574999985,
          "velocity": 0.7874015748031497,
          "duration": 0.06578937500000848
        },
        {
          "name": "F#7",
          "midi": 102,
          "time": 168.6839574999985,
          "velocity": 0.7874015748031497,
          "duration": 0.06578937500000848
        },
        {
          "name": "C#4",
          "midi": 61,
          "time": 168.94711499999852,
          "velocity": 0.7874015748031497,
          "duration": 0.06578937500000848
        },
        {
          "name": "F#4",
          "midi": 66,
          "time": 168.94711499999852,
          "velocity": 0.7874015748031497,
          "duration": 0.06578937500000848
        },
        {
          "name": "D5",
          "midi": 74,
          "time": 168.94711499999852,
          "velocity": 0.7874015748031497,
          "duration": 0.06578937500000848
        },
        {
          "name": "F#5",
          "midi": 78,
          "time": 168.94711499999852,
          "velocity": 0.7874015748031497,
          "duration": 0.06578937500000848
        },
        {
          "name": "D6",
          "midi": 86,
          "time": 168.94711499999852,
          "velocity": 0.7874015748031497,
          "duration": 0.06578937500000848
        },
        {
          "name": "F#6",
          "midi": 90,
          "time": 168.94711499999852,
          "velocity": 0.7874015748031497,
          "duration": 0.06578937500000848
        },
        {
          "name": "D#7",
          "midi": 99,
          "time": 168.94711499999852,
          "velocity": 0.7874015748031497,
          "duration": 0.06578937500000848
        },
        {
          "name": "F#7",
          "midi": 102,
          "time": 168.94711499999852,
          "velocity": 0.7874015748031497,
          "duration": 0.06578937500000848
        },
        {
          "name": "C4",
          "midi": 60,
          "time": 169.21136898958187,
          "velocity": 0.7874015748031497,
          "duration": 0.06469288541666174
        },
        {
          "name": "F#4",
          "midi": 66,
          "time": 169.21136898958187,
          "velocity": 0.7874015748031497,
          "duration": 0.06469288541666174
        },
        {
          "name": "C#5",
          "midi": 73,
          "time": 169.21136898958187,
          "velocity": 0.7874015748031497,
          "duration": 0.06469288541666174
        },
        {
          "name": "F#5",
          "midi": 78,
          "time": 169.21136898958187,
          "velocity": 0.7874015748031497,
          "duration": 0.06469288541666174
        },
        {
          "name": "C#6",
          "midi": 85,
          "time": 169.21136898958187,
          "velocity": 0.7874015748031497,
          "duration": 0.06469288541666174
        },
        {
          "name": "F#6",
          "midi": 90,
          "time": 169.21136898958187,
          "velocity": 0.7874015748031497,
          "duration": 0.06469288541666174
        },
        {
          "name": "D7",
          "midi": 98,
          "time": 169.21136898958187,
          "velocity": 0.7874015748031497,
          "duration": 0.06469288541666174
        },
        {
          "name": "F#7",
          "midi": 102,
          "time": 169.21136898958187,
          "velocity": 0.7874015748031497,
          "duration": 0.06469288541666174
        },
        {
          "name": "D4",
          "midi": 62,
          "time": 169.47342999999853,
          "velocity": 0.7874015748031497,
          "duration": 0.06578937500000848
        },
        {
          "name": "F#4",
          "midi": 66,
          "time": 169.47342999999853,
          "velocity": 0.7874015748031497,
          "duration": 0.06578937500000848
        },
        {
          "name": "D#5",
          "midi": 75,
          "time": 169.47342999999853,
          "velocity": 0.7874015748031497,
          "duration": 0.06578937500000848
        },
        {
          "name": "F#5",
          "midi": 78,
          "time": 169.47342999999853,
          "velocity": 0.7874015748031497,
          "duration": 0.06578937500000848
        },
        {
          "name": "D#6",
          "midi": 87,
          "time": 169.47342999999853,
          "velocity": 0.7874015748031497,
          "duration": 0.06578937500000848
        },
        {
          "name": "F#6",
          "midi": 90,
          "time": 169.47342999999853,
          "velocity": 0.7874015748031497,
          "duration": 0.06578937500000848
        },
        {
          "name": "D#7",
          "midi": 99,
          "time": 169.47342999999853,
          "velocity": 0.7874015748031497,
          "duration": 0.06578937500000848
        },
        {
          "name": "F#7",
          "midi": 102,
          "time": 169.47342999999853,
          "velocity": 0.7874015748031497,
          "duration": 0.06578937500000848
        },
        {
          "name": "E7",
          "midi": 100,
          "time": 169.57211406249854,
          "velocity": 0.7874015748031497,
          "duration": 0.06578937500000848
        },
        {
          "name": "F7",
          "midi": 101,
          "time": 169.57211406249854,
          "velocity": 0.7874015748031497,
          "duration": 0.06578937500000848
        },
        {
          "name": "D5",
          "midi": 74,
          "time": 169.73768398958188,
          "velocity": 0.7874015748031497,
          "duration": 0.06469288541666174
        },
        {
          "name": "F#5",
          "midi": 78,
          "time": 169.73768398958188,
          "velocity": 0.7874015748031497,
          "duration": 0.06469288541666174
        },
        {
          "name": "D6",
          "midi": 86,
          "time": 169.73768398958188,
          "velocity": 0.7874015748031497,
          "duration": 0.06469288541666174
        },
        {
          "name": "F#6",
          "midi": 90,
          "time": 169.73768398958188,
          "velocity": 0.7874015748031497,
          "duration": 0.06469288541666174
        },
        {
          "name": "D#7",
          "midi": 99,
          "time": 169.73768398958188,
          "velocity": 0.7874015748031497,
          "duration": 0.06469288541666174
        },
        {
          "name": "F7",
          "midi": 101,
          "time": 169.73768398958188,
          "velocity": 0.7874015748031497,
          "duration": 0.06469288541666174
        },
        {
          "name": "C4",
          "midi": 60,
          "time": 169.99974499999854,
          "velocity": 0.7874015748031497,
          "duration": 0.06469288541666174
        },
        {
          "name": "F#4",
          "midi": 66,
          "time": 169.99974499999854,
          "velocity": 0.7874015748031497,
          "duration": 0.06469288541666174
        },
        {
          "name": "C#5",
          "midi": 73,
          "time": 169.99974499999854,
          "velocity": 0.7874015748031497,
          "duration": 0.06469288541666174
        },
        {
          "name": "F#5",
          "midi": 78,
          "time": 169.99974499999854,
          "velocity": 0.7874015748031497,
          "duration": 0.06469288541666174
        },
        {
          "name": "C#6",
          "midi": 85,
          "time": 169.99974499999854,
          "velocity": 0.7874015748031497,
          "duration": 0.06469288541666174
        },
        {
          "name": "F#6",
          "midi": 90,
          "time": 169.99974499999854,
          "velocity": 0.7874015748031497,
          "duration": 0.06469288541666174
        },
        {
          "name": "D7",
          "midi": 98,
          "time": 169.99974499999854,
          "velocity": 0.7874015748031497,
          "duration": 0.06469288541666174
        },
        {
          "name": "F#7",
          "midi": 102,
          "time": 169.99974499999854,
          "velocity": 0.7874015748031497,
          "duration": 0.06469288541666174
        },
        {
          "name": "D4",
          "midi": 62,
          "time": 170.26399898958186,
          "velocity": 0.7874015748031497,
          "duration": 0.06469288541666174
        },
        {
          "name": "F#4",
          "midi": 66,
          "time": 170.26399898958186,
          "velocity": 0.7874015748031497,
          "duration": 0.06469288541666174
        },
        {
          "name": "D#5",
          "midi": 75,
          "time": 170.26399898958186,
          "velocity": 0.7874015748031497,
          "duration": 0.06469288541666174
        },
        {
          "name": "F#5",
          "midi": 78,
          "time": 170.26399898958186,
          "velocity": 0.7874015748031497,
          "duration": 0.06469288541666174
        },
        {
          "name": "D#6",
          "midi": 87,
          "time": 170.26399898958186,
          "velocity": 0.7874015748031497,
          "duration": 0.06469288541666174
        },
        {
          "name": "F#6",
          "midi": 90,
          "time": 170.26399898958186,
          "velocity": 0.7874015748031497,
          "duration": 0.06469288541666174
        },
        {
          "name": "E7",
          "midi": 100,
          "time": 170.26399898958186,
          "velocity": 0.7874015748031497,
          "duration": 0.06469288541666174
        },
        {
          "name": "F#7",
          "midi": 102,
          "time": 170.26399898958186,
          "velocity": 0.7874015748031497,
          "duration": 0.06469288541666174
        },
        {
          "name": "C#4",
          "midi": 61,
          "time": 170.52605999999852,
          "velocity": 0.7874015748031497,
          "duration": 0.06578937500000848
        },
        {
          "name": "F#4",
          "midi": 66,
          "time": 170.52605999999852,
          "velocity": 0.7874015748031497,
          "duration": 0.06578937500000848
        },
        {
          "name": "D5",
          "midi": 74,
          "time": 170.52605999999852,
          "velocity": 0.7874015748031497,
          "duration": 0.06578937500000848
        },
        {
          "name": "D#5",
          "midi": 75,
          "time": 170.52605999999852,
          "velocity": 0.7874015748031497,
          "duration": 0.06578937500000848
        },
        {
          "name": "F#5",
          "midi": 78,
          "time": 170.52605999999852,
          "velocity": 0.7874015748031497,
          "duration": 0.06578937500000848
        },
        {
          "name": "D6",
          "midi": 86,
          "time": 170.52605999999852,
          "velocity": 0.7874015748031497,
          "duration": 0.06578937500000848
        },
        {
          "name": "D#6",
          "midi": 87,
          "time": 170.52605999999852,
          "velocity": 0.7874015748031497,
          "duration": 0.06578937500000848
        },
        {
          "name": "F#6",
          "midi": 90,
          "time": 170.52605999999852,
          "velocity": 0.7874015748031497,
          "duration": 0.06578937500000848
        },
        {
          "name": "D#7",
          "midi": 99,
          "time": 170.52605999999852,
          "velocity": 0.7874015748031497,
          "duration": 0.06578937500000848
        },
        {
          "name": "E7",
          "midi": 100,
          "time": 170.52605999999852,
          "velocity": 0.7874015748031497,
          "duration": 0.06578937500000848
        },
        {
          "name": "F#7",
          "midi": 102,
          "time": 170.52605999999852,
          "velocity": 0.7874015748031497,
          "duration": 0.06578937500000848
        },
        {
          "name": "D4",
          "midi": 62,
          "time": 172.10500499999853,
          "velocity": 0.7874015748031497,
          "duration": 0.5252185104166927
        },
        {
          "name": "F#4",
          "midi": 66,
          "time": 172.10500499999853,
          "velocity": 0.7874015748031497,
          "duration": 0.5241220208333459
        },
        {
          "name": "D#5",
          "midi": 75,
          "time": 172.10500499999853,
          "velocity": 0.7874015748031497,
          "duration": 0.5252185104166927
        },
        {
          "name": "F#5",
          "midi": 78,
          "time": 172.10500499999853,
          "velocity": 0.7874015748031497,
          "duration": 0.5241220208333459
        },
        {
          "name": "E6",
          "midi": 88,
          "time": 172.10500499999853,
          "velocity": 0.7874015748031497,
          "duration": 0.5252185104166927
        },
        {
          "name": "F#6",
          "midi": 90,
          "time": 172.10500499999853,
          "velocity": 0.7874015748031497,
          "duration": 0.5241220208333459
        },
        {
          "name": "E7",
          "midi": 100,
          "time": 172.10500499999853,
          "velocity": 0.7874015748031497,
          "duration": 0.06578937500000848
        },
        {
          "name": "F#7",
          "midi": 102,
          "time": 172.10500499999853,
          "velocity": 0.7874015748031497,
          "duration": 0.06578937500000848
        },
        {
          "name": "G7",
          "midi": 103,
          "time": 172.10500499999853,
          "velocity": 0.7874015748031497,
          "duration": 10.985729135417046
        },
        {
          "name": "D#7",
          "midi": 99,
          "time": 172.23768023958186,
          "velocity": 0.7874015748031497,
          "duration": 0.06469288541666174
        },
        {
          "name": "F7",
          "midi": 101,
          "time": 172.23768023958186,
          "velocity": 0.7874015748031497,
          "duration": 0.06469288541666174
        },
        {
          "name": "D7",
          "midi": 98,
          "time": 172.36816249999853,
          "velocity": 0.7874015748031497,
          "duration": 0.06578937500000848
        },
        {
          "name": "F7",
          "midi": 101,
          "time": 172.36816249999853,
          "velocity": 0.7874015748031497,
          "duration": 0.06578937500000848
        },
        {
          "name": "C#7",
          "midi": 97,
          "time": 172.50083773958187,
          "velocity": 0.7874015748031497,
          "duration": 0.06469288541666174
        },
        {
          "name": "F7",
          "midi": 101,
          "time": 172.50083773958187,
          "velocity": 0.7874015748031497,
          "duration": 0.06469288541666174
        },
        {
          "name": "C4",
          "midi": 60,
          "time": 172.63131999999857,
          "velocity": 0.7874015748031497,
          "duration": 0.526315000000011
        },
        {
          "name": "F#4",
          "midi": 66,
          "time": 172.63131999999857,
          "velocity": 0.7874015748031497,
          "duration": 0.526315000000011
        },
        {
          "name": "C5",
          "midi": 72,
          "time": 172.63131999999857,
          "velocity": 0.7874015748031497,
          "duration": 0.526315000000011
        },
        {
          "name": "F#5",
          "midi": 78,
          "time": 172.63131999999857,
          "velocity": 0.7874015748031497,
          "duration": 0.526315000000011
        },
        {
          "name": "C6",
          "midi": 84,
          "time": 172.63131999999857,
          "velocity": 0.7874015748031497,
          "duration": 0.526315000000011
        },
        {
          "name": "F#6",
          "midi": 90,
          "time": 172.63131999999857,
          "velocity": 0.7874015748031497,
          "duration": 0.526315000000011
        },
        {
          "name": "C7",
          "midi": 96,
          "time": 172.63131999999857,
          "velocity": 0.7874015748031497,
          "duration": 0.526315000000011
        },
        {
          "name": "F7",
          "midi": 101,
          "time": 172.63131999999857,
          "velocity": 0.7874015748031497,
          "duration": 0.5252185104166642
        },
        {
          "name": "C#4",
          "midi": 61,
          "time": 173.15763499999858,
          "velocity": 0.7874015748031497,
          "duration": 0.06688586458332679
        },
        {
          "name": "F#4",
          "midi": 66,
          "time": 173.15763499999858,
          "velocity": 0.7874015748031497,
          "duration": 0.06688586458332679
        },
        {
          "name": "C#5",
          "midi": 73,
          "time": 173.15763499999858,
          "velocity": 0.7874015748031497,
          "duration": 0.06688586458332679
        },
        {
          "name": "F#5",
          "midi": 78,
          "time": 173.15763499999858,
          "velocity": 0.7874015748031497,
          "duration": 0.06688586458332679
        },
        {
          "name": "C#6",
          "midi": 85,
          "time": 173.15763499999858,
          "velocity": 0.7874015748031497,
          "duration": 0.06688586458332679
        },
        {
          "name": "F#6",
          "midi": 90,
          "time": 173.15763499999858,
          "velocity": 0.7874015748031497,
          "duration": 0.06688586458332679
        },
        {
          "name": "C#7",
          "midi": 97,
          "time": 173.15763499999858,
          "velocity": 0.7874015748031497,
          "duration": 0.06688586458332679
        },
        {
          "name": "F#7",
          "midi": 102,
          "time": 173.15763499999858,
          "velocity": 0.7874015748031497,
          "duration": 0.06688586458332679
        },
        {
          "name": "C4",
          "midi": 60,
          "time": 173.4218889895819,
          "velocity": 0.7874015748031497,
          "duration": 0.5241220208333459
        },
        {
          "name": "F#4",
          "midi": 66,
          "time": 173.4218889895819,
          "velocity": 0.7874015748031497,
          "duration": 0.5230255312499992
        },
        {
          "name": "C5",
          "midi": 72,
          "time": 173.4218889895819,
          "velocity": 0.7874015748031497,
          "duration": 0.5241220208333459
        },
        {
          "name": "C6",
          "midi": 84,
          "time": 173.4218889895819,
          "velocity": 0.7874015748031497,
          "duration": 0.5241220208333459
        },
        {
          "name": "C7",
          "midi": 96,
          "time": 173.4218889895819,
          "velocity": 0.7874015748031497,
          "duration": 0.5241220208333459
        },
        {
          "name": "C4",
          "midi": 60,
          "time": 173.9471074999986,
          "velocity": 0.7874015748031497,
          "duration": 0.06578937500000848
        },
        {
          "name": "F#4",
          "midi": 66,
          "time": 173.9471074999986,
          "velocity": 0.7874015748031497,
          "duration": 0.06578937500000848
        },
        {
          "name": "C5",
          "midi": 72,
          "time": 173.9471074999986,
          "velocity": 0.7874015748031497,
          "duration": 0.06578937500000848
        },
        {
          "name": "C6",
          "midi": 84,
          "time": 173.9471074999986,
          "velocity": 0.7874015748031497,
          "duration": 0.06578937500000848
        },
        {
          "name": "C7",
          "midi": 96,
          "time": 173.9471074999986,
          "velocity": 0.7874015748031497,
          "duration": 0.06578937500000848
        },
        {
          "name": "D4",
          "midi": 62,
          "time": 174.2102649999986,
          "velocity": 0.7874015748031497,
          "duration": 0.06578937500000848
        },
        {
          "name": "F#4",
          "midi": 66,
          "time": 174.2102649999986,
          "velocity": 0.7874015748031497,
          "duration": 0.06578937500000848
        },
        {
          "name": "D5",
          "midi": 74,
          "time": 174.2102649999986,
          "velocity": 0.7874015748031497,
          "duration": 0.06578937500000848
        },
        {
          "name": "F#5",
          "midi": 78,
          "time": 174.2102649999986,
          "velocity": 0.7874015748031497,
          "duration": 0.06578937500000848
        },
        {
          "name": "D#6",
          "midi": 87,
          "time": 174.2102649999986,
          "velocity": 0.7874015748031497,
          "duration": 0.06578937500000848
        },
        {
          "name": "F#6",
          "midi": 90,
          "time": 174.2102649999986,
          "velocity": 0.7874015748031497,
          "duration": 0.06578937500000848
        },
        {
          "name": "D#7",
          "midi": 99,
          "time": 174.2102649999986,
          "velocity": 0.7874015748031497,
          "duration": 0.06578937500000848
        },
        {
          "name": "F#7",
          "midi": 102,
          "time": 174.2102649999986,
          "velocity": 0.7874015748031497,
          "duration": 0.06578937500000848
        },
        {
          "name": "D#7",
          "midi": 99,
          "time": 174.34184374999862,
          "velocity": 0.7874015748031497,
          "duration": 0.06578937500000848
        },
        {
          "name": "F#7",
          "midi": 102,
          "time": 174.34184374999862,
          "velocity": 0.7874015748031497,
          "duration": 0.06578937500000848
        },
        {
          "name": "C#4",
          "midi": 61,
          "time": 174.47451898958195,
          "velocity": 0.7874015748031497,
          "duration": 0.06469288541666174
        },
        {
          "name": "F#4",
          "midi": 66,
          "time": 174.47451898958195,
          "velocity": 0.7874015748031497,
          "duration": 0.06469288541666174
        },
        {
          "name": "C#5",
          "midi": 73,
          "time": 174.47451898958195,
          "velocity": 0.7874015748031497,
          "duration": 0.06469288541666174
        },
        {
          "name": "F#5",
          "midi": 78,
          "time": 174.47451898958195,
          "velocity": 0.7874015748031497,
          "duration": 0.06469288541666174
        },
        {
          "name": "D6",
          "midi": 86,
          "time": 174.47451898958195,
          "velocity": 0.7874015748031497,
          "duration": 0.06469288541666174
        },
        {
          "name": "F#6",
          "midi": 90,
          "time": 174.47451898958195,
          "velocity": 0.7874015748031497,
          "duration": 0.06469288541666174
        },
        {
          "name": "D7",
          "midi": 98,
          "time": 174.47451898958195,
          "velocity": 0.7874015748031497,
          "duration": 0.06469288541666174
        },
        {
          "name": "F7",
          "midi": 101,
          "time": 174.47451898958195,
          "velocity": 0.7874015748031497,
          "duration": 0.06469288541666174
        },
        {
          "name": "C4",
          "midi": 60,
          "time": 174.7365799999986,
          "velocity": 0.7874015748031497,
          "duration": 0.3936397604166757
        },
        {
          "name": "F#4",
          "midi": 66,
          "time": 174.7365799999986,
          "velocity": 0.7874015748031497,
          "duration": 0.39254327083332896
        },
        {
          "name": "C5",
          "midi": 72,
          "time": 174.7365799999986,
          "velocity": 0.7874015748031497,
          "duration": 0.3936397604166757
        },
        {
          "name": "F#5",
          "midi": 78,
          "time": 174.7365799999986,
          "velocity": 0.7874015748031497,
          "duration": 0.39254327083332896
        },
        {
          "name": "C6",
          "midi": 84,
          "time": 174.7365799999986,
          "velocity": 0.7874015748031497,
          "duration": 0.3936397604166757
        },
        {
          "name": "F#6",
          "midi": 90,
          "time": 174.7365799999986,
          "velocity": 0.7874015748031497,
          "duration": 0.39254327083332896
        },
        {
          "name": "C7",
          "midi": 96,
          "time": 174.7365799999986,
          "velocity": 0.7874015748031497,
          "duration": 0.3936397604166757
        },
        {
          "name": "F#7",
          "midi": 102,
          "time": 174.7365799999986,
          "velocity": 0.7874015748031497,
          "duration": 0.39254327083332896
        },
        {
          "name": "C#4",
          "midi": 61,
          "time": 175.13131624999863,
          "velocity": 0.7874015748031497,
          "duration": 0.06469288541666174
        },
        {
          "name": "F#4",
          "midi": 66,
          "time": 175.13131624999863,
          "velocity": 0.7874015748031497,
          "duration": 0.06469288541666174
        },
        {
          "name": "C#5",
          "midi": 73,
          "time": 175.13131624999863,
          "velocity": 0.7874015748031497,
          "duration": 0.06469288541666174
        },
        {
          "name": "F#5",
          "midi": 78,
          "time": 175.13131624999863,
          "velocity": 0.7874015748031497,
          "duration": 0.06469288541666174
        },
        {
          "name": "C#6",
          "midi": 85,
          "time": 175.13131624999863,
          "velocity": 0.7874015748031497,
          "duration": 0.06469288541666174
        },
        {
          "name": "F#6",
          "midi": 90,
          "time": 175.13131624999863,
          "velocity": 0.7874015748031497,
          "duration": 0.06469288541666174
        },
        {
          "name": "C#7",
          "midi": 97,
          "time": 175.13131624999863,
          "velocity": 0.7874015748031497,
          "duration": 0.3936397604166757
        },
        {
          "name": "F#7",
          "midi": 102,
          "time": 175.13131624999863,
          "velocity": 0.7874015748031497,
          "duration": 0.3936397604166757
        },
        {
          "name": "C4",
          "midi": 60,
          "time": 175.52714898958197,
          "velocity": 0.7874015748031497,
          "duration": 0.06469288541666174
        },
        {
          "name": "F#4",
          "midi": 66,
          "time": 175.52714898958197,
          "velocity": 0.7874015748031497,
          "duration": 0.06469288541666174
        },
        {
          "name": "C5",
          "midi": 72,
          "time": 175.52714898958197,
          "velocity": 0.7874015748031497,
          "duration": 0.06469288541666174
        },
        {
          "name": "C6",
          "midi": 84,
          "time": 175.52714898958197,
          "velocity": 0.7874015748031497,
          "duration": 0.06469288541666174
        },
        {
          "name": "C7",
          "midi": 96,
          "time": 175.52714898958197,
          "velocity": 0.7874015748031497,
          "duration": 0.06469288541666174
        },
        {
          "name": "C4",
          "midi": 60,
          "time": 176.05236749999864,
          "velocity": 0.7874015748031497,
          "duration": 0.06469288541666174
        },
        {
          "name": "F#4",
          "midi": 66,
          "time": 176.05236749999864,
          "velocity": 0.7874015748031497,
          "duration": 0.06469288541666174
        },
        {
          "name": "C5",
          "midi": 72,
          "time": 176.05236749999864,
          "velocity": 0.7874015748031497,
          "duration": 0.06469288541666174
        },
        {
          "name": "C6",
          "midi": 84,
          "time": 176.05236749999864,
          "velocity": 0.7874015748031497,
          "duration": 0.06469288541666174
        },
        {
          "name": "C7",
          "midi": 96,
          "time": 176.05236749999864,
          "velocity": 0.7874015748031497,
          "duration": 0.06469288541666174
        },
        {
          "name": "D4",
          "midi": 62,
          "time": 176.31552499999864,
          "velocity": 0.7874015748031497,
          "duration": 0.06578937500000848
        },
        {
          "name": "F#4",
          "midi": 66,
          "time": 176.31552499999864,
          "velocity": 0.7874015748031497,
          "duration": 0.06578937500000848
        },
        {
          "name": "D5",
          "midi": 74,
          "time": 176.31552499999864,
          "velocity": 0.7874015748031497,
          "duration": 0.06578937500000848
        },
        {
          "name": "F#5",
          "midi": 78,
          "time": 176.31552499999864,
          "velocity": 0.7874015748031497,
          "duration": 0.06578937500000848
        },
        {
          "name": "D#6",
          "midi": 87,
          "time": 176.31552499999864,
          "velocity": 0.7874015748031497,
          "duration": 0.06578937500000848
        },
        {
          "name": "F#6",
          "midi": 90,
          "time": 176.31552499999864,
          "velocity": 0.7874015748031497,
          "duration": 0.06578937500000848
        },
        {
          "name": "D#7",
          "midi": 99,
          "time": 176.31552499999864,
          "velocity": 0.7874015748031497,
          "duration": 0.06578937500000848
        },
        {
          "name": "F#7",
          "midi": 102,
          "time": 176.31552499999864,
          "velocity": 0.7874015748031497,
          "duration": 0.06578937500000848
        },
        {
          "name": "D#7",
          "midi": 99,
          "time": 176.44710374999866,
          "velocity": 0.7874015748031497,
          "duration": 0.06578937500000848
        },
        {
          "name": "F#7",
          "midi": 102,
          "time": 176.44710374999866,
          "velocity": 0.7874015748031497,
          "duration": 0.06578937500000848
        },
        {
          "name": "C#4",
          "midi": 61,
          "time": 176.57868249999868,
          "velocity": 0.7874015748031497,
          "duration": 0.06578937500000848
        },
        {
          "name": "F#4",
          "midi": 66,
          "time": 176.57868249999868,
          "velocity": 0.7874015748031497,
          "duration": 0.06578937500000848
        },
        {
          "name": "C#5",
          "midi": 73,
          "time": 176.57868249999868,
          "velocity": 0.7874015748031497,
          "duration": 0.06578937500000848
        },
        {
          "name": "F#5",
          "midi": 78,
          "time": 176.57868249999868,
          "velocity": 0.7874015748031497,
          "duration": 0.06578937500000848
        },
        {
          "name": "D6",
          "midi": 86,
          "time": 176.57868249999868,
          "velocity": 0.7874015748031497,
          "duration": 0.06578937500000848
        },
        {
          "name": "F#6",
          "midi": 90,
          "time": 176.57868249999868,
          "velocity": 0.7874015748031497,
          "duration": 0.06578937500000848
        },
        {
          "name": "D7",
          "midi": 98,
          "time": 176.57868249999868,
          "velocity": 0.7874015748031497,
          "duration": 0.06578937500000848
        },
        {
          "name": "F7",
          "midi": 101,
          "time": 176.57868249999868,
          "velocity": 0.7874015748031497,
          "duration": 0.06578937500000848
        },
        {
          "name": "C4",
          "midi": 60,
          "time": 176.84183999999868,
          "velocity": 0.7874015748031497,
          "duration": 0.06578937500000848
        },
        {
          "name": "F#4",
          "midi": 66,
          "time": 176.84183999999868,
          "velocity": 0.7874015748031497,
          "duration": 0.06578937500000848
        },
        {
          "name": "C#5",
          "midi": 73,
          "time": 176.84183999999868,
          "velocity": 0.7874015748031497,
          "duration": 0.3936397604167041
        },
        {
          "name": "F#5",
          "midi": 78,
          "time": 176.84183999999868,
          "velocity": 0.7874015748031497,
          "duration": 0.3925432708333574
        },
        {
          "name": "C#6",
          "midi": 85,
          "time": 176.84183999999868,
          "velocity": 0.7874015748031497,
          "duration": 0.3936397604167041
        },
        {
          "name": "F#6",
          "midi": 90,
          "time": 176.84183999999868,
          "velocity": 0.7874015748031497,
          "duration": 0.3925432708333574
        },
        {
          "name": "C7",
          "midi": 96,
          "time": 176.84183999999868,
          "velocity": 0.7874015748031497,
          "duration": 0.06578937500000848
        },
        {
          "name": "F#7",
          "midi": 102,
          "time": 176.84183999999868,
          "velocity": 0.7874015748031497,
          "duration": 0.06578937500000848
        },
        {
          "name": "C#7",
          "midi": 97,
          "time": 176.9405240624987,
          "velocity": 0.7874015748031497,
          "duration": 0.06578937500000848
        },
        {
          "name": "F7",
          "midi": 101,
          "time": 176.9405240624987,
          "velocity": 0.7874015748031497,
          "duration": 0.06578937500000848
        },
        {
          "name": "C#4",
          "midi": 61,
          "time": 177.23657624999873,
          "velocity": 0.7874015748031497,
          "duration": 0.06578937500000848
        },
        {
          "name": "F#4",
          "midi": 66,
          "time": 177.23657624999873,
          "velocity": 0.7874015748031497,
          "duration": 0.06578937500000848
        },
        {
          "name": "D5",
          "midi": 74,
          "time": 177.23657624999873,
          "velocity": 0.7874015748031497,
          "duration": 0.3278503854166672
        },
        {
          "name": "F#5",
          "midi": 78,
          "time": 177.23657624999873,
          "velocity": 0.7874015748031497,
          "duration": 0.3278503854166672
        },
        {
          "name": "D6",
          "midi": 86,
          "time": 177.23657624999873,
          "velocity": 0.7874015748031497,
          "duration": 0.3278503854166672
        },
        {
          "name": "F#6",
          "midi": 90,
          "time": 177.23657624999873,
          "velocity": 0.7874015748031497,
          "duration": 0.3278503854166672
        },
        {
          "name": "D7",
          "midi": 98,
          "time": 177.23657624999873,
          "velocity": 0.7874015748031497,
          "duration": 0.3278503854166672
        },
        {
          "name": "F#7",
          "midi": 102,
          "time": 177.23657624999873,
          "velocity": 0.7874015748031497,
          "duration": 0.3278503854166672
        },
        {
          "name": "D4",
          "midi": 62,
          "time": 177.56661961458207,
          "velocity": 0.7874015748031497,
          "duration": 0.06469288541666174
        },
        {
          "name": "F#4",
          "midi": 66,
          "time": 177.56661961458207,
          "velocity": 0.7874015748031497,
          "duration": 0.06469288541666174
        },
        {
          "name": "D#5",
          "midi": 75,
          "time": 177.56661961458207,
          "velocity": 0.7874015748031497,
          "duration": 0.45833264583333744
        },
        {
          "name": "F#5",
          "midi": 78,
          "time": 177.56661961458207,
          "velocity": 0.7874015748031497,
          "duration": 0.4572361562499907
        },
        {
          "name": "D#6",
          "midi": 87,
          "time": 177.56661961458207,
          "velocity": 0.7874015748031497,
          "duration": 0.45833264583333744
        },
        {
          "name": "F#6",
          "midi": 90,
          "time": 177.56661961458207,
          "velocity": 0.7874015748031497,
          "duration": 0.4572361562499907
        },
        {
          "name": "D#7",
          "midi": 99,
          "time": 177.56661961458207,
          "velocity": 0.7874015748031497,
          "duration": 0.06469288541666174
        },
        {
          "name": "F#7",
          "midi": 102,
          "time": 177.56661961458207,
          "velocity": 0.7874015748031497,
          "duration": 0.06469288541666174
        },
        {
          "name": "E7",
          "midi": 100,
          "time": 177.66420718749873,
          "velocity": 0.7874015748031497,
          "duration": 0.36074507291667146
        },
        {
          "name": "F7",
          "midi": 101,
          "time": 177.66420718749873,
          "velocity": 0.7874015748031497,
          "duration": 0.36074507291667146
        },
        {
          "name": "C#4",
          "midi": 61,
          "time": 178.02604874999875,
          "velocity": 0.7874015748031497,
          "duration": 0.06469288541666174
        },
        {
          "name": "F#4",
          "midi": 66,
          "time": 178.02604874999875,
          "velocity": 0.7874015748031497,
          "duration": 0.06469288541666174
        },
        {
          "name": "D5",
          "midi": 74,
          "time": 178.02604874999875,
          "velocity": 0.7874015748031497,
          "duration": 0.394736249999994
        },
        {
          "name": "F#5",
          "midi": 78,
          "time": 178.02604874999875,
          "velocity": 0.7874015748031497,
          "duration": 0.394736249999994
        },
        {
          "name": "D6",
          "midi": 86,
          "time": 178.02604874999875,
          "velocity": 0.7874015748031497,
          "duration": 0.394736249999994
        },
        {
          "name": "F#6",
          "midi": 90,
          "time": 178.02604874999875,
          "velocity": 0.7874015748031497,
          "duration": 0.394736249999994
        },
        {
          "name": "D#7",
          "midi": 99,
          "time": 178.02604874999875,
          "velocity": 0.7874015748031497,
          "duration": 0.394736249999994
        },
        {
          "name": "F#7",
          "midi": 102,
          "time": 178.02604874999875,
          "velocity": 0.7874015748031497,
          "duration": 0.394736249999994
        },
        {
          "name": "C4",
          "midi": 60,
          "time": 178.42078499999874,
          "velocity": 0.7874015748031497,
          "duration": 0.06359639583334342
        },
        {
          "name": "F#4",
          "midi": 66,
          "time": 178.42078499999874,
          "velocity": 0.7874015748031497,
          "duration": 0.06359639583334342
        },
        {
          "name": "C#5",
          "midi": 73,
          "time": 178.42078499999874,
          "velocity": 0.7874015748031497,
          "duration": 0.06359639583334342
        },
        {
          "name": "F#5",
          "midi": 78,
          "time": 178.42078499999874,
          "velocity": 0.7874015748031497,
          "duration": 0.06359639583334342
        },
        {
          "name": "C#6",
          "midi": 85,
          "time": 178.42078499999874,
          "velocity": 0.7874015748031497,
          "duration": 0.06359639583334342
        },
        {
          "name": "F#6",
          "midi": 90,
          "time": 178.42078499999874,
          "velocity": 0.7874015748031497,
          "duration": 0.06359639583334342
        },
        {
          "name": "D7",
          "midi": 98,
          "time": 178.42078499999874,
          "velocity": 0.7874015748031497,
          "duration": 0.06359639583334342
        },
        {
          "name": "F#7",
          "midi": 102,
          "time": 178.42078499999874,
          "velocity": 0.7874015748031497,
          "duration": 0.06359639583334342
        },
        {
          "name": "D4",
          "midi": 62,
          "time": 178.67188111458208,
          "velocity": 0.7874015748031497,
          "duration": 0.06907884374999185
        },
        {
          "name": "F#4",
          "midi": 66,
          "time": 178.67188111458208,
          "velocity": 0.7874015748031497,
          "duration": 0.06907884374999185
        },
        {
          "name": "D#5",
          "midi": 75,
          "time": 178.67188111458208,
          "velocity": 0.7874015748031497,
          "duration": 0.06907884374999185
        },
        {
          "name": "F#5",
          "midi": 78,
          "time": 178.67188111458208,
          "velocity": 0.7874015748031497,
          "duration": 0.06907884374999185
        },
        {
          "name": "D#6",
          "midi": 87,
          "time": 178.67188111458208,
          "velocity": 0.7874015748031497,
          "duration": 0.06907884374999185
        },
        {
          "name": "F#6",
          "midi": 90,
          "time": 178.67188111458208,
          "velocity": 0.7874015748031497,
          "duration": 0.06907884374999185
        },
        {
          "name": "E7",
          "midi": 100,
          "time": 178.67188111458208,
          "velocity": 0.7874015748031497,
          "duration": 0.06907884374999185
        },
        {
          "name": "F#7",
          "midi": 102,
          "time": 178.67188111458208,
          "velocity": 0.7874015748031497,
          "duration": 0.06907884374999185
        },
        {
          "name": "C4",
          "midi": 60,
          "time": 178.94709999999873,
          "velocity": 0.7874015748031497,
          "duration": 0.06469288541666174
        },
        {
          "name": "F#4",
          "midi": 66,
          "time": 178.94709999999873,
          "velocity": 0.7874015748031497,
          "duration": 0.06469288541666174
        },
        {
          "name": "C5",
          "midi": 72,
          "time": 178.94709999999873,
          "velocity": 0.7874015748031497,
          "duration": 0.06469288541666174
        },
        {
          "name": "F#5",
          "midi": 78,
          "time": 178.94709999999873,
          "velocity": 0.7874015748031497,
          "duration": 0.06469288541666174
        },
        {
          "name": "C6",
          "midi": 84,
          "time": 178.94709999999873,
          "velocity": 0.7874015748031497,
          "duration": 0.06469288541666174
        },
        {
          "name": "F#6",
          "midi": 90,
          "time": 178.94709999999873,
          "velocity": 0.7874015748031497,
          "duration": 0.06469288541666174
        },
        {
          "name": "C7",
          "midi": 96,
          "time": 178.94709999999873,
          "velocity": 0.7874015748031497,
          "duration": 0.06469288541666174
        },
        {
          "name": "F#7",
          "midi": 102,
          "time": 178.94709999999873,
          "velocity": 0.7874015748031497,
          "duration": 0.06469288541666174
        },
        {
          "name": "C#6",
          "midi": 85,
          "time": 179.0775822604154,
          "velocity": 0.7874015748031497,
          "duration": 0.06469288541666174
        },
        {
          "name": "F6",
          "midi": 89,
          "time": 179.0775822604154,
          "velocity": 0.7874015748031497,
          "duration": 0.06469288541666174
        },
        {
          "name": "C#7",
          "midi": 97,
          "time": 179.0775822604154,
          "velocity": 0.7874015748031497,
          "duration": 0.06469288541666174
        },
        {
          "name": "F7",
          "midi": 101,
          "time": 179.0775822604154,
          "velocity": 0.7874015748031497,
          "duration": 0.06469288541666174
        },
        {
          "name": "C#4",
          "midi": 61,
          "time": 179.2091610104154,
          "velocity": 0.7874015748031497,
          "duration": 0.06469288541666174
        },
        {
          "name": "F4",
          "midi": 65,
          "time": 179.2091610104154,
          "velocity": 0.7874015748031497,
          "duration": 0.06469288541666174
        },
        {
          "name": "C#5",
          "midi": 73,
          "time": 179.2091610104154,
          "velocity": 0.7874015748031497,
          "duration": 0.06469288541666174
        },
        {
          "name": "F5",
          "midi": 77,
          "time": 179.2091610104154,
          "velocity": 0.7874015748031497,
          "duration": 0.06469288541666174
        },
        {
          "name": "D6",
          "midi": 86,
          "time": 179.2091610104154,
          "velocity": 0.7874015748031497,
          "duration": 0.06469288541666174
        },
        {
          "name": "F6",
          "midi": 89,
          "time": 179.2091610104154,
          "velocity": 0.7874015748031497,
          "duration": 0.06469288541666174
        },
        {
          "name": "D7",
          "midi": 98,
          "time": 179.2091610104154,
          "velocity": 0.7874015748031497,
          "duration": 0.06469288541666174
        },
        {
          "name": "F7",
          "midi": 101,
          "time": 179.2091610104154,
          "velocity": 0.7874015748031497,
          "duration": 0.06469288541666174
        },
        {
          "name": "D#7",
          "midi": 99,
          "time": 179.34183624999872,
          "velocity": 0.7874015748031497,
          "duration": 0.06469288541666174
        },
        {
          "name": "F7",
          "midi": 101,
          "time": 179.34183624999872,
          "velocity": 0.7874015748031497,
          "duration": 0.06469288541666174
        },
        {
          "name": "D4",
          "midi": 62,
          "time": 179.4734149999987,
          "velocity": 0.7874015748031497,
          "duration": 0.06469288541666174
        },
        {
          "name": "F4",
          "midi": 65,
          "time": 179.4734149999987,
          "velocity": 0.7874015748031497,
          "duration": 0.06469288541666174
        },
        {
          "name": "D5",
          "midi": 74,
          "time": 179.4734149999987,
          "velocity": 0.7874015748031497,
          "duration": 0.06469288541666174
        },
        {
          "name": "F5",
          "midi": 77,
          "time": 179.4734149999987,
          "velocity": 0.7874015748031497,
          "duration": 0.06469288541666174
        },
        {
          "name": "C#6",
          "midi": 85,
          "time": 179.4734149999987,
          "velocity": 0.7874015748031497,
          "duration": 0.06469288541666174
        },
        {
          "name": "F6",
          "midi": 89,
          "time": 179.4734149999987,
          "velocity": 0.7874015748031497,
          "duration": 0.06469288541666174
        },
        {
          "name": "C#7",
          "midi": 97,
          "time": 179.4734149999987,
          "velocity": 0.7874015748031497,
          "duration": 0.06469288541666174
        },
        {
          "name": "F7",
          "midi": 101,
          "time": 179.4734149999987,
          "velocity": 0.7874015748031497,
          "duration": 0.06469288541666174
        },
        {
          "name": "D6",
          "midi": 86,
          "time": 179.6049937499987,
          "velocity": 0.7874015748031497,
          "duration": 0.06469288541666174
        },
        {
          "name": "F6",
          "midi": 89,
          "time": 179.6049937499987,
          "velocity": 0.7874015748031497,
          "duration": 0.06469288541666174
        },
        {
          "name": "D7",
          "midi": 98,
          "time": 179.6049937499987,
          "velocity": 0.7874015748031497,
          "duration": 0.06469288541666174
        },
        {
          "name": "F7",
          "midi": 101,
          "time": 179.6049937499987,
          "velocity": 0.7874015748031497,
          "duration": 0.06469288541666174
        },
        {
          "name": "C#4",
          "midi": 61,
          "time": 179.73766898958203,
          "velocity": 0.7874015748031497,
          "duration": 0.06469288541666174
        },
        {
          "name": "F4",
          "midi": 65,
          "time": 179.73766898958203,
          "velocity": 0.7874015748031497,
          "duration": 0.06469288541666174
        },
        {
          "name": "D#5",
          "midi": 75,
          "time": 179.73766898958203,
          "velocity": 0.7874015748031497,
          "duration": 0.06469288541666174
        },
        {
          "name": "F5",
          "midi": 77,
          "time": 179.73766898958203,
          "velocity": 0.7874015748031497,
          "duration": 0.06469288541666174
        },
        {
          "name": "D#6",
          "midi": 87,
          "time": 179.73766898958203,
          "velocity": 0.7874015748031497,
          "duration": 0.06469288541666174
        },
        {
          "name": "F6",
          "midi": 89,
          "time": 179.73766898958203,
          "velocity": 0.7874015748031497,
          "duration": 0.06469288541666174
        },
        {
          "name": "D#7",
          "midi": 99,
          "time": 179.73766898958203,
          "velocity": 0.7874015748031497,
          "duration": 0.06469288541666174
        },
        {
          "name": "F7",
          "midi": 101,
          "time": 179.73766898958203,
          "velocity": 0.7874015748031497,
          "duration": 0.06469288541666174
        },
        {
          "name": "E7",
          "midi": 100,
          "time": 179.8681512499987,
          "velocity": 0.7874015748031497,
          "duration": 0.06469288541666174
        },
        {
          "name": "F7",
          "midi": 101,
          "time": 179.8681512499987,
          "velocity": 0.7874015748031497,
          "duration": 0.06469288541666174
        },
        {
          "name": "D4",
          "midi": 62,
          "time": 179.9997299999987,
          "velocity": 0.7874015748031497,
          "duration": 0.394736249999994
        },
        {
          "name": "F4",
          "midi": 65,
          "time": 179.9997299999987,
          "velocity": 0.7874015748031497,
          "duration": 0.394736249999994
        },
        {
          "name": "D#5",
          "midi": 75,
          "time": 179.9997299999987,
          "velocity": 0.7874015748031497,
          "duration": 0.394736249999994
        },
        {
          "name": "F#5",
          "midi": 78,
          "time": 179.9997299999987,
          "velocity": 0.7874015748031497,
          "duration": 0.3936397604166473
        },
        {
          "name": "D6",
          "midi": 86,
          "time": 179.9997299999987,
          "velocity": 0.7874015748031497,
          "duration": 0.394736249999994
        },
        {
          "name": "F6",
          "midi": 89,
          "time": 179.9997299999987,
          "velocity": 0.7874015748031497,
          "duration": 0.394736249999994
        },
        {
          "name": "D7",
          "midi": 98,
          "time": 179.9997299999987,
          "velocity": 0.7874015748031497,
          "duration": 0.06469288541666174
        },
        {
          "name": "F7",
          "midi": 101,
          "time": 179.9997299999987,
          "velocity": 0.7874015748031497,
          "duration": 0.06469288541666174
        },
        {
          "name": "D#7",
          "midi": 99,
          "time": 180.09841406249868,
          "velocity": 0.7874015748031497,
          "duration": 0.2960521875000097
        },
        {
          "name": "F7",
          "midi": 101,
          "time": 180.09841406249868,
          "velocity": 0.7874015748031497,
          "duration": 0.2960521875000097
        },
        {
          "name": "D5",
          "midi": 74,
          "time": 180.39556273958203,
          "velocity": 0.7874015748031497,
          "duration": 0.06469288541666174
        },
        {
          "name": "F#5",
          "midi": 78,
          "time": 180.39556273958203,
          "velocity": 0.7874015748031497,
          "duration": 0.06469288541666174
        },
        {
          "name": "C#6",
          "midi": 85,
          "time": 180.39556273958203,
          "velocity": 0.7874015748031497,
          "duration": 0.06469288541666174
        },
        {
          "name": "F#6",
          "midi": 90,
          "time": 180.39556273958203,
          "velocity": 0.7874015748031497,
          "duration": 0.06469288541666174
        },
        {
          "name": "D7",
          "midi": 98,
          "time": 180.39556273958203,
          "velocity": 0.7874015748031497,
          "duration": 0.06469288541666174
        },
        {
          "name": "F#7",
          "midi": 102,
          "time": 180.39556273958203,
          "velocity": 0.7874015748031497,
          "duration": 0.06469288541666174
        },
        {
          "name": "C#4",
          "midi": 61,
          "time": 180.5260449999987,
          "velocity": 0.7874015748031497,
          "duration": 0.06578937500000848
        },
        {
          "name": "F#4",
          "midi": 66,
          "time": 180.5260449999987,
          "velocity": 0.7874015748031497,
          "duration": 0.06578937500000848
        },
        {
          "name": "C#5",
          "midi": 73,
          "time": 180.5260449999987,
          "velocity": 0.7874015748031497,
          "duration": 0.06578937500000848
        },
        {
          "name": "F5",
          "midi": 77,
          "time": 180.5260449999987,
          "velocity": 0.7874015748031497,
          "duration": 0.06578937500000848
        },
        {
          "name": "C6",
          "midi": 84,
          "time": 180.5260449999987,
          "velocity": 0.7874015748031497,
          "duration": 0.06578937500000848
        },
        {
          "name": "F6",
          "midi": 89,
          "time": 180.5260449999987,
          "velocity": 0.7874015748031497,
          "duration": 0.06578937500000848
        },
        {
          "name": "C#7",
          "midi": 97,
          "time": 180.5260449999987,
          "velocity": 0.7874015748031497,
          "duration": 0.06578937500000848
        },
        {
          "name": "F7",
          "midi": 101,
          "time": 180.5260449999987,
          "velocity": 0.7874015748031497,
          "duration": 0.06578937500000848
        },
        {
          "name": "D#7",
          "midi": 99,
          "time": 180.7563078124987,
          "velocity": 0.7874015748031497,
          "duration": 0.06469288541666174
        },
        {
          "name": "F#7",
          "midi": 102,
          "time": 180.7563078124987,
          "velocity": 0.7874015748031497,
          "duration": 0.06469288541666174
        },
        {
          "name": "D4",
          "midi": 62,
          "time": 180.7892024999987,
          "velocity": 0.7874015748031497,
          "duration": 0.06469288541666174
        },
        {
          "name": "F#4",
          "midi": 66,
          "time": 180.7892024999987,
          "velocity": 0.7874015748031497,
          "duration": 0.06469288541666174
        },
        {
          "name": "D#5",
          "midi": 75,
          "time": 180.7892024999987,
          "velocity": 0.7874015748031497,
          "duration": 0.06469288541666174
        },
        {
          "name": "F#5",
          "midi": 78,
          "time": 180.7892024999987,
          "velocity": 0.7874015748031497,
          "duration": 0.06469288541666174
        },
        {
          "name": "E6",
          "midi": 88,
          "time": 180.7892024999987,
          "velocity": 0.7874015748031497,
          "duration": 0.06469288541666174
        },
        {
          "name": "F#6",
          "midi": 90,
          "time": 180.7892024999987,
          "velocity": 0.7874015748031497,
          "duration": 0.06469288541666174
        },
        {
          "name": "E7",
          "midi": 100,
          "time": 180.85499187499872,
          "velocity": 0.7874015748031497,
          "duration": 0.06469288541666174
        },
        {
          "name": "F7",
          "midi": 101,
          "time": 180.85499187499872,
          "velocity": 0.7874015748031497,
          "duration": 0.06469288541666174
        },
        {
          "name": "C#4",
          "midi": 61,
          "time": 181.0523599999987,
          "velocity": 0.7874015748031497,
          "duration": 0.06578937500000848
        },
        {
          "name": "F4",
          "midi": 65,
          "time": 181.0523599999987,
          "velocity": 0.7874015748031497,
          "duration": 0.06578937500000848
        },
        {
          "name": "D5",
          "midi": 74,
          "time": 181.0523599999987,
          "velocity": 0.7874015748031497,
          "duration": 0.06578937500000848
        },
        {
          "name": "F5",
          "midi": 77,
          "time": 181.0523599999987,
          "velocity": 0.7874015748031497,
          "duration": 0.06578937500000848
        },
        {
          "name": "D#6",
          "midi": 87,
          "time": 181.0523599999987,
          "velocity": 0.7874015748031497,
          "duration": 0.06578937500000848
        },
        {
          "name": "F6",
          "midi": 89,
          "time": 181.0523599999987,
          "velocity": 0.7874015748031497,
          "duration": 0.06578937500000848
        },
        {
          "name": "D#7",
          "midi": 99,
          "time": 181.0523599999987,
          "velocity": 0.7874015748031497,
          "duration": 0.06578937500000848
        },
        {
          "name": "F7",
          "midi": 101,
          "time": 181.0523599999987,
          "velocity": 0.7874015748031497,
          "duration": 0.06578937500000848
        },
        {
          "name": "C#5",
          "midi": 73,
          "time": 181.3144210104154,
          "velocity": 0.7874015748031497,
          "duration": 0.06578937500000848
        },
        {
          "name": "F5",
          "midi": 77,
          "time": 181.3144210104154,
          "velocity": 0.7874015748031497,
          "duration": 0.06578937500000848
        },
        {
          "name": "D6",
          "midi": 86,
          "time": 181.3144210104154,
          "velocity": 0.7874015748031497,
          "duration": 0.06578937500000848
        },
        {
          "name": "F6",
          "midi": 89,
          "time": 181.3144210104154,
          "velocity": 0.7874015748031497,
          "duration": 0.06578937500000848
        },
        {
          "name": "D7",
          "midi": 98,
          "time": 181.3144210104154,
          "velocity": 0.7874015748031497,
          "duration": 0.06578937500000848
        },
        {
          "name": "F#7",
          "midi": 102,
          "time": 181.3144210104154,
          "velocity": 0.7874015748031497,
          "duration": 0.06578937500000848
        },
        {
          "name": "C#4",
          "midi": 61,
          "time": 181.57867499999875,
          "velocity": 0.7874015748031497,
          "duration": 0.06578937500000848
        },
        {
          "name": "F#4",
          "midi": 66,
          "time": 181.57867499999875,
          "velocity": 0.7874015748031497,
          "duration": 0.06578937500000848
        },
        {
          "name": "C#5",
          "midi": 73,
          "time": 181.57867499999875,
          "velocity": 0.7874015748031497,
          "duration": 0.06578937500000848
        },
        {
          "name": "F#5",
          "midi": 78,
          "time": 181.57867499999875,
          "velocity": 0.7874015748031497,
          "duration": 0.06578937500000848
        },
        {
          "name": "C#6",
          "midi": 85,
          "time": 181.57867499999875,
          "velocity": 0.7874015748031497,
          "duration": 0.06578937500000848
        },
        {
          "name": "F6",
          "midi": 89,
          "time": 181.57867499999875,
          "velocity": 0.7874015748031497,
          "duration": 0.06578937500000848
        },
        {
          "name": "C#7",
          "midi": 97,
          "time": 181.57867499999875,
          "velocity": 0.7874015748031497,
          "duration": 0.06578937500000848
        },
        {
          "name": "F#7",
          "midi": 102,
          "time": 181.57867499999875,
          "velocity": 0.7874015748031497,
          "duration": 0.06578937500000848
        },
        {
          "name": "D7",
          "midi": 98,
          "time": 181.66639416666544,
          "velocity": 0.7874015748031497,
          "duration": 0.06578937500000848
        },
        {
          "name": "F7",
          "midi": 101,
          "time": 181.66639416666544,
          "velocity": 0.7874015748031497,
          "duration": 0.06578937500000848
        },
        {
          "name": "C#7",
          "midi": 97,
          "time": 181.75301684374878,
          "velocity": 0.7874015748031497,
          "duration": 0.06578937500000848
        },
        {
          "name": "F7",
          "midi": 101,
          "time": 181.75301684374878,
          "velocity": 0.7874015748031497,
          "duration": 0.06578937500000848
        },
        {
          "name": "C4",
          "midi": 60,
          "time": 181.84073601041547,
          "velocity": 0.7874015748031497,
          "duration": 0.06578937500000848
        },
        {
          "name": "F4",
          "midi": 65,
          "time": 181.84073601041547,
          "velocity": 0.7874015748031497,
          "duration": 0.06578937500000848
        },
        {
          "name": "C5",
          "midi": 72,
          "time": 181.84073601041547,
          "velocity": 0.7874015748031497,
          "duration": 0.06578937500000848
        },
        {
          "name": "F5",
          "midi": 77,
          "time": 181.84073601041547,
          "velocity": 0.7874015748031497,
          "duration": 0.06578937500000848
        },
        {
          "name": "C6",
          "midi": 84,
          "time": 181.84073601041547,
          "velocity": 0.7874015748031497,
          "duration": 0.06578937500000848
        },
        {
          "name": "F6",
          "midi": 89,
          "time": 181.84073601041547,
          "velocity": 0.7874015748031497,
          "duration": 0.06578937500000848
        },
        {
          "name": "C7",
          "midi": 96,
          "time": 181.84073601041547,
          "velocity": 0.7874015748031497,
          "duration": 0.06578937500000848
        },
        {
          "name": "F7",
          "midi": 101,
          "time": 181.84073601041547,
          "velocity": 0.7874015748031497,
          "duration": 0.06578937500000848
        },
        {
          "name": "C#4",
          "midi": 61,
          "time": 182.2365687499988,
          "velocity": 0.7874015748031497,
          "duration": 0.06578937500000848
        },
        {
          "name": "F#4",
          "midi": 66,
          "time": 182.2365687499988,
          "velocity": 0.7874015748031497,
          "duration": 0.06578937500000848
        },
        {
          "name": "C#5",
          "midi": 73,
          "time": 182.2365687499988,
          "velocity": 0.7874015748031497,
          "duration": 0.06578937500000848
        },
        {
          "name": "F#5",
          "midi": 78,
          "time": 182.2365687499988,
          "velocity": 0.7874015748031497,
          "duration": 0.06578937500000848
        },
        {
          "name": "C6",
          "midi": 84,
          "time": 182.2365687499988,
          "velocity": 0.7874015748031497,
          "duration": 0.06578937500000848
        },
        {
          "name": "D6",
          "midi": 86,
          "time": 182.2365687499988,
          "velocity": 0.7874015748031497,
          "duration": 0.06578937500000848
        },
        {
          "name": "F#6",
          "midi": 90,
          "time": 182.2365687499988,
          "velocity": 0.7874015748031497,
          "duration": 0.06578937500000848
        },
        {
          "name": "C7",
          "midi": 96,
          "time": 182.2365687499988,
          "velocity": 0.7874015748031497,
          "duration": 0.06578937500000848
        },
        {
          "name": "D#7",
          "midi": 99,
          "time": 182.2365687499988,
          "velocity": 0.7874015748031497,
          "duration": 0.06578937500000848
        },
        {
          "name": "F#7",
          "midi": 102,
          "time": 182.2365687499988,
          "velocity": 0.7874015748031497,
          "duration": 0.06578937500000848
        },
        {
          "name": "D4",
          "midi": 62,
          "time": 182.63130499999883,
          "velocity": 0.7874015748031497,
          "duration": 0.06578937500000848
        },
        {
          "name": "F#4",
          "midi": 66,
          "time": 182.63130499999883,
          "velocity": 0.7874015748031497,
          "duration": 0.06578937500000848
        },
        {
          "name": "D5",
          "midi": 74,
          "time": 182.63130499999883,
          "velocity": 0.7874015748031497,
          "duration": 0.06578937500000848
        },
        {
          "name": "F#5",
          "midi": 78,
          "time": 182.63130499999883,
          "velocity": 0.7874015748031497,
          "duration": 0.06578937500000848
        },
        {
          "name": "C#6",
          "midi": 85,
          "time": 182.63130499999883,
          "velocity": 0.7874015748031497,
          "duration": 0.06578937500000848
        },
        {
          "name": "D#6",
          "midi": 87,
          "time": 182.63130499999883,
          "velocity": 0.7874015748031497,
          "duration": 0.06578937500000848
        },
        {
          "name": "F#6",
          "midi": 90,
          "time": 182.63130499999883,
          "velocity": 0.7874015748031497,
          "duration": 0.06578937500000848
        },
        {
          "name": "C#7",
          "midi": 97,
          "time": 182.63130499999883,
          "velocity": 0.7874015748031497,
          "duration": 0.06578937500000848
        },
        {
          "name": "E7",
          "midi": 100,
          "time": 182.63130499999883,
          "velocity": 0.7874015748031497,
          "duration": 0.06578937500000848
        },
        {
          "name": "F#7",
          "midi": 102,
          "time": 182.63130499999883,
          "velocity": 0.7874015748031497,
          "duration": 0.06578937500000848
        },
        {
          "name": "C#4",
          "midi": 61,
          "time": 182.89446249999884,
          "velocity": 0.7874015748031497,
          "duration": 0.06469288541666174
        },
        {
          "name": "F#4",
          "midi": 66,
          "time": 182.89446249999884,
          "velocity": 0.7874015748031497,
          "duration": 0.06469288541666174
        },
        {
          "name": "C#5",
          "midi": 73,
          "time": 182.89446249999884,
          "velocity": 0.7874015748031497,
          "duration": 0.06469288541666174
        },
        {
          "name": "F#5",
          "midi": 78,
          "time": 182.89446249999884,
          "velocity": 0.7874015748031497,
          "duration": 0.06469288541666174
        },
        {
          "name": "C#6",
          "midi": 85,
          "time": 182.89446249999884,
          "velocity": 0.7874015748031497,
          "duration": 0.06469288541666174
        },
        {
          "name": "F#6",
          "midi": 90,
          "time": 182.89446249999884,
          "velocity": 0.7874015748031497,
          "duration": 0.06469288541666174
        },
        {
          "name": "E7",
          "midi": 100,
          "time": 182.89446249999884,
          "velocity": 0.7874015748031497,
          "duration": 0.06469288541666174
        },
        {
          "name": "F#7",
          "midi": 102,
          "time": 182.89446249999884,
          "velocity": 0.7874015748031497,
          "duration": 0.06469288541666174
        },
        {
          "name": "D#7",
          "midi": 99,
          "time": 182.96025187499885,
          "velocity": 0.7874015748031497,
          "duration": 0.06469288541669016
        },
        {
          "name": "F7",
          "midi": 101,
          "time": 182.96025187499885,
          "velocity": 0.7874015748031497,
          "duration": 0.06359639583334342
        },
        {
          "name": "D7",
          "midi": 98,
          "time": 183.02604124999888,
          "velocity": 0.7874015748031497,
          "duration": 0.06469288541669016
        },
        {
          "name": "F7",
          "midi": 101,
          "time": 183.02604124999888,
          "velocity": 0.7874015748031497,
          "duration": 0.06359639583334342
        },
        {
          "name": "C#7",
          "midi": 97,
          "time": 183.09183062499892,
          "velocity": 0.7874015748031497,
          "duration": 0.06469288541669016
        },
        {
          "name": "F7",
          "midi": 101,
          "time": 183.09183062499892,
          "velocity": 0.7874015748031497,
          "duration": 0.06359639583334342
        },
        {
          "name": "C4",
          "midi": 60,
          "time": 183.15761999999896,
          "velocity": 0.7874015748031497,
          "duration": 0.5252185104166927
        },
        {
          "name": "F#4",
          "midi": 66,
          "time": 183.15761999999896,
          "velocity": 0.7874015748031497,
          "duration": 0.5241220208333459
        },
        {
          "name": "C5",
          "midi": 72,
          "time": 183.15761999999896,
          "velocity": 0.7874015748031497,
          "duration": 0.5252185104166927
        },
        {
          "name": "F#5",
          "midi": 78,
          "time": 183.15761999999896,
          "velocity": 0.7874015748031497,
          "duration": 0.5241220208333459
        },
        {
          "name": "C6",
          "midi": 84,
          "time": 183.15761999999896,
          "velocity": 0.7874015748031497,
          "duration": 0.5252185104166927
        },
        {
          "name": "F#6",
          "midi": 90,
          "time": 183.15761999999896,
          "velocity": 0.7874015748031497,
          "duration": 0.5241220208333459
        },
        {
          "name": "C7",
          "midi": 96,
          "time": 183.15761999999896,
          "velocity": 0.7874015748031497,
          "duration": 0.5252185104166927
        },
        {
          "name": "F7",
          "midi": 101,
          "time": 183.15761999999896,
          "velocity": 0.7874015748031497,
          "duration": 0.5252185104166927
        },
        {
          "name": "C#4",
          "midi": 61,
          "time": 183.683934999999,
          "velocity": 0.7874015748031497,
          "duration": 0.06469288541666174
        },
        {
          "name": "F#4",
          "midi": 66,
          "time": 183.683934999999,
          "velocity": 0.7874015748031497,
          "duration": 0.06469288541666174
        },
        {
          "name": "C#5",
          "midi": 73,
          "time": 183.683934999999,
          "velocity": 0.7874015748031497,
          "duration": 0.06469288541666174
        },
        {
          "name": "F#5",
          "midi": 78,
          "time": 183.683934999999,
          "velocity": 0.7874015748031497,
          "duration": 0.06469288541666174
        },
        {
          "name": "C#6",
          "midi": 85,
          "time": 183.683934999999,
          "velocity": 0.7874015748031497,
          "duration": 0.06469288541666174
        },
        {
          "name": "F#6",
          "midi": 90,
          "time": 183.683934999999,
          "velocity": 0.7874015748031497,
          "duration": 0.06469288541666174
        },
        {
          "name": "C#7",
          "midi": 97,
          "time": 183.683934999999,
          "velocity": 0.7874015748031497,
          "duration": 0.06469288541666174
        },
        {
          "name": "F#7",
          "midi": 102,
          "time": 183.683934999999,
          "velocity": 0.7874015748031497,
          "duration": 0.06469288541666174
        },
        {
          "name": "C4",
          "midi": 60,
          "time": 183.94818898958232,
          "velocity": 0.7874015748031497,
          "duration": 0.06469288541666174
        },
        {
          "name": "F#4",
          "midi": 66,
          "time": 183.94818898958232,
          "velocity": 0.7874015748031497,
          "duration": 0.06469288541666174
        },
        {
          "name": "C5",
          "midi": 72,
          "time": 183.94818898958232,
          "velocity": 0.7874015748031497,
          "duration": 0.06469288541666174
        },
        {
          "name": "C6",
          "midi": 84,
          "time": 183.94818898958232,
          "velocity": 0.7874015748031497,
          "duration": 0.06469288541666174
        },
        {
          "name": "C7",
          "midi": 96,
          "time": 183.94818898958232,
          "velocity": 0.7874015748031497,
          "duration": 0.06469288541666174
        },
        {
          "name": "D4",
          "midi": 62,
          "time": 184.21024999999898,
          "velocity": 0.7874015748031497,
          "duration": 0.06469288541666174
        },
        {
          "name": "F#4",
          "midi": 66,
          "time": 184.21024999999898,
          "velocity": 0.7874015748031497,
          "duration": 0.06469288541666174
        },
        {
          "name": "D5",
          "midi": 74,
          "time": 184.21024999999898,
          "velocity": 0.7874015748031497,
          "duration": 0.06469288541666174
        },
        {
          "name": "F#5",
          "midi": 78,
          "time": 184.21024999999898,
          "velocity": 0.7874015748031497,
          "duration": 0.06469288541666174
        },
        {
          "name": "D#6",
          "midi": 87,
          "time": 184.21024999999898,
          "velocity": 0.7874015748031497,
          "duration": 0.06469288541666174
        },
        {
          "name": "F#6",
          "midi": 90,
          "time": 184.21024999999898,
          "velocity": 0.7874015748031497,
          "duration": 0.06469288541666174
        },
        {
          "name": "D#7",
          "midi": 99,
          "time": 184.21024999999898,
          "velocity": 0.7874015748031497,
          "duration": 0.06469288541666174
        },
        {
          "name": "F#7",
          "midi": 102,
          "time": 184.21024999999898,
          "velocity": 0.7874015748031497,
          "duration": 0.06469288541666174
        },
        {
          "name": "D#7",
          "midi": 99,
          "time": 184.3429252395823,
          "velocity": 0.7874015748031497,
          "duration": 0.06469288541666174
        },
        {
          "name": "F#7",
          "midi": 102,
          "time": 184.3429252395823,
          "velocity": 0.7874015748031497,
          "duration": 0.06469288541666174
        },
        {
          "name": "D6",
          "midi": 86,
          "time": 184.47340749999898,
          "velocity": 0.7874015748031497,
          "duration": 0.06469288541666174
        },
        {
          "name": "F6",
          "midi": 89,
          "time": 184.47340749999898,
          "velocity": 0.7874015748031497,
          "duration": 0.06469288541666174
        },
        {
          "name": "D7",
          "midi": 98,
          "time": 184.47340749999898,
          "velocity": 0.7874015748031497,
          "duration": 0.06469288541666174
        },
        {
          "name": "F7",
          "midi": 101,
          "time": 184.47340749999898,
          "velocity": 0.7874015748031497,
          "duration": 0.06469288541666174
        },
        {
          "name": "D4",
          "midi": 62,
          "time": 184.60608273958232,
          "velocity": 0.7874015748031497,
          "duration": 0.06469288541666174
        },
        {
          "name": "F#4",
          "midi": 66,
          "time": 184.60608273958232,
          "velocity": 0.7874015748031497,
          "duration": 0.06469288541666174
        },
        {
          "name": "D5",
          "midi": 74,
          "time": 184.60608273958232,
          "velocity": 0.7874015748031497,
          "duration": 0.06469288541666174
        },
        {
          "name": "F#5",
          "midi": 78,
          "time": 184.60608273958232,
          "velocity": 0.7874015748031497,
          "duration": 0.06469288541666174
        },
        {
          "name": "D#6",
          "midi": 87,
          "time": 184.60608273958232,
          "velocity": 0.7874015748031497,
          "duration": 0.06469288541666174
        },
        {
          "name": "F6",
          "midi": 89,
          "time": 184.60608273958232,
          "velocity": 0.7874015748031497,
          "duration": 0.06469288541666174
        },
        {
          "name": "D#7",
          "midi": 99,
          "time": 184.60608273958232,
          "velocity": 0.7874015748031497,
          "duration": 0.06469288541666174
        },
        {
          "name": "F7",
          "midi": 101,
          "time": 184.60608273958232,
          "velocity": 0.7874015748031497,
          "duration": 0.06469288541666174
        },
        {
          "name": "D5",
          "midi": 74,
          "time": 184.86924023958233,
          "velocity": 0.7874015748031497,
          "duration": 0.06578937500000848
        },
        {
          "name": "F#5",
          "midi": 78,
          "time": 184.86924023958233,
          "velocity": 0.7874015748031497,
          "duration": 0.06578937500000848
        },
        {
          "name": "D#6",
          "midi": 87,
          "time": 184.86924023958233,
          "velocity": 0.7874015748031497,
          "duration": 0.06578937500000848
        },
        {
          "name": "F#6",
          "midi": 90,
          "time": 184.86924023958233,
          "velocity": 0.7874015748031497,
          "duration": 0.06578937500000848
        },
        {
          "name": "D#7",
          "midi": 99,
          "time": 184.86924023958233,
          "velocity": 0.7874015748031497,
          "duration": 0.06578937500000848
        },
        {
          "name": "F#7",
          "midi": 102,
          "time": 184.86924023958233,
          "velocity": 0.7874015748031497,
          "duration": 0.06578937500000848
        },
        {
          "name": "C#4",
          "midi": 61,
          "time": 185.00081898958234,
          "velocity": 0.7874015748031497,
          "duration": 0.5230255312499992
        },
        {
          "name": "F#4",
          "midi": 66,
          "time": 185.00081898958234,
          "velocity": 0.7874015748031497,
          "duration": 0.5230255312499992
        },
        {
          "name": "C#5",
          "midi": 73,
          "time": 185.00081898958234,
          "velocity": 0.7874015748031497,
          "duration": 0.5230255312499992
        },
        {
          "name": "F5",
          "midi": 77,
          "time": 185.00081898958234,
          "velocity": 0.7874015748031497,
          "duration": 0.5230255312499992
        },
        {
          "name": "D6",
          "midi": 86,
          "time": 185.00081898958234,
          "velocity": 0.7874015748031497,
          "duration": 0.5230255312499992
        },
        {
          "name": "F6",
          "midi": 89,
          "time": 185.00081898958234,
          "velocity": 0.7874015748031497,
          "duration": 0.5230255312499992
        },
        {
          "name": "D7",
          "midi": 98,
          "time": 185.00081898958234,
          "velocity": 0.7874015748031497,
          "duration": 0.5230255312499992
        },
        {
          "name": "F7",
          "midi": 101,
          "time": 185.00081898958234,
          "velocity": 0.7874015748031497,
          "duration": 0.5230255312499992
        },
        {
          "name": "C4",
          "midi": 60,
          "time": 185.526037499999,
          "velocity": 0.7874015748031497,
          "duration": 0.06469288541666174
        },
        {
          "name": "F#4",
          "midi": 66,
          "time": 185.526037499999,
          "velocity": 0.7874015748031497,
          "duration": 0.06469288541666174
        },
        {
          "name": "C5",
          "midi": 72,
          "time": 185.526037499999,
          "velocity": 0.7874015748031497,
          "duration": 0.06469288541666174
        },
        {
          "name": "F#5",
          "midi": 78,
          "time": 185.526037499999,
          "velocity": 0.7874015748031497,
          "duration": 0.06469288541666174
        },
        {
          "name": "C6",
          "midi": 84,
          "time": 185.526037499999,
          "velocity": 0.7874015748031497,
          "duration": 0.06469288541666174
        },
        {
          "name": "F#6",
          "midi": 90,
          "time": 185.526037499999,
          "velocity": 0.7874015748031497,
          "duration": 0.06469288541666174
        },
        {
          "name": "C7",
          "midi": 96,
          "time": 185.526037499999,
          "velocity": 0.7874015748031497,
          "duration": 0.06469288541666174
        },
        {
          "name": "F#7",
          "midi": 102,
          "time": 185.526037499999,
          "velocity": 0.7874015748031497,
          "duration": 0.06469288541666174
        },
        {
          "name": "C#4",
          "midi": 61,
          "time": 185.789194999999,
          "velocity": 0.7874015748031497,
          "duration": 0.06469288541666174
        },
        {
          "name": "F#4",
          "midi": 66,
          "time": 185.789194999999,
          "velocity": 0.7874015748031497,
          "duration": 0.06469288541666174
        },
        {
          "name": "C#5",
          "midi": 73,
          "time": 185.789194999999,
          "velocity": 0.7874015748031497,
          "duration": 0.06469288541666174
        },
        {
          "name": "F#5",
          "midi": 78,
          "time": 185.789194999999,
          "velocity": 0.7874015748031497,
          "duration": 0.06469288541666174
        },
        {
          "name": "C#6",
          "midi": 85,
          "time": 185.789194999999,
          "velocity": 0.7874015748031497,
          "duration": 0.06469288541666174
        },
        {
          "name": "F#6",
          "midi": 90,
          "time": 185.789194999999,
          "velocity": 0.7874015748031497,
          "duration": 0.06469288541666174
        },
        {
          "name": "C#7",
          "midi": 97,
          "time": 185.789194999999,
          "velocity": 0.7874015748031497,
          "duration": 0.06469288541666174
        },
        {
          "name": "F#7",
          "midi": 102,
          "time": 185.789194999999,
          "velocity": 0.7874015748031497,
          "duration": 0.06469288541666174
        },
        {
          "name": "C4",
          "midi": 60,
          "time": 186.05235249999902,
          "velocity": 0.7874015748031497,
          "duration": 0.06469288541666174
        },
        {
          "name": "F#4",
          "midi": 66,
          "time": 186.05235249999902,
          "velocity": 0.7874015748031497,
          "duration": 0.06469288541666174
        },
        {
          "name": "C5",
          "midi": 72,
          "time": 186.05235249999902,
          "velocity": 0.7874015748031497,
          "duration": 0.06469288541666174
        },
        {
          "name": "C6",
          "midi": 84,
          "time": 186.05235249999902,
          "velocity": 0.7874015748031497,
          "duration": 0.06469288541666174
        },
        {
          "name": "C7",
          "midi": 96,
          "time": 186.05235249999902,
          "velocity": 0.7874015748031497,
          "duration": 0.06469288541666174
        },
        {
          "name": "D4",
          "midi": 62,
          "time": 186.31550999999902,
          "velocity": 0.7874015748031497,
          "duration": 0.06469288541666174
        },
        {
          "name": "F#4",
          "midi": 66,
          "time": 186.31550999999902,
          "velocity": 0.7874015748031497,
          "duration": 0.06469288541666174
        },
        {
          "name": "D5",
          "midi": 74,
          "time": 186.31550999999902,
          "velocity": 0.7874015748031497,
          "duration": 0.06469288541666174
        },
        {
          "name": "F#5",
          "midi": 78,
          "time": 186.31550999999902,
          "velocity": 0.7874015748031497,
          "duration": 0.06469288541666174
        },
        {
          "name": "D#6",
          "midi": 87,
          "time": 186.31550999999902,
          "velocity": 0.7874015748031497,
          "duration": 0.06469288541666174
        },
        {
          "name": "F#6",
          "midi": 90,
          "time": 186.31550999999902,
          "velocity": 0.7874015748031497,
          "duration": 0.06469288541666174
        },
        {
          "name": "D#7",
          "midi": 99,
          "time": 186.31550999999902,
          "velocity": 0.7874015748031497,
          "duration": 0.06469288541666174
        },
        {
          "name": "F#7",
          "midi": 102,
          "time": 186.31550999999902,
          "velocity": 0.7874015748031497,
          "duration": 0.06469288541666174
        },
        {
          "name": "D#7",
          "midi": 99,
          "time": 186.447088749999,
          "velocity": 0.7874015748031497,
          "duration": 0.06469288541666174
        },
        {
          "name": "F#7",
          "midi": 102,
          "time": 186.447088749999,
          "velocity": 0.7874015748031497,
          "duration": 0.06469288541666174
        },
        {
          "name": "D6",
          "midi": 86,
          "time": 186.578667499999,
          "velocity": 0.7874015748031497,
          "duration": 0.06469288541666174
        },
        {
          "name": "F6",
          "midi": 89,
          "time": 186.578667499999,
          "velocity": 0.7874015748031497,
          "duration": 0.06469288541666174
        },
        {
          "name": "D7",
          "midi": 98,
          "time": 186.578667499999,
          "velocity": 0.7874015748031497,
          "duration": 0.06469288541666174
        },
        {
          "name": "F7",
          "midi": 101,
          "time": 186.578667499999,
          "velocity": 0.7874015748031497,
          "duration": 0.06469288541666174
        },
        {
          "name": "D4",
          "midi": 62,
          "time": 186.710246249999,
          "velocity": 0.7874015748031497,
          "duration": 0.06469288541666174
        },
        {
          "name": "F#4",
          "midi": 66,
          "time": 186.710246249999,
          "velocity": 0.7874015748031497,
          "duration": 0.06469288541666174
        },
        {
          "name": "D5",
          "midi": 74,
          "time": 186.710246249999,
          "velocity": 0.7874015748031497,
          "duration": 0.06469288541666174
        },
        {
          "name": "F#5",
          "midi": 78,
          "time": 186.710246249999,
          "velocity": 0.7874015748031497,
          "duration": 0.06469288541666174
        },
        {
          "name": "D#6",
          "midi": 87,
          "time": 186.710246249999,
          "velocity": 0.7874015748031497,
          "duration": 0.06469288541666174
        },
        {
          "name": "F6",
          "midi": 89,
          "time": 186.710246249999,
          "velocity": 0.7874015748031497,
          "duration": 0.06469288541666174
        },
        {
          "name": "D#7",
          "midi": 99,
          "time": 186.710246249999,
          "velocity": 0.7874015748031497,
          "duration": 0.06469288541666174
        },
        {
          "name": "F7",
          "midi": 101,
          "time": 186.710246249999,
          "velocity": 0.7874015748031497,
          "duration": 0.06469288541666174
        },
        {
          "name": "D5",
          "midi": 74,
          "time": 186.973403749999,
          "velocity": 0.7874015748031497,
          "duration": 0.06578937500000848
        },
        {
          "name": "F#5",
          "midi": 78,
          "time": 186.973403749999,
          "velocity": 0.7874015748031497,
          "duration": 0.06578937500000848
        },
        {
          "name": "D#6",
          "midi": 87,
          "time": 186.973403749999,
          "velocity": 0.7874015748031497,
          "duration": 0.06578937500000848
        },
        {
          "name": "F#6",
          "midi": 90,
          "time": 186.973403749999,
          "velocity": 0.7874015748031497,
          "duration": 0.06578937500000848
        },
        {
          "name": "D#7",
          "midi": 99,
          "time": 186.973403749999,
          "velocity": 0.7874015748031497,
          "duration": 0.06578937500000848
        },
        {
          "name": "F#7",
          "midi": 102,
          "time": 186.973403749999,
          "velocity": 0.7874015748031497,
          "duration": 0.06578937500000848
        },
        {
          "name": "C#4",
          "midi": 61,
          "time": 187.10607898958233,
          "velocity": 0.7874015748031497,
          "duration": 0.06469288541666174
        },
        {
          "name": "F4",
          "midi": 65,
          "time": 187.10607898958233,
          "velocity": 0.7874015748031497,
          "duration": 0.06469288541666174
        },
        {
          "name": "C#5",
          "midi": 73,
          "time": 187.10607898958233,
          "velocity": 0.7874015748031497,
          "duration": 0.06469288541666174
        },
        {
          "name": "F5",
          "midi": 77,
          "time": 187.10607898958233,
          "velocity": 0.7874015748031497,
          "duration": 0.06469288541666174
        },
        {
          "name": "D6",
          "midi": 86,
          "time": 187.10607898958233,
          "velocity": 0.7874015748031497,
          "duration": 0.06469288541666174
        },
        {
          "name": "F6",
          "midi": 89,
          "time": 187.10607898958233,
          "velocity": 0.7874015748031497,
          "duration": 0.06469288541666174
        },
        {
          "name": "D7",
          "midi": 98,
          "time": 187.10607898958233,
          "velocity": 0.7874015748031497,
          "duration": 0.06469288541666174
        },
        {
          "name": "F7",
          "midi": 101,
          "time": 187.10607898958233,
          "velocity": 0.7874015748031497,
          "duration": 0.06469288541666174
        },
        {
          "name": "C#7",
          "midi": 97,
          "time": 187.236561249999,
          "velocity": 0.7874015748031497,
          "duration": 0.06469288541666174
        },
        {
          "name": "F7",
          "midi": 101,
          "time": 187.236561249999,
          "velocity": 0.7874015748031497,
          "duration": 0.06469288541666174
        },
        {
          "name": "C4",
          "midi": 60,
          "time": 187.368139999999,
          "velocity": 0.7874015748031497,
          "duration": 0.06469288541666174
        },
        {
          "name": "F#4",
          "midi": 66,
          "time": 187.368139999999,
          "velocity": 0.7874015748031497,
          "duration": 0.06469288541666174
        },
        {
          "name": "C#5",
          "midi": 73,
          "time": 187.368139999999,
          "velocity": 0.7874015748031497,
          "duration": 0.06469288541666174
        },
        {
          "name": "F#5",
          "midi": 78,
          "time": 187.368139999999,
          "velocity": 0.7874015748031497,
          "duration": 0.06469288541666174
        },
        {
          "name": "C#6",
          "midi": 85,
          "time": 187.368139999999,
          "velocity": 0.7874015748031497,
          "duration": 0.06469288541666174
        },
        {
          "name": "F#6",
          "midi": 90,
          "time": 187.368139999999,
          "velocity": 0.7874015748031497,
          "duration": 0.06469288541666174
        },
        {
          "name": "C7",
          "midi": 96,
          "time": 187.368139999999,
          "velocity": 0.7874015748031497,
          "duration": 0.06469288541666174
        },
        {
          "name": "F7",
          "midi": 101,
          "time": 187.368139999999,
          "velocity": 0.7874015748031497,
          "duration": 0.06469288541666174
        },
        {
          "name": "C#7",
          "midi": 97,
          "time": 187.49971874999898,
          "velocity": 0.7874015748031497,
          "duration": 0.06469288541666174
        },
        {
          "name": "F7",
          "midi": 101,
          "time": 187.49971874999898,
          "velocity": 0.7874015748031497,
          "duration": 0.06469288541666174
        },
        {
          "name": "C#4",
          "midi": 61,
          "time": 187.7639727395823,
          "velocity": 0.7874015748031497,
          "duration": 0.06469288541666174
        },
        {
          "name": "F#4",
          "midi": 66,
          "time": 187.7639727395823,
          "velocity": 0.7874015748031497,
          "duration": 0.06469288541666174
        },
        {
          "name": "D5",
          "midi": 74,
          "time": 187.7639727395823,
          "velocity": 0.7874015748031497,
          "duration": 0.06469288541666174
        },
        {
          "name": "F#5",
          "midi": 78,
          "time": 187.7639727395823,
          "velocity": 0.7874015748031497,
          "duration": 0.06469288541666174
        },
        {
          "name": "D6",
          "midi": 86,
          "time": 187.7639727395823,
          "velocity": 0.7874015748031497,
          "duration": 0.06469288541666174
        },
        {
          "name": "F#6",
          "midi": 90,
          "time": 187.7639727395823,
          "velocity": 0.7874015748031497,
          "duration": 0.06469288541666174
        },
        {
          "name": "D7",
          "midi": 98,
          "time": 187.7639727395823,
          "velocity": 0.7874015748031497,
          "duration": 0.06469288541666174
        },
        {
          "name": "F#7",
          "midi": 102,
          "time": 187.7639727395823,
          "velocity": 0.7874015748031497,
          "duration": 0.06469288541666174
        },
        {
          "name": "D#7",
          "midi": 99,
          "time": 188.09291961458229,
          "velocity": 0.7874015748031497,
          "duration": 0.06469288541666174
        },
        {
          "name": "F#7",
          "midi": 102,
          "time": 188.09291961458229,
          "velocity": 0.7874015748031497,
          "duration": 0.06469288541666174
        },
        {
          "name": "D4",
          "midi": 62,
          "time": 188.15761249999895,
          "velocity": 0.7874015748031497,
          "duration": 0.06469288541666174
        },
        {
          "name": "F#4",
          "midi": 66,
          "time": 188.15761249999895,
          "velocity": 0.7874015748031497,
          "duration": 0.06469288541666174
        },
        {
          "name": "D#5",
          "midi": 75,
          "time": 188.15761249999895,
          "velocity": 0.7874015748031497,
          "duration": 0.06469288541666174
        },
        {
          "name": "F#5",
          "midi": 78,
          "time": 188.15761249999895,
          "velocity": 0.7874015748031497,
          "duration": 0.06469288541666174
        },
        {
          "name": "D#6",
          "midi": 87,
          "time": 188.15761249999895,
          "velocity": 0.7874015748031497,
          "duration": 0.06469288541666174
        },
        {
          "name": "F#6",
          "midi": 90,
          "time": 188.15761249999895,
          "velocity": 0.7874015748031497,
          "duration": 0.06469288541666174
        },
        {
          "name": "E7",
          "midi": 100,
          "time": 188.19160367708227,
          "velocity": 0.7874015748031497,
          "duration": 0.06469288541666174
        },
        {
          "name": "F7",
          "midi": 101,
          "time": 188.19160367708227,
          "velocity": 0.7874015748031497,
          "duration": 0.06469288541666174
        },
        {
          "name": "C#4",
          "midi": 61,
          "time": 188.42076999999892,
          "velocity": 0.7874015748031497,
          "duration": 0.06469288541666174
        },
        {
          "name": "F#4",
          "midi": 66,
          "time": 188.42076999999892,
          "velocity": 0.7874015748031497,
          "duration": 0.06469288541666174
        },
        {
          "name": "D5",
          "midi": 74,
          "time": 188.42076999999892,
          "velocity": 0.7874015748031497,
          "duration": 0.06469288541666174
        },
        {
          "name": "F#5",
          "midi": 78,
          "time": 188.42076999999892,
          "velocity": 0.7874015748031497,
          "duration": 0.06469288541666174
        },
        {
          "name": "D6",
          "midi": 86,
          "time": 188.42076999999892,
          "velocity": 0.7874015748031497,
          "duration": 0.06469288541666174
        },
        {
          "name": "F#6",
          "midi": 90,
          "time": 188.42076999999892,
          "velocity": 0.7874015748031497,
          "duration": 0.06469288541666174
        },
        {
          "name": "D#7",
          "midi": 99,
          "time": 188.42076999999892,
          "velocity": 0.7874015748031497,
          "duration": 0.06469288541666174
        },
        {
          "name": "F#7",
          "midi": 102,
          "time": 188.42076999999892,
          "velocity": 0.7874015748031497,
          "duration": 0.06469288541666174
        },
        {
          "name": "C#4",
          "midi": 61,
          "time": 188.68502398958225,
          "velocity": 0.7874015748031497,
          "duration": 0.06469288541666174
        },
        {
          "name": "F#4",
          "midi": 66,
          "time": 188.68502398958225,
          "velocity": 0.7874015748031497,
          "duration": 0.06469288541666174
        },
        {
          "name": "D5",
          "midi": 74,
          "time": 188.68502398958225,
          "velocity": 0.7874015748031497,
          "duration": 0.06469288541666174
        },
        {
          "name": "F#5",
          "midi": 78,
          "time": 188.68502398958225,
          "velocity": 0.7874015748031497,
          "duration": 0.06469288541666174
        },
        {
          "name": "D6",
          "midi": 86,
          "time": 188.68502398958225,
          "velocity": 0.7874015748031497,
          "duration": 0.06469288541666174
        },
        {
          "name": "F#6",
          "midi": 90,
          "time": 188.68502398958225,
          "velocity": 0.7874015748031497,
          "duration": 0.06469288541666174
        },
        {
          "name": "D#7",
          "midi": 99,
          "time": 188.68502398958225,
          "velocity": 0.7874015748031497,
          "duration": 0.06469288541666174
        },
        {
          "name": "F#7",
          "midi": 102,
          "time": 188.68502398958225,
          "velocity": 0.7874015748031497,
          "duration": 0.06469288541666174
        },
        {
          "name": "C#4",
          "midi": 61,
          "time": 188.9470849999989,
          "velocity": 0.7874015748031497,
          "duration": 0.06578937500000848
        },
        {
          "name": "F#4",
          "midi": 66,
          "time": 188.9470849999989,
          "velocity": 0.7874015748031497,
          "duration": 0.06578937500000848
        },
        {
          "name": "D5",
          "midi": 74,
          "time": 188.9470849999989,
          "velocity": 0.7874015748031497,
          "duration": 0.06578937500000848
        },
        {
          "name": "F#5",
          "midi": 78,
          "time": 188.9470849999989,
          "velocity": 0.7874015748031497,
          "duration": 0.06578937500000848
        },
        {
          "name": "D6",
          "midi": 86,
          "time": 188.9470849999989,
          "velocity": 0.7874015748031497,
          "duration": 0.06578937500000848
        },
        {
          "name": "F#6",
          "midi": 90,
          "time": 188.9470849999989,
          "velocity": 0.7874015748031497,
          "duration": 0.06578937500000848
        },
        {
          "name": "D#7",
          "midi": 99,
          "time": 188.9470849999989,
          "velocity": 0.7874015748031497,
          "duration": 0.06578937500000848
        },
        {
          "name": "F#7",
          "midi": 102,
          "time": 188.9470849999989,
          "velocity": 0.7874015748031497,
          "duration": 0.06578937500000848
        },
        {
          "name": "D#6",
          "midi": 87,
          "time": 189.07866374999892,
          "velocity": 0.7874015748031497,
          "duration": 0.06578937500000848
        },
        {
          "name": "F6",
          "midi": 89,
          "time": 189.07866374999892,
          "velocity": 0.7874015748031497,
          "duration": 0.06578937500000848
        },
        {
          "name": "E7",
          "midi": 100,
          "time": 189.07866374999892,
          "velocity": 0.7874015748031497,
          "duration": 0.06578937500000848
        },
        {
          "name": "F7",
          "midi": 101,
          "time": 189.07866374999892,
          "velocity": 0.7874015748031497,
          "duration": 0.06578937500000848
        },
        {
          "name": "D4",
          "midi": 62,
          "time": 189.2091460104156,
          "velocity": 0.7874015748031497,
          "duration": 0.06578937500000848
        },
        {
          "name": "F4",
          "midi": 65,
          "time": 189.2091460104156,
          "velocity": 0.7874015748031497,
          "duration": 0.06578937500000848
        },
        {
          "name": "D#5",
          "midi": 75,
          "time": 189.2091460104156,
          "velocity": 0.7874015748031497,
          "duration": 0.06578937500000848
        },
        {
          "name": "F5",
          "midi": 77,
          "time": 189.2091460104156,
          "velocity": 0.7874015748031497,
          "duration": 0.06578937500000848
        },
        {
          "name": "D6",
          "midi": 86,
          "time": 189.2091460104156,
          "velocity": 0.7874015748031497,
          "duration": 0.06578937500000848
        },
        {
          "name": "F6",
          "midi": 89,
          "time": 189.2091460104156,
          "velocity": 0.7874015748031497,
          "duration": 0.06578937500000848
        },
        {
          "name": "D#7",
          "midi": 99,
          "time": 189.2091460104156,
          "velocity": 0.7874015748031497,
          "duration": 0.06578937500000848
        },
        {
          "name": "F7",
          "midi": 101,
          "time": 189.2091460104156,
          "velocity": 0.7874015748031497,
          "duration": 0.06578937500000848
        },
        {
          "name": "D7",
          "midi": 98,
          "time": 189.34182124999893,
          "velocity": 0.7874015748031497,
          "duration": 0.06578937500000848
        },
        {
          "name": "F7",
          "midi": 101,
          "time": 189.34182124999893,
          "velocity": 0.7874015748031497,
          "duration": 0.06578937500000848
        },
        {
          "name": "C#4",
          "midi": 61,
          "time": 189.47339999999895,
          "velocity": 0.7874015748031497,
          "duration": 0.06578937500000848
        },
        {
          "name": "F4",
          "midi": 65,
          "time": 189.47339999999895,
          "velocity": 0.7874015748031497,
          "duration": 0.06578937500000848
        },
        {
          "name": "D5",
          "midi": 74,
          "time": 189.47339999999895,
          "velocity": 0.7874015748031497,
          "duration": 0.06578937500000848
        },
        {
          "name": "D#5",
          "midi": 75,
          "time": 189.47339999999895,
          "velocity": 0.7874015748031497,
          "duration": 0.06578937500000848
        },
        {
          "name": "F#5",
          "midi": 78,
          "time": 189.47339999999895,
          "velocity": 0.7874015748031497,
          "duration": 0.06578937500000848
        },
        {
          "name": "D6",
          "midi": 86,
          "time": 189.47339999999895,
          "velocity": 0.7874015748031497,
          "duration": 0.06578937500000848
        },
        {
          "name": "D#6",
          "midi": 87,
          "time": 189.47339999999895,
          "velocity": 0.7874015748031497,
          "duration": 0.06578937500000848
        },
        {
          "name": "F#6",
          "midi": 90,
          "time": 189.47339999999895,
          "velocity": 0.7874015748031497,
          "duration": 0.06578937500000848
        },
        {
          "name": "D#7",
          "midi": 99,
          "time": 189.47339999999895,
          "velocity": 0.7874015748031497,
          "duration": 0.06578937500000848
        },
        {
          "name": "E7",
          "midi": 100,
          "time": 189.47339999999895,
          "velocity": 0.7874015748031497,
          "duration": 0.06578937500000848
        },
        {
          "name": "F#7",
          "midi": 102,
          "time": 189.47339999999895,
          "velocity": 0.7874015748031497,
          "duration": 0.06578937500000848
        },
        {
          "name": "C4",
          "midi": 60,
          "time": 193.28918374999895,
          "velocity": 0.7874015748031497,
          "duration": 0.3936397604166757
        },
        {
          "name": "F#4",
          "midi": 66,
          "time": 193.28918374999895,
          "velocity": 0.7874015748031497,
          "duration": 0.39254327083332896
        },
        {
          "name": "C5",
          "midi": 72,
          "time": 193.28918374999895,
          "velocity": 0.7874015748031497,
          "duration": 0.3936397604166757
        },
        {
          "name": "F#5",
          "midi": 78,
          "time": 193.28918374999895,
          "velocity": 0.7874015748031497,
          "duration": 0.39254327083332896
        },
        {
          "name": "C6",
          "midi": 84,
          "time": 193.28918374999895,
          "velocity": 0.7874015748031497,
          "duration": 0.3936397604166757
        },
        {
          "name": "F#6",
          "midi": 90,
          "time": 193.28918374999895,
          "velocity": 0.7874015748031497,
          "duration": 0.39254327083332896
        },
        {
          "name": "C7",
          "midi": 96,
          "time": 193.28918374999895,
          "velocity": 0.7874015748031497,
          "duration": 0.3936397604166757
        },
        {
          "name": "F#7",
          "midi": 102,
          "time": 193.28918374999895,
          "velocity": 0.7874015748031497,
          "duration": 0.39254327083332896
        },
        {
          "name": "C4",
          "midi": 60,
          "time": 193.68391999999898,
          "velocity": 0.7874015748031497,
          "duration": 0.5241220208333459
        },
        {
          "name": "F#4",
          "midi": 66,
          "time": 193.68391999999898,
          "velocity": 0.7874015748031497,
          "duration": 0.5241220208333459
        },
        {
          "name": "C#5",
          "midi": 73,
          "time": 193.68391999999898,
          "velocity": 0.7874015748031497,
          "duration": 0.5241220208333459
        },
        {
          "name": "F#5",
          "midi": 78,
          "time": 193.68391999999898,
          "velocity": 0.7874015748031497,
          "duration": 0.5241220208333459
        },
        {
          "name": "C#6",
          "midi": 85,
          "time": 193.68391999999898,
          "velocity": 0.7874015748031497,
          "duration": 0.5241220208333459
        },
        {
          "name": "F#6",
          "midi": 90,
          "time": 193.68391999999898,
          "velocity": 0.7874015748031497,
          "duration": 0.5241220208333459
        },
        {
          "name": "C#7",
          "midi": 97,
          "time": 193.68391999999898,
          "velocity": 0.7874015748031497,
          "duration": 0.5241220208333459
        },
        {
          "name": "F#7",
          "midi": 102,
          "time": 193.68391999999898,
          "velocity": 0.7874015748031497,
          "duration": 0.5241220208333459
        },
        {
          "name": "C4",
          "midi": 60,
          "time": 194.473392499999,
          "velocity": 0.7874015748031497,
          "duration": 0.3936397604166757
        },
        {
          "name": "F#4",
          "midi": 66,
          "time": 194.473392499999,
          "velocity": 0.7874015748031497,
          "duration": 0.39254327083332896
        },
        {
          "name": "C#5",
          "midi": 73,
          "time": 194.473392499999,
          "velocity": 0.7874015748031497,
          "duration": 0.3936397604166757
        },
        {
          "name": "F#5",
          "midi": 78,
          "time": 194.473392499999,
          "velocity": 0.7874015748031497,
          "duration": 0.39254327083332896
        },
        {
          "name": "C#6",
          "midi": 85,
          "time": 194.473392499999,
          "velocity": 0.7874015748031497,
          "duration": 0.3936397604166757
        },
        {
          "name": "F#6",
          "midi": 90,
          "time": 194.473392499999,
          "velocity": 0.7874015748031497,
          "duration": 0.39254327083332896
        },
        {
          "name": "C#7",
          "midi": 97,
          "time": 194.473392499999,
          "velocity": 0.7874015748031497,
          "duration": 0.3936397604166757
        },
        {
          "name": "F#7",
          "midi": 102,
          "time": 194.473392499999,
          "velocity": 0.7874015748031497,
          "duration": 0.39254327083332896
        },
        {
          "name": "C#4",
          "midi": 61,
          "time": 194.86812874999902,
          "velocity": 0.7874015748031497,
          "duration": 0.06469288541666174
        },
        {
          "name": "F#4",
          "midi": 66,
          "time": 194.86812874999902,
          "velocity": 0.7874015748031497,
          "duration": 0.06469288541666174
        },
        {
          "name": "D5",
          "midi": 74,
          "time": 194.86812874999902,
          "velocity": 0.7874015748031497,
          "duration": 0.06469288541666174
        },
        {
          "name": "F#5",
          "midi": 78,
          "time": 194.86812874999902,
          "velocity": 0.7874015748031497,
          "duration": 0.06469288541666174
        },
        {
          "name": "D6",
          "midi": 86,
          "time": 194.86812874999902,
          "velocity": 0.7874015748031497,
          "duration": 0.06469288541666174
        },
        {
          "name": "F#6",
          "midi": 90,
          "time": 194.86812874999902,
          "velocity": 0.7874015748031497,
          "duration": 0.06469288541666174
        },
        {
          "name": "D7",
          "midi": 98,
          "time": 194.86812874999902,
          "velocity": 0.7874015748031497,
          "duration": 0.06469288541666174
        },
        {
          "name": "F#7",
          "midi": 102,
          "time": 194.86812874999902,
          "velocity": 0.7874015748031497,
          "duration": 0.06469288541666174
        },
        {
          "name": "C#6",
          "midi": 85,
          "time": 195.13128624999902,
          "velocity": 0.7874015748031497,
          "duration": 0.06469288541666174
        },
        {
          "name": "F#6",
          "midi": 90,
          "time": 195.13128624999902,
          "velocity": 0.7874015748031497,
          "duration": 0.06469288541666174
        },
        {
          "name": "C#7",
          "midi": 97,
          "time": 195.13128624999902,
          "velocity": 0.7874015748031497,
          "duration": 0.06469288541666174
        },
        {
          "name": "F#7",
          "midi": 102,
          "time": 195.13128624999902,
          "velocity": 0.7874015748031497,
          "duration": 0.06469288541666174
        },
        {
          "name": "C#4",
          "midi": 61,
          "time": 195.262864999999,
          "velocity": 0.7874015748031497,
          "duration": 0.06469288541666174
        },
        {
          "name": "F#4",
          "midi": 66,
          "time": 195.262864999999,
          "velocity": 0.7874015748031497,
          "duration": 0.06469288541666174
        },
        {
          "name": "D5",
          "midi": 74,
          "time": 195.262864999999,
          "velocity": 0.7874015748031497,
          "duration": 0.06469288541666174
        },
        {
          "name": "F#5",
          "midi": 78,
          "time": 195.262864999999,
          "velocity": 0.7874015748031497,
          "duration": 0.06469288541666174
        },
        {
          "name": "D6",
          "midi": 86,
          "time": 195.262864999999,
          "velocity": 0.7874015748031497,
          "duration": 0.06469288541666174
        },
        {
          "name": "F6",
          "midi": 89,
          "time": 195.262864999999,
          "velocity": 0.7874015748031497,
          "duration": 0.06469288541666174
        },
        {
          "name": "D7",
          "midi": 98,
          "time": 195.262864999999,
          "velocity": 0.7874015748031497,
          "duration": 0.06469288541666174
        },
        {
          "name": "F7",
          "midi": 101,
          "time": 195.262864999999,
          "velocity": 0.7874015748031497,
          "duration": 0.06469288541666174
        },
        {
          "name": "C#7",
          "midi": 97,
          "time": 195.394443749999,
          "velocity": 0.7874015748031497,
          "duration": 0.06469288541666174
        },
        {
          "name": "F7",
          "midi": 101,
          "time": 195.394443749999,
          "velocity": 0.7874015748031497,
          "duration": 0.06469288541666174
        },
        {
          "name": "C5",
          "midi": 72,
          "time": 195.52711898958233,
          "velocity": 0.7874015748031497,
          "duration": 0.06469288541666174
        },
        {
          "name": "F5",
          "midi": 77,
          "time": 195.52711898958233,
          "velocity": 0.7874015748031497,
          "duration": 0.06469288541666174
        },
        {
          "name": "C6",
          "midi": 84,
          "time": 195.52711898958233,
          "velocity": 0.7874015748031497,
          "duration": 0.06469288541666174
        },
        {
          "name": "F6",
          "midi": 89,
          "time": 195.52711898958233,
          "velocity": 0.7874015748031497,
          "duration": 0.06469288541666174
        },
        {
          "name": "C7",
          "midi": 96,
          "time": 195.52711898958233,
          "velocity": 0.7874015748031497,
          "duration": 0.06469288541666174
        },
        {
          "name": "C4",
          "midi": 60,
          "time": 195.789179999999,
          "velocity": 0.7874015748031497,
          "duration": 0.5241220208333459
        },
        {
          "name": "F#4",
          "midi": 66,
          "time": 195.789179999999,
          "velocity": 0.7874015748031497,
          "duration": 0.5241220208333459
        },
        {
          "name": "C#5",
          "midi": 73,
          "time": 195.789179999999,
          "velocity": 0.7874015748031497,
          "duration": 0.5241220208333459
        },
        {
          "name": "F#5",
          "midi": 78,
          "time": 195.789179999999,
          "velocity": 0.7874015748031497,
          "duration": 0.5241220208333459
        },
        {
          "name": "C#6",
          "midi": 85,
          "time": 195.789179999999,
          "velocity": 0.7874015748031497,
          "duration": 0.5241220208333459
        },
        {
          "name": "F#6",
          "midi": 90,
          "time": 195.789179999999,
          "velocity": 0.7874015748031497,
          "duration": 0.5241220208333459
        },
        {
          "name": "C#7",
          "midi": 97,
          "time": 195.789179999999,
          "velocity": 0.7874015748031497,
          "duration": 0.5241220208333459
        },
        {
          "name": "F#7",
          "midi": 102,
          "time": 195.789179999999,
          "velocity": 0.7874015748031497,
          "duration": 0.5241220208333459
        },
        {
          "name": "C4",
          "midi": 60,
          "time": 196.578652499999,
          "velocity": 0.7874015748031497,
          "duration": 0.3936397604166757
        },
        {
          "name": "F#4",
          "midi": 66,
          "time": 196.578652499999,
          "velocity": 0.7874015748031497,
          "duration": 0.39254327083332896
        },
        {
          "name": "C#5",
          "midi": 73,
          "time": 196.578652499999,
          "velocity": 0.7874015748031497,
          "duration": 0.3936397604166757
        },
        {
          "name": "F#5",
          "midi": 78,
          "time": 196.578652499999,
          "velocity": 0.7874015748031497,
          "duration": 0.39254327083332896
        },
        {
          "name": "C#6",
          "midi": 85,
          "time": 196.578652499999,
          "velocity": 0.7874015748031497,
          "duration": 0.3936397604166757
        },
        {
          "name": "F#6",
          "midi": 90,
          "time": 196.578652499999,
          "velocity": 0.7874015748031497,
          "duration": 0.39254327083332896
        },
        {
          "name": "C#7",
          "midi": 97,
          "time": 196.578652499999,
          "velocity": 0.7874015748031497,
          "duration": 0.3936397604166757
        },
        {
          "name": "F#7",
          "midi": 102,
          "time": 196.578652499999,
          "velocity": 0.7874015748031497,
          "duration": 0.39254327083332896
        },
        {
          "name": "C#4",
          "midi": 61,
          "time": 196.97338874999903,
          "velocity": 0.7874015748031497,
          "duration": 0.06578937500000848
        },
        {
          "name": "F#4",
          "midi": 66,
          "time": 196.97338874999903,
          "velocity": 0.7874015748031497,
          "duration": 0.06578937500000848
        },
        {
          "name": "D5",
          "midi": 74,
          "time": 196.97338874999903,
          "velocity": 0.7874015748031497,
          "duration": 0.06578937500000848
        },
        {
          "name": "F#5",
          "midi": 78,
          "time": 196.97338874999903,
          "velocity": 0.7874015748031497,
          "duration": 0.06578937500000848
        },
        {
          "name": "D6",
          "midi": 86,
          "time": 196.97338874999903,
          "velocity": 0.7874015748031497,
          "duration": 0.06578937500000848
        },
        {
          "name": "F#6",
          "midi": 90,
          "time": 196.97338874999903,
          "velocity": 0.7874015748031497,
          "duration": 0.06578937500000848
        },
        {
          "name": "D7",
          "midi": 98,
          "time": 196.97338874999903,
          "velocity": 0.7874015748031497,
          "duration": 0.06578937500000848
        },
        {
          "name": "F#7",
          "midi": 102,
          "time": 196.97338874999903,
          "velocity": 0.7874015748031497,
          "duration": 0.06578937500000848
        },
        {
          "name": "C#6",
          "midi": 85,
          "time": 197.23654624999904,
          "velocity": 0.7874015748031497,
          "duration": 0.06469288541666174
        },
        {
          "name": "F#6",
          "midi": 90,
          "time": 197.23654624999904,
          "velocity": 0.7874015748031497,
          "duration": 0.06469288541666174
        },
        {
          "name": "C#7",
          "midi": 97,
          "time": 197.23654624999904,
          "velocity": 0.7874015748031497,
          "duration": 0.06469288541666174
        },
        {
          "name": "F#7",
          "midi": 102,
          "time": 197.23654624999904,
          "velocity": 0.7874015748031497,
          "duration": 0.06469288541666174
        },
        {
          "name": "C#4",
          "midi": 61,
          "time": 197.36812499999903,
          "velocity": 0.7874015748031497,
          "duration": 0.06578937500000848
        },
        {
          "name": "F#4",
          "midi": 66,
          "time": 197.36812499999903,
          "velocity": 0.7874015748031497,
          "duration": 0.06578937500000848
        },
        {
          "name": "D5",
          "midi": 74,
          "time": 197.36812499999903,
          "velocity": 0.7874015748031497,
          "duration": 0.06578937500000848
        },
        {
          "name": "F#5",
          "midi": 78,
          "time": 197.36812499999903,
          "velocity": 0.7874015748031497,
          "duration": 0.06578937500000848
        },
        {
          "name": "D6",
          "midi": 86,
          "time": 197.36812499999903,
          "velocity": 0.7874015748031497,
          "duration": 0.06578937500000848
        },
        {
          "name": "F6",
          "midi": 89,
          "time": 197.36812499999903,
          "velocity": 0.7874015748031497,
          "duration": 0.06578937500000848
        },
        {
          "name": "D7",
          "midi": 98,
          "time": 197.36812499999903,
          "velocity": 0.7874015748031497,
          "duration": 0.06578937500000848
        },
        {
          "name": "F7",
          "midi": 101,
          "time": 197.36812499999903,
          "velocity": 0.7874015748031497,
          "duration": 0.06578937500000848
        },
        {
          "name": "C5",
          "midi": 72,
          "time": 197.63237898958238,
          "velocity": 0.7874015748031497,
          "duration": 0.06469288541666174
        },
        {
          "name": "F5",
          "midi": 77,
          "time": 197.63237898958238,
          "velocity": 0.7874015748031497,
          "duration": 0.06469288541666174
        },
        {
          "name": "C#6",
          "midi": 85,
          "time": 197.63237898958238,
          "velocity": 0.7874015748031497,
          "duration": 0.06469288541666174
        },
        {
          "name": "F#6",
          "midi": 90,
          "time": 197.63237898958238,
          "velocity": 0.7874015748031497,
          "duration": 0.06469288541666174
        },
        {
          "name": "C#7",
          "midi": 97,
          "time": 197.63237898958238,
          "velocity": 0.7874015748031497,
          "duration": 0.06469288541666174
        },
        {
          "name": "F#7",
          "midi": 102,
          "time": 197.63237898958238,
          "velocity": 0.7874015748031497,
          "duration": 0.06469288541666174
        },
        {
          "name": "C#4",
          "midi": 61,
          "time": 197.89443999999904,
          "velocity": 0.7874015748031497,
          "duration": 0.5241220208333459
        },
        {
          "name": "F#4",
          "midi": 66,
          "time": 197.89443999999904,
          "velocity": 0.7874015748031497,
          "duration": 0.5241220208333459
        },
        {
          "name": "C#5",
          "midi": 73,
          "time": 197.89443999999904,
          "velocity": 0.7874015748031497,
          "duration": 0.5241220208333459
        },
        {
          "name": "F#5",
          "midi": 78,
          "time": 197.89443999999904,
          "velocity": 0.7874015748031497,
          "duration": 0.5241220208333459
        },
        {
          "name": "D6",
          "midi": 86,
          "time": 197.89443999999904,
          "velocity": 0.7874015748031497,
          "duration": 0.5241220208333459
        },
        {
          "name": "F#6",
          "midi": 90,
          "time": 197.89443999999904,
          "velocity": 0.7874015748031497,
          "duration": 0.5241220208333459
        },
        {
          "name": "D7",
          "midi": 98,
          "time": 197.89443999999904,
          "velocity": 0.7874015748031497,
          "duration": 0.5241220208333459
        },
        {
          "name": "F#7",
          "midi": 102,
          "time": 197.89443999999904,
          "velocity": 0.7874015748031497,
          "duration": 0.5241220208333459
        },
        {
          "name": "C#4",
          "midi": 61,
          "time": 198.68500898958237,
          "velocity": 0.7874015748031497,
          "duration": 0.39254327083332896
        },
        {
          "name": "F#4",
          "midi": 66,
          "time": 198.68500898958237,
          "velocity": 0.7874015748031497,
          "duration": 0.39254327083332896
        },
        {
          "name": "C#5",
          "midi": 73,
          "time": 198.68500898958237,
          "velocity": 0.7874015748031497,
          "duration": 0.39254327083332896
        },
        {
          "name": "F#5",
          "midi": 78,
          "time": 198.68500898958237,
          "velocity": 0.7874015748031497,
          "duration": 0.39254327083332896
        },
        {
          "name": "D6",
          "midi": 86,
          "time": 198.68500898958237,
          "velocity": 0.7874015748031497,
          "duration": 0.39254327083332896
        },
        {
          "name": "F#6",
          "midi": 90,
          "time": 198.68500898958237,
          "velocity": 0.7874015748031497,
          "duration": 0.39254327083332896
        },
        {
          "name": "D7",
          "midi": 98,
          "time": 198.68500898958237,
          "velocity": 0.7874015748031497,
          "duration": 0.39254327083332896
        },
        {
          "name": "F#7",
          "midi": 102,
          "time": 198.68500898958237,
          "velocity": 0.7874015748031497,
          "duration": 0.39254327083332896
        },
        {
          "name": "D4",
          "midi": 62,
          "time": 199.07974523958237,
          "velocity": 0.7874015748031497,
          "duration": 0.06469288541666174
        },
        {
          "name": "F#4",
          "midi": 66,
          "time": 199.07974523958237,
          "velocity": 0.7874015748031497,
          "duration": 0.06469288541666174
        },
        {
          "name": "D5",
          "midi": 74,
          "time": 199.07974523958237,
          "velocity": 0.7874015748031497,
          "duration": 0.06469288541666174
        },
        {
          "name": "F#5",
          "midi": 78,
          "time": 199.07974523958237,
          "velocity": 0.7874015748031497,
          "duration": 0.06469288541666174
        },
        {
          "name": "D#6",
          "midi": 87,
          "time": 199.07974523958237,
          "velocity": 0.7874015748031497,
          "duration": 0.06469288541666174
        },
        {
          "name": "F#6",
          "midi": 90,
          "time": 199.07974523958237,
          "velocity": 0.7874015748031497,
          "duration": 0.06469288541666174
        },
        {
          "name": "D#7",
          "midi": 99,
          "time": 199.07974523958237,
          "velocity": 0.7874015748031497,
          "duration": 0.06469288541666174
        },
        {
          "name": "F#7",
          "midi": 102,
          "time": 199.07974523958237,
          "velocity": 0.7874015748031497,
          "duration": 0.06469288541666174
        },
        {
          "name": "D6",
          "midi": 86,
          "time": 199.34290273958237,
          "velocity": 0.7874015748031497,
          "duration": 0.06469288541666174
        },
        {
          "name": "F#6",
          "midi": 90,
          "time": 199.34290273958237,
          "velocity": 0.7874015748031497,
          "duration": 0.06469288541666174
        },
        {
          "name": "D7",
          "midi": 98,
          "time": 199.34290273958237,
          "velocity": 0.7874015748031497,
          "duration": 0.06469288541666174
        },
        {
          "name": "F#7",
          "midi": 102,
          "time": 199.34290273958237,
          "velocity": 0.7874015748031497,
          "duration": 0.06469288541666174
        },
        {
          "name": "D4",
          "midi": 62,
          "time": 199.47338499999904,
          "velocity": 0.7874015748031497,
          "duration": 0.06578937500000848
        },
        {
          "name": "F#4",
          "midi": 66,
          "time": 199.47338499999904,
          "velocity": 0.7874015748031497,
          "duration": 0.06578937500000848
        },
        {
          "name": "D#5",
          "midi": 75,
          "time": 199.47338499999904,
          "velocity": 0.7874015748031497,
          "duration": 0.06578937500000848
        },
        {
          "name": "F#5",
          "midi": 78,
          "time": 199.47338499999904,
          "velocity": 0.7874015748031497,
          "duration": 0.06578937500000848
        },
        {
          "name": "D#6",
          "midi": 87,
          "time": 199.47338499999904,
          "velocity": 0.7874015748031497,
          "duration": 0.06578937500000848
        },
        {
          "name": "F6",
          "midi": 89,
          "time": 199.47338499999904,
          "velocity": 0.7874015748031497,
          "duration": 0.06578937500000848
        },
        {
          "name": "D#7",
          "midi": 99,
          "time": 199.47338499999904,
          "velocity": 0.7874015748031497,
          "duration": 0.06578937500000848
        },
        {
          "name": "F7",
          "midi": 101,
          "time": 199.47338499999904,
          "velocity": 0.7874015748031497,
          "duration": 0.06578937500000848
        },
        {
          "name": "E7",
          "midi": 100,
          "time": 199.5709725729157,
          "velocity": 0.7874015748031497,
          "duration": 0.06578937500000848
        },
        {
          "name": "F7",
          "midi": 101,
          "time": 199.5709725729157,
          "velocity": 0.7874015748031497,
          "duration": 0.06578937500000848
        },
        {
          "name": "C#4",
          "midi": 61,
          "time": 199.73654249999905,
          "velocity": 0.7874015748031497,
          "duration": 0.06578937500000848
        },
        {
          "name": "F#4",
          "midi": 66,
          "time": 199.73654249999905,
          "velocity": 0.7874015748031497,
          "duration": 0.06578937500000848
        },
        {
          "name": "D5",
          "midi": 74,
          "time": 199.73654249999905,
          "velocity": 0.7874015748031497,
          "duration": 0.06578937500000848
        },
        {
          "name": "F5",
          "midi": 77,
          "time": 199.73654249999905,
          "velocity": 0.7874015748031497,
          "duration": 0.06578937500000848
        },
        {
          "name": "D6",
          "midi": 86,
          "time": 199.73654249999905,
          "velocity": 0.7874015748031497,
          "duration": 0.06578937500000848
        },
        {
          "name": "F#6",
          "midi": 90,
          "time": 199.73654249999905,
          "velocity": 0.7874015748031497,
          "duration": 0.06578937500000848
        },
        {
          "name": "D#7",
          "midi": 99,
          "time": 199.73654249999905,
          "velocity": 0.7874015748031497,
          "duration": 0.06578937500000848
        },
        {
          "name": "F7",
          "midi": 101,
          "time": 199.73654249999905,
          "velocity": 0.7874015748031497,
          "duration": 0.06578937500000848
        },
        {
          "name": "D4",
          "midi": 62,
          "time": 199.99969999999905,
          "velocity": 0.7874015748031497,
          "duration": 0.06578937500000848
        },
        {
          "name": "F#4",
          "midi": 66,
          "time": 199.99969999999905,
          "velocity": 0.7874015748031497,
          "duration": 0.06578937500000848
        },
        {
          "name": "D#5",
          "midi": 75,
          "time": 199.99969999999905,
          "velocity": 0.7874015748031497,
          "duration": 0.06578937500000848
        },
        {
          "name": "F#5",
          "midi": 78,
          "time": 199.99969999999905,
          "velocity": 0.7874015748031497,
          "duration": 0.06578937500000848
        },
        {
          "name": "E6",
          "midi": 88,
          "time": 199.99969999999905,
          "velocity": 0.7874015748031497,
          "duration": 0.06578937500000848
        },
        {
          "name": "F#6",
          "midi": 90,
          "time": 199.99969999999905,
          "velocity": 0.7874015748031497,
          "duration": 0.06578937500000848
        },
        {
          "name": "D#7",
          "midi": 99,
          "time": 199.99969999999905,
          "velocity": 0.7874015748031497,
          "duration": 0.06578937500000848
        },
        {
          "name": "F#7",
          "midi": 102,
          "time": 199.99969999999905,
          "velocity": 0.7874015748031497,
          "duration": 0.06578937500000848
        },
        {
          "name": "E7",
          "midi": 100,
          "time": 200.09948055208238,
          "velocity": 0.7874015748031497,
          "duration": 0.06469288541666174
        },
        {
          "name": "F7",
          "midi": 101,
          "time": 200.09948055208238,
          "velocity": 0.7874015748031497,
          "duration": 0.06469288541666174
        },
        {
          "name": "D4",
          "midi": 62,
          "time": 200.26395398958238,
          "velocity": 0.7874015748031497,
          "duration": 0.06469288541666174
        },
        {
          "name": "F#4",
          "midi": 66,
          "time": 200.26395398958238,
          "velocity": 0.7874015748031497,
          "duration": 0.06469288541666174
        },
        {
          "name": "D5",
          "midi": 74,
          "time": 200.26395398958238,
          "velocity": 0.7874015748031497,
          "duration": 0.06469288541666174
        },
        {
          "name": "F#5",
          "midi": 78,
          "time": 200.26395398958238,
          "velocity": 0.7874015748031497,
          "duration": 0.06469288541666174
        },
        {
          "name": "D#6",
          "midi": 87,
          "time": 200.26395398958238,
          "velocity": 0.7874015748031497,
          "duration": 0.06469288541666174
        },
        {
          "name": "F#6",
          "midi": 90,
          "time": 200.26395398958238,
          "velocity": 0.7874015748031497,
          "duration": 0.06469288541666174
        },
        {
          "name": "D#7",
          "midi": 99,
          "time": 200.26395398958238,
          "velocity": 0.7874015748031497,
          "duration": 0.06469288541666174
        },
        {
          "name": "F7",
          "midi": 101,
          "time": 200.26395398958238,
          "velocity": 0.7874015748031497,
          "duration": 0.06469288541666174
        },
        {
          "name": "C#4",
          "midi": 61,
          "time": 200.52601499999903,
          "velocity": 0.7874015748031497,
          "duration": 0.06469288541666174
        },
        {
          "name": "F#4",
          "midi": 66,
          "time": 200.52601499999903,
          "velocity": 0.7874015748031497,
          "duration": 0.06469288541666174
        },
        {
          "name": "C#5",
          "midi": 73,
          "time": 200.52601499999903,
          "velocity": 0.7874015748031497,
          "duration": 0.06469288541666174
        },
        {
          "name": "F#5",
          "midi": 78,
          "time": 200.52601499999903,
          "velocity": 0.7874015748031497,
          "duration": 0.06469288541666174
        },
        {
          "name": "D6",
          "midi": 86,
          "time": 200.52601499999903,
          "velocity": 0.7874015748031497,
          "duration": 0.06469288541666174
        },
        {
          "name": "F#6",
          "midi": 90,
          "time": 200.52601499999903,
          "velocity": 0.7874015748031497,
          "duration": 0.06469288541666174
        },
        {
          "name": "D7",
          "midi": 98,
          "time": 200.52601499999903,
          "velocity": 0.7874015748031497,
          "duration": 0.06469288541666174
        },
        {
          "name": "F#7",
          "midi": 102,
          "time": 200.52601499999903,
          "velocity": 0.7874015748031497,
          "duration": 0.06469288541666174
        },
        {
          "name": "C#6",
          "midi": 85,
          "time": 200.79026898958236,
          "velocity": 0.7874015748031497,
          "duration": 0.06469288541666174
        },
        {
          "name": "F#6",
          "midi": 90,
          "time": 200.79026898958236,
          "velocity": 0.7874015748031497,
          "duration": 0.06469288541666174
        },
        {
          "name": "C#7",
          "midi": 97,
          "time": 200.79026898958236,
          "velocity": 0.7874015748031497,
          "duration": 0.06469288541666174
        },
        {
          "name": "F#7",
          "midi": 102,
          "time": 200.79026898958236,
          "velocity": 0.7874015748031497,
          "duration": 0.06469288541666174
        },
        {
          "name": "C#7",
          "midi": 97,
          "time": 201.019435312499,
          "velocity": 0.7874015748031497,
          "duration": 0.06578937500000848
        },
        {
          "name": "F#7",
          "midi": 102,
          "time": 201.019435312499,
          "velocity": 0.7874015748031497,
          "duration": 0.06578937500000848
        },
        {
          "name": "D4",
          "midi": 62,
          "time": 201.05232999999902,
          "velocity": 0.7874015748031497,
          "duration": 0.06469288541666174
        },
        {
          "name": "F#4",
          "midi": 66,
          "time": 201.05232999999902,
          "velocity": 0.7874015748031497,
          "duration": 0.06469288541666174
        },
        {
          "name": "D#5",
          "midi": 75,
          "time": 201.05232999999902,
          "velocity": 0.7874015748031497,
          "duration": 0.06469288541666174
        },
        {
          "name": "F#5",
          "midi": 78,
          "time": 201.05232999999902,
          "velocity": 0.7874015748031497,
          "duration": 0.06469288541666174
        },
        {
          "name": "D6",
          "midi": 86,
          "time": 201.05232999999902,
          "velocity": 0.7874015748031497,
          "duration": 0.06469288541666174
        },
        {
          "name": "F#6",
          "midi": 90,
          "time": 201.05232999999902,
          "velocity": 0.7874015748031497,
          "duration": 0.06469288541666174
        },
        {
          "name": "D7",
          "midi": 98,
          "time": 201.11811937499903,
          "velocity": 0.7874015748031497,
          "duration": 0.06469288541666174
        },
        {
          "name": "F7",
          "midi": 101,
          "time": 201.11811937499903,
          "velocity": 0.7874015748031497,
          "duration": 0.06469288541666174
        },
        {
          "name": "D4",
          "midi": 62,
          "time": 201.31439101041568,
          "velocity": 0.7874015748031497,
          "duration": 0.06469288541666174
        },
        {
          "name": "F#4",
          "midi": 66,
          "time": 201.31439101041568,
          "velocity": 0.7874015748031497,
          "duration": 0.06469288541666174
        },
        {
          "name": "D5",
          "midi": 74,
          "time": 201.31439101041568,
          "velocity": 0.7874015748031497,
          "duration": 0.06469288541666174
        },
        {
          "name": "F#5",
          "midi": 78,
          "time": 201.31439101041568,
          "velocity": 0.7874015748031497,
          "duration": 0.06469288541666174
        },
        {
          "name": "C#6",
          "midi": 85,
          "time": 201.31439101041568,
          "velocity": 0.7874015748031497,
          "duration": 0.06469288541666174
        },
        {
          "name": "F#6",
          "midi": 90,
          "time": 201.31439101041568,
          "velocity": 0.7874015748031497,
          "duration": 0.06469288541666174
        },
        {
          "name": "C#7",
          "midi": 97,
          "time": 201.31439101041568,
          "velocity": 0.7874015748031497,
          "duration": 0.06469288541666174
        },
        {
          "name": "F#7",
          "midi": 102,
          "time": 201.31439101041568,
          "velocity": 0.7874015748031497,
          "duration": 0.06469288541666174
        },
        {
          "name": "C#4",
          "midi": 61,
          "time": 201.578644999999,
          "velocity": 0.7874015748031497,
          "duration": 0.06578937500000848
        },
        {
          "name": "F#4",
          "midi": 66,
          "time": 201.578644999999,
          "velocity": 0.7874015748031497,
          "duration": 0.06578937500000848
        },
        {
          "name": "C#5",
          "midi": 73,
          "time": 201.578644999999,
          "velocity": 0.7874015748031497,
          "duration": 0.06578937500000848
        },
        {
          "name": "F#5",
          "midi": 78,
          "time": 201.578644999999,
          "velocity": 0.7874015748031497,
          "duration": 0.06578937500000848
        },
        {
          "name": "D#6",
          "midi": 87,
          "time": 201.578644999999,
          "velocity": 0.7874015748031497,
          "duration": 0.06578937500000848
        },
        {
          "name": "F#6",
          "midi": 90,
          "time": 201.578644999999,
          "velocity": 0.7874015748031497,
          "duration": 0.06578937500000848
        },
        {
          "name": "D#7",
          "midi": 99,
          "time": 201.578644999999,
          "velocity": 0.7874015748031497,
          "duration": 0.06578937500000848
        },
        {
          "name": "F#7",
          "midi": 102,
          "time": 201.578644999999,
          "velocity": 0.7874015748031497,
          "duration": 0.06578937500000848
        },
        {
          "name": "D6",
          "midi": 86,
          "time": 201.84289898958235,
          "velocity": 0.7874015748031497,
          "duration": 0.06469288541666174
        },
        {
          "name": "F#6",
          "midi": 90,
          "time": 201.84289898958235,
          "velocity": 0.7874015748031497,
          "duration": 0.06469288541666174
        },
        {
          "name": "D7",
          "midi": 98,
          "time": 201.84289898958235,
          "velocity": 0.7874015748031497,
          "duration": 0.06469288541666174
        },
        {
          "name": "F#7",
          "midi": 102,
          "time": 201.84289898958235,
          "velocity": 0.7874015748031497,
          "duration": 0.06469288541666174
        },
        {
          "name": "C4",
          "midi": 60,
          "time": 202.104959999999,
          "velocity": 0.7874015748031497,
          "duration": 0.5241220208333459
        },
        {
          "name": "F#4",
          "midi": 66,
          "time": 202.104959999999,
          "velocity": 0.7874015748031497,
          "duration": 0.5241220208333459
        },
        {
          "name": "C#5",
          "midi": 73,
          "time": 202.104959999999,
          "velocity": 0.7874015748031497,
          "duration": 0.5241220208333459
        },
        {
          "name": "F#5",
          "midi": 78,
          "time": 202.104959999999,
          "velocity": 0.7874015748031497,
          "duration": 0.5241220208333459
        },
        {
          "name": "C#6",
          "midi": 85,
          "time": 202.104959999999,
          "velocity": 0.7874015748031497,
          "duration": 0.5241220208333459
        },
        {
          "name": "F#6",
          "midi": 90,
          "time": 202.104959999999,
          "velocity": 0.7874015748031497,
          "duration": 0.5241220208333459
        },
        {
          "name": "C#7",
          "midi": 97,
          "time": 202.104959999999,
          "velocity": 0.7874015748031497,
          "duration": 0.5241220208333459
        },
        {
          "name": "F#7",
          "midi": 102,
          "time": 202.104959999999,
          "velocity": 0.7874015748031497,
          "duration": 0.5241220208333459
        },
        {
          "name": "C4",
          "midi": 60,
          "time": 202.89552898958235,
          "velocity": 0.7874015748031497,
          "duration": 0.3925432708333574
        },
        {
          "name": "F#4",
          "midi": 66,
          "time": 202.89552898958235,
          "velocity": 0.7874015748031497,
          "duration": 0.39144678125001064
        },
        {
          "name": "C#5",
          "midi": 73,
          "time": 202.89552898958235,
          "velocity": 0.7874015748031497,
          "duration": 0.3925432708333574
        },
        {
          "name": "F#5",
          "midi": 78,
          "time": 202.89552898958235,
          "velocity": 0.7874015748031497,
          "duration": 0.39144678125001064
        },
        {
          "name": "C#6",
          "midi": 85,
          "time": 202.89552898958235,
          "velocity": 0.7874015748031497,
          "duration": 0.3925432708333574
        },
        {
          "name": "F#6",
          "midi": 90,
          "time": 202.89552898958235,
          "velocity": 0.7874015748031497,
          "duration": 0.39144678125001064
        },
        {
          "name": "C#7",
          "midi": 97,
          "time": 202.89552898958235,
          "velocity": 0.7874015748031497,
          "duration": 0.3925432708333574
        },
        {
          "name": "F#7",
          "midi": 102,
          "time": 202.89552898958235,
          "velocity": 0.7874015748031497,
          "duration": 0.39144678125001064
        },
        {
          "name": "C#4",
          "midi": 61,
          "time": 203.28916874999905,
          "velocity": 0.7874015748031497,
          "duration": 0.06469288541666174
        },
        {
          "name": "F#4",
          "midi": 66,
          "time": 203.28916874999905,
          "velocity": 0.7874015748031497,
          "duration": 0.06469288541666174
        },
        {
          "name": "D5",
          "midi": 74,
          "time": 203.28916874999905,
          "velocity": 0.7874015748031497,
          "duration": 0.06469288541666174
        },
        {
          "name": "F#5",
          "midi": 78,
          "time": 203.28916874999905,
          "velocity": 0.7874015748031497,
          "duration": 0.06469288541666174
        },
        {
          "name": "D6",
          "midi": 86,
          "time": 203.28916874999905,
          "velocity": 0.7874015748031497,
          "duration": 0.06469288541666174
        },
        {
          "name": "F#6",
          "midi": 90,
          "time": 203.28916874999905,
          "velocity": 0.7874015748031497,
          "duration": 0.06469288541666174
        },
        {
          "name": "D7",
          "midi": 98,
          "time": 203.28916874999905,
          "velocity": 0.7874015748031497,
          "duration": 0.06469288541666174
        },
        {
          "name": "F#7",
          "midi": 102,
          "time": 203.28916874999905,
          "velocity": 0.7874015748031497,
          "duration": 0.06469288541666174
        },
        {
          "name": "D7",
          "midi": 98,
          "time": 203.42184398958238,
          "velocity": 0.7874015748031497,
          "duration": 0.06469288541666174
        },
        {
          "name": "F#7",
          "midi": 102,
          "time": 203.42184398958238,
          "velocity": 0.7874015748031497,
          "duration": 0.06469288541666174
        },
        {
          "name": "C#6",
          "midi": 85,
          "time": 203.55232624999906,
          "velocity": 0.7874015748031497,
          "duration": 0.06469288541666174
        },
        {
          "name": "F#6",
          "midi": 90,
          "time": 203.55232624999906,
          "velocity": 0.7874015748031497,
          "duration": 0.06469288541666174
        },
        {
          "name": "C#7",
          "midi": 97,
          "time": 203.55232624999906,
          "velocity": 0.7874015748031497,
          "duration": 0.06469288541666174
        },
        {
          "name": "F7",
          "midi": 101,
          "time": 203.55232624999906,
          "velocity": 0.7874015748031497,
          "duration": 0.06469288541666174
        },
        {
          "name": "C#4",
          "midi": 61,
          "time": 203.68390499999904,
          "velocity": 0.7874015748031497,
          "duration": 0.06469288541666174
        },
        {
          "name": "F#4",
          "midi": 66,
          "time": 203.68390499999904,
          "velocity": 0.7874015748031497,
          "duration": 0.06469288541666174
        },
        {
          "name": "D5",
          "midi": 74,
          "time": 203.68390499999904,
          "velocity": 0.7874015748031497,
          "duration": 0.06469288541666174
        },
        {
          "name": "F#5",
          "midi": 78,
          "time": 203.68390499999904,
          "velocity": 0.7874015748031497,
          "duration": 0.06469288541666174
        },
        {
          "name": "D6",
          "midi": 86,
          "time": 203.68390499999904,
          "velocity": 0.7874015748031497,
          "duration": 0.06469288541666174
        },
        {
          "name": "F6",
          "midi": 89,
          "time": 203.68390499999904,
          "velocity": 0.7874015748031497,
          "duration": 0.06469288541666174
        },
        {
          "name": "D7",
          "midi": 98,
          "time": 203.68390499999904,
          "velocity": 0.7874015748031497,
          "duration": 0.06469288541666174
        },
        {
          "name": "F7",
          "midi": 101,
          "time": 203.68390499999904,
          "velocity": 0.7874015748031497,
          "duration": 0.06469288541666174
        },
        {
          "name": "C#7",
          "midi": 97,
          "time": 203.81548374999903,
          "velocity": 0.7874015748031497,
          "duration": 0.06469288541666174
        },
        {
          "name": "F7",
          "midi": 101,
          "time": 203.81548374999903,
          "velocity": 0.7874015748031497,
          "duration": 0.06469288541666174
        },
        {
          "name": "C5",
          "midi": 72,
          "time": 203.9459660104157,
          "velocity": 0.7874015748031497,
          "duration": 0.06578937500000848
        },
        {
          "name": "F5",
          "midi": 77,
          "time": 203.9459660104157,
          "velocity": 0.7874015748031497,
          "duration": 0.06578937500000848
        },
        {
          "name": "C6",
          "midi": 84,
          "time": 203.9459660104157,
          "velocity": 0.7874015748031497,
          "duration": 0.06578937500000848
        },
        {
          "name": "F#6",
          "midi": 90,
          "time": 203.9459660104157,
          "velocity": 0.7874015748031497,
          "duration": 0.06578937500000848
        },
        {
          "name": "C7",
          "midi": 96,
          "time": 203.9459660104157,
          "velocity": 0.7874015748031497,
          "duration": 0.06578937500000848
        },
        {
          "name": "C4",
          "midi": 60,
          "time": 204.21021999999905,
          "velocity": 0.7874015748031497,
          "duration": 0.5241220208333459
        },
        {
          "name": "F#4",
          "midi": 66,
          "time": 204.21021999999905,
          "velocity": 0.7874015748031497,
          "duration": 0.5241220208333459
        },
        {
          "name": "C#5",
          "midi": 73,
          "time": 204.21021999999905,
          "velocity": 0.7874015748031497,
          "duration": 0.5241220208333459
        },
        {
          "name": "F#5",
          "midi": 78,
          "time": 204.21021999999905,
          "velocity": 0.7874015748031497,
          "duration": 0.5241220208333459
        },
        {
          "name": "C#6",
          "midi": 85,
          "time": 204.21021999999905,
          "velocity": 0.7874015748031497,
          "duration": 0.5241220208333459
        },
        {
          "name": "F#6",
          "midi": 90,
          "time": 204.21021999999905,
          "velocity": 0.7874015748031497,
          "duration": 0.5241220208333459
        },
        {
          "name": "C#7",
          "midi": 97,
          "time": 204.21021999999905,
          "velocity": 0.7874015748031497,
          "duration": 0.5241220208333459
        },
        {
          "name": "F#7",
          "midi": 102,
          "time": 204.21021999999905,
          "velocity": 0.7874015748031497,
          "duration": 0.5241220208333459
        },
        {
          "name": "C4",
          "midi": 60,
          "time": 204.99969249999907,
          "velocity": 0.7874015748031497,
          "duration": 0.3936397604166757
        },
        {
          "name": "F#4",
          "midi": 66,
          "time": 204.99969249999907,
          "velocity": 0.7874015748031497,
          "duration": 0.3936397604166757
        },
        {
          "name": "C#5",
          "midi": 73,
          "time": 204.99969249999907,
          "velocity": 0.7874015748031497,
          "duration": 0.3936397604166757
        },
        {
          "name": "F#5",
          "midi": 78,
          "time": 204.99969249999907,
          "velocity": 0.7874015748031497,
          "duration": 0.3936397604166757
        },
        {
          "name": "C#6",
          "midi": 85,
          "time": 204.99969249999907,
          "velocity": 0.7874015748031497,
          "duration": 0.3936397604166757
        },
        {
          "name": "F#6",
          "midi": 90,
          "time": 204.99969249999907,
          "velocity": 0.7874015748031497,
          "duration": 0.3936397604166757
        },
        {
          "name": "C#7",
          "midi": 97,
          "time": 204.99969249999907,
          "velocity": 0.7874015748031497,
          "duration": 0.3936397604166757
        },
        {
          "name": "F#7",
          "midi": 102,
          "time": 204.99969249999907,
          "velocity": 0.7874015748031497,
          "duration": 0.3936397604166757
        },
        {
          "name": "C#4",
          "midi": 61,
          "time": 205.3955252395824,
          "velocity": 0.7874015748031497,
          "duration": 0.06469288541666174
        },
        {
          "name": "F#4",
          "midi": 66,
          "time": 205.3955252395824,
          "velocity": 0.7874015748031497,
          "duration": 0.06469288541666174
        },
        {
          "name": "D5",
          "midi": 74,
          "time": 205.3955252395824,
          "velocity": 0.7874015748031497,
          "duration": 0.06469288541666174
        },
        {
          "name": "F#5",
          "midi": 78,
          "time": 205.3955252395824,
          "velocity": 0.7874015748031497,
          "duration": 0.06469288541666174
        },
        {
          "name": "D6",
          "midi": 86,
          "time": 205.3955252395824,
          "velocity": 0.7874015748031497,
          "duration": 0.06469288541666174
        },
        {
          "name": "F#6",
          "midi": 90,
          "time": 205.3955252395824,
          "velocity": 0.7874015748031497,
          "duration": 0.06469288541666174
        },
        {
          "name": "D7",
          "midi": 98,
          "time": 205.3955252395824,
          "velocity": 0.7874015748031497,
          "duration": 0.06469288541666174
        },
        {
          "name": "F#7",
          "midi": 102,
          "time": 205.3955252395824,
          "velocity": 0.7874015748031497,
          "duration": 0.06469288541666174
        },
        {
          "name": "D7",
          "midi": 98,
          "time": 205.52600749999908,
          "velocity": 0.7874015748031497,
          "duration": 0.06469288541666174
        },
        {
          "name": "F#7",
          "midi": 102,
          "time": 205.52600749999908,
          "velocity": 0.7874015748031497,
          "duration": 0.06469288541666174
        },
        {
          "name": "C#6",
          "midi": 85,
          "time": 205.65868273958242,
          "velocity": 0.7874015748031497,
          "duration": 0.06469288541666174
        },
        {
          "name": "F#6",
          "midi": 90,
          "time": 205.65868273958242,
          "velocity": 0.7874015748031497,
          "duration": 0.06469288541666174
        },
        {
          "name": "C#7",
          "midi": 97,
          "time": 205.65868273958242,
          "velocity": 0.7874015748031497,
          "duration": 0.06469288541666174
        },
        {
          "name": "F7",
          "midi": 101,
          "time": 205.65868273958242,
          "velocity": 0.7874015748031497,
          "duration": 0.06469288541666174
        },
        {
          "name": "C#4",
          "midi": 61,
          "time": 205.7891649999991,
          "velocity": 0.7874015748031497,
          "duration": 0.06469288541666174
        },
        {
          "name": "F#4",
          "midi": 66,
          "time": 205.7891649999991,
          "velocity": 0.7874015748031497,
          "duration": 0.06469288541666174
        },
        {
          "name": "D5",
          "midi": 74,
          "time": 205.7891649999991,
          "velocity": 0.7874015748031497,
          "duration": 0.06469288541666174
        },
        {
          "name": "F#5",
          "midi": 78,
          "time": 205.7891649999991,
          "velocity": 0.7874015748031497,
          "duration": 0.06469288541666174
        },
        {
          "name": "D6",
          "midi": 86,
          "time": 205.7891649999991,
          "velocity": 0.7874015748031497,
          "duration": 0.06469288541666174
        },
        {
          "name": "F6",
          "midi": 89,
          "time": 205.7891649999991,
          "velocity": 0.7874015748031497,
          "duration": 0.06469288541666174
        },
        {
          "name": "D7",
          "midi": 98,
          "time": 205.7891649999991,
          "velocity": 0.7874015748031497,
          "duration": 0.06469288541666174
        },
        {
          "name": "F7",
          "midi": 101,
          "time": 205.7891649999991,
          "velocity": 0.7874015748031497,
          "duration": 0.06469288541666174
        },
        {
          "name": "C#7",
          "midi": 97,
          "time": 205.92074374999908,
          "velocity": 0.7874015748031497,
          "duration": 0.06469288541666174
        },
        {
          "name": "F7",
          "midi": 101,
          "time": 205.92074374999908,
          "velocity": 0.7874015748031497,
          "duration": 0.06469288541666174
        },
        {
          "name": "C5",
          "midi": 72,
          "time": 206.05232249999906,
          "velocity": 0.7874015748031497,
          "duration": 0.06469288541666174
        },
        {
          "name": "F5",
          "midi": 77,
          "time": 206.05232249999906,
          "velocity": 0.7874015748031497,
          "duration": 0.06469288541666174
        },
        {
          "name": "C#6",
          "midi": 85,
          "time": 206.05232249999906,
          "velocity": 0.7874015748031497,
          "duration": 0.06469288541666174
        },
        {
          "name": "F#6",
          "midi": 90,
          "time": 206.05232249999906,
          "velocity": 0.7874015748031497,
          "duration": 0.06469288541666174
        },
        {
          "name": "C#7",
          "midi": 97,
          "time": 206.05232249999906,
          "velocity": 0.7874015748031497,
          "duration": 0.06469288541666174
        },
        {
          "name": "F#7",
          "midi": 102,
          "time": 206.05232249999906,
          "velocity": 0.7874015748031497,
          "duration": 0.06469288541666174
        },
        {
          "name": "C#4",
          "midi": 61,
          "time": 206.31547999999907,
          "velocity": 0.7874015748031497,
          "duration": 0.5241220208333459
        },
        {
          "name": "F#4",
          "midi": 66,
          "time": 206.31547999999907,
          "velocity": 0.7874015748031497,
          "duration": 0.5241220208333459
        },
        {
          "name": "C#5",
          "midi": 73,
          "time": 206.31547999999907,
          "velocity": 0.7874015748031497,
          "duration": 0.5241220208333459
        },
        {
          "name": "F#5",
          "midi": 78,
          "time": 206.31547999999907,
          "velocity": 0.7874015748031497,
          "duration": 0.5241220208333459
        },
        {
          "name": "D6",
          "midi": 86,
          "time": 206.31547999999907,
          "velocity": 0.7874015748031497,
          "duration": 0.5241220208333459
        },
        {
          "name": "F#6",
          "midi": 90,
          "time": 206.31547999999907,
          "velocity": 0.7874015748031497,
          "duration": 0.5241220208333459
        },
        {
          "name": "D7",
          "midi": 98,
          "time": 206.31547999999907,
          "velocity": 0.7874015748031497,
          "duration": 0.5241220208333459
        },
        {
          "name": "F#7",
          "midi": 102,
          "time": 206.31547999999907,
          "velocity": 0.7874015748031497,
          "duration": 0.5241220208333459
        },
        {
          "name": "C#4",
          "midi": 61,
          "time": 207.1060489895824,
          "velocity": 0.7874015748031497,
          "duration": 0.3925432708333574
        },
        {
          "name": "F#4",
          "midi": 66,
          "time": 207.1060489895824,
          "velocity": 0.7874015748031497,
          "duration": 0.39144678125001064
        },
        {
          "name": "C#5",
          "midi": 73,
          "time": 207.1060489895824,
          "velocity": 0.7874015748031497,
          "duration": 0.3925432708333574
        },
        {
          "name": "F#5",
          "midi": 78,
          "time": 207.1060489895824,
          "velocity": 0.7874015748031497,
          "duration": 0.39144678125001064
        },
        {
          "name": "D6",
          "midi": 86,
          "time": 207.1060489895824,
          "velocity": 0.7874015748031497,
          "duration": 0.3925432708333574
        },
        {
          "name": "F#6",
          "midi": 90,
          "time": 207.1060489895824,
          "velocity": 0.7874015748031497,
          "duration": 0.39144678125001064
        },
        {
          "name": "D7",
          "midi": 98,
          "time": 207.1060489895824,
          "velocity": 0.7874015748031497,
          "duration": 0.3925432708333574
        },
        {
          "name": "F#7",
          "midi": 102,
          "time": 207.1060489895824,
          "velocity": 0.7874015748031497,
          "duration": 0.39144678125001064
        },
        {
          "name": "D4",
          "midi": 62,
          "time": 207.4996887499991,
          "velocity": 0.7874015748031497,
          "duration": 0.06469288541666174
        },
        {
          "name": "F#4",
          "midi": 66,
          "time": 207.4996887499991,
          "velocity": 0.7874015748031497,
          "duration": 0.06469288541666174
        },
        {
          "name": "D5",
          "midi": 74,
          "time": 207.4996887499991,
          "velocity": 0.7874015748031497,
          "duration": 0.06469288541666174
        },
        {
          "name": "F#5",
          "midi": 78,
          "time": 207.4996887499991,
          "velocity": 0.7874015748031497,
          "duration": 0.06469288541666174
        },
        {
          "name": "D#6",
          "midi": 87,
          "time": 207.4996887499991,
          "velocity": 0.7874015748031497,
          "duration": 0.06469288541666174
        },
        {
          "name": "F#6",
          "midi": 90,
          "time": 207.4996887499991,
          "velocity": 0.7874015748031497,
          "duration": 0.06469288541666174
        },
        {
          "name": "D#7",
          "midi": 99,
          "time": 207.4996887499991,
          "velocity": 0.7874015748031497,
          "duration": 0.06469288541666174
        },
        {
          "name": "F#7",
          "midi": 102,
          "time": 207.4996887499991,
          "velocity": 0.7874015748031497,
          "duration": 0.06469288541666174
        },
        {
          "name": "D6",
          "midi": 86,
          "time": 207.63236398958244,
          "velocity": 0.7874015748031497,
          "duration": 0.06469288541666174
        },
        {
          "name": "F6",
          "midi": 89,
          "time": 207.63236398958244,
          "velocity": 0.7874015748031497,
          "duration": 0.06469288541666174
        },
        {
          "name": "D7",
          "midi": 98,
          "time": 207.63236398958244,
          "velocity": 0.7874015748031497,
          "duration": 0.06469288541666174
        },
        {
          "name": "F7",
          "midi": 101,
          "time": 207.63236398958244,
          "velocity": 0.7874015748031497,
          "duration": 0.06469288541666174
        },
        {
          "name": "D4",
          "midi": 62,
          "time": 207.8944249999991,
          "velocity": 0.7874015748031497,
          "duration": 0.06469288541666174
        },
        {
          "name": "F#4",
          "midi": 66,
          "time": 207.8944249999991,
          "velocity": 0.7874015748031497,
          "duration": 0.06469288541666174
        },
        {
          "name": "D#5",
          "midi": 75,
          "time": 207.8944249999991,
          "velocity": 0.7874015748031497,
          "duration": 0.06469288541666174
        },
        {
          "name": "F#5",
          "midi": 78,
          "time": 207.8944249999991,
          "velocity": 0.7874015748031497,
          "duration": 0.06469288541666174
        },
        {
          "name": "D#6",
          "midi": 87,
          "time": 207.8944249999991,
          "velocity": 0.7874015748031497,
          "duration": 0.06469288541666174
        },
        {
          "name": "F#6",
          "midi": 90,
          "time": 207.8944249999991,
          "velocity": 0.7874015748031497,
          "duration": 0.06469288541666174
        },
        {
          "name": "D#7",
          "midi": 99,
          "time": 207.8944249999991,
          "velocity": 0.7874015748031497,
          "duration": 0.06469288541666174
        },
        {
          "name": "F#7",
          "midi": 102,
          "time": 207.8944249999991,
          "velocity": 0.7874015748031497,
          "duration": 0.06469288541666174
        },
        {
          "name": "E7",
          "midi": 100,
          "time": 207.9931090624991,
          "velocity": 0.7874015748031497,
          "duration": 0.06578937500000848
        },
        {
          "name": "F7",
          "midi": 101,
          "time": 207.9931090624991,
          "velocity": 0.7874015748031497,
          "duration": 0.06578937500000848
        },
        {
          "name": "C#4",
          "midi": 61,
          "time": 208.1575824999991,
          "velocity": 0.7874015748031497,
          "duration": 0.06469288541666174
        },
        {
          "name": "F#4",
          "midi": 66,
          "time": 208.1575824999991,
          "velocity": 0.7874015748031497,
          "duration": 0.06469288541666174
        },
        {
          "name": "D5",
          "midi": 74,
          "time": 208.1575824999991,
          "velocity": 0.7874015748031497,
          "duration": 0.06469288541666174
        },
        {
          "name": "F5",
          "midi": 77,
          "time": 208.1575824999991,
          "velocity": 0.7874015748031497,
          "duration": 0.06469288541666174
        },
        {
          "name": "D6",
          "midi": 86,
          "time": 208.1575824999991,
          "velocity": 0.7874015748031497,
          "duration": 0.06469288541666174
        },
        {
          "name": "F#6",
          "midi": 90,
          "time": 208.1575824999991,
          "velocity": 0.7874015748031497,
          "duration": 0.06469288541666174
        },
        {
          "name": "D#7",
          "midi": 99,
          "time": 208.1575824999991,
          "velocity": 0.7874015748031497,
          "duration": 0.06469288541666174
        },
        {
          "name": "F7",
          "midi": 101,
          "time": 208.1575824999991,
          "velocity": 0.7874015748031497,
          "duration": 0.06469288541666174
        },
        {
          "name": "G#8",
          "midi": 116,
          "time": 208.4207399999991,
          "velocity": 0.7874015748031497,
          "duration": 2.6304785104167365
        },
        {
          "name": "D4",
          "midi": 62,
          "time": 208.4207399999991,
          "velocity": 0.7874015748031497,
          "duration": 0.06469288541666174
        },
        {
          "name": "F#4",
          "midi": 66,
          "time": 208.4207399999991,
          "velocity": 0.7874015748031497,
          "duration": 0.06469288541666174
        },
        {
          "name": "D#5",
          "midi": 75,
          "time": 208.4207399999991,
          "velocity": 0.7874015748031497,
          "duration": 0.06469288541666174
        },
        {
          "name": "F#5",
          "midi": 78,
          "time": 208.4207399999991,
          "velocity": 0.7874015748031497,
          "duration": 0.06469288541666174
        },
        {
          "name": "E6",
          "midi": 88,
          "time": 208.4207399999991,
          "velocity": 0.7874015748031497,
          "duration": 0.06469288541666174
        },
        {
          "name": "F#6",
          "midi": 90,
          "time": 208.4207399999991,
          "velocity": 0.7874015748031497,
          "duration": 0.06469288541666174
        },
        {
          "name": "D#7",
          "midi": 99,
          "time": 208.4207399999991,
          "velocity": 0.7874015748031497,
          "duration": 0.06469288541666174
        },
        {
          "name": "F#7",
          "midi": 102,
          "time": 208.4207399999991,
          "velocity": 0.7874015748031497,
          "duration": 0.06469288541666174
        },
        {
          "name": "E7",
          "midi": 100,
          "time": 208.5194240624991,
          "velocity": 0.7874015748031497,
          "duration": 0.06578937500000848
        },
        {
          "name": "F7",
          "midi": 101,
          "time": 208.5194240624991,
          "velocity": 0.7874015748031497,
          "duration": 0.06578937500000848
        },
        {
          "name": "D4",
          "midi": 62,
          "time": 208.68389749999912,
          "velocity": 0.7874015748031497,
          "duration": 0.06469288541666174
        },
        {
          "name": "F#4",
          "midi": 66,
          "time": 208.68389749999912,
          "velocity": 0.7874015748031497,
          "duration": 0.06469288541666174
        },
        {
          "name": "D5",
          "midi": 74,
          "time": 208.68389749999912,
          "velocity": 0.7874015748031497,
          "duration": 0.06469288541666174
        },
        {
          "name": "F#5",
          "midi": 78,
          "time": 208.68389749999912,
          "velocity": 0.7874015748031497,
          "duration": 0.06469288541666174
        },
        {
          "name": "D#6",
          "midi": 87,
          "time": 208.68389749999912,
          "velocity": 0.7874015748031497,
          "duration": 0.06469288541666174
        },
        {
          "name": "F#6",
          "midi": 90,
          "time": 208.68389749999912,
          "velocity": 0.7874015748031497,
          "duration": 0.06469288541666174
        },
        {
          "name": "D#7",
          "midi": 99,
          "time": 208.68389749999912,
          "velocity": 0.7874015748031497,
          "duration": 0.06469288541666174
        },
        {
          "name": "F7",
          "midi": 101,
          "time": 208.68389749999912,
          "velocity": 0.7874015748031497,
          "duration": 0.06469288541666174
        },
        {
          "name": "C#4",
          "midi": 61,
          "time": 208.94705499999912,
          "velocity": 0.7874015748031497,
          "duration": 0.06469288541666174
        },
        {
          "name": "F#4",
          "midi": 66,
          "time": 208.94705499999912,
          "velocity": 0.7874015748031497,
          "duration": 0.06469288541666174
        },
        {
          "name": "C#5",
          "midi": 73,
          "time": 208.94705499999912,
          "velocity": 0.7874015748031497,
          "duration": 0.06469288541666174
        },
        {
          "name": "F#5",
          "midi": 78,
          "time": 208.94705499999912,
          "velocity": 0.7874015748031497,
          "duration": 0.06469288541666174
        },
        {
          "name": "D6",
          "midi": 86,
          "time": 208.94705499999912,
          "velocity": 0.7874015748031497,
          "duration": 0.06469288541666174
        },
        {
          "name": "F#6",
          "midi": 90,
          "time": 208.94705499999912,
          "velocity": 0.7874015748031497,
          "duration": 0.06469288541666174
        },
        {
          "name": "D7",
          "midi": 98,
          "time": 208.94705499999912,
          "velocity": 0.7874015748031497,
          "duration": 0.06469288541666174
        },
        {
          "name": "F#7",
          "midi": 102,
          "time": 208.94705499999912,
          "velocity": 0.7874015748031497,
          "duration": 0.06469288541666174
        },
        {
          "name": "C#6",
          "midi": 85,
          "time": 209.21130898958245,
          "velocity": 0.7874015748031497,
          "duration": 0.06469288541666174
        },
        {
          "name": "F#6",
          "midi": 90,
          "time": 209.21130898958245,
          "velocity": 0.7874015748031497,
          "duration": 0.06469288541666174
        },
        {
          "name": "C#7",
          "midi": 97,
          "time": 209.21130898958245,
          "velocity": 0.7874015748031497,
          "duration": 0.06469288541666174
        },
        {
          "name": "F#7",
          "midi": 102,
          "time": 209.21130898958245,
          "velocity": 0.7874015748031497,
          "duration": 0.06469288541666174
        },
        {
          "name": "D4",
          "midi": 62,
          "time": 209.4733699999991,
          "velocity": 0.7874015748031497,
          "duration": 0.06688586458332679
        },
        {
          "name": "F#4",
          "midi": 66,
          "time": 209.4733699999991,
          "velocity": 0.7874015748031497,
          "duration": 0.06688586458332679
        },
        {
          "name": "D#5",
          "midi": 75,
          "time": 209.4733699999991,
          "velocity": 0.7874015748031497,
          "duration": 0.06688586458332679
        },
        {
          "name": "F#5",
          "midi": 78,
          "time": 209.4733699999991,
          "velocity": 0.7874015748031497,
          "duration": 0.06688586458332679
        },
        {
          "name": "E6",
          "midi": 88,
          "time": 209.4733699999991,
          "velocity": 0.7874015748031497,
          "duration": 0.06688586458332679
        },
        {
          "name": "F#6",
          "midi": 90,
          "time": 209.4733699999991,
          "velocity": 0.7874015748031497,
          "duration": 0.06688586458332679
        },
        {
          "name": "C#7",
          "midi": 97,
          "time": 209.4733699999991,
          "velocity": 0.7874015748031497,
          "duration": 0.06688586458332679
        },
        {
          "name": "F#7",
          "midi": 102,
          "time": 209.4733699999991,
          "velocity": 0.7874015748031497,
          "duration": 0.06688586458332679
        },
        {
          "name": "E7",
          "midi": 100,
          "time": 209.60604523958244,
          "velocity": 0.7874015748031497,
          "duration": 0.06578937500000848
        },
        {
          "name": "F7",
          "midi": 101,
          "time": 209.60604523958244,
          "velocity": 0.7874015748031497,
          "duration": 0.06578937500000848
        },
        {
          "name": "D4",
          "midi": 62,
          "time": 209.73762398958246,
          "velocity": 0.7874015748031497,
          "duration": 0.06578937500000848
        },
        {
          "name": "F#4",
          "midi": 66,
          "time": 209.73762398958246,
          "velocity": 0.7874015748031497,
          "duration": 0.06578937500000848
        },
        {
          "name": "D5",
          "midi": 74,
          "time": 209.73762398958246,
          "velocity": 0.7874015748031497,
          "duration": 0.06578937500000848
        },
        {
          "name": "F#5",
          "midi": 78,
          "time": 209.73762398958246,
          "velocity": 0.7874015748031497,
          "duration": 0.06578937500000848
        },
        {
          "name": "E6",
          "midi": 88,
          "time": 209.73762398958246,
          "velocity": 0.7874015748031497,
          "duration": 0.06578937500000848
        },
        {
          "name": "F#6",
          "midi": 90,
          "time": 209.73762398958246,
          "velocity": 0.7874015748031497,
          "duration": 0.06578937500000848
        },
        {
          "name": "E7",
          "midi": 100,
          "time": 209.73762398958246,
          "velocity": 0.7874015748031497,
          "duration": 0.06578937500000848
        },
        {
          "name": "F#7",
          "midi": 102,
          "time": 209.73762398958246,
          "velocity": 0.7874015748031497,
          "duration": 0.06578937500000848
        },
        {
          "name": "D#6",
          "midi": 87,
          "time": 209.86920273958248,
          "velocity": 0.7874015748031497,
          "duration": 0.06578937500000848
        },
        {
          "name": "F6",
          "midi": 89,
          "time": 209.86920273958248,
          "velocity": 0.7874015748031497,
          "duration": 0.06578937500000848
        },
        {
          "name": "D#7",
          "midi": 99,
          "time": 209.86920273958248,
          "velocity": 0.7874015748031497,
          "duration": 0.06578937500000848
        },
        {
          "name": "F7",
          "midi": 101,
          "time": 209.86920273958248,
          "velocity": 0.7874015748031497,
          "duration": 0.06578937500000848
        },
        {
          "name": "C#4",
          "midi": 61,
          "time": 209.99968499999915,
          "velocity": 0.7874015748031497,
          "duration": 0.06578937500000848
        },
        {
          "name": "F4",
          "midi": 65,
          "time": 209.99968499999915,
          "velocity": 0.7874015748031497,
          "duration": 0.06578937500000848
        },
        {
          "name": "C#5",
          "midi": 73,
          "time": 209.99968499999915,
          "velocity": 0.7874015748031497,
          "duration": 0.06578937500000848
        },
        {
          "name": "F5",
          "midi": 77,
          "time": 209.99968499999915,
          "velocity": 0.7874015748031497,
          "duration": 0.06578937500000848
        },
        {
          "name": "D6",
          "midi": 86,
          "time": 209.99968499999915,
          "velocity": 0.7874015748031497,
          "duration": 0.06578937500000848
        },
        {
          "name": "F6",
          "midi": 89,
          "time": 209.99968499999915,
          "velocity": 0.7874015748031497,
          "duration": 0.06578937500000848
        },
        {
          "name": "D7",
          "midi": 98,
          "time": 209.99968499999915,
          "velocity": 0.7874015748031497,
          "duration": 0.06578937500000848
        },
        {
          "name": "F7",
          "midi": 101,
          "time": 209.99968499999915,
          "velocity": 0.7874015748031497,
          "duration": 0.06578937500000848
        },
        {
          "name": "D#7",
          "midi": 99,
          "time": 210.13126374999916,
          "velocity": 0.7874015748031497,
          "duration": 0.06469288541666174
        },
        {
          "name": "F7",
          "midi": 101,
          "time": 210.13126374999916,
          "velocity": 0.7874015748031497,
          "duration": 0.06469288541666174
        },
        {
          "name": "D6",
          "midi": 86,
          "time": 210.2639389895825,
          "velocity": 0.7874015748031497,
          "duration": 0.06469288541666174
        },
        {
          "name": "F#6",
          "midi": 90,
          "time": 210.2639389895825,
          "velocity": 0.7874015748031497,
          "duration": 0.06469288541666174
        },
        {
          "name": "D7",
          "midi": 98,
          "time": 210.2639389895825,
          "velocity": 0.7874015748031497,
          "duration": 0.06469288541666174
        },
        {
          "name": "F7",
          "midi": 101,
          "time": 210.2639389895825,
          "velocity": 0.7874015748031497,
          "duration": 0.06469288541666174
        },
        {
          "name": "C4",
          "midi": 60,
          "time": 210.52599999999916,
          "velocity": 0.7874015748031497,
          "duration": 0.5241220208333459
        },
        {
          "name": "F#4",
          "midi": 66,
          "time": 210.52599999999916,
          "velocity": 0.7874015748031497,
          "duration": 0.5241220208333459
        },
        {
          "name": "C#5",
          "midi": 73,
          "time": 210.52599999999916,
          "velocity": 0.7874015748031497,
          "duration": 0.5241220208333459
        },
        {
          "name": "F#5",
          "midi": 78,
          "time": 210.52599999999916,
          "velocity": 0.7874015748031497,
          "duration": 0.5241220208333459
        },
        {
          "name": "C#6",
          "midi": 85,
          "time": 210.52599999999916,
          "velocity": 0.7874015748031497,
          "duration": 0.5241220208333459
        },
        {
          "name": "F#6",
          "midi": 90,
          "time": 210.52599999999916,
          "velocity": 0.7874015748031497,
          "duration": 0.5241220208333459
        },
        {
          "name": "C#7",
          "midi": 97,
          "time": 210.52599999999916,
          "velocity": 0.7874015748031497,
          "duration": 0.5241220208333459
        },
        {
          "name": "F#7",
          "midi": 102,
          "time": 210.52599999999916,
          "velocity": 0.7874015748031497,
          "duration": 0.5241220208333459
        },
        {
          "name": "C4",
          "midi": 60,
          "time": 211.31656898958252,
          "velocity": 0.7874015748031497,
          "duration": 0.3925432708333574
        },
        {
          "name": "F#4",
          "midi": 66,
          "time": 211.31656898958252,
          "velocity": 0.7874015748031497,
          "duration": 0.39144678125001064
        },
        {
          "name": "C#5",
          "midi": 73,
          "time": 211.31656898958252,
          "velocity": 0.7874015748031497,
          "duration": 0.3925432708333574
        },
        {
          "name": "F#5",
          "midi": 78,
          "time": 211.31656898958252,
          "velocity": 0.7874015748031497,
          "duration": 0.39144678125001064
        },
        {
          "name": "C#6",
          "midi": 85,
          "time": 211.31656898958252,
          "velocity": 0.7874015748031497,
          "duration": 0.3925432708333574
        },
        {
          "name": "F#6",
          "midi": 90,
          "time": 211.31656898958252,
          "velocity": 0.7874015748031497,
          "duration": 0.39144678125001064
        },
        {
          "name": "C#7",
          "midi": 97,
          "time": 211.31656898958252,
          "velocity": 0.7874015748031497,
          "duration": 0.3925432708333574
        },
        {
          "name": "F#7",
          "midi": 102,
          "time": 211.31656898958252,
          "velocity": 0.7874015748031497,
          "duration": 0.39144678125001064
        },
        {
          "name": "C4",
          "midi": 60,
          "time": 211.71020874999923,
          "velocity": 0.7874015748031497,
          "duration": 0.06578937500000848
        },
        {
          "name": "F#4",
          "midi": 66,
          "time": 211.71020874999923,
          "velocity": 0.7874015748031497,
          "duration": 0.06578937500000848
        },
        {
          "name": "C#5",
          "midi": 73,
          "time": 211.71020874999923,
          "velocity": 0.7874015748031497,
          "duration": 0.06578937500000848
        },
        {
          "name": "F#5",
          "midi": 78,
          "time": 211.71020874999923,
          "velocity": 0.7874015748031497,
          "duration": 0.06578937500000848
        },
        {
          "name": "C#6",
          "midi": 85,
          "time": 211.71020874999923,
          "velocity": 0.7874015748031497,
          "duration": 0.06578937500000848
        },
        {
          "name": "F#6",
          "midi": 90,
          "time": 211.71020874999923,
          "velocity": 0.7874015748031497,
          "duration": 0.06578937500000848
        },
        {
          "name": "C#7",
          "midi": 97,
          "time": 211.71020874999923,
          "velocity": 0.7874015748031497,
          "duration": 0.06578937500000848
        },
        {
          "name": "F#7",
          "midi": 102,
          "time": 211.71020874999923,
          "velocity": 0.7874015748031497,
          "duration": 0.06578937500000848
        },
        {
          "name": "C6",
          "midi": 84,
          "time": 211.97336624999923,
          "velocity": 0.7874015748031497,
          "duration": 0.06578937500000848
        },
        {
          "name": "C7",
          "midi": 96,
          "time": 211.97336624999923,
          "velocity": 0.7874015748031497,
          "duration": 0.06578937500000848
        },
        {
          "name": "C4",
          "midi": 60,
          "time": 212.10494499999925,
          "velocity": 0.7874015748031497,
          "duration": 0.06469288541666174
        },
        {
          "name": "F#4",
          "midi": 66,
          "time": 212.10494499999925,
          "velocity": 0.7874015748031497,
          "duration": 0.06469288541666174
        },
        {
          "name": "C#5",
          "midi": 73,
          "time": 212.10494499999925,
          "velocity": 0.7874015748031497,
          "duration": 0.06469288541666174
        },
        {
          "name": "F#5",
          "midi": 78,
          "time": 212.10494499999925,
          "velocity": 0.7874015748031497,
          "duration": 0.06469288541666174
        },
        {
          "name": "C#6",
          "midi": 85,
          "time": 212.10494499999925,
          "velocity": 0.7874015748031497,
          "duration": 0.06469288541666174
        },
        {
          "name": "F6",
          "midi": 89,
          "time": 212.10494499999925,
          "velocity": 0.7874015748031497,
          "duration": 0.06469288541666174
        },
        {
          "name": "C#7",
          "midi": 97,
          "time": 212.10494499999925,
          "velocity": 0.7874015748031497,
          "duration": 0.06469288541666174
        },
        {
          "name": "F7",
          "midi": 101,
          "time": 212.10494499999925,
          "velocity": 0.7874015748031497,
          "duration": 0.06469288541666174
        },
        {
          "name": "C7",
          "midi": 96,
          "time": 212.23762023958258,
          "velocity": 0.7874015748031497,
          "duration": 0.06469288541666174
        },
        {
          "name": "C5",
          "midi": 72,
          "time": 212.36810249999925,
          "velocity": 0.7874015748031497,
          "duration": 0.06469288541666174
        },
        {
          "name": "F#5",
          "midi": 78,
          "time": 212.36810249999925,
          "velocity": 0.7874015748031497,
          "duration": 0.06469288541666174
        },
        {
          "name": "C6",
          "midi": 84,
          "time": 212.36810249999925,
          "velocity": 0.7874015748031497,
          "duration": 0.06469288541666174
        },
        {
          "name": "F#6",
          "midi": 90,
          "time": 212.36810249999925,
          "velocity": 0.7874015748031497,
          "duration": 0.06469288541666174
        },
        {
          "name": "C7",
          "midi": 96,
          "time": 212.36810249999925,
          "velocity": 0.7874015748031497,
          "duration": 0.06469288541666174
        },
        {
          "name": "F7",
          "midi": 101,
          "time": 212.36810249999925,
          "velocity": 0.7874015748031497,
          "duration": 0.06469288541666174
        },
        {
          "name": "C4",
          "midi": 60,
          "time": 212.63125999999926,
          "velocity": 0.7874015748031497,
          "duration": 0.526315000000011
        },
        {
          "name": "F#4",
          "midi": 66,
          "time": 212.63125999999926,
          "velocity": 0.7874015748031497,
          "duration": 0.526315000000011
        },
        {
          "name": "C#5",
          "midi": 73,
          "time": 212.63125999999926,
          "velocity": 0.7874015748031497,
          "duration": 0.526315000000011
        },
        {
          "name": "F#5",
          "midi": 78,
          "time": 212.63125999999926,
          "velocity": 0.7874015748031497,
          "duration": 0.526315000000011
        },
        {
          "name": "C#6",
          "midi": 85,
          "time": 212.63125999999926,
          "velocity": 0.7874015748031497,
          "duration": 0.526315000000011
        },
        {
          "name": "F#6",
          "midi": 90,
          "time": 212.63125999999926,
          "velocity": 0.7874015748031497,
          "duration": 0.526315000000011
        },
        {
          "name": "C#7",
          "midi": 97,
          "time": 212.63125999999926,
          "velocity": 0.7874015748031497,
          "duration": 0.526315000000011
        },
        {
          "name": "F#7",
          "midi": 102,
          "time": 212.63125999999926,
          "velocity": 0.7874015748031497,
          "duration": 0.526315000000011
        },
        {
          "name": "C4",
          "midi": 60,
          "time": 213.42073249999927,
          "velocity": 0.7874015748031497,
          "duration": 0.3936397604166757
        },
        {
          "name": "F#4",
          "midi": 66,
          "time": 213.42073249999927,
          "velocity": 0.7874015748031497,
          "duration": 0.39254327083332896
        },
        {
          "name": "C#5",
          "midi": 73,
          "time": 213.42073249999927,
          "velocity": 0.7874015748031497,
          "duration": 0.3936397604166757
        },
        {
          "name": "F#5",
          "midi": 78,
          "time": 213.42073249999927,
          "velocity": 0.7874015748031497,
          "duration": 0.39254327083332896
        },
        {
          "name": "C#6",
          "midi": 85,
          "time": 213.42073249999927,
          "velocity": 0.7874015748031497,
          "duration": 0.3936397604166757
        },
        {
          "name": "F#6",
          "midi": 90,
          "time": 213.42073249999927,
          "velocity": 0.7874015748031497,
          "duration": 0.39254327083332896
        },
        {
          "name": "C#7",
          "midi": 97,
          "time": 213.42073249999927,
          "velocity": 0.7874015748031497,
          "duration": 0.3936397604166757
        },
        {
          "name": "F#7",
          "midi": 102,
          "time": 213.42073249999927,
          "velocity": 0.7874015748031497,
          "duration": 0.39254327083332896
        },
        {
          "name": "C#4",
          "midi": 61,
          "time": 213.8154687499993,
          "velocity": 0.7874015748031497,
          "duration": 0.06469288541666174
        },
        {
          "name": "F#4",
          "midi": 66,
          "time": 213.8154687499993,
          "velocity": 0.7874015748031497,
          "duration": 0.06469288541666174
        },
        {
          "name": "D5",
          "midi": 74,
          "time": 213.8154687499993,
          "velocity": 0.7874015748031497,
          "duration": 0.06469288541666174
        },
        {
          "name": "F#5",
          "midi": 78,
          "time": 213.8154687499993,
          "velocity": 0.7874015748031497,
          "duration": 0.06469288541666174
        },
        {
          "name": "D6",
          "midi": 86,
          "time": 213.8154687499993,
          "velocity": 0.7874015748031497,
          "duration": 0.06469288541666174
        },
        {
          "name": "F#6",
          "midi": 90,
          "time": 213.8154687499993,
          "velocity": 0.7874015748031497,
          "duration": 0.06469288541666174
        },
        {
          "name": "D7",
          "midi": 98,
          "time": 213.8154687499993,
          "velocity": 0.7874015748031497,
          "duration": 0.06469288541666174
        },
        {
          "name": "F#7",
          "midi": 102,
          "time": 213.8154687499993,
          "velocity": 0.7874015748031497,
          "duration": 0.06469288541666174
        },
        {
          "name": "D7",
          "midi": 98,
          "time": 213.9470474999993,
          "velocity": 0.7874015748031497,
          "duration": 0.06469288541666174
        },
        {
          "name": "F#7",
          "midi": 102,
          "time": 213.9470474999993,
          "velocity": 0.7874015748031497,
          "duration": 0.06469288541666174
        },
        {
          "name": "C#6",
          "midi": 85,
          "time": 214.07862624999927,
          "velocity": 0.7874015748031497,
          "duration": 0.06469288541666174
        },
        {
          "name": "F#6",
          "midi": 90,
          "time": 214.07862624999927,
          "velocity": 0.7874015748031497,
          "duration": 0.06469288541666174
        },
        {
          "name": "C#7",
          "midi": 97,
          "time": 214.07862624999927,
          "velocity": 0.7874015748031497,
          "duration": 0.06469288541666174
        },
        {
          "name": "F7",
          "midi": 101,
          "time": 214.07862624999927,
          "velocity": 0.7874015748031497,
          "duration": 0.06469288541666174
        },
        {
          "name": "C#4",
          "midi": 61,
          "time": 214.21020499999926,
          "velocity": 0.7874015748031497,
          "duration": 0.06578937500000848
        },
        {
          "name": "F#4",
          "midi": 66,
          "time": 214.21020499999926,
          "velocity": 0.7874015748031497,
          "duration": 0.06578937500000848
        },
        {
          "name": "D5",
          "midi": 74,
          "time": 214.21020499999926,
          "velocity": 0.7874015748031497,
          "duration": 0.06578937500000848
        },
        {
          "name": "F#5",
          "midi": 78,
          "time": 214.21020499999926,
          "velocity": 0.7874015748031497,
          "duration": 0.06578937500000848
        },
        {
          "name": "D6",
          "midi": 86,
          "time": 214.21020499999926,
          "velocity": 0.7874015748031497,
          "duration": 0.06578937500000848
        },
        {
          "name": "F6",
          "midi": 89,
          "time": 214.21020499999926,
          "velocity": 0.7874015748031497,
          "duration": 0.06578937500000848
        },
        {
          "name": "D7",
          "midi": 98,
          "time": 214.21020499999926,
          "velocity": 0.7874015748031497,
          "duration": 0.06578937500000848
        },
        {
          "name": "F7",
          "midi": 101,
          "time": 214.21020499999926,
          "velocity": 0.7874015748031497,
          "duration": 0.06578937500000848
        },
        {
          "name": "C#7",
          "midi": 97,
          "time": 214.34178374999928,
          "velocity": 0.7874015748031497,
          "duration": 0.06578937500000848
        },
        {
          "name": "F7",
          "midi": 101,
          "time": 214.34178374999928,
          "velocity": 0.7874015748031497,
          "duration": 0.06578937500000848
        },
        {
          "name": "C5",
          "midi": 72,
          "time": 214.4733624999993,
          "velocity": 0.7874015748031497,
          "duration": 0.06578937500000848
        },
        {
          "name": "F#5",
          "midi": 78,
          "time": 214.4733624999993,
          "velocity": 0.7874015748031497,
          "duration": 0.06578937500000848
        },
        {
          "name": "C6",
          "midi": 84,
          "time": 214.4733624999993,
          "velocity": 0.7874015748031497,
          "duration": 0.06578937500000848
        },
        {
          "name": "F#6",
          "midi": 90,
          "time": 214.4733624999993,
          "velocity": 0.7874015748031497,
          "duration": 0.06578937500000848
        },
        {
          "name": "C7",
          "midi": 96,
          "time": 214.4733624999993,
          "velocity": 0.7874015748031497,
          "duration": 0.06578937500000848
        },
        {
          "name": "F7",
          "midi": 101,
          "time": 214.4733624999993,
          "velocity": 0.7874015748031497,
          "duration": 0.06578937500000848
        },
        {
          "name": "C#4",
          "midi": 61,
          "time": 214.7365199999993,
          "velocity": 0.7874015748031497,
          "duration": 0.5230255312499992
        },
        {
          "name": "F#4",
          "midi": 66,
          "time": 214.7365199999993,
          "velocity": 0.7874015748031497,
          "duration": 0.5230255312499992
        },
        {
          "name": "C#5",
          "midi": 73,
          "time": 214.7365199999993,
          "velocity": 0.7874015748031497,
          "duration": 0.5230255312499992
        },
        {
          "name": "F#5",
          "midi": 78,
          "time": 214.7365199999993,
          "velocity": 0.7874015748031497,
          "duration": 0.5230255312499992
        },
        {
          "name": "D6",
          "midi": 86,
          "time": 214.7365199999993,
          "velocity": 0.7874015748031497,
          "duration": 0.5230255312499992
        },
        {
          "name": "F#6",
          "midi": 90,
          "time": 214.7365199999993,
          "velocity": 0.7874015748031497,
          "duration": 0.5230255312499992
        },
        {
          "name": "D7",
          "midi": 98,
          "time": 214.7365199999993,
          "velocity": 0.7874015748031497,
          "duration": 0.5230255312499992
        },
        {
          "name": "F#7",
          "midi": 102,
          "time": 214.7365199999993,
          "velocity": 0.7874015748031497,
          "duration": 0.5230255312499992
        },
        {
          "name": "C#4",
          "midi": 61,
          "time": 215.5259924999993,
          "velocity": 0.7874015748031497,
          "duration": 0.3936397604166757
        },
        {
          "name": "F#4",
          "midi": 66,
          "time": 215.5259924999993,
          "velocity": 0.7874015748031497,
          "duration": 0.39254327083332896
        },
        {
          "name": "C#5",
          "midi": 73,
          "time": 215.5259924999993,
          "velocity": 0.7874015748031497,
          "duration": 0.3936397604166757
        },
        {
          "name": "F#5",
          "midi": 78,
          "time": 215.5259924999993,
          "velocity": 0.7874015748031497,
          "duration": 0.39254327083332896
        },
        {
          "name": "D6",
          "midi": 86,
          "time": 215.5259924999993,
          "velocity": 0.7874015748031497,
          "duration": 0.3936397604166757
        },
        {
          "name": "F#6",
          "midi": 90,
          "time": 215.5259924999993,
          "velocity": 0.7874015748031497,
          "duration": 0.39254327083332896
        },
        {
          "name": "D7",
          "midi": 98,
          "time": 215.5259924999993,
          "velocity": 0.7874015748031497,
          "duration": 0.3936397604166757
        },
        {
          "name": "F#7",
          "midi": 102,
          "time": 215.5259924999993,
          "velocity": 0.7874015748031497,
          "duration": 0.39254327083332896
        },
        {
          "name": "D4",
          "midi": 62,
          "time": 215.9207287499993,
          "velocity": 0.7874015748031497,
          "duration": 0.06469288541666174
        },
        {
          "name": "F#4",
          "midi": 66,
          "time": 215.9207287499993,
          "velocity": 0.7874015748031497,
          "duration": 0.06469288541666174
        },
        {
          "name": "D5",
          "midi": 74,
          "time": 215.9207287499993,
          "velocity": 0.7874015748031497,
          "duration": 0.06469288541666174
        },
        {
          "name": "F#5",
          "midi": 78,
          "time": 215.9207287499993,
          "velocity": 0.7874015748031497,
          "duration": 0.06469288541666174
        },
        {
          "name": "D#6",
          "midi": 87,
          "time": 215.9207287499993,
          "velocity": 0.7874015748031497,
          "duration": 0.06469288541666174
        },
        {
          "name": "F#6",
          "midi": 90,
          "time": 215.9207287499993,
          "velocity": 0.7874015748031497,
          "duration": 0.06469288541666174
        },
        {
          "name": "D#7",
          "midi": 99,
          "time": 215.9207287499993,
          "velocity": 0.7874015748031497,
          "duration": 0.06469288541666174
        },
        {
          "name": "F#7",
          "midi": 102,
          "time": 215.9207287499993,
          "velocity": 0.7874015748031497,
          "duration": 0.06469288541666174
        },
        {
          "name": "C#4",
          "midi": 61,
          "time": 216.3154649999993,
          "velocity": 0.7874015748031497,
          "duration": 0.06578937500000848
        },
        {
          "name": "F#4",
          "midi": 66,
          "time": 216.3154649999993,
          "velocity": 0.7874015748031497,
          "duration": 0.06578937500000848
        },
        {
          "name": "C#5",
          "midi": 73,
          "time": 216.3154649999993,
          "velocity": 0.7874015748031497,
          "duration": 0.06578937500000848
        },
        {
          "name": "F#5",
          "midi": 78,
          "time": 216.3154649999993,
          "velocity": 0.7874015748031497,
          "duration": 0.06578937500000848
        },
        {
          "name": "D6",
          "midi": 86,
          "time": 216.3154649999993,
          "velocity": 0.7874015748031497,
          "duration": 0.06578937500000848
        },
        {
          "name": "F#6",
          "midi": 90,
          "time": 216.3154649999993,
          "velocity": 0.7874015748031497,
          "duration": 0.06578937500000848
        },
        {
          "name": "D7",
          "midi": 98,
          "time": 216.3154649999993,
          "velocity": 0.7874015748031497,
          "duration": 0.06578937500000848
        },
        {
          "name": "F#7",
          "midi": 102,
          "time": 216.3154649999993,
          "velocity": 0.7874015748031497,
          "duration": 0.06578937500000848
        },
        {
          "name": "D4",
          "midi": 62,
          "time": 216.5786224999993,
          "velocity": 0.7874015748031497,
          "duration": 0.06578937500000848
        },
        {
          "name": "F#4",
          "midi": 66,
          "time": 216.5786224999993,
          "velocity": 0.7874015748031497,
          "duration": 0.06578937500000848
        },
        {
          "name": "E6",
          "midi": 88,
          "time": 216.5786224999993,
          "velocity": 0.7874015748031497,
          "duration": 0.06578937500000848
        },
        {
          "name": "F#6",
          "midi": 90,
          "time": 216.5786224999993,
          "velocity": 0.7874015748031497,
          "duration": 0.06578937500000848
        },
        {
          "name": "E7",
          "midi": 100,
          "time": 216.5786224999993,
          "velocity": 0.7874015748031497,
          "duration": 0.06578937500000848
        },
        {
          "name": "F#7",
          "midi": 102,
          "time": 216.5786224999993,
          "velocity": 0.7874015748031497,
          "duration": 0.06578937500000848
        },
        {
          "name": "C#4",
          "midi": 61,
          "time": 216.84177999999932,
          "velocity": 0.7874015748031497,
          "duration": 0.06469288541666174
        },
        {
          "name": "F#4",
          "midi": 66,
          "time": 216.84177999999932,
          "velocity": 0.7874015748031497,
          "duration": 0.06469288541666174
        },
        {
          "name": "D#5",
          "midi": 75,
          "time": 216.84177999999932,
          "velocity": 0.7874015748031497,
          "duration": 0.06469288541666174
        },
        {
          "name": "F#5",
          "midi": 78,
          "time": 216.84177999999932,
          "velocity": 0.7874015748031497,
          "duration": 0.06469288541666174
        },
        {
          "name": "D#6",
          "midi": 87,
          "time": 216.84177999999932,
          "velocity": 0.7874015748031497,
          "duration": 0.06469288541666174
        },
        {
          "name": "F#6",
          "midi": 90,
          "time": 216.84177999999932,
          "velocity": 0.7874015748031497,
          "duration": 0.06469288541666174
        },
        {
          "name": "D#7",
          "midi": 99,
          "time": 216.84177999999932,
          "velocity": 0.7874015748031497,
          "duration": 0.06469288541666174
        },
        {
          "name": "F#7",
          "midi": 102,
          "time": 216.84177999999932,
          "velocity": 0.7874015748031497,
          "duration": 0.06469288541666174
        },
        {
          "name": "D5",
          "midi": 74,
          "time": 217.10493749999932,
          "velocity": 0.7874015748031497,
          "duration": 0.06469288541666174
        },
        {
          "name": "F#5",
          "midi": 78,
          "time": 217.10493749999932,
          "velocity": 0.7874015748031497,
          "duration": 0.06469288541666174
        },
        {
          "name": "D6",
          "midi": 86,
          "time": 217.10493749999932,
          "velocity": 0.7874015748031497,
          "duration": 0.06469288541666174
        },
        {
          "name": "F#6",
          "midi": 90,
          "time": 217.10493749999932,
          "velocity": 0.7874015748031497,
          "duration": 0.06469288541666174
        },
        {
          "name": "D7",
          "midi": 98,
          "time": 217.10493749999932,
          "velocity": 0.7874015748031497,
          "duration": 0.06469288541666174
        },
        {
          "name": "F#7",
          "midi": 102,
          "time": 217.10493749999932,
          "velocity": 0.7874015748031497,
          "duration": 0.06469288541666174
        },
        {
          "name": "C#4",
          "midi": 61,
          "time": 217.36809499999933,
          "velocity": 0.7874015748031497,
          "duration": 0.06469288541666174
        },
        {
          "name": "F#4",
          "midi": 66,
          "time": 217.36809499999933,
          "velocity": 0.7874015748031497,
          "duration": 0.06469288541666174
        },
        {
          "name": "C#5",
          "midi": 73,
          "time": 217.36809499999933,
          "velocity": 0.7874015748031497,
          "duration": 0.06469288541666174
        },
        {
          "name": "F#5",
          "midi": 78,
          "time": 217.36809499999933,
          "velocity": 0.7874015748031497,
          "duration": 0.06469288541666174
        },
        {
          "name": "C#6",
          "midi": 85,
          "time": 217.36809499999933,
          "velocity": 0.7874015748031497,
          "duration": 0.06469288541666174
        },
        {
          "name": "F#6",
          "midi": 90,
          "time": 217.36809499999933,
          "velocity": 0.7874015748031497,
          "duration": 0.06469288541666174
        },
        {
          "name": "C#7",
          "midi": 97,
          "time": 217.36809499999933,
          "velocity": 0.7874015748031497,
          "duration": 0.06469288541666174
        },
        {
          "name": "F#7",
          "midi": 102,
          "time": 217.36809499999933,
          "velocity": 0.7874015748031497,
          "duration": 0.06469288541666174
        },
        {
          "name": "D4",
          "midi": 62,
          "time": 217.63234898958265,
          "velocity": 0.7874015748031497,
          "duration": 0.5241220208333743
        },
        {
          "name": "F#4",
          "midi": 66,
          "time": 217.63234898958265,
          "velocity": 0.7874015748031497,
          "duration": 0.5230255312500276
        },
        {
          "name": "D#5",
          "midi": 75,
          "time": 217.63234898958265,
          "velocity": 0.7874015748031497,
          "duration": 0.5241220208333743
        },
        {
          "name": "F#5",
          "midi": 78,
          "time": 217.63234898958265,
          "velocity": 0.7874015748031497,
          "duration": 0.5230255312500276
        },
        {
          "name": "E6",
          "midi": 88,
          "time": 217.63234898958265,
          "velocity": 0.7874015748031497,
          "duration": 0.5241220208333743
        },
        {
          "name": "F#6",
          "midi": 90,
          "time": 217.63234898958265,
          "velocity": 0.7874015748031497,
          "duration": 0.5230255312500276
        },
        {
          "name": "D#7",
          "midi": 99,
          "time": 217.63234898958265,
          "velocity": 0.7874015748031497,
          "duration": 0.06469288541666174
        },
        {
          "name": "F#7",
          "midi": 102,
          "time": 217.63234898958265,
          "velocity": 0.7874015748031497,
          "duration": 0.06469288541666174
        },
        {
          "name": "E7",
          "midi": 100,
          "time": 217.76283124999932,
          "velocity": 0.7874015748031497,
          "duration": 0.3278503854166672
        },
        {
          "name": "F7",
          "midi": 101,
          "time": 217.76283124999932,
          "velocity": 0.7874015748031497,
          "duration": 0.3278503854166672
        },
        {
          "name": "E7",
          "midi": 100,
          "time": 218.09177812499934,
          "velocity": 0.7874015748031497,
          "duration": 0.06469288541669016
        },
        {
          "name": "F#7",
          "midi": 102,
          "time": 218.09177812499934,
          "velocity": 0.7874015748031497,
          "duration": 0.06469288541669016
        },
        {
          "name": "D4",
          "midi": 62,
          "time": 218.15756749999937,
          "velocity": 0.7874015748031497,
          "duration": 0.06469288541666174
        },
        {
          "name": "F#4",
          "midi": 66,
          "time": 218.15756749999937,
          "velocity": 0.7874015748031497,
          "duration": 0.06469288541666174
        },
        {
          "name": "D#5",
          "midi": 75,
          "time": 218.15756749999937,
          "velocity": 0.7874015748031497,
          "duration": 0.06469288541666174
        },
        {
          "name": "F#5",
          "midi": 78,
          "time": 218.15756749999937,
          "velocity": 0.7874015748031497,
          "duration": 0.06469288541666174
        },
        {
          "name": "E6",
          "midi": 88,
          "time": 218.15756749999937,
          "velocity": 0.7874015748031497,
          "duration": 0.06469288541666174
        },
        {
          "name": "F#6",
          "midi": 90,
          "time": 218.15756749999937,
          "velocity": 0.7874015748031497,
          "duration": 0.06469288541666174
        },
        {
          "name": "D#7",
          "midi": 99,
          "time": 218.35493562499937,
          "velocity": 0.7874015748031497,
          "duration": 0.06469288541666174
        },
        {
          "name": "F#7",
          "midi": 102,
          "time": 218.35493562499937,
          "velocity": 0.7874015748031497,
          "duration": 0.06469288541666174
        },
        {
          "name": "C#4",
          "midi": 61,
          "time": 218.42072499999938,
          "velocity": 0.7874015748031497,
          "duration": 0.06578937500000848
        },
        {
          "name": "F#4",
          "midi": 66,
          "time": 218.42072499999938,
          "velocity": 0.7874015748031497,
          "duration": 0.06578937500000848
        },
        {
          "name": "D5",
          "midi": 74,
          "time": 218.42072499999938,
          "velocity": 0.7874015748031497,
          "duration": 0.06578937500000848
        },
        {
          "name": "F#5",
          "midi": 78,
          "time": 218.42072499999938,
          "velocity": 0.7874015748031497,
          "duration": 0.06578937500000848
        },
        {
          "name": "D#6",
          "midi": 87,
          "time": 218.42072499999938,
          "velocity": 0.7874015748031497,
          "duration": 0.06578937500000848
        },
        {
          "name": "F#6",
          "midi": 90,
          "time": 218.42072499999938,
          "velocity": 0.7874015748031497,
          "duration": 0.06578937500000848
        },
        {
          "name": "D7",
          "midi": 98,
          "time": 218.61809312499938,
          "velocity": 0.7874015748031497,
          "duration": 0.06469288541666174
        },
        {
          "name": "F#7",
          "midi": 102,
          "time": 218.61809312499938,
          "velocity": 0.7874015748031497,
          "duration": 0.06469288541666174
        },
        {
          "name": "D6",
          "midi": 86,
          "time": 218.6849789895827,
          "velocity": 0.7874015748031497,
          "duration": 0.06469288541666174
        },
        {
          "name": "F#6",
          "midi": 90,
          "time": 218.6849789895827,
          "velocity": 0.7874015748031497,
          "duration": 0.06469288541666174
        },
        {
          "name": "C4",
          "midi": 60,
          "time": 218.94703999999936,
          "velocity": 0.7874015748031497,
          "duration": 0.5241220208333459
        },
        {
          "name": "F#4",
          "midi": 66,
          "time": 218.94703999999936,
          "velocity": 0.7874015748031497,
          "duration": 0.5241220208333459
        },
        {
          "name": "C#5",
          "midi": 73,
          "time": 218.94703999999936,
          "velocity": 0.7874015748031497,
          "duration": 0.5241220208333459
        },
        {
          "name": "F#5",
          "midi": 78,
          "time": 218.94703999999936,
          "velocity": 0.7874015748031497,
          "duration": 0.5241220208333459
        },
        {
          "name": "C#6",
          "midi": 85,
          "time": 218.94703999999936,
          "velocity": 0.7874015748031497,
          "duration": 0.5241220208333459
        },
        {
          "name": "F#6",
          "midi": 90,
          "time": 218.94703999999936,
          "velocity": 0.7874015748031497,
          "duration": 0.5241220208333459
        },
        {
          "name": "C#7",
          "midi": 97,
          "time": 218.94703999999936,
          "velocity": 0.7874015748031497,
          "duration": 0.5241220208333459
        },
        {
          "name": "F#7",
          "midi": 102,
          "time": 218.94703999999936,
          "velocity": 0.7874015748031497,
          "duration": 0.5241220208333459
        },
        {
          "name": "C4",
          "midi": 60,
          "time": 219.7376089895827,
          "velocity": 0.7874015748031497,
          "duration": 0.3925432708333574
        },
        {
          "name": "F#4",
          "midi": 66,
          "time": 219.7376089895827,
          "velocity": 0.7874015748031497,
          "duration": 0.39144678125001064
        },
        {
          "name": "C#5",
          "midi": 73,
          "time": 219.7376089895827,
          "velocity": 0.7874015748031497,
          "duration": 0.3925432708333574
        },
        {
          "name": "F#5",
          "midi": 78,
          "time": 219.7376089895827,
          "velocity": 0.7874015748031497,
          "duration": 0.39144678125001064
        },
        {
          "name": "C#6",
          "midi": 85,
          "time": 219.7376089895827,
          "velocity": 0.7874015748031497,
          "duration": 0.3925432708333574
        },
        {
          "name": "F#6",
          "midi": 90,
          "time": 219.7376089895827,
          "velocity": 0.7874015748031497,
          "duration": 0.39144678125001064
        },
        {
          "name": "C#7",
          "midi": 97,
          "time": 219.7376089895827,
          "velocity": 0.7874015748031497,
          "duration": 0.3925432708333574
        },
        {
          "name": "F#7",
          "midi": 102,
          "time": 219.7376089895827,
          "velocity": 0.7874015748031497,
          "duration": 0.39144678125001064
        },
        {
          "name": "C#4",
          "midi": 61,
          "time": 220.1312487499994,
          "velocity": 0.7874015748031497,
          "duration": 0.06469288541666174
        },
        {
          "name": "F#4",
          "midi": 66,
          "time": 220.1312487499994,
          "velocity": 0.7874015748031497,
          "duration": 0.06469288541666174
        },
        {
          "name": "D5",
          "midi": 74,
          "time": 220.1312487499994,
          "velocity": 0.7874015748031497,
          "duration": 0.06469288541666174
        },
        {
          "name": "F#5",
          "midi": 78,
          "time": 220.1312487499994,
          "velocity": 0.7874015748031497,
          "duration": 0.06469288541666174
        },
        {
          "name": "D6",
          "midi": 86,
          "time": 220.1312487499994,
          "velocity": 0.7874015748031497,
          "duration": 0.06469288541666174
        },
        {
          "name": "F#6",
          "midi": 90,
          "time": 220.1312487499994,
          "velocity": 0.7874015748031497,
          "duration": 0.06469288541666174
        },
        {
          "name": "D7",
          "midi": 98,
          "time": 220.1312487499994,
          "velocity": 0.7874015748031497,
          "duration": 0.06469288541666174
        },
        {
          "name": "F#7",
          "midi": 102,
          "time": 220.1312487499994,
          "velocity": 0.7874015748031497,
          "duration": 0.06469288541666174
        },
        {
          "name": "D7",
          "midi": 98,
          "time": 220.26392398958274,
          "velocity": 0.7874015748031497,
          "duration": 0.06469288541666174
        },
        {
          "name": "F#7",
          "midi": 102,
          "time": 220.26392398958274,
          "velocity": 0.7874015748031497,
          "duration": 0.06469288541666174
        },
        {
          "name": "C#6",
          "midi": 85,
          "time": 220.3944062499994,
          "velocity": 0.7874015748031497,
          "duration": 0.06469288541666174
        },
        {
          "name": "F#6",
          "midi": 90,
          "time": 220.3944062499994,
          "velocity": 0.7874015748031497,
          "duration": 0.06469288541666174
        },
        {
          "name": "C#7",
          "midi": 97,
          "time": 220.3944062499994,
          "velocity": 0.7874015748031497,
          "duration": 0.06469288541666174
        },
        {
          "name": "F7",
          "midi": 101,
          "time": 220.3944062499994,
          "velocity": 0.7874015748031497,
          "duration": 0.06469288541666174
        },
        {
          "name": "C#4",
          "midi": 61,
          "time": 220.5259849999994,
          "velocity": 0.7874015748031497,
          "duration": 0.06578937500000848
        },
        {
          "name": "F#4",
          "midi": 66,
          "time": 220.5259849999994,
          "velocity": 0.7874015748031497,
          "duration": 0.06578937500000848
        },
        {
          "name": "D5",
          "midi": 74,
          "time": 220.5259849999994,
          "velocity": 0.7874015748031497,
          "duration": 0.06578937500000848
        },
        {
          "name": "F#5",
          "midi": 78,
          "time": 220.5259849999994,
          "velocity": 0.7874015748031497,
          "duration": 0.06578937500000848
        },
        {
          "name": "D6",
          "midi": 86,
          "time": 220.5259849999994,
          "velocity": 0.7874015748031497,
          "duration": 0.06578937500000848
        },
        {
          "name": "F6",
          "midi": 89,
          "time": 220.5259849999994,
          "velocity": 0.7874015748031497,
          "duration": 0.06578937500000848
        },
        {
          "name": "D7",
          "midi": 98,
          "time": 220.5259849999994,
          "velocity": 0.7874015748031497,
          "duration": 0.06578937500000848
        },
        {
          "name": "F7",
          "midi": 101,
          "time": 220.5259849999994,
          "velocity": 0.7874015748031497,
          "duration": 0.06578937500000848
        },
        {
          "name": "C5",
          "midi": 72,
          "time": 220.7891424999994,
          "velocity": 0.7874015748031497,
          "duration": 0.06578937500000848
        },
        {
          "name": "F5",
          "midi": 77,
          "time": 220.7891424999994,
          "velocity": 0.7874015748031497,
          "duration": 0.06578937500000848
        },
        {
          "name": "C6",
          "midi": 84,
          "time": 220.7891424999994,
          "velocity": 0.7874015748031497,
          "duration": 0.06578937500000848
        },
        {
          "name": "F#6",
          "midi": 90,
          "time": 220.7891424999994,
          "velocity": 0.7874015748031497,
          "duration": 0.06578937500000848
        },
        {
          "name": "C7",
          "midi": 96,
          "time": 220.7891424999994,
          "velocity": 0.7874015748031497,
          "duration": 0.06578937500000848
        },
        {
          "name": "C4",
          "midi": 60,
          "time": 221.0522999999994,
          "velocity": 0.7874015748031497,
          "duration": 0.5241220208333459
        },
        {
          "name": "F#4",
          "midi": 66,
          "time": 221.0522999999994,
          "velocity": 0.7874015748031497,
          "duration": 0.5241220208333459
        },
        {
          "name": "C#5",
          "midi": 73,
          "time": 221.0522999999994,
          "velocity": 0.7874015748031497,
          "duration": 0.5241220208333459
        },
        {
          "name": "F#5",
          "midi": 78,
          "time": 221.0522999999994,
          "velocity": 0.7874015748031497,
          "duration": 0.5241220208333459
        },
        {
          "name": "C#6",
          "midi": 85,
          "time": 221.0522999999994,
          "velocity": 0.7874015748031497,
          "duration": 0.5241220208333459
        },
        {
          "name": "F#6",
          "midi": 90,
          "time": 221.0522999999994,
          "velocity": 0.7874015748031497,
          "duration": 0.5241220208333459
        },
        {
          "name": "C#7",
          "midi": 97,
          "time": 221.0522999999994,
          "velocity": 0.7874015748031497,
          "duration": 0.5241220208333459
        },
        {
          "name": "F#7",
          "midi": 102,
          "time": 221.0522999999994,
          "velocity": 0.7874015748031497,
          "duration": 0.5241220208333459
        },
        {
          "name": "C4",
          "midi": 60,
          "time": 221.84177249999942,
          "velocity": 0.7874015748031497,
          "duration": 0.3936397604166757
        },
        {
          "name": "F#4",
          "midi": 66,
          "time": 221.84177249999942,
          "velocity": 0.7874015748031497,
          "duration": 0.39254327083332896
        },
        {
          "name": "C#5",
          "midi": 73,
          "time": 221.84177249999942,
          "velocity": 0.7874015748031497,
          "duration": 0.3936397604166757
        },
        {
          "name": "F#5",
          "midi": 78,
          "time": 221.84177249999942,
          "velocity": 0.7874015748031497,
          "duration": 0.39254327083332896
        },
        {
          "name": "C#6",
          "midi": 85,
          "time": 221.84177249999942,
          "velocity": 0.7874015748031497,
          "duration": 0.3936397604166757
        },
        {
          "name": "F#6",
          "midi": 90,
          "time": 221.84177249999942,
          "velocity": 0.7874015748031497,
          "duration": 0.39254327083332896
        },
        {
          "name": "C#7",
          "midi": 97,
          "time": 221.84177249999942,
          "velocity": 0.7874015748031497,
          "duration": 0.3936397604166757
        },
        {
          "name": "F#7",
          "midi": 102,
          "time": 221.84177249999942,
          "velocity": 0.7874015748031497,
          "duration": 0.39254327083332896
        },
        {
          "name": "C#4",
          "midi": 61,
          "time": 222.23650874999944,
          "velocity": 0.7874015748031497,
          "duration": 0.06578937500000848
        },
        {
          "name": "F#4",
          "midi": 66,
          "time": 222.23650874999944,
          "velocity": 0.7874015748031497,
          "duration": 0.06578937500000848
        },
        {
          "name": "D5",
          "midi": 74,
          "time": 222.23650874999944,
          "velocity": 0.7874015748031497,
          "duration": 0.06578937500000848
        },
        {
          "name": "F#5",
          "midi": 78,
          "time": 222.23650874999944,
          "velocity": 0.7874015748031497,
          "duration": 0.06578937500000848
        },
        {
          "name": "D6",
          "midi": 86,
          "time": 222.23650874999944,
          "velocity": 0.7874015748031497,
          "duration": 0.06578937500000848
        },
        {
          "name": "F#6",
          "midi": 90,
          "time": 222.23650874999944,
          "velocity": 0.7874015748031497,
          "duration": 0.06578937500000848
        },
        {
          "name": "D7",
          "midi": 98,
          "time": 222.23650874999944,
          "velocity": 0.7874015748031497,
          "duration": 0.06578937500000848
        },
        {
          "name": "F#7",
          "midi": 102,
          "time": 222.23650874999944,
          "velocity": 0.7874015748031497,
          "duration": 0.06578937500000848
        },
        {
          "name": "D7",
          "midi": 98,
          "time": 222.36918398958278,
          "velocity": 0.7874015748031497,
          "duration": 0.06469288541666174
        },
        {
          "name": "F#7",
          "midi": 102,
          "time": 222.36918398958278,
          "velocity": 0.7874015748031497,
          "duration": 0.06469288541666174
        },
        {
          "name": "C#6",
          "midi": 85,
          "time": 222.49966624999945,
          "velocity": 0.7874015748031497,
          "duration": 0.06578937500000848
        },
        {
          "name": "F#6",
          "midi": 90,
          "time": 222.49966624999945,
          "velocity": 0.7874015748031497,
          "duration": 0.06578937500000848
        },
        {
          "name": "C#7",
          "midi": 97,
          "time": 222.49966624999945,
          "velocity": 0.7874015748031497,
          "duration": 0.06578937500000848
        },
        {
          "name": "F7",
          "midi": 101,
          "time": 222.49966624999945,
          "velocity": 0.7874015748031497,
          "duration": 0.06578937500000848
        },
        {
          "name": "C#4",
          "midi": 61,
          "time": 222.63124499999947,
          "velocity": 0.7874015748031497,
          "duration": 0.06578937500000848
        },
        {
          "name": "F#4",
          "midi": 66,
          "time": 222.63124499999947,
          "velocity": 0.7874015748031497,
          "duration": 0.06578937500000848
        },
        {
          "name": "D5",
          "midi": 74,
          "time": 222.63124499999947,
          "velocity": 0.7874015748031497,
          "duration": 0.06578937500000848
        },
        {
          "name": "F#5",
          "midi": 78,
          "time": 222.63124499999947,
          "velocity": 0.7874015748031497,
          "duration": 0.06578937500000848
        },
        {
          "name": "D6",
          "midi": 86,
          "time": 222.63124499999947,
          "velocity": 0.7874015748031497,
          "duration": 0.06578937500000848
        },
        {
          "name": "F6",
          "midi": 89,
          "time": 222.63124499999947,
          "velocity": 0.7874015748031497,
          "duration": 0.06578937500000848
        },
        {
          "name": "D7",
          "midi": 98,
          "time": 222.63124499999947,
          "velocity": 0.7874015748031497,
          "duration": 0.06578937500000848
        },
        {
          "name": "F7",
          "midi": 101,
          "time": 222.63124499999947,
          "velocity": 0.7874015748031497,
          "duration": 0.06578937500000848
        },
        {
          "name": "C#5",
          "midi": 73,
          "time": 222.89330601041615,
          "velocity": 0.7874015748031497,
          "duration": 0.06578937500000848
        },
        {
          "name": "F#5",
          "midi": 78,
          "time": 222.89330601041615,
          "velocity": 0.7874015748031497,
          "duration": 0.06578937500000848
        },
        {
          "name": "C#6",
          "midi": 85,
          "time": 222.89330601041615,
          "velocity": 0.7874015748031497,
          "duration": 0.06578937500000848
        },
        {
          "name": "F#6",
          "midi": 90,
          "time": 222.89330601041615,
          "velocity": 0.7874015748031497,
          "duration": 0.06578937500000848
        },
        {
          "name": "C#7",
          "midi": 97,
          "time": 222.89330601041615,
          "velocity": 0.7874015748031497,
          "duration": 0.06578937500000848
        },
        {
          "name": "F#7",
          "midi": 102,
          "time": 222.89330601041615,
          "velocity": 0.7874015748031497,
          "duration": 0.06578937500000848
        },
        {
          "name": "C4",
          "midi": 60,
          "time": 223.1575599999995,
          "velocity": 0.7874015748031497,
          "duration": 0.06469288541666174
        },
        {
          "name": "F#4",
          "midi": 66,
          "time": 223.1575599999995,
          "velocity": 0.7874015748031497,
          "duration": 0.06469288541666174
        },
        {
          "name": "C#5",
          "midi": 73,
          "time": 223.1575599999995,
          "velocity": 0.7874015748031497,
          "duration": 0.06469288541666174
        },
        {
          "name": "F#5",
          "midi": 78,
          "time": 223.1575599999995,
          "velocity": 0.7874015748031497,
          "duration": 0.06469288541666174
        },
        {
          "name": "D6",
          "midi": 86,
          "time": 223.1575599999995,
          "velocity": 0.7874015748031497,
          "duration": 0.06469288541666174
        },
        {
          "name": "F#6",
          "midi": 90,
          "time": 223.1575599999995,
          "velocity": 0.7874015748031497,
          "duration": 0.06469288541666174
        },
        {
          "name": "D7",
          "midi": 98,
          "time": 223.1575599999995,
          "velocity": 0.7874015748031497,
          "duration": 0.06469288541666174
        },
        {
          "name": "F#7",
          "midi": 102,
          "time": 223.1575599999995,
          "velocity": 0.7874015748031497,
          "duration": 0.06469288541666174
        },
        {
          "name": "C4",
          "midi": 60,
          "time": 223.42181398958283,
          "velocity": 0.7874015748031497,
          "duration": 0.06469288541666174
        },
        {
          "name": "F#4",
          "midi": 66,
          "time": 223.42181398958283,
          "velocity": 0.7874015748031497,
          "duration": 0.06469288541666174
        },
        {
          "name": "C#5",
          "midi": 73,
          "time": 223.42181398958283,
          "velocity": 0.7874015748031497,
          "duration": 0.06469288541666174
        },
        {
          "name": "F#5",
          "midi": 78,
          "time": 223.42181398958283,
          "velocity": 0.7874015748031497,
          "duration": 0.06469288541666174
        },
        {
          "name": "D6",
          "midi": 86,
          "time": 223.42181398958283,
          "velocity": 0.7874015748031497,
          "duration": 0.06469288541666174
        },
        {
          "name": "F#6",
          "midi": 90,
          "time": 223.42181398958283,
          "velocity": 0.7874015748031497,
          "duration": 0.06469288541666174
        },
        {
          "name": "D7",
          "midi": 98,
          "time": 223.42181398958283,
          "velocity": 0.7874015748031497,
          "duration": 0.06469288541666174
        },
        {
          "name": "F#7",
          "midi": 102,
          "time": 223.42181398958283,
          "velocity": 0.7874015748031497,
          "duration": 0.06469288541666174
        },
        {
          "name": "C#4",
          "midi": 61,
          "time": 223.6838749999995,
          "velocity": 0.7874015748031497,
          "duration": 0.06578937500000848
        },
        {
          "name": "F#4",
          "midi": 66,
          "time": 223.6838749999995,
          "velocity": 0.7874015748031497,
          "duration": 0.06578937500000848
        },
        {
          "name": "D5",
          "midi": 74,
          "time": 223.6838749999995,
          "velocity": 0.7874015748031497,
          "duration": 0.06578937500000848
        },
        {
          "name": "F#5",
          "midi": 78,
          "time": 223.6838749999995,
          "velocity": 0.7874015748031497,
          "duration": 0.06578937500000848
        },
        {
          "name": "D#6",
          "midi": 87,
          "time": 223.6838749999995,
          "velocity": 0.7874015748031497,
          "duration": 0.06578937500000848
        },
        {
          "name": "F#6",
          "midi": 90,
          "time": 223.6838749999995,
          "velocity": 0.7874015748031497,
          "duration": 0.06578937500000848
        },
        {
          "name": "D#7",
          "midi": 99,
          "time": 223.6838749999995,
          "velocity": 0.7874015748031497,
          "duration": 0.06578937500000848
        },
        {
          "name": "F#7",
          "midi": 102,
          "time": 223.6838749999995,
          "velocity": 0.7874015748031497,
          "duration": 0.06578937500000848
        },
        {
          "name": "D#6",
          "midi": 87,
          "time": 223.94812898958284,
          "velocity": 0.7874015748031497,
          "duration": 0.06469288541666174
        },
        {
          "name": "F#6",
          "midi": 90,
          "time": 223.94812898958284,
          "velocity": 0.7874015748031497,
          "duration": 0.06469288541666174
        },
        {
          "name": "D#7",
          "midi": 99,
          "time": 223.94812898958284,
          "velocity": 0.7874015748031497,
          "duration": 0.06469288541666174
        },
        {
          "name": "F#7",
          "midi": 102,
          "time": 223.94812898958284,
          "velocity": 0.7874015748031497,
          "duration": 0.06469288541666174
        },
        {
          "name": "D#7",
          "midi": 99,
          "time": 224.1772953124995,
          "velocity": 0.7874015748031497,
          "duration": 0.06469288541666174
        },
        {
          "name": "F#7",
          "midi": 102,
          "time": 224.1772953124995,
          "velocity": 0.7874015748031497,
          "duration": 0.06469288541666174
        },
        {
          "name": "D4",
          "midi": 62,
          "time": 224.2101899999995,
          "velocity": 0.7874015748031497,
          "duration": 0.06469288541666174
        },
        {
          "name": "F#4",
          "midi": 66,
          "time": 224.2101899999995,
          "velocity": 0.7874015748031497,
          "duration": 0.06469288541666174
        },
        {
          "name": "D#5",
          "midi": 75,
          "time": 224.2101899999995,
          "velocity": 0.7874015748031497,
          "duration": 0.06469288541666174
        },
        {
          "name": "F#5",
          "midi": 78,
          "time": 224.2101899999995,
          "velocity": 0.7874015748031497,
          "duration": 0.06469288541666174
        },
        {
          "name": "E6",
          "midi": 88,
          "time": 224.2101899999995,
          "velocity": 0.7874015748031497,
          "duration": 0.06469288541666174
        },
        {
          "name": "F#6",
          "midi": 90,
          "time": 224.2101899999995,
          "velocity": 0.7874015748031497,
          "duration": 0.06469288541666174
        },
        {
          "name": "E7",
          "midi": 100,
          "time": 224.2759793749995,
          "velocity": 0.7874015748031497,
          "duration": 0.06469288541666174
        },
        {
          "name": "F7",
          "midi": 101,
          "time": 224.2759793749995,
          "velocity": 0.7874015748031497,
          "duration": 0.06469288541666174
        },
        {
          "name": "D#5",
          "midi": 75,
          "time": 224.4733474999995,
          "velocity": 0.7874015748031497,
          "duration": 0.06469288541666174
        },
        {
          "name": "F#5",
          "midi": 78,
          "time": 224.4733474999995,
          "velocity": 0.7874015748031497,
          "duration": 0.06469288541666174
        },
        {
          "name": "E6",
          "midi": 88,
          "time": 224.4733474999995,
          "velocity": 0.7874015748031497,
          "duration": 0.06469288541666174
        },
        {
          "name": "F#6",
          "midi": 90,
          "time": 224.4733474999995,
          "velocity": 0.7874015748031497,
          "duration": 0.06469288541666174
        },
        {
          "name": "E7",
          "midi": 100,
          "time": 224.4733474999995,
          "velocity": 0.7874015748031497,
          "duration": 0.06469288541666174
        },
        {
          "name": "F#7",
          "midi": 102,
          "time": 224.4733474999995,
          "velocity": 0.7874015748031497,
          "duration": 0.06469288541666174
        },
        {
          "name": "C#4",
          "midi": 61,
          "time": 224.7365049999995,
          "velocity": 0.7874015748031497,
          "duration": 0.06469288541666174
        },
        {
          "name": "F#4",
          "midi": 66,
          "time": 224.7365049999995,
          "velocity": 0.7874015748031497,
          "duration": 0.06469288541666174
        },
        {
          "name": "D5",
          "midi": 74,
          "time": 224.7365049999995,
          "velocity": 0.7874015748031497,
          "duration": 0.06469288541666174
        },
        {
          "name": "F#5",
          "midi": 78,
          "time": 224.7365049999995,
          "velocity": 0.7874015748031497,
          "duration": 0.06469288541666174
        },
        {
          "name": "D#6",
          "midi": 87,
          "time": 224.7365049999995,
          "velocity": 0.7874015748031497,
          "duration": 0.06469288541666174
        },
        {
          "name": "F#6",
          "midi": 90,
          "time": 224.7365049999995,
          "velocity": 0.7874015748031497,
          "duration": 0.06469288541666174
        },
        {
          "name": "D#7",
          "midi": 99,
          "time": 224.7365049999995,
          "velocity": 0.7874015748031497,
          "duration": 0.06469288541666174
        },
        {
          "name": "F#7",
          "midi": 102,
          "time": 224.7365049999995,
          "velocity": 0.7874015748031497,
          "duration": 0.06469288541666174
        },
        {
          "name": "D4",
          "midi": 62,
          "time": 224.99966249999952,
          "velocity": 0.7874015748031497,
          "duration": 0.06469288541666174
        },
        {
          "name": "F#4",
          "midi": 66,
          "time": 224.99966249999952,
          "velocity": 0.7874015748031497,
          "duration": 0.06469288541666174
        },
        {
          "name": "D#5",
          "midi": 75,
          "time": 224.99966249999952,
          "velocity": 0.7874015748031497,
          "duration": 0.06469288541666174
        },
        {
          "name": "F#5",
          "midi": 78,
          "time": 224.99966249999952,
          "velocity": 0.7874015748031497,
          "duration": 0.06469288541666174
        },
        {
          "name": "E6",
          "midi": 88,
          "time": 224.99966249999952,
          "velocity": 0.7874015748031497,
          "duration": 0.06469288541666174
        },
        {
          "name": "F#6",
          "midi": 90,
          "time": 224.99966249999952,
          "velocity": 0.7874015748031497,
          "duration": 0.06469288541666174
        },
        {
          "name": "E7",
          "midi": 100,
          "time": 224.99966249999952,
          "velocity": 0.7874015748031497,
          "duration": 0.06469288541666174
        },
        {
          "name": "F#7",
          "midi": 102,
          "time": 224.99966249999952,
          "velocity": 0.7874015748031497,
          "duration": 0.06469288541666174
        },
        {
          "name": "C#4",
          "midi": 61,
          "time": 225.26281999999952,
          "velocity": 0.7874015748031497,
          "duration": 0.06469288541666174
        },
        {
          "name": "F#4",
          "midi": 66,
          "time": 225.26281999999952,
          "velocity": 0.7874015748031497,
          "duration": 0.06469288541666174
        },
        {
          "name": "D5",
          "midi": 74,
          "time": 225.26281999999952,
          "velocity": 0.7874015748031497,
          "duration": 0.06469288541666174
        },
        {
          "name": "D#5",
          "midi": 75,
          "time": 225.26281999999952,
          "velocity": 0.7874015748031497,
          "duration": 0.06469288541666174
        },
        {
          "name": "F#5",
          "midi": 78,
          "time": 225.26281999999952,
          "velocity": 0.7874015748031497,
          "duration": 0.06469288541666174
        },
        {
          "name": "D#6",
          "midi": 87,
          "time": 225.26281999999952,
          "velocity": 0.7874015748031497,
          "duration": 0.06469288541666174
        },
        {
          "name": "E6",
          "midi": 88,
          "time": 225.26281999999952,
          "velocity": 0.7874015748031497,
          "duration": 0.06469288541666174
        },
        {
          "name": "F#6",
          "midi": 90,
          "time": 225.26281999999952,
          "velocity": 0.7874015748031497,
          "duration": 0.06469288541666174
        },
        {
          "name": "D#7",
          "midi": 99,
          "time": 225.26281999999952,
          "velocity": 0.7874015748031497,
          "duration": 0.06469288541666174
        },
        {
          "name": "E7",
          "midi": 100,
          "time": 225.26281999999952,
          "velocity": 0.7874015748031497,
          "duration": 0.06469288541666174
        },
        {
          "name": "F#7",
          "midi": 102,
          "time": 225.26281999999952,
          "velocity": 0.7874015748031497,
          "duration": 0.06469288541666174
        },
        {
          "name": "C4",
          "midi": 60,
          "time": 229.47333999999952,
          "velocity": 0.7874015748031497,
          "duration": 1.8410060104166917
        },
        {
          "name": "F#4",
          "midi": 66,
          "time": 229.47333999999952,
          "velocity": 0.7874015748031497,
          "duration": 1.839909520833345
        },
        {
          "name": "C5",
          "midi": 72,
          "time": 229.47333999999952,
          "velocity": 0.7874015748031497,
          "duration": 1.8410060104166917
        },
        {
          "name": "F#5",
          "midi": 78,
          "time": 229.47333999999952,
          "velocity": 0.7874015748031497,
          "duration": 1.839909520833345
        },
        {
          "name": "C6",
          "midi": 84,
          "time": 229.47333999999952,
          "velocity": 0.7874015748031497,
          "duration": 1.8410060104166917
        },
        {
          "name": "F#6",
          "midi": 90,
          "time": 229.47333999999952,
          "velocity": 0.7874015748031497,
          "duration": 1.839909520833345
        },
        {
          "name": "C7",
          "midi": 96,
          "time": 229.47333999999952,
          "velocity": 0.7874015748031497,
          "duration": 1.8410060104166917
        },
        {
          "name": "F#7",
          "midi": 102,
          "time": 229.47333999999952,
          "velocity": 0.7874015748031497,
          "duration": 1.839909520833345
        },
        {
          "name": "C4",
          "midi": 60,
          "time": 231.31544249999956,
          "velocity": 0.7874015748031497,
          "duration": 2.367321010416674
        },
        {
          "name": "F#4",
          "midi": 66,
          "time": 231.31544249999956,
          "velocity": 0.7874015748031497,
          "duration": 2.3662245208333275
        },
        {
          "name": "C5",
          "midi": 72,
          "time": 231.31544249999956,
          "velocity": 0.7874015748031497,
          "duration": 2.367321010416674
        },
        {
          "name": "F#5",
          "midi": 78,
          "time": 231.31544249999956,
          "velocity": 0.7874015748031497,
          "duration": 2.3662245208333275
        },
        {
          "name": "C6",
          "midi": 84,
          "time": 231.31544249999956,
          "velocity": 0.7874015748031497,
          "duration": 2.367321010416674
        },
        {
          "name": "F#6",
          "midi": 90,
          "time": 231.31544249999956,
          "velocity": 0.7874015748031497,
          "duration": 2.3662245208333275
        },
        {
          "name": "C7",
          "midi": 96,
          "time": 231.31544249999956,
          "velocity": 0.7874015748031497,
          "duration": 2.367321010416674
        },
        {
          "name": "F#7",
          "midi": 102,
          "time": 231.31544249999956,
          "velocity": 0.7874015748031497,
          "duration": 2.3662245208333275
        },
        {
          "name": "C4",
          "midi": 60,
          "time": 233.68385999999958,
          "velocity": 0.7874015748031497,
          "duration": 1.8410060104166917
        },
        {
          "name": "F#4",
          "midi": 66,
          "time": 233.68385999999958,
          "velocity": 0.7874015748031497,
          "duration": 1.839909520833345
        },
        {
          "name": "C5",
          "midi": 72,
          "time": 233.68385999999958,
          "velocity": 0.7874015748031497,
          "duration": 1.8410060104166917
        },
        {
          "name": "F#5",
          "midi": 78,
          "time": 233.68385999999958,
          "velocity": 0.7874015748031497,
          "duration": 1.839909520833345
        },
        {
          "name": "C6",
          "midi": 84,
          "time": 233.68385999999958,
          "velocity": 0.7874015748031497,
          "duration": 1.8410060104166917
        },
        {
          "name": "F#6",
          "midi": 90,
          "time": 233.68385999999958,
          "velocity": 0.7874015748031497,
          "duration": 1.839909520833345
        },
        {
          "name": "C7",
          "midi": 96,
          "time": 233.68385999999958,
          "velocity": 0.7874015748031497,
          "duration": 1.8410060104166917
        },
        {
          "name": "F#7",
          "midi": 102,
          "time": 233.68385999999958,
          "velocity": 0.7874015748031497,
          "duration": 1.839909520833345
        },
        {
          "name": "C4",
          "midi": 60,
          "time": 235.52596249999962,
          "velocity": 0.7874015748031497,
          "duration": 2.367321010416674
        },
        {
          "name": "F#4",
          "midi": 66,
          "time": 235.52596249999962,
          "velocity": 0.7874015748031497,
          "duration": 2.3662245208333275
        },
        {
          "name": "C5",
          "midi": 72,
          "time": 235.52596249999962,
          "velocity": 0.7874015748031497,
          "duration": 2.367321010416674
        },
        {
          "name": "F#5",
          "midi": 78,
          "time": 235.52596249999962,
          "velocity": 0.7874015748031497,
          "duration": 2.3662245208333275
        },
        {
          "name": "C6",
          "midi": 84,
          "time": 235.52596249999962,
          "velocity": 0.7874015748031497,
          "duration": 2.367321010416674
        },
        {
          "name": "F#6",
          "midi": 90,
          "time": 235.52596249999962,
          "velocity": 0.7874015748031497,
          "duration": 2.3662245208333275
        },
        {
          "name": "C7",
          "midi": 96,
          "time": 235.52596249999962,
          "velocity": 0.7874015748031497,
          "duration": 2.367321010416674
        },
        {
          "name": "F#7",
          "midi": 102,
          "time": 235.52596249999962,
          "velocity": 0.7874015748031497,
          "duration": 2.3662245208333275
        },
        {
          "name": "C4",
          "midi": 60,
          "time": 237.89437999999964,
          "velocity": 0.7874015748031497,
          "duration": 1.313594520833334
        },
        {
          "name": "F#4",
          "midi": 66,
          "time": 237.89437999999964,
          "velocity": 0.7874015748031497,
          "duration": 1.3124980312499872
        },
        {
          "name": "C5",
          "midi": 72,
          "time": 237.89437999999964,
          "velocity": 0.7874015748031497,
          "duration": 1.313594520833334
        },
        {
          "name": "F#5",
          "midi": 78,
          "time": 237.89437999999964,
          "velocity": 0.7874015748031497,
          "duration": 1.3124980312499872
        },
        {
          "name": "C6",
          "midi": 84,
          "time": 237.89437999999964,
          "velocity": 0.7874015748031497,
          "duration": 1.313594520833334
        },
        {
          "name": "F#6",
          "midi": 90,
          "time": 237.89437999999964,
          "velocity": 0.7874015748031497,
          "duration": 1.3124980312499872
        },
        {
          "name": "C7",
          "midi": 96,
          "time": 237.89437999999964,
          "velocity": 0.7874015748031497,
          "duration": 1.313594520833334
        },
        {
          "name": "F#7",
          "midi": 102,
          "time": 237.89437999999964,
          "velocity": 0.7874015748031497,
          "duration": 1.3124980312499872
        },
        {
          "name": "C4",
          "midi": 60,
          "time": 239.20907101041632,
          "velocity": 0.7874015748031497,
          "duration": 0.06469288541666174
        },
        {
          "name": "F#4",
          "midi": 66,
          "time": 239.20907101041632,
          "velocity": 0.7874015748031497,
          "duration": 0.06469288541666174
        },
        {
          "name": "C5",
          "midi": 72,
          "time": 239.20907101041632,
          "velocity": 0.7874015748031497,
          "duration": 0.06469288541666174
        },
        {
          "name": "F#5",
          "midi": 78,
          "time": 239.20907101041632,
          "velocity": 0.7874015748031497,
          "duration": 0.06469288541666174
        },
        {
          "name": "C6",
          "midi": 84,
          "time": 239.20907101041632,
          "velocity": 0.7874015748031497,
          "duration": 0.06469288541666174
        },
        {
          "name": "F#6",
          "midi": 90,
          "time": 239.20907101041632,
          "velocity": 0.7874015748031497,
          "duration": 0.06469288541666174
        },
        {
          "name": "C7",
          "midi": 96,
          "time": 239.20907101041632,
          "velocity": 0.7874015748031497,
          "duration": 0.06469288541666174
        },
        {
          "name": "F#7",
          "midi": 102,
          "time": 239.20907101041632,
          "velocity": 0.7874015748031497,
          "duration": 0.06469288541666174
        },
        {
          "name": "C4",
          "midi": 60,
          "time": 239.47332499999965,
          "velocity": 0.7874015748031497,
          "duration": 0.06469288541666174
        },
        {
          "name": "F#4",
          "midi": 66,
          "time": 239.47332499999965,
          "velocity": 0.7874015748031497,
          "duration": 0.06469288541666174
        },
        {
          "name": "C5",
          "midi": 72,
          "time": 239.47332499999965,
          "velocity": 0.7874015748031497,
          "duration": 0.06469288541666174
        },
        {
          "name": "F#5",
          "midi": 78,
          "time": 239.47332499999965,
          "velocity": 0.7874015748031497,
          "duration": 0.06469288541666174
        },
        {
          "name": "C6",
          "midi": 84,
          "time": 239.47332499999965,
          "velocity": 0.7874015748031497,
          "duration": 0.06469288541666174
        },
        {
          "name": "F#6",
          "midi": 90,
          "time": 239.47332499999965,
          "velocity": 0.7874015748031497,
          "duration": 0.06469288541666174
        },
        {
          "name": "C7",
          "midi": 96,
          "time": 239.47332499999965,
          "velocity": 0.7874015748031497,
          "duration": 0.06469288541666174
        },
        {
          "name": "F#7",
          "midi": 102,
          "time": 239.47332499999965,
          "velocity": 0.7874015748031497,
          "duration": 0.06469288541666174
        },
        {
          "name": "C4",
          "midi": 60,
          "time": 239.73648249999965,
          "velocity": 0.7874015748031497,
          "duration": 2.367321010416674
        },
        {
          "name": "F#4",
          "midi": 66,
          "time": 239.73648249999965,
          "velocity": 0.7874015748031497,
          "duration": 2.3662245208333275
        },
        {
          "name": "C5",
          "midi": 72,
          "time": 239.73648249999965,
          "velocity": 0.7874015748031497,
          "duration": 2.367321010416674
        },
        {
          "name": "F#5",
          "midi": 78,
          "time": 239.73648249999965,
          "velocity": 0.7874015748031497,
          "duration": 2.3662245208333275
        },
        {
          "name": "C6",
          "midi": 84,
          "time": 239.73648249999965,
          "velocity": 0.7874015748031497,
          "duration": 2.367321010416674
        },
        {
          "name": "F#6",
          "midi": 90,
          "time": 239.73648249999965,
          "velocity": 0.7874015748031497,
          "duration": 2.3662245208333275
        },
        {
          "name": "C7",
          "midi": 96,
          "time": 239.73648249999965,
          "velocity": 0.7874015748031497,
          "duration": 2.367321010416674
        },
        {
          "name": "F#7",
          "midi": 102,
          "time": 239.73648249999965,
          "velocity": 0.7874015748031497,
          "duration": 2.3662245208333275
        },
        {
          "name": "C4",
          "midi": 60,
          "time": 242.10489999999967,
          "velocity": 0.7874015748031497,
          "duration": 1.8410060104166632
        },
        {
          "name": "F#4",
          "midi": 66,
          "time": 242.10489999999967,
          "velocity": 0.7874015748031497,
          "duration": 1.8410060104166632
        },
        {
          "name": "C5",
          "midi": 72,
          "time": 242.10489999999967,
          "velocity": 0.7874015748031497,
          "duration": 1.8410060104166632
        },
        {
          "name": "F#5",
          "midi": 78,
          "time": 242.10489999999967,
          "velocity": 0.7874015748031497,
          "duration": 1.8410060104166632
        },
        {
          "name": "C6",
          "midi": 84,
          "time": 242.10489999999967,
          "velocity": 0.7874015748031497,
          "duration": 1.8410060104166632
        },
        {
          "name": "F#6",
          "midi": 90,
          "time": 242.10489999999967,
          "velocity": 0.7874015748031497,
          "duration": 1.8410060104166632
        },
        {
          "name": "C7",
          "midi": 96,
          "time": 242.10489999999967,
          "velocity": 0.7874015748031497,
          "duration": 1.8410060104166632
        },
        {
          "name": "F#7",
          "midi": 102,
          "time": 242.10489999999967,
          "velocity": 0.7874015748031497,
          "duration": 1.8410060104166632
        },
        {
          "name": "C4",
          "midi": 60,
          "time": 243.948098989583,
          "velocity": 0.7874015748031497,
          "duration": 2.366224520833356
        },
        {
          "name": "F#4",
          "midi": 66,
          "time": 243.948098989583,
          "velocity": 0.7874015748031497,
          "duration": 2.365128031250009
        },
        {
          "name": "C5",
          "midi": 72,
          "time": 243.948098989583,
          "velocity": 0.7874015748031497,
          "duration": 2.366224520833356
        },
        {
          "name": "F#5",
          "midi": 78,
          "time": 243.948098989583,
          "velocity": 0.7874015748031497,
          "duration": 2.365128031250009
        },
        {
          "name": "C6",
          "midi": 84,
          "time": 243.948098989583,
          "velocity": 0.7874015748031497,
          "duration": 2.366224520833356
        },
        {
          "name": "F#6",
          "midi": 90,
          "time": 243.948098989583,
          "velocity": 0.7874015748031497,
          "duration": 2.365128031250009
        },
        {
          "name": "C7",
          "midi": 96,
          "time": 243.948098989583,
          "velocity": 0.7874015748031497,
          "duration": 2.366224520833356
        },
        {
          "name": "F#7",
          "midi": 102,
          "time": 243.948098989583,
          "velocity": 0.7874015748031497,
          "duration": 2.365128031250009
        },
        {
          "name": "C4",
          "midi": 60,
          "time": 246.3154199999997,
          "velocity": 0.7874015748031497,
          "duration": 1.8410060104166917
        },
        {
          "name": "F#4",
          "midi": 66,
          "time": 246.3154199999997,
          "velocity": 0.7874015748031497,
          "duration": 1.839909520833345
        },
        {
          "name": "C5",
          "midi": 72,
          "time": 246.3154199999997,
          "velocity": 0.7874015748031497,
          "duration": 1.8410060104166917
        },
        {
          "name": "F#5",
          "midi": 78,
          "time": 246.3154199999997,
          "velocity": 0.7874015748031497,
          "duration": 1.839909520833345
        },
        {
          "name": "C6",
          "midi": 84,
          "time": 246.3154199999997,
          "velocity": 0.7874015748031497,
          "duration": 1.8410060104166917
        },
        {
          "name": "F#6",
          "midi": 90,
          "time": 246.3154199999997,
          "velocity": 0.7874015748031497,
          "duration": 1.839909520833345
        },
        {
          "name": "C7",
          "midi": 96,
          "time": 246.3154199999997,
          "velocity": 0.7874015748031497,
          "duration": 1.8410060104166917
        },
        {
          "name": "F#7",
          "midi": 102,
          "time": 246.3154199999997,
          "velocity": 0.7874015748031497,
          "duration": 1.839909520833345
        },
        {
          "name": "C4",
          "midi": 60,
          "time": 248.15752249999974,
          "velocity": 0.7874015748031497,
          "duration": 2.367321010416674
        },
        {
          "name": "F#4",
          "midi": 66,
          "time": 248.15752249999974,
          "velocity": 0.7874015748031497,
          "duration": 2.3662245208333275
        },
        {
          "name": "C5",
          "midi": 72,
          "time": 248.15752249999974,
          "velocity": 0.7874015748031497,
          "duration": 2.367321010416674
        },
        {
          "name": "F#5",
          "midi": 78,
          "time": 248.15752249999974,
          "velocity": 0.7874015748031497,
          "duration": 2.3662245208333275
        },
        {
          "name": "C6",
          "midi": 84,
          "time": 248.15752249999974,
          "velocity": 0.7874015748031497,
          "duration": 2.367321010416674
        },
        {
          "name": "F#6",
          "midi": 90,
          "time": 248.15752249999974,
          "velocity": 0.7874015748031497,
          "duration": 2.3662245208333275
        },
        {
          "name": "C7",
          "midi": 96,
          "time": 248.15752249999974,
          "velocity": 0.7874015748031497,
          "duration": 2.367321010416674
        },
        {
          "name": "F#7",
          "midi": 102,
          "time": 248.15752249999974,
          "velocity": 0.7874015748031497,
          "duration": 2.3662245208333275
        },
        {
          "name": "C4",
          "midi": 60,
          "time": 250.52593999999976,
          "velocity": 0.7874015748031497,
          "duration": 1.8410060104166917
        },
        {
          "name": "F#4",
          "midi": 66,
          "time": 250.52593999999976,
          "velocity": 0.7874015748031497,
          "duration": 1.839909520833345
        },
        {
          "name": "C5",
          "midi": 72,
          "time": 250.52593999999976,
          "velocity": 0.7874015748031497,
          "duration": 1.8410060104166917
        },
        {
          "name": "F#5",
          "midi": 78,
          "time": 250.52593999999976,
          "velocity": 0.7874015748031497,
          "duration": 1.839909520833345
        },
        {
          "name": "C6",
          "midi": 84,
          "time": 250.52593999999976,
          "velocity": 0.7874015748031497,
          "duration": 1.8410060104166917
        },
        {
          "name": "F#6",
          "midi": 90,
          "time": 250.52593999999976,
          "velocity": 0.7874015748031497,
          "duration": 1.839909520833345
        },
        {
          "name": "C7",
          "midi": 96,
          "time": 250.52593999999976,
          "velocity": 0.7874015748031497,
          "duration": 1.8410060104166917
        },
        {
          "name": "F#7",
          "midi": 102,
          "time": 250.52593999999976,
          "velocity": 0.7874015748031497,
          "duration": 1.839909520833345
        },
        {
          "name": "C4",
          "midi": 60,
          "time": 252.3680424999998,
          "velocity": 0.7874015748031497,
          "duration": 2.3684174999999925
        },
        {
          "name": "F#4",
          "midi": 66,
          "time": 252.3680424999998,
          "velocity": 0.7874015748031497,
          "duration": 2.3684174999999925
        },
        {
          "name": "C5",
          "midi": 72,
          "time": 252.3680424999998,
          "velocity": 0.7874015748031497,
          "duration": 2.3684174999999925
        },
        {
          "name": "F#5",
          "midi": 78,
          "time": 252.3680424999998,
          "velocity": 0.7874015748031497,
          "duration": 2.3684174999999925
        },
        {
          "name": "C6",
          "midi": 84,
          "time": 252.3680424999998,
          "velocity": 0.7874015748031497,
          "duration": 2.3684174999999925
        },
        {
          "name": "F#6",
          "midi": 90,
          "time": 252.3680424999998,
          "velocity": 0.7874015748031497,
          "duration": 2.3684174999999925
        },
        {
          "name": "C7",
          "midi": 96,
          "time": 252.3680424999998,
          "velocity": 0.7874015748031497,
          "duration": 2.3684174999999925
        },
        {
          "name": "F#7",
          "midi": 102,
          "time": 252.3680424999998,
          "velocity": 0.7874015748031497,
          "duration": 2.3684174999999925
        },
        {
          "name": "C4",
          "midi": 60,
          "time": 254.7364599999998,
          "velocity": 0.7874015748031497,
          "duration": 1.8410060104166632
        },
        {
          "name": "F#4",
          "midi": 66,
          "time": 254.7364599999998,
          "velocity": 0.7874015748031497,
          "duration": 1.8410060104166632
        },
        {
          "name": "C5",
          "midi": 72,
          "time": 254.7364599999998,
          "velocity": 0.7874015748031497,
          "duration": 1.8410060104166632
        },
        {
          "name": "F#5",
          "midi": 78,
          "time": 254.7364599999998,
          "velocity": 0.7874015748031497,
          "duration": 1.8410060104166632
        },
        {
          "name": "C6",
          "midi": 84,
          "time": 254.7364599999998,
          "velocity": 0.7874015748031497,
          "duration": 1.8410060104166632
        },
        {
          "name": "F#6",
          "midi": 90,
          "time": 254.7364599999998,
          "velocity": 0.7874015748031497,
          "duration": 1.8410060104166632
        },
        {
          "name": "C7",
          "midi": 96,
          "time": 254.7364599999998,
          "velocity": 0.7874015748031497,
          "duration": 1.8410060104166632
        },
        {
          "name": "F#7",
          "midi": 102,
          "time": 254.7364599999998,
          "velocity": 0.7874015748031497,
          "duration": 1.8410060104166632
        },
        {
          "name": "C4",
          "midi": 60,
          "time": 256.57965898958315,
          "velocity": 0.7874015748031497,
          "duration": 2.3662245208333275
        },
        {
          "name": "F#4",
          "midi": 66,
          "time": 256.57965898958315,
          "velocity": 0.7874015748031497,
          "duration": 2.3651280312499807
        },
        {
          "name": "C5",
          "midi": 72,
          "time": 256.57965898958315,
          "velocity": 0.7874015748031497,
          "duration": 2.3662245208333275
        },
        {
          "name": "F#5",
          "midi": 78,
          "time": 256.57965898958315,
          "velocity": 0.7874015748031497,
          "duration": 2.3651280312499807
        },
        {
          "name": "C6",
          "midi": 84,
          "time": 256.57965898958315,
          "velocity": 0.7874015748031497,
          "duration": 2.3662245208333275
        },
        {
          "name": "F#6",
          "midi": 90,
          "time": 256.57965898958315,
          "velocity": 0.7874015748031497,
          "duration": 2.3651280312499807
        },
        {
          "name": "C7",
          "midi": 96,
          "time": 256.57965898958315,
          "velocity": 0.7874015748031497,
          "duration": 2.3662245208333275
        },
        {
          "name": "F#7",
          "midi": 102,
          "time": 256.57965898958315,
          "velocity": 0.7874015748031497,
          "duration": 2.3651280312499807
        },
        {
          "name": "C4",
          "midi": 60,
          "time": 258.9469799999998,
          "velocity": 0.7874015748031497,
          "duration": 1.8431989895833567
        },
        {
          "name": "F#4",
          "midi": 66,
          "time": 258.9469799999998,
          "velocity": 0.7874015748031497,
          "duration": 1.84210250000001
        },
        {
          "name": "C5",
          "midi": 72,
          "time": 258.9469799999998,
          "velocity": 0.7874015748031497,
          "duration": 1.8431989895833567
        },
        {
          "name": "F#5",
          "midi": 78,
          "time": 258.9469799999998,
          "velocity": 0.7874015748031497,
          "duration": 1.84210250000001
        },
        {
          "name": "C6",
          "midi": 84,
          "time": 258.9469799999998,
          "velocity": 0.7874015748031497,
          "duration": 1.8431989895833567
        },
        {
          "name": "F#6",
          "midi": 90,
          "time": 258.9469799999998,
          "velocity": 0.7874015748031497,
          "duration": 1.84210250000001
        },
        {
          "name": "C7",
          "midi": 96,
          "time": 258.9469799999998,
          "velocity": 0.7874015748031497,
          "duration": 1.8431989895833567
        },
        {
          "name": "F#7",
          "midi": 102,
          "time": 258.9469799999998,
          "velocity": 0.7874015748031497,
          "duration": 1.84210250000001
        },
        {
          "name": "C4",
          "midi": 60,
          "time": 260.79127547916653,
          "velocity": 0.7874015748031497,
          "duration": 3.9440730312500136
        },
        {
          "name": "F#4",
          "midi": 66,
          "time": 260.79127547916653,
          "velocity": 0.7874015748031497,
          "duration": 3.942976541666667
        },
        {
          "name": "C5",
          "midi": 72,
          "time": 260.79127547916653,
          "velocity": 0.7874015748031497,
          "duration": 3.9440730312500136
        },
        {
          "name": "F#5",
          "midi": 78,
          "time": 260.79127547916653,
          "velocity": 0.7874015748031497,
          "duration": 3.942976541666667
        },
        {
          "name": "C6",
          "midi": 84,
          "time": 260.79127547916653,
          "velocity": 0.7874015748031497,
          "duration": 3.9440730312500136
        },
        {
          "name": "F#6",
          "midi": 90,
          "time": 260.79127547916653,
          "velocity": 0.7874015748031497,
          "duration": 3.942976541666667
        },
        {
          "name": "C7",
          "midi": 96,
          "time": 260.79127547916653,
          "velocity": 0.7874015748031497,
          "duration": 3.9440730312500136
        },
        {
          "name": "F#7",
          "midi": 102,
          "time": 260.79127547916653,
          "velocity": 0.7874015748031497,
          "duration": 3.942976541666667
        },
        {
          "name": "C#4",
          "midi": 61,
          "time": 264.7364449999999,
          "velocity": 0.7874015748031497,
          "duration": 0.5263150000000678
        },
        {
          "name": "F#4",
          "midi": 66,
          "time": 264.7364449999999,
          "velocity": 0.7874015748031497,
          "duration": 0.5263150000000678
        },
        {
          "name": "D#5",
          "midi": 75,
          "time": 264.7364449999999,
          "velocity": 0.7874015748031497,
          "duration": 0.5263150000000678
        },
        {
          "name": "F#5",
          "midi": 78,
          "time": 264.7364449999999,
          "velocity": 0.7874015748031497,
          "duration": 0.5263150000000678
        },
        {
          "name": "E6",
          "midi": 88,
          "time": 264.7364449999999,
          "velocity": 0.7874015748031497,
          "duration": 0.5263150000000678
        },
        {
          "name": "F#6",
          "midi": 90,
          "time": 264.7364449999999,
          "velocity": 0.7874015748031497,
          "duration": 0.5263150000000678
        },
        {
          "name": "E7",
          "midi": 100,
          "time": 264.7364449999999,
          "velocity": 0.7874015748031497,
          "duration": 0.06578937500000848
        },
        {
          "name": "F#7",
          "midi": 102,
          "time": 264.7364449999999,
          "velocity": 0.7874015748031497,
          "duration": 0.06578937500000848
        },
        {
          "name": "D#7",
          "midi": 99,
          "time": 264.86912023958325,
          "velocity": 0.7874015748031497,
          "duration": 0.06469288541666174
        },
        {
          "name": "F7",
          "midi": 101,
          "time": 264.86912023958325,
          "velocity": 0.7874015748031497,
          "duration": 0.06469288541666174
        },
        {
          "name": "D7",
          "midi": 98,
          "time": 264.9996024999999,
          "velocity": 0.7874015748031497,
          "duration": 0.06578937500000848
        },
        {
          "name": "F7",
          "midi": 101,
          "time": 264.9996024999999,
          "velocity": 0.7874015748031497,
          "duration": 0.06578937500000848
        },
        {
          "name": "C#7",
          "midi": 97,
          "time": 265.1322777395833,
          "velocity": 0.7874015748031497,
          "duration": 0.06469288541666174
        },
        {
          "name": "F7",
          "midi": 101,
          "time": 265.1322777395833,
          "velocity": 0.7874015748031497,
          "duration": 0.06469288541666174
        },
        {
          "name": "D4",
          "midi": 62,
          "time": 265.26275999999996,
          "velocity": 0.7874015748031497,
          "duration": 0.06688586458335521
        },
        {
          "name": "F#4",
          "midi": 66,
          "time": 265.26275999999996,
          "velocity": 0.7874015748031497,
          "duration": 0.06688586458335521
        },
        {
          "name": "D5",
          "midi": 74,
          "time": 265.26275999999996,
          "velocity": 0.7874015748031497,
          "duration": 0.06688586458335521
        },
        {
          "name": "G#8",
          "midi": 116,
          "time": 265.26275999999996,
          "velocity": 0.7874015748031497,
          "duration": 2.1052600000001576
        },
        {
          "name": "F#5",
          "midi": 78,
          "time": 265.26275999999996,
          "velocity": 0.7874015748031497,
          "duration": 0.06688586458335521
        },
        {
          "name": "D#6",
          "midi": 87,
          "time": 265.26275999999996,
          "velocity": 0.7874015748031497,
          "duration": 0.06688586458335521
        },
        {
          "name": "F#6",
          "midi": 90,
          "time": 265.26275999999996,
          "velocity": 0.7874015748031497,
          "duration": 0.06688586458335521
        },
        {
          "name": "D#7",
          "midi": 99,
          "time": 265.26275999999996,
          "velocity": 0.7874015748031497,
          "duration": 0.06688586458335521
        },
        {
          "name": "F7",
          "midi": 101,
          "time": 265.26275999999996,
          "velocity": 0.7874015748031497,
          "duration": 0.06688586458335521
        },
        {
          "name": "D#7",
          "midi": 99,
          "time": 265.39433875,
          "velocity": 0.7874015748031497,
          "duration": 0.06578937500000848
        },
        {
          "name": "F#7",
          "midi": 102,
          "time": 265.39433875,
          "velocity": 0.7874015748031497,
          "duration": 0.06578937500000848
        },
        {
          "name": "C#5",
          "midi": 73,
          "time": 265.52701398958334,
          "velocity": 0.7874015748031497,
          "duration": 0.06469288541666174
        },
        {
          "name": "F5",
          "midi": 77,
          "time": 265.52701398958334,
          "velocity": 0.7874015748031497,
          "duration": 0.06469288541666174
        },
        {
          "name": "D6",
          "midi": 86,
          "time": 265.52701398958334,
          "velocity": 0.7874015748031497,
          "duration": 0.06469288541666174
        },
        {
          "name": "F6",
          "midi": 89,
          "time": 265.52701398958334,
          "velocity": 0.7874015748031497,
          "duration": 0.06469288541666174
        },
        {
          "name": "D7",
          "midi": 98,
          "time": 265.52701398958334,
          "velocity": 0.7874015748031497,
          "duration": 0.06469288541666174
        },
        {
          "name": "F7",
          "midi": 101,
          "time": 265.52701398958334,
          "velocity": 0.7874015748031497,
          "duration": 0.06469288541666174
        },
        {
          "name": "D4",
          "midi": 62,
          "time": 265.65859273958336,
          "velocity": 0.7874015748031497,
          "duration": 0.06469288541666174
        },
        {
          "name": "F#4",
          "midi": 66,
          "time": 265.65859273958336,
          "velocity": 0.7874015748031497,
          "duration": 0.06469288541666174
        },
        {
          "name": "D5",
          "midi": 74,
          "time": 265.65859273958336,
          "velocity": 0.7874015748031497,
          "duration": 0.06469288541666174
        },
        {
          "name": "F5",
          "midi": 77,
          "time": 265.65859273958336,
          "velocity": 0.7874015748031497,
          "duration": 0.06469288541666174
        },
        {
          "name": "D#6",
          "midi": 87,
          "time": 265.65859273958336,
          "velocity": 0.7874015748031497,
          "duration": 0.06469288541666174
        },
        {
          "name": "F6",
          "midi": 89,
          "time": 265.65859273958336,
          "velocity": 0.7874015748031497,
          "duration": 0.06469288541666174
        },
        {
          "name": "D#7",
          "midi": 99,
          "time": 265.65859273958336,
          "velocity": 0.7874015748031497,
          "duration": 0.06469288541666174
        },
        {
          "name": "F7",
          "midi": 101,
          "time": 265.65859273958336,
          "velocity": 0.7874015748031497,
          "duration": 0.06469288541666174
        },
        {
          "name": "D7",
          "midi": 98,
          "time": 265.789075,
          "velocity": 0.7874015748031497,
          "duration": 0.06578937500000848
        },
        {
          "name": "F7",
          "midi": 101,
          "time": 265.789075,
          "velocity": 0.7874015748031497,
          "duration": 0.06578937500000848
        },
        {
          "name": "C#4",
          "midi": 61,
          "time": 265.9217502395834,
          "velocity": 0.7874015748031497,
          "duration": 0.06469288541666174
        },
        {
          "name": "F4",
          "midi": 65,
          "time": 265.9217502395834,
          "velocity": 0.7874015748031497,
          "duration": 0.06469288541666174
        },
        {
          "name": "C#5",
          "midi": 73,
          "time": 265.9217502395834,
          "velocity": 0.7874015748031497,
          "duration": 0.06469288541666174
        },
        {
          "name": "F5",
          "midi": 77,
          "time": 265.9217502395834,
          "velocity": 0.7874015748031497,
          "duration": 0.06469288541666174
        },
        {
          "name": "D6",
          "midi": 86,
          "time": 265.9217502395834,
          "velocity": 0.7874015748031497,
          "duration": 0.06469288541666174
        },
        {
          "name": "F6",
          "midi": 89,
          "time": 265.9217502395834,
          "velocity": 0.7874015748031497,
          "duration": 0.06469288541666174
        },
        {
          "name": "C#7",
          "midi": 97,
          "time": 265.9217502395834,
          "velocity": 0.7874015748031497,
          "duration": 0.06469288541666174
        },
        {
          "name": "F7",
          "midi": 101,
          "time": 265.9217502395834,
          "velocity": 0.7874015748031497,
          "duration": 0.06469288541666174
        },
        {
          "name": "C#6",
          "midi": 85,
          "time": 266.05223250000006,
          "velocity": 0.7874015748031497,
          "duration": 0.06578937500000848
        },
        {
          "name": "F6",
          "midi": 89,
          "time": 266.05223250000006,
          "velocity": 0.7874015748031497,
          "duration": 0.06578937500000848
        },
        {
          "name": "C#7",
          "midi": 97,
          "time": 266.05223250000006,
          "velocity": 0.7874015748031497,
          "duration": 0.06578937500000848
        },
        {
          "name": "F#7",
          "midi": 102,
          "time": 266.05223250000006,
          "velocity": 0.7874015748031497,
          "duration": 0.06578937500000848
        },
        {
          "name": "C4",
          "midi": 60,
          "time": 266.3153900000001,
          "velocity": 0.7874015748031497,
          "duration": 1.0515335104166752
        },
        {
          "name": "F#4",
          "midi": 66,
          "time": 266.3153900000001,
          "velocity": 0.7874015748031497,
          "duration": 1.0504370208333285
        },
        {
          "name": "C5",
          "midi": 72,
          "time": 266.3153900000001,
          "velocity": 0.7874015748031497,
          "duration": 1.0515335104166752
        },
        {
          "name": "F#5",
          "midi": 78,
          "time": 266.3153900000001,
          "velocity": 0.7874015748031497,
          "duration": 1.0504370208333285
        },
        {
          "name": "C6",
          "midi": 84,
          "time": 266.3153900000001,
          "velocity": 0.7874015748031497,
          "duration": 1.0515335104166752
        },
        {
          "name": "F#6",
          "midi": 90,
          "time": 266.3153900000001,
          "velocity": 0.7874015748031497,
          "duration": 1.0504370208333285
        },
        {
          "name": "C7",
          "midi": 96,
          "time": 266.3153900000001,
          "velocity": 0.7874015748031497,
          "duration": 1.0515335104166752
        },
        {
          "name": "F#7",
          "midi": 102,
          "time": 266.3153900000001,
          "velocity": 0.7874015748031497,
          "duration": 1.0504370208333285
        },
        {
          "name": "D4",
          "midi": 62,
          "time": 267.3680200000001,
          "velocity": 0.7874015748031497,
          "duration": 0.06469288541666174
        },
        {
          "name": "F#4",
          "midi": 66,
          "time": 267.3680200000001,
          "velocity": 0.7874015748031497,
          "duration": 0.06469288541666174
        },
        {
          "name": "D5",
          "midi": 74,
          "time": 267.3680200000001,
          "velocity": 0.7874015748031497,
          "duration": 0.06469288541666174
        },
        {
          "name": "F#5",
          "midi": 78,
          "time": 267.3680200000001,
          "velocity": 0.7874015748031497,
          "duration": 0.06469288541666174
        },
        {
          "name": "D#6",
          "midi": 87,
          "time": 267.3680200000001,
          "velocity": 0.7874015748031497,
          "duration": 0.06469288541666174
        },
        {
          "name": "F#6",
          "midi": 90,
          "time": 267.3680200000001,
          "velocity": 0.7874015748031497,
          "duration": 0.06469288541666174
        },
        {
          "name": "D#7",
          "midi": 99,
          "time": 267.3680200000001,
          "velocity": 0.7874015748031497,
          "duration": 0.06469288541666174
        },
        {
          "name": "F#7",
          "midi": 102,
          "time": 267.3680200000001,
          "velocity": 0.7874015748031497,
          "duration": 0.06469288541666174
        },
        {
          "name": "D#7",
          "midi": 99,
          "time": 267.49959875000013,
          "velocity": 0.7874015748031497,
          "duration": 0.06469288541666174
        },
        {
          "name": "F#7",
          "midi": 102,
          "time": 267.49959875000013,
          "velocity": 0.7874015748031497,
          "duration": 0.06469288541666174
        },
        {
          "name": "C#5",
          "midi": 73,
          "time": 267.63117750000015,
          "velocity": 0.7874015748031497,
          "duration": 0.06469288541666174
        },
        {
          "name": "F5",
          "midi": 77,
          "time": 267.63117750000015,
          "velocity": 0.7874015748031497,
          "duration": 0.06469288541666174
        },
        {
          "name": "D6",
          "midi": 86,
          "time": 267.63117750000015,
          "velocity": 0.7874015748031497,
          "duration": 0.06469288541666174
        },
        {
          "name": "F6",
          "midi": 89,
          "time": 267.63117750000015,
          "velocity": 0.7874015748031497,
          "duration": 0.06469288541666174
        },
        {
          "name": "D7",
          "midi": 98,
          "time": 267.63117750000015,
          "velocity": 0.7874015748031497,
          "duration": 0.06469288541666174
        },
        {
          "name": "F7",
          "midi": 101,
          "time": 267.63117750000015,
          "velocity": 0.7874015748031497,
          "duration": 0.06469288541666174
        },
        {
          "name": "D4",
          "midi": 62,
          "time": 267.76275625000017,
          "velocity": 0.7874015748031497,
          "duration": 0.06469288541666174
        },
        {
          "name": "F#4",
          "midi": 66,
          "time": 267.76275625000017,
          "velocity": 0.7874015748031497,
          "duration": 0.06469288541666174
        },
        {
          "name": "D5",
          "midi": 74,
          "time": 267.76275625000017,
          "velocity": 0.7874015748031497,
          "duration": 0.06469288541666174
        },
        {
          "name": "F5",
          "midi": 77,
          "time": 267.76275625000017,
          "velocity": 0.7874015748031497,
          "duration": 0.06469288541666174
        },
        {
          "name": "D#6",
          "midi": 87,
          "time": 267.76275625000017,
          "velocity": 0.7874015748031497,
          "duration": 0.06469288541666174
        },
        {
          "name": "F6",
          "midi": 89,
          "time": 267.76275625000017,
          "velocity": 0.7874015748031497,
          "duration": 0.06469288541666174
        },
        {
          "name": "D#7",
          "midi": 99,
          "time": 267.76275625000017,
          "velocity": 0.7874015748031497,
          "duration": 0.06469288541666174
        },
        {
          "name": "F7",
          "midi": 101,
          "time": 267.76275625000017,
          "velocity": 0.7874015748031497,
          "duration": 0.06469288541666174
        },
        {
          "name": "D7",
          "midi": 98,
          "time": 267.8943350000002,
          "velocity": 0.7874015748031497,
          "duration": 0.06469288541666174
        },
        {
          "name": "F7",
          "midi": 101,
          "time": 267.8943350000002,
          "velocity": 0.7874015748031497,
          "duration": 0.06469288541666174
        },
        {
          "name": "C#4",
          "midi": 61,
          "time": 268.0259137500002,
          "velocity": 0.7874015748031497,
          "duration": 0.06469288541666174
        },
        {
          "name": "F4",
          "midi": 65,
          "time": 268.0259137500002,
          "velocity": 0.7874015748031497,
          "duration": 0.06469288541666174
        },
        {
          "name": "C#5",
          "midi": 73,
          "time": 268.0259137500002,
          "velocity": 0.7874015748031497,
          "duration": 0.06469288541666174
        },
        {
          "name": "F5",
          "midi": 77,
          "time": 268.0259137500002,
          "velocity": 0.7874015748031497,
          "duration": 0.06469288541666174
        },
        {
          "name": "D6",
          "midi": 86,
          "time": 268.0259137500002,
          "velocity": 0.7874015748031497,
          "duration": 0.06469288541666174
        },
        {
          "name": "F6",
          "midi": 89,
          "time": 268.0259137500002,
          "velocity": 0.7874015748031497,
          "duration": 0.06469288541666174
        },
        {
          "name": "C#7",
          "midi": 97,
          "time": 268.0259137500002,
          "velocity": 0.7874015748031497,
          "duration": 0.06469288541666174
        },
        {
          "name": "F7",
          "midi": 101,
          "time": 268.0259137500002,
          "velocity": 0.7874015748031497,
          "duration": 0.06469288541666174
        },
        {
          "name": "C#6",
          "midi": 85,
          "time": 268.15639601041687,
          "velocity": 0.7874015748031497,
          "duration": 0.06578937500000848
        },
        {
          "name": "F6",
          "midi": 89,
          "time": 268.15639601041687,
          "velocity": 0.7874015748031497,
          "duration": 0.06578937500000848
        },
        {
          "name": "D7",
          "midi": 98,
          "time": 268.15639601041687,
          "velocity": 0.7874015748031497,
          "duration": 0.06578937500000848
        },
        {
          "name": "F7",
          "midi": 101,
          "time": 268.15639601041687,
          "velocity": 0.7874015748031497,
          "duration": 0.06578937500000848
        },
        {
          "name": "C#7",
          "midi": 97,
          "time": 268.28907125000023,
          "velocity": 0.7874015748031497,
          "duration": 0.06578937500000848
        },
        {
          "name": "F7",
          "midi": 101,
          "time": 268.28907125000023,
          "velocity": 0.7874015748031497,
          "duration": 0.06578937500000848
        },
        {
          "name": "C4",
          "midi": 60,
          "time": 268.42065000000025,
          "velocity": 0.7874015748031497,
          "duration": 0.3925432708333574
        },
        {
          "name": "F#4",
          "midi": 66,
          "time": 268.42065000000025,
          "velocity": 0.7874015748031497,
          "duration": 0.3925432708333574
        },
        {
          "name": "C5",
          "midi": 72,
          "time": 268.42065000000025,
          "velocity": 0.7874015748031497,
          "duration": 0.3925432708333574
        },
        {
          "name": "F#5",
          "midi": 78,
          "time": 268.42065000000025,
          "velocity": 0.7874015748031497,
          "duration": 0.3925432708333574
        },
        {
          "name": "C6",
          "midi": 84,
          "time": 268.42065000000025,
          "velocity": 0.7874015748031497,
          "duration": 0.3925432708333574
        },
        {
          "name": "F#6",
          "midi": 90,
          "time": 268.42065000000025,
          "velocity": 0.7874015748031497,
          "duration": 0.3925432708333574
        },
        {
          "name": "C7",
          "midi": 96,
          "time": 268.42065000000025,
          "velocity": 0.7874015748031497,
          "duration": 0.3925432708333574
        },
        {
          "name": "F7",
          "midi": 101,
          "time": 268.42065000000025,
          "velocity": 0.7874015748031497,
          "duration": 0.3925432708333574
        },
        {
          "name": "C#4",
          "midi": 61,
          "time": 268.8153862500003,
          "velocity": 0.7874015748031497,
          "duration": 0.3925432708333574
        },
        {
          "name": "F#4",
          "midi": 66,
          "time": 268.8153862500003,
          "velocity": 0.7874015748031497,
          "duration": 0.3925432708333574
        },
        {
          "name": "C#5",
          "midi": 73,
          "time": 268.8153862500003,
          "velocity": 0.7874015748031497,
          "duration": 0.3925432708333574
        },
        {
          "name": "F#5",
          "midi": 78,
          "time": 268.8153862500003,
          "velocity": 0.7874015748031497,
          "duration": 0.3925432708333574
        },
        {
          "name": "C#6",
          "midi": 85,
          "time": 268.8153862500003,
          "velocity": 0.7874015748031497,
          "duration": 0.3925432708333574
        },
        {
          "name": "F#6",
          "midi": 90,
          "time": 268.8153862500003,
          "velocity": 0.7874015748031497,
          "duration": 0.3925432708333574
        },
        {
          "name": "C#7",
          "midi": 97,
          "time": 268.8153862500003,
          "velocity": 0.7874015748031497,
          "duration": 0.3925432708333574
        },
        {
          "name": "F#7",
          "midi": 102,
          "time": 268.8153862500003,
          "velocity": 0.7874015748031497,
          "duration": 0.3925432708333574
        },
        {
          "name": "C4",
          "midi": 60,
          "time": 269.21012250000035,
          "velocity": 0.7874015748031497,
          "duration": 0.06469288541666174
        },
        {
          "name": "F#4",
          "midi": 66,
          "time": 269.21012250000035,
          "velocity": 0.7874015748031497,
          "duration": 0.06469288541666174
        },
        {
          "name": "C5",
          "midi": 72,
          "time": 269.21012250000035,
          "velocity": 0.7874015748031497,
          "duration": 0.06469288541666174
        },
        {
          "name": "C6",
          "midi": 84,
          "time": 269.21012250000035,
          "velocity": 0.7874015748031497,
          "duration": 0.06469288541666174
        },
        {
          "name": "C7",
          "midi": 96,
          "time": 269.21012250000035,
          "velocity": 0.7874015748031497,
          "duration": 0.06469288541666174
        },
        {
          "name": "D4",
          "midi": 62,
          "time": 269.47328000000033,
          "velocity": 0.7874015748031497,
          "duration": 0.06469288541666174
        },
        {
          "name": "F#4",
          "midi": 66,
          "time": 269.47328000000033,
          "velocity": 0.7874015748031497,
          "duration": 0.06469288541666174
        },
        {
          "name": "D5",
          "midi": 74,
          "time": 269.47328000000033,
          "velocity": 0.7874015748031497,
          "duration": 0.06469288541666174
        },
        {
          "name": "F#5",
          "midi": 78,
          "time": 269.47328000000033,
          "velocity": 0.7874015748031497,
          "duration": 0.06469288541666174
        },
        {
          "name": "D#6",
          "midi": 87,
          "time": 269.47328000000033,
          "velocity": 0.7874015748031497,
          "duration": 0.06469288541666174
        },
        {
          "name": "F#6",
          "midi": 90,
          "time": 269.47328000000033,
          "velocity": 0.7874015748031497,
          "duration": 0.06469288541666174
        },
        {
          "name": "D#7",
          "midi": 99,
          "time": 269.47328000000033,
          "velocity": 0.7874015748031497,
          "duration": 0.06469288541666174
        },
        {
          "name": "F#7",
          "midi": 102,
          "time": 269.47328000000033,
          "velocity": 0.7874015748031497,
          "duration": 0.06469288541666174
        },
        {
          "name": "D#7",
          "midi": 99,
          "time": 269.60485875000035,
          "velocity": 0.7874015748031497,
          "duration": 0.06469288541666174
        },
        {
          "name": "F#7",
          "midi": 102,
          "time": 269.60485875000035,
          "velocity": 0.7874015748031497,
          "duration": 0.06469288541666174
        },
        {
          "name": "C#5",
          "midi": 73,
          "time": 269.73753398958365,
          "velocity": 0.7874015748031497,
          "duration": 0.06469288541666174
        },
        {
          "name": "F5",
          "midi": 77,
          "time": 269.73753398958365,
          "velocity": 0.7874015748031497,
          "duration": 0.06469288541666174
        },
        {
          "name": "D6",
          "midi": 86,
          "time": 269.73753398958365,
          "velocity": 0.7874015748031497,
          "duration": 0.06469288541666174
        },
        {
          "name": "F6",
          "midi": 89,
          "time": 269.73753398958365,
          "velocity": 0.7874015748031497,
          "duration": 0.06469288541666174
        },
        {
          "name": "D7",
          "midi": 98,
          "time": 269.73753398958365,
          "velocity": 0.7874015748031497,
          "duration": 0.06469288541666174
        },
        {
          "name": "F7",
          "midi": 101,
          "time": 269.73753398958365,
          "velocity": 0.7874015748031497,
          "duration": 0.06469288541666174
        },
        {
          "name": "D4",
          "midi": 62,
          "time": 269.8680162500003,
          "velocity": 0.7874015748031497,
          "duration": 0.06469288541666174
        },
        {
          "name": "F#4",
          "midi": 66,
          "time": 269.8680162500003,
          "velocity": 0.7874015748031497,
          "duration": 0.06469288541666174
        },
        {
          "name": "D5",
          "midi": 74,
          "time": 269.8680162500003,
          "velocity": 0.7874015748031497,
          "duration": 0.06469288541666174
        },
        {
          "name": "F5",
          "midi": 77,
          "time": 269.8680162500003,
          "velocity": 0.7874015748031497,
          "duration": 0.06469288541666174
        },
        {
          "name": "D#6",
          "midi": 87,
          "time": 269.8680162500003,
          "velocity": 0.7874015748031497,
          "duration": 0.06469288541666174
        },
        {
          "name": "F6",
          "midi": 89,
          "time": 269.8680162500003,
          "velocity": 0.7874015748031497,
          "duration": 0.06469288541666174
        },
        {
          "name": "D#7",
          "midi": 99,
          "time": 269.8680162500003,
          "velocity": 0.7874015748031497,
          "duration": 0.06469288541666174
        },
        {
          "name": "F7",
          "midi": 101,
          "time": 269.8680162500003,
          "velocity": 0.7874015748031497,
          "duration": 0.06469288541666174
        },
        {
          "name": "D7",
          "midi": 98,
          "time": 269.99959500000034,
          "velocity": 0.7874015748031497,
          "duration": 0.06469288541666174
        },
        {
          "name": "F7",
          "midi": 101,
          "time": 269.99959500000034,
          "velocity": 0.7874015748031497,
          "duration": 0.06469288541666174
        },
        {
          "name": "C#4",
          "midi": 61,
          "time": 270.13227023958365,
          "velocity": 0.7874015748031497,
          "duration": 0.06469288541666174
        },
        {
          "name": "F4",
          "midi": 65,
          "time": 270.13227023958365,
          "velocity": 0.7874015748031497,
          "duration": 0.06469288541666174
        },
        {
          "name": "C#5",
          "midi": 73,
          "time": 270.13227023958365,
          "velocity": 0.7874015748031497,
          "duration": 0.06469288541666174
        },
        {
          "name": "F5",
          "midi": 77,
          "time": 270.13227023958365,
          "velocity": 0.7874015748031497,
          "duration": 0.06469288541666174
        },
        {
          "name": "D6",
          "midi": 86,
          "time": 270.13227023958365,
          "velocity": 0.7874015748031497,
          "duration": 0.06469288541666174
        },
        {
          "name": "F6",
          "midi": 89,
          "time": 270.13227023958365,
          "velocity": 0.7874015748031497,
          "duration": 0.06469288541666174
        },
        {
          "name": "C#7",
          "midi": 97,
          "time": 270.13227023958365,
          "velocity": 0.7874015748031497,
          "duration": 0.06469288541666174
        },
        {
          "name": "F7",
          "midi": 101,
          "time": 270.13227023958365,
          "velocity": 0.7874015748031497,
          "duration": 0.06469288541666174
        },
        {
          "name": "C#6",
          "midi": 85,
          "time": 270.2627525000003,
          "velocity": 0.7874015748031497,
          "duration": 0.06469288541666174
        },
        {
          "name": "F6",
          "midi": 89,
          "time": 270.2627525000003,
          "velocity": 0.7874015748031497,
          "duration": 0.06469288541666174
        },
        {
          "name": "C#7",
          "midi": 97,
          "time": 270.2627525000003,
          "velocity": 0.7874015748031497,
          "duration": 0.06469288541666174
        },
        {
          "name": "F#7",
          "midi": 102,
          "time": 270.2627525000003,
          "velocity": 0.7874015748031497,
          "duration": 0.06469288541666174
        },
        {
          "name": "C4",
          "midi": 60,
          "time": 270.5259100000003,
          "velocity": 0.7874015748031497,
          "duration": 1.052630000000022
        },
        {
          "name": "F#4",
          "midi": 66,
          "time": 270.5259100000003,
          "velocity": 0.7874015748031497,
          "duration": 1.110743947916717
        },
        {
          "name": "C5",
          "midi": 72,
          "time": 270.5259100000003,
          "velocity": 0.7874015748031497,
          "duration": 1.052630000000022
        },
        {
          "name": "F#5",
          "midi": 78,
          "time": 270.5259100000003,
          "velocity": 0.7874015748031497,
          "duration": 1.110743947916717
        },
        {
          "name": "C6",
          "midi": 84,
          "time": 270.5259100000003,
          "velocity": 0.7874015748031497,
          "duration": 1.0515335104166752
        },
        {
          "name": "F#6",
          "midi": 90,
          "time": 270.5259100000003,
          "velocity": 0.7874015748031497,
          "duration": 1.0504370208333285
        },
        {
          "name": "C7",
          "midi": 96,
          "time": 270.5259100000003,
          "velocity": 0.7874015748031497,
          "duration": 1.0515335104166752
        },
        {
          "name": "F#7",
          "midi": 102,
          "time": 270.5259100000003,
          "velocity": 0.7874015748031497,
          "duration": 1.0504370208333285
        },
        {
          "name": "D4",
          "midi": 62,
          "time": 271.5719610625003,
          "velocity": 0.7874015748031497,
          "duration": 0.06469288541671858
        },
        {
          "name": "D5",
          "midi": 74,
          "time": 271.5719610625003,
          "velocity": 0.7874015748031497,
          "duration": 0.06469288541671858
        },
        {
          "name": "D#6",
          "midi": 87,
          "time": 271.5785400000003,
          "velocity": 0.7874015748031497,
          "duration": 0.06469288541671858
        },
        {
          "name": "F#6",
          "midi": 90,
          "time": 271.5785400000003,
          "velocity": 0.7874015748031497,
          "duration": 0.06469288541671858
        },
        {
          "name": "D#7",
          "midi": 99,
          "time": 271.5785400000003,
          "velocity": 0.7874015748031497,
          "duration": 0.06469288541671858
        },
        {
          "name": "F#7",
          "midi": 102,
          "time": 271.5785400000003,
          "velocity": 0.7874015748031497,
          "duration": 0.06469288541671858
        },
        {
          "name": "D#7",
          "midi": 99,
          "time": 271.7101187500004,
          "velocity": 0.7874015748031497,
          "duration": 0.06469288541666174
        },
        {
          "name": "F#7",
          "midi": 102,
          "time": 271.7101187500004,
          "velocity": 0.7874015748031497,
          "duration": 0.06469288541666174
        },
        {
          "name": "C#5",
          "midi": 73,
          "time": 271.8416975000004,
          "velocity": 0.7874015748031497,
          "duration": 0.06469288541666174
        },
        {
          "name": "F5",
          "midi": 77,
          "time": 271.8416975000004,
          "velocity": 0.7874015748031497,
          "duration": 0.06469288541666174
        },
        {
          "name": "D6",
          "midi": 86,
          "time": 271.8416975000004,
          "velocity": 0.7874015748031497,
          "duration": 0.06469288541666174
        },
        {
          "name": "F6",
          "midi": 89,
          "time": 271.8416975000004,
          "velocity": 0.7874015748031497,
          "duration": 0.06469288541666174
        },
        {
          "name": "D7",
          "midi": 98,
          "time": 271.8416975000004,
          "velocity": 0.7874015748031497,
          "duration": 0.06469288541666174
        },
        {
          "name": "F7",
          "midi": 101,
          "time": 271.8416975000004,
          "velocity": 0.7874015748031497,
          "duration": 0.06469288541666174
        },
        {
          "name": "D4",
          "midi": 62,
          "time": 271.9666973125004,
          "velocity": 0.7874015748031497,
          "duration": 0.06469288541671858
        },
        {
          "name": "F#4",
          "midi": 66,
          "time": 271.9666973125004,
          "velocity": 0.7874015748031497,
          "duration": 0.06469288541671858
        },
        {
          "name": "D5",
          "midi": 74,
          "time": 271.9732762500004,
          "velocity": 0.7874015748031497,
          "duration": 0.06469288541671858
        },
        {
          "name": "F5",
          "midi": 77,
          "time": 271.9732762500004,
          "velocity": 0.7874015748031497,
          "duration": 0.06469288541671858
        },
        {
          "name": "D#6",
          "midi": 87,
          "time": 271.9732762500004,
          "velocity": 0.7874015748031497,
          "duration": 0.06469288541671858
        },
        {
          "name": "F6",
          "midi": 89,
          "time": 271.9732762500004,
          "velocity": 0.7874015748031497,
          "duration": 0.06469288541671858
        },
        {
          "name": "D#7",
          "midi": 99,
          "time": 271.9732762500004,
          "velocity": 0.7874015748031497,
          "duration": 0.06469288541671858
        },
        {
          "name": "F7",
          "midi": 101,
          "time": 271.9732762500004,
          "velocity": 0.7874015748031497,
          "duration": 0.06469288541671858
        },
        {
          "name": "D7",
          "midi": 98,
          "time": 272.1048550000005,
          "velocity": 0.7874015748031497,
          "duration": 0.06578937500000848
        },
        {
          "name": "F7",
          "midi": 101,
          "time": 272.1048550000005,
          "velocity": 0.7874015748031497,
          "duration": 0.06578937500000848
        },
        {
          "name": "C#4",
          "midi": 61,
          "time": 272.2364337500005,
          "velocity": 0.7874015748031497,
          "duration": 0.06578937500000848
        },
        {
          "name": "F4",
          "midi": 65,
          "time": 272.2364337500005,
          "velocity": 0.7874015748031497,
          "duration": 0.06578937500000848
        },
        {
          "name": "C#5",
          "midi": 73,
          "time": 272.2364337500005,
          "velocity": 0.7874015748031497,
          "duration": 0.06578937500000848
        },
        {
          "name": "F5",
          "midi": 77,
          "time": 272.2364337500005,
          "velocity": 0.7874015748031497,
          "duration": 0.06578937500000848
        },
        {
          "name": "D6",
          "midi": 86,
          "time": 272.2364337500005,
          "velocity": 0.7874015748031497,
          "duration": 0.06578937500000848
        },
        {
          "name": "F6",
          "midi": 89,
          "time": 272.2364337500005,
          "velocity": 0.7874015748031497,
          "duration": 0.06578937500000848
        },
        {
          "name": "C#7",
          "midi": 97,
          "time": 272.2364337500005,
          "velocity": 0.7874015748031497,
          "duration": 0.06578937500000848
        },
        {
          "name": "F7",
          "midi": 101,
          "time": 272.2364337500005,
          "velocity": 0.7874015748031497,
          "duration": 0.06578937500000848
        },
        {
          "name": "C#6",
          "midi": 85,
          "time": 272.36801250000053,
          "velocity": 0.7874015748031497,
          "duration": 0.06578937500000848
        },
        {
          "name": "F6",
          "midi": 89,
          "time": 272.36801250000053,
          "velocity": 0.7874015748031497,
          "duration": 0.06578937500000848
        },
        {
          "name": "D7",
          "midi": 98,
          "time": 272.36801250000053,
          "velocity": 0.7874015748031497,
          "duration": 0.06578937500000848
        },
        {
          "name": "F7",
          "midi": 101,
          "time": 272.36801250000053,
          "velocity": 0.7874015748031497,
          "duration": 0.06578937500000848
        },
        {
          "name": "C#7",
          "midi": 97,
          "time": 272.49959125000055,
          "velocity": 0.7874015748031497,
          "duration": 0.06578937500000848
        },
        {
          "name": "F7",
          "midi": 101,
          "time": 272.49959125000055,
          "velocity": 0.7874015748031497,
          "duration": 0.06578937500000848
        },
        {
          "name": "C4",
          "midi": 60,
          "time": 272.63117000000057,
          "velocity": 0.7874015748031497,
          "duration": 0.3925432708333574
        },
        {
          "name": "F#4",
          "midi": 66,
          "time": 272.63117000000057,
          "velocity": 0.7874015748031497,
          "duration": 0.3925432708333574
        },
        {
          "name": "C5",
          "midi": 72,
          "time": 272.63117000000057,
          "velocity": 0.7874015748031497,
          "duration": 0.3925432708333574
        },
        {
          "name": "F#5",
          "midi": 78,
          "time": 272.63117000000057,
          "velocity": 0.7874015748031497,
          "duration": 0.3925432708333574
        },
        {
          "name": "C6",
          "midi": 84,
          "time": 272.63117000000057,
          "velocity": 0.7874015748031497,
          "duration": 0.3925432708333574
        },
        {
          "name": "F#6",
          "midi": 90,
          "time": 272.63117000000057,
          "velocity": 0.7874015748031497,
          "duration": 0.3925432708333574
        },
        {
          "name": "C7",
          "midi": 96,
          "time": 272.63117000000057,
          "velocity": 0.7874015748031497,
          "duration": 0.3925432708333574
        },
        {
          "name": "F7",
          "midi": 101,
          "time": 272.63117000000057,
          "velocity": 0.7874015748031497,
          "duration": 0.3925432708333574
        },
        {
          "name": "C#4",
          "midi": 61,
          "time": 273.0259062500006,
          "velocity": 0.7874015748031497,
          "duration": 0.39144678125001064
        },
        {
          "name": "F#4",
          "midi": 66,
          "time": 273.0259062500006,
          "velocity": 0.7874015748031497,
          "duration": 0.39144678125001064
        },
        {
          "name": "C#5",
          "midi": 73,
          "time": 273.0259062500006,
          "velocity": 0.7874015748031497,
          "duration": 0.39144678125001064
        },
        {
          "name": "F#5",
          "midi": 78,
          "time": 273.0259062500006,
          "velocity": 0.7874015748031497,
          "duration": 0.39144678125001064
        },
        {
          "name": "C#6",
          "midi": 85,
          "time": 273.0259062500006,
          "velocity": 0.7874015748031497,
          "duration": 0.39144678125001064
        },
        {
          "name": "F#6",
          "midi": 90,
          "time": 273.0259062500006,
          "velocity": 0.7874015748031497,
          "duration": 0.39144678125001064
        },
        {
          "name": "C#7",
          "midi": 97,
          "time": 273.0259062500006,
          "velocity": 0.7874015748031497,
          "duration": 0.39144678125001064
        },
        {
          "name": "F#7",
          "midi": 102,
          "time": 273.0259062500006,
          "velocity": 0.7874015748031497,
          "duration": 0.39144678125001064
        },
        {
          "name": "C4",
          "midi": 60,
          "time": 273.42173898958396,
          "velocity": 0.7874015748031497,
          "duration": 0.06469288541666174
        },
        {
          "name": "F#4",
          "midi": 66,
          "time": 273.42173898958396,
          "velocity": 0.7874015748031497,
          "duration": 0.06469288541666174
        },
        {
          "name": "C5",
          "midi": 72,
          "time": 273.42173898958396,
          "velocity": 0.7874015748031497,
          "duration": 0.06469288541666174
        },
        {
          "name": "C6",
          "midi": 84,
          "time": 273.42173898958396,
          "velocity": 0.7874015748031497,
          "duration": 0.06469288541666174
        },
        {
          "name": "C7",
          "midi": 96,
          "time": 273.42173898958396,
          "velocity": 0.7874015748031497,
          "duration": 0.06469288541666174
        },
        {
          "name": "D4",
          "midi": 62,
          "time": 273.68380000000064,
          "velocity": 0.7874015748031497,
          "duration": 0.06578937500000848
        },
        {
          "name": "F#4",
          "midi": 66,
          "time": 273.68380000000064,
          "velocity": 0.7874015748031497,
          "duration": 0.06578937500000848
        },
        {
          "name": "D#5",
          "midi": 75,
          "time": 273.68380000000064,
          "velocity": 0.7874015748031497,
          "duration": 0.06578937500000848
        },
        {
          "name": "F#5",
          "midi": 78,
          "time": 273.68380000000064,
          "velocity": 0.7874015748031497,
          "duration": 0.06578937500000848
        },
        {
          "name": "E6",
          "midi": 88,
          "time": 273.68380000000064,
          "velocity": 0.7874015748031497,
          "duration": 0.06578937500000848
        },
        {
          "name": "F#6",
          "midi": 90,
          "time": 273.68380000000064,
          "velocity": 0.7874015748031497,
          "duration": 0.06578937500000848
        },
        {
          "name": "E7",
          "midi": 100,
          "time": 273.68380000000064,
          "velocity": 0.7874015748031497,
          "duration": 0.06578937500000848
        },
        {
          "name": "F#7",
          "midi": 102,
          "time": 273.68380000000064,
          "velocity": 0.7874015748031497,
          "duration": 0.06578937500000848
        },
        {
          "name": "E7",
          "midi": 100,
          "time": 273.81537875000066,
          "velocity": 0.7874015748031497,
          "duration": 0.06578937500000848
        },
        {
          "name": "F#7",
          "midi": 102,
          "time": 273.81537875000066,
          "velocity": 0.7874015748031497,
          "duration": 0.06578937500000848
        },
        {
          "name": "D5",
          "midi": 74,
          "time": 273.948053989584,
          "velocity": 0.7874015748031497,
          "duration": 0.06469288541666174
        },
        {
          "name": "F5",
          "midi": 77,
          "time": 273.948053989584,
          "velocity": 0.7874015748031497,
          "duration": 0.06469288541666174
        },
        {
          "name": "D#6",
          "midi": 87,
          "time": 273.948053989584,
          "velocity": 0.7874015748031497,
          "duration": 0.06469288541666174
        },
        {
          "name": "F6",
          "midi": 89,
          "time": 273.948053989584,
          "velocity": 0.7874015748031497,
          "duration": 0.06469288541666174
        },
        {
          "name": "D#7",
          "midi": 99,
          "time": 273.948053989584,
          "velocity": 0.7874015748031497,
          "duration": 0.06469288541666174
        },
        {
          "name": "F7",
          "midi": 101,
          "time": 273.948053989584,
          "velocity": 0.7874015748031497,
          "duration": 0.06469288541666174
        },
        {
          "name": "D4",
          "midi": 62,
          "time": 274.0785362500007,
          "velocity": 0.7874015748031497,
          "duration": 0.06469288541666174
        },
        {
          "name": "F#4",
          "midi": 66,
          "time": 274.0785362500007,
          "velocity": 0.7874015748031497,
          "duration": 0.06469288541666174
        },
        {
          "name": "D#5",
          "midi": 75,
          "time": 274.0785362500007,
          "velocity": 0.7874015748031497,
          "duration": 0.06469288541666174
        },
        {
          "name": "F5",
          "midi": 77,
          "time": 274.0785362500007,
          "velocity": 0.7874015748031497,
          "duration": 0.06469288541666174
        },
        {
          "name": "E6",
          "midi": 88,
          "time": 274.0785362500007,
          "velocity": 0.7874015748031497,
          "duration": 0.06469288541666174
        },
        {
          "name": "F6",
          "midi": 89,
          "time": 274.0785362500007,
          "velocity": 0.7874015748031497,
          "duration": 0.06469288541666174
        },
        {
          "name": "E7",
          "midi": 100,
          "time": 274.0785362500007,
          "velocity": 0.7874015748031497,
          "duration": 0.06469288541666174
        },
        {
          "name": "F7",
          "midi": 101,
          "time": 274.0785362500007,
          "velocity": 0.7874015748031497,
          "duration": 0.06469288541666174
        },
        {
          "name": "D#7",
          "midi": 99,
          "time": 274.2101150000007,
          "velocity": 0.7874015748031497,
          "duration": 0.06469288541666174
        },
        {
          "name": "F7",
          "midi": 101,
          "time": 274.2101150000007,
          "velocity": 0.7874015748031497,
          "duration": 0.06469288541666174
        },
        {
          "name": "C#4",
          "midi": 61,
          "time": 274.34169375000073,
          "velocity": 0.7874015748031497,
          "duration": 0.06469288541666174
        },
        {
          "name": "F4",
          "midi": 65,
          "time": 274.34169375000073,
          "velocity": 0.7874015748031497,
          "duration": 0.06469288541666174
        },
        {
          "name": "D5",
          "midi": 74,
          "time": 274.34169375000073,
          "velocity": 0.7874015748031497,
          "duration": 0.06469288541666174
        },
        {
          "name": "F5",
          "midi": 77,
          "time": 274.34169375000073,
          "velocity": 0.7874015748031497,
          "duration": 0.06469288541666174
        },
        {
          "name": "D#6",
          "midi": 87,
          "time": 274.34169375000073,
          "velocity": 0.7874015748031497,
          "duration": 0.06469288541666174
        },
        {
          "name": "F6",
          "midi": 89,
          "time": 274.34169375000073,
          "velocity": 0.7874015748031497,
          "duration": 0.06469288541666174
        },
        {
          "name": "D7",
          "midi": 98,
          "time": 274.34169375000073,
          "velocity": 0.7874015748031497,
          "duration": 0.06469288541666174
        },
        {
          "name": "F7",
          "midi": 101,
          "time": 274.34169375000073,
          "velocity": 0.7874015748031497,
          "duration": 0.06469288541666174
        },
        {
          "name": "D6",
          "midi": 86,
          "time": 274.47327250000075,
          "velocity": 0.7874015748031497,
          "duration": 0.06469288541666174
        },
        {
          "name": "F6",
          "midi": 89,
          "time": 274.47327250000075,
          "velocity": 0.7874015748031497,
          "duration": 0.06469288541666174
        },
        {
          "name": "D7",
          "midi": 98,
          "time": 274.47327250000075,
          "velocity": 0.7874015748031497,
          "duration": 0.06469288541666174
        },
        {
          "name": "F#7",
          "midi": 102,
          "time": 274.47327250000075,
          "velocity": 0.7874015748031497,
          "duration": 0.06469288541666174
        },
        {
          "name": "C4",
          "midi": 60,
          "time": 274.7364300000007,
          "velocity": 0.7874015748031497,
          "duration": 1.0515335104166752
        },
        {
          "name": "F#4",
          "midi": 66,
          "time": 274.7364300000007,
          "velocity": 0.7874015748031497,
          "duration": 1.0504370208333285
        },
        {
          "name": "C#5",
          "midi": 73,
          "time": 274.7364300000007,
          "velocity": 0.7874015748031497,
          "duration": 1.0515335104166752
        },
        {
          "name": "F#5",
          "midi": 78,
          "time": 274.7364300000007,
          "velocity": 0.7874015748031497,
          "duration": 1.0504370208333285
        },
        {
          "name": "C#6",
          "midi": 85,
          "time": 274.7364300000007,
          "velocity": 0.7874015748031497,
          "duration": 1.0515335104166752
        },
        {
          "name": "F#6",
          "midi": 90,
          "time": 274.7364300000007,
          "velocity": 0.7874015748031497,
          "duration": 1.0504370208333285
        },
        {
          "name": "C#7",
          "midi": 97,
          "time": 274.7364300000007,
          "velocity": 0.7874015748031497,
          "duration": 1.0515335104166752
        },
        {
          "name": "F#7",
          "midi": 102,
          "time": 274.7364300000007,
          "velocity": 0.7874015748031497,
          "duration": 1.0504370208333285
        },
        {
          "name": "D4",
          "midi": 62,
          "time": 275.78906000000075,
          "velocity": 0.7874015748031497,
          "duration": 0.06469288541666174
        },
        {
          "name": "F#4",
          "midi": 66,
          "time": 275.78906000000075,
          "velocity": 0.7874015748031497,
          "duration": 0.06469288541666174
        },
        {
          "name": "D#5",
          "midi": 75,
          "time": 275.78906000000075,
          "velocity": 0.7874015748031497,
          "duration": 0.06469288541666174
        },
        {
          "name": "F#5",
          "midi": 78,
          "time": 275.78906000000075,
          "velocity": 0.7874015748031497,
          "duration": 0.06469288541666174
        },
        {
          "name": "E6",
          "midi": 88,
          "time": 275.78906000000075,
          "velocity": 0.7874015748031497,
          "duration": 0.06469288541666174
        },
        {
          "name": "F#6",
          "midi": 90,
          "time": 275.78906000000075,
          "velocity": 0.7874015748031497,
          "duration": 0.06469288541666174
        },
        {
          "name": "E7",
          "midi": 100,
          "time": 275.78906000000075,
          "velocity": 0.7874015748031497,
          "duration": 0.06469288541666174
        },
        {
          "name": "F#7",
          "midi": 102,
          "time": 275.78906000000075,
          "velocity": 0.7874015748031497,
          "duration": 0.06469288541666174
        },
        {
          "name": "E7",
          "midi": 100,
          "time": 275.92063875000076,
          "velocity": 0.7874015748031497,
          "duration": 0.06469288541666174
        },
        {
          "name": "F#7",
          "midi": 102,
          "time": 275.92063875000076,
          "velocity": 0.7874015748031497,
          "duration": 0.06469288541666174
        },
        {
          "name": "D5",
          "midi": 74,
          "time": 276.05112101041743,
          "velocity": 0.7874015748031497,
          "duration": 0.06578937500000848
        },
        {
          "name": "F5",
          "midi": 77,
          "time": 276.05112101041743,
          "velocity": 0.7874015748031497,
          "duration": 0.06578937500000848
        },
        {
          "name": "D#6",
          "midi": 87,
          "time": 276.05112101041743,
          "velocity": 0.7874015748031497,
          "duration": 0.06578937500000848
        },
        {
          "name": "F6",
          "midi": 89,
          "time": 276.05112101041743,
          "velocity": 0.7874015748031497,
          "duration": 0.06578937500000848
        },
        {
          "name": "D#7",
          "midi": 99,
          "time": 276.05112101041743,
          "velocity": 0.7874015748031497,
          "duration": 0.06578937500000848
        },
        {
          "name": "F7",
          "midi": 101,
          "time": 276.05112101041743,
          "velocity": 0.7874015748031497,
          "duration": 0.06578937500000848
        },
        {
          "name": "D4",
          "midi": 62,
          "time": 276.18269976041745,
          "velocity": 0.7874015748031497,
          "duration": 0.06469288541666174
        },
        {
          "name": "F#4",
          "midi": 66,
          "time": 276.18269976041745,
          "velocity": 0.7874015748031497,
          "duration": 0.06469288541666174
        },
        {
          "name": "D#5",
          "midi": 75,
          "time": 276.18269976041745,
          "velocity": 0.7874015748031497,
          "duration": 0.06469288541666174
        },
        {
          "name": "F5",
          "midi": 77,
          "time": 276.18269976041745,
          "velocity": 0.7874015748031497,
          "duration": 0.06469288541666174
        },
        {
          "name": "E6",
          "midi": 88,
          "time": 276.18269976041745,
          "velocity": 0.7874015748031497,
          "duration": 0.06469288541666174
        },
        {
          "name": "F6",
          "midi": 89,
          "time": 276.18269976041745,
          "velocity": 0.7874015748031497,
          "duration": 0.06469288541666174
        },
        {
          "name": "E7",
          "midi": 100,
          "time": 276.18269976041745,
          "velocity": 0.7874015748031497,
          "duration": 0.06469288541666174
        },
        {
          "name": "F7",
          "midi": 101,
          "time": 276.18269976041745,
          "velocity": 0.7874015748031497,
          "duration": 0.06469288541666174
        },
        {
          "name": "D#7",
          "midi": 99,
          "time": 276.31537500000076,
          "velocity": 0.7874015748031497,
          "duration": 0.06578937500000848
        },
        {
          "name": "F7",
          "midi": 101,
          "time": 276.31537500000076,
          "velocity": 0.7874015748031497,
          "duration": 0.06578937500000848
        },
        {
          "name": "C#4",
          "midi": 61,
          "time": 276.4469537500008,
          "velocity": 0.7874015748031497,
          "duration": 0.06578937500000848
        },
        {
          "name": "F4",
          "midi": 65,
          "time": 276.4469537500008,
          "velocity": 0.7874015748031497,
          "duration": 0.06578937500000848
        },
        {
          "name": "D5",
          "midi": 74,
          "time": 276.4469537500008,
          "velocity": 0.7874015748031497,
          "duration": 0.06578937500000848
        },
        {
          "name": "F5",
          "midi": 77,
          "time": 276.4469537500008,
          "velocity": 0.7874015748031497,
          "duration": 0.06578937500000848
        },
        {
          "name": "D#6",
          "midi": 87,
          "time": 276.4469537500008,
          "velocity": 0.7874015748031497,
          "duration": 0.06578937500000848
        },
        {
          "name": "F6",
          "midi": 89,
          "time": 276.4469537500008,
          "velocity": 0.7874015748031497,
          "duration": 0.06578937500000848
        },
        {
          "name": "D7",
          "midi": 98,
          "time": 276.4469537500008,
          "velocity": 0.7874015748031497,
          "duration": 0.06578937500000848
        },
        {
          "name": "F7",
          "midi": 101,
          "time": 276.4469537500008,
          "velocity": 0.7874015748031497,
          "duration": 0.06578937500000848
        },
        {
          "name": "D6",
          "midi": 86,
          "time": 276.5785325000008,
          "velocity": 0.7874015748031497,
          "duration": 0.06578937500000848
        },
        {
          "name": "F6",
          "midi": 89,
          "time": 276.5785325000008,
          "velocity": 0.7874015748031497,
          "duration": 0.06578937500000848
        },
        {
          "name": "D#7",
          "midi": 99,
          "time": 276.5785325000008,
          "velocity": 0.7874015748031497,
          "duration": 0.06578937500000848
        },
        {
          "name": "F7",
          "midi": 101,
          "time": 276.5785325000008,
          "velocity": 0.7874015748031497,
          "duration": 0.06578937500000848
        },
        {
          "name": "D7",
          "midi": 98,
          "time": 276.7101112500008,
          "velocity": 0.7874015748031497,
          "duration": 0.06578937500000848
        },
        {
          "name": "F7",
          "midi": 101,
          "time": 276.7101112500008,
          "velocity": 0.7874015748031497,
          "duration": 0.06578937500000848
        },
        {
          "name": "C#4",
          "midi": 61,
          "time": 276.8416900000008,
          "velocity": 0.7874015748031497,
          "duration": 0.3925432708333574
        },
        {
          "name": "F#4",
          "midi": 66,
          "time": 276.8416900000008,
          "velocity": 0.7874015748031497,
          "duration": 0.3925432708333574
        },
        {
          "name": "C#5",
          "midi": 73,
          "time": 276.8416900000008,
          "velocity": 0.7874015748031497,
          "duration": 0.3925432708333574
        },
        {
          "name": "F#5",
          "midi": 78,
          "time": 276.8416900000008,
          "velocity": 0.7874015748031497,
          "duration": 0.3925432708333574
        },
        {
          "name": "C#6",
          "midi": 85,
          "time": 276.8416900000008,
          "velocity": 0.7874015748031497,
          "duration": 0.3925432708333574
        },
        {
          "name": "F#6",
          "midi": 90,
          "time": 276.8416900000008,
          "velocity": 0.7874015748031497,
          "duration": 0.3925432708333574
        },
        {
          "name": "C#7",
          "midi": 97,
          "time": 276.8416900000008,
          "velocity": 0.7874015748031497,
          "duration": 0.3925432708333574
        },
        {
          "name": "F7",
          "midi": 101,
          "time": 276.8416900000008,
          "velocity": 0.7874015748031497,
          "duration": 0.3925432708333574
        },
        {
          "name": "D4",
          "midi": 62,
          "time": 277.2364262500009,
          "velocity": 0.7874015748031497,
          "duration": 0.3925432708333574
        },
        {
          "name": "F#4",
          "midi": 66,
          "time": 277.2364262500009,
          "velocity": 0.7874015748031497,
          "duration": 0.3925432708333574
        },
        {
          "name": "D5",
          "midi": 74,
          "time": 277.2364262500009,
          "velocity": 0.7874015748031497,
          "duration": 0.3925432708333574
        },
        {
          "name": "F#5",
          "midi": 78,
          "time": 277.2364262500009,
          "velocity": 0.7874015748031497,
          "duration": 0.3925432708333574
        },
        {
          "name": "D6",
          "midi": 86,
          "time": 277.2364262500009,
          "velocity": 0.7874015748031497,
          "duration": 0.3925432708333574
        },
        {
          "name": "F#6",
          "midi": 90,
          "time": 277.2364262500009,
          "velocity": 0.7874015748031497,
          "duration": 0.3925432708333574
        },
        {
          "name": "D7",
          "midi": 98,
          "time": 277.2364262500009,
          "velocity": 0.7874015748031497,
          "duration": 0.3925432708333574
        },
        {
          "name": "F#7",
          "midi": 102,
          "time": 277.2364262500009,
          "velocity": 0.7874015748031497,
          "duration": 0.3925432708333574
        },
        {
          "name": "C#4",
          "midi": 61,
          "time": 277.6311625000009,
          "velocity": 0.7874015748031497,
          "duration": 0.06578937500000848
        },
        {
          "name": "F#4",
          "midi": 66,
          "time": 277.6311625000009,
          "velocity": 0.7874015748031497,
          "duration": 0.06578937500000848
        },
        {
          "name": "C5",
          "midi": 72,
          "time": 277.6311625000009,
          "velocity": 0.7874015748031497,
          "duration": 0.06578937500000848
        },
        {
          "name": "F#5",
          "midi": 78,
          "time": 277.6311625000009,
          "velocity": 0.7874015748031497,
          "duration": 0.06578937500000848
        },
        {
          "name": "C6",
          "midi": 84,
          "time": 277.6311625000009,
          "velocity": 0.7874015748031497,
          "duration": 0.06578937500000848
        },
        {
          "name": "F#6",
          "midi": 90,
          "time": 277.6311625000009,
          "velocity": 0.7874015748031497,
          "duration": 0.06578937500000848
        },
        {
          "name": "C7",
          "midi": 96,
          "time": 277.6311625000009,
          "velocity": 0.7874015748031497,
          "duration": 0.06578937500000848
        },
        {
          "name": "F#7",
          "midi": 102,
          "time": 277.6311625000009,
          "velocity": 0.7874015748031497,
          "duration": 0.06578937500000848
        },
        {
          "name": "D4",
          "midi": 62,
          "time": 277.89432000000096,
          "velocity": 0.7874015748031497,
          "duration": 0.06469288541666174
        },
        {
          "name": "F#4",
          "midi": 66,
          "time": 277.89432000000096,
          "velocity": 0.7874015748031497,
          "duration": 0.06469288541666174
        },
        {
          "name": "D#5",
          "midi": 75,
          "time": 277.89432000000096,
          "velocity": 0.7874015748031497,
          "duration": 0.06469288541666174
        },
        {
          "name": "F#5",
          "midi": 78,
          "time": 277.89432000000096,
          "velocity": 0.7874015748031497,
          "duration": 0.06469288541666174
        },
        {
          "name": "E6",
          "midi": 88,
          "time": 277.89432000000096,
          "velocity": 0.7874015748031497,
          "duration": 0.06469288541666174
        },
        {
          "name": "F#6",
          "midi": 90,
          "time": 277.89432000000096,
          "velocity": 0.7874015748031497,
          "duration": 0.06469288541666174
        },
        {
          "name": "E7",
          "midi": 100,
          "time": 277.89432000000096,
          "velocity": 0.7874015748031497,
          "duration": 0.06469288541666174
        },
        {
          "name": "F#7",
          "midi": 102,
          "time": 277.89432000000096,
          "velocity": 0.7874015748031497,
          "duration": 0.06469288541666174
        },
        {
          "name": "E7",
          "midi": 100,
          "time": 278.02699523958427,
          "velocity": 0.7874015748031497,
          "duration": 0.06469288541666174
        },
        {
          "name": "F#7",
          "midi": 102,
          "time": 278.02699523958427,
          "velocity": 0.7874015748031497,
          "duration": 0.06469288541666174
        },
        {
          "name": "D5",
          "midi": 74,
          "time": 278.1585739895843,
          "velocity": 0.7874015748031497,
          "duration": 0.06469288541666174
        },
        {
          "name": "F5",
          "midi": 77,
          "time": 278.1585739895843,
          "velocity": 0.7874015748031497,
          "duration": 0.06469288541666174
        },
        {
          "name": "D#6",
          "midi": 87,
          "time": 278.1585739895843,
          "velocity": 0.7874015748031497,
          "duration": 0.06469288541666174
        },
        {
          "name": "F6",
          "midi": 89,
          "time": 278.1585739895843,
          "velocity": 0.7874015748031497,
          "duration": 0.06469288541666174
        },
        {
          "name": "D#7",
          "midi": 99,
          "time": 278.1585739895843,
          "velocity": 0.7874015748031497,
          "duration": 0.06469288541666174
        },
        {
          "name": "F7",
          "midi": 101,
          "time": 278.1585739895843,
          "velocity": 0.7874015748031497,
          "duration": 0.06469288541666174
        },
        {
          "name": "D4",
          "midi": 62,
          "time": 278.28905625000095,
          "velocity": 0.7874015748031497,
          "duration": 0.06578937500000848
        },
        {
          "name": "F#4",
          "midi": 66,
          "time": 278.28905625000095,
          "velocity": 0.7874015748031497,
          "duration": 0.06578937500000848
        },
        {
          "name": "D#5",
          "midi": 75,
          "time": 278.28905625000095,
          "velocity": 0.7874015748031497,
          "duration": 0.06578937500000848
        },
        {
          "name": "F5",
          "midi": 77,
          "time": 278.28905625000095,
          "velocity": 0.7874015748031497,
          "duration": 0.06578937500000848
        },
        {
          "name": "E6",
          "midi": 88,
          "time": 278.28905625000095,
          "velocity": 0.7874015748031497,
          "duration": 0.06578937500000848
        },
        {
          "name": "F6",
          "midi": 89,
          "time": 278.28905625000095,
          "velocity": 0.7874015748031497,
          "duration": 0.06578937500000848
        },
        {
          "name": "E7",
          "midi": 100,
          "time": 278.28905625000095,
          "velocity": 0.7874015748031497,
          "duration": 0.06578937500000848
        },
        {
          "name": "F7",
          "midi": 101,
          "time": 278.28905625000095,
          "velocity": 0.7874015748031497,
          "duration": 0.06578937500000848
        },
        {
          "name": "D#7",
          "midi": 99,
          "time": 278.42063500000097,
          "velocity": 0.7874015748031497,
          "duration": 0.06469288541666174
        },
        {
          "name": "F7",
          "midi": 101,
          "time": 278.42063500000097,
          "velocity": 0.7874015748031497,
          "duration": 0.06469288541666174
        },
        {
          "name": "C#4",
          "midi": 61,
          "time": 278.552213750001,
          "velocity": 0.7874015748031497,
          "duration": 0.06469288541666174
        },
        {
          "name": "F4",
          "midi": 65,
          "time": 278.552213750001,
          "velocity": 0.7874015748031497,
          "duration": 0.06469288541666174
        },
        {
          "name": "D5",
          "midi": 74,
          "time": 278.552213750001,
          "velocity": 0.7874015748031497,
          "duration": 0.06469288541666174
        },
        {
          "name": "F5",
          "midi": 77,
          "time": 278.552213750001,
          "velocity": 0.7874015748031497,
          "duration": 0.06469288541666174
        },
        {
          "name": "D#6",
          "midi": 87,
          "time": 278.552213750001,
          "velocity": 0.7874015748031497,
          "duration": 0.06469288541666174
        },
        {
          "name": "F6",
          "midi": 89,
          "time": 278.552213750001,
          "velocity": 0.7874015748031497,
          "duration": 0.06469288541666174
        },
        {
          "name": "D7",
          "midi": 98,
          "time": 278.552213750001,
          "velocity": 0.7874015748031497,
          "duration": 0.06469288541666174
        },
        {
          "name": "F7",
          "midi": 101,
          "time": 278.552213750001,
          "velocity": 0.7874015748031497,
          "duration": 0.06469288541666174
        },
        {
          "name": "D6",
          "midi": 86,
          "time": 278.6848889895843,
          "velocity": 0.7874015748031497,
          "duration": 0.06469288541666174
        },
        {
          "name": "F6",
          "midi": 89,
          "time": 278.6848889895843,
          "velocity": 0.7874015748031497,
          "duration": 0.06469288541666174
        },
        {
          "name": "D7",
          "midi": 98,
          "time": 278.6848889895843,
          "velocity": 0.7874015748031497,
          "duration": 0.06469288541666174
        },
        {
          "name": "F#7",
          "midi": 102,
          "time": 278.6848889895843,
          "velocity": 0.7874015748031497,
          "duration": 0.06469288541666174
        },
        {
          "name": "C4",
          "midi": 60,
          "time": 278.946950000001,
          "velocity": 0.7874015748031497,
          "duration": 1.0515335104166752
        },
        {
          "name": "F#4",
          "midi": 66,
          "time": 278.946950000001,
          "velocity": 0.7874015748031497,
          "duration": 1.0504370208333285
        },
        {
          "name": "C#5",
          "midi": 73,
          "time": 278.946950000001,
          "velocity": 0.7874015748031497,
          "duration": 1.0515335104166752
        },
        {
          "name": "F#5",
          "midi": 78,
          "time": 278.946950000001,
          "velocity": 0.7874015748031497,
          "duration": 1.0504370208333285
        },
        {
          "name": "C#6",
          "midi": 85,
          "time": 278.946950000001,
          "velocity": 0.7874015748031497,
          "duration": 1.0515335104166752
        },
        {
          "name": "F#6",
          "midi": 90,
          "time": 278.946950000001,
          "velocity": 0.7874015748031497,
          "duration": 1.0504370208333285
        },
        {
          "name": "C#7",
          "midi": 97,
          "time": 278.946950000001,
          "velocity": 0.7874015748031497,
          "duration": 1.0515335104166752
        },
        {
          "name": "F#7",
          "midi": 102,
          "time": 278.946950000001,
          "velocity": 0.7874015748031497,
          "duration": 1.0504370208333285
        },
        {
          "name": "D4",
          "midi": 62,
          "time": 279.999580000001,
          "velocity": 0.7874015748031497,
          "duration": 0.06578937500000848
        },
        {
          "name": "F#4",
          "midi": 66,
          "time": 279.999580000001,
          "velocity": 0.7874015748031497,
          "duration": 0.06578937500000848
        },
        {
          "name": "D#5",
          "midi": 75,
          "time": 279.999580000001,
          "velocity": 0.7874015748031497,
          "duration": 0.06578937500000848
        },
        {
          "name": "F#5",
          "midi": 78,
          "time": 279.999580000001,
          "velocity": 0.7874015748031497,
          "duration": 0.06578937500000848
        },
        {
          "name": "E6",
          "midi": 88,
          "time": 279.999580000001,
          "velocity": 0.7874015748031497,
          "duration": 0.06578937500000848
        },
        {
          "name": "F#6",
          "midi": 90,
          "time": 279.999580000001,
          "velocity": 0.7874015748031497,
          "duration": 0.06578937500000848
        },
        {
          "name": "E7",
          "midi": 100,
          "time": 279.999580000001,
          "velocity": 0.7874015748031497,
          "duration": 0.06578937500000848
        },
        {
          "name": "F#7",
          "midi": 102,
          "time": 279.999580000001,
          "velocity": 0.7874015748031497,
          "duration": 0.06578937500000848
        },
        {
          "name": "E7",
          "midi": 100,
          "time": 280.131158750001,
          "velocity": 0.7874015748031497,
          "duration": 0.06578937500000848
        },
        {
          "name": "F#7",
          "midi": 102,
          "time": 280.131158750001,
          "velocity": 0.7874015748031497,
          "duration": 0.06578937500000848
        },
        {
          "name": "D5",
          "midi": 74,
          "time": 280.2638339895844,
          "velocity": 0.7874015748031497,
          "duration": 0.06469288541666174
        },
        {
          "name": "F5",
          "midi": 77,
          "time": 280.2638339895844,
          "velocity": 0.7874015748031497,
          "duration": 0.06469288541666174
        },
        {
          "name": "D#6",
          "midi": 87,
          "time": 280.2638339895844,
          "velocity": 0.7874015748031497,
          "duration": 0.06469288541666174
        },
        {
          "name": "F6",
          "midi": 89,
          "time": 280.2638339895844,
          "velocity": 0.7874015748031497,
          "duration": 0.06469288541666174
        },
        {
          "name": "D#7",
          "midi": 99,
          "time": 280.2638339895844,
          "velocity": 0.7874015748031497,
          "duration": 0.06469288541666174
        },
        {
          "name": "F7",
          "midi": 101,
          "time": 280.2638339895844,
          "velocity": 0.7874015748031497,
          "duration": 0.06469288541666174
        },
        {
          "name": "D4",
          "midi": 62,
          "time": 280.39431625000105,
          "velocity": 0.7874015748031497,
          "duration": 0.06469288541666174
        },
        {
          "name": "F#4",
          "midi": 66,
          "time": 280.39431625000105,
          "velocity": 0.7874015748031497,
          "duration": 0.06469288541666174
        },
        {
          "name": "D#5",
          "midi": 75,
          "time": 280.39431625000105,
          "velocity": 0.7874015748031497,
          "duration": 0.06469288541666174
        },
        {
          "name": "F5",
          "midi": 77,
          "time": 280.39431625000105,
          "velocity": 0.7874015748031497,
          "duration": 0.06469288541666174
        },
        {
          "name": "E6",
          "midi": 88,
          "time": 280.39431625000105,
          "velocity": 0.7874015748031497,
          "duration": 0.06469288541666174
        },
        {
          "name": "F6",
          "midi": 89,
          "time": 280.39431625000105,
          "velocity": 0.7874015748031497,
          "duration": 0.06469288541666174
        },
        {
          "name": "E7",
          "midi": 100,
          "time": 280.39431625000105,
          "velocity": 0.7874015748031497,
          "duration": 0.06469288541666174
        },
        {
          "name": "F7",
          "midi": 101,
          "time": 280.39431625000105,
          "velocity": 0.7874015748031497,
          "duration": 0.06469288541666174
        },
        {
          "name": "D#7",
          "midi": 99,
          "time": 280.52589500000107,
          "velocity": 0.7874015748031497,
          "duration": 0.06578937500000848
        },
        {
          "name": "F7",
          "midi": 101,
          "time": 280.52589500000107,
          "velocity": 0.7874015748031497,
          "duration": 0.06578937500000848
        },
        {
          "name": "C#4",
          "midi": 61,
          "time": 280.65637726041774,
          "velocity": 0.7874015748031497,
          "duration": 0.06578937500000848
        },
        {
          "name": "F4",
          "midi": 65,
          "time": 280.65637726041774,
          "velocity": 0.7874015748031497,
          "duration": 0.06578937500000848
        },
        {
          "name": "D5",
          "midi": 74,
          "time": 280.65637726041774,
          "velocity": 0.7874015748031497,
          "duration": 0.06578937500000848
        },
        {
          "name": "F5",
          "midi": 77,
          "time": 280.65637726041774,
          "velocity": 0.7874015748031497,
          "duration": 0.06578937500000848
        },
        {
          "name": "D#6",
          "midi": 87,
          "time": 280.65637726041774,
          "velocity": 0.7874015748031497,
          "duration": 0.06578937500000848
        },
        {
          "name": "F6",
          "midi": 89,
          "time": 280.65637726041774,
          "velocity": 0.7874015748031497,
          "duration": 0.06578937500000848
        },
        {
          "name": "D7",
          "midi": 98,
          "time": 280.65637726041774,
          "velocity": 0.7874015748031497,
          "duration": 0.06578937500000848
        },
        {
          "name": "F7",
          "midi": 101,
          "time": 280.65637726041774,
          "velocity": 0.7874015748031497,
          "duration": 0.06578937500000848
        },
        {
          "name": "D6",
          "midi": 86,
          "time": 280.7890525000011,
          "velocity": 0.7874015748031497,
          "duration": 0.06578937500000848
        },
        {
          "name": "F6",
          "midi": 89,
          "time": 280.7890525000011,
          "velocity": 0.7874015748031497,
          "duration": 0.06578937500000848
        },
        {
          "name": "C#7",
          "midi": 97,
          "time": 280.7890525000011,
          "velocity": 0.7874015748031497,
          "duration": 0.06578937500000848
        },
        {
          "name": "F7",
          "midi": 101,
          "time": 280.7890525000011,
          "velocity": 0.7874015748031497,
          "duration": 0.06578937500000848
        },
        {
          "name": "C7",
          "midi": 96,
          "time": 280.92172773958447,
          "velocity": 0.7874015748031497,
          "duration": 0.06469288541666174
        },
        {
          "name": "F7",
          "midi": 101,
          "time": 280.92172773958447,
          "velocity": 0.7874015748031497,
          "duration": 0.06469288541666174
        },
        {
          "name": "C#4",
          "midi": 61,
          "time": 281.05221000000114,
          "velocity": 0.7874015748031497,
          "duration": 0.06469288541666174
        },
        {
          "name": "F#4",
          "midi": 66,
          "time": 281.05221000000114,
          "velocity": 0.7874015748031497,
          "duration": 0.06469288541666174
        },
        {
          "name": "C#5",
          "midi": 73,
          "time": 281.05221000000114,
          "velocity": 0.7874015748031497,
          "duration": 0.06469288541666174
        },
        {
          "name": "F#5",
          "midi": 78,
          "time": 281.05221000000114,
          "velocity": 0.7874015748031497,
          "duration": 0.06469288541666174
        },
        {
          "name": "D6",
          "midi": 86,
          "time": 281.05221000000114,
          "velocity": 0.7874015748031497,
          "duration": 0.06469288541666174
        },
        {
          "name": "F#6",
          "midi": 90,
          "time": 281.05221000000114,
          "velocity": 0.7874015748031497,
          "duration": 0.06469288541666174
        },
        {
          "name": "D7",
          "midi": 98,
          "time": 281.05221000000114,
          "velocity": 0.7874015748031497,
          "duration": 0.06469288541666174
        },
        {
          "name": "F7",
          "midi": 101,
          "time": 281.05221000000114,
          "velocity": 0.7874015748031497,
          "duration": 0.06469288541666174
        },
        {
          "name": "D7",
          "midi": 98,
          "time": 281.18378875000116,
          "velocity": 0.7874015748031497,
          "duration": 0.06469288541666174
        },
        {
          "name": "F#7",
          "midi": 102,
          "time": 281.18378875000116,
          "velocity": 0.7874015748031497,
          "duration": 0.06469288541666174
        },
        {
          "name": "C5",
          "midi": 72,
          "time": 281.3142710104178,
          "velocity": 0.7874015748031497,
          "duration": 0.06469288541666174
        },
        {
          "name": "F5",
          "midi": 77,
          "time": 281.3142710104178,
          "velocity": 0.7874015748031497,
          "duration": 0.06469288541666174
        },
        {
          "name": "C#6",
          "midi": 85,
          "time": 281.3142710104178,
          "velocity": 0.7874015748031497,
          "duration": 0.06469288541666174
        },
        {
          "name": "F6",
          "midi": 89,
          "time": 281.3142710104178,
          "velocity": 0.7874015748031497,
          "duration": 0.06469288541666174
        },
        {
          "name": "C#7",
          "midi": 97,
          "time": 281.3142710104178,
          "velocity": 0.7874015748031497,
          "duration": 0.06469288541666174
        },
        {
          "name": "F7",
          "midi": 101,
          "time": 281.3142710104178,
          "velocity": 0.7874015748031497,
          "duration": 0.06469288541666174
        },
        {
          "name": "C#4",
          "midi": 61,
          "time": 281.44694625000113,
          "velocity": 0.7874015748031497,
          "duration": 0.06469288541666174
        },
        {
          "name": "F#4",
          "midi": 66,
          "time": 281.44694625000113,
          "velocity": 0.7874015748031497,
          "duration": 0.06469288541666174
        },
        {
          "name": "C#5",
          "midi": 73,
          "time": 281.44694625000113,
          "velocity": 0.7874015748031497,
          "duration": 0.06469288541666174
        },
        {
          "name": "F5",
          "midi": 77,
          "time": 281.44694625000113,
          "velocity": 0.7874015748031497,
          "duration": 0.06469288541666174
        },
        {
          "name": "D6",
          "midi": 86,
          "time": 281.44694625000113,
          "velocity": 0.7874015748031497,
          "duration": 0.06469288541666174
        },
        {
          "name": "F6",
          "midi": 89,
          "time": 281.44694625000113,
          "velocity": 0.7874015748031497,
          "duration": 0.06469288541666174
        },
        {
          "name": "D7",
          "midi": 98,
          "time": 281.44694625000113,
          "velocity": 0.7874015748031497,
          "duration": 0.06469288541666174
        },
        {
          "name": "F7",
          "midi": 101,
          "time": 281.44694625000113,
          "velocity": 0.7874015748031497,
          "duration": 0.06469288541666174
        },
        {
          "name": "C#7",
          "midi": 97,
          "time": 281.57852500000115,
          "velocity": 0.7874015748031497,
          "duration": 0.06469288541666174
        },
        {
          "name": "F7",
          "midi": 101,
          "time": 281.57852500000115,
          "velocity": 0.7874015748031497,
          "duration": 0.06469288541666174
        },
        {
          "name": "C4",
          "midi": 60,
          "time": 281.7090072604178,
          "velocity": 0.7874015748031497,
          "duration": 0.06578937500000848
        },
        {
          "name": "F4",
          "midi": 65,
          "time": 281.7090072604178,
          "velocity": 0.7874015748031497,
          "duration": 0.06578937500000848
        },
        {
          "name": "C5",
          "midi": 72,
          "time": 281.7090072604178,
          "velocity": 0.7874015748031497,
          "duration": 0.06578937500000848
        },
        {
          "name": "F5",
          "midi": 77,
          "time": 281.7090072604178,
          "velocity": 0.7874015748031497,
          "duration": 0.06578937500000848
        },
        {
          "name": "C#6",
          "midi": 85,
          "time": 281.7090072604178,
          "velocity": 0.7874015748031497,
          "duration": 0.06578937500000848
        },
        {
          "name": "F6",
          "midi": 89,
          "time": 281.7090072604178,
          "velocity": 0.7874015748031497,
          "duration": 0.06578937500000848
        },
        {
          "name": "C7",
          "midi": 96,
          "time": 281.7090072604178,
          "velocity": 0.7874015748031497,
          "duration": 0.06578937500000848
        },
        {
          "name": "F7",
          "midi": 101,
          "time": 281.7090072604178,
          "velocity": 0.7874015748031497,
          "duration": 0.06578937500000848
        },
        {
          "name": "C6",
          "midi": 84,
          "time": 281.8416825000012,
          "velocity": 0.7874015748031497,
          "duration": 0.06469288541666174
        },
        {
          "name": "F6",
          "midi": 89,
          "time": 281.8416825000012,
          "velocity": 0.7874015748031497,
          "duration": 0.06469288541666174
        },
        {
          "name": "C7",
          "midi": 96,
          "time": 281.8416825000012,
          "velocity": 0.7874015748031497,
          "duration": 0.06469288541666174
        },
        {
          "name": "F#7",
          "midi": 102,
          "time": 281.8416825000012,
          "velocity": 0.7874015748031497,
          "duration": 0.06469288541666174
        },
        {
          "name": "D4",
          "midi": 62,
          "time": 282.10484000000116,
          "velocity": 0.7874015748031497,
          "duration": 0.06578937500000848
        },
        {
          "name": "F#4",
          "midi": 66,
          "time": 282.10484000000116,
          "velocity": 0.7874015748031497,
          "duration": 0.06578937500000848
        },
        {
          "name": "D5",
          "midi": 74,
          "time": 282.10484000000116,
          "velocity": 0.7874015748031497,
          "duration": 0.06578937500000848
        },
        {
          "name": "F#5",
          "midi": 78,
          "time": 282.10484000000116,
          "velocity": 0.7874015748031497,
          "duration": 0.06578937500000848
        },
        {
          "name": "D#6",
          "midi": 87,
          "time": 282.10484000000116,
          "velocity": 0.7874015748031497,
          "duration": 0.06578937500000848
        },
        {
          "name": "F#6",
          "midi": 90,
          "time": 282.10484000000116,
          "velocity": 0.7874015748031497,
          "duration": 0.06578937500000848
        },
        {
          "name": "D#7",
          "midi": 99,
          "time": 282.10484000000116,
          "velocity": 0.7874015748031497,
          "duration": 0.06578937500000848
        },
        {
          "name": "F#7",
          "midi": 102,
          "time": 282.10484000000116,
          "velocity": 0.7874015748031497,
          "duration": 0.06578937500000848
        },
        {
          "name": "D#7",
          "midi": 99,
          "time": 282.2364187500012,
          "velocity": 0.7874015748031497,
          "duration": 0.06578937500000848
        },
        {
          "name": "F#7",
          "midi": 102,
          "time": 282.2364187500012,
          "velocity": 0.7874015748031497,
          "duration": 0.06578937500000848
        },
        {
          "name": "C#5",
          "midi": 73,
          "time": 282.3679975000012,
          "velocity": 0.7874015748031497,
          "duration": 0.06578937500000848
        },
        {
          "name": "F5",
          "midi": 77,
          "time": 282.3679975000012,
          "velocity": 0.7874015748031497,
          "duration": 0.06578937500000848
        },
        {
          "name": "D6",
          "midi": 86,
          "time": 282.3679975000012,
          "velocity": 0.7874015748031497,
          "duration": 0.06578937500000848
        },
        {
          "name": "F6",
          "midi": 89,
          "time": 282.3679975000012,
          "velocity": 0.7874015748031497,
          "duration": 0.06578937500000848
        },
        {
          "name": "D7",
          "midi": 98,
          "time": 282.3679975000012,
          "velocity": 0.7874015748031497,
          "duration": 0.06578937500000848
        },
        {
          "name": "F7",
          "midi": 101,
          "time": 282.3679975000012,
          "velocity": 0.7874015748031497,
          "duration": 0.06578937500000848
        },
        {
          "name": "D4",
          "midi": 62,
          "time": 282.4995762500012,
          "velocity": 0.7874015748031497,
          "duration": 0.06578937500000848
        },
        {
          "name": "F#4",
          "midi": 66,
          "time": 282.4995762500012,
          "velocity": 0.7874015748031497,
          "duration": 0.06578937500000848
        },
        {
          "name": "D5",
          "midi": 74,
          "time": 282.4995762500012,
          "velocity": 0.7874015748031497,
          "duration": 0.06578937500000848
        },
        {
          "name": "F5",
          "midi": 77,
          "time": 282.4995762500012,
          "velocity": 0.7874015748031497,
          "duration": 0.06578937500000848
        },
        {
          "name": "D#6",
          "midi": 87,
          "time": 282.4995762500012,
          "velocity": 0.7874015748031497,
          "duration": 0.06578937500000848
        },
        {
          "name": "F6",
          "midi": 89,
          "time": 282.4995762500012,
          "velocity": 0.7874015748031497,
          "duration": 0.06578937500000848
        },
        {
          "name": "D#7",
          "midi": 99,
          "time": 282.4995762500012,
          "velocity": 0.7874015748031497,
          "duration": 0.06578937500000848
        },
        {
          "name": "F7",
          "midi": 101,
          "time": 282.4995762500012,
          "velocity": 0.7874015748031497,
          "duration": 0.06578937500000848
        },
        {
          "name": "D7",
          "midi": 98,
          "time": 282.63115500000123,
          "velocity": 0.7874015748031497,
          "duration": 0.06688586458335521
        },
        {
          "name": "F7",
          "midi": 101,
          "time": 282.63115500000123,
          "velocity": 0.7874015748031497,
          "duration": 0.06688586458335521
        },
        {
          "name": "C#4",
          "midi": 61,
          "time": 282.76273375000125,
          "velocity": 0.7874015748031497,
          "duration": 0.06578937500000848
        },
        {
          "name": "F4",
          "midi": 65,
          "time": 282.76273375000125,
          "velocity": 0.7874015748031497,
          "duration": 0.06578937500000848
        },
        {
          "name": "C#5",
          "midi": 73,
          "time": 282.76273375000125,
          "velocity": 0.7874015748031497,
          "duration": 0.06578937500000848
        },
        {
          "name": "F5",
          "midi": 77,
          "time": 282.76273375000125,
          "velocity": 0.7874015748031497,
          "duration": 0.06578937500000848
        },
        {
          "name": "D6",
          "midi": 86,
          "time": 282.76273375000125,
          "velocity": 0.7874015748031497,
          "duration": 0.06578937500000848
        },
        {
          "name": "F6",
          "midi": 89,
          "time": 282.76273375000125,
          "velocity": 0.7874015748031497,
          "duration": 0.06578937500000848
        },
        {
          "name": "C#7",
          "midi": 97,
          "time": 282.76273375000125,
          "velocity": 0.7874015748031497,
          "duration": 0.06578937500000848
        },
        {
          "name": "F7",
          "midi": 101,
          "time": 282.76273375000125,
          "velocity": 0.7874015748031497,
          "duration": 0.06578937500000848
        },
        {
          "name": "C#6",
          "midi": 85,
          "time": 282.8954089895846,
          "velocity": 0.7874015748031497,
          "duration": 0.06469288541666174
        },
        {
          "name": "F6",
          "midi": 89,
          "time": 282.8954089895846,
          "velocity": 0.7874015748031497,
          "duration": 0.06469288541666174
        },
        {
          "name": "C#7",
          "midi": 97,
          "time": 282.8954089895846,
          "velocity": 0.7874015748031497,
          "duration": 0.06469288541666174
        },
        {
          "name": "F#7",
          "midi": 102,
          "time": 282.8954089895846,
          "velocity": 0.7874015748031497,
          "duration": 0.06469288541666174
        },
        {
          "name": "C4",
          "midi": 60,
          "time": 283.0269877395846,
          "velocity": 0.7874015748031497,
          "duration": 1.1831122604166922
        },
        {
          "name": "F#4",
          "midi": 66,
          "time": 283.0269877395846,
          "velocity": 0.7874015748031497,
          "duration": 1.1831122604166922
        },
        {
          "name": "C5",
          "midi": 72,
          "time": 283.0269877395846,
          "velocity": 0.7874015748031497,
          "duration": 1.1831122604166922
        },
        {
          "name": "F#5",
          "midi": 78,
          "time": 283.0269877395846,
          "velocity": 0.7874015748031497,
          "duration": 1.1831122604166922
        },
        {
          "name": "C6",
          "midi": 84,
          "time": 283.0269877395846,
          "velocity": 0.7874015748031497,
          "duration": 1.1831122604166922
        },
        {
          "name": "F6",
          "midi": 89,
          "time": 283.0269877395846,
          "velocity": 0.7874015748031497,
          "duration": 1.1820157708333454
        },
        {
          "name": "C7",
          "midi": 96,
          "time": 283.0269877395846,
          "velocity": 0.7874015748031497,
          "duration": 1.1831122604166922
        },
        {
          "name": "F7",
          "midi": 101,
          "time": 283.0269877395846,
          "velocity": 0.7874015748031497,
          "duration": 1.1820157708333454
        },
        {
          "name": "G#8",
          "midi": 116,
          "time": 284.2101000000013,
          "velocity": 0.7874015748031497,
          "duration": 1.907891875000189
        },
        {
          "name": "D4",
          "midi": 62,
          "time": 284.2101000000013,
          "velocity": 0.7874015748031497,
          "duration": 0.06578937500000848
        },
        {
          "name": "F#4",
          "midi": 66,
          "time": 284.2101000000013,
          "velocity": 0.7874015748031497,
          "duration": 0.06578937500000848
        },
        {
          "name": "D5",
          "midi": 74,
          "time": 284.2101000000013,
          "velocity": 0.7874015748031497,
          "duration": 0.06578937500000848
        },
        {
          "name": "F#5",
          "midi": 78,
          "time": 284.2101000000013,
          "velocity": 0.7874015748031497,
          "duration": 0.06578937500000848
        },
        {
          "name": "D#6",
          "midi": 87,
          "time": 284.2101000000013,
          "velocity": 0.7874015748031497,
          "duration": 0.06578937500000848
        },
        {
          "name": "F#6",
          "midi": 90,
          "time": 284.2101000000013,
          "velocity": 0.7874015748031497,
          "duration": 0.06578937500000848
        },
        {
          "name": "D#7",
          "midi": 99,
          "time": 284.2101000000013,
          "velocity": 0.7874015748031497,
          "duration": 0.06578937500000848
        },
        {
          "name": "F#7",
          "midi": 102,
          "time": 284.2101000000013,
          "velocity": 0.7874015748031497,
          "duration": 0.06578937500000848
        },
        {
          "name": "D#7",
          "midi": 99,
          "time": 284.3427752395847,
          "velocity": 0.7874015748031497,
          "duration": 0.06469288541666174
        },
        {
          "name": "F#7",
          "midi": 102,
          "time": 284.3427752395847,
          "velocity": 0.7874015748031497,
          "duration": 0.06469288541666174
        },
        {
          "name": "C#5",
          "midi": 73,
          "time": 284.4743539895847,
          "velocity": 0.7874015748031497,
          "duration": 0.06469288541666174
        },
        {
          "name": "F5",
          "midi": 77,
          "time": 284.4743539895847,
          "velocity": 0.7874015748031497,
          "duration": 0.06469288541666174
        },
        {
          "name": "D6",
          "midi": 86,
          "time": 284.4743539895847,
          "velocity": 0.7874015748031497,
          "duration": 0.06469288541666174
        },
        {
          "name": "F6",
          "midi": 89,
          "time": 284.4743539895847,
          "velocity": 0.7874015748031497,
          "duration": 0.06469288541666174
        },
        {
          "name": "D7",
          "midi": 98,
          "time": 284.4743539895847,
          "velocity": 0.7874015748031497,
          "duration": 0.06469288541666174
        },
        {
          "name": "F7",
          "midi": 101,
          "time": 284.4743539895847,
          "velocity": 0.7874015748031497,
          "duration": 0.06469288541666174
        },
        {
          "name": "D4",
          "midi": 62,
          "time": 284.6059327395847,
          "velocity": 0.7874015748031497,
          "duration": 0.06469288541666174
        },
        {
          "name": "F#4",
          "midi": 66,
          "time": 284.6059327395847,
          "velocity": 0.7874015748031497,
          "duration": 0.06469288541666174
        },
        {
          "name": "D5",
          "midi": 74,
          "time": 284.6059327395847,
          "velocity": 0.7874015748031497,
          "duration": 0.06469288541666174
        },
        {
          "name": "F5",
          "midi": 77,
          "time": 284.6059327395847,
          "velocity": 0.7874015748031497,
          "duration": 0.06469288541666174
        },
        {
          "name": "D#6",
          "midi": 87,
          "time": 284.6059327395847,
          "velocity": 0.7874015748031497,
          "duration": 0.06469288541666174
        },
        {
          "name": "F6",
          "midi": 89,
          "time": 284.6059327395847,
          "velocity": 0.7874015748031497,
          "duration": 0.06469288541666174
        },
        {
          "name": "D#7",
          "midi": 99,
          "time": 284.6059327395847,
          "velocity": 0.7874015748031497,
          "duration": 0.06469288541666174
        },
        {
          "name": "F7",
          "midi": 101,
          "time": 284.6059327395847,
          "velocity": 0.7874015748031497,
          "duration": 0.06469288541666174
        },
        {
          "name": "D7",
          "midi": 98,
          "time": 284.7364150000014,
          "velocity": 0.7874015748031497,
          "duration": 0.06469288541666174
        },
        {
          "name": "F7",
          "midi": 101,
          "time": 284.7364150000014,
          "velocity": 0.7874015748031497,
          "duration": 0.06469288541666174
        },
        {
          "name": "C#4",
          "midi": 61,
          "time": 284.8679937500014,
          "velocity": 0.7874015748031497,
          "duration": 0.06469288541666174
        },
        {
          "name": "F4",
          "midi": 65,
          "time": 284.8679937500014,
          "velocity": 0.7874015748031497,
          "duration": 0.06469288541666174
        },
        {
          "name": "C#5",
          "midi": 73,
          "time": 284.8679937500014,
          "velocity": 0.7874015748031497,
          "duration": 0.06469288541666174
        },
        {
          "name": "F5",
          "midi": 77,
          "time": 284.8679937500014,
          "velocity": 0.7874015748031497,
          "duration": 0.06469288541666174
        },
        {
          "name": "D6",
          "midi": 86,
          "time": 284.8679937500014,
          "velocity": 0.7874015748031497,
          "duration": 0.06469288541666174
        },
        {
          "name": "F6",
          "midi": 89,
          "time": 284.8679937500014,
          "velocity": 0.7874015748031497,
          "duration": 0.06469288541666174
        },
        {
          "name": "C#7",
          "midi": 97,
          "time": 284.8679937500014,
          "velocity": 0.7874015748031497,
          "duration": 0.06469288541666174
        },
        {
          "name": "F7",
          "midi": 101,
          "time": 284.8679937500014,
          "velocity": 0.7874015748031497,
          "duration": 0.06469288541666174
        },
        {
          "name": "C#6",
          "midi": 85,
          "time": 284.9995725000014,
          "velocity": 0.7874015748031497,
          "duration": 0.06469288541666174
        },
        {
          "name": "F6",
          "midi": 89,
          "time": 284.9995725000014,
          "velocity": 0.7874015748031497,
          "duration": 0.06469288541666174
        },
        {
          "name": "D7",
          "midi": 98,
          "time": 284.9995725000014,
          "velocity": 0.7874015748031497,
          "duration": 0.06469288541666174
        },
        {
          "name": "F7",
          "midi": 101,
          "time": 284.9995725000014,
          "velocity": 0.7874015748031497,
          "duration": 0.06469288541666174
        },
        {
          "name": "C#7",
          "midi": 97,
          "time": 285.13115125000144,
          "velocity": 0.7874015748031497,
          "duration": 0.06469288541666174
        },
        {
          "name": "F7",
          "midi": 101,
          "time": 285.13115125000144,
          "velocity": 0.7874015748031497,
          "duration": 0.06469288541666174
        },
        {
          "name": "C4",
          "midi": 60,
          "time": 285.26273000000145,
          "velocity": 0.7874015748031497,
          "duration": 0.39144678125001064
        },
        {
          "name": "F#4",
          "midi": 66,
          "time": 285.26273000000145,
          "velocity": 0.7874015748031497,
          "duration": 0.39144678125001064
        },
        {
          "name": "C5",
          "midi": 72,
          "time": 285.26273000000145,
          "velocity": 0.7874015748031497,
          "duration": 0.39144678125001064
        },
        {
          "name": "F#5",
          "midi": 78,
          "time": 285.26273000000145,
          "velocity": 0.7874015748031497,
          "duration": 0.39144678125001064
        },
        {
          "name": "C6",
          "midi": 84,
          "time": 285.26273000000145,
          "velocity": 0.7874015748031497,
          "duration": 0.39144678125001064
        },
        {
          "name": "F#6",
          "midi": 90,
          "time": 285.26273000000145,
          "velocity": 0.7874015748031497,
          "duration": 0.39144678125001064
        },
        {
          "name": "C7",
          "midi": 96,
          "time": 285.26273000000145,
          "velocity": 0.7874015748031497,
          "duration": 0.39144678125001064
        },
        {
          "name": "F7",
          "midi": 101,
          "time": 285.26273000000145,
          "velocity": 0.7874015748031497,
          "duration": 0.39144678125001064
        },
        {
          "name": "C#4",
          "midi": 61,
          "time": 285.65746625000145,
          "velocity": 0.7874015748031497,
          "duration": 0.3925432708333574
        },
        {
          "name": "F#4",
          "midi": 66,
          "time": 285.65746625000145,
          "velocity": 0.7874015748031497,
          "duration": 0.3925432708333574
        },
        {
          "name": "C#5",
          "midi": 73,
          "time": 285.65746625000145,
          "velocity": 0.7874015748031497,
          "duration": 0.3925432708333574
        },
        {
          "name": "F#5",
          "midi": 78,
          "time": 285.65746625000145,
          "velocity": 0.7874015748031497,
          "duration": 0.3925432708333574
        },
        {
          "name": "C#6",
          "midi": 85,
          "time": 285.65746625000145,
          "velocity": 0.7874015748031497,
          "duration": 0.3925432708333574
        },
        {
          "name": "F#6",
          "midi": 90,
          "time": 285.65746625000145,
          "velocity": 0.7874015748031497,
          "duration": 0.3925432708333574
        },
        {
          "name": "C#7",
          "midi": 97,
          "time": 285.65746625000145,
          "velocity": 0.7874015748031497,
          "duration": 0.3925432708333574
        },
        {
          "name": "F#7",
          "midi": 102,
          "time": 285.65746625000145,
          "velocity": 0.7874015748031497,
          "duration": 0.3925432708333574
        },
        {
          "name": "C4",
          "midi": 60,
          "time": 286.0522025000015,
          "velocity": 0.7874015748031497,
          "duration": 0.06469288541666174
        },
        {
          "name": "F#4",
          "midi": 66,
          "time": 286.0522025000015,
          "velocity": 0.7874015748031497,
          "duration": 0.06469288541666174
        },
        {
          "name": "C5",
          "midi": 72,
          "time": 286.0522025000015,
          "velocity": 0.7874015748031497,
          "duration": 0.06469288541666174
        },
        {
          "name": "C6",
          "midi": 84,
          "time": 286.0522025000015,
          "velocity": 0.7874015748031497,
          "duration": 0.06469288541666174
        },
        {
          "name": "C7",
          "midi": 96,
          "time": 286.0522025000015,
          "velocity": 0.7874015748031497,
          "duration": 0.06469288541666174
        },
        {
          "name": "D4",
          "midi": 62,
          "time": 286.31536000000153,
          "velocity": 0.7874015748031497,
          "duration": 0.06578937500000848
        },
        {
          "name": "F#4",
          "midi": 66,
          "time": 286.31536000000153,
          "velocity": 0.7874015748031497,
          "duration": 0.06578937500000848
        },
        {
          "name": "D5",
          "midi": 74,
          "time": 286.31536000000153,
          "velocity": 0.7874015748031497,
          "duration": 0.06578937500000848
        },
        {
          "name": "F#5",
          "midi": 78,
          "time": 286.31536000000153,
          "velocity": 0.7874015748031497,
          "duration": 0.06578937500000848
        },
        {
          "name": "D#6",
          "midi": 87,
          "time": 286.31536000000153,
          "velocity": 0.7874015748031497,
          "duration": 0.06578937500000848
        },
        {
          "name": "F#6",
          "midi": 90,
          "time": 286.31536000000153,
          "velocity": 0.7874015748031497,
          "duration": 0.06578937500000848
        },
        {
          "name": "D#7",
          "midi": 99,
          "time": 286.31536000000153,
          "velocity": 0.7874015748031497,
          "duration": 0.06578937500000848
        },
        {
          "name": "F#7",
          "midi": 102,
          "time": 286.31536000000153,
          "velocity": 0.7874015748031497,
          "duration": 0.06578937500000848
        },
        {
          "name": "D#7",
          "midi": 99,
          "time": 286.4480352395849,
          "velocity": 0.7874015748031497,
          "duration": 0.06469288541666174
        },
        {
          "name": "F#7",
          "midi": 102,
          "time": 286.4480352395849,
          "velocity": 0.7874015748031497,
          "duration": 0.06469288541666174
        },
        {
          "name": "C#5",
          "midi": 73,
          "time": 286.5796139895849,
          "velocity": 0.7874015748031497,
          "duration": 0.06469288541666174
        },
        {
          "name": "F5",
          "midi": 77,
          "time": 286.5796139895849,
          "velocity": 0.7874015748031497,
          "duration": 0.06469288541666174
        },
        {
          "name": "D6",
          "midi": 86,
          "time": 286.5796139895849,
          "velocity": 0.7874015748031497,
          "duration": 0.06469288541666174
        },
        {
          "name": "F6",
          "midi": 89,
          "time": 286.5796139895849,
          "velocity": 0.7874015748031497,
          "duration": 0.06469288541666174
        },
        {
          "name": "D7",
          "midi": 98,
          "time": 286.5796139895849,
          "velocity": 0.7874015748031497,
          "duration": 0.06469288541666174
        },
        {
          "name": "F7",
          "midi": 101,
          "time": 286.5796139895849,
          "velocity": 0.7874015748031497,
          "duration": 0.06469288541666174
        },
        {
          "name": "D4",
          "midi": 62,
          "time": 286.7100962500016,
          "velocity": 0.7874015748031497,
          "duration": 0.06578937500000848
        },
        {
          "name": "F#4",
          "midi": 66,
          "time": 286.7100962500016,
          "velocity": 0.7874015748031497,
          "duration": 0.06578937500000848
        },
        {
          "name": "D5",
          "midi": 74,
          "time": 286.7100962500016,
          "velocity": 0.7874015748031497,
          "duration": 0.06578937500000848
        },
        {
          "name": "F5",
          "midi": 77,
          "time": 286.7100962500016,
          "velocity": 0.7874015748031497,
          "duration": 0.06578937500000848
        },
        {
          "name": "D#6",
          "midi": 87,
          "time": 286.7100962500016,
          "velocity": 0.7874015748031497,
          "duration": 0.06578937500000848
        },
        {
          "name": "F6",
          "midi": 89,
          "time": 286.7100962500016,
          "velocity": 0.7874015748031497,
          "duration": 0.06578937500000848
        },
        {
          "name": "D#7",
          "midi": 99,
          "time": 286.7100962500016,
          "velocity": 0.7874015748031497,
          "duration": 0.06578937500000848
        },
        {
          "name": "F7",
          "midi": 101,
          "time": 286.7100962500016,
          "velocity": 0.7874015748031497,
          "duration": 0.06578937500000848
        },
        {
          "name": "D7",
          "midi": 98,
          "time": 286.8416750000016,
          "velocity": 0.7874015748031497,
          "duration": 0.06578937500000848
        },
        {
          "name": "F7",
          "midi": 101,
          "time": 286.8416750000016,
          "velocity": 0.7874015748031497,
          "duration": 0.06578937500000848
        },
        {
          "name": "C#4",
          "midi": 61,
          "time": 286.9732537500016,
          "velocity": 0.7874015748031497,
          "duration": 0.06578937500000848
        },
        {
          "name": "F4",
          "midi": 65,
          "time": 286.9732537500016,
          "velocity": 0.7874015748031497,
          "duration": 0.06578937500000848
        },
        {
          "name": "C#5",
          "midi": 73,
          "time": 286.9732537500016,
          "velocity": 0.7874015748031497,
          "duration": 0.06578937500000848
        },
        {
          "name": "F5",
          "midi": 77,
          "time": 286.9732537500016,
          "velocity": 0.7874015748031497,
          "duration": 0.06578937500000848
        },
        {
          "name": "D6",
          "midi": 86,
          "time": 286.9732537500016,
          "velocity": 0.7874015748031497,
          "duration": 0.06578937500000848
        },
        {
          "name": "F6",
          "midi": 89,
          "time": 286.9732537500016,
          "velocity": 0.7874015748031497,
          "duration": 0.06578937500000848
        },
        {
          "name": "C#7",
          "midi": 97,
          "time": 286.9732537500016,
          "velocity": 0.7874015748031497,
          "duration": 0.06578937500000848
        },
        {
          "name": "F7",
          "midi": 101,
          "time": 286.9732537500016,
          "velocity": 0.7874015748031497,
          "duration": 0.06578937500000848
        },
        {
          "name": "C#6",
          "midi": 85,
          "time": 287.1037360104183,
          "velocity": 0.7874015748031497,
          "duration": 0.06578937500000848
        },
        {
          "name": "F6",
          "midi": 89,
          "time": 287.1037360104183,
          "velocity": 0.7874015748031497,
          "duration": 0.06578937500000848
        },
        {
          "name": "C#7",
          "midi": 97,
          "time": 287.1037360104183,
          "velocity": 0.7874015748031497,
          "duration": 0.06578937500000848
        },
        {
          "name": "F#7",
          "midi": 102,
          "time": 287.1037360104183,
          "velocity": 0.7874015748031497,
          "duration": 0.06578937500000848
        },
        {
          "name": "C4",
          "midi": 60,
          "time": 287.3679900000016,
          "velocity": 0.7874015748031497,
          "duration": 1.0515335104166752
        },
        {
          "name": "F#4",
          "midi": 66,
          "time": 287.3679900000016,
          "velocity": 0.7874015748031497,
          "duration": 1.0504370208333285
        },
        {
          "name": "C5",
          "midi": 72,
          "time": 287.3679900000016,
          "velocity": 0.7874015748031497,
          "duration": 1.0515335104166752
        },
        {
          "name": "F#5",
          "midi": 78,
          "time": 287.3679900000016,
          "velocity": 0.7874015748031497,
          "duration": 1.0504370208333285
        },
        {
          "name": "C6",
          "midi": 84,
          "time": 287.3679900000016,
          "velocity": 0.7874015748031497,
          "duration": 1.0515335104166752
        },
        {
          "name": "F#6",
          "midi": 90,
          "time": 287.3679900000016,
          "velocity": 0.7874015748031497,
          "duration": 1.0504370208333285
        },
        {
          "name": "C7",
          "midi": 96,
          "time": 287.3679900000016,
          "velocity": 0.7874015748031497,
          "duration": 1.0515335104166752
        },
        {
          "name": "F#7",
          "midi": 102,
          "time": 287.3679900000016,
          "velocity": 0.7874015748031497,
          "duration": 1.0504370208333285
        },
        {
          "name": "D4",
          "midi": 62,
          "time": 288.42062000000163,
          "velocity": 0.7874015748031497,
          "duration": 0.06469288541666174
        },
        {
          "name": "F#4",
          "midi": 66,
          "time": 288.42062000000163,
          "velocity": 0.7874015748031497,
          "duration": 0.06469288541666174
        },
        {
          "name": "D5",
          "midi": 74,
          "time": 288.42062000000163,
          "velocity": 0.7874015748031497,
          "duration": 0.06469288541666174
        },
        {
          "name": "F#5",
          "midi": 78,
          "time": 288.42062000000163,
          "velocity": 0.7874015748031497,
          "duration": 0.06469288541666174
        },
        {
          "name": "D#6",
          "midi": 87,
          "time": 288.42062000000163,
          "velocity": 0.7874015748031497,
          "duration": 0.06469288541666174
        },
        {
          "name": "F#6",
          "midi": 90,
          "time": 288.42062000000163,
          "velocity": 0.7874015748031497,
          "duration": 0.06469288541666174
        },
        {
          "name": "D#7",
          "midi": 99,
          "time": 288.42062000000163,
          "velocity": 0.7874015748031497,
          "duration": 0.06469288541666174
        },
        {
          "name": "F#7",
          "midi": 102,
          "time": 288.42062000000163,
          "velocity": 0.7874015748031497,
          "duration": 0.06469288541666174
        },
        {
          "name": "D#7",
          "midi": 99,
          "time": 288.55219875000165,
          "velocity": 0.7874015748031497,
          "duration": 0.06469288541666174
        },
        {
          "name": "F#7",
          "midi": 102,
          "time": 288.55219875000165,
          "velocity": 0.7874015748031497,
          "duration": 0.06469288541666174
        },
        {
          "name": "C#5",
          "midi": 73,
          "time": 288.68487398958496,
          "velocity": 0.7874015748031497,
          "duration": 0.06469288541666174
        },
        {
          "name": "F5",
          "midi": 77,
          "time": 288.68487398958496,
          "velocity": 0.7874015748031497,
          "duration": 0.06469288541666174
        },
        {
          "name": "D6",
          "midi": 86,
          "time": 288.68487398958496,
          "velocity": 0.7874015748031497,
          "duration": 0.06469288541666174
        },
        {
          "name": "F6",
          "midi": 89,
          "time": 288.68487398958496,
          "velocity": 0.7874015748031497,
          "duration": 0.06469288541666174
        },
        {
          "name": "D7",
          "midi": 98,
          "time": 288.68487398958496,
          "velocity": 0.7874015748031497,
          "duration": 0.06469288541666174
        },
        {
          "name": "F7",
          "midi": 101,
          "time": 288.68487398958496,
          "velocity": 0.7874015748031497,
          "duration": 0.06469288541666174
        },
        {
          "name": "D4",
          "midi": 62,
          "time": 288.8153562500016,
          "velocity": 0.7874015748031497,
          "duration": 0.06469288541666174
        },
        {
          "name": "F#4",
          "midi": 66,
          "time": 288.8153562500016,
          "velocity": 0.7874015748031497,
          "duration": 0.06469288541666174
        },
        {
          "name": "D5",
          "midi": 74,
          "time": 288.8153562500016,
          "velocity": 0.7874015748031497,
          "duration": 0.06469288541666174
        },
        {
          "name": "F5",
          "midi": 77,
          "time": 288.8153562500016,
          "velocity": 0.7874015748031497,
          "duration": 0.06469288541666174
        },
        {
          "name": "D#6",
          "midi": 87,
          "time": 288.8153562500016,
          "velocity": 0.7874015748031497,
          "duration": 0.06469288541666174
        },
        {
          "name": "F6",
          "midi": 89,
          "time": 288.8153562500016,
          "velocity": 0.7874015748031497,
          "duration": 0.06469288541666174
        },
        {
          "name": "D#7",
          "midi": 99,
          "time": 288.8153562500016,
          "velocity": 0.7874015748031497,
          "duration": 0.06469288541666174
        },
        {
          "name": "F7",
          "midi": 101,
          "time": 288.8153562500016,
          "velocity": 0.7874015748031497,
          "duration": 0.06469288541666174
        },
        {
          "name": "D7",
          "midi": 98,
          "time": 288.94693500000164,
          "velocity": 0.7874015748031497,
          "duration": 0.06469288541666174
        },
        {
          "name": "F7",
          "midi": 101,
          "time": 288.94693500000164,
          "velocity": 0.7874015748031497,
          "duration": 0.06469288541666174
        },
        {
          "name": "C#4",
          "midi": 61,
          "time": 289.07851375000166,
          "velocity": 0.7874015748031497,
          "duration": 0.06469288541666174
        },
        {
          "name": "F4",
          "midi": 65,
          "time": 289.07851375000166,
          "velocity": 0.7874015748031497,
          "duration": 0.06469288541666174
        },
        {
          "name": "C#5",
          "midi": 73,
          "time": 289.07851375000166,
          "velocity": 0.7874015748031497,
          "duration": 0.06469288541666174
        },
        {
          "name": "F5",
          "midi": 77,
          "time": 289.07851375000166,
          "velocity": 0.7874015748031497,
          "duration": 0.06469288541666174
        },
        {
          "name": "D6",
          "midi": 86,
          "time": 289.07851375000166,
          "velocity": 0.7874015748031497,
          "duration": 0.06469288541666174
        },
        {
          "name": "F6",
          "midi": 89,
          "time": 289.07851375000166,
          "velocity": 0.7874015748031497,
          "duration": 0.06469288541666174
        },
        {
          "name": "C#7",
          "midi": 97,
          "time": 289.07851375000166,
          "velocity": 0.7874015748031497,
          "duration": 0.06469288541666174
        },
        {
          "name": "F7",
          "midi": 101,
          "time": 289.07851375000166,
          "velocity": 0.7874015748031497,
          "duration": 0.06469288541666174
        },
        {
          "name": "C#6",
          "midi": 85,
          "time": 289.2100925000017,
          "velocity": 0.7874015748031497,
          "duration": 0.06469288541666174
        },
        {
          "name": "F6",
          "midi": 89,
          "time": 289.2100925000017,
          "velocity": 0.7874015748031497,
          "duration": 0.06469288541666174
        },
        {
          "name": "D7",
          "midi": 98,
          "time": 289.2100925000017,
          "velocity": 0.7874015748031497,
          "duration": 0.06469288541666174
        },
        {
          "name": "F7",
          "midi": 101,
          "time": 289.2100925000017,
          "velocity": 0.7874015748031497,
          "duration": 0.06469288541666174
        },
        {
          "name": "C#7",
          "midi": 97,
          "time": 289.3416712500017,
          "velocity": 0.7874015748031497,
          "duration": 0.06469288541666174
        },
        {
          "name": "F7",
          "midi": 101,
          "time": 289.3416712500017,
          "velocity": 0.7874015748031497,
          "duration": 0.06469288541666174
        },
        {
          "name": "C4",
          "midi": 60,
          "time": 289.4732500000017,
          "velocity": 0.7874015748031497,
          "duration": 0.39144678125001064
        },
        {
          "name": "F#4",
          "midi": 66,
          "time": 289.4732500000017,
          "velocity": 0.7874015748031497,
          "duration": 0.39144678125001064
        },
        {
          "name": "C5",
          "midi": 72,
          "time": 289.4732500000017,
          "velocity": 0.7874015748031497,
          "duration": 0.39144678125001064
        },
        {
          "name": "F#5",
          "midi": 78,
          "time": 289.4732500000017,
          "velocity": 0.7874015748031497,
          "duration": 0.39144678125001064
        },
        {
          "name": "C6",
          "midi": 84,
          "time": 289.4732500000017,
          "velocity": 0.7874015748031497,
          "duration": 0.39144678125001064
        },
        {
          "name": "F#6",
          "midi": 90,
          "time": 289.4732500000017,
          "velocity": 0.7874015748031497,
          "duration": 0.39144678125001064
        },
        {
          "name": "C7",
          "midi": 96,
          "time": 289.4732500000017,
          "velocity": 0.7874015748031497,
          "duration": 0.39144678125001064
        },
        {
          "name": "F7",
          "midi": 101,
          "time": 289.4732500000017,
          "velocity": 0.7874015748031497,
          "duration": 0.39144678125001064
        },
        {
          "name": "C#4",
          "midi": 61,
          "time": 289.8679862500017,
          "velocity": 0.7874015748031497,
          "duration": 0.3925432708333574
        },
        {
          "name": "F#4",
          "midi": 66,
          "time": 289.8679862500017,
          "velocity": 0.7874015748031497,
          "duration": 0.3925432708333574
        },
        {
          "name": "C#5",
          "midi": 73,
          "time": 289.8679862500017,
          "velocity": 0.7874015748031497,
          "duration": 0.3925432708333574
        },
        {
          "name": "F#5",
          "midi": 78,
          "time": 289.8679862500017,
          "velocity": 0.7874015748031497,
          "duration": 0.3925432708333574
        },
        {
          "name": "C#6",
          "midi": 85,
          "time": 289.8679862500017,
          "velocity": 0.7874015748031497,
          "duration": 0.3925432708333574
        },
        {
          "name": "F#6",
          "midi": 90,
          "time": 289.8679862500017,
          "velocity": 0.7874015748031497,
          "duration": 0.3925432708333574
        },
        {
          "name": "C#7",
          "midi": 97,
          "time": 289.8679862500017,
          "velocity": 0.7874015748031497,
          "duration": 0.3925432708333574
        },
        {
          "name": "F#7",
          "midi": 102,
          "time": 289.8679862500017,
          "velocity": 0.7874015748031497,
          "duration": 0.3925432708333574
        },
        {
          "name": "C4",
          "midi": 60,
          "time": 290.26381898958505,
          "velocity": 0.7874015748031497,
          "duration": 0.06469288541666174
        },
        {
          "name": "F#4",
          "midi": 66,
          "time": 290.26381898958505,
          "velocity": 0.7874015748031497,
          "duration": 0.06469288541666174
        },
        {
          "name": "C5",
          "midi": 72,
          "time": 290.26381898958505,
          "velocity": 0.7874015748031497,
          "duration": 0.06469288541666174
        },
        {
          "name": "C6",
          "midi": 84,
          "time": 290.26381898958505,
          "velocity": 0.7874015748031497,
          "duration": 0.06469288541666174
        },
        {
          "name": "C7",
          "midi": 96,
          "time": 290.26381898958505,
          "velocity": 0.7874015748031497,
          "duration": 0.06469288541666174
        },
        {
          "name": "D4",
          "midi": 62,
          "time": 290.52588000000173,
          "velocity": 0.7874015748031497,
          "duration": 0.06469288541666174
        },
        {
          "name": "F#4",
          "midi": 66,
          "time": 290.52588000000173,
          "velocity": 0.7874015748031497,
          "duration": 0.06469288541666174
        },
        {
          "name": "D#5",
          "midi": 75,
          "time": 290.52588000000173,
          "velocity": 0.7874015748031497,
          "duration": 0.06469288541666174
        },
        {
          "name": "F#5",
          "midi": 78,
          "time": 290.52588000000173,
          "velocity": 0.7874015748031497,
          "duration": 0.06469288541666174
        },
        {
          "name": "E6",
          "midi": 88,
          "time": 290.52588000000173,
          "velocity": 0.7874015748031497,
          "duration": 0.06469288541666174
        },
        {
          "name": "F#6",
          "midi": 90,
          "time": 290.52588000000173,
          "velocity": 0.7874015748031497,
          "duration": 0.06469288541666174
        },
        {
          "name": "E7",
          "midi": 100,
          "time": 290.52588000000173,
          "velocity": 0.7874015748031497,
          "duration": 0.06469288541666174
        },
        {
          "name": "F#7",
          "midi": 102,
          "time": 290.52588000000173,
          "velocity": 0.7874015748031497,
          "duration": 0.06469288541666174
        },
        {
          "name": "E7",
          "midi": 100,
          "time": 290.65745875000175,
          "velocity": 0.7874015748031497,
          "duration": 0.06469288541666174
        },
        {
          "name": "F#7",
          "midi": 102,
          "time": 290.65745875000175,
          "velocity": 0.7874015748031497,
          "duration": 0.06469288541666174
        },
        {
          "name": "D5",
          "midi": 74,
          "time": 290.7879410104184,
          "velocity": 0.7874015748031497,
          "duration": 0.06469288541666174
        },
        {
          "name": "F5",
          "midi": 77,
          "time": 290.7879410104184,
          "velocity": 0.7874015748031497,
          "duration": 0.06469288541666174
        },
        {
          "name": "D#6",
          "midi": 87,
          "time": 290.7879410104184,
          "velocity": 0.7874015748031497,
          "duration": 0.06469288541666174
        },
        {
          "name": "F6",
          "midi": 89,
          "time": 290.7879410104184,
          "velocity": 0.7874015748031497,
          "duration": 0.06469288541666174
        },
        {
          "name": "D#7",
          "midi": 99,
          "time": 290.7879410104184,
          "velocity": 0.7874015748031497,
          "duration": 0.06469288541666174
        },
        {
          "name": "F7",
          "midi": 101,
          "time": 290.7879410104184,
          "velocity": 0.7874015748031497,
          "duration": 0.06469288541666174
        },
        {
          "name": "D4",
          "midi": 62,
          "time": 290.92061625000173,
          "velocity": 0.7874015748031497,
          "duration": 0.06469288541666174
        },
        {
          "name": "F#4",
          "midi": 66,
          "time": 290.92061625000173,
          "velocity": 0.7874015748031497,
          "duration": 0.06469288541666174
        },
        {
          "name": "D#5",
          "midi": 75,
          "time": 290.92061625000173,
          "velocity": 0.7874015748031497,
          "duration": 0.06469288541666174
        },
        {
          "name": "F5",
          "midi": 77,
          "time": 290.92061625000173,
          "velocity": 0.7874015748031497,
          "duration": 0.06469288541666174
        },
        {
          "name": "E6",
          "midi": 88,
          "time": 290.92061625000173,
          "velocity": 0.7874015748031497,
          "duration": 0.06469288541666174
        },
        {
          "name": "F6",
          "midi": 89,
          "time": 290.92061625000173,
          "velocity": 0.7874015748031497,
          "duration": 0.06469288541666174
        },
        {
          "name": "E7",
          "midi": 100,
          "time": 290.92061625000173,
          "velocity": 0.7874015748031497,
          "duration": 0.06469288541666174
        },
        {
          "name": "F7",
          "midi": 101,
          "time": 290.92061625000173,
          "velocity": 0.7874015748031497,
          "duration": 0.06469288541666174
        },
        {
          "name": "D#7",
          "midi": 99,
          "time": 291.05219500000175,
          "velocity": 0.7874015748031497,
          "duration": 0.06578937500000848
        },
        {
          "name": "F7",
          "midi": 101,
          "time": 291.05219500000175,
          "velocity": 0.7874015748031497,
          "duration": 0.06578937500000848
        },
        {
          "name": "C#4",
          "midi": 61,
          "time": 291.18377375000176,
          "velocity": 0.7874015748031497,
          "duration": 0.06578937500000848
        },
        {
          "name": "F4",
          "midi": 65,
          "time": 291.18377375000176,
          "velocity": 0.7874015748031497,
          "duration": 0.06578937500000848
        },
        {
          "name": "D5",
          "midi": 74,
          "time": 291.18377375000176,
          "velocity": 0.7874015748031497,
          "duration": 0.06578937500000848
        },
        {
          "name": "F5",
          "midi": 77,
          "time": 291.18377375000176,
          "velocity": 0.7874015748031497,
          "duration": 0.06578937500000848
        },
        {
          "name": "D#6",
          "midi": 87,
          "time": 291.18377375000176,
          "velocity": 0.7874015748031497,
          "duration": 0.06578937500000848
        },
        {
          "name": "F6",
          "midi": 89,
          "time": 291.18377375000176,
          "velocity": 0.7874015748031497,
          "duration": 0.06578937500000848
        },
        {
          "name": "D7",
          "midi": 98,
          "time": 291.18377375000176,
          "velocity": 0.7874015748031497,
          "duration": 0.06578937500000848
        },
        {
          "name": "F7",
          "midi": 101,
          "time": 291.18377375000176,
          "velocity": 0.7874015748031497,
          "duration": 0.06578937500000848
        },
        {
          "name": "D6",
          "midi": 86,
          "time": 291.3164489895851,
          "velocity": 0.7874015748031497,
          "duration": 0.06469288541666174
        },
        {
          "name": "F6",
          "midi": 89,
          "time": 291.3164489895851,
          "velocity": 0.7874015748031497,
          "duration": 0.06469288541666174
        },
        {
          "name": "D7",
          "midi": 98,
          "time": 291.3164489895851,
          "velocity": 0.7874015748031497,
          "duration": 0.06469288541666174
        },
        {
          "name": "F#7",
          "midi": 102,
          "time": 291.3164489895851,
          "velocity": 0.7874015748031497,
          "duration": 0.06469288541666174
        },
        {
          "name": "C4",
          "midi": 60,
          "time": 291.5785100000018,
          "velocity": 0.7874015748031497,
          "duration": 1.0515335104166752
        },
        {
          "name": "F#4",
          "midi": 66,
          "time": 291.5785100000018,
          "velocity": 0.7874015748031497,
          "duration": 1.0504370208333285
        },
        {
          "name": "C#5",
          "midi": 73,
          "time": 291.5785100000018,
          "velocity": 0.7874015748031497,
          "duration": 1.0515335104166752
        },
        {
          "name": "F#5",
          "midi": 78,
          "time": 291.5785100000018,
          "velocity": 0.7874015748031497,
          "duration": 1.0504370208333285
        },
        {
          "name": "C#6",
          "midi": 85,
          "time": 291.5785100000018,
          "velocity": 0.7874015748031497,
          "duration": 1.0515335104166752
        },
        {
          "name": "F#6",
          "midi": 90,
          "time": 291.5785100000018,
          "velocity": 0.7874015748031497,
          "duration": 1.0504370208333285
        },
        {
          "name": "C#7",
          "midi": 97,
          "time": 291.5785100000018,
          "velocity": 0.7874015748031497,
          "duration": 1.0515335104166752
        },
        {
          "name": "F#7",
          "midi": 102,
          "time": 291.5785100000018,
          "velocity": 0.7874015748031497,
          "duration": 1.0504370208333285
        },
        {
          "name": "D4",
          "midi": 62,
          "time": 292.63114000000184,
          "velocity": 0.7874015748031497,
          "duration": 0.06578937500000848
        },
        {
          "name": "F#4",
          "midi": 66,
          "time": 292.63114000000184,
          "velocity": 0.7874015748031497,
          "duration": 0.06578937500000848
        },
        {
          "name": "D#5",
          "midi": 75,
          "time": 292.63114000000184,
          "velocity": 0.7874015748031497,
          "duration": 0.06578937500000848
        },
        {
          "name": "F#5",
          "midi": 78,
          "time": 292.63114000000184,
          "velocity": 0.7874015748031497,
          "duration": 0.06578937500000848
        },
        {
          "name": "E6",
          "midi": 88,
          "time": 292.63114000000184,
          "velocity": 0.7874015748031497,
          "duration": 0.06578937500000848
        },
        {
          "name": "F#6",
          "midi": 90,
          "time": 292.63114000000184,
          "velocity": 0.7874015748031497,
          "duration": 0.06578937500000848
        },
        {
          "name": "E7",
          "midi": 100,
          "time": 292.63114000000184,
          "velocity": 0.7874015748031497,
          "duration": 0.06578937500000848
        },
        {
          "name": "F#7",
          "midi": 102,
          "time": 292.63114000000184,
          "velocity": 0.7874015748031497,
          "duration": 0.06578937500000848
        },
        {
          "name": "E7",
          "midi": 100,
          "time": 292.7638152395852,
          "velocity": 0.7874015748031497,
          "duration": 0.06469288541666174
        },
        {
          "name": "F#7",
          "midi": 102,
          "time": 292.7638152395852,
          "velocity": 0.7874015748031497,
          "duration": 0.06469288541666174
        },
        {
          "name": "D5",
          "midi": 74,
          "time": 292.89429750000187,
          "velocity": 0.7874015748031497,
          "duration": 0.06578937500000848
        },
        {
          "name": "F5",
          "midi": 77,
          "time": 292.89429750000187,
          "velocity": 0.7874015748031497,
          "duration": 0.06578937500000848
        },
        {
          "name": "D#6",
          "midi": 87,
          "time": 292.89429750000187,
          "velocity": 0.7874015748031497,
          "duration": 0.06578937500000848
        },
        {
          "name": "F6",
          "midi": 89,
          "time": 292.89429750000187,
          "velocity": 0.7874015748031497,
          "duration": 0.06578937500000848
        },
        {
          "name": "D#7",
          "midi": 99,
          "time": 292.89429750000187,
          "velocity": 0.7874015748031497,
          "duration": 0.06578937500000848
        },
        {
          "name": "F7",
          "midi": 101,
          "time": 292.89429750000187,
          "velocity": 0.7874015748031497,
          "duration": 0.06578937500000848
        },
        {
          "name": "D4",
          "midi": 62,
          "time": 293.02697273958523,
          "velocity": 0.7874015748031497,
          "duration": 0.06469288541666174
        },
        {
          "name": "F#4",
          "midi": 66,
          "time": 293.02697273958523,
          "velocity": 0.7874015748031497,
          "duration": 0.06469288541666174
        },
        {
          "name": "D#5",
          "midi": 75,
          "time": 293.02697273958523,
          "velocity": 0.7874015748031497,
          "duration": 0.06469288541666174
        },
        {
          "name": "F5",
          "midi": 77,
          "time": 293.02697273958523,
          "velocity": 0.7874015748031497,
          "duration": 0.06469288541666174
        },
        {
          "name": "E6",
          "midi": 88,
          "time": 293.02697273958523,
          "velocity": 0.7874015748031497,
          "duration": 0.06469288541666174
        },
        {
          "name": "F6",
          "midi": 89,
          "time": 293.02697273958523,
          "velocity": 0.7874015748031497,
          "duration": 0.06469288541666174
        },
        {
          "name": "E7",
          "midi": 100,
          "time": 293.02697273958523,
          "velocity": 0.7874015748031497,
          "duration": 0.06469288541666174
        },
        {
          "name": "F7",
          "midi": 101,
          "time": 293.02697273958523,
          "velocity": 0.7874015748031497,
          "duration": 0.06469288541666174
        },
        {
          "name": "D#7",
          "midi": 99,
          "time": 293.1574550000019,
          "velocity": 0.7874015748031497,
          "duration": 0.06688586458335521
        },
        {
          "name": "F7",
          "midi": 101,
          "time": 293.1574550000019,
          "velocity": 0.7874015748031497,
          "duration": 0.06688586458335521
        },
        {
          "name": "C#4",
          "midi": 61,
          "time": 293.29013023958527,
          "velocity": 0.7874015748031497,
          "duration": 0.06469288541666174
        },
        {
          "name": "F4",
          "midi": 65,
          "time": 293.29013023958527,
          "velocity": 0.7874015748031497,
          "duration": 0.06469288541666174
        },
        {
          "name": "D5",
          "midi": 74,
          "time": 293.29013023958527,
          "velocity": 0.7874015748031497,
          "duration": 0.06469288541666174
        },
        {
          "name": "F5",
          "midi": 77,
          "time": 293.29013023958527,
          "velocity": 0.7874015748031497,
          "duration": 0.06469288541666174
        },
        {
          "name": "D#6",
          "midi": 87,
          "time": 293.29013023958527,
          "velocity": 0.7874015748031497,
          "duration": 0.06469288541666174
        },
        {
          "name": "F6",
          "midi": 89,
          "time": 293.29013023958527,
          "velocity": 0.7874015748031497,
          "duration": 0.06469288541666174
        },
        {
          "name": "D7",
          "midi": 98,
          "time": 293.29013023958527,
          "velocity": 0.7874015748031497,
          "duration": 0.06469288541666174
        },
        {
          "name": "F7",
          "midi": 101,
          "time": 293.29013023958527,
          "velocity": 0.7874015748031497,
          "duration": 0.06469288541666174
        },
        {
          "name": "D6",
          "midi": 86,
          "time": 293.42061250000194,
          "velocity": 0.7874015748031497,
          "duration": 0.06578937500000848
        },
        {
          "name": "F6",
          "midi": 89,
          "time": 293.42061250000194,
          "velocity": 0.7874015748031497,
          "duration": 0.06578937500000848
        },
        {
          "name": "D#7",
          "midi": 99,
          "time": 293.42061250000194,
          "velocity": 0.7874015748031497,
          "duration": 0.06578937500000848
        },
        {
          "name": "F7",
          "midi": 101,
          "time": 293.42061250000194,
          "velocity": 0.7874015748031497,
          "duration": 0.06578937500000848
        },
        {
          "name": "D7",
          "midi": 98,
          "time": 293.5532877395853,
          "velocity": 0.7874015748031497,
          "duration": 0.06469288541666174
        },
        {
          "name": "F7",
          "midi": 101,
          "time": 293.5532877395853,
          "velocity": 0.7874015748031497,
          "duration": 0.06469288541666174
        },
        {
          "name": "C#4",
          "midi": 61,
          "time": 293.68377000000197,
          "velocity": 0.7874015748031497,
          "duration": 0.3925432708333574
        },
        {
          "name": "F#4",
          "midi": 66,
          "time": 293.68377000000197,
          "velocity": 0.7874015748031497,
          "duration": 0.3925432708333574
        },
        {
          "name": "C#5",
          "midi": 73,
          "time": 293.68377000000197,
          "velocity": 0.7874015748031497,
          "duration": 0.3925432708333574
        },
        {
          "name": "F#5",
          "midi": 78,
          "time": 293.68377000000197,
          "velocity": 0.7874015748031497,
          "duration": 0.3925432708333574
        },
        {
          "name": "C#6",
          "midi": 85,
          "time": 293.68377000000197,
          "velocity": 0.7874015748031497,
          "duration": 0.3925432708333574
        },
        {
          "name": "F#6",
          "midi": 90,
          "time": 293.68377000000197,
          "velocity": 0.7874015748031497,
          "duration": 0.3925432708333574
        },
        {
          "name": "C#7",
          "midi": 97,
          "time": 293.68377000000197,
          "velocity": 0.7874015748031497,
          "duration": 0.3925432708333574
        },
        {
          "name": "F7",
          "midi": 101,
          "time": 293.68377000000197,
          "velocity": 0.7874015748031497,
          "duration": 0.3925432708333574
        },
        {
          "name": "D4",
          "midi": 62,
          "time": 294.0796027395853,
          "velocity": 0.7874015748031497,
          "duration": 0.39144678125001064
        },
        {
          "name": "F#4",
          "midi": 66,
          "time": 294.0796027395853,
          "velocity": 0.7874015748031497,
          "duration": 0.39144678125001064
        },
        {
          "name": "D5",
          "midi": 74,
          "time": 294.0796027395853,
          "velocity": 0.7874015748031497,
          "duration": 0.39144678125001064
        },
        {
          "name": "F#5",
          "midi": 78,
          "time": 294.0796027395853,
          "velocity": 0.7874015748031497,
          "duration": 0.39144678125001064
        },
        {
          "name": "D6",
          "midi": 86,
          "time": 294.0796027395853,
          "velocity": 0.7874015748031497,
          "duration": 0.39144678125001064
        },
        {
          "name": "F#6",
          "midi": 90,
          "time": 294.0796027395853,
          "velocity": 0.7874015748031497,
          "duration": 0.39144678125001064
        },
        {
          "name": "D7",
          "midi": 98,
          "time": 294.0796027395853,
          "velocity": 0.7874015748031497,
          "duration": 0.39144678125001064
        },
        {
          "name": "F#7",
          "midi": 102,
          "time": 294.0796027395853,
          "velocity": 0.7874015748031497,
          "duration": 0.39144678125001064
        },
        {
          "name": "C#4",
          "midi": 61,
          "time": 294.473242500002,
          "velocity": 0.7874015748031497,
          "duration": 0.06578937500000848
        },
        {
          "name": "F#4",
          "midi": 66,
          "time": 294.473242500002,
          "velocity": 0.7874015748031497,
          "duration": 0.06578937500000848
        },
        {
          "name": "C5",
          "midi": 72,
          "time": 294.473242500002,
          "velocity": 0.7874015748031497,
          "duration": 0.06578937500000848
        },
        {
          "name": "F#5",
          "midi": 78,
          "time": 294.473242500002,
          "velocity": 0.7874015748031497,
          "duration": 0.06578937500000848
        },
        {
          "name": "C6",
          "midi": 84,
          "time": 294.473242500002,
          "velocity": 0.7874015748031497,
          "duration": 0.06578937500000848
        },
        {
          "name": "F#6",
          "midi": 90,
          "time": 294.473242500002,
          "velocity": 0.7874015748031497,
          "duration": 0.06578937500000848
        },
        {
          "name": "C7",
          "midi": 96,
          "time": 294.473242500002,
          "velocity": 0.7874015748031497,
          "duration": 0.06578937500000848
        },
        {
          "name": "F#7",
          "midi": 102,
          "time": 294.473242500002,
          "velocity": 0.7874015748031497,
          "duration": 0.06578937500000848
        },
        {
          "name": "D4",
          "midi": 62,
          "time": 294.73640000000205,
          "velocity": 0.7874015748031497,
          "duration": 0.06469288541666174
        },
        {
          "name": "F#4",
          "midi": 66,
          "time": 294.73640000000205,
          "velocity": 0.7874015748031497,
          "duration": 0.06469288541666174
        },
        {
          "name": "D#5",
          "midi": 75,
          "time": 294.73640000000205,
          "velocity": 0.7874015748031497,
          "duration": 0.06469288541666174
        },
        {
          "name": "F#5",
          "midi": 78,
          "time": 294.73640000000205,
          "velocity": 0.7874015748031497,
          "duration": 0.06469288541666174
        },
        {
          "name": "E6",
          "midi": 88,
          "time": 294.73640000000205,
          "velocity": 0.7874015748031497,
          "duration": 0.06469288541666174
        },
        {
          "name": "F#6",
          "midi": 90,
          "time": 294.73640000000205,
          "velocity": 0.7874015748031497,
          "duration": 0.06469288541666174
        },
        {
          "name": "E7",
          "midi": 100,
          "time": 294.73640000000205,
          "velocity": 0.7874015748031497,
          "duration": 0.06469288541666174
        },
        {
          "name": "F#7",
          "midi": 102,
          "time": 294.73640000000205,
          "velocity": 0.7874015748031497,
          "duration": 0.06469288541666174
        },
        {
          "name": "E7",
          "midi": 100,
          "time": 294.86797875000207,
          "velocity": 0.7874015748031497,
          "duration": 0.06469288541666174
        },
        {
          "name": "F#7",
          "midi": 102,
          "time": 294.86797875000207,
          "velocity": 0.7874015748031497,
          "duration": 0.06469288541666174
        },
        {
          "name": "D5",
          "midi": 74,
          "time": 294.99846101041874,
          "velocity": 0.7874015748031497,
          "duration": 0.06578937500000848
        },
        {
          "name": "F5",
          "midi": 77,
          "time": 294.99846101041874,
          "velocity": 0.7874015748031497,
          "duration": 0.06578937500000848
        },
        {
          "name": "D#6",
          "midi": 87,
          "time": 294.99846101041874,
          "velocity": 0.7874015748031497,
          "duration": 0.06578937500000848
        },
        {
          "name": "F6",
          "midi": 89,
          "time": 294.99846101041874,
          "velocity": 0.7874015748031497,
          "duration": 0.06578937500000848
        },
        {
          "name": "D#7",
          "midi": 99,
          "time": 294.99846101041874,
          "velocity": 0.7874015748031497,
          "duration": 0.06578937500000848
        },
        {
          "name": "F7",
          "midi": 101,
          "time": 294.99846101041874,
          "velocity": 0.7874015748031497,
          "duration": 0.06578937500000848
        },
        {
          "name": "D4",
          "midi": 62,
          "time": 295.1311362500021,
          "velocity": 0.7874015748031497,
          "duration": 0.06578937500000848
        },
        {
          "name": "F#4",
          "midi": 66,
          "time": 295.1311362500021,
          "velocity": 0.7874015748031497,
          "duration": 0.06578937500000848
        },
        {
          "name": "D#5",
          "midi": 75,
          "time": 295.1311362500021,
          "velocity": 0.7874015748031497,
          "duration": 0.06578937500000848
        },
        {
          "name": "F5",
          "midi": 77,
          "time": 295.1311362500021,
          "velocity": 0.7874015748031497,
          "duration": 0.06578937500000848
        },
        {
          "name": "E6",
          "midi": 88,
          "time": 295.1311362500021,
          "velocity": 0.7874015748031497,
          "duration": 0.06578937500000848
        },
        {
          "name": "F6",
          "midi": 89,
          "time": 295.1311362500021,
          "velocity": 0.7874015748031497,
          "duration": 0.06578937500000848
        },
        {
          "name": "E7",
          "midi": 100,
          "time": 295.1311362500021,
          "velocity": 0.7874015748031497,
          "duration": 0.06578937500000848
        },
        {
          "name": "F7",
          "midi": 101,
          "time": 295.1311362500021,
          "velocity": 0.7874015748031497,
          "duration": 0.06578937500000848
        },
        {
          "name": "D#7",
          "midi": 99,
          "time": 295.2627150000021,
          "velocity": 0.7874015748031497,
          "duration": 0.06469288541666174
        },
        {
          "name": "F7",
          "midi": 101,
          "time": 295.2627150000021,
          "velocity": 0.7874015748031497,
          "duration": 0.06469288541666174
        },
        {
          "name": "C#4",
          "midi": 61,
          "time": 295.39429375000213,
          "velocity": 0.7874015748031497,
          "duration": 0.06469288541666174
        },
        {
          "name": "F4",
          "midi": 65,
          "time": 295.39429375000213,
          "velocity": 0.7874015748031497,
          "duration": 0.06469288541666174
        },
        {
          "name": "D5",
          "midi": 74,
          "time": 295.39429375000213,
          "velocity": 0.7874015748031497,
          "duration": 0.06469288541666174
        },
        {
          "name": "F5",
          "midi": 77,
          "time": 295.39429375000213,
          "velocity": 0.7874015748031497,
          "duration": 0.06469288541666174
        },
        {
          "name": "D#6",
          "midi": 87,
          "time": 295.39429375000213,
          "velocity": 0.7874015748031497,
          "duration": 0.06469288541666174
        },
        {
          "name": "F6",
          "midi": 89,
          "time": 295.39429375000213,
          "velocity": 0.7874015748031497,
          "duration": 0.06469288541666174
        },
        {
          "name": "D7",
          "midi": 98,
          "time": 295.39429375000213,
          "velocity": 0.7874015748031497,
          "duration": 0.06469288541666174
        },
        {
          "name": "F7",
          "midi": 101,
          "time": 295.39429375000213,
          "velocity": 0.7874015748031497,
          "duration": 0.06469288541666174
        },
        {
          "name": "D6",
          "midi": 86,
          "time": 295.5247760104188,
          "velocity": 0.7874015748031497,
          "duration": 0.06578937500000848
        },
        {
          "name": "F6",
          "midi": 89,
          "time": 295.5247760104188,
          "velocity": 0.7874015748031497,
          "duration": 0.06578937500000848
        },
        {
          "name": "D7",
          "midi": 98,
          "time": 295.5247760104188,
          "velocity": 0.7874015748031497,
          "duration": 0.06578937500000848
        },
        {
          "name": "F#7",
          "midi": 102,
          "time": 295.5247760104188,
          "velocity": 0.7874015748031497,
          "duration": 0.06578937500000848
        },
        {
          "name": "C4",
          "midi": 60,
          "time": 295.7890300000021,
          "velocity": 0.7874015748031497,
          "duration": 1.0515335104166752
        },
        {
          "name": "F#4",
          "midi": 66,
          "time": 295.7890300000021,
          "velocity": 0.7874015748031497,
          "duration": 1.0504370208333285
        },
        {
          "name": "C#5",
          "midi": 73,
          "time": 295.7890300000021,
          "velocity": 0.7874015748031497,
          "duration": 1.0515335104166752
        },
        {
          "name": "F#5",
          "midi": 78,
          "time": 295.7890300000021,
          "velocity": 0.7874015748031497,
          "duration": 1.0504370208333285
        },
        {
          "name": "C#6",
          "midi": 85,
          "time": 295.7890300000021,
          "velocity": 0.7874015748031497,
          "duration": 1.0515335104166752
        },
        {
          "name": "F#6",
          "midi": 90,
          "time": 295.7890300000021,
          "velocity": 0.7874015748031497,
          "duration": 1.0504370208333285
        },
        {
          "name": "C#7",
          "midi": 97,
          "time": 295.7890300000021,
          "velocity": 0.7874015748031497,
          "duration": 1.0515335104166752
        },
        {
          "name": "F#7",
          "midi": 102,
          "time": 295.7890300000021,
          "velocity": 0.7874015748031497,
          "duration": 1.0504370208333285
        },
        {
          "name": "D4",
          "midi": 62,
          "time": 296.84166000000215,
          "velocity": 0.7874015748031497,
          "duration": 0.06469288541666174
        },
        {
          "name": "F#4",
          "midi": 66,
          "time": 296.84166000000215,
          "velocity": 0.7874015748031497,
          "duration": 0.06469288541666174
        },
        {
          "name": "D#5",
          "midi": 75,
          "time": 296.84166000000215,
          "velocity": 0.7874015748031497,
          "duration": 0.06469288541666174
        },
        {
          "name": "F#5",
          "midi": 78,
          "time": 296.84166000000215,
          "velocity": 0.7874015748031497,
          "duration": 0.06469288541666174
        },
        {
          "name": "E6",
          "midi": 88,
          "time": 296.84166000000215,
          "velocity": 0.7874015748031497,
          "duration": 0.06469288541666174
        },
        {
          "name": "F#6",
          "midi": 90,
          "time": 296.84166000000215,
          "velocity": 0.7874015748031497,
          "duration": 0.06469288541666174
        },
        {
          "name": "E7",
          "midi": 100,
          "time": 296.84166000000215,
          "velocity": 0.7874015748031497,
          "duration": 0.06469288541666174
        },
        {
          "name": "F#7",
          "midi": 102,
          "time": 296.84166000000215,
          "velocity": 0.7874015748031497,
          "duration": 0.06469288541666174
        },
        {
          "name": "E7",
          "midi": 100,
          "time": 296.97433523958546,
          "velocity": 0.7874015748031497,
          "duration": 0.06469288541666174
        },
        {
          "name": "F#7",
          "midi": 102,
          "time": 296.97433523958546,
          "velocity": 0.7874015748031497,
          "duration": 0.06469288541666174
        },
        {
          "name": "D5",
          "midi": 74,
          "time": 297.1048175000021,
          "velocity": 0.7874015748031497,
          "duration": 0.06469288541666174
        },
        {
          "name": "F5",
          "midi": 77,
          "time": 297.1048175000021,
          "velocity": 0.7874015748031497,
          "duration": 0.06469288541666174
        },
        {
          "name": "D#6",
          "midi": 87,
          "time": 297.1048175000021,
          "velocity": 0.7874015748031497,
          "duration": 0.06469288541666174
        },
        {
          "name": "F6",
          "midi": 89,
          "time": 297.1048175000021,
          "velocity": 0.7874015748031497,
          "duration": 0.06469288541666174
        },
        {
          "name": "D#7",
          "midi": 99,
          "time": 297.1048175000021,
          "velocity": 0.7874015748031497,
          "duration": 0.06469288541666174
        },
        {
          "name": "F7",
          "midi": 101,
          "time": 297.1048175000021,
          "velocity": 0.7874015748031497,
          "duration": 0.06469288541666174
        },
        {
          "name": "D4",
          "midi": 62,
          "time": 297.2352997604188,
          "velocity": 0.7874015748031497,
          "duration": 0.06578937500000848
        },
        {
          "name": "F#4",
          "midi": 66,
          "time": 297.2352997604188,
          "velocity": 0.7874015748031497,
          "duration": 0.06578937500000848
        },
        {
          "name": "D#5",
          "midi": 75,
          "time": 297.2352997604188,
          "velocity": 0.7874015748031497,
          "duration": 0.06578937500000848
        },
        {
          "name": "F5",
          "midi": 77,
          "time": 297.2352997604188,
          "velocity": 0.7874015748031497,
          "duration": 0.06578937500000848
        },
        {
          "name": "E6",
          "midi": 88,
          "time": 297.2352997604188,
          "velocity": 0.7874015748031497,
          "duration": 0.06578937500000848
        },
        {
          "name": "F6",
          "midi": 89,
          "time": 297.2352997604188,
          "velocity": 0.7874015748031497,
          "duration": 0.06578937500000848
        },
        {
          "name": "E7",
          "midi": 100,
          "time": 297.2352997604188,
          "velocity": 0.7874015748031497,
          "duration": 0.06578937500000848
        },
        {
          "name": "F7",
          "midi": 101,
          "time": 297.2352997604188,
          "velocity": 0.7874015748031497,
          "duration": 0.06578937500000848
        },
        {
          "name": "D#7",
          "midi": 99,
          "time": 297.36797500000216,
          "velocity": 0.7874015748031497,
          "duration": 0.06578937500000848
        },
        {
          "name": "F7",
          "midi": 101,
          "time": 297.36797500000216,
          "velocity": 0.7874015748031497,
          "duration": 0.06578937500000848
        },
        {
          "name": "C#4",
          "midi": 61,
          "time": 297.4995537500022,
          "velocity": 0.7874015748031497,
          "duration": 0.06578937500000848
        },
        {
          "name": "F4",
          "midi": 65,
          "time": 297.4995537500022,
          "velocity": 0.7874015748031497,
          "duration": 0.06578937500000848
        },
        {
          "name": "D5",
          "midi": 74,
          "time": 297.4995537500022,
          "velocity": 0.7874015748031497,
          "duration": 0.06578937500000848
        },
        {
          "name": "F5",
          "midi": 77,
          "time": 297.4995537500022,
          "velocity": 0.7874015748031497,
          "duration": 0.06578937500000848
        },
        {
          "name": "D#6",
          "midi": 87,
          "time": 297.4995537500022,
          "velocity": 0.7874015748031497,
          "duration": 0.06578937500000848
        },
        {
          "name": "F6",
          "midi": 89,
          "time": 297.4995537500022,
          "velocity": 0.7874015748031497,
          "duration": 0.06578937500000848
        },
        {
          "name": "D7",
          "midi": 98,
          "time": 297.4995537500022,
          "velocity": 0.7874015748031497,
          "duration": 0.06578937500000848
        },
        {
          "name": "F7",
          "midi": 101,
          "time": 297.4995537500022,
          "velocity": 0.7874015748031497,
          "duration": 0.06578937500000848
        },
        {
          "name": "D6",
          "midi": 86,
          "time": 297.6311325000022,
          "velocity": 0.7874015748031497,
          "duration": 0.06578937500000848
        },
        {
          "name": "F6",
          "midi": 89,
          "time": 297.6311325000022,
          "velocity": 0.7874015748031497,
          "duration": 0.06578937500000848
        },
        {
          "name": "D#7",
          "midi": 99,
          "time": 297.6311325000022,
          "velocity": 0.7874015748031497,
          "duration": 0.06578937500000848
        },
        {
          "name": "F7",
          "midi": 101,
          "time": 297.6311325000022,
          "velocity": 0.7874015748031497,
          "duration": 0.06578937500000848
        },
        {
          "name": "D7",
          "midi": 98,
          "time": 297.7627112500022,
          "velocity": 0.7874015748031497,
          "duration": 0.06578937500000848
        },
        {
          "name": "F7",
          "midi": 101,
          "time": 297.7627112500022,
          "velocity": 0.7874015748031497,
          "duration": 0.06578937500000848
        },
        {
          "name": "C#4",
          "midi": 61,
          "time": 297.89429000000223,
          "velocity": 0.7874015748031497,
          "duration": 0.3903502916666639
        },
        {
          "name": "F#4",
          "midi": 66,
          "time": 297.89429000000223,
          "velocity": 0.7874015748031497,
          "duration": 0.3903502916666639
        },
        {
          "name": "C#5",
          "midi": 73,
          "time": 297.89429000000223,
          "velocity": 0.7874015748031497,
          "duration": 0.3903502916666639
        },
        {
          "name": "F#5",
          "midi": 78,
          "time": 297.89429000000223,
          "velocity": 0.7874015748031497,
          "duration": 0.3903502916666639
        },
        {
          "name": "C#6",
          "midi": 85,
          "time": 297.89429000000223,
          "velocity": 0.7874015748031497,
          "duration": 0.3903502916666639
        },
        {
          "name": "F#6",
          "midi": 90,
          "time": 297.89429000000223,
          "velocity": 0.7874015748031497,
          "duration": 0.3903502916666639
        },
        {
          "name": "C#7",
          "midi": 97,
          "time": 297.89429000000223,
          "velocity": 0.7874015748031497,
          "duration": 0.3903502916666639
        },
        {
          "name": "F7",
          "midi": 101,
          "time": 297.89429000000223,
          "velocity": 0.7874015748031497,
          "duration": 0.3903502916666639
        },
        {
          "name": "D4",
          "midi": 62,
          "time": 298.2890262500022,
          "velocity": 0.7874015748031497,
          "duration": 0.39144678125001064
        },
        {
          "name": "F#4",
          "midi": 66,
          "time": 298.2890262500022,
          "velocity": 0.7874015748031497,
          "duration": 0.39144678125001064
        },
        {
          "name": "D5",
          "midi": 74,
          "time": 298.2890262500022,
          "velocity": 0.7874015748031497,
          "duration": 0.39144678125001064
        },
        {
          "name": "F#5",
          "midi": 78,
          "time": 298.2890262500022,
          "velocity": 0.7874015748031497,
          "duration": 0.39144678125001064
        },
        {
          "name": "D6",
          "midi": 86,
          "time": 298.2890262500022,
          "velocity": 0.7874015748031497,
          "duration": 0.39144678125001064
        },
        {
          "name": "F#6",
          "midi": 90,
          "time": 298.2890262500022,
          "velocity": 0.7874015748031497,
          "duration": 0.39144678125001064
        },
        {
          "name": "D7",
          "midi": 98,
          "time": 298.2890262500022,
          "velocity": 0.7874015748031497,
          "duration": 0.39144678125001064
        },
        {
          "name": "F#7",
          "midi": 102,
          "time": 298.2890262500022,
          "velocity": 0.7874015748031497,
          "duration": 0.39144678125001064
        },
        {
          "name": "C#4",
          "midi": 61,
          "time": 298.68485898958556,
          "velocity": 0.7874015748031497,
          "duration": 0.06469288541666174
        },
        {
          "name": "F#4",
          "midi": 66,
          "time": 298.68485898958556,
          "velocity": 0.7874015748031497,
          "duration": 0.06469288541666174
        },
        {
          "name": "C5",
          "midi": 72,
          "time": 298.68485898958556,
          "velocity": 0.7874015748031497,
          "duration": 0.06469288541666174
        },
        {
          "name": "F#5",
          "midi": 78,
          "time": 298.68485898958556,
          "velocity": 0.7874015748031497,
          "duration": 0.06469288541666174
        },
        {
          "name": "C6",
          "midi": 84,
          "time": 298.68485898958556,
          "velocity": 0.7874015748031497,
          "duration": 0.06469288541666174
        },
        {
          "name": "F#6",
          "midi": 90,
          "time": 298.68485898958556,
          "velocity": 0.7874015748031497,
          "duration": 0.06469288541666174
        },
        {
          "name": "C7",
          "midi": 96,
          "time": 298.68485898958556,
          "velocity": 0.7874015748031497,
          "duration": 0.06469288541666174
        },
        {
          "name": "F#7",
          "midi": 102,
          "time": 298.68485898958556,
          "velocity": 0.7874015748031497,
          "duration": 0.06469288541666174
        },
        {
          "name": "C4",
          "midi": 60,
          "time": 298.94692000000225,
          "velocity": 0.7874015748031497,
          "duration": 0.39144678125001064
        },
        {
          "name": "F#4",
          "midi": 66,
          "time": 298.94692000000225,
          "velocity": 0.7874015748031497,
          "duration": 0.39144678125001064
        },
        {
          "name": "C5",
          "midi": 72,
          "time": 298.94692000000225,
          "velocity": 0.7874015748031497,
          "duration": 0.39144678125001064
        },
        {
          "name": "F#5",
          "midi": 78,
          "time": 298.94692000000225,
          "velocity": 0.7874015748031497,
          "duration": 0.39144678125001064
        },
        {
          "name": "C6",
          "midi": 84,
          "time": 298.94692000000225,
          "velocity": 0.7874015748031497,
          "duration": 0.39144678125001064
        },
        {
          "name": "F#6",
          "midi": 90,
          "time": 298.94692000000225,
          "velocity": 0.7874015748031497,
          "duration": 0.39144678125001064
        },
        {
          "name": "C7",
          "midi": 96,
          "time": 298.94692000000225,
          "velocity": 0.7874015748031497,
          "duration": 0.39144678125001064
        },
        {
          "name": "F#7",
          "midi": 102,
          "time": 298.94692000000225,
          "velocity": 0.7874015748031497,
          "duration": 0.39144678125001064
        },
        {
          "name": "C#4",
          "midi": 61,
          "time": 299.34165625000225,
          "velocity": 0.7874015748031497,
          "duration": 0.3903502916666639
        },
        {
          "name": "F#4",
          "midi": 66,
          "time": 299.34165625000225,
          "velocity": 0.7874015748031497,
          "duration": 0.3903502916666639
        },
        {
          "name": "C#5",
          "midi": 73,
          "time": 299.34165625000225,
          "velocity": 0.7874015748031497,
          "duration": 0.3903502916666639
        },
        {
          "name": "F#5",
          "midi": 78,
          "time": 299.34165625000225,
          "velocity": 0.7874015748031497,
          "duration": 0.3903502916666639
        },
        {
          "name": "C#6",
          "midi": 85,
          "time": 299.34165625000225,
          "velocity": 0.7874015748031497,
          "duration": 0.3903502916666639
        },
        {
          "name": "F#6",
          "midi": 90,
          "time": 299.34165625000225,
          "velocity": 0.7874015748031497,
          "duration": 0.3903502916666639
        },
        {
          "name": "C#7",
          "midi": 97,
          "time": 299.34165625000225,
          "velocity": 0.7874015748031497,
          "duration": 0.3903502916666639
        },
        {
          "name": "F#7",
          "midi": 102,
          "time": 299.34165625000225,
          "velocity": 0.7874015748031497,
          "duration": 0.3903502916666639
        },
        {
          "name": "C4",
          "midi": 60,
          "time": 299.7374889895856,
          "velocity": 0.7874015748031497,
          "duration": 0.06469288541666174
        },
        {
          "name": "F#4",
          "midi": 66,
          "time": 299.7374889895856,
          "velocity": 0.7874015748031497,
          "duration": 0.06469288541666174
        },
        {
          "name": "C5",
          "midi": 72,
          "time": 299.7374889895856,
          "velocity": 0.7874015748031497,
          "duration": 0.06469288541666174
        },
        {
          "name": "C6",
          "midi": 84,
          "time": 299.7374889895856,
          "velocity": 0.7874015748031497,
          "duration": 0.06469288541666174
        },
        {
          "name": "C7",
          "midi": 96,
          "time": 299.7374889895856,
          "velocity": 0.7874015748031497,
          "duration": 0.06469288541666174
        },
        {
          "name": "C#4",
          "midi": 61,
          "time": 299.9995500000023,
          "velocity": 0.7874015748031497,
          "duration": 1.3135945208333624
        },
        {
          "name": "F#4",
          "midi": 66,
          "time": 299.9995500000023,
          "velocity": 0.7874015748031497,
          "duration": 1.3124980312500156
        },
        {
          "name": "D5",
          "midi": 74,
          "time": 299.9995500000023,
          "velocity": 0.7874015748031497,
          "duration": 1.3135945208333624
        },
        {
          "name": "F#5",
          "midi": 78,
          "time": 299.9995500000023,
          "velocity": 0.7874015748031497,
          "duration": 1.3124980312500156
        },
        {
          "name": "D#6",
          "midi": 87,
          "time": 299.9995500000023,
          "velocity": 0.7874015748031497,
          "duration": 1.3135945208333624
        },
        {
          "name": "F#6",
          "midi": 90,
          "time": 299.9995500000023,
          "velocity": 0.7874015748031497,
          "duration": 1.3124980312500156
        },
        {
          "name": "D7",
          "midi": 98,
          "time": 299.9995500000023,
          "velocity": 0.7874015748031497,
          "duration": 1.3135945208333624
        },
        {
          "name": "D#7",
          "midi": 99,
          "time": 299.9995500000023,
          "velocity": 0.7874015748031497,
          "duration": 1.3135945208333624
        },
        {
          "name": "F#7",
          "midi": 102,
          "time": 299.9995500000023,
          "velocity": 0.7874015748031497,
          "duration": 1.3124980312500156
        },
        {
          "name": "C4",
          "midi": 60,
          "time": 301.314241010419,
          "velocity": 0.7874015748031497,
          "duration": 0.06469288541666174
        },
        {
          "name": "F#4",
          "midi": 66,
          "time": 301.314241010419,
          "velocity": 0.7874015748031497,
          "duration": 0.06469288541666174
        },
        {
          "name": "C5",
          "midi": 72,
          "time": 301.314241010419,
          "velocity": 0.7874015748031497,
          "duration": 0.06469288541666174
        },
        {
          "name": "F#5",
          "midi": 78,
          "time": 301.314241010419,
          "velocity": 0.7874015748031497,
          "duration": 0.06469288541666174
        },
        {
          "name": "C6",
          "midi": 84,
          "time": 301.314241010419,
          "velocity": 0.7874015748031497,
          "duration": 0.06469288541666174
        },
        {
          "name": "F#6",
          "midi": 90,
          "time": 301.314241010419,
          "velocity": 0.7874015748031497,
          "duration": 0.06469288541666174
        },
        {
          "name": "C7",
          "midi": 96,
          "time": 301.314241010419,
          "velocity": 0.7874015748031497,
          "duration": 0.06469288541666174
        },
        {
          "name": "F#7",
          "midi": 102,
          "time": 301.314241010419,
          "velocity": 0.7874015748031497,
          "duration": 0.06469288541666174
        },
        {
          "name": "C#4",
          "midi": 61,
          "time": 301.5784950000023,
          "velocity": 0.7874015748031497,
          "duration": 0.06469288541666174
        },
        {
          "name": "F#4",
          "midi": 66,
          "time": 301.5784950000023,
          "velocity": 0.7874015748031497,
          "duration": 0.06469288541666174
        },
        {
          "name": "C#5",
          "midi": 73,
          "time": 301.5784950000023,
          "velocity": 0.7874015748031497,
          "duration": 0.06469288541666174
        },
        {
          "name": "F#5",
          "midi": 78,
          "time": 301.5784950000023,
          "velocity": 0.7874015748031497,
          "duration": 0.06469288541666174
        },
        {
          "name": "C#6",
          "midi": 85,
          "time": 301.5784950000023,
          "velocity": 0.7874015748031497,
          "duration": 0.06469288541666174
        },
        {
          "name": "F#6",
          "midi": 90,
          "time": 301.5784950000023,
          "velocity": 0.7874015748031497,
          "duration": 0.06469288541666174
        },
        {
          "name": "C#7",
          "midi": 97,
          "time": 301.5784950000023,
          "velocity": 0.7874015748031497,
          "duration": 0.06469288541666174
        },
        {
          "name": "F#7",
          "midi": 102,
          "time": 301.5784950000023,
          "velocity": 0.7874015748031497,
          "duration": 0.06469288541666174
        },
        {
          "name": "C4",
          "midi": 60,
          "time": 301.84274898958563,
          "velocity": 0.7874015748031497,
          "duration": 0.06469288541666174
        },
        {
          "name": "F#4",
          "midi": 66,
          "time": 301.84274898958563,
          "velocity": 0.7874015748031497,
          "duration": 0.06469288541666174
        },
        {
          "name": "C5",
          "midi": 72,
          "time": 301.84274898958563,
          "velocity": 0.7874015748031497,
          "duration": 0.06469288541666174
        },
        {
          "name": "C6",
          "midi": 84,
          "time": 301.84274898958563,
          "velocity": 0.7874015748031497,
          "duration": 0.06469288541666174
        },
        {
          "name": "C7",
          "midi": 96,
          "time": 301.84274898958563,
          "velocity": 0.7874015748031497,
          "duration": 0.06469288541666174
        },
        {
          "name": "D4",
          "midi": 62,
          "time": 302.1048100000023,
          "velocity": 0.7874015748031497,
          "duration": 0.06469288541666174
        },
        {
          "name": "F#4",
          "midi": 66,
          "time": 302.1048100000023,
          "velocity": 0.7874015748031497,
          "duration": 0.06469288541666174
        },
        {
          "name": "D5",
          "midi": 74,
          "time": 302.1048100000023,
          "velocity": 0.7874015748031497,
          "duration": 0.06469288541666174
        },
        {
          "name": "F#5",
          "midi": 78,
          "time": 302.1048100000023,
          "velocity": 0.7874015748031497,
          "duration": 0.06469288541666174
        },
        {
          "name": "D#6",
          "midi": 87,
          "time": 302.1048100000023,
          "velocity": 0.7874015748031497,
          "duration": 0.06469288541666174
        },
        {
          "name": "F#6",
          "midi": 90,
          "time": 302.1048100000023,
          "velocity": 0.7874015748031497,
          "duration": 0.06469288541666174
        },
        {
          "name": "D#7",
          "midi": 99,
          "time": 302.1048100000023,
          "velocity": 0.7874015748031497,
          "duration": 0.06469288541666174
        },
        {
          "name": "F#7",
          "midi": 102,
          "time": 302.1048100000023,
          "velocity": 0.7874015748031497,
          "duration": 0.06469288541666174
        },
        {
          "name": "D#7",
          "midi": 99,
          "time": 302.2374852395856,
          "velocity": 0.7874015748031497,
          "duration": 0.06469288541666174
        },
        {
          "name": "F#7",
          "midi": 102,
          "time": 302.2374852395856,
          "velocity": 0.7874015748031497,
          "duration": 0.06469288541666174
        },
        {
          "name": "C#5",
          "midi": 73,
          "time": 302.3679675000023,
          "velocity": 0.7874015748031497,
          "duration": 0.06469288541666174
        },
        {
          "name": "F5",
          "midi": 77,
          "time": 302.3679675000023,
          "velocity": 0.7874015748031497,
          "duration": 0.06469288541666174
        },
        {
          "name": "D6",
          "midi": 86,
          "time": 302.3679675000023,
          "velocity": 0.7874015748031497,
          "duration": 0.06469288541666174
        },
        {
          "name": "F6",
          "midi": 89,
          "time": 302.3679675000023,
          "velocity": 0.7874015748031497,
          "duration": 0.06469288541666174
        },
        {
          "name": "D7",
          "midi": 98,
          "time": 302.3679675000023,
          "velocity": 0.7874015748031497,
          "duration": 0.06469288541666174
        },
        {
          "name": "F7",
          "midi": 101,
          "time": 302.3679675000023,
          "velocity": 0.7874015748031497,
          "duration": 0.06469288541666174
        },
        {
          "name": "D4",
          "midi": 62,
          "time": 302.49844976041896,
          "velocity": 0.7874015748031497,
          "duration": 0.06578937500000848
        },
        {
          "name": "F#4",
          "midi": 66,
          "time": 302.49844976041896,
          "velocity": 0.7874015748031497,
          "duration": 0.06578937500000848
        },
        {
          "name": "D5",
          "midi": 74,
          "time": 302.49844976041896,
          "velocity": 0.7874015748031497,
          "duration": 0.06578937500000848
        },
        {
          "name": "F5",
          "midi": 77,
          "time": 302.49844976041896,
          "velocity": 0.7874015748031497,
          "duration": 0.06578937500000848
        },
        {
          "name": "D#6",
          "midi": 87,
          "time": 302.49844976041896,
          "velocity": 0.7874015748031497,
          "duration": 0.06578937500000848
        },
        {
          "name": "F6",
          "midi": 89,
          "time": 302.49844976041896,
          "velocity": 0.7874015748031497,
          "duration": 0.06578937500000848
        },
        {
          "name": "D#7",
          "midi": 99,
          "time": 302.49844976041896,
          "velocity": 0.7874015748031497,
          "duration": 0.06578937500000848
        },
        {
          "name": "F7",
          "midi": 101,
          "time": 302.49844976041896,
          "velocity": 0.7874015748031497,
          "duration": 0.06578937500000848
        },
        {
          "name": "D#6",
          "midi": 87,
          "time": 302.761607260419,
          "velocity": 0.7874015748031497,
          "duration": 0.06578937500000848
        },
        {
          "name": "F#6",
          "midi": 90,
          "time": 302.761607260419,
          "velocity": 0.7874015748031497,
          "duration": 0.06578937500000848
        },
        {
          "name": "D#7",
          "midi": 99,
          "time": 302.761607260419,
          "velocity": 0.7874015748031497,
          "duration": 0.06578937500000848
        },
        {
          "name": "F#7",
          "midi": 102,
          "time": 302.761607260419,
          "velocity": 0.7874015748031497,
          "duration": 0.06578937500000848
        },
        {
          "name": "C#4",
          "midi": 61,
          "time": 302.893186010419,
          "velocity": 0.7874015748031497,
          "duration": 0.06578937500000848
        },
        {
          "name": "F4",
          "midi": 65,
          "time": 302.893186010419,
          "velocity": 0.7874015748031497,
          "duration": 0.06578937500000848
        },
        {
          "name": "C#5",
          "midi": 73,
          "time": 302.893186010419,
          "velocity": 0.7874015748031497,
          "duration": 0.06578937500000848
        },
        {
          "name": "F5",
          "midi": 77,
          "time": 302.893186010419,
          "velocity": 0.7874015748031497,
          "duration": 0.06578937500000848
        },
        {
          "name": "D6",
          "midi": 86,
          "time": 302.893186010419,
          "velocity": 0.7874015748031497,
          "duration": 0.06578937500000848
        },
        {
          "name": "F6",
          "midi": 89,
          "time": 302.893186010419,
          "velocity": 0.7874015748031497,
          "duration": 0.06578937500000848
        },
        {
          "name": "D7",
          "midi": 98,
          "time": 302.893186010419,
          "velocity": 0.7874015748031497,
          "duration": 0.06578937500000848
        },
        {
          "name": "F7",
          "midi": 101,
          "time": 302.893186010419,
          "velocity": 0.7874015748031497,
          "duration": 0.06578937500000848
        },
        {
          "name": "C#7",
          "midi": 97,
          "time": 303.0258612500024,
          "velocity": 0.7874015748031497,
          "duration": 0.06469288541666174
        },
        {
          "name": "F7",
          "midi": 101,
          "time": 303.0258612500024,
          "velocity": 0.7874015748031497,
          "duration": 0.06469288541666174
        },
        {
          "name": "C4",
          "midi": 60,
          "time": 303.1574400000024,
          "velocity": 0.7874015748031497,
          "duration": 0.3925432708333574
        },
        {
          "name": "F#4",
          "midi": 66,
          "time": 303.1574400000024,
          "velocity": 0.7874015748031497,
          "duration": 0.39144678125001064
        },
        {
          "name": "C5",
          "midi": 72,
          "time": 303.1574400000024,
          "velocity": 0.7874015748031497,
          "duration": 0.3925432708333574
        },
        {
          "name": "F#5",
          "midi": 78,
          "time": 303.1574400000024,
          "velocity": 0.7874015748031497,
          "duration": 0.39144678125001064
        },
        {
          "name": "C6",
          "midi": 84,
          "time": 303.1574400000024,
          "velocity": 0.7874015748031497,
          "duration": 0.3925432708333574
        },
        {
          "name": "F#6",
          "midi": 90,
          "time": 303.1574400000024,
          "velocity": 0.7874015748031497,
          "duration": 0.39144678125001064
        },
        {
          "name": "C7",
          "midi": 96,
          "time": 303.1574400000024,
          "velocity": 0.7874015748031497,
          "duration": 0.3925432708333574
        },
        {
          "name": "F7",
          "midi": 101,
          "time": 303.1574400000024,
          "velocity": 0.7874015748031497,
          "duration": 0.3925432708333574
        },
        {
          "name": "C#4",
          "midi": 61,
          "time": 303.5510797604191,
          "velocity": 0.7874015748031497,
          "duration": 0.394736249999994
        },
        {
          "name": "F#4",
          "midi": 66,
          "time": 303.5510797604191,
          "velocity": 0.7874015748031497,
          "duration": 0.394736249999994
        },
        {
          "name": "C#5",
          "midi": 73,
          "time": 303.5510797604191,
          "velocity": 0.7874015748031497,
          "duration": 0.394736249999994
        },
        {
          "name": "F#5",
          "midi": 78,
          "time": 303.5510797604191,
          "velocity": 0.7874015748031497,
          "duration": 0.394736249999994
        },
        {
          "name": "C#6",
          "midi": 85,
          "time": 303.5510797604191,
          "velocity": 0.7874015748031497,
          "duration": 0.394736249999994
        },
        {
          "name": "F#6",
          "midi": 90,
          "time": 303.5510797604191,
          "velocity": 0.7874015748031497,
          "duration": 0.394736249999994
        },
        {
          "name": "C#7",
          "midi": 97,
          "time": 303.5510797604191,
          "velocity": 0.7874015748031497,
          "duration": 0.394736249999994
        },
        {
          "name": "F#7",
          "midi": 102,
          "time": 303.5510797604191,
          "velocity": 0.7874015748031497,
          "duration": 0.394736249999994
        },
        {
          "name": "C4",
          "midi": 60,
          "time": 303.9480089895858,
          "velocity": 0.7874015748031497,
          "duration": 0.06469288541666174
        },
        {
          "name": "F#4",
          "midi": 66,
          "time": 303.9480089895858,
          "velocity": 0.7874015748031497,
          "duration": 0.06469288541666174
        },
        {
          "name": "C5",
          "midi": 72,
          "time": 303.9480089895858,
          "velocity": 0.7874015748031497,
          "duration": 0.06469288541666174
        },
        {
          "name": "C6",
          "midi": 84,
          "time": 303.9480089895858,
          "velocity": 0.7874015748031497,
          "duration": 0.06469288541666174
        },
        {
          "name": "C7",
          "midi": 96,
          "time": 303.9480089895858,
          "velocity": 0.7874015748031497,
          "duration": 0.06469288541666174
        },
        {
          "name": "C#4",
          "midi": 61,
          "time": 304.2100700000025,
          "velocity": 0.7874015748031497,
          "duration": 0.5252185104166642
        },
        {
          "name": "F#4",
          "midi": 66,
          "time": 304.2100700000025,
          "velocity": 0.7874015748031497,
          "duration": 0.5241220208333175
        },
        {
          "name": "D5",
          "midi": 74,
          "time": 304.2100700000025,
          "velocity": 0.7874015748031497,
          "duration": 0.5252185104166642
        },
        {
          "name": "F#5",
          "midi": 78,
          "time": 304.2100700000025,
          "velocity": 0.7874015748031497,
          "duration": 0.5241220208333175
        },
        {
          "name": "D#6",
          "midi": 87,
          "time": 304.2100700000025,
          "velocity": 0.7874015748031497,
          "duration": 0.5252185104166642
        },
        {
          "name": "F#6",
          "midi": 90,
          "time": 304.2100700000025,
          "velocity": 0.7874015748031497,
          "duration": 0.5241220208333175
        },
        {
          "name": "D7",
          "midi": 98,
          "time": 304.2100700000025,
          "velocity": 0.7874015748031497,
          "duration": 0.5252185104166642
        },
        {
          "name": "D#7",
          "midi": 99,
          "time": 304.2100700000025,
          "velocity": 0.7874015748031497,
          "duration": 0.5252185104166642
        },
        {
          "name": "F#7",
          "midi": 102,
          "time": 304.2100700000025,
          "velocity": 0.7874015748031497,
          "duration": 0.5241220208333175
        },
        {
          "name": "D4",
          "midi": 62,
          "time": 304.7363850000025,
          "velocity": 0.7874015748031497,
          "duration": 0.7872795208333514
        },
        {
          "name": "F#4",
          "midi": 66,
          "time": 304.7363850000025,
          "velocity": 0.7874015748031497,
          "duration": 0.7861830312500047
        },
        {
          "name": "D#5",
          "midi": 75,
          "time": 304.7363850000025,
          "velocity": 0.7874015748031497,
          "duration": 0.7872795208333514
        },
        {
          "name": "F#5",
          "midi": 78,
          "time": 304.7363850000025,
          "velocity": 0.7874015748031497,
          "duration": 0.7861830312500047
        },
        {
          "name": "D#6",
          "midi": 87,
          "time": 304.7363850000025,
          "velocity": 0.7874015748031497,
          "duration": 0.06469288541666174
        },
        {
          "name": "F#6",
          "midi": 90,
          "time": 304.7363850000025,
          "velocity": 0.7874015748031497,
          "duration": 0.06469288541666174
        },
        {
          "name": "D#7",
          "midi": 99,
          "time": 304.7363850000025,
          "velocity": 0.7874015748031497,
          "duration": 0.7883760104166981
        },
        {
          "name": "F#7",
          "midi": 102,
          "time": 304.7363850000025,
          "velocity": 0.7874015748031497,
          "duration": 0.13048226041667021
        },
        {
          "name": "E6",
          "midi": 88,
          "time": 304.8679637500025,
          "velocity": 0.7874015748031497,
          "duration": 0.6557007708333344
        },
        {
          "name": "F6",
          "midi": 89,
          "time": 304.8679637500025,
          "velocity": 0.7874015748031497,
          "duration": 0.6557007708333344
        },
        {
          "name": "E7",
          "midi": 100,
          "time": 304.8679637500025,
          "velocity": 0.7874015748031497,
          "duration": 0.6567972604166812
        },
        {
          "name": "F7",
          "midi": 101,
          "time": 304.8679637500025,
          "velocity": 0.7874015748031497,
          "duration": 0.6557007708333344
        },
        {
          "name": "C4",
          "midi": 60,
          "time": 305.5247610104192,
          "velocity": 0.7874015748031497,
          "duration": 0.06578937500000848
        },
        {
          "name": "F#4",
          "midi": 66,
          "time": 305.5247610104192,
          "velocity": 0.7874015748031497,
          "duration": 0.06578937500000848
        },
        {
          "name": "C5",
          "midi": 72,
          "time": 305.5247610104192,
          "velocity": 0.7874015748031497,
          "duration": 0.06578937500000848
        },
        {
          "name": "F#5",
          "midi": 78,
          "time": 305.5247610104192,
          "velocity": 0.7874015748031497,
          "duration": 0.06578937500000848
        },
        {
          "name": "C6",
          "midi": 84,
          "time": 305.5247610104192,
          "velocity": 0.7874015748031497,
          "duration": 0.06578937500000848
        },
        {
          "name": "F#6",
          "midi": 90,
          "time": 305.5247610104192,
          "velocity": 0.7874015748031497,
          "duration": 0.06578937500000848
        },
        {
          "name": "C7",
          "midi": 96,
          "time": 305.5247610104192,
          "velocity": 0.7874015748031497,
          "duration": 0.06578937500000848
        },
        {
          "name": "F#7",
          "midi": 102,
          "time": 305.5247610104192,
          "velocity": 0.7874015748031497,
          "duration": 0.06578937500000848
        },
        {
          "name": "C#4",
          "midi": 61,
          "time": 305.7890150000025,
          "velocity": 0.7874015748031497,
          "duration": 0.06469288541666174
        },
        {
          "name": "F#4",
          "midi": 66,
          "time": 305.7890150000025,
          "velocity": 0.7874015748031497,
          "duration": 0.06469288541666174
        },
        {
          "name": "C#5",
          "midi": 73,
          "time": 305.7890150000025,
          "velocity": 0.7874015748031497,
          "duration": 0.06469288541666174
        },
        {
          "name": "F#5",
          "midi": 78,
          "time": 305.7890150000025,
          "velocity": 0.7874015748031497,
          "duration": 0.06469288541666174
        },
        {
          "name": "C#6",
          "midi": 85,
          "time": 305.7890150000025,
          "velocity": 0.7874015748031497,
          "duration": 0.06469288541666174
        },
        {
          "name": "F#6",
          "midi": 90,
          "time": 305.7890150000025,
          "velocity": 0.7874015748031497,
          "duration": 0.06469288541666174
        },
        {
          "name": "C#7",
          "midi": 97,
          "time": 305.7890150000025,
          "velocity": 0.7874015748031497,
          "duration": 0.06469288541666174
        },
        {
          "name": "F#7",
          "midi": 102,
          "time": 305.7890150000025,
          "velocity": 0.7874015748031497,
          "duration": 0.06469288541666174
        },
        {
          "name": "C4",
          "midi": 60,
          "time": 306.05326898958583,
          "velocity": 0.7874015748031497,
          "duration": 0.06469288541666174
        },
        {
          "name": "F#4",
          "midi": 66,
          "time": 306.05326898958583,
          "velocity": 0.7874015748031497,
          "duration": 0.06469288541666174
        },
        {
          "name": "C5",
          "midi": 72,
          "time": 306.05326898958583,
          "velocity": 0.7874015748031497,
          "duration": 0.06469288541666174
        },
        {
          "name": "C6",
          "midi": 84,
          "time": 306.05326898958583,
          "velocity": 0.7874015748031497,
          "duration": 0.06469288541666174
        },
        {
          "name": "C7",
          "midi": 96,
          "time": 306.05326898958583,
          "velocity": 0.7874015748031497,
          "duration": 0.06469288541666174
        },
        {
          "name": "D4",
          "midi": 62,
          "time": 306.3153300000025,
          "velocity": 0.7874015748031497,
          "duration": 0.06469288541666174
        },
        {
          "name": "F#4",
          "midi": 66,
          "time": 306.3153300000025,
          "velocity": 0.7874015748031497,
          "duration": 0.06469288541666174
        },
        {
          "name": "D5",
          "midi": 74,
          "time": 306.3153300000025,
          "velocity": 0.7874015748031497,
          "duration": 0.06469288541666174
        },
        {
          "name": "F#5",
          "midi": 78,
          "time": 306.3153300000025,
          "velocity": 0.7874015748031497,
          "duration": 0.06469288541666174
        },
        {
          "name": "D#6",
          "midi": 87,
          "time": 306.3153300000025,
          "velocity": 0.7874015748031497,
          "duration": 0.06469288541666174
        },
        {
          "name": "F#6",
          "midi": 90,
          "time": 306.3153300000025,
          "velocity": 0.7874015748031497,
          "duration": 0.06469288541666174
        },
        {
          "name": "D#7",
          "midi": 99,
          "time": 306.3153300000025,
          "velocity": 0.7874015748031497,
          "duration": 0.06469288541666174
        },
        {
          "name": "F#7",
          "midi": 102,
          "time": 306.3153300000025,
          "velocity": 0.7874015748031497,
          "duration": 0.06469288541666174
        },
        {
          "name": "D#7",
          "midi": 99,
          "time": 306.44690875000254,
          "velocity": 0.7874015748031497,
          "duration": 0.06469288541666174
        },
        {
          "name": "F#7",
          "midi": 102,
          "time": 306.44690875000254,
          "velocity": 0.7874015748031497,
          "duration": 0.06469288541666174
        },
        {
          "name": "C#5",
          "midi": 73,
          "time": 306.57958398958584,
          "velocity": 0.7874015748031497,
          "duration": 0.06469288541666174
        },
        {
          "name": "F5",
          "midi": 77,
          "time": 306.57958398958584,
          "velocity": 0.7874015748031497,
          "duration": 0.06469288541666174
        },
        {
          "name": "D6",
          "midi": 86,
          "time": 306.57958398958584,
          "velocity": 0.7874015748031497,
          "duration": 0.06469288541666174
        },
        {
          "name": "F#6",
          "midi": 90,
          "time": 306.57958398958584,
          "velocity": 0.7874015748031497,
          "duration": 0.06469288541666174
        },
        {
          "name": "D7",
          "midi": 98,
          "time": 306.57958398958584,
          "velocity": 0.7874015748031497,
          "duration": 0.06469288541666174
        },
        {
          "name": "F7",
          "midi": 101,
          "time": 306.57958398958584,
          "velocity": 0.7874015748031497,
          "duration": 0.06469288541666174
        },
        {
          "name": "D4",
          "midi": 62,
          "time": 306.7100662500025,
          "velocity": 0.7874015748031497,
          "duration": 0.06578937500000848
        },
        {
          "name": "F#4",
          "midi": 66,
          "time": 306.7100662500025,
          "velocity": 0.7874015748031497,
          "duration": 0.06578937500000848
        },
        {
          "name": "D5",
          "midi": 74,
          "time": 306.7100662500025,
          "velocity": 0.7874015748031497,
          "duration": 0.06578937500000848
        },
        {
          "name": "F5",
          "midi": 77,
          "time": 306.7100662500025,
          "velocity": 0.7874015748031497,
          "duration": 0.06578937500000848
        },
        {
          "name": "D#6",
          "midi": 87,
          "time": 306.7100662500025,
          "velocity": 0.7874015748031497,
          "duration": 0.06578937500000848
        },
        {
          "name": "F6",
          "midi": 89,
          "time": 306.7100662500025,
          "velocity": 0.7874015748031497,
          "duration": 0.06578937500000848
        },
        {
          "name": "D#7",
          "midi": 99,
          "time": 306.7100662500025,
          "velocity": 0.7874015748031497,
          "duration": 0.06578937500000848
        },
        {
          "name": "F7",
          "midi": 101,
          "time": 306.7100662500025,
          "velocity": 0.7874015748031497,
          "duration": 0.06578937500000848
        },
        {
          "name": "D6",
          "midi": 86,
          "time": 306.84164500000253,
          "velocity": 0.7874015748031497,
          "duration": 0.06469288541666174
        },
        {
          "name": "F6",
          "midi": 89,
          "time": 306.84164500000253,
          "velocity": 0.7874015748031497,
          "duration": 0.06469288541666174
        },
        {
          "name": "D7",
          "midi": 98,
          "time": 306.84164500000253,
          "velocity": 0.7874015748031497,
          "duration": 0.06469288541666174
        },
        {
          "name": "F7",
          "midi": 101,
          "time": 306.84164500000253,
          "velocity": 0.7874015748031497,
          "duration": 0.06469288541666174
        },
        {
          "name": "C#4",
          "midi": 61,
          "time": 306.97322375000255,
          "velocity": 0.7874015748031497,
          "duration": 0.3936397604166473
        },
        {
          "name": "F4",
          "midi": 65,
          "time": 306.97322375000255,
          "velocity": 0.7874015748031497,
          "duration": 0.3936397604166473
        },
        {
          "name": "C#5",
          "midi": 73,
          "time": 306.97322375000255,
          "velocity": 0.7874015748031497,
          "duration": 0.3936397604166473
        },
        {
          "name": "F5",
          "midi": 77,
          "time": 306.97322375000255,
          "velocity": 0.7874015748031497,
          "duration": 0.3936397604166473
        },
        {
          "name": "C#6",
          "midi": 85,
          "time": 306.97322375000255,
          "velocity": 0.7874015748031497,
          "duration": 0.3936397604166473
        },
        {
          "name": "F6",
          "midi": 89,
          "time": 306.97322375000255,
          "velocity": 0.7874015748031497,
          "duration": 0.3936397604166473
        },
        {
          "name": "C#7",
          "midi": 97,
          "time": 306.97322375000255,
          "velocity": 0.7874015748031497,
          "duration": 0.3936397604166473
        },
        {
          "name": "F7",
          "midi": 101,
          "time": 306.97322375000255,
          "velocity": 0.7874015748031497,
          "duration": 0.3936397604166473
        },
        {
          "name": "C4",
          "midi": 60,
          "time": 307.36796000000254,
          "velocity": 0.7874015748031497,
          "duration": 0.06578937500000848
        },
        {
          "name": "F#4",
          "midi": 66,
          "time": 307.36796000000254,
          "velocity": 0.7874015748031497,
          "duration": 0.06578937500000848
        },
        {
          "name": "C#5",
          "midi": 73,
          "time": 307.36796000000254,
          "velocity": 0.7874015748031497,
          "duration": 0.06578937500000848
        },
        {
          "name": "F#5",
          "midi": 78,
          "time": 307.36796000000254,
          "velocity": 0.7874015748031497,
          "duration": 0.06578937500000848
        },
        {
          "name": "C#6",
          "midi": 85,
          "time": 307.36796000000254,
          "velocity": 0.7874015748031497,
          "duration": 0.06578937500000848
        },
        {
          "name": "F#6",
          "midi": 90,
          "time": 307.36796000000254,
          "velocity": 0.7874015748031497,
          "duration": 0.06578937500000848
        },
        {
          "name": "C7",
          "midi": 96,
          "time": 307.36796000000254,
          "velocity": 0.7874015748031497,
          "duration": 0.06578937500000848
        },
        {
          "name": "F#7",
          "midi": 102,
          "time": 307.36796000000254,
          "velocity": 0.7874015748031497,
          "duration": 0.06578937500000848
        },
        {
          "name": "C#4",
          "midi": 61,
          "time": 307.76269625000253,
          "velocity": 0.7874015748031497,
          "duration": 0.06469288541666174
        },
        {
          "name": "F#4",
          "midi": 66,
          "time": 307.76269625000253,
          "velocity": 0.7874015748031497,
          "duration": 0.06469288541666174
        },
        {
          "name": "D5",
          "midi": 74,
          "time": 307.76269625000253,
          "velocity": 0.7874015748031497,
          "duration": 0.06469288541666174
        },
        {
          "name": "F#5",
          "midi": 78,
          "time": 307.76269625000253,
          "velocity": 0.7874015748031497,
          "duration": 0.06469288541666174
        },
        {
          "name": "D6",
          "midi": 86,
          "time": 307.76269625000253,
          "velocity": 0.7874015748031497,
          "duration": 0.06469288541666174
        },
        {
          "name": "F#6",
          "midi": 90,
          "time": 307.76269625000253,
          "velocity": 0.7874015748031497,
          "duration": 0.06469288541666174
        },
        {
          "name": "D7",
          "midi": 98,
          "time": 307.76269625000253,
          "velocity": 0.7874015748031497,
          "duration": 0.06469288541666174
        },
        {
          "name": "F#7",
          "midi": 102,
          "time": 307.76269625000253,
          "velocity": 0.7874015748031497,
          "duration": 0.06469288541666174
        },
        {
          "name": "D4",
          "midi": 62,
          "time": 308.09273961458587,
          "velocity": 0.7874015748031497,
          "duration": 0.06578937500000848
        },
        {
          "name": "F#4",
          "midi": 66,
          "time": 308.09273961458587,
          "velocity": 0.7874015748031497,
          "duration": 0.06578937500000848
        },
        {
          "name": "D#5",
          "midi": 75,
          "time": 308.09273961458587,
          "velocity": 0.7874015748031497,
          "duration": 0.06578937500000848
        },
        {
          "name": "F#5",
          "midi": 78,
          "time": 308.09273961458587,
          "velocity": 0.7874015748031497,
          "duration": 0.06578937500000848
        },
        {
          "name": "D#6",
          "midi": 87,
          "time": 308.09273961458587,
          "velocity": 0.7874015748031497,
          "duration": 0.06578937500000848
        },
        {
          "name": "F#6",
          "midi": 90,
          "time": 308.09273961458587,
          "velocity": 0.7874015748031497,
          "duration": 0.06578937500000848
        },
        {
          "name": "D#7",
          "midi": 99,
          "time": 308.09273961458587,
          "velocity": 0.7874015748031497,
          "duration": 0.06578937500000848
        },
        {
          "name": "F#7",
          "midi": 102,
          "time": 308.09273961458587,
          "velocity": 0.7874015748031497,
          "duration": 0.06578937500000848
        },
        {
          "name": "E7",
          "midi": 100,
          "time": 308.19032718750253,
          "velocity": 0.7874015748031497,
          "duration": 0.06578937500000848
        },
        {
          "name": "F7",
          "midi": 101,
          "time": 308.19032718750253,
          "velocity": 0.7874015748031497,
          "duration": 0.06578937500000848
        },
        {
          "name": "C#4",
          "midi": 61,
          "time": 308.42059000000256,
          "velocity": 0.7874015748031497,
          "duration": 0.5230255312500276
        },
        {
          "name": "F#4",
          "midi": 66,
          "time": 308.42059000000256,
          "velocity": 0.7874015748031497,
          "duration": 0.5230255312500276
        },
        {
          "name": "D5",
          "midi": 74,
          "time": 308.42059000000256,
          "velocity": 0.7874015748031497,
          "duration": 0.5230255312500276
        },
        {
          "name": "F#5",
          "midi": 78,
          "time": 308.42059000000256,
          "velocity": 0.7874015748031497,
          "duration": 0.5230255312500276
        },
        {
          "name": "D6",
          "midi": 86,
          "time": 308.42059000000256,
          "velocity": 0.7874015748031497,
          "duration": 0.5230255312500276
        },
        {
          "name": "F#6",
          "midi": 90,
          "time": 308.42059000000256,
          "velocity": 0.7874015748031497,
          "duration": 0.5230255312500276
        },
        {
          "name": "D#7",
          "midi": 99,
          "time": 308.42059000000256,
          "velocity": 0.7874015748031497,
          "duration": 0.5230255312500276
        },
        {
          "name": "F#7",
          "midi": 102,
          "time": 308.42059000000256,
          "velocity": 0.7874015748031497,
          "duration": 0.5230255312500276
        },
        {
          "name": "D4",
          "midi": 62,
          "time": 308.9469050000026,
          "velocity": 0.7874015748031497,
          "duration": 0.7872795208333514
        },
        {
          "name": "F#4",
          "midi": 66,
          "time": 308.9469050000026,
          "velocity": 0.7874015748031497,
          "duration": 0.7861830312500047
        },
        {
          "name": "D#5",
          "midi": 75,
          "time": 308.9469050000026,
          "velocity": 0.7874015748031497,
          "duration": 0.7872795208333514
        },
        {
          "name": "F#5",
          "midi": 78,
          "time": 308.9469050000026,
          "velocity": 0.7874015748031497,
          "duration": 0.7861830312500047
        },
        {
          "name": "D#6",
          "midi": 87,
          "time": 308.9469050000026,
          "velocity": 0.7874015748031497,
          "duration": 0.7872795208333514
        },
        {
          "name": "F#6",
          "midi": 90,
          "time": 308.9469050000026,
          "velocity": 0.7874015748031497,
          "duration": 0.7861830312500047
        },
        {
          "name": "D#7",
          "midi": 99,
          "time": 308.9469050000026,
          "velocity": 0.7874015748031497,
          "duration": 0.06469288541666174
        },
        {
          "name": "F#7",
          "midi": 102,
          "time": 308.9469050000026,
          "velocity": 0.7874015748031497,
          "duration": 0.06469288541666174
        },
        {
          "name": "E7",
          "midi": 100,
          "time": 309.0455890625026,
          "velocity": 0.7874015748031497,
          "duration": 0.6885954583333387
        },
        {
          "name": "F7",
          "midi": 101,
          "time": 309.0455890625026,
          "velocity": 0.7874015748031497,
          "duration": 0.6885954583333387
        },
        {
          "name": "C4",
          "midi": 60,
          "time": 309.73528101041927,
          "velocity": 0.7874015748031497,
          "duration": 0.06578937500000848
        },
        {
          "name": "F#4",
          "midi": 66,
          "time": 309.73528101041927,
          "velocity": 0.7874015748031497,
          "duration": 0.06578937500000848
        },
        {
          "name": "C#5",
          "midi": 73,
          "time": 309.73528101041927,
          "velocity": 0.7874015748031497,
          "duration": 0.06578937500000848
        },
        {
          "name": "F#5",
          "midi": 78,
          "time": 309.73528101041927,
          "velocity": 0.7874015748031497,
          "duration": 0.06578937500000848
        },
        {
          "name": "C#6",
          "midi": 85,
          "time": 309.73528101041927,
          "velocity": 0.7874015748031497,
          "duration": 0.06578937500000848
        },
        {
          "name": "F#6",
          "midi": 90,
          "time": 309.73528101041927,
          "velocity": 0.7874015748031497,
          "duration": 0.06578937500000848
        },
        {
          "name": "C#7",
          "midi": 97,
          "time": 309.73528101041927,
          "velocity": 0.7874015748031497,
          "duration": 0.06578937500000848
        },
        {
          "name": "F#7",
          "midi": 102,
          "time": 309.73528101041927,
          "velocity": 0.7874015748031497,
          "duration": 0.06578937500000848
        },
        {
          "name": "C#4",
          "midi": 61,
          "time": 309.9995350000026,
          "velocity": 0.7874015748031497,
          "duration": 0.06578937500000848
        },
        {
          "name": "F#4",
          "midi": 66,
          "time": 309.9995350000026,
          "velocity": 0.7874015748031497,
          "duration": 0.06578937500000848
        },
        {
          "name": "D5",
          "midi": 74,
          "time": 309.9995350000026,
          "velocity": 0.7874015748031497,
          "duration": 0.06578937500000848
        },
        {
          "name": "F#5",
          "midi": 78,
          "time": 309.9995350000026,
          "velocity": 0.7874015748031497,
          "duration": 0.06578937500000848
        },
        {
          "name": "D6",
          "midi": 86,
          "time": 309.9995350000026,
          "velocity": 0.7874015748031497,
          "duration": 0.06578937500000848
        },
        {
          "name": "F#6",
          "midi": 90,
          "time": 309.9995350000026,
          "velocity": 0.7874015748031497,
          "duration": 0.06578937500000848
        },
        {
          "name": "D7",
          "midi": 98,
          "time": 309.9995350000026,
          "velocity": 0.7874015748031497,
          "duration": 0.06578937500000848
        },
        {
          "name": "F#7",
          "midi": 102,
          "time": 309.9995350000026,
          "velocity": 0.7874015748031497,
          "duration": 0.06578937500000848
        },
        {
          "name": "D4",
          "midi": 62,
          "time": 310.26269250000263,
          "velocity": 0.7874015748031497,
          "duration": 0.06578937500000848
        },
        {
          "name": "F#4",
          "midi": 66,
          "time": 310.26269250000263,
          "velocity": 0.7874015748031497,
          "duration": 0.06578937500000848
        },
        {
          "name": "D#5",
          "midi": 75,
          "time": 310.26269250000263,
          "velocity": 0.7874015748031497,
          "duration": 0.06578937500000848
        },
        {
          "name": "F#5",
          "midi": 78,
          "time": 310.26269250000263,
          "velocity": 0.7874015748031497,
          "duration": 0.06578937500000848
        },
        {
          "name": "D#6",
          "midi": 87,
          "time": 310.26269250000263,
          "velocity": 0.7874015748031497,
          "duration": 0.06578937500000848
        },
        {
          "name": "F#6",
          "midi": 90,
          "time": 310.26269250000263,
          "velocity": 0.7874015748031497,
          "duration": 0.06578937500000848
        },
        {
          "name": "E7",
          "midi": 100,
          "time": 310.26269250000263,
          "velocity": 0.7874015748031497,
          "duration": 0.06578937500000848
        },
        {
          "name": "F#7",
          "midi": 102,
          "time": 310.26269250000263,
          "velocity": 0.7874015748031497,
          "duration": 0.06578937500000848
        },
        {
          "name": "C#4",
          "midi": 61,
          "time": 310.52585000000266,
          "velocity": 0.7874015748031497,
          "duration": 0.06578937500000848
        },
        {
          "name": "F#4",
          "midi": 66,
          "time": 310.52585000000266,
          "velocity": 0.7874015748031497,
          "duration": 0.06578937500000848
        },
        {
          "name": "D5",
          "midi": 74,
          "time": 310.52585000000266,
          "velocity": 0.7874015748031497,
          "duration": 0.06578937500000848
        },
        {
          "name": "F#5",
          "midi": 78,
          "time": 310.52585000000266,
          "velocity": 0.7874015748031497,
          "duration": 0.06578937500000848
        },
        {
          "name": "D6",
          "midi": 86,
          "time": 310.52585000000266,
          "velocity": 0.7874015748031497,
          "duration": 0.06578937500000848
        },
        {
          "name": "F#6",
          "midi": 90,
          "time": 310.52585000000266,
          "velocity": 0.7874015748031497,
          "duration": 0.06578937500000848
        },
        {
          "name": "D#7",
          "midi": 99,
          "time": 310.52585000000266,
          "velocity": 0.7874015748031497,
          "duration": 0.06578937500000848
        },
        {
          "name": "F#7",
          "midi": 102,
          "time": 310.52585000000266,
          "velocity": 0.7874015748031497,
          "duration": 0.06578937500000848
        },
        {
          "name": "D#7",
          "midi": 99,
          "time": 310.6574287500027,
          "velocity": 0.7874015748031497,
          "duration": 0.06578937500000848
        },
        {
          "name": "F#7",
          "midi": 102,
          "time": 310.6574287500027,
          "velocity": 0.7874015748031497,
          "duration": 0.06578937500000848
        },
        {
          "name": "C#6",
          "midi": 85,
          "time": 310.79010398958604,
          "velocity": 0.7874015748031497,
          "duration": 0.06469288541666174
        },
        {
          "name": "F6",
          "midi": 89,
          "time": 310.79010398958604,
          "velocity": 0.7874015748031497,
          "duration": 0.06469288541666174
        },
        {
          "name": "D7",
          "midi": 98,
          "time": 310.79010398958604,
          "velocity": 0.7874015748031497,
          "duration": 0.06469288541666174
        },
        {
          "name": "F7",
          "midi": 101,
          "time": 310.79010398958604,
          "velocity": 0.7874015748031497,
          "duration": 0.06469288541666174
        },
        {
          "name": "C#4",
          "midi": 61,
          "time": 310.9205862500027,
          "velocity": 0.7874015748031497,
          "duration": 0.06469288541666174
        },
        {
          "name": "F#4",
          "midi": 66,
          "time": 310.9205862500027,
          "velocity": 0.7874015748031497,
          "duration": 0.06469288541666174
        },
        {
          "name": "D5",
          "midi": 74,
          "time": 310.9205862500027,
          "velocity": 0.7874015748031497,
          "duration": 0.06469288541666174
        },
        {
          "name": "F#5",
          "midi": 78,
          "time": 310.9205862500027,
          "velocity": 0.7874015748031497,
          "duration": 0.06469288541666174
        },
        {
          "name": "D6",
          "midi": 86,
          "time": 310.9205862500027,
          "velocity": 0.7874015748031497,
          "duration": 0.06469288541666174
        },
        {
          "name": "F6",
          "midi": 89,
          "time": 310.9205862500027,
          "velocity": 0.7874015748031497,
          "duration": 0.06469288541666174
        },
        {
          "name": "D#7",
          "midi": 99,
          "time": 310.9205862500027,
          "velocity": 0.7874015748031497,
          "duration": 0.06469288541666174
        },
        {
          "name": "F7",
          "midi": 101,
          "time": 310.9205862500027,
          "velocity": 0.7874015748031497,
          "duration": 0.06469288541666174
        },
        {
          "name": "D5",
          "midi": 74,
          "time": 311.1837437500027,
          "velocity": 0.7874015748031497,
          "duration": 0.06578937500000848
        },
        {
          "name": "F#5",
          "midi": 78,
          "time": 311.1837437500027,
          "velocity": 0.7874015748031497,
          "duration": 0.06578937500000848
        },
        {
          "name": "D6",
          "midi": 86,
          "time": 311.1837437500027,
          "velocity": 0.7874015748031497,
          "duration": 0.06578937500000848
        },
        {
          "name": "F#6",
          "midi": 90,
          "time": 311.1837437500027,
          "velocity": 0.7874015748031497,
          "duration": 0.06578937500000848
        },
        {
          "name": "D#7",
          "midi": 99,
          "time": 311.1837437500027,
          "velocity": 0.7874015748031497,
          "duration": 0.06578937500000848
        },
        {
          "name": "F#7",
          "midi": 102,
          "time": 311.1837437500027,
          "velocity": 0.7874015748031497,
          "duration": 0.06578937500000848
        },
        {
          "name": "C4",
          "midi": 60,
          "time": 311.31422601041936,
          "velocity": 0.7874015748031497,
          "duration": 0.06578937500000848
        },
        {
          "name": "F4",
          "midi": 65,
          "time": 311.31422601041936,
          "velocity": 0.7874015748031497,
          "duration": 0.06578937500000848
        },
        {
          "name": "C#5",
          "midi": 73,
          "time": 311.31422601041936,
          "velocity": 0.7874015748031497,
          "duration": 0.06578937500000848
        },
        {
          "name": "F5",
          "midi": 77,
          "time": 311.31422601041936,
          "velocity": 0.7874015748031497,
          "duration": 0.06578937500000848
        },
        {
          "name": "C#6",
          "midi": 85,
          "time": 311.31422601041936,
          "velocity": 0.7874015748031497,
          "duration": 0.06578937500000848
        },
        {
          "name": "F6",
          "midi": 89,
          "time": 311.31422601041936,
          "velocity": 0.7874015748031497,
          "duration": 0.06578937500000848
        },
        {
          "name": "D7",
          "midi": 98,
          "time": 311.31422601041936,
          "velocity": 0.7874015748031497,
          "duration": 0.06578937500000848
        },
        {
          "name": "F7",
          "midi": 101,
          "time": 311.31422601041936,
          "velocity": 0.7874015748031497,
          "duration": 0.06578937500000848
        },
        {
          "name": "C#7",
          "midi": 97,
          "time": 311.4469012500027,
          "velocity": 0.7874015748031497,
          "duration": 0.06469288541666174
        },
        {
          "name": "F7",
          "midi": 101,
          "time": 311.4469012500027,
          "velocity": 0.7874015748031497,
          "duration": 0.06469288541666174
        },
        {
          "name": "C4",
          "midi": 60,
          "time": 311.57848000000274,
          "velocity": 0.7874015748031497,
          "duration": 0.3936397604167041
        },
        {
          "name": "F#4",
          "midi": 66,
          "time": 311.57848000000274,
          "velocity": 0.7874015748031497,
          "duration": 0.3925432708333574
        },
        {
          "name": "C#5",
          "midi": 73,
          "time": 311.57848000000274,
          "velocity": 0.7874015748031497,
          "duration": 0.3936397604167041
        },
        {
          "name": "F#5",
          "midi": 78,
          "time": 311.57848000000274,
          "velocity": 0.7874015748031497,
          "duration": 0.3925432708333574
        },
        {
          "name": "C#6",
          "midi": 85,
          "time": 311.57848000000274,
          "velocity": 0.7874015748031497,
          "duration": 0.3936397604167041
        },
        {
          "name": "F#6",
          "midi": 90,
          "time": 311.57848000000274,
          "velocity": 0.7874015748031497,
          "duration": 0.3925432708333574
        },
        {
          "name": "C7",
          "midi": 96,
          "time": 311.57848000000274,
          "velocity": 0.7874015748031497,
          "duration": 0.3936397604167041
        },
        {
          "name": "F7",
          "midi": 101,
          "time": 311.57848000000274,
          "velocity": 0.7874015748031497,
          "duration": 0.3936397604167041
        },
        {
          "name": "C#4",
          "midi": 61,
          "time": 311.9732162500028,
          "velocity": 0.7874015748031497,
          "duration": 0.3936397604166473
        },
        {
          "name": "F#4",
          "midi": 66,
          "time": 311.9732162500028,
          "velocity": 0.7874015748031497,
          "duration": 0.3936397604166473
        },
        {
          "name": "D5",
          "midi": 74,
          "time": 311.9732162500028,
          "velocity": 0.7874015748031497,
          "duration": 0.3936397604166473
        },
        {
          "name": "F#5",
          "midi": 78,
          "time": 311.9732162500028,
          "velocity": 0.7874015748031497,
          "duration": 0.3936397604166473
        },
        {
          "name": "D6",
          "midi": 86,
          "time": 311.9732162500028,
          "velocity": 0.7874015748031497,
          "duration": 0.3936397604166473
        },
        {
          "name": "F#6",
          "midi": 90,
          "time": 311.9732162500028,
          "velocity": 0.7874015748031497,
          "duration": 0.3936397604166473
        },
        {
          "name": "D7",
          "midi": 98,
          "time": 311.9732162500028,
          "velocity": 0.7874015748031497,
          "duration": 0.3936397604166473
        },
        {
          "name": "F#7",
          "midi": 102,
          "time": 311.9732162500028,
          "velocity": 0.7874015748031497,
          "duration": 0.3936397604166473
        },
        {
          "name": "D4",
          "midi": 62,
          "time": 312.36904898958613,
          "velocity": 0.7874015748031497,
          "duration": 0.06469288541666174
        },
        {
          "name": "F#4",
          "midi": 66,
          "time": 312.36904898958613,
          "velocity": 0.7874015748031497,
          "duration": 0.06469288541666174
        },
        {
          "name": "D#5",
          "midi": 75,
          "time": 312.36904898958613,
          "velocity": 0.7874015748031497,
          "duration": 0.06469288541666174
        },
        {
          "name": "F#5",
          "midi": 78,
          "time": 312.36904898958613,
          "velocity": 0.7874015748031497,
          "duration": 0.06469288541666174
        },
        {
          "name": "D#6",
          "midi": 87,
          "time": 312.36904898958613,
          "velocity": 0.7874015748031497,
          "duration": 0.06469288541666174
        },
        {
          "name": "F#6",
          "midi": 90,
          "time": 312.36904898958613,
          "velocity": 0.7874015748031497,
          "duration": 0.06469288541666174
        },
        {
          "name": "E7",
          "midi": 100,
          "time": 312.36904898958613,
          "velocity": 0.7874015748031497,
          "duration": 0.06469288541666174
        },
        {
          "name": "F#7",
          "midi": 102,
          "time": 312.36904898958613,
          "velocity": 0.7874015748031497,
          "duration": 0.06469288541666174
        },
        {
          "name": "C#4",
          "midi": 61,
          "time": 312.6311100000028,
          "velocity": 0.7874015748031497,
          "duration": 0.5252185104166642
        },
        {
          "name": "F#4",
          "midi": 66,
          "time": 312.6311100000028,
          "velocity": 0.7874015748031497,
          "duration": 0.5241220208333175
        },
        {
          "name": "D5",
          "midi": 74,
          "time": 312.6311100000028,
          "velocity": 0.7874015748031497,
          "duration": 0.5252185104166642
        },
        {
          "name": "F#5",
          "midi": 78,
          "time": 312.6311100000028,
          "velocity": 0.7874015748031497,
          "duration": 0.5241220208333175
        },
        {
          "name": "D6",
          "midi": 86,
          "time": 312.6311100000028,
          "velocity": 0.7874015748031497,
          "duration": 0.5252185104166642
        },
        {
          "name": "F#6",
          "midi": 90,
          "time": 312.6311100000028,
          "velocity": 0.7874015748031497,
          "duration": 0.5241220208333175
        },
        {
          "name": "D#7",
          "midi": 99,
          "time": 312.6311100000028,
          "velocity": 0.7874015748031497,
          "duration": 0.5252185104166642
        },
        {
          "name": "F#7",
          "midi": 102,
          "time": 312.6311100000028,
          "velocity": 0.7874015748031497,
          "duration": 0.5241220208333175
        },
        {
          "name": "D4",
          "midi": 62,
          "time": 313.15742500000283,
          "velocity": 0.7874015748031497,
          "duration": 0.5252185104166642
        },
        {
          "name": "F#4",
          "midi": 66,
          "time": 313.15742500000283,
          "velocity": 0.7874015748031497,
          "duration": 0.5241220208333175
        },
        {
          "name": "D#5",
          "midi": 75,
          "time": 313.15742500000283,
          "velocity": 0.7874015748031497,
          "duration": 0.5252185104166642
        },
        {
          "name": "F#5",
          "midi": 78,
          "time": 313.15742500000283,
          "velocity": 0.7874015748031497,
          "duration": 0.5241220208333175
        },
        {
          "name": "D#6",
          "midi": 87,
          "time": 313.15742500000283,
          "velocity": 0.7874015748031497,
          "duration": 0.5252185104166642
        },
        {
          "name": "F#6",
          "midi": 90,
          "time": 313.15742500000283,
          "velocity": 0.7874015748031497,
          "duration": 0.5241220208333175
        },
        {
          "name": "E7",
          "midi": 100,
          "time": 313.15742500000283,
          "velocity": 0.7874015748031497,
          "duration": 0.5252185104166642
        },
        {
          "name": "F#7",
          "midi": 102,
          "time": 313.15742500000283,
          "velocity": 0.7874015748031497,
          "duration": 0.5241220208333175
        },
        {
          "name": "G#8",
          "midi": 116,
          "time": 313.68374000000284,
          "velocity": 0.7874015748031497,
          "duration": 2.6304785104168786
        },
        {
          "name": "C4",
          "midi": 60,
          "time": 313.68374000000284,
          "velocity": 0.7874015748031497,
          "duration": 0.06578937500000848
        },
        {
          "name": "F#4",
          "midi": 66,
          "time": 313.68374000000284,
          "velocity": 0.7874015748031497,
          "duration": 0.06578937500000848
        },
        {
          "name": "C5",
          "midi": 72,
          "time": 313.68374000000284,
          "velocity": 0.7874015748031497,
          "duration": 0.06578937500000848
        },
        {
          "name": "F#5",
          "midi": 78,
          "time": 313.68374000000284,
          "velocity": 0.7874015748031497,
          "duration": 0.06578937500000848
        },
        {
          "name": "C#6",
          "midi": 85,
          "time": 313.68374000000284,
          "velocity": 0.7874015748031497,
          "duration": 0.06578937500000848
        },
        {
          "name": "F#6",
          "midi": 90,
          "time": 313.68374000000284,
          "velocity": 0.7874015748031497,
          "duration": 0.06578937500000848
        },
        {
          "name": "C#7",
          "midi": 97,
          "time": 313.68374000000284,
          "velocity": 0.7874015748031497,
          "duration": 0.06578937500000848
        },
        {
          "name": "F#7",
          "midi": 102,
          "time": 313.68374000000284,
          "velocity": 0.7874015748031497,
          "duration": 0.06578937500000848
        },
        {
          "name": "C4",
          "midi": 60,
          "time": 313.9468975000029,
          "velocity": 0.7874015748031497,
          "duration": 0.06578937500000848
        },
        {
          "name": "F#4",
          "midi": 66,
          "time": 313.9468975000029,
          "velocity": 0.7874015748031497,
          "duration": 0.06578937500000848
        },
        {
          "name": "C#5",
          "midi": 73,
          "time": 313.9468975000029,
          "velocity": 0.7874015748031497,
          "duration": 0.06578937500000848
        },
        {
          "name": "F#5",
          "midi": 78,
          "time": 313.9468975000029,
          "velocity": 0.7874015748031497,
          "duration": 0.06578937500000848
        },
        {
          "name": "D6",
          "midi": 86,
          "time": 313.9468975000029,
          "velocity": 0.7874015748031497,
          "duration": 0.06578937500000848
        },
        {
          "name": "F#6",
          "midi": 90,
          "time": 313.9468975000029,
          "velocity": 0.7874015748031497,
          "duration": 0.06578937500000848
        },
        {
          "name": "D7",
          "midi": 98,
          "time": 313.9468975000029,
          "velocity": 0.7874015748031497,
          "duration": 0.06578937500000848
        },
        {
          "name": "F#7",
          "midi": 102,
          "time": 313.9468975000029,
          "velocity": 0.7874015748031497,
          "duration": 0.06578937500000848
        },
        {
          "name": "C#4",
          "midi": 61,
          "time": 314.2100550000029,
          "velocity": 0.7874015748031497,
          "duration": 0.06578937500000848
        },
        {
          "name": "F#4",
          "midi": 66,
          "time": 314.2100550000029,
          "velocity": 0.7874015748031497,
          "duration": 0.06578937500000848
        },
        {
          "name": "D5",
          "midi": 74,
          "time": 314.2100550000029,
          "velocity": 0.7874015748031497,
          "duration": 0.06578937500000848
        },
        {
          "name": "F#5",
          "midi": 78,
          "time": 314.2100550000029,
          "velocity": 0.7874015748031497,
          "duration": 0.06578937500000848
        },
        {
          "name": "D#6",
          "midi": 87,
          "time": 314.2100550000029,
          "velocity": 0.7874015748031497,
          "duration": 0.06578937500000848
        },
        {
          "name": "F#6",
          "midi": 90,
          "time": 314.2100550000029,
          "velocity": 0.7874015748031497,
          "duration": 0.06578937500000848
        },
        {
          "name": "D#7",
          "midi": 99,
          "time": 314.2100550000029,
          "velocity": 0.7874015748031497,
          "duration": 0.06578937500000848
        },
        {
          "name": "F#7",
          "midi": 102,
          "time": 314.2100550000029,
          "velocity": 0.7874015748031497,
          "duration": 0.06578937500000848
        },
        {
          "name": "D4",
          "midi": 62,
          "time": 314.47430898958623,
          "velocity": 0.7874015748031497,
          "duration": 0.06469288541666174
        },
        {
          "name": "F#4",
          "midi": 66,
          "time": 314.47430898958623,
          "velocity": 0.7874015748031497,
          "duration": 0.06469288541666174
        },
        {
          "name": "D#5",
          "midi": 75,
          "time": 314.47430898958623,
          "velocity": 0.7874015748031497,
          "duration": 0.06469288541666174
        },
        {
          "name": "F#5",
          "midi": 78,
          "time": 314.47430898958623,
          "velocity": 0.7874015748031497,
          "duration": 0.06469288541666174
        },
        {
          "name": "E6",
          "midi": 88,
          "time": 314.47430898958623,
          "velocity": 0.7874015748031497,
          "duration": 0.06469288541666174
        },
        {
          "name": "F#6",
          "midi": 90,
          "time": 314.47430898958623,
          "velocity": 0.7874015748031497,
          "duration": 0.06469288541666174
        },
        {
          "name": "E7",
          "midi": 100,
          "time": 314.47430898958623,
          "velocity": 0.7874015748031497,
          "duration": 0.06469288541666174
        },
        {
          "name": "F#7",
          "midi": 102,
          "time": 314.47430898958623,
          "velocity": 0.7874015748031497,
          "duration": 0.06469288541666174
        },
        {
          "name": "C#4",
          "midi": 61,
          "time": 314.7363700000029,
          "velocity": 0.7874015748031497,
          "duration": 0.06688586458335521
        },
        {
          "name": "F#4",
          "midi": 66,
          "time": 314.7363700000029,
          "velocity": 0.7874015748031497,
          "duration": 0.06688586458335521
        },
        {
          "name": "D5",
          "midi": 74,
          "time": 314.7363700000029,
          "velocity": 0.7874015748031497,
          "duration": 0.06688586458335521
        },
        {
          "name": "F#5",
          "midi": 78,
          "time": 314.7363700000029,
          "velocity": 0.7874015748031497,
          "duration": 0.06688586458335521
        },
        {
          "name": "D6",
          "midi": 86,
          "time": 314.7363700000029,
          "velocity": 0.7874015748031497,
          "duration": 0.06688586458335521
        },
        {
          "name": "F#6",
          "midi": 90,
          "time": 314.7363700000029,
          "velocity": 0.7874015748031497,
          "duration": 0.06688586458335521
        },
        {
          "name": "D#7",
          "midi": 99,
          "time": 314.7363700000029,
          "velocity": 0.7874015748031497,
          "duration": 0.06688586458335521
        },
        {
          "name": "F#7",
          "midi": 102,
          "time": 314.7363700000029,
          "velocity": 0.7874015748031497,
          "duration": 0.06688586458335521
        },
        {
          "name": "D7",
          "midi": 98,
          "time": 314.8690452395863,
          "velocity": 0.7874015748031497,
          "duration": 0.06578937500000848
        },
        {
          "name": "F7",
          "midi": 101,
          "time": 314.8690452395863,
          "velocity": 0.7874015748031497,
          "duration": 0.06578937500000848
        },
        {
          "name": "C#6",
          "midi": 85,
          "time": 315.0006239895863,
          "velocity": 0.7874015748031497,
          "duration": 0.06469288541666174
        },
        {
          "name": "F6",
          "midi": 89,
          "time": 315.0006239895863,
          "velocity": 0.7874015748031497,
          "duration": 0.06469288541666174
        },
        {
          "name": "C#7",
          "midi": 97,
          "time": 315.0006239895863,
          "velocity": 0.7874015748031497,
          "duration": 0.06469288541666174
        },
        {
          "name": "F7",
          "midi": 101,
          "time": 315.0006239895863,
          "velocity": 0.7874015748031497,
          "duration": 0.06469288541666174
        },
        {
          "name": "C#4",
          "midi": 61,
          "time": 315.131106250003,
          "velocity": 0.7874015748031497,
          "duration": 0.06578937500000848
        },
        {
          "name": "F#4",
          "midi": 66,
          "time": 315.131106250003,
          "velocity": 0.7874015748031497,
          "duration": 0.06578937500000848
        },
        {
          "name": "D5",
          "midi": 74,
          "time": 315.131106250003,
          "velocity": 0.7874015748031497,
          "duration": 0.06578937500000848
        },
        {
          "name": "F#5",
          "midi": 78,
          "time": 315.131106250003,
          "velocity": 0.7874015748031497,
          "duration": 0.06578937500000848
        },
        {
          "name": "D6",
          "midi": 86,
          "time": 315.131106250003,
          "velocity": 0.7874015748031497,
          "duration": 0.06578937500000848
        },
        {
          "name": "F6",
          "midi": 89,
          "time": 315.131106250003,
          "velocity": 0.7874015748031497,
          "duration": 0.06578937500000848
        },
        {
          "name": "D7",
          "midi": 98,
          "time": 315.131106250003,
          "velocity": 0.7874015748031497,
          "duration": 0.06578937500000848
        },
        {
          "name": "F7",
          "midi": 101,
          "time": 315.131106250003,
          "velocity": 0.7874015748031497,
          "duration": 0.06578937500000848
        },
        {
          "name": "D5",
          "midi": 74,
          "time": 315.394263750003,
          "velocity": 0.7874015748031497,
          "duration": 0.06578937500000848
        },
        {
          "name": "F#5",
          "midi": 78,
          "time": 315.394263750003,
          "velocity": 0.7874015748031497,
          "duration": 0.06578937500000848
        },
        {
          "name": "D6",
          "midi": 86,
          "time": 315.394263750003,
          "velocity": 0.7874015748031497,
          "duration": 0.06578937500000848
        },
        {
          "name": "F#6",
          "midi": 90,
          "time": 315.394263750003,
          "velocity": 0.7874015748031497,
          "duration": 0.06578937500000848
        },
        {
          "name": "D7",
          "midi": 98,
          "time": 315.394263750003,
          "velocity": 0.7874015748031497,
          "duration": 0.06578937500000848
        },
        {
          "name": "F#7",
          "midi": 102,
          "time": 315.394263750003,
          "velocity": 0.7874015748031497,
          "duration": 0.06578937500000848
        },
        {
          "name": "C4",
          "midi": 60,
          "time": 315.525842500003,
          "velocity": 0.7874015748031497,
          "duration": 0.06578937500000848
        },
        {
          "name": "F4",
          "midi": 65,
          "time": 315.525842500003,
          "velocity": 0.7874015748031497,
          "duration": 0.06578937500000848
        },
        {
          "name": "C#5",
          "midi": 73,
          "time": 315.525842500003,
          "velocity": 0.7874015748031497,
          "duration": 0.06578937500000848
        },
        {
          "name": "F5",
          "midi": 77,
          "time": 315.525842500003,
          "velocity": 0.7874015748031497,
          "duration": 0.06578937500000848
        },
        {
          "name": "C#6",
          "midi": 85,
          "time": 315.525842500003,
          "velocity": 0.7874015748031497,
          "duration": 0.06578937500000848
        },
        {
          "name": "F6",
          "midi": 89,
          "time": 315.525842500003,
          "velocity": 0.7874015748031497,
          "duration": 0.06578937500000848
        },
        {
          "name": "C#7",
          "midi": 97,
          "time": 315.525842500003,
          "velocity": 0.7874015748031497,
          "duration": 0.06578937500000848
        },
        {
          "name": "F7",
          "midi": 101,
          "time": 315.525842500003,
          "velocity": 0.7874015748031497,
          "duration": 0.06578937500000848
        },
        {
          "name": "C4",
          "midi": 60,
          "time": 315.78900000000306,
          "velocity": 0.7874015748031497,
          "duration": 0.5252185104166642
        },
        {
          "name": "F#4",
          "midi": 66,
          "time": 315.78900000000306,
          "velocity": 0.7874015748031497,
          "duration": 0.5241220208333175
        },
        {
          "name": "C5",
          "midi": 72,
          "time": 315.78900000000306,
          "velocity": 0.7874015748031497,
          "duration": 0.5252185104166642
        },
        {
          "name": "F#5",
          "midi": 78,
          "time": 315.78900000000306,
          "velocity": 0.7874015748031497,
          "duration": 0.5241220208333175
        },
        {
          "name": "C6",
          "midi": 84,
          "time": 315.78900000000306,
          "velocity": 0.7874015748031497,
          "duration": 0.5252185104166642
        },
        {
          "name": "F#6",
          "midi": 90,
          "time": 315.78900000000306,
          "velocity": 0.7874015748031497,
          "duration": 0.5241220208333175
        },
        {
          "name": "C7",
          "midi": 96,
          "time": 315.78900000000306,
          "velocity": 0.7874015748031497,
          "duration": 0.5252185104166642
        },
        {
          "name": "F#7",
          "midi": 102,
          "time": 315.78900000000306,
          "velocity": 0.7874015748031497,
          "duration": 0.5241220208333175
        },
        {
          "name": "C#4",
          "midi": 61,
          "time": 316.31531500000307,
          "velocity": 0.7874015748031497,
          "duration": 0.06469288541666174
        },
        {
          "name": "F#4",
          "midi": 66,
          "time": 316.31531500000307,
          "velocity": 0.7874015748031497,
          "duration": 0.06469288541666174
        },
        {
          "name": "C#5",
          "midi": 73,
          "time": 316.31531500000307,
          "velocity": 0.7874015748031497,
          "duration": 0.06469288541666174
        },
        {
          "name": "F#5",
          "midi": 78,
          "time": 316.31531500000307,
          "velocity": 0.7874015748031497,
          "duration": 0.06469288541666174
        },
        {
          "name": "C#6",
          "midi": 85,
          "time": 316.31531500000307,
          "velocity": 0.7874015748031497,
          "duration": 0.06469288541666174
        },
        {
          "name": "F#6",
          "midi": 90,
          "time": 316.31531500000307,
          "velocity": 0.7874015748031497,
          "duration": 0.06469288541666174
        },
        {
          "name": "C#7",
          "midi": 97,
          "time": 316.31531500000307,
          "velocity": 0.7874015748031497,
          "duration": 0.06469288541666174
        },
        {
          "name": "F#7",
          "midi": 102,
          "time": 316.31531500000307,
          "velocity": 0.7874015748031497,
          "duration": 0.06469288541666174
        },
        {
          "name": "C4",
          "midi": 60,
          "time": 316.5795689895864,
          "velocity": 0.7874015748031497,
          "duration": 0.06469288541666174
        },
        {
          "name": "F#4",
          "midi": 66,
          "time": 316.5795689895864,
          "velocity": 0.7874015748031497,
          "duration": 0.06469288541666174
        },
        {
          "name": "C5",
          "midi": 72,
          "time": 316.5795689895864,
          "velocity": 0.7874015748031497,
          "duration": 0.06469288541666174
        },
        {
          "name": "C6",
          "midi": 84,
          "time": 316.5795689895864,
          "velocity": 0.7874015748031497,
          "duration": 0.06469288541666174
        },
        {
          "name": "C7",
          "midi": 96,
          "time": 316.5795689895864,
          "velocity": 0.7874015748031497,
          "duration": 0.06469288541666174
        },
        {
          "name": "D4",
          "midi": 62,
          "time": 316.8416300000031,
          "velocity": 0.7874015748031497,
          "duration": 0.5252185104166642
        },
        {
          "name": "F#4",
          "midi": 66,
          "time": 316.8416300000031,
          "velocity": 0.7874015748031497,
          "duration": 0.5241220208333175
        },
        {
          "name": "D5",
          "midi": 74,
          "time": 316.8416300000031,
          "velocity": 0.7874015748031497,
          "duration": 0.5252185104166642
        },
        {
          "name": "F#5",
          "midi": 78,
          "time": 316.8416300000031,
          "velocity": 0.7874015748031497,
          "duration": 0.5241220208333175
        },
        {
          "name": "D#6",
          "midi": 87,
          "time": 316.8416300000031,
          "velocity": 0.7874015748031497,
          "duration": 0.5252185104166642
        },
        {
          "name": "F#6",
          "midi": 90,
          "time": 316.8416300000031,
          "velocity": 0.7874015748031497,
          "duration": 0.5241220208333175
        },
        {
          "name": "D#7",
          "midi": 99,
          "time": 316.8416300000031,
          "velocity": 0.7874015748031497,
          "duration": 0.5252185104166642
        },
        {
          "name": "F#7",
          "midi": 102,
          "time": 316.8416300000031,
          "velocity": 0.7874015748031497,
          "duration": 0.5241220208333175
        },
        {
          "name": "C#4",
          "midi": 61,
          "time": 317.3679450000031,
          "velocity": 0.7874015748031497,
          "duration": 0.7883760104166981
        },
        {
          "name": "F#4",
          "midi": 66,
          "time": 317.3679450000031,
          "velocity": 0.7874015748031497,
          "duration": 0.7872795208333514
        },
        {
          "name": "C#5",
          "midi": 73,
          "time": 317.3679450000031,
          "velocity": 0.7874015748031497,
          "duration": 0.7883760104166981
        },
        {
          "name": "F#5",
          "midi": 78,
          "time": 317.3679450000031,
          "velocity": 0.7874015748031497,
          "duration": 0.7872795208333514
        },
        {
          "name": "D6",
          "midi": 86,
          "time": 317.3679450000031,
          "velocity": 0.7874015748031497,
          "duration": 0.7883760104166981
        },
        {
          "name": "F#6",
          "midi": 90,
          "time": 317.3679450000031,
          "velocity": 0.7874015748031497,
          "duration": 0.7872795208333514
        },
        {
          "name": "D7",
          "midi": 98,
          "time": 317.3679450000031,
          "velocity": 0.7874015748031497,
          "duration": 0.7883760104166981
        },
        {
          "name": "D#7",
          "midi": 99,
          "time": 317.3679450000031,
          "velocity": 0.7874015748031497,
          "duration": 0.7883760104166981
        },
        {
          "name": "F#7",
          "midi": 102,
          "time": 317.3679450000031,
          "velocity": 0.7874015748031497,
          "duration": 0.7872795208333514
        },
        {
          "name": "C4",
          "midi": 60,
          "time": 318.15741750000313,
          "velocity": 0.7874015748031497,
          "duration": 0.06469288541666174
        },
        {
          "name": "F#4",
          "midi": 66,
          "time": 318.15741750000313,
          "velocity": 0.7874015748031497,
          "duration": 0.06469288541666174
        },
        {
          "name": "C5",
          "midi": 72,
          "time": 318.15741750000313,
          "velocity": 0.7874015748031497,
          "duration": 0.06469288541666174
        },
        {
          "name": "F#5",
          "midi": 78,
          "time": 318.15741750000313,
          "velocity": 0.7874015748031497,
          "duration": 0.06469288541666174
        },
        {
          "name": "C6",
          "midi": 84,
          "time": 318.15741750000313,
          "velocity": 0.7874015748031497,
          "duration": 0.06469288541666174
        },
        {
          "name": "F#6",
          "midi": 90,
          "time": 318.15741750000313,
          "velocity": 0.7874015748031497,
          "duration": 0.06469288541666174
        },
        {
          "name": "C7",
          "midi": 96,
          "time": 318.15741750000313,
          "velocity": 0.7874015748031497,
          "duration": 0.06469288541666174
        },
        {
          "name": "F#7",
          "midi": 102,
          "time": 318.15741750000313,
          "velocity": 0.7874015748031497,
          "duration": 0.06469288541666174
        },
        {
          "name": "C#4",
          "midi": 61,
          "time": 318.4205750000031,
          "velocity": 0.7874015748031497,
          "duration": 0.06578937500000848
        },
        {
          "name": "F#4",
          "midi": 66,
          "time": 318.4205750000031,
          "velocity": 0.7874015748031497,
          "duration": 0.06578937500000848
        },
        {
          "name": "C#5",
          "midi": 73,
          "time": 318.4205750000031,
          "velocity": 0.7874015748031497,
          "duration": 0.06578937500000848
        },
        {
          "name": "F#5",
          "midi": 78,
          "time": 318.4205750000031,
          "velocity": 0.7874015748031497,
          "duration": 0.06578937500000848
        },
        {
          "name": "C#6",
          "midi": 85,
          "time": 318.4205750000031,
          "velocity": 0.7874015748031497,
          "duration": 0.06578937500000848
        },
        {
          "name": "F#6",
          "midi": 90,
          "time": 318.4205750000031,
          "velocity": 0.7874015748031497,
          "duration": 0.06578937500000848
        },
        {
          "name": "C#7",
          "midi": 97,
          "time": 318.4205750000031,
          "velocity": 0.7874015748031497,
          "duration": 0.06578937500000848
        },
        {
          "name": "F#7",
          "midi": 102,
          "time": 318.4205750000031,
          "velocity": 0.7874015748031497,
          "duration": 0.06578937500000848
        },
        {
          "name": "C4",
          "midi": 60,
          "time": 318.68482898958644,
          "velocity": 0.7874015748031497,
          "duration": 0.06469288541666174
        },
        {
          "name": "F#4",
          "midi": 66,
          "time": 318.68482898958644,
          "velocity": 0.7874015748031497,
          "duration": 0.06469288541666174
        },
        {
          "name": "C5",
          "midi": 72,
          "time": 318.68482898958644,
          "velocity": 0.7874015748031497,
          "duration": 0.06469288541666174
        },
        {
          "name": "C6",
          "midi": 84,
          "time": 318.68482898958644,
          "velocity": 0.7874015748031497,
          "duration": 0.06469288541666174
        },
        {
          "name": "C7",
          "midi": 96,
          "time": 318.68482898958644,
          "velocity": 0.7874015748031497,
          "duration": 0.06469288541666174
        },
        {
          "name": "D4",
          "midi": 62,
          "time": 318.9468900000031,
          "velocity": 0.7874015748031497,
          "duration": 0.06578937500000848
        },
        {
          "name": "F#4",
          "midi": 66,
          "time": 318.9468900000031,
          "velocity": 0.7874015748031497,
          "duration": 0.06578937500000848
        },
        {
          "name": "D5",
          "midi": 74,
          "time": 318.9468900000031,
          "velocity": 0.7874015748031497,
          "duration": 0.06578937500000848
        },
        {
          "name": "F#5",
          "midi": 78,
          "time": 318.9468900000031,
          "velocity": 0.7874015748031497,
          "duration": 0.06578937500000848
        },
        {
          "name": "D#6",
          "midi": 87,
          "time": 318.9468900000031,
          "velocity": 0.7874015748031497,
          "duration": 0.06578937500000848
        },
        {
          "name": "F#6",
          "midi": 90,
          "time": 318.9468900000031,
          "velocity": 0.7874015748031497,
          "duration": 0.06578937500000848
        },
        {
          "name": "D#7",
          "midi": 99,
          "time": 318.9468900000031,
          "velocity": 0.7874015748031497,
          "duration": 0.06578937500000848
        },
        {
          "name": "F#7",
          "midi": 102,
          "time": 318.9468900000031,
          "velocity": 0.7874015748031497,
          "duration": 0.06578937500000848
        },
        {
          "name": "D#7",
          "midi": 99,
          "time": 319.07846875000314,
          "velocity": 0.7874015748031497,
          "duration": 0.06578937500000848
        },
        {
          "name": "F#7",
          "midi": 102,
          "time": 319.07846875000314,
          "velocity": 0.7874015748031497,
          "duration": 0.06578937500000848
        },
        {
          "name": "C#5",
          "midi": 73,
          "time": 319.2111439895865,
          "velocity": 0.7874015748031497,
          "duration": 0.06469288541666174
        },
        {
          "name": "F5",
          "midi": 77,
          "time": 319.2111439895865,
          "velocity": 0.7874015748031497,
          "duration": 0.06469288541666174
        },
        {
          "name": "D6",
          "midi": 86,
          "time": 319.2111439895865,
          "velocity": 0.7874015748031497,
          "duration": 0.06469288541666174
        },
        {
          "name": "F6",
          "midi": 89,
          "time": 319.2111439895865,
          "velocity": 0.7874015748031497,
          "duration": 0.06469288541666174
        },
        {
          "name": "D7",
          "midi": 98,
          "time": 319.2111439895865,
          "velocity": 0.7874015748031497,
          "duration": 0.06469288541666174
        },
        {
          "name": "F7",
          "midi": 101,
          "time": 319.2111439895865,
          "velocity": 0.7874015748031497,
          "duration": 0.06469288541666174
        },
        {
          "name": "D4",
          "midi": 62,
          "time": 319.3416262500032,
          "velocity": 0.7874015748031497,
          "duration": 0.06578937500000848
        },
        {
          "name": "F#4",
          "midi": 66,
          "time": 319.3416262500032,
          "velocity": 0.7874015748031497,
          "duration": 0.06578937500000848
        },
        {
          "name": "D5",
          "midi": 74,
          "time": 319.3416262500032,
          "velocity": 0.7874015748031497,
          "duration": 0.06578937500000848
        },
        {
          "name": "F5",
          "midi": 77,
          "time": 319.3416262500032,
          "velocity": 0.7874015748031497,
          "duration": 0.06578937500000848
        },
        {
          "name": "D#6",
          "midi": 87,
          "time": 319.3416262500032,
          "velocity": 0.7874015748031497,
          "duration": 0.06578937500000848
        },
        {
          "name": "F6",
          "midi": 89,
          "time": 319.3416262500032,
          "velocity": 0.7874015748031497,
          "duration": 0.06578937500000848
        },
        {
          "name": "D#7",
          "midi": 99,
          "time": 319.3416262500032,
          "velocity": 0.7874015748031497,
          "duration": 0.06578937500000848
        },
        {
          "name": "F7",
          "midi": 101,
          "time": 319.3416262500032,
          "velocity": 0.7874015748031497,
          "duration": 0.06578937500000848
        },
        {
          "name": "D#6",
          "midi": 87,
          "time": 319.6047837500032,
          "velocity": 0.7874015748031497,
          "duration": 0.06469288541666174
        },
        {
          "name": "F#6",
          "midi": 90,
          "time": 319.6047837500032,
          "velocity": 0.7874015748031497,
          "duration": 0.06469288541666174
        },
        {
          "name": "D#7",
          "midi": 99,
          "time": 319.6047837500032,
          "velocity": 0.7874015748031497,
          "duration": 0.06469288541666174
        },
        {
          "name": "F#7",
          "midi": 102,
          "time": 319.6047837500032,
          "velocity": 0.7874015748031497,
          "duration": 0.06469288541666174
        },
        {
          "name": "C#4",
          "midi": 61,
          "time": 319.7374589895865,
          "velocity": 0.7874015748031497,
          "duration": 0.06469288541666174
        },
        {
          "name": "F4",
          "midi": 65,
          "time": 319.7374589895865,
          "velocity": 0.7874015748031497,
          "duration": 0.06469288541666174
        },
        {
          "name": "C#5",
          "midi": 73,
          "time": 319.7374589895865,
          "velocity": 0.7874015748031497,
          "duration": 0.06469288541666174
        },
        {
          "name": "F5",
          "midi": 77,
          "time": 319.7374589895865,
          "velocity": 0.7874015748031497,
          "duration": 0.06469288541666174
        },
        {
          "name": "D6",
          "midi": 86,
          "time": 319.7374589895865,
          "velocity": 0.7874015748031497,
          "duration": 0.06469288541666174
        },
        {
          "name": "F6",
          "midi": 89,
          "time": 319.7374589895865,
          "velocity": 0.7874015748031497,
          "duration": 0.06469288541666174
        },
        {
          "name": "D7",
          "midi": 98,
          "time": 319.7374589895865,
          "velocity": 0.7874015748031497,
          "duration": 0.06469288541666174
        },
        {
          "name": "F7",
          "midi": 101,
          "time": 319.7374589895865,
          "velocity": 0.7874015748031497,
          "duration": 0.06469288541666174
        },
        {
          "name": "C4",
          "midi": 60,
          "time": 319.9995200000032,
          "velocity": 0.7874015748031497,
          "duration": 0.3936397604167041
        },
        {
          "name": "F#4",
          "midi": 66,
          "time": 319.9995200000032,
          "velocity": 0.7874015748031497,
          "duration": 0.3925432708333574
        },
        {
          "name": "C5",
          "midi": 72,
          "time": 319.9995200000032,
          "velocity": 0.7874015748031497,
          "duration": 0.3936397604167041
        },
        {
          "name": "F#5",
          "midi": 78,
          "time": 319.9995200000032,
          "velocity": 0.7874015748031497,
          "duration": 0.3925432708333574
        },
        {
          "name": "C6",
          "midi": 84,
          "time": 319.9995200000032,
          "velocity": 0.7874015748031497,
          "duration": 0.3936397604167041
        },
        {
          "name": "F#6",
          "midi": 90,
          "time": 319.9995200000032,
          "velocity": 0.7874015748031497,
          "duration": 0.3925432708333574
        },
        {
          "name": "C7",
          "midi": 96,
          "time": 319.9995200000032,
          "velocity": 0.7874015748031497,
          "duration": 0.3936397604167041
        },
        {
          "name": "F#7",
          "midi": 102,
          "time": 319.9995200000032,
          "velocity": 0.7874015748031497,
          "duration": 0.3925432708333574
        },
        {
          "name": "C#4",
          "midi": 61,
          "time": 320.39425625000325,
          "velocity": 0.7874015748031497,
          "duration": 0.3936397604167041
        },
        {
          "name": "F#4",
          "midi": 66,
          "time": 320.39425625000325,
          "velocity": 0.7874015748031497,
          "duration": 0.3925432708333574
        },
        {
          "name": "C#5",
          "midi": 73,
          "time": 320.39425625000325,
          "velocity": 0.7874015748031497,
          "duration": 0.3936397604167041
        },
        {
          "name": "F#5",
          "midi": 78,
          "time": 320.39425625000325,
          "velocity": 0.7874015748031497,
          "duration": 0.3936397604167041
        },
        {
          "name": "C#6",
          "midi": 85,
          "time": 320.39425625000325,
          "velocity": 0.7874015748031497,
          "duration": 0.3936397604167041
        },
        {
          "name": "F#6",
          "midi": 90,
          "time": 320.39425625000325,
          "velocity": 0.7874015748031497,
          "duration": 0.3936397604167041
        },
        {
          "name": "C#7",
          "midi": 97,
          "time": 320.39425625000325,
          "velocity": 0.7874015748031497,
          "duration": 0.3936397604167041
        },
        {
          "name": "F#7",
          "midi": 102,
          "time": 320.39425625000325,
          "velocity": 0.7874015748031497,
          "duration": 0.3936397604167041
        },
        {
          "name": "C4",
          "midi": 60,
          "time": 320.7889925000033,
          "velocity": 0.7874015748031497,
          "duration": 0.06469288541666174
        },
        {
          "name": "F#4",
          "midi": 66,
          "time": 320.7889925000033,
          "velocity": 0.7874015748031497,
          "duration": 0.06469288541666174
        },
        {
          "name": "C5",
          "midi": 72,
          "time": 320.7889925000033,
          "velocity": 0.7874015748031497,
          "duration": 0.06469288541666174
        },
        {
          "name": "C6",
          "midi": 84,
          "time": 320.7889925000033,
          "velocity": 0.7874015748031497,
          "duration": 0.06469288541666174
        },
        {
          "name": "C7",
          "midi": 96,
          "time": 320.7889925000033,
          "velocity": 0.7874015748031497,
          "duration": 0.06469288541666174
        },
        {
          "name": "D4",
          "midi": 62,
          "time": 321.0521500000033,
          "velocity": 0.7874015748031497,
          "duration": 0.5252185104166642
        },
        {
          "name": "F#4",
          "midi": 66,
          "time": 321.0521500000033,
          "velocity": 0.7874015748031497,
          "duration": 0.5241220208333175
        },
        {
          "name": "D5",
          "midi": 74,
          "time": 321.0521500000033,
          "velocity": 0.7874015748031497,
          "duration": 0.5252185104166642
        },
        {
          "name": "F#5",
          "midi": 78,
          "time": 321.0521500000033,
          "velocity": 0.7874015748031497,
          "duration": 0.5241220208333175
        },
        {
          "name": "D#6",
          "midi": 87,
          "time": 321.0521500000033,
          "velocity": 0.7874015748031497,
          "duration": 0.5252185104166642
        },
        {
          "name": "F#6",
          "midi": 90,
          "time": 321.0521500000033,
          "velocity": 0.7874015748031497,
          "duration": 0.5241220208333175
        },
        {
          "name": "D#7",
          "midi": 99,
          "time": 321.0521500000033,
          "velocity": 0.7874015748031497,
          "duration": 0.5252185104166642
        },
        {
          "name": "F#7",
          "midi": 102,
          "time": 321.0521500000033,
          "velocity": 0.7874015748031497,
          "duration": 0.5241220208333175
        },
        {
          "name": "C#4",
          "midi": 61,
          "time": 321.5784650000033,
          "velocity": 0.7874015748031497,
          "duration": 0.7872795208333514
        },
        {
          "name": "F#4",
          "midi": 66,
          "time": 321.5784650000033,
          "velocity": 0.7874015748031497,
          "duration": 0.7861830312500047
        },
        {
          "name": "C#5",
          "midi": 73,
          "time": 321.5784650000033,
          "velocity": 0.7874015748031497,
          "duration": 0.7872795208333514
        },
        {
          "name": "F#5",
          "midi": 78,
          "time": 321.5784650000033,
          "velocity": 0.7874015748031497,
          "duration": 0.7861830312500047
        },
        {
          "name": "D6",
          "midi": 86,
          "time": 321.5784650000033,
          "velocity": 0.7874015748031497,
          "duration": 0.7872795208333514
        },
        {
          "name": "F#6",
          "midi": 90,
          "time": 321.5784650000033,
          "velocity": 0.7874015748031497,
          "duration": 0.7861830312500047
        },
        {
          "name": "D7",
          "midi": 98,
          "time": 321.5784650000033,
          "velocity": 0.7874015748031497,
          "duration": 0.7872795208333514
        },
        {
          "name": "D#7",
          "midi": 99,
          "time": 321.5784650000033,
          "velocity": 0.7874015748031497,
          "duration": 0.7872795208333514
        },
        {
          "name": "F#7",
          "midi": 102,
          "time": 321.5784650000033,
          "velocity": 0.7874015748031497,
          "duration": 0.7861830312500047
        },
        {
          "name": "C4",
          "midi": 60,
          "time": 322.36684101042,
          "velocity": 0.7874015748031497,
          "duration": 0.06578937500000848
        },
        {
          "name": "F#4",
          "midi": 66,
          "time": 322.36684101042,
          "velocity": 0.7874015748031497,
          "duration": 0.06578937500000848
        },
        {
          "name": "C5",
          "midi": 72,
          "time": 322.36684101042,
          "velocity": 0.7874015748031497,
          "duration": 0.06578937500000848
        },
        {
          "name": "F#5",
          "midi": 78,
          "time": 322.36684101042,
          "velocity": 0.7874015748031497,
          "duration": 0.06578937500000848
        },
        {
          "name": "C6",
          "midi": 84,
          "time": 322.36684101042,
          "velocity": 0.7874015748031497,
          "duration": 0.06578937500000848
        },
        {
          "name": "F#6",
          "midi": 90,
          "time": 322.36684101042,
          "velocity": 0.7874015748031497,
          "duration": 0.06578937500000848
        },
        {
          "name": "C7",
          "midi": 96,
          "time": 322.36684101042,
          "velocity": 0.7874015748031497,
          "duration": 0.06578937500000848
        },
        {
          "name": "F#7",
          "midi": 102,
          "time": 322.36684101042,
          "velocity": 0.7874015748031497,
          "duration": 0.06578937500000848
        },
        {
          "name": "C#4",
          "midi": 61,
          "time": 322.6310950000033,
          "velocity": 0.7874015748031497,
          "duration": 0.06469288541666174
        },
        {
          "name": "F#4",
          "midi": 66,
          "time": 322.6310950000033,
          "velocity": 0.7874015748031497,
          "duration": 0.06469288541666174
        },
        {
          "name": "C#5",
          "midi": 73,
          "time": 322.6310950000033,
          "velocity": 0.7874015748031497,
          "duration": 0.06469288541666174
        },
        {
          "name": "F#5",
          "midi": 78,
          "time": 322.6310950000033,
          "velocity": 0.7874015748031497,
          "duration": 0.06469288541666174
        },
        {
          "name": "C#6",
          "midi": 85,
          "time": 322.6310950000033,
          "velocity": 0.7874015748031497,
          "duration": 0.06469288541666174
        },
        {
          "name": "F#6",
          "midi": 90,
          "time": 322.6310950000033,
          "velocity": 0.7874015748031497,
          "duration": 0.06469288541666174
        },
        {
          "name": "C#7",
          "midi": 97,
          "time": 322.6310950000033,
          "velocity": 0.7874015748031497,
          "duration": 0.06469288541666174
        },
        {
          "name": "F#7",
          "midi": 102,
          "time": 322.6310950000033,
          "velocity": 0.7874015748031497,
          "duration": 0.06469288541666174
        },
        {
          "name": "C4",
          "midi": 60,
          "time": 322.89315601042,
          "velocity": 0.7874015748031497,
          "duration": 0.06578937500000848
        },
        {
          "name": "F#4",
          "midi": 66,
          "time": 322.89315601042,
          "velocity": 0.7874015748031497,
          "duration": 0.06578937500000848
        },
        {
          "name": "C5",
          "midi": 72,
          "time": 322.89315601042,
          "velocity": 0.7874015748031497,
          "duration": 0.06578937500000848
        },
        {
          "name": "C6",
          "midi": 84,
          "time": 322.89315601042,
          "velocity": 0.7874015748031497,
          "duration": 0.06578937500000848
        },
        {
          "name": "C7",
          "midi": 96,
          "time": 322.89315601042,
          "velocity": 0.7874015748031497,
          "duration": 0.06578937500000848
        },
        {
          "name": "D4",
          "midi": 62,
          "time": 323.1574100000033,
          "velocity": 0.7874015748031497,
          "duration": 0.06469288541666174
        },
        {
          "name": "F#4",
          "midi": 66,
          "time": 323.1574100000033,
          "velocity": 0.7874015748031497,
          "duration": 0.06469288541666174
        },
        {
          "name": "D5",
          "midi": 74,
          "time": 323.1574100000033,
          "velocity": 0.7874015748031497,
          "duration": 0.06469288541666174
        },
        {
          "name": "F#5",
          "midi": 78,
          "time": 323.1574100000033,
          "velocity": 0.7874015748031497,
          "duration": 0.06469288541666174
        },
        {
          "name": "D#6",
          "midi": 87,
          "time": 323.1574100000033,
          "velocity": 0.7874015748031497,
          "duration": 0.06469288541666174
        },
        {
          "name": "F#6",
          "midi": 90,
          "time": 323.1574100000033,
          "velocity": 0.7874015748031497,
          "duration": 0.06469288541666174
        },
        {
          "name": "D#7",
          "midi": 99,
          "time": 323.1574100000033,
          "velocity": 0.7874015748031497,
          "duration": 0.06469288541666174
        },
        {
          "name": "F#7",
          "midi": 102,
          "time": 323.1574100000033,
          "velocity": 0.7874015748031497,
          "duration": 0.06469288541666174
        },
        {
          "name": "D#7",
          "midi": 99,
          "time": 323.29008523958663,
          "velocity": 0.7874015748031497,
          "duration": 0.06469288541666174
        },
        {
          "name": "F#7",
          "midi": 102,
          "time": 323.29008523958663,
          "velocity": 0.7874015748031497,
          "duration": 0.06469288541666174
        },
        {
          "name": "C#5",
          "midi": 73,
          "time": 323.4205675000033,
          "velocity": 0.7874015748031497,
          "duration": 0.06469288541666174
        },
        {
          "name": "F5",
          "midi": 77,
          "time": 323.4205675000033,
          "velocity": 0.7874015748031497,
          "duration": 0.06469288541666174
        },
        {
          "name": "D6",
          "midi": 86,
          "time": 323.4205675000033,
          "velocity": 0.7874015748031497,
          "duration": 0.06469288541666174
        },
        {
          "name": "F6",
          "midi": 89,
          "time": 323.4205675000033,
          "velocity": 0.7874015748031497,
          "duration": 0.06469288541666174
        },
        {
          "name": "D7",
          "midi": 98,
          "time": 323.4205675000033,
          "velocity": 0.7874015748031497,
          "duration": 0.06469288541666174
        },
        {
          "name": "F7",
          "midi": 101,
          "time": 323.4205675000033,
          "velocity": 0.7874015748031497,
          "duration": 0.06469288541666174
        },
        {
          "name": "D4",
          "midi": 62,
          "time": 323.55104976041997,
          "velocity": 0.7874015748031497,
          "duration": 0.06578937500000848
        },
        {
          "name": "F#4",
          "midi": 66,
          "time": 323.55104976041997,
          "velocity": 0.7874015748031497,
          "duration": 0.06578937500000848
        },
        {
          "name": "D5",
          "midi": 74,
          "time": 323.55104976041997,
          "velocity": 0.7874015748031497,
          "duration": 0.06578937500000848
        },
        {
          "name": "F5",
          "midi": 77,
          "time": 323.55104976041997,
          "velocity": 0.7874015748031497,
          "duration": 0.06578937500000848
        },
        {
          "name": "D#6",
          "midi": 87,
          "time": 323.55104976041997,
          "velocity": 0.7874015748031497,
          "duration": 0.06578937500000848
        },
        {
          "name": "F6",
          "midi": 89,
          "time": 323.55104976041997,
          "velocity": 0.7874015748031497,
          "duration": 0.06578937500000848
        },
        {
          "name": "D#7",
          "midi": 99,
          "time": 323.55104976041997,
          "velocity": 0.7874015748031497,
          "duration": 0.06578937500000848
        },
        {
          "name": "F7",
          "midi": 101,
          "time": 323.55104976041997,
          "velocity": 0.7874015748031497,
          "duration": 0.06578937500000848
        },
        {
          "name": "D7",
          "midi": 98,
          "time": 323.68372500000334,
          "velocity": 0.7874015748031497,
          "duration": 0.06469288541666174
        },
        {
          "name": "F7",
          "midi": 101,
          "time": 323.68372500000334,
          "velocity": 0.7874015748031497,
          "duration": 0.06469288541666174
        },
        {
          "name": "C#4",
          "midi": 61,
          "time": 323.81420726042,
          "velocity": 0.7874015748031497,
          "duration": 0.06578937500000848
        },
        {
          "name": "F4",
          "midi": 65,
          "time": 323.81420726042,
          "velocity": 0.7874015748031497,
          "duration": 0.06578937500000848
        },
        {
          "name": "C#5",
          "midi": 73,
          "time": 323.81420726042,
          "velocity": 0.7874015748031497,
          "duration": 0.06578937500000848
        },
        {
          "name": "F5",
          "midi": 77,
          "time": 323.81420726042,
          "velocity": 0.7874015748031497,
          "duration": 0.06578937500000848
        },
        {
          "name": "C#6",
          "midi": 85,
          "time": 323.81420726042,
          "velocity": 0.7874015748031497,
          "duration": 0.06578937500000848
        },
        {
          "name": "F6",
          "midi": 89,
          "time": 323.81420726042,
          "velocity": 0.7874015748031497,
          "duration": 0.06578937500000848
        },
        {
          "name": "C#7",
          "midi": 97,
          "time": 323.85916333333665,
          "velocity": 0.7874015748031497,
          "duration": 0.06578937500000848
        },
        {
          "name": "F7",
          "midi": 101,
          "time": 323.85916333333665,
          "velocity": 0.7874015748031497,
          "duration": 0.06578937500000848
        },
        {
          "name": "C6",
          "midi": 84,
          "time": 324.0126718750033,
          "velocity": 0.7874015748031497,
          "duration": 0.06469288541666174
        },
        {
          "name": "F6",
          "midi": 89,
          "time": 324.0126718750033,
          "velocity": 0.7874015748031497,
          "duration": 0.06469288541666174
        },
        {
          "name": "C7",
          "midi": 96,
          "time": 324.0126718750033,
          "velocity": 0.7874015748031497,
          "duration": 0.06469288541666174
        },
        {
          "name": "F7",
          "midi": 101,
          "time": 324.0126718750033,
          "velocity": 0.7874015748031497,
          "duration": 0.06469288541666174
        },
        {
          "name": "C4",
          "midi": 60,
          "time": 324.2100400000033,
          "velocity": 0.7874015748031497,
          "duration": 0.06578937500000848
        },
        {
          "name": "F#4",
          "midi": 66,
          "time": 324.2100400000033,
          "velocity": 0.7874015748031497,
          "duration": 0.06578937500000848
        },
        {
          "name": "C#5",
          "midi": 73,
          "time": 324.2100400000033,
          "velocity": 0.7874015748031497,
          "duration": 0.06578937500000848
        },
        {
          "name": "F#5",
          "midi": 78,
          "time": 324.2100400000033,
          "velocity": 0.7874015748031497,
          "duration": 0.06578937500000848
        },
        {
          "name": "C#6",
          "midi": 85,
          "time": 324.2100400000033,
          "velocity": 0.7874015748031497,
          "duration": 0.06578937500000848
        },
        {
          "name": "F#6",
          "midi": 90,
          "time": 324.2100400000033,
          "velocity": 0.7874015748031497,
          "duration": 0.06578937500000848
        },
        {
          "name": "C7",
          "midi": 96,
          "time": 324.2100400000033,
          "velocity": 0.7874015748031497,
          "duration": 0.06578937500000848
        },
        {
          "name": "F#7",
          "midi": 102,
          "time": 324.2100400000033,
          "velocity": 0.7874015748031497,
          "duration": 0.06578937500000848
        },
        {
          "name": "C#7",
          "midi": 97,
          "time": 324.34271523958665,
          "velocity": 0.7874015748031497,
          "duration": 0.06469288541666174
        },
        {
          "name": "F7",
          "midi": 101,
          "time": 324.34271523958665,
          "velocity": 0.7874015748031497,
          "duration": 0.06469288541666174
        },
        {
          "name": "C#4",
          "midi": 61,
          "time": 324.60587273958663,
          "velocity": 0.7874015748031497,
          "duration": 0.06469288541666174
        },
        {
          "name": "F#4",
          "midi": 66,
          "time": 324.60587273958663,
          "velocity": 0.7874015748031497,
          "duration": 0.06469288541666174
        },
        {
          "name": "D5",
          "midi": 74,
          "time": 324.60587273958663,
          "velocity": 0.7874015748031497,
          "duration": 0.06469288541666174
        },
        {
          "name": "F#5",
          "midi": 78,
          "time": 324.60587273958663,
          "velocity": 0.7874015748031497,
          "duration": 0.06469288541666174
        },
        {
          "name": "D6",
          "midi": 86,
          "time": 324.60587273958663,
          "velocity": 0.7874015748031497,
          "duration": 0.06469288541666174
        },
        {
          "name": "F#6",
          "midi": 90,
          "time": 324.60587273958663,
          "velocity": 0.7874015748031497,
          "duration": 0.06469288541666174
        },
        {
          "name": "D7",
          "midi": 98,
          "time": 324.60587273958663,
          "velocity": 0.7874015748031497,
          "duration": 0.06469288541666174
        },
        {
          "name": "F#7",
          "midi": 102,
          "time": 324.60587273958663,
          "velocity": 0.7874015748031497,
          "duration": 0.06469288541666174
        },
        {
          "name": "D#7",
          "midi": 99,
          "time": 324.9348196145866,
          "velocity": 0.7874015748031497,
          "duration": 0.06578937500000848
        },
        {
          "name": "F#7",
          "midi": 102,
          "time": 324.9348196145866,
          "velocity": 0.7874015748031497,
          "duration": 0.06578937500000848
        },
        {
          "name": "D4",
          "midi": 62,
          "time": 325.0006089895866,
          "velocity": 0.7874015748031497,
          "duration": 0.06469288541666174
        },
        {
          "name": "F#4",
          "midi": 66,
          "time": 325.0006089895866,
          "velocity": 0.7874015748031497,
          "duration": 0.06469288541666174
        },
        {
          "name": "D#5",
          "midi": 75,
          "time": 325.0006089895866,
          "velocity": 0.7874015748031497,
          "duration": 0.06469288541666174
        },
        {
          "name": "F#5",
          "midi": 78,
          "time": 325.0006089895866,
          "velocity": 0.7874015748031497,
          "duration": 0.06469288541666174
        },
        {
          "name": "D#6",
          "midi": 87,
          "time": 325.0006089895866,
          "velocity": 0.7874015748031497,
          "duration": 0.06469288541666174
        },
        {
          "name": "F#6",
          "midi": 90,
          "time": 325.0006089895866,
          "velocity": 0.7874015748031497,
          "duration": 0.06469288541666174
        },
        {
          "name": "E7",
          "midi": 100,
          "time": 325.0324071875033,
          "velocity": 0.7874015748031497,
          "duration": 0.06578937500000848
        },
        {
          "name": "F7",
          "midi": 101,
          "time": 325.0324071875033,
          "velocity": 0.7874015748031497,
          "duration": 0.06578937500000848
        },
        {
          "name": "C#4",
          "midi": 61,
          "time": 325.2626700000033,
          "velocity": 0.7874015748031497,
          "duration": 0.526315000000011
        },
        {
          "name": "F#4",
          "midi": 66,
          "time": 325.2626700000033,
          "velocity": 0.7874015748031497,
          "duration": 0.526315000000011
        },
        {
          "name": "D5",
          "midi": 74,
          "time": 325.2626700000033,
          "velocity": 0.7874015748031497,
          "duration": 0.526315000000011
        },
        {
          "name": "F#5",
          "midi": 78,
          "time": 325.2626700000033,
          "velocity": 0.7874015748031497,
          "duration": 0.526315000000011
        },
        {
          "name": "D6",
          "midi": 86,
          "time": 325.2626700000033,
          "velocity": 0.7874015748031497,
          "duration": 0.526315000000011
        },
        {
          "name": "F#6",
          "midi": 90,
          "time": 325.2626700000033,
          "velocity": 0.7874015748031497,
          "duration": 0.526315000000011
        },
        {
          "name": "D#7",
          "midi": 99,
          "time": 325.2626700000033,
          "velocity": 0.7874015748031497,
          "duration": 0.526315000000011
        },
        {
          "name": "F#7",
          "midi": 102,
          "time": 325.2626700000033,
          "velocity": 0.7874015748031497,
          "duration": 0.526315000000011
        },
        {
          "name": "D4",
          "midi": 62,
          "time": 325.7889850000033,
          "velocity": 0.7874015748031497,
          "duration": 0.7883760104166981
        },
        {
          "name": "F#4",
          "midi": 66,
          "time": 325.7889850000033,
          "velocity": 0.7874015748031497,
          "duration": 0.7872795208333514
        },
        {
          "name": "D#5",
          "midi": 75,
          "time": 325.7889850000033,
          "velocity": 0.7874015748031497,
          "duration": 0.7883760104166981
        },
        {
          "name": "F#5",
          "midi": 78,
          "time": 325.7889850000033,
          "velocity": 0.7874015748031497,
          "duration": 0.7872795208333514
        },
        {
          "name": "D#6",
          "midi": 87,
          "time": 325.7889850000033,
          "velocity": 0.7874015748031497,
          "duration": 0.7883760104166981
        },
        {
          "name": "F#6",
          "midi": 90,
          "time": 325.7889850000033,
          "velocity": 0.7874015748031497,
          "duration": 0.7872795208333514
        },
        {
          "name": "E7",
          "midi": 100,
          "time": 325.7889850000033,
          "velocity": 0.7874015748031497,
          "duration": 0.7883760104166981
        },
        {
          "name": "F#7",
          "midi": 102,
          "time": 325.7889850000033,
          "velocity": 0.7874015748031497,
          "duration": 0.7872795208333514
        },
        {
          "name": "C4",
          "midi": 60,
          "time": 326.57845750000337,
          "velocity": 0.7874015748031497,
          "duration": 0.06469288541666174
        },
        {
          "name": "F#4",
          "midi": 66,
          "time": 326.57845750000337,
          "velocity": 0.7874015748031497,
          "duration": 0.06469288541666174
        },
        {
          "name": "C#5",
          "midi": 73,
          "time": 326.57845750000337,
          "velocity": 0.7874015748031497,
          "duration": 0.06469288541666174
        },
        {
          "name": "F#5",
          "midi": 78,
          "time": 326.57845750000337,
          "velocity": 0.7874015748031497,
          "duration": 0.06469288541666174
        },
        {
          "name": "C#6",
          "midi": 85,
          "time": 326.57845750000337,
          "velocity": 0.7874015748031497,
          "duration": 0.06469288541666174
        },
        {
          "name": "F#6",
          "midi": 90,
          "time": 326.57845750000337,
          "velocity": 0.7874015748031497,
          "duration": 0.06469288541666174
        },
        {
          "name": "D7",
          "midi": 98,
          "time": 326.57845750000337,
          "velocity": 0.7874015748031497,
          "duration": 0.06469288541666174
        },
        {
          "name": "F#7",
          "midi": 102,
          "time": 326.57845750000337,
          "velocity": 0.7874015748031497,
          "duration": 0.06469288541666174
        },
        {
          "name": "C#4",
          "midi": 61,
          "time": 326.84161500000334,
          "velocity": 0.7874015748031497,
          "duration": 0.06578937500000848
        },
        {
          "name": "F#4",
          "midi": 66,
          "time": 326.84161500000334,
          "velocity": 0.7874015748031497,
          "duration": 0.06578937500000848
        },
        {
          "name": "D5",
          "midi": 74,
          "time": 326.84161500000334,
          "velocity": 0.7874015748031497,
          "duration": 0.06578937500000848
        },
        {
          "name": "F#5",
          "midi": 78,
          "time": 326.84161500000334,
          "velocity": 0.7874015748031497,
          "duration": 0.06578937500000848
        },
        {
          "name": "D6",
          "midi": 86,
          "time": 326.84161500000334,
          "velocity": 0.7874015748031497,
          "duration": 0.06578937500000848
        },
        {
          "name": "F#6",
          "midi": 90,
          "time": 326.84161500000334,
          "velocity": 0.7874015748031497,
          "duration": 0.06578937500000848
        },
        {
          "name": "D#7",
          "midi": 99,
          "time": 326.84161500000334,
          "velocity": 0.7874015748031497,
          "duration": 0.06578937500000848
        },
        {
          "name": "F#7",
          "midi": 102,
          "time": 326.84161500000334,
          "velocity": 0.7874015748031497,
          "duration": 0.06578937500000848
        },
        {
          "name": "D4",
          "midi": 62,
          "time": 327.10586898958667,
          "velocity": 0.7874015748031497,
          "duration": 0.06469288541666174
        },
        {
          "name": "F#4",
          "midi": 66,
          "time": 327.10586898958667,
          "velocity": 0.7874015748031497,
          "duration": 0.06469288541666174
        },
        {
          "name": "D#5",
          "midi": 75,
          "time": 327.10586898958667,
          "velocity": 0.7874015748031497,
          "duration": 0.06469288541666174
        },
        {
          "name": "F#5",
          "midi": 78,
          "time": 327.10586898958667,
          "velocity": 0.7874015748031497,
          "duration": 0.06469288541666174
        },
        {
          "name": "D#6",
          "midi": 87,
          "time": 327.10586898958667,
          "velocity": 0.7874015748031497,
          "duration": 0.06469288541666174
        },
        {
          "name": "F#6",
          "midi": 90,
          "time": 327.10586898958667,
          "velocity": 0.7874015748031497,
          "duration": 0.06469288541666174
        },
        {
          "name": "E7",
          "midi": 100,
          "time": 327.10586898958667,
          "velocity": 0.7874015748031497,
          "duration": 0.06469288541666174
        },
        {
          "name": "F#7",
          "midi": 102,
          "time": 327.10586898958667,
          "velocity": 0.7874015748031497,
          "duration": 0.06469288541666174
        },
        {
          "name": "C#4",
          "midi": 61,
          "time": 327.36793000000335,
          "velocity": 0.7874015748031497,
          "duration": 0.06578937500000848
        },
        {
          "name": "F#4",
          "midi": 66,
          "time": 327.36793000000335,
          "velocity": 0.7874015748031497,
          "duration": 0.06578937500000848
        },
        {
          "name": "D5",
          "midi": 74,
          "time": 327.36793000000335,
          "velocity": 0.7874015748031497,
          "duration": 0.06578937500000848
        },
        {
          "name": "F#5",
          "midi": 78,
          "time": 327.36793000000335,
          "velocity": 0.7874015748031497,
          "duration": 0.06578937500000848
        },
        {
          "name": "D6",
          "midi": 86,
          "time": 327.36793000000335,
          "velocity": 0.7874015748031497,
          "duration": 0.06578937500000848
        },
        {
          "name": "F#6",
          "midi": 90,
          "time": 327.36793000000335,
          "velocity": 0.7874015748031497,
          "duration": 0.06578937500000848
        },
        {
          "name": "D#7",
          "midi": 99,
          "time": 327.36793000000335,
          "velocity": 0.7874015748031497,
          "duration": 0.06578937500000848
        },
        {
          "name": "F#7",
          "midi": 102,
          "time": 327.36793000000335,
          "velocity": 0.7874015748031497,
          "duration": 0.06578937500000848
        },
        {
          "name": "D#7",
          "midi": 99,
          "time": 327.5006052395867,
          "velocity": 0.7874015748031497,
          "duration": 0.06469288541666174
        },
        {
          "name": "F#7",
          "midi": 102,
          "time": 327.5006052395867,
          "velocity": 0.7874015748031497,
          "duration": 0.06469288541666174
        },
        {
          "name": "C#6",
          "midi": 85,
          "time": 327.63218398958674,
          "velocity": 0.7874015748031497,
          "duration": 0.06469288541666174
        },
        {
          "name": "F6",
          "midi": 89,
          "time": 327.63218398958674,
          "velocity": 0.7874015748031497,
          "duration": 0.06469288541666174
        },
        {
          "name": "D7",
          "midi": 98,
          "time": 327.63218398958674,
          "velocity": 0.7874015748031497,
          "duration": 0.06469288541666174
        },
        {
          "name": "F7",
          "midi": 101,
          "time": 327.63218398958674,
          "velocity": 0.7874015748031497,
          "duration": 0.06469288541666174
        },
        {
          "name": "C#4",
          "midi": 61,
          "time": 327.7626662500034,
          "velocity": 0.7874015748031497,
          "duration": 0.06578937500000848
        },
        {
          "name": "F#4",
          "midi": 66,
          "time": 327.7626662500034,
          "velocity": 0.7874015748031497,
          "duration": 0.06578937500000848
        },
        {
          "name": "D5",
          "midi": 74,
          "time": 327.7626662500034,
          "velocity": 0.7874015748031497,
          "duration": 0.06578937500000848
        },
        {
          "name": "F#5",
          "midi": 78,
          "time": 327.7626662500034,
          "velocity": 0.7874015748031497,
          "duration": 0.06578937500000848
        },
        {
          "name": "D6",
          "midi": 86,
          "time": 327.7626662500034,
          "velocity": 0.7874015748031497,
          "duration": 0.06578937500000848
        },
        {
          "name": "F6",
          "midi": 89,
          "time": 327.7626662500034,
          "velocity": 0.7874015748031497,
          "duration": 0.06578937500000848
        },
        {
          "name": "D#7",
          "midi": 99,
          "time": 327.7626662500034,
          "velocity": 0.7874015748031497,
          "duration": 0.06578937500000848
        },
        {
          "name": "F7",
          "midi": 101,
          "time": 327.7626662500034,
          "velocity": 0.7874015748031497,
          "duration": 0.06578937500000848
        },
        {
          "name": "C#4",
          "midi": 61,
          "time": 328.02692023958673,
          "velocity": 0.7874015748031497,
          "duration": 0.06469288541666174
        },
        {
          "name": "F#4",
          "midi": 66,
          "time": 328.02692023958673,
          "velocity": 0.7874015748031497,
          "duration": 0.06469288541666174
        },
        {
          "name": "D5",
          "midi": 74,
          "time": 328.02692023958673,
          "velocity": 0.7874015748031497,
          "duration": 0.06469288541666174
        },
        {
          "name": "F#5",
          "midi": 78,
          "time": 328.02692023958673,
          "velocity": 0.7874015748031497,
          "duration": 0.06469288541666174
        },
        {
          "name": "D6",
          "midi": 86,
          "time": 328.02692023958673,
          "velocity": 0.7874015748031497,
          "duration": 0.06469288541666174
        },
        {
          "name": "F#6",
          "midi": 90,
          "time": 328.02692023958673,
          "velocity": 0.7874015748031497,
          "duration": 0.06469288541666174
        },
        {
          "name": "D#7",
          "midi": 99,
          "time": 328.02692023958673,
          "velocity": 0.7874015748031497,
          "duration": 0.06469288541666174
        },
        {
          "name": "F#7",
          "midi": 102,
          "time": 328.02692023958673,
          "velocity": 0.7874015748031497,
          "duration": 0.06469288541666174
        },
        {
          "name": "C#5",
          "midi": 73,
          "time": 328.1574025000034,
          "velocity": 0.7874015748031497,
          "duration": 0.06469288541666174
        },
        {
          "name": "F5",
          "midi": 77,
          "time": 328.1574025000034,
          "velocity": 0.7874015748031497,
          "duration": 0.06469288541666174
        },
        {
          "name": "C#6",
          "midi": 85,
          "time": 328.1574025000034,
          "velocity": 0.7874015748031497,
          "duration": 0.06469288541666174
        },
        {
          "name": "F6",
          "midi": 89,
          "time": 328.1574025000034,
          "velocity": 0.7874015748031497,
          "duration": 0.06469288541666174
        },
        {
          "name": "D7",
          "midi": 98,
          "time": 328.1574025000034,
          "velocity": 0.7874015748031497,
          "duration": 0.06469288541666174
        },
        {
          "name": "F7",
          "midi": 101,
          "time": 328.1574025000034,
          "velocity": 0.7874015748031497,
          "duration": 0.06469288541666174
        },
        {
          "name": "C#7",
          "midi": 97,
          "time": 328.2889812500034,
          "velocity": 0.7874015748031497,
          "duration": 0.06469288541666174
        },
        {
          "name": "F7",
          "midi": 101,
          "time": 328.2889812500034,
          "velocity": 0.7874015748031497,
          "duration": 0.06469288541666174
        },
        {
          "name": "C4",
          "midi": 60,
          "time": 328.42056000000343,
          "velocity": 0.7874015748031497,
          "duration": 0.06469288541666174
        },
        {
          "name": "F#4",
          "midi": 66,
          "time": 328.42056000000343,
          "velocity": 0.7874015748031497,
          "duration": 0.06469288541666174
        },
        {
          "name": "C#5",
          "midi": 73,
          "time": 328.42056000000343,
          "velocity": 0.7874015748031497,
          "duration": 0.06469288541666174
        },
        {
          "name": "F#5",
          "midi": 78,
          "time": 328.42056000000343,
          "velocity": 0.7874015748031497,
          "duration": 0.06469288541666174
        },
        {
          "name": "C#6",
          "midi": 85,
          "time": 328.42056000000343,
          "velocity": 0.7874015748031497,
          "duration": 0.06469288541666174
        },
        {
          "name": "F#6",
          "midi": 90,
          "time": 328.42056000000343,
          "velocity": 0.7874015748031497,
          "duration": 0.06469288541666174
        },
        {
          "name": "C7",
          "midi": 96,
          "time": 328.42056000000343,
          "velocity": 0.7874015748031497,
          "duration": 0.06469288541666174
        },
        {
          "name": "F7",
          "midi": 101,
          "time": 328.42056000000343,
          "velocity": 0.7874015748031497,
          "duration": 0.06469288541666174
        },
        {
          "name": "C#4",
          "midi": 61,
          "time": 328.8152962500034,
          "velocity": 0.7874015748031497,
          "duration": 0.06578937500000848
        },
        {
          "name": "F#4",
          "midi": 66,
          "time": 328.8152962500034,
          "velocity": 0.7874015748031497,
          "duration": 0.06578937500000848
        },
        {
          "name": "D5",
          "midi": 74,
          "time": 328.8152962500034,
          "velocity": 0.7874015748031497,
          "duration": 0.06578937500000848
        },
        {
          "name": "F#5",
          "midi": 78,
          "time": 328.8152962500034,
          "velocity": 0.7874015748031497,
          "duration": 0.06578937500000848
        },
        {
          "name": "D6",
          "midi": 86,
          "time": 328.8152962500034,
          "velocity": 0.7874015748031497,
          "duration": 0.06578937500000848
        },
        {
          "name": "F#6",
          "midi": 90,
          "time": 328.8152962500034,
          "velocity": 0.7874015748031497,
          "duration": 0.06578937500000848
        },
        {
          "name": "D7",
          "midi": 98,
          "time": 328.8152962500034,
          "velocity": 0.7874015748031497,
          "duration": 0.06578937500000848
        },
        {
          "name": "F#7",
          "midi": 102,
          "time": 328.8152962500034,
          "velocity": 0.7874015748031497,
          "duration": 0.06578937500000848
        },
        {
          "name": "D4",
          "midi": 62,
          "time": 329.1442431250034,
          "velocity": 0.7874015748031497,
          "duration": 0.06469288541666174
        },
        {
          "name": "F#4",
          "midi": 66,
          "time": 329.1442431250034,
          "velocity": 0.7874015748031497,
          "duration": 0.06469288541666174
        },
        {
          "name": "D#5",
          "midi": 75,
          "time": 329.1442431250034,
          "velocity": 0.7874015748031497,
          "duration": 0.06469288541666174
        },
        {
          "name": "F#5",
          "midi": 78,
          "time": 329.1442431250034,
          "velocity": 0.7874015748031497,
          "duration": 0.06469288541666174
        },
        {
          "name": "D#6",
          "midi": 87,
          "time": 329.1442431250034,
          "velocity": 0.7874015748031497,
          "duration": 0.06469288541666174
        },
        {
          "name": "F#6",
          "midi": 90,
          "time": 329.1442431250034,
          "velocity": 0.7874015748031497,
          "duration": 0.06469288541666174
        },
        {
          "name": "D#7",
          "midi": 99,
          "time": 329.1442431250034,
          "velocity": 0.7874015748031497,
          "duration": 0.06469288541666174
        },
        {
          "name": "F#7",
          "midi": 102,
          "time": 329.1442431250034,
          "velocity": 0.7874015748031497,
          "duration": 0.06469288541666174
        },
        {
          "name": "E7",
          "midi": 100,
          "time": 329.2429271875034,
          "velocity": 0.7874015748031497,
          "duration": 0.06469288541666174
        },
        {
          "name": "F7",
          "midi": 101,
          "time": 329.2429271875034,
          "velocity": 0.7874015748031497,
          "duration": 0.06469288541666174
        },
        {
          "name": "C#4",
          "midi": 61,
          "time": 329.4731900000034,
          "velocity": 0.7874015748031497,
          "duration": 0.526315000000011
        },
        {
          "name": "F#4",
          "midi": 66,
          "time": 329.4731900000034,
          "velocity": 0.7874015748031497,
          "duration": 0.526315000000011
        },
        {
          "name": "D5",
          "midi": 74,
          "time": 329.4731900000034,
          "velocity": 0.7874015748031497,
          "duration": 0.526315000000011
        },
        {
          "name": "F#5",
          "midi": 78,
          "time": 329.4731900000034,
          "velocity": 0.7874015748031497,
          "duration": 0.526315000000011
        },
        {
          "name": "D6",
          "midi": 86,
          "time": 329.4731900000034,
          "velocity": 0.7874015748031497,
          "duration": 0.526315000000011
        },
        {
          "name": "F#6",
          "midi": 90,
          "time": 329.4731900000034,
          "velocity": 0.7874015748031497,
          "duration": 0.526315000000011
        },
        {
          "name": "D#7",
          "midi": 99,
          "time": 329.4731900000034,
          "velocity": 0.7874015748031497,
          "duration": 0.526315000000011
        },
        {
          "name": "F#7",
          "midi": 102,
          "time": 329.4731900000034,
          "velocity": 0.7874015748031497,
          "duration": 0.526315000000011
        },
        {
          "name": "D4",
          "midi": 62,
          "time": 329.9995050000034,
          "velocity": 0.7874015748031497,
          "duration": 0.5241220208333175
        },
        {
          "name": "F#4",
          "midi": 66,
          "time": 329.9995050000034,
          "velocity": 0.7874015748031497,
          "duration": 0.5241220208333175
        },
        {
          "name": "D#5",
          "midi": 75,
          "time": 329.9995050000034,
          "velocity": 0.7874015748031497,
          "duration": 0.5241220208333175
        },
        {
          "name": "F#5",
          "midi": 78,
          "time": 329.9995050000034,
          "velocity": 0.7874015748031497,
          "duration": 0.5241220208333175
        },
        {
          "name": "D#6",
          "midi": 87,
          "time": 329.9995050000034,
          "velocity": 0.7874015748031497,
          "duration": 0.5241220208333175
        },
        {
          "name": "F#6",
          "midi": 90,
          "time": 329.9995050000034,
          "velocity": 0.7874015748031497,
          "duration": 0.5241220208333175
        },
        {
          "name": "E7",
          "midi": 100,
          "time": 329.9995050000034,
          "velocity": 0.7874015748031497,
          "duration": 0.5241220208333175
        },
        {
          "name": "F#7",
          "midi": 102,
          "time": 329.9995050000034,
          "velocity": 0.7874015748031497,
          "duration": 0.5241220208333175
        },
        {
          "name": "C#4",
          "midi": 61,
          "time": 330.5258200000034,
          "velocity": 0.7874015748031497,
          "duration": 0.06578937500000848
        },
        {
          "name": "F#4",
          "midi": 66,
          "time": 330.5258200000034,
          "velocity": 0.7874015748031497,
          "duration": 0.06578937500000848
        },
        {
          "name": "D5",
          "midi": 74,
          "time": 330.5258200000034,
          "velocity": 0.7874015748031497,
          "duration": 0.06578937500000848
        },
        {
          "name": "D#5",
          "midi": 75,
          "time": 330.5258200000034,
          "velocity": 0.7874015748031497,
          "duration": 0.06578937500000848
        },
        {
          "name": "F#5",
          "midi": 78,
          "time": 330.5258200000034,
          "velocity": 0.7874015748031497,
          "duration": 0.06578937500000848
        },
        {
          "name": "D6",
          "midi": 86,
          "time": 330.5258200000034,
          "velocity": 0.7874015748031497,
          "duration": 0.06578937500000848
        },
        {
          "name": "D#6",
          "midi": 87,
          "time": 330.5258200000034,
          "velocity": 0.7874015748031497,
          "duration": 0.06578937500000848
        },
        {
          "name": "F#6",
          "midi": 90,
          "time": 330.5258200000034,
          "velocity": 0.7874015748031497,
          "duration": 0.06578937500000848
        },
        {
          "name": "D#7",
          "midi": 99,
          "time": 330.5258200000034,
          "velocity": 0.7874015748031497,
          "duration": 0.06578937500000848
        },
        {
          "name": "E7",
          "midi": 100,
          "time": 330.5258200000034,
          "velocity": 0.7874015748031497,
          "duration": 0.06578937500000848
        },
        {
          "name": "F#7",
          "midi": 102,
          "time": 330.5258200000034,
          "velocity": 0.7874015748031497,
          "duration": 0.06578937500000848
        },
        {
          "name": "E6",
          "midi": 88,
          "time": 331.3152925000034,
          "velocity": 0.7874015748031497,
          "duration": 0.06578937500000848
        },
        {
          "name": "F#6",
          "midi": 90,
          "time": 331.3152925000034,
          "velocity": 0.7874015748031497,
          "duration": 0.06578937500000848
        },
        {
          "name": "E7",
          "midi": 100,
          "time": 331.3152925000034,
          "velocity": 0.7874015748031497,
          "duration": 0.06578937500000848
        },
        {
          "name": "F#7",
          "midi": 102,
          "time": 331.3152925000034,
          "velocity": 0.7874015748031497,
          "duration": 0.06578937500000848
        },
        {
          "name": "E7",
          "midi": 100,
          "time": 331.4479677395868,
          "velocity": 0.7874015748031497,
          "duration": 0.06469288541666174
        },
        {
          "name": "F#7",
          "midi": 102,
          "time": 331.4479677395868,
          "velocity": 0.7874015748031497,
          "duration": 0.06469288541666174
        },
        {
          "name": "D4",
          "midi": 62,
          "time": 331.57845000000344,
          "velocity": 0.7874015748031497,
          "duration": 0.06469288541666174
        },
        {
          "name": "F#4",
          "midi": 66,
          "time": 331.57845000000344,
          "velocity": 0.7874015748031497,
          "duration": 0.06469288541666174
        },
        {
          "name": "D#5",
          "midi": 75,
          "time": 331.57845000000344,
          "velocity": 0.7874015748031497,
          "duration": 0.06469288541666174
        },
        {
          "name": "F#5",
          "midi": 78,
          "time": 331.57845000000344,
          "velocity": 0.7874015748031497,
          "duration": 0.06469288541666174
        },
        {
          "name": "E6",
          "midi": 88,
          "time": 331.57845000000344,
          "velocity": 0.7874015748031497,
          "duration": 0.06469288541666174
        },
        {
          "name": "F#6",
          "midi": 90,
          "time": 331.57845000000344,
          "velocity": 0.7874015748031497,
          "duration": 0.06469288541666174
        },
        {
          "name": "E7",
          "midi": 100,
          "time": 331.57845000000344,
          "velocity": 0.7874015748031497,
          "duration": 0.06469288541666174
        },
        {
          "name": "F#7",
          "midi": 102,
          "time": 331.57845000000344,
          "velocity": 0.7874015748031497,
          "duration": 0.06469288541666174
        },
        {
          "name": "D#6",
          "midi": 87,
          "time": 331.71002875000346,
          "velocity": 0.7874015748031497,
          "duration": 0.06469288541666174
        },
        {
          "name": "F6",
          "midi": 89,
          "time": 331.71002875000346,
          "velocity": 0.7874015748031497,
          "duration": 0.06469288541666174
        },
        {
          "name": "D#7",
          "midi": 99,
          "time": 331.71002875000346,
          "velocity": 0.7874015748031497,
          "duration": 0.06469288541666174
        },
        {
          "name": "F7",
          "midi": 101,
          "time": 331.71002875000346,
          "velocity": 0.7874015748031497,
          "duration": 0.06469288541666174
        },
        {
          "name": "C#4",
          "midi": 61,
          "time": 331.84270398958677,
          "velocity": 0.7874015748031497,
          "duration": 0.06469288541666174
        },
        {
          "name": "F4",
          "midi": 65,
          "time": 331.84270398958677,
          "velocity": 0.7874015748031497,
          "duration": 0.06469288541666174
        },
        {
          "name": "D5",
          "midi": 74,
          "time": 331.84270398958677,
          "velocity": 0.7874015748031497,
          "duration": 0.06469288541666174
        },
        {
          "name": "F5",
          "midi": 77,
          "time": 331.84270398958677,
          "velocity": 0.7874015748031497,
          "duration": 0.06469288541666174
        },
        {
          "name": "D6",
          "midi": 86,
          "time": 331.84270398958677,
          "velocity": 0.7874015748031497,
          "duration": 0.06469288541666174
        },
        {
          "name": "F6",
          "midi": 89,
          "time": 331.84270398958677,
          "velocity": 0.7874015748031497,
          "duration": 0.06469288541666174
        },
        {
          "name": "D7",
          "midi": 98,
          "time": 331.84270398958677,
          "velocity": 0.7874015748031497,
          "duration": 0.06469288541666174
        },
        {
          "name": "F7",
          "midi": 101,
          "time": 331.84270398958677,
          "velocity": 0.7874015748031497,
          "duration": 0.06469288541666174
        },
        {
          "name": "D#7",
          "midi": 99,
          "time": 331.97318625000344,
          "velocity": 0.7874015748031497,
          "duration": 0.06578937500000848
        },
        {
          "name": "F7",
          "midi": 101,
          "time": 331.97318625000344,
          "velocity": 0.7874015748031497,
          "duration": 0.06578937500000848
        },
        {
          "name": "C4",
          "midi": 60,
          "time": 332.10476500000345,
          "velocity": 0.7874015748031497,
          "duration": 0.06469288541666174
        },
        {
          "name": "F4",
          "midi": 65,
          "time": 332.10476500000345,
          "velocity": 0.7874015748031497,
          "duration": 0.06469288541666174
        },
        {
          "name": "C#5",
          "midi": 73,
          "time": 332.10476500000345,
          "velocity": 0.7874015748031497,
          "duration": 0.06469288541666174
        },
        {
          "name": "F5",
          "midi": 77,
          "time": 332.10476500000345,
          "velocity": 0.7874015748031497,
          "duration": 0.06469288541666174
        },
        {
          "name": "D#6",
          "midi": 87,
          "time": 332.10476500000345,
          "velocity": 0.7874015748031497,
          "duration": 0.06469288541666174
        },
        {
          "name": "F6",
          "midi": 89,
          "time": 332.10476500000345,
          "velocity": 0.7874015748031497,
          "duration": 0.06469288541666174
        },
        {
          "name": "D7",
          "midi": 98,
          "time": 332.10476500000345,
          "velocity": 0.7874015748031497,
          "duration": 0.06469288541666174
        },
        {
          "name": "F7",
          "midi": 101,
          "time": 332.10476500000345,
          "velocity": 0.7874015748031497,
          "duration": 0.06469288541666174
        },
        {
          "name": "D6",
          "midi": 86,
          "time": 332.23634375000347,
          "velocity": 0.7874015748031497,
          "duration": 0.06469288541666174
        },
        {
          "name": "F6",
          "midi": 89,
          "time": 332.23634375000347,
          "velocity": 0.7874015748031497,
          "duration": 0.06469288541666174
        },
        {
          "name": "C#7",
          "midi": 97,
          "time": 332.23634375000347,
          "velocity": 0.7874015748031497,
          "duration": 0.06469288541666174
        },
        {
          "name": "F7",
          "midi": 101,
          "time": 332.23634375000347,
          "velocity": 0.7874015748031497,
          "duration": 0.06469288541666174
        },
        {
          "name": "C5",
          "midi": 72,
          "time": 332.3690189895868,
          "velocity": 0.7874015748031497,
          "duration": 0.06469288541666174
        },
        {
          "name": "F5",
          "midi": 77,
          "time": 332.3690189895868,
          "velocity": 0.7874015748031497,
          "duration": 0.06469288541666174
        },
        {
          "name": "C#6",
          "midi": 85,
          "time": 332.3690189895868,
          "velocity": 0.7874015748031497,
          "duration": 0.06469288541666174
        },
        {
          "name": "F6",
          "midi": 89,
          "time": 332.3690189895868,
          "velocity": 0.7874015748031497,
          "duration": 0.06469288541666174
        },
        {
          "name": "E7",
          "midi": 100,
          "time": 332.3690189895868,
          "velocity": 0.7874015748031497,
          "duration": 0.06469288541666174
        },
        {
          "name": "F7",
          "midi": 101,
          "time": 332.3690189895868,
          "velocity": 0.7874015748031497,
          "duration": 0.06469288541666174
        },
        {
          "name": "D#7",
          "midi": 99,
          "time": 332.49950125000345,
          "velocity": 0.7874015748031497,
          "duration": 0.06469288541666174
        },
        {
          "name": "F7",
          "midi": 101,
          "time": 332.49950125000345,
          "velocity": 0.7874015748031497,
          "duration": 0.06469288541666174
        },
        {
          "name": "D4",
          "midi": 62,
          "time": 332.63108000000346,
          "velocity": 0.7874015748031497,
          "duration": 0.06469288541666174
        },
        {
          "name": "F#4",
          "midi": 66,
          "time": 332.63108000000346,
          "velocity": 0.7874015748031497,
          "duration": 0.06469288541666174
        },
        {
          "name": "D5",
          "midi": 74,
          "time": 332.63108000000346,
          "velocity": 0.7874015748031497,
          "duration": 0.06469288541666174
        },
        {
          "name": "F5",
          "midi": 77,
          "time": 332.63108000000346,
          "velocity": 0.7874015748031497,
          "duration": 0.06469288541666174
        },
        {
          "name": "E6",
          "midi": 88,
          "time": 332.63108000000346,
          "velocity": 0.7874015748031497,
          "duration": 0.06469288541666174
        },
        {
          "name": "F6",
          "midi": 89,
          "time": 332.63108000000346,
          "velocity": 0.7874015748031497,
          "duration": 0.06469288541666174
        },
        {
          "name": "E7",
          "midi": 100,
          "time": 332.63108000000346,
          "velocity": 0.7874015748031497,
          "duration": 0.06469288541666174
        },
        {
          "name": "F7",
          "midi": 101,
          "time": 332.63108000000346,
          "velocity": 0.7874015748031497,
          "duration": 0.06469288541666174
        },
        {
          "name": "D#6",
          "midi": 87,
          "time": 332.7626587500035,
          "velocity": 0.7874015748031497,
          "duration": 0.06469288541666174
        },
        {
          "name": "F6",
          "midi": 89,
          "time": 332.7626587500035,
          "velocity": 0.7874015748031497,
          "duration": 0.06469288541666174
        },
        {
          "name": "D#7",
          "midi": 99,
          "time": 332.7626587500035,
          "velocity": 0.7874015748031497,
          "duration": 0.06469288541666174
        },
        {
          "name": "F7",
          "midi": 101,
          "time": 332.7626587500035,
          "velocity": 0.7874015748031497,
          "duration": 0.06469288541666174
        },
        {
          "name": "C#4",
          "midi": 61,
          "time": 332.8953339895868,
          "velocity": 0.7874015748031497,
          "duration": 0.06469288541666174
        },
        {
          "name": "F4",
          "midi": 65,
          "time": 332.8953339895868,
          "velocity": 0.7874015748031497,
          "duration": 0.06469288541666174
        },
        {
          "name": "C#5",
          "midi": 73,
          "time": 332.8953339895868,
          "velocity": 0.7874015748031497,
          "duration": 0.06469288541666174
        },
        {
          "name": "F5",
          "midi": 77,
          "time": 332.8953339895868,
          "velocity": 0.7874015748031497,
          "duration": 0.06469288541666174
        },
        {
          "name": "D6",
          "midi": 86,
          "time": 332.8953339895868,
          "velocity": 0.7874015748031497,
          "duration": 0.06469288541666174
        },
        {
          "name": "F6",
          "midi": 89,
          "time": 332.8953339895868,
          "velocity": 0.7874015748031497,
          "duration": 0.06469288541666174
        },
        {
          "name": "D7",
          "midi": 98,
          "time": 332.8953339895868,
          "velocity": 0.7874015748031497,
          "duration": 0.06469288541666174
        },
        {
          "name": "F7",
          "midi": 101,
          "time": 332.8953339895868,
          "velocity": 0.7874015748031497,
          "duration": 0.06469288541666174
        },
        {
          "name": "C#6",
          "midi": 85,
          "time": 333.0269127395868,
          "velocity": 0.7874015748031497,
          "duration": 0.06469288541666174
        },
        {
          "name": "F6",
          "midi": 89,
          "time": 333.0269127395868,
          "velocity": 0.7874015748031497,
          "duration": 0.06469288541666174
        },
        {
          "name": "C#7",
          "midi": 97,
          "time": 333.0269127395868,
          "velocity": 0.7874015748031497,
          "duration": 0.06469288541666174
        },
        {
          "name": "F7",
          "midi": 101,
          "time": 333.0269127395868,
          "velocity": 0.7874015748031497,
          "duration": 0.06469288541666174
        },
        {
          "name": "C4",
          "midi": 60,
          "time": 333.1573950000035,
          "velocity": 0.7874015748031497,
          "duration": 0.06688586458335521
        },
        {
          "name": "F4",
          "midi": 65,
          "time": 333.1573950000035,
          "velocity": 0.7874015748031497,
          "duration": 0.06688586458335521
        },
        {
          "name": "C5",
          "midi": 72,
          "time": 333.1573950000035,
          "velocity": 0.7874015748031497,
          "duration": 0.06688586458335521
        },
        {
          "name": "F5",
          "midi": 77,
          "time": 333.1573950000035,
          "velocity": 0.7874015748031497,
          "duration": 0.06688586458335521
        },
        {
          "name": "D6",
          "midi": 86,
          "time": 333.29007023958684,
          "velocity": 0.7874015748031497,
          "duration": 0.06578937500000848
        },
        {
          "name": "F6",
          "midi": 89,
          "time": 333.29007023958684,
          "velocity": 0.7874015748031497,
          "duration": 0.06578937500000848
        },
        {
          "name": "D7",
          "midi": 98,
          "time": 333.29007023958684,
          "velocity": 0.7874015748031497,
          "duration": 0.06578937500000848
        },
        {
          "name": "F#7",
          "midi": 102,
          "time": 333.29007023958684,
          "velocity": 0.7874015748031497,
          "duration": 0.06578937500000848
        },
        {
          "name": "D4",
          "midi": 62,
          "time": 333.42164898958686,
          "velocity": 0.7874015748031497,
          "duration": 0.06469288541666174
        },
        {
          "name": "F4",
          "midi": 65,
          "time": 333.42164898958686,
          "velocity": 0.7874015748031497,
          "duration": 0.06469288541666174
        },
        {
          "name": "C#5",
          "midi": 73,
          "time": 333.42164898958686,
          "velocity": 0.7874015748031497,
          "duration": 0.06469288541666174
        },
        {
          "name": "F5",
          "midi": 77,
          "time": 333.42164898958686,
          "velocity": 0.7874015748031497,
          "duration": 0.06469288541666174
        },
        {
          "name": "D#6",
          "midi": 87,
          "time": 333.42164898958686,
          "velocity": 0.7874015748031497,
          "duration": 0.06469288541666174
        },
        {
          "name": "F6",
          "midi": 89,
          "time": 333.42164898958686,
          "velocity": 0.7874015748031497,
          "duration": 0.06469288541666174
        },
        {
          "name": "D#7",
          "midi": 99,
          "time": 333.4534471875035,
          "velocity": 0.7874015748031497,
          "duration": 0.06578937500000848
        },
        {
          "name": "F7",
          "midi": 101,
          "time": 333.4534471875035,
          "velocity": 0.7874015748031497,
          "duration": 0.06578937500000848
        },
        {
          "name": "C7",
          "midi": 96,
          "time": 333.7494993750035,
          "velocity": 0.7874015748031497,
          "duration": 0.06578937500000848
        },
        {
          "name": "F#7",
          "midi": 102,
          "time": 333.7494993750035,
          "velocity": 0.7874015748031497,
          "duration": 0.06578937500000848
        },
        {
          "name": "C4",
          "midi": 60,
          "time": 333.8152887500035,
          "velocity": 0.7874015748031497,
          "duration": 0.06469288541666174
        },
        {
          "name": "F#4",
          "midi": 66,
          "time": 333.8152887500035,
          "velocity": 0.7874015748031497,
          "duration": 0.06469288541666174
        },
        {
          "name": "C5",
          "midi": 72,
          "time": 333.8152887500035,
          "velocity": 0.7874015748031497,
          "duration": 0.06469288541666174
        },
        {
          "name": "F#5",
          "midi": 78,
          "time": 333.8152887500035,
          "velocity": 0.7874015748031497,
          "duration": 0.06469288541666174
        },
        {
          "name": "C6",
          "midi": 84,
          "time": 333.8152887500035,
          "velocity": 0.7874015748031497,
          "duration": 0.06469288541666174
        },
        {
          "name": "F#6",
          "midi": 90,
          "time": 333.8152887500035,
          "velocity": 0.7874015748031497,
          "duration": 0.06469288541666174
        },
        {
          "name": "C#4",
          "midi": 61,
          "time": 334.7363400000035,
          "velocity": 0.7874015748031497,
          "duration": 0.06469288541666174
        },
        {
          "name": "F#4",
          "midi": 66,
          "time": 334.7363400000035,
          "velocity": 0.7874015748031497,
          "duration": 0.06469288541666174
        },
        {
          "name": "C#5",
          "midi": 73,
          "time": 334.7363400000035,
          "velocity": 0.7874015748031497,
          "duration": 0.06469288541666174
        },
        {
          "name": "F#5",
          "midi": 78,
          "time": 334.7363400000035,
          "velocity": 0.7874015748031497,
          "duration": 0.06469288541666174
        },
        {
          "name": "D6",
          "midi": 86,
          "time": 334.7363400000035,
          "velocity": 0.7874015748031497,
          "duration": 0.06469288541666174
        },
        {
          "name": "F#6",
          "midi": 90,
          "time": 334.7363400000035,
          "velocity": 0.7874015748031497,
          "duration": 0.06469288541666174
        },
        {
          "name": "D#7",
          "midi": 99,
          "time": 334.7363400000035,
          "velocity": 0.7874015748031497,
          "duration": 0.06469288541666174
        },
        {
          "name": "F#7",
          "midi": 102,
          "time": 334.7363400000035,
          "velocity": 0.7874015748031497,
          "duration": 0.06469288541666174
        },
        {
          "name": "C#4",
          "midi": 61,
          "time": 335.2626550000035,
          "velocity": 0.7874015748031497,
          "duration": 0.06578937500000848
        },
        {
          "name": "F#4",
          "midi": 66,
          "time": 335.2626550000035,
          "velocity": 0.7874015748031497,
          "duration": 0.06578937500000848
        },
        {
          "name": "C#5",
          "midi": 73,
          "time": 335.2626550000035,
          "velocity": 0.7874015748031497,
          "duration": 0.06578937500000848
        },
        {
          "name": "F#5",
          "midi": 78,
          "time": 335.2626550000035,
          "velocity": 0.7874015748031497,
          "duration": 0.06578937500000848
        },
        {
          "name": "D6",
          "midi": 86,
          "time": 335.2626550000035,
          "velocity": 0.7874015748031497,
          "duration": 0.06578937500000848
        },
        {
          "name": "F#6",
          "midi": 90,
          "time": 335.2626550000035,
          "velocity": 0.7874015748031497,
          "duration": 0.06578937500000848
        },
        {
          "name": "D#7",
          "midi": 99,
          "time": 335.2626550000035,
          "velocity": 0.7874015748031497,
          "duration": 0.06578937500000848
        },
        {
          "name": "F#7",
          "midi": 102,
          "time": 335.2626550000035,
          "velocity": 0.7874015748031497,
          "duration": 0.06578937500000848
        },
        {
          "name": "C4",
          "midi": 60,
          "time": 335.78897000000353,
          "velocity": 0.7874015748031497,
          "duration": 0.06688586458335521
        },
        {
          "name": "F#4",
          "midi": 66,
          "time": 335.78897000000353,
          "velocity": 0.7874015748031497,
          "duration": 0.06688586458335521
        },
        {
          "name": "C5",
          "midi": 72,
          "time": 335.78897000000353,
          "velocity": 0.7874015748031497,
          "duration": 0.06688586458335521
        },
        {
          "name": "C6",
          "midi": 84,
          "time": 335.78897000000353,
          "velocity": 0.7874015748031497,
          "duration": 0.06688586458335521
        },
        {
          "name": "C7",
          "midi": 96,
          "time": 335.78897000000353,
          "velocity": 0.7874015748031497,
          "duration": 0.06688586458335521
        },
        {
          "name": "C#4",
          "midi": 61,
          "time": 336.0565134583369,
          "velocity": 0.7874015748031497,
          "duration": 0.063596395833315
        },
        {
          "name": "F#4",
          "midi": 66,
          "time": 336.0565134583369,
          "velocity": 0.7874015748031497,
          "duration": 0.063596395833315
        },
        {
          "name": "C#5",
          "midi": 73,
          "time": 336.0565134583369,
          "velocity": 0.7874015748031497,
          "duration": 0.063596395833315
        },
        {
          "name": "F#5",
          "midi": 78,
          "time": 336.0565134583369,
          "velocity": 0.7874015748031497,
          "duration": 0.063596395833315
        },
        {
          "name": "D6",
          "midi": 86,
          "time": 336.0565134583369,
          "velocity": 0.7874015748031497,
          "duration": 0.063596395833315
        },
        {
          "name": "F#6",
          "midi": 90,
          "time": 336.0565134583369,
          "velocity": 0.7874015748031497,
          "duration": 0.063596395833315
        },
        {
          "name": "D#7",
          "midi": 99,
          "time": 336.0565134583369,
          "velocity": 0.7874015748031497,
          "duration": 0.063596395833315
        },
        {
          "name": "F#7",
          "midi": 102,
          "time": 336.0565134583369,
          "velocity": 0.7874015748031497,
          "duration": 0.063596395833315
        },
        {
          "name": "C#4",
          "midi": 61,
          "time": 336.5740565416702,
          "velocity": 0.7874015748031497,
          "duration": 0.06688586458335521
        },
        {
          "name": "F#4",
          "midi": 66,
          "time": 336.5740565416702,
          "velocity": 0.7874015748031497,
          "duration": 0.06688586458335521
        },
        {
          "name": "C#5",
          "midi": 73,
          "time": 336.5740565416702,
          "velocity": 0.7874015748031497,
          "duration": 0.06688586458335521
        },
        {
          "name": "F#5",
          "midi": 78,
          "time": 336.5740565416702,
          "velocity": 0.7874015748031497,
          "duration": 0.06688586458335521
        },
        {
          "name": "D6",
          "midi": 86,
          "time": 336.5740565416702,
          "velocity": 0.7874015748031497,
          "duration": 0.06688586458335521
        },
        {
          "name": "F#6",
          "midi": 90,
          "time": 336.5740565416702,
          "velocity": 0.7874015748031497,
          "duration": 0.06688586458335521
        },
        {
          "name": "D#7",
          "midi": 99,
          "time": 336.5740565416702,
          "velocity": 0.7874015748031497,
          "duration": 0.06688586458335521
        },
        {
          "name": "F#7",
          "midi": 102,
          "time": 336.5740565416702,
          "velocity": 0.7874015748031497,
          "duration": 0.06688586458335521
        },
        {
          "name": "C#4",
          "midi": 61,
          "time": 337.09817856250356,
          "velocity": 0.7874015748031497,
          "duration": 0.06688586458335521
        },
        {
          "name": "F#4",
          "midi": 66,
          "time": 337.09817856250356,
          "velocity": 0.7874015748031497,
          "duration": 0.06688586458335521
        },
        {
          "name": "C#5",
          "midi": 73,
          "time": 337.09817856250356,
          "velocity": 0.7874015748031497,
          "duration": 0.06688586458335521
        },
        {
          "name": "F#5",
          "midi": 78,
          "time": 337.09817856250356,
          "velocity": 0.7874015748031497,
          "duration": 0.06688586458335521
        },
        {
          "name": "D6",
          "midi": 86,
          "time": 337.09817856250356,
          "velocity": 0.7874015748031497,
          "duration": 0.06688586458335521
        },
        {
          "name": "F#6",
          "midi": 90,
          "time": 337.09817856250356,
          "velocity": 0.7874015748031497,
          "duration": 0.06688586458335521
        },
        {
          "name": "D#7",
          "midi": 99,
          "time": 337.09817856250356,
          "velocity": 0.7874015748031497,
          "duration": 0.06688586458335521
        },
        {
          "name": "F#7",
          "midi": 102,
          "time": 337.09817856250356,
          "velocity": 0.7874015748031497,
          "duration": 0.06688586458335521
        },
        {
          "name": "C4",
          "midi": 60,
          "time": 337.63216898958694,
          "velocity": 0.7874015748031497,
          "duration": 4.996703031249979
        },
        {
          "name": "F#4",
          "midi": 66,
          "time": 337.63216898958694,
          "velocity": 0.7874015748031497,
          "duration": 4.996703031249979
        },
        {
          "name": "C5",
          "midi": 72,
          "time": 337.63216898958694,
          "velocity": 0.7874015748031497,
          "duration": 4.996703031249979
        },
        {
          "name": "C6",
          "midi": 84,
          "time": 337.63216898958694,
          "velocity": 0.7874015748031497,
          "duration": 4.996703031249979
        },
        {
          "name": "C7",
          "midi": 96,
          "time": 337.63216898958694,
          "velocity": 0.7874015748031497,
          "duration": 4.996703031249979
        },
        {
          "name": "D4",
          "midi": 62,
          "time": 342.6310650000036,
          "velocity": 0.7874015748031497,
          "duration": 0.06469288541666174
        },
        {
          "name": "F#4",
          "midi": 66,
          "time": 342.6310650000036,
          "velocity": 0.7874015748031497,
          "duration": 0.06469288541666174
        },
        {
          "name": "D#5",
          "midi": 75,
          "time": 342.6310650000036,
          "velocity": 0.7874015748031497,
          "duration": 0.06469288541666174
        },
        {
          "name": "F#5",
          "midi": 78,
          "time": 342.6310650000036,
          "velocity": 0.7874015748031497,
          "duration": 0.06469288541666174
        },
        {
          "name": "D#6",
          "midi": 87,
          "time": 342.6310650000036,
          "velocity": 0.7874015748031497,
          "duration": 0.06469288541666174
        },
        {
          "name": "F#6",
          "midi": 90,
          "time": 342.6310650000036,
          "velocity": 0.7874015748031497,
          "duration": 0.06469288541666174
        },
        {
          "name": "E7",
          "midi": 100,
          "time": 342.6310650000036,
          "velocity": 0.7874015748031497,
          "duration": 0.06469288541666174
        },
        {
          "name": "F#7",
          "midi": 102,
          "time": 342.6310650000036,
          "velocity": 0.7874015748031497,
          "duration": 0.06469288541666174
        },
        {
          "name": "D5",
          "midi": 74,
          "time": 342.8931260104203,
          "velocity": 0.7874015748031497,
          "duration": 0.06469288541666174
        },
        {
          "name": "F5",
          "midi": 77,
          "time": 342.8931260104203,
          "velocity": 0.7874015748031497,
          "duration": 0.06469288541666174
        },
        {
          "name": "D6",
          "midi": 86,
          "time": 342.8931260104203,
          "velocity": 0.7874015748031497,
          "duration": 0.06469288541666174
        },
        {
          "name": "F#6",
          "midi": 90,
          "time": 342.8931260104203,
          "velocity": 0.7874015748031497,
          "duration": 0.06469288541666174
        },
        {
          "name": "D#7",
          "midi": 99,
          "time": 342.8931260104203,
          "velocity": 0.7874015748031497,
          "duration": 0.06469288541666174
        },
        {
          "name": "F#7",
          "midi": 102,
          "time": 342.8931260104203,
          "velocity": 0.7874015748031497,
          "duration": 0.06469288541666174
        },
        {
          "name": "C#4",
          "midi": 61,
          "time": 343.1573800000036,
          "velocity": 0.7874015748031497,
          "duration": 0.06469288541666174
        },
        {
          "name": "F4",
          "midi": 65,
          "time": 343.1573800000036,
          "velocity": 0.7874015748031497,
          "duration": 0.06469288541666174
        },
        {
          "name": "C#5",
          "midi": 73,
          "time": 343.1573800000036,
          "velocity": 0.7874015748031497,
          "duration": 0.06469288541666174
        },
        {
          "name": "F5",
          "midi": 77,
          "time": 343.1573800000036,
          "velocity": 0.7874015748031497,
          "duration": 0.06469288541666174
        },
        {
          "name": "C#6",
          "midi": 85,
          "time": 343.1573800000036,
          "velocity": 0.7874015748031497,
          "duration": 0.06469288541666174
        },
        {
          "name": "F#6",
          "midi": 90,
          "time": 343.1573800000036,
          "velocity": 0.7874015748031497,
          "duration": 0.06469288541666174
        },
        {
          "name": "D7",
          "midi": 98,
          "time": 343.1573800000036,
          "velocity": 0.7874015748031497,
          "duration": 0.06469288541666174
        },
        {
          "name": "F#7",
          "midi": 102,
          "time": 343.1573800000036,
          "velocity": 0.7874015748031497,
          "duration": 0.06469288541666174
        },
        {
          "name": "C4",
          "midi": 60,
          "time": 343.4194410104203,
          "velocity": 0.7874015748031497,
          "duration": 0.06469288541666174
        },
        {
          "name": "F4",
          "midi": 65,
          "time": 343.4194410104203,
          "velocity": 0.7874015748031497,
          "duration": 0.06469288541666174
        },
        {
          "name": "C5",
          "midi": 72,
          "time": 343.4194410104203,
          "velocity": 0.7874015748031497,
          "duration": 0.06469288541666174
        },
        {
          "name": "F5",
          "midi": 77,
          "time": 343.4194410104203,
          "velocity": 0.7874015748031497,
          "duration": 0.06469288541666174
        },
        {
          "name": "C6",
          "midi": 84,
          "time": 343.4194410104203,
          "velocity": 0.7874015748031497,
          "duration": 0.06469288541666174
        },
        {
          "name": "F#6",
          "midi": 90,
          "time": 343.4194410104203,
          "velocity": 0.7874015748031497,
          "duration": 0.06469288541666174
        },
        {
          "name": "C#7",
          "midi": 97,
          "time": 343.4194410104203,
          "velocity": 0.7874015748031497,
          "duration": 0.06469288541666174
        },
        {
          "name": "F#7",
          "midi": 102,
          "time": 343.4194410104203,
          "velocity": 0.7874015748031497,
          "duration": 0.06469288541666174
        }
      ],
      "controlChanges": {},
      "id": 3,
      "name": "PART BASS",
      "channelNumber": 0,
      "isPercussion": false
    },
    {
      "startTime": 4.21052,
      "duration": 343.4205375000129,
      "length": 5270,
      "notes": [
        {
          "name": "E4",
          "midi": 64,
          "time": 4.21052,
          "velocity": 0.7874015748031497,
          "duration": 0.0010964895833334154
        },
        {
          "name": "E5",
          "midi": 76,
          "time": 4.21052,
          "velocity": 0.7874015748031497,
          "duration": 0.0010964895833334154
        },
        {
          "name": "E6",
          "midi": 88,
          "time": 4.21052,
          "velocity": 0.7874015748031497,
          "duration": 0.0010964895833334154
        },
        {
          "name": "E7",
          "midi": 100,
          "time": 4.21052,
          "velocity": 0.7874015748031497,
          "duration": 0.0010964895833334154
        },
        {
          "name": "E6",
          "midi": 88,
          "time": 4.4736775,
          "velocity": 0.7874015748031497,
          "duration": 0.0010964895833334154
        },
        {
          "name": "E7",
          "midi": 100,
          "time": 4.4736775,
          "velocity": 0.7874015748031497,
          "duration": 0.0010964895833334154
        },
        {
          "name": "E4",
          "midi": 64,
          "time": 4.60525625,
          "velocity": 0.7874015748031497,
          "duration": 0.0010964895833334154
        },
        {
          "name": "E5",
          "midi": 76,
          "time": 4.60525625,
          "velocity": 0.7874015748031497,
          "duration": 0.0010964895833334154
        },
        {
          "name": "E6",
          "midi": 88,
          "time": 4.60525625,
          "velocity": 0.7874015748031497,
          "duration": 0.0010964895833334154
        },
        {
          "name": "E7",
          "midi": 100,
          "time": 4.60525625,
          "velocity": 0.7874015748031497,
          "duration": 0.0010964895833334154
        },
        {
          "name": "E4",
          "midi": 64,
          "time": 4.86841375,
          "velocity": 0.7874015748031497,
          "duration": 0.0010964895833334154
        },
        {
          "name": "E5",
          "midi": 76,
          "time": 4.86841375,
          "velocity": 0.7874015748031497,
          "duration": 0.0010964895833334154
        },
        {
          "name": "E6",
          "midi": 88,
          "time": 4.86841375,
          "velocity": 0.7874015748031497,
          "duration": 0.0010964895833334154
        },
        {
          "name": "E7",
          "midi": 100,
          "time": 4.86841375,
          "velocity": 0.7874015748031497,
          "duration": 0.0010964895833334154
        },
        {
          "name": "E4",
          "midi": 64,
          "time": 5.13157125,
          "velocity": 0.7874015748031497,
          "duration": 0.0010964895833334154
        },
        {
          "name": "E5",
          "midi": 76,
          "time": 5.13157125,
          "velocity": 0.7874015748031497,
          "duration": 0.0010964895833334154
        },
        {
          "name": "E6",
          "midi": 88,
          "time": 5.13157125,
          "velocity": 0.7874015748031497,
          "duration": 0.0010964895833334154
        },
        {
          "name": "E7",
          "midi": 100,
          "time": 5.13157125,
          "velocity": 0.7874015748031497,
          "duration": 0.0010964895833334154
        },
        {
          "name": "E6",
          "midi": 88,
          "time": 5.3947287500000005,
          "velocity": 0.7874015748031497,
          "duration": 0.0010964895833334154
        },
        {
          "name": "E7",
          "midi": 100,
          "time": 5.3947287500000005,
          "velocity": 0.7874015748031497,
          "duration": 0.0010964895833334154
        },
        {
          "name": "E4",
          "midi": 64,
          "time": 5.526307500000001,
          "velocity": 0.7874015748031497,
          "duration": 0.0010964895833334154
        },
        {
          "name": "E5",
          "midi": 76,
          "time": 5.526307500000001,
          "velocity": 0.7874015748031497,
          "duration": 0.0010964895833334154
        },
        {
          "name": "E6",
          "midi": 88,
          "time": 5.526307500000001,
          "velocity": 0.7874015748031497,
          "duration": 0.0010964895833334154
        },
        {
          "name": "E7",
          "midi": 100,
          "time": 5.526307500000001,
          "velocity": 0.7874015748031497,
          "duration": 0.0010964895833334154
        },
        {
          "name": "E4",
          "midi": 64,
          "time": 5.789465000000001,
          "velocity": 0.7874015748031497,
          "duration": 0.0010964895833334154
        },
        {
          "name": "E5",
          "midi": 76,
          "time": 5.789465000000001,
          "velocity": 0.7874015748031497,
          "duration": 0.0010964895833334154
        },
        {
          "name": "E6",
          "midi": 88,
          "time": 5.789465000000001,
          "velocity": 0.7874015748031497,
          "duration": 0.0010964895833334154
        },
        {
          "name": "E7",
          "midi": 100,
          "time": 5.789465000000001,
          "velocity": 0.7874015748031497,
          "duration": 0.0010964895833334154
        },
        {
          "name": "E4",
          "midi": 64,
          "time": 6.052622500000001,
          "velocity": 0.7874015748031497,
          "duration": 0.0010964895833334154
        },
        {
          "name": "E5",
          "midi": 76,
          "time": 6.052622500000001,
          "velocity": 0.7874015748031497,
          "duration": 0.0010964895833334154
        },
        {
          "name": "E6",
          "midi": 88,
          "time": 6.052622500000001,
          "velocity": 0.7874015748031497,
          "duration": 0.0010964895833334154
        },
        {
          "name": "E7",
          "midi": 100,
          "time": 6.052622500000001,
          "velocity": 0.7874015748031497,
          "duration": 0.0010964895833334154
        },
        {
          "name": "E4",
          "midi": 64,
          "time": 6.315780000000001,
          "velocity": 0.7874015748031497,
          "duration": 0.0010964895833334154
        },
        {
          "name": "E5",
          "midi": 76,
          "time": 6.315780000000001,
          "velocity": 0.7874015748031497,
          "duration": 0.0010964895833334154
        },
        {
          "name": "E6",
          "midi": 88,
          "time": 6.315780000000001,
          "velocity": 0.7874015748031497,
          "duration": 0.0010964895833334154
        },
        {
          "name": "E7",
          "midi": 100,
          "time": 6.315780000000001,
          "velocity": 0.7874015748031497,
          "duration": 0.0010964895833334154
        },
        {
          "name": "E5",
          "midi": 76,
          "time": 6.578937500000001,
          "velocity": 0.7874015748031497,
          "duration": 0.0010964895833334154
        },
        {
          "name": "E6",
          "midi": 88,
          "time": 6.578937500000001,
          "velocity": 0.7874015748031497,
          "duration": 0.0010964895833334154
        },
        {
          "name": "E7",
          "midi": 100,
          "time": 6.578937500000001,
          "velocity": 0.7874015748031497,
          "duration": 0.0010964895833334154
        },
        {
          "name": "E6",
          "midi": 88,
          "time": 6.710516250000001,
          "velocity": 0.7874015748031497,
          "duration": 0.0010964895833334154
        },
        {
          "name": "E7",
          "midi": 100,
          "time": 6.710516250000001,
          "velocity": 0.7874015748031497,
          "duration": 0.0010964895833334154
        },
        {
          "name": "E4",
          "midi": 64,
          "time": 6.842095000000001,
          "velocity": 0.7874015748031497,
          "duration": 0.0010964895833334154
        },
        {
          "name": "E5",
          "midi": 76,
          "time": 6.842095000000001,
          "velocity": 0.7874015748031497,
          "duration": 0.0010964895833334154
        },
        {
          "name": "E6",
          "midi": 88,
          "time": 6.842095000000001,
          "velocity": 0.7874015748031497,
          "duration": 0.0010964895833334154
        },
        {
          "name": "E7",
          "midi": 100,
          "time": 6.842095000000001,
          "velocity": 0.7874015748031497,
          "duration": 0.0010964895833334154
        },
        {
          "name": "E6",
          "midi": 88,
          "time": 7.1052525000000015,
          "velocity": 0.7874015748031497,
          "duration": 0.0010964895833334154
        },
        {
          "name": "E7",
          "midi": 100,
          "time": 7.1052525000000015,
          "velocity": 0.7874015748031497,
          "duration": 0.0010964895833334154
        },
        {
          "name": "E4",
          "midi": 64,
          "time": 7.236831250000002,
          "velocity": 0.7874015748031497,
          "duration": 0.0010964895833334154
        },
        {
          "name": "E5",
          "midi": 76,
          "time": 7.236831250000002,
          "velocity": 0.7874015748031497,
          "duration": 0.0010964895833334154
        },
        {
          "name": "E6",
          "midi": 88,
          "time": 7.236831250000002,
          "velocity": 0.7874015748031497,
          "duration": 0.0010964895833334154
        },
        {
          "name": "E7",
          "midi": 100,
          "time": 7.236831250000002,
          "velocity": 0.7874015748031497,
          "duration": 0.0010964895833334154
        },
        {
          "name": "E4",
          "midi": 64,
          "time": 7.498892260416668,
          "velocity": 0.7874015748031497,
          "duration": 0.0010964895833334154
        },
        {
          "name": "E5",
          "midi": 76,
          "time": 7.498892260416668,
          "velocity": 0.7874015748031497,
          "duration": 0.0010964895833334154
        },
        {
          "name": "E6",
          "midi": 88,
          "time": 7.498892260416668,
          "velocity": 0.7874015748031497,
          "duration": 0.0010964895833334154
        },
        {
          "name": "E7",
          "midi": 100,
          "time": 7.498892260416668,
          "velocity": 0.7874015748031497,
          "duration": 0.0010964895833334154
        },
        {
          "name": "E4",
          "midi": 64,
          "time": 7.763146250000002,
          "velocity": 0.7874015748031497,
          "duration": 0.0010964895833334154
        },
        {
          "name": "E5",
          "midi": 76,
          "time": 7.763146250000002,
          "velocity": 0.7874015748031497,
          "duration": 0.0010964895833334154
        },
        {
          "name": "E6",
          "midi": 88,
          "time": 7.763146250000002,
          "velocity": 0.7874015748031497,
          "duration": 0.0010964895833334154
        },
        {
          "name": "E7",
          "midi": 100,
          "time": 7.763146250000002,
          "velocity": 0.7874015748031497,
          "duration": 0.0010964895833334154
        },
        {
          "name": "E6",
          "midi": 88,
          "time": 8.025207260416668,
          "velocity": 0.7874015748031497,
          "duration": 0.0010964895833325272
        },
        {
          "name": "E7",
          "midi": 100,
          "time": 8.025207260416668,
          "velocity": 0.7874015748031497,
          "duration": 0.0010964895833325272
        },
        {
          "name": "E4",
          "midi": 64,
          "time": 8.1578825,
          "velocity": 0.7874015748031497,
          "duration": 0.0010964895833325272
        },
        {
          "name": "E5",
          "midi": 76,
          "time": 8.1578825,
          "velocity": 0.7874015748031497,
          "duration": 0.0010964895833325272
        },
        {
          "name": "E6",
          "midi": 88,
          "time": 8.1578825,
          "velocity": 0.7874015748031497,
          "duration": 0.0010964895833325272
        },
        {
          "name": "E7",
          "midi": 100,
          "time": 8.1578825,
          "velocity": 0.7874015748031497,
          "duration": 0.0010964895833325272
        },
        {
          "name": "E4",
          "midi": 64,
          "time": 8.421039999999998,
          "velocity": 0.7874015748031497,
          "duration": 0.0010964895833325272
        },
        {
          "name": "E5",
          "midi": 76,
          "time": 8.421039999999998,
          "velocity": 0.7874015748031497,
          "duration": 0.0010964895833325272
        },
        {
          "name": "E6",
          "midi": 88,
          "time": 8.421039999999998,
          "velocity": 0.7874015748031497,
          "duration": 0.0010964895833325272
        },
        {
          "name": "E7",
          "midi": 100,
          "time": 8.421039999999998,
          "velocity": 0.7874015748031497,
          "duration": 0.0010964895833325272
        },
        {
          "name": "E4",
          "midi": 64,
          "time": 8.684197499999996,
          "velocity": 0.7874015748031497,
          "duration": 0.0010964895833325272
        },
        {
          "name": "E5",
          "midi": 76,
          "time": 8.684197499999996,
          "velocity": 0.7874015748031497,
          "duration": 0.0010964895833325272
        },
        {
          "name": "E6",
          "midi": 88,
          "time": 8.684197499999996,
          "velocity": 0.7874015748031497,
          "duration": 0.0010964895833325272
        },
        {
          "name": "E7",
          "midi": 100,
          "time": 8.684197499999996,
          "velocity": 0.7874015748031497,
          "duration": 0.0010964895833325272
        },
        {
          "name": "E4",
          "midi": 64,
          "time": 8.947354999999995,
          "velocity": 0.7874015748031497,
          "duration": 0.0010964895833325272
        },
        {
          "name": "E5",
          "midi": 76,
          "time": 8.947354999999995,
          "velocity": 0.7874015748031497,
          "duration": 0.0010964895833325272
        },
        {
          "name": "E6",
          "midi": 88,
          "time": 8.947354999999995,
          "velocity": 0.7874015748031497,
          "duration": 0.0010964895833325272
        },
        {
          "name": "E7",
          "midi": 100,
          "time": 8.947354999999995,
          "velocity": 0.7874015748031497,
          "duration": 0.0010964895833325272
        },
        {
          "name": "E5",
          "midi": 76,
          "time": 9.210512499999993,
          "velocity": 0.7874015748031497,
          "duration": 0.0010964895833325272
        },
        {
          "name": "E6",
          "midi": 88,
          "time": 9.210512499999993,
          "velocity": 0.7874015748031497,
          "duration": 0.0010964895833325272
        },
        {
          "name": "E7",
          "midi": 100,
          "time": 9.210512499999993,
          "velocity": 0.7874015748031497,
          "duration": 0.0010964895833325272
        },
        {
          "name": "E6",
          "midi": 88,
          "time": 9.342091249999992,
          "velocity": 0.7874015748031497,
          "duration": 0.0010964895833325272
        },
        {
          "name": "E7",
          "midi": 100,
          "time": 9.342091249999992,
          "velocity": 0.7874015748031497,
          "duration": 0.0010964895833325272
        },
        {
          "name": "C#4",
          "midi": 61,
          "time": 9.473669999999991,
          "velocity": 0.7874015748031497,
          "duration": 0.0010964895833325272
        },
        {
          "name": "C#5",
          "midi": 73,
          "time": 9.473669999999991,
          "velocity": 0.7874015748031497,
          "duration": 0.0010964895833325272
        },
        {
          "name": "E5",
          "midi": 76,
          "time": 9.473669999999991,
          "velocity": 0.7874015748031497,
          "duration": 0.0010964895833325272
        },
        {
          "name": "C#6",
          "midi": 85,
          "time": 9.473669999999991,
          "velocity": 0.7874015748031497,
          "duration": 0.0010964895833325272
        },
        {
          "name": "E6",
          "midi": 88,
          "time": 9.473669999999991,
          "velocity": 0.7874015748031497,
          "duration": 0.0010964895833325272
        },
        {
          "name": "C#7",
          "midi": 97,
          "time": 9.473669999999991,
          "velocity": 0.7874015748031497,
          "duration": 0.0010964895833325272
        },
        {
          "name": "E7",
          "midi": 100,
          "time": 9.473669999999991,
          "velocity": 0.7874015748031497,
          "duration": 0.0010964895833325272
        },
        {
          "name": "C5",
          "midi": 72,
          "time": 9.99998499999999,
          "velocity": 0.7874015748031497,
          "duration": 0.0010964895833325272
        },
        {
          "name": "C6",
          "midi": 84,
          "time": 9.99998499999999,
          "velocity": 0.7874015748031497,
          "duration": 0.0010964895833325272
        },
        {
          "name": "C7",
          "midi": 96,
          "time": 9.99998499999999,
          "velocity": 0.7874015748031497,
          "duration": 0.0010964895833325272
        },
        {
          "name": "C#4",
          "midi": 61,
          "time": 10.26643196874999,
          "velocity": 0.7874015748031497,
          "duration": 0.0010964895833325272
        },
        {
          "name": "C#5",
          "midi": 73,
          "time": 10.26643196874999,
          "velocity": 0.7874015748031497,
          "duration": 0.0010964895833325272
        },
        {
          "name": "D5",
          "midi": 74,
          "time": 10.26643196874999,
          "velocity": 0.7874015748031497,
          "duration": 0.0010964895833325272
        },
        {
          "name": "C#6",
          "midi": 85,
          "time": 10.26643196874999,
          "velocity": 0.7874015748031497,
          "duration": 0.0010964895833325272
        },
        {
          "name": "D6",
          "midi": 86,
          "time": 10.26643196874999,
          "velocity": 0.7874015748031497,
          "duration": 0.0010964895833325272
        },
        {
          "name": "C#7",
          "midi": 97,
          "time": 10.26643196874999,
          "velocity": 0.7874015748031497,
          "duration": 0.0010964895833325272
        },
        {
          "name": "D7",
          "midi": 98,
          "time": 10.26643196874999,
          "velocity": 0.7874015748031497,
          "duration": 0.0010964895833325272
        },
        {
          "name": "C#4",
          "midi": 61,
          "time": 10.792746968749988,
          "velocity": 0.7874015748031497,
          "duration": 0.0010964895833325272
        },
        {
          "name": "C#5",
          "midi": 73,
          "time": 10.792746968749988,
          "velocity": 0.7874015748031497,
          "duration": 0.0010964895833325272
        },
        {
          "name": "D5",
          "midi": 74,
          "time": 10.792746968749988,
          "velocity": 0.7874015748031497,
          "duration": 0.0010964895833325272
        },
        {
          "name": "C#6",
          "midi": 85,
          "time": 10.792746968749988,
          "velocity": 0.7874015748031497,
          "duration": 0.0010964895833325272
        },
        {
          "name": "D6",
          "midi": 86,
          "time": 10.792746968749988,
          "velocity": 0.7874015748031497,
          "duration": 0.0010964895833325272
        },
        {
          "name": "C#7",
          "midi": 97,
          "time": 10.792746968749988,
          "velocity": 0.7874015748031497,
          "duration": 0.0010964895833325272
        },
        {
          "name": "D7",
          "midi": 98,
          "time": 10.792746968749988,
          "velocity": 0.7874015748031497,
          "duration": 0.0010964895833325272
        },
        {
          "name": "C#4",
          "midi": 61,
          "time": 11.315772499999987,
          "velocity": 0.7874015748031497,
          "duration": 0.0010964895833325272
        },
        {
          "name": "C#5",
          "midi": 73,
          "time": 11.315772499999987,
          "velocity": 0.7874015748031497,
          "duration": 0.0010964895833325272
        },
        {
          "name": "D5",
          "midi": 74,
          "time": 11.315772499999987,
          "velocity": 0.7874015748031497,
          "duration": 0.0010964895833325272
        },
        {
          "name": "C#6",
          "midi": 85,
          "time": 11.315772499999987,
          "velocity": 0.7874015748031497,
          "duration": 0.0010964895833325272
        },
        {
          "name": "D6",
          "midi": 86,
          "time": 11.315772499999987,
          "velocity": 0.7874015748031497,
          "duration": 0.0010964895833325272
        },
        {
          "name": "C#7",
          "midi": 97,
          "time": 11.315772499999987,
          "velocity": 0.7874015748031497,
          "duration": 0.0010964895833325272
        },
        {
          "name": "D7",
          "midi": 98,
          "time": 11.315772499999987,
          "velocity": 0.7874015748031497,
          "duration": 0.0010964895833325272
        },
        {
          "name": "C5",
          "midi": 72,
          "time": 11.832219093749986,
          "velocity": 0.7874015748031497,
          "duration": 0.0010964895833325272
        },
        {
          "name": "C6",
          "midi": 84,
          "time": 11.832219093749986,
          "velocity": 0.7874015748031497,
          "duration": 0.0010964895833325272
        },
        {
          "name": "C7",
          "midi": 96,
          "time": 11.832219093749986,
          "velocity": 0.7874015748031497,
          "duration": 0.0010964895833325272
        },
        {
          "name": "C#4",
          "midi": 61,
          "time": 12.105244999999986,
          "velocity": 0.7874015748031497,
          "duration": 0.0010964895833325272
        },
        {
          "name": "C#5",
          "midi": 73,
          "time": 12.105244999999986,
          "velocity": 0.7874015748031497,
          "duration": 0.0010964895833325272
        },
        {
          "name": "D5",
          "midi": 74,
          "time": 12.105244999999986,
          "velocity": 0.7874015748031497,
          "duration": 0.0010964895833325272
        },
        {
          "name": "C#6",
          "midi": 85,
          "time": 12.105244999999986,
          "velocity": 0.7874015748031497,
          "duration": 0.0010964895833325272
        },
        {
          "name": "D6",
          "midi": 86,
          "time": 12.105244999999986,
          "velocity": 0.7874015748031497,
          "duration": 0.0010964895833325272
        },
        {
          "name": "C#7",
          "midi": 97,
          "time": 12.105244999999986,
          "velocity": 0.7874015748031497,
          "duration": 0.0010964895833325272
        },
        {
          "name": "D7",
          "midi": 98,
          "time": 12.105244999999986,
          "velocity": 0.7874015748031497,
          "duration": 0.0010964895833325272
        },
        {
          "name": "C#4",
          "midi": 61,
          "time": 12.631559999999984,
          "velocity": 0.7874015748031497,
          "duration": 0.0010964895833325272
        },
        {
          "name": "C#5",
          "midi": 73,
          "time": 12.631559999999984,
          "velocity": 0.7874015748031497,
          "duration": 0.0010964895833325272
        },
        {
          "name": "D5",
          "midi": 74,
          "time": 12.631559999999984,
          "velocity": 0.7874015748031497,
          "duration": 0.0010964895833325272
        },
        {
          "name": "C#6",
          "midi": 85,
          "time": 12.631559999999984,
          "velocity": 0.7874015748031497,
          "duration": 0.0010964895833325272
        },
        {
          "name": "D6",
          "midi": 86,
          "time": 12.631559999999984,
          "velocity": 0.7874015748031497,
          "duration": 0.0010964895833325272
        },
        {
          "name": "C#7",
          "midi": 97,
          "time": 12.631559999999984,
          "velocity": 0.7874015748031497,
          "duration": 0.0010964895833325272
        },
        {
          "name": "D7",
          "midi": 98,
          "time": 12.631559999999984,
          "velocity": 0.7874015748031497,
          "duration": 0.0010964895833325272
        },
        {
          "name": "C#4",
          "midi": 61,
          "time": 13.157874999999983,
          "velocity": 0.7874015748031497,
          "duration": 0.0010964895833325272
        },
        {
          "name": "C#5",
          "midi": 73,
          "time": 13.157874999999983,
          "velocity": 0.7874015748031497,
          "duration": 0.0010964895833325272
        },
        {
          "name": "D5",
          "midi": 74,
          "time": 13.157874999999983,
          "velocity": 0.7874015748031497,
          "duration": 0.0010964895833325272
        },
        {
          "name": "C#6",
          "midi": 85,
          "time": 13.157874999999983,
          "velocity": 0.7874015748031497,
          "duration": 0.0010964895833325272
        },
        {
          "name": "D6",
          "midi": 86,
          "time": 13.157874999999983,
          "velocity": 0.7874015748031497,
          "duration": 0.0010964895833325272
        },
        {
          "name": "C#7",
          "midi": 97,
          "time": 13.157874999999983,
          "velocity": 0.7874015748031497,
          "duration": 0.0010964895833325272
        },
        {
          "name": "D7",
          "midi": 98,
          "time": 13.157874999999983,
          "velocity": 0.7874015748031497,
          "duration": 0.0010964895833325272
        },
        {
          "name": "C#4",
          "midi": 61,
          "time": 13.684189999999981,
          "velocity": 0.7874015748031497,
          "duration": 0.0010964895833325272
        },
        {
          "name": "C#5",
          "midi": 73,
          "time": 13.684189999999981,
          "velocity": 0.7874015748031497,
          "duration": 0.0010964895833325272
        },
        {
          "name": "D5",
          "midi": 74,
          "time": 13.684189999999981,
          "velocity": 0.7874015748031497,
          "duration": 0.0010964895833325272
        },
        {
          "name": "C#6",
          "midi": 85,
          "time": 13.684189999999981,
          "velocity": 0.7874015748031497,
          "duration": 0.0010964895833325272
        },
        {
          "name": "D6",
          "midi": 86,
          "time": 13.684189999999981,
          "velocity": 0.7874015748031497,
          "duration": 0.0010964895833325272
        },
        {
          "name": "C#7",
          "midi": 97,
          "time": 13.684189999999981,
          "velocity": 0.7874015748031497,
          "duration": 0.0010964895833325272
        },
        {
          "name": "D7",
          "midi": 98,
          "time": 13.684189999999981,
          "velocity": 0.7874015748031497,
          "duration": 0.0010964895833325272
        },
        {
          "name": "C5",
          "midi": 72,
          "time": 14.21050499999998,
          "velocity": 0.7874015748031497,
          "duration": 0.0010964895833325272
        },
        {
          "name": "C6",
          "midi": 84,
          "time": 14.21050499999998,
          "velocity": 0.7874015748031497,
          "duration": 0.0010964895833325272
        },
        {
          "name": "C7",
          "midi": 96,
          "time": 14.21050499999998,
          "velocity": 0.7874015748031497,
          "duration": 0.0010964895833325272
        },
        {
          "name": "C6",
          "midi": 84,
          "time": 14.474758989583313,
          "velocity": 0.7874015748031497,
          "duration": 0.0010964895833325272
        },
        {
          "name": "C7",
          "midi": 96,
          "time": 14.474758989583313,
          "velocity": 0.7874015748031497,
          "duration": 0.0010964895833325272
        },
        {
          "name": "C#4",
          "midi": 61,
          "time": 14.736819999999978,
          "velocity": 0.7874015748031497,
          "duration": 0.0010964895833325272
        },
        {
          "name": "C#5",
          "midi": 73,
          "time": 14.736819999999978,
          "velocity": 0.7874015748031497,
          "duration": 0.0010964895833325272
        },
        {
          "name": "D5",
          "midi": 74,
          "time": 14.736819999999978,
          "velocity": 0.7874015748031497,
          "duration": 0.0010964895833325272
        },
        {
          "name": "C#6",
          "midi": 85,
          "time": 14.736819999999978,
          "velocity": 0.7874015748031497,
          "duration": 0.0010964895833325272
        },
        {
          "name": "D6",
          "midi": 86,
          "time": 14.736819999999978,
          "velocity": 0.7874015748031497,
          "duration": 0.0010964895833325272
        },
        {
          "name": "C#7",
          "midi": 97,
          "time": 14.736819999999978,
          "velocity": 0.7874015748031497,
          "duration": 0.0010964895833325272
        },
        {
          "name": "D7",
          "midi": 98,
          "time": 14.736819999999978,
          "velocity": 0.7874015748031497,
          "duration": 0.0010964895833325272
        },
        {
          "name": "C5",
          "midi": 72,
          "time": 15.263134999999977,
          "velocity": 0.7874015748031497,
          "duration": 0.0010964895833325272
        },
        {
          "name": "C6",
          "midi": 84,
          "time": 15.263134999999977,
          "velocity": 0.7874015748031497,
          "duration": 0.0010964895833325272
        },
        {
          "name": "C7",
          "midi": 96,
          "time": 15.263134999999977,
          "velocity": 0.7874015748031497,
          "duration": 0.0010964895833325272
        },
        {
          "name": "C#4",
          "midi": 61,
          "time": 15.52738898958331,
          "velocity": 0.7874015748031497,
          "duration": 0.0010964895833325272
        },
        {
          "name": "C#5",
          "midi": 73,
          "time": 15.52738898958331,
          "velocity": 0.7874015748031497,
          "duration": 0.0010964895833325272
        },
        {
          "name": "D5",
          "midi": 74,
          "time": 15.52738898958331,
          "velocity": 0.7874015748031497,
          "duration": 0.0010964895833325272
        },
        {
          "name": "C#6",
          "midi": 85,
          "time": 15.52738898958331,
          "velocity": 0.7874015748031497,
          "duration": 0.0010964895833325272
        },
        {
          "name": "D6",
          "midi": 86,
          "time": 15.52738898958331,
          "velocity": 0.7874015748031497,
          "duration": 0.0010964895833325272
        },
        {
          "name": "C#7",
          "midi": 97,
          "time": 15.52738898958331,
          "velocity": 0.7874015748031497,
          "duration": 0.0010964895833325272
        },
        {
          "name": "D7",
          "midi": 98,
          "time": 15.52738898958331,
          "velocity": 0.7874015748031497,
          "duration": 0.0010964895833325272
        },
        {
          "name": "C#4",
          "midi": 61,
          "time": 16.05480047916664,
          "velocity": 0.7874015748031497,
          "duration": 0.0010964895833325272
        },
        {
          "name": "C#5",
          "midi": 73,
          "time": 16.05480047916664,
          "velocity": 0.7874015748031497,
          "duration": 0.0010964895833325272
        },
        {
          "name": "D5",
          "midi": 74,
          "time": 16.05480047916664,
          "velocity": 0.7874015748031497,
          "duration": 0.0010964895833325272
        },
        {
          "name": "C#6",
          "midi": 85,
          "time": 16.05480047916664,
          "velocity": 0.7874015748031497,
          "duration": 0.0010964895833325272
        },
        {
          "name": "D6",
          "midi": 86,
          "time": 16.05480047916664,
          "velocity": 0.7874015748031497,
          "duration": 0.0010964895833325272
        },
        {
          "name": "C#7",
          "midi": 97,
          "time": 16.05480047916664,
          "velocity": 0.7874015748031497,
          "duration": 0.0010964895833325272
        },
        {
          "name": "D7",
          "midi": 98,
          "time": 16.05480047916664,
          "velocity": 0.7874015748031497,
          "duration": 0.0010964895833325272
        },
        {
          "name": "C#4",
          "midi": 61,
          "time": 16.578922499999972,
          "velocity": 0.7874015748031497,
          "duration": 0.0010964895833325272
        },
        {
          "name": "C#5",
          "midi": 73,
          "time": 16.578922499999972,
          "velocity": 0.7874015748031497,
          "duration": 0.0010964895833325272
        },
        {
          "name": "D5",
          "midi": 74,
          "time": 16.578922499999972,
          "velocity": 0.7874015748031497,
          "duration": 0.0010964895833325272
        },
        {
          "name": "C#6",
          "midi": 85,
          "time": 16.578922499999972,
          "velocity": 0.7874015748031497,
          "duration": 0.0010964895833325272
        },
        {
          "name": "D6",
          "midi": 86,
          "time": 16.578922499999972,
          "velocity": 0.7874015748031497,
          "duration": 0.0010964895833325272
        },
        {
          "name": "C#7",
          "midi": 97,
          "time": 16.578922499999972,
          "velocity": 0.7874015748031497,
          "duration": 0.0010964895833325272
        },
        {
          "name": "D7",
          "midi": 98,
          "time": 16.578922499999972,
          "velocity": 0.7874015748031497,
          "duration": 0.0010964895833325272
        },
        {
          "name": "C5",
          "midi": 72,
          "time": 17.105237499999973,
          "velocity": 0.7874015748031497,
          "duration": 0.0010964895833325272
        },
        {
          "name": "C6",
          "midi": 84,
          "time": 17.105237499999973,
          "velocity": 0.7874015748031497,
          "duration": 0.0010964895833325272
        },
        {
          "name": "C7",
          "midi": 96,
          "time": 17.105237499999973,
          "velocity": 0.7874015748031497,
          "duration": 0.0010964895833325272
        },
        {
          "name": "C#4",
          "midi": 61,
          "time": 17.36839499999997,
          "velocity": 0.7874015748031497,
          "duration": 0.0010964895833325272
        },
        {
          "name": "C#5",
          "midi": 73,
          "time": 17.36839499999997,
          "velocity": 0.7874015748031497,
          "duration": 0.0010964895833325272
        },
        {
          "name": "D5",
          "midi": 74,
          "time": 17.36839499999997,
          "velocity": 0.7874015748031497,
          "duration": 0.0010964895833325272
        },
        {
          "name": "C#6",
          "midi": 85,
          "time": 17.36839499999997,
          "velocity": 0.7874015748031497,
          "duration": 0.0010964895833325272
        },
        {
          "name": "D6",
          "midi": 86,
          "time": 17.36839499999997,
          "velocity": 0.7874015748031497,
          "duration": 0.0010964895833325272
        },
        {
          "name": "C#7",
          "midi": 97,
          "time": 17.36839499999997,
          "velocity": 0.7874015748031497,
          "duration": 0.0010964895833325272
        },
        {
          "name": "D7",
          "midi": 98,
          "time": 17.36839499999997,
          "velocity": 0.7874015748031497,
          "duration": 0.0010964895833325272
        },
        {
          "name": "C#4",
          "midi": 61,
          "time": 17.89470999999997,
          "velocity": 0.7874015748031497,
          "duration": 0.0010964895833325272
        },
        {
          "name": "C#5",
          "midi": 73,
          "time": 17.89470999999997,
          "velocity": 0.7874015748031497,
          "duration": 0.0010964895833325272
        },
        {
          "name": "D5",
          "midi": 74,
          "time": 17.89470999999997,
          "velocity": 0.7874015748031497,
          "duration": 0.0010964895833325272
        },
        {
          "name": "C#6",
          "midi": 85,
          "time": 17.89470999999997,
          "velocity": 0.7874015748031497,
          "duration": 0.0010964895833325272
        },
        {
          "name": "D6",
          "midi": 86,
          "time": 17.89470999999997,
          "velocity": 0.7874015748031497,
          "duration": 0.0010964895833325272
        },
        {
          "name": "C#7",
          "midi": 97,
          "time": 17.89470999999997,
          "velocity": 0.7874015748031497,
          "duration": 0.0010964895833325272
        },
        {
          "name": "D7",
          "midi": 98,
          "time": 17.89470999999997,
          "velocity": 0.7874015748031497,
          "duration": 0.0010964895833325272
        },
        {
          "name": "C#4",
          "midi": 61,
          "time": 18.421024999999972,
          "velocity": 0.7874015748031497,
          "duration": 0.0010964895833325272
        },
        {
          "name": "C#5",
          "midi": 73,
          "time": 18.421024999999972,
          "velocity": 0.7874015748031497,
          "duration": 0.0010964895833325272
        },
        {
          "name": "D5",
          "midi": 74,
          "time": 18.421024999999972,
          "velocity": 0.7874015748031497,
          "duration": 0.0010964895833325272
        },
        {
          "name": "C#6",
          "midi": 85,
          "time": 18.421024999999972,
          "velocity": 0.7874015748031497,
          "duration": 0.0010964895833325272
        },
        {
          "name": "D6",
          "midi": 86,
          "time": 18.421024999999972,
          "velocity": 0.7874015748031497,
          "duration": 0.0010964895833325272
        },
        {
          "name": "C#7",
          "midi": 97,
          "time": 18.421024999999972,
          "velocity": 0.7874015748031497,
          "duration": 0.0010964895833325272
        },
        {
          "name": "D7",
          "midi": 98,
          "time": 18.421024999999972,
          "velocity": 0.7874015748031497,
          "duration": 0.0010964895833325272
        },
        {
          "name": "C#4",
          "midi": 61,
          "time": 18.947339999999972,
          "velocity": 0.7874015748031497,
          "duration": 0.0010964895833325272
        },
        {
          "name": "C#5",
          "midi": 73,
          "time": 18.947339999999972,
          "velocity": 0.7874015748031497,
          "duration": 0.0010964895833325272
        },
        {
          "name": "D5",
          "midi": 74,
          "time": 18.947339999999972,
          "velocity": 0.7874015748031497,
          "duration": 0.0010964895833325272
        },
        {
          "name": "C#6",
          "midi": 85,
          "time": 18.947339999999972,
          "velocity": 0.7874015748031497,
          "duration": 0.0010964895833325272
        },
        {
          "name": "D6",
          "midi": 86,
          "time": 18.947339999999972,
          "velocity": 0.7874015748031497,
          "duration": 0.0010964895833325272
        },
        {
          "name": "C#7",
          "midi": 97,
          "time": 18.947339999999972,
          "velocity": 0.7874015748031497,
          "duration": 0.0010964895833325272
        },
        {
          "name": "D7",
          "midi": 98,
          "time": 18.947339999999972,
          "velocity": 0.7874015748031497,
          "duration": 0.0010964895833325272
        },
        {
          "name": "C5",
          "midi": 72,
          "time": 19.473654999999972,
          "velocity": 0.7874015748031497,
          "duration": 0.0010964895833325272
        },
        {
          "name": "C6",
          "midi": 84,
          "time": 19.473654999999972,
          "velocity": 0.7874015748031497,
          "duration": 0.0010964895833325272
        },
        {
          "name": "C7",
          "midi": 96,
          "time": 19.473654999999972,
          "velocity": 0.7874015748031497,
          "duration": 0.0010964895833325272
        },
        {
          "name": "C6",
          "midi": 84,
          "time": 19.73571601041664,
          "velocity": 0.7874015748031497,
          "duration": 0.0010964895833325272
        },
        {
          "name": "C7",
          "midi": 96,
          "time": 19.73571601041664,
          "velocity": 0.7874015748031497,
          "duration": 0.0010964895833325272
        },
        {
          "name": "C#4",
          "midi": 61,
          "time": 19.99996999999997,
          "velocity": 0.7874015748031497,
          "duration": 0.0010964895833325272
        },
        {
          "name": "C#5",
          "midi": 73,
          "time": 19.99996999999997,
          "velocity": 0.7874015748031497,
          "duration": 0.0010964895833325272
        },
        {
          "name": "D5",
          "midi": 74,
          "time": 19.99996999999997,
          "velocity": 0.7874015748031497,
          "duration": 0.0010964895833325272
        },
        {
          "name": "C#6",
          "midi": 85,
          "time": 19.99996999999997,
          "velocity": 0.7874015748031497,
          "duration": 0.0010964895833325272
        },
        {
          "name": "D6",
          "midi": 86,
          "time": 19.99996999999997,
          "velocity": 0.7874015748031497,
          "duration": 0.0010964895833325272
        },
        {
          "name": "C#7",
          "midi": 97,
          "time": 19.99996999999997,
          "velocity": 0.7874015748031497,
          "duration": 0.0010964895833325272
        },
        {
          "name": "D7",
          "midi": 98,
          "time": 19.99996999999997,
          "velocity": 0.7874015748031497,
          "duration": 0.0010964895833325272
        },
        {
          "name": "C5",
          "midi": 72,
          "time": 20.52628499999997,
          "velocity": 0.7874015748031497,
          "duration": 0.0010964895833325272
        },
        {
          "name": "C6",
          "midi": 84,
          "time": 20.52628499999997,
          "velocity": 0.7874015748031497,
          "duration": 0.0010964895833325272
        },
        {
          "name": "C7",
          "midi": 96,
          "time": 20.52628499999997,
          "velocity": 0.7874015748031497,
          "duration": 0.0010964895833325272
        },
        {
          "name": "C#4",
          "midi": 61,
          "time": 20.854135385416637,
          "velocity": 0.7874015748031497,
          "duration": 0.0010964895833325272
        },
        {
          "name": "C#5",
          "midi": 73,
          "time": 20.854135385416637,
          "velocity": 0.7874015748031497,
          "duration": 0.0010964895833325272
        },
        {
          "name": "D5",
          "midi": 74,
          "time": 20.854135385416637,
          "velocity": 0.7874015748031497,
          "duration": 0.0010964895833325272
        },
        {
          "name": "C#6",
          "midi": 85,
          "time": 20.854135385416637,
          "velocity": 0.7874015748031497,
          "duration": 0.0010964895833325272
        },
        {
          "name": "D6",
          "midi": 86,
          "time": 20.854135385416637,
          "velocity": 0.7874015748031497,
          "duration": 0.0010964895833325272
        },
        {
          "name": "C#7",
          "midi": 97,
          "time": 20.854135385416637,
          "velocity": 0.7874015748031497,
          "duration": 0.0010964895833325272
        },
        {
          "name": "D7",
          "midi": 98,
          "time": 20.854135385416637,
          "velocity": 0.7874015748031497,
          "duration": 0.0010964895833325272
        },
        {
          "name": "C#4",
          "midi": 61,
          "time": 21.314661010416636,
          "velocity": 0.7874015748031497,
          "duration": 0.0010964895833325272
        },
        {
          "name": "C#5",
          "midi": 73,
          "time": 21.314661010416636,
          "velocity": 0.7874015748031497,
          "duration": 0.0010964895833325272
        },
        {
          "name": "D5",
          "midi": 74,
          "time": 21.314661010416636,
          "velocity": 0.7874015748031497,
          "duration": 0.0010964895833325272
        },
        {
          "name": "C#6",
          "midi": 85,
          "time": 21.314661010416636,
          "velocity": 0.7874015748031497,
          "duration": 0.0010964895833325272
        },
        {
          "name": "D6",
          "midi": 86,
          "time": 21.314661010416636,
          "velocity": 0.7874015748031497,
          "duration": 0.0010964895833325272
        },
        {
          "name": "C#7",
          "midi": 97,
          "time": 21.314661010416636,
          "velocity": 0.7874015748031497,
          "duration": 0.0010964895833325272
        },
        {
          "name": "D7",
          "midi": 98,
          "time": 21.314661010416636,
          "velocity": 0.7874015748031497,
          "duration": 0.0010964895833325272
        },
        {
          "name": "C#4",
          "midi": 61,
          "time": 21.840976010416636,
          "velocity": 0.7874015748031497,
          "duration": 0.0010964895833325272
        },
        {
          "name": "C#5",
          "midi": 73,
          "time": 21.840976010416636,
          "velocity": 0.7874015748031497,
          "duration": 0.0010964895833325272
        },
        {
          "name": "D5",
          "midi": 74,
          "time": 21.840976010416636,
          "velocity": 0.7874015748031497,
          "duration": 0.0010964895833325272
        },
        {
          "name": "C#6",
          "midi": 85,
          "time": 21.840976010416636,
          "velocity": 0.7874015748031497,
          "duration": 0.0010964895833325272
        },
        {
          "name": "D6",
          "midi": 86,
          "time": 21.840976010416636,
          "velocity": 0.7874015748031497,
          "duration": 0.0010964895833325272
        },
        {
          "name": "C#7",
          "midi": 97,
          "time": 21.840976010416636,
          "velocity": 0.7874015748031497,
          "duration": 0.0010964895833325272
        },
        {
          "name": "D7",
          "midi": 98,
          "time": 21.840976010416636,
          "velocity": 0.7874015748031497,
          "duration": 0.0010964895833325272
        },
        {
          "name": "G#8",
          "midi": 116,
          "time": 22.367291010416636,
          "velocity": 0.7874015748031497,
          "duration": 1.9067953854166646
        },
        {
          "name": "C5",
          "midi": 72,
          "time": 22.367291010416636,
          "velocity": 0.7874015748031497,
          "duration": 0.0010964895833325272
        },
        {
          "name": "C6",
          "midi": 84,
          "time": 22.367291010416636,
          "velocity": 0.7874015748031497,
          "duration": 0.0010964895833325272
        },
        {
          "name": "C7",
          "midi": 96,
          "time": 22.367291010416636,
          "velocity": 0.7874015748031497,
          "duration": 0.0010964895833325272
        },
        {
          "name": "C#4",
          "midi": 61,
          "time": 22.631544999999967,
          "velocity": 0.7874015748031497,
          "duration": 0.0010964895833325272
        },
        {
          "name": "C#5",
          "midi": 73,
          "time": 22.631544999999967,
          "velocity": 0.7874015748031497,
          "duration": 0.0010964895833325272
        },
        {
          "name": "D5",
          "midi": 74,
          "time": 22.631544999999967,
          "velocity": 0.7874015748031497,
          "duration": 0.0010964895833325272
        },
        {
          "name": "C#6",
          "midi": 85,
          "time": 22.631544999999967,
          "velocity": 0.7874015748031497,
          "duration": 0.0010964895833325272
        },
        {
          "name": "D6",
          "midi": 86,
          "time": 22.631544999999967,
          "velocity": 0.7874015748031497,
          "duration": 0.0010964895833325272
        },
        {
          "name": "C#7",
          "midi": 97,
          "time": 22.631544999999967,
          "velocity": 0.7874015748031497,
          "duration": 0.0010964895833325272
        },
        {
          "name": "D7",
          "midi": 98,
          "time": 22.631544999999967,
          "velocity": 0.7874015748031497,
          "duration": 0.0010964895833325272
        },
        {
          "name": "C#4",
          "midi": 61,
          "time": 23.157859999999967,
          "velocity": 0.7874015748031497,
          "duration": 0.0010964895833325272
        },
        {
          "name": "C#5",
          "midi": 73,
          "time": 23.157859999999967,
          "velocity": 0.7874015748031497,
          "duration": 0.0010964895833325272
        },
        {
          "name": "D5",
          "midi": 74,
          "time": 23.157859999999967,
          "velocity": 0.7874015748031497,
          "duration": 0.0010964895833325272
        },
        {
          "name": "C#6",
          "midi": 85,
          "time": 23.157859999999967,
          "velocity": 0.7874015748031497,
          "duration": 0.0010964895833325272
        },
        {
          "name": "D6",
          "midi": 86,
          "time": 23.157859999999967,
          "velocity": 0.7874015748031497,
          "duration": 0.0010964895833325272
        },
        {
          "name": "C#7",
          "midi": 97,
          "time": 23.157859999999967,
          "velocity": 0.7874015748031497,
          "duration": 0.0010964895833325272
        },
        {
          "name": "D7",
          "midi": 98,
          "time": 23.157859999999967,
          "velocity": 0.7874015748031497,
          "duration": 0.0010964895833325272
        },
        {
          "name": "C#4",
          "midi": 61,
          "time": 23.684174999999968,
          "velocity": 0.7874015748031497,
          "duration": 0.0010964895833325272
        },
        {
          "name": "C#5",
          "midi": 73,
          "time": 23.684174999999968,
          "velocity": 0.7874015748031497,
          "duration": 0.0010964895833325272
        },
        {
          "name": "D5",
          "midi": 74,
          "time": 23.684174999999968,
          "velocity": 0.7874015748031497,
          "duration": 0.0010964895833325272
        },
        {
          "name": "C#6",
          "midi": 85,
          "time": 23.684174999999968,
          "velocity": 0.7874015748031497,
          "duration": 0.0010964895833325272
        },
        {
          "name": "D6",
          "midi": 86,
          "time": 23.684174999999968,
          "velocity": 0.7874015748031497,
          "duration": 0.0010964895833325272
        },
        {
          "name": "C#7",
          "midi": 97,
          "time": 23.684174999999968,
          "velocity": 0.7874015748031497,
          "duration": 0.0010964895833325272
        },
        {
          "name": "D7",
          "midi": 98,
          "time": 23.684174999999968,
          "velocity": 0.7874015748031497,
          "duration": 0.0010964895833325272
        },
        {
          "name": "C#4",
          "midi": 61,
          "time": 24.210489999999968,
          "velocity": 0.7874015748031497,
          "duration": 0.0010964895833325272
        },
        {
          "name": "C#5",
          "midi": 73,
          "time": 24.210489999999968,
          "velocity": 0.7874015748031497,
          "duration": 0.0010964895833325272
        },
        {
          "name": "D5",
          "midi": 74,
          "time": 24.210489999999968,
          "velocity": 0.7874015748031497,
          "duration": 0.0010964895833325272
        },
        {
          "name": "C#6",
          "midi": 85,
          "time": 24.210489999999968,
          "velocity": 0.7874015748031497,
          "duration": 0.0010964895833325272
        },
        {
          "name": "D6",
          "midi": 86,
          "time": 24.210489999999968,
          "velocity": 0.7874015748031497,
          "duration": 0.0010964895833325272
        },
        {
          "name": "C#7",
          "midi": 97,
          "time": 24.210489999999968,
          "velocity": 0.7874015748031497,
          "duration": 0.0010964895833325272
        },
        {
          "name": "D7",
          "midi": 98,
          "time": 24.210489999999968,
          "velocity": 0.7874015748031497,
          "duration": 0.0010964895833325272
        },
        {
          "name": "C5",
          "midi": 72,
          "time": 24.73680499999997,
          "velocity": 0.7874015748031497,
          "duration": 0.0010964895833325272
        },
        {
          "name": "C6",
          "midi": 84,
          "time": 24.73680499999997,
          "velocity": 0.7874015748031497,
          "duration": 0.0010964895833325272
        },
        {
          "name": "C7",
          "midi": 96,
          "time": 24.73680499999997,
          "velocity": 0.7874015748031497,
          "duration": 0.0010964895833325272
        },
        {
          "name": "C6",
          "midi": 84,
          "time": 25.0010589895833,
          "velocity": 0.7874015748031497,
          "duration": 0.0010964895833325272
        },
        {
          "name": "C7",
          "midi": 96,
          "time": 25.0010589895833,
          "velocity": 0.7874015748031497,
          "duration": 0.0010964895833325272
        },
        {
          "name": "C#4",
          "midi": 61,
          "time": 25.263119999999965,
          "velocity": 0.7874015748031497,
          "duration": 0.0010964895833325272
        },
        {
          "name": "C#5",
          "midi": 73,
          "time": 25.263119999999965,
          "velocity": 0.7874015748031497,
          "duration": 0.0010964895833325272
        },
        {
          "name": "D5",
          "midi": 74,
          "time": 25.263119999999965,
          "velocity": 0.7874015748031497,
          "duration": 0.0010964895833325272
        },
        {
          "name": "C#6",
          "midi": 85,
          "time": 25.263119999999965,
          "velocity": 0.7874015748031497,
          "duration": 0.0010964895833325272
        },
        {
          "name": "D6",
          "midi": 86,
          "time": 25.263119999999965,
          "velocity": 0.7874015748031497,
          "duration": 0.0010964895833325272
        },
        {
          "name": "C#7",
          "midi": 97,
          "time": 25.263119999999965,
          "velocity": 0.7874015748031497,
          "duration": 0.0010964895833325272
        },
        {
          "name": "D7",
          "midi": 98,
          "time": 25.263119999999965,
          "velocity": 0.7874015748031497,
          "duration": 0.0010964895833325272
        },
        {
          "name": "C5",
          "midi": 72,
          "time": 25.789434999999965,
          "velocity": 0.7874015748031497,
          "duration": 0.0010964895833325272
        },
        {
          "name": "C6",
          "midi": 84,
          "time": 25.789434999999965,
          "velocity": 0.7874015748031497,
          "duration": 0.0010964895833325272
        },
        {
          "name": "C7",
          "midi": 96,
          "time": 25.789434999999965,
          "velocity": 0.7874015748031497,
          "duration": 0.0010964895833325272
        },
        {
          "name": "C#4",
          "midi": 61,
          "time": 26.119478364583298,
          "velocity": 0.7874015748031497,
          "duration": 0.0010964895833325272
        },
        {
          "name": "C#5",
          "midi": 73,
          "time": 26.119478364583298,
          "velocity": 0.7874015748031497,
          "duration": 0.0010964895833325272
        },
        {
          "name": "D5",
          "midi": 74,
          "time": 26.119478364583298,
          "velocity": 0.7874015748031497,
          "duration": 0.0010964895833325272
        },
        {
          "name": "C#6",
          "midi": 85,
          "time": 26.119478364583298,
          "velocity": 0.7874015748031497,
          "duration": 0.0010964895833325272
        },
        {
          "name": "D6",
          "midi": 86,
          "time": 26.119478364583298,
          "velocity": 0.7874015748031497,
          "duration": 0.0010964895833325272
        },
        {
          "name": "C#7",
          "midi": 97,
          "time": 26.119478364583298,
          "velocity": 0.7874015748031497,
          "duration": 0.0010964895833325272
        },
        {
          "name": "D7",
          "midi": 98,
          "time": 26.119478364583298,
          "velocity": 0.7874015748031497,
          "duration": 0.0010964895833325272
        },
        {
          "name": "C#4",
          "midi": 61,
          "time": 26.645793364583298,
          "velocity": 0.7874015748031497,
          "duration": 0.0010964895833325272
        },
        {
          "name": "C#5",
          "midi": 73,
          "time": 26.645793364583298,
          "velocity": 0.7874015748031497,
          "duration": 0.0010964895833325272
        },
        {
          "name": "D5",
          "midi": 74,
          "time": 26.645793364583298,
          "velocity": 0.7874015748031497,
          "duration": 0.0010964895833325272
        },
        {
          "name": "C#6",
          "midi": 85,
          "time": 26.645793364583298,
          "velocity": 0.7874015748031497,
          "duration": 0.0010964895833325272
        },
        {
          "name": "D6",
          "midi": 86,
          "time": 26.645793364583298,
          "velocity": 0.7874015748031497,
          "duration": 0.0010964895833325272
        },
        {
          "name": "C#7",
          "midi": 97,
          "time": 26.645793364583298,
          "velocity": 0.7874015748031497,
          "duration": 0.0010964895833325272
        },
        {
          "name": "D7",
          "midi": 98,
          "time": 26.645793364583298,
          "velocity": 0.7874015748031497,
          "duration": 0.0010964895833325272
        },
        {
          "name": "C#4",
          "midi": 61,
          "time": 27.105222499999964,
          "velocity": 0.7874015748031497,
          "duration": 0.0010964895833325272
        },
        {
          "name": "C#5",
          "midi": 73,
          "time": 27.105222499999964,
          "velocity": 0.7874015748031497,
          "duration": 0.0010964895833325272
        },
        {
          "name": "D5",
          "midi": 74,
          "time": 27.105222499999964,
          "velocity": 0.7874015748031497,
          "duration": 0.0010964895833325272
        },
        {
          "name": "C#6",
          "midi": 85,
          "time": 27.105222499999964,
          "velocity": 0.7874015748031497,
          "duration": 0.0010964895833325272
        },
        {
          "name": "D6",
          "midi": 86,
          "time": 27.105222499999964,
          "velocity": 0.7874015748031497,
          "duration": 0.0010964895833325272
        },
        {
          "name": "C#7",
          "midi": 97,
          "time": 27.105222499999964,
          "velocity": 0.7874015748031497,
          "duration": 0.0010964895833325272
        },
        {
          "name": "D7",
          "midi": 98,
          "time": 27.105222499999964,
          "velocity": 0.7874015748031497,
          "duration": 0.0010964895833325272
        },
        {
          "name": "C5",
          "midi": 72,
          "time": 27.631537499999965,
          "velocity": 0.7874015748031497,
          "duration": 0.0010964895833325272
        },
        {
          "name": "C6",
          "midi": 84,
          "time": 27.631537499999965,
          "velocity": 0.7874015748031497,
          "duration": 0.0010964895833325272
        },
        {
          "name": "C7",
          "midi": 96,
          "time": 27.631537499999965,
          "velocity": 0.7874015748031497,
          "duration": 0.0010964895833325272
        },
        {
          "name": "C#4",
          "midi": 61,
          "time": 27.894694999999963,
          "velocity": 0.7874015748031497,
          "duration": 0.0010964895833325272
        },
        {
          "name": "C#5",
          "midi": 73,
          "time": 27.894694999999963,
          "velocity": 0.7874015748031497,
          "duration": 0.0010964895833325272
        },
        {
          "name": "D5",
          "midi": 74,
          "time": 27.894694999999963,
          "velocity": 0.7874015748031497,
          "duration": 0.0010964895833325272
        },
        {
          "name": "C#6",
          "midi": 85,
          "time": 27.894694999999963,
          "velocity": 0.7874015748031497,
          "duration": 0.0010964895833325272
        },
        {
          "name": "D6",
          "midi": 86,
          "time": 27.894694999999963,
          "velocity": 0.7874015748031497,
          "duration": 0.0010964895833325272
        },
        {
          "name": "C#7",
          "midi": 97,
          "time": 27.894694999999963,
          "velocity": 0.7874015748031497,
          "duration": 0.0010964895833325272
        },
        {
          "name": "D7",
          "midi": 98,
          "time": 27.894694999999963,
          "velocity": 0.7874015748031497,
          "duration": 0.0010964895833325272
        },
        {
          "name": "C#4",
          "midi": 61,
          "time": 28.421009999999963,
          "velocity": 0.7874015748031497,
          "duration": 0.0010964895833325272
        },
        {
          "name": "C#5",
          "midi": 73,
          "time": 28.421009999999963,
          "velocity": 0.7874015748031497,
          "duration": 0.0010964895833325272
        },
        {
          "name": "D5",
          "midi": 74,
          "time": 28.421009999999963,
          "velocity": 0.7874015748031497,
          "duration": 0.0010964895833325272
        },
        {
          "name": "C#6",
          "midi": 85,
          "time": 28.421009999999963,
          "velocity": 0.7874015748031497,
          "duration": 0.0010964895833325272
        },
        {
          "name": "D6",
          "midi": 86,
          "time": 28.421009999999963,
          "velocity": 0.7874015748031497,
          "duration": 0.0010964895833325272
        },
        {
          "name": "C#7",
          "midi": 97,
          "time": 28.421009999999963,
          "velocity": 0.7874015748031497,
          "duration": 0.0010964895833325272
        },
        {
          "name": "D7",
          "midi": 98,
          "time": 28.421009999999963,
          "velocity": 0.7874015748031497,
          "duration": 0.0010964895833325272
        },
        {
          "name": "C#4",
          "midi": 61,
          "time": 28.947324999999964,
          "velocity": 0.7874015748031497,
          "duration": 0.0010964895833325272
        },
        {
          "name": "C#5",
          "midi": 73,
          "time": 28.947324999999964,
          "velocity": 0.7874015748031497,
          "duration": 0.0010964895833325272
        },
        {
          "name": "D5",
          "midi": 74,
          "time": 28.947324999999964,
          "velocity": 0.7874015748031497,
          "duration": 0.0010964895833325272
        },
        {
          "name": "C#6",
          "midi": 85,
          "time": 28.947324999999964,
          "velocity": 0.7874015748031497,
          "duration": 0.0010964895833325272
        },
        {
          "name": "D6",
          "midi": 86,
          "time": 28.947324999999964,
          "velocity": 0.7874015748031497,
          "duration": 0.0010964895833325272
        },
        {
          "name": "C#7",
          "midi": 97,
          "time": 28.947324999999964,
          "velocity": 0.7874015748031497,
          "duration": 0.0010964895833325272
        },
        {
          "name": "D7",
          "midi": 98,
          "time": 28.947324999999964,
          "velocity": 0.7874015748031497,
          "duration": 0.0010964895833325272
        },
        {
          "name": "C#4",
          "midi": 61,
          "time": 29.473639999999964,
          "velocity": 0.7874015748031497,
          "duration": 0.0010964895833325272
        },
        {
          "name": "C#5",
          "midi": 73,
          "time": 29.473639999999964,
          "velocity": 0.7874015748031497,
          "duration": 0.0010964895833325272
        },
        {
          "name": "D5",
          "midi": 74,
          "time": 29.473639999999964,
          "velocity": 0.7874015748031497,
          "duration": 0.0010964895833325272
        },
        {
          "name": "C#6",
          "midi": 85,
          "time": 29.473639999999964,
          "velocity": 0.7874015748031497,
          "duration": 0.0010964895833325272
        },
        {
          "name": "D6",
          "midi": 86,
          "time": 29.473639999999964,
          "velocity": 0.7874015748031497,
          "duration": 0.0010964895833325272
        },
        {
          "name": "C#7",
          "midi": 97,
          "time": 29.473639999999964,
          "velocity": 0.7874015748031497,
          "duration": 0.0010964895833325272
        },
        {
          "name": "D7",
          "midi": 98,
          "time": 29.473639999999964,
          "velocity": 0.7874015748031497,
          "duration": 0.0010964895833325272
        },
        {
          "name": "C#4",
          "midi": 61,
          "time": 29.999954999999964,
          "velocity": 0.7874015748031497,
          "duration": 0.0010964895833325272
        },
        {
          "name": "C#5",
          "midi": 73,
          "time": 29.999954999999964,
          "velocity": 0.7874015748031497,
          "duration": 0.0010964895833325272
        },
        {
          "name": "C#6",
          "midi": 85,
          "time": 29.999954999999964,
          "velocity": 0.7874015748031497,
          "duration": 0.0010964895833325272
        },
        {
          "name": "C#7",
          "midi": 97,
          "time": 29.999954999999964,
          "velocity": 0.7874015748031497,
          "duration": 0.0010964895833325272
        },
        {
          "name": "C#7",
          "midi": 97,
          "time": 30.131533749999964,
          "velocity": 0.7874015748031497,
          "duration": 0.0010964895833325272
        },
        {
          "name": "C#5",
          "midi": 73,
          "time": 30.264208989583295,
          "velocity": 0.7874015748031497,
          "duration": 0.0010964895833325272
        },
        {
          "name": "C#6",
          "midi": 85,
          "time": 30.264208989583295,
          "velocity": 0.7874015748031497,
          "duration": 0.0010964895833325272
        },
        {
          "name": "C#7",
          "midi": 97,
          "time": 30.264208989583295,
          "velocity": 0.7874015748031497,
          "duration": 0.0010964895833325272
        },
        {
          "name": "C#7",
          "midi": 97,
          "time": 30.394691249999962,
          "velocity": 0.7874015748031497,
          "duration": 0.0010964895833325272
        },
        {
          "name": "E4",
          "midi": 64,
          "time": 30.52626999999996,
          "velocity": 0.7874015748031497,
          "duration": 0.0010964895833325272
        },
        {
          "name": "C5",
          "midi": 72,
          "time": 30.52626999999996,
          "velocity": 0.7874015748031497,
          "duration": 0.0010964895833325272
        },
        {
          "name": "E5",
          "midi": 76,
          "time": 30.52626999999996,
          "velocity": 0.7874015748031497,
          "duration": 0.0010964895833325272
        },
        {
          "name": "C6",
          "midi": 84,
          "time": 30.52626999999996,
          "velocity": 0.7874015748031497,
          "duration": 0.0010964895833325272
        },
        {
          "name": "E6",
          "midi": 88,
          "time": 30.52626999999996,
          "velocity": 0.7874015748031497,
          "duration": 0.0010964895833325272
        },
        {
          "name": "C7",
          "midi": 96,
          "time": 30.52626999999996,
          "velocity": 0.7874015748031497,
          "duration": 0.0010964895833325272
        },
        {
          "name": "E7",
          "midi": 100,
          "time": 30.52626999999996,
          "velocity": 0.7874015748031497,
          "duration": 0.0010964895833325272
        },
        {
          "name": "C5",
          "midi": 72,
          "time": 31.05258499999996,
          "velocity": 0.7874015748031497,
          "duration": 0.0010964895833325272
        },
        {
          "name": "C6",
          "midi": 84,
          "time": 31.05258499999996,
          "velocity": 0.7874015748031497,
          "duration": 0.0010964895833325272
        },
        {
          "name": "C7",
          "midi": 96,
          "time": 31.05258499999996,
          "velocity": 0.7874015748031497,
          "duration": 0.0010964895833325272
        },
        {
          "name": "C#4",
          "midi": 61,
          "time": 31.314646010416627,
          "velocity": 0.7874015748031497,
          "duration": 0.0010964895833325272
        },
        {
          "name": "C#5",
          "midi": 73,
          "time": 31.314646010416627,
          "velocity": 0.7874015748031497,
          "duration": 0.0010964895833325272
        },
        {
          "name": "D5",
          "midi": 74,
          "time": 31.314646010416627,
          "velocity": 0.7874015748031497,
          "duration": 0.0010964895833325272
        },
        {
          "name": "C#6",
          "midi": 85,
          "time": 31.314646010416627,
          "velocity": 0.7874015748031497,
          "duration": 0.0010964895833325272
        },
        {
          "name": "D6",
          "midi": 86,
          "time": 31.314646010416627,
          "velocity": 0.7874015748031497,
          "duration": 0.0010964895833325272
        },
        {
          "name": "C#7",
          "midi": 97,
          "time": 31.314646010416627,
          "velocity": 0.7874015748031497,
          "duration": 0.0010964895833325272
        },
        {
          "name": "D7",
          "midi": 98,
          "time": 31.314646010416627,
          "velocity": 0.7874015748031497,
          "duration": 0.0010964895833325272
        },
        {
          "name": "C#4",
          "midi": 61,
          "time": 31.843153989583293,
          "velocity": 0.7874015748031497,
          "duration": 0.0010964895833325272
        },
        {
          "name": "C#5",
          "midi": 73,
          "time": 31.843153989583293,
          "velocity": 0.7874015748031497,
          "duration": 0.0010964895833325272
        },
        {
          "name": "E5",
          "midi": 76,
          "time": 31.843153989583293,
          "velocity": 0.7874015748031497,
          "duration": 0.0010964895833325272
        },
        {
          "name": "C#6",
          "midi": 85,
          "time": 31.843153989583293,
          "velocity": 0.7874015748031497,
          "duration": 0.0010964895833325272
        },
        {
          "name": "E6",
          "midi": 88,
          "time": 31.843153989583293,
          "velocity": 0.7874015748031497,
          "duration": 0.0010964895833325272
        },
        {
          "name": "C#7",
          "midi": 97,
          "time": 31.843153989583293,
          "velocity": 0.7874015748031497,
          "duration": 0.0010964895833325272
        },
        {
          "name": "E7",
          "midi": 100,
          "time": 31.843153989583293,
          "velocity": 0.7874015748031497,
          "duration": 0.0010964895833325272
        },
        {
          "name": "C#4",
          "midi": 61,
          "time": 32.36837249999996,
          "velocity": 0.7874015748031497,
          "duration": 0.0010964895833325272
        },
        {
          "name": "C#5",
          "midi": 73,
          "time": 32.36837249999996,
          "velocity": 0.7874015748031497,
          "duration": 0.0010964895833325272
        },
        {
          "name": "E5",
          "midi": 76,
          "time": 32.36837249999996,
          "velocity": 0.7874015748031497,
          "duration": 0.0010964895833325272
        },
        {
          "name": "C#6",
          "midi": 85,
          "time": 32.36837249999996,
          "velocity": 0.7874015748031497,
          "duration": 0.0010964895833325272
        },
        {
          "name": "E6",
          "midi": 88,
          "time": 32.36837249999996,
          "velocity": 0.7874015748031497,
          "duration": 0.0010964895833325272
        },
        {
          "name": "C#7",
          "midi": 97,
          "time": 32.36837249999996,
          "velocity": 0.7874015748031497,
          "duration": 0.0010964895833325272
        },
        {
          "name": "E7",
          "midi": 100,
          "time": 32.36837249999996,
          "velocity": 0.7874015748031497,
          "duration": 0.0010964895833325272
        },
        {
          "name": "C5",
          "midi": 72,
          "time": 32.89359101041662,
          "velocity": 0.7874015748031497,
          "duration": 0.0010964895833325272
        },
        {
          "name": "C6",
          "midi": 84,
          "time": 32.89359101041662,
          "velocity": 0.7874015748031497,
          "duration": 0.0010964895833325272
        },
        {
          "name": "C7",
          "midi": 96,
          "time": 32.89359101041662,
          "velocity": 0.7874015748031497,
          "duration": 0.0010964895833325272
        },
        {
          "name": "C#4",
          "midi": 61,
          "time": 33.15784499999995,
          "velocity": 0.7874015748031497,
          "duration": 0.0010964895833325272
        },
        {
          "name": "C#5",
          "midi": 73,
          "time": 33.15784499999995,
          "velocity": 0.7874015748031497,
          "duration": 0.0010964895833325272
        },
        {
          "name": "E5",
          "midi": 76,
          "time": 33.15784499999995,
          "velocity": 0.7874015748031497,
          "duration": 0.0010964895833325272
        },
        {
          "name": "C#6",
          "midi": 85,
          "time": 33.15784499999995,
          "velocity": 0.7874015748031497,
          "duration": 0.0010964895833325272
        },
        {
          "name": "E6",
          "midi": 88,
          "time": 33.15784499999995,
          "velocity": 0.7874015748031497,
          "duration": 0.0010964895833325272
        },
        {
          "name": "C#7",
          "midi": 97,
          "time": 33.15784499999995,
          "velocity": 0.7874015748031497,
          "duration": 0.0010964895833325272
        },
        {
          "name": "E7",
          "midi": 100,
          "time": 33.15784499999995,
          "velocity": 0.7874015748031497,
          "duration": 0.0010964895833325272
        },
        {
          "name": "C#4",
          "midi": 61,
          "time": 33.68415999999995,
          "velocity": 0.7874015748031497,
          "duration": 0.0010964895833325272
        },
        {
          "name": "C#5",
          "midi": 73,
          "time": 33.68415999999995,
          "velocity": 0.7874015748031497,
          "duration": 0.0010964895833325272
        },
        {
          "name": "E5",
          "midi": 76,
          "time": 33.68415999999995,
          "velocity": 0.7874015748031497,
          "duration": 0.0010964895833325272
        },
        {
          "name": "C#6",
          "midi": 85,
          "time": 33.68415999999995,
          "velocity": 0.7874015748031497,
          "duration": 0.0010964895833325272
        },
        {
          "name": "E6",
          "midi": 88,
          "time": 33.68415999999995,
          "velocity": 0.7874015748031497,
          "duration": 0.0010964895833325272
        },
        {
          "name": "C#7",
          "midi": 97,
          "time": 33.68415999999995,
          "velocity": 0.7874015748031497,
          "duration": 0.0010964895833325272
        },
        {
          "name": "E7",
          "midi": 100,
          "time": 33.68415999999995,
          "velocity": 0.7874015748031497,
          "duration": 0.0010964895833325272
        },
        {
          "name": "C#4",
          "midi": 61,
          "time": 34.210474999999946,
          "velocity": 0.7874015748031497,
          "duration": 0.0010964895833325272
        },
        {
          "name": "C#5",
          "midi": 73,
          "time": 34.210474999999946,
          "velocity": 0.7874015748031497,
          "duration": 0.0010964895833325272
        },
        {
          "name": "E5",
          "midi": 76,
          "time": 34.210474999999946,
          "velocity": 0.7874015748031497,
          "duration": 0.0010964895833325272
        },
        {
          "name": "C#6",
          "midi": 85,
          "time": 34.210474999999946,
          "velocity": 0.7874015748031497,
          "duration": 0.0010964895833325272
        },
        {
          "name": "E6",
          "midi": 88,
          "time": 34.210474999999946,
          "velocity": 0.7874015748031497,
          "duration": 0.0010964895833325272
        },
        {
          "name": "C#7",
          "midi": 97,
          "time": 34.210474999999946,
          "velocity": 0.7874015748031497,
          "duration": 0.0010964895833325272
        },
        {
          "name": "E7",
          "midi": 100,
          "time": 34.210474999999946,
          "velocity": 0.7874015748031497,
          "duration": 0.0010964895833325272
        },
        {
          "name": "C#4",
          "midi": 61,
          "time": 34.73678999999994,
          "velocity": 0.7874015748031497,
          "duration": 0.0010964895833325272
        },
        {
          "name": "C#5",
          "midi": 73,
          "time": 34.73678999999994,
          "velocity": 0.7874015748031497,
          "duration": 0.0010964895833325272
        },
        {
          "name": "E5",
          "midi": 76,
          "time": 34.73678999999994,
          "velocity": 0.7874015748031497,
          "duration": 0.0010964895833325272
        },
        {
          "name": "C#6",
          "midi": 85,
          "time": 34.73678999999994,
          "velocity": 0.7874015748031497,
          "duration": 0.0010964895833325272
        },
        {
          "name": "E6",
          "midi": 88,
          "time": 34.73678999999994,
          "velocity": 0.7874015748031497,
          "duration": 0.0010964895833325272
        },
        {
          "name": "C#7",
          "midi": 97,
          "time": 34.73678999999994,
          "velocity": 0.7874015748031497,
          "duration": 0.0010964895833325272
        },
        {
          "name": "E7",
          "midi": 100,
          "time": 34.73678999999994,
          "velocity": 0.7874015748031497,
          "duration": 0.0010964895833325272
        },
        {
          "name": "C5",
          "midi": 72,
          "time": 35.26310499999994,
          "velocity": 0.7874015748031497,
          "duration": 0.0010964895833325272
        },
        {
          "name": "C6",
          "midi": 84,
          "time": 35.26310499999994,
          "velocity": 0.7874015748031497,
          "duration": 0.0010964895833325272
        },
        {
          "name": "C7",
          "midi": 96,
          "time": 35.26310499999994,
          "velocity": 0.7874015748031497,
          "duration": 0.0010964895833325272
        },
        {
          "name": "E7",
          "midi": 100,
          "time": 35.26310499999994,
          "velocity": 0.7874015748031497,
          "duration": 0.0010964895833325272
        },
        {
          "name": "C6",
          "midi": 84,
          "time": 35.52626249999994,
          "velocity": 0.7874015748031497,
          "duration": 0.0010964895833325272
        },
        {
          "name": "C7",
          "midi": 96,
          "time": 35.52626249999994,
          "velocity": 0.7874015748031497,
          "duration": 0.0010964895833325272
        },
        {
          "name": "C#4",
          "midi": 61,
          "time": 35.789419999999936,
          "velocity": 0.7874015748031497,
          "duration": 0.0010964895833325272
        },
        {
          "name": "C#5",
          "midi": 73,
          "time": 35.789419999999936,
          "velocity": 0.7874015748031497,
          "duration": 0.0010964895833325272
        },
        {
          "name": "E5",
          "midi": 76,
          "time": 35.789419999999936,
          "velocity": 0.7874015748031497,
          "duration": 0.0010964895833325272
        },
        {
          "name": "C#6",
          "midi": 85,
          "time": 35.789419999999936,
          "velocity": 0.7874015748031497,
          "duration": 0.0010964895833325272
        },
        {
          "name": "E6",
          "midi": 88,
          "time": 35.789419999999936,
          "velocity": 0.7874015748031497,
          "duration": 0.0010964895833325272
        },
        {
          "name": "C#7",
          "midi": 97,
          "time": 35.789419999999936,
          "velocity": 0.7874015748031497,
          "duration": 0.0010964895833325272
        },
        {
          "name": "E7",
          "midi": 100,
          "time": 35.789419999999936,
          "velocity": 0.7874015748031497,
          "duration": 0.0010964895833325272
        },
        {
          "name": "C#4",
          "midi": 61,
          "time": 36.31573499999993,
          "velocity": 0.7874015748031497,
          "duration": 0.0010964895833325272
        },
        {
          "name": "C#5",
          "midi": 73,
          "time": 36.31573499999993,
          "velocity": 0.7874015748031497,
          "duration": 0.0010964895833325272
        },
        {
          "name": "E5",
          "midi": 76,
          "time": 36.31573499999993,
          "velocity": 0.7874015748031497,
          "duration": 0.0010964895833325272
        },
        {
          "name": "C#6",
          "midi": 85,
          "time": 36.31573499999993,
          "velocity": 0.7874015748031497,
          "duration": 0.0010964895833325272
        },
        {
          "name": "E6",
          "midi": 88,
          "time": 36.31573499999993,
          "velocity": 0.7874015748031497,
          "duration": 0.0010964895833325272
        },
        {
          "name": "C#7",
          "midi": 97,
          "time": 36.31573499999993,
          "velocity": 0.7874015748031497,
          "duration": 0.0010964895833325272
        },
        {
          "name": "E7",
          "midi": 100,
          "time": 36.31573499999993,
          "velocity": 0.7874015748031497,
          "duration": 0.0010964895833325272
        },
        {
          "name": "C7",
          "midi": 96,
          "time": 36.57998898958326,
          "velocity": 0.7874015748031497,
          "duration": 0.0010964895833325272
        },
        {
          "name": "E4",
          "midi": 64,
          "time": 36.84204999999993,
          "velocity": 0.7874015748031497,
          "duration": 0.0010964895833325272
        },
        {
          "name": "E5",
          "midi": 76,
          "time": 36.84204999999993,
          "velocity": 0.7874015748031497,
          "duration": 0.0010964895833325272
        },
        {
          "name": "E6",
          "midi": 88,
          "time": 36.84204999999993,
          "velocity": 0.7874015748031497,
          "duration": 0.0010964895833325272
        },
        {
          "name": "E7",
          "midi": 100,
          "time": 36.84204999999993,
          "velocity": 0.7874015748031497,
          "duration": 0.0010964895833325272
        },
        {
          "name": "C7",
          "midi": 96,
          "time": 37.10520749999993,
          "velocity": 0.7874015748031497,
          "duration": 0.0010964895833325272
        },
        {
          "name": "E4",
          "midi": 64,
          "time": 37.368364999999926,
          "velocity": 0.7874015748031497,
          "duration": 0.0010964895833325272
        },
        {
          "name": "E5",
          "midi": 76,
          "time": 37.368364999999926,
          "velocity": 0.7874015748031497,
          "duration": 0.0010964895833325272
        },
        {
          "name": "E6",
          "midi": 88,
          "time": 37.368364999999926,
          "velocity": 0.7874015748031497,
          "duration": 0.0010964895833325272
        },
        {
          "name": "E7",
          "midi": 100,
          "time": 37.368364999999926,
          "velocity": 0.7874015748031497,
          "duration": 0.0010964895833325272
        },
        {
          "name": "C7",
          "midi": 96,
          "time": 37.63261898958326,
          "velocity": 0.7874015748031497,
          "duration": 0.0010964895833325272
        },
        {
          "name": "E4",
          "midi": 64,
          "time": 37.89467999999992,
          "velocity": 0.7874015748031497,
          "duration": 0.0010964895833325272
        },
        {
          "name": "E5",
          "midi": 76,
          "time": 37.89467999999992,
          "velocity": 0.7874015748031497,
          "duration": 0.0010964895833325272
        },
        {
          "name": "E6",
          "midi": 88,
          "time": 37.89467999999992,
          "velocity": 0.7874015748031497,
          "duration": 0.0010964895833325272
        },
        {
          "name": "E7",
          "midi": 100,
          "time": 37.89467999999992,
          "velocity": 0.7874015748031497,
          "duration": 0.0010964895833325272
        },
        {
          "name": "C6",
          "midi": 84,
          "time": 38.15783749999992,
          "velocity": 0.7874015748031497,
          "duration": 0.0010964895833325272
        },
        {
          "name": "C7",
          "midi": 96,
          "time": 38.15783749999992,
          "velocity": 0.7874015748031497,
          "duration": 0.0010964895833325272
        },
        {
          "name": "C#4",
          "midi": 61,
          "time": 38.42099499999992,
          "velocity": 0.7874015748031497,
          "duration": 0.0010964895833325272
        },
        {
          "name": "C#5",
          "midi": 73,
          "time": 38.42099499999992,
          "velocity": 0.7874015748031497,
          "duration": 0.0010964895833325272
        },
        {
          "name": "E5",
          "midi": 76,
          "time": 38.42099499999992,
          "velocity": 0.7874015748031497,
          "duration": 0.0010964895833325272
        },
        {
          "name": "C#6",
          "midi": 85,
          "time": 38.42099499999992,
          "velocity": 0.7874015748031497,
          "duration": 0.0010964895833325272
        },
        {
          "name": "E6",
          "midi": 88,
          "time": 38.42099499999992,
          "velocity": 0.7874015748031497,
          "duration": 0.0010964895833325272
        },
        {
          "name": "C#7",
          "midi": 97,
          "time": 38.42099499999992,
          "velocity": 0.7874015748031497,
          "duration": 0.0010964895833325272
        },
        {
          "name": "E7",
          "midi": 100,
          "time": 38.42099499999992,
          "velocity": 0.7874015748031497,
          "duration": 0.0010964895833325272
        },
        {
          "name": "C7",
          "midi": 96,
          "time": 38.68415249999992,
          "velocity": 0.7874015748031497,
          "duration": 0.0010964895833325272
        },
        {
          "name": "C#4",
          "midi": 61,
          "time": 38.947309999999916,
          "velocity": 0.7874015748031497,
          "duration": 0.0010964895833325272
        },
        {
          "name": "C#5",
          "midi": 73,
          "time": 38.947309999999916,
          "velocity": 0.7874015748031497,
          "duration": 0.0010964895833325272
        },
        {
          "name": "E5",
          "midi": 76,
          "time": 38.947309999999916,
          "velocity": 0.7874015748031497,
          "duration": 0.0010964895833325272
        },
        {
          "name": "C#6",
          "midi": 85,
          "time": 38.947309999999916,
          "velocity": 0.7874015748031497,
          "duration": 0.0010964895833325272
        },
        {
          "name": "E6",
          "midi": 88,
          "time": 38.947309999999916,
          "velocity": 0.7874015748031497,
          "duration": 0.0010964895833325272
        },
        {
          "name": "C#7",
          "midi": 97,
          "time": 38.947309999999916,
          "velocity": 0.7874015748031497,
          "duration": 0.0010964895833325272
        },
        {
          "name": "E7",
          "midi": 100,
          "time": 38.947309999999916,
          "velocity": 0.7874015748031497,
          "duration": 0.0010964895833325272
        },
        {
          "name": "C7",
          "midi": 96,
          "time": 39.210467499999915,
          "velocity": 0.7874015748031497,
          "duration": 0.0010964895833325272
        },
        {
          "name": "C#4",
          "midi": 61,
          "time": 39.47362499999991,
          "velocity": 0.7874015748031497,
          "duration": 0.0010964895833325272
        },
        {
          "name": "C#5",
          "midi": 73,
          "time": 39.47362499999991,
          "velocity": 0.7874015748031497,
          "duration": 0.0010964895833325272
        },
        {
          "name": "E5",
          "midi": 76,
          "time": 39.47362499999991,
          "velocity": 0.7874015748031497,
          "duration": 0.0010964895833325272
        },
        {
          "name": "C#6",
          "midi": 85,
          "time": 39.47362499999991,
          "velocity": 0.7874015748031497,
          "duration": 0.0010964895833325272
        },
        {
          "name": "E6",
          "midi": 88,
          "time": 39.47362499999991,
          "velocity": 0.7874015748031497,
          "duration": 0.0010964895833325272
        },
        {
          "name": "C#7",
          "midi": 97,
          "time": 39.47362499999991,
          "velocity": 0.7874015748031497,
          "duration": 0.0010964895833325272
        },
        {
          "name": "E7",
          "midi": 100,
          "time": 39.47362499999991,
          "velocity": 0.7874015748031497,
          "duration": 0.0010964895833325272
        },
        {
          "name": "C6",
          "midi": 84,
          "time": 39.737878989583244,
          "velocity": 0.7874015748031497,
          "duration": 0.0010964895833325272
        },
        {
          "name": "C7",
          "midi": 96,
          "time": 39.737878989583244,
          "velocity": 0.7874015748031497,
          "duration": 0.0010964895833325272
        },
        {
          "name": "C#4",
          "midi": 61,
          "time": 39.99993999999991,
          "velocity": 0.7874015748031497,
          "duration": 0.0010964895833325272
        },
        {
          "name": "C#5",
          "midi": 73,
          "time": 39.99993999999991,
          "velocity": 0.7874015748031497,
          "duration": 0.0010964895833325272
        },
        {
          "name": "E5",
          "midi": 76,
          "time": 39.99993999999991,
          "velocity": 0.7874015748031497,
          "duration": 0.0010964895833325272
        },
        {
          "name": "C#6",
          "midi": 85,
          "time": 39.99993999999991,
          "velocity": 0.7874015748031497,
          "duration": 0.0010964895833325272
        },
        {
          "name": "E6",
          "midi": 88,
          "time": 39.99993999999991,
          "velocity": 0.7874015748031497,
          "duration": 0.0010964895833325272
        },
        {
          "name": "C#7",
          "midi": 97,
          "time": 39.99993999999991,
          "velocity": 0.7874015748031497,
          "duration": 0.0010964895833325272
        },
        {
          "name": "E7",
          "midi": 100,
          "time": 39.99993999999991,
          "velocity": 0.7874015748031497,
          "duration": 0.0010964895833325272
        },
        {
          "name": "D#4",
          "midi": 63,
          "time": 40.52625499999991,
          "velocity": 0.7874015748031497,
          "duration": 0.0010964895833325272
        },
        {
          "name": "D#5",
          "midi": 75,
          "time": 40.52625499999991,
          "velocity": 0.7874015748031497,
          "duration": 0.0010964895833325272
        },
        {
          "name": "D#6",
          "midi": 87,
          "time": 40.52625499999991,
          "velocity": 0.7874015748031497,
          "duration": 0.0010964895833325272
        },
        {
          "name": "D#7",
          "midi": 99,
          "time": 40.52625499999991,
          "velocity": 0.7874015748031497,
          "duration": 0.0010964895833325272
        },
        {
          "name": "D#7",
          "midi": 99,
          "time": 40.65783374999991,
          "velocity": 0.7874015748031497,
          "duration": 0.0010964895833325272
        },
        {
          "name": "D#5",
          "midi": 75,
          "time": 40.790508989583245,
          "velocity": 0.7874015748031497,
          "duration": 0.0010964895833325272
        },
        {
          "name": "D#6",
          "midi": 87,
          "time": 40.790508989583245,
          "velocity": 0.7874015748031497,
          "duration": 0.0010964895833325272
        },
        {
          "name": "D#7",
          "midi": 99,
          "time": 40.790508989583245,
          "velocity": 0.7874015748031497,
          "duration": 0.0010964895833325272
        },
        {
          "name": "D#7",
          "midi": 99,
          "time": 40.92099124999991,
          "velocity": 0.7874015748031497,
          "duration": 0.0010964895833325272
        },
        {
          "name": "E4",
          "midi": 64,
          "time": 41.0525699999999,
          "velocity": 0.7874015748031497,
          "duration": 0.0010964895833325272
        },
        {
          "name": "C5",
          "midi": 72,
          "time": 41.0525699999999,
          "velocity": 0.7874015748031497,
          "duration": 0.0010964895833325272
        },
        {
          "name": "E5",
          "midi": 76,
          "time": 41.0525699999999,
          "velocity": 0.7874015748031497,
          "duration": 0.0010964895833325272
        },
        {
          "name": "C6",
          "midi": 84,
          "time": 41.0525699999999,
          "velocity": 0.7874015748031497,
          "duration": 0.0010964895833325272
        },
        {
          "name": "E6",
          "midi": 88,
          "time": 41.0525699999999,
          "velocity": 0.7874015748031497,
          "duration": 0.0010964895833325272
        },
        {
          "name": "C7",
          "midi": 96,
          "time": 41.0525699999999,
          "velocity": 0.7874015748031497,
          "duration": 0.0010964895833325272
        },
        {
          "name": "E7",
          "midi": 100,
          "time": 41.0525699999999,
          "velocity": 0.7874015748031497,
          "duration": 0.0010964895833325272
        },
        {
          "name": "C6",
          "midi": 84,
          "time": 41.5788849999999,
          "velocity": 0.7874015748031497,
          "duration": 0.0010964895833325272
        },
        {
          "name": "C7",
          "midi": 96,
          "time": 41.5788849999999,
          "velocity": 0.7874015748031497,
          "duration": 0.0010964895833325272
        },
        {
          "name": "C#4",
          "midi": 61,
          "time": 41.90892836458323,
          "velocity": 0.7874015748031497,
          "duration": 0.0010964895833325272
        },
        {
          "name": "C#5",
          "midi": 73,
          "time": 41.90892836458323,
          "velocity": 0.7874015748031497,
          "duration": 0.0010964895833325272
        },
        {
          "name": "D5",
          "midi": 74,
          "time": 41.90892836458323,
          "velocity": 0.7874015748031497,
          "duration": 0.0010964895833325272
        },
        {
          "name": "C#6",
          "midi": 85,
          "time": 41.90892836458323,
          "velocity": 0.7874015748031497,
          "duration": 0.0010964895833325272
        },
        {
          "name": "D6",
          "midi": 86,
          "time": 41.90892836458323,
          "velocity": 0.7874015748031497,
          "duration": 0.0010964895833325272
        },
        {
          "name": "C#7",
          "midi": 97,
          "time": 41.90892836458323,
          "velocity": 0.7874015748031497,
          "duration": 0.0010964895833325272
        },
        {
          "name": "D7",
          "midi": 98,
          "time": 41.90892836458323,
          "velocity": 0.7874015748031497,
          "duration": 0.0010964895833325272
        },
        {
          "name": "C#4",
          "midi": 61,
          "time": 42.4341468749999,
          "velocity": 0.7874015748031497,
          "duration": 0.0010964895833325272
        },
        {
          "name": "C#5",
          "midi": 73,
          "time": 42.4341468749999,
          "velocity": 0.7874015748031497,
          "duration": 0.0010964895833325272
        },
        {
          "name": "E5",
          "midi": 76,
          "time": 42.4341468749999,
          "velocity": 0.7874015748031497,
          "duration": 0.0010964895833325272
        },
        {
          "name": "C#6",
          "midi": 85,
          "time": 42.4341468749999,
          "velocity": 0.7874015748031497,
          "duration": 0.0010964895833325272
        },
        {
          "name": "E6",
          "midi": 88,
          "time": 42.4341468749999,
          "velocity": 0.7874015748031497,
          "duration": 0.0010964895833325272
        },
        {
          "name": "C#7",
          "midi": 97,
          "time": 42.4341468749999,
          "velocity": 0.7874015748031497,
          "duration": 0.0010964895833325272
        },
        {
          "name": "E7",
          "midi": 100,
          "time": 42.4341468749999,
          "velocity": 0.7874015748031497,
          "duration": 0.0010964895833325272
        },
        {
          "name": "C#4",
          "midi": 61,
          "time": 42.89576898958323,
          "velocity": 0.7874015748031497,
          "duration": 0.0010964895833325272
        },
        {
          "name": "C#5",
          "midi": 73,
          "time": 42.89576898958323,
          "velocity": 0.7874015748031497,
          "duration": 0.0010964895833325272
        },
        {
          "name": "E5",
          "midi": 76,
          "time": 42.89576898958323,
          "velocity": 0.7874015748031497,
          "duration": 0.0010964895833325272
        },
        {
          "name": "C#6",
          "midi": 85,
          "time": 42.89576898958323,
          "velocity": 0.7874015748031497,
          "duration": 0.0010964895833325272
        },
        {
          "name": "E6",
          "midi": 88,
          "time": 42.89576898958323,
          "velocity": 0.7874015748031497,
          "duration": 0.0010964895833325272
        },
        {
          "name": "C#7",
          "midi": 97,
          "time": 42.89576898958323,
          "velocity": 0.7874015748031497,
          "duration": 0.0010964895833325272
        },
        {
          "name": "E7",
          "midi": 100,
          "time": 42.89576898958323,
          "velocity": 0.7874015748031497,
          "duration": 0.0010964895833325272
        },
        {
          "name": "C5",
          "midi": 72,
          "time": 43.35410163541656,
          "velocity": 0.7874015748031497,
          "duration": 0.0010964895833325272
        },
        {
          "name": "C6",
          "midi": 84,
          "time": 43.35410163541656,
          "velocity": 0.7874015748031497,
          "duration": 0.0010964895833325272
        },
        {
          "name": "C7",
          "midi": 96,
          "time": 43.35410163541656,
          "velocity": 0.7874015748031497,
          "duration": 0.0010964895833325272
        },
        {
          "name": "E7",
          "midi": 100,
          "time": 43.35410163541656,
          "velocity": 0.7874015748031497,
          "duration": 0.0010964895833325272
        },
        {
          "name": "C#4",
          "midi": 61,
          "time": 43.684144999999894,
          "velocity": 0.7874015748031497,
          "duration": 0.0010964895833325272
        },
        {
          "name": "C#5",
          "midi": 73,
          "time": 43.684144999999894,
          "velocity": 0.7874015748031497,
          "duration": 0.0010964895833325272
        },
        {
          "name": "E5",
          "midi": 76,
          "time": 43.684144999999894,
          "velocity": 0.7874015748031497,
          "duration": 0.0010964895833325272
        },
        {
          "name": "C#6",
          "midi": 85,
          "time": 43.684144999999894,
          "velocity": 0.7874015748031497,
          "duration": 0.0010964895833325272
        },
        {
          "name": "E6",
          "midi": 88,
          "time": 43.684144999999894,
          "velocity": 0.7874015748031497,
          "duration": 0.0010964895833325272
        },
        {
          "name": "C#7",
          "midi": 97,
          "time": 43.684144999999894,
          "velocity": 0.7874015748031497,
          "duration": 0.0010964895833325272
        },
        {
          "name": "E7",
          "midi": 100,
          "time": 43.684144999999894,
          "velocity": 0.7874015748031497,
          "duration": 0.0010964895833325272
        },
        {
          "name": "C#4",
          "midi": 61,
          "time": 44.21045999999989,
          "velocity": 0.7874015748031497,
          "duration": 0.0010964895833325272
        },
        {
          "name": "C#5",
          "midi": 73,
          "time": 44.21045999999989,
          "velocity": 0.7874015748031497,
          "duration": 0.0010964895833325272
        },
        {
          "name": "E5",
          "midi": 76,
          "time": 44.21045999999989,
          "velocity": 0.7874015748031497,
          "duration": 0.0010964895833325272
        },
        {
          "name": "C#6",
          "midi": 85,
          "time": 44.21045999999989,
          "velocity": 0.7874015748031497,
          "duration": 0.0010964895833325272
        },
        {
          "name": "E6",
          "midi": 88,
          "time": 44.21045999999989,
          "velocity": 0.7874015748031497,
          "duration": 0.0010964895833325272
        },
        {
          "name": "C#7",
          "midi": 97,
          "time": 44.21045999999989,
          "velocity": 0.7874015748031497,
          "duration": 0.0010964895833325272
        },
        {
          "name": "E7",
          "midi": 100,
          "time": 44.21045999999989,
          "velocity": 0.7874015748031497,
          "duration": 0.0010964895833325272
        },
        {
          "name": "C#4",
          "midi": 61,
          "time": 44.73677499999989,
          "velocity": 0.7874015748031497,
          "duration": 0.0010964895833325272
        },
        {
          "name": "C#5",
          "midi": 73,
          "time": 44.73677499999989,
          "velocity": 0.7874015748031497,
          "duration": 0.0010964895833325272
        },
        {
          "name": "E5",
          "midi": 76,
          "time": 44.73677499999989,
          "velocity": 0.7874015748031497,
          "duration": 0.0010964895833325272
        },
        {
          "name": "C#6",
          "midi": 85,
          "time": 44.73677499999989,
          "velocity": 0.7874015748031497,
          "duration": 0.0010964895833325272
        },
        {
          "name": "E6",
          "midi": 88,
          "time": 44.73677499999989,
          "velocity": 0.7874015748031497,
          "duration": 0.0010964895833325272
        },
        {
          "name": "C#7",
          "midi": 97,
          "time": 44.73677499999989,
          "velocity": 0.7874015748031497,
          "duration": 0.0010964895833325272
        },
        {
          "name": "E7",
          "midi": 100,
          "time": 44.73677499999989,
          "velocity": 0.7874015748031497,
          "duration": 0.0010964895833325272
        },
        {
          "name": "C#4",
          "midi": 61,
          "time": 45.263089999999885,
          "velocity": 0.7874015748031497,
          "duration": 0.0010964895833325272
        },
        {
          "name": "C#5",
          "midi": 73,
          "time": 45.263089999999885,
          "velocity": 0.7874015748031497,
          "duration": 0.0010964895833325272
        },
        {
          "name": "E5",
          "midi": 76,
          "time": 45.263089999999885,
          "velocity": 0.7874015748031497,
          "duration": 0.0010964895833325272
        },
        {
          "name": "C#6",
          "midi": 85,
          "time": 45.263089999999885,
          "velocity": 0.7874015748031497,
          "duration": 0.0010964895833325272
        },
        {
          "name": "E6",
          "midi": 88,
          "time": 45.263089999999885,
          "velocity": 0.7874015748031497,
          "duration": 0.0010964895833325272
        },
        {
          "name": "C#7",
          "midi": 97,
          "time": 45.263089999999885,
          "velocity": 0.7874015748031497,
          "duration": 0.0010964895833325272
        },
        {
          "name": "E7",
          "midi": 100,
          "time": 45.263089999999885,
          "velocity": 0.7874015748031497,
          "duration": 0.0010964895833325272
        },
        {
          "name": "C5",
          "midi": 72,
          "time": 45.78940499999988,
          "velocity": 0.7874015748031497,
          "duration": 0.0010964895833325272
        },
        {
          "name": "E5",
          "midi": 76,
          "time": 45.78940499999988,
          "velocity": 0.7874015748031497,
          "duration": 0.0010964895833325272
        },
        {
          "name": "C6",
          "midi": 84,
          "time": 45.78940499999988,
          "velocity": 0.7874015748031497,
          "duration": 0.0010964895833325272
        },
        {
          "name": "E6",
          "midi": 88,
          "time": 45.78940499999988,
          "velocity": 0.7874015748031497,
          "duration": 0.0010964895833325272
        },
        {
          "name": "C7",
          "midi": 96,
          "time": 45.78940499999988,
          "velocity": 0.7874015748031497,
          "duration": 0.0010964895833325272
        },
        {
          "name": "E7",
          "midi": 100,
          "time": 45.78940499999988,
          "velocity": 0.7874015748031497,
          "duration": 0.0010964895833325272
        },
        {
          "name": "C6",
          "midi": 84,
          "time": 46.05256249999988,
          "velocity": 0.7874015748031497,
          "duration": 0.0010964895833325272
        },
        {
          "name": "C7",
          "midi": 96,
          "time": 46.05256249999988,
          "velocity": 0.7874015748031497,
          "duration": 0.0010964895833325272
        },
        {
          "name": "C#4",
          "midi": 61,
          "time": 46.31571999999988,
          "velocity": 0.7874015748031497,
          "duration": 0.0010964895833325272
        },
        {
          "name": "C#5",
          "midi": 73,
          "time": 46.31571999999988,
          "velocity": 0.7874015748031497,
          "duration": 0.0010964895833325272
        },
        {
          "name": "E5",
          "midi": 76,
          "time": 46.31571999999988,
          "velocity": 0.7874015748031497,
          "duration": 0.0010964895833325272
        },
        {
          "name": "C#6",
          "midi": 85,
          "time": 46.31571999999988,
          "velocity": 0.7874015748031497,
          "duration": 0.0010964895833325272
        },
        {
          "name": "E6",
          "midi": 88,
          "time": 46.31571999999988,
          "velocity": 0.7874015748031497,
          "duration": 0.0010964895833325272
        },
        {
          "name": "C#7",
          "midi": 97,
          "time": 46.31571999999988,
          "velocity": 0.7874015748031497,
          "duration": 0.0010964895833325272
        },
        {
          "name": "E7",
          "midi": 100,
          "time": 46.31571999999988,
          "velocity": 0.7874015748031497,
          "duration": 0.0010964895833325272
        },
        {
          "name": "C#4",
          "midi": 61,
          "time": 46.842034999999875,
          "velocity": 0.7874015748031497,
          "duration": 0.0010964895833325272
        },
        {
          "name": "C#5",
          "midi": 73,
          "time": 46.842034999999875,
          "velocity": 0.7874015748031497,
          "duration": 0.0010964895833325272
        },
        {
          "name": "E5",
          "midi": 76,
          "time": 46.842034999999875,
          "velocity": 0.7874015748031497,
          "duration": 0.0010964895833325272
        },
        {
          "name": "C#6",
          "midi": 85,
          "time": 46.842034999999875,
          "velocity": 0.7874015748031497,
          "duration": 0.0010964895833325272
        },
        {
          "name": "E6",
          "midi": 88,
          "time": 46.842034999999875,
          "velocity": 0.7874015748031497,
          "duration": 0.0010964895833325272
        },
        {
          "name": "C#7",
          "midi": 97,
          "time": 46.842034999999875,
          "velocity": 0.7874015748031497,
          "duration": 0.0010964895833325272
        },
        {
          "name": "E7",
          "midi": 100,
          "time": 46.842034999999875,
          "velocity": 0.7874015748031497,
          "duration": 0.0010964895833325272
        },
        {
          "name": "C7",
          "midi": 96,
          "time": 47.106288989583206,
          "velocity": 0.7874015748031497,
          "duration": 0.0010964895833325272
        },
        {
          "name": "E4",
          "midi": 64,
          "time": 47.36834999999987,
          "velocity": 0.7874015748031497,
          "duration": 0.0010964895833325272
        },
        {
          "name": "E5",
          "midi": 76,
          "time": 47.36834999999987,
          "velocity": 0.7874015748031497,
          "duration": 0.0010964895833325272
        },
        {
          "name": "E6",
          "midi": 88,
          "time": 47.36834999999987,
          "velocity": 0.7874015748031497,
          "duration": 0.0010964895833325272
        },
        {
          "name": "E7",
          "midi": 100,
          "time": 47.36834999999987,
          "velocity": 0.7874015748031497,
          "duration": 0.0010964895833325272
        },
        {
          "name": "C7",
          "midi": 96,
          "time": 47.63150749999987,
          "velocity": 0.7874015748031497,
          "duration": 0.0010964895833325272
        },
        {
          "name": "E4",
          "midi": 64,
          "time": 47.89466499999987,
          "velocity": 0.7874015748031497,
          "duration": 0.0010964895833325272
        },
        {
          "name": "E5",
          "midi": 76,
          "time": 47.89466499999987,
          "velocity": 0.7874015748031497,
          "duration": 0.0010964895833325272
        },
        {
          "name": "E6",
          "midi": 88,
          "time": 47.89466499999987,
          "velocity": 0.7874015748031497,
          "duration": 0.0010964895833325272
        },
        {
          "name": "E7",
          "midi": 100,
          "time": 47.89466499999987,
          "velocity": 0.7874015748031497,
          "duration": 0.0010964895833325272
        },
        {
          "name": "C7",
          "midi": 96,
          "time": 48.15782249999987,
          "velocity": 0.7874015748031497,
          "duration": 0.0010964895833325272
        },
        {
          "name": "E4",
          "midi": 64,
          "time": 48.420979999999865,
          "velocity": 0.7874015748031497,
          "duration": 0.0010964895833325272
        },
        {
          "name": "E5",
          "midi": 76,
          "time": 48.420979999999865,
          "velocity": 0.7874015748031497,
          "duration": 0.0010964895833325272
        },
        {
          "name": "E6",
          "midi": 88,
          "time": 48.420979999999865,
          "velocity": 0.7874015748031497,
          "duration": 0.0010964895833325272
        },
        {
          "name": "E7",
          "midi": 100,
          "time": 48.420979999999865,
          "velocity": 0.7874015748031497,
          "duration": 0.0010964895833325272
        },
        {
          "name": "C6",
          "midi": 84,
          "time": 48.68413749999986,
          "velocity": 0.7874015748031497,
          "duration": 0.0010964895833325272
        },
        {
          "name": "C7",
          "midi": 96,
          "time": 48.68413749999986,
          "velocity": 0.7874015748031497,
          "duration": 0.0010964895833325272
        },
        {
          "name": "C#4",
          "midi": 61,
          "time": 48.94729499999986,
          "velocity": 0.7874015748031497,
          "duration": 0.0010964895833325272
        },
        {
          "name": "C#5",
          "midi": 73,
          "time": 48.94729499999986,
          "velocity": 0.7874015748031497,
          "duration": 0.0010964895833325272
        },
        {
          "name": "E5",
          "midi": 76,
          "time": 48.94729499999986,
          "velocity": 0.7874015748031497,
          "duration": 0.0010964895833325272
        },
        {
          "name": "C#6",
          "midi": 85,
          "time": 48.94729499999986,
          "velocity": 0.7874015748031497,
          "duration": 0.0010964895833325272
        },
        {
          "name": "E6",
          "midi": 88,
          "time": 48.94729499999986,
          "velocity": 0.7874015748031497,
          "duration": 0.0010964895833325272
        },
        {
          "name": "C#7",
          "midi": 97,
          "time": 48.94729499999986,
          "velocity": 0.7874015748031497,
          "duration": 0.0010964895833325272
        },
        {
          "name": "E7",
          "midi": 100,
          "time": 48.94729499999986,
          "velocity": 0.7874015748031497,
          "duration": 0.0010964895833325272
        },
        {
          "name": "C7",
          "midi": 96,
          "time": 49.20935601041653,
          "velocity": 0.7874015748031497,
          "duration": 0.0010964895833325272
        },
        {
          "name": "C#4",
          "midi": 61,
          "time": 49.47360999999986,
          "velocity": 0.7874015748031497,
          "duration": 0.0010964895833325272
        },
        {
          "name": "C#5",
          "midi": 73,
          "time": 49.47360999999986,
          "velocity": 0.7874015748031497,
          "duration": 0.0010964895833325272
        },
        {
          "name": "E5",
          "midi": 76,
          "time": 49.47360999999986,
          "velocity": 0.7874015748031497,
          "duration": 0.0010964895833325272
        },
        {
          "name": "C#6",
          "midi": 85,
          "time": 49.47360999999986,
          "velocity": 0.7874015748031497,
          "duration": 0.0010964895833325272
        },
        {
          "name": "E6",
          "midi": 88,
          "time": 49.47360999999986,
          "velocity": 0.7874015748031497,
          "duration": 0.0010964895833325272
        },
        {
          "name": "C#7",
          "midi": 97,
          "time": 49.47360999999986,
          "velocity": 0.7874015748031497,
          "duration": 0.0010964895833325272
        },
        {
          "name": "E7",
          "midi": 100,
          "time": 49.47360999999986,
          "velocity": 0.7874015748031497,
          "duration": 0.0010964895833325272
        },
        {
          "name": "C7",
          "midi": 96,
          "time": 49.73676749999986,
          "velocity": 0.7874015748031497,
          "duration": 0.0010964895833325272
        },
        {
          "name": "C#4",
          "midi": 61,
          "time": 49.999924999999855,
          "velocity": 0.7874015748031497,
          "duration": 0.0010964895833325272
        },
        {
          "name": "C#5",
          "midi": 73,
          "time": 49.999924999999855,
          "velocity": 0.7874015748031497,
          "duration": 0.0010964895833325272
        },
        {
          "name": "E5",
          "midi": 76,
          "time": 49.999924999999855,
          "velocity": 0.7874015748031497,
          "duration": 0.0010964895833325272
        },
        {
          "name": "C#6",
          "midi": 85,
          "time": 49.999924999999855,
          "velocity": 0.7874015748031497,
          "duration": 0.0010964895833325272
        },
        {
          "name": "E6",
          "midi": 88,
          "time": 49.999924999999855,
          "velocity": 0.7874015748031497,
          "duration": 0.0010964895833325272
        },
        {
          "name": "C#7",
          "midi": 97,
          "time": 49.999924999999855,
          "velocity": 0.7874015748031497,
          "duration": 0.0010964895833325272
        },
        {
          "name": "E7",
          "midi": 100,
          "time": 49.999924999999855,
          "velocity": 0.7874015748031497,
          "duration": 0.0010964895833325272
        },
        {
          "name": "C6",
          "midi": 84,
          "time": 50.26198601041652,
          "velocity": 0.7874015748031497,
          "duration": 0.0010964895833325272
        },
        {
          "name": "C7",
          "midi": 96,
          "time": 50.26198601041652,
          "velocity": 0.7874015748031497,
          "duration": 0.0010964895833325272
        },
        {
          "name": "C#4",
          "midi": 61,
          "time": 50.52623999999985,
          "velocity": 0.7874015748031497,
          "duration": 0.0010964895833325272
        },
        {
          "name": "C#5",
          "midi": 73,
          "time": 50.52623999999985,
          "velocity": 0.7874015748031497,
          "duration": 0.0010964895833325272
        },
        {
          "name": "E5",
          "midi": 76,
          "time": 50.52623999999985,
          "velocity": 0.7874015748031497,
          "duration": 0.0010964895833325272
        },
        {
          "name": "C#6",
          "midi": 85,
          "time": 50.52623999999985,
          "velocity": 0.7874015748031497,
          "duration": 0.0010964895833325272
        },
        {
          "name": "E6",
          "midi": 88,
          "time": 50.52623999999985,
          "velocity": 0.7874015748031497,
          "duration": 0.0010964895833325272
        },
        {
          "name": "C#7",
          "midi": 97,
          "time": 50.52623999999985,
          "velocity": 0.7874015748031497,
          "duration": 0.0010964895833325272
        },
        {
          "name": "E7",
          "midi": 100,
          "time": 50.52623999999985,
          "velocity": 0.7874015748031497,
          "duration": 0.0010964895833325272
        },
        {
          "name": "C#4",
          "midi": 61,
          "time": 51.05255499999985,
          "velocity": 0.7874015748031497,
          "duration": 0.0010964895833325272
        },
        {
          "name": "C#5",
          "midi": 73,
          "time": 51.05255499999985,
          "velocity": 0.7874015748031497,
          "duration": 0.0010964895833325272
        },
        {
          "name": "C#6",
          "midi": 85,
          "time": 51.05255499999985,
          "velocity": 0.7874015748031497,
          "duration": 0.0010964895833325272
        },
        {
          "name": "C#7",
          "midi": 97,
          "time": 51.05255499999985,
          "velocity": 0.7874015748031497,
          "duration": 0.0010964895833325272
        },
        {
          "name": "D#7",
          "midi": 99,
          "time": 51.185230239583184,
          "velocity": 0.7874015748031497,
          "duration": 0.0010964895833325272
        },
        {
          "name": "D#5",
          "midi": 75,
          "time": 51.31680898958318,
          "velocity": 0.7874015748031497,
          "duration": 0.0010964895833325272
        },
        {
          "name": "D#6",
          "midi": 87,
          "time": 51.31680898958318,
          "velocity": 0.7874015748031497,
          "duration": 0.0010964895833325272
        },
        {
          "name": "D#7",
          "midi": 99,
          "time": 51.31680898958318,
          "velocity": 0.7874015748031497,
          "duration": 0.0010964895833325272
        },
        {
          "name": "F7",
          "midi": 101,
          "time": 51.44729124999984,
          "velocity": 0.7874015748031497,
          "duration": 0.0010964895833325272
        },
        {
          "name": "D4",
          "midi": 62,
          "time": 51.57886999999984,
          "velocity": 0.7874015748031497,
          "duration": 0.0010964895833325272
        },
        {
          "name": "C5",
          "midi": 72,
          "time": 51.57886999999984,
          "velocity": 0.7874015748031497,
          "duration": 0.0010964895833325272
        },
        {
          "name": "D5",
          "midi": 74,
          "time": 51.57886999999984,
          "velocity": 0.7874015748031497,
          "duration": 0.0010964895833325272
        },
        {
          "name": "C6",
          "midi": 84,
          "time": 51.57886999999984,
          "velocity": 0.7874015748031497,
          "duration": 0.0010964895833325272
        },
        {
          "name": "D6",
          "midi": 86,
          "time": 51.57886999999984,
          "velocity": 0.7874015748031497,
          "duration": 0.0010964895833325272
        },
        {
          "name": "C7",
          "midi": 96,
          "time": 51.57886999999984,
          "velocity": 0.7874015748031497,
          "duration": 0.0010964895833325272
        },
        {
          "name": "D7",
          "midi": 98,
          "time": 51.57886999999984,
          "velocity": 0.7874015748031497,
          "duration": 0.0010964895833325272
        },
        {
          "name": "C5",
          "midi": 72,
          "time": 52.105184999999835,
          "velocity": 0.7874015748031497,
          "duration": 0.0010964895833325272
        },
        {
          "name": "C6",
          "midi": 84,
          "time": 52.105184999999835,
          "velocity": 0.7874015748031497,
          "duration": 0.0010964895833325272
        },
        {
          "name": "C7",
          "midi": 96,
          "time": 52.105184999999835,
          "velocity": 0.7874015748031497,
          "duration": 0.0010964895833325272
        },
        {
          "name": "C#4",
          "midi": 61,
          "time": 52.434131874999835,
          "velocity": 0.7874015748031497,
          "duration": 0.0010964895833325272
        },
        {
          "name": "C#5",
          "midi": 73,
          "time": 52.434131874999835,
          "velocity": 0.7874015748031497,
          "duration": 0.0010964895833325272
        },
        {
          "name": "E5",
          "midi": 76,
          "time": 52.434131874999835,
          "velocity": 0.7874015748031497,
          "duration": 0.0010964895833325272
        },
        {
          "name": "C#6",
          "midi": 85,
          "time": 52.434131874999835,
          "velocity": 0.7874015748031497,
          "duration": 0.0010964895833325272
        },
        {
          "name": "E6",
          "midi": 88,
          "time": 52.434131874999835,
          "velocity": 0.7874015748031497,
          "duration": 0.0010964895833325272
        },
        {
          "name": "C#7",
          "midi": 97,
          "time": 52.434131874999835,
          "velocity": 0.7874015748031497,
          "duration": 0.0010964895833325272
        },
        {
          "name": "E7",
          "midi": 100,
          "time": 52.434131874999835,
          "velocity": 0.7874015748031497,
          "duration": 0.0010964895833325272
        },
        {
          "name": "C#4",
          "midi": 61,
          "time": 52.9593503854165,
          "velocity": 0.7874015748031497,
          "duration": 0.0010964895833325272
        },
        {
          "name": "C#5",
          "midi": 73,
          "time": 52.9593503854165,
          "velocity": 0.7874015748031497,
          "duration": 0.0010964895833325272
        },
        {
          "name": "E5",
          "midi": 76,
          "time": 52.9593503854165,
          "velocity": 0.7874015748031497,
          "duration": 0.0010964895833325272
        },
        {
          "name": "C#6",
          "midi": 85,
          "time": 52.9593503854165,
          "velocity": 0.7874015748031497,
          "duration": 0.0010964895833325272
        },
        {
          "name": "E6",
          "midi": 88,
          "time": 52.9593503854165,
          "velocity": 0.7874015748031497,
          "duration": 0.0010964895833325272
        },
        {
          "name": "C#7",
          "midi": 97,
          "time": 52.9593503854165,
          "velocity": 0.7874015748031497,
          "duration": 0.0010964895833325272
        },
        {
          "name": "E7",
          "midi": 100,
          "time": 52.9593503854165,
          "velocity": 0.7874015748031497,
          "duration": 0.0010964895833325272
        },
        {
          "name": "C#4",
          "midi": 61,
          "time": 53.48676187499983,
          "velocity": 0.7874015748031497,
          "duration": 0.0010964895833325272
        },
        {
          "name": "C#5",
          "midi": 73,
          "time": 53.48676187499983,
          "velocity": 0.7874015748031497,
          "duration": 0.0010964895833325272
        },
        {
          "name": "E5",
          "midi": 76,
          "time": 53.48676187499983,
          "velocity": 0.7874015748031497,
          "duration": 0.0010964895833325272
        },
        {
          "name": "C#6",
          "midi": 85,
          "time": 53.48676187499983,
          "velocity": 0.7874015748031497,
          "duration": 0.0010964895833325272
        },
        {
          "name": "E6",
          "midi": 88,
          "time": 53.48676187499983,
          "velocity": 0.7874015748031497,
          "duration": 0.0010964895833325272
        },
        {
          "name": "C#7",
          "midi": 97,
          "time": 53.48676187499983,
          "velocity": 0.7874015748031497,
          "duration": 0.0010964895833325272
        },
        {
          "name": "E7",
          "midi": 100,
          "time": 53.48676187499983,
          "velocity": 0.7874015748031497,
          "duration": 0.0010964895833325272
        },
        {
          "name": "C5",
          "midi": 72,
          "time": 53.88259461458316,
          "velocity": 0.7874015748031497,
          "duration": 0.0010964895833325272
        },
        {
          "name": "C6",
          "midi": 84,
          "time": 53.88259461458316,
          "velocity": 0.7874015748031497,
          "duration": 0.0010964895833325272
        },
        {
          "name": "C7",
          "midi": 96,
          "time": 53.88259461458316,
          "velocity": 0.7874015748031497,
          "duration": 0.0010964895833325272
        },
        {
          "name": "C#4",
          "midi": 61,
          "time": 54.21044499999983,
          "velocity": 0.7874015748031497,
          "duration": 0.0010964895833325272
        },
        {
          "name": "C#5",
          "midi": 73,
          "time": 54.21044499999983,
          "velocity": 0.7874015748031497,
          "duration": 0.0010964895833325272
        },
        {
          "name": "D5",
          "midi": 74,
          "time": 54.21044499999983,
          "velocity": 0.7874015748031497,
          "duration": 0.0010964895833325272
        },
        {
          "name": "C#6",
          "midi": 85,
          "time": 54.21044499999983,
          "velocity": 0.7874015748031497,
          "duration": 0.0010964895833325272
        },
        {
          "name": "D6",
          "midi": 86,
          "time": 54.21044499999983,
          "velocity": 0.7874015748031497,
          "duration": 0.0010964895833325272
        },
        {
          "name": "C#7",
          "midi": 97,
          "time": 54.21044499999983,
          "velocity": 0.7874015748031497,
          "duration": 0.0010964895833325272
        },
        {
          "name": "D7",
          "midi": 98,
          "time": 54.21044499999983,
          "velocity": 0.7874015748031497,
          "duration": 0.0010964895833325272
        },
        {
          "name": "C#4",
          "midi": 61,
          "time": 54.736759999999826,
          "velocity": 0.7874015748031497,
          "duration": 0.0010964895833325272
        },
        {
          "name": "C#5",
          "midi": 73,
          "time": 54.736759999999826,
          "velocity": 0.7874015748031497,
          "duration": 0.0010964895833325272
        },
        {
          "name": "D5",
          "midi": 74,
          "time": 54.736759999999826,
          "velocity": 0.7874015748031497,
          "duration": 0.0010964895833325272
        },
        {
          "name": "C#6",
          "midi": 85,
          "time": 54.736759999999826,
          "velocity": 0.7874015748031497,
          "duration": 0.0010964895833325272
        },
        {
          "name": "D6",
          "midi": 86,
          "time": 54.736759999999826,
          "velocity": 0.7874015748031497,
          "duration": 0.0010964895833325272
        },
        {
          "name": "C#7",
          "midi": 97,
          "time": 54.736759999999826,
          "velocity": 0.7874015748031497,
          "duration": 0.0010964895833325272
        },
        {
          "name": "D7",
          "midi": 98,
          "time": 54.736759999999826,
          "velocity": 0.7874015748031497,
          "duration": 0.0010964895833325272
        },
        {
          "name": "C#4",
          "midi": 61,
          "time": 55.26307499999982,
          "velocity": 0.7874015748031497,
          "duration": 0.0010964895833325272
        },
        {
          "name": "C#5",
          "midi": 73,
          "time": 55.26307499999982,
          "velocity": 0.7874015748031497,
          "duration": 0.0010964895833325272
        },
        {
          "name": "D5",
          "midi": 74,
          "time": 55.26307499999982,
          "velocity": 0.7874015748031497,
          "duration": 0.0010964895833325272
        },
        {
          "name": "C#6",
          "midi": 85,
          "time": 55.26307499999982,
          "velocity": 0.7874015748031497,
          "duration": 0.0010964895833325272
        },
        {
          "name": "D6",
          "midi": 86,
          "time": 55.26307499999982,
          "velocity": 0.7874015748031497,
          "duration": 0.0010964895833325272
        },
        {
          "name": "C#7",
          "midi": 97,
          "time": 55.26307499999982,
          "velocity": 0.7874015748031497,
          "duration": 0.0010964895833325272
        },
        {
          "name": "D7",
          "midi": 98,
          "time": 55.26307499999982,
          "velocity": 0.7874015748031497,
          "duration": 0.0010964895833325272
        },
        {
          "name": "C#4",
          "midi": 61,
          "time": 55.78938999999982,
          "velocity": 0.7874015748031497,
          "duration": 0.0010964895833325272
        },
        {
          "name": "C#5",
          "midi": 73,
          "time": 55.78938999999982,
          "velocity": 0.7874015748031497,
          "duration": 0.0010964895833325272
        },
        {
          "name": "D5",
          "midi": 74,
          "time": 55.78938999999982,
          "velocity": 0.7874015748031497,
          "duration": 0.0010964895833325272
        },
        {
          "name": "C#6",
          "midi": 85,
          "time": 55.78938999999982,
          "velocity": 0.7874015748031497,
          "duration": 0.0010964895833325272
        },
        {
          "name": "D6",
          "midi": 86,
          "time": 55.78938999999982,
          "velocity": 0.7874015748031497,
          "duration": 0.0010964895833325272
        },
        {
          "name": "C#7",
          "midi": 97,
          "time": 55.78938999999982,
          "velocity": 0.7874015748031497,
          "duration": 0.0010964895833325272
        },
        {
          "name": "D7",
          "midi": 98,
          "time": 55.78938999999982,
          "velocity": 0.7874015748031497,
          "duration": 0.0010964895833325272
        },
        {
          "name": "C6",
          "midi": 84,
          "time": 56.31570499999982,
          "velocity": 0.7874015748031497,
          "duration": 0.0010964895833325272
        },
        {
          "name": "C7",
          "midi": 96,
          "time": 56.31570499999982,
          "velocity": 0.7874015748031497,
          "duration": 0.0010964895833325272
        },
        {
          "name": "C7",
          "midi": 96,
          "time": 56.57995898958315,
          "velocity": 0.7874015748031497,
          "duration": 0.0010964895833325272
        },
        {
          "name": "E4",
          "midi": 64,
          "time": 56.84201999999981,
          "velocity": 0.7874015748031497,
          "duration": 0.0010964895833325272
        },
        {
          "name": "C5",
          "midi": 72,
          "time": 56.84201999999981,
          "velocity": 0.7874015748031497,
          "duration": 0.0010964895833325272
        },
        {
          "name": "E5",
          "midi": 76,
          "time": 56.84201999999981,
          "velocity": 0.7874015748031497,
          "duration": 0.0010964895833325272
        },
        {
          "name": "C6",
          "midi": 84,
          "time": 56.84201999999981,
          "velocity": 0.7874015748031497,
          "duration": 0.0010964895833325272
        },
        {
          "name": "E6",
          "midi": 88,
          "time": 56.84201999999981,
          "velocity": 0.7874015748031497,
          "duration": 0.0010964895833325272
        },
        {
          "name": "C7",
          "midi": 96,
          "time": 56.84201999999981,
          "velocity": 0.7874015748031497,
          "duration": 0.0010964895833325272
        },
        {
          "name": "E7",
          "midi": 100,
          "time": 56.84201999999981,
          "velocity": 0.7874015748031497,
          "duration": 0.0010964895833325272
        },
        {
          "name": "E4",
          "midi": 64,
          "time": 57.621624093749816,
          "velocity": 0.7874015748031497,
          "duration": 0.0010964895833325272
        },
        {
          "name": "E5",
          "midi": 76,
          "time": 57.621624093749816,
          "velocity": 0.7874015748031497,
          "duration": 0.0010964895833325272
        },
        {
          "name": "C6",
          "midi": 84,
          "time": 57.621624093749816,
          "velocity": 0.7874015748031497,
          "duration": 0.0010964895833325272
        },
        {
          "name": "E6",
          "midi": 88,
          "time": 57.621624093749816,
          "velocity": 0.7874015748031497,
          "duration": 0.0010964895833325272
        },
        {
          "name": "C7",
          "midi": 96,
          "time": 57.621624093749816,
          "velocity": 0.7874015748031497,
          "duration": 0.0010964895833325272
        },
        {
          "name": "E7",
          "midi": 100,
          "time": 57.621624093749816,
          "velocity": 0.7874015748031497,
          "duration": 0.0010964895833325272
        },
        {
          "name": "E4",
          "midi": 64,
          "time": 58.15780749999981,
          "velocity": 0.7874015748031497,
          "duration": 0.0010964895833325272
        },
        {
          "name": "E5",
          "midi": 76,
          "time": 58.15780749999981,
          "velocity": 0.7874015748031497,
          "duration": 0.0010964895833325272
        },
        {
          "name": "C6",
          "midi": 84,
          "time": 58.15780749999981,
          "velocity": 0.7874015748031497,
          "duration": 0.0010964895833325272
        },
        {
          "name": "E6",
          "midi": 88,
          "time": 58.15780749999981,
          "velocity": 0.7874015748031497,
          "duration": 0.0010964895833325272
        },
        {
          "name": "C7",
          "midi": 96,
          "time": 58.15780749999981,
          "velocity": 0.7874015748031497,
          "duration": 0.0010964895833325272
        },
        {
          "name": "E7",
          "midi": 100,
          "time": 58.15780749999981,
          "velocity": 0.7874015748031497,
          "duration": 0.0010964895833325272
        },
        {
          "name": "E4",
          "midi": 64,
          "time": 58.68302601041648,
          "velocity": 0.7874015748031497,
          "duration": 0.0010964895833325272
        },
        {
          "name": "C5",
          "midi": 72,
          "time": 58.68302601041648,
          "velocity": 0.7874015748031497,
          "duration": 0.0010964895833325272
        },
        {
          "name": "E5",
          "midi": 76,
          "time": 58.68302601041648,
          "velocity": 0.7874015748031497,
          "duration": 0.0010964895833325272
        },
        {
          "name": "C6",
          "midi": 84,
          "time": 58.68302601041648,
          "velocity": 0.7874015748031497,
          "duration": 0.0010964895833325272
        },
        {
          "name": "E6",
          "midi": 88,
          "time": 58.68302601041648,
          "velocity": 0.7874015748031497,
          "duration": 0.0010964895833325272
        },
        {
          "name": "C7",
          "midi": 96,
          "time": 58.68302601041648,
          "velocity": 0.7874015748031497,
          "duration": 0.0010964895833325272
        },
        {
          "name": "E7",
          "midi": 100,
          "time": 58.68302601041648,
          "velocity": 0.7874015748031497,
          "duration": 0.0010964895833325272
        },
        {
          "name": "E4",
          "midi": 64,
          "time": 59.47359499999981,
          "velocity": 0.7874015748031497,
          "duration": 0.0010964895833325272
        },
        {
          "name": "E5",
          "midi": 76,
          "time": 59.47359499999981,
          "velocity": 0.7874015748031497,
          "duration": 0.0010964895833325272
        },
        {
          "name": "C6",
          "midi": 84,
          "time": 59.47359499999981,
          "velocity": 0.7874015748031497,
          "duration": 0.0010964895833325272
        },
        {
          "name": "E6",
          "midi": 88,
          "time": 59.47359499999981,
          "velocity": 0.7874015748031497,
          "duration": 0.0010964895833325272
        },
        {
          "name": "C7",
          "midi": 96,
          "time": 59.47359499999981,
          "velocity": 0.7874015748031497,
          "duration": 0.0010964895833325272
        },
        {
          "name": "E7",
          "midi": 100,
          "time": 59.47359499999981,
          "velocity": 0.7874015748031497,
          "duration": 0.0010964895833325272
        },
        {
          "name": "E4",
          "midi": 64,
          "time": 59.99990999999981,
          "velocity": 0.7874015748031497,
          "duration": 0.0010964895833325272
        },
        {
          "name": "E5",
          "midi": 76,
          "time": 59.99990999999981,
          "velocity": 0.7874015748031497,
          "duration": 0.0010964895833325272
        },
        {
          "name": "C6",
          "midi": 84,
          "time": 59.99990999999981,
          "velocity": 0.7874015748031497,
          "duration": 0.0010964895833325272
        },
        {
          "name": "E6",
          "midi": 88,
          "time": 59.99990999999981,
          "velocity": 0.7874015748031497,
          "duration": 0.0010964895833325272
        },
        {
          "name": "C7",
          "midi": 96,
          "time": 59.99990999999981,
          "velocity": 0.7874015748031497,
          "duration": 0.0010964895833325272
        },
        {
          "name": "E7",
          "midi": 100,
          "time": 59.99990999999981,
          "velocity": 0.7874015748031497,
          "duration": 0.0010964895833325272
        },
        {
          "name": "E4",
          "midi": 64,
          "time": 60.526224999999805,
          "velocity": 0.7874015748031497,
          "duration": 0.0010964895833325272
        },
        {
          "name": "E5",
          "midi": 76,
          "time": 60.526224999999805,
          "velocity": 0.7874015748031497,
          "duration": 0.0010964895833325272
        },
        {
          "name": "C6",
          "midi": 84,
          "time": 60.526224999999805,
          "velocity": 0.7874015748031497,
          "duration": 0.0010964895833325272
        },
        {
          "name": "E6",
          "midi": 88,
          "time": 60.526224999999805,
          "velocity": 0.7874015748031497,
          "duration": 0.0010964895833325272
        },
        {
          "name": "C7",
          "midi": 96,
          "time": 60.526224999999805,
          "velocity": 0.7874015748031497,
          "duration": 0.0010964895833325272
        },
        {
          "name": "E7",
          "midi": 100,
          "time": 60.526224999999805,
          "velocity": 0.7874015748031497,
          "duration": 0.0010964895833325272
        },
        {
          "name": "E4",
          "midi": 64,
          "time": 61.0525399999998,
          "velocity": 0.7874015748031497,
          "duration": 0.0010964895833325272
        },
        {
          "name": "C5",
          "midi": 72,
          "time": 61.0525399999998,
          "velocity": 0.7874015748031497,
          "duration": 0.0010964895833325272
        },
        {
          "name": "E5",
          "midi": 76,
          "time": 61.0525399999998,
          "velocity": 0.7874015748031497,
          "duration": 0.0010964895833325272
        },
        {
          "name": "C6",
          "midi": 84,
          "time": 61.0525399999998,
          "velocity": 0.7874015748031497,
          "duration": 0.0010964895833325272
        },
        {
          "name": "E6",
          "midi": 88,
          "time": 61.0525399999998,
          "velocity": 0.7874015748031497,
          "duration": 0.0010964895833325272
        },
        {
          "name": "C7",
          "midi": 96,
          "time": 61.0525399999998,
          "velocity": 0.7874015748031497,
          "duration": 0.0010964895833325272
        },
        {
          "name": "E7",
          "midi": 100,
          "time": 61.0525399999998,
          "velocity": 0.7874015748031497,
          "duration": 0.0010964895833325272
        },
        {
          "name": "C#4",
          "midi": 61,
          "time": 63.1577999999998,
          "velocity": 0.7874015748031497,
          "duration": 0.0010964895833325272
        },
        {
          "name": "C#5",
          "midi": 73,
          "time": 63.1577999999998,
          "velocity": 0.7874015748031497,
          "duration": 0.0010964895833325272
        },
        {
          "name": "C#6",
          "midi": 85,
          "time": 63.1577999999998,
          "velocity": 0.7874015748031497,
          "duration": 0.0010964895833325272
        },
        {
          "name": "C#7",
          "midi": 97,
          "time": 63.1577999999998,
          "velocity": 0.7874015748031497,
          "duration": 0.0010964895833325272
        },
        {
          "name": "C#6",
          "midi": 85,
          "time": 63.267448958333134,
          "velocity": 0.7874015748031497,
          "duration": 0.0010964895833325272
        },
        {
          "name": "C#7",
          "midi": 97,
          "time": 63.267448958333134,
          "velocity": 0.7874015748031497,
          "duration": 0.0010964895833325272
        },
        {
          "name": "C#5",
          "midi": 73,
          "time": 63.333238333333135,
          "velocity": 0.7874015748031497,
          "duration": 0.0010964895833325272
        },
        {
          "name": "C#6",
          "midi": 85,
          "time": 63.377097916666465,
          "velocity": 0.7874015748031497,
          "duration": 0.0010964895833325272
        },
        {
          "name": "C#7",
          "midi": 97,
          "time": 63.377097916666465,
          "velocity": 0.7874015748031497,
          "duration": 0.0010964895833325272
        },
        {
          "name": "C#5",
          "midi": 73,
          "time": 63.50867666666646,
          "velocity": 0.7874015748031497,
          "duration": 0.0010964895833325272
        },
        {
          "name": "C#6",
          "midi": 85,
          "time": 63.50867666666646,
          "velocity": 0.7874015748031497,
          "duration": 0.0010964895833325272
        },
        {
          "name": "C#7",
          "midi": 97,
          "time": 63.50867666666646,
          "velocity": 0.7874015748031497,
          "duration": 0.0010964895833325272
        },
        {
          "name": "C#4",
          "midi": 61,
          "time": 63.68411499999979,
          "velocity": 0.7874015748031497,
          "duration": 0.0010964895833325272
        },
        {
          "name": "C#6",
          "midi": 85,
          "time": 63.68411499999979,
          "velocity": 0.7874015748031497,
          "duration": 0.0010964895833325272
        },
        {
          "name": "C#7",
          "midi": 97,
          "time": 63.68411499999979,
          "velocity": 0.7874015748031497,
          "duration": 0.0010964895833325272
        },
        {
          "name": "C#5",
          "midi": 73,
          "time": 63.86064982291646,
          "velocity": 0.7874015748031497,
          "duration": 0.0010964895833325272
        },
        {
          "name": "C#6",
          "midi": 85,
          "time": 63.86064982291646,
          "velocity": 0.7874015748031497,
          "duration": 0.0010964895833325272
        },
        {
          "name": "C#7",
          "midi": 97,
          "time": 63.86064982291646,
          "velocity": 0.7874015748031497,
          "duration": 0.0010964895833325272
        },
        {
          "name": "C#6",
          "midi": 85,
          "time": 64.03499166666646,
          "velocity": 0.7874015748031497,
          "duration": 0.0010964895833325272
        },
        {
          "name": "C#7",
          "midi": 97,
          "time": 64.03499166666646,
          "velocity": 0.7874015748031497,
          "duration": 0.0010964895833325272
        },
        {
          "name": "C#4",
          "midi": 61,
          "time": 64.21042999999979,
          "velocity": 0.7874015748031497,
          "duration": 0.0010964895833325272
        },
        {
          "name": "C#5",
          "midi": 73,
          "time": 64.21042999999979,
          "velocity": 0.7874015748031497,
          "duration": 0.0010964895833325272
        },
        {
          "name": "C#6",
          "midi": 85,
          "time": 64.21042999999979,
          "velocity": 0.7874015748031497,
          "duration": 0.0010964895833325272
        },
        {
          "name": "C#7",
          "midi": 97,
          "time": 64.21042999999979,
          "velocity": 0.7874015748031497,
          "duration": 0.0010964895833325272
        },
        {
          "name": "C#6",
          "midi": 85,
          "time": 64.38696482291645,
          "velocity": 0.7874015748031497,
          "duration": 0.0010964895833325272
        },
        {
          "name": "C#7",
          "midi": 97,
          "time": 64.38696482291645,
          "velocity": 0.7874015748031497,
          "duration": 0.0010964895833325272
        },
        {
          "name": "C#5",
          "midi": 73,
          "time": 64.56130666666645,
          "velocity": 0.7874015748031497,
          "duration": 0.0010964895833325272
        },
        {
          "name": "C#6",
          "midi": 85,
          "time": 64.56130666666645,
          "velocity": 0.7874015748031497,
          "duration": 0.0010964895833325272
        },
        {
          "name": "C#7",
          "midi": 97,
          "time": 64.56130666666645,
          "velocity": 0.7874015748031497,
          "duration": 0.0010964895833325272
        },
        {
          "name": "C#4",
          "midi": 61,
          "time": 64.73674499999979,
          "velocity": 0.7874015748031497,
          "duration": 0.0010964895833325272
        },
        {
          "name": "C#6",
          "midi": 85,
          "time": 64.73674499999979,
          "velocity": 0.7874015748031497,
          "duration": 0.0010964895833325272
        },
        {
          "name": "C#7",
          "midi": 97,
          "time": 64.73674499999979,
          "velocity": 0.7874015748031497,
          "duration": 0.0010964895833325272
        },
        {
          "name": "C#5",
          "midi": 73,
          "time": 64.91218333333312,
          "velocity": 0.7874015748031497,
          "duration": 0.0010964895833325272
        },
        {
          "name": "C#6",
          "midi": 85,
          "time": 64.91218333333312,
          "velocity": 0.7874015748031497,
          "duration": 0.0010964895833325272
        },
        {
          "name": "C#7",
          "midi": 97,
          "time": 64.91218333333312,
          "velocity": 0.7874015748031497,
          "duration": 0.0010964895833325272
        },
        {
          "name": "C#6",
          "midi": 85,
          "time": 65.08762166666645,
          "velocity": 0.7874015748031497,
          "duration": 0.0010964895833325272
        },
        {
          "name": "C#7",
          "midi": 97,
          "time": 65.08762166666645,
          "velocity": 0.7874015748031497,
          "duration": 0.0010964895833325272
        },
        {
          "name": "C#5",
          "midi": 73,
          "time": 65.26305999999978,
          "velocity": 0.7874015748031497,
          "duration": 0.0010964895833325272
        },
        {
          "name": "C#6",
          "midi": 85,
          "time": 65.26305999999978,
          "velocity": 0.7874015748031497,
          "duration": 0.0010964895833325272
        },
        {
          "name": "C#7",
          "midi": 97,
          "time": 65.26305999999978,
          "velocity": 0.7874015748031497,
          "duration": 0.0010964895833325272
        },
        {
          "name": "D4",
          "midi": 62,
          "time": 65.43849833333311,
          "velocity": 0.7874015748031497,
          "duration": 0.0010964895833325272
        },
        {
          "name": "D5",
          "midi": 74,
          "time": 65.43849833333311,
          "velocity": 0.7874015748031497,
          "duration": 0.0010964895833325272
        },
        {
          "name": "C6",
          "midi": 84,
          "time": 65.43849833333311,
          "velocity": 0.7874015748031497,
          "duration": 0.0010964895833325272
        },
        {
          "name": "D6",
          "midi": 86,
          "time": 65.43849833333311,
          "velocity": 0.7874015748031497,
          "duration": 0.0010964895833325272
        },
        {
          "name": "C7",
          "midi": 96,
          "time": 65.43849833333311,
          "velocity": 0.7874015748031497,
          "duration": 0.0010964895833325272
        },
        {
          "name": "D7",
          "midi": 98,
          "time": 65.43849833333311,
          "velocity": 0.7874015748031497,
          "duration": 0.0010964895833325272
        },
        {
          "name": "G#8",
          "midi": 116,
          "time": 66.84200499999979,
          "velocity": 0.7874015748031497,
          "duration": 0.5910078854166585
        },
        {
          "name": "C#4",
          "midi": 61,
          "time": 66.84200499999979,
          "velocity": 0.7874015748031497,
          "duration": 0.0010964895833325272
        },
        {
          "name": "C#5",
          "midi": 73,
          "time": 66.84200499999979,
          "velocity": 0.7874015748031497,
          "duration": 0.0010964895833325272
        },
        {
          "name": "C#6",
          "midi": 85,
          "time": 66.84200499999979,
          "velocity": 0.7874015748031497,
          "duration": 0.0010964895833325272
        },
        {
          "name": "C#7",
          "midi": 97,
          "time": 66.84200499999979,
          "velocity": 0.7874015748031497,
          "duration": 0.0010964895833325272
        },
        {
          "name": "C#5",
          "midi": 73,
          "time": 67.04046961458312,
          "velocity": 0.7874015748031497,
          "duration": 0.0010964895833325272
        },
        {
          "name": "C#6",
          "midi": 85,
          "time": 67.04046961458312,
          "velocity": 0.7874015748031497,
          "duration": 0.0010964895833325272
        },
        {
          "name": "C#7",
          "midi": 97,
          "time": 67.04046961458312,
          "velocity": 0.7874015748031497,
          "duration": 0.0010964895833325272
        },
        {
          "name": "C#5",
          "midi": 73,
          "time": 67.17204836458312,
          "velocity": 0.7874015748031497,
          "duration": 0.0010964895833325272
        },
        {
          "name": "C#6",
          "midi": 85,
          "time": 67.17204836458312,
          "velocity": 0.7874015748031497,
          "duration": 0.0010964895833325272
        },
        {
          "name": "C#7",
          "midi": 97,
          "time": 67.17204836458312,
          "velocity": 0.7874015748031497,
          "duration": 0.0010964895833325272
        },
        {
          "name": "C#4",
          "midi": 61,
          "time": 67.36831999999978,
          "velocity": 0.7874015748031497,
          "duration": 0.0010964895833325272
        },
        {
          "name": "C#5",
          "midi": 73,
          "time": 67.36831999999978,
          "velocity": 0.7874015748031497,
          "duration": 0.0010964895833325272
        },
        {
          "name": "C#6",
          "midi": 85,
          "time": 67.36831999999978,
          "velocity": 0.7874015748031497,
          "duration": 0.0010964895833325272
        },
        {
          "name": "C#7",
          "midi": 97,
          "time": 67.36831999999978,
          "velocity": 0.7874015748031497,
          "duration": 0.0010964895833325272
        },
        {
          "name": "C#4",
          "midi": 61,
          "time": 68.42094999999978,
          "velocity": 0.7874015748031497,
          "duration": 0.0010964895833325272
        },
        {
          "name": "C#5",
          "midi": 73,
          "time": 68.42094999999978,
          "velocity": 0.7874015748031497,
          "duration": 0.0010964895833325272
        },
        {
          "name": "C#6",
          "midi": 85,
          "time": 68.42094999999978,
          "velocity": 0.7874015748031497,
          "duration": 0.0010964895833325272
        },
        {
          "name": "C#7",
          "midi": 97,
          "time": 68.42094999999978,
          "velocity": 0.7874015748031497,
          "duration": 0.0010964895833325272
        },
        {
          "name": "C#6",
          "midi": 85,
          "time": 68.57445854166644,
          "velocity": 0.7874015748031497,
          "duration": 0.0010964895833325272
        },
        {
          "name": "C#7",
          "midi": 97,
          "time": 68.57445854166644,
          "velocity": 0.7874015748031497,
          "duration": 0.0010964895833325272
        },
        {
          "name": "C#5",
          "midi": 73,
          "time": 68.70603729166645,
          "velocity": 0.7874015748031497,
          "duration": 0.0010964895833325272
        },
        {
          "name": "C#6",
          "midi": 85,
          "time": 68.70603729166645,
          "velocity": 0.7874015748031497,
          "duration": 0.0010964895833325272
        },
        {
          "name": "C#7",
          "midi": 97,
          "time": 68.70603729166645,
          "velocity": 0.7874015748031497,
          "duration": 0.0010964895833325272
        },
        {
          "name": "C#7",
          "midi": 97,
          "time": 68.81678273958312,
          "velocity": 0.7874015748031497,
          "duration": 0.0010964895833325272
        },
        {
          "name": "C#4",
          "midi": 61,
          "time": 68.94726499999979,
          "velocity": 0.7874015748031497,
          "duration": 0.0010964895833325272
        },
        {
          "name": "C#6",
          "midi": 85,
          "time": 68.94726499999979,
          "velocity": 0.7874015748031497,
          "duration": 0.0010964895833325272
        },
        {
          "name": "C#7",
          "midi": 97,
          "time": 68.94726499999979,
          "velocity": 0.7874015748031497,
          "duration": 0.0010964895833325272
        },
        {
          "name": "C#5",
          "midi": 73,
          "time": 69.07884374999979,
          "velocity": 0.7874015748031497,
          "duration": 0.0010964895833325272
        },
        {
          "name": "C#6",
          "midi": 85,
          "time": 69.07884374999979,
          "velocity": 0.7874015748031497,
          "duration": 0.0010964895833325272
        },
        {
          "name": "C#7",
          "midi": 97,
          "time": 69.07884374999979,
          "velocity": 0.7874015748031497,
          "duration": 0.0010964895833325272
        },
        {
          "name": "C#7",
          "midi": 97,
          "time": 69.2104224999998,
          "velocity": 0.7874015748031497,
          "duration": 0.0010964895833325272
        },
        {
          "name": "C#7",
          "midi": 97,
          "time": 69.3420012499998,
          "velocity": 0.7874015748031497,
          "duration": 0.0010964895833325272
        },
        {
          "name": "D4",
          "midi": 62,
          "time": 69.4735799999998,
          "velocity": 0.7874015748031497,
          "duration": 0.0010964895833325272
        },
        {
          "name": "D5",
          "midi": 74,
          "time": 69.4735799999998,
          "velocity": 0.7874015748031497,
          "duration": 0.0010964895833325272
        },
        {
          "name": "C#6",
          "midi": 85,
          "time": 69.4735799999998,
          "velocity": 0.7874015748031497,
          "duration": 0.0010964895833325272
        },
        {
          "name": "D6",
          "midi": 86,
          "time": 69.4735799999998,
          "velocity": 0.7874015748031497,
          "duration": 0.0010964895833325272
        },
        {
          "name": "C#7",
          "midi": 97,
          "time": 69.4735799999998,
          "velocity": 0.7874015748031497,
          "duration": 0.0010964895833325272
        },
        {
          "name": "E7",
          "midi": 100,
          "time": 69.4735799999998,
          "velocity": 0.7874015748031497,
          "duration": 0.0010964895833325272
        },
        {
          "name": "E4",
          "midi": 64,
          "time": 71.5788399999998,
          "velocity": 0.7874015748031497,
          "duration": 0.0010964895833325272
        },
        {
          "name": "C5",
          "midi": 72,
          "time": 71.5788399999998,
          "velocity": 0.7874015748031497,
          "duration": 0.0010964895833325272
        },
        {
          "name": "E5",
          "midi": 76,
          "time": 71.5788399999998,
          "velocity": 0.7874015748031497,
          "duration": 0.0010964895833325272
        },
        {
          "name": "C6",
          "midi": 84,
          "time": 71.5788399999998,
          "velocity": 0.7874015748031497,
          "duration": 0.0010964895833325272
        },
        {
          "name": "E6",
          "midi": 88,
          "time": 71.5788399999998,
          "velocity": 0.7874015748031497,
          "duration": 0.0010964895833325272
        },
        {
          "name": "C7",
          "midi": 96,
          "time": 71.5788399999998,
          "velocity": 0.7874015748031497,
          "duration": 0.0010964895833325272
        },
        {
          "name": "E7",
          "midi": 100,
          "time": 71.5788399999998,
          "velocity": 0.7874015748031497,
          "duration": 0.0010964895833325272
        },
        {
          "name": "C#4",
          "midi": 61,
          "time": 72.1051549999998,
          "velocity": 0.7874015748031497,
          "duration": 0.0010964895833325272
        },
        {
          "name": "C#5",
          "midi": 73,
          "time": 72.1051549999998,
          "velocity": 0.7874015748031497,
          "duration": 0.0010964895833325272
        },
        {
          "name": "D5",
          "midi": 74,
          "time": 72.1051549999998,
          "velocity": 0.7874015748031497,
          "duration": 0.0010964895833325272
        },
        {
          "name": "C#6",
          "midi": 85,
          "time": 72.1051549999998,
          "velocity": 0.7874015748031497,
          "duration": 0.0010964895833325272
        },
        {
          "name": "D6",
          "midi": 86,
          "time": 72.1051549999998,
          "velocity": 0.7874015748031497,
          "duration": 0.0010964895833325272
        },
        {
          "name": "C#7",
          "midi": 97,
          "time": 72.1051549999998,
          "velocity": 0.7874015748031497,
          "duration": 0.0010964895833325272
        },
        {
          "name": "D7",
          "midi": 98,
          "time": 72.1051549999998,
          "velocity": 0.7874015748031497,
          "duration": 0.0010964895833325272
        },
        {
          "name": "D4",
          "midi": 62,
          "time": 72.6314699999998,
          "velocity": 0.7874015748031497,
          "duration": 0.0010964895833325272
        },
        {
          "name": "D5",
          "midi": 74,
          "time": 72.6314699999998,
          "velocity": 0.7874015748031497,
          "duration": 0.0010964895833325272
        },
        {
          "name": "D6",
          "midi": 86,
          "time": 72.6314699999998,
          "velocity": 0.7874015748031497,
          "duration": 0.0010964895833325272
        },
        {
          "name": "D7",
          "midi": 98,
          "time": 72.6314699999998,
          "velocity": 0.7874015748031497,
          "duration": 0.0010964895833325272
        },
        {
          "name": "C5",
          "midi": 72,
          "time": 72.8946274999998,
          "velocity": 0.7874015748031497,
          "duration": 0.0010964895833325272
        },
        {
          "name": "C6",
          "midi": 84,
          "time": 72.8946274999998,
          "velocity": 0.7874015748031497,
          "duration": 0.0010964895833325272
        },
        {
          "name": "C7",
          "midi": 96,
          "time": 72.8946274999998,
          "velocity": 0.7874015748031497,
          "duration": 0.0010964895833325272
        },
        {
          "name": "C#4",
          "midi": 61,
          "time": 73.1577849999998,
          "velocity": 0.7874015748031497,
          "duration": 0.0010964895833325272
        },
        {
          "name": "C#5",
          "midi": 73,
          "time": 73.1577849999998,
          "velocity": 0.7874015748031497,
          "duration": 0.0010964895833325272
        },
        {
          "name": "D5",
          "midi": 74,
          "time": 73.1577849999998,
          "velocity": 0.7874015748031497,
          "duration": 0.0010964895833325272
        },
        {
          "name": "C#6",
          "midi": 85,
          "time": 73.1577849999998,
          "velocity": 0.7874015748031497,
          "duration": 0.0010964895833325272
        },
        {
          "name": "D6",
          "midi": 86,
          "time": 73.1577849999998,
          "velocity": 0.7874015748031497,
          "duration": 0.0010964895833325272
        },
        {
          "name": "C#7",
          "midi": 97,
          "time": 73.1577849999998,
          "velocity": 0.7874015748031497,
          "duration": 0.0010964895833325272
        },
        {
          "name": "D7",
          "midi": 98,
          "time": 73.1577849999998,
          "velocity": 0.7874015748031497,
          "duration": 0.0010964895833325272
        },
        {
          "name": "C4",
          "midi": 60,
          "time": 73.6840999999998,
          "velocity": 0.7874015748031497,
          "duration": 0.0010964895833325272
        },
        {
          "name": "C5",
          "midi": 72,
          "time": 73.6840999999998,
          "velocity": 0.7874015748031497,
          "duration": 0.0010964895833325272
        },
        {
          "name": "D5",
          "midi": 74,
          "time": 73.6840999999998,
          "velocity": 0.7874015748031497,
          "duration": 0.0010964895833325272
        },
        {
          "name": "C6",
          "midi": 84,
          "time": 73.6840999999998,
          "velocity": 0.7874015748031497,
          "duration": 0.0010964895833325272
        },
        {
          "name": "D6",
          "midi": 86,
          "time": 73.6840999999998,
          "velocity": 0.7874015748031497,
          "duration": 0.0010964895833325272
        },
        {
          "name": "C7",
          "midi": 96,
          "time": 73.6840999999998,
          "velocity": 0.7874015748031497,
          "duration": 0.0010964895833325272
        },
        {
          "name": "D7",
          "midi": 98,
          "time": 73.6840999999998,
          "velocity": 0.7874015748031497,
          "duration": 0.0010964895833325272
        },
        {
          "name": "C7",
          "midi": 96,
          "time": 73.94725749999981,
          "velocity": 0.7874015748031497,
          "duration": 0.0010964895833325272
        },
        {
          "name": "C6",
          "midi": 84,
          "time": 74.07773976041648,
          "velocity": 0.7874015748031497,
          "duration": 0.0010964895833325272
        },
        {
          "name": "C7",
          "midi": 96,
          "time": 74.07773976041648,
          "velocity": 0.7874015748031497,
          "duration": 0.0010964895833325272
        },
        {
          "name": "C#4",
          "midi": 61,
          "time": 74.21041499999981,
          "velocity": 0.7874015748031497,
          "duration": 0.0010964895833325272
        },
        {
          "name": "C#5",
          "midi": 73,
          "time": 74.21041499999981,
          "velocity": 0.7874015748031497,
          "duration": 0.0010964895833325272
        },
        {
          "name": "D5",
          "midi": 74,
          "time": 74.21041499999981,
          "velocity": 0.7874015748031497,
          "duration": 0.0010964895833325272
        },
        {
          "name": "C#6",
          "midi": 85,
          "time": 74.21041499999981,
          "velocity": 0.7874015748031497,
          "duration": 0.0010964895833325272
        },
        {
          "name": "D6",
          "midi": 86,
          "time": 74.21041499999981,
          "velocity": 0.7874015748031497,
          "duration": 0.0010964895833325272
        },
        {
          "name": "C#7",
          "midi": 97,
          "time": 74.21041499999981,
          "velocity": 0.7874015748031497,
          "duration": 0.0010964895833325272
        },
        {
          "name": "D7",
          "midi": 98,
          "time": 74.21041499999981,
          "velocity": 0.7874015748031497,
          "duration": 0.0010964895833325272
        },
        {
          "name": "C7",
          "midi": 96,
          "time": 74.47357249999982,
          "velocity": 0.7874015748031497,
          "duration": 0.0010964895833325272
        },
        {
          "name": "D4",
          "midi": 62,
          "time": 74.73672999999982,
          "velocity": 0.7874015748031497,
          "duration": 0.0010964895833325272
        },
        {
          "name": "D5",
          "midi": 74,
          "time": 74.73672999999982,
          "velocity": 0.7874015748031497,
          "duration": 0.0010964895833325272
        },
        {
          "name": "D6",
          "midi": 86,
          "time": 74.73672999999982,
          "velocity": 0.7874015748031497,
          "duration": 0.0010964895833325272
        },
        {
          "name": "D7",
          "midi": 98,
          "time": 74.73672999999982,
          "velocity": 0.7874015748031497,
          "duration": 0.0010964895833325272
        },
        {
          "name": "C6",
          "midi": 84,
          "time": 74.99988749999983,
          "velocity": 0.7874015748031497,
          "duration": 0.0010964895833325272
        },
        {
          "name": "C7",
          "midi": 96,
          "time": 74.99988749999983,
          "velocity": 0.7874015748031497,
          "duration": 0.0010964895833325272
        },
        {
          "name": "C#4",
          "midi": 61,
          "time": 75.26304499999983,
          "velocity": 0.7874015748031497,
          "duration": 0.0010964895833325272
        },
        {
          "name": "C#5",
          "midi": 73,
          "time": 75.26304499999983,
          "velocity": 0.7874015748031497,
          "duration": 0.0010964895833325272
        },
        {
          "name": "D5",
          "midi": 74,
          "time": 75.26304499999983,
          "velocity": 0.7874015748031497,
          "duration": 0.0010964895833325272
        },
        {
          "name": "C#6",
          "midi": 85,
          "time": 75.26304499999983,
          "velocity": 0.7874015748031497,
          "duration": 0.0010964895833325272
        },
        {
          "name": "D6",
          "midi": 86,
          "time": 75.26304499999983,
          "velocity": 0.7874015748031497,
          "duration": 0.0010964895833325272
        },
        {
          "name": "C#7",
          "midi": 97,
          "time": 75.26304499999983,
          "velocity": 0.7874015748031497,
          "duration": 0.0010964895833325272
        },
        {
          "name": "D7",
          "midi": 98,
          "time": 75.26304499999983,
          "velocity": 0.7874015748031497,
          "duration": 0.0010964895833325272
        },
        {
          "name": "D4",
          "midi": 62,
          "time": 75.78935999999983,
          "velocity": 0.7874015748031497,
          "duration": 0.0010964895833325272
        },
        {
          "name": "D5",
          "midi": 74,
          "time": 75.78935999999983,
          "velocity": 0.7874015748031497,
          "duration": 0.0010964895833325272
        },
        {
          "name": "D6",
          "midi": 86,
          "time": 75.78935999999983,
          "velocity": 0.7874015748031497,
          "duration": 0.0010964895833325272
        },
        {
          "name": "D7",
          "midi": 98,
          "time": 75.78935999999983,
          "velocity": 0.7874015748031497,
          "duration": 0.0010964895833325272
        },
        {
          "name": "C5",
          "midi": 72,
          "time": 76.05361398958317,
          "velocity": 0.7874015748031497,
          "duration": 0.0010964895833325272
        },
        {
          "name": "C6",
          "midi": 84,
          "time": 76.05361398958317,
          "velocity": 0.7874015748031497,
          "duration": 0.0010964895833325272
        },
        {
          "name": "C7",
          "midi": 96,
          "time": 76.05361398958317,
          "velocity": 0.7874015748031497,
          "duration": 0.0010964895833325272
        },
        {
          "name": "C#4",
          "midi": 61,
          "time": 76.31567499999983,
          "velocity": 0.7874015748031497,
          "duration": 0.0010964895833325272
        },
        {
          "name": "C#5",
          "midi": 73,
          "time": 76.31567499999983,
          "velocity": 0.7874015748031497,
          "duration": 0.0010964895833325272
        },
        {
          "name": "D5",
          "midi": 74,
          "time": 76.31567499999983,
          "velocity": 0.7874015748031497,
          "duration": 0.0010964895833325272
        },
        {
          "name": "C#6",
          "midi": 85,
          "time": 76.31567499999983,
          "velocity": 0.7874015748031497,
          "duration": 0.0010964895833325272
        },
        {
          "name": "D6",
          "midi": 86,
          "time": 76.31567499999983,
          "velocity": 0.7874015748031497,
          "duration": 0.0010964895833325272
        },
        {
          "name": "C#7",
          "midi": 97,
          "time": 76.31567499999983,
          "velocity": 0.7874015748031497,
          "duration": 0.0010964895833325272
        },
        {
          "name": "D7",
          "midi": 98,
          "time": 76.31567499999983,
          "velocity": 0.7874015748031497,
          "duration": 0.0010964895833325272
        },
        {
          "name": "D4",
          "midi": 62,
          "time": 76.84198999999983,
          "velocity": 0.7874015748031497,
          "duration": 0.0010964895833325272
        },
        {
          "name": "C5",
          "midi": 72,
          "time": 76.84198999999983,
          "velocity": 0.7874015748031497,
          "duration": 0.0010964895833325272
        },
        {
          "name": "D5",
          "midi": 74,
          "time": 76.84198999999983,
          "velocity": 0.7874015748031497,
          "duration": 0.0010964895833325272
        },
        {
          "name": "C6",
          "midi": 84,
          "time": 76.84198999999983,
          "velocity": 0.7874015748031497,
          "duration": 0.0010964895833325272
        },
        {
          "name": "D6",
          "midi": 86,
          "time": 76.84198999999983,
          "velocity": 0.7874015748031497,
          "duration": 0.0010964895833325272
        },
        {
          "name": "C7",
          "midi": 96,
          "time": 76.84198999999983,
          "velocity": 0.7874015748031497,
          "duration": 0.0010964895833325272
        },
        {
          "name": "D7",
          "midi": 98,
          "time": 76.84198999999983,
          "velocity": 0.7874015748031497,
          "duration": 0.0010964895833325272
        },
        {
          "name": "C7",
          "midi": 96,
          "time": 77.10514749999983,
          "velocity": 0.7874015748031497,
          "duration": 0.0010964895833325272
        },
        {
          "name": "C6",
          "midi": 84,
          "time": 77.23672624999983,
          "velocity": 0.7874015748031497,
          "duration": 0.0010964895833325272
        },
        {
          "name": "C7",
          "midi": 96,
          "time": 77.23672624999983,
          "velocity": 0.7874015748031497,
          "duration": 0.0010964895833325272
        },
        {
          "name": "C#4",
          "midi": 61,
          "time": 77.36830499999984,
          "velocity": 0.7874015748031497,
          "duration": 0.0010964895833325272
        },
        {
          "name": "C#5",
          "midi": 73,
          "time": 77.36830499999984,
          "velocity": 0.7874015748031497,
          "duration": 0.0010964895833325272
        },
        {
          "name": "D5",
          "midi": 74,
          "time": 77.36830499999984,
          "velocity": 0.7874015748031497,
          "duration": 0.0010964895833325272
        },
        {
          "name": "C#6",
          "midi": 85,
          "time": 77.36830499999984,
          "velocity": 0.7874015748031497,
          "duration": 0.0010964895833325272
        },
        {
          "name": "D6",
          "midi": 86,
          "time": 77.36830499999984,
          "velocity": 0.7874015748031497,
          "duration": 0.0010964895833325272
        },
        {
          "name": "C#7",
          "midi": 97,
          "time": 77.36830499999984,
          "velocity": 0.7874015748031497,
          "duration": 0.0010964895833325272
        },
        {
          "name": "D7",
          "midi": 98,
          "time": 77.36830499999984,
          "velocity": 0.7874015748031497,
          "duration": 0.0010964895833325272
        },
        {
          "name": "D4",
          "midi": 62,
          "time": 77.89461999999983,
          "velocity": 0.7874015748031497,
          "duration": 0.0010964895833325272
        },
        {
          "name": "D5",
          "midi": 74,
          "time": 77.89461999999983,
          "velocity": 0.7874015748031497,
          "duration": 0.0010964895833325272
        },
        {
          "name": "D6",
          "midi": 86,
          "time": 77.89461999999983,
          "velocity": 0.7874015748031497,
          "duration": 0.0010964895833325272
        },
        {
          "name": "D7",
          "midi": 98,
          "time": 77.89461999999983,
          "velocity": 0.7874015748031497,
          "duration": 0.0010964895833325272
        },
        {
          "name": "C5",
          "midi": 72,
          "time": 78.15777749999984,
          "velocity": 0.7874015748031497,
          "duration": 0.0010964895833325272
        },
        {
          "name": "C6",
          "midi": 84,
          "time": 78.15777749999984,
          "velocity": 0.7874015748031497,
          "duration": 0.0010964895833325272
        },
        {
          "name": "C7",
          "midi": 96,
          "time": 78.15777749999984,
          "velocity": 0.7874015748031497,
          "duration": 0.0010964895833325272
        },
        {
          "name": "C#4",
          "midi": 61,
          "time": 78.42093499999984,
          "velocity": 0.7874015748031497,
          "duration": 0.0010964895833325272
        },
        {
          "name": "C#5",
          "midi": 73,
          "time": 78.42093499999984,
          "velocity": 0.7874015748031497,
          "duration": 0.0010964895833325272
        },
        {
          "name": "D5",
          "midi": 74,
          "time": 78.42093499999984,
          "velocity": 0.7874015748031497,
          "duration": 0.0010964895833325272
        },
        {
          "name": "C#6",
          "midi": 85,
          "time": 78.42093499999984,
          "velocity": 0.7874015748031497,
          "duration": 0.0010964895833325272
        },
        {
          "name": "D6",
          "midi": 86,
          "time": 78.42093499999984,
          "velocity": 0.7874015748031497,
          "duration": 0.0010964895833325272
        },
        {
          "name": "C#7",
          "midi": 97,
          "time": 78.42093499999984,
          "velocity": 0.7874015748031497,
          "duration": 0.0010964895833325272
        },
        {
          "name": "D7",
          "midi": 98,
          "time": 78.42093499999984,
          "velocity": 0.7874015748031497,
          "duration": 0.0010964895833325272
        },
        {
          "name": "C4",
          "midi": 60,
          "time": 78.94724999999984,
          "velocity": 0.7874015748031497,
          "duration": 0.0010964895833325272
        },
        {
          "name": "C5",
          "midi": 72,
          "time": 78.94724999999984,
          "velocity": 0.7874015748031497,
          "duration": 0.0010964895833325272
        },
        {
          "name": "D5",
          "midi": 74,
          "time": 78.94724999999984,
          "velocity": 0.7874015748031497,
          "duration": 0.0010964895833325272
        },
        {
          "name": "C6",
          "midi": 84,
          "time": 78.94724999999984,
          "velocity": 0.7874015748031497,
          "duration": 0.0010964895833325272
        },
        {
          "name": "D6",
          "midi": 86,
          "time": 78.94724999999984,
          "velocity": 0.7874015748031497,
          "duration": 0.0010964895833325272
        },
        {
          "name": "C7",
          "midi": 96,
          "time": 78.94724999999984,
          "velocity": 0.7874015748031497,
          "duration": 0.0010964895833325272
        },
        {
          "name": "D7",
          "midi": 98,
          "time": 78.94724999999984,
          "velocity": 0.7874015748031497,
          "duration": 0.0010964895833325272
        },
        {
          "name": "C6",
          "midi": 84,
          "time": 79.20931101041651,
          "velocity": 0.7874015748031497,
          "duration": 0.0010964895833325272
        },
        {
          "name": "C7",
          "midi": 96,
          "time": 79.20931101041651,
          "velocity": 0.7874015748031497,
          "duration": 0.0010964895833325272
        },
        {
          "name": "C#4",
          "midi": 61,
          "time": 79.47356499999985,
          "velocity": 0.7874015748031497,
          "duration": 0.0010964895833325272
        },
        {
          "name": "C#5",
          "midi": 73,
          "time": 79.47356499999985,
          "velocity": 0.7874015748031497,
          "duration": 0.0010964895833325272
        },
        {
          "name": "D5",
          "midi": 74,
          "time": 79.47356499999985,
          "velocity": 0.7874015748031497,
          "duration": 0.0010964895833325272
        },
        {
          "name": "C#6",
          "midi": 85,
          "time": 79.47356499999985,
          "velocity": 0.7874015748031497,
          "duration": 0.0010964895833325272
        },
        {
          "name": "D6",
          "midi": 86,
          "time": 79.47356499999985,
          "velocity": 0.7874015748031497,
          "duration": 0.0010964895833325272
        },
        {
          "name": "C#7",
          "midi": 97,
          "time": 79.47356499999985,
          "velocity": 0.7874015748031497,
          "duration": 0.0010964895833325272
        },
        {
          "name": "D7",
          "midi": 98,
          "time": 79.47356499999985,
          "velocity": 0.7874015748031497,
          "duration": 0.0010964895833325272
        },
        {
          "name": "E4",
          "midi": 64,
          "time": 79.99987999999985,
          "velocity": 0.7874015748031497,
          "duration": 0.0010964895833325272
        },
        {
          "name": "C5",
          "midi": 72,
          "time": 79.99987999999985,
          "velocity": 0.7874015748031497,
          "duration": 0.0010964895833325272
        },
        {
          "name": "E5",
          "midi": 76,
          "time": 79.99987999999985,
          "velocity": 0.7874015748031497,
          "duration": 0.0010964895833325272
        },
        {
          "name": "C6",
          "midi": 84,
          "time": 79.99987999999985,
          "velocity": 0.7874015748031497,
          "duration": 0.0010964895833325272
        },
        {
          "name": "E6",
          "midi": 88,
          "time": 79.99987999999985,
          "velocity": 0.7874015748031497,
          "duration": 0.0010964895833325272
        },
        {
          "name": "C7",
          "midi": 96,
          "time": 79.99987999999985,
          "velocity": 0.7874015748031497,
          "duration": 0.0010964895833325272
        },
        {
          "name": "E7",
          "midi": 100,
          "time": 79.99987999999985,
          "velocity": 0.7874015748031497,
          "duration": 0.0010964895833325272
        },
        {
          "name": "C#4",
          "midi": 61,
          "time": 80.52619499999984,
          "velocity": 0.7874015748031497,
          "duration": 0.0010964895833325272
        },
        {
          "name": "C#5",
          "midi": 73,
          "time": 80.52619499999984,
          "velocity": 0.7874015748031497,
          "duration": 0.0010964895833325272
        },
        {
          "name": "D5",
          "midi": 74,
          "time": 80.52619499999984,
          "velocity": 0.7874015748031497,
          "duration": 0.0010964895833325272
        },
        {
          "name": "C#6",
          "midi": 85,
          "time": 80.52619499999984,
          "velocity": 0.7874015748031497,
          "duration": 0.0010964895833325272
        },
        {
          "name": "D6",
          "midi": 86,
          "time": 80.52619499999984,
          "velocity": 0.7874015748031497,
          "duration": 0.0010964895833325272
        },
        {
          "name": "C#7",
          "midi": 97,
          "time": 80.52619499999984,
          "velocity": 0.7874015748031497,
          "duration": 0.0010964895833325272
        },
        {
          "name": "D7",
          "midi": 98,
          "time": 80.52619499999984,
          "velocity": 0.7874015748031497,
          "duration": 0.0010964895833325272
        },
        {
          "name": "D4",
          "midi": 62,
          "time": 81.05250999999984,
          "velocity": 0.7874015748031497,
          "duration": 0.0010964895833325272
        },
        {
          "name": "D5",
          "midi": 74,
          "time": 81.05250999999984,
          "velocity": 0.7874015748031497,
          "duration": 0.0010964895833325272
        },
        {
          "name": "D6",
          "midi": 86,
          "time": 81.05250999999984,
          "velocity": 0.7874015748031497,
          "duration": 0.0010964895833325272
        },
        {
          "name": "D7",
          "midi": 98,
          "time": 81.05250999999984,
          "velocity": 0.7874015748031497,
          "duration": 0.0010964895833325272
        },
        {
          "name": "C5",
          "midi": 72,
          "time": 81.31566749999985,
          "velocity": 0.7874015748031497,
          "duration": 0.0010964895833325272
        },
        {
          "name": "C6",
          "midi": 84,
          "time": 81.31566749999985,
          "velocity": 0.7874015748031497,
          "duration": 0.0010964895833325272
        },
        {
          "name": "C7",
          "midi": 96,
          "time": 81.31566749999985,
          "velocity": 0.7874015748031497,
          "duration": 0.0010964895833325272
        },
        {
          "name": "C#4",
          "midi": 61,
          "time": 81.57882499999985,
          "velocity": 0.7874015748031497,
          "duration": 0.0010964895833325272
        },
        {
          "name": "C#5",
          "midi": 73,
          "time": 81.57882499999985,
          "velocity": 0.7874015748031497,
          "duration": 0.0010964895833325272
        },
        {
          "name": "D5",
          "midi": 74,
          "time": 81.57882499999985,
          "velocity": 0.7874015748031497,
          "duration": 0.0010964895833325272
        },
        {
          "name": "C#6",
          "midi": 85,
          "time": 81.57882499999985,
          "velocity": 0.7874015748031497,
          "duration": 0.0010964895833325272
        },
        {
          "name": "D6",
          "midi": 86,
          "time": 81.57882499999985,
          "velocity": 0.7874015748031497,
          "duration": 0.0010964895833325272
        },
        {
          "name": "C#7",
          "midi": 97,
          "time": 81.57882499999985,
          "velocity": 0.7874015748031497,
          "duration": 0.0010964895833325272
        },
        {
          "name": "D7",
          "midi": 98,
          "time": 81.57882499999985,
          "velocity": 0.7874015748031497,
          "duration": 0.0010964895833325272
        },
        {
          "name": "C4",
          "midi": 60,
          "time": 82.10513999999985,
          "velocity": 0.7874015748031497,
          "duration": 0.0010964895833325272
        },
        {
          "name": "C5",
          "midi": 72,
          "time": 82.10513999999985,
          "velocity": 0.7874015748031497,
          "duration": 0.0010964895833325272
        },
        {
          "name": "D5",
          "midi": 74,
          "time": 82.10513999999985,
          "velocity": 0.7874015748031497,
          "duration": 0.0010964895833325272
        },
        {
          "name": "C6",
          "midi": 84,
          "time": 82.10513999999985,
          "velocity": 0.7874015748031497,
          "duration": 0.0010964895833325272
        },
        {
          "name": "D6",
          "midi": 86,
          "time": 82.10513999999985,
          "velocity": 0.7874015748031497,
          "duration": 0.0010964895833325272
        },
        {
          "name": "C7",
          "midi": 96,
          "time": 82.10513999999985,
          "velocity": 0.7874015748031497,
          "duration": 0.0010964895833325272
        },
        {
          "name": "D7",
          "midi": 98,
          "time": 82.10513999999985,
          "velocity": 0.7874015748031497,
          "duration": 0.0010964895833325272
        },
        {
          "name": "C7",
          "midi": 96,
          "time": 82.36829749999985,
          "velocity": 0.7874015748031497,
          "duration": 0.0010964895833325272
        },
        {
          "name": "C6",
          "midi": 84,
          "time": 82.50097273958319,
          "velocity": 0.7874015748031497,
          "duration": 0.0010964895833325272
        },
        {
          "name": "C7",
          "midi": 96,
          "time": 82.50097273958319,
          "velocity": 0.7874015748031497,
          "duration": 0.0010964895833325272
        },
        {
          "name": "C#4",
          "midi": 61,
          "time": 82.63145499999986,
          "velocity": 0.7874015748031497,
          "duration": 0.0010964895833325272
        },
        {
          "name": "C#5",
          "midi": 73,
          "time": 82.63145499999986,
          "velocity": 0.7874015748031497,
          "duration": 0.0010964895833325272
        },
        {
          "name": "D5",
          "midi": 74,
          "time": 82.63145499999986,
          "velocity": 0.7874015748031497,
          "duration": 0.0010964895833325272
        },
        {
          "name": "C#6",
          "midi": 85,
          "time": 82.63145499999986,
          "velocity": 0.7874015748031497,
          "duration": 0.0010964895833325272
        },
        {
          "name": "D6",
          "midi": 86,
          "time": 82.63145499999986,
          "velocity": 0.7874015748031497,
          "duration": 0.0010964895833325272
        },
        {
          "name": "C#7",
          "midi": 97,
          "time": 82.63145499999986,
          "velocity": 0.7874015748031497,
          "duration": 0.0010964895833325272
        },
        {
          "name": "D7",
          "midi": 98,
          "time": 82.63145499999986,
          "velocity": 0.7874015748031497,
          "duration": 0.0010964895833325272
        },
        {
          "name": "C7",
          "midi": 96,
          "time": 82.89461249999987,
          "velocity": 0.7874015748031497,
          "duration": 0.0010964895833325272
        },
        {
          "name": "D4",
          "midi": 62,
          "time": 83.15776999999987,
          "velocity": 0.7874015748031497,
          "duration": 0.0010964895833325272
        },
        {
          "name": "D5",
          "midi": 74,
          "time": 83.15776999999987,
          "velocity": 0.7874015748031497,
          "duration": 0.0010964895833325272
        },
        {
          "name": "D6",
          "midi": 86,
          "time": 83.15776999999987,
          "velocity": 0.7874015748031497,
          "duration": 0.0010964895833325272
        },
        {
          "name": "D7",
          "midi": 98,
          "time": 83.15776999999987,
          "velocity": 0.7874015748031497,
          "duration": 0.0010964895833325272
        },
        {
          "name": "C5",
          "midi": 72,
          "time": 83.42092749999988,
          "velocity": 0.7874015748031497,
          "duration": 0.0010964895833325272
        },
        {
          "name": "C6",
          "midi": 84,
          "time": 83.42092749999988,
          "velocity": 0.7874015748031497,
          "duration": 0.0010964895833325272
        },
        {
          "name": "C7",
          "midi": 96,
          "time": 83.42092749999988,
          "velocity": 0.7874015748031497,
          "duration": 0.0010964895833325272
        },
        {
          "name": "C#4",
          "midi": 61,
          "time": 83.68408499999988,
          "velocity": 0.7874015748031497,
          "duration": 0.0010964895833325272
        },
        {
          "name": "C#5",
          "midi": 73,
          "time": 83.68408499999988,
          "velocity": 0.7874015748031497,
          "duration": 0.0010964895833325272
        },
        {
          "name": "D5",
          "midi": 74,
          "time": 83.68408499999988,
          "velocity": 0.7874015748031497,
          "duration": 0.0010964895833325272
        },
        {
          "name": "C#6",
          "midi": 85,
          "time": 83.68408499999988,
          "velocity": 0.7874015748031497,
          "duration": 0.0010964895833325272
        },
        {
          "name": "D6",
          "midi": 86,
          "time": 83.68408499999988,
          "velocity": 0.7874015748031497,
          "duration": 0.0010964895833325272
        },
        {
          "name": "C#7",
          "midi": 97,
          "time": 83.68408499999988,
          "velocity": 0.7874015748031497,
          "duration": 0.0010964895833325272
        },
        {
          "name": "D7",
          "midi": 98,
          "time": 83.68408499999988,
          "velocity": 0.7874015748031497,
          "duration": 0.0010964895833325272
        },
        {
          "name": "D4",
          "midi": 62,
          "time": 84.21039999999988,
          "velocity": 0.7874015748031497,
          "duration": 0.0010964895833325272
        },
        {
          "name": "C5",
          "midi": 72,
          "time": 84.21039999999988,
          "velocity": 0.7874015748031497,
          "duration": 0.0010964895833325272
        },
        {
          "name": "D5",
          "midi": 74,
          "time": 84.21039999999988,
          "velocity": 0.7874015748031497,
          "duration": 0.0010964895833325272
        },
        {
          "name": "C6",
          "midi": 84,
          "time": 84.21039999999988,
          "velocity": 0.7874015748031497,
          "duration": 0.0010964895833325272
        },
        {
          "name": "D6",
          "midi": 86,
          "time": 84.21039999999988,
          "velocity": 0.7874015748031497,
          "duration": 0.0010964895833325272
        },
        {
          "name": "C7",
          "midi": 96,
          "time": 84.21039999999988,
          "velocity": 0.7874015748031497,
          "duration": 0.0010964895833325272
        },
        {
          "name": "D7",
          "midi": 98,
          "time": 84.21039999999988,
          "velocity": 0.7874015748031497,
          "duration": 0.0010964895833325272
        },
        {
          "name": "C6",
          "midi": 84,
          "time": 84.6062327395832,
          "velocity": 0.7874015748031497,
          "duration": 0.0010964895833325272
        },
        {
          "name": "C7",
          "midi": 96,
          "time": 84.6062327395832,
          "velocity": 0.7874015748031497,
          "duration": 0.0010964895833325272
        },
        {
          "name": "C#4",
          "midi": 61,
          "time": 84.73671499999988,
          "velocity": 0.7874015748031497,
          "duration": 0.0010964895833325272
        },
        {
          "name": "C#5",
          "midi": 73,
          "time": 84.73671499999988,
          "velocity": 0.7874015748031497,
          "duration": 0.0010964895833325272
        },
        {
          "name": "D5",
          "midi": 74,
          "time": 84.73671499999988,
          "velocity": 0.7874015748031497,
          "duration": 0.0010964895833325272
        },
        {
          "name": "C#6",
          "midi": 85,
          "time": 84.73671499999988,
          "velocity": 0.7874015748031497,
          "duration": 0.0010964895833325272
        },
        {
          "name": "D6",
          "midi": 86,
          "time": 84.73671499999988,
          "velocity": 0.7874015748031497,
          "duration": 0.0010964895833325272
        },
        {
          "name": "C#7",
          "midi": 97,
          "time": 84.73671499999988,
          "velocity": 0.7874015748031497,
          "duration": 0.0010964895833325272
        },
        {
          "name": "D7",
          "midi": 98,
          "time": 84.73671499999988,
          "velocity": 0.7874015748031497,
          "duration": 0.0010964895833325272
        },
        {
          "name": "D4",
          "midi": 62,
          "time": 85.26302999999987,
          "velocity": 0.7874015748031497,
          "duration": 0.0010964895833325272
        },
        {
          "name": "D5",
          "midi": 74,
          "time": 85.26302999999987,
          "velocity": 0.7874015748031497,
          "duration": 0.0010964895833325272
        },
        {
          "name": "D6",
          "midi": 86,
          "time": 85.26302999999987,
          "velocity": 0.7874015748031497,
          "duration": 0.0010964895833325272
        },
        {
          "name": "D7",
          "midi": 98,
          "time": 85.26302999999987,
          "velocity": 0.7874015748031497,
          "duration": 0.0010964895833325272
        },
        {
          "name": "C5",
          "midi": 72,
          "time": 85.52618749999988,
          "velocity": 0.7874015748031497,
          "duration": 0.0010964895833325272
        },
        {
          "name": "C6",
          "midi": 84,
          "time": 85.52618749999988,
          "velocity": 0.7874015748031497,
          "duration": 0.0010964895833325272
        },
        {
          "name": "C7",
          "midi": 96,
          "time": 85.52618749999988,
          "velocity": 0.7874015748031497,
          "duration": 0.0010964895833325272
        },
        {
          "name": "C#4",
          "midi": 61,
          "time": 85.78934499999988,
          "velocity": 0.7874015748031497,
          "duration": 0.0010964895833325272
        },
        {
          "name": "C#5",
          "midi": 73,
          "time": 85.78934499999988,
          "velocity": 0.7874015748031497,
          "duration": 0.0010964895833325272
        },
        {
          "name": "D5",
          "midi": 74,
          "time": 85.78934499999988,
          "velocity": 0.7874015748031497,
          "duration": 0.0010964895833325272
        },
        {
          "name": "C#6",
          "midi": 85,
          "time": 85.78934499999988,
          "velocity": 0.7874015748031497,
          "duration": 0.0010964895833325272
        },
        {
          "name": "D6",
          "midi": 86,
          "time": 85.78934499999988,
          "velocity": 0.7874015748031497,
          "duration": 0.0010964895833325272
        },
        {
          "name": "C#7",
          "midi": 97,
          "time": 85.78934499999988,
          "velocity": 0.7874015748031497,
          "duration": 0.0010964895833325272
        },
        {
          "name": "D7",
          "midi": 98,
          "time": 85.78934499999988,
          "velocity": 0.7874015748031497,
          "duration": 0.0010964895833325272
        },
        {
          "name": "C4",
          "midi": 60,
          "time": 86.31565999999988,
          "velocity": 0.7874015748031497,
          "duration": 0.0010964895833325272
        },
        {
          "name": "C5",
          "midi": 72,
          "time": 86.31565999999988,
          "velocity": 0.7874015748031497,
          "duration": 0.0010964895833325272
        },
        {
          "name": "D5",
          "midi": 74,
          "time": 86.31565999999988,
          "velocity": 0.7874015748031497,
          "duration": 0.0010964895833325272
        },
        {
          "name": "C6",
          "midi": 84,
          "time": 86.31565999999988,
          "velocity": 0.7874015748031497,
          "duration": 0.0010964895833325272
        },
        {
          "name": "D6",
          "midi": 86,
          "time": 86.31565999999988,
          "velocity": 0.7874015748031497,
          "duration": 0.0010964895833325272
        },
        {
          "name": "C7",
          "midi": 96,
          "time": 86.31565999999988,
          "velocity": 0.7874015748031497,
          "duration": 0.0010964895833325272
        },
        {
          "name": "D7",
          "midi": 98,
          "time": 86.31565999999988,
          "velocity": 0.7874015748031497,
          "duration": 0.0010964895833325272
        },
        {
          "name": "C7",
          "midi": 96,
          "time": 86.57772101041655,
          "velocity": 0.7874015748031497,
          "duration": 0.0010964895833325272
        },
        {
          "name": "C6",
          "midi": 84,
          "time": 86.71039624999989,
          "velocity": 0.7874015748031497,
          "duration": 0.0010964895833325272
        },
        {
          "name": "C7",
          "midi": 96,
          "time": 86.71039624999989,
          "velocity": 0.7874015748031497,
          "duration": 0.0010964895833325272
        },
        {
          "name": "C#4",
          "midi": 61,
          "time": 86.84197499999989,
          "velocity": 0.7874015748031497,
          "duration": 0.0010964895833325272
        },
        {
          "name": "C#5",
          "midi": 73,
          "time": 86.84197499999989,
          "velocity": 0.7874015748031497,
          "duration": 0.0010964895833325272
        },
        {
          "name": "D5",
          "midi": 74,
          "time": 86.84197499999989,
          "velocity": 0.7874015748031497,
          "duration": 0.0010964895833325272
        },
        {
          "name": "C#6",
          "midi": 85,
          "time": 86.84197499999989,
          "velocity": 0.7874015748031497,
          "duration": 0.0010964895833325272
        },
        {
          "name": "D6",
          "midi": 86,
          "time": 86.84197499999989,
          "velocity": 0.7874015748031497,
          "duration": 0.0010964895833325272
        },
        {
          "name": "C#7",
          "midi": 97,
          "time": 86.84197499999989,
          "velocity": 0.7874015748031497,
          "duration": 0.0010964895833325272
        },
        {
          "name": "D7",
          "midi": 98,
          "time": 86.84197499999989,
          "velocity": 0.7874015748031497,
          "duration": 0.0010964895833325272
        },
        {
          "name": "D4",
          "midi": 62,
          "time": 87.36828999999989,
          "velocity": 0.7874015748031497,
          "duration": 0.0010964895833325272
        },
        {
          "name": "D5",
          "midi": 74,
          "time": 87.36828999999989,
          "velocity": 0.7874015748031497,
          "duration": 0.0010964895833325272
        },
        {
          "name": "D6",
          "midi": 86,
          "time": 87.36828999999989,
          "velocity": 0.7874015748031497,
          "duration": 0.0010964895833325272
        },
        {
          "name": "D7",
          "midi": 98,
          "time": 87.36828999999989,
          "velocity": 0.7874015748031497,
          "duration": 0.0010964895833325272
        },
        {
          "name": "C5",
          "midi": 72,
          "time": 87.63035101041655,
          "velocity": 0.7874015748031497,
          "duration": 0.0010964895833325272
        },
        {
          "name": "C6",
          "midi": 84,
          "time": 87.63035101041655,
          "velocity": 0.7874015748031497,
          "duration": 0.0010964895833325272
        },
        {
          "name": "C7",
          "midi": 96,
          "time": 87.63035101041655,
          "velocity": 0.7874015748031497,
          "duration": 0.0010964895833325272
        },
        {
          "name": "C#4",
          "midi": 61,
          "time": 87.89460499999988,
          "velocity": 0.7874015748031497,
          "duration": 0.0010964895833325272
        },
        {
          "name": "C#5",
          "midi": 73,
          "time": 87.89460499999988,
          "velocity": 0.7874015748031497,
          "duration": 0.0010964895833325272
        },
        {
          "name": "D5",
          "midi": 74,
          "time": 87.89460499999988,
          "velocity": 0.7874015748031497,
          "duration": 0.0010964895833325272
        },
        {
          "name": "C#6",
          "midi": 85,
          "time": 87.89460499999988,
          "velocity": 0.7874015748031497,
          "duration": 0.0010964895833325272
        },
        {
          "name": "D6",
          "midi": 86,
          "time": 87.89460499999988,
          "velocity": 0.7874015748031497,
          "duration": 0.0010964895833325272
        },
        {
          "name": "C#7",
          "midi": 97,
          "time": 87.89460499999988,
          "velocity": 0.7874015748031497,
          "duration": 0.0010964895833325272
        },
        {
          "name": "D7",
          "midi": 98,
          "time": 87.89460499999988,
          "velocity": 0.7874015748031497,
          "duration": 0.0010964895833325272
        },
        {
          "name": "C7",
          "midi": 96,
          "time": 88.15776249999989,
          "velocity": 0.7874015748031497,
          "duration": 0.0010964895833325272
        },
        {
          "name": "C#4",
          "midi": 61,
          "time": 88.4209199999999,
          "velocity": 0.7874015748031497,
          "duration": 0.0010964895833325272
        },
        {
          "name": "C#5",
          "midi": 73,
          "time": 88.4209199999999,
          "velocity": 0.7874015748031497,
          "duration": 0.0010964895833325272
        },
        {
          "name": "C#6",
          "midi": 85,
          "time": 88.4209199999999,
          "velocity": 0.7874015748031497,
          "duration": 0.0010964895833325272
        },
        {
          "name": "C#7",
          "midi": 97,
          "time": 88.4209199999999,
          "velocity": 0.7874015748031497,
          "duration": 0.0010964895833325272
        },
        {
          "name": "C#7",
          "midi": 97,
          "time": 88.5524987499999,
          "velocity": 0.7874015748031497,
          "duration": 0.0010964895833325272
        },
        {
          "name": "C#7",
          "midi": 97,
          "time": 88.6840774999999,
          "velocity": 0.7874015748031497,
          "duration": 0.0010964895833325272
        },
        {
          "name": "C#5",
          "midi": 73,
          "time": 88.8156562499999,
          "velocity": 0.7874015748031497,
          "duration": 0.0010964895833325272
        },
        {
          "name": "C#6",
          "midi": 85,
          "time": 88.8156562499999,
          "velocity": 0.7874015748031497,
          "duration": 0.0010964895833325272
        },
        {
          "name": "C#7",
          "midi": 97,
          "time": 88.8156562499999,
          "velocity": 0.7874015748031497,
          "duration": 0.0010964895833325272
        },
        {
          "name": "C#4",
          "midi": 61,
          "time": 88.9472349999999,
          "velocity": 0.7874015748031497,
          "duration": 0.0010964895833325272
        },
        {
          "name": "C#7",
          "midi": 97,
          "time": 88.9472349999999,
          "velocity": 0.7874015748031497,
          "duration": 0.0010964895833325272
        },
        {
          "name": "C#6",
          "midi": 85,
          "time": 89.07881374999991,
          "velocity": 0.7874015748031497,
          "duration": 0.0010964895833325272
        },
        {
          "name": "C#7",
          "midi": 97,
          "time": 89.07881374999991,
          "velocity": 0.7874015748031497,
          "duration": 0.0010964895833325272
        },
        {
          "name": "C#4",
          "midi": 61,
          "time": 89.21039249999991,
          "velocity": 0.7874015748031497,
          "duration": 0.0010964895833325272
        },
        {
          "name": "C#5",
          "midi": 73,
          "time": 89.21039249999991,
          "velocity": 0.7874015748031497,
          "duration": 0.0010964895833325272
        },
        {
          "name": "C#6",
          "midi": 85,
          "time": 89.21039249999991,
          "velocity": 0.7874015748031497,
          "duration": 0.0010964895833325272
        },
        {
          "name": "C#7",
          "midi": 97,
          "time": 89.21039249999991,
          "velocity": 0.7874015748031497,
          "duration": 0.0010964895833325272
        },
        {
          "name": "C#6",
          "midi": 85,
          "time": 89.34197124999992,
          "velocity": 0.7874015748031497,
          "duration": 0.0010964895833325272
        },
        {
          "name": "C#7",
          "midi": 97,
          "time": 89.34197124999992,
          "velocity": 0.7874015748031497,
          "duration": 0.0010964895833325272
        },
        {
          "name": "E4",
          "midi": 64,
          "time": 89.47354999999992,
          "velocity": 0.7874015748031497,
          "duration": 0.0010964895833325272
        },
        {
          "name": "C5",
          "midi": 72,
          "time": 89.47354999999992,
          "velocity": 0.7874015748031497,
          "duration": 0.0010964895833325272
        },
        {
          "name": "E5",
          "midi": 76,
          "time": 89.47354999999992,
          "velocity": 0.7874015748031497,
          "duration": 0.0010964895833325272
        },
        {
          "name": "C6",
          "midi": 84,
          "time": 89.47354999999992,
          "velocity": 0.7874015748031497,
          "duration": 0.0010964895833325272
        },
        {
          "name": "E6",
          "midi": 88,
          "time": 89.47354999999992,
          "velocity": 0.7874015748031497,
          "duration": 0.0010964895833325272
        },
        {
          "name": "C7",
          "midi": 96,
          "time": 89.47354999999992,
          "velocity": 0.7874015748031497,
          "duration": 0.0010964895833325272
        },
        {
          "name": "E7",
          "midi": 100,
          "time": 89.47354999999992,
          "velocity": 0.7874015748031497,
          "duration": 0.0010964895833325272
        },
        {
          "name": "C#4",
          "midi": 61,
          "time": 89.99986499999991,
          "velocity": 0.7874015748031497,
          "duration": 0.0010964895833325272
        },
        {
          "name": "C#5",
          "midi": 73,
          "time": 89.99986499999991,
          "velocity": 0.7874015748031497,
          "duration": 0.0010964895833325272
        },
        {
          "name": "D5",
          "midi": 74,
          "time": 89.99986499999991,
          "velocity": 0.7874015748031497,
          "duration": 0.0010964895833325272
        },
        {
          "name": "C#6",
          "midi": 85,
          "time": 89.99986499999991,
          "velocity": 0.7874015748031497,
          "duration": 0.0010964895833325272
        },
        {
          "name": "D6",
          "midi": 86,
          "time": 89.99986499999991,
          "velocity": 0.7874015748031497,
          "duration": 0.0010964895833325272
        },
        {
          "name": "C#7",
          "midi": 97,
          "time": 89.99986499999991,
          "velocity": 0.7874015748031497,
          "duration": 0.0010964895833325272
        },
        {
          "name": "D7",
          "midi": 98,
          "time": 89.99986499999991,
          "velocity": 0.7874015748031497,
          "duration": 0.0010964895833325272
        },
        {
          "name": "D4",
          "midi": 62,
          "time": 90.52617999999991,
          "velocity": 0.7874015748031497,
          "duration": 0.0010964895833325272
        },
        {
          "name": "D5",
          "midi": 74,
          "time": 90.52617999999991,
          "velocity": 0.7874015748031497,
          "duration": 0.0010964895833325272
        },
        {
          "name": "D6",
          "midi": 86,
          "time": 90.52617999999991,
          "velocity": 0.7874015748031497,
          "duration": 0.0010964895833325272
        },
        {
          "name": "D7",
          "midi": 98,
          "time": 90.52617999999991,
          "velocity": 0.7874015748031497,
          "duration": 0.0010964895833325272
        },
        {
          "name": "C5",
          "midi": 72,
          "time": 90.78824101041658,
          "velocity": 0.7874015748031497,
          "duration": 0.0010964895833325272
        },
        {
          "name": "C6",
          "midi": 84,
          "time": 90.78824101041658,
          "velocity": 0.7874015748031497,
          "duration": 0.0010964895833325272
        },
        {
          "name": "C7",
          "midi": 96,
          "time": 90.78824101041658,
          "velocity": 0.7874015748031497,
          "duration": 0.0010964895833325272
        },
        {
          "name": "C#4",
          "midi": 61,
          "time": 91.05249499999992,
          "velocity": 0.7874015748031497,
          "duration": 0.0010964895833325272
        },
        {
          "name": "C#5",
          "midi": 73,
          "time": 91.05249499999992,
          "velocity": 0.7874015748031497,
          "duration": 0.0010964895833325272
        },
        {
          "name": "D5",
          "midi": 74,
          "time": 91.05249499999992,
          "velocity": 0.7874015748031497,
          "duration": 0.0010964895833325272
        },
        {
          "name": "C#6",
          "midi": 85,
          "time": 91.05249499999992,
          "velocity": 0.7874015748031497,
          "duration": 0.0010964895833325272
        },
        {
          "name": "D6",
          "midi": 86,
          "time": 91.05249499999992,
          "velocity": 0.7874015748031497,
          "duration": 0.0010964895833325272
        },
        {
          "name": "C#7",
          "midi": 97,
          "time": 91.05249499999992,
          "velocity": 0.7874015748031497,
          "duration": 0.0010964895833325272
        },
        {
          "name": "D7",
          "midi": 98,
          "time": 91.05249499999992,
          "velocity": 0.7874015748031497,
          "duration": 0.0010964895833325272
        },
        {
          "name": "C4",
          "midi": 60,
          "time": 91.57880999999992,
          "velocity": 0.7874015748031497,
          "duration": 0.0010964895833325272
        },
        {
          "name": "C5",
          "midi": 72,
          "time": 91.57880999999992,
          "velocity": 0.7874015748031497,
          "duration": 0.0010964895833325272
        },
        {
          "name": "D5",
          "midi": 74,
          "time": 91.57880999999992,
          "velocity": 0.7874015748031497,
          "duration": 0.0010964895833325272
        },
        {
          "name": "C6",
          "midi": 84,
          "time": 91.57880999999992,
          "velocity": 0.7874015748031497,
          "duration": 0.0010964895833325272
        },
        {
          "name": "D6",
          "midi": 86,
          "time": 91.57880999999992,
          "velocity": 0.7874015748031497,
          "duration": 0.0010964895833325272
        },
        {
          "name": "C7",
          "midi": 96,
          "time": 91.57880999999992,
          "velocity": 0.7874015748031497,
          "duration": 0.0010964895833325272
        },
        {
          "name": "D7",
          "midi": 98,
          "time": 91.57880999999992,
          "velocity": 0.7874015748031497,
          "duration": 0.0010964895833325272
        },
        {
          "name": "C7",
          "midi": 96,
          "time": 91.84196749999992,
          "velocity": 0.7874015748031497,
          "duration": 0.0010964895833325272
        },
        {
          "name": "C6",
          "midi": 84,
          "time": 91.97464273958326,
          "velocity": 0.7874015748031497,
          "duration": 0.0010964895833325272
        },
        {
          "name": "C7",
          "midi": 96,
          "time": 91.97464273958326,
          "velocity": 0.7874015748031497,
          "duration": 0.0010964895833325272
        },
        {
          "name": "C#4",
          "midi": 61,
          "time": 92.10512499999993,
          "velocity": 0.7874015748031497,
          "duration": 0.0010964895833325272
        },
        {
          "name": "C#5",
          "midi": 73,
          "time": 92.10512499999993,
          "velocity": 0.7874015748031497,
          "duration": 0.0010964895833325272
        },
        {
          "name": "D5",
          "midi": 74,
          "time": 92.10512499999993,
          "velocity": 0.7874015748031497,
          "duration": 0.0010964895833325272
        },
        {
          "name": "C#6",
          "midi": 85,
          "time": 92.10512499999993,
          "velocity": 0.7874015748031497,
          "duration": 0.0010964895833325272
        },
        {
          "name": "D6",
          "midi": 86,
          "time": 92.10512499999993,
          "velocity": 0.7874015748031497,
          "duration": 0.0010964895833325272
        },
        {
          "name": "C#7",
          "midi": 97,
          "time": 92.10512499999993,
          "velocity": 0.7874015748031497,
          "duration": 0.0010964895833325272
        },
        {
          "name": "D7",
          "midi": 98,
          "time": 92.10512499999993,
          "velocity": 0.7874015748031497,
          "duration": 0.0010964895833325272
        },
        {
          "name": "D4",
          "midi": 62,
          "time": 92.63143999999993,
          "velocity": 0.7874015748031497,
          "duration": 0.0010964895833325272
        },
        {
          "name": "D5",
          "midi": 74,
          "time": 92.63143999999993,
          "velocity": 0.7874015748031497,
          "duration": 0.0010964895833325272
        },
        {
          "name": "D6",
          "midi": 86,
          "time": 92.63143999999993,
          "velocity": 0.7874015748031497,
          "duration": 0.0010964895833325272
        },
        {
          "name": "D7",
          "midi": 98,
          "time": 92.63143999999993,
          "velocity": 0.7874015748031497,
          "duration": 0.0010964895833325272
        },
        {
          "name": "C5",
          "midi": 72,
          "time": 92.8935010104166,
          "velocity": 0.7874015748031497,
          "duration": 0.0010964895833325272
        },
        {
          "name": "C6",
          "midi": 84,
          "time": 92.8935010104166,
          "velocity": 0.7874015748031497,
          "duration": 0.0010964895833325272
        },
        {
          "name": "C7",
          "midi": 96,
          "time": 92.8935010104166,
          "velocity": 0.7874015748031497,
          "duration": 0.0010964895833325272
        },
        {
          "name": "C#4",
          "midi": 61,
          "time": 93.15775499999994,
          "velocity": 0.7874015748031497,
          "duration": 0.0010964895833325272
        },
        {
          "name": "C#5",
          "midi": 73,
          "time": 93.15775499999994,
          "velocity": 0.7874015748031497,
          "duration": 0.0010964895833325272
        },
        {
          "name": "D5",
          "midi": 74,
          "time": 93.15775499999994,
          "velocity": 0.7874015748031497,
          "duration": 0.0010964895833325272
        },
        {
          "name": "C#6",
          "midi": 85,
          "time": 93.15775499999994,
          "velocity": 0.7874015748031497,
          "duration": 0.0010964895833325272
        },
        {
          "name": "D6",
          "midi": 86,
          "time": 93.15775499999994,
          "velocity": 0.7874015748031497,
          "duration": 0.0010964895833325272
        },
        {
          "name": "C#7",
          "midi": 97,
          "time": 93.15775499999994,
          "velocity": 0.7874015748031497,
          "duration": 0.0010964895833325272
        },
        {
          "name": "D7",
          "midi": 98,
          "time": 93.15775499999994,
          "velocity": 0.7874015748031497,
          "duration": 0.0010964895833325272
        },
        {
          "name": "D4",
          "midi": 62,
          "time": 93.68406999999993,
          "velocity": 0.7874015748031497,
          "duration": 0.0010964895833325272
        },
        {
          "name": "C5",
          "midi": 72,
          "time": 93.68406999999993,
          "velocity": 0.7874015748031497,
          "duration": 0.0010964895833325272
        },
        {
          "name": "D5",
          "midi": 74,
          "time": 93.68406999999993,
          "velocity": 0.7874015748031497,
          "duration": 0.0010964895833325272
        },
        {
          "name": "C6",
          "midi": 84,
          "time": 93.68406999999993,
          "velocity": 0.7874015748031497,
          "duration": 0.0010964895833325272
        },
        {
          "name": "D6",
          "midi": 86,
          "time": 93.68406999999993,
          "velocity": 0.7874015748031497,
          "duration": 0.0010964895833325272
        },
        {
          "name": "C7",
          "midi": 96,
          "time": 93.68406999999993,
          "velocity": 0.7874015748031497,
          "duration": 0.0010964895833325272
        },
        {
          "name": "D7",
          "midi": 98,
          "time": 93.68406999999993,
          "velocity": 0.7874015748031497,
          "duration": 0.0010964895833325272
        },
        {
          "name": "C7",
          "midi": 96,
          "time": 93.94722749999994,
          "velocity": 0.7874015748031497,
          "duration": 0.0010964895833325272
        },
        {
          "name": "C6",
          "midi": 84,
          "time": 94.07880624999994,
          "velocity": 0.7874015748031497,
          "duration": 0.0010964895833325272
        },
        {
          "name": "C7",
          "midi": 96,
          "time": 94.07880624999994,
          "velocity": 0.7874015748031497,
          "duration": 0.0010964895833325272
        },
        {
          "name": "C#4",
          "midi": 61,
          "time": 94.21038499999995,
          "velocity": 0.7874015748031497,
          "duration": 0.0010964895833325272
        },
        {
          "name": "C#5",
          "midi": 73,
          "time": 94.21038499999995,
          "velocity": 0.7874015748031497,
          "duration": 0.0010964895833325272
        },
        {
          "name": "D5",
          "midi": 74,
          "time": 94.21038499999995,
          "velocity": 0.7874015748031497,
          "duration": 0.0010964895833325272
        },
        {
          "name": "C#6",
          "midi": 85,
          "time": 94.21038499999995,
          "velocity": 0.7874015748031497,
          "duration": 0.0010964895833325272
        },
        {
          "name": "D6",
          "midi": 86,
          "time": 94.21038499999995,
          "velocity": 0.7874015748031497,
          "duration": 0.0010964895833325272
        },
        {
          "name": "C#7",
          "midi": 97,
          "time": 94.21038499999995,
          "velocity": 0.7874015748031497,
          "duration": 0.0010964895833325272
        },
        {
          "name": "D7",
          "midi": 98,
          "time": 94.21038499999995,
          "velocity": 0.7874015748031497,
          "duration": 0.0010964895833325272
        },
        {
          "name": "D4",
          "midi": 62,
          "time": 94.73669999999994,
          "velocity": 0.7874015748031497,
          "duration": 0.0010964895833325272
        },
        {
          "name": "D5",
          "midi": 74,
          "time": 94.73669999999994,
          "velocity": 0.7874015748031497,
          "duration": 0.0010964895833325272
        },
        {
          "name": "D6",
          "midi": 86,
          "time": 94.73669999999994,
          "velocity": 0.7874015748031497,
          "duration": 0.0010964895833325272
        },
        {
          "name": "D7",
          "midi": 98,
          "time": 94.73669999999994,
          "velocity": 0.7874015748031497,
          "duration": 0.0010964895833325272
        },
        {
          "name": "C5",
          "midi": 72,
          "time": 95.00095398958328,
          "velocity": 0.7874015748031497,
          "duration": 0.0010964895833325272
        },
        {
          "name": "C6",
          "midi": 84,
          "time": 95.00095398958328,
          "velocity": 0.7874015748031497,
          "duration": 0.0010964895833325272
        },
        {
          "name": "C7",
          "midi": 96,
          "time": 95.00095398958328,
          "velocity": 0.7874015748031497,
          "duration": 0.0010964895833325272
        },
        {
          "name": "C#4",
          "midi": 61,
          "time": 95.26301499999994,
          "velocity": 0.7874015748031497,
          "duration": 0.0010964895833325272
        },
        {
          "name": "C#5",
          "midi": 73,
          "time": 95.26301499999994,
          "velocity": 0.7874015748031497,
          "duration": 0.0010964895833325272
        },
        {
          "name": "D5",
          "midi": 74,
          "time": 95.26301499999994,
          "velocity": 0.7874015748031497,
          "duration": 0.0010964895833325272
        },
        {
          "name": "C#6",
          "midi": 85,
          "time": 95.26301499999994,
          "velocity": 0.7874015748031497,
          "duration": 0.0010964895833325272
        },
        {
          "name": "D6",
          "midi": 86,
          "time": 95.26301499999994,
          "velocity": 0.7874015748031497,
          "duration": 0.0010964895833325272
        },
        {
          "name": "C#7",
          "midi": 97,
          "time": 95.26301499999994,
          "velocity": 0.7874015748031497,
          "duration": 0.0010964895833325272
        },
        {
          "name": "D7",
          "midi": 98,
          "time": 95.26301499999994,
          "velocity": 0.7874015748031497,
          "duration": 0.0010964895833325272
        },
        {
          "name": "C4",
          "midi": 60,
          "time": 95.78932999999994,
          "velocity": 0.7874015748031497,
          "duration": 0.0010964895833325272
        },
        {
          "name": "C5",
          "midi": 72,
          "time": 95.78932999999994,
          "velocity": 0.7874015748031497,
          "duration": 0.0010964895833325272
        },
        {
          "name": "D5",
          "midi": 74,
          "time": 95.78932999999994,
          "velocity": 0.7874015748031497,
          "duration": 0.0010964895833325272
        },
        {
          "name": "C6",
          "midi": 84,
          "time": 95.78932999999994,
          "velocity": 0.7874015748031497,
          "duration": 0.0010964895833325272
        },
        {
          "name": "D6",
          "midi": 86,
          "time": 95.78932999999994,
          "velocity": 0.7874015748031497,
          "duration": 0.0010964895833325272
        },
        {
          "name": "C7",
          "midi": 96,
          "time": 95.78932999999994,
          "velocity": 0.7874015748031497,
          "duration": 0.0010964895833325272
        },
        {
          "name": "D7",
          "midi": 98,
          "time": 95.78932999999994,
          "velocity": 0.7874015748031497,
          "duration": 0.0010964895833325272
        },
        {
          "name": "C7",
          "midi": 96,
          "time": 96.05139101041661,
          "velocity": 0.7874015748031497,
          "duration": 0.0010964895833325272
        },
        {
          "name": "C6",
          "midi": 84,
          "time": 96.18406624999994,
          "velocity": 0.7874015748031497,
          "duration": 0.0010964895833325272
        },
        {
          "name": "C7",
          "midi": 96,
          "time": 96.18406624999994,
          "velocity": 0.7874015748031497,
          "duration": 0.0010964895833325272
        },
        {
          "name": "C#4",
          "midi": 61,
          "time": 96.31564499999995,
          "velocity": 0.7874015748031497,
          "duration": 0.0010964895833325272
        },
        {
          "name": "C#5",
          "midi": 73,
          "time": 96.31564499999995,
          "velocity": 0.7874015748031497,
          "duration": 0.0010964895833325272
        },
        {
          "name": "D5",
          "midi": 74,
          "time": 96.31564499999995,
          "velocity": 0.7874015748031497,
          "duration": 0.0010964895833325272
        },
        {
          "name": "C#6",
          "midi": 85,
          "time": 96.31564499999995,
          "velocity": 0.7874015748031497,
          "duration": 0.0010964895833325272
        },
        {
          "name": "D6",
          "midi": 86,
          "time": 96.31564499999995,
          "velocity": 0.7874015748031497,
          "duration": 0.0010964895833325272
        },
        {
          "name": "C#7",
          "midi": 97,
          "time": 96.31564499999995,
          "velocity": 0.7874015748031497,
          "duration": 0.0010964895833325272
        },
        {
          "name": "D7",
          "midi": 98,
          "time": 96.31564499999995,
          "velocity": 0.7874015748031497,
          "duration": 0.0010964895833325272
        },
        {
          "name": "C#5",
          "midi": 73,
          "time": 96.57770601041662,
          "velocity": 0.7874015748031497,
          "duration": 0.0010964895833325272
        },
        {
          "name": "C#6",
          "midi": 85,
          "time": 96.57770601041662,
          "velocity": 0.7874015748031497,
          "duration": 0.0010964895833325272
        },
        {
          "name": "C#7",
          "midi": 97,
          "time": 96.57770601041662,
          "velocity": 0.7874015748031497,
          "duration": 0.0010964895833325272
        },
        {
          "name": "G#8",
          "midi": 116,
          "time": 96.84195999999996,
          "velocity": 0.7874015748031497,
          "duration": 2.6973643750000065
        },
        {
          "name": "E4",
          "midi": 64,
          "time": 96.84195999999996,
          "velocity": 0.7874015748031497,
          "duration": 0.0010964895833325272
        },
        {
          "name": "C5",
          "midi": 72,
          "time": 96.84195999999996,
          "velocity": 0.7874015748031497,
          "duration": 0.0010964895833325272
        },
        {
          "name": "E5",
          "midi": 76,
          "time": 96.84195999999996,
          "velocity": 0.7874015748031497,
          "duration": 0.0010964895833325272
        },
        {
          "name": "C6",
          "midi": 84,
          "time": 96.84195999999996,
          "velocity": 0.7874015748031497,
          "duration": 0.0010964895833325272
        },
        {
          "name": "E6",
          "midi": 88,
          "time": 96.84195999999996,
          "velocity": 0.7874015748031497,
          "duration": 0.0010964895833325272
        },
        {
          "name": "C7",
          "midi": 96,
          "time": 96.84195999999996,
          "velocity": 0.7874015748031497,
          "duration": 0.0010964895833325272
        },
        {
          "name": "E7",
          "midi": 100,
          "time": 96.84195999999996,
          "velocity": 0.7874015748031497,
          "duration": 0.0010964895833325272
        },
        {
          "name": "C#4",
          "midi": 61,
          "time": 97.36827499999995,
          "velocity": 0.7874015748031497,
          "duration": 0.0010964895833325272
        },
        {
          "name": "C#5",
          "midi": 73,
          "time": 97.36827499999995,
          "velocity": 0.7874015748031497,
          "duration": 0.0010964895833325272
        },
        {
          "name": "D5",
          "midi": 74,
          "time": 97.36827499999995,
          "velocity": 0.7874015748031497,
          "duration": 0.0010964895833325272
        },
        {
          "name": "C#6",
          "midi": 85,
          "time": 97.36827499999995,
          "velocity": 0.7874015748031497,
          "duration": 0.0010964895833325272
        },
        {
          "name": "D6",
          "midi": 86,
          "time": 97.36827499999995,
          "velocity": 0.7874015748031497,
          "duration": 0.0010964895833325272
        },
        {
          "name": "C#7",
          "midi": 97,
          "time": 97.36827499999995,
          "velocity": 0.7874015748031497,
          "duration": 0.0010964895833325272
        },
        {
          "name": "D7",
          "midi": 98,
          "time": 97.36827499999995,
          "velocity": 0.7874015748031497,
          "duration": 0.0010964895833325272
        },
        {
          "name": "D4",
          "midi": 62,
          "time": 97.89458999999995,
          "velocity": 0.7874015748031497,
          "duration": 0.0010964895833325272
        },
        {
          "name": "D5",
          "midi": 74,
          "time": 97.89458999999995,
          "velocity": 0.7874015748031497,
          "duration": 0.0010964895833325272
        },
        {
          "name": "D6",
          "midi": 86,
          "time": 97.89458999999995,
          "velocity": 0.7874015748031497,
          "duration": 0.0010964895833325272
        },
        {
          "name": "D7",
          "midi": 98,
          "time": 97.89458999999995,
          "velocity": 0.7874015748031497,
          "duration": 0.0010964895833325272
        },
        {
          "name": "C5",
          "midi": 72,
          "time": 98.15665101041662,
          "velocity": 0.7874015748031497,
          "duration": 0.0010964895833325272
        },
        {
          "name": "C6",
          "midi": 84,
          "time": 98.15665101041662,
          "velocity": 0.7874015748031497,
          "duration": 0.0010964895833325272
        },
        {
          "name": "C7",
          "midi": 96,
          "time": 98.15665101041662,
          "velocity": 0.7874015748031497,
          "duration": 0.0010964895833325272
        },
        {
          "name": "C#4",
          "midi": 61,
          "time": 98.42090499999996,
          "velocity": 0.7874015748031497,
          "duration": 0.0010964895833325272
        },
        {
          "name": "C#5",
          "midi": 73,
          "time": 98.42090499999996,
          "velocity": 0.7874015748031497,
          "duration": 0.0010964895833325272
        },
        {
          "name": "D5",
          "midi": 74,
          "time": 98.42090499999996,
          "velocity": 0.7874015748031497,
          "duration": 0.0010964895833325272
        },
        {
          "name": "C#6",
          "midi": 85,
          "time": 98.42090499999996,
          "velocity": 0.7874015748031497,
          "duration": 0.0010964895833325272
        },
        {
          "name": "D6",
          "midi": 86,
          "time": 98.42090499999996,
          "velocity": 0.7874015748031497,
          "duration": 0.0010964895833325272
        },
        {
          "name": "C#7",
          "midi": 97,
          "time": 98.42090499999996,
          "velocity": 0.7874015748031497,
          "duration": 0.0010964895833325272
        },
        {
          "name": "D7",
          "midi": 98,
          "time": 98.42090499999996,
          "velocity": 0.7874015748031497,
          "duration": 0.0010964895833325272
        },
        {
          "name": "C4",
          "midi": 60,
          "time": 98.94721999999996,
          "velocity": 0.7874015748031497,
          "duration": 0.0010964895833325272
        },
        {
          "name": "C5",
          "midi": 72,
          "time": 98.94721999999996,
          "velocity": 0.7874015748031497,
          "duration": 0.0010964895833325272
        },
        {
          "name": "D5",
          "midi": 74,
          "time": 98.94721999999996,
          "velocity": 0.7874015748031497,
          "duration": 0.0010964895833325272
        },
        {
          "name": "C6",
          "midi": 84,
          "time": 98.94721999999996,
          "velocity": 0.7874015748031497,
          "duration": 0.0010964895833325272
        },
        {
          "name": "D6",
          "midi": 86,
          "time": 98.94721999999996,
          "velocity": 0.7874015748031497,
          "duration": 0.0010964895833325272
        },
        {
          "name": "C7",
          "midi": 96,
          "time": 98.94721999999996,
          "velocity": 0.7874015748031497,
          "duration": 0.0010964895833325272
        },
        {
          "name": "D7",
          "midi": 98,
          "time": 98.94721999999996,
          "velocity": 0.7874015748031497,
          "duration": 0.0010964895833325272
        },
        {
          "name": "C7",
          "midi": 96,
          "time": 99.21037749999996,
          "velocity": 0.7874015748031497,
          "duration": 0.0010964895833325272
        },
        {
          "name": "C6",
          "midi": 84,
          "time": 99.34195624999997,
          "velocity": 0.7874015748031497,
          "duration": 0.0010964895833325272
        },
        {
          "name": "C7",
          "midi": 96,
          "time": 99.34195624999997,
          "velocity": 0.7874015748031497,
          "duration": 0.0010964895833325272
        },
        {
          "name": "C#4",
          "midi": 61,
          "time": 99.47353499999997,
          "velocity": 0.7874015748031497,
          "duration": 0.0010964895833325272
        },
        {
          "name": "C#5",
          "midi": 73,
          "time": 99.47353499999997,
          "velocity": 0.7874015748031497,
          "duration": 0.0010964895833325272
        },
        {
          "name": "D5",
          "midi": 74,
          "time": 99.47353499999997,
          "velocity": 0.7874015748031497,
          "duration": 0.0010964895833325272
        },
        {
          "name": "C#6",
          "midi": 85,
          "time": 99.47353499999997,
          "velocity": 0.7874015748031497,
          "duration": 0.0010964895833325272
        },
        {
          "name": "D6",
          "midi": 86,
          "time": 99.47353499999997,
          "velocity": 0.7874015748031497,
          "duration": 0.0010964895833325272
        },
        {
          "name": "C#7",
          "midi": 97,
          "time": 99.47353499999997,
          "velocity": 0.7874015748031497,
          "duration": 0.0010964895833325272
        },
        {
          "name": "D7",
          "midi": 98,
          "time": 99.47353499999997,
          "velocity": 0.7874015748031497,
          "duration": 0.0010964895833325272
        },
        {
          "name": "D4",
          "midi": 62,
          "time": 99.99984999999997,
          "velocity": 0.7874015748031497,
          "duration": 0.0010964895833325272
        },
        {
          "name": "D5",
          "midi": 74,
          "time": 99.99984999999997,
          "velocity": 0.7874015748031497,
          "duration": 0.0010964895833325272
        },
        {
          "name": "D6",
          "midi": 86,
          "time": 99.99984999999997,
          "velocity": 0.7874015748031497,
          "duration": 0.0010964895833325272
        },
        {
          "name": "D7",
          "midi": 98,
          "time": 99.99984999999997,
          "velocity": 0.7874015748031497,
          "duration": 0.0010964895833325272
        },
        {
          "name": "C5",
          "midi": 72,
          "time": 100.26300749999997,
          "velocity": 0.7874015748031497,
          "duration": 0.0010964895833325272
        },
        {
          "name": "C6",
          "midi": 84,
          "time": 100.26300749999997,
          "velocity": 0.7874015748031497,
          "duration": 0.0010964895833325272
        },
        {
          "name": "C7",
          "midi": 96,
          "time": 100.26300749999997,
          "velocity": 0.7874015748031497,
          "duration": 0.0010964895833325272
        },
        {
          "name": "C#4",
          "midi": 61,
          "time": 100.52616499999998,
          "velocity": 0.7874015748031497,
          "duration": 0.0010964895833325272
        },
        {
          "name": "C#5",
          "midi": 73,
          "time": 100.52616499999998,
          "velocity": 0.7874015748031497,
          "duration": 0.0010964895833325272
        },
        {
          "name": "D5",
          "midi": 74,
          "time": 100.52616499999998,
          "velocity": 0.7874015748031497,
          "duration": 0.0010964895833325272
        },
        {
          "name": "C#6",
          "midi": 85,
          "time": 100.52616499999998,
          "velocity": 0.7874015748031497,
          "duration": 0.0010964895833325272
        },
        {
          "name": "D6",
          "midi": 86,
          "time": 100.52616499999998,
          "velocity": 0.7874015748031497,
          "duration": 0.0010964895833325272
        },
        {
          "name": "C#7",
          "midi": 97,
          "time": 100.52616499999998,
          "velocity": 0.7874015748031497,
          "duration": 0.0010964895833325272
        },
        {
          "name": "D7",
          "midi": 98,
          "time": 100.52616499999998,
          "velocity": 0.7874015748031497,
          "duration": 0.0010964895833325272
        },
        {
          "name": "D4",
          "midi": 62,
          "time": 101.05247999999997,
          "velocity": 0.7874015748031497,
          "duration": 0.0010964895833325272
        },
        {
          "name": "C5",
          "midi": 72,
          "time": 101.05247999999997,
          "velocity": 0.7874015748031497,
          "duration": 0.0010964895833325272
        },
        {
          "name": "D5",
          "midi": 74,
          "time": 101.05247999999997,
          "velocity": 0.7874015748031497,
          "duration": 0.0010964895833325272
        },
        {
          "name": "C6",
          "midi": 84,
          "time": 101.05247999999997,
          "velocity": 0.7874015748031497,
          "duration": 0.0010964895833325272
        },
        {
          "name": "D6",
          "midi": 86,
          "time": 101.05247999999997,
          "velocity": 0.7874015748031497,
          "duration": 0.0010964895833325272
        },
        {
          "name": "C7",
          "midi": 96,
          "time": 101.05247999999997,
          "velocity": 0.7874015748031497,
          "duration": 0.0010964895833325272
        },
        {
          "name": "D7",
          "midi": 98,
          "time": 101.05247999999997,
          "velocity": 0.7874015748031497,
          "duration": 0.0010964895833325272
        },
        {
          "name": "C7",
          "midi": 96,
          "time": 101.31563749999998,
          "velocity": 0.7874015748031497,
          "duration": 0.0010964895833325272
        },
        {
          "name": "C6",
          "midi": 84,
          "time": 101.44721624999998,
          "velocity": 0.7874015748031497,
          "duration": 0.0010964895833325272
        },
        {
          "name": "C7",
          "midi": 96,
          "time": 101.44721624999998,
          "velocity": 0.7874015748031497,
          "duration": 0.0010964895833325272
        },
        {
          "name": "C#4",
          "midi": 61,
          "time": 101.57879499999999,
          "velocity": 0.7874015748031497,
          "duration": 0.0010964895833325272
        },
        {
          "name": "C#5",
          "midi": 73,
          "time": 101.57879499999999,
          "velocity": 0.7874015748031497,
          "duration": 0.0010964895833325272
        },
        {
          "name": "D5",
          "midi": 74,
          "time": 101.57879499999999,
          "velocity": 0.7874015748031497,
          "duration": 0.0010964895833325272
        },
        {
          "name": "C#6",
          "midi": 85,
          "time": 101.57879499999999,
          "velocity": 0.7874015748031497,
          "duration": 0.0010964895833325272
        },
        {
          "name": "D6",
          "midi": 86,
          "time": 101.57879499999999,
          "velocity": 0.7874015748031497,
          "duration": 0.0010964895833325272
        },
        {
          "name": "C#7",
          "midi": 97,
          "time": 101.57879499999999,
          "velocity": 0.7874015748031497,
          "duration": 0.0010964895833325272
        },
        {
          "name": "D7",
          "midi": 98,
          "time": 101.57879499999999,
          "velocity": 0.7874015748031497,
          "duration": 0.0010964895833325272
        },
        {
          "name": "D4",
          "midi": 62,
          "time": 102.10510999999998,
          "velocity": 0.7874015748031497,
          "duration": 0.0010964895833325272
        },
        {
          "name": "D5",
          "midi": 74,
          "time": 102.10510999999998,
          "velocity": 0.7874015748031497,
          "duration": 0.0010964895833325272
        },
        {
          "name": "D6",
          "midi": 86,
          "time": 102.10510999999998,
          "velocity": 0.7874015748031497,
          "duration": 0.0010964895833325272
        },
        {
          "name": "D7",
          "midi": 98,
          "time": 102.10510999999998,
          "velocity": 0.7874015748031497,
          "duration": 0.0010964895833325272
        },
        {
          "name": "C5",
          "midi": 72,
          "time": 102.36936398958332,
          "velocity": 0.7874015748031497,
          "duration": 0.0010964895833325272
        },
        {
          "name": "C6",
          "midi": 84,
          "time": 102.36936398958332,
          "velocity": 0.7874015748031497,
          "duration": 0.0010964895833325272
        },
        {
          "name": "C7",
          "midi": 96,
          "time": 102.36936398958332,
          "velocity": 0.7874015748031497,
          "duration": 0.0010964895833325272
        },
        {
          "name": "C#4",
          "midi": 61,
          "time": 102.63142499999998,
          "velocity": 0.7874015748031497,
          "duration": 0.0010964895833325272
        },
        {
          "name": "C#5",
          "midi": 73,
          "time": 102.63142499999998,
          "velocity": 0.7874015748031497,
          "duration": 0.0010964895833325272
        },
        {
          "name": "D5",
          "midi": 74,
          "time": 102.63142499999998,
          "velocity": 0.7874015748031497,
          "duration": 0.0010964895833325272
        },
        {
          "name": "C#6",
          "midi": 85,
          "time": 102.63142499999998,
          "velocity": 0.7874015748031497,
          "duration": 0.0010964895833325272
        },
        {
          "name": "D6",
          "midi": 86,
          "time": 102.63142499999998,
          "velocity": 0.7874015748031497,
          "duration": 0.0010964895833325272
        },
        {
          "name": "C#7",
          "midi": 97,
          "time": 102.63142499999998,
          "velocity": 0.7874015748031497,
          "duration": 0.0010964895833325272
        },
        {
          "name": "D7",
          "midi": 98,
          "time": 102.63142499999998,
          "velocity": 0.7874015748031497,
          "duration": 0.0010964895833325272
        },
        {
          "name": "C4",
          "midi": 60,
          "time": 103.15773999999998,
          "velocity": 0.7874015748031497,
          "duration": 0.0010964895833325272
        },
        {
          "name": "C5",
          "midi": 72,
          "time": 103.15773999999998,
          "velocity": 0.7874015748031497,
          "duration": 0.0010964895833325272
        },
        {
          "name": "D5",
          "midi": 74,
          "time": 103.15773999999998,
          "velocity": 0.7874015748031497,
          "duration": 0.0010964895833325272
        },
        {
          "name": "C6",
          "midi": 84,
          "time": 103.15773999999998,
          "velocity": 0.7874015748031497,
          "duration": 0.0010964895833325272
        },
        {
          "name": "D6",
          "midi": 86,
          "time": 103.15773999999998,
          "velocity": 0.7874015748031497,
          "duration": 0.0010964895833325272
        },
        {
          "name": "C7",
          "midi": 96,
          "time": 103.15773999999998,
          "velocity": 0.7874015748031497,
          "duration": 0.0010964895833325272
        },
        {
          "name": "D7",
          "midi": 98,
          "time": 103.15773999999998,
          "velocity": 0.7874015748031497,
          "duration": 0.0010964895833325272
        },
        {
          "name": "C6",
          "midi": 84,
          "time": 103.42089749999998,
          "velocity": 0.7874015748031497,
          "duration": 0.0010964895833325272
        },
        {
          "name": "C7",
          "midi": 96,
          "time": 103.42089749999998,
          "velocity": 0.7874015748031497,
          "duration": 0.0010964895833325272
        },
        {
          "name": "C7",
          "midi": 96,
          "time": 103.55137976041665,
          "velocity": 0.7874015748031497,
          "duration": 0.0010964895833325272
        },
        {
          "name": "C#4",
          "midi": 61,
          "time": 103.68405499999999,
          "velocity": 0.7874015748031497,
          "duration": 0.0010964895833325272
        },
        {
          "name": "C#5",
          "midi": 73,
          "time": 103.68405499999999,
          "velocity": 0.7874015748031497,
          "duration": 0.0010964895833325272
        },
        {
          "name": "C#6",
          "midi": 85,
          "time": 103.68405499999999,
          "velocity": 0.7874015748031497,
          "duration": 0.0010964895833325272
        },
        {
          "name": "C#7",
          "midi": 97,
          "time": 103.68405499999999,
          "velocity": 0.7874015748031497,
          "duration": 0.0010964895833325272
        },
        {
          "name": "C#5",
          "midi": 73,
          "time": 103.95817739583332,
          "velocity": 0.7874015748031497,
          "duration": 0.0010964895833325272
        },
        {
          "name": "C#6",
          "midi": 85,
          "time": 103.95817739583332,
          "velocity": 0.7874015748031497,
          "duration": 0.0010964895833325272
        },
        {
          "name": "C#7",
          "midi": 97,
          "time": 103.95817739583332,
          "velocity": 0.7874015748031497,
          "duration": 0.0010964895833325272
        },
        {
          "name": "D#4",
          "midi": 63,
          "time": 104.21036999999998,
          "velocity": 0.7874015748031497,
          "duration": 0.0010964895833325272
        },
        {
          "name": "D#5",
          "midi": 75,
          "time": 104.21036999999998,
          "velocity": 0.7874015748031497,
          "duration": 0.0010964895833325272
        },
        {
          "name": "D#6",
          "midi": 87,
          "time": 104.21036999999998,
          "velocity": 0.7874015748031497,
          "duration": 0.0010964895833325272
        },
        {
          "name": "D#7",
          "midi": 99,
          "time": 104.21036999999998,
          "velocity": 0.7874015748031497,
          "duration": 0.0010964895833325272
        },
        {
          "name": "D#6",
          "midi": 87,
          "time": 104.34194874999999,
          "velocity": 0.7874015748031497,
          "duration": 0.0010964895833325272
        },
        {
          "name": "D#7",
          "midi": 99,
          "time": 104.34194874999999,
          "velocity": 0.7874015748031497,
          "duration": 0.0010964895833325272
        },
        {
          "name": "D#5",
          "midi": 75,
          "time": 104.47352749999999,
          "velocity": 0.7874015748031497,
          "duration": 0.0010964895833325272
        },
        {
          "name": "D#6",
          "midi": 87,
          "time": 104.47352749999999,
          "velocity": 0.7874015748031497,
          "duration": 0.0010964895833325272
        },
        {
          "name": "D#7",
          "midi": 99,
          "time": 104.47352749999999,
          "velocity": 0.7874015748031497,
          "duration": 0.0010964895833325272
        },
        {
          "name": "D#6",
          "midi": 87,
          "time": 104.60510624999999,
          "velocity": 0.7874015748031497,
          "duration": 0.0010964895833325272
        },
        {
          "name": "D#7",
          "midi": 99,
          "time": 104.60510624999999,
          "velocity": 0.7874015748031497,
          "duration": 0.0010964895833325272
        },
        {
          "name": "F4",
          "midi": 65,
          "time": 104.736685,
          "velocity": 0.7874015748031497,
          "duration": 0.0010964895833325272
        },
        {
          "name": "F5",
          "midi": 77,
          "time": 104.736685,
          "velocity": 0.7874015748031497,
          "duration": 0.0010964895833325272
        },
        {
          "name": "F6",
          "midi": 89,
          "time": 104.736685,
          "velocity": 0.7874015748031497,
          "duration": 0.0010964895833325272
        },
        {
          "name": "F7",
          "midi": 101,
          "time": 104.736685,
          "velocity": 0.7874015748031497,
          "duration": 0.0010964895833325272
        },
        {
          "name": "F6",
          "midi": 89,
          "time": 104.86936023958333,
          "velocity": 0.7874015748031497,
          "duration": 0.0010964895833325272
        },
        {
          "name": "F7",
          "midi": 101,
          "time": 104.86936023958333,
          "velocity": 0.7874015748031497,
          "duration": 0.0010964895833325272
        },
        {
          "name": "F5",
          "midi": 77,
          "time": 104.9998425,
          "velocity": 0.7874015748031497,
          "duration": 0.0010964895833325272
        },
        {
          "name": "F6",
          "midi": 89,
          "time": 104.9998425,
          "velocity": 0.7874015748031497,
          "duration": 0.0010964895833325272
        },
        {
          "name": "F7",
          "midi": 101,
          "time": 104.9998425,
          "velocity": 0.7874015748031497,
          "duration": 0.0010964895833325272
        },
        {
          "name": "F6",
          "midi": 89,
          "time": 105.13032476041667,
          "velocity": 0.7874015748031497,
          "duration": 0.0010964895833325272
        },
        {
          "name": "F7",
          "midi": 101,
          "time": 105.13032476041667,
          "velocity": 0.7874015748031497,
          "duration": 0.0010964895833325272
        },
        {
          "name": "D4",
          "midi": 62,
          "time": 105.263,
          "velocity": 0.7874015748031497,
          "duration": 0.0010964895833325272
        },
        {
          "name": "C5",
          "midi": 72,
          "time": 105.263,
          "velocity": 0.7874015748031497,
          "duration": 0.0010964895833325272
        },
        {
          "name": "D5",
          "midi": 74,
          "time": 105.263,
          "velocity": 0.7874015748031497,
          "duration": 0.0010964895833325272
        },
        {
          "name": "C6",
          "midi": 84,
          "time": 105.263,
          "velocity": 0.7874015748031497,
          "duration": 0.0010964895833325272
        },
        {
          "name": "D6",
          "midi": 86,
          "time": 105.263,
          "velocity": 0.7874015748031497,
          "duration": 0.0010964895833325272
        },
        {
          "name": "C7",
          "midi": 96,
          "time": 105.263,
          "velocity": 0.7874015748031497,
          "duration": 0.0010964895833325272
        },
        {
          "name": "D7",
          "midi": 98,
          "time": 105.263,
          "velocity": 0.7874015748031497,
          "duration": 0.0010964895833325272
        },
        {
          "name": "C#4",
          "midi": 61,
          "time": 105.789315,
          "velocity": 0.7874015748031497,
          "duration": 0.0010964895833325272
        },
        {
          "name": "C#5",
          "midi": 73,
          "time": 105.789315,
          "velocity": 0.7874015748031497,
          "duration": 0.0010964895833325272
        },
        {
          "name": "C#6",
          "midi": 85,
          "time": 105.789315,
          "velocity": 0.7874015748031497,
          "duration": 0.0010964895833325272
        },
        {
          "name": "C#7",
          "midi": 97,
          "time": 105.789315,
          "velocity": 0.7874015748031497,
          "duration": 0.0010964895833325272
        },
        {
          "name": "E5",
          "midi": 76,
          "time": 106.05356898958334,
          "velocity": 0.7874015748031497,
          "duration": 0.0010964895833325272
        },
        {
          "name": "C6",
          "midi": 84,
          "time": 106.05356898958334,
          "velocity": 0.7874015748031497,
          "duration": 0.0010964895833325272
        },
        {
          "name": "E6",
          "midi": 88,
          "time": 106.05356898958334,
          "velocity": 0.7874015748031497,
          "duration": 0.0010964895833325272
        },
        {
          "name": "C7",
          "midi": 96,
          "time": 106.05356898958334,
          "velocity": 0.7874015748031497,
          "duration": 0.0010964895833325272
        },
        {
          "name": "E7",
          "midi": 100,
          "time": 106.05356898958334,
          "velocity": 0.7874015748031497,
          "duration": 0.0010964895833325272
        },
        {
          "name": "E4",
          "midi": 64,
          "time": 106.31563,
          "velocity": 0.7874015748031497,
          "duration": 0.0010964895833325272
        },
        {
          "name": "E5",
          "midi": 76,
          "time": 106.31563,
          "velocity": 0.7874015748031497,
          "duration": 0.0010964895833325272
        },
        {
          "name": "E6",
          "midi": 88,
          "time": 106.31563,
          "velocity": 0.7874015748031497,
          "duration": 0.0010964895833325272
        },
        {
          "name": "E7",
          "midi": 100,
          "time": 106.31563,
          "velocity": 0.7874015748031497,
          "duration": 0.0010964895833325272
        },
        {
          "name": "E5",
          "midi": 76,
          "time": 106.57988398958334,
          "velocity": 0.7874015748031497,
          "duration": 0.0010964895833325272
        },
        {
          "name": "E6",
          "midi": 88,
          "time": 106.57988398958334,
          "velocity": 0.7874015748031497,
          "duration": 0.0010964895833325272
        },
        {
          "name": "C7",
          "midi": 96,
          "time": 106.57988398958334,
          "velocity": 0.7874015748031497,
          "duration": 0.0010964895833325272
        },
        {
          "name": "E7",
          "midi": 100,
          "time": 106.57988398958334,
          "velocity": 0.7874015748031497,
          "duration": 0.0010964895833325272
        },
        {
          "name": "E6",
          "midi": 88,
          "time": 106.71146273958334,
          "velocity": 0.7874015748031497,
          "duration": 0.0010964895833325272
        },
        {
          "name": "C7",
          "midi": 96,
          "time": 106.71146273958334,
          "velocity": 0.7874015748031497,
          "duration": 0.0010964895833325272
        },
        {
          "name": "E7",
          "midi": 100,
          "time": 106.71146273958334,
          "velocity": 0.7874015748031497,
          "duration": 0.0010964895833325272
        },
        {
          "name": "C#4",
          "midi": 61,
          "time": 106.84194500000001,
          "velocity": 0.7874015748031497,
          "duration": 0.0010964895833325272
        },
        {
          "name": "C#5",
          "midi": 73,
          "time": 106.84194500000001,
          "velocity": 0.7874015748031497,
          "duration": 0.0010964895833325272
        },
        {
          "name": "C#6",
          "midi": 85,
          "time": 106.84194500000001,
          "velocity": 0.7874015748031497,
          "duration": 0.0010964895833325272
        },
        {
          "name": "C#7",
          "midi": 97,
          "time": 106.84194500000001,
          "velocity": 0.7874015748031497,
          "duration": 0.0010964895833325272
        },
        {
          "name": "E7",
          "midi": 100,
          "time": 106.97352375000001,
          "velocity": 0.7874015748031497,
          "duration": 0.0010964895833325272
        },
        {
          "name": "E5",
          "midi": 76,
          "time": 107.10510250000002,
          "velocity": 0.7874015748031497,
          "duration": 0.0010964895833325272
        },
        {
          "name": "E6",
          "midi": 88,
          "time": 107.10510250000002,
          "velocity": 0.7874015748031497,
          "duration": 0.0010964895833325272
        },
        {
          "name": "C7",
          "midi": 96,
          "time": 107.10510250000002,
          "velocity": 0.7874015748031497,
          "duration": 0.0010964895833325272
        },
        {
          "name": "E7",
          "midi": 100,
          "time": 107.10510250000002,
          "velocity": 0.7874015748031497,
          "duration": 0.0010964895833325272
        },
        {
          "name": "E4",
          "midi": 64,
          "time": 107.36826000000002,
          "velocity": 0.7874015748031497,
          "duration": 0.0010964895833325272
        },
        {
          "name": "C5",
          "midi": 72,
          "time": 107.36826000000002,
          "velocity": 0.7874015748031497,
          "duration": 0.0010964895833325272
        },
        {
          "name": "E5",
          "midi": 76,
          "time": 107.36826000000002,
          "velocity": 0.7874015748031497,
          "duration": 0.0010964895833325272
        },
        {
          "name": "C6",
          "midi": 84,
          "time": 107.36826000000002,
          "velocity": 0.7874015748031497,
          "duration": 0.0010964895833325272
        },
        {
          "name": "E6",
          "midi": 88,
          "time": 107.36826000000002,
          "velocity": 0.7874015748031497,
          "duration": 0.0010964895833325272
        },
        {
          "name": "C7",
          "midi": 96,
          "time": 107.36826000000002,
          "velocity": 0.7874015748031497,
          "duration": 0.0010964895833325272
        },
        {
          "name": "E7",
          "midi": 100,
          "time": 107.36826000000002,
          "velocity": 0.7874015748031497,
          "duration": 0.0010964895833325272
        },
        {
          "name": "E5",
          "midi": 76,
          "time": 107.63141750000003,
          "velocity": 0.7874015748031497,
          "duration": 0.0010964895833325272
        },
        {
          "name": "E6",
          "midi": 88,
          "time": 107.63141750000003,
          "velocity": 0.7874015748031497,
          "duration": 0.0010964895833325272
        },
        {
          "name": "C7",
          "midi": 96,
          "time": 107.63141750000003,
          "velocity": 0.7874015748031497,
          "duration": 0.0010964895833325272
        },
        {
          "name": "E7",
          "midi": 100,
          "time": 107.63141750000003,
          "velocity": 0.7874015748031497,
          "duration": 0.0010964895833325272
        },
        {
          "name": "E6",
          "midi": 88,
          "time": 107.7618997604167,
          "velocity": 0.7874015748031497,
          "duration": 0.0010964895833325272
        },
        {
          "name": "C7",
          "midi": 96,
          "time": 107.7618997604167,
          "velocity": 0.7874015748031497,
          "duration": 0.0010964895833325272
        },
        {
          "name": "E7",
          "midi": 100,
          "time": 107.7618997604167,
          "velocity": 0.7874015748031497,
          "duration": 0.0010964895833325272
        },
        {
          "name": "C#4",
          "midi": 61,
          "time": 107.89457500000003,
          "velocity": 0.7874015748031497,
          "duration": 0.0010964895833325272
        },
        {
          "name": "C#5",
          "midi": 73,
          "time": 107.89457500000003,
          "velocity": 0.7874015748031497,
          "duration": 0.0010964895833325272
        },
        {
          "name": "C#6",
          "midi": 85,
          "time": 107.89457500000003,
          "velocity": 0.7874015748031497,
          "duration": 0.0010964895833325272
        },
        {
          "name": "C#7",
          "midi": 97,
          "time": 107.89457500000003,
          "velocity": 0.7874015748031497,
          "duration": 0.0010964895833325272
        },
        {
          "name": "E5",
          "midi": 76,
          "time": 108.15882898958337,
          "velocity": 0.7874015748031497,
          "duration": 0.0010964895833325272
        },
        {
          "name": "C6",
          "midi": 84,
          "time": 108.15882898958337,
          "velocity": 0.7874015748031497,
          "duration": 0.0010964895833325272
        },
        {
          "name": "E6",
          "midi": 88,
          "time": 108.15882898958337,
          "velocity": 0.7874015748031497,
          "duration": 0.0010964895833325272
        },
        {
          "name": "C7",
          "midi": 96,
          "time": 108.15882898958337,
          "velocity": 0.7874015748031497,
          "duration": 0.0010964895833325272
        },
        {
          "name": "E7",
          "midi": 100,
          "time": 108.15882898958337,
          "velocity": 0.7874015748031497,
          "duration": 0.0010964895833325272
        },
        {
          "name": "E4",
          "midi": 64,
          "time": 108.42089000000004,
          "velocity": 0.7874015748031497,
          "duration": 0.0010964895833325272
        },
        {
          "name": "E5",
          "midi": 76,
          "time": 108.42089000000004,
          "velocity": 0.7874015748031497,
          "duration": 0.0010964895833325272
        },
        {
          "name": "E6",
          "midi": 88,
          "time": 108.42089000000004,
          "velocity": 0.7874015748031497,
          "duration": 0.0010964895833325272
        },
        {
          "name": "E7",
          "midi": 100,
          "time": 108.42089000000004,
          "velocity": 0.7874015748031497,
          "duration": 0.0010964895833325272
        },
        {
          "name": "E5",
          "midi": 76,
          "time": 108.68404750000005,
          "velocity": 0.7874015748031497,
          "duration": 0.0010964895833325272
        },
        {
          "name": "E6",
          "midi": 88,
          "time": 108.68404750000005,
          "velocity": 0.7874015748031497,
          "duration": 0.0010964895833325272
        },
        {
          "name": "C7",
          "midi": 96,
          "time": 108.68404750000005,
          "velocity": 0.7874015748031497,
          "duration": 0.0010964895833325272
        },
        {
          "name": "E7",
          "midi": 100,
          "time": 108.68404750000005,
          "velocity": 0.7874015748031497,
          "duration": 0.0010964895833325272
        },
        {
          "name": "E6",
          "midi": 88,
          "time": 108.81452976041672,
          "velocity": 0.7874015748031497,
          "duration": 0.0010964895833325272
        },
        {
          "name": "C7",
          "midi": 96,
          "time": 108.81452976041672,
          "velocity": 0.7874015748031497,
          "duration": 0.0010964895833325272
        },
        {
          "name": "E7",
          "midi": 100,
          "time": 108.81452976041672,
          "velocity": 0.7874015748031497,
          "duration": 0.0010964895833325272
        },
        {
          "name": "C#4",
          "midi": 61,
          "time": 108.94720500000005,
          "velocity": 0.7874015748031497,
          "duration": 0.0010964895833325272
        },
        {
          "name": "C#5",
          "midi": 73,
          "time": 108.94720500000005,
          "velocity": 0.7874015748031497,
          "duration": 0.0010964895833325272
        },
        {
          "name": "C#6",
          "midi": 85,
          "time": 108.94720500000005,
          "velocity": 0.7874015748031497,
          "duration": 0.0010964895833325272
        },
        {
          "name": "C#7",
          "midi": 97,
          "time": 108.94720500000005,
          "velocity": 0.7874015748031497,
          "duration": 0.0010964895833325272
        },
        {
          "name": "E7",
          "midi": 100,
          "time": 109.07878375000006,
          "velocity": 0.7874015748031497,
          "duration": 0.0010964895833325272
        },
        {
          "name": "E5",
          "midi": 76,
          "time": 109.21036250000006,
          "velocity": 0.7874015748031497,
          "duration": 0.0010964895833325272
        },
        {
          "name": "E6",
          "midi": 88,
          "time": 109.21036250000006,
          "velocity": 0.7874015748031497,
          "duration": 0.0010964895833325272
        },
        {
          "name": "C7",
          "midi": 96,
          "time": 109.21036250000006,
          "velocity": 0.7874015748031497,
          "duration": 0.0010964895833325272
        },
        {
          "name": "E7",
          "midi": 100,
          "time": 109.21036250000006,
          "velocity": 0.7874015748031497,
          "duration": 0.0010964895833325272
        },
        {
          "name": "C4",
          "midi": 60,
          "time": 109.47352000000006,
          "velocity": 0.7874015748031497,
          "duration": 0.0010964895833325272
        },
        {
          "name": "C5",
          "midi": 72,
          "time": 109.47352000000006,
          "velocity": 0.7874015748031497,
          "duration": 0.0010964895833325272
        },
        {
          "name": "E5",
          "midi": 76,
          "time": 109.47352000000006,
          "velocity": 0.7874015748031497,
          "duration": 0.0010964895833325272
        },
        {
          "name": "C6",
          "midi": 84,
          "time": 109.47352000000006,
          "velocity": 0.7874015748031497,
          "duration": 0.0010964895833325272
        },
        {
          "name": "E6",
          "midi": 88,
          "time": 109.47352000000006,
          "velocity": 0.7874015748031497,
          "duration": 0.0010964895833325272
        },
        {
          "name": "C7",
          "midi": 96,
          "time": 109.47352000000006,
          "velocity": 0.7874015748031497,
          "duration": 0.0010964895833325272
        },
        {
          "name": "E7",
          "midi": 100,
          "time": 109.47352000000006,
          "velocity": 0.7874015748031497,
          "duration": 0.0010964895833325272
        },
        {
          "name": "E5",
          "midi": 76,
          "time": 109.73667750000007,
          "velocity": 0.7874015748031497,
          "duration": 0.0010964895833325272
        },
        {
          "name": "E6",
          "midi": 88,
          "time": 109.73667750000007,
          "velocity": 0.7874015748031497,
          "duration": 0.0010964895833325272
        },
        {
          "name": "C7",
          "midi": 96,
          "time": 109.73667750000007,
          "velocity": 0.7874015748031497,
          "duration": 0.0010964895833325272
        },
        {
          "name": "E7",
          "midi": 100,
          "time": 109.73667750000007,
          "velocity": 0.7874015748031497,
          "duration": 0.0010964895833325272
        },
        {
          "name": "E6",
          "midi": 88,
          "time": 109.8693527395834,
          "velocity": 0.7874015748031497,
          "duration": 0.0010964895833325272
        },
        {
          "name": "C7",
          "midi": 96,
          "time": 109.8693527395834,
          "velocity": 0.7874015748031497,
          "duration": 0.0010964895833325272
        },
        {
          "name": "E7",
          "midi": 100,
          "time": 109.8693527395834,
          "velocity": 0.7874015748031497,
          "duration": 0.0010964895833325272
        },
        {
          "name": "C#4",
          "midi": 61,
          "time": 109.99983500000008,
          "velocity": 0.7874015748031497,
          "duration": 0.0010964895833325272
        },
        {
          "name": "C#5",
          "midi": 73,
          "time": 109.99983500000008,
          "velocity": 0.7874015748031497,
          "duration": 0.0010964895833325272
        },
        {
          "name": "C#6",
          "midi": 85,
          "time": 109.99983500000008,
          "velocity": 0.7874015748031497,
          "duration": 0.0010964895833325272
        },
        {
          "name": "C#7",
          "midi": 97,
          "time": 109.99983500000008,
          "velocity": 0.7874015748031497,
          "duration": 0.0010964895833325272
        },
        {
          "name": "E5",
          "midi": 76,
          "time": 110.26299250000008,
          "velocity": 0.7874015748031497,
          "duration": 0.0010964895833325272
        },
        {
          "name": "C6",
          "midi": 84,
          "time": 110.26299250000008,
          "velocity": 0.7874015748031497,
          "duration": 0.0010964895833325272
        },
        {
          "name": "E6",
          "midi": 88,
          "time": 110.26299250000008,
          "velocity": 0.7874015748031497,
          "duration": 0.0010964895833325272
        },
        {
          "name": "C7",
          "midi": 96,
          "time": 110.26299250000008,
          "velocity": 0.7874015748031497,
          "duration": 0.0010964895833325272
        },
        {
          "name": "E7",
          "midi": 100,
          "time": 110.26299250000008,
          "velocity": 0.7874015748031497,
          "duration": 0.0010964895833325272
        },
        {
          "name": "E4",
          "midi": 64,
          "time": 110.52615000000009,
          "velocity": 0.7874015748031497,
          "duration": 0.0010964895833325272
        },
        {
          "name": "E5",
          "midi": 76,
          "time": 110.52615000000009,
          "velocity": 0.7874015748031497,
          "duration": 0.0010964895833325272
        },
        {
          "name": "E6",
          "midi": 88,
          "time": 110.52615000000009,
          "velocity": 0.7874015748031497,
          "duration": 0.0010964895833325272
        },
        {
          "name": "E7",
          "midi": 100,
          "time": 110.52615000000009,
          "velocity": 0.7874015748031497,
          "duration": 0.0010964895833325272
        },
        {
          "name": "E5",
          "midi": 76,
          "time": 110.78930750000009,
          "velocity": 0.7874015748031497,
          "duration": 0.0010964895833325272
        },
        {
          "name": "E6",
          "midi": 88,
          "time": 110.78930750000009,
          "velocity": 0.7874015748031497,
          "duration": 0.0010964895833325272
        },
        {
          "name": "C7",
          "midi": 96,
          "time": 110.78930750000009,
          "velocity": 0.7874015748031497,
          "duration": 0.0010964895833325272
        },
        {
          "name": "E7",
          "midi": 100,
          "time": 110.78930750000009,
          "velocity": 0.7874015748031497,
          "duration": 0.0010964895833325272
        },
        {
          "name": "E6",
          "midi": 88,
          "time": 110.92198273958343,
          "velocity": 0.7874015748031497,
          "duration": 0.0010964895833325272
        },
        {
          "name": "C7",
          "midi": 96,
          "time": 110.92198273958343,
          "velocity": 0.7874015748031497,
          "duration": 0.0010964895833325272
        },
        {
          "name": "E7",
          "midi": 100,
          "time": 110.92198273958343,
          "velocity": 0.7874015748031497,
          "duration": 0.0010964895833325272
        },
        {
          "name": "C#4",
          "midi": 61,
          "time": 111.0524650000001,
          "velocity": 0.7874015748031497,
          "duration": 0.0010964895833325272
        },
        {
          "name": "C#5",
          "midi": 73,
          "time": 111.0524650000001,
          "velocity": 0.7874015748031497,
          "duration": 0.0010964895833325272
        },
        {
          "name": "C#6",
          "midi": 85,
          "time": 111.0524650000001,
          "velocity": 0.7874015748031497,
          "duration": 0.0010964895833325272
        },
        {
          "name": "C#7",
          "midi": 97,
          "time": 111.0524650000001,
          "velocity": 0.7874015748031497,
          "duration": 0.0010964895833325272
        },
        {
          "name": "E7",
          "midi": 100,
          "time": 111.1840437500001,
          "velocity": 0.7874015748031497,
          "duration": 0.0010964895833325272
        },
        {
          "name": "E5",
          "midi": 76,
          "time": 111.3156225000001,
          "velocity": 0.7874015748031497,
          "duration": 0.0010964895833325272
        },
        {
          "name": "E6",
          "midi": 88,
          "time": 111.3156225000001,
          "velocity": 0.7874015748031497,
          "duration": 0.0010964895833325272
        },
        {
          "name": "C7",
          "midi": 96,
          "time": 111.3156225000001,
          "velocity": 0.7874015748031497,
          "duration": 0.0010964895833325272
        },
        {
          "name": "E7",
          "midi": 100,
          "time": 111.3156225000001,
          "velocity": 0.7874015748031497,
          "duration": 0.0010964895833325272
        },
        {
          "name": "E4",
          "midi": 64,
          "time": 111.57878000000011,
          "velocity": 0.7874015748031497,
          "duration": 0.0010964895833325272
        },
        {
          "name": "C5",
          "midi": 72,
          "time": 111.57878000000011,
          "velocity": 0.7874015748031497,
          "duration": 0.0010964895833325272
        },
        {
          "name": "E5",
          "midi": 76,
          "time": 111.57878000000011,
          "velocity": 0.7874015748031497,
          "duration": 0.0010964895833325272
        },
        {
          "name": "C6",
          "midi": 84,
          "time": 111.57878000000011,
          "velocity": 0.7874015748031497,
          "duration": 0.0010964895833325272
        },
        {
          "name": "E6",
          "midi": 88,
          "time": 111.57878000000011,
          "velocity": 0.7874015748031497,
          "duration": 0.0010964895833325272
        },
        {
          "name": "C7",
          "midi": 96,
          "time": 111.57878000000011,
          "velocity": 0.7874015748031497,
          "duration": 0.0010964895833325272
        },
        {
          "name": "E7",
          "midi": 100,
          "time": 111.57878000000011,
          "velocity": 0.7874015748031497,
          "duration": 0.0010964895833325272
        },
        {
          "name": "E5",
          "midi": 76,
          "time": 111.84084101041677,
          "velocity": 0.7874015748031497,
          "duration": 0.0010964895833325272
        },
        {
          "name": "E6",
          "midi": 88,
          "time": 111.84084101041677,
          "velocity": 0.7874015748031497,
          "duration": 0.0010964895833325272
        },
        {
          "name": "C7",
          "midi": 96,
          "time": 111.84084101041677,
          "velocity": 0.7874015748031497,
          "duration": 0.0010964895833325272
        },
        {
          "name": "E7",
          "midi": 100,
          "time": 111.84084101041677,
          "velocity": 0.7874015748031497,
          "duration": 0.0010964895833325272
        },
        {
          "name": "E6",
          "midi": 88,
          "time": 111.9735162500001,
          "velocity": 0.7874015748031497,
          "duration": 0.0010964895833325272
        },
        {
          "name": "C7",
          "midi": 96,
          "time": 111.9735162500001,
          "velocity": 0.7874015748031497,
          "duration": 0.0010964895833325272
        },
        {
          "name": "E7",
          "midi": 100,
          "time": 111.9735162500001,
          "velocity": 0.7874015748031497,
          "duration": 0.0010964895833325272
        },
        {
          "name": "C#4",
          "midi": 61,
          "time": 112.1050950000001,
          "velocity": 0.7874015748031497,
          "duration": 0.0010964895833325272
        },
        {
          "name": "C#5",
          "midi": 73,
          "time": 112.1050950000001,
          "velocity": 0.7874015748031497,
          "duration": 0.0010964895833325272
        },
        {
          "name": "C#6",
          "midi": 85,
          "time": 112.1050950000001,
          "velocity": 0.7874015748031497,
          "duration": 0.0010964895833325272
        },
        {
          "name": "C#7",
          "midi": 97,
          "time": 112.1050950000001,
          "velocity": 0.7874015748031497,
          "duration": 0.0010964895833325272
        },
        {
          "name": "E5",
          "midi": 76,
          "time": 112.36825250000011,
          "velocity": 0.7874015748031497,
          "duration": 0.0010964895833325272
        },
        {
          "name": "C6",
          "midi": 84,
          "time": 112.36825250000011,
          "velocity": 0.7874015748031497,
          "duration": 0.0010964895833325272
        },
        {
          "name": "E6",
          "midi": 88,
          "time": 112.36825250000011,
          "velocity": 0.7874015748031497,
          "duration": 0.0010964895833325272
        },
        {
          "name": "C7",
          "midi": 96,
          "time": 112.36825250000011,
          "velocity": 0.7874015748031497,
          "duration": 0.0010964895833325272
        },
        {
          "name": "E7",
          "midi": 100,
          "time": 112.36825250000011,
          "velocity": 0.7874015748031497,
          "duration": 0.0010964895833325272
        },
        {
          "name": "E4",
          "midi": 64,
          "time": 112.63141000000012,
          "velocity": 0.7874015748031497,
          "duration": 0.0010964895833325272
        },
        {
          "name": "E5",
          "midi": 76,
          "time": 112.63141000000012,
          "velocity": 0.7874015748031497,
          "duration": 0.0010964895833325272
        },
        {
          "name": "E6",
          "midi": 88,
          "time": 112.63141000000012,
          "velocity": 0.7874015748031497,
          "duration": 0.0010964895833325272
        },
        {
          "name": "E7",
          "midi": 100,
          "time": 112.63141000000012,
          "velocity": 0.7874015748031497,
          "duration": 0.0010964895833325272
        },
        {
          "name": "E5",
          "midi": 76,
          "time": 112.89566398958345,
          "velocity": 0.7874015748031497,
          "duration": 0.0010964895833325272
        },
        {
          "name": "E6",
          "midi": 88,
          "time": 112.89566398958345,
          "velocity": 0.7874015748031497,
          "duration": 0.0010964895833325272
        },
        {
          "name": "E7",
          "midi": 100,
          "time": 112.89566398958345,
          "velocity": 0.7874015748031497,
          "duration": 0.0010964895833325272
        },
        {
          "name": "B6",
          "midi": 95,
          "time": 112.98228666666678,
          "velocity": 0.7874015748031497,
          "duration": 0.0010964895833325272
        },
        {
          "name": "C7",
          "midi": 96,
          "time": 113.07000583333344,
          "velocity": 0.7874015748031497,
          "duration": 0.0010964895833325272
        },
        {
          "name": "C#4",
          "midi": 61,
          "time": 113.1577250000001,
          "velocity": 0.7874015748031497,
          "duration": 0.0010964895833325272
        },
        {
          "name": "C#5",
          "midi": 73,
          "time": 113.1577250000001,
          "velocity": 0.7874015748031497,
          "duration": 0.0010964895833325272
        },
        {
          "name": "D5",
          "midi": 74,
          "time": 113.1577250000001,
          "velocity": 0.7874015748031497,
          "duration": 0.0010964895833325272
        },
        {
          "name": "C#6",
          "midi": 85,
          "time": 113.1577250000001,
          "velocity": 0.7874015748031497,
          "duration": 0.0010964895833325272
        },
        {
          "name": "D6",
          "midi": 86,
          "time": 113.1577250000001,
          "velocity": 0.7874015748031497,
          "duration": 0.0010964895833325272
        },
        {
          "name": "C#7",
          "midi": 97,
          "time": 113.1577250000001,
          "velocity": 0.7874015748031497,
          "duration": 0.0010964895833325272
        },
        {
          "name": "D7",
          "midi": 98,
          "time": 113.1577250000001,
          "velocity": 0.7874015748031497,
          "duration": 0.0010964895833325272
        },
        {
          "name": "C7",
          "midi": 96,
          "time": 113.42197898958344,
          "velocity": 0.7874015748031497,
          "duration": 0.0010964895833325272
        },
        {
          "name": "C4",
          "midi": 60,
          "time": 113.6840400000001,
          "velocity": 0.7874015748031497,
          "duration": 0.0010964895833325272
        },
        {
          "name": "C5",
          "midi": 72,
          "time": 113.6840400000001,
          "velocity": 0.7874015748031497,
          "duration": 0.0010964895833325272
        },
        {
          "name": "E5",
          "midi": 76,
          "time": 113.6840400000001,
          "velocity": 0.7874015748031497,
          "duration": 0.0010964895833325272
        },
        {
          "name": "C6",
          "midi": 84,
          "time": 113.6840400000001,
          "velocity": 0.7874015748031497,
          "duration": 0.0010964895833325272
        },
        {
          "name": "E6",
          "midi": 88,
          "time": 113.6840400000001,
          "velocity": 0.7874015748031497,
          "duration": 0.0010964895833325272
        },
        {
          "name": "C7",
          "midi": 96,
          "time": 113.6840400000001,
          "velocity": 0.7874015748031497,
          "duration": 0.0010964895833325272
        },
        {
          "name": "E7",
          "midi": 100,
          "time": 113.6840400000001,
          "velocity": 0.7874015748031497,
          "duration": 0.0010964895833325272
        },
        {
          "name": "E5",
          "midi": 76,
          "time": 113.9471975000001,
          "velocity": 0.7874015748031497,
          "duration": 0.0010964895833325272
        },
        {
          "name": "E6",
          "midi": 88,
          "time": 113.9471975000001,
          "velocity": 0.7874015748031497,
          "duration": 0.0010964895833325272
        },
        {
          "name": "E7",
          "midi": 100,
          "time": 113.9471975000001,
          "velocity": 0.7874015748031497,
          "duration": 0.0010964895833325272
        },
        {
          "name": "E6",
          "midi": 88,
          "time": 114.0787762500001,
          "velocity": 0.7874015748031497,
          "duration": 0.0010964895833325272
        },
        {
          "name": "E7",
          "midi": 100,
          "time": 114.0787762500001,
          "velocity": 0.7874015748031497,
          "duration": 0.0010964895833325272
        },
        {
          "name": "C#4",
          "midi": 61,
          "time": 114.2103550000001,
          "velocity": 0.7874015748031497,
          "duration": 0.0010964895833325272
        },
        {
          "name": "C#5",
          "midi": 73,
          "time": 114.2103550000001,
          "velocity": 0.7874015748031497,
          "duration": 0.0010964895833325272
        },
        {
          "name": "C#6",
          "midi": 85,
          "time": 114.2103550000001,
          "velocity": 0.7874015748031497,
          "duration": 0.0010964895833325272
        },
        {
          "name": "C#7",
          "midi": 97,
          "time": 114.2103550000001,
          "velocity": 0.7874015748031497,
          "duration": 0.0010964895833325272
        },
        {
          "name": "E5",
          "midi": 76,
          "time": 114.47241601041677,
          "velocity": 0.7874015748031497,
          "duration": 0.0010964895833325272
        },
        {
          "name": "C6",
          "midi": 84,
          "time": 114.47241601041677,
          "velocity": 0.7874015748031497,
          "duration": 0.0010964895833325272
        },
        {
          "name": "E6",
          "midi": 88,
          "time": 114.47241601041677,
          "velocity": 0.7874015748031497,
          "duration": 0.0010964895833325272
        },
        {
          "name": "C7",
          "midi": 96,
          "time": 114.47241601041677,
          "velocity": 0.7874015748031497,
          "duration": 0.0010964895833325272
        },
        {
          "name": "E7",
          "midi": 100,
          "time": 114.47241601041677,
          "velocity": 0.7874015748031497,
          "duration": 0.0010964895833325272
        },
        {
          "name": "E4",
          "midi": 64,
          "time": 114.7366700000001,
          "velocity": 0.7874015748031497,
          "duration": 0.0010964895833325272
        },
        {
          "name": "E5",
          "midi": 76,
          "time": 114.7366700000001,
          "velocity": 0.7874015748031497,
          "duration": 0.0010964895833325272
        },
        {
          "name": "E6",
          "midi": 88,
          "time": 114.7366700000001,
          "velocity": 0.7874015748031497,
          "duration": 0.0010964895833325272
        },
        {
          "name": "E7",
          "midi": 100,
          "time": 114.7366700000001,
          "velocity": 0.7874015748031497,
          "duration": 0.0010964895833325272
        },
        {
          "name": "E5",
          "midi": 76,
          "time": 114.99982750000011,
          "velocity": 0.7874015748031497,
          "duration": 0.0010964895833325272
        },
        {
          "name": "E6",
          "midi": 88,
          "time": 114.99982750000011,
          "velocity": 0.7874015748031497,
          "duration": 0.0010964895833325272
        },
        {
          "name": "C7",
          "midi": 96,
          "time": 114.99982750000011,
          "velocity": 0.7874015748031497,
          "duration": 0.0010964895833325272
        },
        {
          "name": "E7",
          "midi": 100,
          "time": 114.99982750000011,
          "velocity": 0.7874015748031497,
          "duration": 0.0010964895833325272
        },
        {
          "name": "E6",
          "midi": 88,
          "time": 115.13140625000011,
          "velocity": 0.7874015748031497,
          "duration": 0.0010964895833325272
        },
        {
          "name": "C7",
          "midi": 96,
          "time": 115.13140625000011,
          "velocity": 0.7874015748031497,
          "duration": 0.0010964895833325272
        },
        {
          "name": "E7",
          "midi": 100,
          "time": 115.13140625000011,
          "velocity": 0.7874015748031497,
          "duration": 0.0010964895833325272
        },
        {
          "name": "C#4",
          "midi": 61,
          "time": 115.26298500000011,
          "velocity": 0.7874015748031497,
          "duration": 0.0010964895833325272
        },
        {
          "name": "C#5",
          "midi": 73,
          "time": 115.26298500000011,
          "velocity": 0.7874015748031497,
          "duration": 0.0010964895833325272
        },
        {
          "name": "C#6",
          "midi": 85,
          "time": 115.26298500000011,
          "velocity": 0.7874015748031497,
          "duration": 0.0010964895833325272
        },
        {
          "name": "C#7",
          "midi": 97,
          "time": 115.26298500000011,
          "velocity": 0.7874015748031497,
          "duration": 0.0010964895833325272
        },
        {
          "name": "E7",
          "midi": 100,
          "time": 115.39456375000012,
          "velocity": 0.7874015748031497,
          "duration": 0.0010964895833325272
        },
        {
          "name": "E5",
          "midi": 76,
          "time": 115.52614250000012,
          "velocity": 0.7874015748031497,
          "duration": 0.0010964895833325272
        },
        {
          "name": "E6",
          "midi": 88,
          "time": 115.52614250000012,
          "velocity": 0.7874015748031497,
          "duration": 0.0010964895833325272
        },
        {
          "name": "C7",
          "midi": 96,
          "time": 115.52614250000012,
          "velocity": 0.7874015748031497,
          "duration": 0.0010964895833325272
        },
        {
          "name": "E7",
          "midi": 100,
          "time": 115.52614250000012,
          "velocity": 0.7874015748031497,
          "duration": 0.0010964895833325272
        },
        {
          "name": "E4",
          "midi": 64,
          "time": 115.78930000000013,
          "velocity": 0.7874015748031497,
          "duration": 0.0010964895833325272
        },
        {
          "name": "C5",
          "midi": 72,
          "time": 115.78930000000013,
          "velocity": 0.7874015748031497,
          "duration": 0.0010964895833325272
        },
        {
          "name": "E5",
          "midi": 76,
          "time": 115.78930000000013,
          "velocity": 0.7874015748031497,
          "duration": 0.0010964895833325272
        },
        {
          "name": "C6",
          "midi": 84,
          "time": 115.78930000000013,
          "velocity": 0.7874015748031497,
          "duration": 0.0010964895833325272
        },
        {
          "name": "E6",
          "midi": 88,
          "time": 115.78930000000013,
          "velocity": 0.7874015748031497,
          "duration": 0.0010964895833325272
        },
        {
          "name": "C7",
          "midi": 96,
          "time": 115.78930000000013,
          "velocity": 0.7874015748031497,
          "duration": 0.0010964895833325272
        },
        {
          "name": "E7",
          "midi": 100,
          "time": 115.78930000000013,
          "velocity": 0.7874015748031497,
          "duration": 0.0010964895833325272
        },
        {
          "name": "E5",
          "midi": 76,
          "time": 116.05245750000013,
          "velocity": 0.7874015748031497,
          "duration": 0.0010964895833325272
        },
        {
          "name": "E6",
          "midi": 88,
          "time": 116.05245750000013,
          "velocity": 0.7874015748031497,
          "duration": 0.0010964895833325272
        },
        {
          "name": "C7",
          "midi": 96,
          "time": 116.05245750000013,
          "velocity": 0.7874015748031497,
          "duration": 0.0010964895833325272
        },
        {
          "name": "E7",
          "midi": 100,
          "time": 116.05245750000013,
          "velocity": 0.7874015748031497,
          "duration": 0.0010964895833325272
        },
        {
          "name": "E6",
          "midi": 88,
          "time": 116.1829397604168,
          "velocity": 0.7874015748031497,
          "duration": 0.0010964895833325272
        },
        {
          "name": "C7",
          "midi": 96,
          "time": 116.1829397604168,
          "velocity": 0.7874015748031497,
          "duration": 0.0010964895833325272
        },
        {
          "name": "E7",
          "midi": 100,
          "time": 116.1829397604168,
          "velocity": 0.7874015748031497,
          "duration": 0.0010964895833325272
        },
        {
          "name": "C#4",
          "midi": 61,
          "time": 116.31561500000014,
          "velocity": 0.7874015748031497,
          "duration": 0.0010964895833325272
        },
        {
          "name": "C#5",
          "midi": 73,
          "time": 116.31561500000014,
          "velocity": 0.7874015748031497,
          "duration": 0.0010964895833325272
        },
        {
          "name": "C#6",
          "midi": 85,
          "time": 116.31561500000014,
          "velocity": 0.7874015748031497,
          "duration": 0.0010964895833325272
        },
        {
          "name": "C#7",
          "midi": 97,
          "time": 116.31561500000014,
          "velocity": 0.7874015748031497,
          "duration": 0.0010964895833325272
        },
        {
          "name": "E5",
          "midi": 76,
          "time": 116.57877250000014,
          "velocity": 0.7874015748031497,
          "duration": 0.0010964895833325272
        },
        {
          "name": "C6",
          "midi": 84,
          "time": 116.57877250000014,
          "velocity": 0.7874015748031497,
          "duration": 0.0010964895833325272
        },
        {
          "name": "E6",
          "midi": 88,
          "time": 116.57877250000014,
          "velocity": 0.7874015748031497,
          "duration": 0.0010964895833325272
        },
        {
          "name": "C7",
          "midi": 96,
          "time": 116.57877250000014,
          "velocity": 0.7874015748031497,
          "duration": 0.0010964895833325272
        },
        {
          "name": "E7",
          "midi": 100,
          "time": 116.57877250000014,
          "velocity": 0.7874015748031497,
          "duration": 0.0010964895833325272
        },
        {
          "name": "E4",
          "midi": 64,
          "time": 116.84193000000015,
          "velocity": 0.7874015748031497,
          "duration": 0.0010964895833325272
        },
        {
          "name": "E5",
          "midi": 76,
          "time": 116.84193000000015,
          "velocity": 0.7874015748031497,
          "duration": 0.0010964895833325272
        },
        {
          "name": "E6",
          "midi": 88,
          "time": 116.84193000000015,
          "velocity": 0.7874015748031497,
          "duration": 0.0010964895833325272
        },
        {
          "name": "E7",
          "midi": 100,
          "time": 116.84193000000015,
          "velocity": 0.7874015748031497,
          "duration": 0.0010964895833325272
        },
        {
          "name": "E5",
          "midi": 76,
          "time": 117.10399101041682,
          "velocity": 0.7874015748031497,
          "duration": 0.0010964895833325272
        },
        {
          "name": "E6",
          "midi": 88,
          "time": 117.10399101041682,
          "velocity": 0.7874015748031497,
          "duration": 0.0010964895833325272
        },
        {
          "name": "C7",
          "midi": 96,
          "time": 117.10399101041682,
          "velocity": 0.7874015748031497,
          "duration": 0.0010964895833325272
        },
        {
          "name": "E7",
          "midi": 100,
          "time": 117.10399101041682,
          "velocity": 0.7874015748031497,
          "duration": 0.0010964895833325272
        },
        {
          "name": "E6",
          "midi": 88,
          "time": 117.23666625000016,
          "velocity": 0.7874015748031497,
          "duration": 0.0010964895833325272
        },
        {
          "name": "C7",
          "midi": 96,
          "time": 117.23666625000016,
          "velocity": 0.7874015748031497,
          "duration": 0.0010964895833325272
        },
        {
          "name": "E7",
          "midi": 100,
          "time": 117.23666625000016,
          "velocity": 0.7874015748031497,
          "duration": 0.0010964895833325272
        },
        {
          "name": "C#4",
          "midi": 61,
          "time": 117.36824500000016,
          "velocity": 0.7874015748031497,
          "duration": 0.0010964895833325272
        },
        {
          "name": "C#5",
          "midi": 73,
          "time": 117.36824500000016,
          "velocity": 0.7874015748031497,
          "duration": 0.0010964895833325272
        },
        {
          "name": "C#6",
          "midi": 85,
          "time": 117.36824500000016,
          "velocity": 0.7874015748031497,
          "duration": 0.0010964895833325272
        },
        {
          "name": "C#7",
          "midi": 97,
          "time": 117.36824500000016,
          "velocity": 0.7874015748031497,
          "duration": 0.0010964895833325272
        },
        {
          "name": "E7",
          "midi": 100,
          "time": 117.49982375000016,
          "velocity": 0.7874015748031497,
          "duration": 0.0010964895833325272
        },
        {
          "name": "E5",
          "midi": 76,
          "time": 117.63030601041683,
          "velocity": 0.7874015748031497,
          "duration": 0.0010964895833325272
        },
        {
          "name": "E6",
          "midi": 88,
          "time": 117.63030601041683,
          "velocity": 0.7874015748031497,
          "duration": 0.0010964895833325272
        },
        {
          "name": "C7",
          "midi": 96,
          "time": 117.63030601041683,
          "velocity": 0.7874015748031497,
          "duration": 0.0010964895833325272
        },
        {
          "name": "E7",
          "midi": 100,
          "time": 117.63030601041683,
          "velocity": 0.7874015748031497,
          "duration": 0.0010964895833325272
        },
        {
          "name": "C4",
          "midi": 60,
          "time": 117.89456000000017,
          "velocity": 0.7874015748031497,
          "duration": 0.0010964895833325272
        },
        {
          "name": "C5",
          "midi": 72,
          "time": 117.89456000000017,
          "velocity": 0.7874015748031497,
          "duration": 0.0010964895833325272
        },
        {
          "name": "E5",
          "midi": 76,
          "time": 117.89456000000017,
          "velocity": 0.7874015748031497,
          "duration": 0.0010964895833325272
        },
        {
          "name": "C6",
          "midi": 84,
          "time": 117.89456000000017,
          "velocity": 0.7874015748031497,
          "duration": 0.0010964895833325272
        },
        {
          "name": "E6",
          "midi": 88,
          "time": 117.89456000000017,
          "velocity": 0.7874015748031497,
          "duration": 0.0010964895833325272
        },
        {
          "name": "C7",
          "midi": 96,
          "time": 117.89456000000017,
          "velocity": 0.7874015748031497,
          "duration": 0.0010964895833325272
        },
        {
          "name": "E7",
          "midi": 100,
          "time": 117.89456000000017,
          "velocity": 0.7874015748031497,
          "duration": 0.0010964895833325272
        },
        {
          "name": "E5",
          "midi": 76,
          "time": 118.15662101041684,
          "velocity": 0.7874015748031497,
          "duration": 0.0010964895833325272
        },
        {
          "name": "E6",
          "midi": 88,
          "time": 118.15662101041684,
          "velocity": 0.7874015748031497,
          "duration": 0.0010964895833325272
        },
        {
          "name": "C7",
          "midi": 96,
          "time": 118.15662101041684,
          "velocity": 0.7874015748031497,
          "duration": 0.0010964895833325272
        },
        {
          "name": "E7",
          "midi": 100,
          "time": 118.15662101041684,
          "velocity": 0.7874015748031497,
          "duration": 0.0010964895833325272
        },
        {
          "name": "E6",
          "midi": 88,
          "time": 118.28929625000018,
          "velocity": 0.7874015748031497,
          "duration": 0.0010964895833325272
        },
        {
          "name": "C7",
          "midi": 96,
          "time": 118.28929625000018,
          "velocity": 0.7874015748031497,
          "duration": 0.0010964895833325272
        },
        {
          "name": "E7",
          "midi": 100,
          "time": 118.28929625000018,
          "velocity": 0.7874015748031497,
          "duration": 0.0010964895833325272
        },
        {
          "name": "C#4",
          "midi": 61,
          "time": 118.42087500000018,
          "velocity": 0.7874015748031497,
          "duration": 0.0010964895833325272
        },
        {
          "name": "C#5",
          "midi": 73,
          "time": 118.42087500000018,
          "velocity": 0.7874015748031497,
          "duration": 0.0010964895833325272
        },
        {
          "name": "C#6",
          "midi": 85,
          "time": 118.42087500000018,
          "velocity": 0.7874015748031497,
          "duration": 0.0010964895833325272
        },
        {
          "name": "C#7",
          "midi": 97,
          "time": 118.42087500000018,
          "velocity": 0.7874015748031497,
          "duration": 0.0010964895833325272
        },
        {
          "name": "E5",
          "midi": 76,
          "time": 118.68403250000019,
          "velocity": 0.7874015748031497,
          "duration": 0.0010964895833325272
        },
        {
          "name": "C6",
          "midi": 84,
          "time": 118.68403250000019,
          "velocity": 0.7874015748031497,
          "duration": 0.0010964895833325272
        },
        {
          "name": "E6",
          "midi": 88,
          "time": 118.68403250000019,
          "velocity": 0.7874015748031497,
          "duration": 0.0010964895833325272
        },
        {
          "name": "C7",
          "midi": 96,
          "time": 118.68403250000019,
          "velocity": 0.7874015748031497,
          "duration": 0.0010964895833325272
        },
        {
          "name": "E7",
          "midi": 100,
          "time": 118.68403250000019,
          "velocity": 0.7874015748031497,
          "duration": 0.0010964895833325272
        },
        {
          "name": "E4",
          "midi": 64,
          "time": 118.94719000000019,
          "velocity": 0.7874015748031497,
          "duration": 0.0010964895833325272
        },
        {
          "name": "E5",
          "midi": 76,
          "time": 118.94719000000019,
          "velocity": 0.7874015748031497,
          "duration": 0.0010964895833325272
        },
        {
          "name": "E6",
          "midi": 88,
          "time": 118.94719000000019,
          "velocity": 0.7874015748031497,
          "duration": 0.0010964895833325272
        },
        {
          "name": "E7",
          "midi": 100,
          "time": 118.94719000000019,
          "velocity": 0.7874015748031497,
          "duration": 0.0010964895833325272
        },
        {
          "name": "E5",
          "midi": 76,
          "time": 119.2103475000002,
          "velocity": 0.7874015748031497,
          "duration": 0.0010964895833325272
        },
        {
          "name": "E6",
          "midi": 88,
          "time": 119.2103475000002,
          "velocity": 0.7874015748031497,
          "duration": 0.0010964895833325272
        },
        {
          "name": "C7",
          "midi": 96,
          "time": 119.2103475000002,
          "velocity": 0.7874015748031497,
          "duration": 0.0010964895833325272
        },
        {
          "name": "E7",
          "midi": 100,
          "time": 119.2103475000002,
          "velocity": 0.7874015748031497,
          "duration": 0.0010964895833325272
        },
        {
          "name": "E6",
          "midi": 88,
          "time": 119.3419262500002,
          "velocity": 0.7874015748031497,
          "duration": 0.0010964895833325272
        },
        {
          "name": "C7",
          "midi": 96,
          "time": 119.3419262500002,
          "velocity": 0.7874015748031497,
          "duration": 0.0010964895833325272
        },
        {
          "name": "E7",
          "midi": 100,
          "time": 119.3419262500002,
          "velocity": 0.7874015748031497,
          "duration": 0.0010964895833325272
        },
        {
          "name": "C#4",
          "midi": 61,
          "time": 119.4735050000002,
          "velocity": 0.7874015748031497,
          "duration": 0.0010964895833325272
        },
        {
          "name": "C#5",
          "midi": 73,
          "time": 119.4735050000002,
          "velocity": 0.7874015748031497,
          "duration": 0.0010964895833325272
        },
        {
          "name": "C#6",
          "midi": 85,
          "time": 119.4735050000002,
          "velocity": 0.7874015748031497,
          "duration": 0.0010964895833325272
        },
        {
          "name": "C#7",
          "midi": 97,
          "time": 119.4735050000002,
          "velocity": 0.7874015748031497,
          "duration": 0.0010964895833325272
        },
        {
          "name": "E7",
          "midi": 100,
          "time": 119.6050837500002,
          "velocity": 0.7874015748031497,
          "duration": 0.0010964895833325272
        },
        {
          "name": "E5",
          "midi": 76,
          "time": 119.73666250000021,
          "velocity": 0.7874015748031497,
          "duration": 0.0010964895833325272
        },
        {
          "name": "E6",
          "midi": 88,
          "time": 119.73666250000021,
          "velocity": 0.7874015748031497,
          "duration": 0.0010964895833325272
        },
        {
          "name": "C7",
          "midi": 96,
          "time": 119.73666250000021,
          "velocity": 0.7874015748031497,
          "duration": 0.0010964895833325272
        },
        {
          "name": "E7",
          "midi": 100,
          "time": 119.73666250000021,
          "velocity": 0.7874015748031497,
          "duration": 0.0010964895833325272
        },
        {
          "name": "E4",
          "midi": 64,
          "time": 119.99982000000021,
          "velocity": 0.7874015748031497,
          "duration": 0.0010964895833325272
        },
        {
          "name": "C5",
          "midi": 72,
          "time": 119.99982000000021,
          "velocity": 0.7874015748031497,
          "duration": 0.0010964895833325272
        },
        {
          "name": "E5",
          "midi": 76,
          "time": 119.99982000000021,
          "velocity": 0.7874015748031497,
          "duration": 0.0010964895833325272
        },
        {
          "name": "C6",
          "midi": 84,
          "time": 119.99982000000021,
          "velocity": 0.7874015748031497,
          "duration": 0.0010964895833325272
        },
        {
          "name": "E6",
          "midi": 88,
          "time": 119.99982000000021,
          "velocity": 0.7874015748031497,
          "duration": 0.0010964895833325272
        },
        {
          "name": "C7",
          "midi": 96,
          "time": 119.99982000000021,
          "velocity": 0.7874015748031497,
          "duration": 0.0010964895833325272
        },
        {
          "name": "E7",
          "midi": 100,
          "time": 119.99982000000021,
          "velocity": 0.7874015748031497,
          "duration": 0.0010964895833325272
        },
        {
          "name": "E5",
          "midi": 76,
          "time": 120.26407398958355,
          "velocity": 0.7874015748031497,
          "duration": 0.0010964895833325272
        },
        {
          "name": "E6",
          "midi": 88,
          "time": 120.26407398958355,
          "velocity": 0.7874015748031497,
          "duration": 0.0010964895833325272
        },
        {
          "name": "C7",
          "midi": 96,
          "time": 120.26407398958355,
          "velocity": 0.7874015748031497,
          "duration": 0.0010964895833325272
        },
        {
          "name": "E7",
          "midi": 100,
          "time": 120.26407398958355,
          "velocity": 0.7874015748031497,
          "duration": 0.0010964895833325272
        },
        {
          "name": "E6",
          "midi": 88,
          "time": 120.39455625000022,
          "velocity": 0.7874015748031497,
          "duration": 0.0010964895833325272
        },
        {
          "name": "C7",
          "midi": 96,
          "time": 120.39455625000022,
          "velocity": 0.7874015748031497,
          "duration": 0.0010964895833325272
        },
        {
          "name": "E7",
          "midi": 100,
          "time": 120.39455625000022,
          "velocity": 0.7874015748031497,
          "duration": 0.0010964895833325272
        },
        {
          "name": "C#4",
          "midi": 61,
          "time": 120.52613500000022,
          "velocity": 0.7874015748031497,
          "duration": 0.0010964895833325272
        },
        {
          "name": "C#5",
          "midi": 73,
          "time": 120.52613500000022,
          "velocity": 0.7874015748031497,
          "duration": 0.0010964895833325272
        },
        {
          "name": "C#6",
          "midi": 85,
          "time": 120.52613500000022,
          "velocity": 0.7874015748031497,
          "duration": 0.0010964895833325272
        },
        {
          "name": "C#7",
          "midi": 97,
          "time": 120.52613500000022,
          "velocity": 0.7874015748031497,
          "duration": 0.0010964895833325272
        },
        {
          "name": "E5",
          "midi": 76,
          "time": 120.78929250000023,
          "velocity": 0.7874015748031497,
          "duration": 0.0010964895833325272
        },
        {
          "name": "C6",
          "midi": 84,
          "time": 120.78929250000023,
          "velocity": 0.7874015748031497,
          "duration": 0.0010964895833325272
        },
        {
          "name": "E6",
          "midi": 88,
          "time": 120.78929250000023,
          "velocity": 0.7874015748031497,
          "duration": 0.0010964895833325272
        },
        {
          "name": "C7",
          "midi": 96,
          "time": 120.78929250000023,
          "velocity": 0.7874015748031497,
          "duration": 0.0010964895833325272
        },
        {
          "name": "E7",
          "midi": 100,
          "time": 120.78929250000023,
          "velocity": 0.7874015748031497,
          "duration": 0.0010964895833325272
        },
        {
          "name": "C#4",
          "midi": 61,
          "time": 121.05245000000023,
          "velocity": 0.7874015748031497,
          "duration": 0.0010964895833325272
        },
        {
          "name": "C#5",
          "midi": 73,
          "time": 121.05245000000023,
          "velocity": 0.7874015748031497,
          "duration": 0.0010964895833325272
        },
        {
          "name": "C#6",
          "midi": 85,
          "time": 121.05245000000023,
          "velocity": 0.7874015748031497,
          "duration": 0.0010964895833325272
        },
        {
          "name": "C#7",
          "midi": 97,
          "time": 121.05245000000023,
          "velocity": 0.7874015748031497,
          "duration": 0.0010964895833325272
        },
        {
          "name": "C#7",
          "midi": 97,
          "time": 121.1829322604169,
          "velocity": 0.7874015748031497,
          "duration": 0.0010964895833325272
        },
        {
          "name": "C#6",
          "midi": 85,
          "time": 121.31560750000024,
          "velocity": 0.7874015748031497,
          "duration": 0.0010964895833325272
        },
        {
          "name": "C#7",
          "midi": 97,
          "time": 121.31560750000024,
          "velocity": 0.7874015748031497,
          "duration": 0.0010964895833325272
        },
        {
          "name": "D5",
          "midi": 74,
          "time": 121.44608976041691,
          "velocity": 0.7874015748031497,
          "duration": 0.0010964895833325272
        },
        {
          "name": "C6",
          "midi": 84,
          "time": 121.44608976041691,
          "velocity": 0.7874015748031497,
          "duration": 0.0010964895833325272
        },
        {
          "name": "D6",
          "midi": 86,
          "time": 121.44608976041691,
          "velocity": 0.7874015748031497,
          "duration": 0.0010964895833325272
        },
        {
          "name": "C7",
          "midi": 96,
          "time": 121.44608976041691,
          "velocity": 0.7874015748031497,
          "duration": 0.0010964895833325272
        },
        {
          "name": "D7",
          "midi": 98,
          "time": 121.44608976041691,
          "velocity": 0.7874015748031497,
          "duration": 0.0010964895833325272
        },
        {
          "name": "C#4",
          "midi": 61,
          "time": 121.57876500000025,
          "velocity": 0.7874015748031497,
          "duration": 0.0010964895833325272
        },
        {
          "name": "C#7",
          "midi": 97,
          "time": 121.57876500000025,
          "velocity": 0.7874015748031497,
          "duration": 0.0010964895833325272
        },
        {
          "name": "D5",
          "midi": 74,
          "time": 121.71034375000025,
          "velocity": 0.7874015748031497,
          "duration": 0.0010964895833325272
        },
        {
          "name": "C6",
          "midi": 84,
          "time": 121.71034375000025,
          "velocity": 0.7874015748031497,
          "duration": 0.0010964895833325272
        },
        {
          "name": "D6",
          "midi": 86,
          "time": 121.71034375000025,
          "velocity": 0.7874015748031497,
          "duration": 0.0010964895833325272
        },
        {
          "name": "C7",
          "midi": 96,
          "time": 121.71034375000025,
          "velocity": 0.7874015748031497,
          "duration": 0.0010964895833325272
        },
        {
          "name": "D7",
          "midi": 98,
          "time": 121.71034375000025,
          "velocity": 0.7874015748031497,
          "duration": 0.0010964895833325272
        },
        {
          "name": "C#7",
          "midi": 97,
          "time": 121.84082601041692,
          "velocity": 0.7874015748031497,
          "duration": 0.0010964895833325272
        },
        {
          "name": "C#5",
          "midi": 73,
          "time": 121.97350125000025,
          "velocity": 0.7874015748031497,
          "duration": 0.0010964895833325272
        },
        {
          "name": "C#6",
          "midi": 85,
          "time": 121.97350125000025,
          "velocity": 0.7874015748031497,
          "duration": 0.0010964895833325272
        },
        {
          "name": "C#7",
          "midi": 97,
          "time": 121.97350125000025,
          "velocity": 0.7874015748031497,
          "duration": 0.0010964895833325272
        },
        {
          "name": "D4",
          "midi": 62,
          "time": 122.10508000000026,
          "velocity": 0.7874015748031497,
          "duration": 0.0010964895833325272
        },
        {
          "name": "C5",
          "midi": 72,
          "time": 122.10508000000026,
          "velocity": 0.7874015748031497,
          "duration": 0.0010964895833325272
        },
        {
          "name": "D5",
          "midi": 74,
          "time": 122.10508000000026,
          "velocity": 0.7874015748031497,
          "duration": 0.0010964895833325272
        },
        {
          "name": "C6",
          "midi": 84,
          "time": 122.10508000000026,
          "velocity": 0.7874015748031497,
          "duration": 0.0010964895833325272
        },
        {
          "name": "D6",
          "midi": 86,
          "time": 122.10508000000026,
          "velocity": 0.7874015748031497,
          "duration": 0.0010964895833325272
        },
        {
          "name": "C7",
          "midi": 96,
          "time": 122.10508000000026,
          "velocity": 0.7874015748031497,
          "duration": 0.0010964895833325272
        },
        {
          "name": "D7",
          "midi": 98,
          "time": 122.10508000000026,
          "velocity": 0.7874015748031497,
          "duration": 0.0010964895833325272
        },
        {
          "name": "C#4",
          "midi": 61,
          "time": 122.63139500000025,
          "velocity": 0.7874015748031497,
          "duration": 0.0010964895833325272
        },
        {
          "name": "C#5",
          "midi": 73,
          "time": 122.63139500000025,
          "velocity": 0.7874015748031497,
          "duration": 0.0010964895833325272
        },
        {
          "name": "C#6",
          "midi": 85,
          "time": 122.63139500000025,
          "velocity": 0.7874015748031497,
          "duration": 0.0010964895833325272
        },
        {
          "name": "C#7",
          "midi": 97,
          "time": 122.63139500000025,
          "velocity": 0.7874015748031497,
          "duration": 0.0010964895833325272
        },
        {
          "name": "E5",
          "midi": 76,
          "time": 122.89345601041691,
          "velocity": 0.7874015748031497,
          "duration": 0.0010964895833325272
        },
        {
          "name": "C6",
          "midi": 84,
          "time": 122.89345601041691,
          "velocity": 0.7874015748031497,
          "duration": 0.0010964895833325272
        },
        {
          "name": "E6",
          "midi": 88,
          "time": 122.89345601041691,
          "velocity": 0.7874015748031497,
          "duration": 0.0010964895833325272
        },
        {
          "name": "C7",
          "midi": 96,
          "time": 122.89345601041691,
          "velocity": 0.7874015748031497,
          "duration": 0.0010964895833325272
        },
        {
          "name": "E7",
          "midi": 100,
          "time": 122.89345601041691,
          "velocity": 0.7874015748031497,
          "duration": 0.0010964895833325272
        },
        {
          "name": "E4",
          "midi": 64,
          "time": 123.15771000000025,
          "velocity": 0.7874015748031497,
          "duration": 0.0010964895833325272
        },
        {
          "name": "E5",
          "midi": 76,
          "time": 123.15771000000025,
          "velocity": 0.7874015748031497,
          "duration": 0.0010964895833325272
        },
        {
          "name": "E6",
          "midi": 88,
          "time": 123.15771000000025,
          "velocity": 0.7874015748031497,
          "duration": 0.0010964895833325272
        },
        {
          "name": "E7",
          "midi": 100,
          "time": 123.15771000000025,
          "velocity": 0.7874015748031497,
          "duration": 0.0010964895833325272
        },
        {
          "name": "E5",
          "midi": 76,
          "time": 123.42196398958359,
          "velocity": 0.7874015748031497,
          "duration": 0.0010964895833325272
        },
        {
          "name": "E6",
          "midi": 88,
          "time": 123.42196398958359,
          "velocity": 0.7874015748031497,
          "duration": 0.0010964895833325272
        },
        {
          "name": "C7",
          "midi": 96,
          "time": 123.42196398958359,
          "velocity": 0.7874015748031497,
          "duration": 0.0010964895833325272
        },
        {
          "name": "E7",
          "midi": 100,
          "time": 123.42196398958359,
          "velocity": 0.7874015748031497,
          "duration": 0.0010964895833325272
        },
        {
          "name": "E6",
          "midi": 88,
          "time": 123.55244625000026,
          "velocity": 0.7874015748031497,
          "duration": 0.0010964895833325272
        },
        {
          "name": "C7",
          "midi": 96,
          "time": 123.55244625000026,
          "velocity": 0.7874015748031497,
          "duration": 0.0010964895833325272
        },
        {
          "name": "E7",
          "midi": 100,
          "time": 123.55244625000026,
          "velocity": 0.7874015748031497,
          "duration": 0.0010964895833325272
        },
        {
          "name": "C#4",
          "midi": 61,
          "time": 123.68402500000026,
          "velocity": 0.7874015748031497,
          "duration": 0.0010964895833325272
        },
        {
          "name": "C#5",
          "midi": 73,
          "time": 123.68402500000026,
          "velocity": 0.7874015748031497,
          "duration": 0.0010964895833325272
        },
        {
          "name": "C#6",
          "midi": 85,
          "time": 123.68402500000026,
          "velocity": 0.7874015748031497,
          "duration": 0.0010964895833325272
        },
        {
          "name": "C#7",
          "midi": 97,
          "time": 123.68402500000026,
          "velocity": 0.7874015748031497,
          "duration": 0.0010964895833325272
        },
        {
          "name": "E7",
          "midi": 100,
          "time": 123.81560375000026,
          "velocity": 0.7874015748031497,
          "duration": 0.0010964895833325272
        },
        {
          "name": "E5",
          "midi": 76,
          "time": 123.9482789895836,
          "velocity": 0.7874015748031497,
          "duration": 0.0010964895833325272
        },
        {
          "name": "E6",
          "midi": 88,
          "time": 123.9482789895836,
          "velocity": 0.7874015748031497,
          "duration": 0.0010964895833325272
        },
        {
          "name": "C7",
          "midi": 96,
          "time": 123.9482789895836,
          "velocity": 0.7874015748031497,
          "duration": 0.0010964895833325272
        },
        {
          "name": "E7",
          "midi": 100,
          "time": 123.9482789895836,
          "velocity": 0.7874015748031497,
          "duration": 0.0010964895833325272
        },
        {
          "name": "E4",
          "midi": 64,
          "time": 124.21034000000026,
          "velocity": 0.7874015748031497,
          "duration": 0.0010964895833325272
        },
        {
          "name": "C5",
          "midi": 72,
          "time": 124.21034000000026,
          "velocity": 0.7874015748031497,
          "duration": 0.0010964895833325272
        },
        {
          "name": "E5",
          "midi": 76,
          "time": 124.21034000000026,
          "velocity": 0.7874015748031497,
          "duration": 0.0010964895833325272
        },
        {
          "name": "C6",
          "midi": 84,
          "time": 124.21034000000026,
          "velocity": 0.7874015748031497,
          "duration": 0.0010964895833325272
        },
        {
          "name": "E6",
          "midi": 88,
          "time": 124.21034000000026,
          "velocity": 0.7874015748031497,
          "duration": 0.0010964895833325272
        },
        {
          "name": "C7",
          "midi": 96,
          "time": 124.21034000000026,
          "velocity": 0.7874015748031497,
          "duration": 0.0010964895833325272
        },
        {
          "name": "E7",
          "midi": 100,
          "time": 124.21034000000026,
          "velocity": 0.7874015748031497,
          "duration": 0.0010964895833325272
        },
        {
          "name": "E5",
          "midi": 76,
          "time": 124.47240101041692,
          "velocity": 0.7874015748031497,
          "duration": 0.0010964895833325272
        },
        {
          "name": "E6",
          "midi": 88,
          "time": 124.47240101041692,
          "velocity": 0.7874015748031497,
          "duration": 0.0010964895833325272
        },
        {
          "name": "C7",
          "midi": 96,
          "time": 124.47240101041692,
          "velocity": 0.7874015748031497,
          "duration": 0.0010964895833325272
        },
        {
          "name": "E7",
          "midi": 100,
          "time": 124.47240101041692,
          "velocity": 0.7874015748031497,
          "duration": 0.0010964895833325272
        },
        {
          "name": "E6",
          "midi": 88,
          "time": 124.60507625000025,
          "velocity": 0.7874015748031497,
          "duration": 0.0010964895833325272
        },
        {
          "name": "C7",
          "midi": 96,
          "time": 124.60507625000025,
          "velocity": 0.7874015748031497,
          "duration": 0.0010964895833325272
        },
        {
          "name": "E7",
          "midi": 100,
          "time": 124.60507625000025,
          "velocity": 0.7874015748031497,
          "duration": 0.0010964895833325272
        },
        {
          "name": "C#4",
          "midi": 61,
          "time": 124.73665500000025,
          "velocity": 0.7874015748031497,
          "duration": 0.0010964895833325272
        },
        {
          "name": "C#5",
          "midi": 73,
          "time": 124.73665500000025,
          "velocity": 0.7874015748031497,
          "duration": 0.0010964895833325272
        },
        {
          "name": "C#6",
          "midi": 85,
          "time": 124.73665500000025,
          "velocity": 0.7874015748031497,
          "duration": 0.0010964895833325272
        },
        {
          "name": "C#7",
          "midi": 97,
          "time": 124.73665500000025,
          "velocity": 0.7874015748031497,
          "duration": 0.0010964895833325272
        },
        {
          "name": "E5",
          "midi": 76,
          "time": 124.99981250000026,
          "velocity": 0.7874015748031497,
          "duration": 0.0010964895833325272
        },
        {
          "name": "C6",
          "midi": 84,
          "time": 124.99981250000026,
          "velocity": 0.7874015748031497,
          "duration": 0.0010964895833325272
        },
        {
          "name": "E6",
          "midi": 88,
          "time": 124.99981250000026,
          "velocity": 0.7874015748031497,
          "duration": 0.0010964895833325272
        },
        {
          "name": "C7",
          "midi": 96,
          "time": 124.99981250000026,
          "velocity": 0.7874015748031497,
          "duration": 0.0010964895833325272
        },
        {
          "name": "E7",
          "midi": 100,
          "time": 124.99981250000026,
          "velocity": 0.7874015748031497,
          "duration": 0.0010964895833325272
        },
        {
          "name": "E4",
          "midi": 64,
          "time": 125.26297000000027,
          "velocity": 0.7874015748031497,
          "duration": 0.0010964895833325272
        },
        {
          "name": "E5",
          "midi": 76,
          "time": 125.26297000000027,
          "velocity": 0.7874015748031497,
          "duration": 0.0010964895833325272
        },
        {
          "name": "E6",
          "midi": 88,
          "time": 125.26297000000027,
          "velocity": 0.7874015748031497,
          "duration": 0.0010964895833325272
        },
        {
          "name": "E7",
          "midi": 100,
          "time": 125.26297000000027,
          "velocity": 0.7874015748031497,
          "duration": 0.0010964895833325272
        },
        {
          "name": "E5",
          "midi": 76,
          "time": 125.52612750000027,
          "velocity": 0.7874015748031497,
          "duration": 0.0010964895833325272
        },
        {
          "name": "E6",
          "midi": 88,
          "time": 125.52612750000027,
          "velocity": 0.7874015748031497,
          "duration": 0.0010964895833325272
        },
        {
          "name": "C7",
          "midi": 96,
          "time": 125.52612750000027,
          "velocity": 0.7874015748031497,
          "duration": 0.0010964895833325272
        },
        {
          "name": "E7",
          "midi": 100,
          "time": 125.52612750000027,
          "velocity": 0.7874015748031497,
          "duration": 0.0010964895833325272
        },
        {
          "name": "E6",
          "midi": 88,
          "time": 125.65660976041694,
          "velocity": 0.7874015748031497,
          "duration": 0.0010964895833325272
        },
        {
          "name": "C7",
          "midi": 96,
          "time": 125.65660976041694,
          "velocity": 0.7874015748031497,
          "duration": 0.0010964895833325272
        },
        {
          "name": "E7",
          "midi": 100,
          "time": 125.65660976041694,
          "velocity": 0.7874015748031497,
          "duration": 0.0010964895833325272
        },
        {
          "name": "C#4",
          "midi": 61,
          "time": 125.78928500000028,
          "velocity": 0.7874015748031497,
          "duration": 0.0010964895833325272
        },
        {
          "name": "C#5",
          "midi": 73,
          "time": 125.78928500000028,
          "velocity": 0.7874015748031497,
          "duration": 0.0010964895833325272
        },
        {
          "name": "C#6",
          "midi": 85,
          "time": 125.78928500000028,
          "velocity": 0.7874015748031497,
          "duration": 0.0010964895833325272
        },
        {
          "name": "C#7",
          "midi": 97,
          "time": 125.78928500000028,
          "velocity": 0.7874015748031497,
          "duration": 0.0010964895833325272
        },
        {
          "name": "E7",
          "midi": 100,
          "time": 125.92086375000028,
          "velocity": 0.7874015748031497,
          "duration": 0.0010964895833325272
        },
        {
          "name": "E5",
          "midi": 76,
          "time": 126.05353898958361,
          "velocity": 0.7874015748031497,
          "duration": 0.0010964895833325272
        },
        {
          "name": "E6",
          "midi": 88,
          "time": 126.05353898958361,
          "velocity": 0.7874015748031497,
          "duration": 0.0010964895833325272
        },
        {
          "name": "C7",
          "midi": 96,
          "time": 126.05353898958361,
          "velocity": 0.7874015748031497,
          "duration": 0.0010964895833325272
        },
        {
          "name": "E7",
          "midi": 100,
          "time": 126.05353898958361,
          "velocity": 0.7874015748031497,
          "duration": 0.0010964895833325272
        },
        {
          "name": "C4",
          "midi": 60,
          "time": 126.31560000000027,
          "velocity": 0.7874015748031497,
          "duration": 0.0010964895833325272
        },
        {
          "name": "C5",
          "midi": 72,
          "time": 126.31560000000027,
          "velocity": 0.7874015748031497,
          "duration": 0.0010964895833325272
        },
        {
          "name": "E5",
          "midi": 76,
          "time": 126.31560000000027,
          "velocity": 0.7874015748031497,
          "duration": 0.0010964895833325272
        },
        {
          "name": "C6",
          "midi": 84,
          "time": 126.31560000000027,
          "velocity": 0.7874015748031497,
          "duration": 0.0010964895833325272
        },
        {
          "name": "E6",
          "midi": 88,
          "time": 126.31560000000027,
          "velocity": 0.7874015748031497,
          "duration": 0.0010964895833325272
        },
        {
          "name": "C7",
          "midi": 96,
          "time": 126.31560000000027,
          "velocity": 0.7874015748031497,
          "duration": 0.0010964895833325272
        },
        {
          "name": "E7",
          "midi": 100,
          "time": 126.31560000000027,
          "velocity": 0.7874015748031497,
          "duration": 0.0010964895833325272
        },
        {
          "name": "E5",
          "midi": 76,
          "time": 126.57875750000028,
          "velocity": 0.7874015748031497,
          "duration": 0.0010964895833325272
        },
        {
          "name": "E6",
          "midi": 88,
          "time": 126.57875750000028,
          "velocity": 0.7874015748031497,
          "duration": 0.0010964895833325272
        },
        {
          "name": "C7",
          "midi": 96,
          "time": 126.57875750000028,
          "velocity": 0.7874015748031497,
          "duration": 0.0010964895833325272
        },
        {
          "name": "E7",
          "midi": 100,
          "time": 126.57875750000028,
          "velocity": 0.7874015748031497,
          "duration": 0.0010964895833325272
        },
        {
          "name": "E6",
          "midi": 88,
          "time": 126.71143273958361,
          "velocity": 0.7874015748031497,
          "duration": 0.0010964895833325272
        },
        {
          "name": "C7",
          "midi": 96,
          "time": 126.71143273958361,
          "velocity": 0.7874015748031497,
          "duration": 0.0010964895833325272
        },
        {
          "name": "E7",
          "midi": 100,
          "time": 126.71143273958361,
          "velocity": 0.7874015748031497,
          "duration": 0.0010964895833325272
        },
        {
          "name": "C#4",
          "midi": 61,
          "time": 126.84191500000028,
          "velocity": 0.7874015748031497,
          "duration": 0.0010964895833325272
        },
        {
          "name": "C#5",
          "midi": 73,
          "time": 126.84191500000028,
          "velocity": 0.7874015748031497,
          "duration": 0.0010964895833325272
        },
        {
          "name": "C#6",
          "midi": 85,
          "time": 126.84191500000028,
          "velocity": 0.7874015748031497,
          "duration": 0.0010964895833325272
        },
        {
          "name": "C#7",
          "midi": 97,
          "time": 126.84191500000028,
          "velocity": 0.7874015748031497,
          "duration": 0.0010964895833325272
        },
        {
          "name": "E5",
          "midi": 76,
          "time": 127.10507250000029,
          "velocity": 0.7874015748031497,
          "duration": 0.0010964895833325272
        },
        {
          "name": "C6",
          "midi": 84,
          "time": 127.10507250000029,
          "velocity": 0.7874015748031497,
          "duration": 0.0010964895833325272
        },
        {
          "name": "E6",
          "midi": 88,
          "time": 127.10507250000029,
          "velocity": 0.7874015748031497,
          "duration": 0.0010964895833325272
        },
        {
          "name": "C7",
          "midi": 96,
          "time": 127.10507250000029,
          "velocity": 0.7874015748031497,
          "duration": 0.0010964895833325272
        },
        {
          "name": "E7",
          "midi": 100,
          "time": 127.10507250000029,
          "velocity": 0.7874015748031497,
          "duration": 0.0010964895833325272
        },
        {
          "name": "E4",
          "midi": 64,
          "time": 127.3682300000003,
          "velocity": 0.7874015748031497,
          "duration": 0.0010964895833325272
        },
        {
          "name": "E5",
          "midi": 76,
          "time": 127.3682300000003,
          "velocity": 0.7874015748031497,
          "duration": 0.0010964895833325272
        },
        {
          "name": "E6",
          "midi": 88,
          "time": 127.3682300000003,
          "velocity": 0.7874015748031497,
          "duration": 0.0010964895833325272
        },
        {
          "name": "E7",
          "midi": 100,
          "time": 127.3682300000003,
          "velocity": 0.7874015748031497,
          "duration": 0.0010964895833325272
        },
        {
          "name": "E5",
          "midi": 76,
          "time": 127.6313875000003,
          "velocity": 0.7874015748031497,
          "duration": 0.0010964895833325272
        },
        {
          "name": "E6",
          "midi": 88,
          "time": 127.6313875000003,
          "velocity": 0.7874015748031497,
          "duration": 0.0010964895833325272
        },
        {
          "name": "C7",
          "midi": 96,
          "time": 127.6313875000003,
          "velocity": 0.7874015748031497,
          "duration": 0.0010964895833325272
        },
        {
          "name": "E7",
          "midi": 100,
          "time": 127.6313875000003,
          "velocity": 0.7874015748031497,
          "duration": 0.0010964895833325272
        },
        {
          "name": "E6",
          "midi": 88,
          "time": 127.76186976041697,
          "velocity": 0.7874015748031497,
          "duration": 0.0010964895833325272
        },
        {
          "name": "C7",
          "midi": 96,
          "time": 127.76186976041697,
          "velocity": 0.7874015748031497,
          "duration": 0.0010964895833325272
        },
        {
          "name": "E7",
          "midi": 100,
          "time": 127.76186976041697,
          "velocity": 0.7874015748031497,
          "duration": 0.0010964895833325272
        },
        {
          "name": "C#4",
          "midi": 61,
          "time": 127.8945450000003,
          "velocity": 0.7874015748031497,
          "duration": 0.0010964895833325272
        },
        {
          "name": "C#5",
          "midi": 73,
          "time": 127.8945450000003,
          "velocity": 0.7874015748031497,
          "duration": 0.0010964895833325272
        },
        {
          "name": "C#6",
          "midi": 85,
          "time": 127.8945450000003,
          "velocity": 0.7874015748031497,
          "duration": 0.0010964895833325272
        },
        {
          "name": "C#7",
          "midi": 97,
          "time": 127.8945450000003,
          "velocity": 0.7874015748031497,
          "duration": 0.0010964895833325272
        },
        {
          "name": "E7",
          "midi": 100,
          "time": 128.02502726041698,
          "velocity": 0.7874015748031497,
          "duration": 0.001096489583346738
        },
        {
          "name": "E5",
          "midi": 76,
          "time": 128.156606010417,
          "velocity": 0.7874015748031497,
          "duration": 0.001096489583346738
        },
        {
          "name": "E6",
          "midi": 88,
          "time": 128.156606010417,
          "velocity": 0.7874015748031497,
          "duration": 0.001096489583346738
        },
        {
          "name": "C7",
          "midi": 96,
          "time": 128.156606010417,
          "velocity": 0.7874015748031497,
          "duration": 0.001096489583346738
        },
        {
          "name": "E7",
          "midi": 100,
          "time": 128.156606010417,
          "velocity": 0.7874015748031497,
          "duration": 0.001096489583346738
        },
        {
          "name": "E4",
          "midi": 64,
          "time": 128.42086000000035,
          "velocity": 0.7874015748031497,
          "duration": 0.001096489583346738
        },
        {
          "name": "C5",
          "midi": 72,
          "time": 128.42086000000035,
          "velocity": 0.7874015748031497,
          "duration": 0.001096489583346738
        },
        {
          "name": "E5",
          "midi": 76,
          "time": 128.42086000000035,
          "velocity": 0.7874015748031497,
          "duration": 0.001096489583346738
        },
        {
          "name": "C6",
          "midi": 84,
          "time": 128.42086000000035,
          "velocity": 0.7874015748031497,
          "duration": 0.001096489583346738
        },
        {
          "name": "E6",
          "midi": 88,
          "time": 128.42086000000035,
          "velocity": 0.7874015748031497,
          "duration": 0.001096489583346738
        },
        {
          "name": "C7",
          "midi": 96,
          "time": 128.42086000000035,
          "velocity": 0.7874015748031497,
          "duration": 0.001096489583346738
        },
        {
          "name": "E7",
          "midi": 100,
          "time": 128.42086000000035,
          "velocity": 0.7874015748031497,
          "duration": 0.001096489583346738
        },
        {
          "name": "E5",
          "midi": 76,
          "time": 128.68292101041703,
          "velocity": 0.7874015748031497,
          "duration": 0.001096489583346738
        },
        {
          "name": "E6",
          "midi": 88,
          "time": 128.68292101041703,
          "velocity": 0.7874015748031497,
          "duration": 0.001096489583346738
        },
        {
          "name": "C7",
          "midi": 96,
          "time": 128.68292101041703,
          "velocity": 0.7874015748031497,
          "duration": 0.001096489583346738
        },
        {
          "name": "E7",
          "midi": 100,
          "time": 128.68292101041703,
          "velocity": 0.7874015748031497,
          "duration": 0.001096489583346738
        },
        {
          "name": "E6",
          "midi": 88,
          "time": 128.81559625000037,
          "velocity": 0.7874015748031497,
          "duration": 0.001096489583346738
        },
        {
          "name": "C7",
          "midi": 96,
          "time": 128.81559625000037,
          "velocity": 0.7874015748031497,
          "duration": 0.001096489583346738
        },
        {
          "name": "E7",
          "midi": 100,
          "time": 128.81559625000037,
          "velocity": 0.7874015748031497,
          "duration": 0.001096489583346738
        },
        {
          "name": "C#4",
          "midi": 61,
          "time": 128.94717500000039,
          "velocity": 0.7874015748031497,
          "duration": 0.001096489583346738
        },
        {
          "name": "C#5",
          "midi": 73,
          "time": 128.94717500000039,
          "velocity": 0.7874015748031497,
          "duration": 0.001096489583346738
        },
        {
          "name": "C#6",
          "midi": 85,
          "time": 128.94717500000039,
          "velocity": 0.7874015748031497,
          "duration": 0.001096489583346738
        },
        {
          "name": "C#7",
          "midi": 97,
          "time": 128.94717500000039,
          "velocity": 0.7874015748031497,
          "duration": 0.001096489583346738
        },
        {
          "name": "E5",
          "midi": 76,
          "time": 129.2103325000004,
          "velocity": 0.7874015748031497,
          "duration": 0.001096489583346738
        },
        {
          "name": "C6",
          "midi": 84,
          "time": 129.2103325000004,
          "velocity": 0.7874015748031497,
          "duration": 0.001096489583346738
        },
        {
          "name": "E6",
          "midi": 88,
          "time": 129.2103325000004,
          "velocity": 0.7874015748031497,
          "duration": 0.001096489583346738
        },
        {
          "name": "C7",
          "midi": 96,
          "time": 129.2103325000004,
          "velocity": 0.7874015748031497,
          "duration": 0.001096489583346738
        },
        {
          "name": "E7",
          "midi": 100,
          "time": 129.2103325000004,
          "velocity": 0.7874015748031497,
          "duration": 0.001096489583346738
        },
        {
          "name": "E4",
          "midi": 64,
          "time": 129.4734900000004,
          "velocity": 0.7874015748031497,
          "duration": 0.001096489583346738
        },
        {
          "name": "E5",
          "midi": 76,
          "time": 129.4734900000004,
          "velocity": 0.7874015748031497,
          "duration": 0.001096489583346738
        },
        {
          "name": "E6",
          "midi": 88,
          "time": 129.4734900000004,
          "velocity": 0.7874015748031497,
          "duration": 0.001096489583346738
        },
        {
          "name": "E7",
          "midi": 100,
          "time": 129.4734900000004,
          "velocity": 0.7874015748031497,
          "duration": 0.001096489583346738
        },
        {
          "name": "E5",
          "midi": 76,
          "time": 129.73774398958375,
          "velocity": 0.7874015748031497,
          "duration": 0.001096489583346738
        },
        {
          "name": "E6",
          "midi": 88,
          "time": 129.73774398958375,
          "velocity": 0.7874015748031497,
          "duration": 0.001096489583346738
        },
        {
          "name": "E7",
          "midi": 100,
          "time": 129.73774398958375,
          "velocity": 0.7874015748031497,
          "duration": 0.001096489583346738
        },
        {
          "name": "B6",
          "midi": 95,
          "time": 129.8243666666671,
          "velocity": 0.7874015748031497,
          "duration": 0.001096489583346738
        },
        {
          "name": "C7",
          "midi": 96,
          "time": 129.9131823229171,
          "velocity": 0.7874015748031497,
          "duration": 0.001096489583346738
        },
        {
          "name": "C#5",
          "midi": 73,
          "time": 129.99980500000044,
          "velocity": 0.7874015748031497,
          "duration": 0.001096489583346738
        },
        {
          "name": "C#6",
          "midi": 85,
          "time": 129.99980500000044,
          "velocity": 0.7874015748031497,
          "duration": 0.001096489583346738
        },
        {
          "name": "C#7",
          "midi": 97,
          "time": 129.99980500000044,
          "velocity": 0.7874015748031497,
          "duration": 0.001096489583346738
        },
        {
          "name": "D4",
          "midi": 62,
          "time": 130.13248023958377,
          "velocity": 0.7874015748031497,
          "duration": 0.001096489583346738
        },
        {
          "name": "C5",
          "midi": 72,
          "time": 130.13248023958377,
          "velocity": 0.7874015748031497,
          "duration": 0.001096489583346738
        },
        {
          "name": "D5",
          "midi": 74,
          "time": 130.13248023958377,
          "velocity": 0.7874015748031497,
          "duration": 0.001096489583346738
        },
        {
          "name": "C6",
          "midi": 84,
          "time": 130.13248023958377,
          "velocity": 0.7874015748031497,
          "duration": 0.001096489583346738
        },
        {
          "name": "D6",
          "midi": 86,
          "time": 130.13248023958377,
          "velocity": 0.7874015748031497,
          "duration": 0.001096489583346738
        },
        {
          "name": "C7",
          "midi": 96,
          "time": 130.13248023958377,
          "velocity": 0.7874015748031497,
          "duration": 0.001096489583346738
        },
        {
          "name": "D7",
          "midi": 98,
          "time": 130.13248023958377,
          "velocity": 0.7874015748031497,
          "duration": 0.001096489583346738
        },
        {
          "name": "E4",
          "midi": 64,
          "time": 130.52612000000045,
          "velocity": 0.7874015748031497,
          "duration": 0.001096489583346738
        },
        {
          "name": "C5",
          "midi": 72,
          "time": 130.52612000000045,
          "velocity": 0.7874015748031497,
          "duration": 0.001096489583346738
        },
        {
          "name": "E5",
          "midi": 76,
          "time": 130.52612000000045,
          "velocity": 0.7874015748031497,
          "duration": 0.001096489583346738
        },
        {
          "name": "C6",
          "midi": 84,
          "time": 130.52612000000045,
          "velocity": 0.7874015748031497,
          "duration": 0.001096489583346738
        },
        {
          "name": "E6",
          "midi": 88,
          "time": 130.52612000000045,
          "velocity": 0.7874015748031497,
          "duration": 0.001096489583346738
        },
        {
          "name": "C7",
          "midi": 96,
          "time": 130.52612000000045,
          "velocity": 0.7874015748031497,
          "duration": 0.001096489583346738
        },
        {
          "name": "E7",
          "midi": 100,
          "time": 130.52612000000045,
          "velocity": 0.7874015748031497,
          "duration": 0.001096489583346738
        },
        {
          "name": "E5",
          "midi": 76,
          "time": 130.78927750000045,
          "velocity": 0.7874015748031497,
          "duration": 0.001096489583346738
        },
        {
          "name": "E6",
          "midi": 88,
          "time": 130.78927750000045,
          "velocity": 0.7874015748031497,
          "duration": 0.001096489583346738
        },
        {
          "name": "C7",
          "midi": 96,
          "time": 130.78927750000045,
          "velocity": 0.7874015748031497,
          "duration": 0.001096489583346738
        },
        {
          "name": "E7",
          "midi": 100,
          "time": 130.78927750000045,
          "velocity": 0.7874015748031497,
          "duration": 0.001096489583346738
        },
        {
          "name": "E6",
          "midi": 88,
          "time": 130.9219527395838,
          "velocity": 0.7874015748031497,
          "duration": 0.001096489583346738
        },
        {
          "name": "C7",
          "midi": 96,
          "time": 130.9219527395838,
          "velocity": 0.7874015748031497,
          "duration": 0.001096489583346738
        },
        {
          "name": "E7",
          "midi": 100,
          "time": 130.9219527395838,
          "velocity": 0.7874015748031497,
          "duration": 0.001096489583346738
        },
        {
          "name": "C#4",
          "midi": 61,
          "time": 131.05243500000046,
          "velocity": 0.7874015748031497,
          "duration": 0.001096489583346738
        },
        {
          "name": "C#5",
          "midi": 73,
          "time": 131.05243500000046,
          "velocity": 0.7874015748031497,
          "duration": 0.001096489583346738
        },
        {
          "name": "C#6",
          "midi": 85,
          "time": 131.05243500000046,
          "velocity": 0.7874015748031497,
          "duration": 0.001096489583346738
        },
        {
          "name": "C#7",
          "midi": 97,
          "time": 131.05243500000046,
          "velocity": 0.7874015748031497,
          "duration": 0.001096489583346738
        },
        {
          "name": "E5",
          "midi": 76,
          "time": 131.31559250000046,
          "velocity": 0.7874015748031497,
          "duration": 0.001096489583346738
        },
        {
          "name": "C6",
          "midi": 84,
          "time": 131.31559250000046,
          "velocity": 0.7874015748031497,
          "duration": 0.001096489583346738
        },
        {
          "name": "E6",
          "midi": 88,
          "time": 131.31559250000046,
          "velocity": 0.7874015748031497,
          "duration": 0.001096489583346738
        },
        {
          "name": "C7",
          "midi": 96,
          "time": 131.31559250000046,
          "velocity": 0.7874015748031497,
          "duration": 0.001096489583346738
        },
        {
          "name": "E7",
          "midi": 100,
          "time": 131.31559250000046,
          "velocity": 0.7874015748031497,
          "duration": 0.001096489583346738
        },
        {
          "name": "E4",
          "midi": 64,
          "time": 131.57875000000047,
          "velocity": 0.7874015748031497,
          "duration": 0.001096489583346738
        },
        {
          "name": "E5",
          "midi": 76,
          "time": 131.57875000000047,
          "velocity": 0.7874015748031497,
          "duration": 0.001096489583346738
        },
        {
          "name": "E6",
          "midi": 88,
          "time": 131.57875000000047,
          "velocity": 0.7874015748031497,
          "duration": 0.001096489583346738
        },
        {
          "name": "E7",
          "midi": 100,
          "time": 131.57875000000047,
          "velocity": 0.7874015748031497,
          "duration": 0.001096489583346738
        },
        {
          "name": "E5",
          "midi": 76,
          "time": 131.84190750000047,
          "velocity": 0.7874015748031497,
          "duration": 0.001096489583346738
        },
        {
          "name": "E6",
          "midi": 88,
          "time": 131.84190750000047,
          "velocity": 0.7874015748031497,
          "duration": 0.001096489583346738
        },
        {
          "name": "C7",
          "midi": 96,
          "time": 131.84190750000047,
          "velocity": 0.7874015748031497,
          "duration": 0.001096489583346738
        },
        {
          "name": "E7",
          "midi": 100,
          "time": 131.84190750000047,
          "velocity": 0.7874015748031497,
          "duration": 0.001096489583346738
        },
        {
          "name": "E6",
          "midi": 88,
          "time": 131.9734862500005,
          "velocity": 0.7874015748031497,
          "duration": 0.001096489583346738
        },
        {
          "name": "C7",
          "midi": 96,
          "time": 131.9734862500005,
          "velocity": 0.7874015748031497,
          "duration": 0.001096489583346738
        },
        {
          "name": "E7",
          "midi": 100,
          "time": 131.9734862500005,
          "velocity": 0.7874015748031497,
          "duration": 0.001096489583346738
        },
        {
          "name": "C#4",
          "midi": 61,
          "time": 132.1050650000005,
          "velocity": 0.7874015748031497,
          "duration": 0.001096489583346738
        },
        {
          "name": "C#5",
          "midi": 73,
          "time": 132.1050650000005,
          "velocity": 0.7874015748031497,
          "duration": 0.001096489583346738
        },
        {
          "name": "C#6",
          "midi": 85,
          "time": 132.1050650000005,
          "velocity": 0.7874015748031497,
          "duration": 0.001096489583346738
        },
        {
          "name": "C#7",
          "midi": 97,
          "time": 132.1050650000005,
          "velocity": 0.7874015748031497,
          "duration": 0.001096489583346738
        },
        {
          "name": "E7",
          "midi": 100,
          "time": 132.23554726041718,
          "velocity": 0.7874015748031497,
          "duration": 0.001096489583346738
        },
        {
          "name": "E5",
          "midi": 76,
          "time": 132.3682225000005,
          "velocity": 0.7874015748031497,
          "duration": 0.001096489583346738
        },
        {
          "name": "E6",
          "midi": 88,
          "time": 132.3682225000005,
          "velocity": 0.7874015748031497,
          "duration": 0.001096489583346738
        },
        {
          "name": "C7",
          "midi": 96,
          "time": 132.3682225000005,
          "velocity": 0.7874015748031497,
          "duration": 0.001096489583346738
        },
        {
          "name": "E7",
          "midi": 100,
          "time": 132.3682225000005,
          "velocity": 0.7874015748031497,
          "duration": 0.001096489583346738
        },
        {
          "name": "C4",
          "midi": 60,
          "time": 132.63138000000052,
          "velocity": 0.7874015748031497,
          "duration": 0.001096489583346738
        },
        {
          "name": "C5",
          "midi": 72,
          "time": 132.63138000000052,
          "velocity": 0.7874015748031497,
          "duration": 0.001096489583346738
        },
        {
          "name": "E5",
          "midi": 76,
          "time": 132.63138000000052,
          "velocity": 0.7874015748031497,
          "duration": 0.001096489583346738
        },
        {
          "name": "C6",
          "midi": 84,
          "time": 132.63138000000052,
          "velocity": 0.7874015748031497,
          "duration": 0.001096489583346738
        },
        {
          "name": "E6",
          "midi": 88,
          "time": 132.63138000000052,
          "velocity": 0.7874015748031497,
          "duration": 0.001096489583346738
        },
        {
          "name": "C7",
          "midi": 96,
          "time": 132.63138000000052,
          "velocity": 0.7874015748031497,
          "duration": 0.001096489583346738
        },
        {
          "name": "E7",
          "midi": 100,
          "time": 132.63138000000052,
          "velocity": 0.7874015748031497,
          "duration": 0.001096489583346738
        },
        {
          "name": "E5",
          "midi": 76,
          "time": 132.89453750000052,
          "velocity": 0.7874015748031497,
          "duration": 0.001096489583346738
        },
        {
          "name": "E6",
          "midi": 88,
          "time": 132.89453750000052,
          "velocity": 0.7874015748031497,
          "duration": 0.001096489583346738
        },
        {
          "name": "C7",
          "midi": 96,
          "time": 132.89453750000052,
          "velocity": 0.7874015748031497,
          "duration": 0.001096489583346738
        },
        {
          "name": "E7",
          "midi": 100,
          "time": 132.89453750000052,
          "velocity": 0.7874015748031497,
          "duration": 0.001096489583346738
        },
        {
          "name": "E6",
          "midi": 88,
          "time": 133.02611625000054,
          "velocity": 0.7874015748031497,
          "duration": 0.001096489583346738
        },
        {
          "name": "C7",
          "midi": 96,
          "time": 133.02611625000054,
          "velocity": 0.7874015748031497,
          "duration": 0.001096489583346738
        },
        {
          "name": "E7",
          "midi": 100,
          "time": 133.02611625000054,
          "velocity": 0.7874015748031497,
          "duration": 0.001096489583346738
        },
        {
          "name": "C#4",
          "midi": 61,
          "time": 133.15769500000056,
          "velocity": 0.7874015748031497,
          "duration": 0.001096489583346738
        },
        {
          "name": "C#5",
          "midi": 73,
          "time": 133.15769500000056,
          "velocity": 0.7874015748031497,
          "duration": 0.001096489583346738
        },
        {
          "name": "C#6",
          "midi": 85,
          "time": 133.15769500000056,
          "velocity": 0.7874015748031497,
          "duration": 0.001096489583346738
        },
        {
          "name": "C#7",
          "midi": 97,
          "time": 133.15769500000056,
          "velocity": 0.7874015748031497,
          "duration": 0.001096489583346738
        },
        {
          "name": "E5",
          "midi": 76,
          "time": 133.41975601041725,
          "velocity": 0.7874015748031497,
          "duration": 0.001096489583346738
        },
        {
          "name": "C6",
          "midi": 84,
          "time": 133.41975601041725,
          "velocity": 0.7874015748031497,
          "duration": 0.001096489583346738
        },
        {
          "name": "E6",
          "midi": 88,
          "time": 133.41975601041725,
          "velocity": 0.7874015748031497,
          "duration": 0.001096489583346738
        },
        {
          "name": "C7",
          "midi": 96,
          "time": 133.41975601041725,
          "velocity": 0.7874015748031497,
          "duration": 0.001096489583346738
        },
        {
          "name": "E7",
          "midi": 100,
          "time": 133.41975601041725,
          "velocity": 0.7874015748031497,
          "duration": 0.001096489583346738
        },
        {
          "name": "E4",
          "midi": 64,
          "time": 133.6840100000006,
          "velocity": 0.7874015748031497,
          "duration": 0.001096489583346738
        },
        {
          "name": "E5",
          "midi": 76,
          "time": 133.6840100000006,
          "velocity": 0.7874015748031497,
          "duration": 0.001096489583346738
        },
        {
          "name": "E6",
          "midi": 88,
          "time": 133.6840100000006,
          "velocity": 0.7874015748031497,
          "duration": 0.001096489583346738
        },
        {
          "name": "E7",
          "midi": 100,
          "time": 133.6840100000006,
          "velocity": 0.7874015748031497,
          "duration": 0.001096489583346738
        },
        {
          "name": "E5",
          "midi": 76,
          "time": 133.9471675000006,
          "velocity": 0.7874015748031497,
          "duration": 0.001096489583346738
        },
        {
          "name": "E6",
          "midi": 88,
          "time": 133.9471675000006,
          "velocity": 0.7874015748031497,
          "duration": 0.001096489583346738
        },
        {
          "name": "C7",
          "midi": 96,
          "time": 133.9471675000006,
          "velocity": 0.7874015748031497,
          "duration": 0.001096489583346738
        },
        {
          "name": "E7",
          "midi": 100,
          "time": 133.9471675000006,
          "velocity": 0.7874015748031497,
          "duration": 0.001096489583346738
        },
        {
          "name": "E6",
          "midi": 88,
          "time": 134.07764976041727,
          "velocity": 0.7874015748031497,
          "duration": 0.001096489583346738
        },
        {
          "name": "C7",
          "midi": 96,
          "time": 134.07764976041727,
          "velocity": 0.7874015748031497,
          "duration": 0.001096489583346738
        },
        {
          "name": "E7",
          "midi": 100,
          "time": 134.07764976041727,
          "velocity": 0.7874015748031497,
          "duration": 0.001096489583346738
        },
        {
          "name": "C#4",
          "midi": 61,
          "time": 134.2103250000006,
          "velocity": 0.7874015748031497,
          "duration": 0.001096489583346738
        },
        {
          "name": "C#5",
          "midi": 73,
          "time": 134.2103250000006,
          "velocity": 0.7874015748031497,
          "duration": 0.001096489583346738
        },
        {
          "name": "C#6",
          "midi": 85,
          "time": 134.2103250000006,
          "velocity": 0.7874015748031497,
          "duration": 0.001096489583346738
        },
        {
          "name": "C#7",
          "midi": 97,
          "time": 134.2103250000006,
          "velocity": 0.7874015748031497,
          "duration": 0.001096489583346738
        },
        {
          "name": "E7",
          "midi": 100,
          "time": 134.34190375000063,
          "velocity": 0.7874015748031497,
          "duration": 0.001096489583346738
        },
        {
          "name": "E5",
          "midi": 76,
          "time": 134.47457898958396,
          "velocity": 0.7874015748031497,
          "duration": 0.001096489583346738
        },
        {
          "name": "E6",
          "midi": 88,
          "time": 134.47457898958396,
          "velocity": 0.7874015748031497,
          "duration": 0.001096489583346738
        },
        {
          "name": "C7",
          "midi": 96,
          "time": 134.47457898958396,
          "velocity": 0.7874015748031497,
          "duration": 0.001096489583346738
        },
        {
          "name": "E7",
          "midi": 100,
          "time": 134.47457898958396,
          "velocity": 0.7874015748031497,
          "duration": 0.001096489583346738
        },
        {
          "name": "E4",
          "midi": 64,
          "time": 134.73664000000065,
          "velocity": 0.7874015748031497,
          "duration": 0.001096489583346738
        },
        {
          "name": "C5",
          "midi": 72,
          "time": 134.73664000000065,
          "velocity": 0.7874015748031497,
          "duration": 0.001096489583346738
        },
        {
          "name": "E5",
          "midi": 76,
          "time": 134.73664000000065,
          "velocity": 0.7874015748031497,
          "duration": 0.001096489583346738
        },
        {
          "name": "C6",
          "midi": 84,
          "time": 134.73664000000065,
          "velocity": 0.7874015748031497,
          "duration": 0.001096489583346738
        },
        {
          "name": "E6",
          "midi": 88,
          "time": 134.73664000000065,
          "velocity": 0.7874015748031497,
          "duration": 0.001096489583346738
        },
        {
          "name": "C7",
          "midi": 96,
          "time": 134.73664000000065,
          "velocity": 0.7874015748031497,
          "duration": 0.001096489583346738
        },
        {
          "name": "E7",
          "midi": 100,
          "time": 134.73664000000065,
          "velocity": 0.7874015748031497,
          "duration": 0.001096489583346738
        },
        {
          "name": "E5",
          "midi": 76,
          "time": 134.99979750000065,
          "velocity": 0.7874015748031497,
          "duration": 0.001096489583346738
        },
        {
          "name": "E6",
          "midi": 88,
          "time": 134.99979750000065,
          "velocity": 0.7874015748031497,
          "duration": 0.001096489583346738
        },
        {
          "name": "C7",
          "midi": 96,
          "time": 134.99979750000065,
          "velocity": 0.7874015748031497,
          "duration": 0.001096489583346738
        },
        {
          "name": "E7",
          "midi": 100,
          "time": 134.99979750000065,
          "velocity": 0.7874015748031497,
          "duration": 0.001096489583346738
        },
        {
          "name": "E6",
          "midi": 88,
          "time": 135.13137625000067,
          "velocity": 0.7874015748031497,
          "duration": 0.001096489583346738
        },
        {
          "name": "C7",
          "midi": 96,
          "time": 135.13137625000067,
          "velocity": 0.7874015748031497,
          "duration": 0.001096489583346738
        },
        {
          "name": "E7",
          "midi": 100,
          "time": 135.13137625000067,
          "velocity": 0.7874015748031497,
          "duration": 0.001096489583346738
        },
        {
          "name": "C#4",
          "midi": 61,
          "time": 135.2629550000007,
          "velocity": 0.7874015748031497,
          "duration": 0.001096489583346738
        },
        {
          "name": "C#5",
          "midi": 73,
          "time": 135.2629550000007,
          "velocity": 0.7874015748031497,
          "duration": 0.001096489583346738
        },
        {
          "name": "C#6",
          "midi": 85,
          "time": 135.2629550000007,
          "velocity": 0.7874015748031497,
          "duration": 0.001096489583346738
        },
        {
          "name": "C#7",
          "midi": 97,
          "time": 135.2629550000007,
          "velocity": 0.7874015748031497,
          "duration": 0.001096489583346738
        },
        {
          "name": "E5",
          "midi": 76,
          "time": 135.5261125000007,
          "velocity": 0.7874015748031497,
          "duration": 0.001096489583346738
        },
        {
          "name": "C6",
          "midi": 84,
          "time": 135.5261125000007,
          "velocity": 0.7874015748031497,
          "duration": 0.001096489583346738
        },
        {
          "name": "E6",
          "midi": 88,
          "time": 135.5261125000007,
          "velocity": 0.7874015748031497,
          "duration": 0.001096489583346738
        },
        {
          "name": "C7",
          "midi": 96,
          "time": 135.5261125000007,
          "velocity": 0.7874015748031497,
          "duration": 0.001096489583346738
        },
        {
          "name": "E7",
          "midi": 100,
          "time": 135.5261125000007,
          "velocity": 0.7874015748031497,
          "duration": 0.001096489583346738
        },
        {
          "name": "E4",
          "midi": 64,
          "time": 135.7892700000007,
          "velocity": 0.7874015748031497,
          "duration": 0.001096489583346738
        },
        {
          "name": "E5",
          "midi": 76,
          "time": 135.7892700000007,
          "velocity": 0.7874015748031497,
          "duration": 0.001096489583346738
        },
        {
          "name": "E6",
          "midi": 88,
          "time": 135.7892700000007,
          "velocity": 0.7874015748031497,
          "duration": 0.001096489583346738
        },
        {
          "name": "E7",
          "midi": 100,
          "time": 135.7892700000007,
          "velocity": 0.7874015748031497,
          "duration": 0.001096489583346738
        },
        {
          "name": "E5",
          "midi": 76,
          "time": 136.05352398958405,
          "velocity": 0.7874015748031497,
          "duration": 0.001096489583346738
        },
        {
          "name": "E6",
          "midi": 88,
          "time": 136.05352398958405,
          "velocity": 0.7874015748031497,
          "duration": 0.001096489583346738
        },
        {
          "name": "C7",
          "midi": 96,
          "time": 136.05352398958405,
          "velocity": 0.7874015748031497,
          "duration": 0.001096489583346738
        },
        {
          "name": "E7",
          "midi": 100,
          "time": 136.05352398958405,
          "velocity": 0.7874015748031497,
          "duration": 0.001096489583346738
        },
        {
          "name": "E6",
          "midi": 88,
          "time": 136.18510273958407,
          "velocity": 0.7874015748031497,
          "duration": 0.001096489583346738
        },
        {
          "name": "C7",
          "midi": 96,
          "time": 136.18510273958407,
          "velocity": 0.7874015748031497,
          "duration": 0.001096489583346738
        },
        {
          "name": "E7",
          "midi": 100,
          "time": 136.18510273958407,
          "velocity": 0.7874015748031497,
          "duration": 0.001096489583346738
        },
        {
          "name": "C#4",
          "midi": 61,
          "time": 136.31558500000074,
          "velocity": 0.7874015748031497,
          "duration": 0.001096489583346738
        },
        {
          "name": "C#5",
          "midi": 73,
          "time": 136.31558500000074,
          "velocity": 0.7874015748031497,
          "duration": 0.001096489583346738
        },
        {
          "name": "C#6",
          "midi": 85,
          "time": 136.31558500000074,
          "velocity": 0.7874015748031497,
          "duration": 0.001096489583346738
        },
        {
          "name": "C#7",
          "midi": 97,
          "time": 136.31558500000074,
          "velocity": 0.7874015748031497,
          "duration": 0.001096489583346738
        },
        {
          "name": "E7",
          "midi": 100,
          "time": 136.44716375000075,
          "velocity": 0.7874015748031497,
          "duration": 0.001096489583346738
        },
        {
          "name": "E5",
          "midi": 76,
          "time": 136.5798389895841,
          "velocity": 0.7874015748031497,
          "duration": 0.001096489583346738
        },
        {
          "name": "E6",
          "midi": 88,
          "time": 136.5798389895841,
          "velocity": 0.7874015748031497,
          "duration": 0.001096489583346738
        },
        {
          "name": "C7",
          "midi": 96,
          "time": 136.5798389895841,
          "velocity": 0.7874015748031497,
          "duration": 0.001096489583346738
        },
        {
          "name": "E7",
          "midi": 100,
          "time": 136.5798389895841,
          "velocity": 0.7874015748031497,
          "duration": 0.001096489583346738
        },
        {
          "name": "C4",
          "midi": 60,
          "time": 136.84190000000078,
          "velocity": 0.7874015748031497,
          "duration": 0.001096489583346738
        },
        {
          "name": "C5",
          "midi": 72,
          "time": 136.84190000000078,
          "velocity": 0.7874015748031497,
          "duration": 0.001096489583346738
        },
        {
          "name": "E5",
          "midi": 76,
          "time": 136.84190000000078,
          "velocity": 0.7874015748031497,
          "duration": 0.001096489583346738
        },
        {
          "name": "C6",
          "midi": 84,
          "time": 136.84190000000078,
          "velocity": 0.7874015748031497,
          "duration": 0.001096489583346738
        },
        {
          "name": "E6",
          "midi": 88,
          "time": 136.84190000000078,
          "velocity": 0.7874015748031497,
          "duration": 0.001096489583346738
        },
        {
          "name": "C7",
          "midi": 96,
          "time": 136.84190000000078,
          "velocity": 0.7874015748031497,
          "duration": 0.001096489583346738
        },
        {
          "name": "E7",
          "midi": 100,
          "time": 136.84190000000078,
          "velocity": 0.7874015748031497,
          "duration": 0.001096489583346738
        },
        {
          "name": "E5",
          "midi": 76,
          "time": 137.10505750000078,
          "velocity": 0.7874015748031497,
          "duration": 0.001096489583346738
        },
        {
          "name": "E6",
          "midi": 88,
          "time": 137.10505750000078,
          "velocity": 0.7874015748031497,
          "duration": 0.001096489583346738
        },
        {
          "name": "C7",
          "midi": 96,
          "time": 137.10505750000078,
          "velocity": 0.7874015748031497,
          "duration": 0.001096489583346738
        },
        {
          "name": "E7",
          "midi": 100,
          "time": 137.10505750000078,
          "velocity": 0.7874015748031497,
          "duration": 0.001096489583346738
        },
        {
          "name": "E6",
          "midi": 88,
          "time": 137.23553976041745,
          "velocity": 0.7874015748031497,
          "duration": 0.001096489583346738
        },
        {
          "name": "C7",
          "midi": 96,
          "time": 137.23553976041745,
          "velocity": 0.7874015748031497,
          "duration": 0.001096489583346738
        },
        {
          "name": "E7",
          "midi": 100,
          "time": 137.23553976041745,
          "velocity": 0.7874015748031497,
          "duration": 0.001096489583346738
        },
        {
          "name": "C#4",
          "midi": 61,
          "time": 137.3682150000008,
          "velocity": 0.7874015748031497,
          "duration": 0.001096489583346738
        },
        {
          "name": "C#5",
          "midi": 73,
          "time": 137.3682150000008,
          "velocity": 0.7874015748031497,
          "duration": 0.001096489583346738
        },
        {
          "name": "C#6",
          "midi": 85,
          "time": 137.3682150000008,
          "velocity": 0.7874015748031497,
          "duration": 0.001096489583346738
        },
        {
          "name": "C#7",
          "midi": 97,
          "time": 137.3682150000008,
          "velocity": 0.7874015748031497,
          "duration": 0.001096489583346738
        },
        {
          "name": "E5",
          "midi": 76,
          "time": 137.6313725000008,
          "velocity": 0.7874015748031497,
          "duration": 0.001096489583346738
        },
        {
          "name": "C6",
          "midi": 84,
          "time": 137.6313725000008,
          "velocity": 0.7874015748031497,
          "duration": 0.001096489583346738
        },
        {
          "name": "E6",
          "midi": 88,
          "time": 137.6313725000008,
          "velocity": 0.7874015748031497,
          "duration": 0.001096489583346738
        },
        {
          "name": "C7",
          "midi": 96,
          "time": 137.6313725000008,
          "velocity": 0.7874015748031497,
          "duration": 0.001096489583346738
        },
        {
          "name": "E7",
          "midi": 100,
          "time": 137.6313725000008,
          "velocity": 0.7874015748031497,
          "duration": 0.001096489583346738
        },
        {
          "name": "E4",
          "midi": 64,
          "time": 137.8945300000008,
          "velocity": 0.7874015748031497,
          "duration": 0.001096489583346738
        },
        {
          "name": "E5",
          "midi": 76,
          "time": 137.8945300000008,
          "velocity": 0.7874015748031497,
          "duration": 0.001096489583346738
        },
        {
          "name": "E6",
          "midi": 88,
          "time": 137.8945300000008,
          "velocity": 0.7874015748031497,
          "duration": 0.001096489583346738
        },
        {
          "name": "E7",
          "midi": 100,
          "time": 137.8945300000008,
          "velocity": 0.7874015748031497,
          "duration": 0.001096489583346738
        },
        {
          "name": "C#7",
          "midi": 97,
          "time": 138.02720523958413,
          "velocity": 0.7874015748031497,
          "duration": 0.001096489583346738
        },
        {
          "name": "E5",
          "midi": 76,
          "time": 138.1576875000008,
          "velocity": 0.7874015748031497,
          "duration": 0.001096489583346738
        },
        {
          "name": "E6",
          "midi": 88,
          "time": 138.1576875000008,
          "velocity": 0.7874015748031497,
          "duration": 0.001096489583346738
        },
        {
          "name": "E7",
          "midi": 100,
          "time": 138.1576875000008,
          "velocity": 0.7874015748031497,
          "duration": 0.001096489583346738
        },
        {
          "name": "C7",
          "midi": 96,
          "time": 138.29036273958414,
          "velocity": 0.7874015748031497,
          "duration": 0.001096489583346738
        },
        {
          "name": "C#4",
          "midi": 61,
          "time": 138.4208450000008,
          "velocity": 0.7874015748031497,
          "duration": 0.001096489583346738
        },
        {
          "name": "C#5",
          "midi": 73,
          "time": 138.4208450000008,
          "velocity": 0.7874015748031497,
          "duration": 0.001096489583346738
        },
        {
          "name": "C#6",
          "midi": 85,
          "time": 138.4208450000008,
          "velocity": 0.7874015748031497,
          "duration": 0.001096489583346738
        },
        {
          "name": "C#7",
          "midi": 97,
          "time": 138.4208450000008,
          "velocity": 0.7874015748031497,
          "duration": 0.001096489583346738
        },
        {
          "name": "C7",
          "midi": 96,
          "time": 138.55242375000083,
          "velocity": 0.7874015748031497,
          "duration": 0.001096489583346738
        },
        {
          "name": "C#5",
          "midi": 73,
          "time": 138.68509898958416,
          "velocity": 0.7874015748031497,
          "duration": 0.001096489583346738
        },
        {
          "name": "C#6",
          "midi": 85,
          "time": 138.68509898958416,
          "velocity": 0.7874015748031497,
          "duration": 0.001096489583346738
        },
        {
          "name": "C#7",
          "midi": 97,
          "time": 138.68509898958416,
          "velocity": 0.7874015748031497,
          "duration": 0.001096489583346738
        },
        {
          "name": "C#7",
          "midi": 97,
          "time": 138.81558125000083,
          "velocity": 0.7874015748031497,
          "duration": 0.001096489583346738
        },
        {
          "name": "E4",
          "midi": 64,
          "time": 138.94716000000085,
          "velocity": 0.7874015748031497,
          "duration": 0.001096489583346738
        },
        {
          "name": "C5",
          "midi": 72,
          "time": 138.94716000000085,
          "velocity": 0.7874015748031497,
          "duration": 0.001096489583346738
        },
        {
          "name": "E5",
          "midi": 76,
          "time": 138.94716000000085,
          "velocity": 0.7874015748031497,
          "duration": 0.001096489583346738
        },
        {
          "name": "C6",
          "midi": 84,
          "time": 138.94716000000085,
          "velocity": 0.7874015748031497,
          "duration": 0.001096489583346738
        },
        {
          "name": "E6",
          "midi": 88,
          "time": 138.94716000000085,
          "velocity": 0.7874015748031497,
          "duration": 0.001096489583346738
        },
        {
          "name": "C7",
          "midi": 96,
          "time": 138.94716000000085,
          "velocity": 0.7874015748031497,
          "duration": 0.001096489583346738
        },
        {
          "name": "E7",
          "midi": 100,
          "time": 138.94716000000085,
          "velocity": 0.7874015748031497,
          "duration": 0.001096489583346738
        },
        {
          "name": "D6",
          "midi": 86,
          "time": 139.20922101041754,
          "velocity": 0.7874015748031497,
          "duration": 0.001096489583346738
        },
        {
          "name": "D7",
          "midi": 98,
          "time": 139.20922101041754,
          "velocity": 0.7874015748031497,
          "duration": 0.001096489583346738
        },
        {
          "name": "C#4",
          "midi": 61,
          "time": 139.4734750000009,
          "velocity": 0.7874015748031497,
          "duration": 0.001096489583346738
        },
        {
          "name": "C#5",
          "midi": 73,
          "time": 139.4734750000009,
          "velocity": 0.7874015748031497,
          "duration": 0.001096489583346738
        },
        {
          "name": "C#6",
          "midi": 85,
          "time": 139.4734750000009,
          "velocity": 0.7874015748031497,
          "duration": 0.001096489583346738
        },
        {
          "name": "C#7",
          "midi": 97,
          "time": 139.4734750000009,
          "velocity": 0.7874015748031497,
          "duration": 0.001096489583346738
        },
        {
          "name": "D4",
          "midi": 62,
          "time": 139.73553601041758,
          "velocity": 0.7874015748031497,
          "duration": 0.001096489583346738
        },
        {
          "name": "D5",
          "midi": 74,
          "time": 139.73553601041758,
          "velocity": 0.7874015748031497,
          "duration": 0.001096489583346738
        },
        {
          "name": "D6",
          "midi": 86,
          "time": 139.73553601041758,
          "velocity": 0.7874015748031497,
          "duration": 0.001096489583346738
        },
        {
          "name": "C7",
          "midi": 96,
          "time": 139.73553601041758,
          "velocity": 0.7874015748031497,
          "duration": 0.001096489583346738
        },
        {
          "name": "D7",
          "midi": 98,
          "time": 139.73553601041758,
          "velocity": 0.7874015748031497,
          "duration": 0.001096489583346738
        },
        {
          "name": "C7",
          "midi": 96,
          "time": 139.99979000000093,
          "velocity": 0.7874015748031497,
          "duration": 0.001096489583346738
        },
        {
          "name": "D4",
          "midi": 62,
          "time": 140.26185101041762,
          "velocity": 0.7874015748031497,
          "duration": 0.001096489583346738
        },
        {
          "name": "D5",
          "midi": 74,
          "time": 140.26185101041762,
          "velocity": 0.7874015748031497,
          "duration": 0.001096489583346738
        },
        {
          "name": "D6",
          "midi": 86,
          "time": 140.26185101041762,
          "velocity": 0.7874015748031497,
          "duration": 0.001096489583346738
        },
        {
          "name": "C7",
          "midi": 96,
          "time": 140.26185101041762,
          "velocity": 0.7874015748031497,
          "duration": 0.001096489583346738
        },
        {
          "name": "D7",
          "midi": 98,
          "time": 140.26185101041762,
          "velocity": 0.7874015748031497,
          "duration": 0.001096489583346738
        },
        {
          "name": "C7",
          "midi": 96,
          "time": 140.39452625000095,
          "velocity": 0.7874015748031497,
          "duration": 0.001096489583346738
        },
        {
          "name": "C#4",
          "midi": 61,
          "time": 140.52610500000097,
          "velocity": 0.7874015748031497,
          "duration": 0.001096489583346738
        },
        {
          "name": "C#5",
          "midi": 73,
          "time": 140.52610500000097,
          "velocity": 0.7874015748031497,
          "duration": 0.001096489583346738
        },
        {
          "name": "C#6",
          "midi": 85,
          "time": 140.52610500000097,
          "velocity": 0.7874015748031497,
          "duration": 0.001096489583346738
        },
        {
          "name": "C#7",
          "midi": 97,
          "time": 140.52610500000097,
          "velocity": 0.7874015748031497,
          "duration": 0.001096489583346738
        },
        {
          "name": "D5",
          "midi": 74,
          "time": 140.79035898958432,
          "velocity": 0.7874015748031497,
          "duration": 0.001096489583346738
        },
        {
          "name": "D6",
          "midi": 86,
          "time": 140.79035898958432,
          "velocity": 0.7874015748031497,
          "duration": 0.001096489583346738
        },
        {
          "name": "C7",
          "midi": 96,
          "time": 140.79035898958432,
          "velocity": 0.7874015748031497,
          "duration": 0.001096489583346738
        },
        {
          "name": "D7",
          "midi": 98,
          "time": 140.79035898958432,
          "velocity": 0.7874015748031497,
          "duration": 0.001096489583346738
        },
        {
          "name": "C4",
          "midi": 60,
          "time": 141.052420000001,
          "velocity": 0.7874015748031497,
          "duration": 0.001096489583346738
        },
        {
          "name": "C5",
          "midi": 72,
          "time": 141.052420000001,
          "velocity": 0.7874015748031497,
          "duration": 0.001096489583346738
        },
        {
          "name": "C6",
          "midi": 84,
          "time": 141.052420000001,
          "velocity": 0.7874015748031497,
          "duration": 0.001096489583346738
        },
        {
          "name": "C7",
          "midi": 96,
          "time": 141.052420000001,
          "velocity": 0.7874015748031497,
          "duration": 0.001096489583346738
        },
        {
          "name": "D5",
          "midi": 74,
          "time": 141.31667398958436,
          "velocity": 0.7874015748031497,
          "duration": 0.001096489583346738
        },
        {
          "name": "D6",
          "midi": 86,
          "time": 141.31667398958436,
          "velocity": 0.7874015748031497,
          "duration": 0.001096489583346738
        },
        {
          "name": "C7",
          "midi": 96,
          "time": 141.31667398958436,
          "velocity": 0.7874015748031497,
          "duration": 0.001096489583346738
        },
        {
          "name": "D7",
          "midi": 98,
          "time": 141.31667398958436,
          "velocity": 0.7874015748031497,
          "duration": 0.001096489583346738
        },
        {
          "name": "C7",
          "midi": 96,
          "time": 141.44715625000103,
          "velocity": 0.7874015748031497,
          "duration": 0.001096489583346738
        },
        {
          "name": "C#4",
          "midi": 61,
          "time": 141.57873500000105,
          "velocity": 0.7874015748031497,
          "duration": 0.001096489583346738
        },
        {
          "name": "C#5",
          "midi": 73,
          "time": 141.57873500000105,
          "velocity": 0.7874015748031497,
          "duration": 0.001096489583346738
        },
        {
          "name": "C#6",
          "midi": 85,
          "time": 141.57873500000105,
          "velocity": 0.7874015748031497,
          "duration": 0.001096489583346738
        },
        {
          "name": "C#7",
          "midi": 97,
          "time": 141.57873500000105,
          "velocity": 0.7874015748031497,
          "duration": 0.001096489583346738
        },
        {
          "name": "D4",
          "midi": 62,
          "time": 141.84189250000105,
          "velocity": 0.7874015748031497,
          "duration": 0.001096489583346738
        },
        {
          "name": "D5",
          "midi": 74,
          "time": 141.84189250000105,
          "velocity": 0.7874015748031497,
          "duration": 0.001096489583346738
        },
        {
          "name": "D6",
          "midi": 86,
          "time": 141.84189250000105,
          "velocity": 0.7874015748031497,
          "duration": 0.001096489583346738
        },
        {
          "name": "C7",
          "midi": 96,
          "time": 141.84189250000105,
          "velocity": 0.7874015748031497,
          "duration": 0.001096489583346738
        },
        {
          "name": "D7",
          "midi": 98,
          "time": 141.84189250000105,
          "velocity": 0.7874015748031497,
          "duration": 0.001096489583346738
        },
        {
          "name": "D4",
          "midi": 62,
          "time": 142.36820750000106,
          "velocity": 0.7874015748031497,
          "duration": 0.001096489583346738
        },
        {
          "name": "D5",
          "midi": 74,
          "time": 142.36820750000106,
          "velocity": 0.7874015748031497,
          "duration": 0.001096489583346738
        },
        {
          "name": "C6",
          "midi": 84,
          "time": 142.36820750000106,
          "velocity": 0.7874015748031497,
          "duration": 0.001096489583346738
        },
        {
          "name": "D6",
          "midi": 86,
          "time": 142.36820750000106,
          "velocity": 0.7874015748031497,
          "duration": 0.001096489583346738
        },
        {
          "name": "C7",
          "midi": 96,
          "time": 142.36820750000106,
          "velocity": 0.7874015748031497,
          "duration": 0.001096489583346738
        },
        {
          "name": "D7",
          "midi": 98,
          "time": 142.36820750000106,
          "velocity": 0.7874015748031497,
          "duration": 0.001096489583346738
        },
        {
          "name": "C7",
          "midi": 96,
          "time": 142.49868976041773,
          "velocity": 0.7874015748031497,
          "duration": 0.001096489583346738
        },
        {
          "name": "C#4",
          "midi": 61,
          "time": 142.63136500000107,
          "velocity": 0.7874015748031497,
          "duration": 0.001096489583346738
        },
        {
          "name": "C#5",
          "midi": 73,
          "time": 142.63136500000107,
          "velocity": 0.7874015748031497,
          "duration": 0.001096489583346738
        },
        {
          "name": "C#6",
          "midi": 85,
          "time": 142.63136500000107,
          "velocity": 0.7874015748031497,
          "duration": 0.001096489583346738
        },
        {
          "name": "C#7",
          "midi": 97,
          "time": 142.63136500000107,
          "velocity": 0.7874015748031497,
          "duration": 0.001096489583346738
        },
        {
          "name": "D5",
          "midi": 74,
          "time": 142.89342601041776,
          "velocity": 0.7874015748031497,
          "duration": 0.001096489583346738
        },
        {
          "name": "D6",
          "midi": 86,
          "time": 142.89342601041776,
          "velocity": 0.7874015748031497,
          "duration": 0.001096489583346738
        },
        {
          "name": "C7",
          "midi": 96,
          "time": 142.89342601041776,
          "velocity": 0.7874015748031497,
          "duration": 0.001096489583346738
        },
        {
          "name": "D7",
          "midi": 98,
          "time": 142.89342601041776,
          "velocity": 0.7874015748031497,
          "duration": 0.001096489583346738
        },
        {
          "name": "C4",
          "midi": 60,
          "time": 143.1576800000011,
          "velocity": 0.7874015748031497,
          "duration": 0.001096489583346738
        },
        {
          "name": "C5",
          "midi": 72,
          "time": 143.1576800000011,
          "velocity": 0.7874015748031497,
          "duration": 0.001096489583346738
        },
        {
          "name": "C6",
          "midi": 84,
          "time": 143.1576800000011,
          "velocity": 0.7874015748031497,
          "duration": 0.001096489583346738
        },
        {
          "name": "C7",
          "midi": 96,
          "time": 143.1576800000011,
          "velocity": 0.7874015748031497,
          "duration": 0.001096489583346738
        },
        {
          "name": "D5",
          "midi": 74,
          "time": 143.42193398958446,
          "velocity": 0.7874015748031497,
          "duration": 0.001096489583346738
        },
        {
          "name": "D6",
          "midi": 86,
          "time": 143.42193398958446,
          "velocity": 0.7874015748031497,
          "duration": 0.001096489583346738
        },
        {
          "name": "C7",
          "midi": 96,
          "time": 143.42193398958446,
          "velocity": 0.7874015748031497,
          "duration": 0.001096489583346738
        },
        {
          "name": "D7",
          "midi": 98,
          "time": 143.42193398958446,
          "velocity": 0.7874015748031497,
          "duration": 0.001096489583346738
        },
        {
          "name": "C7",
          "midi": 96,
          "time": 143.55241625000113,
          "velocity": 0.7874015748031497,
          "duration": 0.001096489583346738
        },
        {
          "name": "C#4",
          "midi": 61,
          "time": 143.68399500000115,
          "velocity": 0.7874015748031497,
          "duration": 0.001096489583346738
        },
        {
          "name": "C#5",
          "midi": 73,
          "time": 143.68399500000115,
          "velocity": 0.7874015748031497,
          "duration": 0.001096489583346738
        },
        {
          "name": "C#6",
          "midi": 85,
          "time": 143.68399500000115,
          "velocity": 0.7874015748031497,
          "duration": 0.001096489583346738
        },
        {
          "name": "C#7",
          "midi": 97,
          "time": 143.68399500000115,
          "velocity": 0.7874015748031497,
          "duration": 0.001096489583346738
        },
        {
          "name": "G#8",
          "midi": 116,
          "time": 143.94715250000115,
          "velocity": 0.7874015748031497,
          "duration": 1.380480385416746
        },
        {
          "name": "D4",
          "midi": 62,
          "time": 143.94715250000115,
          "velocity": 0.7874015748031497,
          "duration": 0.001096489583346738
        },
        {
          "name": "D5",
          "midi": 74,
          "time": 143.94715250000115,
          "velocity": 0.7874015748031497,
          "duration": 0.001096489583346738
        },
        {
          "name": "D6",
          "midi": 86,
          "time": 143.94715250000115,
          "velocity": 0.7874015748031497,
          "duration": 0.001096489583346738
        },
        {
          "name": "C7",
          "midi": 96,
          "time": 143.94715250000115,
          "velocity": 0.7874015748031497,
          "duration": 0.001096489583346738
        },
        {
          "name": "D7",
          "midi": 98,
          "time": 143.94715250000115,
          "velocity": 0.7874015748031497,
          "duration": 0.001096489583346738
        },
        {
          "name": "D4",
          "midi": 62,
          "time": 144.4745639895845,
          "velocity": 0.7874015748031497,
          "duration": 0.001096489583346738
        },
        {
          "name": "D5",
          "midi": 74,
          "time": 144.4745639895845,
          "velocity": 0.7874015748031497,
          "duration": 0.001096489583346738
        },
        {
          "name": "C6",
          "midi": 84,
          "time": 144.4745639895845,
          "velocity": 0.7874015748031497,
          "duration": 0.001096489583346738
        },
        {
          "name": "D6",
          "midi": 86,
          "time": 144.4745639895845,
          "velocity": 0.7874015748031497,
          "duration": 0.001096489583346738
        },
        {
          "name": "C7",
          "midi": 96,
          "time": 144.4745639895845,
          "velocity": 0.7874015748031497,
          "duration": 0.001096489583346738
        },
        {
          "name": "D7",
          "midi": 98,
          "time": 144.4745639895845,
          "velocity": 0.7874015748031497,
          "duration": 0.001096489583346738
        },
        {
          "name": "C7",
          "midi": 96,
          "time": 144.60504625000118,
          "velocity": 0.7874015748031497,
          "duration": 0.001096489583346738
        },
        {
          "name": "C#4",
          "midi": 61,
          "time": 144.7366250000012,
          "velocity": 0.7874015748031497,
          "duration": 0.001096489583346738
        },
        {
          "name": "C#5",
          "midi": 73,
          "time": 144.7366250000012,
          "velocity": 0.7874015748031497,
          "duration": 0.001096489583346738
        },
        {
          "name": "C#6",
          "midi": 85,
          "time": 144.7366250000012,
          "velocity": 0.7874015748031497,
          "duration": 0.001096489583346738
        },
        {
          "name": "C#7",
          "midi": 97,
          "time": 144.7366250000012,
          "velocity": 0.7874015748031497,
          "duration": 0.001096489583346738
        },
        {
          "name": "D5",
          "midi": 74,
          "time": 144.9997825000012,
          "velocity": 0.7874015748031497,
          "duration": 0.001096489583346738
        },
        {
          "name": "C6",
          "midi": 84,
          "time": 144.9997825000012,
          "velocity": 0.7874015748031497,
          "duration": 0.001096489583346738
        },
        {
          "name": "D6",
          "midi": 86,
          "time": 144.9997825000012,
          "velocity": 0.7874015748031497,
          "duration": 0.001096489583346738
        },
        {
          "name": "C7",
          "midi": 96,
          "time": 144.9997825000012,
          "velocity": 0.7874015748031497,
          "duration": 0.001096489583346738
        },
        {
          "name": "D7",
          "midi": 98,
          "time": 144.9997825000012,
          "velocity": 0.7874015748031497,
          "duration": 0.001096489583346738
        },
        {
          "name": "C7",
          "midi": 96,
          "time": 145.13026476041787,
          "velocity": 0.7874015748031497,
          "duration": 0.001096489583346738
        },
        {
          "name": "C#4",
          "midi": 61,
          "time": 145.2629400000012,
          "velocity": 0.7874015748031497,
          "duration": 0.001096489583346738
        },
        {
          "name": "C#5",
          "midi": 73,
          "time": 145.2629400000012,
          "velocity": 0.7874015748031497,
          "duration": 0.001096489583346738
        },
        {
          "name": "C#6",
          "midi": 85,
          "time": 145.2629400000012,
          "velocity": 0.7874015748031497,
          "duration": 0.001096489583346738
        },
        {
          "name": "C#7",
          "midi": 97,
          "time": 145.2629400000012,
          "velocity": 0.7874015748031497,
          "duration": 0.001096489583346738
        },
        {
          "name": "E4",
          "midi": 64,
          "time": 147.36820000000122,
          "velocity": 0.7874015748031497,
          "duration": 0.001096489583346738
        },
        {
          "name": "C5",
          "midi": 72,
          "time": 147.36820000000122,
          "velocity": 0.7874015748031497,
          "duration": 0.001096489583346738
        },
        {
          "name": "E5",
          "midi": 76,
          "time": 147.36820000000122,
          "velocity": 0.7874015748031497,
          "duration": 0.001096489583346738
        },
        {
          "name": "C6",
          "midi": 84,
          "time": 147.36820000000122,
          "velocity": 0.7874015748031497,
          "duration": 0.001096489583346738
        },
        {
          "name": "E6",
          "midi": 88,
          "time": 147.36820000000122,
          "velocity": 0.7874015748031497,
          "duration": 0.001096489583346738
        },
        {
          "name": "C7",
          "midi": 96,
          "time": 147.36820000000122,
          "velocity": 0.7874015748031497,
          "duration": 0.001096489583346738
        },
        {
          "name": "E7",
          "midi": 100,
          "time": 147.36820000000122,
          "velocity": 0.7874015748031497,
          "duration": 0.001096489583346738
        },
        {
          "name": "G7",
          "midi": 103,
          "time": 147.36820000000122,
          "velocity": 0.7874015748031497,
          "duration": 8.486829375000752
        },
        {
          "name": "D6",
          "midi": 86,
          "time": 147.63245398958458,
          "velocity": 0.7874015748031497,
          "duration": 0.001096489583346738
        },
        {
          "name": "D7",
          "midi": 98,
          "time": 147.63245398958458,
          "velocity": 0.7874015748031497,
          "duration": 0.001096489583346738
        },
        {
          "name": "C#4",
          "midi": 61,
          "time": 147.89451500000126,
          "velocity": 0.7874015748031497,
          "duration": 0.001096489583346738
        },
        {
          "name": "C#5",
          "midi": 73,
          "time": 147.89451500000126,
          "velocity": 0.7874015748031497,
          "duration": 0.001096489583346738
        },
        {
          "name": "C#6",
          "midi": 85,
          "time": 147.89451500000126,
          "velocity": 0.7874015748031497,
          "duration": 0.001096489583346738
        },
        {
          "name": "C#7",
          "midi": 97,
          "time": 147.89451500000126,
          "velocity": 0.7874015748031497,
          "duration": 0.001096489583346738
        },
        {
          "name": "D4",
          "midi": 62,
          "time": 148.15767250000127,
          "velocity": 0.7874015748031497,
          "duration": 0.001096489583346738
        },
        {
          "name": "D5",
          "midi": 74,
          "time": 148.15767250000127,
          "velocity": 0.7874015748031497,
          "duration": 0.001096489583346738
        },
        {
          "name": "D6",
          "midi": 86,
          "time": 148.15767250000127,
          "velocity": 0.7874015748031497,
          "duration": 0.001096489583346738
        },
        {
          "name": "C7",
          "midi": 96,
          "time": 148.15767250000127,
          "velocity": 0.7874015748031497,
          "duration": 0.001096489583346738
        },
        {
          "name": "D7",
          "midi": 98,
          "time": 148.15767250000127,
          "velocity": 0.7874015748031497,
          "duration": 0.001096489583346738
        },
        {
          "name": "C7",
          "midi": 96,
          "time": 148.42083000000127,
          "velocity": 0.7874015748031497,
          "duration": 0.001096489583346738
        },
        {
          "name": "D4",
          "midi": 62,
          "time": 148.68508398958463,
          "velocity": 0.7874015748031497,
          "duration": 0.001096489583346738
        },
        {
          "name": "D5",
          "midi": 74,
          "time": 148.68508398958463,
          "velocity": 0.7874015748031497,
          "duration": 0.001096489583346738
        },
        {
          "name": "D6",
          "midi": 86,
          "time": 148.68508398958463,
          "velocity": 0.7874015748031497,
          "duration": 0.001096489583346738
        },
        {
          "name": "C7",
          "midi": 96,
          "time": 148.68508398958463,
          "velocity": 0.7874015748031497,
          "duration": 0.001096489583346738
        },
        {
          "name": "D7",
          "midi": 98,
          "time": 148.68508398958463,
          "velocity": 0.7874015748031497,
          "duration": 0.001096489583346738
        },
        {
          "name": "C7",
          "midi": 96,
          "time": 148.8155662500013,
          "velocity": 0.7874015748031497,
          "duration": 0.001096489583346738
        },
        {
          "name": "C#4",
          "midi": 61,
          "time": 148.9471450000013,
          "velocity": 0.7874015748031497,
          "duration": 0.001096489583346738
        },
        {
          "name": "C#5",
          "midi": 73,
          "time": 148.9471450000013,
          "velocity": 0.7874015748031497,
          "duration": 0.001096489583346738
        },
        {
          "name": "C#6",
          "midi": 85,
          "time": 148.9471450000013,
          "velocity": 0.7874015748031497,
          "duration": 0.001096489583346738
        },
        {
          "name": "C#7",
          "midi": 97,
          "time": 148.9471450000013,
          "velocity": 0.7874015748031497,
          "duration": 0.001096489583346738
        },
        {
          "name": "D5",
          "midi": 74,
          "time": 149.21030250000132,
          "velocity": 0.7874015748031497,
          "duration": 0.001096489583346738
        },
        {
          "name": "D6",
          "midi": 86,
          "time": 149.21030250000132,
          "velocity": 0.7874015748031497,
          "duration": 0.001096489583346738
        },
        {
          "name": "C7",
          "midi": 96,
          "time": 149.21030250000132,
          "velocity": 0.7874015748031497,
          "duration": 0.001096489583346738
        },
        {
          "name": "D7",
          "midi": 98,
          "time": 149.21030250000132,
          "velocity": 0.7874015748031497,
          "duration": 0.001096489583346738
        },
        {
          "name": "C4",
          "midi": 60,
          "time": 149.47346000000132,
          "velocity": 0.7874015748031497,
          "duration": 0.001096489583346738
        },
        {
          "name": "C5",
          "midi": 72,
          "time": 149.47346000000132,
          "velocity": 0.7874015748031497,
          "duration": 0.001096489583346738
        },
        {
          "name": "C6",
          "midi": 84,
          "time": 149.47346000000132,
          "velocity": 0.7874015748031497,
          "duration": 0.001096489583346738
        },
        {
          "name": "C7",
          "midi": 96,
          "time": 149.47346000000132,
          "velocity": 0.7874015748031497,
          "duration": 0.001096489583346738
        },
        {
          "name": "D5",
          "midi": 74,
          "time": 149.73771398958468,
          "velocity": 0.7874015748031497,
          "duration": 0.001096489583346738
        },
        {
          "name": "D6",
          "midi": 86,
          "time": 149.73771398958468,
          "velocity": 0.7874015748031497,
          "duration": 0.001096489583346738
        },
        {
          "name": "C7",
          "midi": 96,
          "time": 149.73771398958468,
          "velocity": 0.7874015748031497,
          "duration": 0.001096489583346738
        },
        {
          "name": "D7",
          "midi": 98,
          "time": 149.73771398958468,
          "velocity": 0.7874015748031497,
          "duration": 0.001096489583346738
        },
        {
          "name": "C7",
          "midi": 96,
          "time": 149.86819625000135,
          "velocity": 0.7874015748031497,
          "duration": 0.001096489583346738
        },
        {
          "name": "C#4",
          "midi": 61,
          "time": 149.99977500000136,
          "velocity": 0.7874015748031497,
          "duration": 0.001096489583346738
        },
        {
          "name": "C#5",
          "midi": 73,
          "time": 149.99977500000136,
          "velocity": 0.7874015748031497,
          "duration": 0.001096489583346738
        },
        {
          "name": "C#6",
          "midi": 85,
          "time": 149.99977500000136,
          "velocity": 0.7874015748031497,
          "duration": 0.001096489583346738
        },
        {
          "name": "C#7",
          "midi": 97,
          "time": 149.99977500000136,
          "velocity": 0.7874015748031497,
          "duration": 0.001096489583346738
        },
        {
          "name": "D4",
          "midi": 62,
          "time": 150.26402898958472,
          "velocity": 0.7874015748031497,
          "duration": 0.001096489583346738
        },
        {
          "name": "D5",
          "midi": 74,
          "time": 150.26402898958472,
          "velocity": 0.7874015748031497,
          "duration": 0.001096489583346738
        },
        {
          "name": "D6",
          "midi": 86,
          "time": 150.26402898958472,
          "velocity": 0.7874015748031497,
          "duration": 0.001096489583346738
        },
        {
          "name": "C7",
          "midi": 96,
          "time": 150.26402898958472,
          "velocity": 0.7874015748031497,
          "duration": 0.001096489583346738
        },
        {
          "name": "D7",
          "midi": 98,
          "time": 150.26402898958472,
          "velocity": 0.7874015748031497,
          "duration": 0.001096489583346738
        },
        {
          "name": "D4",
          "midi": 62,
          "time": 150.79034398958473,
          "velocity": 0.7874015748031497,
          "duration": 0.001096489583346738
        },
        {
          "name": "D5",
          "midi": 74,
          "time": 150.79034398958473,
          "velocity": 0.7874015748031497,
          "duration": 0.001096489583346738
        },
        {
          "name": "C6",
          "midi": 84,
          "time": 150.79034398958473,
          "velocity": 0.7874015748031497,
          "duration": 0.001096489583346738
        },
        {
          "name": "D6",
          "midi": 86,
          "time": 150.79034398958473,
          "velocity": 0.7874015748031497,
          "duration": 0.001096489583346738
        },
        {
          "name": "C7",
          "midi": 96,
          "time": 150.79034398958473,
          "velocity": 0.7874015748031497,
          "duration": 0.001096489583346738
        },
        {
          "name": "D7",
          "midi": 98,
          "time": 150.79034398958473,
          "velocity": 0.7874015748031497,
          "duration": 0.001096489583346738
        },
        {
          "name": "C7",
          "midi": 96,
          "time": 150.9208262500014,
          "velocity": 0.7874015748031497,
          "duration": 0.001096489583346738
        },
        {
          "name": "C#4",
          "midi": 61,
          "time": 151.05240500000141,
          "velocity": 0.7874015748031497,
          "duration": 0.001096489583346738
        },
        {
          "name": "C#5",
          "midi": 73,
          "time": 151.05240500000141,
          "velocity": 0.7874015748031497,
          "duration": 0.001096489583346738
        },
        {
          "name": "C#6",
          "midi": 85,
          "time": 151.05240500000141,
          "velocity": 0.7874015748031497,
          "duration": 0.001096489583346738
        },
        {
          "name": "C#7",
          "midi": 97,
          "time": 151.05240500000141,
          "velocity": 0.7874015748031497,
          "duration": 0.001096489583346738
        },
        {
          "name": "D5",
          "midi": 74,
          "time": 151.31665898958477,
          "velocity": 0.7874015748031497,
          "duration": 0.001096489583346738
        },
        {
          "name": "D6",
          "midi": 86,
          "time": 151.31665898958477,
          "velocity": 0.7874015748031497,
          "duration": 0.001096489583346738
        },
        {
          "name": "C7",
          "midi": 96,
          "time": 151.31665898958477,
          "velocity": 0.7874015748031497,
          "duration": 0.001096489583346738
        },
        {
          "name": "D7",
          "midi": 98,
          "time": 151.31665898958477,
          "velocity": 0.7874015748031497,
          "duration": 0.001096489583346738
        },
        {
          "name": "C4",
          "midi": 60,
          "time": 151.57872000000145,
          "velocity": 0.7874015748031497,
          "duration": 0.001096489583346738
        },
        {
          "name": "C5",
          "midi": 72,
          "time": 151.57872000000145,
          "velocity": 0.7874015748031497,
          "duration": 0.001096489583346738
        },
        {
          "name": "C6",
          "midi": 84,
          "time": 151.57872000000145,
          "velocity": 0.7874015748031497,
          "duration": 0.001096489583346738
        },
        {
          "name": "C7",
          "midi": 96,
          "time": 151.57872000000145,
          "velocity": 0.7874015748031497,
          "duration": 0.001096489583346738
        },
        {
          "name": "D5",
          "midi": 74,
          "time": 151.84187750000146,
          "velocity": 0.7874015748031497,
          "duration": 0.001096489583346738
        },
        {
          "name": "D6",
          "midi": 86,
          "time": 151.84187750000146,
          "velocity": 0.7874015748031497,
          "duration": 0.001096489583346738
        },
        {
          "name": "C7",
          "midi": 96,
          "time": 151.84187750000146,
          "velocity": 0.7874015748031497,
          "duration": 0.001096489583346738
        },
        {
          "name": "D7",
          "midi": 98,
          "time": 151.84187750000146,
          "velocity": 0.7874015748031497,
          "duration": 0.001096489583346738
        },
        {
          "name": "C7",
          "midi": 96,
          "time": 151.97345625000148,
          "velocity": 0.7874015748031497,
          "duration": 0.001096489583346738
        },
        {
          "name": "C#4",
          "midi": 61,
          "time": 152.1050350000015,
          "velocity": 0.7874015748031497,
          "duration": 0.001096489583346738
        },
        {
          "name": "C#5",
          "midi": 73,
          "time": 152.1050350000015,
          "velocity": 0.7874015748031497,
          "duration": 0.001096489583346738
        },
        {
          "name": "C#6",
          "midi": 85,
          "time": 152.1050350000015,
          "velocity": 0.7874015748031497,
          "duration": 0.001096489583346738
        },
        {
          "name": "C#7",
          "midi": 97,
          "time": 152.1050350000015,
          "velocity": 0.7874015748031497,
          "duration": 0.001096489583346738
        },
        {
          "name": "D4",
          "midi": 62,
          "time": 152.36928898958485,
          "velocity": 0.7874015748031497,
          "duration": 0.001096489583346738
        },
        {
          "name": "D5",
          "midi": 74,
          "time": 152.36928898958485,
          "velocity": 0.7874015748031497,
          "duration": 0.001096489583346738
        },
        {
          "name": "D6",
          "midi": 86,
          "time": 152.36928898958485,
          "velocity": 0.7874015748031497,
          "duration": 0.001096489583346738
        },
        {
          "name": "C7",
          "midi": 96,
          "time": 152.36928898958485,
          "velocity": 0.7874015748031497,
          "duration": 0.001096489583346738
        },
        {
          "name": "D7",
          "midi": 98,
          "time": 152.36928898958485,
          "velocity": 0.7874015748031497,
          "duration": 0.001096489583346738
        },
        {
          "name": "D4",
          "midi": 62,
          "time": 152.89560398958486,
          "velocity": 0.7874015748031497,
          "duration": 0.001096489583346738
        },
        {
          "name": "D5",
          "midi": 74,
          "time": 152.89560398958486,
          "velocity": 0.7874015748031497,
          "duration": 0.001096489583346738
        },
        {
          "name": "C6",
          "midi": 84,
          "time": 152.89560398958486,
          "velocity": 0.7874015748031497,
          "duration": 0.001096489583346738
        },
        {
          "name": "D6",
          "midi": 86,
          "time": 152.89560398958486,
          "velocity": 0.7874015748031497,
          "duration": 0.001096489583346738
        },
        {
          "name": "C7",
          "midi": 96,
          "time": 152.89560398958486,
          "velocity": 0.7874015748031497,
          "duration": 0.001096489583346738
        },
        {
          "name": "D7",
          "midi": 98,
          "time": 152.89560398958486,
          "velocity": 0.7874015748031497,
          "duration": 0.001096489583346738
        },
        {
          "name": "C7",
          "midi": 96,
          "time": 153.02718273958487,
          "velocity": 0.7874015748031497,
          "duration": 0.001096489583346738
        },
        {
          "name": "C#4",
          "midi": 61,
          "time": 153.15766500000154,
          "velocity": 0.7874015748031497,
          "duration": 0.001096489583346738
        },
        {
          "name": "C#5",
          "midi": 73,
          "time": 153.15766500000154,
          "velocity": 0.7874015748031497,
          "duration": 0.001096489583346738
        },
        {
          "name": "C#6",
          "midi": 85,
          "time": 153.15766500000154,
          "velocity": 0.7874015748031497,
          "duration": 0.001096489583346738
        },
        {
          "name": "C#7",
          "midi": 97,
          "time": 153.15766500000154,
          "velocity": 0.7874015748031497,
          "duration": 0.001096489583346738
        },
        {
          "name": "C#7",
          "midi": 97,
          "time": 153.28924375000156,
          "velocity": 0.7874015748031497,
          "duration": 0.001096489583346738
        },
        {
          "name": "D5",
          "midi": 74,
          "time": 153.42082250000158,
          "velocity": 0.7874015748031497,
          "duration": 0.001096489583346738
        },
        {
          "name": "C6",
          "midi": 84,
          "time": 153.42082250000158,
          "velocity": 0.7874015748031497,
          "duration": 0.001096489583346738
        },
        {
          "name": "D6",
          "midi": 86,
          "time": 153.42082250000158,
          "velocity": 0.7874015748031497,
          "duration": 0.001096489583346738
        },
        {
          "name": "C7",
          "midi": 96,
          "time": 153.42082250000158,
          "velocity": 0.7874015748031497,
          "duration": 0.001096489583346738
        },
        {
          "name": "D7",
          "midi": 98,
          "time": 153.42082250000158,
          "velocity": 0.7874015748031497,
          "duration": 0.001096489583346738
        },
        {
          "name": "C#4",
          "midi": 61,
          "time": 153.68398000000158,
          "velocity": 0.7874015748031497,
          "duration": 0.001096489583346738
        },
        {
          "name": "C#5",
          "midi": 73,
          "time": 153.68398000000158,
          "velocity": 0.7874015748031497,
          "duration": 0.001096489583346738
        },
        {
          "name": "C#6",
          "midi": 85,
          "time": 153.68398000000158,
          "velocity": 0.7874015748031497,
          "duration": 0.001096489583346738
        },
        {
          "name": "C#7",
          "midi": 97,
          "time": 153.68398000000158,
          "velocity": 0.7874015748031497,
          "duration": 0.001096489583346738
        },
        {
          "name": "C#7",
          "midi": 97,
          "time": 153.7727956562516,
          "velocity": 0.7874015748031497,
          "duration": 0.001096489583346738
        },
        {
          "name": "C#6",
          "midi": 85,
          "time": 153.85941833333493,
          "velocity": 0.7874015748031497,
          "duration": 0.001096489583346738
        },
        {
          "name": "C#7",
          "midi": 97,
          "time": 153.85941833333493,
          "velocity": 0.7874015748031497,
          "duration": 0.001096489583346738
        },
        {
          "name": "C#5",
          "midi": 73,
          "time": 153.94713750000162,
          "velocity": 0.7874015748031497,
          "duration": 0.001096489583346738
        },
        {
          "name": "C#7",
          "midi": 97,
          "time": 153.94713750000162,
          "velocity": 0.7874015748031497,
          "duration": 0.001096489583346738
        },
        {
          "name": "D#6",
          "midi": 87,
          "time": 154.03595315625162,
          "velocity": 0.7874015748031497,
          "duration": 0.001096489583346738
        },
        {
          "name": "D#7",
          "midi": 99,
          "time": 154.03595315625162,
          "velocity": 0.7874015748031497,
          "duration": 0.001096489583346738
        },
        {
          "name": "D#5",
          "midi": 75,
          "time": 154.07981273958498,
          "velocity": 0.7874015748031497,
          "duration": 0.001096489583346738
        },
        {
          "name": "D#7",
          "midi": 99,
          "time": 154.122575833335,
          "velocity": 0.7874015748031497,
          "duration": 0.001096489583346738
        },
        {
          "name": "D#4",
          "midi": 63,
          "time": 154.21029500000168,
          "velocity": 0.7874015748031497,
          "duration": 0.001096489583346738
        },
        {
          "name": "D#6",
          "midi": 87,
          "time": 154.21029500000168,
          "velocity": 0.7874015748031497,
          "duration": 0.001096489583346738
        },
        {
          "name": "D#7",
          "midi": 99,
          "time": 154.21029500000168,
          "velocity": 0.7874015748031497,
          "duration": 0.001096489583346738
        },
        {
          "name": "D#7",
          "midi": 99,
          "time": 154.29801416666837,
          "velocity": 0.7874015748031497,
          "duration": 0.001096489583346738
        },
        {
          "name": "D#5",
          "midi": 75,
          "time": 154.34187375000172,
          "velocity": 0.7874015748031497,
          "duration": 0.001096489583346738
        },
        {
          "name": "D#6",
          "midi": 87,
          "time": 154.38573333333508,
          "velocity": 0.7874015748031497,
          "duration": 0.001096489583346738
        },
        {
          "name": "D#7",
          "midi": 99,
          "time": 154.38573333333508,
          "velocity": 0.7874015748031497,
          "duration": 0.001096489583346738
        },
        {
          "name": "D#7",
          "midi": 99,
          "time": 154.4745489895851,
          "velocity": 0.7874015748031497,
          "duration": 0.001096489583346738
        },
        {
          "name": "D#6",
          "midi": 87,
          "time": 154.56117166666843,
          "velocity": 0.7874015748031497,
          "duration": 0.001096489583346738
        },
        {
          "name": "D#7",
          "midi": 99,
          "time": 154.56117166666843,
          "velocity": 0.7874015748031497,
          "duration": 0.001096489583346738
        },
        {
          "name": "D#5",
          "midi": 75,
          "time": 154.6050312500018,
          "velocity": 0.7874015748031497,
          "duration": 0.001096489583346738
        },
        {
          "name": "D#7",
          "midi": 99,
          "time": 154.64889083333514,
          "velocity": 0.7874015748031497,
          "duration": 0.001096489583346738
        },
        {
          "name": "D#4",
          "midi": 63,
          "time": 154.73661000000183,
          "velocity": 0.7874015748031497,
          "duration": 0.001096489583346738
        },
        {
          "name": "D#6",
          "midi": 87,
          "time": 154.73661000000183,
          "velocity": 0.7874015748031497,
          "duration": 0.001096489583346738
        },
        {
          "name": "D#7",
          "midi": 99,
          "time": 154.73661000000183,
          "velocity": 0.7874015748031497,
          "duration": 0.001096489583346738
        },
        {
          "name": "F7",
          "midi": 101,
          "time": 154.82432916666852,
          "velocity": 0.7874015748031497,
          "duration": 0.001096489583346738
        },
        {
          "name": "D#5",
          "midi": 75,
          "time": 154.86709226041853,
          "velocity": 0.7874015748031497,
          "duration": 0.001096489583346738
        },
        {
          "name": "F6",
          "midi": 89,
          "time": 154.9120483333352,
          "velocity": 0.7874015748031497,
          "duration": 0.001096489583346738
        },
        {
          "name": "F7",
          "midi": 101,
          "time": 154.9120483333352,
          "velocity": 0.7874015748031497,
          "duration": 0.001096489583346738
        },
        {
          "name": "F7",
          "midi": 101,
          "time": 154.9997675000019,
          "velocity": 0.7874015748031497,
          "duration": 0.001096489583346738
        },
        {
          "name": "F6",
          "midi": 89,
          "time": 155.08748666666858,
          "velocity": 0.7874015748031497,
          "duration": 0.001096489583346738
        },
        {
          "name": "F7",
          "midi": 101,
          "time": 155.08748666666858,
          "velocity": 0.7874015748031497,
          "duration": 0.001096489583346738
        },
        {
          "name": "F5",
          "midi": 77,
          "time": 155.1302497604186,
          "velocity": 0.7874015748031497,
          "duration": 0.001096489583346738
        },
        {
          "name": "F7",
          "midi": 101,
          "time": 155.17520583333527,
          "velocity": 0.7874015748031497,
          "duration": 0.001096489583346738
        },
        {
          "name": "F4",
          "midi": 65,
          "time": 155.26292500000196,
          "velocity": 0.7874015748031497,
          "duration": 0.001096489583346738
        },
        {
          "name": "F6",
          "midi": 89,
          "time": 155.26292500000196,
          "velocity": 0.7874015748031497,
          "duration": 0.001096489583346738
        },
        {
          "name": "F7",
          "midi": 101,
          "time": 155.26292500000196,
          "velocity": 0.7874015748031497,
          "duration": 0.001096489583346738
        },
        {
          "name": "F5",
          "midi": 77,
          "time": 155.39340726041863,
          "velocity": 0.7874015748031497,
          "duration": 0.001096489583346738
        },
        {
          "name": "F7",
          "midi": 101,
          "time": 155.39340726041863,
          "velocity": 0.7874015748031497,
          "duration": 0.001096489583346738
        },
        {
          "name": "F6",
          "midi": 89,
          "time": 155.52608250000196,
          "velocity": 0.7874015748031497,
          "duration": 0.001096489583346738
        },
        {
          "name": "F7",
          "midi": 101,
          "time": 155.52608250000196,
          "velocity": 0.7874015748031497,
          "duration": 0.001096489583346738
        },
        {
          "name": "F5",
          "midi": 77,
          "time": 155.65656476041863,
          "velocity": 0.7874015748031497,
          "duration": 0.001096489583346738
        },
        {
          "name": "F7",
          "midi": 101,
          "time": 155.65656476041863,
          "velocity": 0.7874015748031497,
          "duration": 0.001096489583346738
        },
        {
          "name": "E4",
          "midi": 64,
          "time": 155.78924000000197,
          "velocity": 0.7874015748031497,
          "duration": 0.001096489583346738
        },
        {
          "name": "C5",
          "midi": 72,
          "time": 155.78924000000197,
          "velocity": 0.7874015748031497,
          "duration": 0.001096489583346738
        },
        {
          "name": "E5",
          "midi": 76,
          "time": 155.78924000000197,
          "velocity": 0.7874015748031497,
          "duration": 0.001096489583346738
        },
        {
          "name": "C6",
          "midi": 84,
          "time": 155.78924000000197,
          "velocity": 0.7874015748031497,
          "duration": 0.001096489583346738
        },
        {
          "name": "E6",
          "midi": 88,
          "time": 155.78924000000197,
          "velocity": 0.7874015748031497,
          "duration": 0.001096489583346738
        },
        {
          "name": "C7",
          "midi": 96,
          "time": 155.78924000000197,
          "velocity": 0.7874015748031497,
          "duration": 0.001096489583346738
        },
        {
          "name": "E7",
          "midi": 100,
          "time": 155.78924000000197,
          "velocity": 0.7874015748031497,
          "duration": 0.001096489583346738
        },
        {
          "name": "D6",
          "midi": 86,
          "time": 156.05130101041865,
          "velocity": 0.7874015748031497,
          "duration": 0.001096489583346738
        },
        {
          "name": "D7",
          "midi": 98,
          "time": 156.05130101041865,
          "velocity": 0.7874015748031497,
          "duration": 0.001096489583346738
        },
        {
          "name": "C#4",
          "midi": 61,
          "time": 156.315555000002,
          "velocity": 0.7874015748031497,
          "duration": 0.001096489583346738
        },
        {
          "name": "C#5",
          "midi": 73,
          "time": 156.315555000002,
          "velocity": 0.7874015748031497,
          "duration": 0.001096489583346738
        },
        {
          "name": "C#6",
          "midi": 85,
          "time": 156.315555000002,
          "velocity": 0.7874015748031497,
          "duration": 0.001096489583346738
        },
        {
          "name": "C#7",
          "midi": 97,
          "time": 156.315555000002,
          "velocity": 0.7874015748031497,
          "duration": 0.001096489583346738
        },
        {
          "name": "D4",
          "midi": 62,
          "time": 156.57980898958536,
          "velocity": 0.7874015748031497,
          "duration": 0.001096489583346738
        },
        {
          "name": "D5",
          "midi": 74,
          "time": 156.57980898958536,
          "velocity": 0.7874015748031497,
          "duration": 0.001096489583346738
        },
        {
          "name": "D6",
          "midi": 86,
          "time": 156.57980898958536,
          "velocity": 0.7874015748031497,
          "duration": 0.001096489583346738
        },
        {
          "name": "D7",
          "midi": 98,
          "time": 156.57980898958536,
          "velocity": 0.7874015748031497,
          "duration": 0.001096489583346738
        },
        {
          "name": "C7",
          "midi": 96,
          "time": 156.84187000000205,
          "velocity": 0.7874015748031497,
          "duration": 0.001096489583346738
        },
        {
          "name": "D4",
          "midi": 62,
          "time": 157.10393101041873,
          "velocity": 0.7874015748031497,
          "duration": 0.001096489583346738
        },
        {
          "name": "D5",
          "midi": 74,
          "time": 157.10393101041873,
          "velocity": 0.7874015748031497,
          "duration": 0.001096489583346738
        },
        {
          "name": "D6",
          "midi": 86,
          "time": 157.10393101041873,
          "velocity": 0.7874015748031497,
          "duration": 0.001096489583346738
        },
        {
          "name": "C7",
          "midi": 96,
          "time": 157.10393101041873,
          "velocity": 0.7874015748031497,
          "duration": 0.001096489583346738
        },
        {
          "name": "D7",
          "midi": 98,
          "time": 157.10393101041873,
          "velocity": 0.7874015748031497,
          "duration": 0.001096489583346738
        },
        {
          "name": "C7",
          "midi": 96,
          "time": 157.23660625000207,
          "velocity": 0.7874015748031497,
          "duration": 0.001096489583346738
        },
        {
          "name": "C#4",
          "midi": 61,
          "time": 157.3681850000021,
          "velocity": 0.7874015748031497,
          "duration": 0.001096489583346738
        },
        {
          "name": "C#5",
          "midi": 73,
          "time": 157.3681850000021,
          "velocity": 0.7874015748031497,
          "duration": 0.001096489583346738
        },
        {
          "name": "C#6",
          "midi": 85,
          "time": 157.3681850000021,
          "velocity": 0.7874015748031497,
          "duration": 0.001096489583346738
        },
        {
          "name": "C#7",
          "midi": 97,
          "time": 157.3681850000021,
          "velocity": 0.7874015748031497,
          "duration": 0.001096489583346738
        },
        {
          "name": "D5",
          "midi": 74,
          "time": 157.6313425000021,
          "velocity": 0.7874015748031497,
          "duration": 0.001096489583346738
        },
        {
          "name": "D6",
          "midi": 86,
          "time": 157.6313425000021,
          "velocity": 0.7874015748031497,
          "duration": 0.001096489583346738
        },
        {
          "name": "C7",
          "midi": 96,
          "time": 157.6313425000021,
          "velocity": 0.7874015748031497,
          "duration": 0.001096489583346738
        },
        {
          "name": "D7",
          "midi": 98,
          "time": 157.6313425000021,
          "velocity": 0.7874015748031497,
          "duration": 0.001096489583346738
        },
        {
          "name": "C4",
          "midi": 60,
          "time": 157.8945000000021,
          "velocity": 0.7874015748031497,
          "duration": 0.001096489583346738
        },
        {
          "name": "C5",
          "midi": 72,
          "time": 157.8945000000021,
          "velocity": 0.7874015748031497,
          "duration": 0.001096489583346738
        },
        {
          "name": "C6",
          "midi": 84,
          "time": 157.8945000000021,
          "velocity": 0.7874015748031497,
          "duration": 0.001096489583346738
        },
        {
          "name": "C7",
          "midi": 96,
          "time": 157.8945000000021,
          "velocity": 0.7874015748031497,
          "duration": 0.001096489583346738
        },
        {
          "name": "D5",
          "midi": 74,
          "time": 158.15656101041878,
          "velocity": 0.7874015748031497,
          "duration": 0.001096489583346738
        },
        {
          "name": "D6",
          "midi": 86,
          "time": 158.15656101041878,
          "velocity": 0.7874015748031497,
          "duration": 0.001096489583346738
        },
        {
          "name": "C7",
          "midi": 96,
          "time": 158.15656101041878,
          "velocity": 0.7874015748031497,
          "duration": 0.001096489583346738
        },
        {
          "name": "D7",
          "midi": 98,
          "time": 158.15656101041878,
          "velocity": 0.7874015748031497,
          "duration": 0.001096489583346738
        },
        {
          "name": "C7",
          "midi": 96,
          "time": 158.28923625000212,
          "velocity": 0.7874015748031497,
          "duration": 0.001096489583346738
        },
        {
          "name": "C#4",
          "midi": 61,
          "time": 158.42081500000214,
          "velocity": 0.7874015748031497,
          "duration": 0.001096489583346738
        },
        {
          "name": "C#5",
          "midi": 73,
          "time": 158.42081500000214,
          "velocity": 0.7874015748031497,
          "duration": 0.001096489583346738
        },
        {
          "name": "C#6",
          "midi": 85,
          "time": 158.42081500000214,
          "velocity": 0.7874015748031497,
          "duration": 0.001096489583346738
        },
        {
          "name": "C#7",
          "midi": 97,
          "time": 158.42081500000214,
          "velocity": 0.7874015748031497,
          "duration": 0.001096489583346738
        },
        {
          "name": "D4",
          "midi": 62,
          "time": 158.6850689895855,
          "velocity": 0.7874015748031497,
          "duration": 0.001096489583346738
        },
        {
          "name": "D5",
          "midi": 74,
          "time": 158.6850689895855,
          "velocity": 0.7874015748031497,
          "duration": 0.001096489583346738
        },
        {
          "name": "D6",
          "midi": 86,
          "time": 158.6850689895855,
          "velocity": 0.7874015748031497,
          "duration": 0.001096489583346738
        },
        {
          "name": "C7",
          "midi": 96,
          "time": 158.6850689895855,
          "velocity": 0.7874015748031497,
          "duration": 0.001096489583346738
        },
        {
          "name": "D7",
          "midi": 98,
          "time": 158.6850689895855,
          "velocity": 0.7874015748031497,
          "duration": 0.001096489583346738
        },
        {
          "name": "D4",
          "midi": 62,
          "time": 159.2113839895855,
          "velocity": 0.7874015748031497,
          "duration": 0.001096489583346738
        },
        {
          "name": "D5",
          "midi": 74,
          "time": 159.2113839895855,
          "velocity": 0.7874015748031497,
          "duration": 0.001096489583346738
        },
        {
          "name": "C6",
          "midi": 84,
          "time": 159.2113839895855,
          "velocity": 0.7874015748031497,
          "duration": 0.001096489583346738
        },
        {
          "name": "D6",
          "midi": 86,
          "time": 159.2113839895855,
          "velocity": 0.7874015748031497,
          "duration": 0.001096489583346738
        },
        {
          "name": "C7",
          "midi": 96,
          "time": 159.2113839895855,
          "velocity": 0.7874015748031497,
          "duration": 0.001096489583346738
        },
        {
          "name": "D7",
          "midi": 98,
          "time": 159.2113839895855,
          "velocity": 0.7874015748031497,
          "duration": 0.001096489583346738
        },
        {
          "name": "C7",
          "midi": 96,
          "time": 159.34186625000217,
          "velocity": 0.7874015748031497,
          "duration": 0.001096489583346738
        },
        {
          "name": "C#4",
          "midi": 61,
          "time": 159.4734450000022,
          "velocity": 0.7874015748031497,
          "duration": 0.001096489583346738
        },
        {
          "name": "C#5",
          "midi": 73,
          "time": 159.4734450000022,
          "velocity": 0.7874015748031497,
          "duration": 0.001096489583346738
        },
        {
          "name": "C#6",
          "midi": 85,
          "time": 159.4734450000022,
          "velocity": 0.7874015748031497,
          "duration": 0.001096489583346738
        },
        {
          "name": "C#7",
          "midi": 97,
          "time": 159.4734450000022,
          "velocity": 0.7874015748031497,
          "duration": 0.001096489583346738
        },
        {
          "name": "C#7",
          "midi": 97,
          "time": 159.6050237500022,
          "velocity": 0.7874015748031497,
          "duration": 0.001096489583346738
        },
        {
          "name": "D5",
          "midi": 74,
          "time": 159.73660250000222,
          "velocity": 0.7874015748031497,
          "duration": 0.001096489583346738
        },
        {
          "name": "D6",
          "midi": 86,
          "time": 159.73660250000222,
          "velocity": 0.7874015748031497,
          "duration": 0.001096489583346738
        },
        {
          "name": "C7",
          "midi": 96,
          "time": 159.73660250000222,
          "velocity": 0.7874015748031497,
          "duration": 0.001096489583346738
        },
        {
          "name": "D7",
          "midi": 98,
          "time": 159.73660250000222,
          "velocity": 0.7874015748031497,
          "duration": 0.001096489583346738
        },
        {
          "name": "C4",
          "midi": 60,
          "time": 159.99976000000223,
          "velocity": 0.7874015748031497,
          "duration": 0.001096489583346738
        },
        {
          "name": "C5",
          "midi": 72,
          "time": 159.99976000000223,
          "velocity": 0.7874015748031497,
          "duration": 0.001096489583346738
        },
        {
          "name": "C6",
          "midi": 84,
          "time": 159.99976000000223,
          "velocity": 0.7874015748031497,
          "duration": 0.001096489583346738
        },
        {
          "name": "C7",
          "midi": 96,
          "time": 159.99976000000223,
          "velocity": 0.7874015748031497,
          "duration": 0.001096489583346738
        },
        {
          "name": "D5",
          "midi": 74,
          "time": 160.26401398958558,
          "velocity": 0.7874015748031497,
          "duration": 0.001096489583346738
        },
        {
          "name": "D6",
          "midi": 86,
          "time": 160.26401398958558,
          "velocity": 0.7874015748031497,
          "duration": 0.001096489583346738
        },
        {
          "name": "C7",
          "midi": 96,
          "time": 160.26401398958558,
          "velocity": 0.7874015748031497,
          "duration": 0.001096489583346738
        },
        {
          "name": "D7",
          "midi": 98,
          "time": 160.26401398958558,
          "velocity": 0.7874015748031497,
          "duration": 0.001096489583346738
        },
        {
          "name": "C7",
          "midi": 96,
          "time": 160.39449625000225,
          "velocity": 0.7874015748031497,
          "duration": 0.001096489583346738
        },
        {
          "name": "C#4",
          "midi": 61,
          "time": 160.52607500000227,
          "velocity": 0.7874015748031497,
          "duration": 0.001096489583346738
        },
        {
          "name": "C#5",
          "midi": 73,
          "time": 160.52607500000227,
          "velocity": 0.7874015748031497,
          "duration": 0.001096489583346738
        },
        {
          "name": "C#6",
          "midi": 85,
          "time": 160.52607500000227,
          "velocity": 0.7874015748031497,
          "duration": 0.001096489583346738
        },
        {
          "name": "C#7",
          "midi": 97,
          "time": 160.52607500000227,
          "velocity": 0.7874015748031497,
          "duration": 0.001096489583346738
        },
        {
          "name": "D4",
          "midi": 62,
          "time": 160.78923250000227,
          "velocity": 0.7874015748031497,
          "duration": 0.001096489583346738
        },
        {
          "name": "D5",
          "midi": 74,
          "time": 160.78923250000227,
          "velocity": 0.7874015748031497,
          "duration": 0.001096489583346738
        },
        {
          "name": "D6",
          "midi": 86,
          "time": 160.78923250000227,
          "velocity": 0.7874015748031497,
          "duration": 0.001096489583346738
        },
        {
          "name": "C7",
          "midi": 96,
          "time": 160.78923250000227,
          "velocity": 0.7874015748031497,
          "duration": 0.001096489583346738
        },
        {
          "name": "D7",
          "midi": 98,
          "time": 160.78923250000227,
          "velocity": 0.7874015748031497,
          "duration": 0.001096489583346738
        },
        {
          "name": "D4",
          "midi": 62,
          "time": 161.31664398958563,
          "velocity": 0.7874015748031497,
          "duration": 0.001096489583346738
        },
        {
          "name": "D5",
          "midi": 74,
          "time": 161.31664398958563,
          "velocity": 0.7874015748031497,
          "duration": 0.001096489583346738
        },
        {
          "name": "C6",
          "midi": 84,
          "time": 161.31664398958563,
          "velocity": 0.7874015748031497,
          "duration": 0.001096489583346738
        },
        {
          "name": "D6",
          "midi": 86,
          "time": 161.31664398958563,
          "velocity": 0.7874015748031497,
          "duration": 0.001096489583346738
        },
        {
          "name": "C7",
          "midi": 96,
          "time": 161.31664398958563,
          "velocity": 0.7874015748031497,
          "duration": 0.001096489583346738
        },
        {
          "name": "D7",
          "midi": 98,
          "time": 161.31664398958563,
          "velocity": 0.7874015748031497,
          "duration": 0.001096489583346738
        },
        {
          "name": "C7",
          "midi": 96,
          "time": 161.4471262500023,
          "velocity": 0.7874015748031497,
          "duration": 0.001096489583346738
        },
        {
          "name": "C#5",
          "midi": 73,
          "time": 161.57870500000232,
          "velocity": 0.7874015748031497,
          "duration": 0.001096489583346738
        },
        {
          "name": "C#6",
          "midi": 85,
          "time": 161.57870500000232,
          "velocity": 0.7874015748031497,
          "duration": 0.001096489583346738
        },
        {
          "name": "C#7",
          "midi": 97,
          "time": 161.57870500000232,
          "velocity": 0.7874015748031497,
          "duration": 0.001096489583346738
        },
        {
          "name": "D4",
          "midi": 62,
          "time": 161.709187260419,
          "velocity": 0.7874015748031497,
          "duration": 0.001096489583346738
        },
        {
          "name": "D5",
          "midi": 74,
          "time": 161.709187260419,
          "velocity": 0.7874015748031497,
          "duration": 0.001096489583346738
        },
        {
          "name": "C6",
          "midi": 84,
          "time": 161.709187260419,
          "velocity": 0.7874015748031497,
          "duration": 0.001096489583346738
        },
        {
          "name": "D6",
          "midi": 86,
          "time": 161.709187260419,
          "velocity": 0.7874015748031497,
          "duration": 0.001096489583346738
        },
        {
          "name": "C7",
          "midi": 96,
          "time": 161.709187260419,
          "velocity": 0.7874015748031497,
          "duration": 0.001096489583346738
        },
        {
          "name": "D7",
          "midi": 98,
          "time": 161.709187260419,
          "velocity": 0.7874015748031497,
          "duration": 0.001096489583346738
        },
        {
          "name": "C#5",
          "midi": 73,
          "time": 161.929581666669,
          "velocity": 0.7874015748031497,
          "duration": 0.001096489583346738
        },
        {
          "name": "C#6",
          "midi": 85,
          "time": 161.97234476041902,
          "velocity": 0.7874015748031497,
          "duration": 0.001096489583346738
        },
        {
          "name": "C#7",
          "midi": 97,
          "time": 161.97234476041902,
          "velocity": 0.7874015748031497,
          "duration": 0.001096489583346738
        },
        {
          "name": "E4",
          "midi": 64,
          "time": 162.10502000000236,
          "velocity": 0.7874015748031497,
          "duration": 0.001096489583346738
        },
        {
          "name": "C5",
          "midi": 72,
          "time": 162.10502000000236,
          "velocity": 0.7874015748031497,
          "duration": 0.001096489583346738
        },
        {
          "name": "E5",
          "midi": 76,
          "time": 162.10502000000236,
          "velocity": 0.7874015748031497,
          "duration": 0.001096489583346738
        },
        {
          "name": "C6",
          "midi": 84,
          "time": 162.10502000000236,
          "velocity": 0.7874015748031497,
          "duration": 0.001096489583346738
        },
        {
          "name": "E6",
          "midi": 88,
          "time": 162.10502000000236,
          "velocity": 0.7874015748031497,
          "duration": 0.001096489583346738
        },
        {
          "name": "C7",
          "midi": 96,
          "time": 162.10502000000236,
          "velocity": 0.7874015748031497,
          "duration": 0.001096489583346738
        },
        {
          "name": "E7",
          "midi": 100,
          "time": 162.10502000000236,
          "velocity": 0.7874015748031497,
          "duration": 0.001096489583346738
        },
        {
          "name": "G#8",
          "midi": 116,
          "time": 164.21028000000237,
          "velocity": 0.7874015748031497,
          "duration": 2.696267885416802
        },
        {
          "name": "E4",
          "midi": 64,
          "time": 164.21028000000237,
          "velocity": 0.7874015748031497,
          "duration": 0.001096489583346738
        },
        {
          "name": "C5",
          "midi": 72,
          "time": 164.21028000000237,
          "velocity": 0.7874015748031497,
          "duration": 0.001096489583346738
        },
        {
          "name": "E5",
          "midi": 76,
          "time": 164.21028000000237,
          "velocity": 0.7874015748031497,
          "duration": 0.001096489583346738
        },
        {
          "name": "C6",
          "midi": 84,
          "time": 164.21028000000237,
          "velocity": 0.7874015748031497,
          "duration": 0.001096489583346738
        },
        {
          "name": "E6",
          "midi": 88,
          "time": 164.21028000000237,
          "velocity": 0.7874015748031497,
          "duration": 0.001096489583346738
        },
        {
          "name": "C7",
          "midi": 96,
          "time": 164.21028000000237,
          "velocity": 0.7874015748031497,
          "duration": 0.001096489583346738
        },
        {
          "name": "E7",
          "midi": 100,
          "time": 164.21028000000237,
          "velocity": 0.7874015748031497,
          "duration": 0.001096489583346738
        },
        {
          "name": "G7",
          "midi": 103,
          "time": 164.21028000000237,
          "velocity": 0.7874015748031497,
          "duration": 8.485732885417377
        },
        {
          "name": "D6",
          "midi": 86,
          "time": 164.47343750000238,
          "velocity": 0.7874015748031497,
          "duration": 0.001096489583346738
        },
        {
          "name": "D7",
          "midi": 98,
          "time": 164.47343750000238,
          "velocity": 0.7874015748031497,
          "duration": 0.001096489583346738
        },
        {
          "name": "C#4",
          "midi": 61,
          "time": 164.73659500000238,
          "velocity": 0.7874015748031497,
          "duration": 0.001096489583346738
        },
        {
          "name": "C#5",
          "midi": 73,
          "time": 164.73659500000238,
          "velocity": 0.7874015748031497,
          "duration": 0.001096489583346738
        },
        {
          "name": "C#6",
          "midi": 85,
          "time": 164.73659500000238,
          "velocity": 0.7874015748031497,
          "duration": 0.001096489583346738
        },
        {
          "name": "C#7",
          "midi": 97,
          "time": 164.73659500000238,
          "velocity": 0.7874015748031497,
          "duration": 0.001096489583346738
        },
        {
          "name": "D4",
          "midi": 62,
          "time": 164.99865601041907,
          "velocity": 0.7874015748031497,
          "duration": 0.001096489583346738
        },
        {
          "name": "D5",
          "midi": 74,
          "time": 164.99865601041907,
          "velocity": 0.7874015748031497,
          "duration": 0.001096489583346738
        },
        {
          "name": "D6",
          "midi": 86,
          "time": 164.99865601041907,
          "velocity": 0.7874015748031497,
          "duration": 0.001096489583346738
        },
        {
          "name": "D7",
          "midi": 98,
          "time": 164.99865601041907,
          "velocity": 0.7874015748031497,
          "duration": 0.001096489583346738
        },
        {
          "name": "C7",
          "midi": 96,
          "time": 165.26291000000242,
          "velocity": 0.7874015748031497,
          "duration": 0.001096489583346738
        },
        {
          "name": "D4",
          "midi": 62,
          "time": 165.5249710104191,
          "velocity": 0.7874015748031497,
          "duration": 0.001096489583346738
        },
        {
          "name": "D5",
          "midi": 74,
          "time": 165.5249710104191,
          "velocity": 0.7874015748031497,
          "duration": 0.001096489583346738
        },
        {
          "name": "D6",
          "midi": 86,
          "time": 165.5249710104191,
          "velocity": 0.7874015748031497,
          "duration": 0.001096489583346738
        },
        {
          "name": "C7",
          "midi": 96,
          "time": 165.5249710104191,
          "velocity": 0.7874015748031497,
          "duration": 0.001096489583346738
        },
        {
          "name": "D7",
          "midi": 98,
          "time": 165.5249710104191,
          "velocity": 0.7874015748031497,
          "duration": 0.001096489583346738
        },
        {
          "name": "C7",
          "midi": 96,
          "time": 165.65764625000244,
          "velocity": 0.7874015748031497,
          "duration": 0.001096489583346738
        },
        {
          "name": "C#4",
          "midi": 61,
          "time": 165.78922500000246,
          "velocity": 0.7874015748031497,
          "duration": 0.001096489583346738
        },
        {
          "name": "C#5",
          "midi": 73,
          "time": 165.78922500000246,
          "velocity": 0.7874015748031497,
          "duration": 0.001096489583346738
        },
        {
          "name": "C#6",
          "midi": 85,
          "time": 165.78922500000246,
          "velocity": 0.7874015748031497,
          "duration": 0.001096489583346738
        },
        {
          "name": "C#7",
          "midi": 97,
          "time": 165.78922500000246,
          "velocity": 0.7874015748031497,
          "duration": 0.001096489583346738
        },
        {
          "name": "D5",
          "midi": 74,
          "time": 166.05238250000247,
          "velocity": 0.7874015748031497,
          "duration": 0.001096489583346738
        },
        {
          "name": "D6",
          "midi": 86,
          "time": 166.05238250000247,
          "velocity": 0.7874015748031497,
          "duration": 0.001096489583346738
        },
        {
          "name": "C7",
          "midi": 96,
          "time": 166.05238250000247,
          "velocity": 0.7874015748031497,
          "duration": 0.001096489583346738
        },
        {
          "name": "D7",
          "midi": 98,
          "time": 166.05238250000247,
          "velocity": 0.7874015748031497,
          "duration": 0.001096489583346738
        },
        {
          "name": "C4",
          "midi": 60,
          "time": 166.31554000000247,
          "velocity": 0.7874015748031497,
          "duration": 0.001096489583346738
        },
        {
          "name": "C5",
          "midi": 72,
          "time": 166.31554000000247,
          "velocity": 0.7874015748031497,
          "duration": 0.001096489583346738
        },
        {
          "name": "C6",
          "midi": 84,
          "time": 166.31554000000247,
          "velocity": 0.7874015748031497,
          "duration": 0.001096489583346738
        },
        {
          "name": "C7",
          "midi": 96,
          "time": 166.31554000000247,
          "velocity": 0.7874015748031497,
          "duration": 0.001096489583346738
        },
        {
          "name": "D5",
          "midi": 74,
          "time": 166.57869750000248,
          "velocity": 0.7874015748031497,
          "duration": 0.001096489583346738
        },
        {
          "name": "D6",
          "midi": 86,
          "time": 166.57869750000248,
          "velocity": 0.7874015748031497,
          "duration": 0.001096489583346738
        },
        {
          "name": "C7",
          "midi": 96,
          "time": 166.57869750000248,
          "velocity": 0.7874015748031497,
          "duration": 0.001096489583346738
        },
        {
          "name": "D7",
          "midi": 98,
          "time": 166.57869750000248,
          "velocity": 0.7874015748031497,
          "duration": 0.001096489583346738
        },
        {
          "name": "C7",
          "midi": 96,
          "time": 166.70917976041915,
          "velocity": 0.7874015748031497,
          "duration": 0.001096489583346738
        },
        {
          "name": "C#4",
          "midi": 61,
          "time": 166.84185500000248,
          "velocity": 0.7874015748031497,
          "duration": 0.001096489583346738
        },
        {
          "name": "C#5",
          "midi": 73,
          "time": 166.84185500000248,
          "velocity": 0.7874015748031497,
          "duration": 0.001096489583346738
        },
        {
          "name": "C#6",
          "midi": 85,
          "time": 166.84185500000248,
          "velocity": 0.7874015748031497,
          "duration": 0.001096489583346738
        },
        {
          "name": "C#7",
          "midi": 97,
          "time": 166.84185500000248,
          "velocity": 0.7874015748031497,
          "duration": 0.001096489583346738
        },
        {
          "name": "D4",
          "midi": 62,
          "time": 167.10501250000252,
          "velocity": 0.7874015748031497,
          "duration": 0.001096489583346738
        },
        {
          "name": "D5",
          "midi": 74,
          "time": 167.10501250000252,
          "velocity": 0.7874015748031497,
          "duration": 0.001096489583346738
        },
        {
          "name": "D6",
          "midi": 86,
          "time": 167.10501250000252,
          "velocity": 0.7874015748031497,
          "duration": 0.001096489583346738
        },
        {
          "name": "C7",
          "midi": 96,
          "time": 167.10501250000252,
          "velocity": 0.7874015748031497,
          "duration": 0.001096489583346738
        },
        {
          "name": "D7",
          "midi": 98,
          "time": 167.10501250000252,
          "velocity": 0.7874015748031497,
          "duration": 0.001096489583346738
        },
        {
          "name": "C#7",
          "midi": 97,
          "time": 167.50084523958586,
          "velocity": 0.7874015748031497,
          "duration": 0.001096489583346738
        },
        {
          "name": "D4",
          "midi": 62,
          "time": 167.63132750000253,
          "velocity": 0.7874015748031497,
          "duration": 0.001096489583346738
        },
        {
          "name": "D5",
          "midi": 74,
          "time": 167.63132750000253,
          "velocity": 0.7874015748031497,
          "duration": 0.001096489583346738
        },
        {
          "name": "C6",
          "midi": 84,
          "time": 167.63132750000253,
          "velocity": 0.7874015748031497,
          "duration": 0.001096489583346738
        },
        {
          "name": "D6",
          "midi": 86,
          "time": 167.63132750000253,
          "velocity": 0.7874015748031497,
          "duration": 0.001096489583346738
        },
        {
          "name": "C7",
          "midi": 96,
          "time": 167.63132750000253,
          "velocity": 0.7874015748031497,
          "duration": 0.001096489583346738
        },
        {
          "name": "D7",
          "midi": 98,
          "time": 167.63132750000253,
          "velocity": 0.7874015748031497,
          "duration": 0.001096489583346738
        },
        {
          "name": "C7",
          "midi": 96,
          "time": 167.76400273958586,
          "velocity": 0.7874015748031497,
          "duration": 0.001096489583346738
        },
        {
          "name": "C#4",
          "midi": 61,
          "time": 167.89448500000253,
          "velocity": 0.7874015748031497,
          "duration": 0.001096489583346738
        },
        {
          "name": "C#5",
          "midi": 73,
          "time": 167.89448500000253,
          "velocity": 0.7874015748031497,
          "duration": 0.001096489583346738
        },
        {
          "name": "C#6",
          "midi": 85,
          "time": 167.89448500000253,
          "velocity": 0.7874015748031497,
          "duration": 0.001096489583346738
        },
        {
          "name": "C#7",
          "midi": 97,
          "time": 167.89448500000253,
          "velocity": 0.7874015748031497,
          "duration": 0.001096489583346738
        },
        {
          "name": "C#7",
          "midi": 97,
          "time": 168.02606375000255,
          "velocity": 0.7874015748031497,
          "duration": 0.001096489583346738
        },
        {
          "name": "D5",
          "midi": 74,
          "time": 168.15873898958588,
          "velocity": 0.7874015748031497,
          "duration": 0.001096489583346738
        },
        {
          "name": "D6",
          "midi": 86,
          "time": 168.15873898958588,
          "velocity": 0.7874015748031497,
          "duration": 0.001096489583346738
        },
        {
          "name": "C7",
          "midi": 96,
          "time": 168.15873898958588,
          "velocity": 0.7874015748031497,
          "duration": 0.001096489583346738
        },
        {
          "name": "D7",
          "midi": 98,
          "time": 168.15873898958588,
          "velocity": 0.7874015748031497,
          "duration": 0.001096489583346738
        },
        {
          "name": "C4",
          "midi": 60,
          "time": 168.42080000000257,
          "velocity": 0.7874015748031497,
          "duration": 0.001096489583346738
        },
        {
          "name": "C5",
          "midi": 72,
          "time": 168.42080000000257,
          "velocity": 0.7874015748031497,
          "duration": 0.001096489583346738
        },
        {
          "name": "C6",
          "midi": 84,
          "time": 168.42080000000257,
          "velocity": 0.7874015748031497,
          "duration": 0.001096489583346738
        },
        {
          "name": "C7",
          "midi": 96,
          "time": 168.42080000000257,
          "velocity": 0.7874015748031497,
          "duration": 0.001096489583346738
        },
        {
          "name": "D5",
          "midi": 74,
          "time": 168.68395750000258,
          "velocity": 0.7874015748031497,
          "duration": 0.001096489583346738
        },
        {
          "name": "D6",
          "midi": 86,
          "time": 168.68395750000258,
          "velocity": 0.7874015748031497,
          "duration": 0.001096489583346738
        },
        {
          "name": "C7",
          "midi": 96,
          "time": 168.68395750000258,
          "velocity": 0.7874015748031497,
          "duration": 0.001096489583346738
        },
        {
          "name": "D7",
          "midi": 98,
          "time": 168.68395750000258,
          "velocity": 0.7874015748031497,
          "duration": 0.001096489583346738
        },
        {
          "name": "C7",
          "midi": 96,
          "time": 168.8166327395859,
          "velocity": 0.7874015748031497,
          "duration": 0.001096489583346738
        },
        {
          "name": "C#4",
          "midi": 61,
          "time": 168.94711500000258,
          "velocity": 0.7874015748031497,
          "duration": 0.001096489583346738
        },
        {
          "name": "C#5",
          "midi": 73,
          "time": 168.94711500000258,
          "velocity": 0.7874015748031497,
          "duration": 0.001096489583346738
        },
        {
          "name": "C#6",
          "midi": 85,
          "time": 168.94711500000258,
          "velocity": 0.7874015748031497,
          "duration": 0.001096489583346738
        },
        {
          "name": "C#7",
          "midi": 97,
          "time": 168.94711500000258,
          "velocity": 0.7874015748031497,
          "duration": 0.001096489583346738
        },
        {
          "name": "D4",
          "midi": 62,
          "time": 169.21136898958594,
          "velocity": 0.7874015748031497,
          "duration": 0.001096489583346738
        },
        {
          "name": "D5",
          "midi": 74,
          "time": 169.21136898958594,
          "velocity": 0.7874015748031497,
          "duration": 0.001096489583346738
        },
        {
          "name": "D6",
          "midi": 86,
          "time": 169.21136898958594,
          "velocity": 0.7874015748031497,
          "duration": 0.001096489583346738
        },
        {
          "name": "C7",
          "midi": 96,
          "time": 169.21136898958594,
          "velocity": 0.7874015748031497,
          "duration": 0.001096489583346738
        },
        {
          "name": "D7",
          "midi": 98,
          "time": 169.21136898958594,
          "velocity": 0.7874015748031497,
          "duration": 0.001096489583346738
        },
        {
          "name": "D4",
          "midi": 62,
          "time": 169.73768398958595,
          "velocity": 0.7874015748031497,
          "duration": 0.001096489583346738
        },
        {
          "name": "D5",
          "midi": 74,
          "time": 169.73768398958595,
          "velocity": 0.7874015748031497,
          "duration": 0.001096489583346738
        },
        {
          "name": "C6",
          "midi": 84,
          "time": 169.73768398958595,
          "velocity": 0.7874015748031497,
          "duration": 0.001096489583346738
        },
        {
          "name": "D6",
          "midi": 86,
          "time": 169.73768398958595,
          "velocity": 0.7874015748031497,
          "duration": 0.001096489583346738
        },
        {
          "name": "C7",
          "midi": 96,
          "time": 169.73768398958595,
          "velocity": 0.7874015748031497,
          "duration": 0.001096489583346738
        },
        {
          "name": "D7",
          "midi": 98,
          "time": 169.73768398958595,
          "velocity": 0.7874015748031497,
          "duration": 0.001096489583346738
        },
        {
          "name": "C7",
          "midi": 96,
          "time": 169.86816625000262,
          "velocity": 0.7874015748031497,
          "duration": 0.001096489583346738
        },
        {
          "name": "C#4",
          "midi": 61,
          "time": 169.99974500000263,
          "velocity": 0.7874015748031497,
          "duration": 0.001096489583346738
        },
        {
          "name": "C#5",
          "midi": 73,
          "time": 169.99974500000263,
          "velocity": 0.7874015748031497,
          "duration": 0.001096489583346738
        },
        {
          "name": "C#6",
          "midi": 85,
          "time": 169.99974500000263,
          "velocity": 0.7874015748031497,
          "duration": 0.001096489583346738
        },
        {
          "name": "C#7",
          "midi": 97,
          "time": 169.99974500000263,
          "velocity": 0.7874015748031497,
          "duration": 0.001096489583346738
        },
        {
          "name": "C#7",
          "midi": 97,
          "time": 170.13132375000265,
          "velocity": 0.7874015748031497,
          "duration": 0.001096489583346738
        },
        {
          "name": "D5",
          "midi": 74,
          "time": 170.26399898958599,
          "velocity": 0.7874015748031497,
          "duration": 0.001096489583346738
        },
        {
          "name": "C6",
          "midi": 84,
          "time": 170.26399898958599,
          "velocity": 0.7874015748031497,
          "duration": 0.001096489583346738
        },
        {
          "name": "D6",
          "midi": 86,
          "time": 170.26399898958599,
          "velocity": 0.7874015748031497,
          "duration": 0.001096489583346738
        },
        {
          "name": "C7",
          "midi": 96,
          "time": 170.26399898958599,
          "velocity": 0.7874015748031497,
          "duration": 0.001096489583346738
        },
        {
          "name": "D7",
          "midi": 98,
          "time": 170.26399898958599,
          "velocity": 0.7874015748031497,
          "duration": 0.001096489583346738
        },
        {
          "name": "C#4",
          "midi": 61,
          "time": 170.52606000000267,
          "velocity": 0.7874015748031497,
          "duration": 0.001096489583346738
        },
        {
          "name": "C#5",
          "midi": 73,
          "time": 170.52606000000267,
          "velocity": 0.7874015748031497,
          "duration": 0.001096489583346738
        },
        {
          "name": "C#6",
          "midi": 85,
          "time": 170.52606000000267,
          "velocity": 0.7874015748031497,
          "duration": 0.001096489583346738
        },
        {
          "name": "C#7",
          "midi": 97,
          "time": 170.52606000000267,
          "velocity": 0.7874015748031497,
          "duration": 0.001096489583346738
        },
        {
          "name": "C#7",
          "midi": 97,
          "time": 170.61377916666936,
          "velocity": 0.7874015748031497,
          "duration": 0.001096489583346738
        },
        {
          "name": "C#6",
          "midi": 85,
          "time": 170.65763875000272,
          "velocity": 0.7874015748031497,
          "duration": 0.001096489583346738
        },
        {
          "name": "C#7",
          "midi": 97,
          "time": 170.70149833333608,
          "velocity": 0.7874015748031497,
          "duration": 0.001096489583346738
        },
        {
          "name": "C#5",
          "midi": 73,
          "time": 170.78812101041942,
          "velocity": 0.7874015748031497,
          "duration": 0.001096489583346738
        },
        {
          "name": "C#6",
          "midi": 85,
          "time": 170.78812101041942,
          "velocity": 0.7874015748031497,
          "duration": 0.001096489583346738
        },
        {
          "name": "C#7",
          "midi": 97,
          "time": 170.78812101041942,
          "velocity": 0.7874015748031497,
          "duration": 0.001096489583346738
        },
        {
          "name": "C#7",
          "midi": 97,
          "time": 170.87693666666942,
          "velocity": 0.7874015748031497,
          "duration": 0.001096489583346738
        },
        {
          "name": "C#6",
          "midi": 85,
          "time": 170.92079625000278,
          "velocity": 0.7874015748031497,
          "duration": 0.001096489583346738
        },
        {
          "name": "C#7",
          "midi": 97,
          "time": 170.96465583333614,
          "velocity": 0.7874015748031497,
          "duration": 0.001096489583346738
        },
        {
          "name": "D#4",
          "midi": 63,
          "time": 171.05237500000283,
          "velocity": 0.7874015748031497,
          "duration": 0.001096489583346738
        },
        {
          "name": "D#5",
          "midi": 75,
          "time": 171.05237500000283,
          "velocity": 0.7874015748031497,
          "duration": 0.001096489583346738
        },
        {
          "name": "D#6",
          "midi": 87,
          "time": 171.05237500000283,
          "velocity": 0.7874015748031497,
          "duration": 0.001096489583346738
        },
        {
          "name": "D#7",
          "midi": 99,
          "time": 171.05237500000283,
          "velocity": 0.7874015748031497,
          "duration": 0.001096489583346738
        },
        {
          "name": "D#7",
          "midi": 99,
          "time": 171.1400941666695,
          "velocity": 0.7874015748031497,
          "duration": 0.001096489583346738
        },
        {
          "name": "D#6",
          "midi": 87,
          "time": 171.18395375000287,
          "velocity": 0.7874015748031497,
          "duration": 0.001096489583346738
        },
        {
          "name": "D#7",
          "midi": 99,
          "time": 171.22781333333623,
          "velocity": 0.7874015748031497,
          "duration": 0.001096489583346738
        },
        {
          "name": "D#5",
          "midi": 75,
          "time": 171.31443601041957,
          "velocity": 0.7874015748031497,
          "duration": 0.001096489583346738
        },
        {
          "name": "D#6",
          "midi": 87,
          "time": 171.31443601041957,
          "velocity": 0.7874015748031497,
          "duration": 0.001096489583346738
        },
        {
          "name": "D#7",
          "midi": 99,
          "time": 171.31443601041957,
          "velocity": 0.7874015748031497,
          "duration": 0.001096489583346738
        },
        {
          "name": "D#7",
          "midi": 99,
          "time": 171.40215517708626,
          "velocity": 0.7874015748031497,
          "duration": 0.001096489583346738
        },
        {
          "name": "D#6",
          "midi": 87,
          "time": 171.44711125000293,
          "velocity": 0.7874015748031497,
          "duration": 0.001096489583346738
        },
        {
          "name": "D#7",
          "midi": 99,
          "time": 171.4909708333363,
          "velocity": 0.7874015748031497,
          "duration": 0.001096489583346738
        },
        {
          "name": "F4",
          "midi": 65,
          "time": 171.57869000000298,
          "velocity": 0.7874015748031497,
          "duration": 0.001096489583346738
        },
        {
          "name": "D#5",
          "midi": 75,
          "time": 171.57869000000298,
          "velocity": 0.7874015748031497,
          "duration": 0.001096489583346738
        },
        {
          "name": "D#6",
          "midi": 87,
          "time": 171.57869000000298,
          "velocity": 0.7874015748031497,
          "duration": 0.001096489583346738
        },
        {
          "name": "F7",
          "midi": 101,
          "time": 171.57869000000298,
          "velocity": 0.7874015748031497,
          "duration": 0.001096489583346738
        },
        {
          "name": "D#6",
          "midi": 87,
          "time": 171.70917226041965,
          "velocity": 0.7874015748031497,
          "duration": 0.001096489583346738
        },
        {
          "name": "F7",
          "midi": 101,
          "time": 171.70917226041965,
          "velocity": 0.7874015748031497,
          "duration": 0.001096489583346738
        },
        {
          "name": "C#6",
          "midi": 85,
          "time": 171.79689142708634,
          "velocity": 0.7874015748031497,
          "duration": 0.001096489583346738
        },
        {
          "name": "C#7",
          "midi": 97,
          "time": 171.79689142708634,
          "velocity": 0.7874015748031497,
          "duration": 0.001096489583346738
        },
        {
          "name": "C#5",
          "midi": 73,
          "time": 171.841847500003,
          "velocity": 0.7874015748031497,
          "duration": 0.001096489583346738
        },
        {
          "name": "D#6",
          "midi": 87,
          "time": 171.9295666666697,
          "velocity": 0.7874015748031497,
          "duration": 0.001096489583346738
        },
        {
          "name": "F7",
          "midi": 101,
          "time": 171.9295666666697,
          "velocity": 0.7874015748031497,
          "duration": 0.001096489583346738
        },
        {
          "name": "D#6",
          "midi": 87,
          "time": 172.06224190625304,
          "velocity": 0.7874015748031497,
          "duration": 0.001096489583346738
        },
        {
          "name": "F7",
          "midi": 101,
          "time": 172.06224190625304,
          "velocity": 0.7874015748031497,
          "duration": 0.001096489583346738
        },
        {
          "name": "D4",
          "midi": 62,
          "time": 172.17079437500306,
          "velocity": 0.7874015748031497,
          "duration": 0.001096489583346738
        },
        {
          "name": "C5",
          "midi": 72,
          "time": 172.17079437500306,
          "velocity": 0.7874015748031497,
          "duration": 0.001096489583346738
        },
        {
          "name": "D5",
          "midi": 74,
          "time": 172.17079437500306,
          "velocity": 0.7874015748031497,
          "duration": 0.001096489583346738
        },
        {
          "name": "C6",
          "midi": 84,
          "time": 172.17079437500306,
          "velocity": 0.7874015748031497,
          "duration": 0.001096489583346738
        },
        {
          "name": "D6",
          "midi": 86,
          "time": 172.17079437500306,
          "velocity": 0.7874015748031497,
          "duration": 0.001096489583346738
        },
        {
          "name": "C7",
          "midi": 96,
          "time": 172.17079437500306,
          "velocity": 0.7874015748031497,
          "duration": 0.001096489583346738
        },
        {
          "name": "D7",
          "midi": 98,
          "time": 172.17079437500306,
          "velocity": 0.7874015748031497,
          "duration": 0.001096489583346738
        },
        {
          "name": "E4",
          "midi": 64,
          "time": 172.63132000000306,
          "velocity": 0.7874015748031497,
          "duration": 0.001096489583346738
        },
        {
          "name": "C5",
          "midi": 72,
          "time": 172.63132000000306,
          "velocity": 0.7874015748031497,
          "duration": 0.001096489583346738
        },
        {
          "name": "E5",
          "midi": 76,
          "time": 172.63132000000306,
          "velocity": 0.7874015748031497,
          "duration": 0.001096489583346738
        },
        {
          "name": "C6",
          "midi": 84,
          "time": 172.63132000000306,
          "velocity": 0.7874015748031497,
          "duration": 0.001096489583346738
        },
        {
          "name": "E6",
          "midi": 88,
          "time": 172.63132000000306,
          "velocity": 0.7874015748031497,
          "duration": 0.001096489583346738
        },
        {
          "name": "C7",
          "midi": 96,
          "time": 172.63132000000306,
          "velocity": 0.7874015748031497,
          "duration": 0.001096489583346738
        },
        {
          "name": "E7",
          "midi": 100,
          "time": 172.63132000000306,
          "velocity": 0.7874015748031497,
          "duration": 0.001096489583346738
        },
        {
          "name": "D6",
          "midi": 86,
          "time": 172.8955739895864,
          "velocity": 0.7874015748031497,
          "duration": 0.001096489583346738
        },
        {
          "name": "D7",
          "midi": 98,
          "time": 172.8955739895864,
          "velocity": 0.7874015748031497,
          "duration": 0.001096489583346738
        },
        {
          "name": "C#4",
          "midi": 61,
          "time": 173.1576350000031,
          "velocity": 0.7874015748031497,
          "duration": 0.001096489583346738
        },
        {
          "name": "C#5",
          "midi": 73,
          "time": 173.1576350000031,
          "velocity": 0.7874015748031497,
          "duration": 0.001096489583346738
        },
        {
          "name": "C#6",
          "midi": 85,
          "time": 173.1576350000031,
          "velocity": 0.7874015748031497,
          "duration": 0.001096489583346738
        },
        {
          "name": "C#7",
          "midi": 97,
          "time": 173.1576350000031,
          "velocity": 0.7874015748031497,
          "duration": 0.001096489583346738
        },
        {
          "name": "D4",
          "midi": 62,
          "time": 173.42188898958645,
          "velocity": 0.7874015748031497,
          "duration": 0.001096489583346738
        },
        {
          "name": "D5",
          "midi": 74,
          "time": 173.42188898958645,
          "velocity": 0.7874015748031497,
          "duration": 0.001096489583346738
        },
        {
          "name": "D6",
          "midi": 86,
          "time": 173.42188898958645,
          "velocity": 0.7874015748031497,
          "duration": 0.001096489583346738
        },
        {
          "name": "D7",
          "midi": 98,
          "time": 173.42188898958645,
          "velocity": 0.7874015748031497,
          "duration": 0.001096489583346738
        },
        {
          "name": "C7",
          "midi": 96,
          "time": 173.68395000000314,
          "velocity": 0.7874015748031497,
          "duration": 0.001096489583346738
        },
        {
          "name": "D4",
          "midi": 62,
          "time": 173.94710750000314,
          "velocity": 0.7874015748031497,
          "duration": 0.001096489583346738
        },
        {
          "name": "D5",
          "midi": 74,
          "time": 173.94710750000314,
          "velocity": 0.7874015748031497,
          "duration": 0.001096489583346738
        },
        {
          "name": "D6",
          "midi": 86,
          "time": 173.94710750000314,
          "velocity": 0.7874015748031497,
          "duration": 0.001096489583346738
        },
        {
          "name": "C7",
          "midi": 96,
          "time": 173.94710750000314,
          "velocity": 0.7874015748031497,
          "duration": 0.001096489583346738
        },
        {
          "name": "D7",
          "midi": 98,
          "time": 173.94710750000314,
          "velocity": 0.7874015748031497,
          "duration": 0.001096489583346738
        },
        {
          "name": "C7",
          "midi": 96,
          "time": 174.07978273958648,
          "velocity": 0.7874015748031497,
          "duration": 0.001096489583346738
        },
        {
          "name": "C#4",
          "midi": 61,
          "time": 174.21026500000315,
          "velocity": 0.7874015748031497,
          "duration": 0.001096489583346738
        },
        {
          "name": "C#5",
          "midi": 73,
          "time": 174.21026500000315,
          "velocity": 0.7874015748031497,
          "duration": 0.001096489583346738
        },
        {
          "name": "C#6",
          "midi": 85,
          "time": 174.21026500000315,
          "velocity": 0.7874015748031497,
          "duration": 0.001096489583346738
        },
        {
          "name": "C#7",
          "midi": 97,
          "time": 174.21026500000315,
          "velocity": 0.7874015748031497,
          "duration": 0.001096489583346738
        },
        {
          "name": "D5",
          "midi": 74,
          "time": 174.4745189895865,
          "velocity": 0.7874015748031497,
          "duration": 0.001096489583346738
        },
        {
          "name": "D6",
          "midi": 86,
          "time": 174.4745189895865,
          "velocity": 0.7874015748031497,
          "duration": 0.001096489583346738
        },
        {
          "name": "C7",
          "midi": 96,
          "time": 174.4745189895865,
          "velocity": 0.7874015748031497,
          "duration": 0.001096489583346738
        },
        {
          "name": "D7",
          "midi": 98,
          "time": 174.4745189895865,
          "velocity": 0.7874015748031497,
          "duration": 0.001096489583346738
        },
        {
          "name": "C4",
          "midi": 60,
          "time": 174.7365800000032,
          "velocity": 0.7874015748031497,
          "duration": 0.001096489583346738
        },
        {
          "name": "C5",
          "midi": 72,
          "time": 174.7365800000032,
          "velocity": 0.7874015748031497,
          "duration": 0.001096489583346738
        },
        {
          "name": "C6",
          "midi": 84,
          "time": 174.7365800000032,
          "velocity": 0.7874015748031497,
          "duration": 0.001096489583346738
        },
        {
          "name": "C7",
          "midi": 96,
          "time": 174.7365800000032,
          "velocity": 0.7874015748031497,
          "duration": 0.001096489583346738
        },
        {
          "name": "D5",
          "midi": 74,
          "time": 174.9997375000032,
          "velocity": 0.7874015748031497,
          "duration": 0.001096489583346738
        },
        {
          "name": "D6",
          "midi": 86,
          "time": 174.9997375000032,
          "velocity": 0.7874015748031497,
          "duration": 0.001096489583346738
        },
        {
          "name": "C7",
          "midi": 96,
          "time": 174.9997375000032,
          "velocity": 0.7874015748031497,
          "duration": 0.001096489583346738
        },
        {
          "name": "D7",
          "midi": 98,
          "time": 174.9997375000032,
          "velocity": 0.7874015748031497,
          "duration": 0.001096489583346738
        },
        {
          "name": "C7",
          "midi": 96,
          "time": 175.1313162500032,
          "velocity": 0.7874015748031497,
          "duration": 0.001096489583346738
        },
        {
          "name": "C#4",
          "midi": 61,
          "time": 175.26289500000323,
          "velocity": 0.7874015748031497,
          "duration": 0.001096489583346738
        },
        {
          "name": "C#5",
          "midi": 73,
          "time": 175.26289500000323,
          "velocity": 0.7874015748031497,
          "duration": 0.001096489583346738
        },
        {
          "name": "C#6",
          "midi": 85,
          "time": 175.26289500000323,
          "velocity": 0.7874015748031497,
          "duration": 0.001096489583346738
        },
        {
          "name": "C#7",
          "midi": 97,
          "time": 175.26289500000323,
          "velocity": 0.7874015748031497,
          "duration": 0.001096489583346738
        },
        {
          "name": "D4",
          "midi": 62,
          "time": 175.52714898958658,
          "velocity": 0.7874015748031497,
          "duration": 0.001096489583346738
        },
        {
          "name": "D5",
          "midi": 74,
          "time": 175.52714898958658,
          "velocity": 0.7874015748031497,
          "duration": 0.001096489583346738
        },
        {
          "name": "D6",
          "midi": 86,
          "time": 175.52714898958658,
          "velocity": 0.7874015748031497,
          "duration": 0.001096489583346738
        },
        {
          "name": "C7",
          "midi": 96,
          "time": 175.52714898958658,
          "velocity": 0.7874015748031497,
          "duration": 0.001096489583346738
        },
        {
          "name": "D7",
          "midi": 98,
          "time": 175.52714898958658,
          "velocity": 0.7874015748031497,
          "duration": 0.001096489583346738
        },
        {
          "name": "D4",
          "midi": 62,
          "time": 176.05236750000327,
          "velocity": 0.7874015748031497,
          "duration": 0.001096489583346738
        },
        {
          "name": "D5",
          "midi": 74,
          "time": 176.05236750000327,
          "velocity": 0.7874015748031497,
          "duration": 0.001096489583346738
        },
        {
          "name": "C6",
          "midi": 84,
          "time": 176.05236750000327,
          "velocity": 0.7874015748031497,
          "duration": 0.001096489583346738
        },
        {
          "name": "D6",
          "midi": 86,
          "time": 176.05236750000327,
          "velocity": 0.7874015748031497,
          "duration": 0.001096489583346738
        },
        {
          "name": "C7",
          "midi": 96,
          "time": 176.05236750000327,
          "velocity": 0.7874015748031497,
          "duration": 0.001096489583346738
        },
        {
          "name": "D7",
          "midi": 98,
          "time": 176.05236750000327,
          "velocity": 0.7874015748031497,
          "duration": 0.001096489583346738
        },
        {
          "name": "C7",
          "midi": 96,
          "time": 176.1839462500033,
          "velocity": 0.7874015748031497,
          "duration": 0.001096489583346738
        },
        {
          "name": "C#4",
          "midi": 61,
          "time": 176.3155250000033,
          "velocity": 0.7874015748031497,
          "duration": 0.001096489583346738
        },
        {
          "name": "C#5",
          "midi": 73,
          "time": 176.3155250000033,
          "velocity": 0.7874015748031497,
          "duration": 0.001096489583346738
        },
        {
          "name": "C#6",
          "midi": 85,
          "time": 176.3155250000033,
          "velocity": 0.7874015748031497,
          "duration": 0.001096489583346738
        },
        {
          "name": "C#7",
          "midi": 97,
          "time": 176.3155250000033,
          "velocity": 0.7874015748031497,
          "duration": 0.001096489583346738
        },
        {
          "name": "D5",
          "midi": 74,
          "time": 176.5786825000033,
          "velocity": 0.7874015748031497,
          "duration": 0.001096489583346738
        },
        {
          "name": "D6",
          "midi": 86,
          "time": 176.5786825000033,
          "velocity": 0.7874015748031497,
          "duration": 0.001096489583346738
        },
        {
          "name": "C7",
          "midi": 96,
          "time": 176.5786825000033,
          "velocity": 0.7874015748031497,
          "duration": 0.001096489583346738
        },
        {
          "name": "D7",
          "midi": 98,
          "time": 176.5786825000033,
          "velocity": 0.7874015748031497,
          "duration": 0.001096489583346738
        },
        {
          "name": "C4",
          "midi": 60,
          "time": 176.84184000000332,
          "velocity": 0.7874015748031497,
          "duration": 0.001096489583346738
        },
        {
          "name": "C5",
          "midi": 72,
          "time": 176.84184000000332,
          "velocity": 0.7874015748031497,
          "duration": 0.001096489583346738
        },
        {
          "name": "C6",
          "midi": 84,
          "time": 176.84184000000332,
          "velocity": 0.7874015748031497,
          "duration": 0.001096489583346738
        },
        {
          "name": "C7",
          "midi": 96,
          "time": 176.84184000000332,
          "velocity": 0.7874015748031497,
          "duration": 0.001096489583346738
        },
        {
          "name": "D5",
          "midi": 74,
          "time": 177.10609398958667,
          "velocity": 0.7874015748031497,
          "duration": 0.001096489583346738
        },
        {
          "name": "D6",
          "midi": 86,
          "time": 177.10609398958667,
          "velocity": 0.7874015748031497,
          "duration": 0.001096489583346738
        },
        {
          "name": "C7",
          "midi": 96,
          "time": 177.10609398958667,
          "velocity": 0.7874015748031497,
          "duration": 0.001096489583346738
        },
        {
          "name": "D7",
          "midi": 98,
          "time": 177.10609398958667,
          "velocity": 0.7874015748031497,
          "duration": 0.001096489583346738
        },
        {
          "name": "C7",
          "midi": 96,
          "time": 177.23657625000334,
          "velocity": 0.7874015748031497,
          "duration": 0.001096489583346738
        },
        {
          "name": "C#4",
          "midi": 61,
          "time": 177.36815500000336,
          "velocity": 0.7874015748031497,
          "duration": 0.001096489583346738
        },
        {
          "name": "C#5",
          "midi": 73,
          "time": 177.36815500000336,
          "velocity": 0.7874015748031497,
          "duration": 0.001096489583346738
        },
        {
          "name": "C#6",
          "midi": 85,
          "time": 177.36815500000336,
          "velocity": 0.7874015748031497,
          "duration": 0.001096489583346738
        },
        {
          "name": "C#7",
          "midi": 97,
          "time": 177.36815500000336,
          "velocity": 0.7874015748031497,
          "duration": 0.001096489583346738
        },
        {
          "name": "D4",
          "midi": 62,
          "time": 177.63131250000336,
          "velocity": 0.7874015748031497,
          "duration": 0.001096489583346738
        },
        {
          "name": "D5",
          "midi": 74,
          "time": 177.63131250000336,
          "velocity": 0.7874015748031497,
          "duration": 0.001096489583346738
        },
        {
          "name": "D6",
          "midi": 86,
          "time": 177.63131250000336,
          "velocity": 0.7874015748031497,
          "duration": 0.001096489583346738
        },
        {
          "name": "C7",
          "midi": 96,
          "time": 177.63131250000336,
          "velocity": 0.7874015748031497,
          "duration": 0.001096489583346738
        },
        {
          "name": "D7",
          "midi": 98,
          "time": 177.63131250000336,
          "velocity": 0.7874015748031497,
          "duration": 0.001096489583346738
        },
        {
          "name": "D4",
          "midi": 62,
          "time": 178.15762750000337,
          "velocity": 0.7874015748031497,
          "duration": 0.001096489583346738
        },
        {
          "name": "D5",
          "midi": 74,
          "time": 178.15762750000337,
          "velocity": 0.7874015748031497,
          "duration": 0.001096489583346738
        },
        {
          "name": "C6",
          "midi": 84,
          "time": 178.15762750000337,
          "velocity": 0.7874015748031497,
          "duration": 0.001096489583346738
        },
        {
          "name": "D6",
          "midi": 86,
          "time": 178.15762750000337,
          "velocity": 0.7874015748031497,
          "duration": 0.001096489583346738
        },
        {
          "name": "C7",
          "midi": 96,
          "time": 178.15762750000337,
          "velocity": 0.7874015748031497,
          "duration": 0.001096489583346738
        },
        {
          "name": "D7",
          "midi": 98,
          "time": 178.15762750000337,
          "velocity": 0.7874015748031497,
          "duration": 0.001096489583346738
        },
        {
          "name": "C7",
          "midi": 96,
          "time": 178.2903027395867,
          "velocity": 0.7874015748031497,
          "duration": 0.001096489583346738
        },
        {
          "name": "C#4",
          "midi": 61,
          "time": 178.42078500000338,
          "velocity": 0.7874015748031497,
          "duration": 0.001096489583346738
        },
        {
          "name": "C#5",
          "midi": 73,
          "time": 178.42078500000338,
          "velocity": 0.7874015748031497,
          "duration": 0.001096489583346738
        },
        {
          "name": "C#6",
          "midi": 85,
          "time": 178.42078500000338,
          "velocity": 0.7874015748031497,
          "duration": 0.001096489583346738
        },
        {
          "name": "C#7",
          "midi": 97,
          "time": 178.42078500000338,
          "velocity": 0.7874015748031497,
          "duration": 0.001096489583346738
        },
        {
          "name": "D5",
          "midi": 74,
          "time": 178.6718811145867,
          "velocity": 0.7874015748031497,
          "duration": 0.001096489583346738
        },
        {
          "name": "C6",
          "midi": 84,
          "time": 178.6718811145867,
          "velocity": 0.7874015748031497,
          "duration": 0.001096489583346738
        },
        {
          "name": "D6",
          "midi": 86,
          "time": 178.6718811145867,
          "velocity": 0.7874015748031497,
          "duration": 0.001096489583346738
        },
        {
          "name": "C7",
          "midi": 96,
          "time": 178.6718811145867,
          "velocity": 0.7874015748031497,
          "duration": 0.001096489583346738
        },
        {
          "name": "D7",
          "midi": 98,
          "time": 178.6718811145867,
          "velocity": 0.7874015748031497,
          "duration": 0.001096489583346738
        },
        {
          "name": "C7",
          "midi": 96,
          "time": 178.81003880208672,
          "velocity": 0.7874015748031497,
          "duration": 0.001096489583346738
        },
        {
          "name": "C#4",
          "midi": 61,
          "time": 178.94710000000342,
          "velocity": 0.7874015748031497,
          "duration": 0.001096489583346738
        },
        {
          "name": "C#5",
          "midi": 73,
          "time": 178.94710000000342,
          "velocity": 0.7874015748031497,
          "duration": 0.001096489583346738
        },
        {
          "name": "C#6",
          "midi": 85,
          "time": 178.94710000000342,
          "velocity": 0.7874015748031497,
          "duration": 0.001096489583346738
        },
        {
          "name": "C#7",
          "midi": 97,
          "time": 178.94710000000342,
          "velocity": 0.7874015748031497,
          "duration": 0.001096489583346738
        },
        {
          "name": "E4",
          "midi": 64,
          "time": 183.15762000000342,
          "velocity": 0.7874015748031497,
          "duration": 0.001096489583346738
        },
        {
          "name": "C5",
          "midi": 72,
          "time": 183.15762000000342,
          "velocity": 0.7874015748031497,
          "duration": 0.001096489583346738
        },
        {
          "name": "E5",
          "midi": 76,
          "time": 183.15762000000342,
          "velocity": 0.7874015748031497,
          "duration": 0.001096489583346738
        },
        {
          "name": "C6",
          "midi": 84,
          "time": 183.15762000000342,
          "velocity": 0.7874015748031497,
          "duration": 0.001096489583346738
        },
        {
          "name": "E6",
          "midi": 88,
          "time": 183.15762000000342,
          "velocity": 0.7874015748031497,
          "duration": 0.001096489583346738
        },
        {
          "name": "C7",
          "midi": 96,
          "time": 183.15762000000342,
          "velocity": 0.7874015748031497,
          "duration": 0.001096489583346738
        },
        {
          "name": "E7",
          "midi": 100,
          "time": 183.15762000000342,
          "velocity": 0.7874015748031497,
          "duration": 0.001096489583346738
        },
        {
          "name": "G7",
          "midi": 103,
          "time": 183.15762000000342,
          "velocity": 0.7874015748031497,
          "duration": 10.064677885417439
        },
        {
          "name": "D6",
          "midi": 86,
          "time": 183.42077750000342,
          "velocity": 0.7874015748031497,
          "duration": 0.001096489583346738
        },
        {
          "name": "D7",
          "midi": 98,
          "time": 183.42077750000342,
          "velocity": 0.7874015748031497,
          "duration": 0.001096489583346738
        },
        {
          "name": "C#4",
          "midi": 61,
          "time": 183.68393500000343,
          "velocity": 0.7874015748031497,
          "duration": 0.001096489583346738
        },
        {
          "name": "C#5",
          "midi": 73,
          "time": 183.68393500000343,
          "velocity": 0.7874015748031497,
          "duration": 0.001096489583346738
        },
        {
          "name": "C#6",
          "midi": 85,
          "time": 183.68393500000343,
          "velocity": 0.7874015748031497,
          "duration": 0.001096489583346738
        },
        {
          "name": "C#7",
          "midi": 97,
          "time": 183.68393500000343,
          "velocity": 0.7874015748031497,
          "duration": 0.001096489583346738
        },
        {
          "name": "D4",
          "midi": 62,
          "time": 183.94818898958678,
          "velocity": 0.7874015748031497,
          "duration": 0.001096489583346738
        },
        {
          "name": "D5",
          "midi": 74,
          "time": 183.94818898958678,
          "velocity": 0.7874015748031497,
          "duration": 0.001096489583346738
        },
        {
          "name": "D6",
          "midi": 86,
          "time": 183.94818898958678,
          "velocity": 0.7874015748031497,
          "duration": 0.001096489583346738
        },
        {
          "name": "C7",
          "midi": 96,
          "time": 183.94818898958678,
          "velocity": 0.7874015748031497,
          "duration": 0.001096489583346738
        },
        {
          "name": "D7",
          "midi": 98,
          "time": 183.94818898958678,
          "velocity": 0.7874015748031497,
          "duration": 0.001096489583346738
        },
        {
          "name": "C7",
          "midi": 96,
          "time": 184.21025000000347,
          "velocity": 0.7874015748031497,
          "duration": 0.001096489583346738
        },
        {
          "name": "D4",
          "midi": 62,
          "time": 184.47340750000347,
          "velocity": 0.7874015748031497,
          "duration": 0.001096489583346738
        },
        {
          "name": "D5",
          "midi": 74,
          "time": 184.47340750000347,
          "velocity": 0.7874015748031497,
          "duration": 0.001096489583346738
        },
        {
          "name": "D6",
          "midi": 86,
          "time": 184.47340750000347,
          "velocity": 0.7874015748031497,
          "duration": 0.001096489583346738
        },
        {
          "name": "C7",
          "midi": 96,
          "time": 184.47340750000347,
          "velocity": 0.7874015748031497,
          "duration": 0.001096489583346738
        },
        {
          "name": "D7",
          "midi": 98,
          "time": 184.47340750000347,
          "velocity": 0.7874015748031497,
          "duration": 0.001096489583346738
        },
        {
          "name": "C7",
          "midi": 96,
          "time": 184.6060827395868,
          "velocity": 0.7874015748031497,
          "duration": 0.001096489583346738
        },
        {
          "name": "C#4",
          "midi": 61,
          "time": 184.73656500000348,
          "velocity": 0.7874015748031497,
          "duration": 0.001096489583346738
        },
        {
          "name": "C#5",
          "midi": 73,
          "time": 184.73656500000348,
          "velocity": 0.7874015748031497,
          "duration": 0.001096489583346738
        },
        {
          "name": "C#6",
          "midi": 85,
          "time": 184.73656500000348,
          "velocity": 0.7874015748031497,
          "duration": 0.001096489583346738
        },
        {
          "name": "C#7",
          "midi": 97,
          "time": 184.73656500000348,
          "velocity": 0.7874015748031497,
          "duration": 0.001096489583346738
        },
        {
          "name": "D5",
          "midi": 74,
          "time": 185.00081898958683,
          "velocity": 0.7874015748031497,
          "duration": 0.001096489583346738
        },
        {
          "name": "D6",
          "midi": 86,
          "time": 185.00081898958683,
          "velocity": 0.7874015748031497,
          "duration": 0.001096489583346738
        },
        {
          "name": "C7",
          "midi": 96,
          "time": 185.00081898958683,
          "velocity": 0.7874015748031497,
          "duration": 0.001096489583346738
        },
        {
          "name": "D7",
          "midi": 98,
          "time": 185.00081898958683,
          "velocity": 0.7874015748031497,
          "duration": 0.001096489583346738
        },
        {
          "name": "C4",
          "midi": 60,
          "time": 185.26288000000352,
          "velocity": 0.7874015748031497,
          "duration": 0.001096489583346738
        },
        {
          "name": "C5",
          "midi": 72,
          "time": 185.26288000000352,
          "velocity": 0.7874015748031497,
          "duration": 0.001096489583346738
        },
        {
          "name": "C6",
          "midi": 84,
          "time": 185.26288000000352,
          "velocity": 0.7874015748031497,
          "duration": 0.001096489583346738
        },
        {
          "name": "C7",
          "midi": 96,
          "time": 185.26288000000352,
          "velocity": 0.7874015748031497,
          "duration": 0.001096489583346738
        },
        {
          "name": "D5",
          "midi": 74,
          "time": 185.52603750000353,
          "velocity": 0.7874015748031497,
          "duration": 0.001096489583346738
        },
        {
          "name": "D6",
          "midi": 86,
          "time": 185.52603750000353,
          "velocity": 0.7874015748031497,
          "duration": 0.001096489583346738
        },
        {
          "name": "C7",
          "midi": 96,
          "time": 185.52603750000353,
          "velocity": 0.7874015748031497,
          "duration": 0.001096489583346738
        },
        {
          "name": "D7",
          "midi": 98,
          "time": 185.52603750000353,
          "velocity": 0.7874015748031497,
          "duration": 0.001096489583346738
        },
        {
          "name": "C7",
          "midi": 96,
          "time": 185.65761625000354,
          "velocity": 0.7874015748031497,
          "duration": 0.001096489583346738
        },
        {
          "name": "C#4",
          "midi": 61,
          "time": 185.78919500000356,
          "velocity": 0.7874015748031497,
          "duration": 0.001096489583346738
        },
        {
          "name": "C#5",
          "midi": 73,
          "time": 185.78919500000356,
          "velocity": 0.7874015748031497,
          "duration": 0.001096489583346738
        },
        {
          "name": "C#6",
          "midi": 85,
          "time": 185.78919500000356,
          "velocity": 0.7874015748031497,
          "duration": 0.001096489583346738
        },
        {
          "name": "C#7",
          "midi": 97,
          "time": 185.78919500000356,
          "velocity": 0.7874015748031497,
          "duration": 0.001096489583346738
        },
        {
          "name": "D4",
          "midi": 62,
          "time": 186.05235250000356,
          "velocity": 0.7874015748031497,
          "duration": 0.001096489583346738
        },
        {
          "name": "D5",
          "midi": 74,
          "time": 186.05235250000356,
          "velocity": 0.7874015748031497,
          "duration": 0.001096489583346738
        },
        {
          "name": "D6",
          "midi": 86,
          "time": 186.05235250000356,
          "velocity": 0.7874015748031497,
          "duration": 0.001096489583346738
        },
        {
          "name": "C7",
          "midi": 96,
          "time": 186.05235250000356,
          "velocity": 0.7874015748031497,
          "duration": 0.001096489583346738
        },
        {
          "name": "D7",
          "midi": 98,
          "time": 186.05235250000356,
          "velocity": 0.7874015748031497,
          "duration": 0.001096489583346738
        },
        {
          "name": "C#7",
          "midi": 97,
          "time": 186.4470887500036,
          "velocity": 0.7874015748031497,
          "duration": 0.001096489583346738
        },
        {
          "name": "D4",
          "midi": 62,
          "time": 186.5786675000036,
          "velocity": 0.7874015748031497,
          "duration": 0.001096489583346738
        },
        {
          "name": "D5",
          "midi": 74,
          "time": 186.5786675000036,
          "velocity": 0.7874015748031497,
          "duration": 0.001096489583346738
        },
        {
          "name": "C6",
          "midi": 84,
          "time": 186.5786675000036,
          "velocity": 0.7874015748031497,
          "duration": 0.001096489583346738
        },
        {
          "name": "D6",
          "midi": 86,
          "time": 186.5786675000036,
          "velocity": 0.7874015748031497,
          "duration": 0.001096489583346738
        },
        {
          "name": "C7",
          "midi": 96,
          "time": 186.5786675000036,
          "velocity": 0.7874015748031497,
          "duration": 0.001096489583346738
        },
        {
          "name": "D7",
          "midi": 98,
          "time": 186.5786675000036,
          "velocity": 0.7874015748031497,
          "duration": 0.001096489583346738
        },
        {
          "name": "C7",
          "midi": 96,
          "time": 186.71024625000362,
          "velocity": 0.7874015748031497,
          "duration": 0.001096489583346738
        },
        {
          "name": "C#4",
          "midi": 61,
          "time": 186.84182500000364,
          "velocity": 0.7874015748031497,
          "duration": 0.001096489583346738
        },
        {
          "name": "C#5",
          "midi": 73,
          "time": 186.84182500000364,
          "velocity": 0.7874015748031497,
          "duration": 0.001096489583346738
        },
        {
          "name": "C#6",
          "midi": 85,
          "time": 186.84182500000364,
          "velocity": 0.7874015748031497,
          "duration": 0.001096489583346738
        },
        {
          "name": "C#7",
          "midi": 97,
          "time": 186.84182500000364,
          "velocity": 0.7874015748031497,
          "duration": 0.001096489583346738
        },
        {
          "name": "C#7",
          "midi": 97,
          "time": 186.97340375000365,
          "velocity": 0.7874015748031497,
          "duration": 0.001096489583346738
        },
        {
          "name": "D5",
          "midi": 74,
          "time": 187.106078989587,
          "velocity": 0.7874015748031497,
          "duration": 0.001096489583346738
        },
        {
          "name": "D6",
          "midi": 86,
          "time": 187.106078989587,
          "velocity": 0.7874015748031497,
          "duration": 0.001096489583346738
        },
        {
          "name": "C7",
          "midi": 96,
          "time": 187.106078989587,
          "velocity": 0.7874015748031497,
          "duration": 0.001096489583346738
        },
        {
          "name": "D7",
          "midi": 98,
          "time": 187.106078989587,
          "velocity": 0.7874015748031497,
          "duration": 0.001096489583346738
        },
        {
          "name": "C4",
          "midi": 60,
          "time": 187.36814000000368,
          "velocity": 0.7874015748031497,
          "duration": 0.001096489583346738
        },
        {
          "name": "C5",
          "midi": 72,
          "time": 187.36814000000368,
          "velocity": 0.7874015748031497,
          "duration": 0.001096489583346738
        },
        {
          "name": "C6",
          "midi": 84,
          "time": 187.36814000000368,
          "velocity": 0.7874015748031497,
          "duration": 0.001096489583346738
        },
        {
          "name": "C7",
          "midi": 96,
          "time": 187.36814000000368,
          "velocity": 0.7874015748031497,
          "duration": 0.001096489583346738
        },
        {
          "name": "D5",
          "midi": 74,
          "time": 187.63239398958703,
          "velocity": 0.7874015748031497,
          "duration": 0.001096489583346738
        },
        {
          "name": "D6",
          "midi": 86,
          "time": 187.63239398958703,
          "velocity": 0.7874015748031497,
          "duration": 0.001096489583346738
        },
        {
          "name": "C7",
          "midi": 96,
          "time": 187.63239398958703,
          "velocity": 0.7874015748031497,
          "duration": 0.001096489583346738
        },
        {
          "name": "D7",
          "midi": 98,
          "time": 187.63239398958703,
          "velocity": 0.7874015748031497,
          "duration": 0.001096489583346738
        },
        {
          "name": "C7",
          "midi": 96,
          "time": 187.76397273958705,
          "velocity": 0.7874015748031497,
          "duration": 0.001096489583346738
        },
        {
          "name": "C#4",
          "midi": 61,
          "time": 187.89445500000372,
          "velocity": 0.7874015748031497,
          "duration": 0.001096489583346738
        },
        {
          "name": "C#5",
          "midi": 73,
          "time": 187.89445500000372,
          "velocity": 0.7874015748031497,
          "duration": 0.001096489583346738
        },
        {
          "name": "C#6",
          "midi": 85,
          "time": 187.89445500000372,
          "velocity": 0.7874015748031497,
          "duration": 0.001096489583346738
        },
        {
          "name": "C#7",
          "midi": 97,
          "time": 187.89445500000372,
          "velocity": 0.7874015748031497,
          "duration": 0.001096489583346738
        },
        {
          "name": "D4",
          "midi": 62,
          "time": 188.15761250000372,
          "velocity": 0.7874015748031497,
          "duration": 0.001096489583346738
        },
        {
          "name": "D5",
          "midi": 74,
          "time": 188.15761250000372,
          "velocity": 0.7874015748031497,
          "duration": 0.001096489583346738
        },
        {
          "name": "D6",
          "midi": 86,
          "time": 188.15761250000372,
          "velocity": 0.7874015748031497,
          "duration": 0.001096489583346738
        },
        {
          "name": "C7",
          "midi": 96,
          "time": 188.15761250000372,
          "velocity": 0.7874015748031497,
          "duration": 0.001096489583346738
        },
        {
          "name": "D7",
          "midi": 98,
          "time": 188.15761250000372,
          "velocity": 0.7874015748031497,
          "duration": 0.001096489583346738
        },
        {
          "name": "D4",
          "midi": 62,
          "time": 188.68502398958708,
          "velocity": 0.7874015748031497,
          "duration": 0.001096489583346738
        },
        {
          "name": "D5",
          "midi": 74,
          "time": 188.68502398958708,
          "velocity": 0.7874015748031497,
          "duration": 0.001096489583346738
        },
        {
          "name": "C6",
          "midi": 84,
          "time": 188.68502398958708,
          "velocity": 0.7874015748031497,
          "duration": 0.001096489583346738
        },
        {
          "name": "D6",
          "midi": 86,
          "time": 188.68502398958708,
          "velocity": 0.7874015748031497,
          "duration": 0.001096489583346738
        },
        {
          "name": "C7",
          "midi": 96,
          "time": 188.68502398958708,
          "velocity": 0.7874015748031497,
          "duration": 0.001096489583346738
        },
        {
          "name": "D7",
          "midi": 98,
          "time": 188.68502398958708,
          "velocity": 0.7874015748031497,
          "duration": 0.001096489583346738
        },
        {
          "name": "C7",
          "midi": 96,
          "time": 188.81550625000375,
          "velocity": 0.7874015748031497,
          "duration": 0.001096489583346738
        },
        {
          "name": "C#4",
          "midi": 61,
          "time": 188.94708500000377,
          "velocity": 0.7874015748031497,
          "duration": 0.001096489583346738
        },
        {
          "name": "C#5",
          "midi": 73,
          "time": 188.94708500000377,
          "velocity": 0.7874015748031497,
          "duration": 0.001096489583346738
        },
        {
          "name": "C#6",
          "midi": 85,
          "time": 188.94708500000377,
          "velocity": 0.7874015748031497,
          "duration": 0.001096489583346738
        },
        {
          "name": "C#7",
          "midi": 97,
          "time": 188.94708500000377,
          "velocity": 0.7874015748031497,
          "duration": 0.001096489583346738
        },
        {
          "name": "C#7",
          "midi": 97,
          "time": 189.07866375000378,
          "velocity": 0.7874015748031497,
          "duration": 0.001096489583346738
        },
        {
          "name": "D5",
          "midi": 74,
          "time": 189.20914601042045,
          "velocity": 0.7874015748031497,
          "duration": 0.001096489583346738
        },
        {
          "name": "D6",
          "midi": 86,
          "time": 189.20914601042045,
          "velocity": 0.7874015748031497,
          "duration": 0.001096489583346738
        },
        {
          "name": "C7",
          "midi": 96,
          "time": 189.20914601042045,
          "velocity": 0.7874015748031497,
          "duration": 0.001096489583346738
        },
        {
          "name": "D7",
          "midi": 98,
          "time": 189.20914601042045,
          "velocity": 0.7874015748031497,
          "duration": 0.001096489583346738
        },
        {
          "name": "D#5",
          "midi": 75,
          "time": 189.4734000000038,
          "velocity": 0.7874015748031497,
          "duration": 0.001096489583346738
        },
        {
          "name": "D#6",
          "midi": 87,
          "time": 189.4734000000038,
          "velocity": 0.7874015748031497,
          "duration": 0.001096489583346738
        },
        {
          "name": "D#7",
          "midi": 99,
          "time": 189.4734000000038,
          "velocity": 0.7874015748031497,
          "duration": 0.001096489583346738
        },
        {
          "name": "D#4",
          "midi": 63,
          "time": 189.60497875000382,
          "velocity": 0.7874015748031497,
          "duration": 0.001096489583346738
        },
        {
          "name": "D#6",
          "midi": 87,
          "time": 189.60497875000382,
          "velocity": 0.7874015748031497,
          "duration": 0.001096489583346738
        },
        {
          "name": "D#7",
          "midi": 99,
          "time": 189.60497875000382,
          "velocity": 0.7874015748031497,
          "duration": 0.001096489583346738
        },
        {
          "name": "D#5",
          "midi": 75,
          "time": 189.73765398958716,
          "velocity": 0.7874015748031497,
          "duration": 0.001096489583346738
        },
        {
          "name": "D#6",
          "midi": 87,
          "time": 189.73765398958716,
          "velocity": 0.7874015748031497,
          "duration": 0.001096489583346738
        },
        {
          "name": "D#7",
          "midi": 99,
          "time": 189.73765398958716,
          "velocity": 0.7874015748031497,
          "duration": 0.001096489583346738
        },
        {
          "name": "D#6",
          "midi": 87,
          "time": 189.86923273958718,
          "velocity": 0.7874015748031497,
          "duration": 0.001096489583346738
        },
        {
          "name": "D#7",
          "midi": 99,
          "time": 189.86923273958718,
          "velocity": 0.7874015748031497,
          "duration": 0.001096489583346738
        },
        {
          "name": "D#4",
          "midi": 63,
          "time": 189.99971500000385,
          "velocity": 0.7874015748031497,
          "duration": 0.001096489583346738
        },
        {
          "name": "F5",
          "midi": 77,
          "time": 189.99971500000385,
          "velocity": 0.7874015748031497,
          "duration": 0.001096489583346738
        },
        {
          "name": "F6",
          "midi": 89,
          "time": 189.99971500000385,
          "velocity": 0.7874015748031497,
          "duration": 0.001096489583346738
        },
        {
          "name": "F7",
          "midi": 101,
          "time": 189.99971500000385,
          "velocity": 0.7874015748031497,
          "duration": 0.001096489583346738
        },
        {
          "name": "C#5",
          "midi": 73,
          "time": 190.13129375000386,
          "velocity": 0.7874015748031497,
          "duration": 0.001096489583346738
        },
        {
          "name": "C#6",
          "midi": 85,
          "time": 190.13129375000386,
          "velocity": 0.7874015748031497,
          "duration": 0.001096489583346738
        },
        {
          "name": "C#7",
          "midi": 97,
          "time": 190.13129375000386,
          "velocity": 0.7874015748031497,
          "duration": 0.001096489583346738
        },
        {
          "name": "F7",
          "midi": 101,
          "time": 190.26287250000388,
          "velocity": 0.7874015748031497,
          "duration": 0.001096489583346738
        },
        {
          "name": "C#7",
          "midi": 97,
          "time": 190.3944512500039,
          "velocity": 0.7874015748031497,
          "duration": 0.001096489583346738
        },
        {
          "name": "C#4",
          "midi": 61,
          "time": 190.5260300000039,
          "velocity": 0.7874015748031497,
          "duration": 0.001096489583346738
        },
        {
          "name": "C#5",
          "midi": 73,
          "time": 190.5260300000039,
          "velocity": 0.7874015748031497,
          "duration": 0.001096489583346738
        },
        {
          "name": "C#6",
          "midi": 85,
          "time": 190.5260300000039,
          "velocity": 0.7874015748031497,
          "duration": 0.001096489583346738
        },
        {
          "name": "C#7",
          "midi": 97,
          "time": 190.5260300000039,
          "velocity": 0.7874015748031497,
          "duration": 0.001096489583346738
        },
        {
          "name": "C#7",
          "midi": 97,
          "time": 190.65760875000393,
          "velocity": 0.7874015748031497,
          "duration": 0.001096489583346738
        },
        {
          "name": "C#5",
          "midi": 73,
          "time": 190.79028398958727,
          "velocity": 0.7874015748031497,
          "duration": 0.001096489583346738
        },
        {
          "name": "C#6",
          "midi": 85,
          "time": 190.79028398958727,
          "velocity": 0.7874015748031497,
          "duration": 0.001096489583346738
        },
        {
          "name": "C#7",
          "midi": 97,
          "time": 190.79028398958727,
          "velocity": 0.7874015748031497,
          "duration": 0.001096489583346738
        },
        {
          "name": "C#7",
          "midi": 97,
          "time": 190.92076625000394,
          "velocity": 0.7874015748031497,
          "duration": 0.001096489583346738
        },
        {
          "name": "C#5",
          "midi": 73,
          "time": 191.05234500000395,
          "velocity": 0.7874015748031497,
          "duration": 0.001096489583346738
        },
        {
          "name": "C#6",
          "midi": 85,
          "time": 191.05234500000395,
          "velocity": 0.7874015748031497,
          "duration": 0.001096489583346738
        },
        {
          "name": "C#7",
          "midi": 97,
          "time": 191.05234500000395,
          "velocity": 0.7874015748031497,
          "duration": 0.001096489583346738
        },
        {
          "name": "D4",
          "midi": 62,
          "time": 191.1850202395873,
          "velocity": 0.7874015748031497,
          "duration": 0.001096489583346738
        },
        {
          "name": "C5",
          "midi": 72,
          "time": 191.1850202395873,
          "velocity": 0.7874015748031497,
          "duration": 0.001096489583346738
        },
        {
          "name": "D5",
          "midi": 74,
          "time": 191.1850202395873,
          "velocity": 0.7874015748031497,
          "duration": 0.001096489583346738
        },
        {
          "name": "C6",
          "midi": 84,
          "time": 191.1850202395873,
          "velocity": 0.7874015748031497,
          "duration": 0.001096489583346738
        },
        {
          "name": "D6",
          "midi": 86,
          "time": 191.1850202395873,
          "velocity": 0.7874015748031497,
          "duration": 0.001096489583346738
        },
        {
          "name": "C7",
          "midi": 96,
          "time": 191.1850202395873,
          "velocity": 0.7874015748031497,
          "duration": 0.001096489583346738
        },
        {
          "name": "D7",
          "midi": 98,
          "time": 191.1850202395873,
          "velocity": 0.7874015748031497,
          "duration": 0.001096489583346738
        },
        {
          "name": "D#4",
          "midi": 63,
          "time": 191.57866000000396,
          "velocity": 0.7874015748031497,
          "duration": 0.001096489583346738
        },
        {
          "name": "D#5",
          "midi": 75,
          "time": 191.57866000000396,
          "velocity": 0.7874015748031497,
          "duration": 0.001096489583346738
        },
        {
          "name": "D#6",
          "midi": 87,
          "time": 191.57866000000396,
          "velocity": 0.7874015748031497,
          "duration": 0.001096489583346738
        },
        {
          "name": "D#7",
          "midi": 99,
          "time": 191.57866000000396,
          "velocity": 0.7874015748031497,
          "duration": 0.001096489583346738
        },
        {
          "name": "D#7",
          "midi": 99,
          "time": 191.66747565625397,
          "velocity": 0.7874015748031497,
          "duration": 0.001096489583346738
        },
        {
          "name": "D#6",
          "midi": 87,
          "time": 191.71023875000398,
          "velocity": 0.7874015748031497,
          "duration": 0.001096489583346738
        },
        {
          "name": "D#7",
          "midi": 99,
          "time": 191.75409833333734,
          "velocity": 0.7874015748031497,
          "duration": 0.001096489583346738
        },
        {
          "name": "D#5",
          "midi": 75,
          "time": 191.84291398958734,
          "velocity": 0.7874015748031497,
          "duration": 0.001096489583346738
        },
        {
          "name": "D#6",
          "midi": 87,
          "time": 191.84291398958734,
          "velocity": 0.7874015748031497,
          "duration": 0.001096489583346738
        },
        {
          "name": "D#7",
          "midi": 99,
          "time": 191.84291398958734,
          "velocity": 0.7874015748031497,
          "duration": 0.001096489583346738
        },
        {
          "name": "D#6",
          "midi": 87,
          "time": 191.97339625000401,
          "velocity": 0.7874015748031497,
          "duration": 0.001096489583346738
        },
        {
          "name": "D#7",
          "midi": 99,
          "time": 191.97339625000401,
          "velocity": 0.7874015748031497,
          "duration": 0.001096489583346738
        },
        {
          "name": "D#4",
          "midi": 63,
          "time": 192.10497500000403,
          "velocity": 0.7874015748031497,
          "duration": 0.001096489583346738
        },
        {
          "name": "D#5",
          "midi": 75,
          "time": 192.10497500000403,
          "velocity": 0.7874015748031497,
          "duration": 0.001096489583346738
        },
        {
          "name": "D#6",
          "midi": 87,
          "time": 192.10497500000403,
          "velocity": 0.7874015748031497,
          "duration": 0.001096489583346738
        },
        {
          "name": "D#7",
          "midi": 99,
          "time": 192.10497500000403,
          "velocity": 0.7874015748031497,
          "duration": 0.001096489583346738
        },
        {
          "name": "D#6",
          "midi": 87,
          "time": 192.23655375000405,
          "velocity": 0.7874015748031497,
          "duration": 0.001096489583346738
        },
        {
          "name": "D#7",
          "midi": 99,
          "time": 192.23655375000405,
          "velocity": 0.7874015748031497,
          "duration": 0.001096489583346738
        },
        {
          "name": "D#5",
          "midi": 75,
          "time": 192.36813250000407,
          "velocity": 0.7874015748031497,
          "duration": 0.001096489583346738
        },
        {
          "name": "D#6",
          "midi": 87,
          "time": 192.36813250000407,
          "velocity": 0.7874015748031497,
          "duration": 0.001096489583346738
        },
        {
          "name": "D#7",
          "midi": 99,
          "time": 192.36813250000407,
          "velocity": 0.7874015748031497,
          "duration": 0.001096489583346738
        },
        {
          "name": "F6",
          "midi": 89,
          "time": 192.49971125000408,
          "velocity": 0.7874015748031497,
          "duration": 0.001096489583346738
        },
        {
          "name": "F7",
          "midi": 101,
          "time": 192.49971125000408,
          "velocity": 0.7874015748031497,
          "duration": 0.001096489583346738
        },
        {
          "name": "F4",
          "midi": 65,
          "time": 192.6312900000041,
          "velocity": 0.7874015748031497,
          "duration": 0.001096489583346738
        },
        {
          "name": "F5",
          "midi": 77,
          "time": 192.6312900000041,
          "velocity": 0.7874015748031497,
          "duration": 0.001096489583346738
        },
        {
          "name": "F6",
          "midi": 89,
          "time": 192.6312900000041,
          "velocity": 0.7874015748031497,
          "duration": 0.001096489583346738
        },
        {
          "name": "F7",
          "midi": 101,
          "time": 192.6312900000041,
          "velocity": 0.7874015748031497,
          "duration": 0.001096489583346738
        },
        {
          "name": "F6",
          "midi": 89,
          "time": 192.76286875000412,
          "velocity": 0.7874015748031497,
          "duration": 0.001096489583346738
        },
        {
          "name": "F7",
          "midi": 101,
          "time": 192.76286875000412,
          "velocity": 0.7874015748031497,
          "duration": 0.001096489583346738
        },
        {
          "name": "F5",
          "midi": 77,
          "time": 192.89444750000413,
          "velocity": 0.7874015748031497,
          "duration": 0.001096489583346738
        },
        {
          "name": "F6",
          "midi": 89,
          "time": 192.89444750000413,
          "velocity": 0.7874015748031497,
          "duration": 0.001096489583346738
        },
        {
          "name": "F7",
          "midi": 101,
          "time": 192.89444750000413,
          "velocity": 0.7874015748031497,
          "duration": 0.001096489583346738
        },
        {
          "name": "F6",
          "midi": 89,
          "time": 193.02602625000415,
          "velocity": 0.7874015748031497,
          "duration": 0.001096489583346738
        },
        {
          "name": "F7",
          "midi": 101,
          "time": 193.02602625000415,
          "velocity": 0.7874015748031497,
          "duration": 0.001096489583346738
        },
        {
          "name": "F5",
          "midi": 77,
          "time": 193.15760500000417,
          "velocity": 0.7874015748031497,
          "duration": 0.001096489583346738
        },
        {
          "name": "F6",
          "midi": 89,
          "time": 193.15760500000417,
          "velocity": 0.7874015748031497,
          "duration": 0.001096489583346738
        },
        {
          "name": "F7",
          "midi": 101,
          "time": 193.15760500000417,
          "velocity": 0.7874015748031497,
          "duration": 0.001096489583346738
        },
        {
          "name": "D4",
          "midi": 62,
          "time": 193.28918375000418,
          "velocity": 0.7874015748031497,
          "duration": 0.001096489583346738
        },
        {
          "name": "D5",
          "midi": 74,
          "time": 193.28918375000418,
          "velocity": 0.7874015748031497,
          "duration": 0.001096489583346738
        },
        {
          "name": "C6",
          "midi": 84,
          "time": 193.28918375000418,
          "velocity": 0.7874015748031497,
          "duration": 0.001096489583346738
        },
        {
          "name": "D6",
          "midi": 86,
          "time": 193.28918375000418,
          "velocity": 0.7874015748031497,
          "duration": 0.001096489583346738
        },
        {
          "name": "C7",
          "midi": 96,
          "time": 193.28918375000418,
          "velocity": 0.7874015748031497,
          "duration": 0.001096489583346738
        },
        {
          "name": "D7",
          "midi": 98,
          "time": 193.28918375000418,
          "velocity": 0.7874015748031497,
          "duration": 0.001096489583346738
        },
        {
          "name": "D4",
          "midi": 62,
          "time": 193.6839200000042,
          "velocity": 0.7874015748031497,
          "duration": 0.001096489583346738
        },
        {
          "name": "C5",
          "midi": 72,
          "time": 193.6839200000042,
          "velocity": 0.7874015748031497,
          "duration": 0.001096489583346738
        },
        {
          "name": "D5",
          "midi": 74,
          "time": 193.6839200000042,
          "velocity": 0.7874015748031497,
          "duration": 0.001096489583346738
        },
        {
          "name": "C6",
          "midi": 84,
          "time": 193.6839200000042,
          "velocity": 0.7874015748031497,
          "duration": 0.001096489583346738
        },
        {
          "name": "D6",
          "midi": 86,
          "time": 193.6839200000042,
          "velocity": 0.7874015748031497,
          "duration": 0.001096489583346738
        },
        {
          "name": "C7",
          "midi": 96,
          "time": 193.6839200000042,
          "velocity": 0.7874015748031497,
          "duration": 0.001096489583346738
        },
        {
          "name": "D7",
          "midi": 98,
          "time": 193.6839200000042,
          "velocity": 0.7874015748031497,
          "duration": 0.001096489583346738
        },
        {
          "name": "C#4",
          "midi": 61,
          "time": 194.21023500000422,
          "velocity": 0.7874015748031497,
          "duration": 0.001096489583346738
        },
        {
          "name": "C#5",
          "midi": 73,
          "time": 194.21023500000422,
          "velocity": 0.7874015748031497,
          "duration": 0.001096489583346738
        },
        {
          "name": "C#6",
          "midi": 85,
          "time": 194.21023500000422,
          "velocity": 0.7874015748031497,
          "duration": 0.001096489583346738
        },
        {
          "name": "C#7",
          "midi": 97,
          "time": 194.21023500000422,
          "velocity": 0.7874015748031497,
          "duration": 0.001096489583346738
        },
        {
          "name": "E5",
          "midi": 76,
          "time": 194.47339250000422,
          "velocity": 0.7874015748031497,
          "duration": 0.001096489583346738
        },
        {
          "name": "C6",
          "midi": 84,
          "time": 194.47339250000422,
          "velocity": 0.7874015748031497,
          "duration": 0.001096489583346738
        },
        {
          "name": "E6",
          "midi": 88,
          "time": 194.47339250000422,
          "velocity": 0.7874015748031497,
          "duration": 0.001096489583346738
        },
        {
          "name": "C7",
          "midi": 96,
          "time": 194.47339250000422,
          "velocity": 0.7874015748031497,
          "duration": 0.001096489583346738
        },
        {
          "name": "E7",
          "midi": 100,
          "time": 194.47339250000422,
          "velocity": 0.7874015748031497,
          "duration": 0.001096489583346738
        },
        {
          "name": "E4",
          "midi": 64,
          "time": 194.73655000000423,
          "velocity": 0.7874015748031497,
          "duration": 0.001096489583346738
        },
        {
          "name": "E5",
          "midi": 76,
          "time": 194.73655000000423,
          "velocity": 0.7874015748031497,
          "duration": 0.001096489583346738
        },
        {
          "name": "E6",
          "midi": 88,
          "time": 194.73655000000423,
          "velocity": 0.7874015748031497,
          "duration": 0.001096489583346738
        },
        {
          "name": "E7",
          "midi": 100,
          "time": 194.73655000000423,
          "velocity": 0.7874015748031497,
          "duration": 0.001096489583346738
        },
        {
          "name": "E5",
          "midi": 76,
          "time": 194.99970750000423,
          "velocity": 0.7874015748031497,
          "duration": 0.001096489583346738
        },
        {
          "name": "E6",
          "midi": 88,
          "time": 194.99970750000423,
          "velocity": 0.7874015748031497,
          "duration": 0.001096489583346738
        },
        {
          "name": "C7",
          "midi": 96,
          "time": 194.99970750000423,
          "velocity": 0.7874015748031497,
          "duration": 0.001096489583346738
        },
        {
          "name": "E7",
          "midi": 100,
          "time": 194.99970750000423,
          "velocity": 0.7874015748031497,
          "duration": 0.001096489583346738
        },
        {
          "name": "E6",
          "midi": 88,
          "time": 195.13128625000425,
          "velocity": 0.7874015748031497,
          "duration": 0.001096489583346738
        },
        {
          "name": "C7",
          "midi": 96,
          "time": 195.13128625000425,
          "velocity": 0.7874015748031497,
          "duration": 0.001096489583346738
        },
        {
          "name": "E7",
          "midi": 100,
          "time": 195.13128625000425,
          "velocity": 0.7874015748031497,
          "duration": 0.001096489583346738
        },
        {
          "name": "C#4",
          "midi": 61,
          "time": 195.26286500000427,
          "velocity": 0.7874015748031497,
          "duration": 0.001096489583346738
        },
        {
          "name": "C#5",
          "midi": 73,
          "time": 195.26286500000427,
          "velocity": 0.7874015748031497,
          "duration": 0.001096489583346738
        },
        {
          "name": "C#6",
          "midi": 85,
          "time": 195.26286500000427,
          "velocity": 0.7874015748031497,
          "duration": 0.001096489583346738
        },
        {
          "name": "C#7",
          "midi": 97,
          "time": 195.26286500000427,
          "velocity": 0.7874015748031497,
          "duration": 0.001096489583346738
        },
        {
          "name": "E7",
          "midi": 100,
          "time": 195.39444375000429,
          "velocity": 0.7874015748031497,
          "duration": 0.001096489583346738
        },
        {
          "name": "E5",
          "midi": 76,
          "time": 195.52711898958762,
          "velocity": 0.7874015748031497,
          "duration": 0.001096489583346738
        },
        {
          "name": "E6",
          "midi": 88,
          "time": 195.52711898958762,
          "velocity": 0.7874015748031497,
          "duration": 0.001096489583346738
        },
        {
          "name": "C7",
          "midi": 96,
          "time": 195.52711898958762,
          "velocity": 0.7874015748031497,
          "duration": 0.001096489583346738
        },
        {
          "name": "E7",
          "midi": 100,
          "time": 195.52711898958762,
          "velocity": 0.7874015748031497,
          "duration": 0.001096489583346738
        },
        {
          "name": "E4",
          "midi": 64,
          "time": 195.7891800000043,
          "velocity": 0.7874015748031497,
          "duration": 0.001096489583346738
        },
        {
          "name": "C5",
          "midi": 72,
          "time": 195.7891800000043,
          "velocity": 0.7874015748031497,
          "duration": 0.001096489583346738
        },
        {
          "name": "E5",
          "midi": 76,
          "time": 195.7891800000043,
          "velocity": 0.7874015748031497,
          "duration": 0.001096489583346738
        },
        {
          "name": "C6",
          "midi": 84,
          "time": 195.7891800000043,
          "velocity": 0.7874015748031497,
          "duration": 0.001096489583346738
        },
        {
          "name": "E6",
          "midi": 88,
          "time": 195.7891800000043,
          "velocity": 0.7874015748031497,
          "duration": 0.001096489583346738
        },
        {
          "name": "C7",
          "midi": 96,
          "time": 195.7891800000043,
          "velocity": 0.7874015748031497,
          "duration": 0.001096489583346738
        },
        {
          "name": "E7",
          "midi": 100,
          "time": 195.7891800000043,
          "velocity": 0.7874015748031497,
          "duration": 0.001096489583346738
        },
        {
          "name": "E5",
          "midi": 76,
          "time": 196.0523375000043,
          "velocity": 0.7874015748031497,
          "duration": 0.001096489583346738
        },
        {
          "name": "E6",
          "midi": 88,
          "time": 196.0523375000043,
          "velocity": 0.7874015748031497,
          "duration": 0.001096489583346738
        },
        {
          "name": "C7",
          "midi": 96,
          "time": 196.0523375000043,
          "velocity": 0.7874015748031497,
          "duration": 0.001096489583346738
        },
        {
          "name": "E7",
          "midi": 100,
          "time": 196.0523375000043,
          "velocity": 0.7874015748031497,
          "duration": 0.001096489583346738
        },
        {
          "name": "E6",
          "midi": 88,
          "time": 196.18501273958765,
          "velocity": 0.7874015748031497,
          "duration": 0.001096489583346738
        },
        {
          "name": "C7",
          "midi": 96,
          "time": 196.18501273958765,
          "velocity": 0.7874015748031497,
          "duration": 0.001096489583346738
        },
        {
          "name": "E7",
          "midi": 100,
          "time": 196.18501273958765,
          "velocity": 0.7874015748031497,
          "duration": 0.001096489583346738
        },
        {
          "name": "C#4",
          "midi": 61,
          "time": 196.31549500000432,
          "velocity": 0.7874015748031497,
          "duration": 0.001096489583346738
        },
        {
          "name": "C#5",
          "midi": 73,
          "time": 196.31549500000432,
          "velocity": 0.7874015748031497,
          "duration": 0.001096489583346738
        },
        {
          "name": "C#6",
          "midi": 85,
          "time": 196.31549500000432,
          "velocity": 0.7874015748031497,
          "duration": 0.001096489583346738
        },
        {
          "name": "C#7",
          "midi": 97,
          "time": 196.31549500000432,
          "velocity": 0.7874015748031497,
          "duration": 0.001096489583346738
        },
        {
          "name": "E5",
          "midi": 76,
          "time": 196.57865250000432,
          "velocity": 0.7874015748031497,
          "duration": 0.001096489583346738
        },
        {
          "name": "C6",
          "midi": 84,
          "time": 196.57865250000432,
          "velocity": 0.7874015748031497,
          "duration": 0.001096489583346738
        },
        {
          "name": "E6",
          "midi": 88,
          "time": 196.57865250000432,
          "velocity": 0.7874015748031497,
          "duration": 0.001096489583346738
        },
        {
          "name": "C7",
          "midi": 96,
          "time": 196.57865250000432,
          "velocity": 0.7874015748031497,
          "duration": 0.001096489583346738
        },
        {
          "name": "E7",
          "midi": 100,
          "time": 196.57865250000432,
          "velocity": 0.7874015748031497,
          "duration": 0.001096489583346738
        },
        {
          "name": "E4",
          "midi": 64,
          "time": 196.84181000000433,
          "velocity": 0.7874015748031497,
          "duration": 0.001096489583346738
        },
        {
          "name": "E5",
          "midi": 76,
          "time": 196.84181000000433,
          "velocity": 0.7874015748031497,
          "duration": 0.001096489583346738
        },
        {
          "name": "E6",
          "midi": 88,
          "time": 196.84181000000433,
          "velocity": 0.7874015748031497,
          "duration": 0.001096489583346738
        },
        {
          "name": "E7",
          "midi": 100,
          "time": 196.84181000000433,
          "velocity": 0.7874015748031497,
          "duration": 0.001096489583346738
        },
        {
          "name": "E5",
          "midi": 76,
          "time": 197.10387101042102,
          "velocity": 0.7874015748031497,
          "duration": 0.001096489583346738
        },
        {
          "name": "E6",
          "midi": 88,
          "time": 197.10387101042102,
          "velocity": 0.7874015748031497,
          "duration": 0.001096489583346738
        },
        {
          "name": "C7",
          "midi": 96,
          "time": 197.10387101042102,
          "velocity": 0.7874015748031497,
          "duration": 0.001096489583346738
        },
        {
          "name": "E7",
          "midi": 100,
          "time": 197.10387101042102,
          "velocity": 0.7874015748031497,
          "duration": 0.001096489583346738
        },
        {
          "name": "E6",
          "midi": 88,
          "time": 197.23654625000435,
          "velocity": 0.7874015748031497,
          "duration": 0.001096489583346738
        },
        {
          "name": "C7",
          "midi": 96,
          "time": 197.23654625000435,
          "velocity": 0.7874015748031497,
          "duration": 0.001096489583346738
        },
        {
          "name": "E7",
          "midi": 100,
          "time": 197.23654625000435,
          "velocity": 0.7874015748031497,
          "duration": 0.001096489583346738
        },
        {
          "name": "C#4",
          "midi": 61,
          "time": 197.36812500000437,
          "velocity": 0.7874015748031497,
          "duration": 0.001096489583346738
        },
        {
          "name": "C#5",
          "midi": 73,
          "time": 197.36812500000437,
          "velocity": 0.7874015748031497,
          "duration": 0.001096489583346738
        },
        {
          "name": "C#6",
          "midi": 85,
          "time": 197.36812500000437,
          "velocity": 0.7874015748031497,
          "duration": 0.001096489583346738
        },
        {
          "name": "C#7",
          "midi": 97,
          "time": 197.36812500000437,
          "velocity": 0.7874015748031497,
          "duration": 0.001096489583346738
        },
        {
          "name": "E7",
          "midi": 100,
          "time": 197.4997037500044,
          "velocity": 0.7874015748031497,
          "duration": 0.001096489583346738
        },
        {
          "name": "E5",
          "midi": 76,
          "time": 197.63237898958772,
          "velocity": 0.7874015748031497,
          "duration": 0.001096489583346738
        },
        {
          "name": "E6",
          "midi": 88,
          "time": 197.63237898958772,
          "velocity": 0.7874015748031497,
          "duration": 0.001096489583346738
        },
        {
          "name": "C7",
          "midi": 96,
          "time": 197.63237898958772,
          "velocity": 0.7874015748031497,
          "duration": 0.001096489583346738
        },
        {
          "name": "E7",
          "midi": 100,
          "time": 197.63237898958772,
          "velocity": 0.7874015748031497,
          "duration": 0.001096489583346738
        },
        {
          "name": "C4",
          "midi": 60,
          "time": 197.8944400000044,
          "velocity": 0.7874015748031497,
          "duration": 0.001096489583346738
        },
        {
          "name": "C5",
          "midi": 72,
          "time": 197.8944400000044,
          "velocity": 0.7874015748031497,
          "duration": 0.001096489583346738
        },
        {
          "name": "E5",
          "midi": 76,
          "time": 197.8944400000044,
          "velocity": 0.7874015748031497,
          "duration": 0.001096489583346738
        },
        {
          "name": "C6",
          "midi": 84,
          "time": 197.8944400000044,
          "velocity": 0.7874015748031497,
          "duration": 0.001096489583346738
        },
        {
          "name": "E6",
          "midi": 88,
          "time": 197.8944400000044,
          "velocity": 0.7874015748031497,
          "duration": 0.001096489583346738
        },
        {
          "name": "C7",
          "midi": 96,
          "time": 197.8944400000044,
          "velocity": 0.7874015748031497,
          "duration": 0.001096489583346738
        },
        {
          "name": "E7",
          "midi": 100,
          "time": 197.8944400000044,
          "velocity": 0.7874015748031497,
          "duration": 0.001096489583346738
        },
        {
          "name": "E5",
          "midi": 76,
          "time": 198.15869398958776,
          "velocity": 0.7874015748031497,
          "duration": 0.001096489583346738
        },
        {
          "name": "E6",
          "midi": 88,
          "time": 198.15869398958776,
          "velocity": 0.7874015748031497,
          "duration": 0.001096489583346738
        },
        {
          "name": "C7",
          "midi": 96,
          "time": 198.15869398958776,
          "velocity": 0.7874015748031497,
          "duration": 0.001096489583346738
        },
        {
          "name": "E7",
          "midi": 100,
          "time": 198.15869398958776,
          "velocity": 0.7874015748031497,
          "duration": 0.001096489583346738
        },
        {
          "name": "E6",
          "midi": 88,
          "time": 198.28917625000443,
          "velocity": 0.7874015748031497,
          "duration": 0.001096489583346738
        },
        {
          "name": "C7",
          "midi": 96,
          "time": 198.28917625000443,
          "velocity": 0.7874015748031497,
          "duration": 0.001096489583346738
        },
        {
          "name": "E7",
          "midi": 100,
          "time": 198.28917625000443,
          "velocity": 0.7874015748031497,
          "duration": 0.001096489583346738
        },
        {
          "name": "C#4",
          "midi": 61,
          "time": 198.42075500000445,
          "velocity": 0.7874015748031497,
          "duration": 0.001096489583346738
        },
        {
          "name": "C#5",
          "midi": 73,
          "time": 198.42075500000445,
          "velocity": 0.7874015748031497,
          "duration": 0.001096489583346738
        },
        {
          "name": "C#6",
          "midi": 85,
          "time": 198.42075500000445,
          "velocity": 0.7874015748031497,
          "duration": 0.001096489583346738
        },
        {
          "name": "C#7",
          "midi": 97,
          "time": 198.42075500000445,
          "velocity": 0.7874015748031497,
          "duration": 0.001096489583346738
        },
        {
          "name": "E5",
          "midi": 76,
          "time": 198.6850089895878,
          "velocity": 0.7874015748031497,
          "duration": 0.001096489583346738
        },
        {
          "name": "C6",
          "midi": 84,
          "time": 198.6850089895878,
          "velocity": 0.7874015748031497,
          "duration": 0.001096489583346738
        },
        {
          "name": "E6",
          "midi": 88,
          "time": 198.6850089895878,
          "velocity": 0.7874015748031497,
          "duration": 0.001096489583346738
        },
        {
          "name": "C7",
          "midi": 96,
          "time": 198.6850089895878,
          "velocity": 0.7874015748031497,
          "duration": 0.001096489583346738
        },
        {
          "name": "E7",
          "midi": 100,
          "time": 198.6850089895878,
          "velocity": 0.7874015748031497,
          "duration": 0.001096489583346738
        },
        {
          "name": "E4",
          "midi": 64,
          "time": 198.9470700000045,
          "velocity": 0.7874015748031497,
          "duration": 0.001096489583346738
        },
        {
          "name": "E5",
          "midi": 76,
          "time": 198.9470700000045,
          "velocity": 0.7874015748031497,
          "duration": 0.001096489583346738
        },
        {
          "name": "E6",
          "midi": 88,
          "time": 198.9470700000045,
          "velocity": 0.7874015748031497,
          "duration": 0.001096489583346738
        },
        {
          "name": "E7",
          "midi": 100,
          "time": 198.9470700000045,
          "velocity": 0.7874015748031497,
          "duration": 0.001096489583346738
        },
        {
          "name": "E5",
          "midi": 76,
          "time": 199.2102275000045,
          "velocity": 0.7874015748031497,
          "duration": 0.001096489583346738
        },
        {
          "name": "E6",
          "midi": 88,
          "time": 199.2102275000045,
          "velocity": 0.7874015748031497,
          "duration": 0.001096489583346738
        },
        {
          "name": "C7",
          "midi": 96,
          "time": 199.2102275000045,
          "velocity": 0.7874015748031497,
          "duration": 0.001096489583346738
        },
        {
          "name": "E7",
          "midi": 100,
          "time": 199.2102275000045,
          "velocity": 0.7874015748031497,
          "duration": 0.001096489583346738
        },
        {
          "name": "E6",
          "midi": 88,
          "time": 199.34290273958783,
          "velocity": 0.7874015748031497,
          "duration": 0.001096489583346738
        },
        {
          "name": "C7",
          "midi": 96,
          "time": 199.34290273958783,
          "velocity": 0.7874015748031497,
          "duration": 0.001096489583346738
        },
        {
          "name": "E7",
          "midi": 100,
          "time": 199.34290273958783,
          "velocity": 0.7874015748031497,
          "duration": 0.001096489583346738
        },
        {
          "name": "C#4",
          "midi": 61,
          "time": 199.4733850000045,
          "velocity": 0.7874015748031497,
          "duration": 0.001096489583346738
        },
        {
          "name": "C#5",
          "midi": 73,
          "time": 199.4733850000045,
          "velocity": 0.7874015748031497,
          "duration": 0.001096489583346738
        },
        {
          "name": "C#6",
          "midi": 85,
          "time": 199.4733850000045,
          "velocity": 0.7874015748031497,
          "duration": 0.001096489583346738
        },
        {
          "name": "C#7",
          "midi": 97,
          "time": 199.4733850000045,
          "velocity": 0.7874015748031497,
          "duration": 0.001096489583346738
        },
        {
          "name": "E7",
          "midi": 100,
          "time": 199.60496375000452,
          "velocity": 0.7874015748031497,
          "duration": 0.001096489583346738
        },
        {
          "name": "E5",
          "midi": 76,
          "time": 199.73654250000453,
          "velocity": 0.7874015748031497,
          "duration": 0.001096489583346738
        },
        {
          "name": "E6",
          "midi": 88,
          "time": 199.73654250000453,
          "velocity": 0.7874015748031497,
          "duration": 0.001096489583346738
        },
        {
          "name": "C7",
          "midi": 96,
          "time": 199.73654250000453,
          "velocity": 0.7874015748031497,
          "duration": 0.001096489583346738
        },
        {
          "name": "E7",
          "midi": 100,
          "time": 199.73654250000453,
          "velocity": 0.7874015748031497,
          "duration": 0.001096489583346738
        },
        {
          "name": "G#8",
          "midi": 116,
          "time": 199.99970000000454,
          "velocity": 0.7874015748031497,
          "duration": 1.6436378854168083
        },
        {
          "name": "E4",
          "midi": 64,
          "time": 199.99970000000454,
          "velocity": 0.7874015748031497,
          "duration": 0.001096489583346738
        },
        {
          "name": "C5",
          "midi": 72,
          "time": 199.99970000000454,
          "velocity": 0.7874015748031497,
          "duration": 0.001096489583346738
        },
        {
          "name": "E5",
          "midi": 76,
          "time": 199.99970000000454,
          "velocity": 0.7874015748031497,
          "duration": 0.001096489583346738
        },
        {
          "name": "C6",
          "midi": 84,
          "time": 199.99970000000454,
          "velocity": 0.7874015748031497,
          "duration": 0.001096489583346738
        },
        {
          "name": "E6",
          "midi": 88,
          "time": 199.99970000000454,
          "velocity": 0.7874015748031497,
          "duration": 0.001096489583346738
        },
        {
          "name": "C7",
          "midi": 96,
          "time": 199.99970000000454,
          "velocity": 0.7874015748031497,
          "duration": 0.001096489583346738
        },
        {
          "name": "E7",
          "midi": 100,
          "time": 199.99970000000454,
          "velocity": 0.7874015748031497,
          "duration": 0.001096489583346738
        },
        {
          "name": "E5",
          "midi": 76,
          "time": 200.2639539895879,
          "velocity": 0.7874015748031497,
          "duration": 0.001096489583346738
        },
        {
          "name": "E6",
          "midi": 88,
          "time": 200.2639539895879,
          "velocity": 0.7874015748031497,
          "duration": 0.001096489583346738
        },
        {
          "name": "C7",
          "midi": 96,
          "time": 200.2639539895879,
          "velocity": 0.7874015748031497,
          "duration": 0.001096489583346738
        },
        {
          "name": "E7",
          "midi": 100,
          "time": 200.2639539895879,
          "velocity": 0.7874015748031497,
          "duration": 0.001096489583346738
        },
        {
          "name": "E6",
          "midi": 88,
          "time": 200.3955327395879,
          "velocity": 0.7874015748031497,
          "duration": 0.001096489583346738
        },
        {
          "name": "C7",
          "midi": 96,
          "time": 200.3955327395879,
          "velocity": 0.7874015748031497,
          "duration": 0.001096489583346738
        },
        {
          "name": "E7",
          "midi": 100,
          "time": 200.3955327395879,
          "velocity": 0.7874015748031497,
          "duration": 0.001096489583346738
        },
        {
          "name": "C#4",
          "midi": 61,
          "time": 200.52601500000458,
          "velocity": 0.7874015748031497,
          "duration": 0.001096489583346738
        },
        {
          "name": "C#5",
          "midi": 73,
          "time": 200.52601500000458,
          "velocity": 0.7874015748031497,
          "duration": 0.001096489583346738
        },
        {
          "name": "C#6",
          "midi": 85,
          "time": 200.52601500000458,
          "velocity": 0.7874015748031497,
          "duration": 0.001096489583346738
        },
        {
          "name": "C#7",
          "midi": 97,
          "time": 200.52601500000458,
          "velocity": 0.7874015748031497,
          "duration": 0.001096489583346738
        },
        {
          "name": "E5",
          "midi": 76,
          "time": 200.79026898958793,
          "velocity": 0.7874015748031497,
          "duration": 0.001096489583346738
        },
        {
          "name": "C6",
          "midi": 84,
          "time": 200.79026898958793,
          "velocity": 0.7874015748031497,
          "duration": 0.001096489583346738
        },
        {
          "name": "E6",
          "midi": 88,
          "time": 200.79026898958793,
          "velocity": 0.7874015748031497,
          "duration": 0.001096489583346738
        },
        {
          "name": "C7",
          "midi": 96,
          "time": 200.79026898958793,
          "velocity": 0.7874015748031497,
          "duration": 0.001096489583346738
        },
        {
          "name": "E7",
          "midi": 100,
          "time": 200.79026898958793,
          "velocity": 0.7874015748031497,
          "duration": 0.001096489583346738
        },
        {
          "name": "E4",
          "midi": 64,
          "time": 201.05233000000462,
          "velocity": 0.7874015748031497,
          "duration": 0.001096489583346738
        },
        {
          "name": "E5",
          "midi": 76,
          "time": 201.05233000000462,
          "velocity": 0.7874015748031497,
          "duration": 0.001096489583346738
        },
        {
          "name": "E6",
          "midi": 88,
          "time": 201.05233000000462,
          "velocity": 0.7874015748031497,
          "duration": 0.001096489583346738
        },
        {
          "name": "E7",
          "midi": 100,
          "time": 201.05233000000462,
          "velocity": 0.7874015748031497,
          "duration": 0.001096489583346738
        },
        {
          "name": "E5",
          "midi": 76,
          "time": 201.3143910104213,
          "velocity": 0.7874015748031497,
          "duration": 0.001096489583346738
        },
        {
          "name": "E6",
          "midi": 88,
          "time": 201.3143910104213,
          "velocity": 0.7874015748031497,
          "duration": 0.001096489583346738
        },
        {
          "name": "C7",
          "midi": 96,
          "time": 201.3143910104213,
          "velocity": 0.7874015748031497,
          "duration": 0.001096489583346738
        },
        {
          "name": "E7",
          "midi": 100,
          "time": 201.3143910104213,
          "velocity": 0.7874015748031497,
          "duration": 0.001096489583346738
        },
        {
          "name": "E6",
          "midi": 88,
          "time": 201.44706625000464,
          "velocity": 0.7874015748031497,
          "duration": 0.001096489583346738
        },
        {
          "name": "C7",
          "midi": 96,
          "time": 201.44706625000464,
          "velocity": 0.7874015748031497,
          "duration": 0.001096489583346738
        },
        {
          "name": "E7",
          "midi": 100,
          "time": 201.44706625000464,
          "velocity": 0.7874015748031497,
          "duration": 0.001096489583346738
        },
        {
          "name": "C#4",
          "midi": 61,
          "time": 201.57864500000466,
          "velocity": 0.7874015748031497,
          "duration": 0.001096489583346738
        },
        {
          "name": "C#5",
          "midi": 73,
          "time": 201.57864500000466,
          "velocity": 0.7874015748031497,
          "duration": 0.001096489583346738
        },
        {
          "name": "C#6",
          "midi": 85,
          "time": 201.57864500000466,
          "velocity": 0.7874015748031497,
          "duration": 0.001096489583346738
        },
        {
          "name": "C#7",
          "midi": 97,
          "time": 201.57864500000466,
          "velocity": 0.7874015748031497,
          "duration": 0.001096489583346738
        },
        {
          "name": "E7",
          "midi": 100,
          "time": 201.71022375000467,
          "velocity": 0.7874015748031497,
          "duration": 0.001096489583346738
        },
        {
          "name": "E5",
          "midi": 76,
          "time": 201.842898989588,
          "velocity": 0.7874015748031497,
          "duration": 0.001096489583346738
        },
        {
          "name": "E6",
          "midi": 88,
          "time": 201.842898989588,
          "velocity": 0.7874015748031497,
          "duration": 0.001096489583346738
        },
        {
          "name": "C7",
          "midi": 96,
          "time": 201.842898989588,
          "velocity": 0.7874015748031497,
          "duration": 0.001096489583346738
        },
        {
          "name": "E7",
          "midi": 100,
          "time": 201.842898989588,
          "velocity": 0.7874015748031497,
          "duration": 0.001096489583346738
        },
        {
          "name": "C4",
          "midi": 60,
          "time": 202.1049600000047,
          "velocity": 0.7874015748031497,
          "duration": 0.001096489583346738
        },
        {
          "name": "C5",
          "midi": 72,
          "time": 202.1049600000047,
          "velocity": 0.7874015748031497,
          "duration": 0.001096489583346738
        },
        {
          "name": "E5",
          "midi": 76,
          "time": 202.1049600000047,
          "velocity": 0.7874015748031497,
          "duration": 0.001096489583346738
        },
        {
          "name": "C6",
          "midi": 84,
          "time": 202.1049600000047,
          "velocity": 0.7874015748031497,
          "duration": 0.001096489583346738
        },
        {
          "name": "E6",
          "midi": 88,
          "time": 202.1049600000047,
          "velocity": 0.7874015748031497,
          "duration": 0.001096489583346738
        },
        {
          "name": "C7",
          "midi": 96,
          "time": 202.1049600000047,
          "velocity": 0.7874015748031497,
          "duration": 0.001096489583346738
        },
        {
          "name": "E7",
          "midi": 100,
          "time": 202.1049600000047,
          "velocity": 0.7874015748031497,
          "duration": 0.001096489583346738
        },
        {
          "name": "E5",
          "midi": 76,
          "time": 202.3681175000047,
          "velocity": 0.7874015748031497,
          "duration": 0.001096489583346738
        },
        {
          "name": "E6",
          "midi": 88,
          "time": 202.3681175000047,
          "velocity": 0.7874015748031497,
          "duration": 0.001096489583346738
        },
        {
          "name": "C7",
          "midi": 96,
          "time": 202.3681175000047,
          "velocity": 0.7874015748031497,
          "duration": 0.001096489583346738
        },
        {
          "name": "E7",
          "midi": 100,
          "time": 202.3681175000047,
          "velocity": 0.7874015748031497,
          "duration": 0.001096489583346738
        },
        {
          "name": "E6",
          "midi": 88,
          "time": 202.50079273958804,
          "velocity": 0.7874015748031497,
          "duration": 0.001096489583346738
        },
        {
          "name": "C7",
          "midi": 96,
          "time": 202.50079273958804,
          "velocity": 0.7874015748031497,
          "duration": 0.001096489583346738
        },
        {
          "name": "E7",
          "midi": 100,
          "time": 202.50079273958804,
          "velocity": 0.7874015748031497,
          "duration": 0.001096489583346738
        },
        {
          "name": "C#4",
          "midi": 61,
          "time": 202.6312750000047,
          "velocity": 0.7874015748031497,
          "duration": 0.001096489583346738
        },
        {
          "name": "C#5",
          "midi": 73,
          "time": 202.6312750000047,
          "velocity": 0.7874015748031497,
          "duration": 0.001096489583346738
        },
        {
          "name": "C#6",
          "midi": 85,
          "time": 202.6312750000047,
          "velocity": 0.7874015748031497,
          "duration": 0.001096489583346738
        },
        {
          "name": "C#7",
          "midi": 97,
          "time": 202.6312750000047,
          "velocity": 0.7874015748031497,
          "duration": 0.001096489583346738
        },
        {
          "name": "E5",
          "midi": 76,
          "time": 202.89552898958806,
          "velocity": 0.7874015748031497,
          "duration": 0.001096489583346738
        },
        {
          "name": "C6",
          "midi": 84,
          "time": 202.89552898958806,
          "velocity": 0.7874015748031497,
          "duration": 0.001096489583346738
        },
        {
          "name": "E6",
          "midi": 88,
          "time": 202.89552898958806,
          "velocity": 0.7874015748031497,
          "duration": 0.001096489583346738
        },
        {
          "name": "C7",
          "midi": 96,
          "time": 202.89552898958806,
          "velocity": 0.7874015748031497,
          "duration": 0.001096489583346738
        },
        {
          "name": "E7",
          "midi": 100,
          "time": 202.89552898958806,
          "velocity": 0.7874015748031497,
          "duration": 0.001096489583346738
        },
        {
          "name": "E4",
          "midi": 64,
          "time": 203.15759000000475,
          "velocity": 0.7874015748031497,
          "duration": 0.001096489583346738
        },
        {
          "name": "E5",
          "midi": 76,
          "time": 203.15759000000475,
          "velocity": 0.7874015748031497,
          "duration": 0.001096489583346738
        },
        {
          "name": "E6",
          "midi": 88,
          "time": 203.15759000000475,
          "velocity": 0.7874015748031497,
          "duration": 0.001096489583346738
        },
        {
          "name": "E7",
          "midi": 100,
          "time": 203.15759000000475,
          "velocity": 0.7874015748031497,
          "duration": 0.001096489583346738
        },
        {
          "name": "E5",
          "midi": 76,
          "time": 203.4218439895881,
          "velocity": 0.7874015748031497,
          "duration": 0.001096489583346738
        },
        {
          "name": "E6",
          "midi": 88,
          "time": 203.4218439895881,
          "velocity": 0.7874015748031497,
          "duration": 0.001096489583346738
        },
        {
          "name": "C7",
          "midi": 96,
          "time": 203.4218439895881,
          "velocity": 0.7874015748031497,
          "duration": 0.001096489583346738
        },
        {
          "name": "E7",
          "midi": 100,
          "time": 203.4218439895881,
          "velocity": 0.7874015748031497,
          "duration": 0.001096489583346738
        },
        {
          "name": "E6",
          "midi": 88,
          "time": 203.55232625000477,
          "velocity": 0.7874015748031497,
          "duration": 0.001096489583346738
        },
        {
          "name": "C7",
          "midi": 96,
          "time": 203.55232625000477,
          "velocity": 0.7874015748031497,
          "duration": 0.001096489583346738
        },
        {
          "name": "E7",
          "midi": 100,
          "time": 203.55232625000477,
          "velocity": 0.7874015748031497,
          "duration": 0.001096489583346738
        },
        {
          "name": "C#4",
          "midi": 61,
          "time": 203.68390500000478,
          "velocity": 0.7874015748031497,
          "duration": 0.001096489583346738
        },
        {
          "name": "C#5",
          "midi": 73,
          "time": 203.68390500000478,
          "velocity": 0.7874015748031497,
          "duration": 0.001096489583346738
        },
        {
          "name": "C#6",
          "midi": 85,
          "time": 203.68390500000478,
          "velocity": 0.7874015748031497,
          "duration": 0.001096489583346738
        },
        {
          "name": "C#7",
          "midi": 97,
          "time": 203.68390500000478,
          "velocity": 0.7874015748031497,
          "duration": 0.001096489583346738
        },
        {
          "name": "E7",
          "midi": 100,
          "time": 203.8154837500048,
          "velocity": 0.7874015748031497,
          "duration": 0.001096489583346738
        },
        {
          "name": "E5",
          "midi": 76,
          "time": 203.94596601042147,
          "velocity": 0.7874015748031497,
          "duration": 0.001096489583346738
        },
        {
          "name": "E6",
          "midi": 88,
          "time": 203.94596601042147,
          "velocity": 0.7874015748031497,
          "duration": 0.001096489583346738
        },
        {
          "name": "C7",
          "midi": 96,
          "time": 203.94596601042147,
          "velocity": 0.7874015748031497,
          "duration": 0.001096489583346738
        },
        {
          "name": "E7",
          "midi": 100,
          "time": 203.94596601042147,
          "velocity": 0.7874015748031497,
          "duration": 0.001096489583346738
        },
        {
          "name": "E4",
          "midi": 64,
          "time": 204.21022000000482,
          "velocity": 0.7874015748031497,
          "duration": 0.001096489583346738
        },
        {
          "name": "C5",
          "midi": 72,
          "time": 204.21022000000482,
          "velocity": 0.7874015748031497,
          "duration": 0.001096489583346738
        },
        {
          "name": "E5",
          "midi": 76,
          "time": 204.21022000000482,
          "velocity": 0.7874015748031497,
          "duration": 0.001096489583346738
        },
        {
          "name": "C6",
          "midi": 84,
          "time": 204.21022000000482,
          "velocity": 0.7874015748031497,
          "duration": 0.001096489583346738
        },
        {
          "name": "E6",
          "midi": 88,
          "time": 204.21022000000482,
          "velocity": 0.7874015748031497,
          "duration": 0.001096489583346738
        },
        {
          "name": "C7",
          "midi": 96,
          "time": 204.21022000000482,
          "velocity": 0.7874015748031497,
          "duration": 0.001096489583346738
        },
        {
          "name": "E7",
          "midi": 100,
          "time": 204.21022000000482,
          "velocity": 0.7874015748031497,
          "duration": 0.001096489583346738
        },
        {
          "name": "E5",
          "midi": 76,
          "time": 204.4722810104215,
          "velocity": 0.7874015748031497,
          "duration": 0.001096489583346738
        },
        {
          "name": "E6",
          "midi": 88,
          "time": 204.4722810104215,
          "velocity": 0.7874015748031497,
          "duration": 0.001096489583346738
        },
        {
          "name": "C7",
          "midi": 96,
          "time": 204.4722810104215,
          "velocity": 0.7874015748031497,
          "duration": 0.001096489583346738
        },
        {
          "name": "E7",
          "midi": 100,
          "time": 204.4722810104215,
          "velocity": 0.7874015748031497,
          "duration": 0.001096489583346738
        },
        {
          "name": "E6",
          "midi": 88,
          "time": 204.60495625000485,
          "velocity": 0.7874015748031497,
          "duration": 0.001096489583346738
        },
        {
          "name": "C7",
          "midi": 96,
          "time": 204.60495625000485,
          "velocity": 0.7874015748031497,
          "duration": 0.001096489583346738
        },
        {
          "name": "E7",
          "midi": 100,
          "time": 204.60495625000485,
          "velocity": 0.7874015748031497,
          "duration": 0.001096489583346738
        },
        {
          "name": "C#4",
          "midi": 61,
          "time": 204.73653500000486,
          "velocity": 0.7874015748031497,
          "duration": 0.001096489583346738
        },
        {
          "name": "C#5",
          "midi": 73,
          "time": 204.73653500000486,
          "velocity": 0.7874015748031497,
          "duration": 0.001096489583346738
        },
        {
          "name": "C#6",
          "midi": 85,
          "time": 204.73653500000486,
          "velocity": 0.7874015748031497,
          "duration": 0.001096489583346738
        },
        {
          "name": "C#7",
          "midi": 97,
          "time": 204.73653500000486,
          "velocity": 0.7874015748031497,
          "duration": 0.001096489583346738
        },
        {
          "name": "E5",
          "midi": 76,
          "time": 204.99969250000487,
          "velocity": 0.7874015748031497,
          "duration": 0.001096489583346738
        },
        {
          "name": "C6",
          "midi": 84,
          "time": 204.99969250000487,
          "velocity": 0.7874015748031497,
          "duration": 0.001096489583346738
        },
        {
          "name": "E6",
          "midi": 88,
          "time": 204.99969250000487,
          "velocity": 0.7874015748031497,
          "duration": 0.001096489583346738
        },
        {
          "name": "C7",
          "midi": 96,
          "time": 204.99969250000487,
          "velocity": 0.7874015748031497,
          "duration": 0.001096489583346738
        },
        {
          "name": "E7",
          "midi": 100,
          "time": 204.99969250000487,
          "velocity": 0.7874015748031497,
          "duration": 0.001096489583346738
        },
        {
          "name": "E4",
          "midi": 64,
          "time": 205.26285000000487,
          "velocity": 0.7874015748031497,
          "duration": 0.001096489583346738
        },
        {
          "name": "E5",
          "midi": 76,
          "time": 205.26285000000487,
          "velocity": 0.7874015748031497,
          "duration": 0.001096489583346738
        },
        {
          "name": "E6",
          "midi": 88,
          "time": 205.26285000000487,
          "velocity": 0.7874015748031497,
          "duration": 0.001096489583346738
        },
        {
          "name": "E7",
          "midi": 100,
          "time": 205.26285000000487,
          "velocity": 0.7874015748031497,
          "duration": 0.001096489583346738
        },
        {
          "name": "E5",
          "midi": 76,
          "time": 205.52600750000488,
          "velocity": 0.7874015748031497,
          "duration": 0.001096489583346738
        },
        {
          "name": "E6",
          "midi": 88,
          "time": 205.52600750000488,
          "velocity": 0.7874015748031497,
          "duration": 0.001096489583346738
        },
        {
          "name": "C7",
          "midi": 96,
          "time": 205.52600750000488,
          "velocity": 0.7874015748031497,
          "duration": 0.001096489583346738
        },
        {
          "name": "E7",
          "midi": 100,
          "time": 205.52600750000488,
          "velocity": 0.7874015748031497,
          "duration": 0.001096489583346738
        },
        {
          "name": "E6",
          "midi": 88,
          "time": 205.65868273958822,
          "velocity": 0.7874015748031497,
          "duration": 0.001096489583346738
        },
        {
          "name": "C7",
          "midi": 96,
          "time": 205.65868273958822,
          "velocity": 0.7874015748031497,
          "duration": 0.001096489583346738
        },
        {
          "name": "E7",
          "midi": 100,
          "time": 205.65868273958822,
          "velocity": 0.7874015748031497,
          "duration": 0.001096489583346738
        },
        {
          "name": "C#4",
          "midi": 61,
          "time": 205.78916500000489,
          "velocity": 0.7874015748031497,
          "duration": 0.001096489583346738
        },
        {
          "name": "C#5",
          "midi": 73,
          "time": 205.78916500000489,
          "velocity": 0.7874015748031497,
          "duration": 0.001096489583346738
        },
        {
          "name": "C#6",
          "midi": 85,
          "time": 205.78916500000489,
          "velocity": 0.7874015748031497,
          "duration": 0.001096489583346738
        },
        {
          "name": "C#7",
          "midi": 97,
          "time": 205.78916500000489,
          "velocity": 0.7874015748031497,
          "duration": 0.001096489583346738
        },
        {
          "name": "E7",
          "midi": 100,
          "time": 205.9207437500049,
          "velocity": 0.7874015748031497,
          "duration": 0.001096489583346738
        },
        {
          "name": "E5",
          "midi": 76,
          "time": 206.05232250000492,
          "velocity": 0.7874015748031497,
          "duration": 0.001096489583346738
        },
        {
          "name": "E6",
          "midi": 88,
          "time": 206.05232250000492,
          "velocity": 0.7874015748031497,
          "duration": 0.001096489583346738
        },
        {
          "name": "C7",
          "midi": 96,
          "time": 206.05232250000492,
          "velocity": 0.7874015748031497,
          "duration": 0.001096489583346738
        },
        {
          "name": "E7",
          "midi": 100,
          "time": 206.05232250000492,
          "velocity": 0.7874015748031497,
          "duration": 0.001096489583346738
        },
        {
          "name": "C4",
          "midi": 60,
          "time": 206.31548000000492,
          "velocity": 0.7874015748031497,
          "duration": 0.001096489583346738
        },
        {
          "name": "C5",
          "midi": 72,
          "time": 206.31548000000492,
          "velocity": 0.7874015748031497,
          "duration": 0.001096489583346738
        },
        {
          "name": "E5",
          "midi": 76,
          "time": 206.31548000000492,
          "velocity": 0.7874015748031497,
          "duration": 0.001096489583346738
        },
        {
          "name": "C6",
          "midi": 84,
          "time": 206.31548000000492,
          "velocity": 0.7874015748031497,
          "duration": 0.001096489583346738
        },
        {
          "name": "E6",
          "midi": 88,
          "time": 206.31548000000492,
          "velocity": 0.7874015748031497,
          "duration": 0.001096489583346738
        },
        {
          "name": "C7",
          "midi": 96,
          "time": 206.31548000000492,
          "velocity": 0.7874015748031497,
          "duration": 0.001096489583346738
        },
        {
          "name": "E7",
          "midi": 100,
          "time": 206.31548000000492,
          "velocity": 0.7874015748031497,
          "duration": 0.001096489583346738
        },
        {
          "name": "E5",
          "midi": 76,
          "time": 206.57863750000493,
          "velocity": 0.7874015748031497,
          "duration": 0.001096489583346738
        },
        {
          "name": "E6",
          "midi": 88,
          "time": 206.57863750000493,
          "velocity": 0.7874015748031497,
          "duration": 0.001096489583346738
        },
        {
          "name": "C7",
          "midi": 96,
          "time": 206.57863750000493,
          "velocity": 0.7874015748031497,
          "duration": 0.001096489583346738
        },
        {
          "name": "E7",
          "midi": 100,
          "time": 206.57863750000493,
          "velocity": 0.7874015748031497,
          "duration": 0.001096489583346738
        },
        {
          "name": "E6",
          "midi": 88,
          "time": 206.71131273958827,
          "velocity": 0.7874015748031497,
          "duration": 0.001096489583346738
        },
        {
          "name": "C7",
          "midi": 96,
          "time": 206.71131273958827,
          "velocity": 0.7874015748031497,
          "duration": 0.001096489583346738
        },
        {
          "name": "E7",
          "midi": 100,
          "time": 206.71131273958827,
          "velocity": 0.7874015748031497,
          "duration": 0.001096489583346738
        },
        {
          "name": "C#4",
          "midi": 61,
          "time": 206.84179500000494,
          "velocity": 0.7874015748031497,
          "duration": 0.001096489583346738
        },
        {
          "name": "C#5",
          "midi": 73,
          "time": 206.84179500000494,
          "velocity": 0.7874015748031497,
          "duration": 0.001096489583346738
        },
        {
          "name": "C#6",
          "midi": 85,
          "time": 206.84179500000494,
          "velocity": 0.7874015748031497,
          "duration": 0.001096489583346738
        },
        {
          "name": "C#7",
          "midi": 97,
          "time": 206.84179500000494,
          "velocity": 0.7874015748031497,
          "duration": 0.001096489583346738
        },
        {
          "name": "E5",
          "midi": 76,
          "time": 207.1060489895883,
          "velocity": 0.7874015748031497,
          "duration": 0.001096489583346738
        },
        {
          "name": "C6",
          "midi": 84,
          "time": 207.1060489895883,
          "velocity": 0.7874015748031497,
          "duration": 0.001096489583346738
        },
        {
          "name": "E6",
          "midi": 88,
          "time": 207.1060489895883,
          "velocity": 0.7874015748031497,
          "duration": 0.001096489583346738
        },
        {
          "name": "C7",
          "midi": 96,
          "time": 207.1060489895883,
          "velocity": 0.7874015748031497,
          "duration": 0.001096489583346738
        },
        {
          "name": "E7",
          "midi": 100,
          "time": 207.1060489895883,
          "velocity": 0.7874015748031497,
          "duration": 0.001096489583346738
        },
        {
          "name": "E4",
          "midi": 64,
          "time": 207.36811000000498,
          "velocity": 0.7874015748031497,
          "duration": 0.001096489583346738
        },
        {
          "name": "E5",
          "midi": 76,
          "time": 207.36811000000498,
          "velocity": 0.7874015748031497,
          "duration": 0.001096489583346738
        },
        {
          "name": "E6",
          "midi": 88,
          "time": 207.36811000000498,
          "velocity": 0.7874015748031497,
          "duration": 0.001096489583346738
        },
        {
          "name": "E7",
          "midi": 100,
          "time": 207.36811000000498,
          "velocity": 0.7874015748031497,
          "duration": 0.001096489583346738
        },
        {
          "name": "E5",
          "midi": 76,
          "time": 207.63236398958833,
          "velocity": 0.7874015748031497,
          "duration": 0.001096489583346738
        },
        {
          "name": "E6",
          "midi": 88,
          "time": 207.63236398958833,
          "velocity": 0.7874015748031497,
          "duration": 0.001096489583346738
        },
        {
          "name": "C7",
          "midi": 96,
          "time": 207.63236398958833,
          "velocity": 0.7874015748031497,
          "duration": 0.001096489583346738
        },
        {
          "name": "E7",
          "midi": 100,
          "time": 207.63236398958833,
          "velocity": 0.7874015748031497,
          "duration": 0.001096489583346738
        },
        {
          "name": "E6",
          "midi": 88,
          "time": 207.762846250005,
          "velocity": 0.7874015748031497,
          "duration": 0.001096489583346738
        },
        {
          "name": "C7",
          "midi": 96,
          "time": 207.762846250005,
          "velocity": 0.7874015748031497,
          "duration": 0.001096489583346738
        },
        {
          "name": "E7",
          "midi": 100,
          "time": 207.762846250005,
          "velocity": 0.7874015748031497,
          "duration": 0.001096489583346738
        },
        {
          "name": "C#4",
          "midi": 61,
          "time": 207.89442500000501,
          "velocity": 0.7874015748031497,
          "duration": 0.001096489583346738
        },
        {
          "name": "C#5",
          "midi": 73,
          "time": 207.89442500000501,
          "velocity": 0.7874015748031497,
          "duration": 0.001096489583346738
        },
        {
          "name": "C#6",
          "midi": 85,
          "time": 207.89442500000501,
          "velocity": 0.7874015748031497,
          "duration": 0.001096489583346738
        },
        {
          "name": "C#7",
          "midi": 97,
          "time": 207.89442500000501,
          "velocity": 0.7874015748031497,
          "duration": 0.001096489583346738
        },
        {
          "name": "E7",
          "midi": 100,
          "time": 208.02710023958835,
          "velocity": 0.7874015748031497,
          "duration": 0.001096489583346738
        },
        {
          "name": "E5",
          "midi": 76,
          "time": 208.15758250000502,
          "velocity": 0.7874015748031497,
          "duration": 0.001096489583346738
        },
        {
          "name": "E6",
          "midi": 88,
          "time": 208.15758250000502,
          "velocity": 0.7874015748031497,
          "duration": 0.001096489583346738
        },
        {
          "name": "C7",
          "midi": 96,
          "time": 208.15758250000502,
          "velocity": 0.7874015748031497,
          "duration": 0.001096489583346738
        },
        {
          "name": "E7",
          "midi": 100,
          "time": 208.15758250000502,
          "velocity": 0.7874015748031497,
          "duration": 0.001096489583346738
        },
        {
          "name": "E4",
          "midi": 64,
          "time": 208.42074000000503,
          "velocity": 0.7874015748031497,
          "duration": 0.001096489583346738
        },
        {
          "name": "C5",
          "midi": 72,
          "time": 208.42074000000503,
          "velocity": 0.7874015748031497,
          "duration": 0.001096489583346738
        },
        {
          "name": "E5",
          "midi": 76,
          "time": 208.42074000000503,
          "velocity": 0.7874015748031497,
          "duration": 0.001096489583346738
        },
        {
          "name": "C6",
          "midi": 84,
          "time": 208.42074000000503,
          "velocity": 0.7874015748031497,
          "duration": 0.001096489583346738
        },
        {
          "name": "E6",
          "midi": 88,
          "time": 208.42074000000503,
          "velocity": 0.7874015748031497,
          "duration": 0.001096489583346738
        },
        {
          "name": "C7",
          "midi": 96,
          "time": 208.42074000000503,
          "velocity": 0.7874015748031497,
          "duration": 0.001096489583346738
        },
        {
          "name": "E7",
          "midi": 100,
          "time": 208.42074000000503,
          "velocity": 0.7874015748031497,
          "duration": 0.001096489583346738
        },
        {
          "name": "E5",
          "midi": 76,
          "time": 208.68389750000503,
          "velocity": 0.7874015748031497,
          "duration": 0.001096489583346738
        },
        {
          "name": "E6",
          "midi": 88,
          "time": 208.68389750000503,
          "velocity": 0.7874015748031497,
          "duration": 0.001096489583346738
        },
        {
          "name": "C7",
          "midi": 96,
          "time": 208.68389750000503,
          "velocity": 0.7874015748031497,
          "duration": 0.001096489583346738
        },
        {
          "name": "E7",
          "midi": 100,
          "time": 208.68389750000503,
          "velocity": 0.7874015748031497,
          "duration": 0.001096489583346738
        },
        {
          "name": "E6",
          "midi": 88,
          "time": 208.81657273958837,
          "velocity": 0.7874015748031497,
          "duration": 0.001096489583346738
        },
        {
          "name": "C7",
          "midi": 96,
          "time": 208.81657273958837,
          "velocity": 0.7874015748031497,
          "duration": 0.001096489583346738
        },
        {
          "name": "E7",
          "midi": 100,
          "time": 208.81657273958837,
          "velocity": 0.7874015748031497,
          "duration": 0.001096489583346738
        },
        {
          "name": "C#4",
          "midi": 61,
          "time": 208.94705500000504,
          "velocity": 0.7874015748031497,
          "duration": 0.001096489583346738
        },
        {
          "name": "C#5",
          "midi": 73,
          "time": 208.94705500000504,
          "velocity": 0.7874015748031497,
          "duration": 0.001096489583346738
        },
        {
          "name": "C#6",
          "midi": 85,
          "time": 208.94705500000504,
          "velocity": 0.7874015748031497,
          "duration": 0.001096489583346738
        },
        {
          "name": "C#7",
          "midi": 97,
          "time": 208.94705500000504,
          "velocity": 0.7874015748031497,
          "duration": 0.001096489583346738
        },
        {
          "name": "E5",
          "midi": 76,
          "time": 209.2113089895884,
          "velocity": 0.7874015748031497,
          "duration": 0.001096489583346738
        },
        {
          "name": "C6",
          "midi": 84,
          "time": 209.2113089895884,
          "velocity": 0.7874015748031497,
          "duration": 0.001096489583346738
        },
        {
          "name": "E6",
          "midi": 88,
          "time": 209.2113089895884,
          "velocity": 0.7874015748031497,
          "duration": 0.001096489583346738
        },
        {
          "name": "C7",
          "midi": 96,
          "time": 209.2113089895884,
          "velocity": 0.7874015748031497,
          "duration": 0.001096489583346738
        },
        {
          "name": "E7",
          "midi": 100,
          "time": 209.2113089895884,
          "velocity": 0.7874015748031497,
          "duration": 0.001096489583346738
        },
        {
          "name": "C#4",
          "midi": 61,
          "time": 209.47337000000508,
          "velocity": 0.7874015748031497,
          "duration": 0.001096489583346738
        },
        {
          "name": "C#5",
          "midi": 73,
          "time": 209.47337000000508,
          "velocity": 0.7874015748031497,
          "duration": 0.001096489583346738
        },
        {
          "name": "C#6",
          "midi": 85,
          "time": 209.47337000000508,
          "velocity": 0.7874015748031497,
          "duration": 0.001096489583346738
        },
        {
          "name": "C#7",
          "midi": 97,
          "time": 209.47337000000508,
          "velocity": 0.7874015748031497,
          "duration": 0.001096489583346738
        },
        {
          "name": "D#6",
          "midi": 87,
          "time": 209.64880833333842,
          "velocity": 0.7874015748031497,
          "duration": 0.001096489583346738
        },
        {
          "name": "D#7",
          "midi": 99,
          "time": 209.64880833333842,
          "velocity": 0.7874015748031497,
          "duration": 0.001096489583346738
        },
        {
          "name": "D#7",
          "midi": 99,
          "time": 209.73762398958843,
          "velocity": 0.7874015748031497,
          "duration": 0.001096489583346738
        },
        {
          "name": "D#6",
          "midi": 87,
          "time": 209.82534315625512,
          "velocity": 0.7874015748031497,
          "duration": 0.001096489583346738
        },
        {
          "name": "D#7",
          "midi": 99,
          "time": 209.82534315625512,
          "velocity": 0.7874015748031497,
          "duration": 0.001096489583346738
        },
        {
          "name": "D#5",
          "midi": 75,
          "time": 209.86920273958847,
          "velocity": 0.7874015748031497,
          "duration": 0.001096489583346738
        },
        {
          "name": "D#7",
          "midi": 99,
          "time": 209.91196583333848,
          "velocity": 0.7874015748031497,
          "duration": 0.001096489583346738
        },
        {
          "name": "D#4",
          "midi": 63,
          "time": 209.99968500000517,
          "velocity": 0.7874015748031497,
          "duration": 0.001096489583346738
        },
        {
          "name": "D#7",
          "midi": 99,
          "time": 209.99968500000517,
          "velocity": 0.7874015748031497,
          "duration": 0.001096489583346738
        },
        {
          "name": "D#7",
          "midi": 99,
          "time": 210.1312637500052,
          "velocity": 0.7874015748031497,
          "duration": 0.001096489583346738
        },
        {
          "name": "C#5",
          "midi": 73,
          "time": 210.26393898958852,
          "velocity": 0.7874015748031497,
          "duration": 0.001096489583346738
        },
        {
          "name": "C#6",
          "midi": 85,
          "time": 210.26393898958852,
          "velocity": 0.7874015748031497,
          "duration": 0.001096489583346738
        },
        {
          "name": "C#7",
          "midi": 97,
          "time": 210.26393898958852,
          "velocity": 0.7874015748031497,
          "duration": 0.001096489583346738
        },
        {
          "name": "C#6",
          "midi": 85,
          "time": 210.3944212500052,
          "velocity": 0.7874015748031497,
          "duration": 0.001096489583346738
        },
        {
          "name": "C#7",
          "midi": 97,
          "time": 210.3944212500052,
          "velocity": 0.7874015748031497,
          "duration": 0.001096489583346738
        },
        {
          "name": "D4",
          "midi": 62,
          "time": 210.5260000000052,
          "velocity": 0.7874015748031497,
          "duration": 0.001096489583346738
        },
        {
          "name": "C5",
          "midi": 72,
          "time": 210.5260000000052,
          "velocity": 0.7874015748031497,
          "duration": 0.001096489583346738
        },
        {
          "name": "D5",
          "midi": 74,
          "time": 210.5260000000052,
          "velocity": 0.7874015748031497,
          "duration": 0.001096489583346738
        },
        {
          "name": "C6",
          "midi": 84,
          "time": 210.5260000000052,
          "velocity": 0.7874015748031497,
          "duration": 0.001096489583346738
        },
        {
          "name": "D6",
          "midi": 86,
          "time": 210.5260000000052,
          "velocity": 0.7874015748031497,
          "duration": 0.001096489583346738
        },
        {
          "name": "C7",
          "midi": 96,
          "time": 210.5260000000052,
          "velocity": 0.7874015748031497,
          "duration": 0.001096489583346738
        },
        {
          "name": "D7",
          "midi": 98,
          "time": 210.5260000000052,
          "velocity": 0.7874015748031497,
          "duration": 0.001096489583346738
        },
        {
          "name": "E6",
          "midi": 88,
          "time": 210.7880610104219,
          "velocity": 0.7874015748031497,
          "duration": 0.001096489583346738
        },
        {
          "name": "E7",
          "midi": 100,
          "time": 210.7880610104219,
          "velocity": 0.7874015748031497,
          "duration": 0.001096489583346738
        },
        {
          "name": "E6",
          "midi": 88,
          "time": 210.92073625000523,
          "velocity": 0.7874015748031497,
          "duration": 0.001096489583346738
        },
        {
          "name": "E7",
          "midi": 100,
          "time": 210.92073625000523,
          "velocity": 0.7874015748031497,
          "duration": 0.001096489583346738
        },
        {
          "name": "C#4",
          "midi": 61,
          "time": 211.05231500000525,
          "velocity": 0.7874015748031497,
          "duration": 0.001096489583346738
        },
        {
          "name": "C#5",
          "midi": 73,
          "time": 211.05231500000525,
          "velocity": 0.7874015748031497,
          "duration": 0.001096489583346738
        },
        {
          "name": "C#6",
          "midi": 85,
          "time": 211.05231500000525,
          "velocity": 0.7874015748031497,
          "duration": 0.001096489583346738
        },
        {
          "name": "C#7",
          "midi": 97,
          "time": 211.05231500000525,
          "velocity": 0.7874015748031497,
          "duration": 0.001096489583346738
        },
        {
          "name": "E5",
          "midi": 76,
          "time": 211.3165689895886,
          "velocity": 0.7874015748031497,
          "duration": 0.001096489583346738
        },
        {
          "name": "C6",
          "midi": 84,
          "time": 211.3165689895886,
          "velocity": 0.7874015748031497,
          "duration": 0.001096489583346738
        },
        {
          "name": "E6",
          "midi": 88,
          "time": 211.3165689895886,
          "velocity": 0.7874015748031497,
          "duration": 0.001096489583346738
        },
        {
          "name": "C7",
          "midi": 96,
          "time": 211.3165689895886,
          "velocity": 0.7874015748031497,
          "duration": 0.001096489583346738
        },
        {
          "name": "E7",
          "midi": 100,
          "time": 211.3165689895886,
          "velocity": 0.7874015748031497,
          "duration": 0.001096489583346738
        },
        {
          "name": "E4",
          "midi": 64,
          "time": 211.5786300000053,
          "velocity": 0.7874015748031497,
          "duration": 0.001096489583346738
        },
        {
          "name": "E5",
          "midi": 76,
          "time": 211.5786300000053,
          "velocity": 0.7874015748031497,
          "duration": 0.001096489583346738
        },
        {
          "name": "E6",
          "midi": 88,
          "time": 211.5786300000053,
          "velocity": 0.7874015748031497,
          "duration": 0.001096489583346738
        },
        {
          "name": "E7",
          "midi": 100,
          "time": 211.5786300000053,
          "velocity": 0.7874015748031497,
          "duration": 0.001096489583346738
        },
        {
          "name": "E5",
          "midi": 76,
          "time": 211.84288398958864,
          "velocity": 0.7874015748031497,
          "duration": 0.001096489583346738
        },
        {
          "name": "E6",
          "midi": 88,
          "time": 211.84288398958864,
          "velocity": 0.7874015748031497,
          "duration": 0.001096489583346738
        },
        {
          "name": "C7",
          "midi": 96,
          "time": 211.84288398958864,
          "velocity": 0.7874015748031497,
          "duration": 0.001096489583346738
        },
        {
          "name": "E7",
          "midi": 100,
          "time": 211.84288398958864,
          "velocity": 0.7874015748031497,
          "duration": 0.001096489583346738
        },
        {
          "name": "E6",
          "midi": 88,
          "time": 211.9733662500053,
          "velocity": 0.7874015748031497,
          "duration": 0.001096489583346738
        },
        {
          "name": "C7",
          "midi": 96,
          "time": 211.9733662500053,
          "velocity": 0.7874015748031497,
          "duration": 0.001096489583346738
        },
        {
          "name": "E7",
          "midi": 100,
          "time": 211.9733662500053,
          "velocity": 0.7874015748031497,
          "duration": 0.001096489583346738
        },
        {
          "name": "C#4",
          "midi": 61,
          "time": 212.10494500000533,
          "velocity": 0.7874015748031497,
          "duration": 0.001096489583346738
        },
        {
          "name": "C#5",
          "midi": 73,
          "time": 212.10494500000533,
          "velocity": 0.7874015748031497,
          "duration": 0.001096489583346738
        },
        {
          "name": "C#6",
          "midi": 85,
          "time": 212.10494500000533,
          "velocity": 0.7874015748031497,
          "duration": 0.001096489583346738
        },
        {
          "name": "C#7",
          "midi": 97,
          "time": 212.10494500000533,
          "velocity": 0.7874015748031497,
          "duration": 0.001096489583346738
        },
        {
          "name": "E7",
          "midi": 100,
          "time": 212.23762023958867,
          "velocity": 0.7874015748031497,
          "duration": 0.001096489583346738
        },
        {
          "name": "E5",
          "midi": 76,
          "time": 212.36810250000534,
          "velocity": 0.7874015748031497,
          "duration": 0.001096489583346738
        },
        {
          "name": "E6",
          "midi": 88,
          "time": 212.36810250000534,
          "velocity": 0.7874015748031497,
          "duration": 0.001096489583346738
        },
        {
          "name": "C7",
          "midi": 96,
          "time": 212.36810250000534,
          "velocity": 0.7874015748031497,
          "duration": 0.001096489583346738
        },
        {
          "name": "E7",
          "midi": 100,
          "time": 212.36810250000534,
          "velocity": 0.7874015748031497,
          "duration": 0.001096489583346738
        },
        {
          "name": "E4",
          "midi": 64,
          "time": 212.63126000000534,
          "velocity": 0.7874015748031497,
          "duration": 0.001096489583346738
        },
        {
          "name": "C5",
          "midi": 72,
          "time": 212.63126000000534,
          "velocity": 0.7874015748031497,
          "duration": 0.001096489583346738
        },
        {
          "name": "E5",
          "midi": 76,
          "time": 212.63126000000534,
          "velocity": 0.7874015748031497,
          "duration": 0.001096489583346738
        },
        {
          "name": "C6",
          "midi": 84,
          "time": 212.63126000000534,
          "velocity": 0.7874015748031497,
          "duration": 0.001096489583346738
        },
        {
          "name": "E6",
          "midi": 88,
          "time": 212.63126000000534,
          "velocity": 0.7874015748031497,
          "duration": 0.001096489583346738
        },
        {
          "name": "C7",
          "midi": 96,
          "time": 212.63126000000534,
          "velocity": 0.7874015748031497,
          "duration": 0.001096489583346738
        },
        {
          "name": "E7",
          "midi": 100,
          "time": 212.63126000000534,
          "velocity": 0.7874015748031497,
          "duration": 0.001096489583346738
        },
        {
          "name": "E5",
          "midi": 76,
          "time": 212.8955139895887,
          "velocity": 0.7874015748031497,
          "duration": 0.001096489583346738
        },
        {
          "name": "E6",
          "midi": 88,
          "time": 212.8955139895887,
          "velocity": 0.7874015748031497,
          "duration": 0.001096489583346738
        },
        {
          "name": "C7",
          "midi": 96,
          "time": 212.8955139895887,
          "velocity": 0.7874015748031497,
          "duration": 0.001096489583346738
        },
        {
          "name": "E7",
          "midi": 100,
          "time": 212.8955139895887,
          "velocity": 0.7874015748031497,
          "duration": 0.001096489583346738
        },
        {
          "name": "E6",
          "midi": 88,
          "time": 213.02599625000536,
          "velocity": 0.7874015748031497,
          "duration": 0.001096489583346738
        },
        {
          "name": "C7",
          "midi": 96,
          "time": 213.02599625000536,
          "velocity": 0.7874015748031497,
          "duration": 0.001096489583346738
        },
        {
          "name": "E7",
          "midi": 100,
          "time": 213.02599625000536,
          "velocity": 0.7874015748031497,
          "duration": 0.001096489583346738
        },
        {
          "name": "C#4",
          "midi": 61,
          "time": 213.15757500000538,
          "velocity": 0.7874015748031497,
          "duration": 0.001096489583346738
        },
        {
          "name": "C#5",
          "midi": 73,
          "time": 213.15757500000538,
          "velocity": 0.7874015748031497,
          "duration": 0.001096489583346738
        },
        {
          "name": "C#6",
          "midi": 85,
          "time": 213.15757500000538,
          "velocity": 0.7874015748031497,
          "duration": 0.001096489583346738
        },
        {
          "name": "C#7",
          "midi": 97,
          "time": 213.15757500000538,
          "velocity": 0.7874015748031497,
          "duration": 0.001096489583346738
        },
        {
          "name": "E5",
          "midi": 76,
          "time": 213.42073250000539,
          "velocity": 0.7874015748031497,
          "duration": 0.001096489583346738
        },
        {
          "name": "C6",
          "midi": 84,
          "time": 213.42073250000539,
          "velocity": 0.7874015748031497,
          "duration": 0.001096489583346738
        },
        {
          "name": "E6",
          "midi": 88,
          "time": 213.42073250000539,
          "velocity": 0.7874015748031497,
          "duration": 0.001096489583346738
        },
        {
          "name": "C7",
          "midi": 96,
          "time": 213.42073250000539,
          "velocity": 0.7874015748031497,
          "duration": 0.001096489583346738
        },
        {
          "name": "E7",
          "midi": 100,
          "time": 213.42073250000539,
          "velocity": 0.7874015748031497,
          "duration": 0.001096489583346738
        },
        {
          "name": "E4",
          "midi": 64,
          "time": 213.6838900000054,
          "velocity": 0.7874015748031497,
          "duration": 0.001096489583346738
        },
        {
          "name": "E5",
          "midi": 76,
          "time": 213.6838900000054,
          "velocity": 0.7874015748031497,
          "duration": 0.001096489583346738
        },
        {
          "name": "E6",
          "midi": 88,
          "time": 213.6838900000054,
          "velocity": 0.7874015748031497,
          "duration": 0.001096489583346738
        },
        {
          "name": "E7",
          "midi": 100,
          "time": 213.6838900000054,
          "velocity": 0.7874015748031497,
          "duration": 0.001096489583346738
        },
        {
          "name": "E5",
          "midi": 76,
          "time": 213.9470475000054,
          "velocity": 0.7874015748031497,
          "duration": 0.001096489583346738
        },
        {
          "name": "E6",
          "midi": 88,
          "time": 213.9470475000054,
          "velocity": 0.7874015748031497,
          "duration": 0.001096489583346738
        },
        {
          "name": "C7",
          "midi": 96,
          "time": 213.9470475000054,
          "velocity": 0.7874015748031497,
          "duration": 0.001096489583346738
        },
        {
          "name": "E7",
          "midi": 100,
          "time": 213.9470475000054,
          "velocity": 0.7874015748031497,
          "duration": 0.001096489583346738
        },
        {
          "name": "E6",
          "midi": 88,
          "time": 214.0786262500054,
          "velocity": 0.7874015748031497,
          "duration": 0.001096489583346738
        },
        {
          "name": "C7",
          "midi": 96,
          "time": 214.0786262500054,
          "velocity": 0.7874015748031497,
          "duration": 0.001096489583346738
        },
        {
          "name": "E7",
          "midi": 100,
          "time": 214.0786262500054,
          "velocity": 0.7874015748031497,
          "duration": 0.001096489583346738
        },
        {
          "name": "C#4",
          "midi": 61,
          "time": 214.21020500000543,
          "velocity": 0.7874015748031497,
          "duration": 0.001096489583346738
        },
        {
          "name": "C#5",
          "midi": 73,
          "time": 214.21020500000543,
          "velocity": 0.7874015748031497,
          "duration": 0.001096489583346738
        },
        {
          "name": "C#6",
          "midi": 85,
          "time": 214.21020500000543,
          "velocity": 0.7874015748031497,
          "duration": 0.001096489583346738
        },
        {
          "name": "C#7",
          "midi": 97,
          "time": 214.21020500000543,
          "velocity": 0.7874015748031497,
          "duration": 0.001096489583346738
        },
        {
          "name": "E7",
          "midi": 100,
          "time": 214.34178375000545,
          "velocity": 0.7874015748031497,
          "duration": 0.001096489583346738
        },
        {
          "name": "E5",
          "midi": 76,
          "time": 214.47336250000546,
          "velocity": 0.7874015748031497,
          "duration": 0.001096489583346738
        },
        {
          "name": "E6",
          "midi": 88,
          "time": 214.47336250000546,
          "velocity": 0.7874015748031497,
          "duration": 0.001096489583346738
        },
        {
          "name": "C7",
          "midi": 96,
          "time": 214.47336250000546,
          "velocity": 0.7874015748031497,
          "duration": 0.001096489583346738
        },
        {
          "name": "E7",
          "midi": 100,
          "time": 214.47336250000546,
          "velocity": 0.7874015748031497,
          "duration": 0.001096489583346738
        },
        {
          "name": "C4",
          "midi": 60,
          "time": 214.73652000000547,
          "velocity": 0.7874015748031497,
          "duration": 0.001096489583346738
        },
        {
          "name": "C5",
          "midi": 72,
          "time": 214.73652000000547,
          "velocity": 0.7874015748031497,
          "duration": 0.001096489583346738
        },
        {
          "name": "E5",
          "midi": 76,
          "time": 214.73652000000547,
          "velocity": 0.7874015748031497,
          "duration": 0.001096489583346738
        },
        {
          "name": "C6",
          "midi": 84,
          "time": 214.73652000000547,
          "velocity": 0.7874015748031497,
          "duration": 0.001096489583346738
        },
        {
          "name": "E6",
          "midi": 88,
          "time": 214.73652000000547,
          "velocity": 0.7874015748031497,
          "duration": 0.001096489583346738
        },
        {
          "name": "C7",
          "midi": 96,
          "time": 214.73652000000547,
          "velocity": 0.7874015748031497,
          "duration": 0.001096489583346738
        },
        {
          "name": "E7",
          "midi": 100,
          "time": 214.73652000000547,
          "velocity": 0.7874015748031497,
          "duration": 0.001096489583346738
        },
        {
          "name": "E5",
          "midi": 76,
          "time": 215.00077398958882,
          "velocity": 0.7874015748031497,
          "duration": 0.001096489583346738
        },
        {
          "name": "E6",
          "midi": 88,
          "time": 215.00077398958882,
          "velocity": 0.7874015748031497,
          "duration": 0.001096489583346738
        },
        {
          "name": "C7",
          "midi": 96,
          "time": 215.00077398958882,
          "velocity": 0.7874015748031497,
          "duration": 0.001096489583346738
        },
        {
          "name": "E7",
          "midi": 100,
          "time": 215.00077398958882,
          "velocity": 0.7874015748031497,
          "duration": 0.001096489583346738
        },
        {
          "name": "E6",
          "midi": 88,
          "time": 215.1312562500055,
          "velocity": 0.7874015748031497,
          "duration": 0.001096489583346738
        },
        {
          "name": "C7",
          "midi": 96,
          "time": 215.1312562500055,
          "velocity": 0.7874015748031497,
          "duration": 0.001096489583346738
        },
        {
          "name": "E7",
          "midi": 100,
          "time": 215.1312562500055,
          "velocity": 0.7874015748031497,
          "duration": 0.001096489583346738
        },
        {
          "name": "C#4",
          "midi": 61,
          "time": 215.2628350000055,
          "velocity": 0.7874015748031497,
          "duration": 0.001096489583346738
        },
        {
          "name": "C#5",
          "midi": 73,
          "time": 215.2628350000055,
          "velocity": 0.7874015748031497,
          "duration": 0.001096489583346738
        },
        {
          "name": "C#6",
          "midi": 85,
          "time": 215.2628350000055,
          "velocity": 0.7874015748031497,
          "duration": 0.001096489583346738
        },
        {
          "name": "C#7",
          "midi": 97,
          "time": 215.2628350000055,
          "velocity": 0.7874015748031497,
          "duration": 0.001096489583346738
        },
        {
          "name": "E5",
          "midi": 76,
          "time": 215.52599250000551,
          "velocity": 0.7874015748031497,
          "duration": 0.001096489583346738
        },
        {
          "name": "C6",
          "midi": 84,
          "time": 215.52599250000551,
          "velocity": 0.7874015748031497,
          "duration": 0.001096489583346738
        },
        {
          "name": "E6",
          "midi": 88,
          "time": 215.52599250000551,
          "velocity": 0.7874015748031497,
          "duration": 0.001096489583346738
        },
        {
          "name": "C7",
          "midi": 96,
          "time": 215.52599250000551,
          "velocity": 0.7874015748031497,
          "duration": 0.001096489583346738
        },
        {
          "name": "E7",
          "midi": 100,
          "time": 215.52599250000551,
          "velocity": 0.7874015748031497,
          "duration": 0.001096489583346738
        },
        {
          "name": "E4",
          "midi": 64,
          "time": 215.78915000000552,
          "velocity": 0.7874015748031497,
          "duration": 0.001096489583346738
        },
        {
          "name": "E5",
          "midi": 76,
          "time": 215.78915000000552,
          "velocity": 0.7874015748031497,
          "duration": 0.001096489583346738
        },
        {
          "name": "E6",
          "midi": 88,
          "time": 215.78915000000552,
          "velocity": 0.7874015748031497,
          "duration": 0.001096489583346738
        },
        {
          "name": "E7",
          "midi": 100,
          "time": 215.78915000000552,
          "velocity": 0.7874015748031497,
          "duration": 0.001096489583346738
        },
        {
          "name": "E5",
          "midi": 76,
          "time": 216.05340398958887,
          "velocity": 0.7874015748031497,
          "duration": 0.001096489583346738
        },
        {
          "name": "E6",
          "midi": 88,
          "time": 216.05340398958887,
          "velocity": 0.7874015748031497,
          "duration": 0.001096489583346738
        },
        {
          "name": "C7",
          "midi": 96,
          "time": 216.05340398958887,
          "velocity": 0.7874015748031497,
          "duration": 0.001096489583346738
        },
        {
          "name": "E7",
          "midi": 100,
          "time": 216.05340398958887,
          "velocity": 0.7874015748031497,
          "duration": 0.001096489583346738
        },
        {
          "name": "E6",
          "midi": 88,
          "time": 216.18388625000554,
          "velocity": 0.7874015748031497,
          "duration": 0.001096489583346738
        },
        {
          "name": "C7",
          "midi": 96,
          "time": 216.18388625000554,
          "velocity": 0.7874015748031497,
          "duration": 0.001096489583346738
        },
        {
          "name": "E7",
          "midi": 100,
          "time": 216.18388625000554,
          "velocity": 0.7874015748031497,
          "duration": 0.001096489583346738
        },
        {
          "name": "C#4",
          "midi": 61,
          "time": 216.31546500000556,
          "velocity": 0.7874015748031497,
          "duration": 0.001096489583346738
        },
        {
          "name": "C#5",
          "midi": 73,
          "time": 216.31546500000556,
          "velocity": 0.7874015748031497,
          "duration": 0.001096489583346738
        },
        {
          "name": "C#6",
          "midi": 85,
          "time": 216.31546500000556,
          "velocity": 0.7874015748031497,
          "duration": 0.001096489583346738
        },
        {
          "name": "C#7",
          "midi": 97,
          "time": 216.31546500000556,
          "velocity": 0.7874015748031497,
          "duration": 0.001096489583346738
        },
        {
          "name": "E7",
          "midi": 100,
          "time": 216.4481402395889,
          "velocity": 0.7874015748031497,
          "duration": 0.001096489583346738
        },
        {
          "name": "E5",
          "midi": 76,
          "time": 216.57862250000557,
          "velocity": 0.7874015748031497,
          "duration": 0.001096489583346738
        },
        {
          "name": "E6",
          "midi": 88,
          "time": 216.57862250000557,
          "velocity": 0.7874015748031497,
          "duration": 0.001096489583346738
        },
        {
          "name": "C7",
          "midi": 96,
          "time": 216.57862250000557,
          "velocity": 0.7874015748031497,
          "duration": 0.001096489583346738
        },
        {
          "name": "E7",
          "midi": 100,
          "time": 216.57862250000557,
          "velocity": 0.7874015748031497,
          "duration": 0.001096489583346738
        },
        {
          "name": "E4",
          "midi": 64,
          "time": 216.84178000000557,
          "velocity": 0.7874015748031497,
          "duration": 0.001096489583346738
        },
        {
          "name": "C5",
          "midi": 72,
          "time": 216.84178000000557,
          "velocity": 0.7874015748031497,
          "duration": 0.001096489583346738
        },
        {
          "name": "E5",
          "midi": 76,
          "time": 216.84178000000557,
          "velocity": 0.7874015748031497,
          "duration": 0.001096489583346738
        },
        {
          "name": "C6",
          "midi": 84,
          "time": 216.84178000000557,
          "velocity": 0.7874015748031497,
          "duration": 0.001096489583346738
        },
        {
          "name": "E6",
          "midi": 88,
          "time": 216.84178000000557,
          "velocity": 0.7874015748031497,
          "duration": 0.001096489583346738
        },
        {
          "name": "C7",
          "midi": 96,
          "time": 216.84178000000557,
          "velocity": 0.7874015748031497,
          "duration": 0.001096489583346738
        },
        {
          "name": "E7",
          "midi": 100,
          "time": 216.84178000000557,
          "velocity": 0.7874015748031497,
          "duration": 0.001096489583346738
        },
        {
          "name": "E5",
          "midi": 76,
          "time": 217.10493750000558,
          "velocity": 0.7874015748031497,
          "duration": 0.001096489583346738
        },
        {
          "name": "E6",
          "midi": 88,
          "time": 217.10493750000558,
          "velocity": 0.7874015748031497,
          "duration": 0.001096489583346738
        },
        {
          "name": "C7",
          "midi": 96,
          "time": 217.10493750000558,
          "velocity": 0.7874015748031497,
          "duration": 0.001096489583346738
        },
        {
          "name": "E7",
          "midi": 100,
          "time": 217.10493750000558,
          "velocity": 0.7874015748031497,
          "duration": 0.001096489583346738
        },
        {
          "name": "E6",
          "midi": 88,
          "time": 217.2365162500056,
          "velocity": 0.7874015748031497,
          "duration": 0.001096489583346738
        },
        {
          "name": "C7",
          "midi": 96,
          "time": 217.2365162500056,
          "velocity": 0.7874015748031497,
          "duration": 0.001096489583346738
        },
        {
          "name": "E7",
          "midi": 100,
          "time": 217.2365162500056,
          "velocity": 0.7874015748031497,
          "duration": 0.001096489583346738
        },
        {
          "name": "C#4",
          "midi": 61,
          "time": 217.3680950000056,
          "velocity": 0.7874015748031497,
          "duration": 0.001096489583346738
        },
        {
          "name": "C#5",
          "midi": 73,
          "time": 217.3680950000056,
          "velocity": 0.7874015748031497,
          "duration": 0.001096489583346738
        },
        {
          "name": "C#6",
          "midi": 85,
          "time": 217.3680950000056,
          "velocity": 0.7874015748031497,
          "duration": 0.001096489583346738
        },
        {
          "name": "C#7",
          "midi": 97,
          "time": 217.3680950000056,
          "velocity": 0.7874015748031497,
          "duration": 0.001096489583346738
        },
        {
          "name": "E5",
          "midi": 76,
          "time": 217.63234898958896,
          "velocity": 0.7874015748031497,
          "duration": 0.001096489583346738
        },
        {
          "name": "C6",
          "midi": 84,
          "time": 217.63234898958896,
          "velocity": 0.7874015748031497,
          "duration": 0.001096489583346738
        },
        {
          "name": "E6",
          "midi": 88,
          "time": 217.63234898958896,
          "velocity": 0.7874015748031497,
          "duration": 0.001096489583346738
        },
        {
          "name": "C7",
          "midi": 96,
          "time": 217.63234898958896,
          "velocity": 0.7874015748031497,
          "duration": 0.001096489583346738
        },
        {
          "name": "E7",
          "midi": 100,
          "time": 217.63234898958896,
          "velocity": 0.7874015748031497,
          "duration": 0.001096489583346738
        },
        {
          "name": "E4",
          "midi": 64,
          "time": 217.89441000000565,
          "velocity": 0.7874015748031497,
          "duration": 0.001096489583346738
        },
        {
          "name": "E5",
          "midi": 76,
          "time": 217.89441000000565,
          "velocity": 0.7874015748031497,
          "duration": 0.001096489583346738
        },
        {
          "name": "E6",
          "midi": 88,
          "time": 217.89441000000565,
          "velocity": 0.7874015748031497,
          "duration": 0.001096489583346738
        },
        {
          "name": "E7",
          "midi": 100,
          "time": 217.89441000000565,
          "velocity": 0.7874015748031497,
          "duration": 0.001096489583346738
        },
        {
          "name": "E5",
          "midi": 76,
          "time": 218.15756750000565,
          "velocity": 0.7874015748031497,
          "duration": 0.001096489583346738
        },
        {
          "name": "E6",
          "midi": 88,
          "time": 218.15756750000565,
          "velocity": 0.7874015748031497,
          "duration": 0.001096489583346738
        },
        {
          "name": "C7",
          "midi": 96,
          "time": 218.15756750000565,
          "velocity": 0.7874015748031497,
          "duration": 0.001096489583346738
        },
        {
          "name": "E7",
          "midi": 100,
          "time": 218.15756750000565,
          "velocity": 0.7874015748031497,
          "duration": 0.001096489583346738
        },
        {
          "name": "E6",
          "midi": 88,
          "time": 218.28914625000567,
          "velocity": 0.7874015748031497,
          "duration": 0.001096489583346738
        },
        {
          "name": "C7",
          "midi": 96,
          "time": 218.28914625000567,
          "velocity": 0.7874015748031497,
          "duration": 0.001096489583346738
        },
        {
          "name": "E7",
          "midi": 100,
          "time": 218.28914625000567,
          "velocity": 0.7874015748031497,
          "duration": 0.001096489583346738
        },
        {
          "name": "C#4",
          "midi": 61,
          "time": 218.4207250000057,
          "velocity": 0.7874015748031497,
          "duration": 0.001096489583346738
        },
        {
          "name": "C#5",
          "midi": 73,
          "time": 218.4207250000057,
          "velocity": 0.7874015748031497,
          "duration": 0.001096489583346738
        },
        {
          "name": "C#6",
          "midi": 85,
          "time": 218.4207250000057,
          "velocity": 0.7874015748031497,
          "duration": 0.001096489583346738
        },
        {
          "name": "C#7",
          "midi": 97,
          "time": 218.4207250000057,
          "velocity": 0.7874015748031497,
          "duration": 0.001096489583346738
        },
        {
          "name": "E7",
          "midi": 100,
          "time": 218.5523037500057,
          "velocity": 0.7874015748031497,
          "duration": 0.001096489583346738
        },
        {
          "name": "E5",
          "midi": 76,
          "time": 218.68497898958904,
          "velocity": 0.7874015748031497,
          "duration": 0.001096489583346738
        },
        {
          "name": "E6",
          "midi": 88,
          "time": 218.68497898958904,
          "velocity": 0.7874015748031497,
          "duration": 0.001096489583346738
        },
        {
          "name": "C7",
          "midi": 96,
          "time": 218.68497898958904,
          "velocity": 0.7874015748031497,
          "duration": 0.001096489583346738
        },
        {
          "name": "E7",
          "midi": 100,
          "time": 218.68497898958904,
          "velocity": 0.7874015748031497,
          "duration": 0.001096489583346738
        },
        {
          "name": "C4",
          "midi": 60,
          "time": 218.94704000000573,
          "velocity": 0.7874015748031497,
          "duration": 0.001096489583346738
        },
        {
          "name": "C5",
          "midi": 72,
          "time": 218.94704000000573,
          "velocity": 0.7874015748031497,
          "duration": 0.001096489583346738
        },
        {
          "name": "E5",
          "midi": 76,
          "time": 218.94704000000573,
          "velocity": 0.7874015748031497,
          "duration": 0.001096489583346738
        },
        {
          "name": "C6",
          "midi": 84,
          "time": 218.94704000000573,
          "velocity": 0.7874015748031497,
          "duration": 0.001096489583346738
        },
        {
          "name": "E6",
          "midi": 88,
          "time": 218.94704000000573,
          "velocity": 0.7874015748031497,
          "duration": 0.001096489583346738
        },
        {
          "name": "C7",
          "midi": 96,
          "time": 218.94704000000573,
          "velocity": 0.7874015748031497,
          "duration": 0.001096489583346738
        },
        {
          "name": "E7",
          "midi": 100,
          "time": 218.94704000000573,
          "velocity": 0.7874015748031497,
          "duration": 0.001096489583346738
        },
        {
          "name": "E5",
          "midi": 76,
          "time": 219.21019750000573,
          "velocity": 0.7874015748031497,
          "duration": 0.001096489583346738
        },
        {
          "name": "E6",
          "midi": 88,
          "time": 219.21019750000573,
          "velocity": 0.7874015748031497,
          "duration": 0.001096489583346738
        },
        {
          "name": "C7",
          "midi": 96,
          "time": 219.21019750000573,
          "velocity": 0.7874015748031497,
          "duration": 0.001096489583346738
        },
        {
          "name": "E7",
          "midi": 100,
          "time": 219.21019750000573,
          "velocity": 0.7874015748031497,
          "duration": 0.001096489583346738
        },
        {
          "name": "E6",
          "midi": 88,
          "time": 219.34287273958907,
          "velocity": 0.7874015748031497,
          "duration": 0.001096489583346738
        },
        {
          "name": "C7",
          "midi": 96,
          "time": 219.34287273958907,
          "velocity": 0.7874015748031497,
          "duration": 0.001096489583346738
        },
        {
          "name": "E7",
          "midi": 100,
          "time": 219.34287273958907,
          "velocity": 0.7874015748031497,
          "duration": 0.001096489583346738
        },
        {
          "name": "C#4",
          "midi": 61,
          "time": 219.47335500000574,
          "velocity": 0.7874015748031497,
          "duration": 0.001096489583346738
        },
        {
          "name": "C#5",
          "midi": 73,
          "time": 219.47335500000574,
          "velocity": 0.7874015748031497,
          "duration": 0.001096489583346738
        },
        {
          "name": "C#6",
          "midi": 85,
          "time": 219.47335500000574,
          "velocity": 0.7874015748031497,
          "duration": 0.001096489583346738
        },
        {
          "name": "C#7",
          "midi": 97,
          "time": 219.47335500000574,
          "velocity": 0.7874015748031497,
          "duration": 0.001096489583346738
        },
        {
          "name": "E5",
          "midi": 76,
          "time": 219.7376089895891,
          "velocity": 0.7874015748031497,
          "duration": 0.001096489583346738
        },
        {
          "name": "C6",
          "midi": 84,
          "time": 219.7376089895891,
          "velocity": 0.7874015748031497,
          "duration": 0.001096489583346738
        },
        {
          "name": "E6",
          "midi": 88,
          "time": 219.7376089895891,
          "velocity": 0.7874015748031497,
          "duration": 0.001096489583346738
        },
        {
          "name": "C7",
          "midi": 96,
          "time": 219.7376089895891,
          "velocity": 0.7874015748031497,
          "duration": 0.001096489583346738
        },
        {
          "name": "E7",
          "midi": 100,
          "time": 219.7376089895891,
          "velocity": 0.7874015748031497,
          "duration": 0.001096489583346738
        },
        {
          "name": "E4",
          "midi": 64,
          "time": 219.99967000000578,
          "velocity": 0.7874015748031497,
          "duration": 0.001096489583346738
        },
        {
          "name": "E5",
          "midi": 76,
          "time": 219.99967000000578,
          "velocity": 0.7874015748031497,
          "duration": 0.001096489583346738
        },
        {
          "name": "E6",
          "midi": 88,
          "time": 219.99967000000578,
          "velocity": 0.7874015748031497,
          "duration": 0.001096489583346738
        },
        {
          "name": "E7",
          "midi": 100,
          "time": 219.99967000000578,
          "velocity": 0.7874015748031497,
          "duration": 0.001096489583346738
        },
        {
          "name": "E5",
          "midi": 76,
          "time": 220.26392398958913,
          "velocity": 0.7874015748031497,
          "duration": 0.001096489583346738
        },
        {
          "name": "E6",
          "midi": 88,
          "time": 220.26392398958913,
          "velocity": 0.7874015748031497,
          "duration": 0.001096489583346738
        },
        {
          "name": "C7",
          "midi": 96,
          "time": 220.26392398958913,
          "velocity": 0.7874015748031497,
          "duration": 0.001096489583346738
        },
        {
          "name": "E7",
          "midi": 100,
          "time": 220.26392398958913,
          "velocity": 0.7874015748031497,
          "duration": 0.001096489583346738
        },
        {
          "name": "E6",
          "midi": 88,
          "time": 220.3944062500058,
          "velocity": 0.7874015748031497,
          "duration": 0.001096489583346738
        },
        {
          "name": "C7",
          "midi": 96,
          "time": 220.3944062500058,
          "velocity": 0.7874015748031497,
          "duration": 0.001096489583346738
        },
        {
          "name": "E7",
          "midi": 100,
          "time": 220.3944062500058,
          "velocity": 0.7874015748031497,
          "duration": 0.001096489583346738
        },
        {
          "name": "C#4",
          "midi": 61,
          "time": 220.52598500000582,
          "velocity": 0.7874015748031497,
          "duration": 0.001096489583346738
        },
        {
          "name": "C#5",
          "midi": 73,
          "time": 220.52598500000582,
          "velocity": 0.7874015748031497,
          "duration": 0.001096489583346738
        },
        {
          "name": "C#6",
          "midi": 85,
          "time": 220.52598500000582,
          "velocity": 0.7874015748031497,
          "duration": 0.001096489583346738
        },
        {
          "name": "C#7",
          "midi": 97,
          "time": 220.52598500000582,
          "velocity": 0.7874015748031497,
          "duration": 0.001096489583346738
        },
        {
          "name": "E7",
          "midi": 100,
          "time": 220.6564672604225,
          "velocity": 0.7874015748031497,
          "duration": 0.001096489583346738
        },
        {
          "name": "E5",
          "midi": 76,
          "time": 220.78914250000582,
          "velocity": 0.7874015748031497,
          "duration": 0.001096489583346738
        },
        {
          "name": "E6",
          "midi": 88,
          "time": 220.78914250000582,
          "velocity": 0.7874015748031497,
          "duration": 0.001096489583346738
        },
        {
          "name": "C7",
          "midi": 96,
          "time": 220.78914250000582,
          "velocity": 0.7874015748031497,
          "duration": 0.001096489583346738
        },
        {
          "name": "E7",
          "midi": 100,
          "time": 220.78914250000582,
          "velocity": 0.7874015748031497,
          "duration": 0.001096489583346738
        },
        {
          "name": "E4",
          "midi": 64,
          "time": 221.05230000000583,
          "velocity": 0.7874015748031497,
          "duration": 0.001096489583346738
        },
        {
          "name": "C5",
          "midi": 72,
          "time": 221.05230000000583,
          "velocity": 0.7874015748031497,
          "duration": 0.001096489583346738
        },
        {
          "name": "E5",
          "midi": 76,
          "time": 221.05230000000583,
          "velocity": 0.7874015748031497,
          "duration": 0.001096489583346738
        },
        {
          "name": "C6",
          "midi": 84,
          "time": 221.05230000000583,
          "velocity": 0.7874015748031497,
          "duration": 0.001096489583346738
        },
        {
          "name": "E6",
          "midi": 88,
          "time": 221.05230000000583,
          "velocity": 0.7874015748031497,
          "duration": 0.001096489583346738
        },
        {
          "name": "C7",
          "midi": 96,
          "time": 221.05230000000583,
          "velocity": 0.7874015748031497,
          "duration": 0.001096489583346738
        },
        {
          "name": "E7",
          "midi": 100,
          "time": 221.05230000000583,
          "velocity": 0.7874015748031497,
          "duration": 0.001096489583346738
        },
        {
          "name": "E5",
          "midi": 76,
          "time": 221.31436101042252,
          "velocity": 0.7874015748031497,
          "duration": 0.001096489583346738
        },
        {
          "name": "E6",
          "midi": 88,
          "time": 221.31436101042252,
          "velocity": 0.7874015748031497,
          "duration": 0.001096489583346738
        },
        {
          "name": "C7",
          "midi": 96,
          "time": 221.31436101042252,
          "velocity": 0.7874015748031497,
          "duration": 0.001096489583346738
        },
        {
          "name": "E7",
          "midi": 100,
          "time": 221.31436101042252,
          "velocity": 0.7874015748031497,
          "duration": 0.001096489583346738
        },
        {
          "name": "E6",
          "midi": 88,
          "time": 221.44703625000585,
          "velocity": 0.7874015748031497,
          "duration": 0.001096489583346738
        },
        {
          "name": "C7",
          "midi": 96,
          "time": 221.44703625000585,
          "velocity": 0.7874015748031497,
          "duration": 0.001096489583346738
        },
        {
          "name": "E7",
          "midi": 100,
          "time": 221.44703625000585,
          "velocity": 0.7874015748031497,
          "duration": 0.001096489583346738
        },
        {
          "name": "C#4",
          "midi": 61,
          "time": 221.57861500000587,
          "velocity": 0.7874015748031497,
          "duration": 0.001096489583346738
        },
        {
          "name": "C#5",
          "midi": 73,
          "time": 221.57861500000587,
          "velocity": 0.7874015748031497,
          "duration": 0.001096489583346738
        },
        {
          "name": "C#6",
          "midi": 85,
          "time": 221.57861500000587,
          "velocity": 0.7874015748031497,
          "duration": 0.001096489583346738
        },
        {
          "name": "C#7",
          "midi": 97,
          "time": 221.57861500000587,
          "velocity": 0.7874015748031497,
          "duration": 0.001096489583346738
        },
        {
          "name": "E5",
          "midi": 76,
          "time": 221.84177250000587,
          "velocity": 0.7874015748031497,
          "duration": 0.001096489583346738
        },
        {
          "name": "C6",
          "midi": 84,
          "time": 221.84177250000587,
          "velocity": 0.7874015748031497,
          "duration": 0.001096489583346738
        },
        {
          "name": "E6",
          "midi": 88,
          "time": 221.84177250000587,
          "velocity": 0.7874015748031497,
          "duration": 0.001096489583346738
        },
        {
          "name": "C7",
          "midi": 96,
          "time": 221.84177250000587,
          "velocity": 0.7874015748031497,
          "duration": 0.001096489583346738
        },
        {
          "name": "E7",
          "midi": 100,
          "time": 221.84177250000587,
          "velocity": 0.7874015748031497,
          "duration": 0.001096489583346738
        },
        {
          "name": "E4",
          "midi": 64,
          "time": 222.10493000000588,
          "velocity": 0.7874015748031497,
          "duration": 0.001096489583346738
        },
        {
          "name": "E5",
          "midi": 76,
          "time": 222.10493000000588,
          "velocity": 0.7874015748031497,
          "duration": 0.001096489583346738
        },
        {
          "name": "E6",
          "midi": 88,
          "time": 222.10493000000588,
          "velocity": 0.7874015748031497,
          "duration": 0.001096489583346738
        },
        {
          "name": "E7",
          "midi": 100,
          "time": 222.10493000000588,
          "velocity": 0.7874015748031497,
          "duration": 0.001096489583346738
        },
        {
          "name": "E5",
          "midi": 76,
          "time": 222.36918398958923,
          "velocity": 0.7874015748031497,
          "duration": 0.001096489583346738
        },
        {
          "name": "E6",
          "midi": 88,
          "time": 222.36918398958923,
          "velocity": 0.7874015748031497,
          "duration": 0.001096489583346738
        },
        {
          "name": "C7",
          "midi": 96,
          "time": 222.36918398958923,
          "velocity": 0.7874015748031497,
          "duration": 0.001096489583346738
        },
        {
          "name": "E7",
          "midi": 100,
          "time": 222.36918398958923,
          "velocity": 0.7874015748031497,
          "duration": 0.001096489583346738
        },
        {
          "name": "E6",
          "midi": 88,
          "time": 222.4996662500059,
          "velocity": 0.7874015748031497,
          "duration": 0.001096489583346738
        },
        {
          "name": "C7",
          "midi": 96,
          "time": 222.4996662500059,
          "velocity": 0.7874015748031497,
          "duration": 0.001096489583346738
        },
        {
          "name": "E7",
          "midi": 100,
          "time": 222.4996662500059,
          "velocity": 0.7874015748031497,
          "duration": 0.001096489583346738
        },
        {
          "name": "C#4",
          "midi": 61,
          "time": 222.63124500000592,
          "velocity": 0.7874015748031497,
          "duration": 0.001096489583346738
        },
        {
          "name": "C#5",
          "midi": 73,
          "time": 222.63124500000592,
          "velocity": 0.7874015748031497,
          "duration": 0.001096489583346738
        },
        {
          "name": "C#6",
          "midi": 85,
          "time": 222.63124500000592,
          "velocity": 0.7874015748031497,
          "duration": 0.001096489583346738
        },
        {
          "name": "C#7",
          "midi": 97,
          "time": 222.63124500000592,
          "velocity": 0.7874015748031497,
          "duration": 0.001096489583346738
        },
        {
          "name": "E7",
          "midi": 100,
          "time": 222.76282375000594,
          "velocity": 0.7874015748031497,
          "duration": 0.001096489583346738
        },
        {
          "name": "E5",
          "midi": 76,
          "time": 222.8933060104226,
          "velocity": 0.7874015748031497,
          "duration": 0.001096489583346738
        },
        {
          "name": "E6",
          "midi": 88,
          "time": 222.8933060104226,
          "velocity": 0.7874015748031497,
          "duration": 0.001096489583346738
        },
        {
          "name": "C7",
          "midi": 96,
          "time": 222.8933060104226,
          "velocity": 0.7874015748031497,
          "duration": 0.001096489583346738
        },
        {
          "name": "E7",
          "midi": 100,
          "time": 222.8933060104226,
          "velocity": 0.7874015748031497,
          "duration": 0.001096489583346738
        },
        {
          "name": "C4",
          "midi": 60,
          "time": 223.15756000000596,
          "velocity": 0.7874015748031497,
          "duration": 0.001096489583346738
        },
        {
          "name": "C5",
          "midi": 72,
          "time": 223.15756000000596,
          "velocity": 0.7874015748031497,
          "duration": 0.001096489583346738
        },
        {
          "name": "E5",
          "midi": 76,
          "time": 223.15756000000596,
          "velocity": 0.7874015748031497,
          "duration": 0.001096489583346738
        },
        {
          "name": "C6",
          "midi": 84,
          "time": 223.15756000000596,
          "velocity": 0.7874015748031497,
          "duration": 0.001096489583346738
        },
        {
          "name": "E6",
          "midi": 88,
          "time": 223.15756000000596,
          "velocity": 0.7874015748031497,
          "duration": 0.001096489583346738
        },
        {
          "name": "C7",
          "midi": 96,
          "time": 223.15756000000596,
          "velocity": 0.7874015748031497,
          "duration": 0.001096489583346738
        },
        {
          "name": "E7",
          "midi": 100,
          "time": 223.15756000000596,
          "velocity": 0.7874015748031497,
          "duration": 0.001096489583346738
        },
        {
          "name": "E5",
          "midi": 76,
          "time": 223.4218139895893,
          "velocity": 0.7874015748031497,
          "duration": 0.001096489583346738
        },
        {
          "name": "E6",
          "midi": 88,
          "time": 223.4218139895893,
          "velocity": 0.7874015748031497,
          "duration": 0.001096489583346738
        },
        {
          "name": "C7",
          "midi": 96,
          "time": 223.4218139895893,
          "velocity": 0.7874015748031497,
          "duration": 0.001096489583346738
        },
        {
          "name": "E7",
          "midi": 100,
          "time": 223.4218139895893,
          "velocity": 0.7874015748031497,
          "duration": 0.001096489583346738
        },
        {
          "name": "E6",
          "midi": 88,
          "time": 223.55229625000598,
          "velocity": 0.7874015748031497,
          "duration": 0.001096489583346738
        },
        {
          "name": "C7",
          "midi": 96,
          "time": 223.55229625000598,
          "velocity": 0.7874015748031497,
          "duration": 0.001096489583346738
        },
        {
          "name": "E7",
          "midi": 100,
          "time": 223.55229625000598,
          "velocity": 0.7874015748031497,
          "duration": 0.001096489583346738
        },
        {
          "name": "C#4",
          "midi": 61,
          "time": 223.683875000006,
          "velocity": 0.7874015748031497,
          "duration": 0.001096489583346738
        },
        {
          "name": "C#5",
          "midi": 73,
          "time": 223.683875000006,
          "velocity": 0.7874015748031497,
          "duration": 0.001096489583346738
        },
        {
          "name": "C#6",
          "midi": 85,
          "time": 223.683875000006,
          "velocity": 0.7874015748031497,
          "duration": 0.001096489583346738
        },
        {
          "name": "C#7",
          "midi": 97,
          "time": 223.683875000006,
          "velocity": 0.7874015748031497,
          "duration": 0.001096489583346738
        },
        {
          "name": "E5",
          "midi": 76,
          "time": 223.94812898958935,
          "velocity": 0.7874015748031497,
          "duration": 0.001096489583346738
        },
        {
          "name": "C6",
          "midi": 84,
          "time": 223.94812898958935,
          "velocity": 0.7874015748031497,
          "duration": 0.001096489583346738
        },
        {
          "name": "E6",
          "midi": 88,
          "time": 223.94812898958935,
          "velocity": 0.7874015748031497,
          "duration": 0.001096489583346738
        },
        {
          "name": "C7",
          "midi": 96,
          "time": 223.94812898958935,
          "velocity": 0.7874015748031497,
          "duration": 0.001096489583346738
        },
        {
          "name": "E7",
          "midi": 100,
          "time": 223.94812898958935,
          "velocity": 0.7874015748031497,
          "duration": 0.001096489583346738
        },
        {
          "name": "C#4",
          "midi": 61,
          "time": 224.21019000000604,
          "velocity": 0.7874015748031497,
          "duration": 0.001096489583346738
        },
        {
          "name": "C#5",
          "midi": 73,
          "time": 224.21019000000604,
          "velocity": 0.7874015748031497,
          "duration": 0.001096489583346738
        },
        {
          "name": "C#6",
          "midi": 85,
          "time": 224.21019000000604,
          "velocity": 0.7874015748031497,
          "duration": 0.001096489583346738
        },
        {
          "name": "C#7",
          "midi": 97,
          "time": 224.21019000000604,
          "velocity": 0.7874015748031497,
          "duration": 0.001096489583346738
        },
        {
          "name": "C#7",
          "midi": 97,
          "time": 224.29900565625604,
          "velocity": 0.7874015748031497,
          "duration": 0.001096489583346738
        },
        {
          "name": "C#6",
          "midi": 85,
          "time": 224.34176875000605,
          "velocity": 0.7874015748031497,
          "duration": 0.001096489583346738
        },
        {
          "name": "C#7",
          "midi": 97,
          "time": 224.3856283333394,
          "velocity": 0.7874015748031497,
          "duration": 0.001096489583346738
        },
        {
          "name": "C#5",
          "midi": 73,
          "time": 224.4733475000061,
          "velocity": 0.7874015748031497,
          "duration": 0.001096489583346738
        },
        {
          "name": "C#6",
          "midi": 85,
          "time": 224.4733475000061,
          "velocity": 0.7874015748031497,
          "duration": 0.001096489583346738
        },
        {
          "name": "C#7",
          "midi": 97,
          "time": 224.4733475000061,
          "velocity": 0.7874015748031497,
          "duration": 0.001096489583346738
        },
        {
          "name": "C#7",
          "midi": 97,
          "time": 224.5610666666728,
          "velocity": 0.7874015748031497,
          "duration": 0.001096489583346738
        },
        {
          "name": "C#6",
          "midi": 85,
          "time": 224.60492625000614,
          "velocity": 0.7874015748031497,
          "duration": 0.001096489583346738
        },
        {
          "name": "C#7",
          "midi": 97,
          "time": 224.6487858333395,
          "velocity": 0.7874015748031497,
          "duration": 0.001096489583346738
        },
        {
          "name": "C#4",
          "midi": 61,
          "time": 224.7365050000062,
          "velocity": 0.7874015748031497,
          "duration": 0.001096489583346738
        },
        {
          "name": "C#5",
          "midi": 73,
          "time": 224.7365050000062,
          "velocity": 0.7874015748031497,
          "duration": 0.001096489583346738
        },
        {
          "name": "C#6",
          "midi": 85,
          "time": 224.7365050000062,
          "velocity": 0.7874015748031497,
          "duration": 0.001096489583346738
        },
        {
          "name": "C#7",
          "midi": 97,
          "time": 224.7365050000062,
          "velocity": 0.7874015748031497,
          "duration": 0.001096489583346738
        },
        {
          "name": "C#7",
          "midi": 97,
          "time": 224.82422416667288,
          "velocity": 0.7874015748031497,
          "duration": 0.001096489583346738
        },
        {
          "name": "C#6",
          "midi": 85,
          "time": 224.86808375000624,
          "velocity": 0.7874015748031497,
          "duration": 0.001096489583346738
        },
        {
          "name": "C#7",
          "midi": 97,
          "time": 224.9119433333396,
          "velocity": 0.7874015748031497,
          "duration": 0.001096489583346738
        },
        {
          "name": "C#5",
          "midi": 73,
          "time": 224.99966250000628,
          "velocity": 0.7874015748031497,
          "duration": 0.001096489583346738
        },
        {
          "name": "C#6",
          "midi": 85,
          "time": 224.99966250000628,
          "velocity": 0.7874015748031497,
          "duration": 0.001096489583346738
        },
        {
          "name": "C#7",
          "midi": 97,
          "time": 224.99966250000628,
          "velocity": 0.7874015748031497,
          "duration": 0.001096489583346738
        },
        {
          "name": "C#7",
          "midi": 97,
          "time": 225.08738166667297,
          "velocity": 0.7874015748031497,
          "duration": 0.001096489583346738
        },
        {
          "name": "C#6",
          "midi": 85,
          "time": 225.13124125000633,
          "velocity": 0.7874015748031497,
          "duration": 0.001096489583346738
        },
        {
          "name": "C#7",
          "midi": 97,
          "time": 225.17510083333968,
          "velocity": 0.7874015748031497,
          "duration": 0.001096489583346738
        },
        {
          "name": "D4",
          "midi": 62,
          "time": 225.26282000000637,
          "velocity": 0.7874015748031497,
          "duration": 0.001096489583346738
        },
        {
          "name": "C5",
          "midi": 72,
          "time": 225.26282000000637,
          "velocity": 0.7874015748031497,
          "duration": 0.001096489583346738
        },
        {
          "name": "D5",
          "midi": 74,
          "time": 225.26282000000637,
          "velocity": 0.7874015748031497,
          "duration": 0.001096489583346738
        },
        {
          "name": "C6",
          "midi": 84,
          "time": 225.26282000000637,
          "velocity": 0.7874015748031497,
          "duration": 0.001096489583346738
        },
        {
          "name": "D6",
          "midi": 86,
          "time": 225.26282000000637,
          "velocity": 0.7874015748031497,
          "duration": 0.001096489583346738
        },
        {
          "name": "C7",
          "midi": 96,
          "time": 225.26282000000637,
          "velocity": 0.7874015748031497,
          "duration": 0.001096489583346738
        },
        {
          "name": "D7",
          "midi": 98,
          "time": 225.26282000000637,
          "velocity": 0.7874015748031497,
          "duration": 0.001096489583346738
        },
        {
          "name": "D4",
          "midi": 62,
          "time": 229.47334000000637,
          "velocity": 0.7874015748031497,
          "duration": 0.001096489583346738
        },
        {
          "name": "C5",
          "midi": 72,
          "time": 229.47334000000637,
          "velocity": 0.7874015748031497,
          "duration": 0.001096489583346738
        },
        {
          "name": "D5",
          "midi": 74,
          "time": 229.47334000000637,
          "velocity": 0.7874015748031497,
          "duration": 0.001096489583346738
        },
        {
          "name": "C6",
          "midi": 84,
          "time": 229.47334000000637,
          "velocity": 0.7874015748031497,
          "duration": 0.001096489583346738
        },
        {
          "name": "D6",
          "midi": 86,
          "time": 229.47334000000637,
          "velocity": 0.7874015748031497,
          "duration": 0.001096489583346738
        },
        {
          "name": "C7",
          "midi": 96,
          "time": 229.47334000000637,
          "velocity": 0.7874015748031497,
          "duration": 0.001096489583346738
        },
        {
          "name": "D7",
          "midi": 98,
          "time": 229.47334000000637,
          "velocity": 0.7874015748031497,
          "duration": 0.001096489583346738
        },
        {
          "name": "E4",
          "midi": 64,
          "time": 229.99965500000638,
          "velocity": 0.7874015748031497,
          "duration": 0.001096489583346738
        },
        {
          "name": "E5",
          "midi": 76,
          "time": 229.99965500000638,
          "velocity": 0.7874015748031497,
          "duration": 0.001096489583346738
        },
        {
          "name": "E6",
          "midi": 88,
          "time": 229.99965500000638,
          "velocity": 0.7874015748031497,
          "duration": 0.001096489583346738
        },
        {
          "name": "E7",
          "midi": 100,
          "time": 229.99965500000638,
          "velocity": 0.7874015748031497,
          "duration": 0.001096489583346738
        },
        {
          "name": "E5",
          "midi": 76,
          "time": 230.26390898958974,
          "velocity": 0.7874015748031497,
          "duration": 0.001096489583346738
        },
        {
          "name": "E6",
          "midi": 88,
          "time": 230.26390898958974,
          "velocity": 0.7874015748031497,
          "duration": 0.001096489583346738
        },
        {
          "name": "E7",
          "midi": 100,
          "time": 230.26390898958974,
          "velocity": 0.7874015748031497,
          "duration": 0.001096489583346738
        },
        {
          "name": "C#4",
          "midi": 61,
          "time": 230.52597000000642,
          "velocity": 0.7874015748031497,
          "duration": 0.001096489583346738
        },
        {
          "name": "C#5",
          "midi": 73,
          "time": 230.52597000000642,
          "velocity": 0.7874015748031497,
          "duration": 0.001096489583346738
        },
        {
          "name": "E5",
          "midi": 76,
          "time": 230.52597000000642,
          "velocity": 0.7874015748031497,
          "duration": 0.001096489583346738
        },
        {
          "name": "C#6",
          "midi": 85,
          "time": 230.52597000000642,
          "velocity": 0.7874015748031497,
          "duration": 0.001096489583346738
        },
        {
          "name": "E6",
          "midi": 88,
          "time": 230.52597000000642,
          "velocity": 0.7874015748031497,
          "duration": 0.001096489583346738
        },
        {
          "name": "C#7",
          "midi": 97,
          "time": 230.52597000000642,
          "velocity": 0.7874015748031497,
          "duration": 0.001096489583346738
        },
        {
          "name": "E7",
          "midi": 100,
          "time": 230.52597000000642,
          "velocity": 0.7874015748031497,
          "duration": 0.001096489583346738
        },
        {
          "name": "E5",
          "midi": 76,
          "time": 230.7880310104231,
          "velocity": 0.7874015748031497,
          "duration": 0.001096489583346738
        },
        {
          "name": "E6",
          "midi": 88,
          "time": 230.7880310104231,
          "velocity": 0.7874015748031497,
          "duration": 0.001096489583346738
        },
        {
          "name": "E7",
          "midi": 100,
          "time": 230.7880310104231,
          "velocity": 0.7874015748031497,
          "duration": 0.001096489583346738
        },
        {
          "name": "E4",
          "midi": 64,
          "time": 231.05228500000646,
          "velocity": 0.7874015748031497,
          "duration": 0.001096489583346738
        },
        {
          "name": "E5",
          "midi": 76,
          "time": 231.05228500000646,
          "velocity": 0.7874015748031497,
          "duration": 0.001096489583346738
        },
        {
          "name": "C6",
          "midi": 84,
          "time": 231.05228500000646,
          "velocity": 0.7874015748031497,
          "duration": 0.001096489583346738
        },
        {
          "name": "E6",
          "midi": 88,
          "time": 231.05228500000646,
          "velocity": 0.7874015748031497,
          "duration": 0.001096489583346738
        },
        {
          "name": "C7",
          "midi": 96,
          "time": 231.05228500000646,
          "velocity": 0.7874015748031497,
          "duration": 0.001096489583346738
        },
        {
          "name": "E7",
          "midi": 100,
          "time": 231.05228500000646,
          "velocity": 0.7874015748031497,
          "duration": 0.001096489583346738
        },
        {
          "name": "D4",
          "midi": 62,
          "time": 231.31544250000647,
          "velocity": 0.7874015748031497,
          "duration": 0.001096489583346738
        },
        {
          "name": "C5",
          "midi": 72,
          "time": 231.31544250000647,
          "velocity": 0.7874015748031497,
          "duration": 0.001096489583346738
        },
        {
          "name": "D5",
          "midi": 74,
          "time": 231.31544250000647,
          "velocity": 0.7874015748031497,
          "duration": 0.001096489583346738
        },
        {
          "name": "C6",
          "midi": 84,
          "time": 231.31544250000647,
          "velocity": 0.7874015748031497,
          "duration": 0.001096489583346738
        },
        {
          "name": "D6",
          "midi": 86,
          "time": 231.31544250000647,
          "velocity": 0.7874015748031497,
          "duration": 0.001096489583346738
        },
        {
          "name": "C7",
          "midi": 96,
          "time": 231.31544250000647,
          "velocity": 0.7874015748031497,
          "duration": 0.001096489583346738
        },
        {
          "name": "D7",
          "midi": 98,
          "time": 231.31544250000647,
          "velocity": 0.7874015748031497,
          "duration": 0.001096489583346738
        },
        {
          "name": "E6",
          "midi": 88,
          "time": 231.84066101042316,
          "velocity": 0.7874015748031497,
          "duration": 0.001096489583346738
        },
        {
          "name": "E7",
          "midi": 100,
          "time": 231.84066101042316,
          "velocity": 0.7874015748031497,
          "duration": 0.001096489583346738
        },
        {
          "name": "E4",
          "midi": 64,
          "time": 232.1049150000065,
          "velocity": 0.7874015748031497,
          "duration": 0.001096489583346738
        },
        {
          "name": "C5",
          "midi": 72,
          "time": 232.1049150000065,
          "velocity": 0.7874015748031497,
          "duration": 0.001096489583346738
        },
        {
          "name": "E5",
          "midi": 76,
          "time": 232.1049150000065,
          "velocity": 0.7874015748031497,
          "duration": 0.001096489583346738
        },
        {
          "name": "C6",
          "midi": 84,
          "time": 232.1049150000065,
          "velocity": 0.7874015748031497,
          "duration": 0.001096489583346738
        },
        {
          "name": "E6",
          "midi": 88,
          "time": 232.1049150000065,
          "velocity": 0.7874015748031497,
          "duration": 0.001096489583346738
        },
        {
          "name": "C7",
          "midi": 96,
          "time": 232.1049150000065,
          "velocity": 0.7874015748031497,
          "duration": 0.001096489583346738
        },
        {
          "name": "E7",
          "midi": 100,
          "time": 232.1049150000065,
          "velocity": 0.7874015748031497,
          "duration": 0.001096489583346738
        },
        {
          "name": "E5",
          "midi": 76,
          "time": 232.36807250000652,
          "velocity": 0.7874015748031497,
          "duration": 0.001096489583346738
        },
        {
          "name": "C6",
          "midi": 84,
          "time": 232.36807250000652,
          "velocity": 0.7874015748031497,
          "duration": 0.001096489583346738
        },
        {
          "name": "E6",
          "midi": 88,
          "time": 232.36807250000652,
          "velocity": 0.7874015748031497,
          "duration": 0.001096489583346738
        },
        {
          "name": "C7",
          "midi": 96,
          "time": 232.36807250000652,
          "velocity": 0.7874015748031497,
          "duration": 0.001096489583346738
        },
        {
          "name": "E7",
          "midi": 100,
          "time": 232.36807250000652,
          "velocity": 0.7874015748031497,
          "duration": 0.001096489583346738
        },
        {
          "name": "C#4",
          "midi": 61,
          "time": 232.63123000000652,
          "velocity": 0.7874015748031497,
          "duration": 0.001096489583346738
        },
        {
          "name": "C#5",
          "midi": 73,
          "time": 232.63123000000652,
          "velocity": 0.7874015748031497,
          "duration": 0.001096489583346738
        },
        {
          "name": "E5",
          "midi": 76,
          "time": 232.63123000000652,
          "velocity": 0.7874015748031497,
          "duration": 0.001096489583346738
        },
        {
          "name": "C#6",
          "midi": 85,
          "time": 232.63123000000652,
          "velocity": 0.7874015748031497,
          "duration": 0.001096489583346738
        },
        {
          "name": "E6",
          "midi": 88,
          "time": 232.63123000000652,
          "velocity": 0.7874015748031497,
          "duration": 0.001096489583346738
        },
        {
          "name": "C#7",
          "midi": 97,
          "time": 232.63123000000652,
          "velocity": 0.7874015748031497,
          "duration": 0.001096489583346738
        },
        {
          "name": "E7",
          "midi": 100,
          "time": 232.63123000000652,
          "velocity": 0.7874015748031497,
          "duration": 0.001096489583346738
        },
        {
          "name": "E5",
          "midi": 76,
          "time": 232.89438750000653,
          "velocity": 0.7874015748031497,
          "duration": 0.001096489583346738
        },
        {
          "name": "E6",
          "midi": 88,
          "time": 232.89438750000653,
          "velocity": 0.7874015748031497,
          "duration": 0.001096489583346738
        },
        {
          "name": "E7",
          "midi": 100,
          "time": 232.89438750000653,
          "velocity": 0.7874015748031497,
          "duration": 0.001096489583346738
        },
        {
          "name": "E4",
          "midi": 64,
          "time": 233.15754500000654,
          "velocity": 0.7874015748031497,
          "duration": 0.001096489583346738
        },
        {
          "name": "E5",
          "midi": 76,
          "time": 233.15754500000654,
          "velocity": 0.7874015748031497,
          "duration": 0.001096489583346738
        },
        {
          "name": "E6",
          "midi": 88,
          "time": 233.15754500000654,
          "velocity": 0.7874015748031497,
          "duration": 0.001096489583346738
        },
        {
          "name": "E7",
          "midi": 100,
          "time": 233.15754500000654,
          "velocity": 0.7874015748031497,
          "duration": 0.001096489583346738
        },
        {
          "name": "E5",
          "midi": 76,
          "time": 233.41960601042322,
          "velocity": 0.7874015748031497,
          "duration": 0.001096489583346738
        },
        {
          "name": "C6",
          "midi": 84,
          "time": 233.41960601042322,
          "velocity": 0.7874015748031497,
          "duration": 0.001096489583346738
        },
        {
          "name": "E6",
          "midi": 88,
          "time": 233.41960601042322,
          "velocity": 0.7874015748031497,
          "duration": 0.001096489583346738
        },
        {
          "name": "C7",
          "midi": 96,
          "time": 233.41960601042322,
          "velocity": 0.7874015748031497,
          "duration": 0.001096489583346738
        },
        {
          "name": "E7",
          "midi": 100,
          "time": 233.41960601042322,
          "velocity": 0.7874015748031497,
          "duration": 0.001096489583346738
        },
        {
          "name": "C4",
          "midi": 60,
          "time": 233.68386000000658,
          "velocity": 0.7874015748031497,
          "duration": 0.001096489583346738
        },
        {
          "name": "C5",
          "midi": 72,
          "time": 233.68386000000658,
          "velocity": 0.7874015748031497,
          "duration": 0.001096489583346738
        },
        {
          "name": "E5",
          "midi": 76,
          "time": 233.68386000000658,
          "velocity": 0.7874015748031497,
          "duration": 0.001096489583346738
        },
        {
          "name": "C6",
          "midi": 84,
          "time": 233.68386000000658,
          "velocity": 0.7874015748031497,
          "duration": 0.001096489583346738
        },
        {
          "name": "E6",
          "midi": 88,
          "time": 233.68386000000658,
          "velocity": 0.7874015748031497,
          "duration": 0.001096489583346738
        },
        {
          "name": "C7",
          "midi": 96,
          "time": 233.68386000000658,
          "velocity": 0.7874015748031497,
          "duration": 0.001096489583346738
        },
        {
          "name": "E7",
          "midi": 100,
          "time": 233.68386000000658,
          "velocity": 0.7874015748031497,
          "duration": 0.001096489583346738
        },
        {
          "name": "E5",
          "midi": 76,
          "time": 233.94811398958993,
          "velocity": 0.7874015748031497,
          "duration": 0.001096489583346738
        },
        {
          "name": "E6",
          "midi": 88,
          "time": 233.94811398958993,
          "velocity": 0.7874015748031497,
          "duration": 0.001096489583346738
        },
        {
          "name": "E7",
          "midi": 100,
          "time": 233.94811398958993,
          "velocity": 0.7874015748031497,
          "duration": 0.001096489583346738
        },
        {
          "name": "E4",
          "midi": 64,
          "time": 234.21017500000661,
          "velocity": 0.7874015748031497,
          "duration": 0.001096489583346738
        },
        {
          "name": "E5",
          "midi": 76,
          "time": 234.21017500000661,
          "velocity": 0.7874015748031497,
          "duration": 0.001096489583346738
        },
        {
          "name": "E6",
          "midi": 88,
          "time": 234.21017500000661,
          "velocity": 0.7874015748031497,
          "duration": 0.001096489583346738
        },
        {
          "name": "E7",
          "midi": 100,
          "time": 234.21017500000661,
          "velocity": 0.7874015748031497,
          "duration": 0.001096489583346738
        },
        {
          "name": "E5",
          "midi": 76,
          "time": 234.47333250000662,
          "velocity": 0.7874015748031497,
          "duration": 0.001096489583346738
        },
        {
          "name": "C6",
          "midi": 84,
          "time": 234.47333250000662,
          "velocity": 0.7874015748031497,
          "duration": 0.001096489583346738
        },
        {
          "name": "E6",
          "midi": 88,
          "time": 234.47333250000662,
          "velocity": 0.7874015748031497,
          "duration": 0.001096489583346738
        },
        {
          "name": "C7",
          "midi": 96,
          "time": 234.47333250000662,
          "velocity": 0.7874015748031497,
          "duration": 0.001096489583346738
        },
        {
          "name": "E7",
          "midi": 100,
          "time": 234.47333250000662,
          "velocity": 0.7874015748031497,
          "duration": 0.001096489583346738
        },
        {
          "name": "C#4",
          "midi": 61,
          "time": 234.73649000000663,
          "velocity": 0.7874015748031497,
          "duration": 0.001096489583346738
        },
        {
          "name": "C#5",
          "midi": 73,
          "time": 234.73649000000663,
          "velocity": 0.7874015748031497,
          "duration": 0.001096489583346738
        },
        {
          "name": "E5",
          "midi": 76,
          "time": 234.73649000000663,
          "velocity": 0.7874015748031497,
          "duration": 0.001096489583346738
        },
        {
          "name": "C#6",
          "midi": 85,
          "time": 234.73649000000663,
          "velocity": 0.7874015748031497,
          "duration": 0.001096489583346738
        },
        {
          "name": "E6",
          "midi": 88,
          "time": 234.73649000000663,
          "velocity": 0.7874015748031497,
          "duration": 0.001096489583346738
        },
        {
          "name": "C#7",
          "midi": 97,
          "time": 234.73649000000663,
          "velocity": 0.7874015748031497,
          "duration": 0.001096489583346738
        },
        {
          "name": "E7",
          "midi": 100,
          "time": 234.73649000000663,
          "velocity": 0.7874015748031497,
          "duration": 0.001096489583346738
        },
        {
          "name": "D5",
          "midi": 74,
          "time": 234.99964750000663,
          "velocity": 0.7874015748031497,
          "duration": 0.001096489583346738
        },
        {
          "name": "C6",
          "midi": 84,
          "time": 234.99964750000663,
          "velocity": 0.7874015748031497,
          "duration": 0.001096489583346738
        },
        {
          "name": "D6",
          "midi": 86,
          "time": 234.99964750000663,
          "velocity": 0.7874015748031497,
          "duration": 0.001096489583346738
        },
        {
          "name": "C7",
          "midi": 96,
          "time": 234.99964750000663,
          "velocity": 0.7874015748031497,
          "duration": 0.001096489583346738
        },
        {
          "name": "D7",
          "midi": 98,
          "time": 234.99964750000663,
          "velocity": 0.7874015748031497,
          "duration": 0.001096489583346738
        },
        {
          "name": "D5",
          "midi": 74,
          "time": 235.26280500000664,
          "velocity": 0.7874015748031497,
          "duration": 0.001096489583346738
        },
        {
          "name": "C6",
          "midi": 84,
          "time": 235.26280500000664,
          "velocity": 0.7874015748031497,
          "duration": 0.001096489583346738
        },
        {
          "name": "D6",
          "midi": 86,
          "time": 235.26280500000664,
          "velocity": 0.7874015748031497,
          "duration": 0.001096489583346738
        },
        {
          "name": "C7",
          "midi": 96,
          "time": 235.26280500000664,
          "velocity": 0.7874015748031497,
          "duration": 0.001096489583346738
        },
        {
          "name": "D7",
          "midi": 98,
          "time": 235.26280500000664,
          "velocity": 0.7874015748031497,
          "duration": 0.001096489583346738
        },
        {
          "name": "D4",
          "midi": 62,
          "time": 235.52596250000664,
          "velocity": 0.7874015748031497,
          "duration": 0.001096489583346738
        },
        {
          "name": "C5",
          "midi": 72,
          "time": 235.52596250000664,
          "velocity": 0.7874015748031497,
          "duration": 0.001096489583346738
        },
        {
          "name": "D5",
          "midi": 74,
          "time": 235.52596250000664,
          "velocity": 0.7874015748031497,
          "duration": 0.001096489583346738
        },
        {
          "name": "C6",
          "midi": 84,
          "time": 235.52596250000664,
          "velocity": 0.7874015748031497,
          "duration": 0.001096489583346738
        },
        {
          "name": "D6",
          "midi": 86,
          "time": 235.52596250000664,
          "velocity": 0.7874015748031497,
          "duration": 0.001096489583346738
        },
        {
          "name": "C7",
          "midi": 96,
          "time": 235.52596250000664,
          "velocity": 0.7874015748031497,
          "duration": 0.001096489583346738
        },
        {
          "name": "D7",
          "midi": 98,
          "time": 235.52596250000664,
          "velocity": 0.7874015748031497,
          "duration": 0.001096489583346738
        },
        {
          "name": "E6",
          "midi": 88,
          "time": 236.05227750000665,
          "velocity": 0.7874015748031497,
          "duration": 0.001096489583346738
        },
        {
          "name": "E7",
          "midi": 100,
          "time": 236.05227750000665,
          "velocity": 0.7874015748031497,
          "duration": 0.001096489583346738
        },
        {
          "name": "E4",
          "midi": 64,
          "time": 236.31543500000666,
          "velocity": 0.7874015748031497,
          "duration": 0.001096489583346738
        },
        {
          "name": "C5",
          "midi": 72,
          "time": 236.31543500000666,
          "velocity": 0.7874015748031497,
          "duration": 0.001096489583346738
        },
        {
          "name": "E5",
          "midi": 76,
          "time": 236.31543500000666,
          "velocity": 0.7874015748031497,
          "duration": 0.001096489583346738
        },
        {
          "name": "C6",
          "midi": 84,
          "time": 236.31543500000666,
          "velocity": 0.7874015748031497,
          "duration": 0.001096489583346738
        },
        {
          "name": "E6",
          "midi": 88,
          "time": 236.31543500000666,
          "velocity": 0.7874015748031497,
          "duration": 0.001096489583346738
        },
        {
          "name": "C7",
          "midi": 96,
          "time": 236.31543500000666,
          "velocity": 0.7874015748031497,
          "duration": 0.001096489583346738
        },
        {
          "name": "E7",
          "midi": 100,
          "time": 236.31543500000666,
          "velocity": 0.7874015748031497,
          "duration": 0.001096489583346738
        },
        {
          "name": "E5",
          "midi": 76,
          "time": 236.57859250000666,
          "velocity": 0.7874015748031497,
          "duration": 0.001096489583346738
        },
        {
          "name": "C6",
          "midi": 84,
          "time": 236.57859250000666,
          "velocity": 0.7874015748031497,
          "duration": 0.001096489583346738
        },
        {
          "name": "E6",
          "midi": 88,
          "time": 236.57859250000666,
          "velocity": 0.7874015748031497,
          "duration": 0.001096489583346738
        },
        {
          "name": "C7",
          "midi": 96,
          "time": 236.57859250000666,
          "velocity": 0.7874015748031497,
          "duration": 0.001096489583346738
        },
        {
          "name": "E7",
          "midi": 100,
          "time": 236.57859250000666,
          "velocity": 0.7874015748031497,
          "duration": 0.001096489583346738
        },
        {
          "name": "C#4",
          "midi": 61,
          "time": 236.84175000000667,
          "velocity": 0.7874015748031497,
          "duration": 0.001096489583346738
        },
        {
          "name": "C#5",
          "midi": 73,
          "time": 236.84175000000667,
          "velocity": 0.7874015748031497,
          "duration": 0.001096489583346738
        },
        {
          "name": "E5",
          "midi": 76,
          "time": 236.84175000000667,
          "velocity": 0.7874015748031497,
          "duration": 0.001096489583346738
        },
        {
          "name": "C#6",
          "midi": 85,
          "time": 236.84175000000667,
          "velocity": 0.7874015748031497,
          "duration": 0.001096489583346738
        },
        {
          "name": "E6",
          "midi": 88,
          "time": 236.84175000000667,
          "velocity": 0.7874015748031497,
          "duration": 0.001096489583346738
        },
        {
          "name": "C#7",
          "midi": 97,
          "time": 236.84175000000667,
          "velocity": 0.7874015748031497,
          "duration": 0.001096489583346738
        },
        {
          "name": "E7",
          "midi": 100,
          "time": 236.84175000000667,
          "velocity": 0.7874015748031497,
          "duration": 0.001096489583346738
        },
        {
          "name": "E5",
          "midi": 76,
          "time": 237.10490750000668,
          "velocity": 0.7874015748031497,
          "duration": 0.001096489583346738
        },
        {
          "name": "E6",
          "midi": 88,
          "time": 237.10490750000668,
          "velocity": 0.7874015748031497,
          "duration": 0.001096489583346738
        },
        {
          "name": "E7",
          "midi": 100,
          "time": 237.10490750000668,
          "velocity": 0.7874015748031497,
          "duration": 0.001096489583346738
        },
        {
          "name": "E4",
          "midi": 64,
          "time": 237.36806500000668,
          "velocity": 0.7874015748031497,
          "duration": 0.001096489583346738
        },
        {
          "name": "E5",
          "midi": 76,
          "time": 237.36806500000668,
          "velocity": 0.7874015748031497,
          "duration": 0.001096489583346738
        },
        {
          "name": "E6",
          "midi": 88,
          "time": 237.36806500000668,
          "velocity": 0.7874015748031497,
          "duration": 0.001096489583346738
        },
        {
          "name": "E7",
          "midi": 100,
          "time": 237.36806500000668,
          "velocity": 0.7874015748031497,
          "duration": 0.001096489583346738
        },
        {
          "name": "E5",
          "midi": 76,
          "time": 237.6312225000067,
          "velocity": 0.7874015748031497,
          "duration": 0.001096489583346738
        },
        {
          "name": "C6",
          "midi": 84,
          "time": 237.6312225000067,
          "velocity": 0.7874015748031497,
          "duration": 0.001096489583346738
        },
        {
          "name": "E6",
          "midi": 88,
          "time": 237.6312225000067,
          "velocity": 0.7874015748031497,
          "duration": 0.001096489583346738
        },
        {
          "name": "C7",
          "midi": 96,
          "time": 237.6312225000067,
          "velocity": 0.7874015748031497,
          "duration": 0.001096489583346738
        },
        {
          "name": "E7",
          "midi": 100,
          "time": 237.6312225000067,
          "velocity": 0.7874015748031497,
          "duration": 0.001096489583346738
        },
        {
          "name": "G#8",
          "midi": 116,
          "time": 237.8943800000067,
          "velocity": 0.7874015748031497,
          "duration": 1.906795385416757
        },
        {
          "name": "C4",
          "midi": 60,
          "time": 237.8943800000067,
          "velocity": 0.7874015748031497,
          "duration": 0.001096489583346738
        },
        {
          "name": "C5",
          "midi": 72,
          "time": 237.8943800000067,
          "velocity": 0.7874015748031497,
          "duration": 0.001096489583346738
        },
        {
          "name": "E5",
          "midi": 76,
          "time": 237.8943800000067,
          "velocity": 0.7874015748031497,
          "duration": 0.001096489583346738
        },
        {
          "name": "C6",
          "midi": 84,
          "time": 237.8943800000067,
          "velocity": 0.7874015748031497,
          "duration": 0.001096489583346738
        },
        {
          "name": "E6",
          "midi": 88,
          "time": 237.8943800000067,
          "velocity": 0.7874015748031497,
          "duration": 0.001096489583346738
        },
        {
          "name": "C7",
          "midi": 96,
          "time": 237.8943800000067,
          "velocity": 0.7874015748031497,
          "duration": 0.001096489583346738
        },
        {
          "name": "E7",
          "midi": 100,
          "time": 237.8943800000067,
          "velocity": 0.7874015748031497,
          "duration": 0.001096489583346738
        },
        {
          "name": "E5",
          "midi": 76,
          "time": 238.1575375000067,
          "velocity": 0.7874015748031497,
          "duration": 0.001096489583346738
        },
        {
          "name": "E6",
          "midi": 88,
          "time": 238.1575375000067,
          "velocity": 0.7874015748031497,
          "duration": 0.001096489583346738
        },
        {
          "name": "E7",
          "midi": 100,
          "time": 238.1575375000067,
          "velocity": 0.7874015748031497,
          "duration": 0.001096489583346738
        },
        {
          "name": "E4",
          "midi": 64,
          "time": 238.4206950000067,
          "velocity": 0.7874015748031497,
          "duration": 0.001096489583346738
        },
        {
          "name": "E5",
          "midi": 76,
          "time": 238.4206950000067,
          "velocity": 0.7874015748031497,
          "duration": 0.001096489583346738
        },
        {
          "name": "E6",
          "midi": 88,
          "time": 238.4206950000067,
          "velocity": 0.7874015748031497,
          "duration": 0.001096489583346738
        },
        {
          "name": "E7",
          "midi": 100,
          "time": 238.4206950000067,
          "velocity": 0.7874015748031497,
          "duration": 0.001096489583346738
        },
        {
          "name": "E5",
          "midi": 76,
          "time": 238.6838525000067,
          "velocity": 0.7874015748031497,
          "duration": 0.001096489583346738
        },
        {
          "name": "C6",
          "midi": 84,
          "time": 238.6838525000067,
          "velocity": 0.7874015748031497,
          "duration": 0.001096489583346738
        },
        {
          "name": "E6",
          "midi": 88,
          "time": 238.6838525000067,
          "velocity": 0.7874015748031497,
          "duration": 0.001096489583346738
        },
        {
          "name": "C7",
          "midi": 96,
          "time": 238.6838525000067,
          "velocity": 0.7874015748031497,
          "duration": 0.001096489583346738
        },
        {
          "name": "E7",
          "midi": 100,
          "time": 238.6838525000067,
          "velocity": 0.7874015748031497,
          "duration": 0.001096489583346738
        },
        {
          "name": "C#4",
          "midi": 61,
          "time": 238.9470100000067,
          "velocity": 0.7874015748031497,
          "duration": 0.001096489583346738
        },
        {
          "name": "C#5",
          "midi": 73,
          "time": 238.9470100000067,
          "velocity": 0.7874015748031497,
          "duration": 0.001096489583346738
        },
        {
          "name": "E5",
          "midi": 76,
          "time": 238.9470100000067,
          "velocity": 0.7874015748031497,
          "duration": 0.001096489583346738
        },
        {
          "name": "C#6",
          "midi": 85,
          "time": 238.9470100000067,
          "velocity": 0.7874015748031497,
          "duration": 0.001096489583346738
        },
        {
          "name": "E6",
          "midi": 88,
          "time": 238.9470100000067,
          "velocity": 0.7874015748031497,
          "duration": 0.001096489583346738
        },
        {
          "name": "C#7",
          "midi": 97,
          "time": 238.9470100000067,
          "velocity": 0.7874015748031497,
          "duration": 0.001096489583346738
        },
        {
          "name": "E7",
          "midi": 100,
          "time": 238.9470100000067,
          "velocity": 0.7874015748031497,
          "duration": 0.001096489583346738
        },
        {
          "name": "E5",
          "midi": 76,
          "time": 239.2090710104234,
          "velocity": 0.7874015748031497,
          "duration": 0.001096489583346738
        },
        {
          "name": "E6",
          "midi": 88,
          "time": 239.2090710104234,
          "velocity": 0.7874015748031497,
          "duration": 0.001096489583346738
        },
        {
          "name": "C7",
          "midi": 96,
          "time": 239.2090710104234,
          "velocity": 0.7874015748031497,
          "duration": 0.001096489583346738
        },
        {
          "name": "E7",
          "midi": 100,
          "time": 239.2090710104234,
          "velocity": 0.7874015748031497,
          "duration": 0.001096489583346738
        },
        {
          "name": "E4",
          "midi": 64,
          "time": 239.47332500000675,
          "velocity": 0.7874015748031497,
          "duration": 0.001096489583346738
        },
        {
          "name": "E5",
          "midi": 76,
          "time": 239.47332500000675,
          "velocity": 0.7874015748031497,
          "duration": 0.001096489583346738
        },
        {
          "name": "C6",
          "midi": 84,
          "time": 239.47332500000675,
          "velocity": 0.7874015748031497,
          "duration": 0.001096489583346738
        },
        {
          "name": "E6",
          "midi": 88,
          "time": 239.47332500000675,
          "velocity": 0.7874015748031497,
          "duration": 0.001096489583346738
        },
        {
          "name": "C7",
          "midi": 96,
          "time": 239.47332500000675,
          "velocity": 0.7874015748031497,
          "duration": 0.001096489583346738
        },
        {
          "name": "E7",
          "midi": 100,
          "time": 239.47332500000675,
          "velocity": 0.7874015748031497,
          "duration": 0.001096489583346738
        },
        {
          "name": "D4",
          "midi": 62,
          "time": 239.73648250000676,
          "velocity": 0.7874015748031497,
          "duration": 0.001096489583346738
        },
        {
          "name": "C5",
          "midi": 72,
          "time": 239.73648250000676,
          "velocity": 0.7874015748031497,
          "duration": 0.001096489583346738
        },
        {
          "name": "D5",
          "midi": 74,
          "time": 239.73648250000676,
          "velocity": 0.7874015748031497,
          "duration": 0.001096489583346738
        },
        {
          "name": "C6",
          "midi": 84,
          "time": 239.73648250000676,
          "velocity": 0.7874015748031497,
          "duration": 0.001096489583346738
        },
        {
          "name": "D6",
          "midi": 86,
          "time": 239.73648250000676,
          "velocity": 0.7874015748031497,
          "duration": 0.001096489583346738
        },
        {
          "name": "C7",
          "midi": 96,
          "time": 239.73648250000676,
          "velocity": 0.7874015748031497,
          "duration": 0.001096489583346738
        },
        {
          "name": "D7",
          "midi": 98,
          "time": 239.73648250000676,
          "velocity": 0.7874015748031497,
          "duration": 0.001096489583346738
        },
        {
          "name": "E4",
          "midi": 64,
          "time": 240.52595500000677,
          "velocity": 0.7874015748031497,
          "duration": 0.001096489583346738
        },
        {
          "name": "C5",
          "midi": 72,
          "time": 240.52595500000677,
          "velocity": 0.7874015748031497,
          "duration": 0.001096489583346738
        },
        {
          "name": "E5",
          "midi": 76,
          "time": 240.52595500000677,
          "velocity": 0.7874015748031497,
          "duration": 0.001096489583346738
        },
        {
          "name": "C6",
          "midi": 84,
          "time": 240.52595500000677,
          "velocity": 0.7874015748031497,
          "duration": 0.001096489583346738
        },
        {
          "name": "E6",
          "midi": 88,
          "time": 240.52595500000677,
          "velocity": 0.7874015748031497,
          "duration": 0.001096489583346738
        },
        {
          "name": "C7",
          "midi": 96,
          "time": 240.52595500000677,
          "velocity": 0.7874015748031497,
          "duration": 0.001096489583346738
        },
        {
          "name": "E7",
          "midi": 100,
          "time": 240.52595500000677,
          "velocity": 0.7874015748031497,
          "duration": 0.001096489583346738
        },
        {
          "name": "E5",
          "midi": 76,
          "time": 240.78911250000678,
          "velocity": 0.7874015748031497,
          "duration": 0.001096489583346738
        },
        {
          "name": "C6",
          "midi": 84,
          "time": 240.78911250000678,
          "velocity": 0.7874015748031497,
          "duration": 0.001096489583346738
        },
        {
          "name": "E6",
          "midi": 88,
          "time": 240.78911250000678,
          "velocity": 0.7874015748031497,
          "duration": 0.001096489583346738
        },
        {
          "name": "C7",
          "midi": 96,
          "time": 240.78911250000678,
          "velocity": 0.7874015748031497,
          "duration": 0.001096489583346738
        },
        {
          "name": "E7",
          "midi": 100,
          "time": 240.78911250000678,
          "velocity": 0.7874015748031497,
          "duration": 0.001096489583346738
        },
        {
          "name": "C#4",
          "midi": 61,
          "time": 241.05227000000679,
          "velocity": 0.7874015748031497,
          "duration": 0.001096489583346738
        },
        {
          "name": "C#5",
          "midi": 73,
          "time": 241.05227000000679,
          "velocity": 0.7874015748031497,
          "duration": 0.001096489583346738
        },
        {
          "name": "E5",
          "midi": 76,
          "time": 241.05227000000679,
          "velocity": 0.7874015748031497,
          "duration": 0.001096489583346738
        },
        {
          "name": "C#6",
          "midi": 85,
          "time": 241.05227000000679,
          "velocity": 0.7874015748031497,
          "duration": 0.001096489583346738
        },
        {
          "name": "E6",
          "midi": 88,
          "time": 241.05227000000679,
          "velocity": 0.7874015748031497,
          "duration": 0.001096489583346738
        },
        {
          "name": "C#7",
          "midi": 97,
          "time": 241.05227000000679,
          "velocity": 0.7874015748031497,
          "duration": 0.001096489583346738
        },
        {
          "name": "E7",
          "midi": 100,
          "time": 241.05227000000679,
          "velocity": 0.7874015748031497,
          "duration": 0.001096489583346738
        },
        {
          "name": "E5",
          "midi": 76,
          "time": 241.3154275000068,
          "velocity": 0.7874015748031497,
          "duration": 0.001096489583346738
        },
        {
          "name": "E6",
          "midi": 88,
          "time": 241.3154275000068,
          "velocity": 0.7874015748031497,
          "duration": 0.001096489583346738
        },
        {
          "name": "E7",
          "midi": 100,
          "time": 241.3154275000068,
          "velocity": 0.7874015748031497,
          "duration": 0.001096489583346738
        },
        {
          "name": "E4",
          "midi": 64,
          "time": 241.5785850000068,
          "velocity": 0.7874015748031497,
          "duration": 0.001096489583346738
        },
        {
          "name": "E5",
          "midi": 76,
          "time": 241.5785850000068,
          "velocity": 0.7874015748031497,
          "duration": 0.001096489583346738
        },
        {
          "name": "E6",
          "midi": 88,
          "time": 241.5785850000068,
          "velocity": 0.7874015748031497,
          "duration": 0.001096489583346738
        },
        {
          "name": "E7",
          "midi": 100,
          "time": 241.5785850000068,
          "velocity": 0.7874015748031497,
          "duration": 0.001096489583346738
        },
        {
          "name": "E5",
          "midi": 76,
          "time": 241.8417425000068,
          "velocity": 0.7874015748031497,
          "duration": 0.001096489583346738
        },
        {
          "name": "C6",
          "midi": 84,
          "time": 241.8417425000068,
          "velocity": 0.7874015748031497,
          "duration": 0.001096489583346738
        },
        {
          "name": "E6",
          "midi": 88,
          "time": 241.8417425000068,
          "velocity": 0.7874015748031497,
          "duration": 0.001096489583346738
        },
        {
          "name": "C7",
          "midi": 96,
          "time": 241.8417425000068,
          "velocity": 0.7874015748031497,
          "duration": 0.001096489583346738
        },
        {
          "name": "E7",
          "midi": 100,
          "time": 241.8417425000068,
          "velocity": 0.7874015748031497,
          "duration": 0.001096489583346738
        },
        {
          "name": "C4",
          "midi": 60,
          "time": 242.1049000000068,
          "velocity": 0.7874015748031497,
          "duration": 0.001096489583346738
        },
        {
          "name": "C5",
          "midi": 72,
          "time": 242.1049000000068,
          "velocity": 0.7874015748031497,
          "duration": 0.001096489583346738
        },
        {
          "name": "E5",
          "midi": 76,
          "time": 242.1049000000068,
          "velocity": 0.7874015748031497,
          "duration": 0.001096489583346738
        },
        {
          "name": "C6",
          "midi": 84,
          "time": 242.1049000000068,
          "velocity": 0.7874015748031497,
          "duration": 0.001096489583346738
        },
        {
          "name": "E6",
          "midi": 88,
          "time": 242.1049000000068,
          "velocity": 0.7874015748031497,
          "duration": 0.001096489583346738
        },
        {
          "name": "C7",
          "midi": 96,
          "time": 242.1049000000068,
          "velocity": 0.7874015748031497,
          "duration": 0.001096489583346738
        },
        {
          "name": "E7",
          "midi": 100,
          "time": 242.1049000000068,
          "velocity": 0.7874015748031497,
          "duration": 0.001096489583346738
        },
        {
          "name": "E5",
          "midi": 76,
          "time": 242.36915398959016,
          "velocity": 0.7874015748031497,
          "duration": 0.001096489583346738
        },
        {
          "name": "E6",
          "midi": 88,
          "time": 242.36915398959016,
          "velocity": 0.7874015748031497,
          "duration": 0.001096489583346738
        },
        {
          "name": "E7",
          "midi": 100,
          "time": 242.36915398959016,
          "velocity": 0.7874015748031497,
          "duration": 0.001096489583346738
        },
        {
          "name": "D#4",
          "midi": 63,
          "time": 242.63121500000685,
          "velocity": 0.7874015748031497,
          "duration": 0.001096489583346738
        },
        {
          "name": "D#5",
          "midi": 75,
          "time": 242.63121500000685,
          "velocity": 0.7874015748031497,
          "duration": 0.001096489583346738
        },
        {
          "name": "D#6",
          "midi": 87,
          "time": 242.63121500000685,
          "velocity": 0.7874015748031497,
          "duration": 0.001096489583346738
        },
        {
          "name": "D#7",
          "midi": 99,
          "time": 242.63121500000685,
          "velocity": 0.7874015748031497,
          "duration": 0.001096489583346738
        },
        {
          "name": "D#7",
          "midi": 99,
          "time": 242.73647800000685,
          "velocity": 0.7874015748031497,
          "duration": 0.001096489583346738
        },
        {
          "name": "D#6",
          "midi": 87,
          "time": 242.7638902395902,
          "velocity": 0.7874015748031497,
          "duration": 0.001096489583346738
        },
        {
          "name": "D#7",
          "midi": 99,
          "time": 242.84283748959024,
          "velocity": 0.7874015748031497,
          "duration": 0.001096489583346738
        },
        {
          "name": "D#5",
          "midi": 75,
          "time": 242.8943725000069,
          "velocity": 0.7874015748031497,
          "duration": 0.001096489583346738
        },
        {
          "name": "D#6",
          "midi": 87,
          "time": 242.8943725000069,
          "velocity": 0.7874015748031497,
          "duration": 0.001096489583346738
        },
        {
          "name": "D#7",
          "midi": 99,
          "time": 242.94700400000693,
          "velocity": 0.7874015748031497,
          "duration": 0.001096489583346738
        },
        {
          "name": "D#6",
          "midi": 87,
          "time": 243.02595125000695,
          "velocity": 0.7874015748031497,
          "duration": 0.001096489583346738
        },
        {
          "name": "D#7",
          "midi": 99,
          "time": 243.0533634895903,
          "velocity": 0.7874015748031497,
          "duration": 0.001096489583346738
        },
        {
          "name": "D4",
          "midi": 62,
          "time": 243.157530000007,
          "velocity": 0.7874015748031497,
          "duration": 0.001096489583346738
        },
        {
          "name": "C5",
          "midi": 72,
          "time": 243.157530000007,
          "velocity": 0.7874015748031497,
          "duration": 0.001096489583346738
        },
        {
          "name": "D5",
          "midi": 74,
          "time": 243.157530000007,
          "velocity": 0.7874015748031497,
          "duration": 0.001096489583346738
        },
        {
          "name": "C6",
          "midi": 84,
          "time": 243.157530000007,
          "velocity": 0.7874015748031497,
          "duration": 0.001096489583346738
        },
        {
          "name": "D6",
          "midi": 86,
          "time": 243.157530000007,
          "velocity": 0.7874015748031497,
          "duration": 0.001096489583346738
        },
        {
          "name": "C7",
          "midi": 96,
          "time": 243.157530000007,
          "velocity": 0.7874015748031497,
          "duration": 0.001096489583346738
        },
        {
          "name": "D7",
          "midi": 98,
          "time": 243.157530000007,
          "velocity": 0.7874015748031497,
          "duration": 0.001096489583346738
        },
        {
          "name": "D4",
          "midi": 62,
          "time": 243.683845000007,
          "velocity": 0.7874015748031497,
          "duration": 0.001096489583346738
        },
        {
          "name": "D5",
          "midi": 74,
          "time": 243.683845000007,
          "velocity": 0.7874015748031497,
          "duration": 0.001096489583346738
        },
        {
          "name": "C6",
          "midi": 84,
          "time": 243.683845000007,
          "velocity": 0.7874015748031497,
          "duration": 0.001096489583346738
        },
        {
          "name": "D6",
          "midi": 86,
          "time": 243.683845000007,
          "velocity": 0.7874015748031497,
          "duration": 0.001096489583346738
        },
        {
          "name": "C7",
          "midi": 96,
          "time": 243.683845000007,
          "velocity": 0.7874015748031497,
          "duration": 0.001096489583346738
        },
        {
          "name": "D7",
          "midi": 98,
          "time": 243.683845000007,
          "velocity": 0.7874015748031497,
          "duration": 0.001096489583346738
        },
        {
          "name": "D4",
          "midi": 62,
          "time": 243.94809898959036,
          "velocity": 0.7874015748031497,
          "duration": 0.001096489583346738
        },
        {
          "name": "C5",
          "midi": 72,
          "time": 243.94809898959036,
          "velocity": 0.7874015748031497,
          "duration": 0.001096489583346738
        },
        {
          "name": "D5",
          "midi": 74,
          "time": 243.94809898959036,
          "velocity": 0.7874015748031497,
          "duration": 0.001096489583346738
        },
        {
          "name": "C6",
          "midi": 84,
          "time": 243.94809898959036,
          "velocity": 0.7874015748031497,
          "duration": 0.001096489583346738
        },
        {
          "name": "D6",
          "midi": 86,
          "time": 243.94809898959036,
          "velocity": 0.7874015748031497,
          "duration": 0.001096489583346738
        },
        {
          "name": "C7",
          "midi": 96,
          "time": 243.94809898959036,
          "velocity": 0.7874015748031497,
          "duration": 0.001096489583346738
        },
        {
          "name": "D7",
          "midi": 98,
          "time": 243.94809898959036,
          "velocity": 0.7874015748031497,
          "duration": 0.001096489583346738
        },
        {
          "name": "E6",
          "midi": 88,
          "time": 244.47441398959037,
          "velocity": 0.7874015748031497,
          "duration": 0.001096489583346738
        },
        {
          "name": "E7",
          "midi": 100,
          "time": 244.47441398959037,
          "velocity": 0.7874015748031497,
          "duration": 0.001096489583346738
        },
        {
          "name": "E4",
          "midi": 64,
          "time": 244.73647500000706,
          "velocity": 0.7874015748031497,
          "duration": 0.001096489583346738
        },
        {
          "name": "C5",
          "midi": 72,
          "time": 244.73647500000706,
          "velocity": 0.7874015748031497,
          "duration": 0.001096489583346738
        },
        {
          "name": "E5",
          "midi": 76,
          "time": 244.73647500000706,
          "velocity": 0.7874015748031497,
          "duration": 0.001096489583346738
        },
        {
          "name": "C6",
          "midi": 84,
          "time": 244.73647500000706,
          "velocity": 0.7874015748031497,
          "duration": 0.001096489583346738
        },
        {
          "name": "E6",
          "midi": 88,
          "time": 244.73647500000706,
          "velocity": 0.7874015748031497,
          "duration": 0.001096489583346738
        },
        {
          "name": "C7",
          "midi": 96,
          "time": 244.73647500000706,
          "velocity": 0.7874015748031497,
          "duration": 0.001096489583346738
        },
        {
          "name": "E7",
          "midi": 100,
          "time": 244.73647500000706,
          "velocity": 0.7874015748031497,
          "duration": 0.001096489583346738
        },
        {
          "name": "E5",
          "midi": 76,
          "time": 245.0007289895904,
          "velocity": 0.7874015748031497,
          "duration": 0.001096489583346738
        },
        {
          "name": "C6",
          "midi": 84,
          "time": 245.0007289895904,
          "velocity": 0.7874015748031497,
          "duration": 0.001096489583346738
        },
        {
          "name": "E6",
          "midi": 88,
          "time": 245.0007289895904,
          "velocity": 0.7874015748031497,
          "duration": 0.001096489583346738
        },
        {
          "name": "C7",
          "midi": 96,
          "time": 245.0007289895904,
          "velocity": 0.7874015748031497,
          "duration": 0.001096489583346738
        },
        {
          "name": "E7",
          "midi": 100,
          "time": 245.0007289895904,
          "velocity": 0.7874015748031497,
          "duration": 0.001096489583346738
        },
        {
          "name": "C#4",
          "midi": 61,
          "time": 245.2627900000071,
          "velocity": 0.7874015748031497,
          "duration": 0.001096489583346738
        },
        {
          "name": "C#5",
          "midi": 73,
          "time": 245.2627900000071,
          "velocity": 0.7874015748031497,
          "duration": 0.001096489583346738
        },
        {
          "name": "E5",
          "midi": 76,
          "time": 245.2627900000071,
          "velocity": 0.7874015748031497,
          "duration": 0.001096489583346738
        },
        {
          "name": "C#6",
          "midi": 85,
          "time": 245.2627900000071,
          "velocity": 0.7874015748031497,
          "duration": 0.001096489583346738
        },
        {
          "name": "E6",
          "midi": 88,
          "time": 245.2627900000071,
          "velocity": 0.7874015748031497,
          "duration": 0.001096489583346738
        },
        {
          "name": "C#7",
          "midi": 97,
          "time": 245.2627900000071,
          "velocity": 0.7874015748031497,
          "duration": 0.001096489583346738
        },
        {
          "name": "E7",
          "midi": 100,
          "time": 245.2627900000071,
          "velocity": 0.7874015748031497,
          "duration": 0.001096489583346738
        },
        {
          "name": "E5",
          "midi": 76,
          "time": 245.5259475000071,
          "velocity": 0.7874015748031497,
          "duration": 0.001096489583346738
        },
        {
          "name": "E6",
          "midi": 88,
          "time": 245.5259475000071,
          "velocity": 0.7874015748031497,
          "duration": 0.001096489583346738
        },
        {
          "name": "E7",
          "midi": 100,
          "time": 245.5259475000071,
          "velocity": 0.7874015748031497,
          "duration": 0.001096489583346738
        },
        {
          "name": "E4",
          "midi": 64,
          "time": 245.7891050000071,
          "velocity": 0.7874015748031497,
          "duration": 0.001096489583346738
        },
        {
          "name": "E5",
          "midi": 76,
          "time": 245.7891050000071,
          "velocity": 0.7874015748031497,
          "duration": 0.001096489583346738
        },
        {
          "name": "E6",
          "midi": 88,
          "time": 245.7891050000071,
          "velocity": 0.7874015748031497,
          "duration": 0.001096489583346738
        },
        {
          "name": "E7",
          "midi": 100,
          "time": 245.7891050000071,
          "velocity": 0.7874015748031497,
          "duration": 0.001096489583346738
        },
        {
          "name": "E5",
          "midi": 76,
          "time": 246.05226250000712,
          "velocity": 0.7874015748031497,
          "duration": 0.001096489583346738
        },
        {
          "name": "C6",
          "midi": 84,
          "time": 246.05226250000712,
          "velocity": 0.7874015748031497,
          "duration": 0.001096489583346738
        },
        {
          "name": "E6",
          "midi": 88,
          "time": 246.05226250000712,
          "velocity": 0.7874015748031497,
          "duration": 0.001096489583346738
        },
        {
          "name": "C7",
          "midi": 96,
          "time": 246.05226250000712,
          "velocity": 0.7874015748031497,
          "duration": 0.001096489583346738
        },
        {
          "name": "E7",
          "midi": 100,
          "time": 246.05226250000712,
          "velocity": 0.7874015748031497,
          "duration": 0.001096489583346738
        },
        {
          "name": "C#4",
          "midi": 61,
          "time": 246.31542000000712,
          "velocity": 0.7874015748031497,
          "duration": 0.001096489583346738
        },
        {
          "name": "C#5",
          "midi": 73,
          "time": 246.31542000000712,
          "velocity": 0.7874015748031497,
          "duration": 0.001096489583346738
        },
        {
          "name": "E5",
          "midi": 76,
          "time": 246.31542000000712,
          "velocity": 0.7874015748031497,
          "duration": 0.001096489583346738
        },
        {
          "name": "C#6",
          "midi": 85,
          "time": 246.31542000000712,
          "velocity": 0.7874015748031497,
          "duration": 0.001096489583346738
        },
        {
          "name": "E6",
          "midi": 88,
          "time": 246.31542000000712,
          "velocity": 0.7874015748031497,
          "duration": 0.001096489583346738
        },
        {
          "name": "C#7",
          "midi": 97,
          "time": 246.31542000000712,
          "velocity": 0.7874015748031497,
          "duration": 0.001096489583346738
        },
        {
          "name": "E7",
          "midi": 100,
          "time": 246.31542000000712,
          "velocity": 0.7874015748031497,
          "duration": 0.001096489583346738
        },
        {
          "name": "E5",
          "midi": 76,
          "time": 246.57967398959048,
          "velocity": 0.7874015748031497,
          "duration": 0.001096489583346738
        },
        {
          "name": "E6",
          "midi": 88,
          "time": 246.57967398959048,
          "velocity": 0.7874015748031497,
          "duration": 0.001096489583346738
        },
        {
          "name": "E7",
          "midi": 100,
          "time": 246.57967398959048,
          "velocity": 0.7874015748031497,
          "duration": 0.001096489583346738
        },
        {
          "name": "E4",
          "midi": 64,
          "time": 246.84173500000716,
          "velocity": 0.7874015748031497,
          "duration": 0.001096489583346738
        },
        {
          "name": "E5",
          "midi": 76,
          "time": 246.84173500000716,
          "velocity": 0.7874015748031497,
          "duration": 0.001096489583346738
        },
        {
          "name": "E6",
          "midi": 88,
          "time": 246.84173500000716,
          "velocity": 0.7874015748031497,
          "duration": 0.001096489583346738
        },
        {
          "name": "E7",
          "midi": 100,
          "time": 246.84173500000716,
          "velocity": 0.7874015748031497,
          "duration": 0.001096489583346738
        },
        {
          "name": "C5",
          "midi": 72,
          "time": 247.10489250000717,
          "velocity": 0.7874015748031497,
          "duration": 0.001096489583346738
        },
        {
          "name": "E5",
          "midi": 76,
          "time": 247.10489250000717,
          "velocity": 0.7874015748031497,
          "duration": 0.001096489583346738
        },
        {
          "name": "C6",
          "midi": 84,
          "time": 247.10489250000717,
          "velocity": 0.7874015748031497,
          "duration": 0.001096489583346738
        },
        {
          "name": "E6",
          "midi": 88,
          "time": 247.10489250000717,
          "velocity": 0.7874015748031497,
          "duration": 0.001096489583346738
        },
        {
          "name": "C7",
          "midi": 96,
          "time": 247.10489250000717,
          "velocity": 0.7874015748031497,
          "duration": 0.001096489583346738
        },
        {
          "name": "E7",
          "midi": 100,
          "time": 247.10489250000717,
          "velocity": 0.7874015748031497,
          "duration": 0.001096489583346738
        },
        {
          "name": "C#4",
          "midi": 61,
          "time": 247.36805000000717,
          "velocity": 0.7874015748031497,
          "duration": 0.001096489583346738
        },
        {
          "name": "C#5",
          "midi": 73,
          "time": 247.36805000000717,
          "velocity": 0.7874015748031497,
          "duration": 0.001096489583346738
        },
        {
          "name": "E5",
          "midi": 76,
          "time": 247.36805000000717,
          "velocity": 0.7874015748031497,
          "duration": 0.001096489583346738
        },
        {
          "name": "C#6",
          "midi": 85,
          "time": 247.36805000000717,
          "velocity": 0.7874015748031497,
          "duration": 0.001096489583346738
        },
        {
          "name": "E6",
          "midi": 88,
          "time": 247.36805000000717,
          "velocity": 0.7874015748031497,
          "duration": 0.001096489583346738
        },
        {
          "name": "C#7",
          "midi": 97,
          "time": 247.36805000000717,
          "velocity": 0.7874015748031497,
          "duration": 0.001096489583346738
        },
        {
          "name": "E7",
          "midi": 100,
          "time": 247.36805000000717,
          "velocity": 0.7874015748031497,
          "duration": 0.001096489583346738
        },
        {
          "name": "E5",
          "midi": 76,
          "time": 247.63120750000718,
          "velocity": 0.7874015748031497,
          "duration": 0.001096489583346738
        },
        {
          "name": "C#6",
          "midi": 85,
          "time": 247.63120750000718,
          "velocity": 0.7874015748031497,
          "duration": 0.001096489583346738
        },
        {
          "name": "E6",
          "midi": 88,
          "time": 247.63120750000718,
          "velocity": 0.7874015748031497,
          "duration": 0.001096489583346738
        },
        {
          "name": "C#7",
          "midi": 97,
          "time": 247.63120750000718,
          "velocity": 0.7874015748031497,
          "duration": 0.001096489583346738
        },
        {
          "name": "E7",
          "midi": 100,
          "time": 247.63120750000718,
          "velocity": 0.7874015748031497,
          "duration": 0.001096489583346738
        },
        {
          "name": "E5",
          "midi": 76,
          "time": 247.89436500000718,
          "velocity": 0.7874015748031497,
          "duration": 0.001096489583346738
        },
        {
          "name": "E6",
          "midi": 88,
          "time": 247.89436500000718,
          "velocity": 0.7874015748031497,
          "duration": 0.001096489583346738
        },
        {
          "name": "E7",
          "midi": 100,
          "time": 247.89436500000718,
          "velocity": 0.7874015748031497,
          "duration": 0.001096489583346738
        },
        {
          "name": "D4",
          "midi": 62,
          "time": 248.1575225000072,
          "velocity": 0.7874015748031497,
          "duration": 0.001096489583346738
        },
        {
          "name": "C#5",
          "midi": 73,
          "time": 248.1575225000072,
          "velocity": 0.7874015748031497,
          "duration": 0.001096489583346738
        },
        {
          "name": "D5",
          "midi": 74,
          "time": 248.1575225000072,
          "velocity": 0.7874015748031497,
          "duration": 0.001096489583346738
        },
        {
          "name": "C#6",
          "midi": 85,
          "time": 248.1575225000072,
          "velocity": 0.7874015748031497,
          "duration": 0.001096489583346738
        },
        {
          "name": "D6",
          "midi": 86,
          "time": 248.1575225000072,
          "velocity": 0.7874015748031497,
          "duration": 0.001096489583346738
        },
        {
          "name": "C#7",
          "midi": 97,
          "time": 248.1575225000072,
          "velocity": 0.7874015748031497,
          "duration": 0.001096489583346738
        },
        {
          "name": "D7",
          "midi": 98,
          "time": 248.1575225000072,
          "velocity": 0.7874015748031497,
          "duration": 0.001096489583346738
        },
        {
          "name": "E6",
          "midi": 88,
          "time": 248.6838375000072,
          "velocity": 0.7874015748031497,
          "duration": 0.001096489583346738
        },
        {
          "name": "E7",
          "midi": 100,
          "time": 248.6838375000072,
          "velocity": 0.7874015748031497,
          "duration": 0.001096489583346738
        },
        {
          "name": "E4",
          "midi": 64,
          "time": 248.9469950000072,
          "velocity": 0.7874015748031497,
          "duration": 0.001096489583346738
        },
        {
          "name": "C5",
          "midi": 72,
          "time": 248.9469950000072,
          "velocity": 0.7874015748031497,
          "duration": 0.001096489583346738
        },
        {
          "name": "E5",
          "midi": 76,
          "time": 248.9469950000072,
          "velocity": 0.7874015748031497,
          "duration": 0.001096489583346738
        },
        {
          "name": "C6",
          "midi": 84,
          "time": 248.9469950000072,
          "velocity": 0.7874015748031497,
          "duration": 0.001096489583346738
        },
        {
          "name": "E6",
          "midi": 88,
          "time": 248.9469950000072,
          "velocity": 0.7874015748031497,
          "duration": 0.001096489583346738
        },
        {
          "name": "C7",
          "midi": 96,
          "time": 248.9469950000072,
          "velocity": 0.7874015748031497,
          "duration": 0.001096489583346738
        },
        {
          "name": "E7",
          "midi": 100,
          "time": 248.9469950000072,
          "velocity": 0.7874015748031497,
          "duration": 0.001096489583346738
        },
        {
          "name": "E5",
          "midi": 76,
          "time": 249.21124898959056,
          "velocity": 0.7874015748031497,
          "duration": 0.001096489583346738
        },
        {
          "name": "C6",
          "midi": 84,
          "time": 249.21124898959056,
          "velocity": 0.7874015748031497,
          "duration": 0.001096489583346738
        },
        {
          "name": "E6",
          "midi": 88,
          "time": 249.21124898959056,
          "velocity": 0.7874015748031497,
          "duration": 0.001096489583346738
        },
        {
          "name": "C7",
          "midi": 96,
          "time": 249.21124898959056,
          "velocity": 0.7874015748031497,
          "duration": 0.001096489583346738
        },
        {
          "name": "E7",
          "midi": 100,
          "time": 249.21124898959056,
          "velocity": 0.7874015748031497,
          "duration": 0.001096489583346738
        },
        {
          "name": "C#4",
          "midi": 61,
          "time": 249.47331000000725,
          "velocity": 0.7874015748031497,
          "duration": 0.001096489583346738
        },
        {
          "name": "C#5",
          "midi": 73,
          "time": 249.47331000000725,
          "velocity": 0.7874015748031497,
          "duration": 0.001096489583346738
        },
        {
          "name": "E5",
          "midi": 76,
          "time": 249.47331000000725,
          "velocity": 0.7874015748031497,
          "duration": 0.001096489583346738
        },
        {
          "name": "C#6",
          "midi": 85,
          "time": 249.47331000000725,
          "velocity": 0.7874015748031497,
          "duration": 0.001096489583346738
        },
        {
          "name": "E6",
          "midi": 88,
          "time": 249.47331000000725,
          "velocity": 0.7874015748031497,
          "duration": 0.001096489583346738
        },
        {
          "name": "C#7",
          "midi": 97,
          "time": 249.47331000000725,
          "velocity": 0.7874015748031497,
          "duration": 0.001096489583346738
        },
        {
          "name": "E7",
          "midi": 100,
          "time": 249.47331000000725,
          "velocity": 0.7874015748031497,
          "duration": 0.001096489583346738
        },
        {
          "name": "E5",
          "midi": 76,
          "time": 249.73537101042393,
          "velocity": 0.7874015748031497,
          "duration": 0.001096489583346738
        },
        {
          "name": "E6",
          "midi": 88,
          "time": 249.73537101042393,
          "velocity": 0.7874015748031497,
          "duration": 0.001096489583346738
        },
        {
          "name": "E7",
          "midi": 100,
          "time": 249.73537101042393,
          "velocity": 0.7874015748031497,
          "duration": 0.001096489583346738
        },
        {
          "name": "E4",
          "midi": 64,
          "time": 249.99962500000728,
          "velocity": 0.7874015748031497,
          "duration": 0.001096489583346738
        },
        {
          "name": "E5",
          "midi": 76,
          "time": 249.99962500000728,
          "velocity": 0.7874015748031497,
          "duration": 0.001096489583346738
        },
        {
          "name": "E6",
          "midi": 88,
          "time": 249.99962500000728,
          "velocity": 0.7874015748031497,
          "duration": 0.001096489583346738
        },
        {
          "name": "E7",
          "midi": 100,
          "time": 249.99962500000728,
          "velocity": 0.7874015748031497,
          "duration": 0.001096489583346738
        },
        {
          "name": "E5",
          "midi": 76,
          "time": 250.2627825000073,
          "velocity": 0.7874015748031497,
          "duration": 0.001096489583346738
        },
        {
          "name": "C6",
          "midi": 84,
          "time": 250.2627825000073,
          "velocity": 0.7874015748031497,
          "duration": 0.001096489583346738
        },
        {
          "name": "E6",
          "midi": 88,
          "time": 250.2627825000073,
          "velocity": 0.7874015748031497,
          "duration": 0.001096489583346738
        },
        {
          "name": "C7",
          "midi": 96,
          "time": 250.2627825000073,
          "velocity": 0.7874015748031497,
          "duration": 0.001096489583346738
        },
        {
          "name": "E7",
          "midi": 100,
          "time": 250.2627825000073,
          "velocity": 0.7874015748031497,
          "duration": 0.001096489583346738
        },
        {
          "name": "C#4",
          "midi": 61,
          "time": 250.5259400000073,
          "velocity": 0.7874015748031497,
          "duration": 0.001096489583346738
        },
        {
          "name": "C#5",
          "midi": 73,
          "time": 250.5259400000073,
          "velocity": 0.7874015748031497,
          "duration": 0.001096489583346738
        },
        {
          "name": "E5",
          "midi": 76,
          "time": 250.5259400000073,
          "velocity": 0.7874015748031497,
          "duration": 0.001096489583346738
        },
        {
          "name": "C#6",
          "midi": 85,
          "time": 250.5259400000073,
          "velocity": 0.7874015748031497,
          "duration": 0.001096489583346738
        },
        {
          "name": "E6",
          "midi": 88,
          "time": 250.5259400000073,
          "velocity": 0.7874015748031497,
          "duration": 0.001096489583346738
        },
        {
          "name": "C#7",
          "midi": 97,
          "time": 250.5259400000073,
          "velocity": 0.7874015748031497,
          "duration": 0.001096489583346738
        },
        {
          "name": "E7",
          "midi": 100,
          "time": 250.5259400000073,
          "velocity": 0.7874015748031497,
          "duration": 0.001096489583346738
        },
        {
          "name": "E5",
          "midi": 76,
          "time": 250.7890975000073,
          "velocity": 0.7874015748031497,
          "duration": 0.001096489583346738
        },
        {
          "name": "E6",
          "midi": 88,
          "time": 250.7890975000073,
          "velocity": 0.7874015748031497,
          "duration": 0.001096489583346738
        },
        {
          "name": "E7",
          "midi": 100,
          "time": 250.7890975000073,
          "velocity": 0.7874015748031497,
          "duration": 0.001096489583346738
        },
        {
          "name": "E4",
          "midi": 64,
          "time": 251.0522550000073,
          "velocity": 0.7874015748031497,
          "duration": 0.001096489583346738
        },
        {
          "name": "E5",
          "midi": 76,
          "time": 251.0522550000073,
          "velocity": 0.7874015748031497,
          "duration": 0.001096489583346738
        },
        {
          "name": "E6",
          "midi": 88,
          "time": 251.0522550000073,
          "velocity": 0.7874015748031497,
          "duration": 0.001096489583346738
        },
        {
          "name": "E7",
          "midi": 100,
          "time": 251.0522550000073,
          "velocity": 0.7874015748031497,
          "duration": 0.001096489583346738
        },
        {
          "name": "C5",
          "midi": 72,
          "time": 251.3154125000073,
          "velocity": 0.7874015748031497,
          "duration": 0.001096489583346738
        },
        {
          "name": "E5",
          "midi": 76,
          "time": 251.3154125000073,
          "velocity": 0.7874015748031497,
          "duration": 0.001096489583346738
        },
        {
          "name": "C6",
          "midi": 84,
          "time": 251.3154125000073,
          "velocity": 0.7874015748031497,
          "duration": 0.001096489583346738
        },
        {
          "name": "E6",
          "midi": 88,
          "time": 251.3154125000073,
          "velocity": 0.7874015748031497,
          "duration": 0.001096489583346738
        },
        {
          "name": "C7",
          "midi": 96,
          "time": 251.3154125000073,
          "velocity": 0.7874015748031497,
          "duration": 0.001096489583346738
        },
        {
          "name": "E7",
          "midi": 100,
          "time": 251.3154125000073,
          "velocity": 0.7874015748031497,
          "duration": 0.001096489583346738
        },
        {
          "name": "C#4",
          "midi": 61,
          "time": 251.57857000000732,
          "velocity": 0.7874015748031497,
          "duration": 0.001096489583346738
        },
        {
          "name": "C#5",
          "midi": 73,
          "time": 251.57857000000732,
          "velocity": 0.7874015748031497,
          "duration": 0.001096489583346738
        },
        {
          "name": "E5",
          "midi": 76,
          "time": 251.57857000000732,
          "velocity": 0.7874015748031497,
          "duration": 0.001096489583346738
        },
        {
          "name": "C#6",
          "midi": 85,
          "time": 251.57857000000732,
          "velocity": 0.7874015748031497,
          "duration": 0.001096489583346738
        },
        {
          "name": "E6",
          "midi": 88,
          "time": 251.57857000000732,
          "velocity": 0.7874015748031497,
          "duration": 0.001096489583346738
        },
        {
          "name": "C#7",
          "midi": 97,
          "time": 251.57857000000732,
          "velocity": 0.7874015748031497,
          "duration": 0.001096489583346738
        },
        {
          "name": "E7",
          "midi": 100,
          "time": 251.57857000000732,
          "velocity": 0.7874015748031497,
          "duration": 0.001096489583346738
        },
        {
          "name": "D5",
          "midi": 74,
          "time": 251.84172750000732,
          "velocity": 0.7874015748031497,
          "duration": 0.001096489583346738
        },
        {
          "name": "C6",
          "midi": 84,
          "time": 251.84172750000732,
          "velocity": 0.7874015748031497,
          "duration": 0.001096489583346738
        },
        {
          "name": "D6",
          "midi": 86,
          "time": 251.84172750000732,
          "velocity": 0.7874015748031497,
          "duration": 0.001096489583346738
        },
        {
          "name": "C7",
          "midi": 96,
          "time": 251.84172750000732,
          "velocity": 0.7874015748031497,
          "duration": 0.001096489583346738
        },
        {
          "name": "D7",
          "midi": 98,
          "time": 251.84172750000732,
          "velocity": 0.7874015748031497,
          "duration": 0.001096489583346738
        },
        {
          "name": "D5",
          "midi": 74,
          "time": 252.10488500000733,
          "velocity": 0.7874015748031497,
          "duration": 0.001096489583346738
        },
        {
          "name": "C6",
          "midi": 84,
          "time": 252.10488500000733,
          "velocity": 0.7874015748031497,
          "duration": 0.001096489583346738
        },
        {
          "name": "D6",
          "midi": 86,
          "time": 252.10488500000733,
          "velocity": 0.7874015748031497,
          "duration": 0.001096489583346738
        },
        {
          "name": "C7",
          "midi": 96,
          "time": 252.10488500000733,
          "velocity": 0.7874015748031497,
          "duration": 0.001096489583346738
        },
        {
          "name": "D7",
          "midi": 98,
          "time": 252.10488500000733,
          "velocity": 0.7874015748031497,
          "duration": 0.001096489583346738
        },
        {
          "name": "D4",
          "midi": 62,
          "time": 252.36804250000733,
          "velocity": 0.7874015748031497,
          "duration": 0.001096489583346738
        },
        {
          "name": "C5",
          "midi": 72,
          "time": 252.36804250000733,
          "velocity": 0.7874015748031497,
          "duration": 0.001096489583346738
        },
        {
          "name": "D5",
          "midi": 74,
          "time": 252.36804250000733,
          "velocity": 0.7874015748031497,
          "duration": 0.001096489583346738
        },
        {
          "name": "C6",
          "midi": 84,
          "time": 252.36804250000733,
          "velocity": 0.7874015748031497,
          "duration": 0.001096489583346738
        },
        {
          "name": "D6",
          "midi": 86,
          "time": 252.36804250000733,
          "velocity": 0.7874015748031497,
          "duration": 0.001096489583346738
        },
        {
          "name": "C7",
          "midi": 96,
          "time": 252.36804250000733,
          "velocity": 0.7874015748031497,
          "duration": 0.001096489583346738
        },
        {
          "name": "D7",
          "midi": 98,
          "time": 252.36804250000733,
          "velocity": 0.7874015748031497,
          "duration": 0.001096489583346738
        },
        {
          "name": "E4",
          "midi": 64,
          "time": 253.15751500000735,
          "velocity": 0.7874015748031497,
          "duration": 0.001096489583346738
        },
        {
          "name": "C5",
          "midi": 72,
          "time": 253.15751500000735,
          "velocity": 0.7874015748031497,
          "duration": 0.001096489583346738
        },
        {
          "name": "E5",
          "midi": 76,
          "time": 253.15751500000735,
          "velocity": 0.7874015748031497,
          "duration": 0.001096489583346738
        },
        {
          "name": "C6",
          "midi": 84,
          "time": 253.15751500000735,
          "velocity": 0.7874015748031497,
          "duration": 0.001096489583346738
        },
        {
          "name": "E6",
          "midi": 88,
          "time": 253.15751500000735,
          "velocity": 0.7874015748031497,
          "duration": 0.001096489583346738
        },
        {
          "name": "C7",
          "midi": 96,
          "time": 253.15751500000735,
          "velocity": 0.7874015748031497,
          "duration": 0.001096489583346738
        },
        {
          "name": "E7",
          "midi": 100,
          "time": 253.15751500000735,
          "velocity": 0.7874015748031497,
          "duration": 0.001096489583346738
        },
        {
          "name": "E5",
          "midi": 76,
          "time": 253.41957601042404,
          "velocity": 0.7874015748031497,
          "duration": 0.001096489583346738
        },
        {
          "name": "C6",
          "midi": 84,
          "time": 253.41957601042404,
          "velocity": 0.7874015748031497,
          "duration": 0.001096489583346738
        },
        {
          "name": "E6",
          "midi": 88,
          "time": 253.41957601042404,
          "velocity": 0.7874015748031497,
          "duration": 0.001096489583346738
        },
        {
          "name": "C7",
          "midi": 96,
          "time": 253.41957601042404,
          "velocity": 0.7874015748031497,
          "duration": 0.001096489583346738
        },
        {
          "name": "E7",
          "midi": 100,
          "time": 253.41957601042404,
          "velocity": 0.7874015748031497,
          "duration": 0.001096489583346738
        },
        {
          "name": "C#4",
          "midi": 61,
          "time": 253.6838300000074,
          "velocity": 0.7874015748031497,
          "duration": 0.001096489583346738
        },
        {
          "name": "C#5",
          "midi": 73,
          "time": 253.6838300000074,
          "velocity": 0.7874015748031497,
          "duration": 0.001096489583346738
        },
        {
          "name": "E5",
          "midi": 76,
          "time": 253.6838300000074,
          "velocity": 0.7874015748031497,
          "duration": 0.001096489583346738
        },
        {
          "name": "C#6",
          "midi": 85,
          "time": 253.6838300000074,
          "velocity": 0.7874015748031497,
          "duration": 0.001096489583346738
        },
        {
          "name": "E6",
          "midi": 88,
          "time": 253.6838300000074,
          "velocity": 0.7874015748031497,
          "duration": 0.001096489583346738
        },
        {
          "name": "C#7",
          "midi": 97,
          "time": 253.6838300000074,
          "velocity": 0.7874015748031497,
          "duration": 0.001096489583346738
        },
        {
          "name": "E7",
          "midi": 100,
          "time": 253.6838300000074,
          "velocity": 0.7874015748031497,
          "duration": 0.001096489583346738
        },
        {
          "name": "E5",
          "midi": 76,
          "time": 253.9469875000074,
          "velocity": 0.7874015748031497,
          "duration": 0.001096489583346738
        },
        {
          "name": "E6",
          "midi": 88,
          "time": 253.9469875000074,
          "velocity": 0.7874015748031497,
          "duration": 0.001096489583346738
        },
        {
          "name": "E7",
          "midi": 100,
          "time": 253.9469875000074,
          "velocity": 0.7874015748031497,
          "duration": 0.001096489583346738
        },
        {
          "name": "E4",
          "midi": 64,
          "time": 254.2101450000074,
          "velocity": 0.7874015748031497,
          "duration": 0.001096489583346738
        },
        {
          "name": "E5",
          "midi": 76,
          "time": 254.2101450000074,
          "velocity": 0.7874015748031497,
          "duration": 0.001096489583346738
        },
        {
          "name": "E6",
          "midi": 88,
          "time": 254.2101450000074,
          "velocity": 0.7874015748031497,
          "duration": 0.001096489583346738
        },
        {
          "name": "E7",
          "midi": 100,
          "time": 254.2101450000074,
          "velocity": 0.7874015748031497,
          "duration": 0.001096489583346738
        },
        {
          "name": "E5",
          "midi": 76,
          "time": 254.47439898959075,
          "velocity": 0.7874015748031497,
          "duration": 0.001096489583346738
        },
        {
          "name": "C6",
          "midi": 84,
          "time": 254.47439898959075,
          "velocity": 0.7874015748031497,
          "duration": 0.001096489583346738
        },
        {
          "name": "E6",
          "midi": 88,
          "time": 254.47439898959075,
          "velocity": 0.7874015748031497,
          "duration": 0.001096489583346738
        },
        {
          "name": "C7",
          "midi": 96,
          "time": 254.47439898959075,
          "velocity": 0.7874015748031497,
          "duration": 0.001096489583346738
        },
        {
          "name": "E7",
          "midi": 100,
          "time": 254.47439898959075,
          "velocity": 0.7874015748031497,
          "duration": 0.001096489583346738
        },
        {
          "name": "C4",
          "midi": 60,
          "time": 254.73646000000744,
          "velocity": 0.7874015748031497,
          "duration": 0.001096489583346738
        },
        {
          "name": "C5",
          "midi": 72,
          "time": 254.73646000000744,
          "velocity": 0.7874015748031497,
          "duration": 0.001096489583346738
        },
        {
          "name": "E5",
          "midi": 76,
          "time": 254.73646000000744,
          "velocity": 0.7874015748031497,
          "duration": 0.001096489583346738
        },
        {
          "name": "C6",
          "midi": 84,
          "time": 254.73646000000744,
          "velocity": 0.7874015748031497,
          "duration": 0.001096489583346738
        },
        {
          "name": "E6",
          "midi": 88,
          "time": 254.73646000000744,
          "velocity": 0.7874015748031497,
          "duration": 0.001096489583346738
        },
        {
          "name": "C7",
          "midi": 96,
          "time": 254.73646000000744,
          "velocity": 0.7874015748031497,
          "duration": 0.001096489583346738
        },
        {
          "name": "E7",
          "midi": 100,
          "time": 254.73646000000744,
          "velocity": 0.7874015748031497,
          "duration": 0.001096489583346738
        },
        {
          "name": "E5",
          "midi": 76,
          "time": 255.0007139895908,
          "velocity": 0.7874015748031497,
          "duration": 0.001096489583346738
        },
        {
          "name": "E6",
          "midi": 88,
          "time": 255.0007139895908,
          "velocity": 0.7874015748031497,
          "duration": 0.001096489583346738
        },
        {
          "name": "E7",
          "midi": 100,
          "time": 255.0007139895908,
          "velocity": 0.7874015748031497,
          "duration": 0.001096489583346738
        },
        {
          "name": "E4",
          "midi": 64,
          "time": 255.26277500000748,
          "velocity": 0.7874015748031497,
          "duration": 0.001096489583346738
        },
        {
          "name": "E5",
          "midi": 76,
          "time": 255.26277500000748,
          "velocity": 0.7874015748031497,
          "duration": 0.001096489583346738
        },
        {
          "name": "E6",
          "midi": 88,
          "time": 255.26277500000748,
          "velocity": 0.7874015748031497,
          "duration": 0.001096489583346738
        },
        {
          "name": "E7",
          "midi": 100,
          "time": 255.26277500000748,
          "velocity": 0.7874015748031497,
          "duration": 0.001096489583346738
        },
        {
          "name": "E5",
          "midi": 76,
          "time": 255.52593250000749,
          "velocity": 0.7874015748031497,
          "duration": 0.001096489583346738
        },
        {
          "name": "C6",
          "midi": 84,
          "time": 255.52593250000749,
          "velocity": 0.7874015748031497,
          "duration": 0.001096489583346738
        },
        {
          "name": "E6",
          "midi": 88,
          "time": 255.52593250000749,
          "velocity": 0.7874015748031497,
          "duration": 0.001096489583346738
        },
        {
          "name": "C7",
          "midi": 96,
          "time": 255.52593250000749,
          "velocity": 0.7874015748031497,
          "duration": 0.001096489583346738
        },
        {
          "name": "E7",
          "midi": 100,
          "time": 255.52593250000749,
          "velocity": 0.7874015748031497,
          "duration": 0.001096489583346738
        },
        {
          "name": "C#4",
          "midi": 61,
          "time": 255.7890900000075,
          "velocity": 0.7874015748031497,
          "duration": 0.001096489583346738
        },
        {
          "name": "C#5",
          "midi": 73,
          "time": 255.7890900000075,
          "velocity": 0.7874015748031497,
          "duration": 0.001096489583346738
        },
        {
          "name": "E5",
          "midi": 76,
          "time": 255.7890900000075,
          "velocity": 0.7874015748031497,
          "duration": 0.001096489583346738
        },
        {
          "name": "C#6",
          "midi": 85,
          "time": 255.7890900000075,
          "velocity": 0.7874015748031497,
          "duration": 0.001096489583346738
        },
        {
          "name": "E6",
          "midi": 88,
          "time": 255.7890900000075,
          "velocity": 0.7874015748031497,
          "duration": 0.001096489583346738
        },
        {
          "name": "C#7",
          "midi": 97,
          "time": 255.7890900000075,
          "velocity": 0.7874015748031497,
          "duration": 0.001096489583346738
        },
        {
          "name": "E7",
          "midi": 100,
          "time": 255.7890900000075,
          "velocity": 0.7874015748031497,
          "duration": 0.001096489583346738
        },
        {
          "name": "D#7",
          "midi": 99,
          "time": 256.1180368750075,
          "velocity": 0.7874015748031497,
          "duration": 0.001096489583346738
        },
        {
          "name": "D#6",
          "midi": 87,
          "time": 256.1838262500075,
          "velocity": 0.7874015748031497,
          "duration": 0.001096489583346738
        },
        {
          "name": "D#7",
          "midi": 99,
          "time": 256.1838262500075,
          "velocity": 0.7874015748031497,
          "duration": 0.001096489583346738
        },
        {
          "name": "F7",
          "midi": 101,
          "time": 256.2496156250075,
          "velocity": 0.7874015748031497,
          "duration": 0.001096489583346738
        },
        {
          "name": "D#4",
          "midi": 63,
          "time": 256.3154050000075,
          "velocity": 0.7874015748031497,
          "duration": 0.001096489583346738
        },
        {
          "name": "D#5",
          "midi": 75,
          "time": 256.3154050000075,
          "velocity": 0.7874015748031497,
          "duration": 0.001096489583346738
        },
        {
          "name": "C6",
          "midi": 84,
          "time": 256.3154050000075,
          "velocity": 0.7874015748031497,
          "duration": 0.001096489583346738
        },
        {
          "name": "C7",
          "midi": 96,
          "time": 256.3154050000075,
          "velocity": 0.7874015748031497,
          "duration": 0.001096489583346738
        },
        {
          "name": "D4",
          "midi": 62,
          "time": 256.5796589895908,
          "velocity": 0.7874015748031497,
          "duration": 0.001096489583346738
        },
        {
          "name": "C5",
          "midi": 72,
          "time": 256.5796589895908,
          "velocity": 0.7874015748031497,
          "duration": 0.001096489583346738
        },
        {
          "name": "D5",
          "midi": 74,
          "time": 256.5796589895908,
          "velocity": 0.7874015748031497,
          "duration": 0.001096489583346738
        },
        {
          "name": "C6",
          "midi": 84,
          "time": 256.5796589895908,
          "velocity": 0.7874015748031497,
          "duration": 0.001096489583346738
        },
        {
          "name": "D6",
          "midi": 86,
          "time": 256.5796589895908,
          "velocity": 0.7874015748031497,
          "duration": 0.001096489583346738
        },
        {
          "name": "C7",
          "midi": 96,
          "time": 256.5796589895908,
          "velocity": 0.7874015748031497,
          "duration": 0.001096489583346738
        },
        {
          "name": "D7",
          "midi": 98,
          "time": 256.5796589895908,
          "velocity": 0.7874015748031497,
          "duration": 0.001096489583346738
        },
        {
          "name": "E4",
          "midi": 64,
          "time": 257.3680350000075,
          "velocity": 0.7874015748031497,
          "duration": 0.001096489583346738
        },
        {
          "name": "C5",
          "midi": 72,
          "time": 257.3680350000075,
          "velocity": 0.7874015748031497,
          "duration": 0.001096489583346738
        },
        {
          "name": "E5",
          "midi": 76,
          "time": 257.3680350000075,
          "velocity": 0.7874015748031497,
          "duration": 0.001096489583346738
        },
        {
          "name": "C6",
          "midi": 84,
          "time": 257.3680350000075,
          "velocity": 0.7874015748031497,
          "duration": 0.001096489583346738
        },
        {
          "name": "E6",
          "midi": 88,
          "time": 257.3680350000075,
          "velocity": 0.7874015748031497,
          "duration": 0.001096489583346738
        },
        {
          "name": "C7",
          "midi": 96,
          "time": 257.3680350000075,
          "velocity": 0.7874015748031497,
          "duration": 0.001096489583346738
        },
        {
          "name": "E7",
          "midi": 100,
          "time": 257.3680350000075,
          "velocity": 0.7874015748031497,
          "duration": 0.001096489583346738
        },
        {
          "name": "E5",
          "midi": 76,
          "time": 257.63228898959085,
          "velocity": 0.7874015748031497,
          "duration": 0.001096489583346738
        },
        {
          "name": "C6",
          "midi": 84,
          "time": 257.63228898959085,
          "velocity": 0.7874015748031497,
          "duration": 0.001096489583346738
        },
        {
          "name": "E6",
          "midi": 88,
          "time": 257.63228898959085,
          "velocity": 0.7874015748031497,
          "duration": 0.001096489583346738
        },
        {
          "name": "C7",
          "midi": 96,
          "time": 257.63228898959085,
          "velocity": 0.7874015748031497,
          "duration": 0.001096489583346738
        },
        {
          "name": "E7",
          "midi": 100,
          "time": 257.63228898959085,
          "velocity": 0.7874015748031497,
          "duration": 0.001096489583346738
        },
        {
          "name": "C#4",
          "midi": 61,
          "time": 257.89435000000753,
          "velocity": 0.7874015748031497,
          "duration": 0.001096489583346738
        },
        {
          "name": "C#5",
          "midi": 73,
          "time": 257.89435000000753,
          "velocity": 0.7874015748031497,
          "duration": 0.001096489583346738
        },
        {
          "name": "E5",
          "midi": 76,
          "time": 257.89435000000753,
          "velocity": 0.7874015748031497,
          "duration": 0.001096489583346738
        },
        {
          "name": "C#6",
          "midi": 85,
          "time": 257.89435000000753,
          "velocity": 0.7874015748031497,
          "duration": 0.001096489583346738
        },
        {
          "name": "E6",
          "midi": 88,
          "time": 257.89435000000753,
          "velocity": 0.7874015748031497,
          "duration": 0.001096489583346738
        },
        {
          "name": "C#7",
          "midi": 97,
          "time": 257.89435000000753,
          "velocity": 0.7874015748031497,
          "duration": 0.001096489583346738
        },
        {
          "name": "E7",
          "midi": 100,
          "time": 257.89435000000753,
          "velocity": 0.7874015748031497,
          "duration": 0.001096489583346738
        },
        {
          "name": "E5",
          "midi": 76,
          "time": 258.15860398959086,
          "velocity": 0.7874015748031497,
          "duration": 0.001096489583346738
        },
        {
          "name": "E6",
          "midi": 88,
          "time": 258.15860398959086,
          "velocity": 0.7874015748031497,
          "duration": 0.001096489583346738
        },
        {
          "name": "E7",
          "midi": 100,
          "time": 258.15860398959086,
          "velocity": 0.7874015748031497,
          "duration": 0.001096489583346738
        },
        {
          "name": "E4",
          "midi": 64,
          "time": 258.42066500000755,
          "velocity": 0.7874015748031497,
          "duration": 0.001096489583346738
        },
        {
          "name": "E5",
          "midi": 76,
          "time": 258.42066500000755,
          "velocity": 0.7874015748031497,
          "duration": 0.001096489583346738
        },
        {
          "name": "E6",
          "midi": 88,
          "time": 258.42066500000755,
          "velocity": 0.7874015748031497,
          "duration": 0.001096489583346738
        },
        {
          "name": "E7",
          "midi": 100,
          "time": 258.42066500000755,
          "velocity": 0.7874015748031497,
          "duration": 0.001096489583346738
        },
        {
          "name": "E5",
          "midi": 76,
          "time": 258.68491898959087,
          "velocity": 0.7874015748031497,
          "duration": 0.001096489583346738
        },
        {
          "name": "E6",
          "midi": 88,
          "time": 258.68491898959087,
          "velocity": 0.7874015748031497,
          "duration": 0.001096489583346738
        },
        {
          "name": "E7",
          "midi": 100,
          "time": 258.68491898959087,
          "velocity": 0.7874015748031497,
          "duration": 0.001096489583346738
        },
        {
          "name": "B6",
          "midi": 95,
          "time": 258.77154166667424,
          "velocity": 0.7874015748031497,
          "duration": 0.001096489583346738
        },
        {
          "name": "C7",
          "midi": 96,
          "time": 258.8592608333409,
          "velocity": 0.7874015748031497,
          "duration": 0.001096489583346738
        },
        {
          "name": "C#4",
          "midi": 61,
          "time": 258.94698000000756,
          "velocity": 0.7874015748031497,
          "duration": 0.001096489583346738
        },
        {
          "name": "C#5",
          "midi": 73,
          "time": 258.94698000000756,
          "velocity": 0.7874015748031497,
          "duration": 0.001096489583346738
        },
        {
          "name": "C#6",
          "midi": 85,
          "time": 258.94698000000756,
          "velocity": 0.7874015748031497,
          "duration": 0.001096489583346738
        },
        {
          "name": "C#7",
          "midi": 97,
          "time": 258.94698000000756,
          "velocity": 0.7874015748031497,
          "duration": 0.001096489583346738
        },
        {
          "name": "E6",
          "midi": 88,
          "time": 259.2101375000076,
          "velocity": 0.7874015748031497,
          "duration": 0.001096489583346738
        },
        {
          "name": "E7",
          "midi": 100,
          "time": 259.2101375000076,
          "velocity": 0.7874015748031497,
          "duration": 0.001096489583346738
        },
        {
          "name": "E4",
          "midi": 64,
          "time": 259.4732950000076,
          "velocity": 0.7874015748031497,
          "duration": 0.001096489583346738
        },
        {
          "name": "E5",
          "midi": 76,
          "time": 259.4732950000076,
          "velocity": 0.7874015748031497,
          "duration": 0.001096489583346738
        },
        {
          "name": "E6",
          "midi": 88,
          "time": 259.4732950000076,
          "velocity": 0.7874015748031497,
          "duration": 0.001096489583346738
        },
        {
          "name": "E7",
          "midi": 100,
          "time": 259.4732950000076,
          "velocity": 0.7874015748031497,
          "duration": 0.001096489583346738
        },
        {
          "name": "E6",
          "midi": 88,
          "time": 259.73754898959095,
          "velocity": 0.7874015748031497,
          "duration": 0.001096489583346738
        },
        {
          "name": "E7",
          "midi": 100,
          "time": 259.73754898959095,
          "velocity": 0.7874015748031497,
          "duration": 0.001096489583346738
        },
        {
          "name": "D4",
          "midi": 62,
          "time": 259.99961000000764,
          "velocity": 0.7874015748031497,
          "duration": 0.001096489583346738
        },
        {
          "name": "D5",
          "midi": 74,
          "time": 259.99961000000764,
          "velocity": 0.7874015748031497,
          "duration": 0.001096489583346738
        },
        {
          "name": "C6",
          "midi": 84,
          "time": 259.99961000000764,
          "velocity": 0.7874015748031497,
          "duration": 0.001096489583346738
        },
        {
          "name": "D6",
          "midi": 86,
          "time": 259.99961000000764,
          "velocity": 0.7874015748031497,
          "duration": 0.001096489583346738
        },
        {
          "name": "C7",
          "midi": 96,
          "time": 259.99961000000764,
          "velocity": 0.7874015748031497,
          "duration": 0.001096489583346738
        },
        {
          "name": "D7",
          "midi": 98,
          "time": 259.99961000000764,
          "velocity": 0.7874015748031497,
          "duration": 0.001096489583346738
        },
        {
          "name": "D5",
          "midi": 74,
          "time": 260.26276750000767,
          "velocity": 0.7874015748031497,
          "duration": 0.001096489583346738
        },
        {
          "name": "C6",
          "midi": 84,
          "time": 260.26276750000767,
          "velocity": 0.7874015748031497,
          "duration": 0.001096489583346738
        },
        {
          "name": "D6",
          "midi": 86,
          "time": 260.26276750000767,
          "velocity": 0.7874015748031497,
          "duration": 0.001096489583346738
        },
        {
          "name": "C7",
          "midi": 96,
          "time": 260.26276750000767,
          "velocity": 0.7874015748031497,
          "duration": 0.001096489583346738
        },
        {
          "name": "E7",
          "midi": 100,
          "time": 260.26276750000767,
          "velocity": 0.7874015748031497,
          "duration": 0.001096489583346738
        },
        {
          "name": "D5",
          "midi": 74,
          "time": 260.5259250000077,
          "velocity": 0.7874015748031497,
          "duration": 0.001096489583346738
        },
        {
          "name": "C6",
          "midi": 84,
          "time": 260.5259250000077,
          "velocity": 0.7874015748031497,
          "duration": 0.001096489583346738
        },
        {
          "name": "D6",
          "midi": 86,
          "time": 260.5259250000077,
          "velocity": 0.7874015748031497,
          "duration": 0.001096489583346738
        },
        {
          "name": "C7",
          "midi": 96,
          "time": 260.5259250000077,
          "velocity": 0.7874015748031497,
          "duration": 0.001096489583346738
        },
        {
          "name": "D7",
          "midi": 98,
          "time": 260.5259250000077,
          "velocity": 0.7874015748031497,
          "duration": 0.001096489583346738
        },
        {
          "name": "D4",
          "midi": 62,
          "time": 260.7912754791744,
          "velocity": 0.7874015748031497,
          "duration": 0.001096489583346738
        },
        {
          "name": "C5",
          "midi": 72,
          "time": 260.7912754791744,
          "velocity": 0.7874015748031497,
          "duration": 0.001096489583346738
        },
        {
          "name": "D5",
          "midi": 74,
          "time": 260.7912754791744,
          "velocity": 0.7874015748031497,
          "duration": 0.001096489583346738
        },
        {
          "name": "C6",
          "midi": 84,
          "time": 260.7912754791744,
          "velocity": 0.7874015748031497,
          "duration": 0.001096489583346738
        },
        {
          "name": "D6",
          "midi": 86,
          "time": 260.7912754791744,
          "velocity": 0.7874015748031497,
          "duration": 0.001096489583346738
        },
        {
          "name": "C7",
          "midi": 96,
          "time": 260.7912754791744,
          "velocity": 0.7874015748031497,
          "duration": 0.001096489583346738
        },
        {
          "name": "D7",
          "midi": 98,
          "time": 260.7912754791744,
          "velocity": 0.7874015748031497,
          "duration": 0.001096489583346738
        },
        {
          "name": "E7",
          "midi": 100,
          "time": 260.7912754791744,
          "velocity": 0.7874015748031497,
          "duration": 0.001096489583346738
        },
        {
          "name": "G9",
          "midi": 127,
          "time": 260.7912754791744,
          "velocity": 0.7874015748031497,
          "duration": 3.483547406250011
        },
        {
          "name": "D4",
          "midi": 62,
          "time": 264.73644500000773,
          "velocity": 0.7874015748031497,
          "duration": 0.001096489583346738
        },
        {
          "name": "C5",
          "midi": 72,
          "time": 264.73644500000773,
          "velocity": 0.7874015748031497,
          "duration": 0.001096489583346738
        },
        {
          "name": "D5",
          "midi": 74,
          "time": 264.73644500000773,
          "velocity": 0.7874015748031497,
          "duration": 0.001096489583346738
        },
        {
          "name": "C6",
          "midi": 84,
          "time": 264.73644500000773,
          "velocity": 0.7874015748031497,
          "duration": 0.001096489583346738
        },
        {
          "name": "D6",
          "midi": 86,
          "time": 264.73644500000773,
          "velocity": 0.7874015748031497,
          "duration": 0.001096489583346738
        },
        {
          "name": "C7",
          "midi": 96,
          "time": 264.73644500000773,
          "velocity": 0.7874015748031497,
          "duration": 0.001096489583346738
        },
        {
          "name": "D7",
          "midi": 98,
          "time": 264.73644500000773,
          "velocity": 0.7874015748031497,
          "duration": 0.001096489583346738
        },
        {
          "name": "E4",
          "midi": 64,
          "time": 265.26276000000775,
          "velocity": 0.7874015748031497,
          "duration": 0.001096489583346738
        },
        {
          "name": "C5",
          "midi": 72,
          "time": 265.26276000000775,
          "velocity": 0.7874015748031497,
          "duration": 0.001096489583346738
        },
        {
          "name": "E5",
          "midi": 76,
          "time": 265.26276000000775,
          "velocity": 0.7874015748031497,
          "duration": 0.001096489583346738
        },
        {
          "name": "C6",
          "midi": 84,
          "time": 265.26276000000775,
          "velocity": 0.7874015748031497,
          "duration": 0.001096489583346738
        },
        {
          "name": "E6",
          "midi": 88,
          "time": 265.26276000000775,
          "velocity": 0.7874015748031497,
          "duration": 0.001096489583346738
        },
        {
          "name": "C7",
          "midi": 96,
          "time": 265.26276000000775,
          "velocity": 0.7874015748031497,
          "duration": 0.001096489583346738
        },
        {
          "name": "E7",
          "midi": 100,
          "time": 265.26276000000775,
          "velocity": 0.7874015748031497,
          "duration": 0.001096489583346738
        },
        {
          "name": "C#4",
          "midi": 61,
          "time": 265.78907500000776,
          "velocity": 0.7874015748031497,
          "duration": 0.001096489583346738
        },
        {
          "name": "C#5",
          "midi": 73,
          "time": 265.78907500000776,
          "velocity": 0.7874015748031497,
          "duration": 0.001096489583346738
        },
        {
          "name": "D5",
          "midi": 74,
          "time": 265.78907500000776,
          "velocity": 0.7874015748031497,
          "duration": 0.001096489583346738
        },
        {
          "name": "C#6",
          "midi": 85,
          "time": 265.78907500000776,
          "velocity": 0.7874015748031497,
          "duration": 0.001096489583346738
        },
        {
          "name": "D6",
          "midi": 86,
          "time": 265.78907500000776,
          "velocity": 0.7874015748031497,
          "duration": 0.001096489583346738
        },
        {
          "name": "C#7",
          "midi": 97,
          "time": 265.78907500000776,
          "velocity": 0.7874015748031497,
          "duration": 0.001096489583346738
        },
        {
          "name": "D7",
          "midi": 98,
          "time": 265.78907500000776,
          "velocity": 0.7874015748031497,
          "duration": 0.001096489583346738
        },
        {
          "name": "D4",
          "midi": 62,
          "time": 266.31539000000777,
          "velocity": 0.7874015748031497,
          "duration": 0.001096489583346738
        },
        {
          "name": "D5",
          "midi": 74,
          "time": 266.31539000000777,
          "velocity": 0.7874015748031497,
          "duration": 0.001096489583346738
        },
        {
          "name": "D6",
          "midi": 86,
          "time": 266.31539000000777,
          "velocity": 0.7874015748031497,
          "duration": 0.001096489583346738
        },
        {
          "name": "D7",
          "midi": 98,
          "time": 266.31539000000777,
          "velocity": 0.7874015748031497,
          "duration": 0.001096489583346738
        },
        {
          "name": "C5",
          "midi": 72,
          "time": 266.5785475000078,
          "velocity": 0.7874015748031497,
          "duration": 0.001096489583346738
        },
        {
          "name": "C6",
          "midi": 84,
          "time": 266.5785475000078,
          "velocity": 0.7874015748031497,
          "duration": 0.001096489583346738
        },
        {
          "name": "C7",
          "midi": 96,
          "time": 266.5785475000078,
          "velocity": 0.7874015748031497,
          "duration": 0.001096489583346738
        },
        {
          "name": "C#4",
          "midi": 61,
          "time": 266.84170500000783,
          "velocity": 0.7874015748031497,
          "duration": 0.001096489583346738
        },
        {
          "name": "C#5",
          "midi": 73,
          "time": 266.84170500000783,
          "velocity": 0.7874015748031497,
          "duration": 0.001096489583346738
        },
        {
          "name": "D5",
          "midi": 74,
          "time": 266.84170500000783,
          "velocity": 0.7874015748031497,
          "duration": 0.001096489583346738
        },
        {
          "name": "C#6",
          "midi": 85,
          "time": 266.84170500000783,
          "velocity": 0.7874015748031497,
          "duration": 0.001096489583346738
        },
        {
          "name": "D6",
          "midi": 86,
          "time": 266.84170500000783,
          "velocity": 0.7874015748031497,
          "duration": 0.001096489583346738
        },
        {
          "name": "C#7",
          "midi": 97,
          "time": 266.84170500000783,
          "velocity": 0.7874015748031497,
          "duration": 0.001096489583346738
        },
        {
          "name": "D7",
          "midi": 98,
          "time": 266.84170500000783,
          "velocity": 0.7874015748031497,
          "duration": 0.001096489583346738
        },
        {
          "name": "C4",
          "midi": 60,
          "time": 267.36802000000785,
          "velocity": 0.7874015748031497,
          "duration": 0.001096489583346738
        },
        {
          "name": "C5",
          "midi": 72,
          "time": 267.36802000000785,
          "velocity": 0.7874015748031497,
          "duration": 0.001096489583346738
        },
        {
          "name": "D5",
          "midi": 74,
          "time": 267.36802000000785,
          "velocity": 0.7874015748031497,
          "duration": 0.001096489583346738
        },
        {
          "name": "C6",
          "midi": 84,
          "time": 267.36802000000785,
          "velocity": 0.7874015748031497,
          "duration": 0.001096489583346738
        },
        {
          "name": "D6",
          "midi": 86,
          "time": 267.36802000000785,
          "velocity": 0.7874015748031497,
          "duration": 0.001096489583346738
        },
        {
          "name": "C7",
          "midi": 96,
          "time": 267.36802000000785,
          "velocity": 0.7874015748031497,
          "duration": 0.001096489583346738
        },
        {
          "name": "D7",
          "midi": 98,
          "time": 267.36802000000785,
          "velocity": 0.7874015748031497,
          "duration": 0.001096489583346738
        },
        {
          "name": "C7",
          "midi": 96,
          "time": 267.6311775000079,
          "velocity": 0.7874015748031497,
          "duration": 0.001096489583346738
        },
        {
          "name": "C6",
          "midi": 84,
          "time": 267.7627562500079,
          "velocity": 0.7874015748031497,
          "duration": 0.001096489583346738
        },
        {
          "name": "C7",
          "midi": 96,
          "time": 267.7627562500079,
          "velocity": 0.7874015748031497,
          "duration": 0.001096489583346738
        },
        {
          "name": "C#4",
          "midi": 61,
          "time": 267.8943350000079,
          "velocity": 0.7874015748031497,
          "duration": 0.001096489583346738
        },
        {
          "name": "C#5",
          "midi": 73,
          "time": 267.8943350000079,
          "velocity": 0.7874015748031497,
          "duration": 0.001096489583346738
        },
        {
          "name": "D5",
          "midi": 74,
          "time": 267.8943350000079,
          "velocity": 0.7874015748031497,
          "duration": 0.001096489583346738
        },
        {
          "name": "C#6",
          "midi": 85,
          "time": 267.8943350000079,
          "velocity": 0.7874015748031497,
          "duration": 0.001096489583346738
        },
        {
          "name": "D6",
          "midi": 86,
          "time": 267.8943350000079,
          "velocity": 0.7874015748031497,
          "duration": 0.001096489583346738
        },
        {
          "name": "C#7",
          "midi": 97,
          "time": 267.8943350000079,
          "velocity": 0.7874015748031497,
          "duration": 0.001096489583346738
        },
        {
          "name": "D7",
          "midi": 98,
          "time": 267.8943350000079,
          "velocity": 0.7874015748031497,
          "duration": 0.001096489583346738
        },
        {
          "name": "D4",
          "midi": 62,
          "time": 268.4206500000079,
          "velocity": 0.7874015748031497,
          "duration": 0.001096489583346738
        },
        {
          "name": "D5",
          "midi": 74,
          "time": 268.4206500000079,
          "velocity": 0.7874015748031497,
          "duration": 0.001096489583346738
        },
        {
          "name": "D6",
          "midi": 86,
          "time": 268.4206500000079,
          "velocity": 0.7874015748031497,
          "duration": 0.001096489583346738
        },
        {
          "name": "D7",
          "midi": 98,
          "time": 268.4206500000079,
          "velocity": 0.7874015748031497,
          "duration": 0.001096489583346738
        },
        {
          "name": "C5",
          "midi": 72,
          "time": 268.68380750000796,
          "velocity": 0.7874015748031497,
          "duration": 0.001096489583346738
        },
        {
          "name": "C6",
          "midi": 84,
          "time": 268.68380750000796,
          "velocity": 0.7874015748031497,
          "duration": 0.001096489583346738
        },
        {
          "name": "C7",
          "midi": 96,
          "time": 268.68380750000796,
          "velocity": 0.7874015748031497,
          "duration": 0.001096489583346738
        },
        {
          "name": "C#4",
          "midi": 61,
          "time": 268.946965000008,
          "velocity": 0.7874015748031497,
          "duration": 0.001096489583346738
        },
        {
          "name": "C#5",
          "midi": 73,
          "time": 268.946965000008,
          "velocity": 0.7874015748031497,
          "duration": 0.001096489583346738
        },
        {
          "name": "D5",
          "midi": 74,
          "time": 268.946965000008,
          "velocity": 0.7874015748031497,
          "duration": 0.001096489583346738
        },
        {
          "name": "C#6",
          "midi": 85,
          "time": 268.946965000008,
          "velocity": 0.7874015748031497,
          "duration": 0.001096489583346738
        },
        {
          "name": "D6",
          "midi": 86,
          "time": 268.946965000008,
          "velocity": 0.7874015748031497,
          "duration": 0.001096489583346738
        },
        {
          "name": "C#7",
          "midi": 97,
          "time": 268.946965000008,
          "velocity": 0.7874015748031497,
          "duration": 0.001096489583346738
        },
        {
          "name": "D7",
          "midi": 98,
          "time": 268.946965000008,
          "velocity": 0.7874015748031497,
          "duration": 0.001096489583346738
        },
        {
          "name": "D4",
          "midi": 62,
          "time": 269.473280000008,
          "velocity": 0.7874015748031497,
          "duration": 0.001096489583346738
        },
        {
          "name": "C5",
          "midi": 72,
          "time": 269.473280000008,
          "velocity": 0.7874015748031497,
          "duration": 0.001096489583346738
        },
        {
          "name": "D5",
          "midi": 74,
          "time": 269.473280000008,
          "velocity": 0.7874015748031497,
          "duration": 0.001096489583346738
        },
        {
          "name": "C6",
          "midi": 84,
          "time": 269.473280000008,
          "velocity": 0.7874015748031497,
          "duration": 0.001096489583346738
        },
        {
          "name": "D6",
          "midi": 86,
          "time": 269.473280000008,
          "velocity": 0.7874015748031497,
          "duration": 0.001096489583346738
        },
        {
          "name": "C7",
          "midi": 96,
          "time": 269.473280000008,
          "velocity": 0.7874015748031497,
          "duration": 0.001096489583346738
        },
        {
          "name": "D7",
          "midi": 98,
          "time": 269.473280000008,
          "velocity": 0.7874015748031497,
          "duration": 0.001096489583346738
        },
        {
          "name": "C7",
          "midi": 96,
          "time": 269.7375339895913,
          "velocity": 0.7874015748031497,
          "duration": 0.001096489583346738
        },
        {
          "name": "C6",
          "midi": 84,
          "time": 269.868016250008,
          "velocity": 0.7874015748031497,
          "duration": 0.001096489583346738
        },
        {
          "name": "C7",
          "midi": 96,
          "time": 269.868016250008,
          "velocity": 0.7874015748031497,
          "duration": 0.001096489583346738
        },
        {
          "name": "C#4",
          "midi": 61,
          "time": 269.999595000008,
          "velocity": 0.7874015748031497,
          "duration": 0.001096489583346738
        },
        {
          "name": "C#5",
          "midi": 73,
          "time": 269.999595000008,
          "velocity": 0.7874015748031497,
          "duration": 0.001096489583346738
        },
        {
          "name": "D5",
          "midi": 74,
          "time": 269.999595000008,
          "velocity": 0.7874015748031497,
          "duration": 0.001096489583346738
        },
        {
          "name": "C#6",
          "midi": 85,
          "time": 269.999595000008,
          "velocity": 0.7874015748031497,
          "duration": 0.001096489583346738
        },
        {
          "name": "D6",
          "midi": 86,
          "time": 269.999595000008,
          "velocity": 0.7874015748031497,
          "duration": 0.001096489583346738
        },
        {
          "name": "C#7",
          "midi": 97,
          "time": 269.999595000008,
          "velocity": 0.7874015748031497,
          "duration": 0.001096489583346738
        },
        {
          "name": "D7",
          "midi": 98,
          "time": 269.999595000008,
          "velocity": 0.7874015748031497,
          "duration": 0.001096489583346738
        },
        {
          "name": "D4",
          "midi": 62,
          "time": 270.525910000008,
          "velocity": 0.7874015748031497,
          "duration": 0.001096489583346738
        },
        {
          "name": "D5",
          "midi": 74,
          "time": 270.525910000008,
          "velocity": 0.7874015748031497,
          "duration": 0.001096489583346738
        },
        {
          "name": "D6",
          "midi": 86,
          "time": 270.525910000008,
          "velocity": 0.7874015748031497,
          "duration": 0.001096489583346738
        },
        {
          "name": "D7",
          "midi": 98,
          "time": 270.525910000008,
          "velocity": 0.7874015748031497,
          "duration": 0.001096489583346738
        },
        {
          "name": "C5",
          "midi": 72,
          "time": 270.78906750000806,
          "velocity": 0.7874015748031497,
          "duration": 0.001096489583346738
        },
        {
          "name": "C6",
          "midi": 84,
          "time": 270.78906750000806,
          "velocity": 0.7874015748031497,
          "duration": 0.001096489583346738
        },
        {
          "name": "C7",
          "midi": 96,
          "time": 270.78906750000806,
          "velocity": 0.7874015748031497,
          "duration": 0.001096489583346738
        },
        {
          "name": "C#4",
          "midi": 61,
          "time": 271.0522250000081,
          "velocity": 0.7874015748031497,
          "duration": 0.001096489583346738
        },
        {
          "name": "C#5",
          "midi": 73,
          "time": 271.0522250000081,
          "velocity": 0.7874015748031497,
          "duration": 0.001096489583346738
        },
        {
          "name": "D5",
          "midi": 74,
          "time": 271.0522250000081,
          "velocity": 0.7874015748031497,
          "duration": 0.001096489583346738
        },
        {
          "name": "C#6",
          "midi": 85,
          "time": 271.0522250000081,
          "velocity": 0.7874015748031497,
          "duration": 0.001096489583346738
        },
        {
          "name": "D6",
          "midi": 86,
          "time": 271.0522250000081,
          "velocity": 0.7874015748031497,
          "duration": 0.001096489583346738
        },
        {
          "name": "C#7",
          "midi": 97,
          "time": 271.0522250000081,
          "velocity": 0.7874015748031497,
          "duration": 0.001096489583346738
        },
        {
          "name": "D7",
          "midi": 98,
          "time": 271.0522250000081,
          "velocity": 0.7874015748031497,
          "duration": 0.001096489583346738
        },
        {
          "name": "C4",
          "midi": 60,
          "time": 271.5785400000081,
          "velocity": 0.7874015748031497,
          "duration": 0.001096489583346738
        },
        {
          "name": "C5",
          "midi": 72,
          "time": 271.5785400000081,
          "velocity": 0.7874015748031497,
          "duration": 0.001096489583346738
        },
        {
          "name": "D5",
          "midi": 74,
          "time": 271.5785400000081,
          "velocity": 0.7874015748031497,
          "duration": 0.001096489583346738
        },
        {
          "name": "C6",
          "midi": 84,
          "time": 271.5785400000081,
          "velocity": 0.7874015748031497,
          "duration": 0.001096489583346738
        },
        {
          "name": "D6",
          "midi": 86,
          "time": 271.5785400000081,
          "velocity": 0.7874015748031497,
          "duration": 0.001096489583346738
        },
        {
          "name": "C7",
          "midi": 96,
          "time": 271.5785400000081,
          "velocity": 0.7874015748031497,
          "duration": 0.001096489583346738
        },
        {
          "name": "D7",
          "midi": 98,
          "time": 271.5785400000081,
          "velocity": 0.7874015748031497,
          "duration": 0.001096489583346738
        },
        {
          "name": "C7",
          "midi": 96,
          "time": 271.84169750000814,
          "velocity": 0.7874015748031497,
          "duration": 0.001096489583346738
        },
        {
          "name": "C6",
          "midi": 84,
          "time": 271.97327625000815,
          "velocity": 0.7874015748031497,
          "duration": 0.001096489583346738
        },
        {
          "name": "C7",
          "midi": 96,
          "time": 271.97327625000815,
          "velocity": 0.7874015748031497,
          "duration": 0.001096489583346738
        },
        {
          "name": "C#4",
          "midi": 61,
          "time": 272.1048550000082,
          "velocity": 0.7874015748031497,
          "duration": 0.001096489583346738
        },
        {
          "name": "C#5",
          "midi": 73,
          "time": 272.1048550000082,
          "velocity": 0.7874015748031497,
          "duration": 0.001096489583346738
        },
        {
          "name": "D5",
          "midi": 74,
          "time": 272.1048550000082,
          "velocity": 0.7874015748031497,
          "duration": 0.001096489583346738
        },
        {
          "name": "C#6",
          "midi": 85,
          "time": 272.1048550000082,
          "velocity": 0.7874015748031497,
          "duration": 0.001096489583346738
        },
        {
          "name": "D6",
          "midi": 86,
          "time": 272.1048550000082,
          "velocity": 0.7874015748031497,
          "duration": 0.001096489583346738
        },
        {
          "name": "C#7",
          "midi": 97,
          "time": 272.1048550000082,
          "velocity": 0.7874015748031497,
          "duration": 0.001096489583346738
        },
        {
          "name": "D7",
          "midi": 98,
          "time": 272.1048550000082,
          "velocity": 0.7874015748031497,
          "duration": 0.001096489583346738
        },
        {
          "name": "C7",
          "midi": 96,
          "time": 272.3680125000082,
          "velocity": 0.7874015748031497,
          "duration": 0.001096489583346738
        },
        {
          "name": "D4",
          "midi": 62,
          "time": 272.63117000000824,
          "velocity": 0.7874015748031497,
          "duration": 0.001096489583346738
        },
        {
          "name": "D5",
          "midi": 74,
          "time": 272.63117000000824,
          "velocity": 0.7874015748031497,
          "duration": 0.001096489583346738
        },
        {
          "name": "D6",
          "midi": 86,
          "time": 272.63117000000824,
          "velocity": 0.7874015748031497,
          "duration": 0.001096489583346738
        },
        {
          "name": "D7",
          "midi": 98,
          "time": 272.63117000000824,
          "velocity": 0.7874015748031497,
          "duration": 0.001096489583346738
        },
        {
          "name": "C5",
          "midi": 72,
          "time": 272.89542398959156,
          "velocity": 0.7874015748031497,
          "duration": 0.001096489583346738
        },
        {
          "name": "C6",
          "midi": 84,
          "time": 272.89542398959156,
          "velocity": 0.7874015748031497,
          "duration": 0.001096489583346738
        },
        {
          "name": "C7",
          "midi": 96,
          "time": 272.89542398959156,
          "velocity": 0.7874015748031497,
          "duration": 0.001096489583346738
        },
        {
          "name": "C#4",
          "midi": 61,
          "time": 273.15748500000825,
          "velocity": 0.7874015748031497,
          "duration": 0.001096489583346738
        },
        {
          "name": "C#5",
          "midi": 73,
          "time": 273.15748500000825,
          "velocity": 0.7874015748031497,
          "duration": 0.001096489583346738
        },
        {
          "name": "D5",
          "midi": 74,
          "time": 273.15748500000825,
          "velocity": 0.7874015748031497,
          "duration": 0.001096489583346738
        },
        {
          "name": "C#6",
          "midi": 85,
          "time": 273.15748500000825,
          "velocity": 0.7874015748031497,
          "duration": 0.001096489583346738
        },
        {
          "name": "D6",
          "midi": 86,
          "time": 273.15748500000825,
          "velocity": 0.7874015748031497,
          "duration": 0.001096489583346738
        },
        {
          "name": "C#7",
          "midi": 97,
          "time": 273.15748500000825,
          "velocity": 0.7874015748031497,
          "duration": 0.001096489583346738
        },
        {
          "name": "D7",
          "midi": 98,
          "time": 273.15748500000825,
          "velocity": 0.7874015748031497,
          "duration": 0.001096489583346738
        },
        {
          "name": "C#5",
          "midi": 73,
          "time": 273.50836166667494,
          "velocity": 0.7874015748031497,
          "duration": 0.001096489583346738
        },
        {
          "name": "C#6",
          "midi": 85,
          "time": 273.50836166667494,
          "velocity": 0.7874015748031497,
          "duration": 0.001096489583346738
        },
        {
          "name": "C#7",
          "midi": 97,
          "time": 273.50836166667494,
          "velocity": 0.7874015748031497,
          "duration": 0.001096489583346738
        },
        {
          "name": "C#7",
          "midi": 97,
          "time": 273.5960808333416,
          "velocity": 0.7874015748031497,
          "duration": 0.001096489583346738
        },
        {
          "name": "G#8",
          "midi": 116,
          "time": 273.68380000000826,
          "velocity": 0.7874015748031497,
          "duration": 2.6962678854167734
        },
        {
          "name": "E4",
          "midi": 64,
          "time": 273.68380000000826,
          "velocity": 0.7874015748031497,
          "duration": 0.001096489583346738
        },
        {
          "name": "C5",
          "midi": 72,
          "time": 273.68380000000826,
          "velocity": 0.7874015748031497,
          "duration": 0.001096489583346738
        },
        {
          "name": "E5",
          "midi": 76,
          "time": 273.68380000000826,
          "velocity": 0.7874015748031497,
          "duration": 0.001096489583346738
        },
        {
          "name": "C6",
          "midi": 84,
          "time": 273.68380000000826,
          "velocity": 0.7874015748031497,
          "duration": 0.001096489583346738
        },
        {
          "name": "E6",
          "midi": 88,
          "time": 273.68380000000826,
          "velocity": 0.7874015748031497,
          "duration": 0.001096489583346738
        },
        {
          "name": "C7",
          "midi": 96,
          "time": 273.68380000000826,
          "velocity": 0.7874015748031497,
          "duration": 0.001096489583346738
        },
        {
          "name": "E7",
          "midi": 100,
          "time": 273.68380000000826,
          "velocity": 0.7874015748031497,
          "duration": 0.001096489583346738
        },
        {
          "name": "C#4",
          "midi": 61,
          "time": 274.2101150000083,
          "velocity": 0.7874015748031497,
          "duration": 0.001096489583346738
        },
        {
          "name": "C#5",
          "midi": 73,
          "time": 274.2101150000083,
          "velocity": 0.7874015748031497,
          "duration": 0.001096489583346738
        },
        {
          "name": "D5",
          "midi": 74,
          "time": 274.2101150000083,
          "velocity": 0.7874015748031497,
          "duration": 0.001096489583346738
        },
        {
          "name": "C#6",
          "midi": 85,
          "time": 274.2101150000083,
          "velocity": 0.7874015748031497,
          "duration": 0.001096489583346738
        },
        {
          "name": "D6",
          "midi": 86,
          "time": 274.2101150000083,
          "velocity": 0.7874015748031497,
          "duration": 0.001096489583346738
        },
        {
          "name": "C#7",
          "midi": 97,
          "time": 274.2101150000083,
          "velocity": 0.7874015748031497,
          "duration": 0.001096489583346738
        },
        {
          "name": "D7",
          "midi": 98,
          "time": 274.2101150000083,
          "velocity": 0.7874015748031497,
          "duration": 0.001096489583346738
        },
        {
          "name": "D4",
          "midi": 62,
          "time": 274.7364300000083,
          "velocity": 0.7874015748031497,
          "duration": 0.001096489583346738
        },
        {
          "name": "D5",
          "midi": 74,
          "time": 274.7364300000083,
          "velocity": 0.7874015748031497,
          "duration": 0.001096489583346738
        },
        {
          "name": "D6",
          "midi": 86,
          "time": 274.7364300000083,
          "velocity": 0.7874015748031497,
          "duration": 0.001096489583346738
        },
        {
          "name": "D7",
          "midi": 98,
          "time": 274.7364300000083,
          "velocity": 0.7874015748031497,
          "duration": 0.001096489583346738
        },
        {
          "name": "C5",
          "midi": 72,
          "time": 275.0006839895916,
          "velocity": 0.7874015748031497,
          "duration": 0.001096489583346738
        },
        {
          "name": "C6",
          "midi": 84,
          "time": 275.0006839895916,
          "velocity": 0.7874015748031497,
          "duration": 0.001096489583346738
        },
        {
          "name": "C7",
          "midi": 96,
          "time": 275.0006839895916,
          "velocity": 0.7874015748031497,
          "duration": 0.001096489583346738
        },
        {
          "name": "C#4",
          "midi": 61,
          "time": 275.2627450000083,
          "velocity": 0.7874015748031497,
          "duration": 0.001096489583346738
        },
        {
          "name": "C#5",
          "midi": 73,
          "time": 275.2627450000083,
          "velocity": 0.7874015748031497,
          "duration": 0.001096489583346738
        },
        {
          "name": "D5",
          "midi": 74,
          "time": 275.2627450000083,
          "velocity": 0.7874015748031497,
          "duration": 0.001096489583346738
        },
        {
          "name": "C#6",
          "midi": 85,
          "time": 275.2627450000083,
          "velocity": 0.7874015748031497,
          "duration": 0.001096489583346738
        },
        {
          "name": "D6",
          "midi": 86,
          "time": 275.2627450000083,
          "velocity": 0.7874015748031497,
          "duration": 0.001096489583346738
        },
        {
          "name": "C#7",
          "midi": 97,
          "time": 275.2627450000083,
          "velocity": 0.7874015748031497,
          "duration": 0.001096489583346738
        },
        {
          "name": "D7",
          "midi": 98,
          "time": 275.2627450000083,
          "velocity": 0.7874015748031497,
          "duration": 0.001096489583346738
        },
        {
          "name": "C4",
          "midi": 60,
          "time": 275.7890600000083,
          "velocity": 0.7874015748031497,
          "duration": 0.001096489583346738
        },
        {
          "name": "C5",
          "midi": 72,
          "time": 275.7890600000083,
          "velocity": 0.7874015748031497,
          "duration": 0.001096489583346738
        },
        {
          "name": "D5",
          "midi": 74,
          "time": 275.7890600000083,
          "velocity": 0.7874015748031497,
          "duration": 0.001096489583346738
        },
        {
          "name": "C6",
          "midi": 84,
          "time": 275.7890600000083,
          "velocity": 0.7874015748031497,
          "duration": 0.001096489583346738
        },
        {
          "name": "D6",
          "midi": 86,
          "time": 275.7890600000083,
          "velocity": 0.7874015748031497,
          "duration": 0.001096489583346738
        },
        {
          "name": "C7",
          "midi": 96,
          "time": 275.7890600000083,
          "velocity": 0.7874015748031497,
          "duration": 0.001096489583346738
        },
        {
          "name": "D7",
          "midi": 98,
          "time": 275.7890600000083,
          "velocity": 0.7874015748031497,
          "duration": 0.001096489583346738
        },
        {
          "name": "C7",
          "midi": 96,
          "time": 276.051121010425,
          "velocity": 0.7874015748031497,
          "duration": 0.001096489583346738
        },
        {
          "name": "C6",
          "midi": 84,
          "time": 276.182699760425,
          "velocity": 0.7874015748031497,
          "duration": 0.001096489583346738
        },
        {
          "name": "C7",
          "midi": 96,
          "time": 276.182699760425,
          "velocity": 0.7874015748031497,
          "duration": 0.001096489583346738
        },
        {
          "name": "C#4",
          "midi": 61,
          "time": 276.3153750000084,
          "velocity": 0.7874015748031497,
          "duration": 0.001096489583346738
        },
        {
          "name": "C#5",
          "midi": 73,
          "time": 276.3153750000084,
          "velocity": 0.7874015748031497,
          "duration": 0.001096489583346738
        },
        {
          "name": "D5",
          "midi": 74,
          "time": 276.3153750000084,
          "velocity": 0.7874015748031497,
          "duration": 0.001096489583346738
        },
        {
          "name": "C#6",
          "midi": 85,
          "time": 276.3153750000084,
          "velocity": 0.7874015748031497,
          "duration": 0.001096489583346738
        },
        {
          "name": "D6",
          "midi": 86,
          "time": 276.3153750000084,
          "velocity": 0.7874015748031497,
          "duration": 0.001096489583346738
        },
        {
          "name": "C#7",
          "midi": 97,
          "time": 276.3153750000084,
          "velocity": 0.7874015748031497,
          "duration": 0.001096489583346738
        },
        {
          "name": "D7",
          "midi": 98,
          "time": 276.3153750000084,
          "velocity": 0.7874015748031497,
          "duration": 0.001096489583346738
        },
        {
          "name": "D4",
          "midi": 62,
          "time": 276.8416900000084,
          "velocity": 0.7874015748031497,
          "duration": 0.001096489583346738
        },
        {
          "name": "D5",
          "midi": 74,
          "time": 276.8416900000084,
          "velocity": 0.7874015748031497,
          "duration": 0.001096489583346738
        },
        {
          "name": "D6",
          "midi": 86,
          "time": 276.8416900000084,
          "velocity": 0.7874015748031497,
          "duration": 0.001096489583346738
        },
        {
          "name": "D7",
          "midi": 98,
          "time": 276.8416900000084,
          "velocity": 0.7874015748031497,
          "duration": 0.001096489583346738
        },
        {
          "name": "C5",
          "midi": 72,
          "time": 277.10375101042507,
          "velocity": 0.7874015748031497,
          "duration": 0.001096489583346738
        },
        {
          "name": "C6",
          "midi": 84,
          "time": 277.10375101042507,
          "velocity": 0.7874015748031497,
          "duration": 0.001096489583346738
        },
        {
          "name": "C7",
          "midi": 96,
          "time": 277.10375101042507,
          "velocity": 0.7874015748031497,
          "duration": 0.001096489583346738
        },
        {
          "name": "C#4",
          "midi": 61,
          "time": 277.3680050000084,
          "velocity": 0.7874015748031497,
          "duration": 0.001096489583346738
        },
        {
          "name": "C#5",
          "midi": 73,
          "time": 277.3680050000084,
          "velocity": 0.7874015748031497,
          "duration": 0.001096489583346738
        },
        {
          "name": "D5",
          "midi": 74,
          "time": 277.3680050000084,
          "velocity": 0.7874015748031497,
          "duration": 0.001096489583346738
        },
        {
          "name": "C#6",
          "midi": 85,
          "time": 277.3680050000084,
          "velocity": 0.7874015748031497,
          "duration": 0.001096489583346738
        },
        {
          "name": "D6",
          "midi": 86,
          "time": 277.3680050000084,
          "velocity": 0.7874015748031497,
          "duration": 0.001096489583346738
        },
        {
          "name": "C#7",
          "midi": 97,
          "time": 277.3680050000084,
          "velocity": 0.7874015748031497,
          "duration": 0.001096489583346738
        },
        {
          "name": "D7",
          "midi": 98,
          "time": 277.3680050000084,
          "velocity": 0.7874015748031497,
          "duration": 0.001096489583346738
        },
        {
          "name": "D4",
          "midi": 62,
          "time": 277.8943200000084,
          "velocity": 0.7874015748031497,
          "duration": 0.001096489583346738
        },
        {
          "name": "C5",
          "midi": 72,
          "time": 277.8943200000084,
          "velocity": 0.7874015748031497,
          "duration": 0.001096489583346738
        },
        {
          "name": "D5",
          "midi": 74,
          "time": 277.8943200000084,
          "velocity": 0.7874015748031497,
          "duration": 0.001096489583346738
        },
        {
          "name": "C6",
          "midi": 84,
          "time": 277.8943200000084,
          "velocity": 0.7874015748031497,
          "duration": 0.001096489583346738
        },
        {
          "name": "D6",
          "midi": 86,
          "time": 277.8943200000084,
          "velocity": 0.7874015748031497,
          "duration": 0.001096489583346738
        },
        {
          "name": "C7",
          "midi": 96,
          "time": 277.8943200000084,
          "velocity": 0.7874015748031497,
          "duration": 0.001096489583346738
        },
        {
          "name": "D7",
          "midi": 98,
          "time": 277.8943200000084,
          "velocity": 0.7874015748031497,
          "duration": 0.001096489583346738
        },
        {
          "name": "C7",
          "midi": 96,
          "time": 278.15857398959173,
          "velocity": 0.7874015748031497,
          "duration": 0.001096489583346738
        },
        {
          "name": "C6",
          "midi": 84,
          "time": 278.2890562500084,
          "velocity": 0.7874015748031497,
          "duration": 0.001096489583346738
        },
        {
          "name": "C7",
          "midi": 96,
          "time": 278.2890562500084,
          "velocity": 0.7874015748031497,
          "duration": 0.001096489583346738
        },
        {
          "name": "C#4",
          "midi": 61,
          "time": 278.4206350000084,
          "velocity": 0.7874015748031497,
          "duration": 0.001096489583346738
        },
        {
          "name": "C#5",
          "midi": 73,
          "time": 278.4206350000084,
          "velocity": 0.7874015748031497,
          "duration": 0.001096489583346738
        },
        {
          "name": "D5",
          "midi": 74,
          "time": 278.4206350000084,
          "velocity": 0.7874015748031497,
          "duration": 0.001096489583346738
        },
        {
          "name": "C#6",
          "midi": 85,
          "time": 278.4206350000084,
          "velocity": 0.7874015748031497,
          "duration": 0.001096489583346738
        },
        {
          "name": "D6",
          "midi": 86,
          "time": 278.4206350000084,
          "velocity": 0.7874015748031497,
          "duration": 0.001096489583346738
        },
        {
          "name": "C#7",
          "midi": 97,
          "time": 278.4206350000084,
          "velocity": 0.7874015748031497,
          "duration": 0.001096489583346738
        },
        {
          "name": "D7",
          "midi": 98,
          "time": 278.4206350000084,
          "velocity": 0.7874015748031497,
          "duration": 0.001096489583346738
        },
        {
          "name": "D4",
          "midi": 62,
          "time": 278.9469500000084,
          "velocity": 0.7874015748031497,
          "duration": 0.001096489583346738
        },
        {
          "name": "D5",
          "midi": 74,
          "time": 278.9469500000084,
          "velocity": 0.7874015748031497,
          "duration": 0.001096489583346738
        },
        {
          "name": "D6",
          "midi": 86,
          "time": 278.9469500000084,
          "velocity": 0.7874015748031497,
          "duration": 0.001096489583346738
        },
        {
          "name": "D7",
          "midi": 98,
          "time": 278.9469500000084,
          "velocity": 0.7874015748031497,
          "duration": 0.001096489583346738
        },
        {
          "name": "C6",
          "midi": 84,
          "time": 279.21010750000846,
          "velocity": 0.7874015748031497,
          "duration": 0.001096489583346738
        },
        {
          "name": "C7",
          "midi": 96,
          "time": 279.21010750000846,
          "velocity": 0.7874015748031497,
          "duration": 0.001096489583346738
        },
        {
          "name": "C#4",
          "midi": 61,
          "time": 279.4732650000085,
          "velocity": 0.7874015748031497,
          "duration": 0.001096489583346738
        },
        {
          "name": "C#5",
          "midi": 73,
          "time": 279.4732650000085,
          "velocity": 0.7874015748031497,
          "duration": 0.001096489583346738
        },
        {
          "name": "D5",
          "midi": 74,
          "time": 279.4732650000085,
          "velocity": 0.7874015748031497,
          "duration": 0.001096489583346738
        },
        {
          "name": "C#6",
          "midi": 85,
          "time": 279.4732650000085,
          "velocity": 0.7874015748031497,
          "duration": 0.001096489583346738
        },
        {
          "name": "D6",
          "midi": 86,
          "time": 279.4732650000085,
          "velocity": 0.7874015748031497,
          "duration": 0.001096489583346738
        },
        {
          "name": "C#7",
          "midi": 97,
          "time": 279.4732650000085,
          "velocity": 0.7874015748031497,
          "duration": 0.001096489583346738
        },
        {
          "name": "D7",
          "midi": 98,
          "time": 279.4732650000085,
          "velocity": 0.7874015748031497,
          "duration": 0.001096489583346738
        },
        {
          "name": "C6",
          "midi": 84,
          "time": 279.7375189895918,
          "velocity": 0.7874015748031497,
          "duration": 0.001096489583346738
        },
        {
          "name": "C7",
          "midi": 96,
          "time": 279.7375189895918,
          "velocity": 0.7874015748031497,
          "duration": 0.001096489583346738
        },
        {
          "name": "C#4",
          "midi": 61,
          "time": 279.9995800000085,
          "velocity": 0.7874015748031497,
          "duration": 0.001096489583346738
        },
        {
          "name": "C#5",
          "midi": 73,
          "time": 279.9995800000085,
          "velocity": 0.7874015748031497,
          "duration": 0.001096489583346738
        },
        {
          "name": "C#6",
          "midi": 85,
          "time": 279.9995800000085,
          "velocity": 0.7874015748031497,
          "duration": 0.001096489583346738
        },
        {
          "name": "C#7",
          "midi": 97,
          "time": 279.9995800000085,
          "velocity": 0.7874015748031497,
          "duration": 0.001096489583346738
        },
        {
          "name": "C#7",
          "midi": 97,
          "time": 280.1311587500085,
          "velocity": 0.7874015748031497,
          "duration": 0.001096489583346738
        },
        {
          "name": "C#5",
          "midi": 73,
          "time": 280.2638339895919,
          "velocity": 0.7874015748031497,
          "duration": 0.001096489583346738
        },
        {
          "name": "C#6",
          "midi": 85,
          "time": 280.2638339895919,
          "velocity": 0.7874015748031497,
          "duration": 0.001096489583346738
        },
        {
          "name": "C#7",
          "midi": 97,
          "time": 280.2638339895919,
          "velocity": 0.7874015748031497,
          "duration": 0.001096489583346738
        },
        {
          "name": "C#7",
          "midi": 97,
          "time": 280.39431625000856,
          "velocity": 0.7874015748031497,
          "duration": 0.001096489583346738
        },
        {
          "name": "C#4",
          "midi": 61,
          "time": 280.5258950000086,
          "velocity": 0.7874015748031497,
          "duration": 0.001096489583346738
        },
        {
          "name": "C#7",
          "midi": 97,
          "time": 280.5258950000086,
          "velocity": 0.7874015748031497,
          "duration": 0.001096489583346738
        },
        {
          "name": "C#5",
          "midi": 73,
          "time": 280.65637726042524,
          "velocity": 0.7874015748031497,
          "duration": 0.001096489583346738
        },
        {
          "name": "C#6",
          "midi": 85,
          "time": 280.65637726042524,
          "velocity": 0.7874015748031497,
          "duration": 0.001096489583346738
        },
        {
          "name": "C#7",
          "midi": 97,
          "time": 280.65637726042524,
          "velocity": 0.7874015748031497,
          "duration": 0.001096489583346738
        },
        {
          "name": "C#5",
          "midi": 73,
          "time": 280.7890525000086,
          "velocity": 0.7874015748031497,
          "duration": 0.001096489583346738
        },
        {
          "name": "C#6",
          "midi": 85,
          "time": 280.7890525000086,
          "velocity": 0.7874015748031497,
          "duration": 0.001096489583346738
        },
        {
          "name": "C#7",
          "midi": 97,
          "time": 280.7890525000086,
          "velocity": 0.7874015748031497,
          "duration": 0.001096489583346738
        },
        {
          "name": "D#4",
          "midi": 63,
          "time": 281.05221000000864,
          "velocity": 0.7874015748031497,
          "duration": 0.001096489583346738
        },
        {
          "name": "D#5",
          "midi": 75,
          "time": 281.05221000000864,
          "velocity": 0.7874015748031497,
          "duration": 0.001096489583346738
        },
        {
          "name": "D#6",
          "midi": 87,
          "time": 281.05221000000864,
          "velocity": 0.7874015748031497,
          "duration": 0.001096489583346738
        },
        {
          "name": "D#7",
          "midi": 99,
          "time": 281.05221000000864,
          "velocity": 0.7874015748031497,
          "duration": 0.001096489583346738
        },
        {
          "name": "D#7",
          "midi": 99,
          "time": 281.18378875000866,
          "velocity": 0.7874015748031497,
          "duration": 0.001096489583346738
        },
        {
          "name": "D#7",
          "midi": 99,
          "time": 281.31427101042533,
          "velocity": 0.7874015748031497,
          "duration": 0.001096489583346738
        },
        {
          "name": "D#5",
          "midi": 75,
          "time": 281.4469462500087,
          "velocity": 0.7874015748031497,
          "duration": 0.001096489583346738
        },
        {
          "name": "D#6",
          "midi": 87,
          "time": 281.4469462500087,
          "velocity": 0.7874015748031497,
          "duration": 0.001096489583346738
        },
        {
          "name": "D#7",
          "midi": 99,
          "time": 281.4469462500087,
          "velocity": 0.7874015748031497,
          "duration": 0.001096489583346738
        },
        {
          "name": "D#4",
          "midi": 63,
          "time": 281.5785250000087,
          "velocity": 0.7874015748031497,
          "duration": 0.001096489583346738
        },
        {
          "name": "D#7",
          "midi": 99,
          "time": 281.5785250000087,
          "velocity": 0.7874015748031497,
          "duration": 0.001096489583346738
        },
        {
          "name": "D#5",
          "midi": 75,
          "time": 281.7090072604254,
          "velocity": 0.7874015748031497,
          "duration": 0.001096489583346738
        },
        {
          "name": "D#6",
          "midi": 87,
          "time": 281.7090072604254,
          "velocity": 0.7874015748031497,
          "duration": 0.001096489583346738
        },
        {
          "name": "D#7",
          "midi": 99,
          "time": 281.7090072604254,
          "velocity": 0.7874015748031497,
          "duration": 0.001096489583346738
        },
        {
          "name": "D#5",
          "midi": 75,
          "time": 281.84168250000874,
          "velocity": 0.7874015748031497,
          "duration": 0.001096489583346738
        },
        {
          "name": "D#6",
          "midi": 87,
          "time": 281.84168250000874,
          "velocity": 0.7874015748031497,
          "duration": 0.001096489583346738
        },
        {
          "name": "D#7",
          "midi": 99,
          "time": 281.84168250000874,
          "velocity": 0.7874015748031497,
          "duration": 0.001096489583346738
        },
        {
          "name": "F4",
          "midi": 65,
          "time": 282.1048400000088,
          "velocity": 0.7874015748031497,
          "duration": 0.001096489583346738
        },
        {
          "name": "F5",
          "midi": 77,
          "time": 282.1048400000088,
          "velocity": 0.7874015748031497,
          "duration": 0.001096489583346738
        },
        {
          "name": "F6",
          "midi": 89,
          "time": 282.1048400000088,
          "velocity": 0.7874015748031497,
          "duration": 0.001096489583346738
        },
        {
          "name": "F7",
          "midi": 101,
          "time": 282.1048400000088,
          "velocity": 0.7874015748031497,
          "duration": 0.001096489583346738
        },
        {
          "name": "F7",
          "midi": 101,
          "time": 282.3679975000088,
          "velocity": 0.7874015748031497,
          "duration": 0.001096489583346738
        },
        {
          "name": "C#5",
          "midi": 73,
          "time": 282.49957625000883,
          "velocity": 0.7874015748031497,
          "duration": 0.001096489583346738
        },
        {
          "name": "C#6",
          "midi": 85,
          "time": 282.49957625000883,
          "velocity": 0.7874015748031497,
          "duration": 0.001096489583346738
        },
        {
          "name": "C#7",
          "midi": 97,
          "time": 282.49957625000883,
          "velocity": 0.7874015748031497,
          "duration": 0.001096489583346738
        },
        {
          "name": "F4",
          "midi": 65,
          "time": 282.63115500000885,
          "velocity": 0.7874015748031497,
          "duration": 0.001096489583346738
        },
        {
          "name": "F5",
          "midi": 77,
          "time": 282.63115500000885,
          "velocity": 0.7874015748031497,
          "duration": 0.001096489583346738
        },
        {
          "name": "F6",
          "midi": 89,
          "time": 282.63115500000885,
          "velocity": 0.7874015748031497,
          "duration": 0.001096489583346738
        },
        {
          "name": "F7",
          "midi": 101,
          "time": 282.63115500000885,
          "velocity": 0.7874015748031497,
          "duration": 0.001096489583346738
        },
        {
          "name": "F6",
          "midi": 89,
          "time": 282.89540898959217,
          "velocity": 0.7874015748031497,
          "duration": 0.001096489583346738
        },
        {
          "name": "F7",
          "midi": 101,
          "time": 282.89540898959217,
          "velocity": 0.7874015748031497,
          "duration": 0.001096489583346738
        },
        {
          "name": "E4",
          "midi": 64,
          "time": 283.0269877395922,
          "velocity": 0.7874015748031497,
          "duration": 0.001096489583346738
        },
        {
          "name": "C#5",
          "midi": 73,
          "time": 283.0269877395922,
          "velocity": 0.7874015748031497,
          "duration": 0.001096489583346738
        },
        {
          "name": "E5",
          "midi": 76,
          "time": 283.0269877395922,
          "velocity": 0.7874015748031497,
          "duration": 0.001096489583346738
        },
        {
          "name": "C#6",
          "midi": 85,
          "time": 283.0269877395922,
          "velocity": 0.7874015748031497,
          "duration": 0.001096489583346738
        },
        {
          "name": "E6",
          "midi": 88,
          "time": 283.0269877395922,
          "velocity": 0.7874015748031497,
          "duration": 0.001096489583346738
        },
        {
          "name": "C#7",
          "midi": 97,
          "time": 283.0269877395922,
          "velocity": 0.7874015748031497,
          "duration": 0.001096489583346738
        },
        {
          "name": "E7",
          "midi": 100,
          "time": 283.0269877395922,
          "velocity": 0.7874015748031497,
          "duration": 0.001096489583346738
        },
        {
          "name": "C#4",
          "midi": 61,
          "time": 283.68378500000887,
          "velocity": 0.7874015748031497,
          "duration": 0.001096489583346738
        },
        {
          "name": "C#5",
          "midi": 73,
          "time": 283.68378500000887,
          "velocity": 0.7874015748031497,
          "duration": 0.001096489583346738
        },
        {
          "name": "D5",
          "midi": 74,
          "time": 283.68378500000887,
          "velocity": 0.7874015748031497,
          "duration": 0.001096489583346738
        },
        {
          "name": "C#6",
          "midi": 85,
          "time": 283.68378500000887,
          "velocity": 0.7874015748031497,
          "duration": 0.001096489583346738
        },
        {
          "name": "D6",
          "midi": 86,
          "time": 283.68378500000887,
          "velocity": 0.7874015748031497,
          "duration": 0.001096489583346738
        },
        {
          "name": "C#7",
          "midi": 97,
          "time": 283.68378500000887,
          "velocity": 0.7874015748031497,
          "duration": 0.001096489583346738
        },
        {
          "name": "D7",
          "midi": 98,
          "time": 283.68378500000887,
          "velocity": 0.7874015748031497,
          "duration": 0.001096489583346738
        },
        {
          "name": "C4",
          "midi": 60,
          "time": 284.2101000000089,
          "velocity": 0.7874015748031497,
          "duration": 0.001096489583346738
        },
        {
          "name": "C5",
          "midi": 72,
          "time": 284.2101000000089,
          "velocity": 0.7874015748031497,
          "duration": 0.001096489583346738
        },
        {
          "name": "D5",
          "midi": 74,
          "time": 284.2101000000089,
          "velocity": 0.7874015748031497,
          "duration": 0.001096489583346738
        },
        {
          "name": "C6",
          "midi": 84,
          "time": 284.2101000000089,
          "velocity": 0.7874015748031497,
          "duration": 0.001096489583346738
        },
        {
          "name": "D6",
          "midi": 86,
          "time": 284.2101000000089,
          "velocity": 0.7874015748031497,
          "duration": 0.001096489583346738
        },
        {
          "name": "C7",
          "midi": 96,
          "time": 284.2101000000089,
          "velocity": 0.7874015748031497,
          "duration": 0.001096489583346738
        },
        {
          "name": "D7",
          "midi": 98,
          "time": 284.2101000000089,
          "velocity": 0.7874015748031497,
          "duration": 0.001096489583346738
        },
        {
          "name": "C6",
          "midi": 84,
          "time": 284.4743539895922,
          "velocity": 0.7874015748031497,
          "duration": 0.001096489583346738
        },
        {
          "name": "C7",
          "midi": 96,
          "time": 284.4743539895922,
          "velocity": 0.7874015748031497,
          "duration": 0.001096489583346738
        },
        {
          "name": "C#4",
          "midi": 61,
          "time": 284.7364150000089,
          "velocity": 0.7874015748031497,
          "duration": 0.001096489583346738
        },
        {
          "name": "C#5",
          "midi": 73,
          "time": 284.7364150000089,
          "velocity": 0.7874015748031497,
          "duration": 0.001096489583346738
        },
        {
          "name": "D5",
          "midi": 74,
          "time": 284.7364150000089,
          "velocity": 0.7874015748031497,
          "duration": 0.001096489583346738
        },
        {
          "name": "C#6",
          "midi": 85,
          "time": 284.7364150000089,
          "velocity": 0.7874015748031497,
          "duration": 0.001096489583346738
        },
        {
          "name": "D6",
          "midi": 86,
          "time": 284.7364150000089,
          "velocity": 0.7874015748031497,
          "duration": 0.001096489583346738
        },
        {
          "name": "C#7",
          "midi": 97,
          "time": 284.7364150000089,
          "velocity": 0.7874015748031497,
          "duration": 0.001096489583346738
        },
        {
          "name": "D7",
          "midi": 98,
          "time": 284.7364150000089,
          "velocity": 0.7874015748031497,
          "duration": 0.001096489583346738
        },
        {
          "name": "D4",
          "midi": 62,
          "time": 285.2627300000089,
          "velocity": 0.7874015748031497,
          "duration": 0.001096489583346738
        },
        {
          "name": "D5",
          "midi": 74,
          "time": 285.2627300000089,
          "velocity": 0.7874015748031497,
          "duration": 0.001096489583346738
        },
        {
          "name": "D6",
          "midi": 86,
          "time": 285.2627300000089,
          "velocity": 0.7874015748031497,
          "duration": 0.001096489583346738
        },
        {
          "name": "D7",
          "midi": 98,
          "time": 285.2627300000089,
          "velocity": 0.7874015748031497,
          "duration": 0.001096489583346738
        },
        {
          "name": "C5",
          "midi": 72,
          "time": 285.5247910104256,
          "velocity": 0.7874015748031497,
          "duration": 0.001096489583346738
        },
        {
          "name": "C6",
          "midi": 84,
          "time": 285.5247910104256,
          "velocity": 0.7874015748031497,
          "duration": 0.001096489583346738
        },
        {
          "name": "C7",
          "midi": 96,
          "time": 285.5247910104256,
          "velocity": 0.7874015748031497,
          "duration": 0.001096489583346738
        },
        {
          "name": "C#4",
          "midi": 61,
          "time": 285.7890450000089,
          "velocity": 0.7874015748031497,
          "duration": 0.001096489583346738
        },
        {
          "name": "C#5",
          "midi": 73,
          "time": 285.7890450000089,
          "velocity": 0.7874015748031497,
          "duration": 0.001096489583346738
        },
        {
          "name": "D5",
          "midi": 74,
          "time": 285.7890450000089,
          "velocity": 0.7874015748031497,
          "duration": 0.001096489583346738
        },
        {
          "name": "C#6",
          "midi": 85,
          "time": 285.7890450000089,
          "velocity": 0.7874015748031497,
          "duration": 0.001096489583346738
        },
        {
          "name": "D6",
          "midi": 86,
          "time": 285.7890450000089,
          "velocity": 0.7874015748031497,
          "duration": 0.001096489583346738
        },
        {
          "name": "C#7",
          "midi": 97,
          "time": 285.7890450000089,
          "velocity": 0.7874015748031497,
          "duration": 0.001096489583346738
        },
        {
          "name": "D7",
          "midi": 98,
          "time": 285.7890450000089,
          "velocity": 0.7874015748031497,
          "duration": 0.001096489583346738
        },
        {
          "name": "D4",
          "midi": 62,
          "time": 286.3153600000089,
          "velocity": 0.7874015748031497,
          "duration": 0.001096489583346738
        },
        {
          "name": "C5",
          "midi": 72,
          "time": 286.3153600000089,
          "velocity": 0.7874015748031497,
          "duration": 0.001096489583346738
        },
        {
          "name": "D5",
          "midi": 74,
          "time": 286.3153600000089,
          "velocity": 0.7874015748031497,
          "duration": 0.001096489583346738
        },
        {
          "name": "C6",
          "midi": 84,
          "time": 286.3153600000089,
          "velocity": 0.7874015748031497,
          "duration": 0.001096489583346738
        },
        {
          "name": "D6",
          "midi": 86,
          "time": 286.3153600000089,
          "velocity": 0.7874015748031497,
          "duration": 0.001096489583346738
        },
        {
          "name": "C7",
          "midi": 96,
          "time": 286.3153600000089,
          "velocity": 0.7874015748031497,
          "duration": 0.001096489583346738
        },
        {
          "name": "D7",
          "midi": 98,
          "time": 286.3153600000089,
          "velocity": 0.7874015748031497,
          "duration": 0.001096489583346738
        },
        {
          "name": "C7",
          "midi": 96,
          "time": 286.57961398959225,
          "velocity": 0.7874015748031497,
          "duration": 0.001096489583346738
        },
        {
          "name": "C6",
          "midi": 84,
          "time": 286.7100962500089,
          "velocity": 0.7874015748031497,
          "duration": 0.001096489583346738
        },
        {
          "name": "C7",
          "midi": 96,
          "time": 286.7100962500089,
          "velocity": 0.7874015748031497,
          "duration": 0.001096489583346738
        },
        {
          "name": "C#4",
          "midi": 61,
          "time": 286.84167500000893,
          "velocity": 0.7874015748031497,
          "duration": 0.001096489583346738
        },
        {
          "name": "C#5",
          "midi": 73,
          "time": 286.84167500000893,
          "velocity": 0.7874015748031497,
          "duration": 0.001096489583346738
        },
        {
          "name": "D5",
          "midi": 74,
          "time": 286.84167500000893,
          "velocity": 0.7874015748031497,
          "duration": 0.001096489583346738
        },
        {
          "name": "C#6",
          "midi": 85,
          "time": 286.84167500000893,
          "velocity": 0.7874015748031497,
          "duration": 0.001096489583346738
        },
        {
          "name": "D6",
          "midi": 86,
          "time": 286.84167500000893,
          "velocity": 0.7874015748031497,
          "duration": 0.001096489583346738
        },
        {
          "name": "C#7",
          "midi": 97,
          "time": 286.84167500000893,
          "velocity": 0.7874015748031497,
          "duration": 0.001096489583346738
        },
        {
          "name": "D7",
          "midi": 98,
          "time": 286.84167500000893,
          "velocity": 0.7874015748031497,
          "duration": 0.001096489583346738
        },
        {
          "name": "D4",
          "midi": 62,
          "time": 287.36799000000894,
          "velocity": 0.7874015748031497,
          "duration": 0.001096489583346738
        },
        {
          "name": "D5",
          "midi": 74,
          "time": 287.36799000000894,
          "velocity": 0.7874015748031497,
          "duration": 0.001096489583346738
        },
        {
          "name": "D6",
          "midi": 86,
          "time": 287.36799000000894,
          "velocity": 0.7874015748031497,
          "duration": 0.001096489583346738
        },
        {
          "name": "D7",
          "midi": 98,
          "time": 287.36799000000894,
          "velocity": 0.7874015748031497,
          "duration": 0.001096489583346738
        },
        {
          "name": "C5",
          "midi": 72,
          "time": 287.63005101042563,
          "velocity": 0.7874015748031497,
          "duration": 0.001096489583346738
        },
        {
          "name": "C6",
          "midi": 84,
          "time": 287.63005101042563,
          "velocity": 0.7874015748031497,
          "duration": 0.001096489583346738
        },
        {
          "name": "C7",
          "midi": 96,
          "time": 287.63005101042563,
          "velocity": 0.7874015748031497,
          "duration": 0.001096489583346738
        },
        {
          "name": "C#4",
          "midi": 61,
          "time": 287.89430500000896,
          "velocity": 0.7874015748031497,
          "duration": 0.001096489583346738
        },
        {
          "name": "C#5",
          "midi": 73,
          "time": 287.89430500000896,
          "velocity": 0.7874015748031497,
          "duration": 0.001096489583346738
        },
        {
          "name": "D5",
          "midi": 74,
          "time": 287.89430500000896,
          "velocity": 0.7874015748031497,
          "duration": 0.001096489583346738
        },
        {
          "name": "C#6",
          "midi": 85,
          "time": 287.89430500000896,
          "velocity": 0.7874015748031497,
          "duration": 0.001096489583346738
        },
        {
          "name": "D6",
          "midi": 86,
          "time": 287.89430500000896,
          "velocity": 0.7874015748031497,
          "duration": 0.001096489583346738
        },
        {
          "name": "C#7",
          "midi": 97,
          "time": 287.89430500000896,
          "velocity": 0.7874015748031497,
          "duration": 0.001096489583346738
        },
        {
          "name": "D7",
          "midi": 98,
          "time": 287.89430500000896,
          "velocity": 0.7874015748031497,
          "duration": 0.001096489583346738
        },
        {
          "name": "C4",
          "midi": 60,
          "time": 288.42062000000897,
          "velocity": 0.7874015748031497,
          "duration": 0.001096489583346738
        },
        {
          "name": "C5",
          "midi": 72,
          "time": 288.42062000000897,
          "velocity": 0.7874015748031497,
          "duration": 0.001096489583346738
        },
        {
          "name": "D5",
          "midi": 74,
          "time": 288.42062000000897,
          "velocity": 0.7874015748031497,
          "duration": 0.001096489583346738
        },
        {
          "name": "C6",
          "midi": 84,
          "time": 288.42062000000897,
          "velocity": 0.7874015748031497,
          "duration": 0.001096489583346738
        },
        {
          "name": "D6",
          "midi": 86,
          "time": 288.42062000000897,
          "velocity": 0.7874015748031497,
          "duration": 0.001096489583346738
        },
        {
          "name": "C7",
          "midi": 96,
          "time": 288.42062000000897,
          "velocity": 0.7874015748031497,
          "duration": 0.001096489583346738
        },
        {
          "name": "D7",
          "midi": 98,
          "time": 288.42062000000897,
          "velocity": 0.7874015748031497,
          "duration": 0.001096489583346738
        },
        {
          "name": "C7",
          "midi": 96,
          "time": 288.6848739895923,
          "velocity": 0.7874015748031497,
          "duration": 0.001096489583346738
        },
        {
          "name": "C6",
          "midi": 84,
          "time": 288.81535625000896,
          "velocity": 0.7874015748031497,
          "duration": 0.001096489583346738
        },
        {
          "name": "C7",
          "midi": 96,
          "time": 288.81535625000896,
          "velocity": 0.7874015748031497,
          "duration": 0.001096489583346738
        },
        {
          "name": "C#4",
          "midi": 61,
          "time": 288.946935000009,
          "velocity": 0.7874015748031497,
          "duration": 0.001096489583346738
        },
        {
          "name": "C#5",
          "midi": 73,
          "time": 288.946935000009,
          "velocity": 0.7874015748031497,
          "duration": 0.001096489583346738
        },
        {
          "name": "D5",
          "midi": 74,
          "time": 288.946935000009,
          "velocity": 0.7874015748031497,
          "duration": 0.001096489583346738
        },
        {
          "name": "C#6",
          "midi": 85,
          "time": 288.946935000009,
          "velocity": 0.7874015748031497,
          "duration": 0.001096489583346738
        },
        {
          "name": "D6",
          "midi": 86,
          "time": 288.946935000009,
          "velocity": 0.7874015748031497,
          "duration": 0.001096489583346738
        },
        {
          "name": "C#7",
          "midi": 97,
          "time": 288.946935000009,
          "velocity": 0.7874015748031497,
          "duration": 0.001096489583346738
        },
        {
          "name": "D7",
          "midi": 98,
          "time": 288.946935000009,
          "velocity": 0.7874015748031497,
          "duration": 0.001096489583346738
        },
        {
          "name": "D4",
          "midi": 62,
          "time": 289.473250000009,
          "velocity": 0.7874015748031497,
          "duration": 0.001096489583346738
        },
        {
          "name": "D5",
          "midi": 74,
          "time": 289.473250000009,
          "velocity": 0.7874015748031497,
          "duration": 0.001096489583346738
        },
        {
          "name": "D6",
          "midi": 86,
          "time": 289.473250000009,
          "velocity": 0.7874015748031497,
          "duration": 0.001096489583346738
        },
        {
          "name": "D7",
          "midi": 98,
          "time": 289.473250000009,
          "velocity": 0.7874015748031497,
          "duration": 0.001096489583346738
        },
        {
          "name": "C5",
          "midi": 72,
          "time": 289.7353110104257,
          "velocity": 0.7874015748031497,
          "duration": 0.001096489583346738
        },
        {
          "name": "C6",
          "midi": 84,
          "time": 289.7353110104257,
          "velocity": 0.7874015748031497,
          "duration": 0.001096489583346738
        },
        {
          "name": "C7",
          "midi": 96,
          "time": 289.7353110104257,
          "velocity": 0.7874015748031497,
          "duration": 0.001096489583346738
        },
        {
          "name": "C#4",
          "midi": 61,
          "time": 289.999565000009,
          "velocity": 0.7874015748031497,
          "duration": 0.001096489583346738
        },
        {
          "name": "C#5",
          "midi": 73,
          "time": 289.999565000009,
          "velocity": 0.7874015748031497,
          "duration": 0.001096489583346738
        },
        {
          "name": "D5",
          "midi": 74,
          "time": 289.999565000009,
          "velocity": 0.7874015748031497,
          "duration": 0.001096489583346738
        },
        {
          "name": "C#6",
          "midi": 85,
          "time": 289.999565000009,
          "velocity": 0.7874015748031497,
          "duration": 0.001096489583346738
        },
        {
          "name": "D6",
          "midi": 86,
          "time": 289.999565000009,
          "velocity": 0.7874015748031497,
          "duration": 0.001096489583346738
        },
        {
          "name": "C#7",
          "midi": 97,
          "time": 289.999565000009,
          "velocity": 0.7874015748031497,
          "duration": 0.001096489583346738
        },
        {
          "name": "D7",
          "midi": 98,
          "time": 289.999565000009,
          "velocity": 0.7874015748031497,
          "duration": 0.001096489583346738
        },
        {
          "name": "C7",
          "midi": 96,
          "time": 290.2638189895923,
          "velocity": 0.7874015748031497,
          "duration": 0.001096489583346738
        },
        {
          "name": "D#5",
          "midi": 75,
          "time": 290.3504416666757,
          "velocity": 0.7874015748031497,
          "duration": 0.001096489583346738
        },
        {
          "name": "D#6",
          "midi": 87,
          "time": 290.3504416666757,
          "velocity": 0.7874015748031497,
          "duration": 0.001096489583346738
        },
        {
          "name": "D#7",
          "midi": 99,
          "time": 290.3504416666757,
          "velocity": 0.7874015748031497,
          "duration": 0.001096489583346738
        },
        {
          "name": "D#7",
          "midi": 99,
          "time": 290.43816083334235,
          "velocity": 0.7874015748031497,
          "duration": 0.001096489583346738
        },
        {
          "name": "E4",
          "midi": 64,
          "time": 290.525880000009,
          "velocity": 0.7874015748031497,
          "duration": 0.001096489583346738
        },
        {
          "name": "C5",
          "midi": 72,
          "time": 290.525880000009,
          "velocity": 0.7874015748031497,
          "duration": 0.001096489583346738
        },
        {
          "name": "E5",
          "midi": 76,
          "time": 290.525880000009,
          "velocity": 0.7874015748031497,
          "duration": 0.001096489583346738
        },
        {
          "name": "C6",
          "midi": 84,
          "time": 290.525880000009,
          "velocity": 0.7874015748031497,
          "duration": 0.001096489583346738
        },
        {
          "name": "E6",
          "midi": 88,
          "time": 290.525880000009,
          "velocity": 0.7874015748031497,
          "duration": 0.001096489583346738
        },
        {
          "name": "C7",
          "midi": 96,
          "time": 290.525880000009,
          "velocity": 0.7874015748031497,
          "duration": 0.001096489583346738
        },
        {
          "name": "E7",
          "midi": 100,
          "time": 290.525880000009,
          "velocity": 0.7874015748031497,
          "duration": 0.001096489583346738
        },
        {
          "name": "C#4",
          "midi": 61,
          "time": 291.052195000009,
          "velocity": 0.7874015748031497,
          "duration": 0.001096489583346738
        },
        {
          "name": "C#5",
          "midi": 73,
          "time": 291.052195000009,
          "velocity": 0.7874015748031497,
          "duration": 0.001096489583346738
        },
        {
          "name": "D5",
          "midi": 74,
          "time": 291.052195000009,
          "velocity": 0.7874015748031497,
          "duration": 0.001096489583346738
        },
        {
          "name": "C#6",
          "midi": 85,
          "time": 291.052195000009,
          "velocity": 0.7874015748031497,
          "duration": 0.001096489583346738
        },
        {
          "name": "D6",
          "midi": 86,
          "time": 291.052195000009,
          "velocity": 0.7874015748031497,
          "duration": 0.001096489583346738
        },
        {
          "name": "C#7",
          "midi": 97,
          "time": 291.052195000009,
          "velocity": 0.7874015748031497,
          "duration": 0.001096489583346738
        },
        {
          "name": "D7",
          "midi": 98,
          "time": 291.052195000009,
          "velocity": 0.7874015748031497,
          "duration": 0.001096489583346738
        },
        {
          "name": "D4",
          "midi": 62,
          "time": 291.57851000000903,
          "velocity": 0.7874015748031497,
          "duration": 0.001096489583346738
        },
        {
          "name": "D5",
          "midi": 74,
          "time": 291.57851000000903,
          "velocity": 0.7874015748031497,
          "duration": 0.001096489583346738
        },
        {
          "name": "D6",
          "midi": 86,
          "time": 291.57851000000903,
          "velocity": 0.7874015748031497,
          "duration": 0.001096489583346738
        },
        {
          "name": "D7",
          "midi": 98,
          "time": 291.57851000000903,
          "velocity": 0.7874015748031497,
          "duration": 0.001096489583346738
        },
        {
          "name": "C5",
          "midi": 72,
          "time": 291.84276398959236,
          "velocity": 0.7874015748031497,
          "duration": 0.001096489583346738
        },
        {
          "name": "C6",
          "midi": 84,
          "time": 291.84276398959236,
          "velocity": 0.7874015748031497,
          "duration": 0.001096489583346738
        },
        {
          "name": "C7",
          "midi": 96,
          "time": 291.84276398959236,
          "velocity": 0.7874015748031497,
          "duration": 0.001096489583346738
        },
        {
          "name": "C#4",
          "midi": 61,
          "time": 292.10482500000904,
          "velocity": 0.7874015748031497,
          "duration": 0.001096489583346738
        },
        {
          "name": "C#5",
          "midi": 73,
          "time": 292.10482500000904,
          "velocity": 0.7874015748031497,
          "duration": 0.001096489583346738
        },
        {
          "name": "D5",
          "midi": 74,
          "time": 292.10482500000904,
          "velocity": 0.7874015748031497,
          "duration": 0.001096489583346738
        },
        {
          "name": "C#6",
          "midi": 85,
          "time": 292.10482500000904,
          "velocity": 0.7874015748031497,
          "duration": 0.001096489583346738
        },
        {
          "name": "D6",
          "midi": 86,
          "time": 292.10482500000904,
          "velocity": 0.7874015748031497,
          "duration": 0.001096489583346738
        },
        {
          "name": "C#7",
          "midi": 97,
          "time": 292.10482500000904,
          "velocity": 0.7874015748031497,
          "duration": 0.001096489583346738
        },
        {
          "name": "D7",
          "midi": 98,
          "time": 292.10482500000904,
          "velocity": 0.7874015748031497,
          "duration": 0.001096489583346738
        },
        {
          "name": "C4",
          "midi": 60,
          "time": 292.63114000000905,
          "velocity": 0.7874015748031497,
          "duration": 0.001096489583346738
        },
        {
          "name": "C5",
          "midi": 72,
          "time": 292.63114000000905,
          "velocity": 0.7874015748031497,
          "duration": 0.001096489583346738
        },
        {
          "name": "D5",
          "midi": 74,
          "time": 292.63114000000905,
          "velocity": 0.7874015748031497,
          "duration": 0.001096489583346738
        },
        {
          "name": "C6",
          "midi": 84,
          "time": 292.63114000000905,
          "velocity": 0.7874015748031497,
          "duration": 0.001096489583346738
        },
        {
          "name": "D6",
          "midi": 86,
          "time": 292.63114000000905,
          "velocity": 0.7874015748031497,
          "duration": 0.001096489583346738
        },
        {
          "name": "C7",
          "midi": 96,
          "time": 292.63114000000905,
          "velocity": 0.7874015748031497,
          "duration": 0.001096489583346738
        },
        {
          "name": "D7",
          "midi": 98,
          "time": 292.63114000000905,
          "velocity": 0.7874015748031497,
          "duration": 0.001096489583346738
        },
        {
          "name": "C7",
          "midi": 96,
          "time": 292.8942975000091,
          "velocity": 0.7874015748031497,
          "duration": 0.001096489583346738
        },
        {
          "name": "C6",
          "midi": 84,
          "time": 293.02697273959245,
          "velocity": 0.7874015748031497,
          "duration": 0.001096489583346738
        },
        {
          "name": "C7",
          "midi": 96,
          "time": 293.02697273959245,
          "velocity": 0.7874015748031497,
          "duration": 0.001096489583346738
        },
        {
          "name": "C#4",
          "midi": 61,
          "time": 293.1574550000091,
          "velocity": 0.7874015748031497,
          "duration": 0.001096489583346738
        },
        {
          "name": "C#5",
          "midi": 73,
          "time": 293.1574550000091,
          "velocity": 0.7874015748031497,
          "duration": 0.001096489583346738
        },
        {
          "name": "D5",
          "midi": 74,
          "time": 293.1574550000091,
          "velocity": 0.7874015748031497,
          "duration": 0.001096489583346738
        },
        {
          "name": "C#6",
          "midi": 85,
          "time": 293.1574550000091,
          "velocity": 0.7874015748031497,
          "duration": 0.001096489583346738
        },
        {
          "name": "D6",
          "midi": 86,
          "time": 293.1574550000091,
          "velocity": 0.7874015748031497,
          "duration": 0.001096489583346738
        },
        {
          "name": "C#7",
          "midi": 97,
          "time": 293.1574550000091,
          "velocity": 0.7874015748031497,
          "duration": 0.001096489583346738
        },
        {
          "name": "D7",
          "midi": 98,
          "time": 293.1574550000091,
          "velocity": 0.7874015748031497,
          "duration": 0.001096489583346738
        },
        {
          "name": "D4",
          "midi": 62,
          "time": 293.68377000000913,
          "velocity": 0.7874015748031497,
          "duration": 0.001096489583346738
        },
        {
          "name": "D5",
          "midi": 74,
          "time": 293.68377000000913,
          "velocity": 0.7874015748031497,
          "duration": 0.001096489583346738
        },
        {
          "name": "D6",
          "midi": 86,
          "time": 293.68377000000913,
          "velocity": 0.7874015748031497,
          "duration": 0.001096489583346738
        },
        {
          "name": "D7",
          "midi": 98,
          "time": 293.68377000000913,
          "velocity": 0.7874015748031497,
          "duration": 0.001096489583346738
        },
        {
          "name": "C5",
          "midi": 72,
          "time": 293.94802398959246,
          "velocity": 0.7874015748031497,
          "duration": 0.001096489583346738
        },
        {
          "name": "C6",
          "midi": 84,
          "time": 293.94802398959246,
          "velocity": 0.7874015748031497,
          "duration": 0.001096489583346738
        },
        {
          "name": "C7",
          "midi": 96,
          "time": 293.94802398959246,
          "velocity": 0.7874015748031497,
          "duration": 0.001096489583346738
        },
        {
          "name": "C#4",
          "midi": 61,
          "time": 294.21008500000914,
          "velocity": 0.7874015748031497,
          "duration": 0.001096489583346738
        },
        {
          "name": "C#5",
          "midi": 73,
          "time": 294.21008500000914,
          "velocity": 0.7874015748031497,
          "duration": 0.001096489583346738
        },
        {
          "name": "D5",
          "midi": 74,
          "time": 294.21008500000914,
          "velocity": 0.7874015748031497,
          "duration": 0.001096489583346738
        },
        {
          "name": "C#6",
          "midi": 85,
          "time": 294.21008500000914,
          "velocity": 0.7874015748031497,
          "duration": 0.001096489583346738
        },
        {
          "name": "D6",
          "midi": 86,
          "time": 294.21008500000914,
          "velocity": 0.7874015748031497,
          "duration": 0.001096489583346738
        },
        {
          "name": "C#7",
          "midi": 97,
          "time": 294.21008500000914,
          "velocity": 0.7874015748031497,
          "duration": 0.001096489583346738
        },
        {
          "name": "D7",
          "midi": 98,
          "time": 294.21008500000914,
          "velocity": 0.7874015748031497,
          "duration": 0.001096489583346738
        },
        {
          "name": "D4",
          "midi": 62,
          "time": 294.73640000000916,
          "velocity": 0.7874015748031497,
          "duration": 0.001096489583346738
        },
        {
          "name": "C5",
          "midi": 72,
          "time": 294.73640000000916,
          "velocity": 0.7874015748031497,
          "duration": 0.001096489583346738
        },
        {
          "name": "D5",
          "midi": 74,
          "time": 294.73640000000916,
          "velocity": 0.7874015748031497,
          "duration": 0.001096489583346738
        },
        {
          "name": "C6",
          "midi": 84,
          "time": 294.73640000000916,
          "velocity": 0.7874015748031497,
          "duration": 0.001096489583346738
        },
        {
          "name": "D6",
          "midi": 86,
          "time": 294.73640000000916,
          "velocity": 0.7874015748031497,
          "duration": 0.001096489583346738
        },
        {
          "name": "C7",
          "midi": 96,
          "time": 294.73640000000916,
          "velocity": 0.7874015748031497,
          "duration": 0.001096489583346738
        },
        {
          "name": "D7",
          "midi": 98,
          "time": 294.73640000000916,
          "velocity": 0.7874015748031497,
          "duration": 0.001096489583346738
        },
        {
          "name": "C7",
          "midi": 96,
          "time": 294.99846101042584,
          "velocity": 0.7874015748031497,
          "duration": 0.001096489583346738
        },
        {
          "name": "C6",
          "midi": 84,
          "time": 295.1311362500092,
          "velocity": 0.7874015748031497,
          "duration": 0.001096489583346738
        },
        {
          "name": "C7",
          "midi": 96,
          "time": 295.1311362500092,
          "velocity": 0.7874015748031497,
          "duration": 0.001096489583346738
        },
        {
          "name": "C#4",
          "midi": 61,
          "time": 295.2627150000092,
          "velocity": 0.7874015748031497,
          "duration": 0.001096489583346738
        },
        {
          "name": "C#5",
          "midi": 73,
          "time": 295.2627150000092,
          "velocity": 0.7874015748031497,
          "duration": 0.001096489583346738
        },
        {
          "name": "D5",
          "midi": 74,
          "time": 295.2627150000092,
          "velocity": 0.7874015748031497,
          "duration": 0.001096489583346738
        },
        {
          "name": "C#6",
          "midi": 85,
          "time": 295.2627150000092,
          "velocity": 0.7874015748031497,
          "duration": 0.001096489583346738
        },
        {
          "name": "D6",
          "midi": 86,
          "time": 295.2627150000092,
          "velocity": 0.7874015748031497,
          "duration": 0.001096489583346738
        },
        {
          "name": "C#7",
          "midi": 97,
          "time": 295.2627150000092,
          "velocity": 0.7874015748031497,
          "duration": 0.001096489583346738
        },
        {
          "name": "D7",
          "midi": 98,
          "time": 295.2627150000092,
          "velocity": 0.7874015748031497,
          "duration": 0.001096489583346738
        },
        {
          "name": "D4",
          "midi": 62,
          "time": 295.78903000000923,
          "velocity": 0.7874015748031497,
          "duration": 0.001096489583346738
        },
        {
          "name": "D5",
          "midi": 74,
          "time": 295.78903000000923,
          "velocity": 0.7874015748031497,
          "duration": 0.001096489583346738
        },
        {
          "name": "D6",
          "midi": 86,
          "time": 295.78903000000923,
          "velocity": 0.7874015748031497,
          "duration": 0.001096489583346738
        },
        {
          "name": "D7",
          "midi": 98,
          "time": 295.78903000000923,
          "velocity": 0.7874015748031497,
          "duration": 0.001096489583346738
        },
        {
          "name": "C5",
          "midi": 72,
          "time": 296.0510910104259,
          "velocity": 0.7874015748031497,
          "duration": 0.001096489583346738
        },
        {
          "name": "C6",
          "midi": 84,
          "time": 296.0510910104259,
          "velocity": 0.7874015748031497,
          "duration": 0.001096489583346738
        },
        {
          "name": "C7",
          "midi": 96,
          "time": 296.0510910104259,
          "velocity": 0.7874015748031497,
          "duration": 0.001096489583346738
        },
        {
          "name": "C#4",
          "midi": 61,
          "time": 296.31534500000924,
          "velocity": 0.7874015748031497,
          "duration": 0.001096489583346738
        },
        {
          "name": "C#5",
          "midi": 73,
          "time": 296.31534500000924,
          "velocity": 0.7874015748031497,
          "duration": 0.001096489583346738
        },
        {
          "name": "D5",
          "midi": 74,
          "time": 296.31534500000924,
          "velocity": 0.7874015748031497,
          "duration": 0.001096489583346738
        },
        {
          "name": "C#6",
          "midi": 85,
          "time": 296.31534500000924,
          "velocity": 0.7874015748031497,
          "duration": 0.001096489583346738
        },
        {
          "name": "D6",
          "midi": 86,
          "time": 296.31534500000924,
          "velocity": 0.7874015748031497,
          "duration": 0.001096489583346738
        },
        {
          "name": "C#7",
          "midi": 97,
          "time": 296.31534500000924,
          "velocity": 0.7874015748031497,
          "duration": 0.001096489583346738
        },
        {
          "name": "D7",
          "midi": 98,
          "time": 296.31534500000924,
          "velocity": 0.7874015748031497,
          "duration": 0.001096489583346738
        },
        {
          "name": "C7",
          "midi": 96,
          "time": 296.5785025000093,
          "velocity": 0.7874015748031497,
          "duration": 0.001096489583346738
        },
        {
          "name": "C4",
          "midi": 60,
          "time": 296.8416600000093,
          "velocity": 0.7874015748031497,
          "duration": 0.001096489583346738
        },
        {
          "name": "C5",
          "midi": 72,
          "time": 296.8416600000093,
          "velocity": 0.7874015748031497,
          "duration": 0.001096489583346738
        },
        {
          "name": "D5",
          "midi": 74,
          "time": 296.8416600000093,
          "velocity": 0.7874015748031497,
          "duration": 0.001096489583346738
        },
        {
          "name": "C6",
          "midi": 84,
          "time": 296.8416600000093,
          "velocity": 0.7874015748031497,
          "duration": 0.001096489583346738
        },
        {
          "name": "D6",
          "midi": 86,
          "time": 296.8416600000093,
          "velocity": 0.7874015748031497,
          "duration": 0.001096489583346738
        },
        {
          "name": "C7",
          "midi": 96,
          "time": 296.8416600000093,
          "velocity": 0.7874015748031497,
          "duration": 0.001096489583346738
        },
        {
          "name": "D7",
          "midi": 98,
          "time": 296.8416600000093,
          "velocity": 0.7874015748031497,
          "duration": 0.001096489583346738
        },
        {
          "name": "C6",
          "midi": 84,
          "time": 297.10481750000935,
          "velocity": 0.7874015748031497,
          "duration": 0.001096489583346738
        },
        {
          "name": "C7",
          "midi": 96,
          "time": 297.10481750000935,
          "velocity": 0.7874015748031497,
          "duration": 0.001096489583346738
        },
        {
          "name": "C7",
          "midi": 96,
          "time": 297.235299760426,
          "velocity": 0.7874015748031497,
          "duration": 0.001096489583346738
        },
        {
          "name": "C#4",
          "midi": 61,
          "time": 297.3679750000094,
          "velocity": 0.7874015748031497,
          "duration": 0.001096489583346738
        },
        {
          "name": "C#5",
          "midi": 73,
          "time": 297.3679750000094,
          "velocity": 0.7874015748031497,
          "duration": 0.001096489583346738
        },
        {
          "name": "C#6",
          "midi": 85,
          "time": 297.3679750000094,
          "velocity": 0.7874015748031497,
          "duration": 0.001096489583346738
        },
        {
          "name": "C#7",
          "midi": 97,
          "time": 297.3679750000094,
          "velocity": 0.7874015748031497,
          "duration": 0.001096489583346738
        },
        {
          "name": "C#5",
          "midi": 73,
          "time": 297.6311325000094,
          "velocity": 0.7874015748031497,
          "duration": 0.001096489583346738
        },
        {
          "name": "C#6",
          "midi": 85,
          "time": 297.6311325000094,
          "velocity": 0.7874015748031497,
          "duration": 0.001096489583346738
        },
        {
          "name": "C#7",
          "midi": 97,
          "time": 297.6311325000094,
          "velocity": 0.7874015748031497,
          "duration": 0.001096489583346738
        },
        {
          "name": "D#4",
          "midi": 63,
          "time": 297.89429000000945,
          "velocity": 0.7874015748031497,
          "duration": 0.001096489583346738
        },
        {
          "name": "D#5",
          "midi": 75,
          "time": 297.89429000000945,
          "velocity": 0.7874015748031497,
          "duration": 0.001096489583346738
        },
        {
          "name": "D#6",
          "midi": 87,
          "time": 297.89429000000945,
          "velocity": 0.7874015748031497,
          "duration": 0.001096489583346738
        },
        {
          "name": "D#7",
          "midi": 99,
          "time": 297.89429000000945,
          "velocity": 0.7874015748031497,
          "duration": 0.001096489583346738
        },
        {
          "name": "D#7",
          "midi": 99,
          "time": 297.98310565625945,
          "velocity": 0.7874015748031497,
          "duration": 0.001096489583346738
        },
        {
          "name": "D#6",
          "midi": 87,
          "time": 298.02586875000947,
          "velocity": 0.7874015748031497,
          "duration": 0.001096489583346738
        },
        {
          "name": "D#7",
          "midi": 99,
          "time": 298.0697283333428,
          "velocity": 0.7874015748031497,
          "duration": 0.001096489583346738
        },
        {
          "name": "D#5",
          "midi": 75,
          "time": 298.1563510104262,
          "velocity": 0.7874015748031497,
          "duration": 0.001096489583346738
        },
        {
          "name": "D#6",
          "midi": 87,
          "time": 298.1563510104262,
          "velocity": 0.7874015748031497,
          "duration": 0.001096489583346738
        },
        {
          "name": "D#7",
          "midi": 99,
          "time": 298.1563510104262,
          "velocity": 0.7874015748031497,
          "duration": 0.001096489583346738
        },
        {
          "name": "D#7",
          "midi": 99,
          "time": 298.2451666666762,
          "velocity": 0.7874015748031497,
          "duration": 0.001096489583346738
        },
        {
          "name": "D#6",
          "midi": 87,
          "time": 298.28902625000956,
          "velocity": 0.7874015748031497,
          "duration": 0.001096489583346738
        },
        {
          "name": "F7",
          "midi": 101,
          "time": 298.33178934375957,
          "velocity": 0.7874015748031497,
          "duration": 0.001096489583346738
        },
        {
          "name": "F4",
          "midi": 65,
          "time": 298.4206050000096,
          "velocity": 0.7874015748031497,
          "duration": 0.001096489583346738
        },
        {
          "name": "F5",
          "midi": 77,
          "time": 298.4206050000096,
          "velocity": 0.7874015748031497,
          "duration": 0.001096489583346738
        },
        {
          "name": "F6",
          "midi": 89,
          "time": 298.4206050000096,
          "velocity": 0.7874015748031497,
          "duration": 0.001096489583346738
        },
        {
          "name": "F7",
          "midi": 101,
          "time": 298.4206050000096,
          "velocity": 0.7874015748031497,
          "duration": 0.001096489583346738
        },
        {
          "name": "F6",
          "midi": 89,
          "time": 298.5521837500096,
          "velocity": 0.7874015748031497,
          "duration": 0.001096489583346738
        },
        {
          "name": "F7",
          "midi": 101,
          "time": 298.5521837500096,
          "velocity": 0.7874015748031497,
          "duration": 0.001096489583346738
        },
        {
          "name": "F5",
          "midi": 77,
          "time": 298.68485898959295,
          "velocity": 0.7874015748031497,
          "duration": 0.001096489583346738
        },
        {
          "name": "F6",
          "midi": 89,
          "time": 298.68485898959295,
          "velocity": 0.7874015748031497,
          "duration": 0.001096489583346738
        },
        {
          "name": "F7",
          "midi": 101,
          "time": 298.68485898959295,
          "velocity": 0.7874015748031497,
          "duration": 0.001096489583346738
        },
        {
          "name": "F6",
          "midi": 89,
          "time": 298.8153412500096,
          "velocity": 0.7874015748031497,
          "duration": 0.001096489583346738
        },
        {
          "name": "F7",
          "midi": 101,
          "time": 298.8153412500096,
          "velocity": 0.7874015748031497,
          "duration": 0.001096489583346738
        },
        {
          "name": "D4",
          "midi": 62,
          "time": 298.94692000000964,
          "velocity": 0.7874015748031497,
          "duration": 0.001096489583346738
        },
        {
          "name": "C5",
          "midi": 72,
          "time": 298.94692000000964,
          "velocity": 0.7874015748031497,
          "duration": 0.001096489583346738
        },
        {
          "name": "D5",
          "midi": 74,
          "time": 298.94692000000964,
          "velocity": 0.7874015748031497,
          "duration": 0.001096489583346738
        },
        {
          "name": "C6",
          "midi": 84,
          "time": 298.94692000000964,
          "velocity": 0.7874015748031497,
          "duration": 0.001096489583346738
        },
        {
          "name": "D6",
          "midi": 86,
          "time": 298.94692000000964,
          "velocity": 0.7874015748031497,
          "duration": 0.001096489583346738
        },
        {
          "name": "C7",
          "midi": 96,
          "time": 298.94692000000964,
          "velocity": 0.7874015748031497,
          "duration": 0.001096489583346738
        },
        {
          "name": "D7",
          "midi": 98,
          "time": 298.94692000000964,
          "velocity": 0.7874015748031497,
          "duration": 0.001096489583346738
        },
        {
          "name": "C#4",
          "midi": 61,
          "time": 299.47323500000965,
          "velocity": 0.7874015748031497,
          "duration": 0.001096489583346738
        },
        {
          "name": "C#5",
          "midi": 73,
          "time": 299.47323500000965,
          "velocity": 0.7874015748031497,
          "duration": 0.001096489583346738
        },
        {
          "name": "C#6",
          "midi": 85,
          "time": 299.47323500000965,
          "velocity": 0.7874015748031497,
          "duration": 0.001096489583346738
        },
        {
          "name": "C#7",
          "midi": 97,
          "time": 299.47323500000965,
          "velocity": 0.7874015748031497,
          "duration": 0.001096489583346738
        },
        {
          "name": "E5",
          "midi": 76,
          "time": 299.737488989593,
          "velocity": 0.7874015748031497,
          "duration": 0.001096489583346738
        },
        {
          "name": "C6",
          "midi": 84,
          "time": 299.737488989593,
          "velocity": 0.7874015748031497,
          "duration": 0.001096489583346738
        },
        {
          "name": "E6",
          "midi": 88,
          "time": 299.737488989593,
          "velocity": 0.7874015748031497,
          "duration": 0.001096489583346738
        },
        {
          "name": "C7",
          "midi": 96,
          "time": 299.737488989593,
          "velocity": 0.7874015748031497,
          "duration": 0.001096489583346738
        },
        {
          "name": "E7",
          "midi": 100,
          "time": 299.737488989593,
          "velocity": 0.7874015748031497,
          "duration": 0.001096489583346738
        },
        {
          "name": "E4",
          "midi": 64,
          "time": 299.99955000000966,
          "velocity": 0.7874015748031497,
          "duration": 0.001096489583346738
        },
        {
          "name": "E5",
          "midi": 76,
          "time": 299.99955000000966,
          "velocity": 0.7874015748031497,
          "duration": 0.001096489583346738
        },
        {
          "name": "E6",
          "midi": 88,
          "time": 299.99955000000966,
          "velocity": 0.7874015748031497,
          "duration": 0.001096489583346738
        },
        {
          "name": "E7",
          "midi": 100,
          "time": 299.99955000000966,
          "velocity": 0.7874015748031497,
          "duration": 0.001096489583346738
        },
        {
          "name": "E5",
          "midi": 76,
          "time": 300.2627075000097,
          "velocity": 0.7874015748031497,
          "duration": 0.001096489583346738
        },
        {
          "name": "E6",
          "midi": 88,
          "time": 300.2627075000097,
          "velocity": 0.7874015748031497,
          "duration": 0.001096489583346738
        },
        {
          "name": "C7",
          "midi": 96,
          "time": 300.2627075000097,
          "velocity": 0.7874015748031497,
          "duration": 0.001096489583346738
        },
        {
          "name": "E7",
          "midi": 100,
          "time": 300.2627075000097,
          "velocity": 0.7874015748031497,
          "duration": 0.001096489583346738
        },
        {
          "name": "E6",
          "midi": 88,
          "time": 300.3942862500097,
          "velocity": 0.7874015748031497,
          "duration": 0.001096489583346738
        },
        {
          "name": "C7",
          "midi": 96,
          "time": 300.3942862500097,
          "velocity": 0.7874015748031497,
          "duration": 0.001096489583346738
        },
        {
          "name": "E7",
          "midi": 100,
          "time": 300.3942862500097,
          "velocity": 0.7874015748031497,
          "duration": 0.001096489583346738
        },
        {
          "name": "C#4",
          "midi": 61,
          "time": 300.52586500000973,
          "velocity": 0.7874015748031497,
          "duration": 0.001096489583346738
        },
        {
          "name": "C#5",
          "midi": 73,
          "time": 300.52586500000973,
          "velocity": 0.7874015748031497,
          "duration": 0.001096489583346738
        },
        {
          "name": "C#6",
          "midi": 85,
          "time": 300.52586500000973,
          "velocity": 0.7874015748031497,
          "duration": 0.001096489583346738
        },
        {
          "name": "C#7",
          "midi": 97,
          "time": 300.52586500000973,
          "velocity": 0.7874015748031497,
          "duration": 0.001096489583346738
        },
        {
          "name": "E7",
          "midi": 100,
          "time": 300.6585402395931,
          "velocity": 0.7874015748031497,
          "duration": 0.001096489583346738
        },
        {
          "name": "E5",
          "midi": 76,
          "time": 300.78902250000976,
          "velocity": 0.7874015748031497,
          "duration": 0.001096489583346738
        },
        {
          "name": "E6",
          "midi": 88,
          "time": 300.78902250000976,
          "velocity": 0.7874015748031497,
          "duration": 0.001096489583346738
        },
        {
          "name": "C7",
          "midi": 96,
          "time": 300.78902250000976,
          "velocity": 0.7874015748031497,
          "duration": 0.001096489583346738
        },
        {
          "name": "E7",
          "midi": 100,
          "time": 300.78902250000976,
          "velocity": 0.7874015748031497,
          "duration": 0.001096489583346738
        },
        {
          "name": "E4",
          "midi": 64,
          "time": 301.0521800000098,
          "velocity": 0.7874015748031497,
          "duration": 0.001096489583346738
        },
        {
          "name": "C5",
          "midi": 72,
          "time": 301.0521800000098,
          "velocity": 0.7874015748031497,
          "duration": 0.001096489583346738
        },
        {
          "name": "E5",
          "midi": 76,
          "time": 301.0521800000098,
          "velocity": 0.7874015748031497,
          "duration": 0.001096489583346738
        },
        {
          "name": "C6",
          "midi": 84,
          "time": 301.0521800000098,
          "velocity": 0.7874015748031497,
          "duration": 0.001096489583346738
        },
        {
          "name": "E6",
          "midi": 88,
          "time": 301.0521800000098,
          "velocity": 0.7874015748031497,
          "duration": 0.001096489583346738
        },
        {
          "name": "C7",
          "midi": 96,
          "time": 301.0521800000098,
          "velocity": 0.7874015748031497,
          "duration": 0.001096489583346738
        },
        {
          "name": "E7",
          "midi": 100,
          "time": 301.0521800000098,
          "velocity": 0.7874015748031497,
          "duration": 0.001096489583346738
        },
        {
          "name": "E5",
          "midi": 76,
          "time": 301.3142410104265,
          "velocity": 0.7874015748031497,
          "duration": 0.001096489583346738
        },
        {
          "name": "E6",
          "midi": 88,
          "time": 301.3142410104265,
          "velocity": 0.7874015748031497,
          "duration": 0.001096489583346738
        },
        {
          "name": "C7",
          "midi": 96,
          "time": 301.3142410104265,
          "velocity": 0.7874015748031497,
          "duration": 0.001096489583346738
        },
        {
          "name": "E7",
          "midi": 100,
          "time": 301.3142410104265,
          "velocity": 0.7874015748031497,
          "duration": 0.001096489583346738
        },
        {
          "name": "E6",
          "midi": 88,
          "time": 301.44691625000985,
          "velocity": 0.7874015748031497,
          "duration": 0.001096489583346738
        },
        {
          "name": "C7",
          "midi": 96,
          "time": 301.44691625000985,
          "velocity": 0.7874015748031497,
          "duration": 0.001096489583346738
        },
        {
          "name": "E7",
          "midi": 100,
          "time": 301.44691625000985,
          "velocity": 0.7874015748031497,
          "duration": 0.001096489583346738
        },
        {
          "name": "C#4",
          "midi": 61,
          "time": 301.57849500000987,
          "velocity": 0.7874015748031497,
          "duration": 0.001096489583346738
        },
        {
          "name": "C#5",
          "midi": 73,
          "time": 301.57849500000987,
          "velocity": 0.7874015748031497,
          "duration": 0.001096489583346738
        },
        {
          "name": "C#6",
          "midi": 85,
          "time": 301.57849500000987,
          "velocity": 0.7874015748031497,
          "duration": 0.001096489583346738
        },
        {
          "name": "C#7",
          "midi": 97,
          "time": 301.57849500000987,
          "velocity": 0.7874015748031497,
          "duration": 0.001096489583346738
        },
        {
          "name": "E5",
          "midi": 76,
          "time": 301.8427489895932,
          "velocity": 0.7874015748031497,
          "duration": 0.001096489583346738
        },
        {
          "name": "C6",
          "midi": 84,
          "time": 301.8427489895932,
          "velocity": 0.7874015748031497,
          "duration": 0.001096489583346738
        },
        {
          "name": "E6",
          "midi": 88,
          "time": 301.8427489895932,
          "velocity": 0.7874015748031497,
          "duration": 0.001096489583346738
        },
        {
          "name": "C7",
          "midi": 96,
          "time": 301.8427489895932,
          "velocity": 0.7874015748031497,
          "duration": 0.001096489583346738
        },
        {
          "name": "E7",
          "midi": 100,
          "time": 301.8427489895932,
          "velocity": 0.7874015748031497,
          "duration": 0.001096489583346738
        },
        {
          "name": "E4",
          "midi": 64,
          "time": 302.1048100000099,
          "velocity": 0.7874015748031497,
          "duration": 0.001096489583346738
        },
        {
          "name": "E5",
          "midi": 76,
          "time": 302.1048100000099,
          "velocity": 0.7874015748031497,
          "duration": 0.001096489583346738
        },
        {
          "name": "E6",
          "midi": 88,
          "time": 302.1048100000099,
          "velocity": 0.7874015748031497,
          "duration": 0.001096489583346738
        },
        {
          "name": "E7",
          "midi": 100,
          "time": 302.1048100000099,
          "velocity": 0.7874015748031497,
          "duration": 0.001096489583346738
        },
        {
          "name": "E5",
          "midi": 76,
          "time": 302.3679675000099,
          "velocity": 0.7874015748031497,
          "duration": 0.001096489583346738
        },
        {
          "name": "E6",
          "midi": 88,
          "time": 302.3679675000099,
          "velocity": 0.7874015748031497,
          "duration": 0.001096489583346738
        },
        {
          "name": "C7",
          "midi": 96,
          "time": 302.3679675000099,
          "velocity": 0.7874015748031497,
          "duration": 0.001096489583346738
        },
        {
          "name": "E7",
          "midi": 100,
          "time": 302.3679675000099,
          "velocity": 0.7874015748031497,
          "duration": 0.001096489583346738
        },
        {
          "name": "E6",
          "midi": 88,
          "time": 302.4984497604266,
          "velocity": 0.7874015748031497,
          "duration": 0.001096489583346738
        },
        {
          "name": "C7",
          "midi": 96,
          "time": 302.4984497604266,
          "velocity": 0.7874015748031497,
          "duration": 0.001096489583346738
        },
        {
          "name": "E7",
          "midi": 100,
          "time": 302.4984497604266,
          "velocity": 0.7874015748031497,
          "duration": 0.001096489583346738
        },
        {
          "name": "C#4",
          "midi": 61,
          "time": 302.63112500000994,
          "velocity": 0.7874015748031497,
          "duration": 0.001096489583346738
        },
        {
          "name": "C#5",
          "midi": 73,
          "time": 302.63112500000994,
          "velocity": 0.7874015748031497,
          "duration": 0.001096489583346738
        },
        {
          "name": "C#6",
          "midi": 85,
          "time": 302.63112500000994,
          "velocity": 0.7874015748031497,
          "duration": 0.001096489583346738
        },
        {
          "name": "C#7",
          "midi": 97,
          "time": 302.63112500000994,
          "velocity": 0.7874015748031497,
          "duration": 0.001096489583346738
        },
        {
          "name": "E7",
          "midi": 100,
          "time": 302.7616072604266,
          "velocity": 0.7874015748031497,
          "duration": 0.001096489583346738
        },
        {
          "name": "E5",
          "midi": 76,
          "time": 302.89318601042663,
          "velocity": 0.7874015748031497,
          "duration": 0.001096489583346738
        },
        {
          "name": "E6",
          "midi": 88,
          "time": 302.89318601042663,
          "velocity": 0.7874015748031497,
          "duration": 0.001096489583346738
        },
        {
          "name": "C7",
          "midi": 96,
          "time": 302.89318601042663,
          "velocity": 0.7874015748031497,
          "duration": 0.001096489583346738
        },
        {
          "name": "E7",
          "midi": 100,
          "time": 302.89318601042663,
          "velocity": 0.7874015748031497,
          "duration": 0.001096489583346738
        },
        {
          "name": "C4",
          "midi": 60,
          "time": 303.15744000000996,
          "velocity": 0.7874015748031497,
          "duration": 0.001096489583346738
        },
        {
          "name": "C5",
          "midi": 72,
          "time": 303.15744000000996,
          "velocity": 0.7874015748031497,
          "duration": 0.001096489583346738
        },
        {
          "name": "E5",
          "midi": 76,
          "time": 303.15744000000996,
          "velocity": 0.7874015748031497,
          "duration": 0.001096489583346738
        },
        {
          "name": "C6",
          "midi": 84,
          "time": 303.15744000000996,
          "velocity": 0.7874015748031497,
          "duration": 0.001096489583346738
        },
        {
          "name": "E6",
          "midi": 88,
          "time": 303.15744000000996,
          "velocity": 0.7874015748031497,
          "duration": 0.001096489583346738
        },
        {
          "name": "C7",
          "midi": 96,
          "time": 303.15744000000996,
          "velocity": 0.7874015748031497,
          "duration": 0.001096489583346738
        },
        {
          "name": "E7",
          "midi": 100,
          "time": 303.15744000000996,
          "velocity": 0.7874015748031497,
          "duration": 0.001096489583346738
        },
        {
          "name": "E5",
          "midi": 76,
          "time": 303.42059750001,
          "velocity": 0.7874015748031497,
          "duration": 0.001096489583346738
        },
        {
          "name": "E6",
          "midi": 88,
          "time": 303.42059750001,
          "velocity": 0.7874015748031497,
          "duration": 0.001096489583346738
        },
        {
          "name": "C7",
          "midi": 96,
          "time": 303.42059750001,
          "velocity": 0.7874015748031497,
          "duration": 0.001096489583346738
        },
        {
          "name": "E7",
          "midi": 100,
          "time": 303.42059750001,
          "velocity": 0.7874015748031497,
          "duration": 0.001096489583346738
        },
        {
          "name": "E6",
          "midi": 88,
          "time": 303.55107976042666,
          "velocity": 0.7874015748031497,
          "duration": 0.001096489583346738
        },
        {
          "name": "C7",
          "midi": 96,
          "time": 303.55107976042666,
          "velocity": 0.7874015748031497,
          "duration": 0.001096489583346738
        },
        {
          "name": "E7",
          "midi": 100,
          "time": 303.55107976042666,
          "velocity": 0.7874015748031497,
          "duration": 0.001096489583346738
        },
        {
          "name": "C#4",
          "midi": 61,
          "time": 303.68375500001,
          "velocity": 0.7874015748031497,
          "duration": 0.001096489583346738
        },
        {
          "name": "C#5",
          "midi": 73,
          "time": 303.68375500001,
          "velocity": 0.7874015748031497,
          "duration": 0.001096489583346738
        },
        {
          "name": "C#6",
          "midi": 85,
          "time": 303.68375500001,
          "velocity": 0.7874015748031497,
          "duration": 0.001096489583346738
        },
        {
          "name": "C#7",
          "midi": 97,
          "time": 303.68375500001,
          "velocity": 0.7874015748031497,
          "duration": 0.001096489583346738
        },
        {
          "name": "E5",
          "midi": 76,
          "time": 303.94800898959335,
          "velocity": 0.7874015748031497,
          "duration": 0.001096489583346738
        },
        {
          "name": "C6",
          "midi": 84,
          "time": 303.94800898959335,
          "velocity": 0.7874015748031497,
          "duration": 0.001096489583346738
        },
        {
          "name": "E6",
          "midi": 88,
          "time": 303.94800898959335,
          "velocity": 0.7874015748031497,
          "duration": 0.001096489583346738
        },
        {
          "name": "C7",
          "midi": 96,
          "time": 303.94800898959335,
          "velocity": 0.7874015748031497,
          "duration": 0.001096489583346738
        },
        {
          "name": "E7",
          "midi": 100,
          "time": 303.94800898959335,
          "velocity": 0.7874015748031497,
          "duration": 0.001096489583346738
        },
        {
          "name": "E4",
          "midi": 64,
          "time": 304.21007000001003,
          "velocity": 0.7874015748031497,
          "duration": 0.001096489583346738
        },
        {
          "name": "E5",
          "midi": 76,
          "time": 304.21007000001003,
          "velocity": 0.7874015748031497,
          "duration": 0.001096489583346738
        },
        {
          "name": "E6",
          "midi": 88,
          "time": 304.21007000001003,
          "velocity": 0.7874015748031497,
          "duration": 0.001096489583346738
        },
        {
          "name": "E7",
          "midi": 100,
          "time": 304.21007000001003,
          "velocity": 0.7874015748031497,
          "duration": 0.001096489583346738
        },
        {
          "name": "E5",
          "midi": 76,
          "time": 304.47322750001007,
          "velocity": 0.7874015748031497,
          "duration": 0.001096489583346738
        },
        {
          "name": "E6",
          "midi": 88,
          "time": 304.47322750001007,
          "velocity": 0.7874015748031497,
          "duration": 0.001096489583346738
        },
        {
          "name": "C7",
          "midi": 96,
          "time": 304.47322750001007,
          "velocity": 0.7874015748031497,
          "duration": 0.001096489583346738
        },
        {
          "name": "E7",
          "midi": 100,
          "time": 304.47322750001007,
          "velocity": 0.7874015748031497,
          "duration": 0.001096489583346738
        },
        {
          "name": "E6",
          "midi": 88,
          "time": 304.60590273959343,
          "velocity": 0.7874015748031497,
          "duration": 0.001096489583346738
        },
        {
          "name": "C7",
          "midi": 96,
          "time": 304.60590273959343,
          "velocity": 0.7874015748031497,
          "duration": 0.001096489583346738
        },
        {
          "name": "E7",
          "midi": 100,
          "time": 304.60590273959343,
          "velocity": 0.7874015748031497,
          "duration": 0.001096489583346738
        },
        {
          "name": "C#4",
          "midi": 61,
          "time": 304.7363850000101,
          "velocity": 0.7874015748031497,
          "duration": 0.001096489583346738
        },
        {
          "name": "C#5",
          "midi": 73,
          "time": 304.7363850000101,
          "velocity": 0.7874015748031497,
          "duration": 0.001096489583346738
        },
        {
          "name": "C#6",
          "midi": 85,
          "time": 304.7363850000101,
          "velocity": 0.7874015748031497,
          "duration": 0.001096489583346738
        },
        {
          "name": "C#7",
          "midi": 97,
          "time": 304.7363850000101,
          "velocity": 0.7874015748031497,
          "duration": 0.001096489583346738
        },
        {
          "name": "E7",
          "midi": 100,
          "time": 304.8679637500101,
          "velocity": 0.7874015748031497,
          "duration": 0.001096489583346738
        },
        {
          "name": "E5",
          "midi": 76,
          "time": 304.99954250001014,
          "velocity": 0.7874015748031497,
          "duration": 0.001096489583346738
        },
        {
          "name": "E6",
          "midi": 88,
          "time": 304.99954250001014,
          "velocity": 0.7874015748031497,
          "duration": 0.001096489583346738
        },
        {
          "name": "C7",
          "midi": 96,
          "time": 304.99954250001014,
          "velocity": 0.7874015748031497,
          "duration": 0.001096489583346738
        },
        {
          "name": "E7",
          "midi": 100,
          "time": 304.99954250001014,
          "velocity": 0.7874015748031497,
          "duration": 0.001096489583346738
        },
        {
          "name": "E4",
          "midi": 64,
          "time": 305.26270000001017,
          "velocity": 0.7874015748031497,
          "duration": 0.001096489583346738
        },
        {
          "name": "C5",
          "midi": 72,
          "time": 305.26270000001017,
          "velocity": 0.7874015748031497,
          "duration": 0.001096489583346738
        },
        {
          "name": "E5",
          "midi": 76,
          "time": 305.26270000001017,
          "velocity": 0.7874015748031497,
          "duration": 0.001096489583346738
        },
        {
          "name": "C6",
          "midi": 84,
          "time": 305.26270000001017,
          "velocity": 0.7874015748031497,
          "duration": 0.001096489583346738
        },
        {
          "name": "E6",
          "midi": 88,
          "time": 305.26270000001017,
          "velocity": 0.7874015748031497,
          "duration": 0.001096489583346738
        },
        {
          "name": "C7",
          "midi": 96,
          "time": 305.26270000001017,
          "velocity": 0.7874015748031497,
          "duration": 0.001096489583346738
        },
        {
          "name": "E7",
          "midi": 100,
          "time": 305.26270000001017,
          "velocity": 0.7874015748031497,
          "duration": 0.001096489583346738
        },
        {
          "name": "E5",
          "midi": 76,
          "time": 305.52476101042686,
          "velocity": 0.7874015748031497,
          "duration": 0.001096489583346738
        },
        {
          "name": "E6",
          "midi": 88,
          "time": 305.52476101042686,
          "velocity": 0.7874015748031497,
          "duration": 0.001096489583346738
        },
        {
          "name": "C7",
          "midi": 96,
          "time": 305.52476101042686,
          "velocity": 0.7874015748031497,
          "duration": 0.001096489583346738
        },
        {
          "name": "E7",
          "midi": 100,
          "time": 305.52476101042686,
          "velocity": 0.7874015748031497,
          "duration": 0.001096489583346738
        },
        {
          "name": "E6",
          "midi": 88,
          "time": 305.6574362500102,
          "velocity": 0.7874015748031497,
          "duration": 0.001096489583346738
        },
        {
          "name": "C7",
          "midi": 96,
          "time": 305.6574362500102,
          "velocity": 0.7874015748031497,
          "duration": 0.001096489583346738
        },
        {
          "name": "E7",
          "midi": 100,
          "time": 305.6574362500102,
          "velocity": 0.7874015748031497,
          "duration": 0.001096489583346738
        },
        {
          "name": "C#4",
          "midi": 61,
          "time": 305.78901500001024,
          "velocity": 0.7874015748031497,
          "duration": 0.001096489583346738
        },
        {
          "name": "C#5",
          "midi": 73,
          "time": 305.78901500001024,
          "velocity": 0.7874015748031497,
          "duration": 0.001096489583346738
        },
        {
          "name": "C#6",
          "midi": 85,
          "time": 305.78901500001024,
          "velocity": 0.7874015748031497,
          "duration": 0.001096489583346738
        },
        {
          "name": "C#7",
          "midi": 97,
          "time": 305.78901500001024,
          "velocity": 0.7874015748031497,
          "duration": 0.001096489583346738
        },
        {
          "name": "E5",
          "midi": 76,
          "time": 306.05326898959356,
          "velocity": 0.7874015748031497,
          "duration": 0.001096489583346738
        },
        {
          "name": "C6",
          "midi": 84,
          "time": 306.05326898959356,
          "velocity": 0.7874015748031497,
          "duration": 0.001096489583346738
        },
        {
          "name": "E6",
          "midi": 88,
          "time": 306.05326898959356,
          "velocity": 0.7874015748031497,
          "duration": 0.001096489583346738
        },
        {
          "name": "C7",
          "midi": 96,
          "time": 306.05326898959356,
          "velocity": 0.7874015748031497,
          "duration": 0.001096489583346738
        },
        {
          "name": "E7",
          "midi": 100,
          "time": 306.05326898959356,
          "velocity": 0.7874015748031497,
          "duration": 0.001096489583346738
        },
        {
          "name": "G#8",
          "midi": 116,
          "time": 306.31533000001025,
          "velocity": 0.7874015748031497,
          "duration": 1.1184193750000873
        },
        {
          "name": "C#4",
          "midi": 61,
          "time": 306.31533000001025,
          "velocity": 0.7874015748031497,
          "duration": 0.001096489583346738
        },
        {
          "name": "C#5",
          "midi": 73,
          "time": 306.31533000001025,
          "velocity": 0.7874015748031497,
          "duration": 0.001096489583346738
        },
        {
          "name": "C#6",
          "midi": 85,
          "time": 306.31533000001025,
          "velocity": 0.7874015748031497,
          "duration": 0.001096489583346738
        },
        {
          "name": "C#7",
          "midi": 97,
          "time": 306.31533000001025,
          "velocity": 0.7874015748031497,
          "duration": 0.001096489583346738
        },
        {
          "name": "C#6",
          "midi": 85,
          "time": 306.44690875001027,
          "velocity": 0.7874015748031497,
          "duration": 0.001096489583346738
        },
        {
          "name": "C#7",
          "midi": 97,
          "time": 306.44690875001027,
          "velocity": 0.7874015748031497,
          "duration": 0.001096489583346738
        },
        {
          "name": "D#5",
          "midi": 75,
          "time": 306.57958398959363,
          "velocity": 0.7874015748031497,
          "duration": 0.001096489583346738
        },
        {
          "name": "D#6",
          "midi": 87,
          "time": 306.57958398959363,
          "velocity": 0.7874015748031497,
          "duration": 0.001096489583346738
        },
        {
          "name": "D#7",
          "midi": 99,
          "time": 306.57958398959363,
          "velocity": 0.7874015748031497,
          "duration": 0.001096489583346738
        },
        {
          "name": "D#7",
          "midi": 99,
          "time": 306.7100662500103,
          "velocity": 0.7874015748031497,
          "duration": 0.001096489583346738
        },
        {
          "name": "C#6",
          "midi": 85,
          "time": 306.8416450000103,
          "velocity": 0.7874015748031497,
          "duration": 0.001096489583346738
        },
        {
          "name": "C#7",
          "midi": 97,
          "time": 306.8416450000103,
          "velocity": 0.7874015748031497,
          "duration": 0.001096489583346738
        },
        {
          "name": "D4",
          "midi": 62,
          "time": 306.97322375001033,
          "velocity": 0.7874015748031497,
          "duration": 0.001096489583346738
        },
        {
          "name": "D5",
          "midi": 74,
          "time": 306.97322375001033,
          "velocity": 0.7874015748031497,
          "duration": 0.001096489583346738
        },
        {
          "name": "C6",
          "midi": 84,
          "time": 306.97322375001033,
          "velocity": 0.7874015748031497,
          "duration": 0.001096489583346738
        },
        {
          "name": "D6",
          "midi": 86,
          "time": 306.97322375001033,
          "velocity": 0.7874015748031497,
          "duration": 0.001096489583346738
        },
        {
          "name": "C7",
          "midi": 96,
          "time": 306.97322375001033,
          "velocity": 0.7874015748031497,
          "duration": 0.001096489583346738
        },
        {
          "name": "D7",
          "midi": 98,
          "time": 306.97322375001033,
          "velocity": 0.7874015748031497,
          "duration": 0.001096489583346738
        },
        {
          "name": "D4",
          "midi": 62,
          "time": 307.3679600000103,
          "velocity": 0.7874015748031497,
          "duration": 0.001096489583346738
        },
        {
          "name": "C5",
          "midi": 72,
          "time": 307.3679600000103,
          "velocity": 0.7874015748031497,
          "duration": 0.001096489583346738
        },
        {
          "name": "D5",
          "midi": 74,
          "time": 307.3679600000103,
          "velocity": 0.7874015748031497,
          "duration": 0.001096489583346738
        },
        {
          "name": "C6",
          "midi": 84,
          "time": 307.3679600000103,
          "velocity": 0.7874015748031497,
          "duration": 0.001096489583346738
        },
        {
          "name": "D6",
          "midi": 86,
          "time": 307.3679600000103,
          "velocity": 0.7874015748031497,
          "duration": 0.001096489583346738
        },
        {
          "name": "C7",
          "midi": 96,
          "time": 307.3679600000103,
          "velocity": 0.7874015748031497,
          "duration": 0.001096489583346738
        },
        {
          "name": "D7",
          "midi": 98,
          "time": 307.3679600000103,
          "velocity": 0.7874015748031497,
          "duration": 0.001096489583346738
        },
        {
          "name": "C#4",
          "midi": 61,
          "time": 307.89427500001034,
          "velocity": 0.7874015748031497,
          "duration": 0.001096489583346738
        },
        {
          "name": "C#5",
          "midi": 73,
          "time": 307.89427500001034,
          "velocity": 0.7874015748031497,
          "duration": 0.001096489583346738
        },
        {
          "name": "C#6",
          "midi": 85,
          "time": 307.89427500001034,
          "velocity": 0.7874015748031497,
          "duration": 0.001096489583346738
        },
        {
          "name": "C#7",
          "midi": 97,
          "time": 307.89427500001034,
          "velocity": 0.7874015748031497,
          "duration": 0.001096489583346738
        },
        {
          "name": "E5",
          "midi": 76,
          "time": 308.15852898959366,
          "velocity": 0.7874015748031497,
          "duration": 0.001096489583346738
        },
        {
          "name": "C6",
          "midi": 84,
          "time": 308.15852898959366,
          "velocity": 0.7874015748031497,
          "duration": 0.001096489583346738
        },
        {
          "name": "E6",
          "midi": 88,
          "time": 308.15852898959366,
          "velocity": 0.7874015748031497,
          "duration": 0.001096489583346738
        },
        {
          "name": "C7",
          "midi": 96,
          "time": 308.15852898959366,
          "velocity": 0.7874015748031497,
          "duration": 0.001096489583346738
        },
        {
          "name": "E7",
          "midi": 100,
          "time": 308.15852898959366,
          "velocity": 0.7874015748031497,
          "duration": 0.001096489583346738
        },
        {
          "name": "E4",
          "midi": 64,
          "time": 308.42059000001035,
          "velocity": 0.7874015748031497,
          "duration": 0.001096489583346738
        },
        {
          "name": "E5",
          "midi": 76,
          "time": 308.42059000001035,
          "velocity": 0.7874015748031497,
          "duration": 0.001096489583346738
        },
        {
          "name": "E6",
          "midi": 88,
          "time": 308.42059000001035,
          "velocity": 0.7874015748031497,
          "duration": 0.001096489583346738
        },
        {
          "name": "E7",
          "midi": 100,
          "time": 308.42059000001035,
          "velocity": 0.7874015748031497,
          "duration": 0.001096489583346738
        },
        {
          "name": "E5",
          "midi": 76,
          "time": 308.6837475000104,
          "velocity": 0.7874015748031497,
          "duration": 0.001096489583346738
        },
        {
          "name": "E6",
          "midi": 88,
          "time": 308.6837475000104,
          "velocity": 0.7874015748031497,
          "duration": 0.001096489583346738
        },
        {
          "name": "C7",
          "midi": 96,
          "time": 308.6837475000104,
          "velocity": 0.7874015748031497,
          "duration": 0.001096489583346738
        },
        {
          "name": "E7",
          "midi": 100,
          "time": 308.6837475000104,
          "velocity": 0.7874015748031497,
          "duration": 0.001096489583346738
        },
        {
          "name": "E6",
          "midi": 88,
          "time": 308.81642273959375,
          "velocity": 0.7874015748031497,
          "duration": 0.001096489583346738
        },
        {
          "name": "C7",
          "midi": 96,
          "time": 308.81642273959375,
          "velocity": 0.7874015748031497,
          "duration": 0.001096489583346738
        },
        {
          "name": "E7",
          "midi": 100,
          "time": 308.81642273959375,
          "velocity": 0.7874015748031497,
          "duration": 0.001096489583346738
        },
        {
          "name": "C#4",
          "midi": 61,
          "time": 308.9469050000104,
          "velocity": 0.7874015748031497,
          "duration": 0.001096489583346738
        },
        {
          "name": "C#5",
          "midi": 73,
          "time": 308.9469050000104,
          "velocity": 0.7874015748031497,
          "duration": 0.001096489583346738
        },
        {
          "name": "C#6",
          "midi": 85,
          "time": 308.9469050000104,
          "velocity": 0.7874015748031497,
          "duration": 0.001096489583346738
        },
        {
          "name": "C#7",
          "midi": 97,
          "time": 308.9469050000104,
          "velocity": 0.7874015748031497,
          "duration": 0.001096489583346738
        },
        {
          "name": "E7",
          "midi": 100,
          "time": 309.07848375001043,
          "velocity": 0.7874015748031497,
          "duration": 0.001096489583346738
        },
        {
          "name": "E5",
          "midi": 76,
          "time": 309.21006250001045,
          "velocity": 0.7874015748031497,
          "duration": 0.001096489583346738
        },
        {
          "name": "E6",
          "midi": 88,
          "time": 309.21006250001045,
          "velocity": 0.7874015748031497,
          "duration": 0.001096489583346738
        },
        {
          "name": "C7",
          "midi": 96,
          "time": 309.21006250001045,
          "velocity": 0.7874015748031497,
          "duration": 0.001096489583346738
        },
        {
          "name": "E7",
          "midi": 100,
          "time": 309.21006250001045,
          "velocity": 0.7874015748031497,
          "duration": 0.001096489583346738
        },
        {
          "name": "E4",
          "midi": 64,
          "time": 309.4732200000105,
          "velocity": 0.7874015748031497,
          "duration": 0.001096489583346738
        },
        {
          "name": "C5",
          "midi": 72,
          "time": 309.4732200000105,
          "velocity": 0.7874015748031497,
          "duration": 0.001096489583346738
        },
        {
          "name": "E5",
          "midi": 76,
          "time": 309.4732200000105,
          "velocity": 0.7874015748031497,
          "duration": 0.001096489583346738
        },
        {
          "name": "C6",
          "midi": 84,
          "time": 309.4732200000105,
          "velocity": 0.7874015748031497,
          "duration": 0.001096489583346738
        },
        {
          "name": "E6",
          "midi": 88,
          "time": 309.4732200000105,
          "velocity": 0.7874015748031497,
          "duration": 0.001096489583346738
        },
        {
          "name": "C7",
          "midi": 96,
          "time": 309.4732200000105,
          "velocity": 0.7874015748031497,
          "duration": 0.001096489583346738
        },
        {
          "name": "E7",
          "midi": 100,
          "time": 309.4732200000105,
          "velocity": 0.7874015748031497,
          "duration": 0.001096489583346738
        },
        {
          "name": "E5",
          "midi": 76,
          "time": 309.7352810104272,
          "velocity": 0.7874015748031497,
          "duration": 0.001096489583346738
        },
        {
          "name": "E6",
          "midi": 88,
          "time": 309.7352810104272,
          "velocity": 0.7874015748031497,
          "duration": 0.001096489583346738
        },
        {
          "name": "C7",
          "midi": 96,
          "time": 309.7352810104272,
          "velocity": 0.7874015748031497,
          "duration": 0.001096489583346738
        },
        {
          "name": "E7",
          "midi": 100,
          "time": 309.7352810104272,
          "velocity": 0.7874015748031497,
          "duration": 0.001096489583346738
        },
        {
          "name": "E6",
          "midi": 88,
          "time": 309.86795625001054,
          "velocity": 0.7874015748031497,
          "duration": 0.001096489583346738
        },
        {
          "name": "C7",
          "midi": 96,
          "time": 309.86795625001054,
          "velocity": 0.7874015748031497,
          "duration": 0.001096489583346738
        },
        {
          "name": "E7",
          "midi": 100,
          "time": 309.86795625001054,
          "velocity": 0.7874015748031497,
          "duration": 0.001096489583346738
        },
        {
          "name": "C#4",
          "midi": 61,
          "time": 309.99953500001055,
          "velocity": 0.7874015748031497,
          "duration": 0.001096489583346738
        },
        {
          "name": "C#5",
          "midi": 73,
          "time": 309.99953500001055,
          "velocity": 0.7874015748031497,
          "duration": 0.001096489583346738
        },
        {
          "name": "C#6",
          "midi": 85,
          "time": 309.99953500001055,
          "velocity": 0.7874015748031497,
          "duration": 0.001096489583346738
        },
        {
          "name": "C#7",
          "midi": 97,
          "time": 309.99953500001055,
          "velocity": 0.7874015748031497,
          "duration": 0.001096489583346738
        },
        {
          "name": "E5",
          "midi": 76,
          "time": 310.2626925000106,
          "velocity": 0.7874015748031497,
          "duration": 0.001096489583346738
        },
        {
          "name": "C6",
          "midi": 84,
          "time": 310.2626925000106,
          "velocity": 0.7874015748031497,
          "duration": 0.001096489583346738
        },
        {
          "name": "E6",
          "midi": 88,
          "time": 310.2626925000106,
          "velocity": 0.7874015748031497,
          "duration": 0.001096489583346738
        },
        {
          "name": "C7",
          "midi": 96,
          "time": 310.2626925000106,
          "velocity": 0.7874015748031497,
          "duration": 0.001096489583346738
        },
        {
          "name": "E7",
          "midi": 100,
          "time": 310.2626925000106,
          "velocity": 0.7874015748031497,
          "duration": 0.001096489583346738
        },
        {
          "name": "E4",
          "midi": 64,
          "time": 310.5258500000106,
          "velocity": 0.7874015748031497,
          "duration": 0.001096489583346738
        },
        {
          "name": "E5",
          "midi": 76,
          "time": 310.5258500000106,
          "velocity": 0.7874015748031497,
          "duration": 0.001096489583346738
        },
        {
          "name": "E6",
          "midi": 88,
          "time": 310.5258500000106,
          "velocity": 0.7874015748031497,
          "duration": 0.001096489583346738
        },
        {
          "name": "E7",
          "midi": 100,
          "time": 310.5258500000106,
          "velocity": 0.7874015748031497,
          "duration": 0.001096489583346738
        },
        {
          "name": "E5",
          "midi": 76,
          "time": 310.79010398959394,
          "velocity": 0.7874015748031497,
          "duration": 0.001096489583346738
        },
        {
          "name": "E6",
          "midi": 88,
          "time": 310.79010398959394,
          "velocity": 0.7874015748031497,
          "duration": 0.001096489583346738
        },
        {
          "name": "C7",
          "midi": 96,
          "time": 310.79010398959394,
          "velocity": 0.7874015748031497,
          "duration": 0.001096489583346738
        },
        {
          "name": "E7",
          "midi": 100,
          "time": 310.79010398959394,
          "velocity": 0.7874015748031497,
          "duration": 0.001096489583346738
        },
        {
          "name": "E6",
          "midi": 88,
          "time": 310.9205862500106,
          "velocity": 0.7874015748031497,
          "duration": 0.001096489583346738
        },
        {
          "name": "C7",
          "midi": 96,
          "time": 310.9205862500106,
          "velocity": 0.7874015748031497,
          "duration": 0.001096489583346738
        },
        {
          "name": "E7",
          "midi": 100,
          "time": 310.9205862500106,
          "velocity": 0.7874015748031497,
          "duration": 0.001096489583346738
        },
        {
          "name": "C#4",
          "midi": 61,
          "time": 311.05216500001063,
          "velocity": 0.7874015748031497,
          "duration": 0.001096489583346738
        },
        {
          "name": "C#5",
          "midi": 73,
          "time": 311.05216500001063,
          "velocity": 0.7874015748031497,
          "duration": 0.001096489583346738
        },
        {
          "name": "C#6",
          "midi": 85,
          "time": 311.05216500001063,
          "velocity": 0.7874015748031497,
          "duration": 0.001096489583346738
        },
        {
          "name": "C#7",
          "midi": 97,
          "time": 311.05216500001063,
          "velocity": 0.7874015748031497,
          "duration": 0.001096489583346738
        },
        {
          "name": "E7",
          "midi": 100,
          "time": 311.18374375001065,
          "velocity": 0.7874015748031497,
          "duration": 0.001096489583346738
        },
        {
          "name": "E5",
          "midi": 76,
          "time": 311.3142260104273,
          "velocity": 0.7874015748031497,
          "duration": 0.001096489583346738
        },
        {
          "name": "E6",
          "midi": 88,
          "time": 311.3142260104273,
          "velocity": 0.7874015748031497,
          "duration": 0.001096489583346738
        },
        {
          "name": "C7",
          "midi": 96,
          "time": 311.3142260104273,
          "velocity": 0.7874015748031497,
          "duration": 0.001096489583346738
        },
        {
          "name": "E7",
          "midi": 100,
          "time": 311.3142260104273,
          "velocity": 0.7874015748031497,
          "duration": 0.001096489583346738
        },
        {
          "name": "C4",
          "midi": 60,
          "time": 311.57848000001064,
          "velocity": 0.7874015748031497,
          "duration": 0.001096489583346738
        },
        {
          "name": "C5",
          "midi": 72,
          "time": 311.57848000001064,
          "velocity": 0.7874015748031497,
          "duration": 0.001096489583346738
        },
        {
          "name": "E5",
          "midi": 76,
          "time": 311.57848000001064,
          "velocity": 0.7874015748031497,
          "duration": 0.001096489583346738
        },
        {
          "name": "C6",
          "midi": 84,
          "time": 311.57848000001064,
          "velocity": 0.7874015748031497,
          "duration": 0.001096489583346738
        },
        {
          "name": "E6",
          "midi": 88,
          "time": 311.57848000001064,
          "velocity": 0.7874015748031497,
          "duration": 0.001096489583346738
        },
        {
          "name": "C7",
          "midi": 96,
          "time": 311.57848000001064,
          "velocity": 0.7874015748031497,
          "duration": 0.001096489583346738
        },
        {
          "name": "E7",
          "midi": 100,
          "time": 311.57848000001064,
          "velocity": 0.7874015748031497,
          "duration": 0.001096489583346738
        },
        {
          "name": "E5",
          "midi": 76,
          "time": 311.8416375000107,
          "velocity": 0.7874015748031497,
          "duration": 0.001096489583346738
        },
        {
          "name": "E6",
          "midi": 88,
          "time": 311.8416375000107,
          "velocity": 0.7874015748031497,
          "duration": 0.001096489583346738
        },
        {
          "name": "C7",
          "midi": 96,
          "time": 311.8416375000107,
          "velocity": 0.7874015748031497,
          "duration": 0.001096489583346738
        },
        {
          "name": "E7",
          "midi": 100,
          "time": 311.8416375000107,
          "velocity": 0.7874015748031497,
          "duration": 0.001096489583346738
        },
        {
          "name": "E6",
          "midi": 88,
          "time": 311.9732162500107,
          "velocity": 0.7874015748031497,
          "duration": 0.001096489583346738
        },
        {
          "name": "C7",
          "midi": 96,
          "time": 311.9732162500107,
          "velocity": 0.7874015748031497,
          "duration": 0.001096489583346738
        },
        {
          "name": "E7",
          "midi": 100,
          "time": 311.9732162500107,
          "velocity": 0.7874015748031497,
          "duration": 0.001096489583346738
        },
        {
          "name": "C#4",
          "midi": 61,
          "time": 312.1047950000107,
          "velocity": 0.7874015748031497,
          "duration": 0.001096489583346738
        },
        {
          "name": "C#5",
          "midi": 73,
          "time": 312.1047950000107,
          "velocity": 0.7874015748031497,
          "duration": 0.001096489583346738
        },
        {
          "name": "C#6",
          "midi": 85,
          "time": 312.1047950000107,
          "velocity": 0.7874015748031497,
          "duration": 0.001096489583346738
        },
        {
          "name": "C#7",
          "midi": 97,
          "time": 312.1047950000107,
          "velocity": 0.7874015748031497,
          "duration": 0.001096489583346738
        },
        {
          "name": "E5",
          "midi": 76,
          "time": 312.36904898959403,
          "velocity": 0.7874015748031497,
          "duration": 0.001096489583346738
        },
        {
          "name": "C6",
          "midi": 84,
          "time": 312.36904898959403,
          "velocity": 0.7874015748031497,
          "duration": 0.001096489583346738
        },
        {
          "name": "E6",
          "midi": 88,
          "time": 312.36904898959403,
          "velocity": 0.7874015748031497,
          "duration": 0.001096489583346738
        },
        {
          "name": "C7",
          "midi": 96,
          "time": 312.36904898959403,
          "velocity": 0.7874015748031497,
          "duration": 0.001096489583346738
        },
        {
          "name": "E7",
          "midi": 100,
          "time": 312.36904898959403,
          "velocity": 0.7874015748031497,
          "duration": 0.001096489583346738
        },
        {
          "name": "E4",
          "midi": 64,
          "time": 312.6311100000107,
          "velocity": 0.7874015748031497,
          "duration": 0.001096489583346738
        },
        {
          "name": "E5",
          "midi": 76,
          "time": 312.6311100000107,
          "velocity": 0.7874015748031497,
          "duration": 0.001096489583346738
        },
        {
          "name": "E6",
          "midi": 88,
          "time": 312.6311100000107,
          "velocity": 0.7874015748031497,
          "duration": 0.001096489583346738
        },
        {
          "name": "E7",
          "midi": 100,
          "time": 312.6311100000107,
          "velocity": 0.7874015748031497,
          "duration": 0.001096489583346738
        },
        {
          "name": "E5",
          "midi": 76,
          "time": 312.89426750001076,
          "velocity": 0.7874015748031497,
          "duration": 0.001096489583346738
        },
        {
          "name": "E6",
          "midi": 88,
          "time": 312.89426750001076,
          "velocity": 0.7874015748031497,
          "duration": 0.001096489583346738
        },
        {
          "name": "C7",
          "midi": 96,
          "time": 312.89426750001076,
          "velocity": 0.7874015748031497,
          "duration": 0.001096489583346738
        },
        {
          "name": "E7",
          "midi": 100,
          "time": 312.89426750001076,
          "velocity": 0.7874015748031497,
          "duration": 0.001096489583346738
        },
        {
          "name": "E6",
          "midi": 88,
          "time": 313.0258462500108,
          "velocity": 0.7874015748031497,
          "duration": 0.001096489583346738
        },
        {
          "name": "C7",
          "midi": 96,
          "time": 313.0258462500108,
          "velocity": 0.7874015748031497,
          "duration": 0.001096489583346738
        },
        {
          "name": "E7",
          "midi": 100,
          "time": 313.0258462500108,
          "velocity": 0.7874015748031497,
          "duration": 0.001096489583346738
        },
        {
          "name": "C#4",
          "midi": 61,
          "time": 313.1574250000108,
          "velocity": 0.7874015748031497,
          "duration": 0.001096489583346738
        },
        {
          "name": "C#5",
          "midi": 73,
          "time": 313.1574250000108,
          "velocity": 0.7874015748031497,
          "duration": 0.001096489583346738
        },
        {
          "name": "C#6",
          "midi": 85,
          "time": 313.1574250000108,
          "velocity": 0.7874015748031497,
          "duration": 0.001096489583346738
        },
        {
          "name": "C#7",
          "midi": 97,
          "time": 313.1574250000108,
          "velocity": 0.7874015748031497,
          "duration": 0.001096489583346738
        },
        {
          "name": "E5",
          "midi": 76,
          "time": 313.4205825000108,
          "velocity": 0.7874015748031497,
          "duration": 0.001096489583346738
        },
        {
          "name": "E6",
          "midi": 88,
          "time": 313.4205825000108,
          "velocity": 0.7874015748031497,
          "duration": 0.001096489583346738
        },
        {
          "name": "C7",
          "midi": 96,
          "time": 313.4205825000108,
          "velocity": 0.7874015748031497,
          "duration": 0.001096489583346738
        },
        {
          "name": "E7",
          "midi": 100,
          "time": 313.4205825000108,
          "velocity": 0.7874015748031497,
          "duration": 0.001096489583346738
        },
        {
          "name": "D#4",
          "midi": 63,
          "time": 313.68374000001086,
          "velocity": 0.7874015748031497,
          "duration": 0.001096489583346738
        },
        {
          "name": "D#5",
          "midi": 75,
          "time": 313.68374000001086,
          "velocity": 0.7874015748031497,
          "duration": 0.001096489583346738
        },
        {
          "name": "D#6",
          "midi": 87,
          "time": 313.68374000001086,
          "velocity": 0.7874015748031497,
          "duration": 0.001096489583346738
        },
        {
          "name": "C7",
          "midi": 96,
          "time": 313.68374000001086,
          "velocity": 0.7874015748031497,
          "duration": 0.001096489583346738
        },
        {
          "name": "D#7",
          "midi": 99,
          "time": 313.68374000001086,
          "velocity": 0.7874015748031497,
          "duration": 0.001096489583346738
        },
        {
          "name": "C#7",
          "midi": 97,
          "time": 313.8164152395942,
          "velocity": 0.7874015748031497,
          "duration": 0.001096489583346738
        },
        {
          "name": "C#7",
          "midi": 97,
          "time": 313.9468975000109,
          "velocity": 0.7874015748031497,
          "duration": 0.001096489583346738
        },
        {
          "name": "D#5",
          "midi": 75,
          "time": 314.07737976042756,
          "velocity": 0.7874015748031497,
          "duration": 0.001096489583346738
        },
        {
          "name": "D#6",
          "midi": 87,
          "time": 314.07737976042756,
          "velocity": 0.7874015748031497,
          "duration": 0.001096489583346738
        },
        {
          "name": "D#7",
          "midi": 99,
          "time": 314.07737976042756,
          "velocity": 0.7874015748031497,
          "duration": 0.001096489583346738
        },
        {
          "name": "C#4",
          "midi": 61,
          "time": 314.2100550000109,
          "velocity": 0.7874015748031497,
          "duration": 0.001096489583346738
        },
        {
          "name": "C#7",
          "midi": 97,
          "time": 314.2100550000109,
          "velocity": 0.7874015748031497,
          "duration": 0.001096489583346738
        },
        {
          "name": "C#7",
          "midi": 97,
          "time": 314.34163375001094,
          "velocity": 0.7874015748031497,
          "duration": 0.001096489583346738
        },
        {
          "name": "F5",
          "midi": 77,
          "time": 314.4743089895943,
          "velocity": 0.7874015748031497,
          "duration": 0.001096489583346738
        },
        {
          "name": "F6",
          "midi": 89,
          "time": 314.4743089895943,
          "velocity": 0.7874015748031497,
          "duration": 0.001096489583346738
        },
        {
          "name": "F7",
          "midi": 101,
          "time": 314.4743089895943,
          "velocity": 0.7874015748031497,
          "duration": 0.001096489583346738
        },
        {
          "name": "C#7",
          "midi": 97,
          "time": 314.604791250011,
          "velocity": 0.7874015748031497,
          "duration": 0.001096489583346738
        },
        {
          "name": "C#4",
          "midi": 61,
          "time": 314.736370000011,
          "velocity": 0.7874015748031497,
          "duration": 0.001096489583346738
        },
        {
          "name": "C#5",
          "midi": 73,
          "time": 314.736370000011,
          "velocity": 0.7874015748031497,
          "duration": 0.001096489583346738
        },
        {
          "name": "C#6",
          "midi": 85,
          "time": 314.736370000011,
          "velocity": 0.7874015748031497,
          "duration": 0.001096489583346738
        },
        {
          "name": "C#7",
          "midi": 97,
          "time": 314.736370000011,
          "velocity": 0.7874015748031497,
          "duration": 0.001096489583346738
        },
        {
          "name": "C#7",
          "midi": 97,
          "time": 314.86904523959436,
          "velocity": 0.7874015748031497,
          "duration": 0.001096489583346738
        },
        {
          "name": "C#6",
          "midi": 85,
          "time": 315.0006239895944,
          "velocity": 0.7874015748031497,
          "duration": 0.001096489583346738
        },
        {
          "name": "C#7",
          "midi": 97,
          "time": 315.0006239895944,
          "velocity": 0.7874015748031497,
          "duration": 0.001096489583346738
        },
        {
          "name": "D5",
          "midi": 74,
          "time": 315.13110625001104,
          "velocity": 0.7874015748031497,
          "duration": 0.001096489583346738
        },
        {
          "name": "C6",
          "midi": 84,
          "time": 315.13110625001104,
          "velocity": 0.7874015748031497,
          "duration": 0.001096489583346738
        },
        {
          "name": "D6",
          "midi": 86,
          "time": 315.13110625001104,
          "velocity": 0.7874015748031497,
          "duration": 0.001096489583346738
        },
        {
          "name": "C7",
          "midi": 96,
          "time": 315.13110625001104,
          "velocity": 0.7874015748031497,
          "duration": 0.001096489583346738
        },
        {
          "name": "D7",
          "midi": 98,
          "time": 315.13110625001104,
          "velocity": 0.7874015748031497,
          "duration": 0.001096489583346738
        },
        {
          "name": "C#4",
          "midi": 61,
          "time": 315.26268500001106,
          "velocity": 0.7874015748031497,
          "duration": 0.001096489583346738
        },
        {
          "name": "C#7",
          "midi": 97,
          "time": 315.26268500001106,
          "velocity": 0.7874015748031497,
          "duration": 0.001096489583346738
        },
        {
          "name": "D5",
          "midi": 74,
          "time": 315.3942637500111,
          "velocity": 0.7874015748031497,
          "duration": 0.001096489583346738
        },
        {
          "name": "C6",
          "midi": 84,
          "time": 315.3942637500111,
          "velocity": 0.7874015748031497,
          "duration": 0.001096489583346738
        },
        {
          "name": "D6",
          "midi": 86,
          "time": 315.3942637500111,
          "velocity": 0.7874015748031497,
          "duration": 0.001096489583346738
        },
        {
          "name": "C7",
          "midi": 96,
          "time": 315.3942637500111,
          "velocity": 0.7874015748031497,
          "duration": 0.001096489583346738
        },
        {
          "name": "D7",
          "midi": 98,
          "time": 315.3942637500111,
          "velocity": 0.7874015748031497,
          "duration": 0.001096489583346738
        },
        {
          "name": "C#7",
          "midi": 97,
          "time": 315.5258425000111,
          "velocity": 0.7874015748031497,
          "duration": 0.001096489583346738
        },
        {
          "name": "C#6",
          "midi": 85,
          "time": 315.6574212500111,
          "velocity": 0.7874015748031497,
          "duration": 0.001096489583346738
        },
        {
          "name": "C#7",
          "midi": 97,
          "time": 315.6574212500111,
          "velocity": 0.7874015748031497,
          "duration": 0.001096489583346738
        },
        {
          "name": "D4",
          "midi": 62,
          "time": 315.78900000001113,
          "velocity": 0.7874015748031497,
          "duration": 0.001096489583346738
        },
        {
          "name": "C5",
          "midi": 72,
          "time": 315.78900000001113,
          "velocity": 0.7874015748031497,
          "duration": 0.001096489583346738
        },
        {
          "name": "D5",
          "midi": 74,
          "time": 315.78900000001113,
          "velocity": 0.7874015748031497,
          "duration": 0.001096489583346738
        },
        {
          "name": "C6",
          "midi": 84,
          "time": 315.78900000001113,
          "velocity": 0.7874015748031497,
          "duration": 0.001096489583346738
        },
        {
          "name": "D6",
          "midi": 86,
          "time": 315.78900000001113,
          "velocity": 0.7874015748031497,
          "duration": 0.001096489583346738
        },
        {
          "name": "C7",
          "midi": 96,
          "time": 315.78900000001113,
          "velocity": 0.7874015748031497,
          "duration": 0.001096489583346738
        },
        {
          "name": "D7",
          "midi": 98,
          "time": 315.78900000001113,
          "velocity": 0.7874015748031497,
          "duration": 0.001096489583346738
        },
        {
          "name": "C#4",
          "midi": 61,
          "time": 316.31531500001114,
          "velocity": 0.7874015748031497,
          "duration": 0.001096489583346738
        },
        {
          "name": "C#5",
          "midi": 73,
          "time": 316.31531500001114,
          "velocity": 0.7874015748031497,
          "duration": 0.001096489583346738
        },
        {
          "name": "C#6",
          "midi": 85,
          "time": 316.31531500001114,
          "velocity": 0.7874015748031497,
          "duration": 0.001096489583346738
        },
        {
          "name": "C#7",
          "midi": 97,
          "time": 316.31531500001114,
          "velocity": 0.7874015748031497,
          "duration": 0.001096489583346738
        },
        {
          "name": "E5",
          "midi": 76,
          "time": 316.57956898959446,
          "velocity": 0.7874015748031497,
          "duration": 0.001096489583346738
        },
        {
          "name": "C6",
          "midi": 84,
          "time": 316.57956898959446,
          "velocity": 0.7874015748031497,
          "duration": 0.001096489583346738
        },
        {
          "name": "E6",
          "midi": 88,
          "time": 316.57956898959446,
          "velocity": 0.7874015748031497,
          "duration": 0.001096489583346738
        },
        {
          "name": "C7",
          "midi": 96,
          "time": 316.57956898959446,
          "velocity": 0.7874015748031497,
          "duration": 0.001096489583346738
        },
        {
          "name": "E7",
          "midi": 100,
          "time": 316.57956898959446,
          "velocity": 0.7874015748031497,
          "duration": 0.001096489583346738
        },
        {
          "name": "E4",
          "midi": 64,
          "time": 316.84163000001115,
          "velocity": 0.7874015748031497,
          "duration": 0.001096489583346738
        },
        {
          "name": "E5",
          "midi": 76,
          "time": 316.84163000001115,
          "velocity": 0.7874015748031497,
          "duration": 0.001096489583346738
        },
        {
          "name": "E6",
          "midi": 88,
          "time": 316.84163000001115,
          "velocity": 0.7874015748031497,
          "duration": 0.001096489583346738
        },
        {
          "name": "E7",
          "midi": 100,
          "time": 316.84163000001115,
          "velocity": 0.7874015748031497,
          "duration": 0.001096489583346738
        },
        {
          "name": "E5",
          "midi": 76,
          "time": 317.1047875000112,
          "velocity": 0.7874015748031497,
          "duration": 0.001096489583346738
        },
        {
          "name": "E6",
          "midi": 88,
          "time": 317.1047875000112,
          "velocity": 0.7874015748031497,
          "duration": 0.001096489583346738
        },
        {
          "name": "C7",
          "midi": 96,
          "time": 317.1047875000112,
          "velocity": 0.7874015748031497,
          "duration": 0.001096489583346738
        },
        {
          "name": "E7",
          "midi": 100,
          "time": 317.1047875000112,
          "velocity": 0.7874015748031497,
          "duration": 0.001096489583346738
        },
        {
          "name": "E6",
          "midi": 88,
          "time": 317.23526976042785,
          "velocity": 0.7874015748031497,
          "duration": 0.001096489583346738
        },
        {
          "name": "C7",
          "midi": 96,
          "time": 317.23526976042785,
          "velocity": 0.7874015748031497,
          "duration": 0.001096489583346738
        },
        {
          "name": "E7",
          "midi": 100,
          "time": 317.23526976042785,
          "velocity": 0.7874015748031497,
          "duration": 0.001096489583346738
        },
        {
          "name": "C#4",
          "midi": 61,
          "time": 317.3679450000112,
          "velocity": 0.7874015748031497,
          "duration": 0.001096489583346738
        },
        {
          "name": "C#5",
          "midi": 73,
          "time": 317.3679450000112,
          "velocity": 0.7874015748031497,
          "duration": 0.001096489583346738
        },
        {
          "name": "C#6",
          "midi": 85,
          "time": 317.3679450000112,
          "velocity": 0.7874015748031497,
          "duration": 0.001096489583346738
        },
        {
          "name": "C#7",
          "midi": 97,
          "time": 317.3679450000112,
          "velocity": 0.7874015748031497,
          "duration": 0.001096489583346738
        },
        {
          "name": "E7",
          "midi": 100,
          "time": 317.4984272604279,
          "velocity": 0.7874015748031497,
          "duration": 0.001096489583346738
        },
        {
          "name": "E5",
          "midi": 76,
          "time": 317.63110250001125,
          "velocity": 0.7874015748031497,
          "duration": 0.001096489583346738
        },
        {
          "name": "E6",
          "midi": 88,
          "time": 317.63110250001125,
          "velocity": 0.7874015748031497,
          "duration": 0.001096489583346738
        },
        {
          "name": "C7",
          "midi": 96,
          "time": 317.63110250001125,
          "velocity": 0.7874015748031497,
          "duration": 0.001096489583346738
        },
        {
          "name": "E7",
          "midi": 100,
          "time": 317.63110250001125,
          "velocity": 0.7874015748031497,
          "duration": 0.001096489583346738
        },
        {
          "name": "E4",
          "midi": 64,
          "time": 317.8942600000113,
          "velocity": 0.7874015748031497,
          "duration": 0.001096489583346738
        },
        {
          "name": "C5",
          "midi": 72,
          "time": 317.8942600000113,
          "velocity": 0.7874015748031497,
          "duration": 0.001096489583346738
        },
        {
          "name": "E5",
          "midi": 76,
          "time": 317.8942600000113,
          "velocity": 0.7874015748031497,
          "duration": 0.001096489583346738
        },
        {
          "name": "C6",
          "midi": 84,
          "time": 317.8942600000113,
          "velocity": 0.7874015748031497,
          "duration": 0.001096489583346738
        },
        {
          "name": "E6",
          "midi": 88,
          "time": 317.8942600000113,
          "velocity": 0.7874015748031497,
          "duration": 0.001096489583346738
        },
        {
          "name": "C7",
          "midi": 96,
          "time": 317.8942600000113,
          "velocity": 0.7874015748031497,
          "duration": 0.001096489583346738
        },
        {
          "name": "E7",
          "midi": 100,
          "time": 317.8942600000113,
          "velocity": 0.7874015748031497,
          "duration": 0.001096489583346738
        },
        {
          "name": "E5",
          "midi": 76,
          "time": 318.1574175000113,
          "velocity": 0.7874015748031497,
          "duration": 0.001096489583346738
        },
        {
          "name": "E6",
          "midi": 88,
          "time": 318.1574175000113,
          "velocity": 0.7874015748031497,
          "duration": 0.001096489583346738
        },
        {
          "name": "C7",
          "midi": 96,
          "time": 318.1574175000113,
          "velocity": 0.7874015748031497,
          "duration": 0.001096489583346738
        },
        {
          "name": "E7",
          "midi": 100,
          "time": 318.1574175000113,
          "velocity": 0.7874015748031497,
          "duration": 0.001096489583346738
        },
        {
          "name": "E6",
          "midi": 88,
          "time": 318.2900927395947,
          "velocity": 0.7874015748031497,
          "duration": 0.001096489583346738
        },
        {
          "name": "C7",
          "midi": 96,
          "time": 318.2900927395947,
          "velocity": 0.7874015748031497,
          "duration": 0.001096489583346738
        },
        {
          "name": "E7",
          "midi": 100,
          "time": 318.2900927395947,
          "velocity": 0.7874015748031497,
          "duration": 0.001096489583346738
        },
        {
          "name": "C#4",
          "midi": 61,
          "time": 318.42057500001135,
          "velocity": 0.7874015748031497,
          "duration": 0.001096489583346738
        },
        {
          "name": "C#5",
          "midi": 73,
          "time": 318.42057500001135,
          "velocity": 0.7874015748031497,
          "duration": 0.001096489583346738
        },
        {
          "name": "C#6",
          "midi": 85,
          "time": 318.42057500001135,
          "velocity": 0.7874015748031497,
          "duration": 0.001096489583346738
        },
        {
          "name": "C#7",
          "midi": 97,
          "time": 318.42057500001135,
          "velocity": 0.7874015748031497,
          "duration": 0.001096489583346738
        },
        {
          "name": "E5",
          "midi": 76,
          "time": 318.6848289895947,
          "velocity": 0.7874015748031497,
          "duration": 0.001096489583346738
        },
        {
          "name": "C6",
          "midi": 84,
          "time": 318.6848289895947,
          "velocity": 0.7874015748031497,
          "duration": 0.001096489583346738
        },
        {
          "name": "E6",
          "midi": 88,
          "time": 318.6848289895947,
          "velocity": 0.7874015748031497,
          "duration": 0.001096489583346738
        },
        {
          "name": "C7",
          "midi": 96,
          "time": 318.6848289895947,
          "velocity": 0.7874015748031497,
          "duration": 0.001096489583346738
        },
        {
          "name": "E7",
          "midi": 100,
          "time": 318.6848289895947,
          "velocity": 0.7874015748031497,
          "duration": 0.001096489583346738
        },
        {
          "name": "E4",
          "midi": 64,
          "time": 318.94689000001136,
          "velocity": 0.7874015748031497,
          "duration": 0.001096489583346738
        },
        {
          "name": "E5",
          "midi": 76,
          "time": 318.94689000001136,
          "velocity": 0.7874015748031497,
          "duration": 0.001096489583346738
        },
        {
          "name": "E6",
          "midi": 88,
          "time": 318.94689000001136,
          "velocity": 0.7874015748031497,
          "duration": 0.001096489583346738
        },
        {
          "name": "E7",
          "midi": 100,
          "time": 318.94689000001136,
          "velocity": 0.7874015748031497,
          "duration": 0.001096489583346738
        },
        {
          "name": "E5",
          "midi": 76,
          "time": 319.2111439895947,
          "velocity": 0.7874015748031497,
          "duration": 0.001096489583346738
        },
        {
          "name": "E6",
          "midi": 88,
          "time": 319.2111439895947,
          "velocity": 0.7874015748031497,
          "duration": 0.001096489583346738
        },
        {
          "name": "C7",
          "midi": 96,
          "time": 319.2111439895947,
          "velocity": 0.7874015748031497,
          "duration": 0.001096489583346738
        },
        {
          "name": "E7",
          "midi": 100,
          "time": 319.2111439895947,
          "velocity": 0.7874015748031497,
          "duration": 0.001096489583346738
        },
        {
          "name": "E6",
          "midi": 88,
          "time": 319.34162625001136,
          "velocity": 0.7874015748031497,
          "duration": 0.001096489583346738
        },
        {
          "name": "C7",
          "midi": 96,
          "time": 319.34162625001136,
          "velocity": 0.7874015748031497,
          "duration": 0.001096489583346738
        },
        {
          "name": "E7",
          "midi": 100,
          "time": 319.34162625001136,
          "velocity": 0.7874015748031497,
          "duration": 0.001096489583346738
        },
        {
          "name": "C#4",
          "midi": 61,
          "time": 319.4732050000114,
          "velocity": 0.7874015748031497,
          "duration": 0.001096489583346738
        },
        {
          "name": "C#5",
          "midi": 73,
          "time": 319.4732050000114,
          "velocity": 0.7874015748031497,
          "duration": 0.001096489583346738
        },
        {
          "name": "C#6",
          "midi": 85,
          "time": 319.4732050000114,
          "velocity": 0.7874015748031497,
          "duration": 0.001096489583346738
        },
        {
          "name": "C#7",
          "midi": 97,
          "time": 319.4732050000114,
          "velocity": 0.7874015748031497,
          "duration": 0.001096489583346738
        },
        {
          "name": "E7",
          "midi": 100,
          "time": 319.6047837500114,
          "velocity": 0.7874015748031497,
          "duration": 0.001096489583346738
        },
        {
          "name": "E5",
          "midi": 76,
          "time": 319.73745898959476,
          "velocity": 0.7874015748031497,
          "duration": 0.001096489583346738
        },
        {
          "name": "E6",
          "midi": 88,
          "time": 319.73745898959476,
          "velocity": 0.7874015748031497,
          "duration": 0.001096489583346738
        },
        {
          "name": "C7",
          "midi": 96,
          "time": 319.73745898959476,
          "velocity": 0.7874015748031497,
          "duration": 0.001096489583346738
        },
        {
          "name": "E7",
          "midi": 100,
          "time": 319.73745898959476,
          "velocity": 0.7874015748031497,
          "duration": 0.001096489583346738
        },
        {
          "name": "C4",
          "midi": 60,
          "time": 319.99952000001144,
          "velocity": 0.7874015748031497,
          "duration": 0.001096489583346738
        },
        {
          "name": "C5",
          "midi": 72,
          "time": 319.99952000001144,
          "velocity": 0.7874015748031497,
          "duration": 0.001096489583346738
        },
        {
          "name": "E5",
          "midi": 76,
          "time": 319.99952000001144,
          "velocity": 0.7874015748031497,
          "duration": 0.001096489583346738
        },
        {
          "name": "C6",
          "midi": 84,
          "time": 319.99952000001144,
          "velocity": 0.7874015748031497,
          "duration": 0.001096489583346738
        },
        {
          "name": "E6",
          "midi": 88,
          "time": 319.99952000001144,
          "velocity": 0.7874015748031497,
          "duration": 0.001096489583346738
        },
        {
          "name": "C7",
          "midi": 96,
          "time": 319.99952000001144,
          "velocity": 0.7874015748031497,
          "duration": 0.001096489583346738
        },
        {
          "name": "E7",
          "midi": 100,
          "time": 319.99952000001144,
          "velocity": 0.7874015748031497,
          "duration": 0.001096489583346738
        },
        {
          "name": "E5",
          "midi": 76,
          "time": 320.2626775000115,
          "velocity": 0.7874015748031497,
          "duration": 0.001096489583346738
        },
        {
          "name": "E6",
          "midi": 88,
          "time": 320.2626775000115,
          "velocity": 0.7874015748031497,
          "duration": 0.001096489583346738
        },
        {
          "name": "C7",
          "midi": 96,
          "time": 320.2626775000115,
          "velocity": 0.7874015748031497,
          "duration": 0.001096489583346738
        },
        {
          "name": "E7",
          "midi": 100,
          "time": 320.2626775000115,
          "velocity": 0.7874015748031497,
          "duration": 0.001096489583346738
        },
        {
          "name": "E6",
          "midi": 88,
          "time": 320.3942562500115,
          "velocity": 0.7874015748031497,
          "duration": 0.001096489583346738
        },
        {
          "name": "C7",
          "midi": 96,
          "time": 320.3942562500115,
          "velocity": 0.7874015748031497,
          "duration": 0.001096489583346738
        },
        {
          "name": "E7",
          "midi": 100,
          "time": 320.3942562500115,
          "velocity": 0.7874015748031497,
          "duration": 0.001096489583346738
        },
        {
          "name": "C#4",
          "midi": 61,
          "time": 320.5258350000115,
          "velocity": 0.7874015748031497,
          "duration": 0.001096489583346738
        },
        {
          "name": "C#5",
          "midi": 73,
          "time": 320.5258350000115,
          "velocity": 0.7874015748031497,
          "duration": 0.001096489583346738
        },
        {
          "name": "C#6",
          "midi": 85,
          "time": 320.5258350000115,
          "velocity": 0.7874015748031497,
          "duration": 0.001096489583346738
        },
        {
          "name": "C#7",
          "midi": 97,
          "time": 320.5258350000115,
          "velocity": 0.7874015748031497,
          "duration": 0.001096489583346738
        },
        {
          "name": "E5",
          "midi": 76,
          "time": 320.78899250001155,
          "velocity": 0.7874015748031497,
          "duration": 0.001096489583346738
        },
        {
          "name": "C6",
          "midi": 84,
          "time": 320.78899250001155,
          "velocity": 0.7874015748031497,
          "duration": 0.001096489583346738
        },
        {
          "name": "E6",
          "midi": 88,
          "time": 320.78899250001155,
          "velocity": 0.7874015748031497,
          "duration": 0.001096489583346738
        },
        {
          "name": "C7",
          "midi": 96,
          "time": 320.78899250001155,
          "velocity": 0.7874015748031497,
          "duration": 0.001096489583346738
        },
        {
          "name": "E7",
          "midi": 100,
          "time": 320.78899250001155,
          "velocity": 0.7874015748031497,
          "duration": 0.001096489583346738
        },
        {
          "name": "E4",
          "midi": 64,
          "time": 321.0521500000116,
          "velocity": 0.7874015748031497,
          "duration": 0.001096489583346738
        },
        {
          "name": "E5",
          "midi": 76,
          "time": 321.0521500000116,
          "velocity": 0.7874015748031497,
          "duration": 0.001096489583346738
        },
        {
          "name": "E6",
          "midi": 88,
          "time": 321.0521500000116,
          "velocity": 0.7874015748031497,
          "duration": 0.001096489583346738
        },
        {
          "name": "E7",
          "midi": 100,
          "time": 321.0521500000116,
          "velocity": 0.7874015748031497,
          "duration": 0.001096489583346738
        },
        {
          "name": "E5",
          "midi": 76,
          "time": 321.3153075000116,
          "velocity": 0.7874015748031497,
          "duration": 0.001096489583346738
        },
        {
          "name": "E6",
          "midi": 88,
          "time": 321.3153075000116,
          "velocity": 0.7874015748031497,
          "duration": 0.001096489583346738
        },
        {
          "name": "C7",
          "midi": 96,
          "time": 321.3153075000116,
          "velocity": 0.7874015748031497,
          "duration": 0.001096489583346738
        },
        {
          "name": "E7",
          "midi": 100,
          "time": 321.3153075000116,
          "velocity": 0.7874015748031497,
          "duration": 0.001096489583346738
        },
        {
          "name": "E6",
          "midi": 88,
          "time": 321.447982739595,
          "velocity": 0.7874015748031497,
          "duration": 0.001096489583346738
        },
        {
          "name": "C7",
          "midi": 96,
          "time": 321.447982739595,
          "velocity": 0.7874015748031497,
          "duration": 0.001096489583346738
        },
        {
          "name": "E7",
          "midi": 100,
          "time": 321.447982739595,
          "velocity": 0.7874015748031497,
          "duration": 0.001096489583346738
        },
        {
          "name": "C#4",
          "midi": 61,
          "time": 321.57846500001165,
          "velocity": 0.7874015748031497,
          "duration": 0.001096489583346738
        },
        {
          "name": "C#5",
          "midi": 73,
          "time": 321.57846500001165,
          "velocity": 0.7874015748031497,
          "duration": 0.001096489583346738
        },
        {
          "name": "C#6",
          "midi": 85,
          "time": 321.57846500001165,
          "velocity": 0.7874015748031497,
          "duration": 0.001096489583346738
        },
        {
          "name": "C#7",
          "midi": 97,
          "time": 321.57846500001165,
          "velocity": 0.7874015748031497,
          "duration": 0.001096489583346738
        },
        {
          "name": "E7",
          "midi": 100,
          "time": 321.711140239595,
          "velocity": 0.7874015748031497,
          "duration": 0.001096489583346738
        },
        {
          "name": "E5",
          "midi": 76,
          "time": 321.8416225000117,
          "velocity": 0.7874015748031497,
          "duration": 0.001096489583346738
        },
        {
          "name": "E6",
          "midi": 88,
          "time": 321.8416225000117,
          "velocity": 0.7874015748031497,
          "duration": 0.001096489583346738
        },
        {
          "name": "C7",
          "midi": 96,
          "time": 321.8416225000117,
          "velocity": 0.7874015748031497,
          "duration": 0.001096489583346738
        },
        {
          "name": "E7",
          "midi": 100,
          "time": 321.8416225000117,
          "velocity": 0.7874015748031497,
          "duration": 0.001096489583346738
        },
        {
          "name": "E4",
          "midi": 64,
          "time": 322.1047800000117,
          "velocity": 0.7874015748031497,
          "duration": 0.001096489583346738
        },
        {
          "name": "C5",
          "midi": 72,
          "time": 322.1047800000117,
          "velocity": 0.7874015748031497,
          "duration": 0.001096489583346738
        },
        {
          "name": "E5",
          "midi": 76,
          "time": 322.1047800000117,
          "velocity": 0.7874015748031497,
          "duration": 0.001096489583346738
        },
        {
          "name": "C6",
          "midi": 84,
          "time": 322.1047800000117,
          "velocity": 0.7874015748031497,
          "duration": 0.001096489583346738
        },
        {
          "name": "E6",
          "midi": 88,
          "time": 322.1047800000117,
          "velocity": 0.7874015748031497,
          "duration": 0.001096489583346738
        },
        {
          "name": "C7",
          "midi": 96,
          "time": 322.1047800000117,
          "velocity": 0.7874015748031497,
          "duration": 0.001096489583346738
        },
        {
          "name": "E7",
          "midi": 100,
          "time": 322.1047800000117,
          "velocity": 0.7874015748031497,
          "duration": 0.001096489583346738
        },
        {
          "name": "E5",
          "midi": 76,
          "time": 322.3668410104284,
          "velocity": 0.7874015748031497,
          "duration": 0.001096489583346738
        },
        {
          "name": "E6",
          "midi": 88,
          "time": 322.3668410104284,
          "velocity": 0.7874015748031497,
          "duration": 0.001096489583346738
        },
        {
          "name": "C7",
          "midi": 96,
          "time": 322.3668410104284,
          "velocity": 0.7874015748031497,
          "duration": 0.001096489583346738
        },
        {
          "name": "E7",
          "midi": 100,
          "time": 322.3668410104284,
          "velocity": 0.7874015748031497,
          "duration": 0.001096489583346738
        },
        {
          "name": "E6",
          "midi": 88,
          "time": 322.49951625001177,
          "velocity": 0.7874015748031497,
          "duration": 0.001096489583346738
        },
        {
          "name": "C7",
          "midi": 96,
          "time": 322.49951625001177,
          "velocity": 0.7874015748031497,
          "duration": 0.001096489583346738
        },
        {
          "name": "E7",
          "midi": 100,
          "time": 322.49951625001177,
          "velocity": 0.7874015748031497,
          "duration": 0.001096489583346738
        },
        {
          "name": "C#4",
          "midi": 61,
          "time": 322.6310950000118,
          "velocity": 0.7874015748031497,
          "duration": 0.001096489583346738
        },
        {
          "name": "C#5",
          "midi": 73,
          "time": 322.6310950000118,
          "velocity": 0.7874015748031497,
          "duration": 0.001096489583346738
        },
        {
          "name": "C#6",
          "midi": 85,
          "time": 322.6310950000118,
          "velocity": 0.7874015748031497,
          "duration": 0.001096489583346738
        },
        {
          "name": "C#7",
          "midi": 97,
          "time": 322.6310950000118,
          "velocity": 0.7874015748031497,
          "duration": 0.001096489583346738
        },
        {
          "name": "E5",
          "midi": 76,
          "time": 322.89315601042847,
          "velocity": 0.7874015748031497,
          "duration": 0.001096489583346738
        },
        {
          "name": "C6",
          "midi": 84,
          "time": 322.89315601042847,
          "velocity": 0.7874015748031497,
          "duration": 0.001096489583346738
        },
        {
          "name": "E6",
          "midi": 88,
          "time": 322.89315601042847,
          "velocity": 0.7874015748031497,
          "duration": 0.001096489583346738
        },
        {
          "name": "C7",
          "midi": 96,
          "time": 322.89315601042847,
          "velocity": 0.7874015748031497,
          "duration": 0.001096489583346738
        },
        {
          "name": "E7",
          "midi": 100,
          "time": 322.89315601042847,
          "velocity": 0.7874015748031497,
          "duration": 0.001096489583346738
        },
        {
          "name": "C#5",
          "midi": 73,
          "time": 323.1574100000118,
          "velocity": 0.7874015748031497,
          "duration": 0.001096489583346738
        },
        {
          "name": "C#6",
          "midi": 85,
          "time": 323.1574100000118,
          "velocity": 0.7874015748031497,
          "duration": 0.001096489583346738
        },
        {
          "name": "C#7",
          "midi": 97,
          "time": 323.1574100000118,
          "velocity": 0.7874015748031497,
          "duration": 0.001096489583346738
        },
        {
          "name": "D4",
          "midi": 62,
          "time": 323.29008523959516,
          "velocity": 0.7874015748031497,
          "duration": 0.001096489583346738
        },
        {
          "name": "D5",
          "midi": 74,
          "time": 323.29008523959516,
          "velocity": 0.7874015748031497,
          "duration": 0.001096489583346738
        },
        {
          "name": "C6",
          "midi": 84,
          "time": 323.29008523959516,
          "velocity": 0.7874015748031497,
          "duration": 0.001096489583346738
        },
        {
          "name": "D6",
          "midi": 86,
          "time": 323.29008523959516,
          "velocity": 0.7874015748031497,
          "duration": 0.001096489583346738
        },
        {
          "name": "C7",
          "midi": 96,
          "time": 323.29008523959516,
          "velocity": 0.7874015748031497,
          "duration": 0.001096489583346738
        },
        {
          "name": "D7",
          "midi": 98,
          "time": 323.29008523959516,
          "velocity": 0.7874015748031497,
          "duration": 0.001096489583346738
        },
        {
          "name": "D5",
          "midi": 74,
          "time": 323.5510497604285,
          "velocity": 0.7874015748031497,
          "duration": 0.001096489583346738
        },
        {
          "name": "C7",
          "midi": 96,
          "time": 323.5510497604285,
          "velocity": 0.7874015748031497,
          "duration": 0.001096489583346738
        },
        {
          "name": "D7",
          "midi": 98,
          "time": 323.5510497604285,
          "velocity": 0.7874015748031497,
          "duration": 0.001096489583346738
        },
        {
          "name": "D4",
          "midi": 62,
          "time": 323.68372500001186,
          "velocity": 0.7874015748031497,
          "duration": 0.001096489583346738
        },
        {
          "name": "C6",
          "midi": 84,
          "time": 323.68372500001186,
          "velocity": 0.7874015748031497,
          "duration": 0.001096489583346738
        },
        {
          "name": "D6",
          "midi": 86,
          "time": 323.68372500001186,
          "velocity": 0.7874015748031497,
          "duration": 0.001096489583346738
        },
        {
          "name": "C7",
          "midi": 96,
          "time": 323.68372500001186,
          "velocity": 0.7874015748031497,
          "duration": 0.001096489583346738
        },
        {
          "name": "D7",
          "midi": 98,
          "time": 323.68372500001186,
          "velocity": 0.7874015748031497,
          "duration": 0.001096489583346738
        },
        {
          "name": "D4",
          "midi": 62,
          "time": 323.9468825000119,
          "velocity": 0.7874015748031497,
          "duration": 0.001096489583346738
        },
        {
          "name": "D5",
          "midi": 74,
          "time": 323.9468825000119,
          "velocity": 0.7874015748031497,
          "duration": 0.001096489583346738
        },
        {
          "name": "C6",
          "midi": 84,
          "time": 323.9468825000119,
          "velocity": 0.7874015748031497,
          "duration": 0.001096489583346738
        },
        {
          "name": "D6",
          "midi": 86,
          "time": 323.9468825000119,
          "velocity": 0.7874015748031497,
          "duration": 0.001096489583346738
        },
        {
          "name": "C7",
          "midi": 96,
          "time": 323.9468825000119,
          "velocity": 0.7874015748031497,
          "duration": 0.001096489583346738
        },
        {
          "name": "D7",
          "midi": 98,
          "time": 323.9468825000119,
          "velocity": 0.7874015748031497,
          "duration": 0.001096489583346738
        },
        {
          "name": "D4",
          "midi": 62,
          "time": 324.21004000001193,
          "velocity": 0.7874015748031497,
          "duration": 0.001096489583346738
        },
        {
          "name": "C5",
          "midi": 72,
          "time": 324.21004000001193,
          "velocity": 0.7874015748031497,
          "duration": 0.001096489583346738
        },
        {
          "name": "D5",
          "midi": 74,
          "time": 324.21004000001193,
          "velocity": 0.7874015748031497,
          "duration": 0.001096489583346738
        },
        {
          "name": "C6",
          "midi": 84,
          "time": 324.21004000001193,
          "velocity": 0.7874015748031497,
          "duration": 0.001096489583346738
        },
        {
          "name": "D6",
          "midi": 86,
          "time": 324.21004000001193,
          "velocity": 0.7874015748031497,
          "duration": 0.001096489583346738
        },
        {
          "name": "C7",
          "midi": 96,
          "time": 324.21004000001193,
          "velocity": 0.7874015748031497,
          "duration": 0.001096489583346738
        },
        {
          "name": "D7",
          "midi": 98,
          "time": 324.21004000001193,
          "velocity": 0.7874015748031497,
          "duration": 0.001096489583346738
        },
        {
          "name": "C#4",
          "midi": 61,
          "time": 324.73635500001194,
          "velocity": 0.7874015748031497,
          "duration": 0.001096489583346738
        },
        {
          "name": "C#5",
          "midi": 73,
          "time": 324.73635500001194,
          "velocity": 0.7874015748031497,
          "duration": 0.001096489583346738
        },
        {
          "name": "C#6",
          "midi": 85,
          "time": 324.73635500001194,
          "velocity": 0.7874015748031497,
          "duration": 0.001096489583346738
        },
        {
          "name": "C#7",
          "midi": 97,
          "time": 324.73635500001194,
          "velocity": 0.7874015748031497,
          "duration": 0.001096489583346738
        },
        {
          "name": "E5",
          "midi": 76,
          "time": 325.00060898959526,
          "velocity": 0.7874015748031497,
          "duration": 0.001096489583346738
        },
        {
          "name": "C6",
          "midi": 84,
          "time": 325.00060898959526,
          "velocity": 0.7874015748031497,
          "duration": 0.001096489583346738
        },
        {
          "name": "E6",
          "midi": 88,
          "time": 325.00060898959526,
          "velocity": 0.7874015748031497,
          "duration": 0.001096489583346738
        },
        {
          "name": "C7",
          "midi": 96,
          "time": 325.00060898959526,
          "velocity": 0.7874015748031497,
          "duration": 0.001096489583346738
        },
        {
          "name": "E7",
          "midi": 100,
          "time": 325.00060898959526,
          "velocity": 0.7874015748031497,
          "duration": 0.001096489583346738
        },
        {
          "name": "E4",
          "midi": 64,
          "time": 325.26267000001195,
          "velocity": 0.7874015748031497,
          "duration": 0.001096489583346738
        },
        {
          "name": "E5",
          "midi": 76,
          "time": 325.26267000001195,
          "velocity": 0.7874015748031497,
          "duration": 0.001096489583346738
        },
        {
          "name": "E6",
          "midi": 88,
          "time": 325.26267000001195,
          "velocity": 0.7874015748031497,
          "duration": 0.001096489583346738
        },
        {
          "name": "E7",
          "midi": 100,
          "time": 325.26267000001195,
          "velocity": 0.7874015748031497,
          "duration": 0.001096489583346738
        },
        {
          "name": "E5",
          "midi": 76,
          "time": 325.5269239895953,
          "velocity": 0.7874015748031497,
          "duration": 0.001096489583346738
        },
        {
          "name": "E6",
          "midi": 88,
          "time": 325.5269239895953,
          "velocity": 0.7874015748031497,
          "duration": 0.001096489583346738
        },
        {
          "name": "C7",
          "midi": 96,
          "time": 325.5269239895953,
          "velocity": 0.7874015748031497,
          "duration": 0.001096489583346738
        },
        {
          "name": "E7",
          "midi": 100,
          "time": 325.5269239895953,
          "velocity": 0.7874015748031497,
          "duration": 0.001096489583346738
        },
        {
          "name": "E6",
          "midi": 88,
          "time": 325.6585027395953,
          "velocity": 0.7874015748031497,
          "duration": 0.001096489583346738
        },
        {
          "name": "C7",
          "midi": 96,
          "time": 325.6585027395953,
          "velocity": 0.7874015748031497,
          "duration": 0.001096489583346738
        },
        {
          "name": "E7",
          "midi": 100,
          "time": 325.6585027395953,
          "velocity": 0.7874015748031497,
          "duration": 0.001096489583346738
        },
        {
          "name": "C#4",
          "midi": 61,
          "time": 325.78898500001196,
          "velocity": 0.7874015748031497,
          "duration": 0.001096489583346738
        },
        {
          "name": "C#5",
          "midi": 73,
          "time": 325.78898500001196,
          "velocity": 0.7874015748031497,
          "duration": 0.001096489583346738
        },
        {
          "name": "C#6",
          "midi": 85,
          "time": 325.78898500001196,
          "velocity": 0.7874015748031497,
          "duration": 0.001096489583346738
        },
        {
          "name": "C#7",
          "midi": 97,
          "time": 325.78898500001196,
          "velocity": 0.7874015748031497,
          "duration": 0.001096489583346738
        },
        {
          "name": "E7",
          "midi": 100,
          "time": 325.9216602395953,
          "velocity": 0.7874015748031497,
          "duration": 0.001096489583346738
        },
        {
          "name": "E5",
          "midi": 76,
          "time": 326.05323898959534,
          "velocity": 0.7874015748031497,
          "duration": 0.001096489583346738
        },
        {
          "name": "E6",
          "midi": 88,
          "time": 326.05323898959534,
          "velocity": 0.7874015748031497,
          "duration": 0.001096489583346738
        },
        {
          "name": "C7",
          "midi": 96,
          "time": 326.05323898959534,
          "velocity": 0.7874015748031497,
          "duration": 0.001096489583346738
        },
        {
          "name": "E7",
          "midi": 100,
          "time": 326.05323898959534,
          "velocity": 0.7874015748031497,
          "duration": 0.001096489583346738
        },
        {
          "name": "E4",
          "midi": 64,
          "time": 326.31530000001203,
          "velocity": 0.7874015748031497,
          "duration": 0.001096489583346738
        },
        {
          "name": "C5",
          "midi": 72,
          "time": 326.31530000001203,
          "velocity": 0.7874015748031497,
          "duration": 0.001096489583346738
        },
        {
          "name": "E5",
          "midi": 76,
          "time": 326.31530000001203,
          "velocity": 0.7874015748031497,
          "duration": 0.001096489583346738
        },
        {
          "name": "C6",
          "midi": 84,
          "time": 326.31530000001203,
          "velocity": 0.7874015748031497,
          "duration": 0.001096489583346738
        },
        {
          "name": "E6",
          "midi": 88,
          "time": 326.31530000001203,
          "velocity": 0.7874015748031497,
          "duration": 0.001096489583346738
        },
        {
          "name": "C7",
          "midi": 96,
          "time": 326.31530000001203,
          "velocity": 0.7874015748031497,
          "duration": 0.001096489583346738
        },
        {
          "name": "E7",
          "midi": 100,
          "time": 326.31530000001203,
          "velocity": 0.7874015748031497,
          "duration": 0.001096489583346738
        },
        {
          "name": "E5",
          "midi": 76,
          "time": 326.57845750001206,
          "velocity": 0.7874015748031497,
          "duration": 0.001096489583346738
        },
        {
          "name": "E6",
          "midi": 88,
          "time": 326.57845750001206,
          "velocity": 0.7874015748031497,
          "duration": 0.001096489583346738
        },
        {
          "name": "C7",
          "midi": 96,
          "time": 326.57845750001206,
          "velocity": 0.7874015748031497,
          "duration": 0.001096489583346738
        },
        {
          "name": "E7",
          "midi": 100,
          "time": 326.57845750001206,
          "velocity": 0.7874015748031497,
          "duration": 0.001096489583346738
        },
        {
          "name": "E6",
          "midi": 88,
          "time": 326.7111327395954,
          "velocity": 0.7874015748031497,
          "duration": 0.001096489583346738
        },
        {
          "name": "C7",
          "midi": 96,
          "time": 326.7111327395954,
          "velocity": 0.7874015748031497,
          "duration": 0.001096489583346738
        },
        {
          "name": "E7",
          "midi": 100,
          "time": 326.7111327395954,
          "velocity": 0.7874015748031497,
          "duration": 0.001096489583346738
        },
        {
          "name": "C#4",
          "midi": 61,
          "time": 326.8416150000121,
          "velocity": 0.7874015748031497,
          "duration": 0.001096489583346738
        },
        {
          "name": "C#5",
          "midi": 73,
          "time": 326.8416150000121,
          "velocity": 0.7874015748031497,
          "duration": 0.001096489583346738
        },
        {
          "name": "C#6",
          "midi": 85,
          "time": 326.8416150000121,
          "velocity": 0.7874015748031497,
          "duration": 0.001096489583346738
        },
        {
          "name": "C#7",
          "midi": 97,
          "time": 326.8416150000121,
          "velocity": 0.7874015748031497,
          "duration": 0.001096489583346738
        },
        {
          "name": "E5",
          "midi": 76,
          "time": 327.1058689895954,
          "velocity": 0.7874015748031497,
          "duration": 0.001096489583346738
        },
        {
          "name": "C6",
          "midi": 84,
          "time": 327.1058689895954,
          "velocity": 0.7874015748031497,
          "duration": 0.001096489583346738
        },
        {
          "name": "E6",
          "midi": 88,
          "time": 327.1058689895954,
          "velocity": 0.7874015748031497,
          "duration": 0.001096489583346738
        },
        {
          "name": "C7",
          "midi": 96,
          "time": 327.1058689895954,
          "velocity": 0.7874015748031497,
          "duration": 0.001096489583346738
        },
        {
          "name": "E7",
          "midi": 100,
          "time": 327.1058689895954,
          "velocity": 0.7874015748031497,
          "duration": 0.001096489583346738
        },
        {
          "name": "E4",
          "midi": 64,
          "time": 327.3679300000121,
          "velocity": 0.7874015748031497,
          "duration": 0.001096489583346738
        },
        {
          "name": "E5",
          "midi": 76,
          "time": 327.3679300000121,
          "velocity": 0.7874015748031497,
          "duration": 0.001096489583346738
        },
        {
          "name": "E6",
          "midi": 88,
          "time": 327.3679300000121,
          "velocity": 0.7874015748031497,
          "duration": 0.001096489583346738
        },
        {
          "name": "E7",
          "midi": 100,
          "time": 327.3679300000121,
          "velocity": 0.7874015748031497,
          "duration": 0.001096489583346738
        },
        {
          "name": "E5",
          "midi": 76,
          "time": 327.63218398959543,
          "velocity": 0.7874015748031497,
          "duration": 0.001096489583346738
        },
        {
          "name": "E6",
          "midi": 88,
          "time": 327.63218398959543,
          "velocity": 0.7874015748031497,
          "duration": 0.001096489583346738
        },
        {
          "name": "C7",
          "midi": 96,
          "time": 327.63218398959543,
          "velocity": 0.7874015748031497,
          "duration": 0.001096489583346738
        },
        {
          "name": "E7",
          "midi": 100,
          "time": 327.63218398959543,
          "velocity": 0.7874015748031497,
          "duration": 0.001096489583346738
        },
        {
          "name": "E6",
          "midi": 88,
          "time": 327.7626662500121,
          "velocity": 0.7874015748031497,
          "duration": 0.001096489583346738
        },
        {
          "name": "C7",
          "midi": 96,
          "time": 327.7626662500121,
          "velocity": 0.7874015748031497,
          "duration": 0.001096489583346738
        },
        {
          "name": "E7",
          "midi": 100,
          "time": 327.7626662500121,
          "velocity": 0.7874015748031497,
          "duration": 0.001096489583346738
        },
        {
          "name": "C#4",
          "midi": 61,
          "time": 327.8942450000121,
          "velocity": 0.7874015748031497,
          "duration": 0.001096489583346738
        },
        {
          "name": "C#5",
          "midi": 73,
          "time": 327.8942450000121,
          "velocity": 0.7874015748031497,
          "duration": 0.001096489583346738
        },
        {
          "name": "C#6",
          "midi": 85,
          "time": 327.8942450000121,
          "velocity": 0.7874015748031497,
          "duration": 0.001096489583346738
        },
        {
          "name": "C#7",
          "midi": 97,
          "time": 327.8942450000121,
          "velocity": 0.7874015748031497,
          "duration": 0.001096489583346738
        },
        {
          "name": "E7",
          "midi": 100,
          "time": 328.0269202395955,
          "velocity": 0.7874015748031497,
          "duration": 0.001096489583346738
        },
        {
          "name": "E5",
          "midi": 76,
          "time": 328.15740250001215,
          "velocity": 0.7874015748031497,
          "duration": 0.001096489583346738
        },
        {
          "name": "E6",
          "midi": 88,
          "time": 328.15740250001215,
          "velocity": 0.7874015748031497,
          "duration": 0.001096489583346738
        },
        {
          "name": "C7",
          "midi": 96,
          "time": 328.15740250001215,
          "velocity": 0.7874015748031497,
          "duration": 0.001096489583346738
        },
        {
          "name": "E7",
          "midi": 100,
          "time": 328.15740250001215,
          "velocity": 0.7874015748031497,
          "duration": 0.001096489583346738
        },
        {
          "name": "C4",
          "midi": 60,
          "time": 328.4205600000122,
          "velocity": 0.7874015748031497,
          "duration": 0.001096489583346738
        },
        {
          "name": "C5",
          "midi": 72,
          "time": 328.4205600000122,
          "velocity": 0.7874015748031497,
          "duration": 0.001096489583346738
        },
        {
          "name": "E5",
          "midi": 76,
          "time": 328.4205600000122,
          "velocity": 0.7874015748031497,
          "duration": 0.001096489583346738
        },
        {
          "name": "C6",
          "midi": 84,
          "time": 328.4205600000122,
          "velocity": 0.7874015748031497,
          "duration": 0.001096489583346738
        },
        {
          "name": "E6",
          "midi": 88,
          "time": 328.4205600000122,
          "velocity": 0.7874015748031497,
          "duration": 0.001096489583346738
        },
        {
          "name": "C7",
          "midi": 96,
          "time": 328.4205600000122,
          "velocity": 0.7874015748031497,
          "duration": 0.001096489583346738
        },
        {
          "name": "E7",
          "midi": 100,
          "time": 328.4205600000122,
          "velocity": 0.7874015748031497,
          "duration": 0.001096489583346738
        },
        {
          "name": "E5",
          "midi": 76,
          "time": 328.6848139895955,
          "velocity": 0.7874015748031497,
          "duration": 0.001096489583346738
        },
        {
          "name": "E6",
          "midi": 88,
          "time": 328.6848139895955,
          "velocity": 0.7874015748031497,
          "duration": 0.001096489583346738
        },
        {
          "name": "C7",
          "midi": 96,
          "time": 328.6848139895955,
          "velocity": 0.7874015748031497,
          "duration": 0.001096489583346738
        },
        {
          "name": "E7",
          "midi": 100,
          "time": 328.6848139895955,
          "velocity": 0.7874015748031497,
          "duration": 0.001096489583346738
        },
        {
          "name": "E6",
          "midi": 88,
          "time": 328.8152962500122,
          "velocity": 0.7874015748031497,
          "duration": 0.001096489583346738
        },
        {
          "name": "C7",
          "midi": 96,
          "time": 328.8152962500122,
          "velocity": 0.7874015748031497,
          "duration": 0.001096489583346738
        },
        {
          "name": "E7",
          "midi": 100,
          "time": 328.8152962500122,
          "velocity": 0.7874015748031497,
          "duration": 0.001096489583346738
        },
        {
          "name": "C#4",
          "midi": 61,
          "time": 328.9468750000122,
          "velocity": 0.7874015748031497,
          "duration": 0.001096489583346738
        },
        {
          "name": "C#5",
          "midi": 73,
          "time": 328.9468750000122,
          "velocity": 0.7874015748031497,
          "duration": 0.001096489583346738
        },
        {
          "name": "C#6",
          "midi": 85,
          "time": 328.9468750000122,
          "velocity": 0.7874015748031497,
          "duration": 0.001096489583346738
        },
        {
          "name": "C#7",
          "midi": 97,
          "time": 328.9468750000122,
          "velocity": 0.7874015748031497,
          "duration": 0.001096489583346738
        },
        {
          "name": "E5",
          "midi": 76,
          "time": 329.21003250001223,
          "velocity": 0.7874015748031497,
          "duration": 0.001096489583346738
        },
        {
          "name": "C6",
          "midi": 84,
          "time": 329.21003250001223,
          "velocity": 0.7874015748031497,
          "duration": 0.001096489583346738
        },
        {
          "name": "E6",
          "midi": 88,
          "time": 329.21003250001223,
          "velocity": 0.7874015748031497,
          "duration": 0.001096489583346738
        },
        {
          "name": "C7",
          "midi": 96,
          "time": 329.21003250001223,
          "velocity": 0.7874015748031497,
          "duration": 0.001096489583346738
        },
        {
          "name": "E7",
          "midi": 100,
          "time": 329.21003250001223,
          "velocity": 0.7874015748031497,
          "duration": 0.001096489583346738
        },
        {
          "name": "E4",
          "midi": 64,
          "time": 329.47319000001227,
          "velocity": 0.7874015748031497,
          "duration": 0.001096489583346738
        },
        {
          "name": "E5",
          "midi": 76,
          "time": 329.47319000001227,
          "velocity": 0.7874015748031497,
          "duration": 0.001096489583346738
        },
        {
          "name": "E6",
          "midi": 88,
          "time": 329.47319000001227,
          "velocity": 0.7874015748031497,
          "duration": 0.001096489583346738
        },
        {
          "name": "E7",
          "midi": 100,
          "time": 329.47319000001227,
          "velocity": 0.7874015748031497,
          "duration": 0.001096489583346738
        },
        {
          "name": "E5",
          "midi": 76,
          "time": 329.7363475000123,
          "velocity": 0.7874015748031497,
          "duration": 0.001096489583346738
        },
        {
          "name": "E6",
          "midi": 88,
          "time": 329.7363475000123,
          "velocity": 0.7874015748031497,
          "duration": 0.001096489583346738
        },
        {
          "name": "E7",
          "midi": 100,
          "time": 329.7363475000123,
          "velocity": 0.7874015748031497,
          "duration": 0.001096489583346738
        },
        {
          "name": "C6",
          "midi": 84,
          "time": 329.82406666667896,
          "velocity": 0.7874015748031497,
          "duration": 0.001096489583346738
        },
        {
          "name": "B6",
          "midi": 95,
          "time": 329.82406666667896,
          "velocity": 0.7874015748031497,
          "duration": 0.001096489583346738
        },
        {
          "name": "C7",
          "midi": 96,
          "time": 329.91288232292897,
          "velocity": 0.7874015748031497,
          "duration": 0.001096489583346738
        },
        {
          "name": "C#4",
          "midi": 61,
          "time": 329.99950500001233,
          "velocity": 0.7874015748031497,
          "duration": 0.001096489583346738
        },
        {
          "name": "C#5",
          "midi": 73,
          "time": 329.99950500001233,
          "velocity": 0.7874015748031497,
          "duration": 0.001096489583346738
        },
        {
          "name": "E5",
          "midi": 76,
          "time": 329.99950500001233,
          "velocity": 0.7874015748031497,
          "duration": 0.001096489583346738
        },
        {
          "name": "C#6",
          "midi": 85,
          "time": 329.99950500001233,
          "velocity": 0.7874015748031497,
          "duration": 0.001096489583346738
        },
        {
          "name": "C#7",
          "midi": 97,
          "time": 329.99950500001233,
          "velocity": 0.7874015748031497,
          "duration": 0.001096489583346738
        },
        {
          "name": "E7",
          "midi": 100,
          "time": 329.99950500001233,
          "velocity": 0.7874015748031497,
          "duration": 0.001096489583346738
        },
        {
          "name": "B6",
          "midi": 95,
          "time": 330.08832065626234,
          "velocity": 0.7874015748031497,
          "duration": 0.001096489583346738
        },
        {
          "name": "C6",
          "midi": 84,
          "time": 330.176039822929,
          "velocity": 0.7874015748031497,
          "duration": 0.001096489583346738
        },
        {
          "name": "C7",
          "midi": 96,
          "time": 330.176039822929,
          "velocity": 0.7874015748031497,
          "duration": 0.001096489583346738
        },
        {
          "name": "E7",
          "midi": 100,
          "time": 330.26375898959566,
          "velocity": 0.7874015748031497,
          "duration": 0.001096489583346738
        },
        {
          "name": "C5",
          "midi": 72,
          "time": 330.350381666679,
          "velocity": 0.7874015748031497,
          "duration": 0.001096489583346738
        },
        {
          "name": "B6",
          "midi": 95,
          "time": 330.350381666679,
          "velocity": 0.7874015748031497,
          "duration": 0.001096489583346738
        },
        {
          "name": "C6",
          "midi": 84,
          "time": 330.4381008333457,
          "velocity": 0.7874015748031497,
          "duration": 0.001096489583346738
        },
        {
          "name": "C7",
          "midi": 96,
          "time": 330.4381008333457,
          "velocity": 0.7874015748031497,
          "duration": 0.001096489583346738
        },
        {
          "name": "C#4",
          "midi": 61,
          "time": 330.52582000001235,
          "velocity": 0.7874015748031497,
          "duration": 0.001096489583346738
        },
        {
          "name": "C#5",
          "midi": 73,
          "time": 330.52582000001235,
          "velocity": 0.7874015748031497,
          "duration": 0.001096489583346738
        },
        {
          "name": "C#6",
          "midi": 85,
          "time": 330.52582000001235,
          "velocity": 0.7874015748031497,
          "duration": 0.001096489583346738
        },
        {
          "name": "C#7",
          "midi": 97,
          "time": 330.52582000001235,
          "velocity": 0.7874015748031497,
          "duration": 0.001096489583346738
        },
        {
          "name": "D#5",
          "midi": 75,
          "time": 331.4479677395957,
          "velocity": 0.7874015748031497,
          "duration": 0.001096489583346738
        },
        {
          "name": "D#6",
          "midi": 87,
          "time": 331.4479677395957,
          "velocity": 0.7874015748031497,
          "duration": 0.001096489583346738
        },
        {
          "name": "D#7",
          "midi": 99,
          "time": 331.51266062501236,
          "velocity": 0.7874015748031497,
          "duration": 0.001096489583346738
        },
        {
          "name": "D#4",
          "midi": 63,
          "time": 331.57845000001237,
          "velocity": 0.7874015748031497,
          "duration": 0.001096489583346738
        },
        {
          "name": "D#6",
          "midi": 87,
          "time": 331.57845000001237,
          "velocity": 0.7874015748031497,
          "duration": 0.001096489583346738
        },
        {
          "name": "D#7",
          "midi": 99,
          "time": 331.61134468751237,
          "velocity": 0.7874015748031497,
          "duration": 0.001096489583346738
        },
        {
          "name": "D#5",
          "midi": 75,
          "time": 331.7100287500124,
          "velocity": 0.7874015748031497,
          "duration": 0.001096489583346738
        },
        {
          "name": "D#6",
          "midi": 87,
          "time": 331.7100287500124,
          "velocity": 0.7874015748031497,
          "duration": 0.001096489583346738
        },
        {
          "name": "D#7",
          "midi": 99,
          "time": 331.7100287500124,
          "velocity": 0.7874015748031497,
          "duration": 0.001096489583346738
        },
        {
          "name": "D#7",
          "midi": 99,
          "time": 331.8087128125124,
          "velocity": 0.7874015748031497,
          "duration": 0.001096489583346738
        },
        {
          "name": "D#6",
          "midi": 87,
          "time": 331.84270398959575,
          "velocity": 0.7874015748031497,
          "duration": 0.001096489583346738
        },
        {
          "name": "D#7",
          "midi": 99,
          "time": 331.9073968750124,
          "velocity": 0.7874015748031497,
          "duration": 0.001096489583346738
        },
        {
          "name": "D#4",
          "midi": 63,
          "time": 331.9731862500124,
          "velocity": 0.7874015748031497,
          "duration": 0.001096489583346738
        },
        {
          "name": "D#5",
          "midi": 75,
          "time": 331.9731862500124,
          "velocity": 0.7874015748031497,
          "duration": 0.001096489583346738
        },
        {
          "name": "D#6",
          "midi": 87,
          "time": 331.9731862500124,
          "velocity": 0.7874015748031497,
          "duration": 0.001096489583346738
        },
        {
          "name": "D#7",
          "midi": 99,
          "time": 332.00717742709577,
          "velocity": 0.7874015748031497,
          "duration": 0.001096489583346738
        },
        {
          "name": "D#6",
          "midi": 87,
          "time": 332.10476500001243,
          "velocity": 0.7874015748031497,
          "duration": 0.001096489583346738
        },
        {
          "name": "D#7",
          "midi": 99,
          "time": 332.10476500001243,
          "velocity": 0.7874015748031497,
          "duration": 0.001096489583346738
        },
        {
          "name": "D#7",
          "midi": 99,
          "time": 332.20344906251245,
          "velocity": 0.7874015748031497,
          "duration": 0.001096489583346738
        },
        {
          "name": "D#5",
          "midi": 75,
          "time": 332.23634375001245,
          "velocity": 0.7874015748031497,
          "duration": 0.001096489583346738
        },
        {
          "name": "D#6",
          "midi": 87,
          "time": 332.23634375001245,
          "velocity": 0.7874015748031497,
          "duration": 0.001096489583346738
        },
        {
          "name": "D#7",
          "midi": 99,
          "time": 332.3361243020958,
          "velocity": 0.7874015748031497,
          "duration": 0.001096489583346738
        },
        {
          "name": "D#4",
          "midi": 63,
          "time": 332.3690189895958,
          "velocity": 0.7874015748031497,
          "duration": 0.001096489583346738
        },
        {
          "name": "D#6",
          "midi": 87,
          "time": 332.3690189895958,
          "velocity": 0.7874015748031497,
          "duration": 0.001096489583346738
        },
        {
          "name": "D#7",
          "midi": 99,
          "time": 332.4337118750125,
          "velocity": 0.7874015748031497,
          "duration": 0.001096489583346738
        },
        {
          "name": "D#5",
          "midi": 75,
          "time": 332.4995012500125,
          "velocity": 0.7874015748031497,
          "duration": 0.001096489583346738
        },
        {
          "name": "D#6",
          "midi": 87,
          "time": 332.4995012500125,
          "velocity": 0.7874015748031497,
          "duration": 0.001096489583346738
        },
        {
          "name": "D#7",
          "midi": 99,
          "time": 332.5323959375125,
          "velocity": 0.7874015748031497,
          "duration": 0.001096489583346738
        },
        {
          "name": "D#6",
          "midi": 87,
          "time": 332.6310800000125,
          "velocity": 0.7874015748031497,
          "duration": 0.001096489583346738
        },
        {
          "name": "D#7",
          "midi": 99,
          "time": 332.6310800000125,
          "velocity": 0.7874015748031497,
          "duration": 0.001096489583346738
        },
        {
          "name": "F4",
          "midi": 65,
          "time": 332.7626587500125,
          "velocity": 0.7874015748031497,
          "duration": 0.001096489583346738
        },
        {
          "name": "F5",
          "midi": 77,
          "time": 332.7626587500125,
          "velocity": 0.7874015748031497,
          "duration": 0.001096489583346738
        },
        {
          "name": "F6",
          "midi": 89,
          "time": 332.7626587500125,
          "velocity": 0.7874015748031497,
          "duration": 0.001096489583346738
        },
        {
          "name": "F7",
          "midi": 101,
          "time": 332.7626587500125,
          "velocity": 0.7874015748031497,
          "duration": 0.001096489583346738
        },
        {
          "name": "F7",
          "midi": 101,
          "time": 332.8624393020959,
          "velocity": 0.7874015748031497,
          "duration": 0.001096489583346738
        },
        {
          "name": "F6",
          "midi": 89,
          "time": 332.8953339895959,
          "velocity": 0.7874015748031497,
          "duration": 0.001096489583346738
        },
        {
          "name": "F7",
          "midi": 101,
          "time": 332.9611233645959,
          "velocity": 0.7874015748031497,
          "duration": 0.001096489583346738
        },
        {
          "name": "F6",
          "midi": 89,
          "time": 333.0269127395959,
          "velocity": 0.7874015748031497,
          "duration": 0.001096489583346738
        },
        {
          "name": "F7",
          "midi": 101,
          "time": 333.0598074270959,
          "velocity": 0.7874015748031497,
          "duration": 0.001096489583346738
        },
        {
          "name": "F4",
          "midi": 65,
          "time": 333.15739500001257,
          "velocity": 0.7874015748031497,
          "duration": 0.001096489583346738
        },
        {
          "name": "F5",
          "midi": 77,
          "time": 333.15739500001257,
          "velocity": 0.7874015748031497,
          "duration": 0.001096489583346738
        },
        {
          "name": "F6",
          "midi": 89,
          "time": 333.15739500001257,
          "velocity": 0.7874015748031497,
          "duration": 0.001096489583346738
        },
        {
          "name": "F7",
          "midi": 101,
          "time": 333.15739500001257,
          "velocity": 0.7874015748031497,
          "duration": 0.001096489583346738
        },
        {
          "name": "F7",
          "midi": 101,
          "time": 333.24401767709594,
          "velocity": 0.7874015748031497,
          "duration": 0.001096489583346738
        },
        {
          "name": "F6",
          "midi": 89,
          "time": 333.29007023959593,
          "velocity": 0.7874015748031497,
          "duration": 0.001096489583346738
        },
        {
          "name": "F7",
          "midi": 101,
          "time": 333.32735088542927,
          "velocity": 0.7874015748031497,
          "duration": 0.001096489583346738
        },
        {
          "name": "F7",
          "midi": 101,
          "time": 333.41178058334594,
          "velocity": 0.7874015748031497,
          "duration": 0.001096489583346738
        },
        {
          "name": "F5",
          "midi": 77,
          "time": 333.42164898959595,
          "velocity": 0.7874015748031497,
          "duration": 0.001096489583346738
        },
        {
          "name": "F6",
          "midi": 89,
          "time": 333.42164898959595,
          "velocity": 0.7874015748031497,
          "duration": 0.001096489583346738
        },
        {
          "name": "F4",
          "midi": 65,
          "time": 333.4863418750126,
          "velocity": 0.7874015748031497,
          "duration": 0.001096489583346738
        },
        {
          "name": "F7",
          "midi": 101,
          "time": 333.49730677084597,
          "velocity": 0.7874015748031497,
          "duration": 0.001096489583346738
        },
        {
          "name": "F6",
          "midi": 89,
          "time": 333.5521312500126,
          "velocity": 0.7874015748031497,
          "duration": 0.001096489583346738
        },
        {
          "name": "F7",
          "midi": 101,
          "time": 333.582832958346,
          "velocity": 0.7874015748031497,
          "duration": 0.001096489583346738
        },
        {
          "name": "F7",
          "midi": 101,
          "time": 333.66726265626266,
          "velocity": 0.7874015748031497,
          "duration": 0.001096489583346738
        },
        {
          "name": "F5",
          "midi": 77,
          "time": 333.6837100000127,
          "velocity": 0.7874015748031497,
          "duration": 0.001096489583346738
        },
        {
          "name": "F6",
          "midi": 89,
          "time": 333.6837100000127,
          "velocity": 0.7874015748031497,
          "duration": 0.001096489583346738
        },
        {
          "name": "C7",
          "midi": 96,
          "time": 333.7494993750127,
          "velocity": 0.7874015748031497,
          "duration": 0.001096489583346738
        },
        {
          "name": "C4",
          "midi": 60,
          "time": 333.7714291666794,
          "velocity": 0.7874015748031497,
          "duration": 0.001096489583346738
        },
        {
          "name": "C5",
          "midi": 72,
          "time": 333.7714291666794,
          "velocity": 0.7874015748031497,
          "duration": 0.001096489583346738
        },
        {
          "name": "C6",
          "midi": 84,
          "time": 333.7714291666794,
          "velocity": 0.7874015748031497,
          "duration": 0.001096489583346738
        },
        {
          "name": "D4",
          "midi": 62,
          "time": 334.7363400000128,
          "velocity": 0.7874015748031497,
          "duration": 0.001096489583346738
        },
        {
          "name": "C5",
          "midi": 72,
          "time": 334.7363400000128,
          "velocity": 0.7874015748031497,
          "duration": 0.001096489583346738
        },
        {
          "name": "D5",
          "midi": 74,
          "time": 334.7363400000128,
          "velocity": 0.7874015748031497,
          "duration": 0.001096489583346738
        },
        {
          "name": "C6",
          "midi": 84,
          "time": 334.7363400000128,
          "velocity": 0.7874015748031497,
          "duration": 0.001096489583346738
        },
        {
          "name": "D6",
          "midi": 86,
          "time": 334.7363400000128,
          "velocity": 0.7874015748031497,
          "duration": 0.001096489583346738
        },
        {
          "name": "C7",
          "midi": 96,
          "time": 334.7363400000128,
          "velocity": 0.7874015748031497,
          "duration": 0.001096489583346738
        },
        {
          "name": "E7",
          "midi": 100,
          "time": 334.7363400000128,
          "velocity": 0.7874015748031497,
          "duration": 0.001096489583346738
        },
        {
          "name": "D4",
          "midi": 62,
          "time": 335.2626550000128,
          "velocity": 0.7874015748031497,
          "duration": 0.001096489583346738
        },
        {
          "name": "D5",
          "midi": 74,
          "time": 335.2626550000128,
          "velocity": 0.7874015748031497,
          "duration": 0.001096489583346738
        },
        {
          "name": "C6",
          "midi": 84,
          "time": 335.2626550000128,
          "velocity": 0.7874015748031497,
          "duration": 0.001096489583346738
        },
        {
          "name": "D6",
          "midi": 86,
          "time": 335.2626550000128,
          "velocity": 0.7874015748031497,
          "duration": 0.001096489583346738
        },
        {
          "name": "C7",
          "midi": 96,
          "time": 335.2626550000128,
          "velocity": 0.7874015748031497,
          "duration": 0.001096489583346738
        },
        {
          "name": "D7",
          "midi": 98,
          "time": 335.2626550000128,
          "velocity": 0.7874015748031497,
          "duration": 0.001096489583346738
        },
        {
          "name": "D4",
          "midi": 62,
          "time": 335.7889700000128,
          "velocity": 0.7874015748031497,
          "duration": 0.001096489583346738
        },
        {
          "name": "D5",
          "midi": 74,
          "time": 335.7889700000128,
          "velocity": 0.7874015748031497,
          "duration": 0.001096489583346738
        },
        {
          "name": "C6",
          "midi": 84,
          "time": 335.7889700000128,
          "velocity": 0.7874015748031497,
          "duration": 0.001096489583346738
        },
        {
          "name": "D6",
          "midi": 86,
          "time": 335.7889700000128,
          "velocity": 0.7874015748031497,
          "duration": 0.001096489583346738
        },
        {
          "name": "C7",
          "midi": 96,
          "time": 335.7889700000128,
          "velocity": 0.7874015748031497,
          "duration": 0.001096489583346738
        },
        {
          "name": "E7",
          "midi": 100,
          "time": 335.7889700000128,
          "velocity": 0.7874015748031497,
          "duration": 0.001096489583346738
        },
        {
          "name": "C5",
          "midi": 72,
          "time": 336.05651345834616,
          "velocity": 0.7874015748031497,
          "duration": 0.001096489583346738
        },
        {
          "name": "D5",
          "midi": 74,
          "time": 336.05651345834616,
          "velocity": 0.7874015748031497,
          "duration": 0.001096489583346738
        },
        {
          "name": "C6",
          "midi": 84,
          "time": 336.05651345834616,
          "velocity": 0.7874015748031497,
          "duration": 0.001096489583346738
        },
        {
          "name": "D6",
          "midi": 86,
          "time": 336.05651345834616,
          "velocity": 0.7874015748031497,
          "duration": 0.001096489583346738
        },
        {
          "name": "C7",
          "midi": 96,
          "time": 336.05651345834616,
          "velocity": 0.7874015748031497,
          "duration": 0.001096489583346738
        },
        {
          "name": "D7",
          "midi": 98,
          "time": 336.05651345834616,
          "velocity": 0.7874015748031497,
          "duration": 0.001096489583346738
        },
        {
          "name": "D4",
          "midi": 62,
          "time": 336.5740565416795,
          "velocity": 0.7874015748031497,
          "duration": 0.001096489583346738
        },
        {
          "name": "D5",
          "midi": 74,
          "time": 336.5740565416795,
          "velocity": 0.7874015748031497,
          "duration": 0.001096489583346738
        },
        {
          "name": "C6",
          "midi": 84,
          "time": 336.5740565416795,
          "velocity": 0.7874015748031497,
          "duration": 0.001096489583346738
        },
        {
          "name": "D6",
          "midi": 86,
          "time": 336.5740565416795,
          "velocity": 0.7874015748031497,
          "duration": 0.001096489583346738
        },
        {
          "name": "C7",
          "midi": 96,
          "time": 336.5740565416795,
          "velocity": 0.7874015748031497,
          "duration": 0.001096489583346738
        },
        {
          "name": "E7",
          "midi": 100,
          "time": 336.5740565416795,
          "velocity": 0.7874015748031497,
          "duration": 0.001096489583346738
        },
        {
          "name": "D4",
          "midi": 62,
          "time": 337.0981785625129,
          "velocity": 0.7874015748031497,
          "duration": 0.001096489583346738
        },
        {
          "name": "D5",
          "midi": 74,
          "time": 337.0981785625129,
          "velocity": 0.7874015748031497,
          "duration": 0.001096489583346738
        },
        {
          "name": "C6",
          "midi": 84,
          "time": 337.0981785625129,
          "velocity": 0.7874015748031497,
          "duration": 0.001096489583346738
        },
        {
          "name": "D6",
          "midi": 86,
          "time": 337.0981785625129,
          "velocity": 0.7874015748031497,
          "duration": 0.001096489583346738
        },
        {
          "name": "C7",
          "midi": 96,
          "time": 337.0981785625129,
          "velocity": 0.7874015748031497,
          "duration": 0.001096489583346738
        },
        {
          "name": "D7",
          "midi": 98,
          "time": 337.0981785625129,
          "velocity": 0.7874015748031497,
          "duration": 0.001096489583346738
        },
        {
          "name": "D4",
          "midi": 62,
          "time": 337.6321689895962,
          "velocity": 0.7874015748031497,
          "duration": 0.001096489583346738
        },
        {
          "name": "C5",
          "midi": 72,
          "time": 337.6321689895962,
          "velocity": 0.7874015748031497,
          "duration": 0.001096489583346738
        },
        {
          "name": "D5",
          "midi": 74,
          "time": 337.6321689895962,
          "velocity": 0.7874015748031497,
          "duration": 0.001096489583346738
        },
        {
          "name": "C6",
          "midi": 84,
          "time": 337.6321689895962,
          "velocity": 0.7874015748031497,
          "duration": 0.001096489583346738
        },
        {
          "name": "D6",
          "midi": 86,
          "time": 337.6321689895962,
          "velocity": 0.7874015748031497,
          "duration": 0.001096489583346738
        },
        {
          "name": "C7",
          "midi": 96,
          "time": 337.6321689895962,
          "velocity": 0.7874015748031497,
          "duration": 0.001096489583346738
        },
        {
          "name": "D7",
          "midi": 98,
          "time": 337.6321689895962,
          "velocity": 0.7874015748031497,
          "duration": 0.001096489583346738
        },
        {
          "name": "E7",
          "midi": 100,
          "time": 337.6321689895962,
          "velocity": 0.7874015748031497,
          "duration": 0.001096489583346738
        },
        {
          "name": "G9",
          "midi": 127,
          "time": 337.6321689895962,
          "velocity": 0.7874015748031497,
          "duration": 4.012055385416659
        },
        {
          "name": "C#4",
          "midi": 61,
          "time": 342.6310650000129,
          "velocity": 0.7874015748031497,
          "duration": 0.001096489583346738
        },
        {
          "name": "C#5",
          "midi": 73,
          "time": 342.6310650000129,
          "velocity": 0.7874015748031497,
          "duration": 0.001096489583346738
        },
        {
          "name": "C#6",
          "midi": 85,
          "time": 342.6310650000129,
          "velocity": 0.7874015748031497,
          "duration": 0.001096489583346738
        },
        {
          "name": "C#7",
          "midi": 97,
          "time": 342.6310650000129,
          "velocity": 0.7874015748031497,
          "duration": 0.001096489583346738
        },
        {
          "name": "D#6",
          "midi": 87,
          "time": 342.89312601042957,
          "velocity": 0.7874015748031497,
          "duration": 0.001096489583346738
        },
        {
          "name": "D#7",
          "midi": 99,
          "time": 342.89312601042957,
          "velocity": 0.7874015748031497,
          "duration": 0.001096489583346738
        },
        {
          "name": "D#6",
          "midi": 87,
          "time": 343.1573800000129,
          "velocity": 0.7874015748031497,
          "duration": 0.001096489583346738
        },
        {
          "name": "D#7",
          "midi": 99,
          "time": 343.1573800000129,
          "velocity": 0.7874015748031497,
          "duration": 0.001096489583346738
        },
        {
          "name": "F4",
          "midi": 65,
          "time": 343.4194410104296,
          "velocity": 0.7874015748031497,
          "duration": 0.001096489583346738
        },
        {
          "name": "F5",
          "midi": 77,
          "time": 343.4194410104296,
          "velocity": 0.7874015748031497,
          "duration": 0.001096489583346738
        },
        {
          "name": "F6",
          "midi": 89,
          "time": 343.4194410104296,
          "velocity": 0.7874015748031497,
          "duration": 0.001096489583346738
        },
        {
          "name": "F7",
          "midi": 101,
          "time": 343.4194410104296,
          "velocity": 0.7874015748031497,
          "duration": 0.001096489583346738
        }
      ],
      "controlChanges": {},
      "id": 4,
      "name": "PART DRUMS",
      "channelNumber": 0,
      "isPercussion": false
    }
  ]
}
