{
  "header": {
    "PPQ": 480,
    "bpm": 115.97273094519709,
    "name": "EVENTS"
  },
  "startTime": 0,
  "duration": 345.55537041666196,
  "tracks": [
    {
      "startTime": 17.072979,
      "duration": 345.55537041666196,
      "length": 1289,
      "notes": [
        {
          "name": "C7",
          "midi": 96,
          "time": 17.072979,
          "velocity": 0.7874015748031497,
          "duration": 0.043113583333333594
        },
        {
          "name": "C#7",
          "midi": 97,
          "time": 17.330582660416667,
          "velocity": 0.7874015748031497,
          "duration": 0.043113583333333594
        },
        {
          "name": "D7",
          "midi": 98,
          "time": 17.590342,
          "velocity": 0.7874015748031497,
          "duration": 0.042035743749998744
        },
        {
          "name": "D#7",
          "midi": 99,
          "time": 18.107705,
          "velocity": 0.7874015748031497,
          "duration": 0.7760445000000011
        },
        {
          "name": "D7",
          "midi": 98,
          "time": 19.142431000000002,
          "velocity": 0.7874015748031497,
          "duration": 0.6025123270833319
        },
        {
          "name": "D#7",
          "midi": 99,
          "time": 19.142431000000002,
          "velocity": 0.7874015748031497,
          "duration": 0.6025123270833319
        },
        {
          "name": "D7",
          "midi": 98,
          "time": 19.9184755,
          "velocity": 0.7874015748031497,
          "duration": 0.043113583333333594
        },
        {
          "name": "D#7",
          "midi": 99,
          "time": 19.9184755,
          "velocity": 0.7874015748031497,
          "duration": 0.043113583333333594
        },
        {
          "name": "D7",
          "midi": 98,
          "time": 20.177157,
          "velocity": 0.7874015748031497,
          "duration": 0.689817333333334
        },
        {
          "name": "D#7",
          "midi": 99,
          "time": 20.177157,
          "velocity": 0.7874015748031497,
          "duration": 0.689817333333334
        },
        {
          "name": "D7",
          "midi": 98,
          "time": 20.953201500000002,
          "velocity": 0.7874015748031497,
          "duration": 0.043113583333333594
        },
        {
          "name": "D#7",
          "midi": 99,
          "time": 20.953201500000002,
          "velocity": 0.7874015748031497,
          "duration": 0.043113583333333594
        },
        {
          "name": "C#7",
          "midi": 97,
          "time": 21.211883000000004,
          "velocity": 0.7874015748031497,
          "duration": 0.043113583333333594
        },
        {
          "name": "C7",
          "midi": 96,
          "time": 21.729246000000003,
          "velocity": 0.7874015748031497,
          "duration": 0.043113583333333594
        },
        {
          "name": "C#7",
          "midi": 97,
          "time": 22.246609000000003,
          "velocity": 0.7874015748031497,
          "duration": 0.689817333333334
        },
        {
          "name": "D7",
          "midi": 98,
          "time": 23.022653500000004,
          "velocity": 0.7874015748031497,
          "duration": 0.043113583333333594
        },
        {
          "name": "D7",
          "midi": 98,
          "time": 23.281335000000006,
          "velocity": 0.7874015748031497,
          "duration": 0.3880222499999988
        },
        {
          "name": "D#7",
          "midi": 99,
          "time": 23.281335000000006,
          "velocity": 0.7874015748031497,
          "duration": 0.3880222499999988
        },
        {
          "name": "D7",
          "midi": 98,
          "time": 23.798698000000005,
          "velocity": 0.7874015748031497,
          "duration": 0.8180802437499999
        },
        {
          "name": "D#7",
          "midi": 99,
          "time": 23.798698000000005,
          "velocity": 0.7874015748031497,
          "duration": 0.8180802437499999
        },
        {
          "name": "E7",
          "midi": 100,
          "time": 23.798698000000005,
          "velocity": 0.7874015748031497,
          "duration": 0.8180802437499999
        },
        {
          "name": "C7",
          "midi": 96,
          "time": 24.833424000000004,
          "velocity": 0.7874015748031497,
          "duration": 0.043113583333333594
        },
        {
          "name": "C7",
          "midi": 96,
          "time": 25.350787000000004,
          "velocity": 0.7874015748031497,
          "duration": 0.043113583333333594
        },
        {
          "name": "C#7",
          "midi": 97,
          "time": 25.609468500000006,
          "velocity": 0.7874015748031497,
          "duration": 0.042035743749998744
        },
        {
          "name": "D7",
          "midi": 98,
          "time": 25.868150000000004,
          "velocity": 0.7874015748031497,
          "duration": 0.043113583333333594
        },
        {
          "name": "D#7",
          "midi": 99,
          "time": 26.385513000000003,
          "velocity": 0.7874015748031497,
          "duration": 0.8191580833333347
        },
        {
          "name": "D7",
          "midi": 98,
          "time": 27.420239000000006,
          "velocity": 0.7874015748031497,
          "duration": 0.7749666604166663
        },
        {
          "name": "D#7",
          "midi": 99,
          "time": 27.420239000000006,
          "velocity": 0.7874015748031497,
          "duration": 0.7749666604166663
        },
        {
          "name": "E7",
          "midi": 100,
          "time": 27.420239000000006,
          "velocity": 0.7874015748031497,
          "duration": 0.7749666604166663
        },
        {
          "name": "D7",
          "midi": 98,
          "time": 28.196283500000007,
          "velocity": 0.7874015748031497,
          "duration": 0.043113583333333594
        },
        {
          "name": "D7",
          "midi": 98,
          "time": 28.45496500000001,
          "velocity": 0.7874015748031497,
          "duration": 0.043113583333333594
        },
        {
          "name": "D#7",
          "midi": 99,
          "time": 28.45496500000001,
          "velocity": 0.7874015748031497,
          "duration": 0.043113583333333594
        },
        {
          "name": "D7",
          "midi": 98,
          "time": 28.712568660416675,
          "velocity": 0.7874015748031497,
          "duration": 0.043113583333333594
        },
        {
          "name": "D7",
          "midi": 98,
          "time": 28.972328000000008,
          "velocity": 0.7874015748031497,
          "duration": 0.042035743749998744
        },
        {
          "name": "D#7",
          "midi": 99,
          "time": 28.972328000000008,
          "velocity": 0.7874015748031497,
          "duration": 0.042035743749998744
        },
        {
          "name": "C#7",
          "midi": 97,
          "time": 29.489691000000008,
          "velocity": 0.7874015748031497,
          "duration": 0.043113583333333594
        },
        {
          "name": "D7",
          "midi": 98,
          "time": 29.489691000000008,
          "velocity": 0.7874015748031497,
          "duration": 0.043113583333333594
        },
        {
          "name": "C7",
          "midi": 96,
          "time": 30.007054000000007,
          "velocity": 0.7874015748031497,
          "duration": 0.042035743749998744
        },
        {
          "name": "C#7",
          "midi": 97,
          "time": 30.524417000000007,
          "velocity": 0.7874015748031497,
          "duration": 0.6887394937499991
        },
        {
          "name": "C#7",
          "midi": 97,
          "time": 31.300461500000004,
          "velocity": 0.7874015748031497,
          "duration": 0.042035743749998744
        },
        {
          "name": "C#7",
          "midi": 97,
          "time": 31.559143000000002,
          "velocity": 0.7874015748031497,
          "duration": 0.38586657083333264
        },
        {
          "name": "D7",
          "midi": 98,
          "time": 31.559143000000002,
          "velocity": 0.7874015748031497,
          "duration": 0.38586657083333264
        },
        {
          "name": "C#7",
          "midi": 97,
          "time": 32.076506,
          "velocity": 0.7874015748031497,
          "duration": 0.8180802437500034
        },
        {
          "name": "D7",
          "midi": 98,
          "time": 32.076506,
          "velocity": 0.7874015748031497,
          "duration": 0.8180802437500034
        },
        {
          "name": "D#7",
          "midi": 99,
          "time": 32.076506,
          "velocity": 0.7874015748031497,
          "duration": 0.8180802437500034
        },
        {
          "name": "C7",
          "midi": 96,
          "time": 33.11123200000001,
          "velocity": 0.7874015748031497,
          "duration": 0.04311358333333004
        },
        {
          "name": "C7",
          "midi": 96,
          "time": 33.628595000000004,
          "velocity": 0.7874015748031497,
          "duration": 0.04311358333333004
        },
        {
          "name": "C#7",
          "midi": 97,
          "time": 33.88619866041667,
          "velocity": 0.7874015748031497,
          "duration": 0.044191422916668444
        },
        {
          "name": "D7",
          "midi": 98,
          "time": 34.145958,
          "velocity": 0.7874015748031497,
          "duration": 0.042035743749998744
        },
        {
          "name": "D#7",
          "midi": 99,
          "time": 34.663320999999996,
          "velocity": 0.7874015748031497,
          "duration": 0.7760444999999976
        },
        {
          "name": "C#7",
          "midi": 97,
          "time": 35.698046999999995,
          "velocity": 0.7874015748031497,
          "duration": 0.773888820833335
        },
        {
          "name": "D7",
          "midi": 98,
          "time": 35.698046999999995,
          "velocity": 0.7874015748031497,
          "duration": 0.773888820833335
        },
        {
          "name": "D#7",
          "midi": 99,
          "time": 35.698046999999995,
          "velocity": 0.7874015748031497,
          "duration": 0.773888820833335
        },
        {
          "name": "C#7",
          "midi": 97,
          "time": 36.47301366041666,
          "velocity": 0.7874015748031497,
          "duration": 0.04311358333333004
        },
        {
          "name": "C#7",
          "midi": 97,
          "time": 36.732772999999995,
          "velocity": 0.7874015748031497,
          "duration": 0.04095790416666745
        },
        {
          "name": "D7",
          "midi": 98,
          "time": 36.732772999999995,
          "velocity": 0.7874015748031497,
          "duration": 0.04095790416666745
        },
        {
          "name": "C#7",
          "midi": 97,
          "time": 36.991454499999996,
          "velocity": 0.7874015748031497,
          "duration": 0.042035743749998744
        },
        {
          "name": "D#7",
          "midi": 99,
          "time": 37.250136,
          "velocity": 0.7874015748031497,
          "duration": 0.04311358333333004
        },
        {
          "name": "D7",
          "midi": 98,
          "time": 37.767498999999994,
          "velocity": 0.7874015748031497,
          "duration": 0.04311358333333004
        },
        {
          "name": "C#7",
          "midi": 97,
          "time": 38.28486199999999,
          "velocity": 0.7874015748031497,
          "duration": 0.042035743749998744
        },
        {
          "name": "C7",
          "midi": 96,
          "time": 38.802224999999986,
          "velocity": 0.7874015748031497,
          "duration": 0.5162851604166647
        },
        {
          "name": "C#7",
          "midi": 97,
          "time": 39.31958799999998,
          "velocity": 0.7874015748031497,
          "duration": 0.042035743749998744
        },
        {
          "name": "C#7",
          "midi": 97,
          "time": 39.83695099999998,
          "velocity": 0.7874015748031497,
          "duration": 0.04095790416666745
        },
        {
          "name": "D7",
          "midi": 98,
          "time": 39.83695099999998,
          "velocity": 0.7874015748031497,
          "duration": 0.04095790416666745
        },
        {
          "name": "C#7",
          "midi": 97,
          "time": 40.09563249999998,
          "velocity": 0.7874015748031497,
          "duration": 0.04311358333333004
        },
        {
          "name": "D7",
          "midi": 98,
          "time": 40.09563249999998,
          "velocity": 0.7874015748031497,
          "duration": 0.04311358333333004
        },
        {
          "name": "C#7",
          "midi": 97,
          "time": 40.354313999999974,
          "velocity": 0.7874015748031497,
          "duration": 0.6887394937499991
        },
        {
          "name": "D7",
          "midi": 98,
          "time": 40.354313999999974,
          "velocity": 0.7874015748031497,
          "duration": 0.6887394937499991
        },
        {
          "name": "D#7",
          "midi": 99,
          "time": 40.354313999999974,
          "velocity": 0.7874015748031497,
          "duration": 0.6887394937499991
        },
        {
          "name": "C#7",
          "midi": 97,
          "time": 41.13035849999997,
          "velocity": 0.7874015748031497,
          "duration": 0.042035743749998744
        },
        {
          "name": "C#7",
          "midi": 97,
          "time": 41.38903999999997,
          "velocity": 0.7874015748031497,
          "duration": 0.04311358333333004
        },
        {
          "name": "D7",
          "midi": 98,
          "time": 41.38903999999997,
          "velocity": 0.7874015748031497,
          "duration": 0.04311358333333004
        },
        {
          "name": "C#7",
          "midi": 97,
          "time": 41.64772149999997,
          "velocity": 0.7874015748031497,
          "duration": 0.042035743749998744
        },
        {
          "name": "C7",
          "midi": 96,
          "time": 41.90640299999997,
          "velocity": 0.7874015748031497,
          "duration": 0.04311358333333004
        },
        {
          "name": "C#7",
          "midi": 97,
          "time": 42.16508449999996,
          "velocity": 0.7874015748031497,
          "duration": 0.042035743749998744
        },
        {
          "name": "D7",
          "midi": 98,
          "time": 42.423765999999965,
          "velocity": 0.7874015748031497,
          "duration": 0.04311358333333004
        },
        {
          "name": "D#7",
          "midi": 99,
          "time": 42.94112899999996,
          "velocity": 0.7874015748031497,
          "duration": 0.7760444999999976
        },
        {
          "name": "C#7",
          "midi": 97,
          "time": 43.97585499999996,
          "velocity": 0.7874015748031497,
          "duration": 0.773888820833335
        },
        {
          "name": "D7",
          "midi": 98,
          "time": 43.97585499999996,
          "velocity": 0.7874015748031497,
          "duration": 0.773888820833335
        },
        {
          "name": "D#7",
          "midi": 99,
          "time": 43.97585499999996,
          "velocity": 0.7874015748031497,
          "duration": 0.773888820833335
        },
        {
          "name": "D7",
          "midi": 98,
          "time": 44.75082166041663,
          "velocity": 0.7874015748031497,
          "duration": 0.04311358333333004
        },
        {
          "name": "D7",
          "midi": 98,
          "time": 45.269262499999954,
          "velocity": 0.7874015748031497,
          "duration": 0.042035743749998744
        },
        {
          "name": "D#7",
          "midi": 99,
          "time": 45.527943999999955,
          "velocity": 0.7874015748031497,
          "duration": 0.04311358333333004
        },
        {
          "name": "D7",
          "midi": 98,
          "time": 46.04530699999995,
          "velocity": 0.7874015748031497,
          "duration": 0.04311358333333004
        },
        {
          "name": "C#7",
          "midi": 97,
          "time": 46.56266999999995,
          "velocity": 0.7874015748031497,
          "duration": 0.042035743749998744
        },
        {
          "name": "C7",
          "midi": 96,
          "time": 47.08003299999994,
          "velocity": 0.7874015748031497,
          "duration": 0.948498833333332
        },
        {
          "name": "C#7",
          "midi": 97,
          "time": 48.11475899999994,
          "velocity": 0.7874015748031497,
          "duration": 0.042035743749998744
        },
        {
          "name": "D7",
          "midi": 98,
          "time": 48.11475899999994,
          "velocity": 0.7874015748031497,
          "duration": 0.042035743749998744
        },
        {
          "name": "D#7",
          "midi": 99,
          "time": 48.11475899999994,
          "velocity": 0.7874015748031497,
          "duration": 0.042035743749998744
        },
        {
          "name": "C#7",
          "midi": 97,
          "time": 48.373440499999944,
          "velocity": 0.7874015748031497,
          "duration": 0.042035743749998744
        },
        {
          "name": "C#7",
          "midi": 97,
          "time": 48.632121999999946,
          "velocity": 0.7874015748031497,
          "duration": 0.6898173333333304
        },
        {
          "name": "D7",
          "midi": 98,
          "time": 48.632121999999946,
          "velocity": 0.7874015748031497,
          "duration": 0.6898173333333304
        },
        {
          "name": "D#7",
          "midi": 99,
          "time": 48.632121999999946,
          "velocity": 0.7874015748031497,
          "duration": 0.6898173333333304
        },
        {
          "name": "C#7",
          "midi": 97,
          "time": 49.40816649999994,
          "velocity": 0.7874015748031497,
          "duration": 0.042035743749998744
        },
        {
          "name": "C#7",
          "midi": 97,
          "time": 49.666847999999945,
          "velocity": 0.7874015748031497,
          "duration": 0.044191422916668444
        },
        {
          "name": "D7",
          "midi": 98,
          "time": 49.666847999999945,
          "velocity": 0.7874015748031497,
          "duration": 0.044191422916668444
        },
        {
          "name": "C7",
          "midi": 96,
          "time": 50.18421099999995,
          "velocity": 0.7874015748031497,
          "duration": 0.04311358333333004
        },
        {
          "name": "C#7",
          "midi": 97,
          "time": 50.44289249999994,
          "velocity": 0.7874015748031497,
          "duration": 0.042035743749998744
        },
        {
          "name": "D7",
          "midi": 98,
          "time": 50.701573999999944,
          "velocity": 0.7874015748031497,
          "duration": 0.04311358333333004
        },
        {
          "name": "D7",
          "midi": 98,
          "time": 50.96025549999994,
          "velocity": 0.7874015748031497,
          "duration": 0.04311358333333004
        },
        {
          "name": "D7",
          "midi": 98,
          "time": 51.21893699999993,
          "velocity": 0.7874015748031497,
          "duration": 0.7760444999999976
        },
        {
          "name": "D7",
          "midi": 98,
          "time": 52.25366299999993,
          "velocity": 0.7874015748031497,
          "duration": 0.4720937375000034
        },
        {
          "name": "D#7",
          "midi": 99,
          "time": 52.25366299999993,
          "velocity": 0.7874015748031497,
          "duration": 0.4720937375000034
        },
        {
          "name": "D7",
          "midi": 98,
          "time": 52.771025999999935,
          "velocity": 0.7874015748031497,
          "duration": 0.042035743749998744
        },
        {
          "name": "D7",
          "midi": 98,
          "time": 53.28838899999993,
          "velocity": 0.7874015748031497,
          "duration": 0.8622716666666648
        },
        {
          "name": "D#7",
          "midi": 99,
          "time": 53.28838899999993,
          "velocity": 0.7874015748031497,
          "duration": 0.8622716666666648
        },
        {
          "name": "C#7",
          "midi": 97,
          "time": 54.32311499999993,
          "velocity": 0.7874015748031497,
          "duration": 0.04311358333333004
        },
        {
          "name": "C#7",
          "midi": 97,
          "time": 54.581796499999925,
          "velocity": 0.7874015748031497,
          "duration": 0.04311358333333004
        },
        {
          "name": "D7",
          "midi": 98,
          "time": 54.581796499999925,
          "velocity": 0.7874015748031497,
          "duration": 0.04311358333333004
        },
        {
          "name": "C#7",
          "midi": 97,
          "time": 54.84047799999992,
          "velocity": 0.7874015748031497,
          "duration": 0.43113583333333594
        },
        {
          "name": "D7",
          "midi": 98,
          "time": 54.84047799999992,
          "velocity": 0.7874015748031497,
          "duration": 0.43113583333333594
        },
        {
          "name": "C#7",
          "midi": 97,
          "time": 55.35784099999992,
          "velocity": 0.7874015748031497,
          "duration": 0.9053852500000019
        },
        {
          "name": "D7",
          "midi": 98,
          "time": 55.35784099999992,
          "velocity": 0.7874015748031497,
          "duration": 0.9053852500000019
        },
        {
          "name": "C#7",
          "midi": 97,
          "time": 56.39256699999992,
          "velocity": 0.7874015748031497,
          "duration": 0.04311358333333004
        },
        {
          "name": "C#7",
          "midi": 97,
          "time": 56.651248499999916,
          "velocity": 0.7874015748031497,
          "duration": 0.04311358333333004
        },
        {
          "name": "D7",
          "midi": 98,
          "time": 56.651248499999916,
          "velocity": 0.7874015748031497,
          "duration": 0.04311358333333004
        },
        {
          "name": "C#7",
          "midi": 97,
          "time": 56.90992999999991,
          "velocity": 0.7874015748031497,
          "duration": 0.43113583333333594
        },
        {
          "name": "D7",
          "midi": 98,
          "time": 56.90992999999991,
          "velocity": 0.7874015748031497,
          "duration": 0.43113583333333594
        },
        {
          "name": "C#7",
          "midi": 97,
          "time": 57.42729299999991,
          "velocity": 0.7874015748031497,
          "duration": 0.5162851604166647
        },
        {
          "name": "D7",
          "midi": 98,
          "time": 57.42729299999991,
          "velocity": 0.7874015748031497,
          "duration": 0.5162851604166647
        },
        {
          "name": "C7",
          "midi": 96,
          "time": 57.94465599999991,
          "velocity": 0.7874015748031497,
          "duration": 0.04311358333333004
        },
        {
          "name": "C7",
          "midi": 96,
          "time": 58.462018999999906,
          "velocity": 0.7874015748031497,
          "duration": 0.04311358333333004
        },
        {
          "name": "C#7",
          "midi": 97,
          "time": 58.7207004999999,
          "velocity": 0.7874015748031497,
          "duration": 0.042035743749998744
        },
        {
          "name": "D7",
          "midi": 98,
          "time": 58.9793819999999,
          "velocity": 0.7874015748031497,
          "duration": 0.04311358333333004
        },
        {
          "name": "D#7",
          "midi": 99,
          "time": 59.4967449999999,
          "velocity": 0.7874015748031497,
          "duration": 0.5162851604166647
        },
        {
          "name": "C7",
          "midi": 96,
          "time": 60.014107999999894,
          "velocity": 0.7874015748031497,
          "duration": 0.042035743749998744
        },
        {
          "name": "D7",
          "midi": 98,
          "time": 60.272789499999895,
          "velocity": 0.7874015748031497,
          "duration": 0.042035743749998744
        },
        {
          "name": "D#7",
          "midi": 99,
          "time": 60.40213024999989,
          "velocity": 0.7874015748031497,
          "duration": 0.042035743749998744
        },
        {
          "name": "E7",
          "midi": 100,
          "time": 60.53147099999989,
          "velocity": 0.7874015748031497,
          "duration": 0.7329309166666675
        },
        {
          "name": "E7",
          "midi": 100,
          "time": 61.56619699999989,
          "velocity": 0.7874015748031497,
          "duration": 0.04311358333333004
        },
        {
          "name": "D#7",
          "midi": 99,
          "time": 61.82487849999988,
          "velocity": 0.7874015748031497,
          "duration": 0.04311358333333004
        },
        {
          "name": "D#7",
          "midi": 99,
          "time": 62.08355999999988,
          "velocity": 0.7874015748031497,
          "duration": 0.6025123270833319
        },
        {
          "name": "D#7",
          "midi": 99,
          "time": 63.11828599999988,
          "velocity": 0.7874015748031497,
          "duration": 0.04311358333333004
        },
        {
          "name": "D7",
          "midi": 98,
          "time": 63.290740333333204,
          "velocity": 0.7874015748031497,
          "duration": 0.04311358333333004
        },
        {
          "name": "C#7",
          "midi": 97,
          "time": 63.4621168270832,
          "velocity": 0.7874015748031497,
          "duration": 0.04311358333333004
        },
        {
          "name": "C7",
          "midi": 96,
          "time": 63.635648999999866,
          "velocity": 0.7874015748031497,
          "duration": 1.2934074999999936
        },
        {
          "name": "C7",
          "midi": 96,
          "time": 65.18773799999985,
          "velocity": 0.7874015748031497,
          "duration": 0.04203574375000585
        },
        {
          "name": "C#7",
          "midi": 97,
          "time": 65.18773799999985,
          "velocity": 0.7874015748031497,
          "duration": 0.04203574375000585
        },
        {
          "name": "C7",
          "midi": 96,
          "time": 65.44534166041653,
          "velocity": 0.7874015748031497,
          "duration": 0.04203574375000585
        },
        {
          "name": "C7",
          "midi": 96,
          "time": 65.70510099999987,
          "velocity": 0.7874015748031497,
          "duration": 0.9916124166666691
        },
        {
          "name": "D7",
          "midi": 98,
          "time": 68.29191599999987,
          "velocity": 0.7874015748031497,
          "duration": 0.04203574375000585
        },
        {
          "name": "D#7",
          "midi": 99,
          "time": 68.42017891041654,
          "velocity": 0.7874015748031497,
          "duration": 0.04203574375000585
        },
        {
          "name": "E7",
          "midi": 100,
          "time": 68.54951966041655,
          "velocity": 0.7874015748031497,
          "duration": 0.04203574375000585
        },
        {
          "name": "D#7",
          "midi": 99,
          "time": 68.80927899999989,
          "velocity": 0.7874015748031497,
          "duration": 0.04311358333333715
        },
        {
          "name": "E7",
          "midi": 100,
          "time": 68.80927899999989,
          "velocity": 0.7874015748031497,
          "duration": 0.04311358333333715
        },
        {
          "name": "C#7",
          "midi": 97,
          "time": 69.3266419999999,
          "velocity": 0.7874015748031497,
          "duration": 0.04203574375000585
        },
        {
          "name": "D7",
          "midi": 98,
          "time": 69.4559827499999,
          "velocity": 0.7874015748031497,
          "duration": 0.04203574375000585
        },
        {
          "name": "D#7",
          "midi": 99,
          "time": 69.58532349999992,
          "velocity": 0.7874015748031497,
          "duration": 0.04203574375000585
        },
        {
          "name": "D7",
          "midi": 98,
          "time": 69.84400499999992,
          "velocity": 0.7874015748031497,
          "duration": 0.04311358333333715
        },
        {
          "name": "D#7",
          "midi": 99,
          "time": 69.84400499999992,
          "velocity": 0.7874015748031497,
          "duration": 0.04311358333333715
        },
        {
          "name": "C#7",
          "midi": 97,
          "time": 70.36136799999993,
          "velocity": 0.7874015748031497,
          "duration": 0.04203574375000585
        },
        {
          "name": "D7",
          "midi": 98,
          "time": 70.87873099999993,
          "velocity": 0.7874015748031497,
          "duration": 0.04203574375000585
        },
        {
          "name": "D#7",
          "midi": 99,
          "time": 70.87873099999993,
          "velocity": 0.7874015748031497,
          "duration": 0.04203574375000585
        },
        {
          "name": "D7",
          "midi": 98,
          "time": 71.39609399999993,
          "velocity": 0.7874015748031497,
          "duration": 0.04203574375000585
        },
        {
          "name": "D#7",
          "midi": 99,
          "time": 71.39609399999993,
          "velocity": 0.7874015748031497,
          "duration": 0.04203574375000585
        },
        {
          "name": "C#7",
          "midi": 97,
          "time": 71.65369766041661,
          "velocity": 0.7874015748031497,
          "duration": 0.04311358333333715
        },
        {
          "name": "C#7",
          "midi": 97,
          "time": 71.91345699999995,
          "velocity": 0.7874015748031497,
          "duration": 2.1987927499999955
        },
        {
          "name": "C7",
          "midi": 96,
          "time": 76.56972399999995,
          "velocity": 0.7874015748031497,
          "duration": 0.04203574375000585
        },
        {
          "name": "C#7",
          "midi": 97,
          "time": 76.69798691041662,
          "velocity": 0.7874015748031497,
          "duration": 0.04311358333333715
        },
        {
          "name": "D7",
          "midi": 98,
          "time": 76.82840549999996,
          "velocity": 0.7874015748031497,
          "duration": 0.04203574375000585
        },
        {
          "name": "E7",
          "midi": 100,
          "time": 77.08708699999997,
          "velocity": 0.7874015748031497,
          "duration": 0.04203574375000585
        },
        {
          "name": "D#7",
          "midi": 99,
          "time": 77.34576849999998,
          "velocity": 0.7874015748031497,
          "duration": 0.04203574375000585
        },
        {
          "name": "E7",
          "midi": 100,
          "time": 77.60444999999999,
          "velocity": 0.7874015748031497,
          "duration": 0.6887394937500062
        },
        {
          "name": "E7",
          "midi": 100,
          "time": 78.89677966041666,
          "velocity": 0.7874015748031497,
          "duration": 0.04203574375000585
        },
        {
          "name": "D#7",
          "midi": 99,
          "time": 79.02719825,
          "velocity": 0.7874015748031497,
          "duration": 0.04203574375000585
        },
        {
          "name": "D7",
          "midi": 98,
          "time": 79.15653900000001,
          "velocity": 0.7874015748031497,
          "duration": 0.04203574375000585
        },
        {
          "name": "D#7",
          "midi": 99,
          "time": 79.41414266041669,
          "velocity": 0.7874015748031497,
          "duration": 0.04311358333333715
        },
        {
          "name": "D7",
          "midi": 98,
          "time": 79.67390200000003,
          "velocity": 0.7874015748031497,
          "duration": 0.04203574375000585
        },
        {
          "name": "C7",
          "midi": 96,
          "time": 80.19126500000003,
          "velocity": 0.7874015748031497,
          "duration": 0.8191580833333347
        },
        {
          "name": "C7",
          "midi": 96,
          "time": 81.22599100000004,
          "velocity": 0.7874015748031497,
          "duration": 0.5162851604166718
        },
        {
          "name": "C#7",
          "midi": 97,
          "time": 81.22599100000004,
          "velocity": 0.7874015748031497,
          "duration": 0.5162851604166718
        },
        {
          "name": "E7",
          "midi": 100,
          "time": 81.74335400000004,
          "velocity": 0.7874015748031497,
          "duration": 0.04203574375000585
        },
        {
          "name": "E7",
          "midi": 100,
          "time": 82.00203550000005,
          "velocity": 0.7874015748031497,
          "duration": 0.04203574375000585
        },
        {
          "name": "D#7",
          "midi": 99,
          "time": 82.26071700000006,
          "velocity": 0.7874015748031497,
          "duration": 0.04203574375000585
        },
        {
          "name": "D7",
          "midi": 98,
          "time": 82.39005775000007,
          "velocity": 0.7874015748031497,
          "duration": 0.04203574375000585
        },
        {
          "name": "C7",
          "midi": 96,
          "time": 82.77808000000007,
          "velocity": 0.7874015748031497,
          "duration": 1.1209531666666663
        },
        {
          "name": "C7",
          "midi": 96,
          "time": 84.84753200000007,
          "velocity": 0.7874015748031497,
          "duration": 0.04203574375000585
        },
        {
          "name": "C#7",
          "midi": 97,
          "time": 84.97687275000008,
          "velocity": 0.7874015748031497,
          "duration": 0.04203574375000585
        },
        {
          "name": "D7",
          "midi": 98,
          "time": 85.1062135000001,
          "velocity": 0.7874015748031497,
          "duration": 0.04203574375000585
        },
        {
          "name": "D#7",
          "midi": 99,
          "time": 85.3648950000001,
          "velocity": 0.7874015748031497,
          "duration": 0.04203574375000585
        },
        {
          "name": "D#7",
          "midi": 99,
          "time": 85.8822580000001,
          "velocity": 0.7874015748031497,
          "duration": 0.6887394937500062
        },
        {
          "name": "D7",
          "midi": 98,
          "time": 86.91698400000011,
          "velocity": 0.7874015748031497,
          "duration": 0.04311358333333715
        },
        {
          "name": "D#7",
          "midi": 99,
          "time": 87.04632475000011,
          "velocity": 0.7874015748031497,
          "duration": 0.04203574375000585
        },
        {
          "name": "D7",
          "midi": 98,
          "time": 87.43434700000012,
          "velocity": 0.7874015748031497,
          "duration": 0.04311358333333715
        },
        {
          "name": "D#7",
          "midi": 99,
          "time": 87.56368775000011,
          "velocity": 0.7874015748031497,
          "duration": 0.04203574375000585
        },
        {
          "name": "D#7",
          "midi": 99,
          "time": 87.95171000000012,
          "velocity": 0.7874015748031497,
          "duration": 0.3869444104166604
        },
        {
          "name": "C7",
          "midi": 96,
          "time": 88.46907300000011,
          "velocity": 0.7874015748031497,
          "duration": 1.2061024937499951
        },
        {
          "name": "D7",
          "midi": 98,
          "time": 90.0211620000001,
          "velocity": 0.7874015748031497,
          "duration": 0.04203574375000585
        },
        {
          "name": "C#7",
          "midi": 97,
          "time": 90.27876566041678,
          "velocity": 0.7874015748031497,
          "duration": 0.04311358333333715
        },
        {
          "name": "C7",
          "midi": 96,
          "time": 90.53852500000012,
          "velocity": 0.7874015748031497,
          "duration": 1.5510111604166639
        },
        {
          "name": "D7",
          "midi": 98,
          "time": 92.09061400000012,
          "velocity": 0.7874015748031497,
          "duration": 0.04311358333333715
        },
        {
          "name": "D7",
          "midi": 98,
          "time": 92.34929550000012,
          "velocity": 0.7874015748031497,
          "duration": 0.04311358333333715
        },
        {
          "name": "D#7",
          "midi": 99,
          "time": 92.34929550000012,
          "velocity": 0.7874015748031497,
          "duration": 0.04311358333333715
        },
        {
          "name": "E7",
          "midi": 100,
          "time": 92.34929550000012,
          "velocity": 0.7874015748031497,
          "duration": 0.04311358333333715
        },
        {
          "name": "D7",
          "midi": 98,
          "time": 92.60797700000013,
          "velocity": 0.7874015748031497,
          "duration": 0.948498833333332
        },
        {
          "name": "D#7",
          "midi": 99,
          "time": 92.60797700000013,
          "velocity": 0.7874015748031497,
          "duration": 0.948498833333332
        },
        {
          "name": "E7",
          "midi": 100,
          "time": 92.60797700000013,
          "velocity": 0.7874015748031497,
          "duration": 0.948498833333332
        },
        {
          "name": "D7",
          "midi": 98,
          "time": 93.64270300000013,
          "velocity": 0.7874015748031497,
          "duration": 0.04311358333333715
        },
        {
          "name": "D7",
          "midi": 98,
          "time": 93.90138450000013,
          "velocity": 0.7874015748031497,
          "duration": 0.001077839583331297
        },
        {
          "name": "D#7",
          "midi": 99,
          "time": 93.90138450000013,
          "velocity": 0.7874015748031497,
          "duration": 0.001077839583331297
        },
        {
          "name": "E7",
          "midi": 100,
          "time": 93.90138450000013,
          "velocity": 0.7874015748031497,
          "duration": 0.001077839583331297
        },
        {
          "name": "D7",
          "midi": 98,
          "time": 94.16006600000013,
          "velocity": 0.7874015748031497,
          "duration": 0.04095790416666034
        },
        {
          "name": "D7",
          "midi": 98,
          "time": 94.41874750000012,
          "velocity": 0.7874015748031497,
          "duration": 0.04203574375000585
        },
        {
          "name": "D7",
          "midi": 98,
          "time": 94.67742900000013,
          "velocity": 0.7874015748031497,
          "duration": 0.948498833333332
        },
        {
          "name": "D#7",
          "midi": 99,
          "time": 94.67742900000013,
          "velocity": 0.7874015748031497,
          "duration": 0.948498833333332
        },
        {
          "name": "E7",
          "midi": 100,
          "time": 94.67742900000013,
          "velocity": 0.7874015748031497,
          "duration": 0.948498833333332
        },
        {
          "name": "D7",
          "midi": 98,
          "time": 95.71215500000012,
          "velocity": 0.7874015748031497,
          "duration": 0.04311358333333715
        },
        {
          "name": "D7",
          "midi": 98,
          "time": 95.97083650000013,
          "velocity": 0.7874015748031497,
          "duration": 0.04311358333333715
        },
        {
          "name": "D#7",
          "midi": 99,
          "time": 95.97083650000013,
          "velocity": 0.7874015748031497,
          "duration": 0.04311358333333715
        },
        {
          "name": "E7",
          "midi": 100,
          "time": 95.97083650000013,
          "velocity": 0.7874015748031497,
          "duration": 0.04311358333333715
        },
        {
          "name": "D7",
          "midi": 98,
          "time": 96.22951800000014,
          "velocity": 0.7874015748031497,
          "duration": 0.04311358333333715
        },
        {
          "name": "D#7",
          "midi": 99,
          "time": 96.22951800000014,
          "velocity": 0.7874015748031497,
          "duration": 0.04311358333333715
        },
        {
          "name": "E7",
          "midi": 100,
          "time": 96.22951800000014,
          "velocity": 0.7874015748031497,
          "duration": 0.04311358333333715
        },
        {
          "name": "C7",
          "midi": 96,
          "time": 96.48712166041682,
          "velocity": 0.7874015748031497,
          "duration": 0.04311358333333715
        },
        {
          "name": "C7",
          "midi": 96,
          "time": 96.74580316041683,
          "velocity": 0.7874015748031497,
          "duration": 0.9064630895833403
        },
        {
          "name": "D7",
          "midi": 98,
          "time": 96.74580316041683,
          "velocity": 0.7874015748031497,
          "duration": 0.9064630895833403
        },
        {
          "name": "D#7",
          "midi": 99,
          "time": 96.74580316041683,
          "velocity": 0.7874015748031497,
          "duration": 0.9064630895833403
        },
        {
          "name": "C7",
          "midi": 96,
          "time": 97.78160700000016,
          "velocity": 0.7874015748031497,
          "duration": 0.43005799374999754
        },
        {
          "name": "D7",
          "midi": 98,
          "time": 97.78160700000016,
          "velocity": 0.7874015748031497,
          "duration": 0.43005799374999754
        },
        {
          "name": "D#7",
          "midi": 99,
          "time": 97.78160700000016,
          "velocity": 0.7874015748031497,
          "duration": 0.43005799374999754
        },
        {
          "name": "C7",
          "midi": 96,
          "time": 98.29897000000017,
          "velocity": 0.7874015748031497,
          "duration": 0.04311358333333715
        },
        {
          "name": "C7",
          "midi": 96,
          "time": 98.55765150000018,
          "velocity": 0.7874015748031497,
          "duration": 0.04311358333333715
        },
        {
          "name": "C7",
          "midi": 96,
          "time": 98.81633300000018,
          "velocity": 0.7874015748031497,
          "duration": 1.0336481604166607
        },
        {
          "name": "D7",
          "midi": 98,
          "time": 98.81633300000018,
          "velocity": 0.7874015748031497,
          "duration": 1.0336481604166607
        },
        {
          "name": "D#7",
          "midi": 99,
          "time": 98.81633300000018,
          "velocity": 0.7874015748031497,
          "duration": 1.0336481604166607
        },
        {
          "name": "C7",
          "midi": 96,
          "time": 99.85105900000018,
          "velocity": 0.7874015748031497,
          "duration": 0.04203574375000585
        },
        {
          "name": "C7",
          "midi": 96,
          "time": 100.10866266041685,
          "velocity": 0.7874015748031497,
          "duration": 0.044191422916668444
        },
        {
          "name": "D7",
          "midi": 98,
          "time": 100.10866266041685,
          "velocity": 0.7874015748031497,
          "duration": 0.044191422916668444
        },
        {
          "name": "D#7",
          "midi": 99,
          "time": 100.10866266041685,
          "velocity": 0.7874015748031497,
          "duration": 0.044191422916668444
        },
        {
          "name": "C7",
          "midi": 96,
          "time": 100.3684220000002,
          "velocity": 0.7874015748031497,
          "duration": 0.04311358333333715
        },
        {
          "name": "D7",
          "midi": 98,
          "time": 100.3684220000002,
          "velocity": 0.7874015748031497,
          "duration": 0.04311358333333715
        },
        {
          "name": "D#7",
          "midi": 99,
          "time": 100.3684220000002,
          "velocity": 0.7874015748031497,
          "duration": 0.04311358333333715
        },
        {
          "name": "C#7",
          "midi": 97,
          "time": 100.8857850000002,
          "velocity": 0.7874015748031497,
          "duration": 0.5162851604166718
        },
        {
          "name": "D7",
          "midi": 98,
          "time": 100.8857850000002,
          "velocity": 0.7874015748031497,
          "duration": 0.5162851604166718
        },
        {
          "name": "D#7",
          "midi": 99,
          "time": 100.8857850000002,
          "velocity": 0.7874015748031497,
          "duration": 0.5162851604166718
        },
        {
          "name": "C#7",
          "midi": 97,
          "time": 101.4031480000002,
          "velocity": 0.7874015748031497,
          "duration": 0.04203574375000585
        },
        {
          "name": "C#7",
          "midi": 97,
          "time": 101.9205110000002,
          "velocity": 0.7874015748031497,
          "duration": 0.04203574375000585
        },
        {
          "name": "C#7",
          "midi": 97,
          "time": 102.17811466041688,
          "velocity": 0.7874015748031497,
          "duration": 0.04311358333333715
        },
        {
          "name": "D7",
          "midi": 98,
          "time": 102.17811466041688,
          "velocity": 0.7874015748031497,
          "duration": 0.04311358333333715
        },
        {
          "name": "D#7",
          "midi": 99,
          "time": 102.17811466041688,
          "velocity": 0.7874015748031497,
          "duration": 0.04311358333333715
        },
        {
          "name": "C#7",
          "midi": 97,
          "time": 102.43787400000022,
          "velocity": 0.7874015748031497,
          "duration": 0.04203574375000585
        },
        {
          "name": "C#7",
          "midi": 97,
          "time": 102.69655550000023,
          "velocity": 0.7874015748031497,
          "duration": 0.04203574375000585
        },
        {
          "name": "C#7",
          "midi": 97,
          "time": 102.95523700000024,
          "velocity": 0.7874015748031497,
          "duration": 0.5162851604166718
        },
        {
          "name": "D7",
          "midi": 98,
          "time": 102.95523700000024,
          "velocity": 0.7874015748031497,
          "duration": 0.5162851604166718
        },
        {
          "name": "D#7",
          "midi": 99,
          "time": 102.95523700000024,
          "velocity": 0.7874015748031497,
          "duration": 0.5162851604166718
        },
        {
          "name": "C#7",
          "midi": 97,
          "time": 103.47260000000024,
          "velocity": 0.7874015748031497,
          "duration": 0.04203574375000585
        },
        {
          "name": "C#7",
          "midi": 97,
          "time": 103.73128150000025,
          "velocity": 0.7874015748031497,
          "duration": 0.04203574375000585
        },
        {
          "name": "C#7",
          "midi": 97,
          "time": 103.98996300000026,
          "velocity": 0.7874015748031497,
          "duration": 0.04203574375000585
        },
        {
          "name": "C#7",
          "midi": 97,
          "time": 104.24756666041694,
          "velocity": 0.7874015748031497,
          "duration": 0.04311358333333715
        },
        {
          "name": "D7",
          "midi": 98,
          "time": 104.24756666041694,
          "velocity": 0.7874015748031497,
          "duration": 0.04311358333333715
        },
        {
          "name": "D#7",
          "midi": 99,
          "time": 104.24756666041694,
          "velocity": 0.7874015748031497,
          "duration": 0.04311358333333715
        },
        {
          "name": "C#7",
          "midi": 97,
          "time": 104.50732600000028,
          "velocity": 0.7874015748031497,
          "duration": 0.04203574375000585
        },
        {
          "name": "D7",
          "midi": 98,
          "time": 104.50732600000028,
          "velocity": 0.7874015748031497,
          "duration": 0.04203574375000585
        },
        {
          "name": "D#7",
          "midi": 99,
          "time": 104.50732600000028,
          "velocity": 0.7874015748031497,
          "duration": 0.04203574375000585
        },
        {
          "name": "C7",
          "midi": 96,
          "time": 104.76600750000028,
          "velocity": 0.7874015748031497,
          "duration": 0.04203574375000585
        },
        {
          "name": "C7",
          "midi": 96,
          "time": 105.0246890000003,
          "velocity": 0.7874015748031497,
          "duration": 0.9053852499999948
        },
        {
          "name": "C#7",
          "midi": 97,
          "time": 105.0246890000003,
          "velocity": 0.7874015748031497,
          "duration": 0.9053852499999948
        },
        {
          "name": "D7",
          "midi": 98,
          "time": 105.0246890000003,
          "velocity": 0.7874015748031497,
          "duration": 0.9053852499999948
        },
        {
          "name": "C7",
          "midi": 96,
          "time": 106.05941500000029,
          "velocity": 0.7874015748031497,
          "duration": 0.04203574375000585
        },
        {
          "name": "C7",
          "midi": 96,
          "time": 106.31701866041696,
          "velocity": 0.7874015748031497,
          "duration": 0.04311358333333715
        },
        {
          "name": "C#7",
          "midi": 97,
          "time": 106.31701866041696,
          "velocity": 0.7874015748031497,
          "duration": 0.04311358333333715
        },
        {
          "name": "D7",
          "midi": 98,
          "time": 106.31701866041696,
          "velocity": 0.7874015748031497,
          "duration": 0.04311358333333715
        },
        {
          "name": "C7",
          "midi": 96,
          "time": 106.5767780000003,
          "velocity": 0.7874015748031497,
          "duration": 0.04203574375000585
        },
        {
          "name": "C7",
          "midi": 96,
          "time": 106.83545950000031,
          "velocity": 0.7874015748031497,
          "duration": 0.04203574375000585
        },
        {
          "name": "C7",
          "midi": 96,
          "time": 107.09414100000032,
          "velocity": 0.7874015748031497,
          "duration": 0.5162851604166718
        },
        {
          "name": "C#7",
          "midi": 97,
          "time": 107.09414100000032,
          "velocity": 0.7874015748031497,
          "duration": 0.5162851604166718
        },
        {
          "name": "D7",
          "midi": 98,
          "time": 107.09414100000032,
          "velocity": 0.7874015748031497,
          "duration": 0.5162851604166718
        },
        {
          "name": "C7",
          "midi": 96,
          "time": 107.61150400000032,
          "velocity": 0.7874015748031497,
          "duration": 0.04203574375000585
        },
        {
          "name": "C7",
          "midi": 96,
          "time": 108.12886700000033,
          "velocity": 0.7874015748031497,
          "duration": 0.04311358333333715
        },
        {
          "name": "C7",
          "midi": 96,
          "time": 108.386470660417,
          "velocity": 0.7874015748031497,
          "duration": 0.04311358333333715
        },
        {
          "name": "C#7",
          "midi": 97,
          "time": 108.386470660417,
          "velocity": 0.7874015748031497,
          "duration": 0.04311358333333715
        },
        {
          "name": "D7",
          "midi": 98,
          "time": 108.386470660417,
          "velocity": 0.7874015748031497,
          "duration": 0.04311358333333715
        },
        {
          "name": "C7",
          "midi": 96,
          "time": 108.64623000000034,
          "velocity": 0.7874015748031497,
          "duration": 0.04203574375000585
        },
        {
          "name": "C7",
          "midi": 96,
          "time": 108.90491150000035,
          "velocity": 0.7874015748031497,
          "duration": 0.04203574375000585
        },
        {
          "name": "D7",
          "midi": 98,
          "time": 109.16359300000036,
          "velocity": 0.7874015748031497,
          "duration": 0.5162851604166718
        },
        {
          "name": "D#7",
          "midi": 99,
          "time": 109.16359300000036,
          "velocity": 0.7874015748031497,
          "duration": 0.5162851604166718
        },
        {
          "name": "E7",
          "midi": 100,
          "time": 109.16359300000036,
          "velocity": 0.7874015748031497,
          "duration": 0.5162851604166718
        },
        {
          "name": "D7",
          "midi": 98,
          "time": 109.68095600000036,
          "velocity": 0.7874015748031497,
          "duration": 0.04203574375000585
        },
        {
          "name": "D7",
          "midi": 98,
          "time": 110.19831900000037,
          "velocity": 0.7874015748031497,
          "duration": 0.04311358333333715
        },
        {
          "name": "D7",
          "midi": 98,
          "time": 110.45592266041704,
          "velocity": 0.7874015748031497,
          "duration": 0.001077839583331297
        },
        {
          "name": "D#7",
          "midi": 99,
          "time": 110.45592266041704,
          "velocity": 0.7874015748031497,
          "duration": 0.001077839583331297
        },
        {
          "name": "E7",
          "midi": 100,
          "time": 110.45592266041704,
          "velocity": 0.7874015748031497,
          "duration": 0.001077839583331297
        },
        {
          "name": "D7",
          "midi": 98,
          "time": 110.71568200000037,
          "velocity": 0.7874015748031497,
          "duration": 0.04203574375000585
        },
        {
          "name": "D7",
          "midi": 98,
          "time": 110.97328566041705,
          "velocity": 0.7874015748031497,
          "duration": 0.04203574375000585
        },
        {
          "name": "D7",
          "midi": 98,
          "time": 111.23304500000039,
          "velocity": 0.7874015748031497,
          "duration": 0.948498833333332
        },
        {
          "name": "D#7",
          "midi": 99,
          "time": 111.23304500000039,
          "velocity": 0.7874015748031497,
          "duration": 0.948498833333332
        },
        {
          "name": "E7",
          "midi": 100,
          "time": 111.23304500000039,
          "velocity": 0.7874015748031497,
          "duration": 0.948498833333332
        },
        {
          "name": "D7",
          "midi": 98,
          "time": 112.26777100000038,
          "velocity": 0.7874015748031497,
          "duration": 0.04311358333333715
        },
        {
          "name": "D7",
          "midi": 98,
          "time": 112.52537466041706,
          "velocity": 0.7874015748031497,
          "duration": 0.044191422916668444
        },
        {
          "name": "D#7",
          "midi": 99,
          "time": 112.52537466041706,
          "velocity": 0.7874015748031497,
          "duration": 0.044191422916668444
        },
        {
          "name": "E7",
          "midi": 100,
          "time": 112.52537466041706,
          "velocity": 0.7874015748031497,
          "duration": 0.044191422916668444
        },
        {
          "name": "D7",
          "midi": 98,
          "time": 112.7851340000004,
          "velocity": 0.7874015748031497,
          "duration": 0.04311358333333715
        },
        {
          "name": "D#7",
          "midi": 99,
          "time": 112.7851340000004,
          "velocity": 0.7874015748031497,
          "duration": 0.04311358333333715
        },
        {
          "name": "E7",
          "midi": 100,
          "time": 112.7851340000004,
          "velocity": 0.7874015748031497,
          "duration": 0.04311358333333715
        },
        {
          "name": "C7",
          "midi": 96,
          "time": 113.04273766041707,
          "velocity": 0.7874015748031497,
          "duration": 0.04203574375000585
        },
        {
          "name": "C7",
          "midi": 96,
          "time": 113.30249700000041,
          "velocity": 0.7874015748031497,
          "duration": 0.9053852499999948
        },
        {
          "name": "D7",
          "midi": 98,
          "time": 113.30249700000041,
          "velocity": 0.7874015748031497,
          "duration": 0.9053852499999948
        },
        {
          "name": "D#7",
          "midi": 99,
          "time": 113.30249700000041,
          "velocity": 0.7874015748031497,
          "duration": 0.9053852499999948
        },
        {
          "name": "C7",
          "midi": 96,
          "time": 114.3372230000004,
          "velocity": 0.7874015748031497,
          "duration": 0.001077839583331297
        },
        {
          "name": "D7",
          "midi": 98,
          "time": 114.3372230000004,
          "velocity": 0.7874015748031497,
          "duration": 0.001077839583331297
        },
        {
          "name": "D#7",
          "midi": 99,
          "time": 114.3372230000004,
          "velocity": 0.7874015748031497,
          "duration": 0.001077839583331297
        },
        {
          "name": "C7",
          "midi": 96,
          "time": 114.5959045000004,
          "velocity": 0.7874015748031497,
          "duration": 0.001077839583331297
        },
        {
          "name": "D7",
          "midi": 98,
          "time": 114.5959045000004,
          "velocity": 0.7874015748031497,
          "duration": 0.001077839583331297
        },
        {
          "name": "D#7",
          "midi": 99,
          "time": 114.5959045000004,
          "velocity": 0.7874015748031497,
          "duration": 0.001077839583331297
        },
        {
          "name": "C7",
          "midi": 96,
          "time": 114.8545860000004,
          "velocity": 0.7874015748031497,
          "duration": 0.04311358333333715
        },
        {
          "name": "C7",
          "midi": 96,
          "time": 115.1132675000004,
          "velocity": 0.7874015748031497,
          "duration": 0.04311358333333715
        },
        {
          "name": "C7",
          "midi": 96,
          "time": 115.37194900000041,
          "velocity": 0.7874015748031497,
          "duration": 1.0336481604166607
        },
        {
          "name": "D7",
          "midi": 98,
          "time": 115.37194900000041,
          "velocity": 0.7874015748031497,
          "duration": 1.0336481604166607
        },
        {
          "name": "D#7",
          "midi": 99,
          "time": 115.37194900000041,
          "velocity": 0.7874015748031497,
          "duration": 1.0336481604166607
        },
        {
          "name": "C7",
          "midi": 96,
          "time": 116.4066750000004,
          "velocity": 0.7874015748031497,
          "duration": 0.04311358333333715
        },
        {
          "name": "C7",
          "midi": 96,
          "time": 116.66427866041708,
          "velocity": 0.7874015748031497,
          "duration": 0.04311358333333715
        },
        {
          "name": "D7",
          "midi": 98,
          "time": 116.66427866041708,
          "velocity": 0.7874015748031497,
          "duration": 0.04311358333333715
        },
        {
          "name": "D#7",
          "midi": 99,
          "time": 116.66427866041708,
          "velocity": 0.7874015748031497,
          "duration": 0.04311358333333715
        },
        {
          "name": "C7",
          "midi": 96,
          "time": 116.92403800000042,
          "velocity": 0.7874015748031497,
          "duration": 0.04311358333333715
        },
        {
          "name": "D7",
          "midi": 98,
          "time": 116.92403800000042,
          "velocity": 0.7874015748031497,
          "duration": 0.04311358333333715
        },
        {
          "name": "D#7",
          "midi": 99,
          "time": 116.92403800000042,
          "velocity": 0.7874015748031497,
          "duration": 0.04311358333333715
        },
        {
          "name": "C#7",
          "midi": 97,
          "time": 117.44140100000043,
          "velocity": 0.7874015748031497,
          "duration": 0.5162851604166718
        },
        {
          "name": "D7",
          "midi": 98,
          "time": 117.44140100000043,
          "velocity": 0.7874015748031497,
          "duration": 0.5162851604166718
        },
        {
          "name": "D#7",
          "midi": 99,
          "time": 117.44140100000043,
          "velocity": 0.7874015748031497,
          "duration": 0.5162851604166718
        },
        {
          "name": "C#7",
          "midi": 97,
          "time": 117.95876400000043,
          "velocity": 0.7874015748031497,
          "duration": 0.04311358333333715
        },
        {
          "name": "C#7",
          "midi": 97,
          "time": 118.21744550000044,
          "velocity": 0.7874015748031497,
          "duration": 0.04203574375000585
        },
        {
          "name": "C#7",
          "midi": 97,
          "time": 118.47612700000045,
          "velocity": 0.7874015748031497,
          "duration": 0.04203574375000585
        },
        {
          "name": "D7",
          "midi": 98,
          "time": 118.47612700000045,
          "velocity": 0.7874015748031497,
          "duration": 0.04203574375000585
        },
        {
          "name": "D#7",
          "midi": 99,
          "time": 118.47612700000045,
          "velocity": 0.7874015748031497,
          "duration": 0.04203574375000585
        },
        {
          "name": "C#7",
          "midi": 97,
          "time": 118.73480850000045,
          "velocity": 0.7874015748031497,
          "duration": 0.04203574375000585
        },
        {
          "name": "D7",
          "midi": 98,
          "time": 118.73480850000045,
          "velocity": 0.7874015748031497,
          "duration": 0.04203574375000585
        },
        {
          "name": "D#7",
          "midi": 99,
          "time": 118.73480850000045,
          "velocity": 0.7874015748031497,
          "duration": 0.04203574375000585
        },
        {
          "name": "C#7",
          "midi": 97,
          "time": 118.99349000000046,
          "velocity": 0.7874015748031497,
          "duration": 0.04311358333333715
        },
        {
          "name": "C#7",
          "midi": 97,
          "time": 119.51085300000047,
          "velocity": 0.7874015748031497,
          "duration": 0.5162851604166718
        },
        {
          "name": "D7",
          "midi": 98,
          "time": 119.51085300000047,
          "velocity": 0.7874015748031497,
          "duration": 0.5162851604166718
        },
        {
          "name": "D#7",
          "midi": 99,
          "time": 119.51085300000047,
          "velocity": 0.7874015748031497,
          "duration": 0.5162851604166718
        },
        {
          "name": "C#7",
          "midi": 97,
          "time": 120.02821600000047,
          "velocity": 0.7874015748031497,
          "duration": 0.04311358333333715
        },
        {
          "name": "C#7",
          "midi": 97,
          "time": 120.28689750000048,
          "velocity": 0.7874015748031497,
          "duration": 0.04311358333333715
        },
        {
          "name": "C#7",
          "midi": 97,
          "time": 120.54557900000049,
          "velocity": 0.7874015748031497,
          "duration": 0.04311358333333715
        },
        {
          "name": "C#7",
          "midi": 97,
          "time": 120.80210482083382,
          "velocity": 0.7874015748031497,
          "duration": 0.044191422916668444
        },
        {
          "name": "D7",
          "midi": 98,
          "time": 120.80210482083382,
          "velocity": 0.7874015748031497,
          "duration": 0.044191422916668444
        },
        {
          "name": "D#7",
          "midi": 99,
          "time": 120.80210482083382,
          "velocity": 0.7874015748031497,
          "duration": 0.044191422916668444
        },
        {
          "name": "C#7",
          "midi": 97,
          "time": 121.06186416041716,
          "velocity": 0.7874015748031497,
          "duration": 0.04311358333333715
        },
        {
          "name": "D7",
          "midi": 98,
          "time": 121.06186416041716,
          "velocity": 0.7874015748031497,
          "duration": 0.04311358333333715
        },
        {
          "name": "D#7",
          "midi": 99,
          "time": 121.06186416041716,
          "velocity": 0.7874015748031497,
          "duration": 0.04311358333333715
        },
        {
          "name": "C7",
          "midi": 96,
          "time": 121.3216235000005,
          "velocity": 0.7874015748031497,
          "duration": 0.04203574375000585
        },
        {
          "name": "C7",
          "midi": 96,
          "time": 121.58030500000051,
          "velocity": 0.7874015748031497,
          "duration": 0.5162851604166718
        },
        {
          "name": "C#7",
          "midi": 97,
          "time": 121.58030500000051,
          "velocity": 0.7874015748031497,
          "duration": 0.5162851604166718
        },
        {
          "name": "D7",
          "midi": 98,
          "time": 121.58030500000051,
          "velocity": 0.7874015748031497,
          "duration": 0.5162851604166718
        },
        {
          "name": "C7",
          "midi": 96,
          "time": 122.09766800000051,
          "velocity": 0.7874015748031497,
          "duration": 0.04203574375000585
        },
        {
          "name": "C7",
          "midi": 96,
          "time": 122.35634950000052,
          "velocity": 0.7874015748031497,
          "duration": 0.04203574375000585
        },
        {
          "name": "C7",
          "midi": 96,
          "time": 122.61503100000053,
          "velocity": 0.7874015748031497,
          "duration": 0.04203574375000585
        },
        {
          "name": "C#7",
          "midi": 97,
          "time": 122.61503100000053,
          "velocity": 0.7874015748031497,
          "duration": 0.04203574375000585
        },
        {
          "name": "D7",
          "midi": 98,
          "time": 122.61503100000053,
          "velocity": 0.7874015748031497,
          "duration": 0.04203574375000585
        },
        {
          "name": "C7",
          "midi": 96,
          "time": 122.8726346604172,
          "velocity": 0.7874015748031497,
          "duration": 0.04311358333333715
        },
        {
          "name": "C#7",
          "midi": 97,
          "time": 122.8726346604172,
          "velocity": 0.7874015748031497,
          "duration": 0.04311358333333715
        },
        {
          "name": "D7",
          "midi": 98,
          "time": 122.8726346604172,
          "velocity": 0.7874015748031497,
          "duration": 0.04311358333333715
        },
        {
          "name": "C7",
          "midi": 96,
          "time": 123.13239400000055,
          "velocity": 0.7874015748031497,
          "duration": 0.04095790416666034
        },
        {
          "name": "C7",
          "midi": 96,
          "time": 123.39107550000054,
          "velocity": 0.7874015748031497,
          "duration": 0.04203574375000585
        },
        {
          "name": "C7",
          "midi": 96,
          "time": 123.64975700000055,
          "velocity": 0.7874015748031497,
          "duration": 0.3880222500000059
        },
        {
          "name": "C#7",
          "midi": 97,
          "time": 123.64975700000055,
          "velocity": 0.7874015748031497,
          "duration": 0.3880222500000059
        },
        {
          "name": "D7",
          "midi": 98,
          "time": 123.64975700000055,
          "velocity": 0.7874015748031497,
          "duration": 0.3880222500000059
        },
        {
          "name": "C7",
          "midi": 96,
          "time": 124.16712000000055,
          "velocity": 0.7874015748031497,
          "duration": 0.5162851604166718
        },
        {
          "name": "C#7",
          "midi": 97,
          "time": 124.16712000000055,
          "velocity": 0.7874015748031497,
          "duration": 0.5162851604166718
        },
        {
          "name": "D7",
          "midi": 98,
          "time": 124.16712000000055,
          "velocity": 0.7874015748031497,
          "duration": 0.5162851604166718
        },
        {
          "name": "C7",
          "midi": 96,
          "time": 125.20184600000056,
          "velocity": 0.7874015748031497,
          "duration": 0.04203574375000585
        },
        {
          "name": "D7",
          "midi": 98,
          "time": 125.71920900000056,
          "velocity": 0.7874015748031497,
          "duration": 0.9474209937500007
        },
        {
          "name": "D#7",
          "midi": 99,
          "time": 125.71920900000056,
          "velocity": 0.7874015748031497,
          "duration": 0.9474209937500007
        },
        {
          "name": "E7",
          "midi": 100,
          "time": 125.71920900000056,
          "velocity": 0.7874015748031497,
          "duration": 0.9474209937500007
        },
        {
          "name": "D7",
          "midi": 98,
          "time": 126.75393500000057,
          "velocity": 0.7874015748031497,
          "duration": 0.04311358333333715
        },
        {
          "name": "D7",
          "midi": 98,
          "time": 127.01153866041724,
          "velocity": 0.7874015748031497,
          "duration": 0.001077839583331297
        },
        {
          "name": "D#7",
          "midi": 99,
          "time": 127.01153866041724,
          "velocity": 0.7874015748031497,
          "duration": 0.001077839583331297
        },
        {
          "name": "E7",
          "midi": 100,
          "time": 127.01153866041724,
          "velocity": 0.7874015748031497,
          "duration": 0.001077839583331297
        },
        {
          "name": "D7",
          "midi": 98,
          "time": 127.27129800000057,
          "velocity": 0.7874015748031497,
          "duration": 0.04203574375000585
        },
        {
          "name": "D7",
          "midi": 98,
          "time": 127.52890166041725,
          "velocity": 0.7874015748031497,
          "duration": 0.04095790416666034
        },
        {
          "name": "D7",
          "midi": 98,
          "time": 127.78866100000057,
          "velocity": 0.7874015748031497,
          "duration": 0.9484988333333462
        },
        {
          "name": "D#7",
          "midi": 99,
          "time": 127.78866100000057,
          "velocity": 0.7874015748031497,
          "duration": 0.9484988333333462
        },
        {
          "name": "E7",
          "midi": 100,
          "time": 127.78866100000057,
          "velocity": 0.7874015748031497,
          "duration": 0.9484988333333462
        },
        {
          "name": "D7",
          "midi": 98,
          "time": 128.8233870000006,
          "velocity": 0.7874015748031497,
          "duration": 0.04203574375000585
        },
        {
          "name": "D7",
          "midi": 98,
          "time": 129.0820685000006,
          "velocity": 0.7874015748031497,
          "duration": 0.04203574375000585
        },
        {
          "name": "D#7",
          "midi": 99,
          "time": 129.0820685000006,
          "velocity": 0.7874015748031497,
          "duration": 0.04203574375000585
        },
        {
          "name": "E7",
          "midi": 100,
          "time": 129.0820685000006,
          "velocity": 0.7874015748031497,
          "duration": 0.04203574375000585
        },
        {
          "name": "D7",
          "midi": 98,
          "time": 129.34075000000058,
          "velocity": 0.7874015748031497,
          "duration": 0.04311358333333715
        },
        {
          "name": "D#7",
          "midi": 99,
          "time": 129.34075000000058,
          "velocity": 0.7874015748031497,
          "duration": 0.04311358333333715
        },
        {
          "name": "E7",
          "midi": 100,
          "time": 129.34075000000058,
          "velocity": 0.7874015748031497,
          "duration": 0.04311358333333715
        },
        {
          "name": "C7",
          "midi": 96,
          "time": 129.59835366041725,
          "velocity": 0.7874015748031497,
          "duration": 0.04203574375000585
        },
        {
          "name": "C7",
          "midi": 96,
          "time": 129.85811300000057,
          "velocity": 0.7874015748031497,
          "duration": 0.9053852499999948
        },
        {
          "name": "D7",
          "midi": 98,
          "time": 129.85811300000057,
          "velocity": 0.7874015748031497,
          "duration": 0.9053852499999948
        },
        {
          "name": "D#7",
          "midi": 99,
          "time": 129.85811300000057,
          "velocity": 0.7874015748031497,
          "duration": 0.9053852499999948
        },
        {
          "name": "C7",
          "midi": 96,
          "time": 130.89283900000058,
          "velocity": 0.7874015748031497,
          "duration": 0.43113583333334304
        },
        {
          "name": "D7",
          "midi": 98,
          "time": 130.89283900000058,
          "velocity": 0.7874015748031497,
          "duration": 0.43113583333334304
        },
        {
          "name": "D#7",
          "midi": 99,
          "time": 130.89283900000058,
          "velocity": 0.7874015748031497,
          "duration": 0.43113583333334304
        },
        {
          "name": "C7",
          "midi": 96,
          "time": 131.4102020000006,
          "velocity": 0.7874015748031497,
          "duration": 0.04311358333333715
        },
        {
          "name": "C7",
          "midi": 96,
          "time": 131.6688835000006,
          "velocity": 0.7874015748031497,
          "duration": 0.044191422916668444
        },
        {
          "name": "C7",
          "midi": 96,
          "time": 131.92756500000058,
          "velocity": 0.7874015748031497,
          "duration": 1.033648160416675
        },
        {
          "name": "D7",
          "midi": 98,
          "time": 131.92756500000058,
          "velocity": 0.7874015748031497,
          "duration": 1.033648160416675
        },
        {
          "name": "D#7",
          "midi": 99,
          "time": 131.92756500000058,
          "velocity": 0.7874015748031497,
          "duration": 1.033648160416675
        },
        {
          "name": "C7",
          "midi": 96,
          "time": 132.9622910000006,
          "velocity": 0.7874015748031497,
          "duration": 0.04311358333333715
        },
        {
          "name": "C7",
          "midi": 96,
          "time": 133.21989466041725,
          "velocity": 0.7874015748031497,
          "duration": 0.04311358333333715
        },
        {
          "name": "D7",
          "midi": 98,
          "time": 133.21989466041725,
          "velocity": 0.7874015748031497,
          "duration": 0.04311358333333715
        },
        {
          "name": "D#7",
          "midi": 99,
          "time": 133.21989466041725,
          "velocity": 0.7874015748031497,
          "duration": 0.04311358333333715
        },
        {
          "name": "C7",
          "midi": 96,
          "time": 133.47965400000058,
          "velocity": 0.7874015748031497,
          "duration": 0.044191422916668444
        },
        {
          "name": "D7",
          "midi": 98,
          "time": 133.47965400000058,
          "velocity": 0.7874015748031497,
          "duration": 0.044191422916668444
        },
        {
          "name": "D#7",
          "midi": 99,
          "time": 133.47965400000058,
          "velocity": 0.7874015748031497,
          "duration": 0.044191422916668444
        },
        {
          "name": "C#7",
          "midi": 97,
          "time": 133.99701700000057,
          "velocity": 0.7874015748031497,
          "duration": 0.5162851604166576
        },
        {
          "name": "D7",
          "midi": 98,
          "time": 133.99701700000057,
          "velocity": 0.7874015748031497,
          "duration": 0.5162851604166576
        },
        {
          "name": "D#7",
          "midi": 99,
          "time": 133.99701700000057,
          "velocity": 0.7874015748031497,
          "duration": 0.5162851604166576
        },
        {
          "name": "C#7",
          "midi": 97,
          "time": 134.51438000000056,
          "velocity": 0.7874015748031497,
          "duration": 0.04311358333333715
        },
        {
          "name": "C#7",
          "midi": 97,
          "time": 134.77306150000055,
          "velocity": 0.7874015748031497,
          "duration": 0.04203574375000585
        },
        {
          "name": "C#7",
          "midi": 97,
          "time": 135.03174300000055,
          "velocity": 0.7874015748031497,
          "duration": 0.04311358333333715
        },
        {
          "name": "D7",
          "midi": 98,
          "time": 135.03174300000055,
          "velocity": 0.7874015748031497,
          "duration": 0.04311358333333715
        },
        {
          "name": "D#7",
          "midi": 99,
          "time": 135.03174300000055,
          "velocity": 0.7874015748031497,
          "duration": 0.04311358333333715
        },
        {
          "name": "C#7",
          "midi": 97,
          "time": 135.29042450000054,
          "velocity": 0.7874015748031497,
          "duration": 0.04203574375000585
        },
        {
          "name": "D7",
          "midi": 98,
          "time": 135.29042450000054,
          "velocity": 0.7874015748031497,
          "duration": 0.04203574375000585
        },
        {
          "name": "D#7",
          "midi": 99,
          "time": 135.29042450000054,
          "velocity": 0.7874015748031497,
          "duration": 0.04203574375000585
        },
        {
          "name": "C#7",
          "midi": 97,
          "time": 135.54910600000053,
          "velocity": 0.7874015748031497,
          "duration": 0.04311358333333715
        },
        {
          "name": "C#7",
          "midi": 97,
          "time": 135.80778750000053,
          "velocity": 0.7874015748031497,
          "duration": 0.04203574375000585
        },
        {
          "name": "C#7",
          "midi": 97,
          "time": 136.06646900000052,
          "velocity": 0.7874015748031497,
          "duration": 0.5162851604166576
        },
        {
          "name": "D7",
          "midi": 98,
          "time": 136.06646900000052,
          "velocity": 0.7874015748031497,
          "duration": 0.5162851604166576
        },
        {
          "name": "D#7",
          "midi": 99,
          "time": 136.06646900000052,
          "velocity": 0.7874015748031497,
          "duration": 0.5162851604166576
        },
        {
          "name": "C#7",
          "midi": 97,
          "time": 136.5838320000005,
          "velocity": 0.7874015748031497,
          "duration": 0.04311358333333715
        },
        {
          "name": "C#7",
          "midi": 97,
          "time": 136.8425135000005,
          "velocity": 0.7874015748031497,
          "duration": 0.04203574375000585
        },
        {
          "name": "C#7",
          "midi": 97,
          "time": 137.1011950000005,
          "velocity": 0.7874015748031497,
          "duration": 0.04311358333333715
        },
        {
          "name": "C#7",
          "midi": 97,
          "time": 137.35879866041716,
          "velocity": 0.7874015748031497,
          "duration": 0.04311358333333715
        },
        {
          "name": "D7",
          "midi": 98,
          "time": 137.35879866041716,
          "velocity": 0.7874015748031497,
          "duration": 0.04311358333333715
        },
        {
          "name": "D#7",
          "midi": 99,
          "time": 137.35879866041716,
          "velocity": 0.7874015748031497,
          "duration": 0.04311358333333715
        },
        {
          "name": "C#7",
          "midi": 97,
          "time": 137.61748016041716,
          "velocity": 0.7874015748031497,
          "duration": 0.044191422916668444
        },
        {
          "name": "D7",
          "midi": 98,
          "time": 137.61748016041716,
          "velocity": 0.7874015748031497,
          "duration": 0.044191422916668444
        },
        {
          "name": "D#7",
          "midi": 99,
          "time": 137.61748016041716,
          "velocity": 0.7874015748031497,
          "duration": 0.044191422916668444
        },
        {
          "name": "C7",
          "midi": 96,
          "time": 137.87723950000048,
          "velocity": 0.7874015748031497,
          "duration": 0.04203574375000585
        },
        {
          "name": "C7",
          "midi": 96,
          "time": 138.13592100000048,
          "velocity": 0.7874015748031497,
          "duration": 0.5162851604166576
        },
        {
          "name": "C#7",
          "midi": 97,
          "time": 138.13592100000048,
          "velocity": 0.7874015748031497,
          "duration": 0.5162851604166576
        },
        {
          "name": "D7",
          "midi": 98,
          "time": 138.13592100000048,
          "velocity": 0.7874015748031497,
          "duration": 0.5162851604166576
        },
        {
          "name": "C7",
          "midi": 96,
          "time": 138.65328400000047,
          "velocity": 0.7874015748031497,
          "duration": 0.04203574375000585
        },
        {
          "name": "C7",
          "midi": 96,
          "time": 138.91196550000046,
          "velocity": 0.7874015748031497,
          "duration": 0.04311358333333715
        },
        {
          "name": "C7",
          "midi": 96,
          "time": 139.17064700000046,
          "velocity": 0.7874015748031497,
          "duration": 0.04203574375000585
        },
        {
          "name": "C#7",
          "midi": 97,
          "time": 139.17064700000046,
          "velocity": 0.7874015748031497,
          "duration": 0.04203574375000585
        },
        {
          "name": "D7",
          "midi": 98,
          "time": 139.17064700000046,
          "velocity": 0.7874015748031497,
          "duration": 0.04203574375000585
        },
        {
          "name": "C7",
          "midi": 96,
          "time": 139.42825066041712,
          "velocity": 0.7874015748031497,
          "duration": 0.044191422916668444
        },
        {
          "name": "C#7",
          "midi": 97,
          "time": 139.42825066041712,
          "velocity": 0.7874015748031497,
          "duration": 0.044191422916668444
        },
        {
          "name": "D7",
          "midi": 98,
          "time": 139.42825066041712,
          "velocity": 0.7874015748031497,
          "duration": 0.044191422916668444
        },
        {
          "name": "C7",
          "midi": 96,
          "time": 139.68801000000045,
          "velocity": 0.7874015748031497,
          "duration": 0.04095790416667455
        },
        {
          "name": "C7",
          "midi": 96,
          "time": 139.94669150000044,
          "velocity": 0.7874015748031497,
          "duration": 0.04203574375000585
        },
        {
          "name": "C7",
          "midi": 96,
          "time": 140.20537300000044,
          "velocity": 0.7874015748031497,
          "duration": 0.5162851604166576
        },
        {
          "name": "C#7",
          "midi": 97,
          "time": 140.20537300000044,
          "velocity": 0.7874015748031497,
          "duration": 0.5162851604166576
        },
        {
          "name": "D7",
          "midi": 98,
          "time": 140.20537300000044,
          "velocity": 0.7874015748031497,
          "duration": 0.5162851604166576
        },
        {
          "name": "C7",
          "midi": 96,
          "time": 140.72273600000042,
          "velocity": 0.7874015748031497,
          "duration": 0.04203574375000585
        },
        {
          "name": "C7",
          "midi": 96,
          "time": 141.24009900000044,
          "velocity": 0.7874015748031497,
          "duration": 0.04203574375000585
        },
        {
          "name": "C7",
          "midi": 96,
          "time": 141.49878050000044,
          "velocity": 0.7874015748031497,
          "duration": 0.04203574375000585
        },
        {
          "name": "C#7",
          "midi": 97,
          "time": 141.49878050000044,
          "velocity": 0.7874015748031497,
          "duration": 0.04203574375000585
        },
        {
          "name": "D7",
          "midi": 98,
          "time": 141.49878050000044,
          "velocity": 0.7874015748031497,
          "duration": 0.04203574375000585
        },
        {
          "name": "C7",
          "midi": 96,
          "time": 141.75746200000043,
          "velocity": 0.7874015748031497,
          "duration": 0.04203574375000585
        },
        {
          "name": "C#7",
          "midi": 97,
          "time": 141.75746200000043,
          "velocity": 0.7874015748031497,
          "duration": 0.04203574375000585
        },
        {
          "name": "D7",
          "midi": 98,
          "time": 141.75746200000043,
          "velocity": 0.7874015748031497,
          "duration": 0.04203574375000585
        },
        {
          "name": "D7",
          "midi": 98,
          "time": 142.27482500000045,
          "velocity": 0.7874015748031497,
          "duration": 0.9474209937500007
        },
        {
          "name": "D#7",
          "midi": 99,
          "time": 142.27482500000045,
          "velocity": 0.7874015748031497,
          "duration": 0.9474209937500007
        },
        {
          "name": "E7",
          "midi": 100,
          "time": 142.27482500000045,
          "velocity": 0.7874015748031497,
          "duration": 0.9474209937500007
        },
        {
          "name": "D7",
          "midi": 98,
          "time": 143.30955100000045,
          "velocity": 0.7874015748031497,
          "duration": 0.04311358333333715
        },
        {
          "name": "D7",
          "midi": 98,
          "time": 143.56715466041712,
          "velocity": 0.7874015748031497,
          "duration": 0.001077839583331297
        },
        {
          "name": "D#7",
          "midi": 99,
          "time": 143.56715466041712,
          "velocity": 0.7874015748031497,
          "duration": 0.001077839583331297
        },
        {
          "name": "E7",
          "midi": 100,
          "time": 143.56715466041712,
          "velocity": 0.7874015748031497,
          "duration": 0.001077839583331297
        },
        {
          "name": "D7",
          "midi": 98,
          "time": 143.82691400000044,
          "velocity": 0.7874015748031497,
          "duration": 0.04203574375000585
        },
        {
          "name": "D7",
          "midi": 98,
          "time": 144.0845176604171,
          "velocity": 0.7874015748031497,
          "duration": 0.04095790416667455
        },
        {
          "name": "D7",
          "midi": 98,
          "time": 144.34427700000046,
          "velocity": 0.7874015748031497,
          "duration": 0.948498833333332
        },
        {
          "name": "D#7",
          "midi": 99,
          "time": 144.34427700000046,
          "velocity": 0.7874015748031497,
          "duration": 0.948498833333332
        },
        {
          "name": "E7",
          "midi": 100,
          "time": 144.34427700000046,
          "velocity": 0.7874015748031497,
          "duration": 0.948498833333332
        },
        {
          "name": "D7",
          "midi": 98,
          "time": 145.37900300000047,
          "velocity": 0.7874015748031497,
          "duration": 0.04203574375000585
        },
        {
          "name": "D7",
          "midi": 98,
          "time": 145.63768450000046,
          "velocity": 0.7874015748031497,
          "duration": 0.04203574375000585
        },
        {
          "name": "D#7",
          "midi": 99,
          "time": 145.63768450000046,
          "velocity": 0.7874015748031497,
          "duration": 0.04203574375000585
        },
        {
          "name": "E7",
          "midi": 100,
          "time": 145.63768450000046,
          "velocity": 0.7874015748031497,
          "duration": 0.04203574375000585
        },
        {
          "name": "D7",
          "midi": 98,
          "time": 145.89636600000046,
          "velocity": 0.7874015748031497,
          "duration": 0.044191422916668444
        },
        {
          "name": "D#7",
          "midi": 99,
          "time": 145.89636600000046,
          "velocity": 0.7874015748031497,
          "duration": 0.044191422916668444
        },
        {
          "name": "E7",
          "midi": 100,
          "time": 145.89636600000046,
          "velocity": 0.7874015748031497,
          "duration": 0.044191422916668444
        },
        {
          "name": "C7",
          "midi": 96,
          "time": 146.15396966041712,
          "velocity": 0.7874015748031497,
          "duration": 0.04095790416667455
        },
        {
          "name": "C7",
          "midi": 96,
          "time": 146.41372900000047,
          "velocity": 0.7874015748031497,
          "duration": 0.9043074104166635
        },
        {
          "name": "D7",
          "midi": 98,
          "time": 146.41372900000047,
          "velocity": 0.7874015748031497,
          "duration": 0.9043074104166635
        },
        {
          "name": "D#7",
          "midi": 99,
          "time": 146.41372900000047,
          "velocity": 0.7874015748031497,
          "duration": 0.9043074104166635
        },
        {
          "name": "C7",
          "midi": 96,
          "time": 147.44845500000048,
          "velocity": 0.7874015748031497,
          "duration": 0.04311358333333715
        },
        {
          "name": "C7",
          "midi": 96,
          "time": 147.70713650000047,
          "velocity": 0.7874015748031497,
          "duration": 0.04203574375000585
        },
        {
          "name": "D7",
          "midi": 98,
          "time": 147.70713650000047,
          "velocity": 0.7874015748031497,
          "duration": 0.04203574375000585
        },
        {
          "name": "D#7",
          "midi": 99,
          "time": 147.70713650000047,
          "velocity": 0.7874015748031497,
          "duration": 0.04203574375000585
        },
        {
          "name": "C7",
          "midi": 96,
          "time": 147.96581800000047,
          "velocity": 0.7874015748031497,
          "duration": 0.04311358333333715
        },
        {
          "name": "D7",
          "midi": 98,
          "time": 147.96581800000047,
          "velocity": 0.7874015748031497,
          "duration": 0.04311358333333715
        },
        {
          "name": "D#7",
          "midi": 99,
          "time": 147.96581800000047,
          "velocity": 0.7874015748031497,
          "duration": 0.04311358333333715
        },
        {
          "name": "C7",
          "midi": 96,
          "time": 148.22449950000046,
          "velocity": 0.7874015748031497,
          "duration": 0.04311358333333715
        },
        {
          "name": "C7",
          "midi": 96,
          "time": 148.48318100000046,
          "velocity": 0.7874015748031497,
          "duration": 1.033648160416675
        },
        {
          "name": "D7",
          "midi": 98,
          "time": 148.48318100000046,
          "velocity": 0.7874015748031497,
          "duration": 1.033648160416675
        },
        {
          "name": "D#7",
          "midi": 99,
          "time": 148.48318100000046,
          "velocity": 0.7874015748031497,
          "duration": 1.033648160416675
        },
        {
          "name": "C7",
          "midi": 96,
          "time": 149.51790700000046,
          "velocity": 0.7874015748031497,
          "duration": 0.04203574375000585
        },
        {
          "name": "C7",
          "midi": 96,
          "time": 149.7744328208338,
          "velocity": 0.7874015748031497,
          "duration": 0.044191422916668444
        },
        {
          "name": "D7",
          "midi": 98,
          "time": 149.7744328208338,
          "velocity": 0.7874015748031497,
          "duration": 0.044191422916668444
        },
        {
          "name": "D#7",
          "midi": 99,
          "time": 149.7744328208338,
          "velocity": 0.7874015748031497,
          "duration": 0.044191422916668444
        },
        {
          "name": "C7",
          "midi": 96,
          "time": 150.03527000000045,
          "velocity": 0.7874015748031497,
          "duration": 0.044191422916668444
        },
        {
          "name": "D7",
          "midi": 98,
          "time": 150.03527000000045,
          "velocity": 0.7874015748031497,
          "duration": 0.044191422916668444
        },
        {
          "name": "D#7",
          "midi": 99,
          "time": 150.03527000000045,
          "velocity": 0.7874015748031497,
          "duration": 0.044191422916668444
        },
        {
          "name": "C#7",
          "midi": 97,
          "time": 150.55263300000044,
          "velocity": 0.7874015748031497,
          "duration": 0.5162851604166576
        },
        {
          "name": "D7",
          "midi": 98,
          "time": 150.55263300000044,
          "velocity": 0.7874015748031497,
          "duration": 0.5162851604166576
        },
        {
          "name": "D#7",
          "midi": 99,
          "time": 150.55263300000044,
          "velocity": 0.7874015748031497,
          "duration": 0.5162851604166576
        },
        {
          "name": "C#7",
          "midi": 97,
          "time": 151.06999600000043,
          "velocity": 0.7874015748031497,
          "duration": 0.04203574375000585
        },
        {
          "name": "C#7",
          "midi": 97,
          "time": 151.3275996604171,
          "velocity": 0.7874015748031497,
          "duration": 0.04311358333333715
        },
        {
          "name": "C#7",
          "midi": 97,
          "time": 151.58735900000042,
          "velocity": 0.7874015748031497,
          "duration": 0.04311358333333715
        },
        {
          "name": "D7",
          "midi": 98,
          "time": 151.58735900000042,
          "velocity": 0.7874015748031497,
          "duration": 0.04311358333333715
        },
        {
          "name": "D#7",
          "midi": 99,
          "time": 151.58735900000042,
          "velocity": 0.7874015748031497,
          "duration": 0.04311358333333715
        },
        {
          "name": "C#7",
          "midi": 97,
          "time": 151.84496266041708,
          "velocity": 0.7874015748031497,
          "duration": 0.04311358333333715
        },
        {
          "name": "D7",
          "midi": 98,
          "time": 151.84496266041708,
          "velocity": 0.7874015748031497,
          "duration": 0.04311358333333715
        },
        {
          "name": "D#7",
          "midi": 99,
          "time": 151.84496266041708,
          "velocity": 0.7874015748031497,
          "duration": 0.04311358333333715
        },
        {
          "name": "C#7",
          "midi": 97,
          "time": 152.1047220000004,
          "velocity": 0.7874015748031497,
          "duration": 0.04311358333333715
        },
        {
          "name": "C#7",
          "midi": 97,
          "time": 152.3634035000004,
          "velocity": 0.7874015748031497,
          "duration": 0.04311358333333715
        },
        {
          "name": "C#7",
          "midi": 97,
          "time": 152.6220850000004,
          "velocity": 0.7874015748031497,
          "duration": 0.5162851604166576
        },
        {
          "name": "D7",
          "midi": 98,
          "time": 152.6220850000004,
          "velocity": 0.7874015748031497,
          "duration": 0.5162851604166576
        },
        {
          "name": "D#7",
          "midi": 99,
          "time": 152.6220850000004,
          "velocity": 0.7874015748031497,
          "duration": 0.5162851604166576
        },
        {
          "name": "C#7",
          "midi": 97,
          "time": 153.13944800000039,
          "velocity": 0.7874015748031497,
          "duration": 0.04311358333333715
        },
        {
          "name": "C#7",
          "midi": 97,
          "time": 153.39812950000038,
          "velocity": 0.7874015748031497,
          "duration": 0.04311358333333715
        },
        {
          "name": "C#7",
          "midi": 97,
          "time": 153.65681100000037,
          "velocity": 0.7874015748031497,
          "duration": 0.04311358333333715
        },
        {
          "name": "C#7",
          "midi": 97,
          "time": 153.91441466041704,
          "velocity": 0.7874015748031497,
          "duration": 0.044191422916668444
        },
        {
          "name": "D7",
          "midi": 98,
          "time": 153.91441466041704,
          "velocity": 0.7874015748031497,
          "duration": 0.044191422916668444
        },
        {
          "name": "D#7",
          "midi": 99,
          "time": 153.91441466041704,
          "velocity": 0.7874015748031497,
          "duration": 0.044191422916668444
        },
        {
          "name": "C#7",
          "midi": 97,
          "time": 154.17309616041703,
          "velocity": 0.7874015748031497,
          "duration": 0.04311358333333715
        },
        {
          "name": "D7",
          "midi": 98,
          "time": 154.17309616041703,
          "velocity": 0.7874015748031497,
          "duration": 0.04311358333333715
        },
        {
          "name": "D#7",
          "midi": 99,
          "time": 154.17309616041703,
          "velocity": 0.7874015748031497,
          "duration": 0.04311358333333715
        },
        {
          "name": "C7",
          "midi": 96,
          "time": 154.43177766041703,
          "velocity": 0.7874015748031497,
          "duration": 0.04311358333333715
        },
        {
          "name": "C7",
          "midi": 96,
          "time": 154.69153700000035,
          "velocity": 0.7874015748031497,
          "duration": 0.5162851604166576
        },
        {
          "name": "C#7",
          "midi": 97,
          "time": 154.69153700000035,
          "velocity": 0.7874015748031497,
          "duration": 0.5162851604166576
        },
        {
          "name": "D7",
          "midi": 98,
          "time": 154.69153700000035,
          "velocity": 0.7874015748031497,
          "duration": 0.5162851604166576
        },
        {
          "name": "C7",
          "midi": 96,
          "time": 155.20890000000034,
          "velocity": 0.7874015748031497,
          "duration": 0.04203574375000585
        },
        {
          "name": "C7",
          "midi": 96,
          "time": 155.46758150000034,
          "velocity": 0.7874015748031497,
          "duration": 0.04203574375000585
        },
        {
          "name": "C7",
          "midi": 96,
          "time": 155.72626300000033,
          "velocity": 0.7874015748031497,
          "duration": 0.04203574375000585
        },
        {
          "name": "C7",
          "midi": 96,
          "time": 155.983866660417,
          "velocity": 0.7874015748031497,
          "duration": 0.04311358333333715
        },
        {
          "name": "C#7",
          "midi": 97,
          "time": 155.983866660417,
          "velocity": 0.7874015748031497,
          "duration": 0.04311358333333715
        },
        {
          "name": "D7",
          "midi": 98,
          "time": 155.983866660417,
          "velocity": 0.7874015748031497,
          "duration": 0.04311358333333715
        },
        {
          "name": "C7",
          "midi": 96,
          "time": 156.24362600000032,
          "velocity": 0.7874015748031497,
          "duration": 0.04095790416667455
        },
        {
          "name": "C7",
          "midi": 96,
          "time": 156.5023075000003,
          "velocity": 0.7874015748031497,
          "duration": 0.04095790416667455
        },
        {
          "name": "C7",
          "midi": 96,
          "time": 156.7609890000003,
          "velocity": 0.7874015748031497,
          "duration": 0.5162851604166576
        },
        {
          "name": "C#7",
          "midi": 97,
          "time": 156.7609890000003,
          "velocity": 0.7874015748031497,
          "duration": 0.5162851604166576
        },
        {
          "name": "D7",
          "midi": 98,
          "time": 156.7609890000003,
          "velocity": 0.7874015748031497,
          "duration": 0.5162851604166576
        },
        {
          "name": "C7",
          "midi": 96,
          "time": 157.2783520000003,
          "velocity": 0.7874015748031497,
          "duration": 0.04203574375000585
        },
        {
          "name": "C7",
          "midi": 96,
          "time": 157.7957150000003,
          "velocity": 0.7874015748031497,
          "duration": 0.04203574375000585
        },
        {
          "name": "C7",
          "midi": 96,
          "time": 158.0543965000003,
          "velocity": 0.7874015748031497,
          "duration": 0.04095790416667455
        },
        {
          "name": "C#7",
          "midi": 97,
          "time": 158.0543965000003,
          "velocity": 0.7874015748031497,
          "duration": 0.04095790416667455
        },
        {
          "name": "D7",
          "midi": 98,
          "time": 158.0543965000003,
          "velocity": 0.7874015748031497,
          "duration": 0.04095790416667455
        },
        {
          "name": "C7",
          "midi": 96,
          "time": 158.3130780000003,
          "velocity": 0.7874015748031497,
          "duration": 0.04203574375000585
        },
        {
          "name": "C#7",
          "midi": 97,
          "time": 158.3130780000003,
          "velocity": 0.7874015748031497,
          "duration": 0.04203574375000585
        },
        {
          "name": "D7",
          "midi": 98,
          "time": 158.3130780000003,
          "velocity": 0.7874015748031497,
          "duration": 0.04203574375000585
        },
        {
          "name": "C7",
          "midi": 96,
          "time": 158.83044100000032,
          "velocity": 0.7874015748031497,
          "duration": 0.9053852499999948
        },
        {
          "name": "D7",
          "midi": 98,
          "time": 158.83044100000032,
          "velocity": 0.7874015748031497,
          "duration": 0.9053852499999948
        },
        {
          "name": "D7",
          "midi": 98,
          "time": 159.86516700000033,
          "velocity": 0.7874015748031497,
          "duration": 0.04311358333333715
        },
        {
          "name": "D7",
          "midi": 98,
          "time": 160.12384850000032,
          "velocity": 0.7874015748031497,
          "duration": 0.04311358333333715
        },
        {
          "name": "D#7",
          "midi": 99,
          "time": 160.12384850000032,
          "velocity": 0.7874015748031497,
          "duration": 0.04311358333333715
        },
        {
          "name": "E7",
          "midi": 100,
          "time": 160.12384850000032,
          "velocity": 0.7874015748031497,
          "duration": 0.04311358333333715
        },
        {
          "name": "D7",
          "midi": 98,
          "time": 160.38253000000032,
          "velocity": 0.7874015748031497,
          "duration": 0.04311358333333715
        },
        {
          "name": "D#7",
          "midi": 99,
          "time": 160.38253000000032,
          "velocity": 0.7874015748031497,
          "duration": 0.04311358333333715
        },
        {
          "name": "E7",
          "midi": 100,
          "time": 160.38253000000032,
          "velocity": 0.7874015748031497,
          "duration": 0.04311358333333715
        },
        {
          "name": "C7",
          "midi": 96,
          "time": 161.41725600000032,
          "velocity": 0.7874015748031497,
          "duration": 0.04311358333333715
        },
        {
          "name": "C7",
          "midi": 96,
          "time": 161.93461900000034,
          "velocity": 0.7874015748031497,
          "duration": 0.04311358333333715
        },
        {
          "name": "C#7",
          "midi": 97,
          "time": 162.19330050000033,
          "velocity": 0.7874015748031497,
          "duration": 0.04203574375000585
        },
        {
          "name": "D7",
          "midi": 98,
          "time": 162.45198200000033,
          "velocity": 0.7874015748031497,
          "duration": 0.04311358333333715
        },
        {
          "name": "D#7",
          "midi": 99,
          "time": 163.22802650000034,
          "velocity": 0.7874015748031497,
          "duration": 0.04311358333333715
        },
        {
          "name": "D#7",
          "midi": 99,
          "time": 163.61497091041701,
          "velocity": 0.7874015748031497,
          "duration": 0.04311358333333715
        },
        {
          "name": "D#7",
          "midi": 99,
          "time": 164.00407100000035,
          "velocity": 0.7874015748031497,
          "duration": 0.8191580833333205
        },
        {
          "name": "D7",
          "midi": 98,
          "time": 165.55616000000035,
          "velocity": 0.7874015748031497,
          "duration": 0.04311358333333715
        },
        {
          "name": "D#7",
          "midi": 99,
          "time": 165.68550075000036,
          "velocity": 0.7874015748031497,
          "duration": 0.9053852499999948
        },
        {
          "name": "D#7",
          "midi": 99,
          "time": 166.71914891041703,
          "velocity": 0.7874015748031497,
          "duration": 0.04203574375000585
        },
        {
          "name": "D7",
          "midi": 98,
          "time": 166.84848966041704,
          "velocity": 0.7874015748031497,
          "duration": 0.04311358333333715
        },
        {
          "name": "C#7",
          "midi": 97,
          "time": 166.97783041041706,
          "velocity": 0.7874015748031497,
          "duration": 0.04311358333333715
        },
        {
          "name": "C7",
          "midi": 96,
          "time": 167.1082490000004,
          "velocity": 0.7874015748031497,
          "duration": 0.04203574375000585
        },
        {
          "name": "E7",
          "midi": 100,
          "time": 167.49519341041707,
          "velocity": 0.7874015748031497,
          "duration": 0.04311358333333715
        },
        {
          "name": "E7",
          "midi": 100,
          "time": 167.8842935000004,
          "velocity": 0.7874015748031497,
          "duration": 1.0778395833333434
        },
        {
          "name": "D#7",
          "midi": 99,
          "time": 169.9526676604171,
          "velocity": 0.7874015748031497,
          "duration": 0.04311358333333715
        },
        {
          "name": "D7",
          "midi": 98,
          "time": 170.21242700000042,
          "velocity": 0.7874015748031497,
          "duration": 0.04203574375000585
        },
        {
          "name": "D#7",
          "midi": 99,
          "time": 170.4711085000004,
          "velocity": 0.7874015748031497,
          "duration": 0.04203574375000585
        },
        {
          "name": "D7",
          "midi": 98,
          "time": 170.7297900000004,
          "velocity": 0.7874015748031497,
          "duration": 0.04203574375000585
        },
        {
          "name": "C#7",
          "midi": 97,
          "time": 170.8580529104171,
          "velocity": 0.7874015748031497,
          "duration": 0.04311358333333715
        },
        {
          "name": "C7",
          "midi": 96,
          "time": 170.9873936604171,
          "velocity": 0.7874015748031497,
          "duration": 0.04311358333333715
        },
        {
          "name": "D#7",
          "midi": 99,
          "time": 172.54056050000042,
          "velocity": 0.7874015748031497,
          "duration": 0.04311358333333715
        },
        {
          "name": "D7",
          "midi": 98,
          "time": 172.79924200000042,
          "velocity": 0.7874015748031497,
          "duration": 1.1209531666666805
        },
        {
          "name": "D#7",
          "midi": 99,
          "time": 174.86869400000043,
          "velocity": 0.7874015748031497,
          "duration": 0.04311358333333715
        },
        {
          "name": "D7",
          "midi": 98,
          "time": 174.99803475000044,
          "velocity": 0.7874015748031497,
          "duration": 0.04203574375000585
        },
        {
          "name": "C#7",
          "midi": 97,
          "time": 175.12737550000045,
          "velocity": 0.7874015748031497,
          "duration": 0.04311358333333715
        },
        {
          "name": "C#7",
          "midi": 97,
          "time": 175.25671625000047,
          "velocity": 0.7874015748031497,
          "duration": 0.04203574375000585
        },
        {
          "name": "C#7",
          "midi": 97,
          "time": 175.38605700000048,
          "velocity": 0.7874015748031497,
          "duration": 0.5162851604166576
        },
        {
          "name": "C7",
          "midi": 96,
          "time": 175.90342000000047,
          "velocity": 0.7874015748031497,
          "duration": 0.04203574375000585
        },
        {
          "name": "C7",
          "midi": 96,
          "time": 176.16102366041713,
          "velocity": 0.7874015748031497,
          "duration": 1.2071803333333264
        },
        {
          "name": "C#7",
          "midi": 97,
          "time": 179.00759800000046,
          "velocity": 0.7874015748031497,
          "duration": 0.04203574375000585
        },
        {
          "name": "C7",
          "midi": 96,
          "time": 179.13586091041714,
          "velocity": 0.7874015748031497,
          "duration": 0.04203574375000585
        },
        {
          "name": "D7",
          "midi": 98,
          "time": 179.52496100000047,
          "velocity": 0.7874015748031497,
          "duration": 0.5162851604166576
        },
        {
          "name": "D#7",
          "midi": 99,
          "time": 180.04232400000046,
          "velocity": 0.7874015748031497,
          "duration": 0.04203574375000585
        },
        {
          "name": "D#7",
          "midi": 99,
          "time": 180.29992766041713,
          "velocity": 0.7874015748031497,
          "duration": 0.04311358333333715
        },
        {
          "name": "D#7",
          "midi": 99,
          "time": 180.55968700000045,
          "velocity": 0.7874015748031497,
          "duration": 0.04311358333333715
        },
        {
          "name": "D#7",
          "midi": 99,
          "time": 180.81836850000045,
          "velocity": 0.7874015748031497,
          "duration": 0.04203574375000585
        },
        {
          "name": "D#7",
          "midi": 99,
          "time": 181.07705000000044,
          "velocity": 0.7874015748031497,
          "duration": 0.04203574375000585
        },
        {
          "name": "D7",
          "midi": 98,
          "time": 181.3346536604171,
          "velocity": 0.7874015748031497,
          "duration": 0.04311358333333715
        },
        {
          "name": "D#7",
          "midi": 99,
          "time": 181.59441300000043,
          "velocity": 0.7874015748031497,
          "duration": 0.04311358333333715
        },
        {
          "name": "D#7",
          "midi": 99,
          "time": 181.85309450000042,
          "velocity": 0.7874015748031497,
          "duration": 0.04203574375000585
        },
        {
          "name": "D#7",
          "midi": 99,
          "time": 182.11177600000042,
          "velocity": 0.7874015748031497,
          "duration": 0.04203574375000585
        },
        {
          "name": "D#7",
          "midi": 99,
          "time": 182.36937966041708,
          "velocity": 0.7874015748031497,
          "duration": 0.04311358333333715
        },
        {
          "name": "D#7",
          "midi": 99,
          "time": 182.6291390000004,
          "velocity": 0.7874015748031497,
          "duration": 0.04311358333333715
        },
        {
          "name": "D7",
          "midi": 98,
          "time": 182.8878205000004,
          "velocity": 0.7874015748031497,
          "duration": 0.04203574375000585
        },
        {
          "name": "C#7",
          "midi": 97,
          "time": 183.1465020000004,
          "velocity": 0.7874015748031497,
          "duration": 0.04203574375000585
        },
        {
          "name": "C7",
          "midi": 96,
          "time": 183.6638650000004,
          "velocity": 0.7874015748031497,
          "duration": 0.04311358333333715
        },
        {
          "name": "C#7",
          "midi": 97,
          "time": 183.9225465000004,
          "velocity": 0.7874015748031497,
          "duration": 0.04203574375000585
        },
        {
          "name": "D7",
          "midi": 98,
          "time": 184.05188725000042,
          "velocity": 0.7874015748031497,
          "duration": 0.04203574375000585
        },
        {
          "name": "D#7",
          "midi": 99,
          "time": 184.18122800000043,
          "velocity": 0.7874015748031497,
          "duration": 0.04203574375000585
        },
        {
          "name": "D7",
          "midi": 98,
          "time": 184.39679591666712,
          "velocity": 0.7874015748031497,
          "duration": 0.04203574375000585
        },
        {
          "name": "D7",
          "midi": 98,
          "time": 184.69859100000045,
          "velocity": 0.7874015748031497,
          "duration": 0.04311358333333715
        },
        {
          "name": "D#7",
          "midi": 99,
          "time": 184.95727250000044,
          "velocity": 0.7874015748031497,
          "duration": 0.04203574375000585
        },
        {
          "name": "D7",
          "midi": 98,
          "time": 185.21595400000044,
          "velocity": 0.7874015748031497,
          "duration": 0.04203574375000585
        },
        {
          "name": "D#7",
          "midi": 99,
          "time": 185.30110332708378,
          "velocity": 0.7874015748031497,
          "duration": 0.3880222500000059
        },
        {
          "name": "D7",
          "midi": 98,
          "time": 185.99199850000045,
          "velocity": 0.7874015748031497,
          "duration": 0.04311358333333715
        },
        {
          "name": "D#7",
          "midi": 99,
          "time": 186.12026141041713,
          "velocity": 0.7874015748031497,
          "duration": 0.04311358333333715
        },
        {
          "name": "D7",
          "midi": 98,
          "time": 186.50936150000047,
          "velocity": 0.7874015748031497,
          "duration": 0.04311358333333715
        },
        {
          "name": "D7",
          "midi": 98,
          "time": 186.76804300000046,
          "velocity": 0.7874015748031497,
          "duration": 0.04203574375000585
        },
        {
          "name": "D#7",
          "midi": 99,
          "time": 187.02564666041712,
          "velocity": 0.7874015748031497,
          "duration": 0.04311358333333715
        },
        {
          "name": "D7",
          "midi": 98,
          "time": 187.15498741041714,
          "velocity": 0.7874015748031497,
          "duration": 0.04311358333333715
        },
        {
          "name": "C#7",
          "midi": 97,
          "time": 187.28540600000048,
          "velocity": 0.7874015748031497,
          "duration": 0.04311358333333715
        },
        {
          "name": "C#7",
          "midi": 97,
          "time": 187.8027690000005,
          "velocity": 0.7874015748031497,
          "duration": 0.04311358333333715
        },
        {
          "name": "D#7",
          "midi": 99,
          "time": 188.0614505000005,
          "velocity": 0.7874015748031497,
          "duration": 0.04203574375000585
        },
        {
          "name": "D#7",
          "midi": 99,
          "time": 188.31905416041715,
          "velocity": 0.7874015748031497,
          "duration": 0.04311358333333715
        },
        {
          "name": "D7",
          "midi": 98,
          "time": 188.57773566041715,
          "velocity": 0.7874015748031497,
          "duration": 0.04311358333333715
        },
        {
          "name": "C#7",
          "midi": 97,
          "time": 188.83749500000047,
          "velocity": 0.7874015748031497,
          "duration": 0.04311358333333715
        },
        {
          "name": "D7",
          "midi": 98,
          "time": 189.09617650000047,
          "velocity": 0.7874015748031497,
          "duration": 0.04203574375000585
        },
        {
          "name": "D#7",
          "midi": 99,
          "time": 189.35485800000046,
          "velocity": 0.7874015748031497,
          "duration": 0.04311358333333715
        },
        {
          "name": "D7",
          "midi": 98,
          "time": 189.61353950000046,
          "velocity": 0.7874015748031497,
          "duration": 0.04311358333333715
        },
        {
          "name": "C#7",
          "midi": 97,
          "time": 189.87222100000045,
          "velocity": 0.7874015748031497,
          "duration": 0.04203574375000585
        },
        {
          "name": "C7",
          "midi": 96,
          "time": 190.38958400000047,
          "velocity": 0.7874015748031497,
          "duration": 0.04203574375000585
        },
        {
          "name": "C#7",
          "midi": 97,
          "time": 190.64826550000046,
          "velocity": 0.7874015748031497,
          "duration": 0.04203574375000585
        },
        {
          "name": "D7",
          "midi": 98,
          "time": 190.90694700000046,
          "velocity": 0.7874015748031497,
          "duration": 0.04203574375000585
        },
        {
          "name": "C#7",
          "midi": 97,
          "time": 191.03520991041714,
          "velocity": 0.7874015748031497,
          "duration": 0.04311358333333715
        },
        {
          "name": "C7",
          "midi": 96,
          "time": 191.16455066041715,
          "velocity": 0.7874015748031497,
          "duration": 0.04311358333333715
        },
        {
          "name": "C7",
          "midi": 96,
          "time": 191.42431000000047,
          "velocity": 0.7874015748031497,
          "duration": 0.04203574375000585
        },
        {
          "name": "C#7",
          "midi": 97,
          "time": 191.42431000000047,
          "velocity": 0.7874015748031497,
          "duration": 0.04203574375000585
        },
        {
          "name": "D#7",
          "midi": 99,
          "time": 191.9416730000005,
          "velocity": 0.7874015748031497,
          "duration": 0.04203574375000585
        },
        {
          "name": "D7",
          "midi": 98,
          "time": 192.19927666041715,
          "velocity": 0.7874015748031497,
          "duration": 0.04311358333333715
        },
        {
          "name": "C#7",
          "midi": 97,
          "time": 192.45903600000048,
          "velocity": 0.7874015748031497,
          "duration": 0.04203574375000585
        },
        {
          "name": "D7",
          "midi": 98,
          "time": 192.71771750000048,
          "velocity": 0.7874015748031497,
          "duration": 0.04203574375000585
        },
        {
          "name": "D#7",
          "midi": 99,
          "time": 193.4937620000005,
          "velocity": 0.7874015748031497,
          "duration": 0.04203574375000585
        },
        {
          "name": "D7",
          "midi": 98,
          "time": 193.6231027500005,
          "velocity": 0.7874015748031497,
          "duration": 0.04203574375000585
        },
        {
          "name": "C#7",
          "midi": 97,
          "time": 193.7524435000005,
          "velocity": 0.7874015748031497,
          "duration": 0.04203574375000585
        },
        {
          "name": "C#7",
          "midi": 97,
          "time": 194.0111250000005,
          "velocity": 0.7874015748031497,
          "duration": 1.6814297500000066
        },
        {
          "name": "C#7",
          "midi": 97,
          "time": 196.08057700000052,
          "velocity": 0.7874015748031497,
          "duration": 4.052676833333322
        },
        {
          "name": "D7",
          "midi": 98,
          "time": 196.08057700000052,
          "velocity": 0.7874015748031497,
          "duration": 4.052676833333322
        },
        {
          "name": "D7",
          "midi": 98,
          "time": 200.2194810000005,
          "velocity": 0.7874015748031497,
          "duration": 0.9474209937500007
        },
        {
          "name": "D#7",
          "midi": 99,
          "time": 200.2194810000005,
          "velocity": 0.7874015748031497,
          "duration": 0.9474209937500007
        },
        {
          "name": "E7",
          "midi": 100,
          "time": 200.2194810000005,
          "velocity": 0.7874015748031497,
          "duration": 0.9474209937500007
        },
        {
          "name": "D7",
          "midi": 98,
          "time": 201.25420700000052,
          "velocity": 0.7874015748031497,
          "duration": 0.04311358333333715
        },
        {
          "name": "D7",
          "midi": 98,
          "time": 201.51181066041718,
          "velocity": 0.7874015748031497,
          "duration": 0.001077839583331297
        },
        {
          "name": "D#7",
          "midi": 99,
          "time": 201.51181066041718,
          "velocity": 0.7874015748031497,
          "duration": 0.001077839583331297
        },
        {
          "name": "E7",
          "midi": 100,
          "time": 201.51181066041718,
          "velocity": 0.7874015748031497,
          "duration": 0.001077839583331297
        },
        {
          "name": "D7",
          "midi": 98,
          "time": 201.7715700000005,
          "velocity": 0.7874015748031497,
          "duration": 0.04095790416667455
        },
        {
          "name": "D7",
          "midi": 98,
          "time": 202.02809582083384,
          "velocity": 0.7874015748031497,
          "duration": 0.04203574375000585
        },
        {
          "name": "D7",
          "midi": 98,
          "time": 202.28893300000053,
          "velocity": 0.7874015748031497,
          "duration": 0.5162851604166576
        },
        {
          "name": "D#7",
          "midi": 99,
          "time": 202.28893300000053,
          "velocity": 0.7874015748031497,
          "duration": 0.5162851604166576
        },
        {
          "name": "E7",
          "midi": 100,
          "time": 202.28893300000053,
          "velocity": 0.7874015748031497,
          "duration": 0.5162851604166576
        },
        {
          "name": "D7",
          "midi": 98,
          "time": 202.80629600000051,
          "velocity": 0.7874015748031497,
          "duration": 0.47317157708332047
        },
        {
          "name": "D#7",
          "midi": 99,
          "time": 202.80629600000051,
          "velocity": 0.7874015748031497,
          "duration": 0.47317157708332047
        },
        {
          "name": "E7",
          "midi": 100,
          "time": 202.80629600000051,
          "velocity": 0.7874015748031497,
          "duration": 0.47317157708332047
        },
        {
          "name": "D7",
          "midi": 98,
          "time": 203.3236590000005,
          "velocity": 0.7874015748031497,
          "duration": 0.04203574375000585
        },
        {
          "name": "D7",
          "midi": 98,
          "time": 203.58126266041717,
          "velocity": 0.7874015748031497,
          "duration": 0.04311358333333715
        },
        {
          "name": "D#7",
          "midi": 99,
          "time": 203.58126266041717,
          "velocity": 0.7874015748031497,
          "duration": 0.04311358333333715
        },
        {
          "name": "E7",
          "midi": 100,
          "time": 203.58126266041717,
          "velocity": 0.7874015748031497,
          "duration": 0.04311358333333715
        },
        {
          "name": "D7",
          "midi": 98,
          "time": 203.8410220000005,
          "velocity": 0.7874015748031497,
          "duration": 0.04311358333333715
        },
        {
          "name": "D#7",
          "midi": 99,
          "time": 203.8410220000005,
          "velocity": 0.7874015748031497,
          "duration": 0.04311358333333715
        },
        {
          "name": "E7",
          "midi": 100,
          "time": 203.8410220000005,
          "velocity": 0.7874015748031497,
          "duration": 0.04311358333333715
        },
        {
          "name": "C7",
          "midi": 96,
          "time": 204.09862566041716,
          "velocity": 0.7874015748031497,
          "duration": 0.04203574375000585
        },
        {
          "name": "C7",
          "midi": 96,
          "time": 204.35838500000048,
          "velocity": 0.7874015748031497,
          "duration": 0.5162851604166576
        },
        {
          "name": "D7",
          "midi": 98,
          "time": 204.35838500000048,
          "velocity": 0.7874015748031497,
          "duration": 0.5162851604166576
        },
        {
          "name": "D#7",
          "midi": 99,
          "time": 204.35838500000048,
          "velocity": 0.7874015748031497,
          "duration": 0.5162851604166576
        },
        {
          "name": "C7",
          "midi": 96,
          "time": 204.87574800000047,
          "velocity": 0.7874015748031497,
          "duration": 0.3880222500000059
        },
        {
          "name": "D7",
          "midi": 98,
          "time": 204.87574800000047,
          "velocity": 0.7874015748031497,
          "duration": 0.3880222500000059
        },
        {
          "name": "D#7",
          "midi": 99,
          "time": 204.87574800000047,
          "velocity": 0.7874015748031497,
          "duration": 0.3880222500000059
        },
        {
          "name": "C7",
          "midi": 96,
          "time": 205.3931110000005,
          "velocity": 0.7874015748031497,
          "duration": 0.04311358333333715
        },
        {
          "name": "C7",
          "midi": 96,
          "time": 205.65179250000048,
          "velocity": 0.7874015748031497,
          "duration": 0.04311358333333715
        },
        {
          "name": "D7",
          "midi": 98,
          "time": 205.65179250000048,
          "velocity": 0.7874015748031497,
          "duration": 0.04311358333333715
        },
        {
          "name": "D#7",
          "midi": 99,
          "time": 205.65179250000048,
          "velocity": 0.7874015748031497,
          "duration": 0.04311358333333715
        },
        {
          "name": "C7",
          "midi": 96,
          "time": 205.91047400000048,
          "velocity": 0.7874015748031497,
          "duration": 0.04203574375000585
        },
        {
          "name": "D7",
          "midi": 98,
          "time": 205.91047400000048,
          "velocity": 0.7874015748031497,
          "duration": 0.04203574375000585
        },
        {
          "name": "D#7",
          "midi": 99,
          "time": 205.91047400000048,
          "velocity": 0.7874015748031497,
          "duration": 0.04203574375000585
        },
        {
          "name": "C7",
          "midi": 96,
          "time": 206.16915550000047,
          "velocity": 0.7874015748031497,
          "duration": 0.044191422916668444
        },
        {
          "name": "C7",
          "midi": 96,
          "time": 206.42783700000047,
          "velocity": 0.7874015748031497,
          "duration": 0.5162851604166576
        },
        {
          "name": "D7",
          "midi": 98,
          "time": 206.42783700000047,
          "velocity": 0.7874015748031497,
          "duration": 0.5162851604166576
        },
        {
          "name": "D#7",
          "midi": 99,
          "time": 206.42783700000047,
          "velocity": 0.7874015748031497,
          "duration": 0.5162851604166576
        },
        {
          "name": "C7",
          "midi": 96,
          "time": 206.94520000000045,
          "velocity": 0.7874015748031497,
          "duration": 0.47317157708332047
        },
        {
          "name": "D7",
          "midi": 98,
          "time": 206.94520000000045,
          "velocity": 0.7874015748031497,
          "duration": 0.47317157708332047
        },
        {
          "name": "C7",
          "midi": 96,
          "time": 207.46256300000044,
          "velocity": 0.7874015748031497,
          "duration": 0.04311358333333715
        },
        {
          "name": "C7",
          "midi": 96,
          "time": 207.71908882083378,
          "velocity": 0.7874015748031497,
          "duration": 0.044191422916668444
        },
        {
          "name": "D7",
          "midi": 98,
          "time": 207.71908882083378,
          "velocity": 0.7874015748031497,
          "duration": 0.044191422916668444
        },
        {
          "name": "D#7",
          "midi": 99,
          "time": 207.71908882083378,
          "velocity": 0.7874015748031497,
          "duration": 0.044191422916668444
        },
        {
          "name": "C7",
          "midi": 96,
          "time": 207.97992600000043,
          "velocity": 0.7874015748031497,
          "duration": 0.04311358333333715
        },
        {
          "name": "D7",
          "midi": 98,
          "time": 207.97992600000043,
          "velocity": 0.7874015748031497,
          "duration": 0.04311358333333715
        },
        {
          "name": "D#7",
          "midi": 99,
          "time": 207.97992600000043,
          "velocity": 0.7874015748031497,
          "duration": 0.04311358333333715
        },
        {
          "name": "C#7",
          "midi": 97,
          "time": 208.49728900000045,
          "velocity": 0.7874015748031497,
          "duration": 0.5162851604166576
        },
        {
          "name": "D7",
          "midi": 98,
          "time": 208.49728900000045,
          "velocity": 0.7874015748031497,
          "duration": 0.5162851604166576
        },
        {
          "name": "D#7",
          "midi": 99,
          "time": 208.49728900000045,
          "velocity": 0.7874015748031497,
          "duration": 0.5162851604166576
        },
        {
          "name": "C#7",
          "midi": 97,
          "time": 209.01465200000044,
          "velocity": 0.7874015748031497,
          "duration": 0.04203574375000585
        },
        {
          "name": "C#7",
          "midi": 97,
          "time": 209.2722556604171,
          "velocity": 0.7874015748031497,
          "duration": 0.04311358333333715
        },
        {
          "name": "C#7",
          "midi": 97,
          "time": 209.53201500000043,
          "velocity": 0.7874015748031497,
          "duration": 0.04311358333333715
        },
        {
          "name": "D7",
          "midi": 98,
          "time": 209.53201500000043,
          "velocity": 0.7874015748031497,
          "duration": 0.04311358333333715
        },
        {
          "name": "D#7",
          "midi": 99,
          "time": 209.53201500000043,
          "velocity": 0.7874015748031497,
          "duration": 0.04311358333333715
        },
        {
          "name": "C#7",
          "midi": 97,
          "time": 209.7896186604171,
          "velocity": 0.7874015748031497,
          "duration": 0.04311358333333715
        },
        {
          "name": "D7",
          "midi": 98,
          "time": 209.7896186604171,
          "velocity": 0.7874015748031497,
          "duration": 0.04311358333333715
        },
        {
          "name": "D#7",
          "midi": 99,
          "time": 209.7896186604171,
          "velocity": 0.7874015748031497,
          "duration": 0.04311358333333715
        },
        {
          "name": "C#7",
          "midi": 97,
          "time": 210.04937800000042,
          "velocity": 0.7874015748031497,
          "duration": 0.04203574375000585
        },
        {
          "name": "C#7",
          "midi": 97,
          "time": 210.30698166041708,
          "velocity": 0.7874015748031497,
          "duration": 0.04311358333333715
        },
        {
          "name": "C#7",
          "midi": 97,
          "time": 210.5667410000004,
          "velocity": 0.7874015748031497,
          "duration": 0.001077839583331297
        },
        {
          "name": "D7",
          "midi": 98,
          "time": 210.5667410000004,
          "velocity": 0.7874015748031497,
          "duration": 0.001077839583331297
        },
        {
          "name": "D#7",
          "midi": 99,
          "time": 210.5667410000004,
          "velocity": 0.7874015748031497,
          "duration": 0.001077839583331297
        },
        {
          "name": "C#7",
          "midi": 97,
          "time": 210.8254225000004,
          "velocity": 0.7874015748031497,
          "duration": 0.04311358333333715
        },
        {
          "name": "D7",
          "midi": 98,
          "time": 210.8254225000004,
          "velocity": 0.7874015748031497,
          "duration": 0.04311358333333715
        },
        {
          "name": "C#7",
          "midi": 97,
          "time": 211.0841040000004,
          "velocity": 0.7874015748031497,
          "duration": 0.04311358333333715
        },
        {
          "name": "C#7",
          "midi": 97,
          "time": 211.34170766041706,
          "velocity": 0.7874015748031497,
          "duration": 0.04311358333333715
        },
        {
          "name": "C#7",
          "midi": 97,
          "time": 211.60146700000038,
          "velocity": 0.7874015748031497,
          "duration": 0.04311358333333715
        },
        {
          "name": "C#7",
          "midi": 97,
          "time": 211.85799282083372,
          "velocity": 0.7874015748031497,
          "duration": 0.044191422916668444
        },
        {
          "name": "D7",
          "midi": 98,
          "time": 211.85799282083372,
          "velocity": 0.7874015748031497,
          "duration": 0.044191422916668444
        },
        {
          "name": "D#7",
          "midi": 99,
          "time": 211.85799282083372,
          "velocity": 0.7874015748031497,
          "duration": 0.044191422916668444
        },
        {
          "name": "C#7",
          "midi": 97,
          "time": 212.11775216041704,
          "velocity": 0.7874015748031497,
          "duration": 0.044191422916668444
        },
        {
          "name": "D7",
          "midi": 98,
          "time": 212.11775216041704,
          "velocity": 0.7874015748031497,
          "duration": 0.044191422916668444
        },
        {
          "name": "D#7",
          "midi": 99,
          "time": 212.11775216041704,
          "velocity": 0.7874015748031497,
          "duration": 0.044191422916668444
        },
        {
          "name": "C7",
          "midi": 96,
          "time": 212.37643366041704,
          "velocity": 0.7874015748031497,
          "duration": 0.04311358333333715
        },
        {
          "name": "C7",
          "midi": 96,
          "time": 212.63619300000036,
          "velocity": 0.7874015748031497,
          "duration": 0.5162851604166576
        },
        {
          "name": "C#7",
          "midi": 97,
          "time": 212.63619300000036,
          "velocity": 0.7874015748031497,
          "duration": 0.5162851604166576
        },
        {
          "name": "D7",
          "midi": 98,
          "time": 212.63619300000036,
          "velocity": 0.7874015748031497,
          "duration": 0.5162851604166576
        },
        {
          "name": "C7",
          "midi": 96,
          "time": 213.15355600000035,
          "velocity": 0.7874015748031497,
          "duration": 0.04203574375000585
        },
        {
          "name": "C7",
          "midi": 96,
          "time": 213.411159660417,
          "velocity": 0.7874015748031497,
          "duration": 0.044191422916668444
        },
        {
          "name": "C7",
          "midi": 96,
          "time": 213.67091900000034,
          "velocity": 0.7874015748031497,
          "duration": 0.04203574375000585
        },
        {
          "name": "C#7",
          "midi": 97,
          "time": 213.67091900000034,
          "velocity": 0.7874015748031497,
          "duration": 0.04203574375000585
        },
        {
          "name": "D7",
          "midi": 98,
          "time": 213.67091900000034,
          "velocity": 0.7874015748031497,
          "duration": 0.04203574375000585
        },
        {
          "name": "C7",
          "midi": 96,
          "time": 213.92744482083367,
          "velocity": 0.7874015748031497,
          "duration": 0.04526926249999974
        },
        {
          "name": "C#7",
          "midi": 97,
          "time": 213.92744482083367,
          "velocity": 0.7874015748031497,
          "duration": 0.04526926249999974
        },
        {
          "name": "D7",
          "midi": 98,
          "time": 213.92744482083367,
          "velocity": 0.7874015748031497,
          "duration": 0.04526926249999974
        },
        {
          "name": "C7",
          "midi": 96,
          "time": 214.18828200000033,
          "velocity": 0.7874015748031497,
          "duration": 0.04095790416667455
        },
        {
          "name": "C7",
          "midi": 96,
          "time": 214.445885660417,
          "velocity": 0.7874015748031497,
          "duration": 0.04311358333333715
        },
        {
          "name": "C7",
          "midi": 96,
          "time": 214.70564500000032,
          "velocity": 0.7874015748031497,
          "duration": 0.001077839583331297
        },
        {
          "name": "C#7",
          "midi": 97,
          "time": 214.70564500000032,
          "velocity": 0.7874015748031497,
          "duration": 0.001077839583331297
        },
        {
          "name": "D7",
          "midi": 98,
          "time": 214.70564500000032,
          "velocity": 0.7874015748031497,
          "duration": 0.001077839583331297
        },
        {
          "name": "C7",
          "midi": 96,
          "time": 214.9643265000003,
          "velocity": 0.7874015748031497,
          "duration": 0.04311358333333715
        },
        {
          "name": "C7",
          "midi": 96,
          "time": 215.2230080000003,
          "velocity": 0.7874015748031497,
          "duration": 0.04203574375000585
        },
        {
          "name": "C#7",
          "midi": 97,
          "time": 215.2230080000003,
          "velocity": 0.7874015748031497,
          "duration": 0.04203574375000585
        },
        {
          "name": "D7",
          "midi": 98,
          "time": 215.2230080000003,
          "velocity": 0.7874015748031497,
          "duration": 0.04203574375000585
        },
        {
          "name": "C7",
          "midi": 96,
          "time": 215.4816895000003,
          "velocity": 0.7874015748031497,
          "duration": 0.04311358333333715
        },
        {
          "name": "C#7",
          "midi": 97,
          "time": 215.4816895000003,
          "velocity": 0.7874015748031497,
          "duration": 0.04311358333333715
        },
        {
          "name": "C7",
          "midi": 96,
          "time": 215.7403710000003,
          "velocity": 0.7874015748031497,
          "duration": 0.04203574375000585
        },
        {
          "name": "C7",
          "midi": 96,
          "time": 215.99797466041696,
          "velocity": 0.7874015748031497,
          "duration": 0.04311358333333715
        },
        {
          "name": "C#7",
          "midi": 97,
          "time": 215.99797466041696,
          "velocity": 0.7874015748031497,
          "duration": 0.04311358333333715
        },
        {
          "name": "D#7",
          "midi": 99,
          "time": 215.99797466041696,
          "velocity": 0.7874015748031497,
          "duration": 0.04311358333333715
        },
        {
          "name": "C7",
          "midi": 96,
          "time": 216.25773400000028,
          "velocity": 0.7874015748031497,
          "duration": 0.04203574375000585
        },
        {
          "name": "C#7",
          "midi": 97,
          "time": 216.25773400000028,
          "velocity": 0.7874015748031497,
          "duration": 0.04203574375000585
        },
        {
          "name": "D#7",
          "midi": 99,
          "time": 216.25773400000028,
          "velocity": 0.7874015748031497,
          "duration": 0.04203574375000585
        },
        {
          "name": "C7",
          "midi": 96,
          "time": 216.51641550000028,
          "velocity": 0.7874015748031497,
          "duration": 0.04311358333333715
        },
        {
          "name": "D7",
          "midi": 98,
          "time": 216.77509700000027,
          "velocity": 0.7874015748031497,
          "duration": 0.948498833333332
        },
        {
          "name": "D#7",
          "midi": 99,
          "time": 216.77509700000027,
          "velocity": 0.7874015748031497,
          "duration": 0.948498833333332
        },
        {
          "name": "E7",
          "midi": 100,
          "time": 216.77509700000027,
          "velocity": 0.7874015748031497,
          "duration": 0.948498833333332
        },
        {
          "name": "D7",
          "midi": 98,
          "time": 217.80982300000028,
          "velocity": 0.7874015748031497,
          "duration": 0.04311358333333715
        },
        {
          "name": "D7",
          "midi": 98,
          "time": 218.06742666041694,
          "velocity": 0.7874015748031497,
          "duration": 0.001077839583331297
        },
        {
          "name": "D#7",
          "midi": 99,
          "time": 218.06742666041694,
          "velocity": 0.7874015748031497,
          "duration": 0.001077839583331297
        },
        {
          "name": "E7",
          "midi": 100,
          "time": 218.06742666041694,
          "velocity": 0.7874015748031497,
          "duration": 0.001077839583331297
        },
        {
          "name": "D7",
          "midi": 98,
          "time": 218.32718600000027,
          "velocity": 0.7874015748031497,
          "duration": 0.04203574375000585
        },
        {
          "name": "D7",
          "midi": 98,
          "time": 218.5837118208336,
          "velocity": 0.7874015748031497,
          "duration": 0.04203574375000585
        },
        {
          "name": "D7",
          "midi": 98,
          "time": 218.84454900000028,
          "velocity": 0.7874015748031497,
          "duration": 0.5152073208333263
        },
        {
          "name": "D#7",
          "midi": 99,
          "time": 218.84454900000028,
          "velocity": 0.7874015748031497,
          "duration": 0.5152073208333263
        },
        {
          "name": "E7",
          "midi": 100,
          "time": 218.84454900000028,
          "velocity": 0.7874015748031497,
          "duration": 0.5152073208333263
        },
        {
          "name": "D7",
          "midi": 98,
          "time": 219.36191200000027,
          "velocity": 0.7874015748031497,
          "duration": 0.47317157708332047
        },
        {
          "name": "D#7",
          "midi": 99,
          "time": 219.36191200000027,
          "velocity": 0.7874015748031497,
          "duration": 0.47317157708332047
        },
        {
          "name": "E7",
          "midi": 100,
          "time": 219.36191200000027,
          "velocity": 0.7874015748031497,
          "duration": 0.47317157708332047
        },
        {
          "name": "D7",
          "midi": 98,
          "time": 219.87927500000026,
          "velocity": 0.7874015748031497,
          "duration": 0.04203574375000585
        },
        {
          "name": "D7",
          "midi": 98,
          "time": 220.13687866041693,
          "velocity": 0.7874015748031497,
          "duration": 0.04311358333333715
        },
        {
          "name": "D#7",
          "midi": 99,
          "time": 220.13687866041693,
          "velocity": 0.7874015748031497,
          "duration": 0.04311358333333715
        },
        {
          "name": "E7",
          "midi": 100,
          "time": 220.13687866041693,
          "velocity": 0.7874015748031497,
          "duration": 0.04311358333333715
        },
        {
          "name": "D7",
          "midi": 98,
          "time": 220.39663800000025,
          "velocity": 0.7874015748031497,
          "duration": 0.04311358333333715
        },
        {
          "name": "D#7",
          "midi": 99,
          "time": 220.39663800000025,
          "velocity": 0.7874015748031497,
          "duration": 0.04311358333333715
        },
        {
          "name": "E7",
          "midi": 100,
          "time": 220.39663800000025,
          "velocity": 0.7874015748031497,
          "duration": 0.04311358333333715
        },
        {
          "name": "C7",
          "midi": 96,
          "time": 220.65531950000025,
          "velocity": 0.7874015748031497,
          "duration": 0.039880064583343255
        },
        {
          "name": "C7",
          "midi": 96,
          "time": 220.91400100000027,
          "velocity": 0.7874015748031497,
          "duration": 0.9043074104166635
        },
        {
          "name": "D7",
          "midi": 98,
          "time": 220.91400100000027,
          "velocity": 0.7874015748031497,
          "duration": 0.9043074104166635
        },
        {
          "name": "D#7",
          "midi": 99,
          "time": 220.91400100000027,
          "velocity": 0.7874015748031497,
          "duration": 0.9043074104166635
        },
        {
          "name": "C7",
          "midi": 96,
          "time": 221.94872700000028,
          "velocity": 0.7874015748031497,
          "duration": 0.04203574375000585
        },
        {
          "name": "C7",
          "midi": 96,
          "time": 222.20740850000027,
          "velocity": 0.7874015748031497,
          "duration": 0.04311358333333715
        },
        {
          "name": "D7",
          "midi": 98,
          "time": 222.20740850000027,
          "velocity": 0.7874015748031497,
          "duration": 0.04311358333333715
        },
        {
          "name": "D#7",
          "midi": 99,
          "time": 222.20740850000027,
          "velocity": 0.7874015748031497,
          "duration": 0.04311358333333715
        },
        {
          "name": "C7",
          "midi": 96,
          "time": 222.46609000000026,
          "velocity": 0.7874015748031497,
          "duration": 0.04311358333333715
        },
        {
          "name": "D7",
          "midi": 98,
          "time": 222.46609000000026,
          "velocity": 0.7874015748031497,
          "duration": 0.04311358333333715
        },
        {
          "name": "D#7",
          "midi": 99,
          "time": 222.46609000000026,
          "velocity": 0.7874015748031497,
          "duration": 0.04311358333333715
        },
        {
          "name": "C7",
          "midi": 96,
          "time": 222.72477150000026,
          "velocity": 0.7874015748031497,
          "duration": 0.044191422916668444
        },
        {
          "name": "C7",
          "midi": 96,
          "time": 222.98345300000025,
          "velocity": 0.7874015748031497,
          "duration": 0.5162851604166576
        },
        {
          "name": "D7",
          "midi": 98,
          "time": 222.98345300000025,
          "velocity": 0.7874015748031497,
          "duration": 0.5162851604166576
        },
        {
          "name": "D#7",
          "midi": 99,
          "time": 222.98345300000025,
          "velocity": 0.7874015748031497,
          "duration": 0.5162851604166576
        },
        {
          "name": "C7",
          "midi": 96,
          "time": 223.50081600000024,
          "velocity": 0.7874015748031497,
          "duration": 0.4720937374999892
        },
        {
          "name": "D7",
          "midi": 98,
          "time": 223.50081600000024,
          "velocity": 0.7874015748031497,
          "duration": 0.4720937374999892
        },
        {
          "name": "C7",
          "midi": 96,
          "time": 224.01817900000023,
          "velocity": 0.7874015748031497,
          "duration": 0.04311358333333715
        },
        {
          "name": "C7",
          "midi": 96,
          "time": 224.27470482083356,
          "velocity": 0.7874015748031497,
          "duration": 0.044191422916668444
        },
        {
          "name": "D7",
          "midi": 98,
          "time": 224.27470482083356,
          "velocity": 0.7874015748031497,
          "duration": 0.044191422916668444
        },
        {
          "name": "D#7",
          "midi": 99,
          "time": 224.27470482083356,
          "velocity": 0.7874015748031497,
          "duration": 0.044191422916668444
        },
        {
          "name": "C7",
          "midi": 96,
          "time": 224.53554200000022,
          "velocity": 0.7874015748031497,
          "duration": 0.044191422916668444
        },
        {
          "name": "D7",
          "midi": 98,
          "time": 224.53554200000022,
          "velocity": 0.7874015748031497,
          "duration": 0.044191422916668444
        },
        {
          "name": "D#7",
          "midi": 99,
          "time": 224.53554200000022,
          "velocity": 0.7874015748031497,
          "duration": 0.044191422916668444
        },
        {
          "name": "C7",
          "midi": 96,
          "time": 224.79422350000021,
          "velocity": 0.7874015748031497,
          "duration": 0.04311358333333715
        },
        {
          "name": "C#7",
          "midi": 97,
          "time": 225.0529050000002,
          "velocity": 0.7874015748031497,
          "duration": 0.5152073208333263
        },
        {
          "name": "D7",
          "midi": 98,
          "time": 225.0529050000002,
          "velocity": 0.7874015748031497,
          "duration": 0.5152073208333263
        },
        {
          "name": "D#7",
          "midi": 99,
          "time": 225.0529050000002,
          "velocity": 0.7874015748031497,
          "duration": 0.5152073208333263
        },
        {
          "name": "C#7",
          "midi": 97,
          "time": 225.56919016041687,
          "velocity": 0.7874015748031497,
          "duration": 0.044191422916668444
        },
        {
          "name": "C#7",
          "midi": 97,
          "time": 225.8289495000002,
          "velocity": 0.7874015748031497,
          "duration": 0.04203574375000585
        },
        {
          "name": "C#7",
          "midi": 97,
          "time": 226.0876310000002,
          "velocity": 0.7874015748031497,
          "duration": 0.04311358333333715
        },
        {
          "name": "D7",
          "midi": 98,
          "time": 226.0876310000002,
          "velocity": 0.7874015748031497,
          "duration": 0.04311358333333715
        },
        {
          "name": "D#7",
          "midi": 99,
          "time": 226.0876310000002,
          "velocity": 0.7874015748031497,
          "duration": 0.04311358333333715
        },
        {
          "name": "C#7",
          "midi": 97,
          "time": 226.34523466041685,
          "velocity": 0.7874015748031497,
          "duration": 0.04311358333333715
        },
        {
          "name": "D7",
          "midi": 98,
          "time": 226.34523466041685,
          "velocity": 0.7874015748031497,
          "duration": 0.04311358333333715
        },
        {
          "name": "D#7",
          "midi": 99,
          "time": 226.34523466041685,
          "velocity": 0.7874015748031497,
          "duration": 0.04311358333333715
        },
        {
          "name": "C#7",
          "midi": 97,
          "time": 226.60499400000018,
          "velocity": 0.7874015748031497,
          "duration": 0.04311358333333715
        },
        {
          "name": "C#7",
          "midi": 97,
          "time": 226.86259766041684,
          "velocity": 0.7874015748031497,
          "duration": 0.044191422916668444
        },
        {
          "name": "C#7",
          "midi": 97,
          "time": 227.12235700000016,
          "velocity": 0.7874015748031497,
          "duration": 0.47317157708332047
        },
        {
          "name": "D7",
          "midi": 98,
          "time": 227.12235700000016,
          "velocity": 0.7874015748031497,
          "duration": 0.47317157708332047
        },
        {
          "name": "D#7",
          "midi": 99,
          "time": 227.12235700000016,
          "velocity": 0.7874015748031497,
          "duration": 0.47317157708332047
        },
        {
          "name": "C#7",
          "midi": 97,
          "time": 227.63972000000015,
          "velocity": 0.7874015748031497,
          "duration": 0.04203574375000585
        },
        {
          "name": "C#7",
          "midi": 97,
          "time": 227.89732366041682,
          "velocity": 0.7874015748031497,
          "duration": 0.04203574375000585
        },
        {
          "name": "C#7",
          "midi": 97,
          "time": 228.15708300000014,
          "velocity": 0.7874015748031497,
          "duration": 0.04203574375000585
        },
        {
          "name": "C#7",
          "midi": 97,
          "time": 228.41360882083347,
          "velocity": 0.7874015748031497,
          "duration": 0.044191422916668444
        },
        {
          "name": "D7",
          "midi": 98,
          "time": 228.41360882083347,
          "velocity": 0.7874015748031497,
          "duration": 0.044191422916668444
        },
        {
          "name": "D#7",
          "midi": 99,
          "time": 228.41360882083347,
          "velocity": 0.7874015748031497,
          "duration": 0.044191422916668444
        },
        {
          "name": "C#7",
          "midi": 97,
          "time": 228.6733681604168,
          "velocity": 0.7874015748031497,
          "duration": 0.044191422916668444
        },
        {
          "name": "D7",
          "midi": 98,
          "time": 228.6733681604168,
          "velocity": 0.7874015748031497,
          "duration": 0.044191422916668444
        },
        {
          "name": "D#7",
          "midi": 99,
          "time": 228.6733681604168,
          "velocity": 0.7874015748031497,
          "duration": 0.044191422916668444
        },
        {
          "name": "C7",
          "midi": 96,
          "time": 228.92989398125013,
          "velocity": 0.7874015748031497,
          "duration": 0.044191422916668444
        },
        {
          "name": "C7",
          "midi": 96,
          "time": 229.1907311604168,
          "velocity": 0.7874015748031497,
          "duration": 0.5173629999999889
        },
        {
          "name": "C#7",
          "midi": 97,
          "time": 229.1907311604168,
          "velocity": 0.7874015748031497,
          "duration": 0.5173629999999889
        },
        {
          "name": "D7",
          "midi": 98,
          "time": 229.1907311604168,
          "velocity": 0.7874015748031497,
          "duration": 0.5173629999999889
        },
        {
          "name": "C7",
          "midi": 96,
          "time": 229.7091720000001,
          "velocity": 0.7874015748031497,
          "duration": 0.04095790416667455
        },
        {
          "name": "C7",
          "midi": 96,
          "time": 229.96677566041677,
          "velocity": 0.7874015748031497,
          "duration": 0.04311358333333715
        },
        {
          "name": "C7",
          "midi": 96,
          "time": 230.2265350000001,
          "velocity": 0.7874015748031497,
          "duration": 0.04203574375000585
        },
        {
          "name": "C#7",
          "midi": 97,
          "time": 230.2265350000001,
          "velocity": 0.7874015748031497,
          "duration": 0.04203574375000585
        },
        {
          "name": "D7",
          "midi": 98,
          "time": 230.2265350000001,
          "velocity": 0.7874015748031497,
          "duration": 0.04203574375000585
        },
        {
          "name": "C7",
          "midi": 96,
          "time": 230.4819829812501,
          "velocity": 0.7874015748031497,
          "duration": 0.04526926249999974
        },
        {
          "name": "C#7",
          "midi": 97,
          "time": 230.4819829812501,
          "velocity": 0.7874015748031497,
          "duration": 0.04526926249999974
        },
        {
          "name": "D7",
          "midi": 98,
          "time": 230.4819829812501,
          "velocity": 0.7874015748031497,
          "duration": 0.04526926249999974
        },
        {
          "name": "C7",
          "midi": 96,
          "time": 230.7438980000001,
          "velocity": 0.7874015748031497,
          "duration": 0.04095790416667455
        },
        {
          "name": "C7",
          "midi": 96,
          "time": 231.00150166041675,
          "velocity": 0.7874015748031497,
          "duration": 0.04203574375000585
        },
        {
          "name": "C7",
          "midi": 96,
          "time": 231.26126100000008,
          "velocity": 0.7874015748031497,
          "duration": 0.3869444104166746
        },
        {
          "name": "C#7",
          "midi": 97,
          "time": 231.26126100000008,
          "velocity": 0.7874015748031497,
          "duration": 0.3869444104166746
        },
        {
          "name": "D7",
          "midi": 98,
          "time": 231.26126100000008,
          "velocity": 0.7874015748031497,
          "duration": 0.3869444104166746
        },
        {
          "name": "C7",
          "midi": 96,
          "time": 231.7786240000001,
          "velocity": 0.7874015748031497,
          "duration": 0.04203574375000585
        },
        {
          "name": "C7",
          "midi": 96,
          "time": 232.2959870000001,
          "velocity": 0.7874015748031497,
          "duration": 0.04311358333333715
        },
        {
          "name": "C#7",
          "midi": 97,
          "time": 232.5546685000001,
          "velocity": 0.7874015748031497,
          "duration": 0.04311358333333715
        },
        {
          "name": "D7",
          "midi": 98,
          "time": 232.8133500000001,
          "velocity": 0.7874015748031497,
          "duration": 0.04311358333333715
        },
        {
          "name": "D#7",
          "midi": 99,
          "time": 233.33071300000012,
          "velocity": 0.7874015748031497,
          "duration": 0.47317157708332047
        },
        {
          "name": "C#7",
          "midi": 97,
          "time": 233.8480760000001,
          "velocity": 0.7874015748031497,
          "duration": 0.04203574375000585
        },
        {
          "name": "C#7",
          "midi": 97,
          "time": 234.10567966041677,
          "velocity": 0.7874015748031497,
          "duration": 0.04311358333333715
        },
        {
          "name": "D#7",
          "midi": 99,
          "time": 234.10567966041677,
          "velocity": 0.7874015748031497,
          "duration": 0.04311358333333715
        },
        {
          "name": "E7",
          "midi": 100,
          "time": 234.10567966041677,
          "velocity": 0.7874015748031497,
          "duration": 0.04311358333333715
        },
        {
          "name": "C#7",
          "midi": 97,
          "time": 234.3654390000001,
          "velocity": 0.7874015748031497,
          "duration": 0.001077839583331297
        },
        {
          "name": "C#7",
          "midi": 97,
          "time": 234.6241205000001,
          "velocity": 0.7874015748031497,
          "duration": 0.3880222500000059
        },
        {
          "name": "D#7",
          "midi": 99,
          "time": 234.6241205000001,
          "velocity": 0.7874015748031497,
          "duration": 0.3880222500000059
        },
        {
          "name": "E7",
          "midi": 100,
          "time": 234.6241205000001,
          "velocity": 0.7874015748031497,
          "duration": 0.3880222500000059
        },
        {
          "name": "C#7",
          "midi": 97,
          "time": 235.14040566041677,
          "velocity": 0.7874015748031497,
          "duration": 0.04311358333333715
        },
        {
          "name": "D7",
          "midi": 98,
          "time": 235.14040566041677,
          "velocity": 0.7874015748031497,
          "duration": 0.04311358333333715
        },
        {
          "name": "D#7",
          "midi": 99,
          "time": 235.14040566041677,
          "velocity": 0.7874015748031497,
          "duration": 0.04311358333333715
        },
        {
          "name": "C#7",
          "midi": 97,
          "time": 235.65884650000012,
          "velocity": 0.7874015748031497,
          "duration": 0.04311358333333715
        },
        {
          "name": "D#7",
          "midi": 99,
          "time": 235.65884650000012,
          "velocity": 0.7874015748031497,
          "duration": 0.04311358333333715
        },
        {
          "name": "E7",
          "midi": 100,
          "time": 235.65884650000012,
          "velocity": 0.7874015748031497,
          "duration": 0.04311358333333715
        },
        {
          "name": "C#7",
          "midi": 97,
          "time": 235.91752800000012,
          "velocity": 0.7874015748031497,
          "duration": 0.3858665708333433
        },
        {
          "name": "D#7",
          "midi": 99,
          "time": 235.91752800000012,
          "velocity": 0.7874015748031497,
          "duration": 0.3858665708333433
        },
        {
          "name": "E7",
          "midi": 100,
          "time": 235.91752800000012,
          "velocity": 0.7874015748031497,
          "duration": 0.3858665708333433
        },
        {
          "name": "D7",
          "midi": 98,
          "time": 236.43489100000014,
          "velocity": 0.7874015748031497,
          "duration": 0.04311358333333715
        },
        {
          "name": "D#7",
          "midi": 99,
          "time": 236.43489100000014,
          "velocity": 0.7874015748031497,
          "duration": 0.04311358333333715
        },
        {
          "name": "C#7",
          "midi": 97,
          "time": 236.95225400000015,
          "velocity": 0.7874015748031497,
          "duration": 0.04203574375000585
        },
        {
          "name": "C#7",
          "midi": 97,
          "time": 237.46961700000017,
          "velocity": 0.7874015748031497,
          "duration": 0.3880222500000059
        },
        {
          "name": "D#7",
          "midi": 99,
          "time": 237.46961700000017,
          "velocity": 0.7874015748031497,
          "duration": 0.3880222500000059
        },
        {
          "name": "C#7",
          "midi": 97,
          "time": 237.9869800000002,
          "velocity": 0.7874015748031497,
          "duration": 0.04203574375000585
        },
        {
          "name": "C#7",
          "midi": 97,
          "time": 238.24566150000018,
          "velocity": 0.7874015748031497,
          "duration": 0.04203574375000585
        },
        {
          "name": "D7",
          "midi": 98,
          "time": 238.24566150000018,
          "velocity": 0.7874015748031497,
          "duration": 0.04203574375000585
        },
        {
          "name": "D#7",
          "midi": 99,
          "time": 238.24566150000018,
          "velocity": 0.7874015748031497,
          "duration": 0.04203574375000585
        },
        {
          "name": "C#7",
          "midi": 97,
          "time": 238.50434300000018,
          "velocity": 0.7874015748031497,
          "duration": 0.43005799375001175
        },
        {
          "name": "D7",
          "midi": 98,
          "time": 238.50434300000018,
          "velocity": 0.7874015748031497,
          "duration": 0.43005799375001175
        },
        {
          "name": "D#7",
          "midi": 99,
          "time": 238.50434300000018,
          "velocity": 0.7874015748031497,
          "duration": 0.43005799375001175
        },
        {
          "name": "D7",
          "midi": 98,
          "time": 239.0217060000002,
          "velocity": 0.7874015748031497,
          "duration": 0.6456259104166691
        },
        {
          "name": "D#7",
          "midi": 99,
          "time": 239.0217060000002,
          "velocity": 0.7874015748031497,
          "duration": 0.6456259104166691
        },
        {
          "name": "E7",
          "midi": 100,
          "time": 239.0217060000002,
          "velocity": 0.7874015748031497,
          "duration": 0.6456259104166691
        },
        {
          "name": "D7",
          "midi": 98,
          "time": 239.79667266041687,
          "velocity": 0.7874015748031497,
          "duration": 0.04311358333333715
        },
        {
          "name": "D#7",
          "midi": 99,
          "time": 239.79667266041687,
          "velocity": 0.7874015748031497,
          "duration": 0.04311358333333715
        },
        {
          "name": "E7",
          "midi": 100,
          "time": 239.79667266041687,
          "velocity": 0.7874015748031497,
          "duration": 0.04311358333333715
        },
        {
          "name": "C7",
          "midi": 96,
          "time": 240.0564320000002,
          "velocity": 0.7874015748031497,
          "duration": 0.04311358333333715
        },
        {
          "name": "C7",
          "midi": 96,
          "time": 240.57271716041686,
          "velocity": 0.7874015748031497,
          "duration": 0.044191422916668444
        },
        {
          "name": "C#7",
          "midi": 97,
          "time": 240.83139866041685,
          "velocity": 0.7874015748031497,
          "duration": 0.044191422916668444
        },
        {
          "name": "D7",
          "midi": 98,
          "time": 241.09115800000018,
          "velocity": 0.7874015748031497,
          "duration": 0.04203574375000585
        },
        {
          "name": "D#7",
          "midi": 99,
          "time": 241.60744316041686,
          "velocity": 0.7874015748031497,
          "duration": 0.4742494166666802
        },
        {
          "name": "C#7",
          "midi": 97,
          "time": 242.1258840000002,
          "velocity": 0.7874015748031497,
          "duration": 0.04203574375000585
        },
        {
          "name": "C#7",
          "midi": 97,
          "time": 242.38348766041688,
          "velocity": 0.7874015748031497,
          "duration": 0.04311358333333715
        },
        {
          "name": "D#7",
          "midi": 99,
          "time": 242.38348766041688,
          "velocity": 0.7874015748031497,
          "duration": 0.04311358333333715
        },
        {
          "name": "E7",
          "midi": 100,
          "time": 242.38348766041688,
          "velocity": 0.7874015748031497,
          "duration": 0.04311358333333715
        },
        {
          "name": "C#7",
          "midi": 97,
          "time": 242.6432470000002,
          "velocity": 0.7874015748031497,
          "duration": 0.001077839583331297
        },
        {
          "name": "C#7",
          "midi": 97,
          "time": 242.9019285000002,
          "velocity": 0.7874015748031497,
          "duration": 0.3880222500000059
        },
        {
          "name": "D#7",
          "midi": 99,
          "time": 242.9019285000002,
          "velocity": 0.7874015748031497,
          "duration": 0.3880222500000059
        },
        {
          "name": "E7",
          "midi": 100,
          "time": 242.9019285000002,
          "velocity": 0.7874015748031497,
          "duration": 0.3880222500000059
        },
        {
          "name": "C#7",
          "midi": 97,
          "time": 243.41821366041688,
          "velocity": 0.7874015748031497,
          "duration": 0.044191422916668444
        },
        {
          "name": "D#7",
          "midi": 99,
          "time": 243.41821366041688,
          "velocity": 0.7874015748031497,
          "duration": 0.044191422916668444
        },
        {
          "name": "E7",
          "midi": 100,
          "time": 243.41821366041688,
          "velocity": 0.7874015748031497,
          "duration": 0.044191422916668444
        },
        {
          "name": "C#7",
          "midi": 97,
          "time": 243.93665450000023,
          "velocity": 0.7874015748031497,
          "duration": 0.5593987437499948
        },
        {
          "name": "D#7",
          "midi": 99,
          "time": 243.93665450000023,
          "velocity": 0.7874015748031497,
          "duration": 0.5593987437499948
        },
        {
          "name": "E7",
          "midi": 100,
          "time": 243.93665450000023,
          "velocity": 0.7874015748031497,
          "duration": 0.5593987437499948
        },
        {
          "name": "D7",
          "midi": 98,
          "time": 244.7126990000002,
          "velocity": 0.7874015748031497,
          "duration": 0.001077839583331297
        },
        {
          "name": "D#7",
          "midi": 99,
          "time": 244.7126990000002,
          "velocity": 0.7874015748031497,
          "duration": 0.001077839583331297
        },
        {
          "name": "C#7",
          "midi": 97,
          "time": 245.2300620000002,
          "velocity": 0.7874015748031497,
          "duration": 0.04203574375000585
        },
        {
          "name": "C#7",
          "midi": 97,
          "time": 245.74742500000022,
          "velocity": 0.7874015748031497,
          "duration": 0.3869444104166746
        },
        {
          "name": "D#7",
          "midi": 99,
          "time": 245.74742500000022,
          "velocity": 0.7874015748031497,
          "duration": 0.3869444104166746
        },
        {
          "name": "C#7",
          "midi": 97,
          "time": 246.26478800000024,
          "velocity": 0.7874015748031497,
          "duration": 0.04203574375000585
        },
        {
          "name": "C#7",
          "midi": 97,
          "time": 246.52131382083357,
          "velocity": 0.7874015748031497,
          "duration": 0.044191422916668444
        },
        {
          "name": "D7",
          "midi": 98,
          "time": 246.52131382083357,
          "velocity": 0.7874015748031497,
          "duration": 0.044191422916668444
        },
        {
          "name": "D#7",
          "midi": 99,
          "time": 246.52131382083357,
          "velocity": 0.7874015748031497,
          "duration": 0.044191422916668444
        },
        {
          "name": "C#7",
          "midi": 97,
          "time": 246.78215100000023,
          "velocity": 0.7874015748031497,
          "duration": 0.43005799375001175
        },
        {
          "name": "D7",
          "midi": 98,
          "time": 246.78215100000023,
          "velocity": 0.7874015748031497,
          "duration": 0.43005799375001175
        },
        {
          "name": "D#7",
          "midi": 99,
          "time": 246.78215100000023,
          "velocity": 0.7874015748031497,
          "duration": 0.43005799375001175
        },
        {
          "name": "D7",
          "midi": 98,
          "time": 247.29951400000024,
          "velocity": 0.7874015748031497,
          "duration": 0.6035901666666632
        },
        {
          "name": "D#7",
          "midi": 99,
          "time": 247.29951400000024,
          "velocity": 0.7874015748031497,
          "duration": 0.6035901666666632
        },
        {
          "name": "E7",
          "midi": 100,
          "time": 247.29951400000024,
          "velocity": 0.7874015748031497,
          "duration": 0.6035901666666632
        },
        {
          "name": "D7",
          "midi": 98,
          "time": 248.0744806604169,
          "velocity": 0.7874015748031497,
          "duration": 0.04311358333333715
        },
        {
          "name": "D#7",
          "midi": 99,
          "time": 248.0744806604169,
          "velocity": 0.7874015748031497,
          "duration": 0.04311358333333715
        },
        {
          "name": "E7",
          "midi": 100,
          "time": 248.0744806604169,
          "velocity": 0.7874015748031497,
          "duration": 0.04311358333333715
        },
        {
          "name": "C7",
          "midi": 96,
          "time": 248.33424000000022,
          "velocity": 0.7874015748031497,
          "duration": 0.04311358333333715
        },
        {
          "name": "C7",
          "midi": 96,
          "time": 248.85160300000024,
          "velocity": 0.7874015748031497,
          "duration": 0.04203574375000585
        },
        {
          "name": "C#7",
          "midi": 97,
          "time": 249.1092066604169,
          "velocity": 0.7874015748031497,
          "duration": 0.04311358333333715
        },
        {
          "name": "D7",
          "midi": 98,
          "time": 249.36896600000023,
          "velocity": 0.7874015748031497,
          "duration": 0.04311358333333715
        },
        {
          "name": "D#7",
          "midi": 99,
          "time": 249.88632900000025,
          "velocity": 0.7874015748031497,
          "duration": 0.47317157708332047
        },
        {
          "name": "C#7",
          "midi": 97,
          "time": 250.40369200000023,
          "velocity": 0.7874015748031497,
          "duration": 0.04311358333333715
        },
        {
          "name": "C#7",
          "midi": 97,
          "time": 250.66237350000023,
          "velocity": 0.7874015748031497,
          "duration": 0.04203574375000585
        },
        {
          "name": "D#7",
          "midi": 99,
          "time": 250.66237350000023,
          "velocity": 0.7874015748031497,
          "duration": 0.04203574375000585
        },
        {
          "name": "E7",
          "midi": 100,
          "time": 250.66237350000023,
          "velocity": 0.7874015748031497,
          "duration": 0.04203574375000585
        },
        {
          "name": "C#7",
          "midi": 97,
          "time": 250.92105500000022,
          "velocity": 0.7874015748031497,
          "duration": 0.001077839583331297
        },
        {
          "name": "D#7",
          "midi": 99,
          "time": 250.92105500000022,
          "velocity": 0.7874015748031497,
          "duration": 0.001077839583331297
        },
        {
          "name": "E7",
          "midi": 100,
          "time": 250.92105500000022,
          "velocity": 0.7874015748031497,
          "duration": 0.001077839583331297
        },
        {
          "name": "C#7",
          "midi": 97,
          "time": 251.1786586604169,
          "velocity": 0.7874015748031497,
          "duration": 0.3891000895833372
        },
        {
          "name": "D#7",
          "midi": 99,
          "time": 251.1786586604169,
          "velocity": 0.7874015748031497,
          "duration": 0.3891000895833372
        },
        {
          "name": "E7",
          "midi": 100,
          "time": 251.1786586604169,
          "velocity": 0.7874015748031497,
          "duration": 0.3891000895833372
        },
        {
          "name": "C#7",
          "midi": 97,
          "time": 251.69709950000023,
          "velocity": 0.7874015748031497,
          "duration": 0.5173629999999889
        },
        {
          "name": "D#7",
          "midi": 99,
          "time": 251.69709950000023,
          "velocity": 0.7874015748031497,
          "duration": 0.5173629999999889
        },
        {
          "name": "E7",
          "midi": 100,
          "time": 251.69709950000023,
          "velocity": 0.7874015748031497,
          "duration": 0.5173629999999889
        },
        {
          "name": "D#7",
          "midi": 99,
          "time": 252.4720661604169,
          "velocity": 0.7874015748031497,
          "duration": 0.002155679166662594
        },
        {
          "name": "D7",
          "midi": 98,
          "time": 252.9905070000002,
          "velocity": 0.7874015748031497,
          "duration": 0.001077839583331297
        },
        {
          "name": "C#7",
          "midi": 97,
          "time": 253.5078700000002,
          "velocity": 0.7874015748031497,
          "duration": 0.04311358333333715
        },
        {
          "name": "C7",
          "midi": 96,
          "time": 254.0252330000002,
          "velocity": 0.7874015748031497,
          "duration": 0.5162851604166576
        },
        {
          "name": "C#7",
          "midi": 97,
          "time": 254.0252330000002,
          "velocity": 0.7874015748031497,
          "duration": 0.5162851604166576
        },
        {
          "name": "C#7",
          "midi": 97,
          "time": 254.5425960000002,
          "velocity": 0.7874015748031497,
          "duration": 0.04311358333333715
        },
        {
          "name": "C#7",
          "midi": 97,
          "time": 254.80019966041687,
          "velocity": 0.7874015748031497,
          "duration": 0.04311358333333715
        },
        {
          "name": "C#7",
          "midi": 97,
          "time": 255.0599590000002,
          "velocity": 0.7874015748031497,
          "duration": 0.04203574375000585
        },
        {
          "name": "D#7",
          "midi": 99,
          "time": 255.0599590000002,
          "velocity": 0.7874015748031497,
          "duration": 0.04203574375000585
        },
        {
          "name": "E7",
          "midi": 100,
          "time": 255.0599590000002,
          "velocity": 0.7874015748031497,
          "duration": 0.04203574375000585
        },
        {
          "name": "C#7",
          "midi": 97,
          "time": 255.31864050000019,
          "velocity": 0.7874015748031497,
          "duration": 0.04203574375000585
        },
        {
          "name": "D#7",
          "midi": 99,
          "time": 255.31864050000019,
          "velocity": 0.7874015748031497,
          "duration": 0.04203574375000585
        },
        {
          "name": "E7",
          "midi": 100,
          "time": 255.31864050000019,
          "velocity": 0.7874015748031497,
          "duration": 0.04203574375000585
        },
        {
          "name": "C7",
          "midi": 96,
          "time": 255.57732200000018,
          "velocity": 0.7874015748031497,
          "duration": 0.6025123270833603
        },
        {
          "name": "C#7",
          "midi": 97,
          "time": 255.57732200000018,
          "velocity": 0.7874015748031497,
          "duration": 0.6025123270833603
        },
        {
          "name": "C#7",
          "midi": 97,
          "time": 256.3522886604169,
          "velocity": 0.7874015748031497,
          "duration": 0.04203574374997743
        },
        {
          "name": "D#7",
          "midi": 99,
          "time": 256.3522886604169,
          "velocity": 0.7874015748031497,
          "duration": 0.04203574374997743
        },
        {
          "name": "E7",
          "midi": 100,
          "time": 256.3522886604169,
          "velocity": 0.7874015748031497,
          "duration": 0.04203574374997743
        },
        {
          "name": "C#7",
          "midi": 97,
          "time": 256.6120480000002,
          "velocity": 0.7874015748031497,
          "duration": 0.04203574374997743
        },
        {
          "name": "D#7",
          "midi": 99,
          "time": 256.6120480000002,
          "velocity": 0.7874015748031497,
          "duration": 0.04203574374997743
        },
        {
          "name": "E7",
          "midi": 100,
          "time": 256.6120480000002,
          "velocity": 0.7874015748031497,
          "duration": 0.04203574374997743
        },
        {
          "name": "C7",
          "midi": 96,
          "time": 257.1294110000002,
          "velocity": 0.7874015748031497,
          "duration": 0.043113583333308725
        },
        {
          "name": "C#7",
          "midi": 97,
          "time": 257.3870146604168,
          "velocity": 0.7874015748031497,
          "duration": 0.04419142291664002
        },
        {
          "name": "D7",
          "midi": 98,
          "time": 257.6467740000001,
          "velocity": 0.7874015748031497,
          "duration": 0.043113583333308725
        },
        {
          "name": "D#7",
          "midi": 99,
          "time": 258.1641370000001,
          "velocity": 0.7874015748031497,
          "duration": 0.4742494166666802
        },
        {
          "name": "C#7",
          "midi": 97,
          "time": 258.6815000000001,
          "velocity": 0.7874015748031497,
          "duration": 0.04203574374997743
        },
        {
          "name": "C#7",
          "midi": 97,
          "time": 258.9391036604167,
          "velocity": 0.7874015748031497,
          "duration": 0.043113583333308725
        },
        {
          "name": "C#7",
          "midi": 97,
          "time": 259.198863,
          "velocity": 0.7874015748031497,
          "duration": 0.001077839583331297
        },
        {
          "name": "D#7",
          "midi": 99,
          "time": 259.198863,
          "velocity": 0.7874015748031497,
          "duration": 0.001077839583331297
        },
        {
          "name": "E7",
          "midi": 100,
          "time": 259.198863,
          "velocity": 0.7874015748031497,
          "duration": 0.001077839583331297
        },
        {
          "name": "C#7",
          "midi": 97,
          "time": 259.45754450000004,
          "velocity": 0.7874015748031497,
          "duration": 0.3891000895833372
        },
        {
          "name": "D#7",
          "midi": 99,
          "time": 259.45754450000004,
          "velocity": 0.7874015748031497,
          "duration": 0.3891000895833372
        },
        {
          "name": "E7",
          "midi": 100,
          "time": 259.45754450000004,
          "velocity": 0.7874015748031497,
          "duration": 0.3891000895833372
        },
        {
          "name": "C#7",
          "midi": 97,
          "time": 259.97490750000003,
          "velocity": 0.7874015748031497,
          "duration": 0.043113583333308725
        },
        {
          "name": "D#7",
          "midi": 99,
          "time": 259.97490750000003,
          "velocity": 0.7874015748031497,
          "duration": 0.043113583333308725
        },
        {
          "name": "E7",
          "midi": 100,
          "time": 259.97490750000003,
          "velocity": 0.7874015748031497,
          "duration": 0.043113583333308725
        },
        {
          "name": "C#7",
          "midi": 97,
          "time": 260.233589,
          "velocity": 0.7874015748031497,
          "duration": 0.04203574374997743
        },
        {
          "name": "D#7",
          "midi": 99,
          "time": 260.233589,
          "velocity": 0.7874015748031497,
          "duration": 0.04203574374997743
        },
        {
          "name": "E7",
          "midi": 100,
          "time": 260.233589,
          "velocity": 0.7874015748031497,
          "duration": 0.04203574374997743
        },
        {
          "name": "C#7",
          "midi": 97,
          "time": 260.49227049999996,
          "velocity": 0.7874015748031497,
          "duration": 0.043113583333308725
        },
        {
          "name": "D#7",
          "midi": 99,
          "time": 260.7509519999999,
          "velocity": 0.7874015748031497,
          "duration": 0.001077839583331297
        },
        {
          "name": "D7",
          "midi": 98,
          "time": 261.2683149999999,
          "velocity": 0.7874015748031497,
          "duration": 0.001077839583331297
        },
        {
          "name": "C#7",
          "midi": 97,
          "time": 261.7856779999999,
          "velocity": 0.7874015748031497,
          "duration": 0.04419142291664002
        },
        {
          "name": "C7",
          "midi": 96,
          "time": 262.3030409999999,
          "velocity": 0.7874015748031497,
          "duration": 0.4731715770833489
        },
        {
          "name": "C#7",
          "midi": 97,
          "time": 262.3030409999999,
          "velocity": 0.7874015748031497,
          "duration": 0.4731715770833489
        },
        {
          "name": "C#7",
          "midi": 97,
          "time": 262.8204039999999,
          "velocity": 0.7874015748031497,
          "duration": 0.043113583333308725
        },
        {
          "name": "C#7",
          "midi": 97,
          "time": 263.0780076604165,
          "velocity": 0.7874015748031497,
          "duration": 0.04419142291664002
        },
        {
          "name": "C#7",
          "midi": 97,
          "time": 263.3377669999998,
          "velocity": 0.7874015748031497,
          "duration": 0.04203574374997743
        },
        {
          "name": "D#7",
          "midi": 99,
          "time": 263.3377669999998,
          "velocity": 0.7874015748031497,
          "duration": 0.04203574374997743
        },
        {
          "name": "E7",
          "midi": 100,
          "time": 263.3377669999998,
          "velocity": 0.7874015748031497,
          "duration": 0.04203574374997743
        },
        {
          "name": "C#7",
          "midi": 97,
          "time": 263.5964484999998,
          "velocity": 0.7874015748031497,
          "duration": 0.04203574374997743
        },
        {
          "name": "D#7",
          "midi": 99,
          "time": 263.5964484999998,
          "velocity": 0.7874015748031497,
          "duration": 0.04203574374997743
        },
        {
          "name": "E7",
          "midi": 100,
          "time": 263.5964484999998,
          "velocity": 0.7874015748031497,
          "duration": 0.04203574374997743
        },
        {
          "name": "C7",
          "midi": 96,
          "time": 263.8540521604164,
          "velocity": 0.7874015748031497,
          "duration": 0.6477815895833601
        },
        {
          "name": "C#7",
          "midi": 97,
          "time": 263.8540521604164,
          "velocity": 0.7874015748031497,
          "duration": 0.6477815895833601
        },
        {
          "name": "C#7",
          "midi": 97,
          "time": 264.62794098124976,
          "velocity": 0.7874015748031497,
          "duration": 0.043113583333308725
        },
        {
          "name": "D#7",
          "midi": 99,
          "time": 264.62794098124976,
          "velocity": 0.7874015748031497,
          "duration": 0.043113583333308725
        },
        {
          "name": "E7",
          "midi": 100,
          "time": 264.62794098124976,
          "velocity": 0.7874015748031497,
          "duration": 0.043113583333308725
        },
        {
          "name": "C#7",
          "midi": 97,
          "time": 264.8898559999997,
          "velocity": 0.7874015748031497,
          "duration": 0.04203574374997743
        },
        {
          "name": "D#7",
          "midi": 99,
          "time": 264.8898559999997,
          "velocity": 0.7874015748031497,
          "duration": 0.04203574374997743
        },
        {
          "name": "E7",
          "midi": 100,
          "time": 264.8898559999997,
          "velocity": 0.7874015748031497,
          "duration": 0.04203574374997743
        },
        {
          "name": "C7",
          "midi": 96,
          "time": 265.4061411604164,
          "velocity": 0.7874015748031497,
          "duration": 0.04419142291664002
        },
        {
          "name": "C#7",
          "midi": 97,
          "time": 265.6659004999997,
          "velocity": 0.7874015748031497,
          "duration": 0.04526926250002816
        },
        {
          "name": "C7",
          "midi": 96,
          "time": 265.9245819999997,
          "velocity": 0.7874015748031497,
          "duration": 0.04203574374997743
        },
        {
          "name": "C#7",
          "midi": 97,
          "time": 266.18218566041634,
          "velocity": 0.7874015748031497,
          "duration": 0.043113583333308725
        },
        {
          "name": "D#7",
          "midi": 99,
          "time": 266.18218566041634,
          "velocity": 0.7874015748031497,
          "duration": 0.043113583333308725
        },
        {
          "name": "E7",
          "midi": 100,
          "time": 266.18218566041634,
          "velocity": 0.7874015748031497,
          "duration": 0.043113583333308725
        },
        {
          "name": "C#7",
          "midi": 97,
          "time": 266.44194499999963,
          "velocity": 0.7874015748031497,
          "duration": 1.0336481604166465
        },
        {
          "name": "D#7",
          "midi": 99,
          "time": 266.44194499999963,
          "velocity": 0.7874015748031497,
          "duration": 1.0336481604166465
        },
        {
          "name": "E7",
          "midi": 100,
          "time": 266.44194499999963,
          "velocity": 0.7874015748031497,
          "duration": 1.0336481604166465
        },
        {
          "name": "C#7",
          "midi": 97,
          "time": 267.4766709999996,
          "velocity": 0.7874015748031497,
          "duration": 0.04203574374997743
        },
        {
          "name": "C#7",
          "midi": 97,
          "time": 267.7364303395829,
          "velocity": 0.7874015748031497,
          "duration": 0.5593987437500232
        },
        {
          "name": "D#7",
          "midi": 99,
          "time": 267.7364303395829,
          "velocity": 0.7874015748031497,
          "duration": 0.5593987437500232
        },
        {
          "name": "E7",
          "midi": 100,
          "time": 267.7364303395829,
          "velocity": 0.7874015748031497,
          "duration": 0.5593987437500232
        },
        {
          "name": "C#7",
          "midi": 97,
          "time": 268.5113969999996,
          "velocity": 0.7874015748031497,
          "duration": 0.3869444104166746
        },
        {
          "name": "D#7",
          "midi": 99,
          "time": 268.5113969999996,
          "velocity": 0.7874015748031497,
          "duration": 0.3869444104166746
        },
        {
          "name": "E7",
          "midi": 100,
          "time": 268.5113969999996,
          "velocity": 0.7874015748031497,
          "duration": 0.3869444104166746
        },
        {
          "name": "C#7",
          "midi": 97,
          "time": 269.0287599999996,
          "velocity": 0.7874015748031497,
          "duration": 0.3869444104166746
        },
        {
          "name": "D7",
          "midi": 98,
          "time": 269.0287599999996,
          "velocity": 0.7874015748031497,
          "duration": 0.3869444104166746
        },
        {
          "name": "D#7",
          "midi": 99,
          "time": 269.0287599999996,
          "velocity": 0.7874015748031497,
          "duration": 0.3869444104166746
        },
        {
          "name": "D7",
          "midi": 98,
          "time": 269.54504516041624,
          "velocity": 0.7874015748031497,
          "duration": 0.043113583333308725
        },
        {
          "name": "D#7",
          "midi": 99,
          "time": 269.54504516041624,
          "velocity": 0.7874015748031497,
          "duration": 0.043113583333308725
        },
        {
          "name": "E7",
          "midi": 100,
          "time": 269.54504516041624,
          "velocity": 0.7874015748031497,
          "duration": 0.043113583333308725
        },
        {
          "name": "D7",
          "midi": 98,
          "time": 269.8037266604162,
          "velocity": 0.7874015748031497,
          "duration": 0.6467037499999719
        },
        {
          "name": "D#7",
          "midi": 99,
          "time": 269.8037266604162,
          "velocity": 0.7874015748031497,
          "duration": 0.6467037499999719
        },
        {
          "name": "E7",
          "midi": 100,
          "time": 269.8037266604162,
          "velocity": 0.7874015748031497,
          "duration": 0.6467037499999719
        },
        {
          "name": "D7",
          "midi": 98,
          "time": 270.57977116041616,
          "velocity": 0.7874015748031497,
          "duration": 0.4311358333333146
        },
        {
          "name": "D#7",
          "midi": 99,
          "time": 270.57977116041616,
          "velocity": 0.7874015748031497,
          "duration": 0.4311358333333146
        },
        {
          "name": "E7",
          "midi": 100,
          "time": 270.57977116041616,
          "velocity": 0.7874015748031497,
          "duration": 0.4311358333333146
        },
        {
          "name": "D#7",
          "midi": 99,
          "time": 271.0982119999995,
          "velocity": 0.7874015748031497,
          "duration": 0.04203574374997743
        },
        {
          "name": "C#7",
          "midi": 97,
          "time": 271.35689349999944,
          "velocity": 0.7874015748031497,
          "duration": 0.04203574374997743
        },
        {
          "name": "D#7",
          "midi": 99,
          "time": 271.6155749999994,
          "velocity": 0.7874015748031497,
          "duration": 0.04203574374997743
        },
        {
          "name": "D#7",
          "midi": 99,
          "time": 271.8742564999994,
          "velocity": 0.7874015748031497,
          "duration": 0.04203574374997743
        },
        {
          "name": "D#7",
          "midi": 99,
          "time": 272.39161949999936,
          "velocity": 0.7874015748031497,
          "duration": 0.04203574374997743
        },
        {
          "name": "D7",
          "midi": 98,
          "time": 272.65030099999933,
          "velocity": 0.7874015748031497,
          "duration": 0.04203574374997743
        },
        {
          "name": "D#7",
          "midi": 99,
          "time": 273.1676639999993,
          "velocity": 0.7874015748031497,
          "duration": 0.04203574374997743
        },
        {
          "name": "D#7",
          "midi": 99,
          "time": 273.6850269999993,
          "velocity": 0.7874015748031497,
          "duration": 0.04203574374997743
        },
        {
          "name": "D#7",
          "midi": 99,
          "time": 273.9437084999993,
          "velocity": 0.7874015748031497,
          "duration": 0.04203574374997743
        },
        {
          "name": "E7",
          "midi": 100,
          "time": 275.23603816041594,
          "velocity": 0.7874015748031497,
          "duration": 0.043113583333308725
        },
        {
          "name": "D#7",
          "midi": 99,
          "time": 275.4947196604159,
          "velocity": 0.7874015748031497,
          "duration": 0.043113583333308725
        },
        {
          "name": "D7",
          "midi": 98,
          "time": 275.7544789999992,
          "velocity": 0.7874015748031497,
          "duration": 0.043113583333308725
        },
        {
          "name": "C#7",
          "midi": 97,
          "time": 276.2718419999992,
          "velocity": 0.7874015748031497,
          "duration": 0.043113583333308725
        },
        {
          "name": "C7",
          "midi": 96,
          "time": 276.7892049999992,
          "velocity": 0.7874015748031497,
          "duration": 0.04203574374997743
        },
        {
          "name": "C#7",
          "midi": 97,
          "time": 277.3065679999992,
          "velocity": 0.7874015748031497,
          "duration": 0.043113583333308725
        },
        {
          "name": "D#7",
          "midi": 99,
          "time": 277.82393099999916,
          "velocity": 0.7874015748031497,
          "duration": 0.04203574374997743
        },
        {
          "name": "D7",
          "midi": 98,
          "time": 278.0815346604158,
          "velocity": 0.7874015748031497,
          "duration": 0.043113583333308725
        },
        {
          "name": "C#7",
          "midi": 97,
          "time": 278.3412939999991,
          "velocity": 0.7874015748031497,
          "duration": 0.043113583333308725
        },
        {
          "name": "C#7",
          "midi": 97,
          "time": 279.3760199999991,
          "velocity": 0.7874015748031497,
          "duration": 0.043113583333308725
        },
        {
          "name": "C7",
          "midi": 96,
          "time": 279.6336236604157,
          "velocity": 0.7874015748031497,
          "duration": 0.043113583333308725
        },
        {
          "name": "C#7",
          "midi": 97,
          "time": 279.893382999999,
          "velocity": 0.7874015748031497,
          "duration": 0.043113583333308725
        },
        {
          "name": "D7",
          "midi": 98,
          "time": 280.15206449999897,
          "velocity": 0.7874015748031497,
          "duration": 0.043113583333308725
        },
        {
          "name": "C#7",
          "midi": 97,
          "time": 280.41074599999894,
          "velocity": 0.7874015748031497,
          "duration": 0.7318530770833149
        },
        {
          "name": "D7",
          "midi": 98,
          "time": 283.5149239999989,
          "velocity": 0.7874015748031497,
          "duration": 0.04203574374997743
        },
        {
          "name": "C7",
          "midi": 96,
          "time": 284.0322869999989,
          "velocity": 0.7874015748031497,
          "duration": 0.04203574374997743
        },
        {
          "name": "C#7",
          "midi": 97,
          "time": 284.5496499999989,
          "velocity": 0.7874015748031497,
          "duration": 0.04203574374997743
        },
        {
          "name": "D7",
          "midi": 98,
          "time": 284.80725366041554,
          "velocity": 0.7874015748031497,
          "duration": 0.04203574374997743
        },
        {
          "name": "D#7",
          "midi": 99,
          "time": 285.06701299999884,
          "velocity": 0.7874015748031497,
          "duration": 0.04203574374997743
        },
        {
          "name": "E7",
          "midi": 100,
          "time": 285.5843759999988,
          "velocity": 0.7874015748031497,
          "duration": 0.04203574374997743
        },
        {
          "name": "E7",
          "midi": 100,
          "time": 286.1017389999988,
          "velocity": 0.7874015748031497,
          "duration": 0.04203574374997743
        },
        {
          "name": "D#7",
          "midi": 99,
          "time": 286.3604204999988,
          "velocity": 0.7874015748031497,
          "duration": 0.04203574374997743
        },
        {
          "name": "D7",
          "midi": 98,
          "time": 286.61910199999875,
          "velocity": 0.7874015748031497,
          "duration": 0.04203574374997743
        },
        {
          "name": "D#7",
          "midi": 99,
          "time": 286.8777834999987,
          "velocity": 0.7874015748031497,
          "duration": 0.04203574374997743
        },
        {
          "name": "D7",
          "midi": 98,
          "time": 287.13538716041535,
          "velocity": 0.7874015748031497,
          "duration": 0.001077839583331297
        },
        {
          "name": "C7",
          "midi": 96,
          "time": 287.65275016041534,
          "velocity": 0.7874015748031497,
          "duration": 0.001077839583331297
        },
        {
          "name": "D7",
          "midi": 98,
          "time": 288.17119099999866,
          "velocity": 0.7874015748031497,
          "duration": 0.04203574374997743
        },
        {
          "name": "C#7",
          "midi": 97,
          "time": 288.4287946604153,
          "velocity": 0.7874015748031497,
          "duration": 0.04203574374997743
        },
        {
          "name": "C7",
          "midi": 96,
          "time": 288.6885539999986,
          "velocity": 0.7874015748031497,
          "duration": 0.04203574374997743
        },
        {
          "name": "D7",
          "midi": 98,
          "time": 288.9461576604152,
          "velocity": 0.7874015748031497,
          "duration": 0.04203574374997743
        },
        {
          "name": "D#7",
          "midi": 99,
          "time": 289.2059169999985,
          "velocity": 0.7874015748031497,
          "duration": 0.04203574374997743
        },
        {
          "name": "C7",
          "midi": 96,
          "time": 289.7232799999985,
          "velocity": 0.7874015748031497,
          "duration": 0.9474209937499722
        },
        {
          "name": "D#7",
          "midi": 99,
          "time": 291.5340504999985,
          "velocity": 0.7874015748031497,
          "duration": 0.04203574374997743
        },
        {
          "name": "D#7",
          "midi": 99,
          "time": 292.05033566041516,
          "velocity": 0.7874015748031497,
          "duration": 0.043113583333308725
        },
        {
          "name": "E7",
          "midi": 100,
          "time": 292.31009499999846,
          "velocity": 0.7874015748031497,
          "duration": 0.04203574374997743
        },
        {
          "name": "D#7",
          "midi": 99,
          "time": 292.5687764999984,
          "velocity": 0.7874015748031497,
          "duration": 0.04203574374997743
        },
        {
          "name": "C#7",
          "midi": 97,
          "time": 292.8274579999984,
          "velocity": 0.7874015748031497,
          "duration": 0.04203574374997743
        },
        {
          "name": "D#7",
          "midi": 99,
          "time": 293.08613949999835,
          "velocity": 0.7874015748031497,
          "duration": 0.04203574374997743
        },
        {
          "name": "E7",
          "midi": 100,
          "time": 293.343743160415,
          "velocity": 0.7874015748031497,
          "duration": 0.043113583333308725
        },
        {
          "name": "D#7",
          "midi": 99,
          "time": 293.6035024999983,
          "velocity": 0.7874015748031497,
          "duration": 0.04203574374997743
        },
        {
          "name": "C#7",
          "midi": 97,
          "time": 293.86218399999825,
          "velocity": 0.7874015748031497,
          "duration": 0.04203574374997743
        },
        {
          "name": "D#7",
          "midi": 99,
          "time": 294.1208654999982,
          "velocity": 0.7874015748031497,
          "duration": 0.04203574374997743
        },
        {
          "name": "E7",
          "midi": 100,
          "time": 294.3795469999982,
          "velocity": 0.7874015748031497,
          "duration": 0.04203574374997743
        },
        {
          "name": "D#7",
          "midi": 99,
          "time": 294.6360728208315,
          "velocity": 0.7874015748031497,
          "duration": 0.043113583333308725
        },
        {
          "name": "D7",
          "midi": 98,
          "time": 294.8969099999981,
          "velocity": 0.7874015748031497,
          "duration": 0.04203574374997743
        },
        {
          "name": "C#7",
          "midi": 97,
          "time": 295.1555914999981,
          "velocity": 0.7874015748031497,
          "duration": 0.04203574374997743
        },
        {
          "name": "C7",
          "midi": 96,
          "time": 295.41427299999805,
          "velocity": 0.7874015748031497,
          "duration": 0.04203574374997743
        },
        {
          "name": "E7",
          "midi": 100,
          "time": 295.93163599999804,
          "velocity": 0.7874015748031497,
          "duration": 0.5162851604166576
        },
        {
          "name": "D#7",
          "midi": 99,
          "time": 296.448998999998,
          "velocity": 0.7874015748031497,
          "duration": 0.04203574374997743
        },
        {
          "name": "D7",
          "midi": 98,
          "time": 296.83594341041464,
          "velocity": 0.7874015748031497,
          "duration": 0.4742494166666802
        },
        {
          "name": "D7",
          "midi": 98,
          "time": 297.74240649999797,
          "velocity": 0.7874015748031497,
          "duration": 0.04203574374997743
        },
        {
          "name": "D#7",
          "midi": 99,
          "time": 298.0000101604146,
          "velocity": 0.7874015748031497,
          "duration": 0.043113583333308725
        },
        {
          "name": "D#7",
          "midi": 99,
          "time": 298.7771324999979,
          "velocity": 0.7874015748031497,
          "duration": 0.043113583333308725
        },
        {
          "name": "E7",
          "midi": 100,
          "time": 299.03581399999786,
          "velocity": 0.7874015748031497,
          "duration": 0.043113583333308725
        },
        {
          "name": "C#7",
          "midi": 97,
          "time": 299.8118584999978,
          "velocity": 0.7874015748031497,
          "duration": 0.043113583333308725
        },
        {
          "name": "D7",
          "midi": 98,
          "time": 300.0705399999978,
          "velocity": 0.7874015748031497,
          "duration": 0.6887394937500062
        },
        {
          "name": "D#7",
          "midi": 99,
          "time": 300.84550666041446,
          "velocity": 0.7874015748031497,
          "duration": 0.043113583333308725
        },
        {
          "name": "C#7",
          "midi": 97,
          "time": 302.1399919999978,
          "velocity": 0.7874015748031497,
          "duration": 0.043113583333308725
        },
        {
          "name": "C7",
          "midi": 96,
          "time": 302.2693327499978,
          "velocity": 0.7874015748031497,
          "duration": 0.043113583333308725
        },
        {
          "name": "C#7",
          "midi": 97,
          "time": 302.6573549999977,
          "velocity": 0.7874015748031497,
          "duration": 0.043113583333308725
        },
        {
          "name": "C7",
          "midi": 96,
          "time": 302.7866957499977,
          "velocity": 0.7874015748031497,
          "duration": 0.043113583333308725
        },
        {
          "name": "C#7",
          "midi": 97,
          "time": 303.17471799999765,
          "velocity": 0.7874015748031497,
          "duration": 0.043113583333308725
        },
        {
          "name": "C7",
          "midi": 96,
          "time": 303.30405874999764,
          "velocity": 0.7874015748031497,
          "duration": 0.043113583333308725
        },
        {
          "name": "C#7",
          "midi": 97,
          "time": 303.6920809999976,
          "velocity": 0.7874015748031497,
          "duration": 0.043113583333308725
        },
        {
          "name": "C7",
          "midi": 96,
          "time": 303.82142174999757,
          "velocity": 0.7874015748031497,
          "duration": 0.043113583333308725
        },
        {
          "name": "C#7",
          "midi": 97,
          "time": 304.2094439999975,
          "velocity": 0.7874015748031497,
          "duration": 0.043113583333308725
        },
        {
          "name": "D7",
          "midi": 98,
          "time": 304.4681254999975,
          "velocity": 0.7874015748031497,
          "duration": 0.043113583333308725
        },
        {
          "name": "D#7",
          "midi": 99,
          "time": 304.72680699999745,
          "velocity": 0.7874015748031497,
          "duration": 0.043113583333308725
        },
        {
          "name": "E7",
          "midi": 100,
          "time": 304.9854884999974,
          "velocity": 0.7874015748031497,
          "duration": 1.076761743750012
        },
        {
          "name": "D7",
          "midi": 98,
          "time": 306.2788959999974,
          "velocity": 0.7874015748031497,
          "duration": 0.043113583333308725
        },
        {
          "name": "C#7",
          "midi": 97,
          "time": 306.5375774999974,
          "velocity": 0.7874015748031497,
          "duration": 0.043113583333308725
        },
        {
          "name": "C7",
          "midi": 96,
          "time": 306.79625899999735,
          "velocity": 0.7874015748031497,
          "duration": 0.7329309166666462
        },
        {
          "name": "C#7",
          "midi": 97,
          "time": 307.8309849999973,
          "velocity": 0.7874015748031497,
          "duration": 0.7749666604166805
        },
        {
          "name": "D#7",
          "midi": 99,
          "time": 307.8309849999973,
          "velocity": 0.7874015748031497,
          "duration": 0.7749666604166805
        },
        {
          "name": "E7",
          "midi": 100,
          "time": 307.8309849999973,
          "velocity": 0.7874015748031497,
          "duration": 0.7749666604166805
        },
        {
          "name": "C#7",
          "midi": 97,
          "time": 308.60702949999734,
          "velocity": 0.7874015748031497,
          "duration": 0.043113583333308725
        },
        {
          "name": "C#7",
          "midi": 97,
          "time": 308.8657109999973,
          "velocity": 0.7874015748031497,
          "duration": 0.04203574374997743
        },
        {
          "name": "D#7",
          "midi": 99,
          "time": 308.8657109999973,
          "velocity": 0.7874015748031497,
          "duration": 0.04203574374997743
        },
        {
          "name": "E7",
          "midi": 100,
          "time": 308.8657109999973,
          "velocity": 0.7874015748031497,
          "duration": 0.04203574374997743
        },
        {
          "name": "C#7",
          "midi": 97,
          "time": 309.12331466041394,
          "velocity": 0.7874015748031497,
          "duration": 0.6477815895833601
        },
        {
          "name": "D#7",
          "midi": 99,
          "time": 309.12331466041394,
          "velocity": 0.7874015748031497,
          "duration": 0.6477815895833601
        },
        {
          "name": "E7",
          "midi": 100,
          "time": 309.12331466041394,
          "velocity": 0.7874015748031497,
          "duration": 0.6477815895833601
        },
        {
          "name": "C#7",
          "midi": 97,
          "time": 309.9004369999973,
          "velocity": 0.7874015748031497,
          "duration": 0.043113583333308725
        },
        {
          "name": "D#7",
          "midi": 99,
          "time": 309.9004369999973,
          "velocity": 0.7874015748031497,
          "duration": 0.043113583333308725
        },
        {
          "name": "E7",
          "midi": 100,
          "time": 309.9004369999973,
          "velocity": 0.7874015748031497,
          "duration": 0.043113583333308725
        },
        {
          "name": "C#7",
          "midi": 97,
          "time": 310.41779999999727,
          "velocity": 0.7874015748031497,
          "duration": 0.5162851604166576
        },
        {
          "name": "D#7",
          "midi": 99,
          "time": 310.41779999999727,
          "velocity": 0.7874015748031497,
          "duration": 0.5162851604166576
        },
        {
          "name": "C#7",
          "midi": 97,
          "time": 310.93516299999726,
          "velocity": 0.7874015748031497,
          "duration": 0.04203574374997743
        },
        {
          "name": "C#7",
          "midi": 97,
          "time": 311.1927666604139,
          "velocity": 0.7874015748031497,
          "duration": 0.043113583333308725
        },
        {
          "name": "D#7",
          "midi": 99,
          "time": 311.1927666604139,
          "velocity": 0.7874015748031497,
          "duration": 0.043113583333308725
        },
        {
          "name": "E7",
          "midi": 100,
          "time": 311.1927666604139,
          "velocity": 0.7874015748031497,
          "duration": 0.043113583333308725
        },
        {
          "name": "C#7",
          "midi": 97,
          "time": 311.4525259999972,
          "velocity": 0.7874015748031497,
          "duration": 0.043113583333308725
        },
        {
          "name": "D#7",
          "midi": 99,
          "time": 311.4525259999972,
          "velocity": 0.7874015748031497,
          "duration": 0.043113583333308725
        },
        {
          "name": "E7",
          "midi": 100,
          "time": 311.4525259999972,
          "velocity": 0.7874015748031497,
          "duration": 0.043113583333308725
        },
        {
          "name": "C#7",
          "midi": 97,
          "time": 311.7101296604138,
          "velocity": 0.7874015748031497,
          "duration": 0.043113583333308725
        },
        {
          "name": "C#7",
          "midi": 97,
          "time": 311.9698889999971,
          "velocity": 0.7874015748031497,
          "duration": 0.043113583333308725
        },
        {
          "name": "D#7",
          "midi": 99,
          "time": 311.9698889999971,
          "velocity": 0.7874015748031497,
          "duration": 0.043113583333308725
        },
        {
          "name": "E7",
          "midi": 100,
          "time": 311.9698889999971,
          "velocity": 0.7874015748031497,
          "duration": 0.043113583333308725
        },
        {
          "name": "C#7",
          "midi": 97,
          "time": 312.22749266041376,
          "velocity": 0.7874015748031497,
          "duration": 0.043113583333308725
        },
        {
          "name": "D#7",
          "midi": 99,
          "time": 312.22749266041376,
          "velocity": 0.7874015748031497,
          "duration": 0.043113583333308725
        },
        {
          "name": "E7",
          "midi": 100,
          "time": 312.22749266041376,
          "velocity": 0.7874015748031497,
          "duration": 0.043113583333308725
        },
        {
          "name": "C#7",
          "midi": 97,
          "time": 312.48725199999706,
          "velocity": 0.7874015748031497,
          "duration": 0.043113583333308725
        },
        {
          "name": "C#7",
          "midi": 97,
          "time": 312.7448556604137,
          "velocity": 0.7874015748031497,
          "duration": 0.043113583333308725
        },
        {
          "name": "C#7",
          "midi": 97,
          "time": 313.004614999997,
          "velocity": 0.7874015748031497,
          "duration": 0.043113583333308725
        },
        {
          "name": "D#7",
          "midi": 99,
          "time": 313.004614999997,
          "velocity": 0.7874015748031497,
          "duration": 0.043113583333308725
        },
        {
          "name": "E7",
          "midi": 100,
          "time": 313.004614999997,
          "velocity": 0.7874015748031497,
          "duration": 0.043113583333308725
        },
        {
          "name": "C#7",
          "midi": 97,
          "time": 313.2622186604136,
          "velocity": 0.7874015748031497,
          "duration": 0.043113583333308725
        },
        {
          "name": "D#7",
          "midi": 99,
          "time": 313.2622186604136,
          "velocity": 0.7874015748031497,
          "duration": 0.043113583333308725
        },
        {
          "name": "E7",
          "midi": 100,
          "time": 313.2622186604136,
          "velocity": 0.7874015748031497,
          "duration": 0.043113583333308725
        },
        {
          "name": "C#7",
          "midi": 97,
          "time": 313.5219779999969,
          "velocity": 0.7874015748031497,
          "duration": 0.043113583333308725
        },
        {
          "name": "C#7",
          "midi": 97,
          "time": 313.77958166041356,
          "velocity": 0.7874015748031497,
          "duration": 0.043113583333308725
        },
        {
          "name": "C#7",
          "midi": 97,
          "time": 314.03934099999685,
          "velocity": 0.7874015748031497,
          "duration": 0.043113583333308725
        },
        {
          "name": "D#7",
          "midi": 99,
          "time": 314.03934099999685,
          "velocity": 0.7874015748031497,
          "duration": 0.043113583333308725
        },
        {
          "name": "E7",
          "midi": 100,
          "time": 314.03934099999685,
          "velocity": 0.7874015748031497,
          "duration": 0.043113583333308725
        },
        {
          "name": "C#7",
          "midi": 97,
          "time": 314.2969446604135,
          "velocity": 0.7874015748031497,
          "duration": 0.043113583333308725
        },
        {
          "name": "D#7",
          "midi": 99,
          "time": 314.2969446604135,
          "velocity": 0.7874015748031497,
          "duration": 0.043113583333308725
        },
        {
          "name": "E7",
          "midi": 100,
          "time": 314.2969446604135,
          "velocity": 0.7874015748031497,
          "duration": 0.043113583333308725
        },
        {
          "name": "C7",
          "midi": 96,
          "time": 314.5567039999968,
          "velocity": 0.7874015748031497,
          "duration": 0.04203574374997743
        },
        {
          "name": "C7",
          "midi": 96,
          "time": 315.0740669999968,
          "velocity": 0.7874015748031497,
          "duration": 0.04203574374997743
        },
        {
          "name": "C#7",
          "midi": 97,
          "time": 315.3316706604134,
          "velocity": 0.7874015748031497,
          "duration": 0.043113583333308725
        },
        {
          "name": "D7",
          "midi": 98,
          "time": 315.5903521604134,
          "velocity": 0.7874015748031497,
          "duration": 0.04419142291664002
        },
        {
          "name": "D#7",
          "midi": 99,
          "time": 316.10771516041336,
          "velocity": 0.7874015748031497,
          "duration": 0.4753272562500115
        },
        {
          "name": "C#7",
          "midi": 97,
          "time": 316.6261559999967,
          "velocity": 0.7874015748031497,
          "duration": 0.043113583333308725
        },
        {
          "name": "C#7",
          "midi": 97,
          "time": 316.88483749999665,
          "velocity": 0.7874015748031497,
          "duration": 0.04203574374997743
        },
        {
          "name": "C#7",
          "midi": 97,
          "time": 317.1435189999966,
          "velocity": 0.7874015748031497,
          "duration": 0.001077839583331297
        },
        {
          "name": "D#7",
          "midi": 99,
          "time": 317.1435189999966,
          "velocity": 0.7874015748031497,
          "duration": 0.001077839583331297
        },
        {
          "name": "E7",
          "midi": 100,
          "time": 317.1435189999966,
          "velocity": 0.7874015748031497,
          "duration": 0.001077839583331297
        },
        {
          "name": "C#7",
          "midi": 97,
          "time": 317.40220049999664,
          "velocity": 0.7874015748031497,
          "duration": 0.3880222500000059
        },
        {
          "name": "D#7",
          "midi": 99,
          "time": 317.40220049999664,
          "velocity": 0.7874015748031497,
          "duration": 0.3880222500000059
        },
        {
          "name": "E7",
          "midi": 100,
          "time": 317.40220049999664,
          "velocity": 0.7874015748031497,
          "duration": 0.3880222500000059
        },
        {
          "name": "C#7",
          "midi": 97,
          "time": 317.9195634999966,
          "velocity": 0.7874015748031497,
          "duration": 0.5162851604166576
        },
        {
          "name": "D#7",
          "midi": 99,
          "time": 317.9195634999966,
          "velocity": 0.7874015748031497,
          "duration": 0.5162851604166576
        },
        {
          "name": "E7",
          "midi": 100,
          "time": 317.9195634999966,
          "velocity": 0.7874015748031497,
          "duration": 0.5162851604166576
        },
        {
          "name": "C#7",
          "midi": 97,
          "time": 318.4369264999966,
          "velocity": 0.7874015748031497,
          "duration": 0.043113583333308725
        },
        {
          "name": "D#7",
          "midi": 99,
          "time": 318.4369264999966,
          "velocity": 0.7874015748031497,
          "duration": 0.043113583333308725
        },
        {
          "name": "E7",
          "midi": 100,
          "time": 318.4369264999966,
          "velocity": 0.7874015748031497,
          "duration": 0.043113583333308725
        },
        {
          "name": "C#7",
          "midi": 97,
          "time": 318.6956079999966,
          "velocity": 0.7874015748031497,
          "duration": 0.3880222500000059
        },
        {
          "name": "D#7",
          "midi": 99,
          "time": 318.6956079999966,
          "velocity": 0.7874015748031497,
          "duration": 0.3880222500000059
        },
        {
          "name": "E7",
          "midi": 100,
          "time": 318.6956079999966,
          "velocity": 0.7874015748031497,
          "duration": 0.3880222500000059
        },
        {
          "name": "D7",
          "midi": 98,
          "time": 319.21297099999657,
          "velocity": 0.7874015748031497,
          "duration": 0.001077839583331297
        },
        {
          "name": "D#7",
          "midi": 99,
          "time": 319.21297099999657,
          "velocity": 0.7874015748031497,
          "duration": 0.001077839583331297
        },
        {
          "name": "C#7",
          "midi": 97,
          "time": 319.73033399999656,
          "velocity": 0.7874015748031497,
          "duration": 0.043113583333308725
        },
        {
          "name": "C#7",
          "midi": 97,
          "time": 320.24769699999655,
          "velocity": 0.7874015748031497,
          "duration": 0.3880222500000059
        },
        {
          "name": "D#7",
          "midi": 99,
          "time": 320.24769699999655,
          "velocity": 0.7874015748031497,
          "duration": 0.3880222500000059
        },
        {
          "name": "C#7",
          "midi": 97,
          "time": 320.76505999999654,
          "velocity": 0.7874015748031497,
          "duration": 0.043113583333308725
        },
        {
          "name": "C#7",
          "midi": 97,
          "time": 321.0237414999965,
          "velocity": 0.7874015748031497,
          "duration": 0.04203574374997743
        },
        {
          "name": "D#7",
          "midi": 99,
          "time": 321.0237414999965,
          "velocity": 0.7874015748031497,
          "duration": 0.04203574374997743
        },
        {
          "name": "E7",
          "midi": 100,
          "time": 321.0237414999965,
          "velocity": 0.7874015748031497,
          "duration": 0.04203574374997743
        },
        {
          "name": "C#7",
          "midi": 97,
          "time": 321.28242299999647,
          "velocity": 0.7874015748031497,
          "duration": 0.04203574374997743
        },
        {
          "name": "D#7",
          "midi": 99,
          "time": 321.28242299999647,
          "velocity": 0.7874015748031497,
          "duration": 0.04203574374997743
        },
        {
          "name": "E7",
          "midi": 100,
          "time": 321.28242299999647,
          "velocity": 0.7874015748031497,
          "duration": 0.04203574374997743
        },
        {
          "name": "C#7",
          "midi": 97,
          "time": 321.54110449999644,
          "velocity": 0.7874015748031497,
          "duration": 0.04203574374997743
        },
        {
          "name": "D#7",
          "midi": 99,
          "time": 321.54110449999644,
          "velocity": 0.7874015748031497,
          "duration": 0.04203574374997743
        },
        {
          "name": "E7",
          "midi": 100,
          "time": 321.54110449999644,
          "velocity": 0.7874015748031497,
          "duration": 0.04203574374997743
        },
        {
          "name": "D7",
          "midi": 98,
          "time": 321.7997859999964,
          "velocity": 0.7874015748031497,
          "duration": 0.6035901666666632
        },
        {
          "name": "D#7",
          "midi": 99,
          "time": 321.7997859999964,
          "velocity": 0.7874015748031497,
          "duration": 0.6035901666666632
        },
        {
          "name": "E7",
          "midi": 100,
          "time": 321.7997859999964,
          "velocity": 0.7874015748031497,
          "duration": 0.6035901666666632
        },
        {
          "name": "D7",
          "midi": 98,
          "time": 322.5747526604131,
          "velocity": 0.7874015748031497,
          "duration": 0.04203574374997743
        },
        {
          "name": "D#7",
          "midi": 99,
          "time": 322.5747526604131,
          "velocity": 0.7874015748031497,
          "duration": 0.04203574374997743
        },
        {
          "name": "E7",
          "midi": 100,
          "time": 322.5747526604131,
          "velocity": 0.7874015748031497,
          "duration": 0.04203574374997743
        },
        {
          "name": "C7",
          "midi": 96,
          "time": 322.8323563208297,
          "velocity": 0.7874015748031497,
          "duration": 0.04419142291664002
        },
        {
          "name": "C7",
          "midi": 96,
          "time": 323.35187499999637,
          "velocity": 0.7874015748031497,
          "duration": 0.043113583333308725
        },
        {
          "name": "C#7",
          "midi": 97,
          "time": 323.609478660413,
          "velocity": 0.7874015748031497,
          "duration": 0.04419142291664002
        },
        {
          "name": "D7",
          "midi": 98,
          "time": 323.8692379999963,
          "velocity": 0.7874015748031497,
          "duration": 0.043113583333308725
        },
        {
          "name": "D#7",
          "midi": 99,
          "time": 324.3866009999963,
          "velocity": 0.7874015748031497,
          "duration": 0.4742494166666802
        },
        {
          "name": "C#7",
          "midi": 97,
          "time": 324.9039639999963,
          "velocity": 0.7874015748031497,
          "duration": 0.04095790416664613
        },
        {
          "name": "C#7",
          "midi": 97,
          "time": 325.1615676604129,
          "velocity": 0.7874015748031497,
          "duration": 0.043113583333308725
        },
        {
          "name": "C#7",
          "midi": 97,
          "time": 325.4213269999962,
          "velocity": 0.7874015748031497,
          "duration": 0.001077839583331297
        },
        {
          "name": "D#7",
          "midi": 99,
          "time": 325.4213269999962,
          "velocity": 0.7874015748031497,
          "duration": 0.001077839583331297
        },
        {
          "name": "E7",
          "midi": 100,
          "time": 325.4213269999962,
          "velocity": 0.7874015748031497,
          "duration": 0.001077839583331297
        },
        {
          "name": "C#7",
          "midi": 97,
          "time": 325.68000849999623,
          "velocity": 0.7874015748031497,
          "duration": 0.3880222500000059
        },
        {
          "name": "D#7",
          "midi": 99,
          "time": 325.68000849999623,
          "velocity": 0.7874015748031497,
          "duration": 0.3880222500000059
        },
        {
          "name": "E7",
          "midi": 100,
          "time": 325.68000849999623,
          "velocity": 0.7874015748031497,
          "duration": 0.3880222500000059
        },
        {
          "name": "C#7",
          "midi": 97,
          "time": 326.1962936604129,
          "velocity": 0.7874015748031497,
          "duration": 0.04419142291664002
        },
        {
          "name": "D#7",
          "midi": 99,
          "time": 326.1962936604129,
          "velocity": 0.7874015748031497,
          "duration": 0.04419142291664002
        },
        {
          "name": "E7",
          "midi": 100,
          "time": 326.1962936604129,
          "velocity": 0.7874015748031497,
          "duration": 0.04419142291664002
        },
        {
          "name": "C#7",
          "midi": 97,
          "time": 326.45497516041286,
          "velocity": 0.7874015748031497,
          "duration": 0.04095790416664613
        },
        {
          "name": "D#7",
          "midi": 99,
          "time": 326.45497516041286,
          "velocity": 0.7874015748031497,
          "duration": 0.04095790416664613
        },
        {
          "name": "E7",
          "midi": 100,
          "time": 326.45497516041286,
          "velocity": 0.7874015748031497,
          "duration": 0.04095790416664613
        },
        {
          "name": "C#7",
          "midi": 97,
          "time": 326.71473449999615,
          "velocity": 0.7874015748031497,
          "duration": 0.043113583333308725
        },
        {
          "name": "C#7",
          "midi": 97,
          "time": 326.9734159999961,
          "velocity": 0.7874015748031497,
          "duration": 0.3869444104166746
        },
        {
          "name": "D#7",
          "midi": 99,
          "time": 326.9734159999961,
          "velocity": 0.7874015748031497,
          "duration": 0.3869444104166746
        },
        {
          "name": "E7",
          "midi": 100,
          "time": 326.9734159999961,
          "velocity": 0.7874015748031497,
          "duration": 0.3869444104166746
        },
        {
          "name": "D7",
          "midi": 98,
          "time": 327.4907789999961,
          "velocity": 0.7874015748031497,
          "duration": 0.001077839583331297
        },
        {
          "name": "D#7",
          "midi": 99,
          "time": 327.4907789999961,
          "velocity": 0.7874015748031497,
          "duration": 0.001077839583331297
        },
        {
          "name": "C#7",
          "midi": 97,
          "time": 328.0081419999961,
          "velocity": 0.7874015748031497,
          "duration": 0.043113583333308725
        },
        {
          "name": "C#7",
          "midi": 97,
          "time": 328.52442716041276,
          "velocity": 0.7874015748031497,
          "duration": 0.6046680062499945
        },
        {
          "name": "D#7",
          "midi": 99,
          "time": 328.52442716041276,
          "velocity": 0.7874015748031497,
          "duration": 0.6046680062499945
        },
        {
          "name": "C#7",
          "midi": 97,
          "time": 329.30047166041277,
          "velocity": 0.7874015748031497,
          "duration": 0.04419142291664002
        },
        {
          "name": "D#7",
          "midi": 99,
          "time": 329.30047166041277,
          "velocity": 0.7874015748031497,
          "duration": 0.04419142291664002
        },
        {
          "name": "E7",
          "midi": 100,
          "time": 329.30047166041277,
          "velocity": 0.7874015748031497,
          "duration": 0.04419142291664002
        },
        {
          "name": "C#7",
          "midi": 97,
          "time": 329.56023099999607,
          "velocity": 0.7874015748031497,
          "duration": 0.04095790416664613
        },
        {
          "name": "D#7",
          "midi": 99,
          "time": 329.56023099999607,
          "velocity": 0.7874015748031497,
          "duration": 0.04095790416664613
        },
        {
          "name": "E7",
          "midi": 100,
          "time": 329.56023099999607,
          "velocity": 0.7874015748031497,
          "duration": 0.04095790416664613
        },
        {
          "name": "C#7",
          "midi": 97,
          "time": 329.81891249999603,
          "velocity": 0.7874015748031497,
          "duration": 0.043113583333308725
        },
        {
          "name": "C#7",
          "midi": 97,
          "time": 330.077593999996,
          "velocity": 0.7874015748031497,
          "duration": 0.6456259104166406
        },
        {
          "name": "D#7",
          "midi": 99,
          "time": 330.077593999996,
          "velocity": 0.7874015748031497,
          "duration": 0.6456259104166406
        },
        {
          "name": "E7",
          "midi": 100,
          "time": 330.077593999996,
          "velocity": 0.7874015748031497,
          "duration": 0.6456259104166406
        },
        {
          "name": "C#7",
          "midi": 97,
          "time": 330.85040498124596,
          "velocity": 0.7874015748031497,
          "duration": 0.04203574374997743
        },
        {
          "name": "D#7",
          "midi": 99,
          "time": 330.85040498124596,
          "velocity": 0.7874015748031497,
          "duration": 0.04203574374997743
        },
        {
          "name": "E7",
          "midi": 100,
          "time": 330.85040498124596,
          "velocity": 0.7874015748031497,
          "duration": 0.04203574374997743
        },
        {
          "name": "C7",
          "midi": 96,
          "time": 331.1112421604126,
          "velocity": 0.7874015748031497,
          "duration": 0.043113583333308725
        },
        {
          "name": "C7",
          "midi": 96,
          "time": 331.6286051604126,
          "velocity": 0.7874015748031497,
          "duration": 0.04419142291664002
        },
        {
          "name": "C#7",
          "midi": 97,
          "time": 331.8862088208292,
          "velocity": 0.7874015748031497,
          "duration": 0.04419142291664002
        },
        {
          "name": "D7",
          "midi": 98,
          "time": 332.1459681604125,
          "velocity": 0.7874015748031497,
          "duration": 0.04419142291664002
        },
        {
          "name": "D#7",
          "midi": 99,
          "time": 332.6644089999958,
          "velocity": 0.7874015748031497,
          "duration": 0.4742494166666802
        },
        {
          "name": "C#7",
          "midi": 97,
          "time": 333.1817719999958,
          "velocity": 0.7874015748031497,
          "duration": 0.04203574374997743
        },
        {
          "name": "C#7",
          "midi": 97,
          "time": 333.43937566041245,
          "velocity": 0.7874015748031497,
          "duration": 0.043113583333308725
        },
        {
          "name": "C#7",
          "midi": 97,
          "time": 333.69913499999575,
          "velocity": 0.7874015748031497,
          "duration": 0.001077839583331297
        },
        {
          "name": "D#7",
          "midi": 99,
          "time": 333.69913499999575,
          "velocity": 0.7874015748031497,
          "duration": 0.001077839583331297
        },
        {
          "name": "E7",
          "midi": 100,
          "time": 333.69913499999575,
          "velocity": 0.7874015748031497,
          "duration": 0.001077839583331297
        },
        {
          "name": "C#7",
          "midi": 97,
          "time": 333.9578164999958,
          "velocity": 0.7874015748031497,
          "duration": 0.3880222500000059
        },
        {
          "name": "D#7",
          "midi": 99,
          "time": 333.9578164999958,
          "velocity": 0.7874015748031497,
          "duration": 0.3880222500000059
        },
        {
          "name": "E7",
          "midi": 100,
          "time": 333.9578164999958,
          "velocity": 0.7874015748031497,
          "duration": 0.3880222500000059
        },
        {
          "name": "C#7",
          "midi": 97,
          "time": 334.4730238208291,
          "velocity": 0.7874015748031497,
          "duration": 0.04526926250002816
        },
        {
          "name": "D#7",
          "midi": 99,
          "time": 334.4730238208291,
          "velocity": 0.7874015748031497,
          "duration": 0.04526926250002816
        },
        {
          "name": "E7",
          "midi": 100,
          "time": 334.4730238208291,
          "velocity": 0.7874015748031497,
          "duration": 0.04526926250002816
        },
        {
          "name": "C#7",
          "midi": 97,
          "time": 334.7338609999958,
          "velocity": 0.7874015748031497,
          "duration": 0.4300579937499833
        },
        {
          "name": "D#7",
          "midi": 99,
          "time": 334.7338609999958,
          "velocity": 0.7874015748031497,
          "duration": 0.4300579937499833
        },
        {
          "name": "E7",
          "midi": 100,
          "time": 334.7338609999958,
          "velocity": 0.7874015748031497,
          "duration": 0.4300579937499833
        },
        {
          "name": "D#7",
          "midi": 99,
          "time": 335.2512239999958,
          "velocity": 0.7874015748031497,
          "duration": 0.001077839583331297
        },
        {
          "name": "D7",
          "midi": 98,
          "time": 335.76750916041243,
          "velocity": 0.7874015748031497,
          "duration": 0.001077839583331297
        },
        {
          "name": "C#7",
          "midi": 97,
          "time": 336.28594999999575,
          "velocity": 0.7874015748031497,
          "duration": 0.043113583333308725
        },
        {
          "name": "C7",
          "midi": 96,
          "time": 336.8022351604124,
          "velocity": 0.7874015748031497,
          "duration": 0.4742494166666802
        },
        {
          "name": "C#7",
          "midi": 97,
          "time": 336.8022351604124,
          "velocity": 0.7874015748031497,
          "duration": 0.4742494166666802
        },
        {
          "name": "C#7",
          "midi": 97,
          "time": 337.32067599999573,
          "velocity": 0.7874015748031497,
          "duration": 0.043113583333308725
        },
        {
          "name": "C#7",
          "midi": 97,
          "time": 337.57827966041236,
          "velocity": 0.7874015748031497,
          "duration": 0.043113583333308725
        },
        {
          "name": "C#7",
          "midi": 97,
          "time": 337.835883320829,
          "velocity": 0.7874015748031497,
          "duration": 0.04419142291664002
        },
        {
          "name": "D#7",
          "midi": 99,
          "time": 337.835883320829,
          "velocity": 0.7874015748031497,
          "duration": 0.04419142291664002
        },
        {
          "name": "E7",
          "midi": 100,
          "time": 337.835883320829,
          "velocity": 0.7874015748031497,
          "duration": 0.04419142291664002
        },
        {
          "name": "C#7",
          "midi": 97,
          "time": 338.0967204999956,
          "velocity": 0.7874015748031497,
          "duration": 0.04203574374997743
        },
        {
          "name": "D#7",
          "midi": 99,
          "time": 338.0967204999956,
          "velocity": 0.7874015748031497,
          "duration": 0.04203574374997743
        },
        {
          "name": "E7",
          "midi": 100,
          "time": 338.0967204999956,
          "velocity": 0.7874015748031497,
          "duration": 0.04203574374997743
        },
        {
          "name": "C7",
          "midi": 96,
          "time": 338.3554019999956,
          "velocity": 0.7874015748031497,
          "duration": 0.6025123270833319
        },
        {
          "name": "C#7",
          "midi": 97,
          "time": 338.3554019999956,
          "velocity": 0.7874015748031497,
          "duration": 0.6025123270833319
        },
        {
          "name": "C#7",
          "midi": 97,
          "time": 339.1303686604123,
          "velocity": 0.7874015748031497,
          "duration": 0.04203574374997743
        },
        {
          "name": "D#7",
          "midi": 99,
          "time": 339.1303686604123,
          "velocity": 0.7874015748031497,
          "duration": 0.04203574374997743
        },
        {
          "name": "E7",
          "midi": 100,
          "time": 339.1303686604123,
          "velocity": 0.7874015748031497,
          "duration": 0.04203574374997743
        },
        {
          "name": "C#7",
          "midi": 97,
          "time": 339.39012799999557,
          "velocity": 0.7874015748031497,
          "duration": 0.04095790416664613
        },
        {
          "name": "D#7",
          "midi": 99,
          "time": 339.39012799999557,
          "velocity": 0.7874015748031497,
          "duration": 0.04095790416664613
        },
        {
          "name": "E7",
          "midi": 100,
          "time": 339.39012799999557,
          "velocity": 0.7874015748031497,
          "duration": 0.04095790416664613
        },
        {
          "name": "C7",
          "midi": 96,
          "time": 339.90749099999556,
          "velocity": 0.7874015748031497,
          "duration": 0.043113583333308725
        },
        {
          "name": "C#7",
          "midi": 97,
          "time": 340.1650946604122,
          "velocity": 0.7874015748031497,
          "duration": 0.04419142291664002
        },
        {
          "name": "D7",
          "midi": 98,
          "time": 340.4248539999955,
          "velocity": 0.7874015748031497,
          "duration": 0.043113583333308725
        },
        {
          "name": "D#7",
          "midi": 99,
          "time": 340.9422169999955,
          "velocity": 0.7874015748031497,
          "duration": 0.4742494166666802
        },
        {
          "name": "C#7",
          "midi": 97,
          "time": 341.45957999999547,
          "velocity": 0.7874015748031497,
          "duration": 0.04095790416664613
        },
        {
          "name": "C#7",
          "midi": 97,
          "time": 341.7171836604121,
          "velocity": 0.7874015748031497,
          "duration": 0.04203574374997743
        },
        {
          "name": "C#7",
          "midi": 97,
          "time": 341.9769429999954,
          "velocity": 0.7874015748031497,
          "duration": 0.001077839583331297
        },
        {
          "name": "D#7",
          "midi": 99,
          "time": 341.9769429999954,
          "velocity": 0.7874015748031497,
          "duration": 0.001077839583331297
        },
        {
          "name": "E7",
          "midi": 100,
          "time": 341.9769429999954,
          "velocity": 0.7874015748031497,
          "duration": 0.001077839583331297
        },
        {
          "name": "C#7",
          "midi": 97,
          "time": 342.2356244999954,
          "velocity": 0.7874015748031497,
          "duration": 0.3880222500000059
        },
        {
          "name": "D#7",
          "midi": 99,
          "time": 342.2356244999954,
          "velocity": 0.7874015748031497,
          "duration": 0.3880222500000059
        },
        {
          "name": "E7",
          "midi": 100,
          "time": 342.2356244999954,
          "velocity": 0.7874015748031497,
          "duration": 0.3880222500000059
        },
        {
          "name": "C#7",
          "midi": 97,
          "time": 342.7519096604121,
          "velocity": 0.7874015748031497,
          "duration": 0.043113583333308725
        },
        {
          "name": "D#7",
          "midi": 99,
          "time": 342.7519096604121,
          "velocity": 0.7874015748031497,
          "duration": 0.043113583333308725
        },
        {
          "name": "E7",
          "midi": 100,
          "time": 342.7519096604121,
          "velocity": 0.7874015748031497,
          "duration": 0.043113583333308725
        },
        {
          "name": "C#7",
          "midi": 97,
          "time": 343.0116689999954,
          "velocity": 0.7874015748031497,
          "duration": 0.04095790416664613
        },
        {
          "name": "D#7",
          "midi": 99,
          "time": 343.0116689999954,
          "velocity": 0.7874015748031497,
          "duration": 0.04095790416664613
        },
        {
          "name": "E7",
          "midi": 100,
          "time": 343.0116689999954,
          "velocity": 0.7874015748031497,
          "duration": 0.04095790416664613
        },
        {
          "name": "C#7",
          "midi": 97,
          "time": 343.27035049999535,
          "velocity": 0.7874015748031497,
          "duration": 0.04203574374997743
        },
        {
          "name": "D#7",
          "midi": 99,
          "time": 343.5290319999953,
          "velocity": 0.7874015748031497,
          "duration": 0.001077839583331297
        },
        {
          "name": "D7",
          "midi": 98,
          "time": 344.0463949999953,
          "velocity": 0.7874015748031497,
          "duration": 0.001077839583331297
        },
        {
          "name": "C#7",
          "midi": 97,
          "time": 344.5637579999953,
          "velocity": 0.7874015748031497,
          "duration": 0.043113583333308725
        },
        {
          "name": "C7",
          "midi": 96,
          "time": 345.0811209999953,
          "velocity": 0.7874015748031497,
          "duration": 0.4742494166666802
        },
        {
          "name": "C#7",
          "midi": 97,
          "time": 345.0811209999953,
          "velocity": 0.7874015748031497,
          "duration": 0.4742494166666802
        }
      ],
      "controlChanges": {},
      "id": 2,
      "name": "PART GUITAR",
      "channelNumber": 0,
      "isPercussion": false
    },
    {
      "startTime": 124.16712000000001,
      "duration": 345.082198839581,
      "length": 833,
      "notes": [
        {
          "name": "D#8",
          "midi": 111,
          "time": 124.16712000000001,
          "velocity": 0.7874015748031497,
          "duration": 0.001077839583331297
        },
        {
          "name": "D8",
          "midi": 110,
          "time": 124.16712000000001,
          "velocity": 0.7874015748031497,
          "duration": 0.001077839583331297
        },
        {
          "name": "D7",
          "midi": 98,
          "time": 124.16712000000001,
          "velocity": 0.7874015748031497,
          "duration": 0.001077839583331297
        },
        {
          "name": "D#7",
          "midi": 99,
          "time": 124.16712000000001,
          "velocity": 0.7874015748031497,
          "duration": 0.001077839583331297
        },
        {
          "name": "D#8",
          "midi": 111,
          "time": 124.94316450000001,
          "velocity": 0.7874015748031497,
          "duration": 0.001077839583331297
        },
        {
          "name": "D#7",
          "midi": 99,
          "time": 124.94316450000001,
          "velocity": 0.7874015748031497,
          "duration": 0.001077839583331297
        },
        {
          "name": "D#8",
          "midi": 111,
          "time": 125.201846,
          "velocity": 0.7874015748031497,
          "duration": 0.001077839583331297
        },
        {
          "name": "D#7",
          "midi": 99,
          "time": 125.201846,
          "velocity": 0.7874015748031497,
          "duration": 0.001077839583331297
        },
        {
          "name": "C7",
          "midi": 96,
          "time": 125.719209,
          "velocity": 0.7874015748031497,
          "duration": 0.001077839583331297
        },
        {
          "name": "E7",
          "midi": 100,
          "time": 125.719209,
          "velocity": 0.7874015748031497,
          "duration": 0.001077839583331297
        },
        {
          "name": "D#7",
          "midi": 99,
          "time": 126.23657200000001,
          "velocity": 0.7874015748031497,
          "duration": 0.001077839583331297
        },
        {
          "name": "C#7",
          "midi": 97,
          "time": 126.75393500000001,
          "velocity": 0.7874015748031497,
          "duration": 0.001077839583331297
        },
        {
          "name": "D#7",
          "midi": 99,
          "time": 126.75393500000001,
          "velocity": 0.7874015748031497,
          "duration": 0.001077839583331297
        },
        {
          "name": "D#7",
          "midi": 99,
          "time": 127.27129800000002,
          "velocity": 0.7874015748031497,
          "duration": 0.001077839583331297
        },
        {
          "name": "C7",
          "midi": 96,
          "time": 127.52997950000001,
          "velocity": 0.7874015748031497,
          "duration": 0.001077839583331297
        },
        {
          "name": "C7",
          "midi": 96,
          "time": 127.788661,
          "velocity": 0.7874015748031497,
          "duration": 0.001077839583331297
        },
        {
          "name": "D#7",
          "midi": 99,
          "time": 127.788661,
          "velocity": 0.7874015748031497,
          "duration": 0.001077839583331297
        },
        {
          "name": "D#7",
          "midi": 99,
          "time": 128.306024,
          "velocity": 0.7874015748031497,
          "duration": 0.001077839583331297
        },
        {
          "name": "C7",
          "midi": 96,
          "time": 128.5647055,
          "velocity": 0.7874015748031497,
          "duration": 0.001077839583331297
        },
        {
          "name": "C#7",
          "midi": 97,
          "time": 128.823387,
          "velocity": 0.7874015748031497,
          "duration": 0.001077839583331297
        },
        {
          "name": "E7",
          "midi": 100,
          "time": 128.823387,
          "velocity": 0.7874015748031497,
          "duration": 0.001077839583331297
        },
        {
          "name": "D8",
          "midi": 110,
          "time": 129.0820685,
          "velocity": 0.7874015748031497,
          "duration": 0.001077839583331297
        },
        {
          "name": "D7",
          "midi": 98,
          "time": 129.0820685,
          "velocity": 0.7874015748031497,
          "duration": 0.001077839583331297
        },
        {
          "name": "D8",
          "midi": 110,
          "time": 129.59943149999998,
          "velocity": 0.7874015748031497,
          "duration": 0.001077839583331297
        },
        {
          "name": "D7",
          "midi": 98,
          "time": 129.59943149999998,
          "velocity": 0.7874015748031497,
          "duration": 0.001077839583331297
        },
        {
          "name": "C7",
          "midi": 96,
          "time": 129.85811299999997,
          "velocity": 0.7874015748031497,
          "duration": 0.001077839583331297
        },
        {
          "name": "E7",
          "midi": 100,
          "time": 129.85811299999997,
          "velocity": 0.7874015748031497,
          "duration": 0.001077839583331297
        },
        {
          "name": "D#7",
          "midi": 99,
          "time": 130.37547599999996,
          "velocity": 0.7874015748031497,
          "duration": 0.001077839583331297
        },
        {
          "name": "C7",
          "midi": 96,
          "time": 130.63415749999996,
          "velocity": 0.7874015748031497,
          "duration": 0.001077839583331297
        },
        {
          "name": "C#7",
          "midi": 97,
          "time": 130.89283899999995,
          "velocity": 0.7874015748031497,
          "duration": 0.001077839583331297
        },
        {
          "name": "D#7",
          "midi": 99,
          "time": 130.89283899999995,
          "velocity": 0.7874015748031497,
          "duration": 0.001077839583331297
        },
        {
          "name": "D#7",
          "midi": 99,
          "time": 131.41020199999994,
          "velocity": 0.7874015748031497,
          "duration": 0.001077839583331297
        },
        {
          "name": "C7",
          "midi": 96,
          "time": 131.6678056604166,
          "velocity": 0.7874015748031497,
          "duration": 0.001077839583331297
        },
        {
          "name": "C7",
          "midi": 96,
          "time": 131.92756499999993,
          "velocity": 0.7874015748031497,
          "duration": 0.001077839583331297
        },
        {
          "name": "D#7",
          "midi": 99,
          "time": 131.92756499999993,
          "velocity": 0.7874015748031497,
          "duration": 0.001077839583331297
        },
        {
          "name": "D#7",
          "midi": 99,
          "time": 132.44492799999992,
          "velocity": 0.7874015748031497,
          "duration": 0.001077839583331297
        },
        {
          "name": "C#7",
          "midi": 97,
          "time": 132.9622909999999,
          "velocity": 0.7874015748031497,
          "duration": 0.001077839583331297
        },
        {
          "name": "D#7",
          "midi": 99,
          "time": 132.9622909999999,
          "velocity": 0.7874015748031497,
          "duration": 0.001077839583331297
        },
        {
          "name": "D#7",
          "midi": 99,
          "time": 133.4796539999999,
          "velocity": 0.7874015748031497,
          "duration": 0.001077839583331297
        },
        {
          "name": "C7",
          "midi": 96,
          "time": 133.7383354999999,
          "velocity": 0.7874015748031497,
          "duration": 0.001077839583331297
        },
        {
          "name": "C7",
          "midi": 96,
          "time": 133.9970169999999,
          "velocity": 0.7874015748031497,
          "duration": 0.001077839583331297
        },
        {
          "name": "E7",
          "midi": 100,
          "time": 133.9970169999999,
          "velocity": 0.7874015748031497,
          "duration": 0.001077839583331297
        },
        {
          "name": "D#7",
          "midi": 99,
          "time": 134.51437999999987,
          "velocity": 0.7874015748031497,
          "duration": 0.001077839583331297
        },
        {
          "name": "C7",
          "midi": 96,
          "time": 134.77306149999987,
          "velocity": 0.7874015748031497,
          "duration": 0.001077839583331297
        },
        {
          "name": "C#7",
          "midi": 97,
          "time": 135.03174299999986,
          "velocity": 0.7874015748031497,
          "duration": 0.001077839583331297
        },
        {
          "name": "D#7",
          "midi": 99,
          "time": 135.03174299999986,
          "velocity": 0.7874015748031497,
          "duration": 0.001077839583331297
        },
        {
          "name": "D#7",
          "midi": 99,
          "time": 135.54910599999985,
          "velocity": 0.7874015748031497,
          "duration": 0.001077839583331297
        },
        {
          "name": "C7",
          "midi": 96,
          "time": 135.80778749999985,
          "velocity": 0.7874015748031497,
          "duration": 0.001077839583331297
        },
        {
          "name": "C7",
          "midi": 96,
          "time": 136.06646899999984,
          "velocity": 0.7874015748031497,
          "duration": 0.001077839583331297
        },
        {
          "name": "D#7",
          "midi": 99,
          "time": 136.06646899999984,
          "velocity": 0.7874015748031497,
          "duration": 0.001077839583331297
        },
        {
          "name": "C7",
          "midi": 96,
          "time": 136.58383199999983,
          "velocity": 0.7874015748031497,
          "duration": 0.001077839583331297
        },
        {
          "name": "D#7",
          "midi": 99,
          "time": 136.58383199999983,
          "velocity": 0.7874015748031497,
          "duration": 0.001077839583331297
        },
        {
          "name": "C#7",
          "midi": 97,
          "time": 137.10119499999982,
          "velocity": 0.7874015748031497,
          "duration": 0.001077839583331297
        },
        {
          "name": "D#7",
          "midi": 99,
          "time": 137.10119499999982,
          "velocity": 0.7874015748031497,
          "duration": 0.001077839583331297
        },
        {
          "name": "D#7",
          "midi": 99,
          "time": 137.6185579999998,
          "velocity": 0.7874015748031497,
          "duration": 0.001077839583331297
        },
        {
          "name": "C7",
          "midi": 96,
          "time": 138.1359209999998,
          "velocity": 0.7874015748031497,
          "duration": 0.001077839583331297
        },
        {
          "name": "E7",
          "midi": 100,
          "time": 138.1359209999998,
          "velocity": 0.7874015748031497,
          "duration": 0.001077839583331297
        },
        {
          "name": "D#7",
          "midi": 99,
          "time": 138.6532839999998,
          "velocity": 0.7874015748031497,
          "duration": 0.001077839583331297
        },
        {
          "name": "C7",
          "midi": 96,
          "time": 139.17064699999978,
          "velocity": 0.7874015748031497,
          "duration": 0.001077839583331297
        },
        {
          "name": "C#7",
          "midi": 97,
          "time": 139.17064699999978,
          "velocity": 0.7874015748031497,
          "duration": 0.001077839583331297
        },
        {
          "name": "D#7",
          "midi": 99,
          "time": 139.17064699999978,
          "velocity": 0.7874015748031497,
          "duration": 0.001077839583331297
        },
        {
          "name": "D#7",
          "midi": 99,
          "time": 139.68800999999976,
          "velocity": 0.7874015748031497,
          "duration": 0.001077839583331297
        },
        {
          "name": "C7",
          "midi": 96,
          "time": 139.94669149999976,
          "velocity": 0.7874015748031497,
          "duration": 0.001077839583331297
        },
        {
          "name": "C7",
          "midi": 96,
          "time": 140.20537299999975,
          "velocity": 0.7874015748031497,
          "duration": 0.001077839583331297
        },
        {
          "name": "D#7",
          "midi": 99,
          "time": 140.20537299999975,
          "velocity": 0.7874015748031497,
          "duration": 0.001077839583331297
        },
        {
          "name": "C7",
          "midi": 96,
          "time": 140.72273599999974,
          "velocity": 0.7874015748031497,
          "duration": 0.001077839583331297
        },
        {
          "name": "D#7",
          "midi": 99,
          "time": 140.72273599999974,
          "velocity": 0.7874015748031497,
          "duration": 0.001077839583331297
        },
        {
          "name": "C#7",
          "midi": 97,
          "time": 141.24009899999973,
          "velocity": 0.7874015748031497,
          "duration": 0.001077839583331297
        },
        {
          "name": "E7",
          "midi": 100,
          "time": 141.24009899999973,
          "velocity": 0.7874015748031497,
          "duration": 0.001077839583331297
        },
        {
          "name": "D#8",
          "midi": 111,
          "time": 141.75746199999972,
          "velocity": 0.7874015748031497,
          "duration": 0.001077839583331297
        },
        {
          "name": "D#7",
          "midi": 99,
          "time": 141.75746199999972,
          "velocity": 0.7874015748031497,
          "duration": 0.001077839583331297
        },
        {
          "name": "C7",
          "midi": 96,
          "time": 142.2748249999997,
          "velocity": 0.7874015748031497,
          "duration": 0.001077839583331297
        },
        {
          "name": "E7",
          "midi": 100,
          "time": 142.2748249999997,
          "velocity": 0.7874015748031497,
          "duration": 0.001077839583331297
        },
        {
          "name": "D#7",
          "midi": 99,
          "time": 142.7921879999997,
          "velocity": 0.7874015748031497,
          "duration": 0.001077839583331297
        },
        {
          "name": "C#7",
          "midi": 97,
          "time": 143.3095509999997,
          "velocity": 0.7874015748031497,
          "duration": 0.001077839583331297
        },
        {
          "name": "D#7",
          "midi": 99,
          "time": 143.3095509999997,
          "velocity": 0.7874015748031497,
          "duration": 0.001077839583331297
        },
        {
          "name": "D#7",
          "midi": 99,
          "time": 143.82691399999968,
          "velocity": 0.7874015748031497,
          "duration": 0.001077839583331297
        },
        {
          "name": "C7",
          "midi": 96,
          "time": 144.08451766041634,
          "velocity": 0.7874015748031497,
          "duration": 0.001077839583331297
        },
        {
          "name": "C7",
          "midi": 96,
          "time": 144.34427699999966,
          "velocity": 0.7874015748031497,
          "duration": 0.001077839583331297
        },
        {
          "name": "D#7",
          "midi": 99,
          "time": 144.34427699999966,
          "velocity": 0.7874015748031497,
          "duration": 0.001077839583331297
        },
        {
          "name": "D8",
          "midi": 110,
          "time": 144.86163999999965,
          "velocity": 0.7874015748031497,
          "duration": 0.001077839583331297
        },
        {
          "name": "D7",
          "midi": 98,
          "time": 144.86163999999965,
          "velocity": 0.7874015748031497,
          "duration": 0.001077839583331297
        },
        {
          "name": "D8",
          "midi": 110,
          "time": 145.63768449999966,
          "velocity": 0.7874015748031497,
          "duration": 0.001077839583331297
        },
        {
          "name": "C#7",
          "midi": 97,
          "time": 145.63768449999966,
          "velocity": 0.7874015748031497,
          "duration": 0.001077839583331297
        },
        {
          "name": "D7",
          "midi": 98,
          "time": 145.63768449999966,
          "velocity": 0.7874015748031497,
          "duration": 0.001077839583331297
        },
        {
          "name": "D#8",
          "midi": 111,
          "time": 145.89636599999966,
          "velocity": 0.7874015748031497,
          "duration": 0.001077839583331297
        },
        {
          "name": "D#7",
          "midi": 99,
          "time": 145.89636599999966,
          "velocity": 0.7874015748031497,
          "duration": 0.001077839583331297
        },
        {
          "name": "C7",
          "midi": 96,
          "time": 146.41372899999965,
          "velocity": 0.7874015748031497,
          "duration": 0.001077839583331297
        },
        {
          "name": "E7",
          "midi": 100,
          "time": 146.41372899999965,
          "velocity": 0.7874015748031497,
          "duration": 0.001077839583331297
        },
        {
          "name": "D#7",
          "midi": 99,
          "time": 146.93109199999964,
          "velocity": 0.7874015748031497,
          "duration": 0.001077839583331297
        },
        {
          "name": "C#7",
          "midi": 97,
          "time": 147.44845499999963,
          "velocity": 0.7874015748031497,
          "duration": 0.001077839583331297
        },
        {
          "name": "D#7",
          "midi": 99,
          "time": 147.44845499999963,
          "velocity": 0.7874015748031497,
          "duration": 0.001077839583331297
        },
        {
          "name": "D#7",
          "midi": 99,
          "time": 147.96581799999962,
          "velocity": 0.7874015748031497,
          "duration": 0.001077839583331297
        },
        {
          "name": "C7",
          "midi": 96,
          "time": 148.22342166041628,
          "velocity": 0.7874015748031497,
          "duration": 0.001077839583331297
        },
        {
          "name": "C7",
          "midi": 96,
          "time": 148.4831809999996,
          "velocity": 0.7874015748031497,
          "duration": 0.001077839583331297
        },
        {
          "name": "D#7",
          "midi": 99,
          "time": 148.4831809999996,
          "velocity": 0.7874015748031497,
          "duration": 0.001077839583331297
        },
        {
          "name": "C7",
          "midi": 96,
          "time": 149.0005439999996,
          "velocity": 0.7874015748031497,
          "duration": 0.001077839583331297
        },
        {
          "name": "D#7",
          "midi": 99,
          "time": 149.0005439999996,
          "velocity": 0.7874015748031497,
          "duration": 0.001077839583331297
        },
        {
          "name": "C#7",
          "midi": 97,
          "time": 149.51790699999958,
          "velocity": 0.7874015748031497,
          "duration": 0.001077839583331297
        },
        {
          "name": "D#7",
          "midi": 99,
          "time": 149.51790699999958,
          "velocity": 0.7874015748031497,
          "duration": 0.001077839583331297
        },
        {
          "name": "D#7",
          "midi": 99,
          "time": 150.03526999999957,
          "velocity": 0.7874015748031497,
          "duration": 0.001077839583331297
        },
        {
          "name": "C7",
          "midi": 96,
          "time": 150.55263299999956,
          "velocity": 0.7874015748031497,
          "duration": 0.001077839583331297
        },
        {
          "name": "E7",
          "midi": 100,
          "time": 150.55263299999956,
          "velocity": 0.7874015748031497,
          "duration": 0.001077839583331297
        },
        {
          "name": "D#7",
          "midi": 99,
          "time": 151.06999599999955,
          "velocity": 0.7874015748031497,
          "duration": 0.001077839583331297
        },
        {
          "name": "C#7",
          "midi": 97,
          "time": 151.58735899999954,
          "velocity": 0.7874015748031497,
          "duration": 0.001077839583331297
        },
        {
          "name": "D#7",
          "midi": 99,
          "time": 151.58735899999954,
          "velocity": 0.7874015748031497,
          "duration": 0.001077839583331297
        },
        {
          "name": "D#7",
          "midi": 99,
          "time": 152.10472199999953,
          "velocity": 0.7874015748031497,
          "duration": 0.001077839583331297
        },
        {
          "name": "C7",
          "midi": 96,
          "time": 152.3623256604162,
          "velocity": 0.7874015748031497,
          "duration": 0.001077839583331297
        },
        {
          "name": "C7",
          "midi": 96,
          "time": 152.62208499999952,
          "velocity": 0.7874015748031497,
          "duration": 0.001077839583331297
        },
        {
          "name": "D#7",
          "midi": 99,
          "time": 152.62208499999952,
          "velocity": 0.7874015748031497,
          "duration": 0.001077839583331297
        },
        {
          "name": "D#7",
          "midi": 99,
          "time": 153.1394479999995,
          "velocity": 0.7874015748031497,
          "duration": 0.001077839583331297
        },
        {
          "name": "C#7",
          "midi": 97,
          "time": 153.6568109999995,
          "velocity": 0.7874015748031497,
          "duration": 0.001077839583331297
        },
        {
          "name": "D#7",
          "midi": 99,
          "time": 153.6568109999995,
          "velocity": 0.7874015748031497,
          "duration": 0.001077839583331297
        },
        {
          "name": "D#7",
          "midi": 99,
          "time": 154.17417399999948,
          "velocity": 0.7874015748031497,
          "duration": 0.001077839583331297
        },
        {
          "name": "C7",
          "midi": 96,
          "time": 154.43285549999948,
          "velocity": 0.7874015748031497,
          "duration": 0.001077839583331297
        },
        {
          "name": "C7",
          "midi": 96,
          "time": 154.69153699999947,
          "velocity": 0.7874015748031497,
          "duration": 0.001077839583331297
        },
        {
          "name": "E7",
          "midi": 100,
          "time": 154.69153699999947,
          "velocity": 0.7874015748031497,
          "duration": 0.001077839583331297
        },
        {
          "name": "D#7",
          "midi": 99,
          "time": 155.20889999999946,
          "velocity": 0.7874015748031497,
          "duration": 0.001077839583331297
        },
        {
          "name": "C#7",
          "midi": 97,
          "time": 155.72626299999945,
          "velocity": 0.7874015748031497,
          "duration": 0.001077839583331297
        },
        {
          "name": "D#7",
          "midi": 99,
          "time": 155.72626299999945,
          "velocity": 0.7874015748031497,
          "duration": 0.001077839583331297
        },
        {
          "name": "D#7",
          "midi": 99,
          "time": 156.24362599999944,
          "velocity": 0.7874015748031497,
          "duration": 0.001077839583331297
        },
        {
          "name": "C7",
          "midi": 96,
          "time": 156.5012296604161,
          "velocity": 0.7874015748031497,
          "duration": 0.001077839583331297
        },
        {
          "name": "C7",
          "midi": 96,
          "time": 156.76098899999943,
          "velocity": 0.7874015748031497,
          "duration": 0.001077839583331297
        },
        {
          "name": "D#7",
          "midi": 99,
          "time": 156.76098899999943,
          "velocity": 0.7874015748031497,
          "duration": 0.001077839583331297
        },
        {
          "name": "D#7",
          "midi": 99,
          "time": 157.27835199999942,
          "velocity": 0.7874015748031497,
          "duration": 0.001077839583331297
        },
        {
          "name": "C#7",
          "midi": 97,
          "time": 157.7957149999994,
          "velocity": 0.7874015748031497,
          "duration": 0.001077839583331297
        },
        {
          "name": "D#7",
          "midi": 99,
          "time": 157.7957149999994,
          "velocity": 0.7874015748031497,
          "duration": 0.001077839583331297
        },
        {
          "name": "D#7",
          "midi": 99,
          "time": 158.3130779999994,
          "velocity": 0.7874015748031497,
          "duration": 0.001077839583331297
        },
        {
          "name": "C7",
          "midi": 96,
          "time": 158.5717594999994,
          "velocity": 0.7874015748031497,
          "duration": 0.001077839583331297
        },
        {
          "name": "C7",
          "midi": 96,
          "time": 158.83044099999938,
          "velocity": 0.7874015748031497,
          "duration": 0.001077839583331297
        },
        {
          "name": "E7",
          "midi": 100,
          "time": 158.83044099999938,
          "velocity": 0.7874015748031497,
          "duration": 0.001077839583331297
        },
        {
          "name": "D#7",
          "midi": 99,
          "time": 159.34780399999937,
          "velocity": 0.7874015748031497,
          "duration": 0.001077839583331297
        },
        {
          "name": "C#7",
          "midi": 97,
          "time": 159.86516699999936,
          "velocity": 0.7874015748031497,
          "duration": 0.001077839583331297
        },
        {
          "name": "E7",
          "midi": 100,
          "time": 159.86516699999936,
          "velocity": 0.7874015748031497,
          "duration": 0.001077839583331297
        },
        {
          "name": "D8",
          "midi": 110,
          "time": 160.38252999999935,
          "velocity": 0.7874015748031497,
          "duration": 0.001077839583331297
        },
        {
          "name": "D7",
          "midi": 98,
          "time": 160.38252999999935,
          "velocity": 0.7874015748031497,
          "duration": 0.001077839583331297
        },
        {
          "name": "C7",
          "midi": 96,
          "time": 160.89989299999934,
          "velocity": 0.7874015748031497,
          "duration": 0.001077839583331297
        },
        {
          "name": "E7",
          "midi": 100,
          "time": 160.89989299999934,
          "velocity": 0.7874015748031497,
          "duration": 0.001077839583331297
        },
        {
          "name": "C7",
          "midi": 96,
          "time": 162.96934499999935,
          "velocity": 0.7874015748031497,
          "duration": 0.001077839583331297
        },
        {
          "name": "E7",
          "midi": 100,
          "time": 162.96934499999935,
          "velocity": 0.7874015748031497,
          "duration": 0.001077839583331297
        },
        {
          "name": "D#7",
          "midi": 99,
          "time": 163.48670799999934,
          "velocity": 0.7874015748031497,
          "duration": 0.001077839583331297
        },
        {
          "name": "C#7",
          "midi": 97,
          "time": 164.00407099999933,
          "velocity": 0.7874015748031497,
          "duration": 0.001077839583331297
        },
        {
          "name": "D#7",
          "midi": 99,
          "time": 164.00407099999933,
          "velocity": 0.7874015748031497,
          "duration": 0.001077839583331297
        },
        {
          "name": "D#7",
          "midi": 99,
          "time": 164.52143399999932,
          "velocity": 0.7874015748031497,
          "duration": 0.001077839583331297
        },
        {
          "name": "C7",
          "midi": 96,
          "time": 165.0387969999993,
          "velocity": 0.7874015748031497,
          "duration": 0.001077839583331297
        },
        {
          "name": "D#7",
          "midi": 99,
          "time": 165.0387969999993,
          "velocity": 0.7874015748031497,
          "duration": 0.001077839583331297
        },
        {
          "name": "C7",
          "midi": 96,
          "time": 165.5561599999993,
          "velocity": 0.7874015748031497,
          "duration": 0.001077839583331297
        },
        {
          "name": "D#7",
          "midi": 99,
          "time": 165.5561599999993,
          "velocity": 0.7874015748031497,
          "duration": 0.001077839583331297
        },
        {
          "name": "C#7",
          "midi": 97,
          "time": 166.07352299999928,
          "velocity": 0.7874015748031497,
          "duration": 0.001077839583331297
        },
        {
          "name": "D#7",
          "midi": 99,
          "time": 166.07352299999928,
          "velocity": 0.7874015748031497,
          "duration": 0.001077839583331297
        },
        {
          "name": "D#7",
          "midi": 99,
          "time": 166.59088599999927,
          "velocity": 0.7874015748031497,
          "duration": 0.001077839583331297
        },
        {
          "name": "C7",
          "midi": 96,
          "time": 166.84848966041594,
          "velocity": 0.7874015748031497,
          "duration": 0.001077839583331297
        },
        {
          "name": "C7",
          "midi": 96,
          "time": 167.10824899999926,
          "velocity": 0.7874015748031497,
          "duration": 0.001077839583331297
        },
        {
          "name": "D#7",
          "midi": 99,
          "time": 167.10824899999926,
          "velocity": 0.7874015748031497,
          "duration": 0.001077839583331297
        },
        {
          "name": "C7",
          "midi": 96,
          "time": 167.62561199999925,
          "velocity": 0.7874015748031497,
          "duration": 0.001077839583331297
        },
        {
          "name": "D#7",
          "midi": 99,
          "time": 167.62561199999925,
          "velocity": 0.7874015748031497,
          "duration": 0.001077839583331297
        },
        {
          "name": "C#7",
          "midi": 97,
          "time": 168.14297499999924,
          "velocity": 0.7874015748031497,
          "duration": 0.001077839583331297
        },
        {
          "name": "D#7",
          "midi": 99,
          "time": 168.14297499999924,
          "velocity": 0.7874015748031497,
          "duration": 0.001077839583331297
        },
        {
          "name": "D#7",
          "midi": 99,
          "time": 168.66033799999923,
          "velocity": 0.7874015748031497,
          "duration": 0.001077839583331297
        },
        {
          "name": "C7",
          "midi": 96,
          "time": 169.17770099999922,
          "velocity": 0.7874015748031497,
          "duration": 0.001077839583331297
        },
        {
          "name": "D#7",
          "midi": 99,
          "time": 169.17770099999922,
          "velocity": 0.7874015748031497,
          "duration": 0.001077839583331297
        },
        {
          "name": "C7",
          "midi": 96,
          "time": 169.6950639999992,
          "velocity": 0.7874015748031497,
          "duration": 0.001077839583331297
        },
        {
          "name": "D#7",
          "midi": 99,
          "time": 169.6950639999992,
          "velocity": 0.7874015748031497,
          "duration": 0.001077839583331297
        },
        {
          "name": "C#7",
          "midi": 97,
          "time": 170.2124269999992,
          "velocity": 0.7874015748031497,
          "duration": 0.001077839583331297
        },
        {
          "name": "D#7",
          "midi": 99,
          "time": 170.2124269999992,
          "velocity": 0.7874015748031497,
          "duration": 0.001077839583331297
        },
        {
          "name": "D#7",
          "midi": 99,
          "time": 170.72978999999918,
          "velocity": 0.7874015748031497,
          "duration": 0.001077839583331297
        },
        {
          "name": "C7",
          "midi": 96,
          "time": 171.24715299999917,
          "velocity": 0.7874015748031497,
          "duration": 0.001077839583331297
        },
        {
          "name": "D#7",
          "midi": 99,
          "time": 171.24715299999917,
          "velocity": 0.7874015748031497,
          "duration": 0.001077839583331297
        },
        {
          "name": "C7",
          "midi": 96,
          "time": 171.76451599999916,
          "velocity": 0.7874015748031497,
          "duration": 0.001077839583331297
        },
        {
          "name": "D#7",
          "midi": 99,
          "time": 171.76451599999916,
          "velocity": 0.7874015748031497,
          "duration": 0.001077839583331297
        },
        {
          "name": "C#7",
          "midi": 97,
          "time": 172.28187899999915,
          "velocity": 0.7874015748031497,
          "duration": 0.001077839583331297
        },
        {
          "name": "D#7",
          "midi": 99,
          "time": 172.28187899999915,
          "velocity": 0.7874015748031497,
          "duration": 0.001077839583331297
        },
        {
          "name": "D#7",
          "midi": 99,
          "time": 172.79924199999914,
          "velocity": 0.7874015748031497,
          "duration": 0.001077839583331297
        },
        {
          "name": "C7",
          "midi": 96,
          "time": 173.0568456604158,
          "velocity": 0.7874015748031497,
          "duration": 0.001077839583331297
        },
        {
          "name": "D#7",
          "midi": 99,
          "time": 173.31660499999913,
          "velocity": 0.7874015748031497,
          "duration": 0.001077839583331297
        },
        {
          "name": "C7",
          "midi": 96,
          "time": 173.57528649999912,
          "velocity": 0.7874015748031497,
          "duration": 0.001077839583331297
        },
        {
          "name": "C7",
          "midi": 96,
          "time": 173.83396799999912,
          "velocity": 0.7874015748031497,
          "duration": 0.001077839583331297
        },
        {
          "name": "D#7",
          "midi": 99,
          "time": 173.83396799999912,
          "velocity": 0.7874015748031497,
          "duration": 0.001077839583331297
        },
        {
          "name": "C#7",
          "midi": 97,
          "time": 174.3513309999991,
          "velocity": 0.7874015748031497,
          "duration": 0.001077839583331297
        },
        {
          "name": "D#7",
          "midi": 99,
          "time": 174.3513309999991,
          "velocity": 0.7874015748031497,
          "duration": 0.001077839583331297
        },
        {
          "name": "D#7",
          "midi": 99,
          "time": 174.8686939999991,
          "velocity": 0.7874015748031497,
          "duration": 0.001077839583331297
        },
        {
          "name": "C7",
          "midi": 96,
          "time": 175.38605699999908,
          "velocity": 0.7874015748031497,
          "duration": 0.001077839583331297
        },
        {
          "name": "D#7",
          "midi": 99,
          "time": 175.38605699999908,
          "velocity": 0.7874015748031497,
          "duration": 0.001077839583331297
        },
        {
          "name": "C7",
          "midi": 96,
          "time": 175.90341999999907,
          "velocity": 0.7874015748031497,
          "duration": 0.001077839583331297
        },
        {
          "name": "D#7",
          "midi": 99,
          "time": 175.90341999999907,
          "velocity": 0.7874015748031497,
          "duration": 0.001077839583331297
        },
        {
          "name": "C#7",
          "midi": 97,
          "time": 176.42078299999906,
          "velocity": 0.7874015748031497,
          "duration": 0.001077839583331297
        },
        {
          "name": "D#7",
          "midi": 99,
          "time": 176.42078299999906,
          "velocity": 0.7874015748031497,
          "duration": 0.001077839583331297
        },
        {
          "name": "D#7",
          "midi": 99,
          "time": 176.93814599999905,
          "velocity": 0.7874015748031497,
          "duration": 0.001077839583331297
        },
        {
          "name": "C7",
          "midi": 96,
          "time": 177.19467182083238,
          "velocity": 0.7874015748031497,
          "duration": 0.001077839583331297
        },
        {
          "name": "D#7",
          "midi": 99,
          "time": 177.45550899999904,
          "velocity": 0.7874015748031497,
          "duration": 0.001077839583331297
        },
        {
          "name": "C7",
          "midi": 96,
          "time": 177.71419049999903,
          "velocity": 0.7874015748031497,
          "duration": 0.001077839583331297
        },
        {
          "name": "C7",
          "midi": 96,
          "time": 177.97287199999903,
          "velocity": 0.7874015748031497,
          "duration": 0.001077839583331297
        },
        {
          "name": "D#7",
          "midi": 99,
          "time": 177.97287199999903,
          "velocity": 0.7874015748031497,
          "duration": 0.001077839583331297
        },
        {
          "name": "C#7",
          "midi": 97,
          "time": 178.49023499999902,
          "velocity": 0.7874015748031497,
          "duration": 0.001077839583331297
        },
        {
          "name": "D#7",
          "midi": 99,
          "time": 178.49023499999902,
          "velocity": 0.7874015748031497,
          "duration": 0.001077839583331297
        },
        {
          "name": "D#7",
          "midi": 99,
          "time": 179.007597999999,
          "velocity": 0.7874015748031497,
          "duration": 0.001077839583331297
        },
        {
          "name": "C7",
          "midi": 96,
          "time": 179.524960999999,
          "velocity": 0.7874015748031497,
          "duration": 0.001077839583331297
        },
        {
          "name": "D#7",
          "midi": 99,
          "time": 179.524960999999,
          "velocity": 0.7874015748031497,
          "duration": 0.001077839583331297
        },
        {
          "name": "C7",
          "midi": 96,
          "time": 180.04232399999898,
          "velocity": 0.7874015748031497,
          "duration": 0.001077839583331297
        },
        {
          "name": "D#7",
          "midi": 99,
          "time": 180.04232399999898,
          "velocity": 0.7874015748031497,
          "duration": 0.001077839583331297
        },
        {
          "name": "C#7",
          "midi": 97,
          "time": 180.55968699999897,
          "velocity": 0.7874015748031497,
          "duration": 0.001077839583331297
        },
        {
          "name": "D#7",
          "midi": 99,
          "time": 180.55968699999897,
          "velocity": 0.7874015748031497,
          "duration": 0.001077839583331297
        },
        {
          "name": "D#7",
          "midi": 99,
          "time": 181.07704999999896,
          "velocity": 0.7874015748031497,
          "duration": 0.001077839583331297
        },
        {
          "name": "C7",
          "midi": 96,
          "time": 181.3335758208323,
          "velocity": 0.7874015748031497,
          "duration": 0.001077839583331297
        },
        {
          "name": "D#7",
          "midi": 99,
          "time": 181.59441299999895,
          "velocity": 0.7874015748031497,
          "duration": 0.001077839583331297
        },
        {
          "name": "C7",
          "midi": 96,
          "time": 181.85309449999895,
          "velocity": 0.7874015748031497,
          "duration": 0.001077839583331297
        },
        {
          "name": "C7",
          "midi": 96,
          "time": 182.11177599999894,
          "velocity": 0.7874015748031497,
          "duration": 0.001077839583331297
        },
        {
          "name": "D#7",
          "midi": 99,
          "time": 182.11177599999894,
          "velocity": 0.7874015748031497,
          "duration": 0.001077839583331297
        },
        {
          "name": "C#7",
          "midi": 97,
          "time": 182.62913899999893,
          "velocity": 0.7874015748031497,
          "duration": 0.001077839583331297
        },
        {
          "name": "D#7",
          "midi": 99,
          "time": 182.62913899999893,
          "velocity": 0.7874015748031497,
          "duration": 0.001077839583331297
        },
        {
          "name": "D#7",
          "midi": 99,
          "time": 183.14650199999892,
          "velocity": 0.7874015748031497,
          "duration": 0.001077839583331297
        },
        {
          "name": "C7",
          "midi": 96,
          "time": 183.6638649999989,
          "velocity": 0.7874015748031497,
          "duration": 0.001077839583331297
        },
        {
          "name": "D#7",
          "midi": 99,
          "time": 183.6638649999989,
          "velocity": 0.7874015748031497,
          "duration": 0.001077839583331297
        },
        {
          "name": "C7",
          "midi": 96,
          "time": 184.1812279999989,
          "velocity": 0.7874015748031497,
          "duration": 0.001077839583331297
        },
        {
          "name": "D#7",
          "midi": 99,
          "time": 184.1812279999989,
          "velocity": 0.7874015748031497,
          "duration": 0.001077839583331297
        },
        {
          "name": "C#7",
          "midi": 97,
          "time": 184.69859099999888,
          "velocity": 0.7874015748031497,
          "duration": 0.001077839583331297
        },
        {
          "name": "D#7",
          "midi": 99,
          "time": 184.69859099999888,
          "velocity": 0.7874015748031497,
          "duration": 0.001077839583331297
        },
        {
          "name": "D#7",
          "midi": 99,
          "time": 185.21595399999887,
          "velocity": 0.7874015748031497,
          "duration": 0.001077839583331297
        },
        {
          "name": "C7",
          "midi": 96,
          "time": 185.4724798208322,
          "velocity": 0.7874015748031497,
          "duration": 0.001077839583331297
        },
        {
          "name": "D#7",
          "midi": 99,
          "time": 185.73331699999886,
          "velocity": 0.7874015748031497,
          "duration": 0.001077839583331297
        },
        {
          "name": "C7",
          "midi": 96,
          "time": 185.99199849999886,
          "velocity": 0.7874015748031497,
          "duration": 0.001077839583331297
        },
        {
          "name": "C7",
          "midi": 96,
          "time": 186.25067999999885,
          "velocity": 0.7874015748031497,
          "duration": 0.001077839583331297
        },
        {
          "name": "D#7",
          "midi": 99,
          "time": 186.25067999999885,
          "velocity": 0.7874015748031497,
          "duration": 0.001077839583331297
        },
        {
          "name": "C#7",
          "midi": 97,
          "time": 186.76804299999884,
          "velocity": 0.7874015748031497,
          "duration": 0.001077839583331297
        },
        {
          "name": "D#7",
          "midi": 99,
          "time": 186.76804299999884,
          "velocity": 0.7874015748031497,
          "duration": 0.001077839583331297
        },
        {
          "name": "D#7",
          "midi": 99,
          "time": 187.28540599999883,
          "velocity": 0.7874015748031497,
          "duration": 0.001077839583331297
        },
        {
          "name": "C7",
          "midi": 96,
          "time": 187.80276899999882,
          "velocity": 0.7874015748031497,
          "duration": 0.001077839583331297
        },
        {
          "name": "D#7",
          "midi": 99,
          "time": 187.80276899999882,
          "velocity": 0.7874015748031497,
          "duration": 0.001077839583331297
        },
        {
          "name": "C7",
          "midi": 96,
          "time": 188.31905416041548,
          "velocity": 0.7874015748031497,
          "duration": 0.001077839583331297
        },
        {
          "name": "D#7",
          "midi": 99,
          "time": 188.31905416041548,
          "velocity": 0.7874015748031497,
          "duration": 0.001077839583331297
        },
        {
          "name": "C#7",
          "midi": 97,
          "time": 188.8374949999988,
          "velocity": 0.7874015748031497,
          "duration": 0.001077839583331297
        },
        {
          "name": "D#7",
          "midi": 99,
          "time": 188.8374949999988,
          "velocity": 0.7874015748031497,
          "duration": 0.001077839583331297
        },
        {
          "name": "D#7",
          "midi": 99,
          "time": 189.35485799999879,
          "velocity": 0.7874015748031497,
          "duration": 0.001077839583331297
        },
        {
          "name": "C7",
          "midi": 96,
          "time": 189.61246166041545,
          "velocity": 0.7874015748031497,
          "duration": 0.001077839583331297
        },
        {
          "name": "D#7",
          "midi": 99,
          "time": 189.87222099999877,
          "velocity": 0.7874015748031497,
          "duration": 0.001077839583331297
        },
        {
          "name": "C7",
          "midi": 96,
          "time": 190.12982466041544,
          "velocity": 0.7874015748031497,
          "duration": 0.001077839583331297
        },
        {
          "name": "C7",
          "midi": 96,
          "time": 190.38958399999876,
          "velocity": 0.7874015748031497,
          "duration": 0.001077839583331297
        },
        {
          "name": "D#7",
          "midi": 99,
          "time": 190.38958399999876,
          "velocity": 0.7874015748031497,
          "duration": 0.001077839583331297
        },
        {
          "name": "C#7",
          "midi": 97,
          "time": 190.90694699999875,
          "velocity": 0.7874015748031497,
          "duration": 0.001077839583331297
        },
        {
          "name": "D#7",
          "midi": 99,
          "time": 190.90694699999875,
          "velocity": 0.7874015748031497,
          "duration": 0.001077839583331297
        },
        {
          "name": "D#7",
          "midi": 99,
          "time": 191.42430999999874,
          "velocity": 0.7874015748031497,
          "duration": 0.001077839583331297
        },
        {
          "name": "C7",
          "midi": 96,
          "time": 191.94167299999873,
          "velocity": 0.7874015748031497,
          "duration": 0.001077839583331297
        },
        {
          "name": "D#7",
          "midi": 99,
          "time": 191.94167299999873,
          "velocity": 0.7874015748031497,
          "duration": 0.001077839583331297
        },
        {
          "name": "C7",
          "midi": 96,
          "time": 192.45903599999872,
          "velocity": 0.7874015748031497,
          "duration": 0.001077839583331297
        },
        {
          "name": "D#7",
          "midi": 99,
          "time": 192.45903599999872,
          "velocity": 0.7874015748031497,
          "duration": 0.001077839583331297
        },
        {
          "name": "C#7",
          "midi": 97,
          "time": 192.9763989999987,
          "velocity": 0.7874015748031497,
          "duration": 0.001077839583331297
        },
        {
          "name": "D#7",
          "midi": 99,
          "time": 192.9763989999987,
          "velocity": 0.7874015748031497,
          "duration": 0.001077839583331297
        },
        {
          "name": "D#7",
          "midi": 99,
          "time": 193.4937619999987,
          "velocity": 0.7874015748031497,
          "duration": 0.001077839583331297
        },
        {
          "name": "C7",
          "midi": 96,
          "time": 193.75136566041536,
          "velocity": 0.7874015748031497,
          "duration": 0.001077839583331297
        },
        {
          "name": "D#7",
          "midi": 99,
          "time": 194.01112499999869,
          "velocity": 0.7874015748031497,
          "duration": 0.001077839583331297
        },
        {
          "name": "C7",
          "midi": 96,
          "time": 194.26872866041535,
          "velocity": 0.7874015748031497,
          "duration": 0.001077839583331297
        },
        {
          "name": "C7",
          "midi": 96,
          "time": 194.52848799999867,
          "velocity": 0.7874015748031497,
          "duration": 0.001077839583331297
        },
        {
          "name": "D#7",
          "midi": 99,
          "time": 194.52848799999867,
          "velocity": 0.7874015748031497,
          "duration": 0.001077839583331297
        },
        {
          "name": "C#7",
          "midi": 97,
          "time": 195.04585099999866,
          "velocity": 0.7874015748031497,
          "duration": 0.001077839583331297
        },
        {
          "name": "D#7",
          "midi": 99,
          "time": 195.04585099999866,
          "velocity": 0.7874015748031497,
          "duration": 0.001077839583331297
        },
        {
          "name": "D#7",
          "midi": 99,
          "time": 195.56321399999865,
          "velocity": 0.7874015748031497,
          "duration": 0.001077839583331297
        },
        {
          "name": "C7",
          "midi": 96,
          "time": 196.08057699999864,
          "velocity": 0.7874015748031497,
          "duration": 0.001077839583331297
        },
        {
          "name": "D#7",
          "midi": 99,
          "time": 196.08057699999864,
          "velocity": 0.7874015748031497,
          "duration": 0.001077839583331297
        },
        {
          "name": "C7",
          "midi": 96,
          "time": 196.59793999999863,
          "velocity": 0.7874015748031497,
          "duration": 0.001077839583331297
        },
        {
          "name": "D#7",
          "midi": 99,
          "time": 196.59793999999863,
          "velocity": 0.7874015748031497,
          "duration": 0.001077839583331297
        },
        {
          "name": "C#7",
          "midi": 97,
          "time": 197.11530299999862,
          "velocity": 0.7874015748031497,
          "duration": 0.001077839583331297
        },
        {
          "name": "D#7",
          "midi": 99,
          "time": 197.11530299999862,
          "velocity": 0.7874015748031497,
          "duration": 0.001077839583331297
        },
        {
          "name": "D#7",
          "midi": 99,
          "time": 197.6326659999986,
          "velocity": 0.7874015748031497,
          "duration": 0.001077839583331297
        },
        {
          "name": "C7",
          "midi": 96,
          "time": 197.89026966041527,
          "velocity": 0.7874015748031497,
          "duration": 0.001077839583331297
        },
        {
          "name": "C7",
          "midi": 96,
          "time": 198.1500289999986,
          "velocity": 0.7874015748031497,
          "duration": 0.001077839583331297
        },
        {
          "name": "D#7",
          "midi": 99,
          "time": 198.1500289999986,
          "velocity": 0.7874015748031497,
          "duration": 0.001077839583331297
        },
        {
          "name": "C7",
          "midi": 96,
          "time": 198.66739199999859,
          "velocity": 0.7874015748031497,
          "duration": 0.001077839583331297
        },
        {
          "name": "D#7",
          "midi": 99,
          "time": 198.66739199999859,
          "velocity": 0.7874015748031497,
          "duration": 0.001077839583331297
        },
        {
          "name": "C#7",
          "midi": 97,
          "time": 199.18475499999857,
          "velocity": 0.7874015748031497,
          "duration": 0.001077839583331297
        },
        {
          "name": "D#7",
          "midi": 99,
          "time": 199.18475499999857,
          "velocity": 0.7874015748031497,
          "duration": 0.001077839583331297
        },
        {
          "name": "D8",
          "midi": 110,
          "time": 199.44343649999857,
          "velocity": 0.7874015748031497,
          "duration": 0.001077839583331297
        },
        {
          "name": "D7",
          "midi": 98,
          "time": 199.44343649999857,
          "velocity": 0.7874015748031497,
          "duration": 0.001077839583331297
        },
        {
          "name": "D8",
          "midi": 110,
          "time": 199.70211799999856,
          "velocity": 0.7874015748031497,
          "duration": 0.001077839583331297
        },
        {
          "name": "D7",
          "midi": 98,
          "time": 199.70211799999856,
          "velocity": 0.7874015748031497,
          "duration": 0.001077839583331297
        },
        {
          "name": "D#8",
          "midi": 111,
          "time": 199.96079949999856,
          "velocity": 0.7874015748031497,
          "duration": 0.001077839583331297
        },
        {
          "name": "D#7",
          "midi": 99,
          "time": 199.96079949999856,
          "velocity": 0.7874015748031497,
          "duration": 0.001077839583331297
        },
        {
          "name": "C7",
          "midi": 96,
          "time": 200.21948099999855,
          "velocity": 0.7874015748031497,
          "duration": 0.001077839583331297
        },
        {
          "name": "E7",
          "midi": 100,
          "time": 200.21948099999855,
          "velocity": 0.7874015748031497,
          "duration": 0.001077839583331297
        },
        {
          "name": "D#7",
          "midi": 99,
          "time": 200.73684399999854,
          "velocity": 0.7874015748031497,
          "duration": 0.001077839583331297
        },
        {
          "name": "C#7",
          "midi": 97,
          "time": 201.25420699999853,
          "velocity": 0.7874015748031497,
          "duration": 0.001077839583331297
        },
        {
          "name": "E7",
          "midi": 100,
          "time": 201.25420699999853,
          "velocity": 0.7874015748031497,
          "duration": 0.001077839583331297
        },
        {
          "name": "D#7",
          "midi": 99,
          "time": 201.77156999999852,
          "velocity": 0.7874015748031497,
          "duration": 0.001077839583331297
        },
        {
          "name": "C7",
          "midi": 96,
          "time": 202.02809582083185,
          "velocity": 0.7874015748031497,
          "duration": 0.001077839583331297
        },
        {
          "name": "C7",
          "midi": 96,
          "time": 202.2889329999985,
          "velocity": 0.7874015748031497,
          "duration": 0.001077839583331297
        },
        {
          "name": "D#7",
          "midi": 99,
          "time": 202.2889329999985,
          "velocity": 0.7874015748031497,
          "duration": 0.001077839583331297
        },
        {
          "name": "C7",
          "midi": 96,
          "time": 202.8062959999985,
          "velocity": 0.7874015748031497,
          "duration": 0.001077839583331297
        },
        {
          "name": "D#7",
          "midi": 99,
          "time": 202.8062959999985,
          "velocity": 0.7874015748031497,
          "duration": 0.001077839583331297
        },
        {
          "name": "C#7",
          "midi": 97,
          "time": 203.3236589999985,
          "velocity": 0.7874015748031497,
          "duration": 0.001077839583331297
        },
        {
          "name": "E7",
          "midi": 100,
          "time": 203.3236589999985,
          "velocity": 0.7874015748031497,
          "duration": 0.001077839583331297
        },
        {
          "name": "D8",
          "midi": 110,
          "time": 203.58234049999848,
          "velocity": 0.7874015748031497,
          "duration": 0.001077839583331297
        },
        {
          "name": "D7",
          "midi": 98,
          "time": 203.58234049999848,
          "velocity": 0.7874015748031497,
          "duration": 0.001077839583331297
        },
        {
          "name": "D#8",
          "midi": 111,
          "time": 203.84102199999847,
          "velocity": 0.7874015748031497,
          "duration": 0.001077839583331297
        },
        {
          "name": "D#7",
          "midi": 99,
          "time": 203.84102199999847,
          "velocity": 0.7874015748031497,
          "duration": 0.001077839583331297
        },
        {
          "name": "C7",
          "midi": 96,
          "time": 204.35838499999846,
          "velocity": 0.7874015748031497,
          "duration": 0.001077839583331297
        },
        {
          "name": "E7",
          "midi": 100,
          "time": 204.35838499999846,
          "velocity": 0.7874015748031497,
          "duration": 0.001077839583331297
        },
        {
          "name": "D#7",
          "midi": 99,
          "time": 204.87574799999845,
          "velocity": 0.7874015748031497,
          "duration": 0.001077839583331297
        },
        {
          "name": "C#7",
          "midi": 97,
          "time": 205.39311099999844,
          "velocity": 0.7874015748031497,
          "duration": 0.001077839583331297
        },
        {
          "name": "D#7",
          "midi": 99,
          "time": 205.39311099999844,
          "velocity": 0.7874015748031497,
          "duration": 0.001077839583331297
        },
        {
          "name": "D#7",
          "midi": 99,
          "time": 205.91047399999843,
          "velocity": 0.7874015748031497,
          "duration": 0.001077839583331297
        },
        {
          "name": "C7",
          "midi": 96,
          "time": 206.16699982083176,
          "velocity": 0.7874015748031497,
          "duration": 0.001077839583331297
        },
        {
          "name": "C7",
          "midi": 96,
          "time": 206.42783699999842,
          "velocity": 0.7874015748031497,
          "duration": 0.001077839583331297
        },
        {
          "name": "D#7",
          "midi": 99,
          "time": 206.42783699999842,
          "velocity": 0.7874015748031497,
          "duration": 0.001077839583331297
        },
        {
          "name": "D8",
          "midi": 110,
          "time": 206.9451999999984,
          "velocity": 0.7874015748031497,
          "duration": 0.001077839583331297
        },
        {
          "name": "D7",
          "midi": 98,
          "time": 206.9451999999984,
          "velocity": 0.7874015748031497,
          "duration": 0.001077839583331297
        },
        {
          "name": "C7",
          "midi": 96,
          "time": 207.4625629999984,
          "velocity": 0.7874015748031497,
          "duration": 0.001077839583331297
        },
        {
          "name": "C#7",
          "midi": 97,
          "time": 207.7212444999984,
          "velocity": 0.7874015748031497,
          "duration": 0.001077839583331297
        },
        {
          "name": "D8",
          "midi": 110,
          "time": 207.9799259999984,
          "velocity": 0.7874015748031497,
          "duration": 0.001077839583331297
        },
        {
          "name": "C7",
          "midi": 96,
          "time": 207.9799259999984,
          "velocity": 0.7874015748031497,
          "duration": 0.001077839583331297
        },
        {
          "name": "D7",
          "midi": 98,
          "time": 207.9799259999984,
          "velocity": 0.7874015748031497,
          "duration": 0.001077839583331297
        },
        {
          "name": "C7",
          "midi": 96,
          "time": 208.49728899999837,
          "velocity": 0.7874015748031497,
          "duration": 0.001077839583331297
        },
        {
          "name": "E7",
          "midi": 100,
          "time": 208.49728899999837,
          "velocity": 0.7874015748031497,
          "duration": 0.001077839583331297
        },
        {
          "name": "D#7",
          "midi": 99,
          "time": 209.01465199999836,
          "velocity": 0.7874015748031497,
          "duration": 0.001077839583331297
        },
        {
          "name": "C#7",
          "midi": 97,
          "time": 209.53201499999835,
          "velocity": 0.7874015748031497,
          "duration": 0.001077839583331297
        },
        {
          "name": "D#7",
          "midi": 99,
          "time": 209.53201499999835,
          "velocity": 0.7874015748031497,
          "duration": 0.001077839583331297
        },
        {
          "name": "D#7",
          "midi": 99,
          "time": 210.04937799999834,
          "velocity": 0.7874015748031497,
          "duration": 0.001077839583331297
        },
        {
          "name": "C7",
          "midi": 96,
          "time": 210.30590382083167,
          "velocity": 0.7874015748031497,
          "duration": 0.001077839583331297
        },
        {
          "name": "C7",
          "midi": 96,
          "time": 210.56674099999833,
          "velocity": 0.7874015748031497,
          "duration": 0.001077839583331297
        },
        {
          "name": "E7",
          "midi": 100,
          "time": 210.56674099999833,
          "velocity": 0.7874015748031497,
          "duration": 0.001077839583331297
        },
        {
          "name": "C7",
          "midi": 96,
          "time": 211.08410399999832,
          "velocity": 0.7874015748031497,
          "duration": 0.001077839583331297
        },
        {
          "name": "E7",
          "midi": 100,
          "time": 211.08410399999832,
          "velocity": 0.7874015748031497,
          "duration": 0.001077839583331297
        },
        {
          "name": "C7",
          "midi": 96,
          "time": 211.6014669999983,
          "velocity": 0.7874015748031497,
          "duration": 0.001077839583331297
        },
        {
          "name": "C#7",
          "midi": 97,
          "time": 211.8601484999983,
          "velocity": 0.7874015748031497,
          "duration": 0.001077839583331297
        },
        {
          "name": "D8",
          "midi": 110,
          "time": 212.1188299999983,
          "velocity": 0.7874015748031497,
          "duration": 0.001077839583331297
        },
        {
          "name": "C7",
          "midi": 96,
          "time": 212.1188299999983,
          "velocity": 0.7874015748031497,
          "duration": 0.001077839583331297
        },
        {
          "name": "D7",
          "midi": 98,
          "time": 212.1188299999983,
          "velocity": 0.7874015748031497,
          "duration": 0.001077839583331297
        },
        {
          "name": "C7",
          "midi": 96,
          "time": 212.6361929999983,
          "velocity": 0.7874015748031497,
          "duration": 0.001077839583331297
        },
        {
          "name": "E7",
          "midi": 100,
          "time": 212.6361929999983,
          "velocity": 0.7874015748031497,
          "duration": 0.001077839583331297
        },
        {
          "name": "D#7",
          "midi": 99,
          "time": 213.15355599999828,
          "velocity": 0.7874015748031497,
          "duration": 0.001077839583331297
        },
        {
          "name": "C#7",
          "midi": 97,
          "time": 213.67091899999826,
          "velocity": 0.7874015748031497,
          "duration": 0.001077839583331297
        },
        {
          "name": "D#7",
          "midi": 99,
          "time": 213.67091899999826,
          "velocity": 0.7874015748031497,
          "duration": 0.001077839583331297
        },
        {
          "name": "D#7",
          "midi": 99,
          "time": 214.18828199999825,
          "velocity": 0.7874015748031497,
          "duration": 0.001077839583331297
        },
        {
          "name": "C7",
          "midi": 96,
          "time": 214.44588566041492,
          "velocity": 0.7874015748031497,
          "duration": 0.001077839583331297
        },
        {
          "name": "C7",
          "midi": 96,
          "time": 214.70564499999824,
          "velocity": 0.7874015748031497,
          "duration": 0.001077839583331297
        },
        {
          "name": "E7",
          "midi": 100,
          "time": 214.70564499999824,
          "velocity": 0.7874015748031497,
          "duration": 0.001077839583331297
        },
        {
          "name": "D8",
          "midi": 110,
          "time": 215.22300799999823,
          "velocity": 0.7874015748031497,
          "duration": 0.001077839583331297
        },
        {
          "name": "C7",
          "midi": 96,
          "time": 215.22300799999823,
          "velocity": 0.7874015748031497,
          "duration": 0.001077839583331297
        },
        {
          "name": "C#7",
          "midi": 97,
          "time": 215.22300799999823,
          "velocity": 0.7874015748031497,
          "duration": 0.001077839583331297
        },
        {
          "name": "D7",
          "midi": 98,
          "time": 215.22300799999823,
          "velocity": 0.7874015748031497,
          "duration": 0.001077839583331297
        },
        {
          "name": "E8",
          "midi": 112,
          "time": 215.48168949999823,
          "velocity": 0.7874015748031497,
          "duration": 0.001077839583331297
        },
        {
          "name": "E7",
          "midi": 100,
          "time": 215.48168949999823,
          "velocity": 0.7874015748031497,
          "duration": 0.001077839583331297
        },
        {
          "name": "E8",
          "midi": 112,
          "time": 215.74037099999822,
          "velocity": 0.7874015748031497,
          "duration": 0.001077839583331297
        },
        {
          "name": "C7",
          "midi": 96,
          "time": 215.74037099999822,
          "velocity": 0.7874015748031497,
          "duration": 0.001077839583331297
        },
        {
          "name": "E7",
          "midi": 100,
          "time": 215.74037099999822,
          "velocity": 0.7874015748031497,
          "duration": 0.001077839583331297
        },
        {
          "name": "E8",
          "midi": 112,
          "time": 215.99905249999821,
          "velocity": 0.7874015748031497,
          "duration": 0.001077839583331297
        },
        {
          "name": "E7",
          "midi": 100,
          "time": 215.99905249999821,
          "velocity": 0.7874015748031497,
          "duration": 0.001077839583331297
        },
        {
          "name": "D8",
          "midi": 110,
          "time": 216.2577339999982,
          "velocity": 0.7874015748031497,
          "duration": 0.001077839583331297
        },
        {
          "name": "C7",
          "midi": 96,
          "time": 216.2577339999982,
          "velocity": 0.7874015748031497,
          "duration": 0.001077839583331297
        },
        {
          "name": "C#7",
          "midi": 97,
          "time": 216.2577339999982,
          "velocity": 0.7874015748031497,
          "duration": 0.001077839583331297
        },
        {
          "name": "D7",
          "midi": 98,
          "time": 216.2577339999982,
          "velocity": 0.7874015748031497,
          "duration": 0.001077839583331297
        },
        {
          "name": "C7",
          "midi": 96,
          "time": 216.7750969999982,
          "velocity": 0.7874015748031497,
          "duration": 0.001077839583331297
        },
        {
          "name": "E7",
          "midi": 100,
          "time": 216.7750969999982,
          "velocity": 0.7874015748031497,
          "duration": 0.001077839583331297
        },
        {
          "name": "D#7",
          "midi": 99,
          "time": 217.2924599999982,
          "velocity": 0.7874015748031497,
          "duration": 0.001077839583331297
        },
        {
          "name": "C#7",
          "midi": 97,
          "time": 217.80982299999818,
          "velocity": 0.7874015748031497,
          "duration": 0.001077839583331297
        },
        {
          "name": "D#7",
          "midi": 99,
          "time": 217.80982299999818,
          "velocity": 0.7874015748031497,
          "duration": 0.001077839583331297
        },
        {
          "name": "D#7",
          "midi": 99,
          "time": 218.32718599999816,
          "velocity": 0.7874015748031497,
          "duration": 0.001077839583331297
        },
        {
          "name": "C7",
          "midi": 96,
          "time": 218.58478966041483,
          "velocity": 0.7874015748031497,
          "duration": 0.001077839583331297
        },
        {
          "name": "C7",
          "midi": 96,
          "time": 218.84454899999815,
          "velocity": 0.7874015748031497,
          "duration": 0.001077839583331297
        },
        {
          "name": "D#7",
          "midi": 99,
          "time": 218.84454899999815,
          "velocity": 0.7874015748031497,
          "duration": 0.001077839583331297
        },
        {
          "name": "C7",
          "midi": 96,
          "time": 219.36191199999814,
          "velocity": 0.7874015748031497,
          "duration": 0.001077839583331297
        },
        {
          "name": "D#7",
          "midi": 99,
          "time": 219.36191199999814,
          "velocity": 0.7874015748031497,
          "duration": 0.001077839583331297
        },
        {
          "name": "C#7",
          "midi": 97,
          "time": 219.87927499999813,
          "velocity": 0.7874015748031497,
          "duration": 0.001077839583331297
        },
        {
          "name": "D#7",
          "midi": 99,
          "time": 219.87927499999813,
          "velocity": 0.7874015748031497,
          "duration": 0.001077839583331297
        },
        {
          "name": "D8",
          "midi": 110,
          "time": 220.39663799999812,
          "velocity": 0.7874015748031497,
          "duration": 0.001077839583331297
        },
        {
          "name": "C#7",
          "midi": 97,
          "time": 220.39663799999812,
          "velocity": 0.7874015748031497,
          "duration": 0.001077839583331297
        },
        {
          "name": "D7",
          "midi": 98,
          "time": 220.39663799999812,
          "velocity": 0.7874015748031497,
          "duration": 0.001077839583331297
        },
        {
          "name": "C7",
          "midi": 96,
          "time": 220.9140009999981,
          "velocity": 0.7874015748031497,
          "duration": 0.001077839583331297
        },
        {
          "name": "E7",
          "midi": 100,
          "time": 220.9140009999981,
          "velocity": 0.7874015748031497,
          "duration": 0.001077839583331297
        },
        {
          "name": "D#7",
          "midi": 99,
          "time": 221.4313639999981,
          "velocity": 0.7874015748031497,
          "duration": 0.001077839583331297
        },
        {
          "name": "C#7",
          "midi": 97,
          "time": 221.9487269999981,
          "velocity": 0.7874015748031497,
          "duration": 0.001077839583331297
        },
        {
          "name": "D#7",
          "midi": 99,
          "time": 221.9487269999981,
          "velocity": 0.7874015748031497,
          "duration": 0.001077839583331297
        },
        {
          "name": "D#7",
          "midi": 99,
          "time": 222.46608999999808,
          "velocity": 0.7874015748031497,
          "duration": 0.001077839583331297
        },
        {
          "name": "C7",
          "midi": 96,
          "time": 222.72369366041474,
          "velocity": 0.7874015748031497,
          "duration": 0.001077839583331297
        },
        {
          "name": "C7",
          "midi": 96,
          "time": 222.98345299999806,
          "velocity": 0.7874015748031497,
          "duration": 0.001077839583331297
        },
        {
          "name": "E7",
          "midi": 100,
          "time": 222.98345299999806,
          "velocity": 0.7874015748031497,
          "duration": 0.001077839583331297
        },
        {
          "name": "C#7",
          "midi": 97,
          "time": 223.24213449999806,
          "velocity": 0.7874015748031497,
          "duration": 0.001077839583331297
        },
        {
          "name": "D#8",
          "midi": 111,
          "time": 223.50081599999805,
          "velocity": 0.7874015748031497,
          "duration": 0.001077839583331297
        },
        {
          "name": "D#7",
          "midi": 99,
          "time": 223.50081599999805,
          "velocity": 0.7874015748031497,
          "duration": 0.001077839583331297
        },
        {
          "name": "E8",
          "midi": 112,
          "time": 223.75841966041472,
          "velocity": 0.7874015748031497,
          "duration": 0.001077839583331297
        },
        {
          "name": "E7",
          "midi": 100,
          "time": 223.75841966041472,
          "velocity": 0.7874015748031497,
          "duration": 0.001077839583331297
        },
        {
          "name": "E8",
          "midi": 112,
          "time": 224.01817899999804,
          "velocity": 0.7874015748031497,
          "duration": 0.001077839583331297
        },
        {
          "name": "C7",
          "midi": 96,
          "time": 224.01817899999804,
          "velocity": 0.7874015748031497,
          "duration": 0.001077839583331297
        },
        {
          "name": "E7",
          "midi": 100,
          "time": 224.01817899999804,
          "velocity": 0.7874015748031497,
          "duration": 0.001077839583331297
        },
        {
          "name": "E8",
          "midi": 112,
          "time": 224.27686049999804,
          "velocity": 0.7874015748031497,
          "duration": 0.001077839583331297
        },
        {
          "name": "E7",
          "midi": 100,
          "time": 224.27686049999804,
          "velocity": 0.7874015748031497,
          "duration": 0.001077839583331297
        },
        {
          "name": "E8",
          "midi": 112,
          "time": 224.53554199999803,
          "velocity": 0.7874015748031497,
          "duration": 0.001077839583331297
        },
        {
          "name": "C7",
          "midi": 96,
          "time": 224.53554199999803,
          "velocity": 0.7874015748031497,
          "duration": 0.001077839583331297
        },
        {
          "name": "E7",
          "midi": 100,
          "time": 224.53554199999803,
          "velocity": 0.7874015748031497,
          "duration": 0.001077839583331297
        },
        {
          "name": "C7",
          "midi": 96,
          "time": 225.05290499999802,
          "velocity": 0.7874015748031497,
          "duration": 0.001077839583331297
        },
        {
          "name": "E7",
          "midi": 100,
          "time": 225.05290499999802,
          "velocity": 0.7874015748031497,
          "duration": 0.001077839583331297
        },
        {
          "name": "D#7",
          "midi": 99,
          "time": 225.56919016041468,
          "velocity": 0.7874015748031497,
          "duration": 0.001077839583331297
        },
        {
          "name": "C#7",
          "midi": 97,
          "time": 226.087630999998,
          "velocity": 0.7874015748031497,
          "duration": 0.001077839583331297
        },
        {
          "name": "D#7",
          "midi": 99,
          "time": 226.087630999998,
          "velocity": 0.7874015748031497,
          "duration": 0.001077839583331297
        },
        {
          "name": "D#7",
          "midi": 99,
          "time": 226.604993999998,
          "velocity": 0.7874015748031497,
          "duration": 0.001077839583331297
        },
        {
          "name": "C7",
          "midi": 96,
          "time": 226.86259766041465,
          "velocity": 0.7874015748031497,
          "duration": 0.001077839583331297
        },
        {
          "name": "C7",
          "midi": 96,
          "time": 227.12235699999798,
          "velocity": 0.7874015748031497,
          "duration": 0.001077839583331297
        },
        {
          "name": "D#7",
          "midi": 99,
          "time": 227.12235699999798,
          "velocity": 0.7874015748031497,
          "duration": 0.001077839583331297
        },
        {
          "name": "D#7",
          "midi": 99,
          "time": 227.63971999999796,
          "velocity": 0.7874015748031497,
          "duration": 0.001077839583331297
        },
        {
          "name": "C#7",
          "midi": 97,
          "time": 228.15708299999795,
          "velocity": 0.7874015748031497,
          "duration": 0.001077839583331297
        },
        {
          "name": "D#7",
          "midi": 99,
          "time": 228.15708299999795,
          "velocity": 0.7874015748031497,
          "duration": 0.001077839583331297
        },
        {
          "name": "D#7",
          "midi": 99,
          "time": 228.67444599999794,
          "velocity": 0.7874015748031497,
          "duration": 0.001077839583331297
        },
        {
          "name": "C7",
          "midi": 96,
          "time": 228.9320496604146,
          "velocity": 0.7874015748031497,
          "duration": 0.001077839583331297
        },
        {
          "name": "C7",
          "midi": 96,
          "time": 229.1907311604146,
          "velocity": 0.7874015748031497,
          "duration": 0.001077839583331297
        },
        {
          "name": "E7",
          "midi": 100,
          "time": 229.1907311604146,
          "velocity": 0.7874015748031497,
          "duration": 0.001077839583331297
        },
        {
          "name": "D#7",
          "midi": 99,
          "time": 229.70917199999792,
          "velocity": 0.7874015748031497,
          "duration": 0.001077839583331297
        },
        {
          "name": "C#7",
          "midi": 97,
          "time": 230.2265349999979,
          "velocity": 0.7874015748031497,
          "duration": 0.001077839583331297
        },
        {
          "name": "D#7",
          "midi": 99,
          "time": 230.2265349999979,
          "velocity": 0.7874015748031497,
          "duration": 0.001077839583331297
        },
        {
          "name": "D#7",
          "midi": 99,
          "time": 230.7438979999979,
          "velocity": 0.7874015748031497,
          "duration": 0.001077839583331297
        },
        {
          "name": "C7",
          "midi": 96,
          "time": 231.00042382083123,
          "velocity": 0.7874015748031497,
          "duration": 0.001077839583331297
        },
        {
          "name": "C7",
          "midi": 96,
          "time": 231.2612609999979,
          "velocity": 0.7874015748031497,
          "duration": 0.001077839583331297
        },
        {
          "name": "D#7",
          "midi": 99,
          "time": 231.2612609999979,
          "velocity": 0.7874015748031497,
          "duration": 0.001077839583331297
        },
        {
          "name": "C7",
          "midi": 96,
          "time": 233.3307129999979,
          "velocity": 0.7874015748031497,
          "duration": 0.001077839583331297
        },
        {
          "name": "E7",
          "midi": 100,
          "time": 233.3307129999979,
          "velocity": 0.7874015748031497,
          "duration": 0.001077839583331297
        },
        {
          "name": "D#7",
          "midi": 99,
          "time": 233.8480759999979,
          "velocity": 0.7874015748031497,
          "duration": 0.001077839583331297
        },
        {
          "name": "C#7",
          "midi": 97,
          "time": 234.36543899999788,
          "velocity": 0.7874015748031497,
          "duration": 0.001077839583331297
        },
        {
          "name": "D#7",
          "midi": 99,
          "time": 234.36543899999788,
          "velocity": 0.7874015748031497,
          "duration": 0.001077839583331297
        },
        {
          "name": "D#7",
          "midi": 99,
          "time": 234.88280199999787,
          "velocity": 0.7874015748031497,
          "duration": 0.001077839583331297
        },
        {
          "name": "C7",
          "midi": 96,
          "time": 235.1393278208312,
          "velocity": 0.7874015748031497,
          "duration": 0.001077839583331297
        },
        {
          "name": "C7",
          "midi": 96,
          "time": 235.40016499999786,
          "velocity": 0.7874015748031497,
          "duration": 0.001077839583331297
        },
        {
          "name": "D#7",
          "midi": 99,
          "time": 235.40016499999786,
          "velocity": 0.7874015748031497,
          "duration": 0.001077839583331297
        },
        {
          "name": "D#7",
          "midi": 99,
          "time": 235.91752799999784,
          "velocity": 0.7874015748031497,
          "duration": 0.001077839583331297
        },
        {
          "name": "C#7",
          "midi": 97,
          "time": 236.43489099999783,
          "velocity": 0.7874015748031497,
          "duration": 0.001077839583331297
        },
        {
          "name": "D#7",
          "midi": 99,
          "time": 236.43489099999783,
          "velocity": 0.7874015748031497,
          "duration": 0.001077839583331297
        },
        {
          "name": "D#7",
          "midi": 99,
          "time": 236.95225399999782,
          "velocity": 0.7874015748031497,
          "duration": 0.001077839583331297
        },
        {
          "name": "C7",
          "midi": 96,
          "time": 237.21093549999782,
          "velocity": 0.7874015748031497,
          "duration": 0.001077839583331297
        },
        {
          "name": "C7",
          "midi": 96,
          "time": 237.4696169999978,
          "velocity": 0.7874015748031497,
          "duration": 0.001077839583331297
        },
        {
          "name": "D#7",
          "midi": 99,
          "time": 237.4696169999978,
          "velocity": 0.7874015748031497,
          "duration": 0.001077839583331297
        },
        {
          "name": "D#7",
          "midi": 99,
          "time": 237.9869799999978,
          "velocity": 0.7874015748031497,
          "duration": 0.001077839583331297
        },
        {
          "name": "C#7",
          "midi": 97,
          "time": 238.5043429999978,
          "velocity": 0.7874015748031497,
          "duration": 0.001077839583331297
        },
        {
          "name": "D#7",
          "midi": 99,
          "time": 238.5043429999978,
          "velocity": 0.7874015748031497,
          "duration": 0.001077839583331297
        },
        {
          "name": "D#7",
          "midi": 99,
          "time": 239.02170599999778,
          "velocity": 0.7874015748031497,
          "duration": 0.001077839583331297
        },
        {
          "name": "C7",
          "midi": 96,
          "time": 239.27930966041444,
          "velocity": 0.7874015748031497,
          "duration": 0.001077839583331297
        },
        {
          "name": "C7",
          "midi": 96,
          "time": 239.53799116041444,
          "velocity": 0.7874015748031497,
          "duration": 0.001077839583331297
        },
        {
          "name": "D#7",
          "midi": 99,
          "time": 239.53799116041444,
          "velocity": 0.7874015748031497,
          "duration": 0.001077839583331297
        },
        {
          "name": "C7",
          "midi": 96,
          "time": 240.05643199999776,
          "velocity": 0.7874015748031497,
          "duration": 0.001077839583331297
        },
        {
          "name": "D#7",
          "midi": 99,
          "time": 240.05643199999776,
          "velocity": 0.7874015748031497,
          "duration": 0.001077839583331297
        },
        {
          "name": "C#7",
          "midi": 97,
          "time": 240.5727171604144,
          "velocity": 0.7874015748031497,
          "duration": 0.001077839583331297
        },
        {
          "name": "D#7",
          "midi": 99,
          "time": 240.5727171604144,
          "velocity": 0.7874015748031497,
          "duration": 0.001077839583331297
        },
        {
          "name": "D#7",
          "midi": 99,
          "time": 241.09115799999773,
          "velocity": 0.7874015748031497,
          "duration": 0.001077839583331297
        },
        {
          "name": "C7",
          "midi": 96,
          "time": 241.6074431604144,
          "velocity": 0.7874015748031497,
          "duration": 0.001077839583331297
        },
        {
          "name": "D#7",
          "midi": 99,
          "time": 241.6074431604144,
          "velocity": 0.7874015748031497,
          "duration": 0.001077839583331297
        },
        {
          "name": "C7",
          "midi": 96,
          "time": 242.1258839999977,
          "velocity": 0.7874015748031497,
          "duration": 0.001077839583331297
        },
        {
          "name": "D#7",
          "midi": 99,
          "time": 242.1258839999977,
          "velocity": 0.7874015748031497,
          "duration": 0.001077839583331297
        },
        {
          "name": "C#7",
          "midi": 97,
          "time": 242.6432469999977,
          "velocity": 0.7874015748031497,
          "duration": 0.001077839583331297
        },
        {
          "name": "D#7",
          "midi": 99,
          "time": 242.6432469999977,
          "velocity": 0.7874015748031497,
          "duration": 0.001077839583331297
        },
        {
          "name": "D#7",
          "midi": 99,
          "time": 243.15953216041436,
          "velocity": 0.7874015748031497,
          "duration": 0.001077839583331297
        },
        {
          "name": "C7",
          "midi": 96,
          "time": 243.41713582083102,
          "velocity": 0.7874015748031497,
          "duration": 0.001077839583331297
        },
        {
          "name": "D#7",
          "midi": 99,
          "time": 243.67797299999768,
          "velocity": 0.7874015748031497,
          "duration": 0.001077839583331297
        },
        {
          "name": "C7",
          "midi": 96,
          "time": 243.93665449999767,
          "velocity": 0.7874015748031497,
          "duration": 0.001077839583331297
        },
        {
          "name": "C7",
          "midi": 96,
          "time": 244.19533599999767,
          "velocity": 0.7874015748031497,
          "duration": 0.001077839583331297
        },
        {
          "name": "D#7",
          "midi": 99,
          "time": 244.19533599999767,
          "velocity": 0.7874015748031497,
          "duration": 0.001077839583331297
        },
        {
          "name": "C#7",
          "midi": 97,
          "time": 244.71269899999766,
          "velocity": 0.7874015748031497,
          "duration": 0.001077839583331297
        },
        {
          "name": "D#7",
          "midi": 99,
          "time": 244.71269899999766,
          "velocity": 0.7874015748031497,
          "duration": 0.001077839583331297
        },
        {
          "name": "D#7",
          "midi": 99,
          "time": 245.23006199999764,
          "velocity": 0.7874015748031497,
          "duration": 0.001077839583331297
        },
        {
          "name": "C7",
          "midi": 96,
          "time": 245.74742499999763,
          "velocity": 0.7874015748031497,
          "duration": 0.001077839583331297
        },
        {
          "name": "D#7",
          "midi": 99,
          "time": 245.74742499999763,
          "velocity": 0.7874015748031497,
          "duration": 0.001077839583331297
        },
        {
          "name": "C7",
          "midi": 96,
          "time": 246.26478799999762,
          "velocity": 0.7874015748031497,
          "duration": 0.001077839583331297
        },
        {
          "name": "D#7",
          "midi": 99,
          "time": 246.26478799999762,
          "velocity": 0.7874015748031497,
          "duration": 0.001077839583331297
        },
        {
          "name": "C#7",
          "midi": 97,
          "time": 246.7821509999976,
          "velocity": 0.7874015748031497,
          "duration": 0.001077839583331297
        },
        {
          "name": "D#7",
          "midi": 99,
          "time": 246.7821509999976,
          "velocity": 0.7874015748031497,
          "duration": 0.001077839583331297
        },
        {
          "name": "D#7",
          "midi": 99,
          "time": 247.2995139999976,
          "velocity": 0.7874015748031497,
          "duration": 0.001077839583331297
        },
        {
          "name": "C7",
          "midi": 96,
          "time": 247.55711766041426,
          "velocity": 0.7874015748031497,
          "duration": 0.001077839583331297
        },
        {
          "name": "D#7",
          "midi": 99,
          "time": 247.8168769999976,
          "velocity": 0.7874015748031497,
          "duration": 0.001077839583331297
        },
        {
          "name": "C7",
          "midi": 96,
          "time": 248.33423999999758,
          "velocity": 0.7874015748031497,
          "duration": 0.001077839583331297
        },
        {
          "name": "D#7",
          "midi": 99,
          "time": 248.33423999999758,
          "velocity": 0.7874015748031497,
          "duration": 0.001077839583331297
        },
        {
          "name": "C#7",
          "midi": 97,
          "time": 248.85160299999757,
          "velocity": 0.7874015748031497,
          "duration": 0.001077839583331297
        },
        {
          "name": "D#7",
          "midi": 99,
          "time": 248.85160299999757,
          "velocity": 0.7874015748031497,
          "duration": 0.001077839583331297
        },
        {
          "name": "D#7",
          "midi": 99,
          "time": 249.36896599999756,
          "velocity": 0.7874015748031497,
          "duration": 0.001077839583331297
        },
        {
          "name": "C7",
          "midi": 96,
          "time": 249.88632899999754,
          "velocity": 0.7874015748031497,
          "duration": 0.001077839583331297
        },
        {
          "name": "D#7",
          "midi": 99,
          "time": 249.88632899999754,
          "velocity": 0.7874015748031497,
          "duration": 0.001077839583331297
        },
        {
          "name": "C7",
          "midi": 96,
          "time": 250.40369199999753,
          "velocity": 0.7874015748031497,
          "duration": 0.001077839583331297
        },
        {
          "name": "D#7",
          "midi": 99,
          "time": 250.40369199999753,
          "velocity": 0.7874015748031497,
          "duration": 0.001077839583331297
        },
        {
          "name": "C#7",
          "midi": 97,
          "time": 250.92105499999752,
          "velocity": 0.7874015748031497,
          "duration": 0.001077839583331297
        },
        {
          "name": "D#7",
          "midi": 99,
          "time": 250.92105499999752,
          "velocity": 0.7874015748031497,
          "duration": 0.001077839583331297
        },
        {
          "name": "D#7",
          "midi": 99,
          "time": 251.4384179999975,
          "velocity": 0.7874015748031497,
          "duration": 0.001077839583331297
        },
        {
          "name": "C7",
          "midi": 96,
          "time": 251.69602166041417,
          "velocity": 0.7874015748031497,
          "duration": 0.001077839583331297
        },
        {
          "name": "D#7",
          "midi": 99,
          "time": 251.9557809999975,
          "velocity": 0.7874015748031497,
          "duration": 0.001077839583331297
        },
        {
          "name": "C7",
          "midi": 96,
          "time": 252.2144624999975,
          "velocity": 0.7874015748031497,
          "duration": 0.001077839583331297
        },
        {
          "name": "C7",
          "midi": 96,
          "time": 252.47206616041416,
          "velocity": 0.7874015748031497,
          "duration": 0.001077839583331297
        },
        {
          "name": "D#7",
          "midi": 99,
          "time": 252.47206616041416,
          "velocity": 0.7874015748031497,
          "duration": 0.001077839583331297
        },
        {
          "name": "C#7",
          "midi": 97,
          "time": 252.99050699999748,
          "velocity": 0.7874015748031497,
          "duration": 0.001077839583331297
        },
        {
          "name": "D#7",
          "midi": 99,
          "time": 252.99050699999748,
          "velocity": 0.7874015748031497,
          "duration": 0.001077839583331297
        },
        {
          "name": "D#7",
          "midi": 99,
          "time": 253.50786999999747,
          "velocity": 0.7874015748031497,
          "duration": 0.001077839583331297
        },
        {
          "name": "C7",
          "midi": 96,
          "time": 254.02523299999746,
          "velocity": 0.7874015748031497,
          "duration": 0.001077839583331297
        },
        {
          "name": "D#7",
          "midi": 99,
          "time": 254.02523299999746,
          "velocity": 0.7874015748031497,
          "duration": 0.001077839583331297
        },
        {
          "name": "C7",
          "midi": 96,
          "time": 254.54259599999745,
          "velocity": 0.7874015748031497,
          "duration": 0.001077839583331297
        },
        {
          "name": "D#7",
          "midi": 99,
          "time": 254.54259599999745,
          "velocity": 0.7874015748031497,
          "duration": 0.001077839583331297
        },
        {
          "name": "C#7",
          "midi": 97,
          "time": 255.05995899999743,
          "velocity": 0.7874015748031497,
          "duration": 0.001077839583331297
        },
        {
          "name": "D#7",
          "midi": 99,
          "time": 255.05995899999743,
          "velocity": 0.7874015748031497,
          "duration": 0.001077839583331297
        },
        {
          "name": "D#7",
          "midi": 99,
          "time": 255.57732199999742,
          "velocity": 0.7874015748031497,
          "duration": 0.001077839583331297
        },
        {
          "name": "C7",
          "midi": 96,
          "time": 255.83384782083075,
          "velocity": 0.7874015748031497,
          "duration": 0.001077839583331297
        },
        {
          "name": "D#7",
          "midi": 99,
          "time": 256.0946849999974,
          "velocity": 0.7874015748031497,
          "duration": 0.001077839583331297
        },
        {
          "name": "C7",
          "midi": 96,
          "time": 256.35336649999743,
          "velocity": 0.7874015748031497,
          "duration": 0.001077839583331297
        },
        {
          "name": "C7",
          "midi": 96,
          "time": 256.61204799999746,
          "velocity": 0.7874015748031497,
          "duration": 0.001077839583331297
        },
        {
          "name": "D#7",
          "midi": 99,
          "time": 256.61204799999746,
          "velocity": 0.7874015748031497,
          "duration": 0.001077839583331297
        },
        {
          "name": "C#7",
          "midi": 97,
          "time": 257.12941099999745,
          "velocity": 0.7874015748031497,
          "duration": 0.001077839583331297
        },
        {
          "name": "D#7",
          "midi": 99,
          "time": 257.12941099999745,
          "velocity": 0.7874015748031497,
          "duration": 0.001077839583331297
        },
        {
          "name": "D#7",
          "midi": 99,
          "time": 257.64677399999744,
          "velocity": 0.7874015748031497,
          "duration": 0.001077839583331297
        },
        {
          "name": "C7",
          "midi": 96,
          "time": 258.1641369999974,
          "velocity": 0.7874015748031497,
          "duration": 0.001077839583331297
        },
        {
          "name": "D#7",
          "midi": 99,
          "time": 258.1641369999974,
          "velocity": 0.7874015748031497,
          "duration": 0.001077839583331297
        },
        {
          "name": "C7",
          "midi": 96,
          "time": 258.6814999999974,
          "velocity": 0.7874015748031497,
          "duration": 0.001077839583331297
        },
        {
          "name": "D#7",
          "midi": 99,
          "time": 258.6814999999974,
          "velocity": 0.7874015748031497,
          "duration": 0.001077839583331297
        },
        {
          "name": "C#7",
          "midi": 97,
          "time": 259.1988629999974,
          "velocity": 0.7874015748031497,
          "duration": 0.001077839583331297
        },
        {
          "name": "D#7",
          "midi": 99,
          "time": 259.1988629999974,
          "velocity": 0.7874015748031497,
          "duration": 0.001077839583331297
        },
        {
          "name": "D#7",
          "midi": 99,
          "time": 259.7162259999974,
          "velocity": 0.7874015748031497,
          "duration": 0.001077839583331297
        },
        {
          "name": "C7",
          "midi": 96,
          "time": 259.9738296604141,
          "velocity": 0.7874015748031497,
          "duration": 0.001077839583331297
        },
        {
          "name": "D#7",
          "midi": 99,
          "time": 260.23358899999744,
          "velocity": 0.7874015748031497,
          "duration": 0.001077839583331297
        },
        {
          "name": "C7",
          "midi": 96,
          "time": 260.49227049999746,
          "velocity": 0.7874015748031497,
          "duration": 0.001077839583331297
        },
        {
          "name": "C7",
          "midi": 96,
          "time": 260.7509519999975,
          "velocity": 0.7874015748031497,
          "duration": 0.001077839583331297
        },
        {
          "name": "D#7",
          "midi": 99,
          "time": 260.7509519999975,
          "velocity": 0.7874015748031497,
          "duration": 0.001077839583331297
        },
        {
          "name": "C#7",
          "midi": 97,
          "time": 261.2683149999975,
          "velocity": 0.7874015748031497,
          "duration": 0.001077839583331297
        },
        {
          "name": "D#7",
          "midi": 99,
          "time": 261.2683149999975,
          "velocity": 0.7874015748031497,
          "duration": 0.001077839583331297
        },
        {
          "name": "D#7",
          "midi": 99,
          "time": 261.78567799999746,
          "velocity": 0.7874015748031497,
          "duration": 0.001077839583331297
        },
        {
          "name": "C7",
          "midi": 96,
          "time": 262.30304099999745,
          "velocity": 0.7874015748031497,
          "duration": 0.001077839583331297
        },
        {
          "name": "D#7",
          "midi": 99,
          "time": 262.30304099999745,
          "velocity": 0.7874015748031497,
          "duration": 0.001077839583331297
        },
        {
          "name": "C7",
          "midi": 96,
          "time": 262.82040399999744,
          "velocity": 0.7874015748031497,
          "duration": 0.001077839583331297
        },
        {
          "name": "D#7",
          "midi": 99,
          "time": 262.82040399999744,
          "velocity": 0.7874015748031497,
          "duration": 0.001077839583331297
        },
        {
          "name": "C#7",
          "midi": 97,
          "time": 263.3377669999974,
          "velocity": 0.7874015748031497,
          "duration": 0.001077839583331297
        },
        {
          "name": "D#7",
          "midi": 99,
          "time": 263.3377669999974,
          "velocity": 0.7874015748031497,
          "duration": 0.001077839583331297
        },
        {
          "name": "D#7",
          "midi": 99,
          "time": 263.8540521604141,
          "velocity": 0.7874015748031497,
          "duration": 0.001077839583331297
        },
        {
          "name": "C7",
          "midi": 96,
          "time": 264.1116558208308,
          "velocity": 0.7874015748031497,
          "duration": 0.001077839583331297
        },
        {
          "name": "C7",
          "midi": 96,
          "time": 264.37249299999746,
          "velocity": 0.7874015748031497,
          "duration": 0.001077839583331297
        },
        {
          "name": "D#7",
          "midi": 99,
          "time": 264.37249299999746,
          "velocity": 0.7874015748031497,
          "duration": 0.001077839583331297
        },
        {
          "name": "C7",
          "midi": 96,
          "time": 264.88985599999745,
          "velocity": 0.7874015748031497,
          "duration": 0.001077839583331297
        },
        {
          "name": "D#7",
          "midi": 99,
          "time": 264.88985599999745,
          "velocity": 0.7874015748031497,
          "duration": 0.001077839583331297
        },
        {
          "name": "C#7",
          "midi": 97,
          "time": 265.4061411604141,
          "velocity": 0.7874015748031497,
          "duration": 0.001077839583331297
        },
        {
          "name": "E7",
          "midi": 100,
          "time": 265.4061411604141,
          "velocity": 0.7874015748031497,
          "duration": 0.001077839583331297
        },
        {
          "name": "E8",
          "midi": 112,
          "time": 265.92458199999743,
          "velocity": 0.7874015748031497,
          "duration": 0.001077839583331297
        },
        {
          "name": "D#8",
          "midi": 111,
          "time": 265.92458199999743,
          "velocity": 0.7874015748031497,
          "duration": 0.001077839583331297
        },
        {
          "name": "D#7",
          "midi": 99,
          "time": 265.92458199999743,
          "velocity": 0.7874015748031497,
          "duration": 0.001077839583331297
        },
        {
          "name": "E7",
          "midi": 100,
          "time": 265.92458199999743,
          "velocity": 0.7874015748031497,
          "duration": 0.001077839583331297
        },
        {
          "name": "C7",
          "midi": 96,
          "time": 266.4419449999974,
          "velocity": 0.7874015748031497,
          "duration": 0.001077839583331297
        },
        {
          "name": "E7",
          "midi": 100,
          "time": 266.4419449999974,
          "velocity": 0.7874015748031497,
          "duration": 0.001077839583331297
        },
        {
          "name": "D#7",
          "midi": 99,
          "time": 266.9593079999974,
          "velocity": 0.7874015748031497,
          "duration": 0.001077839583331297
        },
        {
          "name": "C7",
          "midi": 96,
          "time": 267.21798949999743,
          "velocity": 0.7874015748031497,
          "duration": 0.001077839583331297
        },
        {
          "name": "C#7",
          "midi": 97,
          "time": 267.47667099999745,
          "velocity": 0.7874015748031497,
          "duration": 0.001077839583331297
        },
        {
          "name": "E7",
          "midi": 100,
          "time": 267.47667099999745,
          "velocity": 0.7874015748031497,
          "duration": 0.001077839583331297
        },
        {
          "name": "E7",
          "midi": 100,
          "time": 267.99403399999744,
          "velocity": 0.7874015748031497,
          "duration": 0.001077839583331297
        },
        {
          "name": "C7",
          "midi": 96,
          "time": 268.51139699999743,
          "velocity": 0.7874015748031497,
          "duration": 0.001077839583331297
        },
        {
          "name": "C#7",
          "midi": 97,
          "time": 268.7690006604141,
          "velocity": 0.7874015748031497,
          "duration": 0.001077839583331297
        },
        {
          "name": "D8",
          "midi": 110,
          "time": 269.0287599999975,
          "velocity": 0.7874015748031497,
          "duration": 0.001077839583331297
        },
        {
          "name": "D7",
          "midi": 98,
          "time": 269.0287599999975,
          "velocity": 0.7874015748031497,
          "duration": 0.001077839583331297
        },
        {
          "name": "C7",
          "midi": 96,
          "time": 269.54504516041413,
          "velocity": 0.7874015748031497,
          "duration": 0.001077839583331297
        },
        {
          "name": "D8",
          "midi": 110,
          "time": 269.80372666041416,
          "velocity": 0.7874015748031497,
          "duration": 0.001077839583331297
        },
        {
          "name": "D7",
          "midi": 98,
          "time": 269.80372666041416,
          "velocity": 0.7874015748031497,
          "duration": 0.001077839583331297
        },
        {
          "name": "D#8",
          "midi": 111,
          "time": 270.0624081604142,
          "velocity": 0.7874015748031497,
          "duration": 0.001077839583331297
        },
        {
          "name": "D#7",
          "midi": 99,
          "time": 270.0624081604142,
          "velocity": 0.7874015748031497,
          "duration": 0.001077839583331297
        },
        {
          "name": "C7",
          "midi": 96,
          "time": 270.57977116041417,
          "velocity": 0.7874015748031497,
          "duration": 0.001077839583331297
        },
        {
          "name": "E7",
          "midi": 100,
          "time": 270.57977116041417,
          "velocity": 0.7874015748031497,
          "duration": 0.001077839583331297
        },
        {
          "name": "C#7",
          "midi": 97,
          "time": 271.0982119999975,
          "velocity": 0.7874015748031497,
          "duration": 0.001077839583331297
        },
        {
          "name": "D8",
          "midi": 110,
          "time": 271.3568934999975,
          "velocity": 0.7874015748031497,
          "duration": 0.001077839583331297
        },
        {
          "name": "C7",
          "midi": 96,
          "time": 271.3568934999975,
          "velocity": 0.7874015748031497,
          "duration": 0.001077839583331297
        },
        {
          "name": "D7",
          "midi": 98,
          "time": 271.3568934999975,
          "velocity": 0.7874015748031497,
          "duration": 0.001077839583331297
        },
        {
          "name": "D8",
          "midi": 110,
          "time": 271.8742564999975,
          "velocity": 0.7874015748031497,
          "duration": 0.001077839583331297
        },
        {
          "name": "C7",
          "midi": 96,
          "time": 271.8742564999975,
          "velocity": 0.7874015748031497,
          "duration": 0.001077839583331297
        },
        {
          "name": "D7",
          "midi": 98,
          "time": 271.8742564999975,
          "velocity": 0.7874015748031497,
          "duration": 0.001077839583331297
        },
        {
          "name": "C#7",
          "midi": 97,
          "time": 272.1329379999975,
          "velocity": 0.7874015748031497,
          "duration": 0.001077839583331297
        },
        {
          "name": "C#7",
          "midi": 97,
          "time": 272.6503009999975,
          "velocity": 0.7874015748031497,
          "duration": 0.001077839583331297
        },
        {
          "name": "D#8",
          "midi": 111,
          "time": 272.90898249999753,
          "velocity": 0.7874015748031497,
          "duration": 0.001077839583331297
        },
        {
          "name": "C7",
          "midi": 96,
          "time": 272.90898249999753,
          "velocity": 0.7874015748031497,
          "duration": 0.001077839583331297
        },
        {
          "name": "D#7",
          "midi": 99,
          "time": 272.90898249999753,
          "velocity": 0.7874015748031497,
          "duration": 0.001077839583331297
        },
        {
          "name": "D#8",
          "midi": 111,
          "time": 273.4263454999975,
          "velocity": 0.7874015748031497,
          "duration": 0.001077839583331297
        },
        {
          "name": "C7",
          "midi": 96,
          "time": 273.4263454999975,
          "velocity": 0.7874015748031497,
          "duration": 0.001077839583331297
        },
        {
          "name": "D#7",
          "midi": 99,
          "time": 273.4263454999975,
          "velocity": 0.7874015748031497,
          "duration": 0.001077839583331297
        },
        {
          "name": "E8",
          "midi": 112,
          "time": 273.68502699999755,
          "velocity": 0.7874015748031497,
          "duration": 0.001077839583331297
        },
        {
          "name": "C7",
          "midi": 96,
          "time": 273.68502699999755,
          "velocity": 0.7874015748031497,
          "duration": 0.001077839583331297
        },
        {
          "name": "E7",
          "midi": 100,
          "time": 273.68502699999755,
          "velocity": 0.7874015748031497,
          "duration": 0.001077839583331297
        },
        {
          "name": "E8",
          "midi": 112,
          "time": 273.94370849999757,
          "velocity": 0.7874015748031497,
          "duration": 0.001077839583331297
        },
        {
          "name": "E7",
          "midi": 100,
          "time": 273.94370849999757,
          "velocity": 0.7874015748031497,
          "duration": 0.001077839583331297
        },
        {
          "name": "E8",
          "midi": 112,
          "time": 274.2023899999976,
          "velocity": 0.7874015748031497,
          "duration": 0.001077839583331297
        },
        {
          "name": "C7",
          "midi": 96,
          "time": 274.2023899999976,
          "velocity": 0.7874015748031497,
          "duration": 0.001077839583331297
        },
        {
          "name": "E7",
          "midi": 100,
          "time": 274.2023899999976,
          "velocity": 0.7874015748031497,
          "duration": 0.001077839583331297
        },
        {
          "name": "E8",
          "midi": 112,
          "time": 274.4610714999976,
          "velocity": 0.7874015748031497,
          "duration": 0.001077839583331297
        },
        {
          "name": "E7",
          "midi": 100,
          "time": 274.4610714999976,
          "velocity": 0.7874015748031497,
          "duration": 0.001077839583331297
        },
        {
          "name": "C7",
          "midi": 96,
          "time": 274.71975299999764,
          "velocity": 0.7874015748031497,
          "duration": 0.001077839583331297
        },
        {
          "name": "E7",
          "midi": 100,
          "time": 274.71975299999764,
          "velocity": 0.7874015748031497,
          "duration": 0.001077839583331297
        },
        {
          "name": "D#7",
          "midi": 99,
          "time": 275.2360381604143,
          "velocity": 0.7874015748031497,
          "duration": 0.001077839583331297
        },
        {
          "name": "C#7",
          "midi": 97,
          "time": 275.7544789999976,
          "velocity": 0.7874015748031497,
          "duration": 0.001077839583331297
        },
        {
          "name": "D#7",
          "midi": 99,
          "time": 275.7544789999976,
          "velocity": 0.7874015748031497,
          "duration": 0.001077839583331297
        },
        {
          "name": "D#7",
          "midi": 99,
          "time": 276.2718419999976,
          "velocity": 0.7874015748031497,
          "duration": 0.001077839583331297
        },
        {
          "name": "C7",
          "midi": 96,
          "time": 276.7892049999976,
          "velocity": 0.7874015748031497,
          "duration": 0.001077839583331297
        },
        {
          "name": "D#7",
          "midi": 99,
          "time": 276.7892049999976,
          "velocity": 0.7874015748031497,
          "duration": 0.001077839583331297
        },
        {
          "name": "C7",
          "midi": 96,
          "time": 277.3065679999976,
          "velocity": 0.7874015748031497,
          "duration": 0.001077839583331297
        },
        {
          "name": "D#7",
          "midi": 99,
          "time": 277.3065679999976,
          "velocity": 0.7874015748031497,
          "duration": 0.001077839583331297
        },
        {
          "name": "C#7",
          "midi": 97,
          "time": 277.8239309999976,
          "velocity": 0.7874015748031497,
          "duration": 0.001077839583331297
        },
        {
          "name": "D#7",
          "midi": 99,
          "time": 277.8239309999976,
          "velocity": 0.7874015748031497,
          "duration": 0.001077839583331297
        },
        {
          "name": "D#7",
          "midi": 99,
          "time": 278.34129399999756,
          "velocity": 0.7874015748031497,
          "duration": 0.001077839583331297
        },
        {
          "name": "C7",
          "midi": 96,
          "time": 278.5999754999976,
          "velocity": 0.7874015748031497,
          "duration": 0.001077839583331297
        },
        {
          "name": "C7",
          "midi": 96,
          "time": 278.8575791604143,
          "velocity": 0.7874015748031497,
          "duration": 0.001077839583331297
        },
        {
          "name": "D#7",
          "midi": 99,
          "time": 278.8575791604143,
          "velocity": 0.7874015748031497,
          "duration": 0.001077839583331297
        },
        {
          "name": "C7",
          "midi": 96,
          "time": 279.3760199999976,
          "velocity": 0.7874015748031497,
          "duration": 0.001077839583331297
        },
        {
          "name": "D#7",
          "midi": 99,
          "time": 279.3760199999976,
          "velocity": 0.7874015748031497,
          "duration": 0.001077839583331297
        },
        {
          "name": "C#7",
          "midi": 97,
          "time": 279.8933829999976,
          "velocity": 0.7874015748031497,
          "duration": 0.001077839583331297
        },
        {
          "name": "D#7",
          "midi": 99,
          "time": 279.8933829999976,
          "velocity": 0.7874015748031497,
          "duration": 0.001077839583331297
        },
        {
          "name": "D#7",
          "midi": 99,
          "time": 280.4107459999976,
          "velocity": 0.7874015748031497,
          "duration": 0.001077839583331297
        },
        {
          "name": "C7",
          "midi": 96,
          "time": 280.6672718208309,
          "velocity": 0.7874015748031497,
          "duration": 0.001077839583331297
        },
        {
          "name": "C7",
          "midi": 96,
          "time": 280.92810899999756,
          "velocity": 0.7874015748031497,
          "duration": 0.001077839583331297
        },
        {
          "name": "D#7",
          "midi": 99,
          "time": 280.92810899999756,
          "velocity": 0.7874015748031497,
          "duration": 0.001077839583331297
        },
        {
          "name": "C7",
          "midi": 96,
          "time": 281.44547199999755,
          "velocity": 0.7874015748031497,
          "duration": 0.001077839583331297
        },
        {
          "name": "D#7",
          "midi": 99,
          "time": 281.44547199999755,
          "velocity": 0.7874015748031497,
          "duration": 0.001077839583331297
        },
        {
          "name": "C#7",
          "midi": 97,
          "time": 281.96283499999754,
          "velocity": 0.7874015748031497,
          "duration": 0.001077839583331297
        },
        {
          "name": "D#7",
          "midi": 99,
          "time": 281.96283499999754,
          "velocity": 0.7874015748031497,
          "duration": 0.001077839583331297
        },
        {
          "name": "C7",
          "midi": 96,
          "time": 282.22151649999756,
          "velocity": 0.7874015748031497,
          "duration": 0.001077839583331297
        },
        {
          "name": "D#7",
          "midi": 99,
          "time": 282.47912016041425,
          "velocity": 0.7874015748031497,
          "duration": 0.001077839583331297
        },
        {
          "name": "C7",
          "midi": 96,
          "time": 282.7378016604143,
          "velocity": 0.7874015748031497,
          "duration": 0.001077839583331297
        },
        {
          "name": "C7",
          "midi": 96,
          "time": 282.9964831604143,
          "velocity": 0.7874015748031497,
          "duration": 0.001077839583331297
        },
        {
          "name": "E7",
          "midi": 100,
          "time": 282.9964831604143,
          "velocity": 0.7874015748031497,
          "duration": 0.001077839583331297
        },
        {
          "name": "D#7",
          "midi": 99,
          "time": 283.5149239999976,
          "velocity": 0.7874015748031497,
          "duration": 0.001077839583331297
        },
        {
          "name": "C7",
          "midi": 96,
          "time": 284.0322869999976,
          "velocity": 0.7874015748031497,
          "duration": 0.001077839583331297
        },
        {
          "name": "C#7",
          "midi": 97,
          "time": 284.0322869999976,
          "velocity": 0.7874015748031497,
          "duration": 0.001077839583331297
        },
        {
          "name": "D#7",
          "midi": 99,
          "time": 284.0322869999976,
          "velocity": 0.7874015748031497,
          "duration": 0.001077839583331297
        },
        {
          "name": "D#7",
          "midi": 99,
          "time": 284.5496499999976,
          "velocity": 0.7874015748031497,
          "duration": 0.001077839583331297
        },
        {
          "name": "C7",
          "midi": 96,
          "time": 285.0670129999976,
          "velocity": 0.7874015748031497,
          "duration": 0.001077839583331297
        },
        {
          "name": "D#7",
          "midi": 99,
          "time": 285.0670129999976,
          "velocity": 0.7874015748031497,
          "duration": 0.001077839583331297
        },
        {
          "name": "C7",
          "midi": 96,
          "time": 285.5843759999976,
          "velocity": 0.7874015748031497,
          "duration": 0.001077839583331297
        },
        {
          "name": "D#7",
          "midi": 99,
          "time": 285.5843759999976,
          "velocity": 0.7874015748031497,
          "duration": 0.001077839583331297
        },
        {
          "name": "C#7",
          "midi": 97,
          "time": 286.10173899999756,
          "velocity": 0.7874015748031497,
          "duration": 0.001077839583331297
        },
        {
          "name": "D#7",
          "midi": 99,
          "time": 286.10173899999756,
          "velocity": 0.7874015748031497,
          "duration": 0.001077839583331297
        },
        {
          "name": "D#7",
          "midi": 99,
          "time": 286.61910199999755,
          "velocity": 0.7874015748031497,
          "duration": 0.001077839583331297
        },
        {
          "name": "C7",
          "midi": 96,
          "time": 286.8777834999976,
          "velocity": 0.7874015748031497,
          "duration": 0.001077839583331297
        },
        {
          "name": "D#7",
          "midi": 99,
          "time": 287.13538716041427,
          "velocity": 0.7874015748031497,
          "duration": 0.001077839583331297
        },
        {
          "name": "C7",
          "midi": 96,
          "time": 287.65275016041426,
          "velocity": 0.7874015748031497,
          "duration": 0.001077839583331297
        },
        {
          "name": "D#7",
          "midi": 99,
          "time": 287.65275016041426,
          "velocity": 0.7874015748031497,
          "duration": 0.001077839583331297
        },
        {
          "name": "C#7",
          "midi": 97,
          "time": 288.1711909999976,
          "velocity": 0.7874015748031497,
          "duration": 0.001077839583331297
        },
        {
          "name": "D#7",
          "midi": 99,
          "time": 288.1711909999976,
          "velocity": 0.7874015748031497,
          "duration": 0.001077839583331297
        },
        {
          "name": "D#7",
          "midi": 99,
          "time": 288.68855399999757,
          "velocity": 0.7874015748031497,
          "duration": 0.001077839583331297
        },
        {
          "name": "C7",
          "midi": 96,
          "time": 289.20591699999756,
          "velocity": 0.7874015748031497,
          "duration": 0.001077839583331297
        },
        {
          "name": "D#7",
          "midi": 99,
          "time": 289.20591699999756,
          "velocity": 0.7874015748031497,
          "duration": 0.001077839583331297
        },
        {
          "name": "C7",
          "midi": 96,
          "time": 289.72327999999754,
          "velocity": 0.7874015748031497,
          "duration": 0.001077839583331297
        },
        {
          "name": "D#7",
          "midi": 99,
          "time": 289.72327999999754,
          "velocity": 0.7874015748031497,
          "duration": 0.001077839583331297
        },
        {
          "name": "C#7",
          "midi": 97,
          "time": 290.24064299999753,
          "velocity": 0.7874015748031497,
          "duration": 0.001077839583331297
        },
        {
          "name": "D#7",
          "midi": 99,
          "time": 290.24064299999753,
          "velocity": 0.7874015748031497,
          "duration": 0.001077839583331297
        },
        {
          "name": "D#7",
          "midi": 99,
          "time": 290.7580059999975,
          "velocity": 0.7874015748031497,
          "duration": 0.001077839583331297
        },
        {
          "name": "C7",
          "midi": 96,
          "time": 291.2753689999975,
          "velocity": 0.7874015748031497,
          "duration": 0.001077839583331297
        },
        {
          "name": "D#7",
          "midi": 99,
          "time": 291.2753689999975,
          "velocity": 0.7874015748031497,
          "duration": 0.001077839583331297
        },
        {
          "name": "C7",
          "midi": 96,
          "time": 291.7927319999975,
          "velocity": 0.7874015748031497,
          "duration": 0.001077839583331297
        },
        {
          "name": "D#7",
          "midi": 99,
          "time": 291.7927319999975,
          "velocity": 0.7874015748031497,
          "duration": 0.001077839583331297
        },
        {
          "name": "C#7",
          "midi": 97,
          "time": 292.3100949999975,
          "velocity": 0.7874015748031497,
          "duration": 0.001077839583331297
        },
        {
          "name": "D#7",
          "midi": 99,
          "time": 292.3100949999975,
          "velocity": 0.7874015748031497,
          "duration": 0.001077839583331297
        },
        {
          "name": "D#7",
          "midi": 99,
          "time": 292.8274579999975,
          "velocity": 0.7874015748031497,
          "duration": 0.001077839583331297
        },
        {
          "name": "C7",
          "midi": 96,
          "time": 293.08506166041417,
          "velocity": 0.7874015748031497,
          "duration": 0.001077839583331297
        },
        {
          "name": "D#7",
          "midi": 99,
          "time": 293.3437431604142,
          "velocity": 0.7874015748031497,
          "duration": 0.001077839583331297
        },
        {
          "name": "C7",
          "midi": 96,
          "time": 293.6024246604142,
          "velocity": 0.7874015748031497,
          "duration": 0.001077839583331297
        },
        {
          "name": "C7",
          "midi": 96,
          "time": 293.86218399999757,
          "velocity": 0.7874015748031497,
          "duration": 0.001077839583331297
        },
        {
          "name": "D#7",
          "midi": 99,
          "time": 293.86218399999757,
          "velocity": 0.7874015748031497,
          "duration": 0.001077839583331297
        },
        {
          "name": "C#7",
          "midi": 97,
          "time": 294.37954699999756,
          "velocity": 0.7874015748031497,
          "duration": 0.001077839583331297
        },
        {
          "name": "D#7",
          "midi": 99,
          "time": 294.37954699999756,
          "velocity": 0.7874015748031497,
          "duration": 0.001077839583331297
        },
        {
          "name": "D#7",
          "midi": 99,
          "time": 294.89690999999755,
          "velocity": 0.7874015748031497,
          "duration": 0.001077839583331297
        },
        {
          "name": "C7",
          "midi": 96,
          "time": 295.41427299999754,
          "velocity": 0.7874015748031497,
          "duration": 0.001077839583331297
        },
        {
          "name": "D#7",
          "midi": 99,
          "time": 295.41427299999754,
          "velocity": 0.7874015748031497,
          "duration": 0.001077839583331297
        },
        {
          "name": "C7",
          "midi": 96,
          "time": 295.9316359999975,
          "velocity": 0.7874015748031497,
          "duration": 0.001077839583331297
        },
        {
          "name": "D#7",
          "midi": 99,
          "time": 295.9316359999975,
          "velocity": 0.7874015748031497,
          "duration": 0.001077839583331297
        },
        {
          "name": "C#7",
          "midi": 97,
          "time": 296.4489989999975,
          "velocity": 0.7874015748031497,
          "duration": 0.001077839583331297
        },
        {
          "name": "D#7",
          "midi": 99,
          "time": 296.4489989999975,
          "velocity": 0.7874015748031497,
          "duration": 0.001077839583331297
        },
        {
          "name": "D#7",
          "midi": 99,
          "time": 296.96528416041417,
          "velocity": 0.7874015748031497,
          "duration": 0.001077839583331297
        },
        {
          "name": "C7",
          "midi": 96,
          "time": 297.22288782083086,
          "velocity": 0.7874015748031497,
          "duration": 0.001077839583331297
        },
        {
          "name": "D#7",
          "midi": 99,
          "time": 297.48372499999755,
          "velocity": 0.7874015748031497,
          "duration": 0.001077839583331297
        },
        {
          "name": "C7",
          "midi": 96,
          "time": 297.74240649999757,
          "velocity": 0.7874015748031497,
          "duration": 0.001077839583331297
        },
        {
          "name": "C7",
          "midi": 96,
          "time": 298.00001016041426,
          "velocity": 0.7874015748031497,
          "duration": 0.001077839583331297
        },
        {
          "name": "D#7",
          "midi": 99,
          "time": 298.00001016041426,
          "velocity": 0.7874015748031497,
          "duration": 0.001077839583331297
        },
        {
          "name": "C#7",
          "midi": 97,
          "time": 298.5184509999976,
          "velocity": 0.7874015748031497,
          "duration": 0.001077839583331297
        },
        {
          "name": "D#7",
          "midi": 99,
          "time": 298.5184509999976,
          "velocity": 0.7874015748031497,
          "duration": 0.001077839583331297
        },
        {
          "name": "D#7",
          "midi": 99,
          "time": 299.0358139999976,
          "velocity": 0.7874015748031497,
          "duration": 0.001077839583331297
        },
        {
          "name": "C7",
          "midi": 96,
          "time": 299.55317699999756,
          "velocity": 0.7874015748031497,
          "duration": 0.001077839583331297
        },
        {
          "name": "D#7",
          "midi": 99,
          "time": 299.55317699999756,
          "velocity": 0.7874015748031497,
          "duration": 0.001077839583331297
        },
        {
          "name": "C7",
          "midi": 96,
          "time": 300.07053999999755,
          "velocity": 0.7874015748031497,
          "duration": 0.001077839583331297
        },
        {
          "name": "D#7",
          "midi": 99,
          "time": 300.07053999999755,
          "velocity": 0.7874015748031497,
          "duration": 0.001077839583331297
        },
        {
          "name": "C#7",
          "midi": 97,
          "time": 300.5868251604142,
          "velocity": 0.7874015748031497,
          "duration": 0.001077839583331297
        },
        {
          "name": "D#7",
          "midi": 99,
          "time": 300.5868251604142,
          "velocity": 0.7874015748031497,
          "duration": 0.001077839583331297
        },
        {
          "name": "D#7",
          "midi": 99,
          "time": 301.1041881604142,
          "velocity": 0.7874015748031497,
          "duration": 0.001077839583331297
        },
        {
          "name": "C7",
          "midi": 96,
          "time": 301.3617918208309,
          "velocity": 0.7874015748031497,
          "duration": 0.001077839583331297
        },
        {
          "name": "D#7",
          "midi": 99,
          "time": 301.62155116041424,
          "velocity": 0.7874015748031497,
          "duration": 0.001077839583331297
        },
        {
          "name": "C7",
          "midi": 96,
          "time": 301.88023266041426,
          "velocity": 0.7874015748031497,
          "duration": 0.001077839583331297
        },
        {
          "name": "C7",
          "midi": 96,
          "time": 302.1399919999976,
          "velocity": 0.7874015748031497,
          "duration": 0.001077839583331297
        },
        {
          "name": "D#7",
          "midi": 99,
          "time": 302.1399919999976,
          "velocity": 0.7874015748031497,
          "duration": 0.001077839583331297
        },
        {
          "name": "C#7",
          "midi": 97,
          "time": 302.6573549999976,
          "velocity": 0.7874015748031497,
          "duration": 0.001077839583331297
        },
        {
          "name": "D#7",
          "midi": 99,
          "time": 302.6573549999976,
          "velocity": 0.7874015748031497,
          "duration": 0.001077839583331297
        },
        {
          "name": "D#7",
          "midi": 99,
          "time": 303.1747179999976,
          "velocity": 0.7874015748031497,
          "duration": 0.001077839583331297
        },
        {
          "name": "C7",
          "midi": 96,
          "time": 303.6920809999976,
          "velocity": 0.7874015748031497,
          "duration": 0.001077839583331297
        },
        {
          "name": "E7",
          "midi": 100,
          "time": 303.6920809999976,
          "velocity": 0.7874015748031497,
          "duration": 0.001077839583331297
        },
        {
          "name": "D#7",
          "midi": 99,
          "time": 304.2094439999976,
          "velocity": 0.7874015748031497,
          "duration": 0.001077839583331297
        },
        {
          "name": "C#7",
          "midi": 97,
          "time": 304.72680699999756,
          "velocity": 0.7874015748031497,
          "duration": 0.001077839583331297
        },
        {
          "name": "D#7",
          "midi": 99,
          "time": 304.72680699999756,
          "velocity": 0.7874015748031497,
          "duration": 0.001077839583331297
        },
        {
          "name": "D#7",
          "midi": 99,
          "time": 305.24416999999755,
          "velocity": 0.7874015748031497,
          "duration": 0.001077839583331297
        },
        {
          "name": "C7",
          "midi": 96,
          "time": 305.50177366041424,
          "velocity": 0.7874015748031497,
          "duration": 0.001077839583331297
        },
        {
          "name": "C7",
          "midi": 96,
          "time": 305.7615329999976,
          "velocity": 0.7874015748031497,
          "duration": 0.001077839583331297
        },
        {
          "name": "D#7",
          "midi": 99,
          "time": 305.7615329999976,
          "velocity": 0.7874015748031497,
          "duration": 0.001077839583331297
        },
        {
          "name": "C7",
          "midi": 96,
          "time": 306.2788959999976,
          "velocity": 0.7874015748031497,
          "duration": 0.001077839583331297
        },
        {
          "name": "D#7",
          "midi": 99,
          "time": 306.2788959999976,
          "velocity": 0.7874015748031497,
          "duration": 0.001077839583331297
        },
        {
          "name": "C#7",
          "midi": 97,
          "time": 306.7962589999976,
          "velocity": 0.7874015748031497,
          "duration": 0.001077839583331297
        },
        {
          "name": "E7",
          "midi": 100,
          "time": 306.7962589999976,
          "velocity": 0.7874015748031497,
          "duration": 0.001077839583331297
        },
        {
          "name": "C7",
          "midi": 96,
          "time": 307.05386266041427,
          "velocity": 0.7874015748031497,
          "duration": 0.001077839583331297
        },
        {
          "name": "D8",
          "midi": 110,
          "time": 307.3136219999976,
          "velocity": 0.7874015748031497,
          "duration": 0.001077839583331297
        },
        {
          "name": "D7",
          "midi": 98,
          "time": 307.3136219999976,
          "velocity": 0.7874015748031497,
          "duration": 0.001077839583331297
        },
        {
          "name": "C7",
          "midi": 96,
          "time": 307.8309849999976,
          "velocity": 0.7874015748031497,
          "duration": 0.001077839583331297
        },
        {
          "name": "E7",
          "midi": 100,
          "time": 307.8309849999976,
          "velocity": 0.7874015748031497,
          "duration": 0.001077839583331297
        },
        {
          "name": "D#7",
          "midi": 99,
          "time": 308.3483479999976,
          "velocity": 0.7874015748031497,
          "duration": 0.001077839583331297
        },
        {
          "name": "C#7",
          "midi": 97,
          "time": 308.8657109999976,
          "velocity": 0.7874015748031497,
          "duration": 0.001077839583331297
        },
        {
          "name": "D#7",
          "midi": 99,
          "time": 308.8657109999976,
          "velocity": 0.7874015748031497,
          "duration": 0.001077839583331297
        },
        {
          "name": "D#7",
          "midi": 99,
          "time": 309.3830739999976,
          "velocity": 0.7874015748031497,
          "duration": 0.001077839583331297
        },
        {
          "name": "C7",
          "midi": 96,
          "time": 309.6395998208309,
          "velocity": 0.7874015748031497,
          "duration": 0.001077839583331297
        },
        {
          "name": "C7",
          "midi": 96,
          "time": 309.90043699999757,
          "velocity": 0.7874015748031497,
          "duration": 0.001077839583331297
        },
        {
          "name": "D#7",
          "midi": 99,
          "time": 309.90043699999757,
          "velocity": 0.7874015748031497,
          "duration": 0.001077839583331297
        },
        {
          "name": "C7",
          "midi": 96,
          "time": 310.41779999999756,
          "velocity": 0.7874015748031497,
          "duration": 0.001077839583331297
        },
        {
          "name": "E7",
          "midi": 100,
          "time": 310.41779999999756,
          "velocity": 0.7874015748031497,
          "duration": 0.001077839583331297
        },
        {
          "name": "C#7",
          "midi": 97,
          "time": 311.19276666041424,
          "velocity": 0.7874015748031497,
          "duration": 0.001077839583331297
        },
        {
          "name": "D8",
          "midi": 110,
          "time": 311.4525259999976,
          "velocity": 0.7874015748031497,
          "duration": 0.001077839583331297
        },
        {
          "name": "D7",
          "midi": 98,
          "time": 311.4525259999976,
          "velocity": 0.7874015748031497,
          "duration": 0.001077839583331297
        },
        {
          "name": "C7",
          "midi": 96,
          "time": 311.9698889999976,
          "velocity": 0.7874015748031497,
          "duration": 0.001077839583331297
        },
        {
          "name": "E7",
          "midi": 100,
          "time": 311.9698889999976,
          "velocity": 0.7874015748031497,
          "duration": 0.001077839583331297
        },
        {
          "name": "C#7",
          "midi": 97,
          "time": 312.74485566041426,
          "velocity": 0.7874015748031497,
          "duration": 0.001077839583331297
        },
        {
          "name": "D8",
          "midi": 110,
          "time": 313.0046149999976,
          "velocity": 0.7874015748031497,
          "duration": 0.001077839583331297
        },
        {
          "name": "D7",
          "midi": 98,
          "time": 313.0046149999976,
          "velocity": 0.7874015748031497,
          "duration": 0.001077839583331297
        },
        {
          "name": "C#7",
          "midi": 97,
          "time": 313.7795816604143,
          "velocity": 0.7874015748031497,
          "duration": 0.001077839583331297
        },
        {
          "name": "D8",
          "midi": 110,
          "time": 314.03934099999765,
          "velocity": 0.7874015748031497,
          "duration": 0.001077839583331297
        },
        {
          "name": "D7",
          "midi": 98,
          "time": 314.03934099999765,
          "velocity": 0.7874015748031497,
          "duration": 0.001077839583331297
        },
        {
          "name": "D8",
          "midi": 110,
          "time": 314.55670399999764,
          "velocity": 0.7874015748031497,
          "duration": 0.001077839583331297
        },
        {
          "name": "D7",
          "midi": 98,
          "time": 314.55670399999764,
          "velocity": 0.7874015748031497,
          "duration": 0.001077839583331297
        },
        {
          "name": "D#8",
          "midi": 111,
          "time": 315.0740669999976,
          "velocity": 0.7874015748031497,
          "duration": 0.001077839583331297
        },
        {
          "name": "D#7",
          "midi": 99,
          "time": 315.0740669999976,
          "velocity": 0.7874015748031497,
          "duration": 0.001077839583331297
        },
        {
          "name": "D#8",
          "midi": 111,
          "time": 315.3316706604143,
          "velocity": 0.7874015748031497,
          "duration": 0.001077839583331297
        },
        {
          "name": "D#7",
          "midi": 99,
          "time": 315.3316706604143,
          "velocity": 0.7874015748031497,
          "duration": 0.001077839583331297
        },
        {
          "name": "D#8",
          "midi": 111,
          "time": 315.59035216041434,
          "velocity": 0.7874015748031497,
          "duration": 0.001077839583331297
        },
        {
          "name": "D#7",
          "midi": 99,
          "time": 315.59035216041434,
          "velocity": 0.7874015748031497,
          "duration": 0.001077839583331297
        },
        {
          "name": "C7",
          "midi": 96,
          "time": 316.10771516041433,
          "velocity": 0.7874015748031497,
          "duration": 0.001077839583331297
        },
        {
          "name": "E7",
          "midi": 100,
          "time": 316.10771516041433,
          "velocity": 0.7874015748031497,
          "duration": 0.001077839583331297
        },
        {
          "name": "D#7",
          "midi": 99,
          "time": 316.62615599999765,
          "velocity": 0.7874015748031497,
          "duration": 0.001077839583331297
        },
        {
          "name": "C#7",
          "midi": 97,
          "time": 317.14351899999764,
          "velocity": 0.7874015748031497,
          "duration": 0.001077839583331297
        },
        {
          "name": "D#7",
          "midi": 99,
          "time": 317.14351899999764,
          "velocity": 0.7874015748031497,
          "duration": 0.001077839583331297
        },
        {
          "name": "D#7",
          "midi": 99,
          "time": 317.6608819999976,
          "velocity": 0.7874015748031497,
          "duration": 0.001077839583331297
        },
        {
          "name": "C7",
          "midi": 96,
          "time": 317.9184856604143,
          "velocity": 0.7874015748031497,
          "duration": 0.001077839583331297
        },
        {
          "name": "C7",
          "midi": 96,
          "time": 318.1782449999977,
          "velocity": 0.7874015748031497,
          "duration": 0.001077839583331297
        },
        {
          "name": "D#7",
          "midi": 99,
          "time": 318.1782449999977,
          "velocity": 0.7874015748031497,
          "duration": 0.001077839583331297
        },
        {
          "name": "C7",
          "midi": 96,
          "time": 318.69560799999766,
          "velocity": 0.7874015748031497,
          "duration": 0.001077839583331297
        },
        {
          "name": "E7",
          "midi": 100,
          "time": 318.69560799999766,
          "velocity": 0.7874015748031497,
          "duration": 0.001077839583331297
        },
        {
          "name": "C#7",
          "midi": 97,
          "time": 319.4716524999977,
          "velocity": 0.7874015748031497,
          "duration": 0.001077839583331297
        },
        {
          "name": "D8",
          "midi": 110,
          "time": 319.7303339999977,
          "velocity": 0.7874015748031497,
          "duration": 0.001077839583331297
        },
        {
          "name": "D7",
          "midi": 98,
          "time": 319.7303339999977,
          "velocity": 0.7874015748031497,
          "duration": 0.001077839583331297
        },
        {
          "name": "C7",
          "midi": 96,
          "time": 320.2476969999977,
          "velocity": 0.7874015748031497,
          "duration": 0.001077839583331297
        },
        {
          "name": "E7",
          "midi": 100,
          "time": 320.2476969999977,
          "velocity": 0.7874015748031497,
          "duration": 0.001077839583331297
        },
        {
          "name": "D#7",
          "midi": 99,
          "time": 320.7650599999977,
          "velocity": 0.7874015748031497,
          "duration": 0.001077839583331297
        },
        {
          "name": "C#7",
          "midi": 97,
          "time": 321.28242299999766,
          "velocity": 0.7874015748031497,
          "duration": 0.001077839583331297
        },
        {
          "name": "D#7",
          "midi": 99,
          "time": 321.28242299999766,
          "velocity": 0.7874015748031497,
          "duration": 0.001077839583331297
        },
        {
          "name": "D#7",
          "midi": 99,
          "time": 321.79978599999765,
          "velocity": 0.7874015748031497,
          "duration": 0.001077839583331297
        },
        {
          "name": "C7",
          "midi": 96,
          "time": 322.05631182083096,
          "velocity": 0.7874015748031497,
          "duration": 0.001077839583331297
        },
        {
          "name": "C7",
          "midi": 96,
          "time": 322.3160711604143,
          "velocity": 0.7874015748031497,
          "duration": 0.001077839583331297
        },
        {
          "name": "D#7",
          "midi": 99,
          "time": 322.3160711604143,
          "velocity": 0.7874015748031497,
          "duration": 0.001077839583331297
        },
        {
          "name": "C7",
          "midi": 96,
          "time": 322.83235632083097,
          "velocity": 0.7874015748031497,
          "duration": 0.002155679166662594
        },
        {
          "name": "E7",
          "midi": 100,
          "time": 322.83235632083097,
          "velocity": 0.7874015748031497,
          "duration": 0.002155679166662594
        },
        {
          "name": "C#7",
          "midi": 97,
          "time": 323.61055649999764,
          "velocity": 0.7874015748031497,
          "duration": 0.001077839583331297
        },
        {
          "name": "D8",
          "midi": 110,
          "time": 323.86923799999767,
          "velocity": 0.7874015748031497,
          "duration": 0.001077839583331297
        },
        {
          "name": "D7",
          "midi": 98,
          "time": 323.86923799999767,
          "velocity": 0.7874015748031497,
          "duration": 0.001077839583331297
        },
        {
          "name": "C7",
          "midi": 96,
          "time": 324.38660099999765,
          "velocity": 0.7874015748031497,
          "duration": 0.001077839583331297
        },
        {
          "name": "E7",
          "midi": 100,
          "time": 324.38660099999765,
          "velocity": 0.7874015748031497,
          "duration": 0.001077839583331297
        },
        {
          "name": "D#7",
          "midi": 99,
          "time": 324.90396399999764,
          "velocity": 0.7874015748031497,
          "duration": 0.001077839583331297
        },
        {
          "name": "C#7",
          "midi": 97,
          "time": 325.42132699999763,
          "velocity": 0.7874015748031497,
          "duration": 0.001077839583331297
        },
        {
          "name": "D#7",
          "midi": 99,
          "time": 325.42132699999763,
          "velocity": 0.7874015748031497,
          "duration": 0.001077839583331297
        },
        {
          "name": "D#7",
          "midi": 99,
          "time": 325.9386899999976,
          "velocity": 0.7874015748031497,
          "duration": 0.001077839583331297
        },
        {
          "name": "C7",
          "midi": 96,
          "time": 326.1962936604143,
          "velocity": 0.7874015748031497,
          "duration": 0.001077839583331297
        },
        {
          "name": "C7",
          "midi": 96,
          "time": 326.45497516041434,
          "velocity": 0.7874015748031497,
          "duration": 0.001077839583331297
        },
        {
          "name": "D#7",
          "midi": 99,
          "time": 326.45497516041434,
          "velocity": 0.7874015748031497,
          "duration": 0.001077839583331297
        },
        {
          "name": "D8",
          "midi": 110,
          "time": 326.97341599999766,
          "velocity": 0.7874015748031497,
          "duration": 0.001077839583331297
        },
        {
          "name": "C7",
          "midi": 96,
          "time": 326.97341599999766,
          "velocity": 0.7874015748031497,
          "duration": 0.001077839583331297
        },
        {
          "name": "D7",
          "midi": 98,
          "time": 326.97341599999766,
          "velocity": 0.7874015748031497,
          "duration": 0.001077839583331297
        },
        {
          "name": "D#7",
          "midi": 99,
          "time": 326.97341599999766,
          "velocity": 0.7874015748031497,
          "duration": 0.001077839583331297
        },
        {
          "name": "D8",
          "midi": 110,
          "time": 327.49077899999764,
          "velocity": 0.7874015748031497,
          "duration": 0.001077839583331297
        },
        {
          "name": "D7",
          "midi": 98,
          "time": 327.49077899999764,
          "velocity": 0.7874015748031497,
          "duration": 0.001077839583331297
        },
        {
          "name": "D#8",
          "midi": 111,
          "time": 327.74946049999767,
          "velocity": 0.7874015748031497,
          "duration": 0.001077839583331297
        },
        {
          "name": "D#7",
          "midi": 99,
          "time": 327.74946049999767,
          "velocity": 0.7874015748031497,
          "duration": 0.001077839583331297
        },
        {
          "name": "D#8",
          "midi": 111,
          "time": 328.0081419999977,
          "velocity": 0.7874015748031497,
          "duration": 0.001077839583331297
        },
        {
          "name": "D#7",
          "midi": 99,
          "time": 328.0081419999977,
          "velocity": 0.7874015748031497,
          "duration": 0.001077839583331297
        },
        {
          "name": "C7",
          "midi": 96,
          "time": 328.52442716041435,
          "velocity": 0.7874015748031497,
          "duration": 0.001077839583331297
        },
        {
          "name": "E7",
          "midi": 100,
          "time": 328.52442716041435,
          "velocity": 0.7874015748031497,
          "duration": 0.001077839583331297
        },
        {
          "name": "D#7",
          "midi": 99,
          "time": 329.04286799999767,
          "velocity": 0.7874015748031497,
          "duration": 0.001077839583331297
        },
        {
          "name": "C#7",
          "midi": 97,
          "time": 329.56023099999766,
          "velocity": 0.7874015748031497,
          "duration": 0.001077839583331297
        },
        {
          "name": "D#7",
          "midi": 99,
          "time": 329.56023099999766,
          "velocity": 0.7874015748031497,
          "duration": 0.001077839583331297
        },
        {
          "name": "D#7",
          "midi": 99,
          "time": 330.07759399999765,
          "velocity": 0.7874015748031497,
          "duration": 0.001077839583331297
        },
        {
          "name": "C7",
          "midi": 96,
          "time": 330.33519766041434,
          "velocity": 0.7874015748031497,
          "duration": 0.001077839583331297
        },
        {
          "name": "C7",
          "midi": 96,
          "time": 330.5949569999977,
          "velocity": 0.7874015748031497,
          "duration": 0.001077839583331297
        },
        {
          "name": "D#7",
          "midi": 99,
          "time": 330.5949569999977,
          "velocity": 0.7874015748031497,
          "duration": 0.001077839583331297
        },
        {
          "name": "D8",
          "midi": 110,
          "time": 331.11124216041435,
          "velocity": 0.7874015748031497,
          "duration": 0.001077839583331297
        },
        {
          "name": "C#7",
          "midi": 97,
          "time": 331.11124216041435,
          "velocity": 0.7874015748031497,
          "duration": 0.001077839583331297
        },
        {
          "name": "D7",
          "midi": 98,
          "time": 331.11124216041435,
          "velocity": 0.7874015748031497,
          "duration": 0.001077839583331297
        },
        {
          "name": "C#7",
          "midi": 97,
          "time": 331.62860516041434,
          "velocity": 0.7874015748031497,
          "duration": 0.001077839583331297
        },
        {
          "name": "D8",
          "midi": 110,
          "time": 331.88728666041436,
          "velocity": 0.7874015748031497,
          "duration": 0.001077839583331297
        },
        {
          "name": "D7",
          "midi": 98,
          "time": 331.88728666041436,
          "velocity": 0.7874015748031497,
          "duration": 0.001077839583331297
        },
        {
          "name": "D8",
          "midi": 110,
          "time": 332.1459681604144,
          "velocity": 0.7874015748031497,
          "duration": 0.001077839583331297
        },
        {
          "name": "D7",
          "midi": 98,
          "time": 332.1459681604144,
          "velocity": 0.7874015748031497,
          "duration": 0.001077839583331297
        },
        {
          "name": "C7",
          "midi": 96,
          "time": 332.6644089999977,
          "velocity": 0.7874015748031497,
          "duration": 0.001077839583331297
        },
        {
          "name": "E7",
          "midi": 100,
          "time": 332.6644089999977,
          "velocity": 0.7874015748031497,
          "duration": 0.001077839583331297
        },
        {
          "name": "D#7",
          "midi": 99,
          "time": 333.1817719999977,
          "velocity": 0.7874015748031497,
          "duration": 0.001077839583331297
        },
        {
          "name": "C#7",
          "midi": 97,
          "time": 333.6991349999977,
          "velocity": 0.7874015748031497,
          "duration": 0.001077839583331297
        },
        {
          "name": "D#7",
          "midi": 99,
          "time": 333.6991349999977,
          "velocity": 0.7874015748031497,
          "duration": 0.001077839583331297
        },
        {
          "name": "D#7",
          "midi": 99,
          "time": 334.21649799999767,
          "velocity": 0.7874015748031497,
          "duration": 0.001077839583331297
        },
        {
          "name": "C7",
          "midi": 96,
          "time": 334.473023820831,
          "velocity": 0.7874015748031497,
          "duration": 0.001077839583331297
        },
        {
          "name": "C7",
          "midi": 96,
          "time": 334.73386099999766,
          "velocity": 0.7874015748031497,
          "duration": 0.001077839583331297
        },
        {
          "name": "D#7",
          "midi": 99,
          "time": 334.73386099999766,
          "velocity": 0.7874015748031497,
          "duration": 0.001077839583331297
        },
        {
          "name": "C7",
          "midi": 96,
          "time": 335.25122399999765,
          "velocity": 0.7874015748031497,
          "duration": 0.001077839583331297
        },
        {
          "name": "E7",
          "midi": 100,
          "time": 335.25122399999765,
          "velocity": 0.7874015748031497,
          "duration": 0.001077839583331297
        },
        {
          "name": "C#7",
          "midi": 97,
          "time": 336.02619066041433,
          "velocity": 0.7874015748031497,
          "duration": 0.001077839583331297
        },
        {
          "name": "D8",
          "midi": 110,
          "time": 336.2859499999977,
          "velocity": 0.7874015748031497,
          "duration": 0.001077839583331297
        },
        {
          "name": "D7",
          "midi": 98,
          "time": 336.2859499999977,
          "velocity": 0.7874015748031497,
          "duration": 0.001077839583331297
        },
        {
          "name": "C7",
          "midi": 96,
          "time": 336.80223516041434,
          "velocity": 0.7874015748031497,
          "duration": 0.001077839583331297
        },
        {
          "name": "E7",
          "midi": 100,
          "time": 336.80223516041434,
          "velocity": 0.7874015748031497,
          "duration": 0.001077839583331297
        },
        {
          "name": "D#7",
          "midi": 99,
          "time": 337.32067599999766,
          "velocity": 0.7874015748031497,
          "duration": 0.001077839583331297
        },
        {
          "name": "C#7",
          "midi": 97,
          "time": 337.835883320831,
          "velocity": 0.7874015748031497,
          "duration": 0.002155679166662594
        },
        {
          "name": "D#7",
          "midi": 99,
          "time": 337.835883320831,
          "velocity": 0.7874015748031497,
          "duration": 0.002155679166662594
        },
        {
          "name": "D#7",
          "midi": 99,
          "time": 338.35540199999764,
          "velocity": 0.7874015748031497,
          "duration": 0.001077839583331297
        },
        {
          "name": "C7",
          "midi": 96,
          "time": 338.61192782083094,
          "velocity": 0.7874015748031497,
          "duration": 0.001077839583331297
        },
        {
          "name": "D#7",
          "midi": 99,
          "time": 338.8727649999976,
          "velocity": 0.7874015748031497,
          "duration": 0.001077839583331297
        },
        {
          "name": "C7",
          "midi": 96,
          "time": 339.13144649999765,
          "velocity": 0.7874015748031497,
          "duration": 0.001077839583331297
        },
        {
          "name": "C7",
          "midi": 96,
          "time": 339.3901279999977,
          "velocity": 0.7874015748031497,
          "duration": 0.001077839583331297
        },
        {
          "name": "D#7",
          "midi": 99,
          "time": 339.3901279999977,
          "velocity": 0.7874015748031497,
          "duration": 0.001077839583331297
        },
        {
          "name": "C7",
          "midi": 96,
          "time": 339.90749099999766,
          "velocity": 0.7874015748031497,
          "duration": 0.001077839583331297
        },
        {
          "name": "E7",
          "midi": 100,
          "time": 339.90749099999766,
          "velocity": 0.7874015748031497,
          "duration": 0.001077839583331297
        },
        {
          "name": "C7",
          "midi": 96,
          "time": 340.42485399999765,
          "velocity": 0.7874015748031497,
          "duration": 0.001077839583331297
        },
        {
          "name": "D#7",
          "midi": 99,
          "time": 340.42485399999765,
          "velocity": 0.7874015748031497,
          "duration": 0.001077839583331297
        },
        {
          "name": "C7",
          "midi": 96,
          "time": 340.94221699999764,
          "velocity": 0.7874015748031497,
          "duration": 0.001077839583331297
        },
        {
          "name": "E7",
          "midi": 100,
          "time": 340.94221699999764,
          "velocity": 0.7874015748031497,
          "duration": 0.001077839583331297
        },
        {
          "name": "D#7",
          "midi": 99,
          "time": 341.45957999999763,
          "velocity": 0.7874015748031497,
          "duration": 0.001077839583331297
        },
        {
          "name": "C#7",
          "midi": 97,
          "time": 341.9769429999976,
          "velocity": 0.7874015748031497,
          "duration": 0.001077839583331297
        },
        {
          "name": "E7",
          "midi": 100,
          "time": 341.9769429999976,
          "velocity": 0.7874015748031497,
          "duration": 0.001077839583331297
        },
        {
          "name": "D#7",
          "midi": 99,
          "time": 342.4943059999976,
          "velocity": 0.7874015748031497,
          "duration": 0.001077839583331297
        },
        {
          "name": "C7",
          "midi": 96,
          "time": 342.7519096604143,
          "velocity": 0.7874015748031497,
          "duration": 0.001077839583331297
        },
        {
          "name": "C7",
          "midi": 96,
          "time": 343.01166899999765,
          "velocity": 0.7874015748031497,
          "duration": 0.001077839583331297
        },
        {
          "name": "D#7",
          "midi": 99,
          "time": 343.01166899999765,
          "velocity": 0.7874015748031497,
          "duration": 0.001077839583331297
        },
        {
          "name": "C7",
          "midi": 96,
          "time": 343.52903199999764,
          "velocity": 0.7874015748031497,
          "duration": 0.001077839583331297
        },
        {
          "name": "D#7",
          "midi": 99,
          "time": 343.52903199999764,
          "velocity": 0.7874015748031497,
          "duration": 0.001077839583331297
        },
        {
          "name": "C#7",
          "midi": 97,
          "time": 344.04639499999763,
          "velocity": 0.7874015748031497,
          "duration": 0.001077839583331297
        },
        {
          "name": "D#7",
          "midi": 99,
          "time": 344.04639499999763,
          "velocity": 0.7874015748031497,
          "duration": 0.001077839583331297
        },
        {
          "name": "D#7",
          "midi": 99,
          "time": 344.5637579999976,
          "velocity": 0.7874015748031497,
          "duration": 0.001077839583331297
        },
        {
          "name": "C7",
          "midi": 96,
          "time": 344.82243949999764,
          "velocity": 0.7874015748031497,
          "duration": 0.001077839583331297
        },
        {
          "name": "C7",
          "midi": 96,
          "time": 345.08112099999767,
          "velocity": 0.7874015748031497,
          "duration": 0.001077839583331297
        },
        {
          "name": "D#7",
          "midi": 99,
          "time": 345.08112099999767,
          "velocity": 0.7874015748031497,
          "duration": 0.001077839583331297
        }
      ],
      "controlChanges": {},
      "id": 3,
      "name": "PART DRUMS",
      "channelNumber": 0,
      "isPercussion": false
    }
  ]
}
